<?xml version="1.0" encoding="UTF-8" standalone="no"?>
<!DOCTYPE svg PUBLIC "-//W3C//DTD SVG 1.1//EN"
 "http://www.w3.org/Graphics/SVG/1.1/DTD/svg11.dtd">
<!-- Generated by graphviz version 2.36.0 (20140111.2315)
 -->
<!-- Title: rbd_tree Pages: 1 -->
<svg width="440pt" height="189pt"
 viewBox="0.00 0.00 440.00 189.00" xmlns="http://www.w3.org/2000/svg" xmlns:xlink="http://www.w3.org/1999/xlink">
<g id="graph0" class="graph" transform="scale(1 1) rotate(0) translate(4 185)">
<title>rbd_tree</title>
<polygon fill="white" stroke="none" points="-4,4 -4,-185 436,-185 436,4 -4,4"/>
<!-- Node1 -->
<g id="node1" class="node"><title>Node1</title>
<polygon fill="#bfbfbf" stroke="black" points="0,-38.5 0,-57.5 52,-57.5 52,-38.5 0,-38.5"/>
<text text-anchor="middle" x="26" y="-45.5" font-family="Helvetica,sans-Serif" font-size="10.00">rbd_tree</text>
</g>
<!-- Node2 -->
<g id="node2" class="node"><title>Node2</title>
<g id="a_node2"><a xlink:href="../../df/da7/bd__tree_8cpp.html#adeb2d76e77ce2ab143d9867d3cb5b505" target="_top" xlink:title="selectDecomp">
<polygon fill="white" stroke="black" points="88,-85.5 88,-104.5 168,-104.5 168,-85.5 88,-85.5"/>
<text text-anchor="middle" x="128" y="-92.5" font-family="Helvetica,sans-Serif" font-size="10.00">selectDecomp</text>
</a>
</g>
</g>
<!-- Node1&#45;&gt;Node2 -->
<g id="edge1" class="edge"><title>Node1&#45;&gt;Node2</title>
<path fill="none" stroke="midnightblue" d="M47.2365,-57.5112C61.6442,-64.2828 81.236,-73.4909 97.3968,-81.0865"/>
<polygon fill="midnightblue" stroke="midnightblue" points="95.9113,-84.2556 106.45,-85.3417 98.8889,-77.9204 95.9113,-84.2556"/>
</g>
<!-- Node10 -->
<g id="node10" class="node"><title>Node10</title>
<g id="a_node10"><a xlink:href="../../d9/d87/kd__util_8cpp.html#a143da22f78c0a096963e6ef3eff3254a" target="_top" xlink:title="annBoxSplit">
<polygon fill="white" stroke="black" points="93.5,-38.5 93.5,-57.5 162.5,-57.5 162.5,-38.5 93.5,-38.5"/>
<text text-anchor="middle" x="128" y="-45.5" font-family="Helvetica,sans-Serif" font-size="10.00">annBoxSplit</text>
</a>
</g>
</g>
<!-- Node1&#45;&gt;Node10 -->
<g id="edge9" class="edge"><title>Node1&#45;&gt;Node10</title>
<path fill="none" stroke="midnightblue" d="M52.2342,-48C61.7051,-48 72.7621,-48 83.4229,-48"/>
<polygon fill="midnightblue" stroke="midnightblue" points="83.4581,-51.5001 93.4581,-48 83.458,-44.5001 83.4581,-51.5001"/>
</g>
<!-- Node12 -->
<g id="node12" class="node"><title>Node12</title>
<g id="a_node12"><a xlink:href="../../d9/d87/kd__util_8cpp.html#a01292be79b7bd38cff456094b6ebea6b" target="_top" xlink:title="annBox2Bnds">
<polygon fill="white" stroke="black" points="89.5,-0.5 89.5,-19.5 166.5,-19.5 166.5,-0.5 89.5,-0.5"/>
<text text-anchor="middle" x="128" y="-7.5" font-family="Helvetica,sans-Serif" font-size="10.00">annBox2Bnds</text>
</a>
</g>
</g>
<!-- Node1&#45;&gt;Node12 -->
<g id="edge11" class="edge"><title>Node1&#45;&gt;Node12</title>
<path fill="none" stroke="midnightblue" d="M52.2342,-38.411C64.3142,-33.8206 78.9745,-28.2497 92.102,-23.2612"/>
<polygon fill="midnightblue" stroke="midnightblue" points="93.6693,-26.4099 101.774,-19.5859 91.1827,-19.8664 93.6693,-26.4099"/>
</g>
<!-- Node3 -->
<g id="node3" class="node"><title>Node3</title>
<g id="a_node3"><a xlink:href="../../df/da7/bd__tree_8cpp.html#a759c10464cd5cc31f03f2db13c4b6a09" target="_top" xlink:title="trySimpleShrink">
<polygon fill="white" stroke="black" points="215,-161.5 215,-180.5 301,-180.5 301,-161.5 215,-161.5"/>
<text text-anchor="middle" x="258" y="-168.5" font-family="Helvetica,sans-Serif" font-size="10.00">trySimpleShrink</text>
</a>
</g>
</g>
<!-- Node2&#45;&gt;Node3 -->
<g id="edge2" class="edge"><title>Node2&#45;&gt;Node3</title>
<path fill="none" stroke="midnightblue" d="M145.211,-104.625C167.14,-117.645 206.458,-140.991 232.135,-156.236"/>
<polygon fill="midnightblue" stroke="midnightblue" points="230.535,-159.357 240.92,-161.453 234.109,-153.338 230.535,-159.357"/>
</g>
<!-- Node5 -->
<g id="node5" class="node"><title>Node5</title>
<g id="a_node5"><a xlink:href="../../df/da7/bd__tree_8cpp.html#a065d588d28739d479c61c8150bf8a441" target="_top" xlink:title="tryCentroidShrink">
<polygon fill="white" stroke="black" points="212,-104.5 212,-123.5 304,-123.5 304,-104.5 212,-104.5"/>
<text text-anchor="middle" x="258" y="-111.5" font-family="Helvetica,sans-Serif" font-size="10.00">tryCentroidShrink</text>
</a>
</g>
</g>
<!-- Node2&#45;&gt;Node5 -->
<g id="edge4" class="edge"><title>Node2&#45;&gt;Node5</title>
<path fill="none" stroke="midnightblue" d="M168.1,-100.804C178.682,-102.375 190.34,-104.105 201.634,-105.782"/>
<polygon fill="midnightblue" stroke="midnightblue" points="201.455,-109.293 211.861,-107.3 202.483,-102.369 201.455,-109.293"/>
</g>
<!-- Node8 -->
<g id="node8" class="node"><title>Node8</title>
<g id="a_node8"><a xlink:href="../../d5/d32/ANNx_8h.html#a9c45d5ab29fad7c514d22008daf15534" target="_top" xlink:title="annError">
<polygon fill="white" stroke="black" points="231.5,-66.5 231.5,-85.5 284.5,-85.5 284.5,-66.5 231.5,-66.5"/>
<text text-anchor="middle" x="258" y="-73.5" font-family="Helvetica,sans-Serif" font-size="10.00">annError</text>
</a>
</g>
</g>
<!-- Node2&#45;&gt;Node8 -->
<g id="edge7" class="edge"><title>Node2&#45;&gt;Node8</title>
<path fill="none" stroke="midnightblue" d="M168.1,-89.1961C184.986,-86.6895 204.613,-83.7762 221.123,-81.3255"/>
<polygon fill="midnightblue" stroke="midnightblue" points="222.085,-84.7212 231.462,-79.7907 221.057,-77.797 222.085,-84.7212"/>
</g>
<!-- Node4 -->
<g id="node4" class="node"><title>Node4</title>
<g id="a_node4"><a xlink:href="../../d9/d87/kd__util_8cpp.html#a6ed5406b7e20d7f1b0a15c0d21354f77" target="_top" xlink:title="annEnclRect">
<polygon fill="white" stroke="black" points="353.5,-161.5 353.5,-180.5 426.5,-180.5 426.5,-161.5 353.5,-161.5"/>
<text text-anchor="middle" x="390" y="-168.5" font-family="Helvetica,sans-Serif" font-size="10.00">annEnclRect</text>
</a>
</g>
</g>
<!-- Node3&#45;&gt;Node4 -->
<g id="edge3" class="edge"><title>Node3&#45;&gt;Node4</title>
<path fill="none" stroke="midnightblue" d="M301.207,-171C314.559,-171 329.38,-171 342.985,-171"/>
<polygon fill="midnightblue" stroke="midnightblue" points="343.107,-174.5 353.107,-171 343.107,-167.5 343.107,-174.5"/>
</g>
<!-- Node6 -->
<g id="node6" class="node"><title>Node6</title>
<g id="a_node6"><a xlink:href="../../db/d82/wglew_8h.html#a500a82aecba06f4550f6849b8099ca21" target="_top" xlink:title="int">
<polygon fill="white" stroke="black" points="375.5,-123.5 375.5,-142.5 404.5,-142.5 404.5,-123.5 375.5,-123.5"/>
<text text-anchor="middle" x="390" y="-130.5" font-family="Helvetica,sans-Serif" font-size="10.00">int</text>
</a>
</g>
</g>
<!-- Node5&#45;&gt;Node6 -->
<g id="edge5" class="edge"><title>Node5&#45;&gt;Node6</title>
<path fill="none" stroke="midnightblue" d="M304.103,-120.592C324.677,-123.599 348.193,-127.036 365.251,-129.529"/>
<polygon fill="midnightblue" stroke="midnightblue" points="365.031,-133.034 375.432,-131.017 366.043,-126.107 365.031,-133.034"/>
</g>
<!-- Node7 -->
<g id="node7" class="node"><title>Node7</title>
<g id="a_node7"><a xlink:href="../../d5/d32/ANNx_8h.html#aa570fcff6b3af0b516162d102c04c68b" target="_top" xlink:title="annAssignRect">
<polygon fill="white" stroke="black" points="348.5,-85.5 348.5,-104.5 431.5,-104.5 431.5,-85.5 348.5,-85.5"/>
<text text-anchor="middle" x="390" y="-92.5" font-family="Helvetica,sans-Serif" font-size="10.00">annAssignRect</text>
</a>
</g>
</g>
<!-- Node5&#45;&gt;Node7 -->
<g id="edge6" class="edge"><title>Node5&#45;&gt;Node7</title>
<path fill="none" stroke="midnightblue" d="M304.103,-107.408C315.108,-105.8 326.954,-104.068 338.204,-102.424"/>
<polygon fill="midnightblue" stroke="midnightblue" points="338.938,-105.854 348.327,-100.945 337.926,-98.9276 338.938,-105.854"/>
</g>
<!-- Node9 -->
<g id="node9" class="node"><title>Node9</title>
<g id="a_node9"><a xlink:href="../../d9/db8/glut_8h.html#a6f255d924f7a6bb2c4be0c8c2f2d9ce3" target="_top" xlink:title="exit">
<polygon fill="white" stroke="black" points="374,-47.5 374,-66.5 406,-66.5 406,-47.5 374,-47.5"/>
<text text-anchor="middle" x="390" y="-54.5" font-family="Helvetica,sans-Serif" font-size="10.00">exit</text>
</a>
</g>
</g>
<!-- Node8&#45;&gt;Node9 -->
<g id="edge8" class="edge"><title>Node8&#45;&gt;Node9</title>
<path fill="none" stroke="midnightblue" d="M284.684,-72.2462C307.68,-68.8852 341.194,-63.987 363.984,-60.6562"/>
<polygon fill="midnightblue" stroke="midnightblue" points="364.532,-64.1134 373.921,-59.2039 363.52,-57.187 364.532,-64.1134"/>
</g>
<!-- Node11 -->
<g id="node11" class="node"><title>Node11</title>
<g id="a_node11"><a xlink:href="../../df/d86/classANNorthRect.html#a11201db5ee69e87633d5a6e38ef60111" target="_top" xlink:title="ANNorthRect::inside">
<polygon fill="white" stroke="black" points="204.5,-28.5 204.5,-47.5 311.5,-47.5 311.5,-28.5 204.5,-28.5"/>
<text text-anchor="middle" x="258" y="-35.5" font-family="Helvetica,sans-Serif" font-size="10.00">ANNorthRect::inside</text>
</a>
</g>
</g>
<!-- Node10&#45;&gt;Node11 -->
<g id="edge10" class="edge"><title>Node10&#45;&gt;Node11</title>
<path fill="none" stroke="midnightblue" d="M162.63,-45.3726C172.385,-44.6106 183.364,-43.7528 194.293,-42.899"/>
<polygon fill="midnightblue" stroke="midnightblue" points="194.582,-46.3871 204.279,-42.1188 194.037,-39.4084 194.582,-46.3871"/>
</g>
</g>
</svg>
