<?xml version="1.0" encoding="UTF-8" standalone="no"?>
<!DOCTYPE svg PUBLIC "-//W3C//DTD SVG 1.1//EN"
 "http://www.w3.org/Graphics/SVG/1.1/DTD/svg11.dtd">
<!-- Generated by graphviz version 2.36.0 (20140111.2315)
 -->
<!-- Title: selectDecomp Pages: 1 -->
<svg width="336pt" height="142pt"
 viewBox="0.00 0.00 336.00 142.00" xmlns="http://www.w3.org/2000/svg" xmlns:xlink="http://www.w3.org/1999/xlink">
<g id="graph0" class="graph" transform="scale(1 1) rotate(0) translate(4 138)">
<title>selectDecomp</title>
<polygon fill="white" stroke="none" points="-4,4 -4,-138 332,-138 332,4 -4,4"/>
<!-- Node1 -->
<g id="node1" class="node"><title>Node1</title>
<polygon fill="#bfbfbf" stroke="black" points="0,-66.5 0,-85.5 80,-85.5 80,-66.5 0,-66.5"/>
<text text-anchor="middle" x="40" y="-73.5" font-family="Helvetica,sans-Serif" font-size="10.00">selectDecomp</text>
</g>
<!-- Node2 -->
<g id="node2" class="node"><title>Node2</title>
<g id="a_node2"><a xlink:href="../../df/da7/bd__tree_8cpp.html#a759c10464cd5cc31f03f2db13c4b6a09" target="_top" xlink:title="trySimpleShrink">
<polygon fill="white" stroke="black" points="119,-109.5 119,-128.5 205,-128.5 205,-109.5 119,-109.5"/>
<text text-anchor="middle" x="162" y="-116.5" font-family="Helvetica,sans-Serif" font-size="10.00">trySimpleShrink</text>
</a>
</g>
</g>
<!-- Node1&#45;&gt;Node2 -->
<g id="edge1" class="edge"><title>Node1&#45;&gt;Node2</title>
<path fill="none" stroke="midnightblue" d="M67.6319,-85.5431C84.4884,-91.5834 106.497,-99.4698 124.912,-106.069"/>
<polygon fill="midnightblue" stroke="midnightblue" points="123.848,-109.405 134.443,-109.484 126.209,-102.815 123.848,-109.405"/>
</g>
<!-- Node4 -->
<g id="node4" class="node"><title>Node4</title>
<g id="a_node4"><a xlink:href="../../df/da7/bd__tree_8cpp.html#a065d588d28739d479c61c8150bf8a441" target="_top" xlink:title="tryCentroidShrink">
<polygon fill="white" stroke="black" points="116,-66.5 116,-85.5 208,-85.5 208,-66.5 116,-66.5"/>
<text text-anchor="middle" x="162" y="-73.5" font-family="Helvetica,sans-Serif" font-size="10.00">tryCentroidShrink</text>
</a>
</g>
</g>
<!-- Node1&#45;&gt;Node4 -->
<g id="edge3" class="edge"><title>Node1&#45;&gt;Node4</title>
<path fill="none" stroke="midnightblue" d="M80.2925,-76C88.3593,-76 96.9953,-76 105.509,-76"/>
<polygon fill="midnightblue" stroke="midnightblue" points="105.788,-79.5001 115.788,-76 105.788,-72.5001 105.788,-79.5001"/>
</g>
<!-- Node7 -->
<g id="node7" class="node"><title>Node7</title>
<g id="a_node7"><a xlink:href="../../d5/d32/ANNx_8h.html#a9c45d5ab29fad7c514d22008daf15534" target="_top" xlink:title="annError">
<polygon fill="white" stroke="black" points="135.5,-19.5 135.5,-38.5 188.5,-38.5 188.5,-19.5 135.5,-19.5"/>
<text text-anchor="middle" x="162" y="-26.5" font-family="Helvetica,sans-Serif" font-size="10.00">annError</text>
</a>
</g>
</g>
<!-- Node1&#45;&gt;Node7 -->
<g id="edge6" class="edge"><title>Node1&#45;&gt;Node7</title>
<path fill="none" stroke="midnightblue" d="M65.2838,-66.4888C82.977,-59.559 107.185,-50.0775 126.829,-42.3838"/>
<polygon fill="midnightblue" stroke="midnightblue" points="128.306,-45.5643 136.34,-38.6583 125.753,-39.0464 128.306,-45.5643"/>
</g>
<!-- Node3 -->
<g id="node3" class="node"><title>Node3</title>
<g id="a_node3"><a xlink:href="../../d9/d87/kd__util_8cpp.html#a6ed5406b7e20d7f1b0a15c0d21354f77" target="_top" xlink:title="annEnclRect">
<polygon fill="white" stroke="black" points="249.5,-114.5 249.5,-133.5 322.5,-133.5 322.5,-114.5 249.5,-114.5"/>
<text text-anchor="middle" x="286" y="-121.5" font-family="Helvetica,sans-Serif" font-size="10.00">annEnclRect</text>
</a>
</g>
</g>
<!-- Node2&#45;&gt;Node3 -->
<g id="edge2" class="edge"><title>Node2&#45;&gt;Node3</title>
<path fill="none" stroke="midnightblue" d="M205.327,-120.735C216.175,-121.179 227.895,-121.66 238.922,-122.112"/>
<polygon fill="midnightblue" stroke="midnightblue" points="239.096,-125.622 249.231,-122.534 239.382,-118.627 239.096,-125.622"/>
</g>
<!-- Node5 -->
<g id="node5" class="node"><title>Node5</title>
<g id="a_node5"><a xlink:href="../../db/d82/wglew_8h.html#a500a82aecba06f4550f6849b8099ca21" target="_top" xlink:title="int">
<polygon fill="white" stroke="black" points="271.5,-76.5 271.5,-95.5 300.5,-95.5 300.5,-76.5 271.5,-76.5"/>
<text text-anchor="middle" x="286" y="-83.5" font-family="Helvetica,sans-Serif" font-size="10.00">int</text>
</a>
</g>
</g>
<!-- Node4&#45;&gt;Node5 -->
<g id="edge4" class="edge"><title>Node4&#45;&gt;Node5</title>
<path fill="none" stroke="midnightblue" d="M208.082,-79.6952C226.106,-81.1726 246.125,-82.8135 261.22,-84.0508"/>
<polygon fill="midnightblue" stroke="midnightblue" points="260.991,-87.5437 271.243,-84.8724 261.563,-80.5671 260.991,-87.5437"/>
</g>
<!-- Node6 -->
<g id="node6" class="node"><title>Node6</title>
<g id="a_node6"><a xlink:href="../../d5/d32/ANNx_8h.html#aa570fcff6b3af0b516162d102c04c68b" target="_top" xlink:title="annAssignRect">
<polygon fill="white" stroke="black" points="244.5,-38.5 244.5,-57.5 327.5,-57.5 327.5,-38.5 244.5,-38.5"/>
<text text-anchor="middle" x="286" y="-45.5" font-family="Helvetica,sans-Serif" font-size="10.00">annAssignRect</text>
</a>
</g>
</g>
<!-- Node4&#45;&gt;Node6 -->
<g id="edge5" class="edge"><title>Node4&#45;&gt;Node6</title>
<path fill="none" stroke="midnightblue" d="M204.644,-66.4423C214.274,-64.2323 224.621,-61.8575 234.58,-59.5717"/>
<polygon fill="midnightblue" stroke="midnightblue" points="235.405,-62.9734 244.369,-57.3251 233.84,-56.1508 235.405,-62.9734"/>
</g>
<!-- Node8 -->
<g id="node8" class="node"><title>Node8</title>
<g id="a_node8"><a xlink:href="../../d9/db8/glut_8h.html#a6f255d924f7a6bb2c4be0c8c2f2d9ce3" target="_top" xlink:title="exit">
<polygon fill="white" stroke="black" points="270,-0.5 270,-19.5 302,-19.5 302,-0.5 270,-0.5"/>
<text text-anchor="middle" x="286" y="-7.5" font-family="Helvetica,sans-Serif" font-size="10.00">exit</text>
</a>
</g>
</g>
<!-- Node7&#45;&gt;Node8 -->
<g id="edge7" class="edge"><title>Node7&#45;&gt;Node8</title>
<path fill="none" stroke="midnightblue" d="M188.575,-25.017C209.519,-21.7552 238.99,-17.1656 259.824,-13.9208"/>
<polygon fill="midnightblue" stroke="midnightblue" points="260.499,-17.358 269.841,-12.3608 259.422,-10.4414 260.499,-17.358"/>
</g>
</g>
</svg>
