<?xml version="1.0" encoding="UTF-8" standalone="no"?>
<!DOCTYPE svg PUBLIC "-//W3C//DTD SVG 1.1//EN"
 "http://www.w3.org/Graphics/SVG/1.1/DTD/svg11.dtd">
<!-- Generated by graphviz version 2.36.0 (20140111.2315)
 -->
<!-- Title: FlagsForFile Pages: 1 -->
<svg width="358pt" height="116pt"
 viewBox="0.00 0.00 358.00 116.00" xmlns="http://www.w3.org/2000/svg" xmlns:xlink="http://www.w3.org/1999/xlink">
<g id="graph0" class="graph" transform="scale(1 1) rotate(0) translate(4 112)">
<title>FlagsForFile</title>
<polygon fill="white" stroke="none" points="-4,4 -4,-112 354,-112 354,4 -4,4"/>
<!-- Node1 -->
<g id="node1" class="node"><title>Node1</title>
<polygon fill="#bfbfbf" stroke="black" points="0.5,-44.5 0.5,-63.5 71.5,-63.5 71.5,-44.5 0.5,-44.5"/>
<text text-anchor="middle" x="36" y="-51.5" font-family="Helvetica,sans-Serif" font-size="10.00">FlagsForFile</text>
</g>
<!-- Node2 -->
<g id="node2" class="node"><title>Node2</title>
<g id="a_node2"><a xlink:href="../../d3/d37/_8ycm__extra__conf_8py.html#a1c7294d0bfbd409f9d5d418ed3e91a52" target="_top" xlink:title="GetCompilationInfoForFile">
<polygon fill="white" stroke="black" points="109.5,-88.5 109.5,-107.5 240.5,-107.5 240.5,-88.5 109.5,-88.5"/>
<text text-anchor="middle" x="175" y="-95.5" font-family="Helvetica,sans-Serif" font-size="10.00">GetCompilationInfoForFile</text>
</a>
</g>
</g>
<!-- Node1&#45;&gt;Node2 -->
<g id="edge1" class="edge"><title>Node1&#45;&gt;Node2</title>
<path fill="none" stroke="midnightblue" d="M64.5814,-63.5501C77.7011,-68.0346 93.6265,-73.3942 108,-78 115.782,-80.4936 124.105,-83.0791 132.129,-85.5303"/>
<polygon fill="midnightblue" stroke="midnightblue" points="131.124,-88.8831 141.71,-88.4384 133.157,-82.1848 131.124,-88.8831"/>
</g>
<!-- Node4 -->
<g id="node4" class="node"><title>Node4</title>
<g id="a_node4"><a xlink:href="../../d3/d37/_8ycm__extra__conf_8py.html#aa17b17787ee25ee278fe0330e8245fb8" target="_top" xlink:title="MakeRelativePathsInFlags\lAbsolute">
<polygon fill="white" stroke="black" points="108,-39 108,-69 242,-69 242,-39 108,-39"/>
<text text-anchor="start" x="116" y="-57" font-family="Helvetica,sans-Serif" font-size="10.00">MakeRelativePathsInFlags</text>
<text text-anchor="middle" x="175" y="-46" font-family="Helvetica,sans-Serif" font-size="10.00">Absolute</text>
</a>
</g>
</g>
<!-- Node1&#45;&gt;Node4 -->
<g id="edge3" class="edge"><title>Node1&#45;&gt;Node4</title>
<path fill="none" stroke="midnightblue" d="M71.5709,-54C79.7206,-54 88.7275,-54 97.9188,-54"/>
<polygon fill="midnightblue" stroke="midnightblue" points="97.9329,-57.5001 107.933,-54 97.9328,-50.5001 97.9329,-57.5001"/>
</g>
<!-- Node5 -->
<g id="node5" class="node"><title>Node5</title>
<g id="a_node5"><a xlink:href="../../d3/d37/_8ycm__extra__conf_8py.html#a28506547e5aee74e22557e0d523fbba7" target="_top" xlink:title="DirectoryOfThisScript">
<polygon fill="white" stroke="black" points="119.5,-0.5 119.5,-19.5 230.5,-19.5 230.5,-0.5 119.5,-0.5"/>
<text text-anchor="middle" x="175" y="-7.5" font-family="Helvetica,sans-Serif" font-size="10.00">DirectoryOfThisScript</text>
</a>
</g>
</g>
<!-- Node1&#45;&gt;Node5 -->
<g id="edge4" class="edge"><title>Node1&#45;&gt;Node5</title>
<path fill="none" stroke="midnightblue" d="M64.5814,-44.4499C77.7011,-39.9654 93.6265,-34.6058 108,-30 115.782,-27.5064 124.105,-24.9209 132.129,-22.4697"/>
<polygon fill="midnightblue" stroke="midnightblue" points="133.157,-25.8152 141.71,-19.5616 131.124,-19.1169 133.157,-25.8152"/>
</g>
<!-- Node3 -->
<g id="node3" class="node"><title>Node3</title>
<g id="a_node3"><a xlink:href="../../d3/d37/_8ycm__extra__conf_8py.html#a38a706def8307cce6e9348c3379274bd" target="_top" xlink:title="IsHeaderFile">
<polygon fill="white" stroke="black" points="278,-88.5 278,-107.5 350,-107.5 350,-88.5 278,-88.5"/>
<text text-anchor="middle" x="314" y="-95.5" font-family="Helvetica,sans-Serif" font-size="10.00">IsHeaderFile</text>
</a>
</g>
</g>
<!-- Node2&#45;&gt;Node3 -->
<g id="edge2" class="edge"><title>Node2&#45;&gt;Node3</title>
<path fill="none" stroke="midnightblue" d="M240.889,-98C249.936,-98 259.068,-98 267.65,-98"/>
<polygon fill="midnightblue" stroke="midnightblue" points="267.803,-101.5 277.803,-98 267.802,-94.5001 267.803,-101.5"/>
</g>
</g>
</svg>
