<?xml version="1.0" encoding="UTF-8" standalone="no"?>
<!DOCTYPE svg PUBLIC "-//W3C//DTD SVG 1.1//EN"
 "http://www.w3.org/Graphics/SVG/1.1/DTD/svg11.dtd">
<!-- Generated by graphviz version 2.36.0 (20140111.2315)
 -->
<!-- Title: edgeToFeature Pages: 1 -->
<svg width="666pt" height="66pt"
 viewBox="0.00 0.00 666.00 66.00" xmlns="http://www.w3.org/2000/svg" xmlns:xlink="http://www.w3.org/1999/xlink">
<g id="graph0" class="graph" transform="scale(1 1) rotate(0) translate(4 62)">
<title>edgeToFeature</title>
<polygon fill="white" stroke="none" points="-4,4 -4,-62 662,-62 662,4 -4,4"/>
<!-- Node1 -->
<g id="node1" class="node"><title>Node1</title>
<polygon fill="#bfbfbf" stroke="black" points="0,-19.5 0,-38.5 82,-38.5 82,-19.5 0,-19.5"/>
<text text-anchor="middle" x="41" y="-26.5" font-family="Helvetica,sans-Serif" font-size="10.00">edgeToFeature</text>
</g>
<!-- Node2 -->
<g id="node2" class="node"><title>Node2</title>
<g id="a_node2"><a xlink:href="../../de/dd9/misc2_8h.html#afbe45c56479961a8b78b900d2bf9b267" target="_top" xlink:title="point_information_matrix">
<polygon fill="white" stroke="black" points="118.5,-19.5 118.5,-38.5 241.5,-38.5 241.5,-19.5 118.5,-19.5"/>
<text text-anchor="middle" x="180" y="-26.5" font-family="Helvetica,sans-Serif" font-size="10.00">point_information_matrix</text>
</a>
</g>
</g>
<!-- Node1&#45;&gt;Node2 -->
<g id="edge1" class="edge"><title>Node1&#45;&gt;Node2</title>
<path fill="none" stroke="midnightblue" d="M82.3635,-29C90.5641,-29 99.4159,-29 108.317,-29"/>
<polygon fill="midnightblue" stroke="midnightblue" points="108.355,-32.5001 118.355,-29 108.355,-25.5001 108.355,-32.5001"/>
</g>
<!-- Node3 -->
<g id="node3" class="node"><title>Node3</title>
<g id="a_node3"><a xlink:href="../../de/dd9/misc2_8h.html#a9fd104b651d76a0fd52bc23c6588e71f" target="_top" xlink:title="depth_covariance">
<polygon fill="white" stroke="black" points="278.5,-19.5 278.5,-38.5 371.5,-38.5 371.5,-19.5 278.5,-19.5"/>
<text text-anchor="middle" x="325" y="-26.5" font-family="Helvetica,sans-Serif" font-size="10.00">depth_covariance</text>
</a>
</g>
</g>
<!-- Node2&#45;&gt;Node3 -->
<g id="edge2" class="edge"><title>Node2&#45;&gt;Node3</title>
<path fill="none" stroke="midnightblue" d="M241.645,-29C250.508,-29 259.6,-29 268.357,-29"/>
<polygon fill="midnightblue" stroke="midnightblue" points="268.45,-32.5001 278.45,-29 268.45,-25.5001 268.45,-32.5001"/>
</g>
<!-- Node4 -->
<g id="node4" class="node"><title>Node4</title>
<g id="a_node4"><a xlink:href="../../de/dd9/misc2_8h.html#a44186cfabec64587c7bc742ae9dab267" target="_top" xlink:title="depth_std_dev">
<polygon fill="white" stroke="black" points="408,-19.5 408,-38.5 488,-38.5 488,-19.5 408,-19.5"/>
<text text-anchor="middle" x="448" y="-26.5" font-family="Helvetica,sans-Serif" font-size="10.00">depth_std_dev</text>
</a>
</g>
</g>
<!-- Node3&#45;&gt;Node4 -->
<g id="edge3" class="edge"><title>Node3&#45;&gt;Node4</title>
<path fill="none" stroke="midnightblue" d="M371.745,-29C380.214,-29 389.094,-29 397.664,-29"/>
<polygon fill="midnightblue" stroke="midnightblue" points="397.916,-32.5001 407.916,-29 397.916,-25.5001 397.916,-32.5001"/>
</g>
<!-- Node5 -->
<g id="node5" class="node"><title>Node5</title>
<g id="a_node5"><a xlink:href="../../d3/d3e/classParameterServer.html#a5457f900e543c5a466bf9b65ee6bc577" target="_top" xlink:title="ParameterServer::instance">
<polygon fill="white" stroke="black" points="524.5,-38.5 524.5,-57.5 657.5,-57.5 657.5,-38.5 524.5,-38.5"/>
<text text-anchor="middle" x="591" y="-45.5" font-family="Helvetica,sans-Serif" font-size="10.00">ParameterServer::instance</text>
</a>
</g>
</g>
<!-- Node4&#45;&gt;Node5 -->
<g id="edge4" class="edge"><title>Node4&#45;&gt;Node5</title>
<path fill="none" stroke="midnightblue" d="M488.276,-34.2926C496.447,-35.3935 505.318,-36.5889 514.302,-37.7996"/>
<polygon fill="midnightblue" stroke="midnightblue" points="514.085,-41.3019 524.463,-39.1688 515.02,-34.3646 514.085,-41.3019"/>
</g>
<!-- Node6 -->
<g id="node6" class="node"><title>Node6</title>
<g id="a_node6"><a xlink:href="../../d3/d3e/classParameterServer.html#a3c8af50664e423b555bbb1874f488413" target="_top" xlink:title="ParameterServer::get">
<polygon fill="white" stroke="black" points="536,-0.5 536,-19.5 646,-19.5 646,-0.5 536,-0.5"/>
<text text-anchor="middle" x="591" y="-7.5" font-family="Helvetica,sans-Serif" font-size="10.00">ParameterServer::get</text>
</a>
</g>
</g>
<!-- Node4&#45;&gt;Node6 -->
<g id="edge5" class="edge"><title>Node4&#45;&gt;Node6</title>
<path fill="none" stroke="midnightblue" d="M488.276,-23.7074C499.914,-22.1392 512.975,-20.3793 525.758,-18.6567"/>
<polygon fill="midnightblue" stroke="midnightblue" points="526.476,-22.0917 535.919,-17.2875 525.541,-15.1544 526.476,-22.0917"/>
</g>
</g>
</svg>
