<?xml version="1.0" encoding="UTF-8" standalone="no"?>
<!DOCTYPE svg PUBLIC "-//W3C//DTD SVG 1.1//EN"
 "http://www.w3.org/Graphics/SVG/1.1/DTD/svg11.dtd">
<!-- Generated by graphviz version 2.36.0 (20140111.2315)
 -->
<!-- Title: src/DepthEstimation/DepthMapPixelHypothesis.h Pages: 1 -->
<svg width="597pt" height="108pt"
 viewBox="0.00 0.00 597.00 108.00" xmlns="http://www.w3.org/2000/svg" xmlns:xlink="http://www.w3.org/1999/xlink">
<g id="graph0" class="graph" transform="scale(1 1) rotate(0) translate(4 104)">
<title>src/DepthEstimation/DepthMapPixelHypothesis.h</title>
<polygon fill="white" stroke="none" points="-4,4 -4,-104 593,-104 593,4 -4,4"/>
<!-- Node1 -->
<g id="node1" class="node"><title>Node1</title>
<polygon fill="#bfbfbf" stroke="black" points="172,-69 172,-99 316,-99 316,-69 172,-69"/>
<text text-anchor="start" x="180" y="-87" font-family="Helvetica,sans-Serif" font-size="10.00">src/DepthEstimation</text>
<text text-anchor="middle" x="244" y="-76" font-family="Helvetica,sans-Serif" font-size="10.00">/DepthMapPixelHypothesis.h</text>
</g>
<!-- Node2 -->
<g id="node2" class="node"><title>Node2</title>
<g id="a_node2"><a xlink:href="../../d5/de0/Frame_8cpp.html" target="_top" xlink:title="src/DataStructures\l/Frame.cpp">
<polygon fill="white" stroke="black" points="-0.5,-1 -0.5,-31 98.5,-31 98.5,-1 -0.5,-1"/>
<text text-anchor="start" x="7.5" y="-19" font-family="Helvetica,sans-Serif" font-size="10.00">src/DataStructures</text>
<text text-anchor="middle" x="49" y="-8" font-family="Helvetica,sans-Serif" font-size="10.00">/Frame.cpp</text>
</a>
</g>
</g>
<!-- Node1&#45;&gt;Node2 -->
<g id="edge1" class="edge"><title>Node1&#45;&gt;Node2</title>
<path fill="none" stroke="midnightblue" d="M192.566,-65.5916C160.677,-54.7984 120.251,-41.1157 90.4281,-31.0218"/>
<polygon fill="midnightblue" stroke="midnightblue" points="191.573,-68.9506 202.168,-68.8413 193.818,-62.3201 191.573,-68.9506"/>
</g>
<!-- Node3 -->
<g id="node3" class="node"><title>Node3</title>
<g id="a_node3"><a xlink:href="../../d8/d5e/DepthMap_8cpp.html" target="_top" xlink:title="src/DepthEstimation\l/DepthMap.cpp">
<polygon fill="white" stroke="black" points="117,-1 117,-31 223,-31 223,-1 117,-1"/>
<text text-anchor="start" x="125" y="-19" font-family="Helvetica,sans-Serif" font-size="10.00">src/DepthEstimation</text>
<text text-anchor="middle" x="170" y="-8" font-family="Helvetica,sans-Serif" font-size="10.00">/DepthMap.cpp</text>
</a>
</g>
</g>
<!-- Node1&#45;&gt;Node3 -->
<g id="edge2" class="edge"><title>Node1&#45;&gt;Node3</title>
<path fill="none" stroke="midnightblue" d="M220.475,-62.0184C209.147,-51.9145 195.866,-40.0696 185.771,-31.0663"/>
<polygon fill="midnightblue" stroke="midnightblue" points="218.15,-64.6348 227.943,-68.679 222.81,-59.4108 218.15,-64.6348"/>
</g>
<!-- Node4 -->
<g id="node4" class="node"><title>Node4</title>
<g id="a_node4"><a xlink:href="../../d5/dd0/DepthMapPixelHypothesis_8cpp.html" target="_top" xlink:title="src/DepthEstimation\l/DepthMapPixelHypothesis.cpp">
<polygon fill="white" stroke="black" points="241.5,-1 241.5,-31 396.5,-31 396.5,-1 241.5,-1"/>
<text text-anchor="start" x="249.5" y="-19" font-family="Helvetica,sans-Serif" font-size="10.00">src/DepthEstimation</text>
<text text-anchor="middle" x="319" y="-8" font-family="Helvetica,sans-Serif" font-size="10.00">/DepthMapPixelHypothesis.cpp</text>
</a>
</g>
</g>
<!-- Node1&#45;&gt;Node4 -->
<g id="edge3" class="edge"><title>Node1&#45;&gt;Node4</title>
<path fill="none" stroke="midnightblue" d="M267.843,-62.0184C279.324,-51.9145 292.785,-40.0696 303.016,-31.0663"/>
<polygon fill="midnightblue" stroke="midnightblue" points="265.469,-59.4452 260.274,-68.679 270.093,-64.7002 265.469,-59.4452"/>
</g>
<!-- Node5 -->
<g id="node5" class="node"><title>Node5</title>
<g id="a_node5"><a xlink:href="../../de/db1/TrackingReference_8cpp.html" target="_top" xlink:title="src/Tracking/TrackingReference.cpp">
<polygon fill="white" stroke="black" points="414.5,-6.5 414.5,-25.5 589.5,-25.5 589.5,-6.5 414.5,-6.5"/>
<text text-anchor="middle" x="502" y="-13.5" font-family="Helvetica,sans-Serif" font-size="10.00">src/Tracking/TrackingReference.cpp</text>
</a>
</g>
</g>
<!-- Node1&#45;&gt;Node5 -->
<g id="edge4" class="edge"><title>Node1&#45;&gt;Node5</title>
<path fill="none" stroke="midnightblue" d="M308.952,-66.3843C359.813,-53.3734 428.474,-35.8091 468.719,-25.5138"/>
<polygon fill="midnightblue" stroke="midnightblue" points="307.852,-63.0531 299.031,-68.9223 309.586,-69.8347 307.852,-63.0531"/>
</g>
</g>
</svg>
