<?xml version="1.0" encoding="UTF-8" standalone="no"?>
<!DOCTYPE svg PUBLIC "-//W3C//DTD SVG 1.1//EN"
 "http://www.w3.org/Graphics/SVG/1.1/DTD/svg11.dtd">
<!-- Generated by graphviz version 2.36.0 (20140111.2315)
 -->
<!-- Title: src/scoped_timer.h Pages: 1 -->
<!--zoomable 152 -->
<svg id="main" version="1.1" xmlns="http://www.w3.org/2000/svg" xmlns:xlink="http://www.w3.org/1999/xlink" xml:space="preserve" onload="init(evt)">
<style type="text/css"><![CDATA[
.edge:hover path { stroke: red; }
.edge:hover polygon { stroke: red; fill: red; }
]]></style>
<script type="text/javascript"><![CDATA[
var edges = document.getElementsByTagName('g');
if (edges && edges.length) {
  for (var i=0;i<edges.length;i++) {
    if (edges[i].id.substr(0,4)=='edge') {
      edges[i].setAttribute('class','edge');
    }
  }
}
]]></script>
        <defs>
                <circle id="rim" cx="0" cy="0" r="7"/>
                <circle id="rim2" cx="0" cy="0" r="3.5"/>
                <g id="zoomPlus">
                        <use xlink:href="#rim" fill="#404040">
                                <set attributeName="fill" to="#808080" begin="zoomplus.mouseover" end="zoomplus.mouseout"/>
                        </use>
                        <path d="M-4,0h8M0,-4v8" fill="none" stroke="white" stroke-width="1.5" pointer-events="none"/>
                </g>
                <g id="zoomMin">
                        <use xlink:href="#rim" fill="#404040">
                                <set attributeName="fill" to="#808080" begin="zoomminus.mouseover" end="zoomminus.mouseout"/>
                        </use>
                        <path d="M-4,0h8" fill="none" stroke="white" stroke-width="1.5" pointer-events="none"/>
                </g>
                <g id="dirArrow">
                        <path fill="none" stroke="white" stroke-width="1.5" d="M0,-3.0v7 M-2.5,-0.5L0,-3.0L2.5,-0.5"/>
                </g>
               <g id="resetDef">
                       <use xlink:href="#rim2" fill="#404040">
                               <set attributeName="fill" to="#808080" begin="reset.mouseover" end="reset.mouseout"/>
                       </use>
               </g>
        </defs>

<script type="text/javascript">
var viewWidth = 1535;
var viewHeight = 152;
var sectionId = 'dynsection-1';
</script>
<script xlink:href="../../svgpan.js"/>
<svg id="graph" class="graph">
<g id="viewport">
<title>src/scoped_timer.h</title>
<polygon fill="white" stroke="none" points="-4,4 -4,-148 1531,-148 1531,4 -4,4"/>
<!-- Node1 -->
<g id="node1" class="node"><title>Node1</title>
<polygon fill="#bfbfbf" stroke="black" points="718,-124.5 718,-143.5 818,-143.5 818,-124.5 718,-124.5"/>
<text text-anchor="middle" x="768" y="-131.5" font-family="Helvetica,sans-Serif" font-size="10.00">src/scoped_timer.h</text>
</g>
<!-- Node2 -->
<g id="node2" class="node"><title>Node2</title>
<g id="a_node2"><a xlink:href="../../d4/dd4/bagloader_8cpp.html" target="_top" xlink:title="src/bagloader.cpp">
<polygon fill="white" stroke="black" points="0,-62.5 0,-81.5 94,-81.5 94,-62.5 0,-62.5"/>
<text text-anchor="middle" x="47" y="-69.5" font-family="Helvetica,sans-Serif" font-size="10.00">src/bagloader.cpp</text>
</a>
</g>
</g>
<!-- Node1&#45;&gt;Node2 -->
<g id="edge1" class="edge"><title>Node1&#45;&gt;Node2</title>
<path fill="none" stroke="midnightblue" d="M707.781,-132.824C590.541,-131.622 323.782,-124.682 103,-88 93.6669,-86.4494 83.6375,-84.0151 74.6815,-81.5551"/>
<polygon fill="midnightblue" stroke="midnightblue" points="707.95,-136.325 717.982,-132.917 708.015,-129.325 707.95,-136.325"/>
</g>
<!-- Node3 -->
<g id="node3" class="node"><title>Node3</title>
<g id="a_node3"><a xlink:href="../../de/dab/ColorOctomapServer_8cpp.html" target="_top" xlink:title="src/ColorOctomapServer.cpp">
<polygon fill="white" stroke="black" points="112.5,-62.5 112.5,-81.5 255.5,-81.5 255.5,-62.5 112.5,-62.5"/>
<text text-anchor="middle" x="184" y="-69.5" font-family="Helvetica,sans-Serif" font-size="10.00">src/ColorOctomapServer.cpp</text>
</a>
</g>
</g>
<!-- Node1&#45;&gt;Node3 -->
<g id="edge2" class="edge"><title>Node1&#45;&gt;Node3</title>
<path fill="none" stroke="midnightblue" d="M707.61,-129.436C612.969,-123.437 424.077,-109.796 265,-88 252.248,-86.2527 238.451,-83.8801 225.919,-81.5377"/>
<polygon fill="midnightblue" stroke="midnightblue" points="707.65,-132.945 717.849,-130.078 708.088,-125.959 707.65,-132.945"/>
</g>
<!-- Node4 -->
<g id="node4" class="node"><title>Node4</title>
<g id="a_node4"><a xlink:href="../../d6/dda/covariance__estimation_8h.html" target="_top" xlink:title="src/covariance_estimation.h">
<polygon fill="white" stroke="black" points="273.5,-62.5 273.5,-81.5 412.5,-81.5 412.5,-62.5 273.5,-62.5"/>
<text text-anchor="middle" x="343" y="-69.5" font-family="Helvetica,sans-Serif" font-size="10.00">src/covariance_estimation.h</text>
</a>
</g>
</g>
<!-- Node1&#45;&gt;Node4 -->
<g id="edge3" class="edge"><title>Node1&#45;&gt;Node4</title>
<path fill="none" stroke="midnightblue" d="M707.783,-125.894C639.554,-117.647 525.082,-103.221 427,-88 414.557,-86.069 401.116,-83.7667 388.712,-81.5524"/>
<polygon fill="midnightblue" stroke="midnightblue" points="707.57,-129.393 717.917,-127.114 708.407,-122.444 707.57,-129.393"/>
</g>
<!-- Node6 -->
<g id="node6" class="node"><title>Node6</title>
<g id="a_node6"><a xlink:href="../../de/d74/graph__manager2_8cpp.html" target="_top" xlink:title="src/graph_manager2.cpp">
<polygon fill="white" stroke="black" points="379,-0.5 379,-19.5 503,-19.5 503,-0.5 379,-0.5"/>
<text text-anchor="middle" x="441" y="-7.5" font-family="Helvetica,sans-Serif" font-size="10.00">src/graph_manager2.cpp</text>
</a>
</g>
</g>
<!-- Node1&#45;&gt;Node6 -->
<g id="edge8" class="edge"><title>Node1&#45;&gt;Node6</title>
<path fill="none" stroke="midnightblue" d="M707.653,-131.952C628.449,-129.304 495.329,-120.063 460,-88 440.424,-70.2333 439.524,-35.8041 440.298,-19.7"/>
<polygon fill="midnightblue" stroke="midnightblue" points="707.878,-135.461 717.982,-132.27 708.094,-128.464 707.878,-135.461"/>
</g>
<!-- Node7 -->
<g id="node7" class="node"><title>Node7</title>
<g id="a_node7"><a xlink:href="../../df/dbf/glviewer_8cpp.html" target="_top" xlink:title="src/glviewer.cpp">
<polygon fill="white" stroke="black" points="469,-62.5 469,-81.5 557,-81.5 557,-62.5 469,-62.5"/>
<text text-anchor="middle" x="513" y="-69.5" font-family="Helvetica,sans-Serif" font-size="10.00">src/glviewer.cpp</text>
</a>
</g>
</g>
<!-- Node1&#45;&gt;Node7 -->
<g id="edge6" class="edge"><title>Node1&#45;&gt;Node7</title>
<path fill="none" stroke="midnightblue" d="M717.093,-122.349C676.359,-113.647 617.843,-100.744 567,-88 559.072,-86.0128 550.533,-83.7147 542.637,-81.5237"/>
<polygon fill="midnightblue" stroke="midnightblue" points="716.541,-125.81 727.05,-124.468 717.998,-118.963 716.541,-125.81"/>
</g>
<!-- Node8 -->
<g id="node8" class="node"><title>Node8</title>
<g id="a_node8"><a xlink:href="../../d4/d1a/graph__manager_8cpp.html" target="_top" xlink:title="src/graph_manager.cpp">
<polygon fill="white" stroke="black" points="575.5,-62.5 575.5,-81.5 694.5,-81.5 694.5,-62.5 575.5,-62.5"/>
<text text-anchor="middle" x="635" y="-69.5" font-family="Helvetica,sans-Serif" font-size="10.00">src/graph_manager.cpp</text>
</a>
</g>
</g>
<!-- Node1&#45;&gt;Node8 -->
<g id="edge7" class="edge"><title>Node1&#45;&gt;Node8</title>
<path fill="none" stroke="midnightblue" d="M739.673,-120.221C713.853,-108.573 676.424,-91.6874 654.02,-81.5806"/>
<polygon fill="midnightblue" stroke="midnightblue" points="738.39,-123.482 748.944,-124.403 741.268,-117.101 738.39,-123.482"/>
</g>
<!-- Node9 -->
<g id="node9" class="node"><title>Node9</title>
<g id="a_node9"><a xlink:href="../../de/da7/graph__mgr__io_8cpp.html" target="_top" xlink:title="src/graph_mgr_io.cpp">
<polygon fill="white" stroke="black" points="713,-62.5 713,-81.5 823,-81.5 823,-62.5 713,-62.5"/>
<text text-anchor="middle" x="768" y="-69.5" font-family="Helvetica,sans-Serif" font-size="10.00">src/graph_mgr_io.cpp</text>
</a>
</g>
</g>
<!-- Node1&#45;&gt;Node9 -->
<g id="edge9" class="edge"><title>Node1&#45;&gt;Node9</title>
<path fill="none" stroke="midnightblue" d="M768,-114.16C768,-103.248 768,-90.04 768,-81.5806"/>
<polygon fill="midnightblue" stroke="midnightblue" points="764.5,-114.403 768,-124.403 771.5,-114.403 764.5,-114.403"/>
</g>
<!-- Node10 -->
<g id="node10" class="node"><title>Node10</title>
<g id="a_node10"><a xlink:href="../../db/d8d/graph__mgr__odom_8cpp.html" target="_top" xlink:title="src/graph_mgr_odom.cpp">
<polygon fill="white" stroke="black" points="841.5,-62.5 841.5,-81.5 968.5,-81.5 968.5,-62.5 841.5,-62.5"/>
<text text-anchor="middle" x="905" y="-69.5" font-family="Helvetica,sans-Serif" font-size="10.00">src/graph_mgr_odom.cpp</text>
</a>
</g>
</g>
<!-- Node1&#45;&gt;Node10 -->
<g id="edge10" class="edge"><title>Node1&#45;&gt;Node10</title>
<path fill="none" stroke="midnightblue" d="M796.829,-120.374C823.436,-108.721 862.229,-91.7319 885.408,-81.5806"/>
<polygon fill="midnightblue" stroke="midnightblue" points="795.385,-117.186 787.629,-124.403 798.193,-123.598 795.385,-117.186"/>
</g>
<!-- Node11 -->
<g id="node11" class="node"><title>Node11</title>
<g id="a_node11"><a xlink:href="../../d7/d5f/misc_8cpp.html" target="_top" xlink:title="src/misc.cpp">
<polygon fill="white" stroke="black" points="986.5,-62.5 986.5,-81.5 1059.5,-81.5 1059.5,-62.5 986.5,-62.5"/>
<text text-anchor="middle" x="1023" y="-69.5" font-family="Helvetica,sans-Serif" font-size="10.00">src/misc.cpp</text>
</a>
</g>
</g>
<!-- Node1&#45;&gt;Node11 -->
<g id="edge11" class="edge"><title>Node1&#45;&gt;Node11</title>
<path fill="none" stroke="midnightblue" d="M824.233,-122.528C866.522,-114.258 925.746,-101.835 977,-88 983.974,-86.1174 991.454,-83.8069 998.313,-81.5684"/>
<polygon fill="midnightblue" stroke="midnightblue" points="823.553,-119.094 814.402,-124.435 824.886,-125.966 823.553,-119.094"/>
</g>
<!-- Node12 -->
<g id="node12" class="node"><title>Node12</title>
<g id="a_node12"><a xlink:href="../../d7/d70/node_8cpp.html" target="_top" xlink:title="src/node.cpp">
<polygon fill="white" stroke="black" points="1077.5,-62.5 1077.5,-81.5 1150.5,-81.5 1150.5,-62.5 1077.5,-62.5"/>
<text text-anchor="middle" x="1114" y="-69.5" font-family="Helvetica,sans-Serif" font-size="10.00">src/node.cpp</text>
</a>
</g>
</g>
<!-- Node1&#45;&gt;Node12 -->
<g id="edge12" class="edge"><title>Node1&#45;&gt;Node12</title>
<path fill="none" stroke="midnightblue" d="M828.332,-126.936C889.314,-120.111 985.996,-107.378 1068,-88 1075.36,-86.2614 1083.23,-83.8913 1090.34,-81.5486"/>
<polygon fill="midnightblue" stroke="midnightblue" points="827.673,-123.488 818.116,-128.062 828.439,-130.446 827.673,-123.488"/>
</g>
<!-- Node13 -->
<g id="node13" class="node"><title>Node13</title>
<g id="a_node13"><a xlink:href="../../db/d34/openni__listener_8cpp.html" target="_top" xlink:title="src/openni_listener.cpp">
<polygon fill="white" stroke="black" points="1168.5,-62.5 1168.5,-81.5 1285.5,-81.5 1285.5,-62.5 1168.5,-62.5"/>
<text text-anchor="middle" x="1227" y="-69.5" font-family="Helvetica,sans-Serif" font-size="10.00">src/openni_listener.cpp</text>
</a>
</g>
</g>
<!-- Node1&#45;&gt;Node13 -->
<g id="edge13" class="edge"><title>Node1&#45;&gt;Node13</title>
<path fill="none" stroke="midnightblue" d="M828.227,-128C905.244,-121.165 1042.58,-107.486 1159,-88 1169.61,-86.2237 1181.06,-83.8695 1191.49,-81.554"/>
<polygon fill="midnightblue" stroke="midnightblue" points="827.88,-124.517 818.225,-128.88 828.493,-131.49 827.88,-124.517"/>
</g>
<!-- Node14 -->
<g id="node14" class="node"><title>Node14</title>
<g id="a_node14"><a xlink:href="../../d8/d36/scoped__timer_8cpp.html" target="_top" xlink:title="src/scoped_timer.cpp">
<polygon fill="white" stroke="black" points="1304,-62.5 1304,-81.5 1414,-81.5 1414,-62.5 1304,-62.5"/>
<text text-anchor="middle" x="1359" y="-69.5" font-family="Helvetica,sans-Serif" font-size="10.00">src/scoped_timer.cpp</text>
</a>
</g>
</g>
<!-- Node1&#45;&gt;Node14 -->
<g id="edge14" class="edge"><title>Node1&#45;&gt;Node14</title>
<path fill="none" stroke="midnightblue" d="M828.357,-130.614C926.496,-126.114 1126.54,-114.349 1294,-88 1304.53,-86.3438 1315.88,-83.9408 1326.11,-81.5416"/>
<polygon fill="midnightblue" stroke="midnightblue" points="828.16,-127.12 818.327,-131.065 828.474,-134.113 828.16,-127.12"/>
</g>
<!-- Node15 -->
<g id="node15" class="node"><title>Node15</title>
<g id="a_node15"><a xlink:href="../../db/de8/transformation__estimation_8cpp.html" target="_top" xlink:title="src/transformation\l_estimation.cpp">
<polygon fill="white" stroke="black" points="1432.5,-57 1432.5,-87 1527.5,-87 1527.5,-57 1432.5,-57"/>
<text text-anchor="start" x="1440.5" y="-75" font-family="Helvetica,sans-Serif" font-size="10.00">src/transformation</text>
<text text-anchor="middle" x="1480" y="-64" font-family="Helvetica,sans-Serif" font-size="10.00">_estimation.cpp</text>
</a>
</g>
</g>
<!-- Node1&#45;&gt;Node15 -->
<g id="edge15" class="edge"><title>Node1&#45;&gt;Node15</title>
<path fill="none" stroke="midnightblue" d="M828.172,-132.648C944.071,-131.138 1206.01,-123.677 1423,-88 1426.03,-87.502 1429.13,-86.9146 1432.25,-86.2658"/>
<polygon fill="midnightblue" stroke="midnightblue" points="828.04,-129.149 818.083,-132.769 828.124,-136.149 828.04,-129.149"/>
</g>
<!-- Node5 -->
<g id="node5" class="node"><title>Node5</title>
<g id="a_node5"><a xlink:href="../../d6/d63/covariance__estimation_8cpp.html" target="_top" xlink:title="src/covariance_estimation.cpp">
<polygon fill="white" stroke="black" points="212.5,-0.5 212.5,-19.5 361.5,-19.5 361.5,-0.5 212.5,-0.5"/>
<text text-anchor="middle" x="287" y="-7.5" font-family="Helvetica,sans-Serif" font-size="10.00">src/covariance_estimation.cpp</text>
</a>
</g>
</g>
<!-- Node4&#45;&gt;Node5 -->
<g id="edge4" class="edge"><title>Node4&#45;&gt;Node5</title>
<path fill="none" stroke="midnightblue" d="M327.939,-54.863C317.339,-43.5064 303.569,-28.7524 295.009,-19.5806"/>
<polygon fill="midnightblue" stroke="midnightblue" points="325.595,-57.481 334.977,-62.4035 330.712,-52.7048 325.595,-57.481"/>
</g>
<!-- Node4&#45;&gt;Node6 -->
<g id="edge5" class="edge"><title>Node4&#45;&gt;Node6</title>
<path fill="none" stroke="midnightblue" d="M365.657,-57.1285C384.589,-45.5376 410.986,-29.3757 426.985,-19.5806"/>
<polygon fill="midnightblue" stroke="midnightblue" points="363.742,-54.1969 357.041,-62.4035 367.397,-60.1669 363.742,-54.1969"/>
</g>
</g>
</svg>
        <g id="navigator" transform="translate(0 0)" fill="#404254">
                <rect fill="#f2f5e9" fill-opacity="0.5" stroke="#606060" stroke-width=".5" x="0" y="0" width="60" height="60"/>
                <use id="zoomplus" xlink:href="#zoomPlus" x="17" y="9" onmousedown="handleZoom(evt,'in')"/>
                <use id="zoomminus" xlink:href="#zoomMin" x="42" y="9" onmousedown="handleZoom(evt,'out')"/>
                <use id="reset" xlink:href="#resetDef" x="30" y="36" onmousedown="handleReset()"/>
                <g id="arrowUp" xlink:href="#dirArrow" transform="translate(30 24)" onmousedown="handlePan(0,-1)">
                  <use xlink:href="#rim" fill="#404040">
                        <set attributeName="fill" to="#808080" begin="arrowUp.mouseover" end="arrowUp.mouseout"/>
                  </use>
                  <path fill="none" stroke="white" stroke-width="1.5" d="M0,-3.0v7 M-2.5,-0.5L0,-3.0L2.5,-0.5"/>
                </g>
                <g id="arrowRight" xlink:href="#dirArrow" transform="rotate(90) translate(36 -43)" onmousedown="handlePan(1,0)">
                  <use xlink:href="#rim" fill="#404040">
                        <set attributeName="fill" to="#808080" begin="arrowRight.mouseover" end="arrowRight.mouseout"/>
                  </use>
                  <path fill="none" stroke="white" stroke-width="1.5" d="M0,-3.0v7 M-2.5,-0.5L0,-3.0L2.5,-0.5"/>
                </g>
                <g id="arrowDown" xlink:href="#dirArrow" transform="rotate(180) translate(-30 -48)" onmousedown="handlePan(0,1)">
                  <use xlink:href="#rim" fill="#404040">
                        <set attributeName="fill" to="#808080" begin="arrowDown.mouseover" end="arrowDown.mouseout"/>
                  </use>
                  <path fill="none" stroke="white" stroke-width="1.5" d="M0,-3.0v7 M-2.5,-0.5L0,-3.0L2.5,-0.5"/>
                </g>
                <g id="arrowLeft" xlink:href="#dirArrow" transform="rotate(270) translate(-36 17)" onmousedown="handlePan(-1,0)">
                  <use xlink:href="#rim" fill="#404040">
                        <set attributeName="fill" to="#808080" begin="arrowLeft.mouseover" end="arrowLeft.mouseout"/>
                  </use>
                  <path fill="none" stroke="white" stroke-width="1.5" d="M0,-3.0v7 M-2.5,-0.5L0,-3.0L2.5,-0.5"/>
                </g>
        </g>
        <svg viewBox="0 0 15 15" width="100%" height="30px" preserveAspectRatio="xMaxYMin meet">
         <g id="arrow_out" transform="scale(0.3 0.3)">
          <a xlink:href="scoped__timer_8h__dep__incl_org.svg" target="_base">
           <rect id="button" ry="5" rx="5" y="6" x="6" height="38" width="38"
                fill="#f2f5e9" fill-opacity="0.5" stroke="#606060" stroke-width="1.0"/>
           <path id="arrow"
             d="M 11.500037,31.436501 C 11.940474,20.09759 22.043105,11.32322 32.158766,21.979434 L 37.068811,17.246167 C 37.068811,17.246167 37.088388,32 37.088388,32 L 22.160133,31.978069 C 22.160133,31.978069 26.997745,27.140456 26.997745,27.140456 C 18.528582,18.264221 13.291696,25.230495 11.500037,31.436501 z"
             style="fill:#404040;"/>
          </a>
         </g>
        </svg>
</svg>
