<?xml version="1.0" encoding="UTF-8" standalone="no"?>
<!DOCTYPE svg PUBLIC "-//W3C//DTD SVG 1.1//EN"
 "http://www.w3.org/Graphics/SVG/1.1/DTD/svg11.dtd">
<!-- Generated by graphviz version 2.36.0 (20140111.2315)
 -->
<!-- Title: lsd_slam::Frame::~Frame Pages: 1 -->
<svg width="440pt" height="136pt"
 viewBox="0.00 0.00 440.00 136.00" xmlns="http://www.w3.org/2000/svg" xmlns:xlink="http://www.w3.org/1999/xlink">
<g id="graph0" class="graph" transform="scale(1 1) rotate(0) translate(4 132)">
<title>lsd_slam::Frame::~Frame</title>
<polygon fill="white" stroke="none" points="-4,4 -4,-132 436,-132 436,4 -4,4"/>
<!-- Node1 -->
<g id="node1" class="node"><title>Node1</title>
<polygon fill="#bfbfbf" stroke="black" points="0.5,-54.5 0.5,-73.5 129.5,-73.5 129.5,-54.5 0.5,-54.5"/>
<text text-anchor="middle" x="65" y="-61.5" font-family="Helvetica,sans-Serif" font-size="10.00">lsd_slam::Frame::~Frame</text>
</g>
<!-- Node2 -->
<g id="node2" class="node"><title>Node2</title>
<g id="a_node2"><a xlink:href="../../d1/d95/classlsd__slam_1_1FrameMemory.html#adf4afed8c58a420b38e4b117628ac32d" target="_top" xlink:title="lsd_slam::FrameMemory\l::getInstance">
<polygon fill="white" stroke="black" points="166.5,-98 166.5,-128 291.5,-128 291.5,-98 166.5,-98"/>
<text text-anchor="start" x="174.5" y="-116" font-family="Helvetica,sans-Serif" font-size="10.00">lsd_slam::FrameMemory</text>
<text text-anchor="middle" x="229" y="-105" font-family="Helvetica,sans-Serif" font-size="10.00">::getInstance</text>
</a>
</g>
</g>
<!-- Node1&#45;&gt;Node2 -->
<g id="edge1" class="edge"><title>Node1&#45;&gt;Node2</title>
<path fill="none" stroke="midnightblue" d="M97.6198,-73.564C117.771,-79.6592 144.517,-87.7488 168.537,-95.0143"/>
<polygon fill="midnightblue" stroke="midnightblue" points="167.701,-98.4179 178.286,-97.963 169.728,-91.7177 167.701,-98.4179"/>
</g>
<!-- Node3 -->
<g id="node3" class="node"><title>Node3</title>
<g id="a_node3"><a xlink:href="../../d1/d95/classlsd__slam_1_1FrameMemory.html#aa44bf3b85a471ccb4c4c7da53f395ec6" target="_top" xlink:title="lsd_slam::FrameMemory\l::deactivateFrame">
<polygon fill="white" stroke="black" points="166.5,-49 166.5,-79 291.5,-79 291.5,-49 166.5,-49"/>
<text text-anchor="start" x="174.5" y="-67" font-family="Helvetica,sans-Serif" font-size="10.00">lsd_slam::FrameMemory</text>
<text text-anchor="middle" x="229" y="-56" font-family="Helvetica,sans-Serif" font-size="10.00">::deactivateFrame</text>
</a>
</g>
</g>
<!-- Node1&#45;&gt;Node3 -->
<g id="edge2" class="edge"><title>Node1&#45;&gt;Node3</title>
<path fill="none" stroke="midnightblue" d="M129.562,-64C138.385,-64 147.498,-64 156.455,-64"/>
<polygon fill="midnightblue" stroke="midnightblue" points="156.478,-67.5001 166.478,-64 156.478,-60.5001 156.478,-67.5001"/>
</g>
<!-- Node5 -->
<g id="node5" class="node"><title>Node5</title>
<g id="a_node5"><a xlink:href="../../d1/d95/classlsd__slam_1_1FrameMemory.html#a04c59c5c8cfd2b65b4d7ce7b7d6ba493" target="_top" xlink:title="lsd_slam::FrameMemory\l::returnBuffer">
<polygon fill="white" stroke="black" points="166.5,-0 166.5,-30 291.5,-30 291.5,-0 166.5,-0"/>
<text text-anchor="start" x="174.5" y="-18" font-family="Helvetica,sans-Serif" font-size="10.00">lsd_slam::FrameMemory</text>
<text text-anchor="middle" x="229" y="-7" font-family="Helvetica,sans-Serif" font-size="10.00">::returnBuffer</text>
</a>
</g>
</g>
<!-- Node1&#45;&gt;Node5 -->
<g id="edge4" class="edge"><title>Node1&#45;&gt;Node5</title>
<path fill="none" stroke="midnightblue" d="M97.6198,-54.436C117.771,-48.3408 144.517,-40.2512 168.537,-32.9857"/>
<polygon fill="midnightblue" stroke="midnightblue" points="169.728,-36.2823 178.286,-30.037 167.701,-29.5821 169.728,-36.2823"/>
</g>
<!-- Node4 -->
<g id="node4" class="node"><title>Node4</title>
<g id="a_node4"><a xlink:href="../../dd/d08/classlsd__slam_1_1Frame.html#a6d38d40cd9a68d253bcb3cab2ddfa068" target="_top" xlink:title="lsd_slam::Frame::id">
<polygon fill="white" stroke="black" points="328.5,-54.5 328.5,-73.5 431.5,-73.5 431.5,-54.5 328.5,-54.5"/>
<text text-anchor="middle" x="380" y="-61.5" font-family="Helvetica,sans-Serif" font-size="10.00">lsd_slam::Frame::id</text>
</a>
</g>
</g>
<!-- Node3&#45;&gt;Node4 -->
<g id="edge3" class="edge"><title>Node3&#45;&gt;Node4</title>
<path fill="none" stroke="midnightblue" d="M291.895,-64C300.63,-64 309.604,-64 318.316,-64"/>
<polygon fill="midnightblue" stroke="midnightblue" points="318.393,-67.5001 328.393,-64 318.393,-60.5001 318.393,-67.5001"/>
</g>
</g>
</svg>
