<?xml version="1.0" encoding="UTF-8" standalone="no"?>
<!DOCTYPE svg PUBLIC "-//W3C//DTD SVG 1.1//EN"
 "http://www.w3.org/Graphics/SVG/1.1/DTD/svg11.dtd">
<!-- Generated by graphviz version 2.36.0 (20140111.2315)
 -->
<!-- Title: lsd_slam::Frame::setDepthFromGroundTruth Pages: 1 -->
<svg width="500pt" height="158pt"
 viewBox="0.00 0.00 500.00 158.00" xmlns="http://www.w3.org/2000/svg" xmlns:xlink="http://www.w3.org/1999/xlink">
<g id="graph0" class="graph" transform="scale(1 1) rotate(0) translate(4 154)">
<title>lsd_slam::Frame::setDepthFromGroundTruth</title>
<polygon fill="white" stroke="none" points="-4,4 -4,-154 496,-154 496,4 -4,4"/>
<!-- Node1 -->
<g id="node1" class="node"><title>Node1</title>
<polygon fill="#bfbfbf" stroke="black" points="0.5,-63 0.5,-93 135.5,-93 135.5,-63 0.5,-63"/>
<text text-anchor="start" x="8.5" y="-81" font-family="Helvetica,sans-Serif" font-size="10.00">lsd_slam::Frame::setDepth</text>
<text text-anchor="middle" x="68" y="-70" font-family="Helvetica,sans-Serif" font-size="10.00">FromGroundTruth</text>
</g>
<!-- Node2 -->
<g id="node2" class="node"><title>Node2</title>
<g id="a_node2"><a xlink:href="../../dd/d08/classlsd__slam_1_1Frame.html#af73ccb75e1e449d9a8f2044246ee3530" target="_top" xlink:title="lsd_slam::Frame::getActiveLock">
<polygon fill="white" stroke="black" points="172,-87.5 172,-106.5 330,-106.5 330,-87.5 172,-87.5"/>
<text text-anchor="middle" x="251" y="-94.5" font-family="Helvetica,sans-Serif" font-size="10.00">lsd_slam::Frame::getActiveLock</text>
</a>
</g>
</g>
<!-- Node1&#45;&gt;Node2 -->
<g id="edge1" class="edge"><title>Node1&#45;&gt;Node2</title>
<path fill="none" stroke="midnightblue" d="M135.627,-84.994C144.195,-85.8934 153.072,-86.8252 161.917,-87.7537"/>
<polygon fill="midnightblue" stroke="midnightblue" points="161.562,-91.2356 171.873,-88.7988 162.293,-84.2738 161.562,-91.2356"/>
</g>
<!-- Node3 -->
<g id="node3" class="node"><title>Node3</title>
<g id="a_node3"><a xlink:href="../../d1/d95/classlsd__slam_1_1FrameMemory.html#adf4afed8c58a420b38e4b117628ac32d" target="_top" xlink:title="lsd_slam::FrameMemory\l::getInstance">
<polygon fill="white" stroke="black" points="366.5,-120 366.5,-150 491.5,-150 491.5,-120 366.5,-120"/>
<text text-anchor="start" x="374.5" y="-138" font-family="Helvetica,sans-Serif" font-size="10.00">lsd_slam::FrameMemory</text>
<text text-anchor="middle" x="429" y="-127" font-family="Helvetica,sans-Serif" font-size="10.00">::getInstance</text>
</a>
</g>
</g>
<!-- Node1&#45;&gt;Node3 -->
<g id="edge5" class="edge"><title>Node1&#45;&gt;Node3</title>
<path fill="none" stroke="midnightblue" d="M102.619,-93.1184C122.408,-101.325 148.158,-110.825 172,-116 233.245,-129.295 304.452,-133.717 356.196,-135.002"/>
<polygon fill="midnightblue" stroke="midnightblue" points="356.203,-138.503 366.276,-135.219 356.354,-131.505 356.203,-138.503"/>
</g>
<!-- Node5 -->
<g id="node5" class="node"><title>Node5</title>
<g id="a_node5"><a xlink:href="../../dd/d08/classlsd__slam_1_1Frame.html#a0b26845d846249e909e6ab0adc022ebf" target="_top" xlink:title="lsd_slam::Frame::maxGradients">
<polygon fill="white" stroke="black" points="173,-49.5 173,-68.5 329,-68.5 329,-49.5 173,-49.5"/>
<text text-anchor="middle" x="251" y="-56.5" font-family="Helvetica,sans-Serif" font-size="10.00">lsd_slam::Frame::maxGradients</text>
</a>
</g>
</g>
<!-- Node1&#45;&gt;Node5 -->
<g id="edge4" class="edge"><title>Node1&#45;&gt;Node5</title>
<path fill="none" stroke="midnightblue" d="M135.627,-71.006C144.415,-70.0835 153.527,-69.127 162.597,-68.1749"/>
<polygon fill="midnightblue" stroke="midnightblue" points="163.221,-71.6287 172.801,-67.1038 162.49,-64.667 163.221,-71.6287"/>
</g>
<!-- Node6 -->
<g id="node6" class="node"><title>Node6</title>
<g id="a_node6"><a xlink:href="../../d1/d95/classlsd__slam_1_1FrameMemory.html#a5a2a621821958fe136a2ddc9707a1f72" target="_top" xlink:title="lsd_slam::FrameMemory\l::getFloatBuffer">
<polygon fill="white" stroke="black" points="188.5,-0 188.5,-30 313.5,-30 313.5,-0 188.5,-0"/>
<text text-anchor="start" x="196.5" y="-18" font-family="Helvetica,sans-Serif" font-size="10.00">lsd_slam::FrameMemory</text>
<text text-anchor="middle" x="251" y="-7" font-family="Helvetica,sans-Serif" font-size="10.00">::getFloatBuffer</text>
</a>
</g>
</g>
<!-- Node1&#45;&gt;Node6 -->
<g id="edge6" class="edge"><title>Node1&#45;&gt;Node6</title>
<path fill="none" stroke="midnightblue" d="M108.475,-62.9817C127.59,-55.8259 150.916,-47.2643 172,-40 178.504,-37.7592 185.335,-35.4725 192.137,-33.2374"/>
<polygon fill="midnightblue" stroke="midnightblue" points="193.617,-36.4363 202.041,-30.0108 191.449,-29.7805 193.617,-36.4363"/>
</g>
<!-- Node2&#45;&gt;Node3 -->
<g id="edge2" class="edge"><title>Node2&#45;&gt;Node3</title>
<path fill="none" stroke="midnightblue" d="M296.412,-106.589C314.615,-110.519 336.146,-115.168 356.464,-119.555"/>
<polygon fill="midnightblue" stroke="midnightblue" points="355.807,-122.993 366.32,-121.683 357.284,-116.151 355.807,-122.993"/>
</g>
<!-- Node4 -->
<g id="node4" class="node"><title>Node4</title>
<g id="a_node4"><a xlink:href="../../d1/d95/classlsd__slam_1_1FrameMemory.html#a6835f2a14358dee3518d9f9bff8526e3" target="_top" xlink:title="lsd_slam::FrameMemory\l::activateFrame">
<polygon fill="white" stroke="black" points="366.5,-71 366.5,-101 491.5,-101 491.5,-71 366.5,-71"/>
<text text-anchor="start" x="374.5" y="-89" font-family="Helvetica,sans-Serif" font-size="10.00">lsd_slam::FrameMemory</text>
<text text-anchor="middle" x="429" y="-78" font-family="Helvetica,sans-Serif" font-size="10.00">::activateFrame</text>
</a>
</g>
</g>
<!-- Node2&#45;&gt;Node4 -->
<g id="edge3" class="edge"><title>Node2&#45;&gt;Node4</title>
<path fill="none" stroke="midnightblue" d="M330.221,-92.1112C338.931,-91.5668 347.771,-91.0143 356.393,-90.4754"/>
<polygon fill="midnightblue" stroke="midnightblue" points="356.631,-93.9675 366.394,-89.8504 356.195,-86.9811 356.631,-93.9675"/>
</g>
<!-- Node7 -->
<g id="node7" class="node"><title>Node7</title>
<g id="a_node7"><a xlink:href="../../d1/d95/classlsd__slam_1_1FrameMemory.html#abd3eb8d2623e977f3da91416d66d01e3" target="_top" xlink:title="lsd_slam::FrameMemory\l::getBuffer">
<polygon fill="white" stroke="black" points="366.5,-0 366.5,-30 491.5,-30 491.5,-0 366.5,-0"/>
<text text-anchor="start" x="374.5" y="-18" font-family="Helvetica,sans-Serif" font-size="10.00">lsd_slam::FrameMemory</text>
<text text-anchor="middle" x="429" y="-7" font-family="Helvetica,sans-Serif" font-size="10.00">::getBuffer</text>
</a>
</g>
</g>
<!-- Node6&#45;&gt;Node7 -->
<g id="edge7" class="edge"><title>Node6&#45;&gt;Node7</title>
<path fill="none" stroke="midnightblue" d="M313.556,-15C327.356,-15 342.112,-15 356.284,-15"/>
<polygon fill="midnightblue" stroke="midnightblue" points="356.479,-18.5001 366.478,-15 356.478,-11.5001 356.479,-18.5001"/>
</g>
</g>
</svg>
