<?xml version="1.0" encoding="UTF-8" standalone="no"?>
<!DOCTYPE svg PUBLIC "-//W3C//DTD SVG 1.1//EN"
 "http://www.w3.org/Graphics/SVG/1.1/DTD/svg11.dtd">
<!-- Generated by graphviz version 2.36.0 (20140111.2315)
 -->
<!-- Title: ShaderMan::TextureDownSample Pages: 1 -->
<!--zoomable 332 -->
<svg id="main" version="1.1" xmlns="http://www.w3.org/2000/svg" xmlns:xlink="http://www.w3.org/1999/xlink" xml:space="preserve" onload="init(evt)">
<style type="text/css"><![CDATA[
.edge:hover path { stroke: red; }
.edge:hover polygon { stroke: red; fill: red; }
]]></style>
<script type="text/javascript"><![CDATA[
var edges = document.getElementsByTagName('g');
if (edges && edges.length) {
  for (var i=0;i<edges.length;i++) {
    if (edges[i].id.substr(0,4)=='edge') {
      edges[i].setAttribute('class','edge');
    }
  }
}
]]></script>
        <defs>
                <circle id="rim" cx="0" cy="0" r="7"/>
                <circle id="rim2" cx="0" cy="0" r="3.5"/>
                <g id="zoomPlus">
                        <use xlink:href="#rim" fill="#404040">
                                <set attributeName="fill" to="#808080" begin="zoomplus.mouseover" end="zoomplus.mouseout"/>
                        </use>
                        <path d="M-4,0h8M0,-4v8" fill="none" stroke="white" stroke-width="1.5" pointer-events="none"/>
                </g>
                <g id="zoomMin">
                        <use xlink:href="#rim" fill="#404040">
                                <set attributeName="fill" to="#808080" begin="zoomminus.mouseover" end="zoomminus.mouseout"/>
                        </use>
                        <path d="M-4,0h8" fill="none" stroke="white" stroke-width="1.5" pointer-events="none"/>
                </g>
                <g id="dirArrow">
                        <path fill="none" stroke="white" stroke-width="1.5" d="M0,-3.0v7 M-2.5,-0.5L0,-3.0L2.5,-0.5"/>
                </g>
               <g id="resetDef">
                       <use xlink:href="#rim2" fill="#404040">
                               <set attributeName="fill" to="#808080" begin="reset.mouseover" end="reset.mouseout"/>
                       </use>
               </g>
        </defs>

<script type="text/javascript">
var viewWidth = 642;
var viewHeight = 332;
var sectionId = 'dynsection-8';
</script>
<script xlink:href="../../svgpan.js"/>
<svg id="graph" class="graph">
<g id="viewport">
<title>ShaderMan::TextureDownSample</title>
<polygon fill="white" stroke="none" points="-4,4 -4,-328 638,-328 638,4 -4,4"/>
<!-- Node1 -->
<g id="node1" class="node"><title>Node1</title>
<polygon fill="#bfbfbf" stroke="black" points="0,-133.5 0,-152.5 164,-152.5 164,-133.5 0,-133.5"/>
<text text-anchor="middle" x="82" y="-140.5" font-family="Helvetica,sans-Serif" font-size="10.00">ShaderMan::TextureDownSample</text>
</g>
<!-- Node2 -->
<g id="node2" class="node"><title>Node2</title>
<g id="a_node2"><a xlink:href="../../df/da6/classGLTexImage.html#aeb3373705e8eae0feac654a24ac80321" target="_top" xlink:title="GLTexImage::AttachToFBO">
<polygon fill="white" stroke="black" points="203.5,-266.5 203.5,-285.5 342.5,-285.5 342.5,-266.5 203.5,-266.5"/>
<text text-anchor="middle" x="273" y="-273.5" font-family="Helvetica,sans-Serif" font-size="10.00">GLTexImage::AttachToFBO</text>
</a>
</g>
</g>
<!-- Node1&#45;&gt;Node2 -->
<g id="edge1" class="edge"><title>Node1&#45;&gt;Node2</title>
<path fill="none" stroke="midnightblue" d="M90.012,-152.636C106.559,-174.654 150.396,-228.913 200,-257 203.967,-259.246 208.208,-261.234 212.571,-262.993"/>
<polygon fill="midnightblue" stroke="midnightblue" points="211.666,-266.387 222.261,-266.486 214.04,-259.802 211.666,-266.387"/>
</g>
<!-- Node3 -->
<g id="node3" class="node"><title>Node3</title>
<g id="a_node3"><a xlink:href="../../df/da6/classGLTexImage.html#a6df86f3c5a5bf3485c25236e317b4013" target="_top" xlink:title="GLTexImage::BindTex">
<polygon fill="white" stroke="black" points="215.5,-190.5 215.5,-209.5 330.5,-209.5 330.5,-190.5 215.5,-190.5"/>
<text text-anchor="middle" x="273" y="-197.5" font-family="Helvetica,sans-Serif" font-size="10.00">GLTexImage::BindTex</text>
</a>
</g>
</g>
<!-- Node1&#45;&gt;Node3 -->
<g id="edge2" class="edge"><title>Node1&#45;&gt;Node3</title>
<path fill="none" stroke="midnightblue" d="M110.759,-152.501C134.38,-160.469 169.266,-171.962 200,-181 207.848,-183.308 216.214,-185.636 224.364,-187.832"/>
<polygon fill="midnightblue" stroke="midnightblue" points="223.584,-191.247 234.148,-190.437 225.385,-184.482 223.584,-191.247"/>
</g>
<!-- Node5 -->
<g id="node5" class="node"><title>Node5</title>
<g id="a_node5"><a xlink:href="../../df/da6/classGLTexImage.html#a1829045508d6dac9fa58842bdc7d5fc9" target="_top" xlink:title="GLTexImage::FitTexViewPort">
<polygon fill="white" stroke="black" points="200,-228.5 200,-247.5 346,-247.5 346,-228.5 200,-228.5"/>
<text text-anchor="middle" x="273" y="-235.5" font-family="Helvetica,sans-Serif" font-size="10.00">GLTexImage::FitTexViewPort</text>
</a>
</g>
</g>
<!-- Node1&#45;&gt;Node5 -->
<g id="edge4" class="edge"><title>Node1&#45;&gt;Node5</title>
<path fill="none" stroke="midnightblue" d="M94.8918,-152.589C115.247,-168.557 158.588,-200.653 200,-219 205.376,-221.382 211.115,-223.517 216.917,-225.418"/>
<polygon fill="midnightblue" stroke="midnightblue" points="216.104,-228.829 226.691,-228.399 218.146,-222.134 216.104,-228.829"/>
</g>
<!-- Node12 -->
<g id="node12" class="node"><title>Node12</title>
<g id="a_node12"><a xlink:href="../../d9/d26/classProgramGPU.html#acd625b26fa073fc83ec0be9badb29635" target="_top" xlink:title="ProgramGPU::UseProgram">
<polygon fill="white" stroke="black" points="205,-152.5 205,-171.5 341,-171.5 341,-152.5 205,-152.5"/>
<text text-anchor="middle" x="273" y="-159.5" font-family="Helvetica,sans-Serif" font-size="10.00">ProgramGPU::UseProgram</text>
</a>
</g>
</g>
<!-- Node1&#45;&gt;Node12 -->
<g id="edge11" class="edge"><title>Node1&#45;&gt;Node12</title>
<path fill="none" stroke="midnightblue" d="M164.25,-151.168C174.38,-152.186 184.717,-153.226 194.784,-154.238"/>
<polygon fill="midnightblue" stroke="midnightblue" points="194.442,-157.721 204.742,-155.239 195.142,-150.756 194.442,-157.721"/>
</g>
<!-- Node13 -->
<g id="node13" class="node"><title>Node13</title>
<g id="a_node13"><a xlink:href="../../df/da6/classGLTexImage.html#ae01833589e4040d1cb38eea27726b194" target="_top" xlink:title="GLTexImage::DrawQuadDS">
<polygon fill="white" stroke="black" points="203,-114.5 203,-133.5 343,-133.5 343,-114.5 203,-114.5"/>
<text text-anchor="middle" x="273" y="-121.5" font-family="Helvetica,sans-Serif" font-size="10.00">GLTexImage::DrawQuadDS</text>
</a>
</g>
</g>
<!-- Node1&#45;&gt;Node13 -->
<g id="edge12" class="edge"><title>Node1&#45;&gt;Node13</title>
<path fill="none" stroke="midnightblue" d="M164.25,-134.832C173.728,-133.879 183.388,-132.908 192.837,-131.958"/>
<polygon fill="midnightblue" stroke="midnightblue" points="193.39,-135.42 202.989,-130.938 192.69,-128.455 193.39,-135.42"/>
</g>
<!-- Node14 -->
<g id="node14" class="node"><title>Node14</title>
<g id="a_node14"><a xlink:href="../../df/da6/classGLTexImage.html#ac0824f2c65a2d96d3e109bd3395849d4" target="_top" xlink:title="GLTexImage::UnbindTex">
<polygon fill="white" stroke="black" points="210,-76.5 210,-95.5 336,-95.5 336,-76.5 210,-76.5"/>
<text text-anchor="middle" x="273" y="-83.5" font-family="Helvetica,sans-Serif" font-size="10.00">GLTexImage::UnbindTex</text>
</a>
</g>
</g>
<!-- Node1&#45;&gt;Node14 -->
<g id="edge13" class="edge"><title>Node1&#45;&gt;Node14</title>
<path fill="none" stroke="midnightblue" d="M110.759,-133.499C134.38,-125.531 169.266,-114.038 200,-105 207.848,-102.692 216.214,-100.364 224.364,-98.1676"/>
<polygon fill="midnightblue" stroke="midnightblue" points="225.385,-101.518 234.148,-95.5631 223.584,-94.7534 225.385,-101.518"/>
</g>
<!-- Node15 -->
<g id="node15" class="node"><title>Node15</title>
<g id="a_node15"><a xlink:href="../../d4/d24/classShaderMan.html#a9e0bda881ceb8f67650029155d23c4aa" target="_top" xlink:title="ShaderMan::UnloadProgram">
<polygon fill="white" stroke="black" points="203,-38.5 203,-57.5 343,-57.5 343,-38.5 203,-38.5"/>
<text text-anchor="middle" x="273" y="-45.5" font-family="Helvetica,sans-Serif" font-size="10.00">ShaderMan::UnloadProgram</text>
</a>
</g>
</g>
<!-- Node1&#45;&gt;Node15 -->
<g id="edge15" class="edge"><title>Node1&#45;&gt;Node15</title>
<path fill="none" stroke="midnightblue" d="M94.8918,-133.411C115.247,-117.443 158.588,-85.3469 200,-67 205.376,-64.6182 211.115,-62.483 216.917,-60.5819"/>
<polygon fill="midnightblue" stroke="midnightblue" points="218.146,-63.8663 226.691,-57.6014 216.104,-57.1707 218.146,-63.8663"/>
</g>
<!-- Node17 -->
<g id="node17" class="node"><title>Node17</title>
<g id="a_node17"><a xlink:href="../../df/da6/classGLTexImage.html#a70131f7165604c4245edab05dce9579b" target="_top" xlink:title="GLTexImage::DetachFBO">
<polygon fill="white" stroke="black" points="207.5,-0.5 207.5,-19.5 338.5,-19.5 338.5,-0.5 207.5,-0.5"/>
<text text-anchor="middle" x="273" y="-7.5" font-family="Helvetica,sans-Serif" font-size="10.00">GLTexImage::DetachFBO</text>
</a>
</g>
</g>
<!-- Node1&#45;&gt;Node17 -->
<g id="edge17" class="edge"><title>Node1&#45;&gt;Node17</title>
<path fill="none" stroke="midnightblue" d="M90.012,-133.364C106.559,-111.346 150.396,-57.087 200,-29 203.967,-26.7536 208.208,-24.7656 212.571,-23.0074"/>
<polygon fill="midnightblue" stroke="midnightblue" points="214.04,-26.1983 222.261,-19.5143 211.666,-19.6132 214.04,-26.1983"/>
</g>
<!-- Node4 -->
<g id="node4" class="node"><title>Node4</title>
<g id="a_node4"><a xlink:href="../../da/d33/glew_8h.html#a940f58f3728713267a58e2d09ff602b2" target="_top" xlink:title="glBindTexture">
<polygon fill="white" stroke="black" points="412.5,-133.5 412.5,-152.5 489.5,-152.5 489.5,-133.5 412.5,-133.5"/>
<text text-anchor="middle" x="451" y="-140.5" font-family="Helvetica,sans-Serif" font-size="10.00">glBindTexture</text>
</a>
</g>
</g>
<!-- Node3&#45;&gt;Node4 -->
<g id="edge3" class="edge"><title>Node3&#45;&gt;Node4</title>
<path fill="none" stroke="midnightblue" d="M312.675,-190.496C323.516,-187.642 335.269,-184.368 346,-181 369.8,-173.529 396.194,-163.868 416.437,-156.157"/>
<polygon fill="midnightblue" stroke="midnightblue" points="417.761,-159.398 425.842,-152.547 415.252,-152.863 417.761,-159.398"/>
</g>
<!-- Node6 -->
<g id="node6" class="node"><title>Node6</title>
<g id="a_node6"><a xlink:href="../../d2/d55/classGlobalUtil.html#a30830c22f7574d8d6f5a5b0a0b31ad50" target="_top" xlink:title="GlobalUtil::FitViewPort">
<polygon fill="white" stroke="black" points="393,-228.5 393,-247.5 509,-247.5 509,-228.5 393,-228.5"/>
<text text-anchor="middle" x="451" y="-235.5" font-family="Helvetica,sans-Serif" font-size="10.00">GlobalUtil::FitViewPort</text>
</a>
</g>
</g>
<!-- Node5&#45;&gt;Node6 -->
<g id="edge5" class="edge"><title>Node5&#45;&gt;Node6</title>
<path fill="none" stroke="midnightblue" d="M346.094,-238C358.135,-238 370.588,-238 382.508,-238"/>
<polygon fill="midnightblue" stroke="midnightblue" points="382.824,-241.5 392.824,-238 382.824,-234.5 382.824,-241.5"/>
</g>
<!-- Node7 -->
<g id="node7" class="node"><title>Node7</title>
<g id="a_node7"><a xlink:href="../../da/d33/glew_8h.html#ae9ebc290561b3321b629610807155a35" target="_top" xlink:title="glGetIntegerv">
<polygon fill="white" stroke="black" points="557.5,-304.5 557.5,-323.5 632.5,-323.5 632.5,-304.5 557.5,-304.5"/>
<text text-anchor="middle" x="595" y="-311.5" font-family="Helvetica,sans-Serif" font-size="10.00">glGetIntegerv</text>
</a>
</g>
</g>
<!-- Node6&#45;&gt;Node7 -->
<g id="edge6" class="edge"><title>Node6&#45;&gt;Node7</title>
<path fill="none" stroke="midnightblue" d="M469.19,-247.681C489.726,-259.185 525.176,-278.854 556,-295 559.099,-296.624 562.355,-298.298 565.603,-299.948"/>
<polygon fill="midnightblue" stroke="midnightblue" points="564.091,-303.105 574.597,-304.474 567.237,-296.853 564.091,-303.105"/>
</g>
<!-- Node8 -->
<g id="node8" class="node"><title>Node8</title>
<g id="a_node8"><a xlink:href="../../da/d33/glew_8h.html#a8e93835e91933b7078c88f905dd8599c" target="_top" xlink:title="glViewport">
<polygon fill="white" stroke="black" points="564,-266.5 564,-285.5 626,-285.5 626,-266.5 564,-266.5"/>
<text text-anchor="middle" x="595" y="-273.5" font-family="Helvetica,sans-Serif" font-size="10.00">glViewport</text>
</a>
</g>
</g>
<!-- Node6&#45;&gt;Node8 -->
<g id="edge7" class="edge"><title>Node6&#45;&gt;Node8</title>
<path fill="none" stroke="midnightblue" d="M487.833,-247.589C508.026,-252.993 533.297,-259.756 554.118,-265.327"/>
<polygon fill="midnightblue" stroke="midnightblue" points="553.375,-268.752 563.94,-267.956 555.184,-261.989 553.375,-268.752"/>
</g>
<!-- Node9 -->
<g id="node9" class="node"><title>Node9</title>
<g id="a_node9"><a xlink:href="../../da/d33/glew_8h.html#af14e38e22806d0220680b52edbc3bcef" target="_top" xlink:title="glMatrixMode">
<polygon fill="white" stroke="black" points="557.5,-228.5 557.5,-247.5 632.5,-247.5 632.5,-228.5 557.5,-228.5"/>
<text text-anchor="middle" x="595" y="-235.5" font-family="Helvetica,sans-Serif" font-size="10.00">glMatrixMode</text>
</a>
</g>
</g>
<!-- Node6&#45;&gt;Node9 -->
<g id="edge8" class="edge"><title>Node6&#45;&gt;Node9</title>
<path fill="none" stroke="midnightblue" d="M509.348,-238C521.85,-238 534.939,-238 546.984,-238"/>
<polygon fill="midnightblue" stroke="midnightblue" points="547.26,-241.5 557.26,-238 547.26,-234.5 547.26,-241.5"/>
</g>
<!-- Node10 -->
<g id="node10" class="node"><title>Node10</title>
<g id="a_node10"><a xlink:href="../../da/d33/glew_8h.html#a6577472f85b23086331edadaf0311a49" target="_top" xlink:title="glLoadIdentity">
<polygon fill="white" stroke="black" points="556.5,-190.5 556.5,-209.5 633.5,-209.5 633.5,-190.5 556.5,-190.5"/>
<text text-anchor="middle" x="595" y="-197.5" font-family="Helvetica,sans-Serif" font-size="10.00">glLoadIdentity</text>
</a>
</g>
</g>
<!-- Node6&#45;&gt;Node10 -->
<g id="edge9" class="edge"><title>Node6&#45;&gt;Node10</title>
<path fill="none" stroke="midnightblue" d="M487.833,-228.411C506.163,-223.506 528.678,-217.48 548.25,-212.243"/>
<polygon fill="midnightblue" stroke="midnightblue" points="549.424,-215.552 558.179,-209.586 547.614,-208.79 549.424,-215.552"/>
</g>
<!-- Node11 -->
<g id="node11" class="node"><title>Node11</title>
<g id="a_node11"><a xlink:href="../../da/d33/glew_8h.html#a2d92120b1fad876057dfd00e2d942525" target="_top" xlink:title="glOrtho">
<polygon fill="white" stroke="black" points="571,-152.5 571,-171.5 619,-171.5 619,-152.5 571,-152.5"/>
<text text-anchor="middle" x="595" y="-159.5" font-family="Helvetica,sans-Serif" font-size="10.00">glOrtho</text>
</a>
</g>
</g>
<!-- Node6&#45;&gt;Node11 -->
<g id="edge10" class="edge"><title>Node6&#45;&gt;Node11</title>
<path fill="none" stroke="midnightblue" d="M469.19,-228.319C489.726,-216.815 525.176,-197.146 556,-181 559.099,-179.376 562.355,-177.702 565.603,-176.052"/>
<polygon fill="midnightblue" stroke="midnightblue" points="567.237,-179.147 574.597,-171.526 564.091,-172.895 567.237,-179.147"/>
</g>
<!-- Node14&#45;&gt;Node4 -->
<g id="edge14" class="edge"><title>Node14&#45;&gt;Node4</title>
<path fill="none" stroke="midnightblue" d="M312.675,-95.5043C323.516,-98.3582 335.269,-101.632 346,-105 369.8,-112.471 396.194,-122.132 416.437,-129.843"/>
<polygon fill="midnightblue" stroke="midnightblue" points="415.252,-133.137 425.842,-133.453 417.761,-126.602 415.252,-133.137"/>
</g>
<!-- Node16 -->
<g id="node16" class="node"><title>Node16</title>
<g id="a_node16"><a xlink:href="../../d9/d4e/classShaderBag.html#aacdddcf6984572013aec63a1d97b24b2" target="_top" xlink:title="ShaderBag::UnloadProgram">
<polygon fill="white" stroke="black" points="382,-38.5 382,-57.5 520,-57.5 520,-38.5 382,-38.5"/>
<text text-anchor="middle" x="451" y="-45.5" font-family="Helvetica,sans-Serif" font-size="10.00">ShaderBag::UnloadProgram</text>
</a>
</g>
</g>
<!-- Node15&#45;&gt;Node16 -->
<g id="edge16" class="edge"><title>Node15&#45;&gt;Node16</title>
<path fill="none" stroke="midnightblue" d="M343.055,-48C352.39,-48 362.024,-48 371.509,-48"/>
<polygon fill="midnightblue" stroke="midnightblue" points="371.722,-51.5001 381.722,-48 371.722,-44.5001 371.722,-51.5001"/>
</g>
</g>
</svg>
        <g id="navigator" transform="translate(0 0)" fill="#404254">
                <rect fill="#f2f5e9" fill-opacity="0.5" stroke="#606060" stroke-width=".5" x="0" y="0" width="60" height="60"/>
                <use id="zoomplus" xlink:href="#zoomPlus" x="17" y="9" onmousedown="handleZoom(evt,'in')"/>
                <use id="zoomminus" xlink:href="#zoomMin" x="42" y="9" onmousedown="handleZoom(evt,'out')"/>
                <use id="reset" xlink:href="#resetDef" x="30" y="36" onmousedown="handleReset()"/>
                <g id="arrowUp" xlink:href="#dirArrow" transform="translate(30 24)" onmousedown="handlePan(0,-1)">
                  <use xlink:href="#rim" fill="#404040">
                        <set attributeName="fill" to="#808080" begin="arrowUp.mouseover" end="arrowUp.mouseout"/>
                  </use>
                  <path fill="none" stroke="white" stroke-width="1.5" d="M0,-3.0v7 M-2.5,-0.5L0,-3.0L2.5,-0.5"/>
                </g>
                <g id="arrowRight" xlink:href="#dirArrow" transform="rotate(90) translate(36 -43)" onmousedown="handlePan(1,0)">
                  <use xlink:href="#rim" fill="#404040">
                        <set attributeName="fill" to="#808080" begin="arrowRight.mouseover" end="arrowRight.mouseout"/>
                  </use>
                  <path fill="none" stroke="white" stroke-width="1.5" d="M0,-3.0v7 M-2.5,-0.5L0,-3.0L2.5,-0.5"/>
                </g>
                <g id="arrowDown" xlink:href="#dirArrow" transform="rotate(180) translate(-30 -48)" onmousedown="handlePan(0,1)">
                  <use xlink:href="#rim" fill="#404040">
                        <set attributeName="fill" to="#808080" begin="arrowDown.mouseover" end="arrowDown.mouseout"/>
                  </use>
                  <path fill="none" stroke="white" stroke-width="1.5" d="M0,-3.0v7 M-2.5,-0.5L0,-3.0L2.5,-0.5"/>
                </g>
                <g id="arrowLeft" xlink:href="#dirArrow" transform="rotate(270) translate(-36 17)" onmousedown="handlePan(-1,0)">
                  <use xlink:href="#rim" fill="#404040">
                        <set attributeName="fill" to="#808080" begin="arrowLeft.mouseover" end="arrowLeft.mouseout"/>
                  </use>
                  <path fill="none" stroke="white" stroke-width="1.5" d="M0,-3.0v7 M-2.5,-0.5L0,-3.0L2.5,-0.5"/>
                </g>
        </g>
        <svg viewBox="0 0 15 15" width="100%" height="30px" preserveAspectRatio="xMaxYMin meet">
         <g id="arrow_out" transform="scale(0.3 0.3)">
          <a xlink:href="classShaderMan_ada123e7425733793c1c836a416f02408_cgraph_org.svg" target="_base">
           <rect id="button" ry="5" rx="5" y="6" x="6" height="38" width="38"
                fill="#f2f5e9" fill-opacity="0.5" stroke="#606060" stroke-width="1.0"/>
           <path id="arrow"
             d="M 11.500037,31.436501 C 11.940474,20.09759 22.043105,11.32322 32.158766,21.979434 L 37.068811,17.246167 C 37.068811,17.246167 37.088388,32 37.088388,32 L 22.160133,31.978069 C 22.160133,31.978069 26.997745,27.140456 26.997745,27.140456 C 18.528582,18.264221 13.291696,25.230495 11.500037,31.436501 z"
             style="fill:#404040;"/>
          </a>
         </g>
        </svg>
</svg>
