<?xml version="1.0" encoding="UTF-8" standalone="no"?>
<!DOCTYPE svg PUBLIC "-//W3C//DTD SVG 1.1//EN"
 "http://www.w3.org/Graphics/SVG/1.1/DTD/svg11.dtd">
<!-- Generated by graphviz version 2.36.0 (20140111.2315)
 -->
<!-- Title: ShaderMan::UseShaderGenListStep Pages: 1 -->
<svg width="360pt" height="77pt"
 viewBox="0.00 0.00 360.00 77.00" xmlns="http://www.w3.org/2000/svg" xmlns:xlink="http://www.w3.org/1999/xlink">
<g id="graph0" class="graph" transform="scale(1 1) rotate(0) translate(4 73)">
<title>ShaderMan::UseShaderGenListStep</title>
<polygon fill="white" stroke="none" points="-4,4 -4,-73 356,-73 356,4 -4,4"/>
<!-- Node1 -->
<g id="node1" class="node"><title>Node1</title>
<polygon fill="#bfbfbf" stroke="black" points="0.5,-27.5 0.5,-46.5 175.5,-46.5 175.5,-27.5 0.5,-27.5"/>
<text text-anchor="middle" x="88" y="-34.5" font-family="Helvetica,sans-Serif" font-size="10.00">ShaderMan::UseShaderGenListStep</text>
</g>
<!-- Node2 -->
<g id="node2" class="node"><title>Node2</title>
<g id="a_node2"><a xlink:href="../../d9/d26/classProgramGPU.html#acd625b26fa073fc83ec0be9badb29635" target="_top" xlink:title="ProgramGPU::UseProgram">
<polygon fill="white" stroke="black" points="214,-49.5 214,-68.5 350,-68.5 350,-49.5 214,-49.5"/>
<text text-anchor="middle" x="282" y="-56.5" font-family="Helvetica,sans-Serif" font-size="10.00">ProgramGPU::UseProgram</text>
</a>
</g>
</g>
<!-- Node1&#45;&gt;Node2 -->
<g id="edge1" class="edge"><title>Node1&#45;&gt;Node2</title>
<path fill="none" stroke="midnightblue" d="M172.097,-46.5216C182.696,-47.736 193.509,-48.9749 204.005,-50.1777"/>
<polygon fill="midnightblue" stroke="midnightblue" points="203.622,-53.6566 213.955,-51.3178 204.419,-46.7021 203.622,-53.6566"/>
</g>
<!-- Node3 -->
<g id="node3" class="node"><title>Node3</title>
<g id="a_node3"><a xlink:href="../../d9/d4e/classShaderBag.html#a1897ed7a40b969b444e90413f06f0c2f" target="_top" xlink:title="ShaderBag::SetGenListStep\lParam">
<polygon fill="white" stroke="black" points="212,-0 212,-30 352,-30 352,-0 212,-0"/>
<text text-anchor="start" x="220" y="-18" font-family="Helvetica,sans-Serif" font-size="10.00">ShaderBag::SetGenListStep</text>
<text text-anchor="middle" x="282" y="-7" font-family="Helvetica,sans-Serif" font-size="10.00">Param</text>
</a>
</g>
</g>
<!-- Node1&#45;&gt;Node3 -->
<g id="edge2" class="edge"><title>Node1&#45;&gt;Node3</title>
<path fill="none" stroke="midnightblue" d="M172.097,-27.4784C181.951,-26.3494 191.989,-25.1991 201.787,-24.0765"/>
<polygon fill="midnightblue" stroke="midnightblue" points="202.356,-27.5343 211.892,-22.9186 201.559,-20.5798 202.356,-27.5343"/>
</g>
</g>
</svg>
