<?xml version="1.0" encoding="UTF-8" standalone="no"?>
<!DOCTYPE svg PUBLIC "-//W3C//DTD SVG 1.1//EN"
 "http://www.w3.org/Graphics/SVG/1.1/DTD/svg11.dtd">
<!-- Generated by graphviz version 2.36.0 (20140111.2315)
 -->
<!-- Title: ShaderMan::TextureCopy Pages: 1 -->
<!--zoomable 294 -->
<svg id="main" version="1.1" xmlns="http://www.w3.org/2000/svg" xmlns:xlink="http://www.w3.org/1999/xlink" xml:space="preserve" onload="init(evt)">
<style type="text/css"><![CDATA[
.edge:hover path { stroke: red; }
.edge:hover polygon { stroke: red; fill: red; }
]]></style>
<script type="text/javascript"><![CDATA[
var edges = document.getElementsByTagName('g');
if (edges && edges.length) {
  for (var i=0;i<edges.length;i++) {
    if (edges[i].id.substr(0,4)=='edge') {
      edges[i].setAttribute('class','edge');
    }
  }
}
]]></script>
        <defs>
                <circle id="rim" cx="0" cy="0" r="7"/>
                <circle id="rim2" cx="0" cy="0" r="3.5"/>
                <g id="zoomPlus">
                        <use xlink:href="#rim" fill="#404040">
                                <set attributeName="fill" to="#808080" begin="zoomplus.mouseover" end="zoomplus.mouseout"/>
                        </use>
                        <path d="M-4,0h8M0,-4v8" fill="none" stroke="white" stroke-width="1.5" pointer-events="none"/>
                </g>
                <g id="zoomMin">
                        <use xlink:href="#rim" fill="#404040">
                                <set attributeName="fill" to="#808080" begin="zoomminus.mouseover" end="zoomminus.mouseout"/>
                        </use>
                        <path d="M-4,0h8" fill="none" stroke="white" stroke-width="1.5" pointer-events="none"/>
                </g>
                <g id="dirArrow">
                        <path fill="none" stroke="white" stroke-width="1.5" d="M0,-3.0v7 M-2.5,-0.5L0,-3.0L2.5,-0.5"/>
                </g>
               <g id="resetDef">
                       <use xlink:href="#rim2" fill="#404040">
                               <set attributeName="fill" to="#808080" begin="reset.mouseover" end="reset.mouseout"/>
                       </use>
               </g>
        </defs>

<script type="text/javascript">
var viewWidth = 584;
var viewHeight = 294;
var sectionId = 'dynsection-7';
</script>
<script xlink:href="../../svgpan.js"/>
<svg id="graph" class="graph">
<g id="viewport">
<title>ShaderMan::TextureCopy</title>
<polygon fill="white" stroke="none" points="-4,4 -4,-290 580,-290 580,4 -4,4"/>
<!-- Node1 -->
<g id="node1" class="node"><title>Node1</title>
<polygon fill="#bfbfbf" stroke="black" points="0,-171.5 0,-190.5 128,-190.5 128,-171.5 0,-171.5"/>
<text text-anchor="middle" x="64" y="-178.5" font-family="Helvetica,sans-Serif" font-size="10.00">ShaderMan::TextureCopy</text>
</g>
<!-- Node2 -->
<g id="node2" class="node"><title>Node2</title>
<g id="a_node2"><a xlink:href="../../df/da6/classGLTexImage.html#aeb3373705e8eae0feac654a24ac80321" target="_top" xlink:title="GLTexImage::AttachToFBO">
<polygon fill="white" stroke="black" points="167.5,-266.5 167.5,-285.5 306.5,-285.5 306.5,-266.5 167.5,-266.5"/>
<text text-anchor="middle" x="237" y="-273.5" font-family="Helvetica,sans-Serif" font-size="10.00">GLTexImage::AttachToFBO</text>
</a>
</g>
</g>
<!-- Node1&#45;&gt;Node2 -->
<g id="edge1" class="edge"><title>Node1&#45;&gt;Node2</title>
<path fill="none" stroke="midnightblue" d="M74.7721,-190.696C91.5681,-206.822 127.627,-239.144 164,-257 168.86,-259.386 174.056,-261.499 179.348,-263.366"/>
<polygon fill="midnightblue" stroke="midnightblue" points="178.336,-266.717 188.928,-266.465 180.49,-260.057 178.336,-266.717"/>
</g>
<!-- Node3 -->
<g id="node3" class="node"><title>Node3</title>
<g id="a_node3"><a xlink:href="../../df/da6/classGLTexImage.html#a6df86f3c5a5bf3485c25236e317b4013" target="_top" xlink:title="GLTexImage::BindTex">
<polygon fill="white" stroke="black" points="179.5,-228.5 179.5,-247.5 294.5,-247.5 294.5,-228.5 179.5,-228.5"/>
<text text-anchor="middle" x="237" y="-235.5" font-family="Helvetica,sans-Serif" font-size="10.00">GLTexImage::BindTex</text>
</a>
</g>
</g>
<!-- Node1&#45;&gt;Node3 -->
<g id="edge2" class="edge"><title>Node1&#45;&gt;Node3</title>
<path fill="none" stroke="midnightblue" d="M87.9503,-190.624C107.855,-198.774 137.545,-210.46 164,-219 171.271,-221.347 179.022,-223.623 186.645,-225.736"/>
<polygon fill="midnightblue" stroke="midnightblue" points="185.973,-229.18 196.539,-228.412 187.8,-222.423 185.973,-229.18"/>
</g>
<!-- Node5 -->
<g id="node5" class="node"><title>Node5</title>
<g id="a_node5"><a xlink:href="../../df/da6/classGLTexImage.html#a1829045508d6dac9fa58842bdc7d5fc9" target="_top" xlink:title="GLTexImage::FitTexViewPort">
<polygon fill="white" stroke="black" points="164,-152.5 164,-171.5 310,-171.5 310,-152.5 164,-152.5"/>
<text text-anchor="middle" x="237" y="-159.5" font-family="Helvetica,sans-Serif" font-size="10.00">GLTexImage::FitTexViewPort</text>
</a>
</g>
</g>
<!-- Node1&#45;&gt;Node5 -->
<g id="edge4" class="edge"><title>Node1&#45;&gt;Node5</title>
<path fill="none" stroke="midnightblue" d="M128.188,-173.979C136.531,-173.052 145.178,-172.091 153.781,-171.135"/>
<polygon fill="midnightblue" stroke="midnightblue" points="154.287,-174.601 163.839,-170.018 153.513,-167.644 154.287,-174.601"/>
</g>
<!-- Node12 -->
<g id="node12" class="node"><title>Node12</title>
<g id="a_node12"><a xlink:href="../../df/da6/classGLTexImage.html#ab991a4b37a9d9a3e6490549b50253729" target="_top" xlink:title="GLTexImage::DrawQuad">
<polygon fill="white" stroke="black" points="174.5,-114.5 174.5,-133.5 299.5,-133.5 299.5,-114.5 174.5,-114.5"/>
<text text-anchor="middle" x="237" y="-121.5" font-family="Helvetica,sans-Serif" font-size="10.00">GLTexImage::DrawQuad</text>
</a>
</g>
</g>
<!-- Node1&#45;&gt;Node12 -->
<g id="edge11" class="edge"><title>Node1&#45;&gt;Node12</title>
<path fill="none" stroke="midnightblue" d="M87.9503,-171.376C107.855,-163.226 137.545,-151.54 164,-143 171.271,-140.653 179.022,-138.377 186.645,-136.264"/>
<polygon fill="midnightblue" stroke="midnightblue" points="187.8,-139.577 196.539,-133.588 185.973,-132.82 187.8,-139.577"/>
</g>
<!-- Node18 -->
<g id="node18" class="node"><title>Node18</title>
<g id="a_node18"><a xlink:href="../../df/da6/classGLTexImage.html#ac0824f2c65a2d96d3e109bd3395849d4" target="_top" xlink:title="GLTexImage::UnbindTex">
<polygon fill="white" stroke="black" points="174,-190.5 174,-209.5 300,-209.5 300,-190.5 174,-190.5"/>
<text text-anchor="middle" x="237" y="-197.5" font-family="Helvetica,sans-Serif" font-size="10.00">GLTexImage::UnbindTex</text>
</a>
</g>
</g>
<!-- Node1&#45;&gt;Node18 -->
<g id="edge17" class="edge"><title>Node1&#45;&gt;Node18</title>
<path fill="none" stroke="midnightblue" d="M128.188,-188.021C139.741,-189.305 151.878,-190.653 163.673,-191.964"/>
<polygon fill="midnightblue" stroke="midnightblue" points="163.601,-195.477 173.926,-193.103 164.374,-188.52 163.601,-195.477"/>
</g>
<!-- Node19 -->
<g id="node19" class="node"><title>Node19</title>
<g id="a_node19"><a xlink:href="../../df/da6/classGLTexImage.html#a70131f7165604c4245edab05dce9579b" target="_top" xlink:title="GLTexImage::DetachFBO">
<polygon fill="white" stroke="black" points="171.5,-76.5 171.5,-95.5 302.5,-95.5 302.5,-76.5 171.5,-76.5"/>
<text text-anchor="middle" x="237" y="-83.5" font-family="Helvetica,sans-Serif" font-size="10.00">GLTexImage::DetachFBO</text>
</a>
</g>
</g>
<!-- Node1&#45;&gt;Node19 -->
<g id="edge19" class="edge"><title>Node1&#45;&gt;Node19</title>
<path fill="none" stroke="midnightblue" d="M74.7721,-171.304C91.5681,-155.178 127.627,-122.856 164,-105 168.86,-102.614 174.056,-100.501 179.348,-98.6341"/>
<polygon fill="midnightblue" stroke="midnightblue" points="180.49,-101.943 188.928,-95.5353 178.336,-95.2831 180.49,-101.943"/>
</g>
<!-- Node4 -->
<g id="node4" class="node"><title>Node4</title>
<g id="a_node4"><a xlink:href="../../da/d33/glew_8h.html#a940f58f3728713267a58e2d09ff602b2" target="_top" xlink:title="glBindTexture">
<polygon fill="white" stroke="black" points="365.5,-228.5 365.5,-247.5 442.5,-247.5 442.5,-228.5 365.5,-228.5"/>
<text text-anchor="middle" x="404" y="-235.5" font-family="Helvetica,sans-Serif" font-size="10.00">glBindTexture</text>
</a>
</g>
</g>
<!-- Node3&#45;&gt;Node4 -->
<g id="edge3" class="edge"><title>Node3&#45;&gt;Node4</title>
<path fill="none" stroke="midnightblue" d="M294.784,-238C314.447,-238 336.276,-238 355.149,-238"/>
<polygon fill="midnightblue" stroke="midnightblue" points="355.298,-241.5 365.298,-238 355.298,-234.5 355.298,-241.5"/>
</g>
<!-- Node6 -->
<g id="node6" class="node"><title>Node6</title>
<g id="a_node6"><a xlink:href="../../d2/d55/classGlobalUtil.html#a30830c22f7574d8d6f5a5b0a0b31ad50" target="_top" xlink:title="GlobalUtil::FitViewPort">
<polygon fill="white" stroke="black" points="346,-190.5 346,-209.5 462,-209.5 462,-190.5 346,-190.5"/>
<text text-anchor="middle" x="404" y="-197.5" font-family="Helvetica,sans-Serif" font-size="10.00">GlobalUtil::FitViewPort</text>
</a>
</g>
</g>
<!-- Node5&#45;&gt;Node6 -->
<g id="edge5" class="edge"><title>Node5&#45;&gt;Node6</title>
<path fill="none" stroke="midnightblue" d="M279.636,-171.589C301.508,-176.626 328.506,-182.844 351.664,-188.177"/>
<polygon fill="midnightblue" stroke="midnightblue" points="351.133,-191.646 361.663,-190.48 352.704,-184.825 351.133,-191.646"/>
</g>
<!-- Node7 -->
<g id="node7" class="node"><title>Node7</title>
<g id="a_node7"><a xlink:href="../../da/d33/glew_8h.html#ae9ebc290561b3321b629610807155a35" target="_top" xlink:title="glGetIntegerv">
<polygon fill="white" stroke="black" points="499.5,-266.5 499.5,-285.5 574.5,-285.5 574.5,-266.5 499.5,-266.5"/>
<text text-anchor="middle" x="537" y="-273.5" font-family="Helvetica,sans-Serif" font-size="10.00">glGetIntegerv</text>
</a>
</g>
</g>
<!-- Node6&#45;&gt;Node7 -->
<g id="edge6" class="edge"><title>Node6&#45;&gt;Node7</title>
<path fill="none" stroke="midnightblue" d="M442.392,-209.526C449.191,-212.063 456.017,-215.19 462,-219 481.623,-231.497 479.312,-243.143 498,-257 500.074,-258.538 502.291,-260.01 504.573,-261.406"/>
<polygon fill="midnightblue" stroke="midnightblue" points="503.094,-264.588 513.534,-266.39 506.496,-258.471 503.094,-264.588"/>
</g>
<!-- Node8 -->
<g id="node8" class="node"><title>Node8</title>
<g id="a_node8"><a xlink:href="../../da/d33/glew_8h.html#a8e93835e91933b7078c88f905dd8599c" target="_top" xlink:title="glViewport">
<polygon fill="white" stroke="black" points="506,-228.5 506,-247.5 568,-247.5 568,-228.5 506,-228.5"/>
<text text-anchor="middle" x="537" y="-235.5" font-family="Helvetica,sans-Serif" font-size="10.00">glViewport</text>
</a>
</g>
</g>
<!-- Node6&#45;&gt;Node8 -->
<g id="edge7" class="edge"><title>Node6&#45;&gt;Node8</title>
<path fill="none" stroke="midnightblue" d="M438.057,-209.589C455.661,-214.696 477.448,-221.016 496.001,-226.397"/>
<polygon fill="midnightblue" stroke="midnightblue" points="495.068,-229.771 505.648,-229.195 497.019,-223.048 495.068,-229.771"/>
</g>
<!-- Node9 -->
<g id="node9" class="node"><title>Node9</title>
<g id="a_node9"><a xlink:href="../../da/d33/glew_8h.html#af14e38e22806d0220680b52edbc3bcef" target="_top" xlink:title="glMatrixMode">
<polygon fill="white" stroke="black" points="499.5,-190.5 499.5,-209.5 574.5,-209.5 574.5,-190.5 499.5,-190.5"/>
<text text-anchor="middle" x="537" y="-197.5" font-family="Helvetica,sans-Serif" font-size="10.00">glMatrixMode</text>
</a>
</g>
</g>
<!-- Node6&#45;&gt;Node9 -->
<g id="edge8" class="edge"><title>Node6&#45;&gt;Node9</title>
<path fill="none" stroke="midnightblue" d="M462.077,-200C471.196,-200 480.536,-200 489.374,-200"/>
<polygon fill="midnightblue" stroke="midnightblue" points="489.477,-203.5 499.477,-200 489.477,-196.5 489.477,-203.5"/>
</g>
<!-- Node10 -->
<g id="node10" class="node"><title>Node10</title>
<g id="a_node10"><a xlink:href="../../da/d33/glew_8h.html#a6577472f85b23086331edadaf0311a49" target="_top" xlink:title="glLoadIdentity">
<polygon fill="white" stroke="black" points="498.5,-152.5 498.5,-171.5 575.5,-171.5 575.5,-152.5 498.5,-152.5"/>
<text text-anchor="middle" x="537" y="-159.5" font-family="Helvetica,sans-Serif" font-size="10.00">glLoadIdentity</text>
</a>
</g>
</g>
<!-- Node6&#45;&gt;Node10 -->
<g id="edge9" class="edge"><title>Node6&#45;&gt;Node10</title>
<path fill="none" stroke="midnightblue" d="M438.057,-190.411C454.813,-185.551 475.358,-179.591 493.297,-174.387"/>
<polygon fill="midnightblue" stroke="midnightblue" points="494.325,-177.733 502.954,-171.586 492.375,-171.01 494.325,-177.733"/>
</g>
<!-- Node11 -->
<g id="node11" class="node"><title>Node11</title>
<g id="a_node11"><a xlink:href="../../da/d33/glew_8h.html#a2d92120b1fad876057dfd00e2d942525" target="_top" xlink:title="glOrtho">
<polygon fill="white" stroke="black" points="513,-114.5 513,-133.5 561,-133.5 561,-114.5 513,-114.5"/>
<text text-anchor="middle" x="537" y="-121.5" font-family="Helvetica,sans-Serif" font-size="10.00">glOrtho</text>
</a>
</g>
</g>
<!-- Node6&#45;&gt;Node11 -->
<g id="edge10" class="edge"><title>Node6&#45;&gt;Node11</title>
<path fill="none" stroke="midnightblue" d="M442.392,-190.474C449.191,-187.937 456.017,-184.81 462,-181 481.623,-168.503 479.312,-156.857 498,-143 500.074,-141.462 502.291,-139.99 504.573,-138.594"/>
<polygon fill="midnightblue" stroke="midnightblue" points="506.496,-141.529 513.534,-133.61 503.094,-135.412 506.496,-141.529"/>
</g>
<!-- Node13 -->
<g id="node13" class="node"><title>Node13</title>
<g id="a_node13"><a xlink:href="../../da/d33/glew_8h.html#a98964453975519f92d6cc59ef77f7436" target="_top" xlink:title="glBegin">
<polygon fill="white" stroke="black" points="379.5,-152.5 379.5,-171.5 428.5,-171.5 428.5,-152.5 379.5,-152.5"/>
<text text-anchor="middle" x="404" y="-159.5" font-family="Helvetica,sans-Serif" font-size="10.00">glBegin</text>
</a>
</g>
</g>
<!-- Node12&#45;&gt;Node13 -->
<g id="edge12" class="edge"><title>Node12&#45;&gt;Node13</title>
<path fill="none" stroke="midnightblue" d="M279.636,-133.589C307.449,-139.994 343.551,-148.309 369.505,-154.286"/>
<polygon fill="midnightblue" stroke="midnightblue" points="368.73,-157.699 379.261,-156.533 370.301,-150.878 368.73,-157.699"/>
</g>
<!-- Node14 -->
<g id="node14" class="node"><title>Node14</title>
<g id="a_node14"><a xlink:href="../../da/d33/glew_8h.html#a09db6f9fa0d39ef7e3919e6212296ece" target="_top" xlink:title="glTexCoord2f">
<polygon fill="white" stroke="black" points="366.5,-114.5 366.5,-133.5 441.5,-133.5 441.5,-114.5 366.5,-114.5"/>
<text text-anchor="middle" x="404" y="-121.5" font-family="Helvetica,sans-Serif" font-size="10.00">glTexCoord2f</text>
</a>
</g>
</g>
<!-- Node12&#45;&gt;Node14 -->
<g id="edge13" class="edge"><title>Node12&#45;&gt;Node14</title>
<path fill="none" stroke="midnightblue" d="M299.909,-124C318.387,-124 338.336,-124 355.718,-124"/>
<polygon fill="midnightblue" stroke="midnightblue" points="356.173,-127.5 366.173,-124 356.173,-120.5 356.173,-127.5"/>
</g>
<!-- Node15 -->
<g id="node15" class="node"><title>Node15</title>
<g id="a_node15"><a xlink:href="../../da/d33/glew_8h.html#a474f4498ace02f86e7f299eb8bf27da3" target="_top" xlink:title="glVertex2f">
<polygon fill="white" stroke="black" points="373.5,-76.5 373.5,-95.5 434.5,-95.5 434.5,-76.5 373.5,-76.5"/>
<text text-anchor="middle" x="404" y="-83.5" font-family="Helvetica,sans-Serif" font-size="10.00">glVertex2f</text>
</a>
</g>
</g>
<!-- Node12&#45;&gt;Node15 -->
<g id="edge14" class="edge"><title>Node12&#45;&gt;Node15</title>
<path fill="none" stroke="midnightblue" d="M279.636,-114.411C305.312,-108.498 338.053,-100.958 363.351,-95.1312"/>
<polygon fill="midnightblue" stroke="midnightblue" points="364.387,-98.4844 373.347,-92.8293 362.816,-91.6629 364.387,-98.4844"/>
</g>
<!-- Node16 -->
<g id="node16" class="node"><title>Node16</title>
<g id="a_node16"><a xlink:href="../../da/d33/glew_8h.html#abbff207d1fa71b296ff35b149cef7238" target="_top" xlink:title="glEnd">
<polygon fill="white" stroke="black" points="383.5,-38.5 383.5,-57.5 424.5,-57.5 424.5,-38.5 383.5,-38.5"/>
<text text-anchor="middle" x="404" y="-45.5" font-family="Helvetica,sans-Serif" font-size="10.00">glEnd</text>
</a>
</g>
</g>
<!-- Node12&#45;&gt;Node16 -->
<g id="edge15" class="edge"><title>Node12&#45;&gt;Node16</title>
<path fill="none" stroke="midnightblue" d="M288.634,-114.473C296.078,-111.996 303.439,-108.89 310,-105 330.011,-93.1346 326.377,-79.4971 346,-67 354.4,-61.6506 364.462,-57.6486 373.778,-54.7331"/>
<polygon fill="midnightblue" stroke="midnightblue" points="374.814,-58.0775 383.48,-51.9835 372.905,-51.3427 374.814,-58.0775"/>
</g>
<!-- Node17 -->
<g id="node17" class="node"><title>Node17</title>
<g id="a_node17"><a xlink:href="../../da/d33/glew_8h.html#afb3e087fc26a916a909d46ead9cfc44a" target="_top" xlink:title="glFlush">
<polygon fill="white" stroke="black" points="380,-0.5 380,-19.5 428,-19.5 428,-0.5 380,-0.5"/>
<text text-anchor="middle" x="404" y="-7.5" font-family="Helvetica,sans-Serif" font-size="10.00">glFlush</text>
</a>
</g>
</g>
<!-- Node12&#45;&gt;Node17 -->
<g id="edge16" class="edge"><title>Node12&#45;&gt;Node17</title>
<path fill="none" stroke="midnightblue" d="M294.265,-114.45C299.942,-111.98 305.326,-108.883 310,-105 338.749,-81.1165 318.026,-53.7875 346,-29 352.734,-23.0333 361.4,-18.9304 369.933,-16.1127"/>
<polygon fill="midnightblue" stroke="midnightblue" points="371.077,-19.4269 379.764,-13.3607 369.19,-12.686 371.077,-19.4269"/>
</g>
<!-- Node18&#45;&gt;Node4 -->
<g id="edge18" class="edge"><title>Node18&#45;&gt;Node4</title>
<path fill="none" stroke="midnightblue" d="M279.636,-209.589C302.692,-214.899 331.444,-221.52 355.389,-227.035"/>
<polygon fill="midnightblue" stroke="midnightblue" points="354.796,-230.49 365.327,-229.324 356.367,-223.669 354.796,-230.49"/>
</g>
</g>
</svg>
        <g id="navigator" transform="translate(0 0)" fill="#404254">
                <rect fill="#f2f5e9" fill-opacity="0.5" stroke="#606060" stroke-width=".5" x="0" y="0" width="60" height="60"/>
                <use id="zoomplus" xlink:href="#zoomPlus" x="17" y="9" onmousedown="handleZoom(evt,'in')"/>
                <use id="zoomminus" xlink:href="#zoomMin" x="42" y="9" onmousedown="handleZoom(evt,'out')"/>
                <use id="reset" xlink:href="#resetDef" x="30" y="36" onmousedown="handleReset()"/>
                <g id="arrowUp" xlink:href="#dirArrow" transform="translate(30 24)" onmousedown="handlePan(0,-1)">
                  <use xlink:href="#rim" fill="#404040">
                        <set attributeName="fill" to="#808080" begin="arrowUp.mouseover" end="arrowUp.mouseout"/>
                  </use>
                  <path fill="none" stroke="white" stroke-width="1.5" d="M0,-3.0v7 M-2.5,-0.5L0,-3.0L2.5,-0.5"/>
                </g>
                <g id="arrowRight" xlink:href="#dirArrow" transform="rotate(90) translate(36 -43)" onmousedown="handlePan(1,0)">
                  <use xlink:href="#rim" fill="#404040">
                        <set attributeName="fill" to="#808080" begin="arrowRight.mouseover" end="arrowRight.mouseout"/>
                  </use>
                  <path fill="none" stroke="white" stroke-width="1.5" d="M0,-3.0v7 M-2.5,-0.5L0,-3.0L2.5,-0.5"/>
                </g>
                <g id="arrowDown" xlink:href="#dirArrow" transform="rotate(180) translate(-30 -48)" onmousedown="handlePan(0,1)">
                  <use xlink:href="#rim" fill="#404040">
                        <set attributeName="fill" to="#808080" begin="arrowDown.mouseover" end="arrowDown.mouseout"/>
                  </use>
                  <path fill="none" stroke="white" stroke-width="1.5" d="M0,-3.0v7 M-2.5,-0.5L0,-3.0L2.5,-0.5"/>
                </g>
                <g id="arrowLeft" xlink:href="#dirArrow" transform="rotate(270) translate(-36 17)" onmousedown="handlePan(-1,0)">
                  <use xlink:href="#rim" fill="#404040">
                        <set attributeName="fill" to="#808080" begin="arrowLeft.mouseover" end="arrowLeft.mouseout"/>
                  </use>
                  <path fill="none" stroke="white" stroke-width="1.5" d="M0,-3.0v7 M-2.5,-0.5L0,-3.0L2.5,-0.5"/>
                </g>
        </g>
        <svg viewBox="0 0 15 15" width="100%" height="30px" preserveAspectRatio="xMaxYMin meet">
         <g id="arrow_out" transform="scale(0.3 0.3)">
          <a xlink:href="classShaderMan_a9fa84c587000697a73c54bd63cdb2a03_cgraph_org.svg" target="_base">
           <rect id="button" ry="5" rx="5" y="6" x="6" height="38" width="38"
                fill="#f2f5e9" fill-opacity="0.5" stroke="#606060" stroke-width="1.0"/>
           <path id="arrow"
             d="M 11.500037,31.436501 C 11.940474,20.09759 22.043105,11.32322 32.158766,21.979434 L 37.068811,17.246167 C 37.068811,17.246167 37.088388,32 37.088388,32 L 22.160133,31.978069 C 22.160133,31.978069 26.997745,27.140456 26.997745,27.140456 C 18.528582,18.264221 13.291696,25.230495 11.500037,31.436501 z"
             style="fill:#404040;"/>
          </a>
         </g>
        </svg>
</svg>
