<?xml version="1.0" encoding="UTF-8" standalone="no"?>
<!DOCTYPE svg PUBLIC "-//W3C//DTD SVG 1.1//EN"
 "http://www.w3.org/Graphics/SVG/1.1/DTD/svg11.dtd">
<!-- Generated by graphviz version 2.36.0 (20140111.2315)
 -->
<!-- Title: ShaderMan::UseShaderSimpleOrientation Pages: 1 -->
<svg width="360pt" height="77pt"
 viewBox="0.00 0.00 360.00 77.00" xmlns="http://www.w3.org/2000/svg" xmlns:xlink="http://www.w3.org/1999/xlink">
<g id="graph0" class="graph" transform="scale(1 1) rotate(0) translate(4 73)">
<title>ShaderMan::UseShaderSimpleOrientation</title>
<polygon fill="white" stroke="none" points="-4,4 -4,-73 356,-73 356,4 -4,4"/>
<!-- Node1 -->
<g id="node1" class="node"><title>Node1</title>
<polygon fill="#bfbfbf" stroke="black" points="0.5,-22 0.5,-52 151.5,-52 151.5,-22 0.5,-22"/>
<text text-anchor="start" x="8.5" y="-40" font-family="Helvetica,sans-Serif" font-size="10.00">ShaderMan::UseShaderSimple</text>
<text text-anchor="middle" x="76" y="-29" font-family="Helvetica,sans-Serif" font-size="10.00">Orientation</text>
</g>
<!-- Node2 -->
<g id="node2" class="node"><title>Node2</title>
<g id="a_node2"><a xlink:href="../../d9/d26/classProgramGPU.html#acd625b26fa073fc83ec0be9badb29635" target="_top" xlink:title="ProgramGPU::UseProgram">
<polygon fill="white" stroke="black" points="202,-49.5 202,-68.5 338,-68.5 338,-49.5 202,-49.5"/>
<text text-anchor="middle" x="270" y="-56.5" font-family="Helvetica,sans-Serif" font-size="10.00">ProgramGPU::UseProgram</text>
</a>
</g>
</g>
<!-- Node1&#45;&gt;Node2 -->
<g id="edge1" class="edge"><title>Node1&#45;&gt;Node2</title>
<path fill="none" stroke="midnightblue" d="M151.507,-45.5373C164.695,-47.0484 178.453,-48.6248 191.715,-50.1445"/>
<polygon fill="midnightblue" stroke="midnightblue" points="191.409,-53.6322 201.743,-51.2935 192.206,-46.6777 191.409,-53.6322"/>
</g>
<!-- Node3 -->
<g id="node3" class="node"><title>Node3</title>
<g id="a_node3"><a xlink:href="../../d9/d4e/classShaderBag.html#a3e6d6e0c7217d4e38329695d1cc8839f" target="_top" xlink:title="ShaderBag::SetSimpleOrientation\lInput">
<polygon fill="white" stroke="black" points="188.5,-0 188.5,-30 351.5,-30 351.5,-0 188.5,-0"/>
<text text-anchor="start" x="196.5" y="-18" font-family="Helvetica,sans-Serif" font-size="10.00">ShaderBag::SetSimpleOrientation</text>
<text text-anchor="middle" x="270" y="-7" font-family="Helvetica,sans-Serif" font-size="10.00">Input</text>
</a>
</g>
</g>
<!-- Node1&#45;&gt;Node3 -->
<g id="edge2" class="edge"><title>Node1&#45;&gt;Node3</title>
<path fill="none" stroke="midnightblue" d="M151.507,-28.4627C160.315,-27.4535 169.376,-26.4152 178.375,-25.3841"/>
<polygon fill="midnightblue" stroke="midnightblue" points="178.955,-28.8407 188.491,-24.225 178.158,-21.8862 178.955,-28.8407"/>
</g>
</g>
</svg>
