<?xml version="1.0" encoding="UTF-8" standalone="no"?>
<!DOCTYPE svg PUBLIC "-//W3C//DTD SVG 1.1//EN"
 "http://www.w3.org/Graphics/SVG/1.1/DTD/svg11.dtd">
<!-- Generated by graphviz version 2.36.0 (20140111.2315)
 -->
<!-- Title: ShaderMan::UseShaderOrientation Pages: 1 -->
<svg width="378pt" height="77pt"
 viewBox="0.00 0.00 378.00 77.00" xmlns="http://www.w3.org/2000/svg" xmlns:xlink="http://www.w3.org/1999/xlink">
<g id="graph0" class="graph" transform="scale(1 1) rotate(0) translate(4 73)">
<title>ShaderMan::UseShaderOrientation</title>
<polygon fill="white" stroke="none" points="-4,4 -4,-73 374,-73 374,4 -4,4"/>
<!-- Node1 -->
<g id="node1" class="node"><title>Node1</title>
<polygon fill="#bfbfbf" stroke="black" points="0,-27.5 0,-46.5 168,-46.5 168,-27.5 0,-27.5"/>
<text text-anchor="middle" x="84" y="-34.5" font-family="Helvetica,sans-Serif" font-size="10.00">ShaderMan::UseShaderOrientation</text>
</g>
<!-- Node2 -->
<g id="node2" class="node"><title>Node2</title>
<g id="a_node2"><a xlink:href="../../d9/d26/classProgramGPU.html#acd625b26fa073fc83ec0be9badb29635" target="_top" xlink:title="ProgramGPU::UseProgram">
<polygon fill="white" stroke="black" points="219,-49.5 219,-68.5 355,-68.5 355,-49.5 219,-49.5"/>
<text text-anchor="middle" x="287" y="-56.5" font-family="Helvetica,sans-Serif" font-size="10.00">ProgramGPU::UseProgram</text>
</a>
</g>
</g>
<!-- Node1&#45;&gt;Node2 -->
<g id="edge1" class="edge"><title>Node1&#45;&gt;Node2</title>
<path fill="none" stroke="midnightblue" d="M168.205,-46.107C181.631,-47.5765 195.482,-49.0925 208.759,-50.5457"/>
<polygon fill="midnightblue" stroke="midnightblue" points="208.462,-54.0341 218.784,-51.643 209.224,-47.0757 208.462,-54.0341"/>
</g>
<!-- Node3 -->
<g id="node3" class="node"><title>Node3</title>
<g id="a_node3"><a xlink:href="../../d9/d4e/classShaderBag.html#a958621b4a6a7c78697d1f224379713c8" target="_top" xlink:title="ShaderBag::SetFeatureOrientation\lParam">
<polygon fill="white" stroke="black" points="204,-0 204,-30 370,-30 370,-0 204,-0"/>
<text text-anchor="start" x="212" y="-18" font-family="Helvetica,sans-Serif" font-size="10.00">ShaderBag::SetFeatureOrientation</text>
<text text-anchor="middle" x="287" y="-7" font-family="Helvetica,sans-Serif" font-size="10.00">Param</text>
</a>
</g>
</g>
<!-- Node1&#45;&gt;Node3 -->
<g id="edge2" class="edge"><title>Node1&#45;&gt;Node3</title>
<path fill="none" stroke="midnightblue" d="M168.205,-27.893C176.666,-26.9669 185.296,-26.0223 193.845,-25.0866"/>
<polygon fill="midnightblue" stroke="midnightblue" points="194.268,-28.5613 203.828,-23.9939 193.507,-21.6028 194.268,-28.5613"/>
</g>
</g>
</svg>
