<?xml version="1.0" encoding="UTF-8" standalone="no"?>
<!DOCTYPE svg PUBLIC "-//W3C//DTD SVG 1.1//EN"
 "http://www.w3.org/Graphics/SVG/1.1/DTD/svg11.dtd">
<!-- Generated by graphviz version 2.36.0 (20140111.2315)
 -->
<!-- Title: ShaderMan::InitShaderMan Pages: 1 -->
<!--zoomable 218 -->
<svg id="main" version="1.1" xmlns="http://www.w3.org/2000/svg" xmlns:xlink="http://www.w3.org/1999/xlink" xml:space="preserve" onload="init(evt)">
<style type="text/css"><![CDATA[
.edge:hover path { stroke: red; }
.edge:hover polygon { stroke: red; fill: red; }
]]></style>
<script type="text/javascript"><![CDATA[
var edges = document.getElementsByTagName('g');
if (edges && edges.length) {
  for (var i=0;i<edges.length;i++) {
    if (edges[i].id.substr(0,4)=='edge') {
      edges[i].setAttribute('class','edge');
    }
  }
}
]]></script>
        <defs>
                <circle id="rim" cx="0" cy="0" r="7"/>
                <circle id="rim2" cx="0" cy="0" r="3.5"/>
                <g id="zoomPlus">
                        <use xlink:href="#rim" fill="#404040">
                                <set attributeName="fill" to="#808080" begin="zoomplus.mouseover" end="zoomplus.mouseout"/>
                        </use>
                        <path d="M-4,0h8M0,-4v8" fill="none" stroke="white" stroke-width="1.5" pointer-events="none"/>
                </g>
                <g id="zoomMin">
                        <use xlink:href="#rim" fill="#404040">
                                <set attributeName="fill" to="#808080" begin="zoomminus.mouseover" end="zoomminus.mouseout"/>
                        </use>
                        <path d="M-4,0h8" fill="none" stroke="white" stroke-width="1.5" pointer-events="none"/>
                </g>
                <g id="dirArrow">
                        <path fill="none" stroke="white" stroke-width="1.5" d="M0,-3.0v7 M-2.5,-0.5L0,-3.0L2.5,-0.5"/>
                </g>
               <g id="resetDef">
                       <use xlink:href="#rim2" fill="#404040">
                               <set attributeName="fill" to="#808080" begin="reset.mouseover" end="reset.mouseout"/>
                       </use>
               </g>
        </defs>

<script type="text/javascript">
var viewWidth = 686;
var viewHeight = 218;
var sectionId = 'dynsection-5';
</script>
<script xlink:href="../../svgpan.js"/>
<svg id="graph" class="graph">
<g id="viewport">
<title>ShaderMan::InitShaderMan</title>
<polygon fill="white" stroke="none" points="-4,4 -4,-214 682,-214 682,4 -4,4"/>
<!-- Node1 -->
<g id="node1" class="node"><title>Node1</title>
<polygon fill="#bfbfbf" stroke="black" points="0.5,-95.5 0.5,-114.5 135.5,-114.5 135.5,-95.5 0.5,-95.5"/>
<text text-anchor="middle" x="68" y="-102.5" font-family="Helvetica,sans-Serif" font-size="10.00">ShaderMan::InitShaderMan</text>
</g>
<!-- Node2 -->
<g id="node2" class="node"><title>Node2</title>
<g id="a_node2"><a xlink:href="../../d2/d55/classGlobalUtil.html#aaa5ebd526dfe13eb5eb61fee67c75a10" target="_top" xlink:title="GlobalUtil::StartTimer">
<polygon fill="white" stroke="black" points="200.5,-190.5 200.5,-209.5 311.5,-209.5 311.5,-190.5 200.5,-190.5"/>
<text text-anchor="middle" x="256" y="-197.5" font-family="Helvetica,sans-Serif" font-size="10.00">GlobalUtil::StartTimer</text>
</a>
</g>
</g>
<!-- Node1&#45;&gt;Node2 -->
<g id="edge1" class="edge"><title>Node1&#45;&gt;Node2</title>
<path fill="none" stroke="midnightblue" d="M78.9043,-114.549C96.2802,-130.753 134.031,-163.57 172,-181 177.819,-183.671 184.045,-185.982 190.373,-187.979"/>
<polygon fill="midnightblue" stroke="midnightblue" points="189.78,-191.451 200.358,-190.864 191.723,-184.726 189.78,-191.451"/>
</g>
<!-- Node5 -->
<g id="node5" class="node"><title>Node5</title>
<g id="a_node5"><a xlink:href="../../d9/d4e/classShaderBag.html#a1516ffa7a03ad394730dfbd4e0aa6ead" target="_top" xlink:title="ShaderBag::LoadFixedShaders">
<polygon fill="white" stroke="black" points="180,-152.5 180,-171.5 332,-171.5 332,-152.5 180,-152.5"/>
<text text-anchor="middle" x="256" y="-159.5" font-family="Helvetica,sans-Serif" font-size="10.00">ShaderBag::LoadFixedShaders</text>
</a>
</g>
</g>
<!-- Node1&#45;&gt;Node5 -->
<g id="edge4" class="edge"><title>Node1&#45;&gt;Node5</title>
<path fill="none" stroke="midnightblue" d="M92.437,-114.628C113.127,-122.89 144.232,-134.737 172,-143 180.544,-145.543 189.669,-147.942 198.626,-150.124"/>
<polygon fill="midnightblue" stroke="midnightblue" points="198.091,-153.594 208.628,-152.491 199.703,-146.782 198.091,-153.594"/>
</g>
<!-- Node6 -->
<g id="node6" class="node"><title>Node6</title>
<g id="a_node6"><a xlink:href="../../d9/d4e/classShaderBag.html#aadea3bb577aeda237026bc9e238130e1" target="_top" xlink:title="ShaderBag::LoadDynamicShaders">
<polygon fill="white" stroke="black" points="172.5,-114.5 172.5,-133.5 339.5,-133.5 339.5,-114.5 172.5,-114.5"/>
<text text-anchor="middle" x="256" y="-121.5" font-family="Helvetica,sans-Serif" font-size="10.00">ShaderBag::LoadDynamicShaders</text>
</a>
</g>
</g>
<!-- Node1&#45;&gt;Node6 -->
<g id="edge5" class="edge"><title>Node1&#45;&gt;Node6</title>
<path fill="none" stroke="midnightblue" d="M135.625,-111.806C144.259,-112.688 153.223,-113.603 162.186,-114.519"/>
<polygon fill="midnightblue" stroke="midnightblue" points="161.982,-118.016 172.286,-115.551 162.693,-111.053 161.982,-118.016"/>
</g>
<!-- Node7 -->
<g id="node7" class="node"><title>Node7</title>
<g id="a_node7"><a xlink:href="../../d9/d4e/classShaderBag.html#ae9b9363630bdf67a172901ea0c41b88a" target="_top" xlink:title="ShaderBag::LoadDisplayShaders">
<polygon fill="white" stroke="black" points="175.5,-76.5 175.5,-95.5 336.5,-95.5 336.5,-76.5 175.5,-76.5"/>
<text text-anchor="middle" x="256" y="-83.5" font-family="Helvetica,sans-Serif" font-size="10.00">ShaderBag::LoadDisplayShaders</text>
</a>
</g>
</g>
<!-- Node1&#45;&gt;Node7 -->
<g id="edge6" class="edge"><title>Node1&#45;&gt;Node7</title>
<path fill="none" stroke="midnightblue" d="M135.625,-98.1942C145.141,-97.2222 155.058,-96.2091 164.932,-95.2005"/>
<polygon fill="midnightblue" stroke="midnightblue" points="165.594,-98.6512 175.186,-94.153 164.882,-91.6874 165.594,-98.6512"/>
</g>
<!-- Node8 -->
<g id="node8" class="node"><title>Node8</title>
<g id="a_node8"><a xlink:href="../../d2/d55/classGlobalUtil.html#a6b0bb7a6fc3b0dcfcf22a3a00bb05a65" target="_top" xlink:title="GlobalUtil::StopTimer">
<polygon fill="white" stroke="black" points="201,-38.5 201,-57.5 311,-57.5 311,-38.5 201,-38.5"/>
<text text-anchor="middle" x="256" y="-45.5" font-family="Helvetica,sans-Serif" font-size="10.00">GlobalUtil::StopTimer</text>
</a>
</g>
</g>
<!-- Node1&#45;&gt;Node8 -->
<g id="edge7" class="edge"><title>Node1&#45;&gt;Node8</title>
<path fill="none" stroke="midnightblue" d="M92.437,-95.3724C113.127,-87.1104 144.232,-75.2633 172,-67 180.544,-64.4574 189.669,-62.0583 198.626,-59.8763"/>
<polygon fill="midnightblue" stroke="midnightblue" points="199.703,-63.2181 208.628,-57.5089 198.091,-56.4063 199.703,-63.2181"/>
</g>
<!-- Node11 -->
<g id="node11" class="node"><title>Node11</title>
<g id="a_node11"><a xlink:href="../../d2/d55/classGlobalUtil.html#a06a72fe38986ca5861bf5404de35b3d2" target="_top" xlink:title="GlobalUtil::CheckErrorsGL">
<polygon fill="white" stroke="black" points="189.5,-0.5 189.5,-19.5 322.5,-19.5 322.5,-0.5 189.5,-0.5"/>
<text text-anchor="middle" x="256" y="-7.5" font-family="Helvetica,sans-Serif" font-size="10.00">GlobalUtil::CheckErrorsGL</text>
</a>
</g>
</g>
<!-- Node1&#45;&gt;Node11 -->
<g id="edge11" class="edge"><title>Node1&#45;&gt;Node11</title>
<path fill="none" stroke="midnightblue" d="M78.9043,-95.4513C96.2802,-79.2471 134.031,-46.4303 172,-29 177.336,-26.5504 183.014,-24.4036 188.8,-22.5246"/>
<polygon fill="midnightblue" stroke="midnightblue" points="190.011,-25.816 198.597,-19.6089 188.014,-19.1068 190.011,-25.816"/>
</g>
<!-- Node3 -->
<g id="node3" class="node"><title>Node3</title>
<g id="a_node3"><a xlink:href="../../d9/d98/classClockTimer.html#a21afd83f68d30c08892743115f6ea9cd" target="_top" xlink:title="ClockTimer::StartTimer">
<polygon fill="white" stroke="black" points="376.5,-175.5 376.5,-194.5 495.5,-194.5 495.5,-175.5 376.5,-175.5"/>
<text text-anchor="middle" x="436" y="-182.5" font-family="Helvetica,sans-Serif" font-size="10.00">ClockTimer::StartTimer</text>
</a>
</g>
</g>
<!-- Node2&#45;&gt;Node3 -->
<g id="edge2" class="edge"><title>Node2&#45;&gt;Node3</title>
<path fill="none" stroke="midnightblue" d="M311.858,-195.377C329.016,-193.931 348.17,-192.317 366.163,-190.801"/>
<polygon fill="midnightblue" stroke="midnightblue" points="366.637,-194.273 376.308,-189.946 366.049,-187.298 366.637,-194.273"/>
</g>
<!-- Node4 -->
<g id="node4" class="node"><title>Node4</title>
<g id="a_node4"><a xlink:href="../../d9/d98/classClockTimer.html#a23cf363d1025bb1a93951d9ccdabc639" target="_top" xlink:title="ClockTimer::ClockMS">
<polygon fill="white" stroke="black" points="548.5,-147.5 548.5,-166.5 661.5,-166.5 661.5,-147.5 548.5,-147.5"/>
<text text-anchor="middle" x="605" y="-154.5" font-family="Helvetica,sans-Serif" font-size="10.00">ClockTimer::ClockMS</text>
</a>
</g>
</g>
<!-- Node3&#45;&gt;Node4 -->
<g id="edge3" class="edge"><title>Node3&#45;&gt;Node4</title>
<path fill="none" stroke="midnightblue" d="M494.005,-175.442C508.285,-173.048 523.718,-170.461 538.379,-168.002"/>
<polygon fill="midnightblue" stroke="midnightblue" points="539.099,-171.431 548.382,-166.325 537.941,-164.527 539.099,-171.431"/>
</g>
<!-- Node9 -->
<g id="node9" class="node"><title>Node9</title>
<g id="a_node9"><a xlink:href="../../d9/d98/classClockTimer.html#a7506d8fad1473bf4f3bdfb9e8590a6c3" target="_top" xlink:title="ClockTimer::StopTimer">
<polygon fill="white" stroke="black" points="377,-95.5 377,-114.5 495,-114.5 495,-95.5 377,-95.5"/>
<text text-anchor="middle" x="436" y="-102.5" font-family="Helvetica,sans-Serif" font-size="10.00">ClockTimer::StopTimer</text>
</a>
</g>
</g>
<!-- Node8&#45;&gt;Node9 -->
<g id="edge8" class="edge"><title>Node8&#45;&gt;Node9</title>
<path fill="none" stroke="midnightblue" d="M304.743,-57.5933C316.373,-60.2961 328.712,-63.4739 340,-67 361.99,-73.8691 386.081,-83.5311 404.501,-91.3932"/>
<polygon fill="midnightblue" stroke="midnightblue" points="403.27,-94.674 413.838,-95.4311 406.049,-88.2491 403.27,-94.674"/>
</g>
<!-- Node9&#45;&gt;Node4 -->
<g id="edge9" class="edge"><title>Node9&#45;&gt;Node4</title>
<path fill="none" stroke="midnightblue" d="M467.63,-114.538C494.618,-122.941 534.122,-135.242 563.674,-144.443"/>
<polygon fill="midnightblue" stroke="midnightblue" points="562.693,-147.804 573.281,-147.435 564.774,-141.12 562.693,-147.804"/>
</g>
<!-- Node10 -->
<g id="node10" class="node"><title>Node10</title>
<g id="a_node10"><a xlink:href="../../d9/d98/classClockTimer.html#a5a6919057a81f4843619032cab692091" target="_top" xlink:title="ClockTimer::GetElapsedTime">
<polygon fill="white" stroke="black" points="532,-95.5 532,-114.5 678,-114.5 678,-95.5 532,-95.5"/>
<text text-anchor="middle" x="605" y="-102.5" font-family="Helvetica,sans-Serif" font-size="10.00">ClockTimer::GetElapsedTime</text>
</a>
</g>
</g>
<!-- Node9&#45;&gt;Node10 -->
<g id="edge10" class="edge"><title>Node9&#45;&gt;Node10</title>
<path fill="none" stroke="midnightblue" d="M495.408,-105C503.951,-105 512.88,-105 521.789,-105"/>
<polygon fill="midnightblue" stroke="midnightblue" points="521.817,-108.5 531.817,-105 521.817,-101.5 521.817,-108.5"/>
</g>
</g>
</svg>
        <g id="navigator" transform="translate(0 0)" fill="#404254">
                <rect fill="#f2f5e9" fill-opacity="0.5" stroke="#606060" stroke-width=".5" x="0" y="0" width="60" height="60"/>
                <use id="zoomplus" xlink:href="#zoomPlus" x="17" y="9" onmousedown="handleZoom(evt,'in')"/>
                <use id="zoomminus" xlink:href="#zoomMin" x="42" y="9" onmousedown="handleZoom(evt,'out')"/>
                <use id="reset" xlink:href="#resetDef" x="30" y="36" onmousedown="handleReset()"/>
                <g id="arrowUp" xlink:href="#dirArrow" transform="translate(30 24)" onmousedown="handlePan(0,-1)">
                  <use xlink:href="#rim" fill="#404040">
                        <set attributeName="fill" to="#808080" begin="arrowUp.mouseover" end="arrowUp.mouseout"/>
                  </use>
                  <path fill="none" stroke="white" stroke-width="1.5" d="M0,-3.0v7 M-2.5,-0.5L0,-3.0L2.5,-0.5"/>
                </g>
                <g id="arrowRight" xlink:href="#dirArrow" transform="rotate(90) translate(36 -43)" onmousedown="handlePan(1,0)">
                  <use xlink:href="#rim" fill="#404040">
                        <set attributeName="fill" to="#808080" begin="arrowRight.mouseover" end="arrowRight.mouseout"/>
                  </use>
                  <path fill="none" stroke="white" stroke-width="1.5" d="M0,-3.0v7 M-2.5,-0.5L0,-3.0L2.5,-0.5"/>
                </g>
                <g id="arrowDown" xlink:href="#dirArrow" transform="rotate(180) translate(-30 -48)" onmousedown="handlePan(0,1)">
                  <use xlink:href="#rim" fill="#404040">
                        <set attributeName="fill" to="#808080" begin="arrowDown.mouseover" end="arrowDown.mouseout"/>
                  </use>
                  <path fill="none" stroke="white" stroke-width="1.5" d="M0,-3.0v7 M-2.5,-0.5L0,-3.0L2.5,-0.5"/>
                </g>
                <g id="arrowLeft" xlink:href="#dirArrow" transform="rotate(270) translate(-36 17)" onmousedown="handlePan(-1,0)">
                  <use xlink:href="#rim" fill="#404040">
                        <set attributeName="fill" to="#808080" begin="arrowLeft.mouseover" end="arrowLeft.mouseout"/>
                  </use>
                  <path fill="none" stroke="white" stroke-width="1.5" d="M0,-3.0v7 M-2.5,-0.5L0,-3.0L2.5,-0.5"/>
                </g>
        </g>
        <svg viewBox="0 0 15 15" width="100%" height="30px" preserveAspectRatio="xMaxYMin meet">
         <g id="arrow_out" transform="scale(0.3 0.3)">
          <a xlink:href="classShaderMan_a85f681cb69d958a42089c1951a6d765d_cgraph_org.svg" target="_base">
           <rect id="button" ry="5" rx="5" y="6" x="6" height="38" width="38"
                fill="#f2f5e9" fill-opacity="0.5" stroke="#606060" stroke-width="1.0"/>
           <path id="arrow"
             d="M 11.500037,31.436501 C 11.940474,20.09759 22.043105,11.32322 32.158766,21.979434 L 37.068811,17.246167 C 37.068811,17.246167 37.088388,32 37.088388,32 L 22.160133,31.978069 C 22.160133,31.978069 26.997745,27.140456 26.997745,27.140456 C 18.528582,18.264221 13.291696,25.230495 11.500037,31.436501 z"
             style="fill:#404040;"/>
          </a>
         </g>
        </svg>
</svg>
