<?xml version="1.0" encoding="UTF-8" standalone="no"?>
<!DOCTYPE svg PUBLIC "-//W3C//DTD SVG 1.1//EN"
 "http://www.w3.org/Graphics/SVG/1.1/DTD/svg11.dtd">
<!-- Generated by graphviz version 2.36.0 (20140111.2315)
 -->
<!-- Title: src/qt_gui.h Pages: 1 -->
<svg width="321pt" height="84pt"
 viewBox="0.00 0.00 321.00 84.00" xmlns="http://www.w3.org/2000/svg" xmlns:xlink="http://www.w3.org/1999/xlink">
<g id="graph0" class="graph" transform="scale(1 1) rotate(0) translate(4 80)">
<title>src/qt_gui.h</title>
<polygon fill="white" stroke="none" points="-4,4 -4,-80 317,-80 317,4 -4,4"/>
<!-- Node1 -->
<g id="node1" class="node"><title>Node1</title>
<polygon fill="#bfbfbf" stroke="black" points="96,-56.5 96,-75.5 164,-75.5 164,-56.5 96,-56.5"/>
<text text-anchor="middle" x="130" y="-63.5" font-family="Helvetica,sans-Serif" font-size="10.00">src/qt_gui.h</text>
</g>
<!-- Node2 -->
<g id="node2" class="node"><title>Node2</title>
<g id="a_node2"><a xlink:href="../../df/d0a/main_8cpp.html" target="_top" xlink:title="src/main.cpp">
<polygon fill="white" stroke="black" points="-0.5,-0.5 -0.5,-19.5 72.5,-19.5 72.5,-0.5 -0.5,-0.5"/>
<text text-anchor="middle" x="36" y="-7.5" font-family="Helvetica,sans-Serif" font-size="10.00">src/main.cpp</text>
</a>
</g>
</g>
<!-- Node1&#45;&gt;Node2 -->
<g id="edge1" class="edge"><title>Node1&#45;&gt;Node2</title>
<path fill="none" stroke="midnightblue" d="M105.938,-51.1774C88.6411,-41.2407 65.8523,-28.1492 51.0652,-19.6545"/>
<polygon fill="midnightblue" stroke="midnightblue" points="104.483,-54.3775 114.897,-56.324 107.97,-48.3078 104.483,-54.3775"/>
</g>
<!-- Node3 -->
<g id="node3" class="node"><title>Node3</title>
<g id="a_node3"><a xlink:href="../../d7/d3f/qt__gui_8cpp.html" target="_top" xlink:title="src/qt_gui.cpp">
<polygon fill="white" stroke="black" points="91,-0.5 91,-19.5 169,-19.5 169,-0.5 91,-0.5"/>
<text text-anchor="middle" x="130" y="-7.5" font-family="Helvetica,sans-Serif" font-size="10.00">src/qt_gui.cpp</text>
</a>
</g>
</g>
<!-- Node1&#45;&gt;Node3 -->
<g id="edge2" class="edge"><title>Node1&#45;&gt;Node3</title>
<path fill="none" stroke="midnightblue" d="M130,-45.8045C130,-36.9102 130,-26.7798 130,-19.7511"/>
<polygon fill="midnightblue" stroke="midnightblue" points="126.5,-46.083 130,-56.083 133.5,-46.083 126.5,-46.083"/>
</g>
<!-- Node4 -->
<g id="node4" class="node"><title>Node4</title>
<g id="a_node4"><a xlink:href="../../dd/d45/result-bag-viewer_8cpp.html" target="_top" xlink:title="src/result&#45;bag&#45;viewer.cpp">
<polygon fill="white" stroke="black" points="187,-0.5 187,-19.5 313,-19.5 313,-0.5 187,-0.5"/>
<text text-anchor="middle" x="250" y="-7.5" font-family="Helvetica,sans-Serif" font-size="10.00">src/result&#45;bag&#45;viewer.cpp</text>
</a>
</g>
</g>
<!-- Node1&#45;&gt;Node4 -->
<g id="edge3" class="edge"><title>Node1&#45;&gt;Node4</title>
<path fill="none" stroke="midnightblue" d="M158.373,-52.2321C180.82,-42.1312 211.535,-28.3091 231.075,-19.5164"/>
<polygon fill="midnightblue" stroke="midnightblue" points="156.697,-49.1481 149.014,-56.4435 159.57,-55.5316 156.697,-49.1481"/>
</g>
</g>
</svg>
