<?xml version="1.0" encoding="UTF-8" standalone="no"?>
<!DOCTYPE svg PUBLIC "-//W3C//DTD SVG 1.1//EN"
 "http://www.w3.org/Graphics/SVG/1.1/DTD/svg11.dtd">
<!-- Generated by graphviz version 2.36.0 (20140111.2315)
 -->
<!-- Title: SiftMatchGPU Pages: 1 -->
<svg width="242pt" height="618pt"
 viewBox="0.00 0.00 242.00 618.00" xmlns="http://www.w3.org/2000/svg" xmlns:xlink="http://www.w3.org/1999/xlink">
<g id="graph0" class="graph" transform="scale(1 1) rotate(0) translate(4 614)">
<title>SiftMatchGPU</title>
<polygon fill="white" stroke="none" points="-4,4 -4,-614 238,-614 238,4 -4,4"/>
<!-- Node1 -->
<g id="node1" class="node"><title>Node1</title>
<polygon fill="#bfbfbf" stroke="black" points="53,-387 53,-609 173,-609 173,-387 53,-387"/>
<text text-anchor="middle" x="113" y="-597" font-family="Helvetica,sans-Serif" font-size="10.00">SiftMatchGPU</text>
<polyline fill="none" stroke="black" points="53,-590 173,-590 "/>
<text text-anchor="middle" x="113" y="-578" font-family="Helvetica,sans-Serif" font-size="10.00"> </text>
<polyline fill="none" stroke="black" points="53,-571 173,-571 "/>
<text text-anchor="start" x="61" y="-559" font-family="Helvetica,sans-Serif" font-size="10.00">+ CreateContextGL()</text>
<text text-anchor="start" x="61" y="-548" font-family="Helvetica,sans-Serif" font-size="10.00">+ VerifyContextGL()</text>
<text text-anchor="start" x="61" y="-537" font-family="Helvetica,sans-Serif" font-size="10.00">+ SiftMatchGPU()</text>
<text text-anchor="start" x="61" y="-526" font-family="Helvetica,sans-Serif" font-size="10.00">+ SetLanguage()</text>
<text text-anchor="start" x="61" y="-515" font-family="Helvetica,sans-Serif" font-size="10.00">+ SetDeviceParam()</text>
<text text-anchor="start" x="61" y="-504" font-family="Helvetica,sans-Serif" font-size="10.00">+ SetMaxSift()</text>
<text text-anchor="start" x="61" y="-493" font-family="Helvetica,sans-Serif" font-size="10.00">+ ~SiftMatchGPU()</text>
<text text-anchor="start" x="61" y="-482" font-family="Helvetica,sans-Serif" font-size="10.00">+ SetDescriptors()</text>
<text text-anchor="start" x="61" y="-471" font-family="Helvetica,sans-Serif" font-size="10.00">+ SetDescriptors()</text>
<text text-anchor="start" x="61" y="-460" font-family="Helvetica,sans-Serif" font-size="10.00">+ GetSiftMatch()</text>
<text text-anchor="start" x="61" y="-449" font-family="Helvetica,sans-Serif" font-size="10.00">+ SetFeautreLocation()</text>
<text text-anchor="start" x="61" y="-438" font-family="Helvetica,sans-Serif" font-size="10.00">+ SetFeatureLocation()</text>
<text text-anchor="start" x="61" y="-427" font-family="Helvetica,sans-Serif" font-size="10.00">+ GetGuidedSiftMatch()</text>
<text text-anchor="start" x="61" y="-416" font-family="Helvetica,sans-Serif" font-size="10.00">+ operator new()</text>
<text text-anchor="start" x="61" y="-405" font-family="Helvetica,sans-Serif" font-size="10.00"># _CreateContextGL()</text>
<text text-anchor="start" x="61" y="-394" font-family="Helvetica,sans-Serif" font-size="10.00"># _VerifyContextGL()</text>
</g>
<!-- Node2 -->
<g id="node2" class="node"><title>Node2</title>
<g id="a_node2"><a xlink:href="../../d3/d80/classComboSiftGPU.html" target="_top" xlink:title="{ComboSiftGPU\n||+ operator new()\l}">
<polygon fill="white" stroke="black" points="8,-248.5 8,-305.5 96,-305.5 96,-248.5 8,-248.5"/>
<text text-anchor="middle" x="52" y="-293.5" font-family="Helvetica,sans-Serif" font-size="10.00">ComboSiftGPU</text>
<polyline fill="none" stroke="black" points="8,-286.5 96,-286.5 "/>
<text text-anchor="middle" x="52" y="-274.5" font-family="Helvetica,sans-Serif" font-size="10.00"> </text>
<polyline fill="none" stroke="black" points="8,-267.5 96,-267.5 "/>
<text text-anchor="start" x="16" y="-255.5" font-family="Helvetica,sans-Serif" font-size="10.00">+ operator new()</text>
</a>
</g>
</g>
<!-- Node1&#45;&gt;Node2 -->
<g id="edge1" class="edge"><title>Node1&#45;&gt;Node2</title>
<path fill="none" stroke="midnightblue" d="M79.5606,-376.947C72.0873,-350.117 64.8516,-324.139 59.6707,-305.539"/>
<polygon fill="none" stroke="midnightblue" points="76.2663,-378.164 82.3213,-386.858 83.0096,-376.286 76.2663,-378.164"/>
</g>
<!-- Node4 -->
<g id="node4" class="node"><title>Node4</title>
<g id="a_node4"><a xlink:href="../../dc/d42/classSiftMatchGL.html" target="_top" xlink:title="{SiftMatchGL\n||+ SiftMatchGL()\l+ ~SiftMatchGL()\l+ InitSiftMatch()\l+ SetMaxSift()\l+ SetDescriptors()\l+ SetDescriptors()\l+ SetFeautreLocation()\l+ GetSiftMatch()\l+ GetGuidedSiftMatch()\l}">
<polygon fill="white" stroke="black" points="114,-204.5 114,-349.5 234,-349.5 234,-204.5 114,-204.5"/>
<text text-anchor="middle" x="174" y="-337.5" font-family="Helvetica,sans-Serif" font-size="10.00">SiftMatchGL</text>
<polyline fill="none" stroke="black" points="114,-330.5 234,-330.5 "/>
<text text-anchor="middle" x="174" y="-318.5" font-family="Helvetica,sans-Serif" font-size="10.00"> </text>
<polyline fill="none" stroke="black" points="114,-311.5 234,-311.5 "/>
<text text-anchor="start" x="122" y="-299.5" font-family="Helvetica,sans-Serif" font-size="10.00">+ SiftMatchGL()</text>
<text text-anchor="start" x="122" y="-288.5" font-family="Helvetica,sans-Serif" font-size="10.00">+ ~SiftMatchGL()</text>
<text text-anchor="start" x="122" y="-277.5" font-family="Helvetica,sans-Serif" font-size="10.00">+ InitSiftMatch()</text>
<text text-anchor="start" x="122" y="-266.5" font-family="Helvetica,sans-Serif" font-size="10.00">+ SetMaxSift()</text>
<text text-anchor="start" x="122" y="-255.5" font-family="Helvetica,sans-Serif" font-size="10.00">+ SetDescriptors()</text>
<text text-anchor="start" x="122" y="-244.5" font-family="Helvetica,sans-Serif" font-size="10.00">+ SetDescriptors()</text>
<text text-anchor="start" x="122" y="-233.5" font-family="Helvetica,sans-Serif" font-size="10.00">+ SetFeautreLocation()</text>
<text text-anchor="start" x="122" y="-222.5" font-family="Helvetica,sans-Serif" font-size="10.00">+ GetSiftMatch()</text>
<text text-anchor="start" x="122" y="-211.5" font-family="Helvetica,sans-Serif" font-size="10.00">+ GetGuidedSiftMatch()</text>
</a>
</g>
</g>
<!-- Node1&#45;&gt;Node4 -->
<g id="edge3" class="edge"><title>Node1&#45;&gt;Node4</title>
<path fill="none" stroke="midnightblue" d="M146.405,-377.069C149.015,-367.699 151.596,-358.433 154.071,-349.547"/>
<polygon fill="none" stroke="midnightblue" points="142.99,-376.286 143.679,-386.858 149.734,-378.164 142.99,-376.286"/>
</g>
<!-- Node3 -->
<g id="node3" class="node"><title>Node3</title>
<g id="a_node3"><a xlink:href="../../d1/db7/classServerSiftGPU.html" target="_top" xlink:title="{ServerSiftGPU\n||+ ServerSiftGPU()\l+ ~ServerSiftGPU()\l+ ParseParam()\l+ VerifyContextGL()\l+ RunSIFT()\l+ RunSIFT()\l+ RunSIFT()\l+ RunSIFT()\l+ AllocatePyramid()\l+ GetFeatureNum()\land 21 more...\l}">
<polygon fill="white" stroke="black" points="0,-0.5 0,-167.5 104,-167.5 104,-0.5 0,-0.5"/>
<text text-anchor="middle" x="52" y="-155.5" font-family="Helvetica,sans-Serif" font-size="10.00">ServerSiftGPU</text>
<polyline fill="none" stroke="black" points="0,-148.5 104,-148.5 "/>
<text text-anchor="middle" x="52" y="-136.5" font-family="Helvetica,sans-Serif" font-size="10.00"> </text>
<polyline fill="none" stroke="black" points="0,-129.5 104,-129.5 "/>
<text text-anchor="start" x="8" y="-117.5" font-family="Helvetica,sans-Serif" font-size="10.00">+ ServerSiftGPU()</text>
<text text-anchor="start" x="8" y="-106.5" font-family="Helvetica,sans-Serif" font-size="10.00">+ ~ServerSiftGPU()</text>
<text text-anchor="start" x="8" y="-95.5" font-family="Helvetica,sans-Serif" font-size="10.00">+ ParseParam()</text>
<text text-anchor="start" x="8" y="-84.5" font-family="Helvetica,sans-Serif" font-size="10.00">+ VerifyContextGL()</text>
<text text-anchor="start" x="8" y="-73.5" font-family="Helvetica,sans-Serif" font-size="10.00">+ RunSIFT()</text>
<text text-anchor="start" x="8" y="-62.5" font-family="Helvetica,sans-Serif" font-size="10.00">+ RunSIFT()</text>
<text text-anchor="start" x="8" y="-51.5" font-family="Helvetica,sans-Serif" font-size="10.00">+ RunSIFT()</text>
<text text-anchor="start" x="8" y="-40.5" font-family="Helvetica,sans-Serif" font-size="10.00">+ RunSIFT()</text>
<text text-anchor="start" x="8" y="-29.5" font-family="Helvetica,sans-Serif" font-size="10.00">+ AllocatePyramid()</text>
<text text-anchor="start" x="8" y="-18.5" font-family="Helvetica,sans-Serif" font-size="10.00">+ GetFeatureNum()</text>
<text text-anchor="start" x="8" y="-7.5" font-family="Helvetica,sans-Serif" font-size="10.00">and 21 more...</text>
</a>
</g>
</g>
<!-- Node2&#45;&gt;Node3 -->
<g id="edge2" class="edge"><title>Node2&#45;&gt;Node3</title>
<path fill="none" stroke="midnightblue" d="M52,-238.21C52,-218.029 52,-192.346 52,-167.802"/>
<polygon fill="none" stroke="midnightblue" points="48.5001,-238.227 52,-248.227 55.5001,-238.227 48.5001,-238.227"/>
</g>
</g>
</svg>
