<?xml version="1.0" encoding="UTF-8" standalone="no"?>
<!DOCTYPE svg PUBLIC "-//W3C//DTD SVG 1.1//EN"
 "http://www.w3.org/Graphics/SVG/1.1/DTD/svg11.dtd">
<!-- Generated by graphviz version 2.36.0 (20140111.2315)
 -->
<!-- Title: lsd_slam::Util::DisplayImageObect Pages: 1 -->
<svg width="150pt" height="194pt"
 viewBox="0.00 0.00 150.00 194.00" xmlns="http://www.w3.org/2000/svg" xmlns:xlink="http://www.w3.org/1999/xlink">
<g id="graph0" class="graph" transform="scale(1 1) rotate(0) translate(4 190)">
<title>lsd_slam::Util::DisplayImageObect</title>
<polygon fill="white" stroke="none" points="-4,4 -4,-190 146,-190 146,4 -4,4"/>
<!-- Node1 -->
<g id="node1" class="node"><title>Node1</title>
<polygon fill="#bfbfbf" stroke="black" points="-0.5,-0.5 -0.5,-79.5 142.5,-79.5 142.5,-0.5 -0.5,-0.5"/>
<text text-anchor="start" x="7.5" y="-67.5" font-family="Helvetica,sans-Serif" font-size="10.00">lsd_slam::Util::DisplayImage</text>
<text text-anchor="middle" x="71" y="-56.5" font-family="Helvetica,sans-Serif" font-size="10.00">Obect</text>
<polyline fill="none" stroke="black" points="-0.5,-49.5 142.5,-49.5 "/>
<text text-anchor="start" x="7.5" y="-37.5" font-family="Helvetica,sans-Serif" font-size="10.00">+ name</text>
<text text-anchor="start" x="7.5" y="-26.5" font-family="Helvetica,sans-Serif" font-size="10.00">+ autoSize</text>
<polyline fill="none" stroke="black" points="-0.5,-19.5 142.5,-19.5 "/>
<text text-anchor="middle" x="71" y="-7.5" font-family="Helvetica,sans-Serif" font-size="10.00"> </text>
</g>
<!-- Node2 -->
<g id="node2" class="node"><title>Node2</title>
<polygon fill="white" stroke="#bfbfbf" points="54.5,-128.5 54.5,-185.5 87.5,-185.5 87.5,-128.5 54.5,-128.5"/>
<text text-anchor="middle" x="71" y="-173.5" font-family="Helvetica,sans-Serif" font-size="10.00">Mat</text>
<polyline fill="none" stroke="#bfbfbf" points="54.5,-166.5 87.5,-166.5 "/>
<text text-anchor="middle" x="71" y="-154.5" font-family="Helvetica,sans-Serif" font-size="10.00"> </text>
<polyline fill="none" stroke="#bfbfbf" points="54.5,-147.5 87.5,-147.5 "/>
<text text-anchor="middle" x="71" y="-135.5" font-family="Helvetica,sans-Serif" font-size="10.00"> </text>
</g>
<!-- Node2&#45;&gt;Node1 -->
<g id="edge1" class="edge"><title>Node2&#45;&gt;Node1</title>
<path fill="none" stroke="#404040" d="M71,-128.455C71,-117.491 71,-104.511 71,-91.9527"/>
<polygon fill="none" stroke="#404040" points="71.0001,-91.6258 67,-85.6258 71,-79.6258 75,-85.6257 71.0001,-91.6258"/>
<text text-anchor="middle" x="83.5" y="-101.5" font-family="Helvetica,sans-Serif" font-size="10.00"> +img</text>
</g>
</g>
</svg>
