<?xml version="1.0" encoding="UTF-8" standalone="no"?>
<!DOCTYPE svg PUBLIC "-//W3C//DTD SVG 1.1//EN"
 "http://www.w3.org/Graphics/SVG/1.1/DTD/svg11.dtd">
<!-- Generated by graphviz version 2.36.0 (20140111.2315)
 -->
<!-- Title: external/SiftGPU/src/SiftGPU/ProgramGLSL.cpp Pages: 1 -->
<svg width="1073pt" height="208pt"
 viewBox="0.00 0.00 1073.00 208.00" xmlns="http://www.w3.org/2000/svg" xmlns:xlink="http://www.w3.org/1999/xlink">
<g id="graph0" class="graph" transform="scale(1 1) rotate(0) translate(4 204)">
<title>external/SiftGPU/src/SiftGPU/ProgramGLSL.cpp</title>
<polygon fill="white" stroke="none" points="-4,4 -4,-204 1069,-204 1069,4 -4,4"/>
<!-- Node1 -->
<g id="node1" class="node"><title>Node1</title>
<polygon fill="#bfbfbf" stroke="black" points="471,-169 471,-199 611,-199 611,-169 471,-169"/>
<text text-anchor="start" x="479" y="-187" font-family="Helvetica,sans-Serif" font-size="10.00">external/SiftGPU/src</text>
<text text-anchor="middle" x="541" y="-176" font-family="Helvetica,sans-Serif" font-size="10.00">/SiftGPU/ProgramGLSL.cpp</text>
</g>
<!-- Node2 -->
<g id="node2" class="node"><title>Node2</title>
<g id="a_node2"><a xlink:href="../../da/d33/glew_8h.html" target="_top" xlink:title="GL/glew.h">
<polygon fill="white" stroke="black" points="64.5,-112.5 64.5,-131.5 125.5,-131.5 125.5,-112.5 64.5,-112.5"/>
<text text-anchor="middle" x="95" y="-119.5" font-family="Helvetica,sans-Serif" font-size="10.00">GL/glew.h</text>
</a>
</g>
</g>
<!-- Node1&#45;&gt;Node2 -->
<g id="edge1" class="edge"><title>Node1&#45;&gt;Node2</title>
<path fill="none" stroke="midnightblue" d="M470.815,-176.406C391.585,-168.466 258.681,-153.66 135.575,-132.135"/>
<polygon fill="midnightblue" stroke="midnightblue" points="136.053,-128.665 125.596,-130.372 134.834,-135.559 136.053,-128.665"/>
</g>
<!-- Node6 -->
<g id="node6" class="node"><title>Node6</title>
<polygon fill="white" stroke="#bfbfbf" points="143.5,-112.5 143.5,-131.5 192.5,-131.5 192.5,-112.5 143.5,-112.5"/>
<text text-anchor="middle" x="168" y="-119.5" font-family="Helvetica,sans-Serif" font-size="10.00">string.h</text>
</g>
<!-- Node1&#45;&gt;Node6 -->
<g id="edge5" class="edge"><title>Node1&#45;&gt;Node6</title>
<path fill="none" stroke="midnightblue" d="M470.809,-174.719C404.193,-166.342 301.135,-152.044 202.632,-131.931"/>
<polygon fill="midnightblue" stroke="midnightblue" points="203.309,-128.497 192.808,-129.902 201.893,-135.352 203.309,-128.497"/>
</g>
<!-- Node7 -->
<g id="node7" class="node"><title>Node7</title>
<polygon fill="white" stroke="#bfbfbf" points="211,-112.5 211,-131.5 257,-131.5 257,-112.5 211,-112.5"/>
<text text-anchor="middle" x="234" y="-119.5" font-family="Helvetica,sans-Serif" font-size="10.00">stdio.h</text>
</g>
<!-- Node1&#45;&gt;Node7 -->
<g id="edge6" class="edge"><title>Node1&#45;&gt;Node7</title>
<path fill="none" stroke="midnightblue" d="M470.843,-171.796C417.452,-162.855 341.986,-149.329 267.09,-132.085"/>
<polygon fill="midnightblue" stroke="midnightblue" points="267.54,-128.597 257.007,-129.74 265.955,-135.415 267.54,-128.597"/>
</g>
<!-- Node8 -->
<g id="node8" class="node"><title>Node8</title>
<polygon fill="white" stroke="#bfbfbf" points="275,-112.5 275,-131.5 325,-131.5 325,-112.5 275,-112.5"/>
<text text-anchor="middle" x="300" y="-119.5" font-family="Helvetica,sans-Serif" font-size="10.00">iomanip</text>
</g>
<!-- Node1&#45;&gt;Node8 -->
<g id="edge7" class="edge"><title>Node1&#45;&gt;Node8</title>
<path fill="none" stroke="midnightblue" d="M482.936,-168.977C443.758,-159.45 390.634,-146.407 335.238,-132.287"/>
<polygon fill="midnightblue" stroke="midnightblue" points="335.794,-128.816 325.238,-129.732 334.061,-135.599 335.794,-128.816"/>
</g>
<!-- Node9 -->
<g id="node9" class="node"><title>Node9</title>
<polygon fill="white" stroke="#bfbfbf" points="343,-112.5 343,-131.5 397,-131.5 397,-112.5 343,-112.5"/>
<text text-anchor="middle" x="370" y="-119.5" font-family="Helvetica,sans-Serif" font-size="10.00">iostream</text>
</g>
<!-- Node1&#45;&gt;Node9 -->
<g id="edge8" class="edge"><title>Node1&#45;&gt;Node9</title>
<path fill="none" stroke="midnightblue" d="M500.908,-168.933C471.455,-158.598 431.875,-144.711 403.972,-134.92"/>
<polygon fill="midnightblue" stroke="midnightblue" points="404.856,-131.521 394.261,-131.513 402.538,-138.126 404.856,-131.521"/>
</g>
<!-- Node10 -->
<g id="node10" class="node"><title>Node10</title>
<polygon fill="white" stroke="#bfbfbf" points="415,-112.5 415,-131.5 467,-131.5 467,-112.5 415,-112.5"/>
<text text-anchor="middle" x="441" y="-119.5" font-family="Helvetica,sans-Serif" font-size="10.00">sstream</text>
</g>
<!-- Node1&#45;&gt;Node10 -->
<g id="edge9" class="edge"><title>Node1&#45;&gt;Node10</title>
<path fill="none" stroke="midnightblue" d="M517.554,-168.933C501.436,-159.262 480.132,-146.479 464.091,-136.855"/>
<polygon fill="midnightblue" stroke="midnightblue" points="465.709,-133.744 455.333,-131.6 462.108,-139.746 465.709,-133.744"/>
</g>
<!-- Node11 -->
<g id="node11" class="node"><title>Node11</title>
<polygon fill="white" stroke="#bfbfbf" points="485,-112.5 485,-131.5 529,-131.5 529,-112.5 485,-112.5"/>
<text text-anchor="middle" x="507" y="-119.5" font-family="Helvetica,sans-Serif" font-size="10.00">vector</text>
</g>
<!-- Node1&#45;&gt;Node11 -->
<g id="edge10" class="edge"><title>Node1&#45;&gt;Node11</title>
<path fill="none" stroke="midnightblue" d="M532.942,-168.781C528.155,-160.332 522.044,-149.548 516.956,-140.569"/>
<polygon fill="midnightblue" stroke="midnightblue" points="519.923,-138.705 511.947,-131.731 513.832,-142.156 519.923,-138.705"/>
</g>
<!-- Node12 -->
<g id="node12" class="node"><title>Node12</title>
<polygon fill="white" stroke="#bfbfbf" points="547,-112.5 547,-131.5 603,-131.5 603,-112.5 547,-112.5"/>
<text text-anchor="middle" x="575" y="-119.5" font-family="Helvetica,sans-Serif" font-size="10.00">algorithm</text>
</g>
<!-- Node1&#45;&gt;Node12 -->
<g id="edge11" class="edge"><title>Node1&#45;&gt;Node12</title>
<path fill="none" stroke="midnightblue" d="M549.058,-168.781C553.845,-160.332 559.956,-149.548 565.044,-140.569"/>
<polygon fill="midnightblue" stroke="midnightblue" points="568.168,-142.156 570.053,-131.731 562.077,-138.705 568.168,-142.156"/>
</g>
<!-- Node13 -->
<g id="node13" class="node"><title>Node13</title>
<polygon fill="white" stroke="#bfbfbf" points="621.5,-112.5 621.5,-131.5 668.5,-131.5 668.5,-112.5 621.5,-112.5"/>
<text text-anchor="middle" x="645" y="-119.5" font-family="Helvetica,sans-Serif" font-size="10.00">math.h</text>
</g>
<!-- Node1&#45;&gt;Node13 -->
<g id="edge12" class="edge"><title>Node1&#45;&gt;Node13</title>
<path fill="none" stroke="midnightblue" d="M565.383,-168.933C582.146,-159.262 604.303,-146.479 620.985,-136.855"/>
<polygon fill="midnightblue" stroke="midnightblue" points="623.18,-139.629 630.093,-131.6 619.682,-133.566 623.18,-139.629"/>
</g>
<!-- Node14 -->
<g id="node14" class="node"><title>Node14</title>
<g id="a_node14"><a xlink:href="../../d4/da1/GlobalUtil_8h.html" target="_top" xlink:title="GlobalUtil.h">
<polygon fill="white" stroke="black" points="687,-112.5 687,-131.5 755,-131.5 755,-112.5 687,-112.5"/>
<text text-anchor="middle" x="721" y="-119.5" font-family="Helvetica,sans-Serif" font-size="10.00">GlobalUtil.h</text>
</a>
</g>
</g>
<!-- Node1&#45;&gt;Node14 -->
<g id="edge13" class="edge"><title>Node1&#45;&gt;Node14</title>
<path fill="none" stroke="midnightblue" d="M583.202,-168.933C614.341,-158.553 656.234,-144.589 685.625,-134.792"/>
<polygon fill="midnightblue" stroke="midnightblue" points="687.082,-137.995 695.462,-131.513 684.868,-131.355 687.082,-137.995"/>
</g>
<!-- Node15 -->
<g id="node15" class="node"><title>Node15</title>
<g id="a_node15"><a xlink:href="../../d9/db5/ProgramGLSL_8h.html" target="_top" xlink:title="ProgramGLSL.h">
<polygon fill="white" stroke="black" points="834,-56.5 834,-75.5 920,-75.5 920,-56.5 834,-56.5"/>
<text text-anchor="middle" x="877" y="-63.5" font-family="Helvetica,sans-Serif" font-size="10.00">ProgramGLSL.h</text>
</a>
</g>
</g>
<!-- Node1&#45;&gt;Node15 -->
<g id="edge14" class="edge"><title>Node1&#45;&gt;Node15</title>
<path fill="none" stroke="midnightblue" d="M611.156,-172.474C655.892,-164.428 714.542,-151.378 764,-132 773.31,-128.352 823.614,-98.7667 853.878,-80.7915"/>
<polygon fill="midnightblue" stroke="midnightblue" points="855.755,-83.7478 862.56,-75.6273 852.176,-77.7317 855.755,-83.7478"/>
</g>
<!-- Node17 -->
<g id="node17" class="node"><title>Node17</title>
<g id="a_node17"><a xlink:href="../../d5/d29/GLTexImage_8h.html" target="_top" xlink:title="GLTexImage.h">
<polygon fill="white" stroke="black" points="811.5,-112.5 811.5,-131.5 892.5,-131.5 892.5,-112.5 811.5,-112.5"/>
<text text-anchor="middle" x="852" y="-119.5" font-family="Helvetica,sans-Serif" font-size="10.00">GLTexImage.h</text>
</a>
</g>
</g>
<!-- Node1&#45;&gt;Node17 -->
<g id="edge16" class="edge"><title>Node1&#45;&gt;Node17</title>
<path fill="none" stroke="midnightblue" d="M611.182,-169.46C668.959,-158.313 749.496,-142.776 801.197,-132.801"/>
<polygon fill="midnightblue" stroke="midnightblue" points="801.982,-136.214 811.137,-130.883 800.655,-129.341 801.982,-136.214"/>
</g>
<!-- Node18 -->
<g id="node18" class="node"><title>Node18</title>
<g id="a_node18"><a xlink:href="../../da/d8e/ShaderMan_8h.html" target="_top" xlink:title="ShaderMan.h">
<polygon fill="white" stroke="black" points="911,-112.5 911,-131.5 985,-131.5 985,-112.5 911,-112.5"/>
<text text-anchor="middle" x="948" y="-119.5" font-family="Helvetica,sans-Serif" font-size="10.00">ShaderMan.h</text>
</a>
</g>
</g>
<!-- Node1&#45;&gt;Node18 -->
<g id="edge17" class="edge"><title>Node1&#45;&gt;Node18</title>
<path fill="none" stroke="midnightblue" d="M611.178,-174.082C681.646,-164.894 793.566,-149.672 900.801,-131.956"/>
<polygon fill="midnightblue" stroke="midnightblue" points="901.539,-135.382 910.83,-130.29 900.391,-128.477 901.539,-135.382"/>
</g>
<!-- Node19 -->
<g id="node19" class="node"><title>Node19</title>
<g id="a_node19"><a xlink:href="../../d2/d17/SiftGPU_8h.html" target="_top" xlink:title="SiftGPU.h">
<polygon fill="white" stroke="black" points="1003,-112.5 1003,-131.5 1065,-131.5 1065,-112.5 1003,-112.5"/>
<text text-anchor="middle" x="1034" y="-119.5" font-family="Helvetica,sans-Serif" font-size="10.00">SiftGPU.h</text>
</a>
</g>
</g>
<!-- Node1&#45;&gt;Node19 -->
<g id="edge20" class="edge"><title>Node1&#45;&gt;Node19</title>
<path fill="none" stroke="midnightblue" d="M611.174,-177.493C698.401,-170.112 851.962,-155.367 992.524,-132.091"/>
<polygon fill="midnightblue" stroke="midnightblue" points="993.336,-135.504 1002.62,-130.4 992.18,-128.6 993.336,-135.504"/>
</g>
<!-- Node3 -->
<g id="node3" class="node"><title>Node3</title>
<polygon fill="white" stroke="#bfbfbf" points="0,-56.5 0,-75.5 52,-75.5 52,-56.5 0,-56.5"/>
<text text-anchor="middle" x="26" y="-63.5" font-family="Helvetica,sans-Serif" font-size="10.00">stddef.h</text>
</g>
<!-- Node2&#45;&gt;Node3 -->
<g id="edge2" class="edge"><title>Node2&#45;&gt;Node3</title>
<path fill="none" stroke="midnightblue" d="M83.914,-112.324C73.514,-104.185 57.7394,-91.8395 45.2784,-82.0874"/>
<polygon fill="midnightblue" stroke="midnightblue" points="47.3199,-79.2407 37.2878,-75.8339 43.0057,-84.7533 47.3199,-79.2407"/>
</g>
<!-- Node4 -->
<g id="node4" class="node"><title>Node4</title>
<polygon fill="white" stroke="#bfbfbf" points="70.5,-56.5 70.5,-75.5 119.5,-75.5 119.5,-56.5 70.5,-56.5"/>
<text text-anchor="middle" x="95" y="-63.5" font-family="Helvetica,sans-Serif" font-size="10.00">stdint.h</text>
</g>
<!-- Node2&#45;&gt;Node4 -->
<g id="edge3" class="edge"><title>Node2&#45;&gt;Node4</title>
<path fill="none" stroke="midnightblue" d="M95,-112.083C95,-105.006 95,-94.8611 95,-85.9865"/>
<polygon fill="midnightblue" stroke="midnightblue" points="98.5001,-85.751 95,-75.7511 91.5001,-85.7511 98.5001,-85.751"/>
</g>
<!-- Node5 -->
<g id="node5" class="node"><title>Node5</title>
<polygon fill="white" stroke="#bfbfbf" points="137.5,-56.5 137.5,-75.5 190.5,-75.5 190.5,-56.5 137.5,-56.5"/>
<text text-anchor="middle" x="164" y="-63.5" font-family="Helvetica,sans-Serif" font-size="10.00">GL/glu.h</text>
</g>
<!-- Node2&#45;&gt;Node5 -->
<g id="edge4" class="edge"><title>Node2&#45;&gt;Node5</title>
<path fill="none" stroke="midnightblue" d="M106.086,-112.324C116.486,-104.185 132.261,-91.8395 144.722,-82.0874"/>
<polygon fill="midnightblue" stroke="midnightblue" points="146.994,-84.7533 152.712,-75.8339 142.68,-79.2407 146.994,-84.7533"/>
</g>
<!-- Node16 -->
<g id="node16" class="node"><title>Node16</title>
<g id="a_node16"><a xlink:href="../../d8/d9b/ProgramGPU_8h.html" target="_top" xlink:title="ProgramGPU.h">
<polygon fill="white" stroke="black" points="870.5,-0.5 870.5,-19.5 953.5,-19.5 953.5,-0.5 870.5,-0.5"/>
<text text-anchor="middle" x="912" y="-7.5" font-family="Helvetica,sans-Serif" font-size="10.00">ProgramGPU.h</text>
</a>
</g>
</g>
<!-- Node15&#45;&gt;Node16 -->
<g id="edge15" class="edge"><title>Node15&#45;&gt;Node16</title>
<path fill="none" stroke="midnightblue" d="M882.78,-56.083C887.672,-48.5341 894.827,-37.4948 900.833,-28.2298"/>
<polygon fill="midnightblue" stroke="midnightblue" points="903.826,-30.0463 906.328,-19.7511 897.952,-26.239 903.826,-30.0463"/>
</g>
<!-- Node18&#45;&gt;Node15 -->
<g id="edge19" class="edge"><title>Node18&#45;&gt;Node15</title>
<path fill="none" stroke="midnightblue" d="M936.593,-112.324C925.891,-104.185 909.659,-91.8395 896.837,-82.0874"/>
<polygon fill="midnightblue" stroke="midnightblue" points="898.693,-79.1018 888.615,-75.8339 894.456,-84.6734 898.693,-79.1018"/>
</g>
<!-- Node18&#45;&gt;Node16 -->
<g id="edge18" class="edge"><title>Node18&#45;&gt;Node16</title>
<path fill="none" stroke="midnightblue" d="M945.632,-112.102C942.231,-99.5188 935.639,-75.8465 929,-56 926.016,-47.0788 922.367,-37.2962 919.215,-29.1374"/>
<polygon fill="midnightblue" stroke="midnightblue" points="922.367,-27.5877 915.457,-19.5563 915.85,-30.1438 922.367,-27.5877"/>
</g>
</g>
</svg>
