<?xml version="1.0" encoding="UTF-8" standalone="no"?>
<!DOCTYPE svg PUBLIC "-//W3C//DTD SVG 1.1//EN"
 "http://www.w3.org/Graphics/SVG/1.1/DTD/svg11.dtd">
<!-- Generated by graphviz version 2.36.0 (20140111.2315)
 -->
<!-- Title: thirdparty/openFabMap/src/FabMap.cpp Pages: 1 -->
<svg width="393pt" height="152pt"
 viewBox="0.00 0.00 393.00 152.00" xmlns="http://www.w3.org/2000/svg" xmlns:xlink="http://www.w3.org/1999/xlink">
<g id="graph0" class="graph" transform="scale(1 1) rotate(0) translate(4 148)">
<title>thirdparty/openFabMap/src/FabMap.cpp</title>
<polygon fill="white" stroke="none" points="-4,4 -4,-148 389,-148 389,4 -4,4"/>
<!-- Node1 -->
<g id="node1" class="node"><title>Node1</title>
<polygon fill="#bfbfbf" stroke="black" points="93,-113 93,-143 209,-143 209,-113 93,-113"/>
<text text-anchor="start" x="101" y="-131" font-family="Helvetica,sans-Serif" font-size="10.00">thirdparty/openFabMap</text>
<text text-anchor="middle" x="151" y="-120" font-family="Helvetica,sans-Serif" font-size="10.00">/src/FabMap.cpp</text>
</g>
<!-- Node2 -->
<g id="node2" class="node"><title>Node2</title>
<g id="a_node2"><a xlink:href="../../d3/d6a/openfabmap_8hpp.html" target="_top" xlink:title="../include/openfabmap.hpp">
<polygon fill="white" stroke="black" points="85.5,-56.5 85.5,-75.5 216.5,-75.5 216.5,-56.5 85.5,-56.5"/>
<text text-anchor="middle" x="151" y="-63.5" font-family="Helvetica,sans-Serif" font-size="10.00">../include/openfabmap.hpp</text>
</a>
</g>
</g>
<!-- Node1&#45;&gt;Node2 -->
<g id="edge1" class="edge"><title>Node1&#45;&gt;Node2</title>
<path fill="none" stroke="midnightblue" d="M151,-112.781C151,-104.781 151,-94.6887 151,-86.0168"/>
<polygon fill="midnightblue" stroke="midnightblue" points="154.5,-85.7305 151,-75.7305 147.5,-85.7306 154.5,-85.7305"/>
</g>
<!-- Node3 -->
<g id="node3" class="node"><title>Node3</title>
<polygon fill="white" stroke="#bfbfbf" points="0,-0.5 0,-19.5 44,-19.5 44,-0.5 0,-0.5"/>
<text text-anchor="middle" x="22" y="-7.5" font-family="Helvetica,sans-Serif" font-size="10.00">vector</text>
</g>
<!-- Node2&#45;&gt;Node3 -->
<g id="edge2" class="edge"><title>Node2&#45;&gt;Node3</title>
<path fill="none" stroke="midnightblue" d="M130.56,-56.4435C109.33,-47.5566 75.901,-33.5632 51.745,-23.4514"/>
<polygon fill="midnightblue" stroke="midnightblue" points="52.9207,-20.1493 42.3448,-19.5164 50.2177,-26.6064 52.9207,-20.1493"/>
</g>
<!-- Node4 -->
<g id="node4" class="node"><title>Node4</title>
<polygon fill="white" stroke="#bfbfbf" points="61.5,-0.5 61.5,-19.5 90.5,-19.5 90.5,-0.5 61.5,-0.5"/>
<text text-anchor="middle" x="76" y="-7.5" font-family="Helvetica,sans-Serif" font-size="10.00">list</text>
</g>
<!-- Node2&#45;&gt;Node4 -->
<g id="edge3" class="edge"><title>Node2&#45;&gt;Node4</title>
<path fill="none" stroke="midnightblue" d="M138.95,-56.324C127.537,-48.1066 110.169,-35.6017 96.5651,-25.8069"/>
<polygon fill="midnightblue" stroke="midnightblue" points="98.4297,-22.8366 88.2693,-19.8339 94.3396,-28.5174 98.4297,-22.8366"/>
</g>
<!-- Node5 -->
<g id="node5" class="node"><title>Node5</title>
<polygon fill="white" stroke="#bfbfbf" points="108.5,-0.5 108.5,-19.5 143.5,-19.5 143.5,-0.5 108.5,-0.5"/>
<text text-anchor="middle" x="126" y="-7.5" font-family="Helvetica,sans-Serif" font-size="10.00">map</text>
</g>
<!-- Node2&#45;&gt;Node5 -->
<g id="edge4" class="edge"><title>Node2&#45;&gt;Node5</title>
<path fill="none" stroke="midnightblue" d="M146.872,-56.083C143.486,-48.77 138.584,-38.1814 134.381,-29.1034"/>
<polygon fill="midnightblue" stroke="midnightblue" points="137.429,-27.3553 130.051,-19.7511 131.077,-30.2962 137.429,-27.3553"/>
</g>
<!-- Node6 -->
<g id="node6" class="node"><title>Node6</title>
<polygon fill="white" stroke="#bfbfbf" points="162,-0.5 162,-19.5 192,-19.5 192,-0.5 162,-0.5"/>
<text text-anchor="middle" x="177" y="-7.5" font-family="Helvetica,sans-Serif" font-size="10.00">set</text>
</g>
<!-- Node2&#45;&gt;Node6 -->
<g id="edge5" class="edge"><title>Node2&#45;&gt;Node6</title>
<path fill="none" stroke="midnightblue" d="M155.293,-56.083C158.852,-48.6913 164.022,-37.9533 168.424,-28.8111"/>
<polygon fill="midnightblue" stroke="midnightblue" points="171.602,-30.2795 172.787,-19.7511 165.295,-27.2427 171.602,-30.2795"/>
</g>
<!-- Node7 -->
<g id="node7" class="node"><title>Node7</title>
<polygon fill="white" stroke="#bfbfbf" points="209.5,-0.5 209.5,-19.5 260.5,-19.5 260.5,-0.5 209.5,-0.5"/>
<text text-anchor="middle" x="235" y="-7.5" font-family="Helvetica,sans-Serif" font-size="10.00">valarray</text>
</g>
<!-- Node2&#45;&gt;Node7 -->
<g id="edge6" class="edge"><title>Node2&#45;&gt;Node7</title>
<path fill="none" stroke="midnightblue" d="M164.496,-56.324C177.6,-47.9002 197.712,-34.9709 213.107,-25.0741"/>
<polygon fill="midnightblue" stroke="midnightblue" points="215.018,-28.0063 221.537,-19.6545 211.233,-22.118 215.018,-28.0063"/>
</g>
<!-- Node8 -->
<g id="node8" class="node"><title>Node8</title>
<polygon fill="white" stroke="#bfbfbf" points="278.5,-0.5 278.5,-19.5 385.5,-19.5 385.5,-0.5 278.5,-0.5"/>
<text text-anchor="middle" x="332" y="-7.5" font-family="Helvetica,sans-Serif" font-size="10.00">opencv2/opencv.hpp</text>
</g>
<!-- Node2&#45;&gt;Node8 -->
<g id="edge7" class="edge"><title>Node2&#45;&gt;Node8</title>
<path fill="none" stroke="midnightblue" d="M179.68,-56.4435C210.527,-47.2406 259.728,-32.5617 293.829,-22.3879"/>
<polygon fill="midnightblue" stroke="midnightblue" points="294.872,-25.7293 303.454,-19.5164 292.871,-19.0215 294.872,-25.7293"/>
</g>
</g>
</svg>
