<?xml version="1.0" encoding="UTF-8" standalone="no"?>
<!DOCTYPE svg PUBLIC "-//W3C//DTD SVG 1.1//EN"
 "http://www.w3.org/Graphics/SVG/1.1/DTD/svg11.dtd">
<!-- Generated by graphviz version 2.36.0 (20140111.2315)
 -->
<!-- Title: ColorOctomapServer::insertCloudCallbackCommon Pages: 1 -->
<svg width="472pt" height="69pt"
 viewBox="0.00 0.00 472.00 69.00" xmlns="http://www.w3.org/2000/svg" xmlns:xlink="http://www.w3.org/1999/xlink">
<g id="graph0" class="graph" transform="scale(1 1) rotate(0) translate(4 65)">
<title>ColorOctomapServer::insertCloudCallbackCommon</title>
<polygon fill="white" stroke="none" points="-4,4 -4,-65 468,-65 468,4 -4,4"/>
<!-- Node1 -->
<g id="node1" class="node"><title>Node1</title>
<polygon fill="#bfbfbf" stroke="black" points="0,-16 0,-46 150,-46 150,-16 0,-16"/>
<text text-anchor="start" x="8" y="-34" font-family="Helvetica,sans-Serif" font-size="10.00">ColorOctomapServer</text>
<text text-anchor="middle" x="75" y="-23" font-family="Helvetica,sans-Serif" font-size="10.00">::insertCloudCallbackCommon</text>
</g>
<!-- Node2 -->
<g id="node2" class="node"><title>Node2</title>
<g id="a_node2"><a xlink:href="../../d3/d3e/classParameterServer.html#a5457f900e543c5a466bf9b65ee6bc577" target="_top" xlink:title="ParameterServer::instance">
<polygon fill="white" stroke="black" points="330.5,-41.5 330.5,-60.5 463.5,-60.5 463.5,-41.5 330.5,-41.5"/>
<text text-anchor="middle" x="397" y="-48.5" font-family="Helvetica,sans-Serif" font-size="10.00">ParameterServer::instance</text>
</a>
</g>
</g>
<!-- Node1&#45;&gt;Node2 -->
<g id="edge1" class="edge"><title>Node1&#45;&gt;Node2</title>
<path fill="none" stroke="midnightblue" d="M133.847,-46.0595C150.556,-49.7439 168.898,-53.156 186,-55 233.723,-60.1457 246.009,-55.9406 294,-55 302.561,-54.8322 311.524,-54.5853 320.432,-54.295"/>
<polygon fill="midnightblue" stroke="midnightblue" points="320.568,-57.7925 330.442,-53.9508 320.327,-50.7966 320.568,-57.7925"/>
</g>
<!-- Node3 -->
<g id="node3" class="node"><title>Node3</title>
<g id="a_node3"><a xlink:href="../../d3/d3e/classParameterServer.html#a3c8af50664e423b555bbb1874f488413" target="_top" xlink:title="ParameterServer::get">
<polygon fill="white" stroke="black" points="342,-0.5 342,-19.5 452,-19.5 452,-0.5 342,-0.5"/>
<text text-anchor="middle" x="397" y="-7.5" font-family="Helvetica,sans-Serif" font-size="10.00">ParameterServer::get</text>
</a>
</g>
</g>
<!-- Node1&#45;&gt;Node3 -->
<g id="edge2" class="edge"><title>Node1&#45;&gt;Node3</title>
<path fill="none" stroke="midnightblue" d="M130.983,-15.9709C148.434,-11.8855 167.9,-8.03089 186,-6 233.701,-0.647715 246.009,-5.05937 294,-6 306.112,-6.2374 319.029,-6.63324 331.457,-7.08596"/>
<polygon fill="midnightblue" stroke="midnightblue" points="331.627,-10.5949 341.753,-7.47741 331.893,-3.59993 331.627,-10.5949"/>
</g>
<!-- Node4 -->
<g id="node4" class="node"><title>Node4</title>
<g id="a_node4"><a xlink:href="../../d7/ddc/classColorOctomapServer.html#ac7cca7bcabafb3876d7ad4bb3a6b6c8f" target="_top" xlink:title="Clear octomap and reset values to paramters from parameter server. ">
<polygon fill="white" stroke="black" points="186,-16 186,-46 294,-46 294,-16 186,-16"/>
<text text-anchor="start" x="194" y="-34" font-family="Helvetica,sans-Serif" font-size="10.00">ColorOctomapServer</text>
<text text-anchor="middle" x="240" y="-23" font-family="Helvetica,sans-Serif" font-size="10.00">::reset</text>
</a>
</g>
</g>
<!-- Node1&#45;&gt;Node4 -->
<g id="edge3" class="edge"><title>Node1&#45;&gt;Node4</title>
<path fill="none" stroke="midnightblue" d="M150.345,-31C158.728,-31 167.213,-31 175.442,-31"/>
<polygon fill="midnightblue" stroke="midnightblue" points="175.7,-34.5001 185.7,-31 175.7,-27.5001 175.7,-34.5001"/>
</g>
<!-- Node4&#45;&gt;Node2 -->
<g id="edge4" class="edge"><title>Node4&#45;&gt;Node2</title>
<path fill="none" stroke="midnightblue" d="M294.342,-37.8829C302.65,-38.9549 311.37,-40.08 320.064,-41.2018"/>
<polygon fill="midnightblue" stroke="midnightblue" points="319.865,-44.7051 330.231,-42.5137 320.761,-37.7626 319.865,-44.7051"/>
</g>
<!-- Node4&#45;&gt;Node3 -->
<g id="edge5" class="edge"><title>Node4&#45;&gt;Node3</title>
<path fill="none" stroke="midnightblue" d="M294.342,-23.773C306.315,-22.1509 319.142,-20.413 331.514,-18.7369"/>
<polygon fill="midnightblue" stroke="midnightblue" points="332.33,-22.1583 341.77,-17.3473 331.39,-15.2217 332.33,-22.1583"/>
</g>
</g>
</svg>
