<?xml version="1.0" encoding="UTF-8" standalone="no"?>
<!DOCTYPE svg PUBLIC "-//W3C//DTD SVG 1.1//EN"
 "http://www.w3.org/Graphics/SVG/1.1/DTD/svg11.dtd">
<!-- Generated by graphviz version 2.36.0 (20140111.2315)
 -->
<!-- Title: ColorOctomapServer::insertCloudCallback Pages: 1 -->
<!--zoomable 115 -->
<svg id="main" version="1.1" xmlns="http://www.w3.org/2000/svg" xmlns:xlink="http://www.w3.org/1999/xlink" xml:space="preserve" onload="init(evt)">
<style type="text/css"><![CDATA[
.edge:hover path { stroke: red; }
.edge:hover polygon { stroke: red; fill: red; }
]]></style>
<script type="text/javascript"><![CDATA[
var edges = document.getElementsByTagName('g');
if (edges && edges.length) {
  for (var i=0;i<edges.length;i++) {
    if (edges[i].id.substr(0,4)=='edge') {
      edges[i].setAttribute('class','edge');
    }
  }
}
]]></script>
        <defs>
                <circle id="rim" cx="0" cy="0" r="7"/>
                <circle id="rim2" cx="0" cy="0" r="3.5"/>
                <g id="zoomPlus">
                        <use xlink:href="#rim" fill="#404040">
                                <set attributeName="fill" to="#808080" begin="zoomplus.mouseover" end="zoomplus.mouseout"/>
                        </use>
                        <path d="M-4,0h8M0,-4v8" fill="none" stroke="white" stroke-width="1.5" pointer-events="none"/>
                </g>
                <g id="zoomMin">
                        <use xlink:href="#rim" fill="#404040">
                                <set attributeName="fill" to="#808080" begin="zoomminus.mouseover" end="zoomminus.mouseout"/>
                        </use>
                        <path d="M-4,0h8" fill="none" stroke="white" stroke-width="1.5" pointer-events="none"/>
                </g>
                <g id="dirArrow">
                        <path fill="none" stroke="white" stroke-width="1.5" d="M0,-3.0v7 M-2.5,-0.5L0,-3.0L2.5,-0.5"/>
                </g>
               <g id="resetDef">
                       <use xlink:href="#rim2" fill="#404040">
                               <set attributeName="fill" to="#808080" begin="reset.mouseover" end="reset.mouseout"/>
                       </use>
               </g>
        </defs>

<script type="text/javascript">
var viewWidth = 618;
var viewHeight = 115;
var sectionId = 'dynsection-3';
</script>
<script xlink:href="../../svgpan.js"/>
<svg id="graph" class="graph">
<g id="viewport">
<title>ColorOctomapServer::insertCloudCallback</title>
<polygon fill="white" stroke="none" points="-4,4 -4,-111.465 614,-111.465 614,4 -4,4"/>
<!-- Node1 -->
<g id="node1" class="node"><title>Node1</title>
<polygon fill="#bfbfbf" stroke="black" points="0,-77.4651 0,-107.465 110,-107.465 110,-77.4651 0,-77.4651"/>
<text text-anchor="start" x="8" y="-95.4651" font-family="Helvetica,sans-Serif" font-size="10.00">ColorOctomapServer</text>
<text text-anchor="middle" x="55" y="-84.4651" font-family="Helvetica,sans-Serif" font-size="10.00">::insertCloudCallback</text>
</g>
<!-- Node2 -->
<g id="node2" class="node"><title>Node2</title>
<g id="a_node2"><a xlink:href="../../d3/d3e/classParameterServer.html#a5457f900e543c5a466bf9b65ee6bc577" target="_top" xlink:title="ParameterServer::instance">
<polygon fill="white" stroke="black" points="476.5,-66.9651 476.5,-85.9651 609.5,-85.9651 609.5,-66.9651 476.5,-66.9651"/>
<text text-anchor="middle" x="543" y="-73.9651" font-family="Helvetica,sans-Serif" font-size="10.00">ParameterServer::instance</text>
</a>
</g>
</g>
<!-- Node1&#45;&gt;Node2 -->
<g id="edge1" class="edge"><title>Node1&#45;&gt;Node2</title>
<path fill="none" stroke="midnightblue" d="M110.336,-90.6763C197.176,-87.8173 367.489,-82.2103 466.24,-78.9592"/>
<polygon fill="midnightblue" stroke="midnightblue" points="466.57,-82.4504 476.449,-78.6231 466.339,-75.4542 466.57,-82.4504"/>
</g>
<!-- Node3 -->
<g id="node3" class="node"><title>Node3</title>
<g id="a_node3"><a xlink:href="../../d7/ddc/classColorOctomapServer.html#ab96bf80f442fcebd4e269b40dc31f841" target="_top" xlink:title="ColorOctomapServer\l::insertCloudCallbackCommon">
<polygon fill="white" stroke="black" points="146,-36.4651 146,-66.4651 296,-66.4651 296,-36.4651 146,-36.4651"/>
<text text-anchor="start" x="154" y="-54.4651" font-family="Helvetica,sans-Serif" font-size="10.00">ColorOctomapServer</text>
<text text-anchor="middle" x="221" y="-43.4651" font-family="Helvetica,sans-Serif" font-size="10.00">::insertCloudCallbackCommon</text>
</a>
</g>
</g>
<!-- Node1&#45;&gt;Node3 -->
<g id="edge2" class="edge"><title>Node1&#45;&gt;Node3</title>
<path fill="none" stroke="midnightblue" d="M110.154,-78.9265C122.868,-75.7481 136.595,-72.3164 149.895,-68.9913"/>
<polygon fill="midnightblue" stroke="midnightblue" points="151.107,-72.2963 159.959,-66.4753 149.409,-65.5053 151.107,-72.2963"/>
</g>
<!-- Node3&#45;&gt;Node2 -->
<g id="edge3" class="edge"><title>Node3&#45;&gt;Node2</title>
<path fill="none" stroke="midnightblue" d="M296.219,-57.2634C347.281,-61.2527 414.892,-66.5348 466.275,-70.5491"/>
<polygon fill="midnightblue" stroke="midnightblue" points="466.084,-74.0447 476.326,-71.3343 466.629,-67.066 466.084,-74.0447"/>
</g>
<!-- Node4 -->
<g id="node4" class="node"><title>Node4</title>
<g id="a_node4"><a xlink:href="../../d3/d3e/classParameterServer.html#a3c8af50664e423b555bbb1874f488413" target="_top" xlink:title="ParameterServer::get">
<polygon fill="white" stroke="black" points="488,-0.965086 488,-19.9651 598,-19.9651 598,-0.965086 488,-0.965086"/>
<text text-anchor="middle" x="543" y="-7.96509" font-family="Helvetica,sans-Serif" font-size="10.00">ParameterServer::get</text>
</a>
</g>
</g>
<!-- Node3&#45;&gt;Node4 -->
<g id="edge4" class="edge"><title>Node3&#45;&gt;Node4</title>
<path fill="none" stroke="midnightblue" d="M250.951,-36.3459C272.612,-25.9221 303.32,-12.9884 332,-7.46509 380.292,1.83515 435.991,0.502564 477.887,-2.84028"/>
<polygon fill="midnightblue" stroke="midnightblue" points="477.694,-6.33651 487.957,-3.70332 478.292,0.63792 477.694,-6.33651"/>
</g>
<!-- Node5 -->
<g id="node5" class="node"><title>Node5</title>
<g id="a_node5"><a xlink:href="../../d7/ddc/classColorOctomapServer.html#ac7cca7bcabafb3876d7ad4bb3a6b6c8f" target="_top" xlink:title="Clear octomap and reset values to paramters from parameter server. ">
<polygon fill="white" stroke="black" points="332,-17.4651 332,-47.4651 440,-47.4651 440,-17.4651 332,-17.4651"/>
<text text-anchor="start" x="340" y="-35.4651" font-family="Helvetica,sans-Serif" font-size="10.00">ColorOctomapServer</text>
<text text-anchor="middle" x="386" y="-24.4651" font-family="Helvetica,sans-Serif" font-size="10.00">::reset</text>
</a>
</g>
</g>
<!-- Node3&#45;&gt;Node5 -->
<g id="edge5" class="edge"><title>Node3&#45;&gt;Node5</title>
<path fill="none" stroke="midnightblue" d="M296.345,-42.7991C304.822,-41.811 313.402,-40.8109 321.716,-39.8418"/>
<polygon fill="midnightblue" stroke="midnightblue" points="322.172,-43.3123 331.7,-38.678 321.362,-36.3594 322.172,-43.3123"/>
</g>
<!-- Node5&#45;&gt;Node2 -->
<g id="edge6" class="edge"><title>Node5&#45;&gt;Node2</title>
<path fill="none" stroke="midnightblue" d="M439.909,-47.4843C459,-52.9038 480.312,-58.9537 498.506,-64.1183"/>
<polygon fill="midnightblue" stroke="midnightblue" points="497.683,-67.5229 508.258,-66.8868 499.594,-60.7889 497.683,-67.5229"/>
</g>
<!-- Node5&#45;&gt;Node4 -->
<g id="edge7" class="edge"><title>Node5&#45;&gt;Node4</title>
<path fill="none" stroke="midnightblue" d="M440.342,-24.8939C452.315,-23.1946 465.142,-21.374 477.514,-19.618"/>
<polygon fill="midnightblue" stroke="midnightblue" points="478.361,-23.0329 487.77,-18.1623 477.377,-16.1024 478.361,-23.0329"/>
</g>
</g>
</svg>
        <g id="navigator" transform="translate(0 0)" fill="#404254">
                <rect fill="#f2f5e9" fill-opacity="0.5" stroke="#606060" stroke-width=".5" x="0" y="0" width="60" height="60"/>
                <use id="zoomplus" xlink:href="#zoomPlus" x="17" y="9" onmousedown="handleZoom(evt,'in')"/>
                <use id="zoomminus" xlink:href="#zoomMin" x="42" y="9" onmousedown="handleZoom(evt,'out')"/>
                <use id="reset" xlink:href="#resetDef" x="30" y="36" onmousedown="handleReset()"/>
                <g id="arrowUp" xlink:href="#dirArrow" transform="translate(30 24)" onmousedown="handlePan(0,-1)">
                  <use xlink:href="#rim" fill="#404040">
                        <set attributeName="fill" to="#808080" begin="arrowUp.mouseover" end="arrowUp.mouseout"/>
                  </use>
                  <path fill="none" stroke="white" stroke-width="1.5" d="M0,-3.0v7 M-2.5,-0.5L0,-3.0L2.5,-0.5"/>
                </g>
                <g id="arrowRight" xlink:href="#dirArrow" transform="rotate(90) translate(36 -43)" onmousedown="handlePan(1,0)">
                  <use xlink:href="#rim" fill="#404040">
                        <set attributeName="fill" to="#808080" begin="arrowRight.mouseover" end="arrowRight.mouseout"/>
                  </use>
                  <path fill="none" stroke="white" stroke-width="1.5" d="M0,-3.0v7 M-2.5,-0.5L0,-3.0L2.5,-0.5"/>
                </g>
                <g id="arrowDown" xlink:href="#dirArrow" transform="rotate(180) translate(-30 -48)" onmousedown="handlePan(0,1)">
                  <use xlink:href="#rim" fill="#404040">
                        <set attributeName="fill" to="#808080" begin="arrowDown.mouseover" end="arrowDown.mouseout"/>
                  </use>
                  <path fill="none" stroke="white" stroke-width="1.5" d="M0,-3.0v7 M-2.5,-0.5L0,-3.0L2.5,-0.5"/>
                </g>
                <g id="arrowLeft" xlink:href="#dirArrow" transform="rotate(270) translate(-36 17)" onmousedown="handlePan(-1,0)">
                  <use xlink:href="#rim" fill="#404040">
                        <set attributeName="fill" to="#808080" begin="arrowLeft.mouseover" end="arrowLeft.mouseout"/>
                  </use>
                  <path fill="none" stroke="white" stroke-width="1.5" d="M0,-3.0v7 M-2.5,-0.5L0,-3.0L2.5,-0.5"/>
                </g>
        </g>
        <svg viewBox="0 0 15 15" width="100%" height="30px" preserveAspectRatio="xMaxYMin meet">
         <g id="arrow_out" transform="scale(0.3 0.3)">
          <a xlink:href="classColorOctomapServer_ac16ce374c11799891e316f637acbd2e7_cgraph_org.svg" target="_base">
           <rect id="button" ry="5" rx="5" y="6" x="6" height="38" width="38"
                fill="#f2f5e9" fill-opacity="0.5" stroke="#606060" stroke-width="1.0"/>
           <path id="arrow"
             d="M 11.500037,31.436501 C 11.940474,20.09759 22.043105,11.32322 32.158766,21.979434 L 37.068811,17.246167 C 37.068811,17.246167 37.088388,32 37.088388,32 L 22.160133,31.978069 C 22.160133,31.978069 26.997745,27.140456 26.997745,27.140456 C 18.528582,18.264221 13.291696,25.230495 11.500037,31.436501 z"
             style="fill:#404040;"/>
          </a>
         </g>
        </svg>
</svg>
