<?xml version="1.0" encoding="UTF-8" standalone="no"?>
<!DOCTYPE svg PUBLIC "-//W3C//DTD SVG 1.1//EN"
 "http://www.w3.org/Graphics/SVG/1.1/DTD/svg11.dtd">
<!-- Generated by graphviz version 2.36.0 (20140111.2315)
 -->
<!-- Title: external/SiftGPU/src/SiftGPU/PyramidGL.cpp Pages: 1 -->
<svg width="1318pt" height="208pt"
 viewBox="0.00 0.00 1318.00 208.00" xmlns="http://www.w3.org/2000/svg" xmlns:xlink="http://www.w3.org/1999/xlink">
<g id="graph0" class="graph" transform="scale(1 1) rotate(0) translate(4 204)">
<title>external/SiftGPU/src/SiftGPU/PyramidGL.cpp</title>
<polygon fill="white" stroke="none" points="-4,4 -4,-204 1314,-204 1314,4 -4,4"/>
<!-- Node1 -->
<g id="node1" class="node"><title>Node1</title>
<polygon fill="#bfbfbf" stroke="black" points="552.5,-169 552.5,-199 679.5,-199 679.5,-169 552.5,-169"/>
<text text-anchor="start" x="560.5" y="-187" font-family="Helvetica,sans-Serif" font-size="10.00">external/SiftGPU/src</text>
<text text-anchor="middle" x="616" y="-176" font-family="Helvetica,sans-Serif" font-size="10.00">/SiftGPU/PyramidGL.cpp</text>
</g>
<!-- Node2 -->
<g id="node2" class="node"><title>Node2</title>
<g id="a_node2"><a xlink:href="../../da/d33/glew_8h.html" target="_top" xlink:title="GL/glew.h">
<polygon fill="white" stroke="black" points="64.5,-112.5 64.5,-131.5 125.5,-131.5 125.5,-112.5 64.5,-112.5"/>
<text text-anchor="middle" x="95" y="-119.5" font-family="Helvetica,sans-Serif" font-size="10.00">GL/glew.h</text>
</a>
</g>
</g>
<!-- Node1&#45;&gt;Node2 -->
<g id="edge1" class="edge"><title>Node1&#45;&gt;Node2</title>
<path fill="none" stroke="midnightblue" d="M552.27,-178.602C461.86,-171.841 291.057,-157.147 135.713,-131.922"/>
<polygon fill="midnightblue" stroke="midnightblue" points="135.939,-128.412 125.504,-130.245 134.804,-135.32 135.939,-128.412"/>
</g>
<!-- Node6 -->
<g id="node6" class="node"><title>Node6</title>
<polygon fill="white" stroke="#bfbfbf" points="144,-112.5 144,-131.5 198,-131.5 198,-112.5 144,-112.5"/>
<text text-anchor="middle" x="171" y="-119.5" font-family="Helvetica,sans-Serif" font-size="10.00">iostream</text>
</g>
<!-- Node1&#45;&gt;Node6 -->
<g id="edge5" class="edge"><title>Node1&#45;&gt;Node6</title>
<path fill="none" stroke="midnightblue" d="M552.223,-177.457C473.495,-170.078 335.4,-155.385 207.985,-131.982"/>
<polygon fill="midnightblue" stroke="midnightblue" points="208.521,-128.522 198.05,-130.135 207.242,-135.404 208.521,-128.522"/>
</g>
<!-- Node7 -->
<g id="node7" class="node"><title>Node7</title>
<polygon fill="white" stroke="#bfbfbf" points="216,-112.5 216,-131.5 266,-131.5 266,-112.5 216,-112.5"/>
<text text-anchor="middle" x="241" y="-119.5" font-family="Helvetica,sans-Serif" font-size="10.00">iomanip</text>
</g>
<!-- Node1&#45;&gt;Node7 -->
<g id="edge6" class="edge"><title>Node1&#45;&gt;Node7</title>
<path fill="none" stroke="midnightblue" d="M552.469,-175.627C485.853,-167.416 377.997,-152.772 276.026,-132.023"/>
<polygon fill="midnightblue" stroke="midnightblue" points="276.678,-128.584 266.178,-129.996 275.267,-135.44 276.678,-128.584"/>
</g>
<!-- Node8 -->
<g id="node8" class="node"><title>Node8</title>
<polygon fill="white" stroke="#bfbfbf" points="284,-112.5 284,-131.5 328,-131.5 328,-112.5 284,-112.5"/>
<text text-anchor="middle" x="306" y="-119.5" font-family="Helvetica,sans-Serif" font-size="10.00">vector</text>
</g>
<!-- Node1&#45;&gt;Node8 -->
<g id="edge7" class="edge"><title>Node1&#45;&gt;Node8</title>
<path fill="none" stroke="midnightblue" d="M552.459,-173.276C497.99,-164.511 417.277,-150.506 338.389,-132.142"/>
<polygon fill="midnightblue" stroke="midnightblue" points="338.815,-128.647 328.279,-129.762 337.211,-135.461 338.815,-128.647"/>
</g>
<!-- Node9 -->
<g id="node9" class="node"><title>Node9</title>
<polygon fill="white" stroke="#bfbfbf" points="346,-112.5 346,-131.5 402,-131.5 402,-112.5 346,-112.5"/>
<text text-anchor="middle" x="374" y="-119.5" font-family="Helvetica,sans-Serif" font-size="10.00">algorithm</text>
</g>
<!-- Node1&#45;&gt;Node9 -->
<g id="edge8" class="edge"><title>Node1&#45;&gt;Node9</title>
<path fill="none" stroke="midnightblue" d="M559.262,-168.933C513.896,-157.685 451.552,-142.228 412.015,-132.425"/>
<polygon fill="midnightblue" stroke="midnightblue" points="412.783,-129.01 402.235,-130 411.099,-135.804 412.783,-129.01"/>
</g>
<!-- Node10 -->
<g id="node10" class="node"><title>Node10</title>
<polygon fill="white" stroke="#bfbfbf" points="420,-112.5 420,-131.5 470,-131.5 470,-112.5 420,-112.5"/>
<text text-anchor="middle" x="445" y="-119.5" font-family="Helvetica,sans-Serif" font-size="10.00">fstream</text>
</g>
<!-- Node1&#45;&gt;Node10 -->
<g id="edge9" class="edge"><title>Node1&#45;&gt;Node10</title>
<path fill="none" stroke="midnightblue" d="M575.908,-168.933C546.455,-158.598 506.875,-144.711 478.972,-134.92"/>
<polygon fill="midnightblue" stroke="midnightblue" points="479.856,-131.521 469.261,-131.513 477.538,-138.126 479.856,-131.521"/>
</g>
<!-- Node11 -->
<g id="node11" class="node"><title>Node11</title>
<polygon fill="white" stroke="#bfbfbf" points="488.5,-112.5 488.5,-131.5 535.5,-131.5 535.5,-112.5 488.5,-112.5"/>
<text text-anchor="middle" x="512" y="-119.5" font-family="Helvetica,sans-Serif" font-size="10.00">math.h</text>
</g>
<!-- Node1&#45;&gt;Node11 -->
<g id="edge10" class="edge"><title>Node1&#45;&gt;Node11</title>
<path fill="none" stroke="midnightblue" d="M591.617,-168.933C574.854,-159.262 552.697,-146.479 536.015,-136.855"/>
<polygon fill="midnightblue" stroke="midnightblue" points="537.318,-133.566 526.907,-131.6 533.82,-139.629 537.318,-133.566"/>
</g>
<!-- Node12 -->
<g id="node12" class="node"><title>Node12</title>
<polygon fill="white" stroke="#bfbfbf" points="553.5,-112.5 553.5,-131.5 602.5,-131.5 602.5,-112.5 553.5,-112.5"/>
<text text-anchor="middle" x="578" y="-119.5" font-family="Helvetica,sans-Serif" font-size="10.00">string.h</text>
</g>
<!-- Node1&#45;&gt;Node12 -->
<g id="edge11" class="edge"><title>Node1&#45;&gt;Node12</title>
<path fill="none" stroke="midnightblue" d="M606.995,-168.781C601.587,-160.242 594.668,-149.318 588.946,-140.283"/>
<polygon fill="midnightblue" stroke="midnightblue" points="591.837,-138.306 583.529,-131.731 585.923,-142.051 591.837,-138.306"/>
</g>
<!-- Node13 -->
<g id="node13" class="node"><title>Node13</title>
<g id="a_node13"><a xlink:href="../../d4/da1/GlobalUtil_8h.html" target="_top" xlink:title="GlobalUtil.h">
<polygon fill="white" stroke="black" points="621,-112.5 621,-131.5 689,-131.5 689,-112.5 621,-112.5"/>
<text text-anchor="middle" x="655" y="-119.5" font-family="Helvetica,sans-Serif" font-size="10.00">GlobalUtil.h</text>
</a>
</g>
</g>
<!-- Node1&#45;&gt;Node13 -->
<g id="edge12" class="edge"><title>Node1&#45;&gt;Node13</title>
<path fill="none" stroke="midnightblue" d="M625.242,-168.781C630.793,-160.242 637.893,-149.318 643.766,-140.283"/>
<polygon fill="midnightblue" stroke="midnightblue" points="646.81,-142.022 649.325,-131.731 640.941,-138.208 646.81,-142.022"/>
</g>
<!-- Node14 -->
<g id="node14" class="node"><title>Node14</title>
<g id="a_node14"><a xlink:href="../../d5/d29/GLTexImage_8h.html" target="_top" xlink:title="GLTexImage.h">
<polygon fill="white" stroke="black" points="707.5,-112.5 707.5,-131.5 788.5,-131.5 788.5,-112.5 707.5,-112.5"/>
<text text-anchor="middle" x="748" y="-119.5" font-family="Helvetica,sans-Serif" font-size="10.00">GLTexImage.h</text>
</a>
</g>
</g>
<!-- Node1&#45;&gt;Node14 -->
<g id="edge13" class="edge"><title>Node1&#45;&gt;Node14</title>
<path fill="none" stroke="midnightblue" d="M646.948,-168.933C669.019,-158.9 698.458,-145.519 719.865,-135.789"/>
<polygon fill="midnightblue" stroke="midnightblue" points="721.425,-138.924 729.08,-131.6 718.528,-132.552 721.425,-138.924"/>
</g>
<!-- Node15 -->
<g id="node15" class="node"><title>Node15</title>
<g id="a_node15"><a xlink:href="../../d2/d17/SiftGPU_8h.html" target="_top" xlink:title="SiftGPU.h">
<polygon fill="white" stroke="black" points="807,-112.5 807,-131.5 869,-131.5 869,-112.5 807,-112.5"/>
<text text-anchor="middle" x="838" y="-119.5" font-family="Helvetica,sans-Serif" font-size="10.00">SiftGPU.h</text>
</a>
</g>
</g>
<!-- Node1&#45;&gt;Node15 -->
<g id="edge14" class="edge"><title>Node1&#45;&gt;Node15</title>
<path fill="none" stroke="midnightblue" d="M668.049,-168.933C707.409,-158.295 760.701,-143.892 797.048,-134.068"/>
<polygon fill="midnightblue" stroke="midnightblue" points="798.084,-137.414 806.825,-131.426 796.258,-130.656 798.084,-137.414"/>
</g>
<!-- Node16 -->
<g id="node16" class="node"><title>Node16</title>
<g id="a_node16"><a xlink:href="../../da/d8e/ShaderMan_8h.html" target="_top" xlink:title="ShaderMan.h">
<polygon fill="white" stroke="black" points="887,-112.5 887,-131.5 961,-131.5 961,-112.5 887,-112.5"/>
<text text-anchor="middle" x="924" y="-119.5" font-family="Helvetica,sans-Serif" font-size="10.00">ShaderMan.h</text>
</a>
</g>
</g>
<!-- Node1&#45;&gt;Node16 -->
<g id="edge15" class="edge"><title>Node1&#45;&gt;Node16</title>
<path fill="none" stroke="midnightblue" d="M679.818,-170.568C738.46,-159.144 824.039,-142.473 876.758,-132.203"/>
<polygon fill="midnightblue" stroke="midnightblue" points="877.699,-135.585 886.846,-130.238 876.361,-128.715 877.699,-135.585"/>
</g>
<!-- Node18 -->
<g id="node18" class="node"><title>Node18</title>
<g id="a_node18"><a xlink:href="../../d9/db5/ProgramGLSL_8h.html" target="_top" xlink:title="ProgramGLSL.h">
<polygon fill="white" stroke="black" points="946,-56.5 946,-75.5 1032,-75.5 1032,-56.5 946,-56.5"/>
<text text-anchor="middle" x="989" y="-63.5" font-family="Helvetica,sans-Serif" font-size="10.00">ProgramGLSL.h</text>
</a>
</g>
</g>
<!-- Node1&#45;&gt;Node18 -->
<g id="edge20" class="edge"><title>Node1&#45;&gt;Node18</title>
<path fill="none" stroke="midnightblue" d="M679.54,-181.881C769.489,-178.99 927.735,-168.678 970,-132 983.161,-120.579 987.451,-100.594 988.731,-85.7899"/>
<polygon fill="midnightblue" stroke="midnightblue" points="992.231,-85.8649 989.22,-75.7071 985.24,-85.5259 992.231,-85.8649"/>
</g>
<!-- Node19 -->
<g id="node19" class="node"><title>Node19</title>
<g id="a_node19"><a xlink:href="../../d1/d65/SiftPyramid_8h.html" target="_top" xlink:title="SiftPyramid.h">
<polygon fill="white" stroke="black" points="1017,-112.5 1017,-131.5 1093,-131.5 1093,-112.5 1017,-112.5"/>
<text text-anchor="middle" x="1055" y="-119.5" font-family="Helvetica,sans-Serif" font-size="10.00">SiftPyramid.h</text>
</a>
</g>
</g>
<!-- Node1&#45;&gt;Node19 -->
<g id="edge19" class="edge"><title>Node1&#45;&gt;Node19</title>
<path fill="none" stroke="midnightblue" d="M679.798,-175.393C756.604,-166.05 889.443,-149.302 1003,-132 1004.27,-131.806 1005.56,-131.606 1006.87,-131.402"/>
<polygon fill="midnightblue" stroke="midnightblue" points="1007.66,-134.818 1016.97,-129.764 1006.54,-127.908 1007.66,-134.818"/>
</g>
<!-- Node20 -->
<g id="node20" class="node"><title>Node20</title>
<g id="a_node20"><a xlink:href="../../d4/dc4/PyramidGL_8h.html" target="_top" xlink:title="PyramidGL.h">
<polygon fill="white" stroke="black" points="1111,-112.5 1111,-131.5 1185,-131.5 1185,-112.5 1111,-112.5"/>
<text text-anchor="middle" x="1148" y="-119.5" font-family="Helvetica,sans-Serif" font-size="10.00">PyramidGL.h</text>
</a>
</g>
</g>
<!-- Node1&#45;&gt;Node20 -->
<g id="edge21" class="edge"><title>Node1&#45;&gt;Node20</title>
<path fill="none" stroke="midnightblue" d="M679.526,-178.142C770.559,-170.78 943.554,-155.304 1100.57,-132.093"/>
<polygon fill="midnightblue" stroke="midnightblue" points="1101.52,-135.491 1110.89,-130.553 1100.48,-128.568 1101.52,-135.491"/>
</g>
<!-- Node21 -->
<g id="node21" class="node"><title>Node21</title>
<g id="a_node21"><a xlink:href="../../d5/d32/FrameBufferObject_8h.html" target="_top" xlink:title="FrameBufferObject.h">
<polygon fill="white" stroke="black" points="1203.5,-112.5 1203.5,-131.5 1310.5,-131.5 1310.5,-112.5 1203.5,-112.5"/>
<text text-anchor="middle" x="1257" y="-119.5" font-family="Helvetica,sans-Serif" font-size="10.00">FrameBufferObject.h</text>
</a>
</g>
</g>
<!-- Node1&#45;&gt;Node21 -->
<g id="edge22" class="edge"><title>Node1&#45;&gt;Node21</title>
<path fill="none" stroke="midnightblue" d="M679.833,-178.498C784.669,-170.855 1000.09,-154.105 1193.35,-132.013"/>
<polygon fill="midnightblue" stroke="midnightblue" points="1193.87,-135.476 1203.41,-130.856 1193.07,-128.522 1193.87,-135.476"/>
</g>
<!-- Node3 -->
<g id="node3" class="node"><title>Node3</title>
<polygon fill="white" stroke="#bfbfbf" points="0,-56.5 0,-75.5 52,-75.5 52,-56.5 0,-56.5"/>
<text text-anchor="middle" x="26" y="-63.5" font-family="Helvetica,sans-Serif" font-size="10.00">stddef.h</text>
</g>
<!-- Node2&#45;&gt;Node3 -->
<g id="edge2" class="edge"><title>Node2&#45;&gt;Node3</title>
<path fill="none" stroke="midnightblue" d="M83.914,-112.324C73.514,-104.185 57.7394,-91.8395 45.2784,-82.0874"/>
<polygon fill="midnightblue" stroke="midnightblue" points="47.3199,-79.2407 37.2878,-75.8339 43.0057,-84.7533 47.3199,-79.2407"/>
</g>
<!-- Node4 -->
<g id="node4" class="node"><title>Node4</title>
<polygon fill="white" stroke="#bfbfbf" points="70.5,-56.5 70.5,-75.5 119.5,-75.5 119.5,-56.5 70.5,-56.5"/>
<text text-anchor="middle" x="95" y="-63.5" font-family="Helvetica,sans-Serif" font-size="10.00">stdint.h</text>
</g>
<!-- Node2&#45;&gt;Node4 -->
<g id="edge3" class="edge"><title>Node2&#45;&gt;Node4</title>
<path fill="none" stroke="midnightblue" d="M95,-112.083C95,-105.006 95,-94.8611 95,-85.9865"/>
<polygon fill="midnightblue" stroke="midnightblue" points="98.5001,-85.751 95,-75.7511 91.5001,-85.7511 98.5001,-85.751"/>
</g>
<!-- Node5 -->
<g id="node5" class="node"><title>Node5</title>
<polygon fill="white" stroke="#bfbfbf" points="137.5,-56.5 137.5,-75.5 190.5,-75.5 190.5,-56.5 137.5,-56.5"/>
<text text-anchor="middle" x="164" y="-63.5" font-family="Helvetica,sans-Serif" font-size="10.00">GL/glu.h</text>
</g>
<!-- Node2&#45;&gt;Node5 -->
<g id="edge4" class="edge"><title>Node2&#45;&gt;Node5</title>
<path fill="none" stroke="midnightblue" d="M106.086,-112.324C116.486,-104.185 132.261,-91.8395 144.722,-82.0874"/>
<polygon fill="midnightblue" stroke="midnightblue" points="146.994,-84.7533 152.712,-75.8339 142.68,-79.2407 146.994,-84.7533"/>
</g>
<!-- Node17 -->
<g id="node17" class="node"><title>Node17</title>
<g id="a_node17"><a xlink:href="../../d8/d9b/ProgramGPU_8h.html" target="_top" xlink:title="ProgramGPU.h">
<polygon fill="white" stroke="black" points="911.5,-0.5 911.5,-19.5 994.5,-19.5 994.5,-0.5 911.5,-0.5"/>
<text text-anchor="middle" x="953" y="-7.5" font-family="Helvetica,sans-Serif" font-size="10.00">ProgramGPU.h</text>
</a>
</g>
</g>
<!-- Node16&#45;&gt;Node17 -->
<g id="edge16" class="edge"><title>Node16&#45;&gt;Node17</title>
<path fill="none" stroke="midnightblue" d="M925.299,-112.495C927.298,-99.9904 931.485,-75.967 937,-56 939.487,-46.9974 942.883,-37.205 945.906,-29.0608"/>
<polygon fill="midnightblue" stroke="midnightblue" points="949.256,-30.0995 949.559,-19.509 942.718,-27.5992 949.256,-30.0995"/>
</g>
<!-- Node16&#45;&gt;Node18 -->
<g id="edge17" class="edge"><title>Node16&#45;&gt;Node18</title>
<path fill="none" stroke="midnightblue" d="M934.443,-112.324C944.146,-104.263 958.815,-92.0765 970.5,-82.3695"/>
<polygon fill="midnightblue" stroke="midnightblue" points="972.911,-84.9163 978.367,-75.8339 968.438,-79.532 972.911,-84.9163"/>
</g>
<!-- Node18&#45;&gt;Node17 -->
<g id="edge18" class="edge"><title>Node18&#45;&gt;Node17</title>
<path fill="none" stroke="midnightblue" d="M983.055,-56.083C978.023,-48.5341 970.663,-37.4948 964.487,-28.2298"/>
<polygon fill="midnightblue" stroke="midnightblue" points="967.293,-26.1301 958.834,-19.7511 961.469,-30.0131 967.293,-26.1301"/>
</g>
</g>
</svg>
