<?xml version="1.0" encoding="UTF-8" standalone="no"?>
<!DOCTYPE svg PUBLIC "-//W3C//DTD SVG 1.1//EN"
 "http://www.w3.org/Graphics/SVG/1.1/DTD/svg11.dtd">
<!-- Generated by graphviz version 2.36.0 (20140111.2315)
 -->
<!-- Title: src/util/EigenCoreInclude.h Pages: 1 -->
<!--zoomable 220 -->
<svg id="main" version="1.1" xmlns="http://www.w3.org/2000/svg" xmlns:xlink="http://www.w3.org/1999/xlink" xml:space="preserve" onload="init(evt)">
<style type="text/css"><![CDATA[
.edge:hover path { stroke: red; }
.edge:hover polygon { stroke: red; fill: red; }
]]></style>
<script type="text/javascript"><![CDATA[
var edges = document.getElementsByTagName('g');
if (edges && edges.length) {
  for (var i=0;i<edges.length;i++) {
    if (edges[i].id.substr(0,4)=='edge') {
      edges[i].setAttribute('class','edge');
    }
  }
}
]]></script>
        <defs>
                <circle id="rim" cx="0" cy="0" r="7"/>
                <circle id="rim2" cx="0" cy="0" r="3.5"/>
                <g id="zoomPlus">
                        <use xlink:href="#rim" fill="#404040">
                                <set attributeName="fill" to="#808080" begin="zoomplus.mouseover" end="zoomplus.mouseout"/>
                        </use>
                        <path d="M-4,0h8M0,-4v8" fill="none" stroke="white" stroke-width="1.5" pointer-events="none"/>
                </g>
                <g id="zoomMin">
                        <use xlink:href="#rim" fill="#404040">
                                <set attributeName="fill" to="#808080" begin="zoomminus.mouseover" end="zoomminus.mouseout"/>
                        </use>
                        <path d="M-4,0h8" fill="none" stroke="white" stroke-width="1.5" pointer-events="none"/>
                </g>
                <g id="dirArrow">
                        <path fill="none" stroke="white" stroke-width="1.5" d="M0,-3.0v7 M-2.5,-0.5L0,-3.0L2.5,-0.5"/>
                </g>
               <g id="resetDef">
                       <use xlink:href="#rim2" fill="#404040">
                               <set attributeName="fill" to="#808080" begin="reset.mouseover" end="reset.mouseout"/>
                       </use>
               </g>
        </defs>

<script type="text/javascript">
var viewWidth = 1720;
var viewHeight = 220;
var sectionId = 'dynsection-1';
</script>
<script xlink:href="../../svgpan.js"/>
<svg id="graph" class="graph">
<g id="viewport">
<title>src/util/EigenCoreInclude.h</title>
<polygon fill="white" stroke="none" points="-4,4 -4,-216 1716,-216 1716,4 -4,4"/>
<!-- Node1 -->
<g id="node1" class="node"><title>Node1</title>
<polygon fill="#bfbfbf" stroke="black" points="1079,-192.5 1079,-211.5 1213,-211.5 1213,-192.5 1079,-192.5"/>
<text text-anchor="middle" x="1146" y="-199.5" font-family="Helvetica,sans-Serif" font-size="10.00">src/util/EigenCoreInclude.h</text>
</g>
<!-- Node2 -->
<g id="node2" class="node"><title>Node2</title>
<g id="a_node2"><a xlink:href="../../de/dbe/DepthMap_8h.html" target="_top" xlink:title="src/DepthEstimation\l/DepthMap.h">
<polygon fill="white" stroke="black" points="940,-69 940,-99 1046,-99 1046,-69 940,-69"/>
<text text-anchor="start" x="948" y="-87" font-family="Helvetica,sans-Serif" font-size="10.00">src/DepthEstimation</text>
<text text-anchor="middle" x="993" y="-76" font-family="Helvetica,sans-Serif" font-size="10.00">/DepthMap.h</text>
</a>
</g>
</g>
<!-- Node1&#45;&gt;Node2 -->
<g id="edge1" class="edge"><title>Node1&#45;&gt;Node2</title>
<path fill="none" stroke="midnightblue" d="M1126.16,-185.957C1096.4,-163.397 1040.62,-121.106 1011.61,-99.1061"/>
<polygon fill="midnightblue" stroke="midnightblue" points="1124.42,-189.029 1134.5,-192.281 1128.65,-183.45 1124.42,-189.029"/>
</g>
<!-- Node5 -->
<g id="node5" class="node"><title>Node5</title>
<g id="a_node5"><a xlink:href="../../d9/dab/DepthMapPixelHypothesis_8h.html" target="_top" xlink:title="src/DepthEstimation\l/DepthMapPixelHypothesis.h">
<polygon fill="white" stroke="black" points="664,-69 664,-99 808,-99 808,-69 664,-69"/>
<text text-anchor="start" x="672" y="-87" font-family="Helvetica,sans-Serif" font-size="10.00">src/DepthEstimation</text>
<text text-anchor="middle" x="736" y="-76" font-family="Helvetica,sans-Serif" font-size="10.00">/DepthMapPixelHypothesis.h</text>
</a>
</g>
</g>
<!-- Node1&#45;&gt;Node5 -->
<g id="edge4" class="edge"><title>Node1&#45;&gt;Node5</title>
<path fill="none" stroke="midnightblue" d="M1105.81,-189.628C1030.39,-168.291 867.895,-122.317 785.731,-99.0702"/>
<polygon fill="midnightblue" stroke="midnightblue" points="1105.28,-193.116 1115.85,-192.47 1107.18,-186.38 1105.28,-193.116"/>
</g>
<!-- Node9 -->
<g id="node9" class="node"><title>Node9</title>
<g id="a_node9"><a xlink:href="../../dc/d3b/KeyFrameGraph_8h.html" target="_top" xlink:title="src/GlobalMapping/KeyFrame\lGraph.h">
<polygon fill="white" stroke="black" points="500,-69 500,-99 646,-99 646,-69 500,-69"/>
<text text-anchor="start" x="508" y="-87" font-family="Helvetica,sans-Serif" font-size="10.00">src/GlobalMapping/KeyFrame</text>
<text text-anchor="middle" x="573" y="-76" font-family="Helvetica,sans-Serif" font-size="10.00">Graph.h</text>
</a>
</g>
</g>
<!-- Node1&#45;&gt;Node9 -->
<g id="edge9" class="edge"><title>Node1&#45;&gt;Node9</title>
<path fill="none" stroke="midnightblue" d="M1090.84,-190.589C1043.59,-181.615 973.773,-168.213 913,-156 817.523,-136.812 707.197,-113.577 638.755,-99.0378"/>
<polygon fill="midnightblue" stroke="midnightblue" points="1090.38,-194.065 1100.86,-192.49 1091.69,-187.187 1090.38,-194.065"/>
</g>
<!-- Node13 -->
<g id="node13" class="node"><title>Node13</title>
<g id="a_node13"><a xlink:href="../../d6/de5/SE3Tracker_8h.html" target="_top" xlink:title="src/Tracking/SE3Tracker.h">
<polygon fill="white" stroke="black" points="1246,-74.5 1246,-93.5 1380,-93.5 1380,-74.5 1246,-74.5"/>
<text text-anchor="middle" x="1313" y="-81.5" font-family="Helvetica,sans-Serif" font-size="10.00">src/Tracking/SE3Tracker.h</text>
</a>
</g>
</g>
<!-- Node1&#45;&gt;Node13 -->
<g id="edge17" class="edge"><title>Node1&#45;&gt;Node13</title>
<path fill="none" stroke="midnightblue" d="M1166.83,-186.532C1202.06,-162.062 1272.33,-113.247 1300.7,-93.5423"/>
<polygon fill="midnightblue" stroke="midnightblue" points="1164.5,-183.891 1158.28,-192.47 1168.49,-189.64 1164.5,-183.891"/>
</g>
<!-- Node16 -->
<g id="node16" class="node"><title>Node16</title>
<g id="a_node16"><a xlink:href="../../dd/dc0/Sim3Tracker_8h.html" target="_top" xlink:title="src/Tracking/Sim3Tracker.h">
<polygon fill="white" stroke="black" points="1474.5,-74.5 1474.5,-93.5 1611.5,-93.5 1611.5,-74.5 1474.5,-74.5"/>
<text text-anchor="middle" x="1543" y="-81.5" font-family="Helvetica,sans-Serif" font-size="10.00">src/Tracking/Sim3Tracker.h</text>
</a>
</g>
</g>
<!-- Node1&#45;&gt;Node16 -->
<g id="edge22" class="edge"><title>Node1&#45;&gt;Node16</title>
<path fill="none" stroke="midnightblue" d="M1223.14,-195.929C1305.14,-189.557 1428.7,-176.853 1471,-156 1500.92,-141.252 1526.09,-109.286 1537.08,-93.7834"/>
<polygon fill="midnightblue" stroke="midnightblue" points="1222.81,-192.444 1213.11,-196.694 1223.35,-199.424 1222.81,-192.444"/>
</g>
<!-- Node18 -->
<g id="node18" class="node"><title>Node18</title>
<g id="a_node18"><a xlink:href="../../d0/db3/TrackingReference_8h.html" target="_top" xlink:title="src/Tracking/TrackingReference.h">
<polygon fill="white" stroke="black" points="1064,-74.5 1064,-93.5 1228,-93.5 1228,-74.5 1064,-74.5"/>
<text text-anchor="middle" x="1146" y="-81.5" font-family="Helvetica,sans-Serif" font-size="10.00">src/Tracking/TrackingReference.h</text>
</a>
</g>
</g>
<!-- Node1&#45;&gt;Node18 -->
<g id="edge25" class="edge"><title>Node1&#45;&gt;Node18</title>
<path fill="none" stroke="midnightblue" d="M1146,-182.025C1146,-156.464 1146,-112.041 1146,-93.5048"/>
<polygon fill="midnightblue" stroke="midnightblue" points="1142.5,-182.281 1146,-192.281 1149.5,-182.281 1142.5,-182.281"/>
</g>
<!-- Node19 -->
<g id="node19" class="node"><title>Node19</title>
<g id="a_node19"><a xlink:href="../../dd/d76/LGSX_8h.html" target="_top" xlink:title="src/Tracking/LGSX.h">
<polygon fill="white" stroke="black" points="1354,-136.5 1354,-155.5 1462,-155.5 1462,-136.5 1354,-136.5"/>
<text text-anchor="middle" x="1408" y="-143.5" font-family="Helvetica,sans-Serif" font-size="10.00">src/Tracking/LGSX.h</text>
</a>
</g>
</g>
<!-- Node1&#45;&gt;Node19 -->
<g id="edge31" class="edge"><title>Node1&#45;&gt;Node19</title>
<path fill="none" stroke="midnightblue" d="M1197.38,-190.41C1246.9,-180.204 1320.86,-164.96 1366.68,-155.516"/>
<polygon fill="midnightblue" stroke="midnightblue" points="1196.6,-186.997 1187.51,-192.444 1198.02,-193.853 1196.6,-186.997"/>
</g>
<!-- Node3 -->
<g id="node3" class="node"><title>Node3</title>
<g id="a_node3"><a xlink:href="../../d8/d5e/DepthMap_8cpp.html" target="_top" xlink:title="src/DepthEstimation\l/DepthMap.cpp">
<polygon fill="white" stroke="black" points="520,-1 520,-31 626,-31 626,-1 520,-1"/>
<text text-anchor="start" x="528" y="-19" font-family="Helvetica,sans-Serif" font-size="10.00">src/DepthEstimation</text>
<text text-anchor="middle" x="573" y="-8" font-family="Helvetica,sans-Serif" font-size="10.00">/DepthMap.cpp</text>
</a>
</g>
</g>
<!-- Node2&#45;&gt;Node3 -->
<g id="edge2" class="edge"><title>Node2&#45;&gt;Node3</title>
<path fill="none" stroke="midnightblue" d="M929.735,-75.8479C857.958,-67.3029 737.548,-51.6625 635,-32 632.063,-31.4369 629.057,-30.8258 626.027,-30.183"/>
<polygon fill="midnightblue" stroke="midnightblue" points="929.623,-79.3589 939.964,-77.0568 930.444,-72.4073 929.623,-79.3589"/>
</g>
<!-- Node4 -->
<g id="node4" class="node"><title>Node4</title>
<g id="a_node4"><a xlink:href="../../de/dce/SlamSystem_8cpp.html" target="_top" xlink:title="src/SlamSystem.cpp">
<polygon fill="white" stroke="black" points="1116,-6.5 1116,-25.5 1224,-25.5 1224,-6.5 1116,-6.5"/>
<text text-anchor="middle" x="1170" y="-13.5" font-family="Helvetica,sans-Serif" font-size="10.00">src/SlamSystem.cpp</text>
</a>
</g>
</g>
<!-- Node2&#45;&gt;Node4 -->
<g id="edge3" class="edge"><title>Node2&#45;&gt;Node4</title>
<path fill="none" stroke="midnightblue" d="M1040.39,-65.329C1074.88,-52.4687 1120.08,-35.6153 1146.97,-25.5868"/>
<polygon fill="midnightblue" stroke="midnightblue" points="1039.12,-62.068 1030.97,-68.8413 1041.56,-68.6269 1039.12,-62.068"/>
</g>
<!-- Node5&#45;&gt;Node3 -->
<g id="edge6" class="edge"><title>Node5&#45;&gt;Node3</title>
<path fill="none" stroke="midnightblue" d="M691.622,-65.0308C665.188,-54.3276 632.129,-40.9417 607.63,-31.0218"/>
<polygon fill="midnightblue" stroke="midnightblue" points="690.45,-68.3323 701.032,-68.8413 693.077,-61.844 690.45,-68.3323"/>
</g>
<!-- Node6 -->
<g id="node6" class="node"><title>Node6</title>
<g id="a_node6"><a xlink:href="../../d5/de0/Frame_8cpp.html" target="_top" xlink:title="src/DataStructures\l/Frame.cpp">
<polygon fill="white" stroke="black" points="837.5,-1 837.5,-31 936.5,-31 936.5,-1 837.5,-1"/>
<text text-anchor="start" x="845.5" y="-19" font-family="Helvetica,sans-Serif" font-size="10.00">src/DataStructures</text>
<text text-anchor="middle" x="887" y="-8" font-family="Helvetica,sans-Serif" font-size="10.00">/Frame.cpp</text>
</a>
</g>
</g>
<!-- Node5&#45;&gt;Node6 -->
<g id="edge5" class="edge"><title>Node5&#45;&gt;Node6</title>
<path fill="none" stroke="midnightblue" d="M777.757,-64.7485C802.136,-54.093 832.423,-40.8547 854.92,-31.0218"/>
<polygon fill="midnightblue" stroke="midnightblue" points="776.154,-61.6292 768.393,-68.8413 778.958,-68.0433 776.154,-61.6292"/>
</g>
<!-- Node7 -->
<g id="node7" class="node"><title>Node7</title>
<g id="a_node7"><a xlink:href="../../d5/dd0/DepthMapPixelHypothesis_8cpp.html" target="_top" xlink:title="src/DepthEstimation\l/DepthMapPixelHypothesis.cpp">
<polygon fill="white" stroke="black" points="346.5,-1 346.5,-31 501.5,-31 501.5,-1 346.5,-1"/>
<text text-anchor="start" x="354.5" y="-19" font-family="Helvetica,sans-Serif" font-size="10.00">src/DepthEstimation</text>
<text text-anchor="middle" x="424" y="-8" font-family="Helvetica,sans-Serif" font-size="10.00">/DepthMapPixelHypothesis.cpp</text>
</a>
</g>
</g>
<!-- Node5&#45;&gt;Node7 -->
<g id="edge7" class="edge"><title>Node5&#45;&gt;Node7</title>
<path fill="none" stroke="midnightblue" d="M659.643,-66.8476C607.838,-55.8889 540.02,-41.5428 490.447,-31.0561"/>
<polygon fill="midnightblue" stroke="midnightblue" points="658.943,-70.2769 669.451,-68.9223 660.392,-63.4284 658.943,-70.2769"/>
</g>
<!-- Node8 -->
<g id="node8" class="node"><title>Node8</title>
<g id="a_node8"><a xlink:href="../../de/db1/TrackingReference_8cpp.html" target="_top" xlink:title="src/Tracking/TrackingReference.cpp">
<polygon fill="white" stroke="black" points="644.5,-6.5 644.5,-25.5 819.5,-25.5 819.5,-6.5 644.5,-6.5"/>
<text text-anchor="middle" x="732" y="-13.5" font-family="Helvetica,sans-Serif" font-size="10.00">src/Tracking/TrackingReference.cpp</text>
</a>
</g>
</g>
<!-- Node5&#45;&gt;Node8 -->
<g id="edge8" class="edge"><title>Node5&#45;&gt;Node8</title>
<path fill="none" stroke="midnightblue" d="M734.508,-58.3764C733.816,-46.9711 733.039,-34.1364 732.535,-25.8283"/>
<polygon fill="midnightblue" stroke="midnightblue" points="731.033,-58.9091 735.132,-68.679 738.021,-58.4855 731.033,-58.9091"/>
</g>
<!-- Node9&#45;&gt;Node3 -->
<g id="edge10" class="edge"><title>Node9&#45;&gt;Node3</title>
<path fill="none" stroke="midnightblue" d="M573,-58.5322C573,-49.3606 573,-39.2449 573,-31.2931"/>
<polygon fill="midnightblue" stroke="midnightblue" points="569.5,-58.6789 573,-68.679 576.5,-58.679 569.5,-58.6789"/>
</g>
<!-- Node9&#45;&gt;Node4 -->
<g id="edge15" class="edge"><title>Node9&#45;&gt;Node4</title>
<path fill="none" stroke="midnightblue" d="M656.2,-67.9347C856.122,-42.5433 910.528,-62.5305 1106,-32 1116.49,-30.3622 1127.8,-27.9347 1137.96,-25.5075"/>
<polygon fill="midnightblue" stroke="midnightblue" points="655.729,-64.4664 646.26,-69.2191 656.626,-71.4087 655.729,-64.4664"/>
</g>
<!-- Node9&#45;&gt;Node7 -->
<g id="edge11" class="edge"><title>Node9&#45;&gt;Node7</title>
<path fill="none" stroke="midnightblue" d="M531.796,-64.7485C507.74,-54.093 477.854,-40.8547 455.655,-31.0218"/>
<polygon fill="midnightblue" stroke="midnightblue" points="530.475,-67.9914 541.036,-68.8413 533.31,-61.5912 530.475,-67.9914"/>
</g>
<!-- Node9&#45;&gt;Node8 -->
<g id="edge16" class="edge"><title>Node9&#45;&gt;Node8</title>
<path fill="none" stroke="midnightblue" d="M616.739,-64.8444C647.468,-52.0889 687.202,-35.5955 711.085,-25.6819"/>
<polygon fill="midnightblue" stroke="midnightblue" points="615.004,-61.7749 607.109,-68.8413 617.687,-68.2401 615.004,-61.7749"/>
</g>
<!-- Node10 -->
<g id="node10" class="node"><title>Node10</title>
<g id="a_node10"><a xlink:href="../../d7/d84/KeyFrameGraph_8cpp.html" target="_top" xlink:title="src/GlobalMapping/KeyFrame\lGraph.cpp">
<polygon fill="white" stroke="black" points="0,-1 0,-31 146,-31 146,-1 0,-1"/>
<text text-anchor="start" x="8" y="-19" font-family="Helvetica,sans-Serif" font-size="10.00">src/GlobalMapping/KeyFrame</text>
<text text-anchor="middle" x="73" y="-8" font-family="Helvetica,sans-Serif" font-size="10.00">Graph.cpp</text>
</a>
</g>
</g>
<!-- Node9&#45;&gt;Node10 -->
<g id="edge12" class="edge"><title>Node9&#45;&gt;Node10</title>
<path fill="none" stroke="midnightblue" d="M489.901,-74.3352C405.407,-65.1791 270.809,-49.6412 155,-32 152.139,-31.5641 149.224,-31.1048 146.281,-30.6283"/>
<polygon fill="midnightblue" stroke="midnightblue" points="489.635,-77.8267 499.952,-75.4199 490.386,-70.8671 489.635,-77.8267"/>
</g>
<!-- Node11 -->
<g id="node11" class="node"><title>Node11</title>
<g id="a_node11"><a xlink:href="../../d3/dd3/TrackableKeyFrameSearch_8cpp.html" target="_top" xlink:title="src/GlobalMapping/Trackable\lKeyFrameSearch.cpp">
<polygon fill="white" stroke="black" points="954.5,-1 954.5,-31 1097.5,-31 1097.5,-1 954.5,-1"/>
<text text-anchor="start" x="962.5" y="-19" font-family="Helvetica,sans-Serif" font-size="10.00">src/GlobalMapping/Trackable</text>
<text text-anchor="middle" x="1026" y="-8" font-family="Helvetica,sans-Serif" font-size="10.00">KeyFrameSearch.cpp</text>
</a>
</g>
</g>
<!-- Node9&#45;&gt;Node11 -->
<g id="edge13" class="edge"><title>Node9&#45;&gt;Node11</title>
<path fill="none" stroke="midnightblue" d="M656.528,-67.821C785.127,-48.4707 819.904,-51.3299 945,-32 948.109,-31.5195 951.283,-31.0109 954.486,-30.4824"/>
<polygon fill="midnightblue" stroke="midnightblue" points="655.642,-64.4153 646.282,-69.3793 656.695,-71.3357 655.642,-64.4153"/>
</g>
<!-- Node12 -->
<g id="node12" class="node"><title>Node12</title>
<g id="a_node12"><a xlink:href="../../d5/d46/ROSOutput3DWrapper_8cpp.html" target="_top" xlink:title="src/IOWrapper/ROS/ROSOutput3\lDWrapper.cpp">
<polygon fill="white" stroke="black" points="164,-1 164,-31 328,-31 328,-1 164,-1"/>
<text text-anchor="start" x="172" y="-19" font-family="Helvetica,sans-Serif" font-size="10.00">src/IOWrapper/ROS/ROSOutput3</text>
<text text-anchor="middle" x="246" y="-8" font-family="Helvetica,sans-Serif" font-size="10.00">DWrapper.cpp</text>
</a>
</g>
</g>
<!-- Node9&#45;&gt;Node12 -->
<g id="edge14" class="edge"><title>Node9&#45;&gt;Node12</title>
<path fill="none" stroke="midnightblue" d="M493.311,-66.9159C438.972,-55.9485 367.706,-41.5646 315.641,-31.0561"/>
<polygon fill="midnightblue" stroke="midnightblue" points="492.757,-70.3746 503.251,-68.9223 494.142,-63.5129 492.757,-70.3746"/>
</g>
<!-- Node13&#45;&gt;Node4 -->
<g id="edge19" class="edge"><title>Node13&#45;&gt;Node4</title>
<path fill="none" stroke="midnightblue" d="M1284.91,-70.0346C1256.45,-56.898 1213.22,-36.9463 1188.7,-25.6305"/>
<polygon fill="midnightblue" stroke="midnightblue" points="1283.76,-73.3589 1294.31,-74.3717 1286.69,-67.0032 1283.76,-73.3589"/>
</g>
<!-- Node13&#45;&gt;Node11 -->
<g id="edge18" class="edge"><title>Node13&#45;&gt;Node11</title>
<path fill="none" stroke="midnightblue" d="M1265.78,-72.1421C1216.92,-60.9049 1140.4,-43.3083 1086.99,-31.0247"/>
<polygon fill="midnightblue" stroke="midnightblue" points="1265.24,-75.6091 1275.77,-74.4393 1266.81,-68.7871 1265.24,-75.6091"/>
</g>
<!-- Node14 -->
<g id="node14" class="node"><title>Node14</title>
<g id="a_node14"><a xlink:href="../../d0/df5/Relocalizer_8cpp.html" target="_top" xlink:title="src/Tracking/Relocalizer.cpp">
<polygon fill="white" stroke="black" points="1242.5,-6.5 1242.5,-25.5 1383.5,-25.5 1383.5,-6.5 1242.5,-6.5"/>
<text text-anchor="middle" x="1313" y="-13.5" font-family="Helvetica,sans-Serif" font-size="10.00">src/Tracking/Relocalizer.cpp</text>
</a>
</g>
</g>
<!-- Node13&#45;&gt;Node14 -->
<g id="edge20" class="edge"><title>Node13&#45;&gt;Node14</title>
<path fill="none" stroke="midnightblue" d="M1313,-64.0413C1313,-51.4724 1313,-35.5631 1313,-25.8411"/>
<polygon fill="midnightblue" stroke="midnightblue" points="1309.5,-64.3716 1313,-74.3717 1316.5,-64.3717 1309.5,-64.3716"/>
</g>
<!-- Node15 -->
<g id="node15" class="node"><title>Node15</title>
<g id="a_node15"><a xlink:href="../../d6/d91/SE3Tracker_8cpp.html" target="_top" xlink:title="src/Tracking/SE3Tracker.cpp">
<polygon fill="white" stroke="black" points="1402,-6.5 1402,-25.5 1546,-25.5 1546,-6.5 1402,-6.5"/>
<text text-anchor="middle" x="1474" y="-13.5" font-family="Helvetica,sans-Serif" font-size="10.00">src/Tracking/SE3Tracker.cpp</text>
</a>
</g>
</g>
<!-- Node13&#45;&gt;Node15 -->
<g id="edge21" class="edge"><title>Node13&#45;&gt;Node15</title>
<path fill="none" stroke="midnightblue" d="M1343.4,-70.5361C1375.52,-57.3706 1425.29,-36.9673 1453.2,-25.5259"/>
<polygon fill="midnightblue" stroke="midnightblue" points="1341.97,-67.3401 1334.05,-74.3717 1344.63,-73.817 1341.97,-67.3401"/>
</g>
<!-- Node16&#45;&gt;Node4 -->
<g id="edge23" class="edge"><title>Node16&#45;&gt;Node4</title>
<path fill="none" stroke="midnightblue" d="M1473.13,-72.9478C1410.13,-63.5421 1315.06,-48.4973 1233,-32 1223.52,-30.0942 1213.3,-27.776 1203.91,-25.5377"/>
<polygon fill="midnightblue" stroke="midnightblue" points="1472.94,-76.4578 1483.34,-74.4655 1473.97,-69.5338 1472.94,-76.4578"/>
</g>
<!-- Node17 -->
<g id="node17" class="node"><title>Node17</title>
<g id="a_node17"><a xlink:href="../../d6/dec/Sim3Tracker_8cpp.html" target="_top" xlink:title="src/Tracking/Sim3Tracker.cpp">
<polygon fill="white" stroke="black" points="1564,-6.5 1564,-25.5 1712,-25.5 1712,-6.5 1564,-6.5"/>
<text text-anchor="middle" x="1638" y="-13.5" font-family="Helvetica,sans-Serif" font-size="10.00">src/Tracking/Sim3Tracker.cpp</text>
</a>
</g>
</g>
<!-- Node16&#45;&gt;Node17 -->
<g id="edge24" class="edge"><title>Node16&#45;&gt;Node17</title>
<path fill="none" stroke="midnightblue" d="M1563.68,-68.6336C1582.56,-55.5145 1609.86,-36.551 1625.58,-25.6305"/>
<polygon fill="midnightblue" stroke="midnightblue" points="1561.64,-65.7916 1555.42,-74.3717 1565.63,-71.5404 1561.64,-65.7916"/>
</g>
<!-- Node18&#45;&gt;Node4 -->
<g id="edge27" class="edge"><title>Node18&#45;&gt;Node4</title>
<path fill="none" stroke="midnightblue" d="M1152.62,-64.8066C1157.23,-52.1244 1163.18,-35.7615 1166.79,-25.8411"/>
<polygon fill="midnightblue" stroke="midnightblue" points="1149.27,-63.7776 1149.14,-74.3717 1155.84,-66.1698 1149.27,-63.7776"/>
</g>
<!-- Node18&#45;&gt;Node6 -->
<g id="edge26" class="edge"><title>Node18&#45;&gt;Node6</title>
<path fill="none" stroke="midnightblue" d="M1102.33,-71.9821C1061.61,-61.6915 999.174,-45.878 945,-32 942.28,-31.3031 939.488,-30.5864 936.67,-29.8617"/>
<polygon fill="midnightblue" stroke="midnightblue" points="1101.65,-75.4189 1112.2,-74.4748 1103.36,-68.6321 1101.65,-75.4189"/>
</g>
<!-- Node18&#45;&gt;Node8 -->
<g id="edge30" class="edge"><title>Node18&#45;&gt;Node8</title>
<path fill="none" stroke="midnightblue" d="M1084.02,-72.8556C1073.99,-71.2243 1063.71,-69.56 1054,-68 959.978,-52.8893 850.456,-35.6117 786.422,-25.5424"/>
<polygon fill="midnightblue" stroke="midnightblue" points="1083.51,-76.3187 1093.95,-74.4707 1084.64,-69.4096 1083.51,-76.3187"/>
</g>
<!-- Node18&#45;&gt;Node15 -->
<g id="edge28" class="edge"><title>Node18&#45;&gt;Node15</title>
<path fill="none" stroke="midnightblue" d="M1198.54,-72.4289C1263.23,-59.4116 1371.85,-37.5553 1431.53,-25.5455"/>
<polygon fill="midnightblue" stroke="midnightblue" points="1197.66,-69.0354 1188.54,-74.4393 1199.04,-75.8978 1197.66,-69.0354"/>
</g>
<!-- Node18&#45;&gt;Node17 -->
<g id="edge29" class="edge"><title>Node18&#45;&gt;Node17</title>
<path fill="none" stroke="midnightblue" d="M1205.08,-72.8152C1215.69,-71.113 1226.66,-69.436 1237,-68 1377.88,-48.4271 1414.27,-52.659 1555,-32 1567.6,-30.1496 1581.23,-27.8246 1593.72,-25.5611"/>
<polygon fill="midnightblue" stroke="midnightblue" points="1204.36,-69.3871 1195.05,-74.4479 1205.48,-76.2962 1204.36,-69.3871"/>
</g>
<!-- Node19&#45;&gt;Node13 -->
<g id="edge32" class="edge"><title>Node19&#45;&gt;Node13</title>
<path fill="none" stroke="midnightblue" d="M1385.79,-130.97C1367.45,-119.391 1342.02,-103.331 1326.59,-93.5806"/>
<polygon fill="midnightblue" stroke="midnightblue" points="1384.06,-134.023 1394.39,-136.403 1387.8,-128.104 1384.06,-134.023"/>
</g>
<!-- Node19&#45;&gt;Node15 -->
<g id="edge34" class="edge"><title>Node19&#45;&gt;Node15</title>
<path fill="none" stroke="midnightblue" d="M1411.71,-126.242C1415.38,-110.135 1421.93,-86.6349 1432,-68 1440.94,-51.4516 1455.67,-35.1754 1465.09,-25.6142"/>
<polygon fill="midnightblue" stroke="midnightblue" points="1408.18,-125.981 1409.53,-136.489 1415.03,-127.434 1408.18,-125.981"/>
</g>
<!-- Node19&#45;&gt;Node16 -->
<g id="edge33" class="edge"><title>Node19&#45;&gt;Node16</title>
<path fill="none" stroke="midnightblue" d="M1436.75,-132.221C1462.96,-120.573 1500.95,-103.687 1523.69,-93.5806"/>
<polygon fill="midnightblue" stroke="midnightblue" points="1435.06,-129.144 1427.34,-136.403 1437.9,-135.54 1435.06,-129.144"/>
</g>
<!-- Node19&#45;&gt;Node17 -->
<g id="edge35" class="edge"><title>Node19&#45;&gt;Node17</title>
<path fill="none" stroke="midnightblue" d="M1416.74,-127.234C1426.27,-109.678 1443.12,-83.2952 1465,-68 1486.62,-52.8847 1554.73,-35.5725 1598.76,-25.5038"/>
<polygon fill="midnightblue" stroke="midnightblue" points="1413.49,-125.91 1412,-136.399 1419.7,-129.128 1413.49,-125.91"/>
</g>
</g>
</svg>
        <g id="navigator" transform="translate(0 0)" fill="#404254">
                <rect fill="#f2f5e9" fill-opacity="0.5" stroke="#606060" stroke-width=".5" x="0" y="0" width="60" height="60"/>
                <use id="zoomplus" xlink:href="#zoomPlus" x="17" y="9" onmousedown="handleZoom(evt,'in')"/>
                <use id="zoomminus" xlink:href="#zoomMin" x="42" y="9" onmousedown="handleZoom(evt,'out')"/>
                <use id="reset" xlink:href="#resetDef" x="30" y="36" onmousedown="handleReset()"/>
                <g id="arrowUp" xlink:href="#dirArrow" transform="translate(30 24)" onmousedown="handlePan(0,-1)">
                  <use xlink:href="#rim" fill="#404040">
                        <set attributeName="fill" to="#808080" begin="arrowUp.mouseover" end="arrowUp.mouseout"/>
                  </use>
                  <path fill="none" stroke="white" stroke-width="1.5" d="M0,-3.0v7 M-2.5,-0.5L0,-3.0L2.5,-0.5"/>
                </g>
                <g id="arrowRight" xlink:href="#dirArrow" transform="rotate(90) translate(36 -43)" onmousedown="handlePan(1,0)">
                  <use xlink:href="#rim" fill="#404040">
                        <set attributeName="fill" to="#808080" begin="arrowRight.mouseover" end="arrowRight.mouseout"/>
                  </use>
                  <path fill="none" stroke="white" stroke-width="1.5" d="M0,-3.0v7 M-2.5,-0.5L0,-3.0L2.5,-0.5"/>
                </g>
                <g id="arrowDown" xlink:href="#dirArrow" transform="rotate(180) translate(-30 -48)" onmousedown="handlePan(0,1)">
                  <use xlink:href="#rim" fill="#404040">
                        <set attributeName="fill" to="#808080" begin="arrowDown.mouseover" end="arrowDown.mouseout"/>
                  </use>
                  <path fill="none" stroke="white" stroke-width="1.5" d="M0,-3.0v7 M-2.5,-0.5L0,-3.0L2.5,-0.5"/>
                </g>
                <g id="arrowLeft" xlink:href="#dirArrow" transform="rotate(270) translate(-36 17)" onmousedown="handlePan(-1,0)">
                  <use xlink:href="#rim" fill="#404040">
                        <set attributeName="fill" to="#808080" begin="arrowLeft.mouseover" end="arrowLeft.mouseout"/>
                  </use>
                  <path fill="none" stroke="white" stroke-width="1.5" d="M0,-3.0v7 M-2.5,-0.5L0,-3.0L2.5,-0.5"/>
                </g>
        </g>
        <svg viewBox="0 0 15 15" width="100%" height="30px" preserveAspectRatio="xMaxYMin meet">
         <g id="arrow_out" transform="scale(0.3 0.3)">
          <a xlink:href="EigenCoreInclude_8h__dep__incl_org.svg" target="_base">
           <rect id="button" ry="5" rx="5" y="6" x="6" height="38" width="38"
                fill="#f2f5e9" fill-opacity="0.5" stroke="#606060" stroke-width="1.0"/>
           <path id="arrow"
             d="M 11.500037,31.436501 C 11.940474,20.09759 22.043105,11.32322 32.158766,21.979434 L 37.068811,17.246167 C 37.068811,17.246167 37.088388,32 37.088388,32 L 22.160133,31.978069 C 22.160133,31.978069 26.997745,27.140456 26.997745,27.140456 C 18.528582,18.264221 13.291696,25.230495 11.500037,31.436501 z"
             style="fill:#404040;"/>
          </a>
         </g>
        </svg>
</svg>
