<?xml version="1.0" encoding="UTF-8" standalone="no"?>
<!DOCTYPE svg PUBLIC "-//W3C//DTD SVG 1.1//EN"
 "http://www.w3.org/Graphics/SVG/1.1/DTD/svg11.dtd">
<!-- Generated by graphviz version 2.36.0 (20140111.2315)
 -->
<!-- Title: main Pages: 1 -->
<svg width="494pt" height="294pt"
 viewBox="0.00 0.00 494.00 294.00" xmlns="http://www.w3.org/2000/svg" xmlns:xlink="http://www.w3.org/1999/xlink">
<g id="graph0" class="graph" transform="scale(1 1) rotate(0) translate(4 290)">
<title>main</title>
<polygon fill="white" stroke="none" points="-4,4 -4,-290 490,-290 490,4 -4,4"/>
<!-- Node1 -->
<g id="node1" class="node"><title>Node1</title>
<polygon fill="#bfbfbf" stroke="black" points="0,-133.5 0,-152.5 38,-152.5 38,-133.5 0,-133.5"/>
<text text-anchor="middle" x="19" y="-140.5" font-family="Helvetica,sans-Serif" font-size="10.00">main</text>
</g>
<!-- Node2 -->
<g id="node2" class="node"><title>Node2</title>
<g id="a_node2"><a xlink:href="../../d1/d0f/ServerSiftGPU_8cpp.html#a2cab8623166d3e8c458d38ef42c61bda" target="_top" xlink:title="CreateRemoteSiftGPU">
<polygon fill="white" stroke="black" points="93.5,-266.5 93.5,-285.5 210.5,-285.5 210.5,-266.5 93.5,-266.5"/>
<text text-anchor="middle" x="152" y="-273.5" font-family="Helvetica,sans-Serif" font-size="10.00">CreateRemoteSiftGPU</text>
</a>
</g>
</g>
<!-- Node1&#45;&gt;Node2 -->
<g id="edge1" class="edge"><title>Node1&#45;&gt;Node2</title>
<path fill="none" stroke="midnightblue" d="M21.6868,-152.668C26.0651,-174.753 39.916,-229.145 74,-257 77.0902,-259.525 80.4676,-261.723 84.0278,-263.633"/>
<polygon fill="midnightblue" stroke="midnightblue" points="82.6433,-266.849 93.1938,-267.817 85.55,-260.481 82.6433,-266.849"/>
</g>
<!-- Node3 -->
<g id="node3" class="node"><title>Node3</title>
<g id="a_node3"><a xlink:href="../../d4/dee/classSiftGPU.html#ab50cd0cc4d3f46ede220221f6ca46498" target="_top" xlink:title="SiftGPU::ParseParam">
<polygon fill="white" stroke="black" points="95.5,-228.5 95.5,-247.5 208.5,-247.5 208.5,-228.5 95.5,-228.5"/>
<text text-anchor="middle" x="152" y="-235.5" font-family="Helvetica,sans-Serif" font-size="10.00">SiftGPU::ParseParam</text>
</a>
</g>
</g>
<!-- Node1&#45;&gt;Node3 -->
<g id="edge2" class="edge"><title>Node1&#45;&gt;Node3</title>
<path fill="none" stroke="midnightblue" d="M24.0809,-152.615C31.5124,-168.919 48.8422,-201.882 74,-219 77.6854,-221.508 81.6702,-223.685 85.8197,-225.575"/>
<polygon fill="midnightblue" stroke="midnightblue" points="84.5288,-228.829 95.1144,-229.272 87.1159,-222.324 84.5288,-228.829"/>
</g>
<!-- Node6 -->
<g id="node6" class="node"><title>Node6</title>
<g id="a_node6"><a xlink:href="../../d4/dee/classSiftGPU.html#a633d50e0393037aa8e9ba6af1d2f2431" target="_top" xlink:title="SiftGPU::SetVerbose">
<polygon fill="white" stroke="black" points="97,-190.5 97,-209.5 207,-209.5 207,-190.5 97,-190.5"/>
<text text-anchor="middle" x="152" y="-197.5" font-family="Helvetica,sans-Serif" font-size="10.00">SiftGPU::SetVerbose</text>
</a>
</g>
</g>
<!-- Node1&#45;&gt;Node6 -->
<g id="edge5" class="edge"><title>Node1&#45;&gt;Node6</title>
<path fill="none" stroke="midnightblue" d="M31.2356,-152.804C41.6571,-161.415 57.9353,-173.68 74,-181 79.3779,-183.451 85.117,-185.614 90.945,-187.516"/>
<polygon fill="midnightblue" stroke="midnightblue" points="90.2046,-190.949 100.789,-190.478 92.2214,-184.245 90.2046,-190.949"/>
</g>
<!-- Node7 -->
<g id="node7" class="node"><title>Node7</title>
<g id="a_node7"><a xlink:href="../../d4/dee/classSiftGPU.html#ab2791178a6e15b8c5dd1979f00d9e737" target="_top" xlink:title="SiftGPU::CreateContextGL">
<polygon fill="white" stroke="black" points="84,-152.5 84,-171.5 220,-171.5 220,-152.5 84,-152.5"/>
<text text-anchor="middle" x="152" y="-159.5" font-family="Helvetica,sans-Serif" font-size="10.00">SiftGPU::CreateContextGL</text>
</a>
</g>
</g>
<!-- Node1&#45;&gt;Node7 -->
<g id="edge6" class="edge"><title>Node1&#45;&gt;Node7</title>
<path fill="none" stroke="midnightblue" d="M38.215,-145.642C48.2282,-147.094 61.3984,-149.004 75.1942,-151.005"/>
<polygon fill="midnightblue" stroke="midnightblue" points="74.9152,-154.501 85.3141,-152.473 75.9201,-147.574 74.9152,-154.501"/>
</g>
<!-- Node9 -->
<g id="node9" class="node"><title>Node9</title>
<g id="a_node9"><a xlink:href="../../d4/dee/classSiftGPU.html#a7ecfea9c8fe68cbe0667a5754322222a" target="_top" xlink:title="SiftGPU::RunSIFT">
<polygon fill="white" stroke="black" points="102.5,-114.5 102.5,-133.5 201.5,-133.5 201.5,-114.5 102.5,-114.5"/>
<text text-anchor="middle" x="152" y="-121.5" font-family="Helvetica,sans-Serif" font-size="10.00">SiftGPU::RunSIFT</text>
</a>
</g>
</g>
<!-- Node1&#45;&gt;Node9 -->
<g id="edge8" class="edge"><title>Node1&#45;&gt;Node9</title>
<path fill="none" stroke="midnightblue" d="M38.215,-140.358C52.3437,-138.309 72.7577,-135.348 92.3459,-132.507"/>
<polygon fill="midnightblue" stroke="midnightblue" points="93.0823,-135.937 102.476,-131.038 92.0775,-129.009 93.0823,-135.937"/>
</g>
<!-- Node10 -->
<g id="node10" class="node"><title>Node10</title>
<g id="a_node10"><a xlink:href="../../d4/dee/classSiftGPU.html#a60adf9e990c60afcfaba7fe2a63cbfe9" target="_top" xlink:title="SiftGPU::GetCurrentImagePath">
<polygon fill="white" stroke="black" points="74.5,-76.5 74.5,-95.5 229.5,-95.5 229.5,-76.5 74.5,-76.5"/>
<text text-anchor="middle" x="152" y="-83.5" font-family="Helvetica,sans-Serif" font-size="10.00">SiftGPU::GetCurrentImagePath</text>
</a>
</g>
</g>
<!-- Node1&#45;&gt;Node10 -->
<g id="edge9" class="edge"><title>Node1&#45;&gt;Node10</title>
<path fill="none" stroke="midnightblue" d="M31.2356,-133.196C41.6571,-124.585 57.9353,-112.32 74,-105 79.3779,-102.549 85.117,-100.386 90.945,-98.4836"/>
<polygon fill="midnightblue" stroke="midnightblue" points="92.2214,-101.755 100.789,-95.5219 90.2046,-95.0515 92.2214,-101.755"/>
</g>
<!-- Node11 -->
<g id="node11" class="node"><title>Node11</title>
<g id="a_node11"><a xlink:href="../../d4/dee/classSiftGPU.html#aff07f051680a8b61c224a974b2d4d52f" target="_top" xlink:title="SiftGPU::GetFeatureNum">
<polygon fill="white" stroke="black" points="87.5,-38.5 87.5,-57.5 216.5,-57.5 216.5,-38.5 87.5,-38.5"/>
<text text-anchor="middle" x="152" y="-45.5" font-family="Helvetica,sans-Serif" font-size="10.00">SiftGPU::GetFeatureNum</text>
</a>
</g>
</g>
<!-- Node1&#45;&gt;Node11 -->
<g id="edge10" class="edge"><title>Node1&#45;&gt;Node11</title>
<path fill="none" stroke="midnightblue" d="M24.0809,-133.385C31.5124,-117.081 48.8422,-84.1185 74,-67 76.9348,-65.003 80.0595,-63.2155 83.306,-61.6157"/>
<polygon fill="midnightblue" stroke="midnightblue" points="84.9055,-64.7382 92.7213,-57.5853 82.1508,-58.303 84.9055,-64.7382"/>
</g>
<!-- Node12 -->
<g id="node12" class="node"><title>Node12</title>
<g id="a_node12"><a xlink:href="../../de/d95/speed_8cpp.html#ad839f128796ca7fe6ecc88cb95285787" target="_top" xlink:title="GetMilliSecond">
<polygon fill="white" stroke="black" points="110.5,-0.5 110.5,-19.5 193.5,-19.5 193.5,-0.5 110.5,-0.5"/>
<text text-anchor="middle" x="152" y="-7.5" font-family="Helvetica,sans-Serif" font-size="10.00">GetMilliSecond</text>
</a>
</g>
</g>
<!-- Node1&#45;&gt;Node12 -->
<g id="edge11" class="edge"><title>Node1&#45;&gt;Node12</title>
<path fill="none" stroke="midnightblue" d="M21.6868,-133.332C26.0651,-111.247 39.916,-56.8552 74,-29 81.5963,-22.7919 90.9288,-18.5677 100.443,-15.704"/>
<polygon fill="midnightblue" stroke="midnightblue" points="101.527,-19.0399 110.357,-13.186 99.8036,-12.2552 101.527,-19.0399"/>
</g>
<!-- Node4 -->
<g id="node4" class="node"><title>Node4</title>
<g id="a_node4"><a xlink:href="../../d2/d55/classGlobalUtil.html#a22689de5e558d891c11c8fec2e5c2931" target="_top" xlink:title="GlobalUtil::SelectDisplay">
<polygon fill="white" stroke="black" points="275,-228.5 275,-247.5 401,-247.5 401,-228.5 275,-228.5"/>
<text text-anchor="middle" x="338" y="-235.5" font-family="Helvetica,sans-Serif" font-size="10.00">GlobalUtil::SelectDisplay</text>
</a>
</g>
</g>
<!-- Node3&#45;&gt;Node4 -->
<g id="edge3" class="edge"><title>Node3&#45;&gt;Node4</title>
<path fill="none" stroke="midnightblue" d="M208.705,-238C226.287,-238 245.975,-238 264.548,-238"/>
<polygon fill="midnightblue" stroke="midnightblue" points="264.731,-241.5 274.731,-238 264.731,-234.5 264.731,-241.5"/>
</g>
<!-- Node5 -->
<g id="node5" class="node"><title>Node5</title>
<g id="a_node5"><a xlink:href="../../db/d82/wglew_8h.html#a7b84f5391331438359747d138a86ffe3" target="_top" xlink:title="HDC">
<polygon fill="white" stroke="black" points="446.5,-228.5 446.5,-247.5 485.5,-247.5 485.5,-228.5 446.5,-228.5"/>
<text text-anchor="middle" x="466" y="-235.5" font-family="Helvetica,sans-Serif" font-size="10.00">HDC</text>
</a>
</g>
</g>
<!-- Node4&#45;&gt;Node5 -->
<g id="edge4" class="edge"><title>Node4&#45;&gt;Node5</title>
<path fill="none" stroke="midnightblue" d="M401.262,-238C413.502,-238 425.779,-238 436.245,-238"/>
<polygon fill="midnightblue" stroke="midnightblue" points="436.419,-241.5 446.419,-238 436.419,-234.5 436.419,-241.5"/>
</g>
<!-- Node8 -->
<g id="node8" class="node"><title>Node8</title>
<g id="a_node8"><a xlink:href="../../d2/d55/classGlobalUtil.html#ae7f13fca68dc4629c9731ef5042e2c23" target="_top" xlink:title="GlobalUtil::CreateWindowEZ">
<polygon fill="white" stroke="black" points="266.5,-152.5 266.5,-171.5 409.5,-171.5 409.5,-152.5 266.5,-152.5"/>
<text text-anchor="middle" x="338" y="-159.5" font-family="Helvetica,sans-Serif" font-size="10.00">GlobalUtil::CreateWindowEZ</text>
</a>
</g>
</g>
<!-- Node7&#45;&gt;Node8 -->
<g id="edge7" class="edge"><title>Node7&#45;&gt;Node8</title>
<path fill="none" stroke="midnightblue" d="M220.209,-162C231.919,-162 244.208,-162 256.236,-162"/>
<polygon fill="midnightblue" stroke="midnightblue" points="256.261,-165.5 266.261,-162 256.261,-158.5 256.261,-165.5"/>
</g>
</g>
</svg>
