<?xml version="1.0" encoding="UTF-8" standalone="no"?>
<!DOCTYPE svg PUBLIC "-//W3C//DTD SVG 1.1//EN"
 "http://www.w3.org/Graphics/SVG/1.1/DTD/svg11.dtd">
<!-- Generated by graphviz version 2.36.0 (20140111.2315)
 -->
<!-- Title: src/IOWrapper/Timestamp.h Pages: 1 -->
<svg width="250pt" height="84pt"
 viewBox="0.00 0.00 250.00 84.00" xmlns="http://www.w3.org/2000/svg" xmlns:xlink="http://www.w3.org/1999/xlink">
<g id="graph0" class="graph" transform="scale(1 1) rotate(0) translate(4 80)">
<title>src/IOWrapper/Timestamp.h</title>
<polygon fill="white" stroke="none" points="-4,4 -4,-80 246,-80 246,4 -4,4"/>
<!-- Node1 -->
<g id="node1" class="node"><title>Node1</title>
<polygon fill="#bfbfbf" stroke="black" points="12,-56.5 12,-75.5 152,-75.5 152,-56.5 12,-56.5"/>
<text text-anchor="middle" x="82" y="-63.5" font-family="Helvetica,sans-Serif" font-size="10.00">src/IOWrapper/Timestamp.h</text>
</g>
<!-- Node2 -->
<g id="node2" class="node"><title>Node2</title>
<polygon fill="white" stroke="#bfbfbf" points="-0.5,-0.5 -0.5,-19.5 40.5,-19.5 40.5,-0.5 -0.5,-0.5"/>
<text text-anchor="middle" x="20" y="-7.5" font-family="Helvetica,sans-Serif" font-size="10.00">string</text>
</g>
<!-- Node1&#45;&gt;Node2 -->
<g id="edge1" class="edge"><title>Node1&#45;&gt;Node2</title>
<path fill="none" stroke="midnightblue" d="M72.0386,-56.324C62.8734,-48.3414 49.0628,-36.3128 37.9718,-26.6529"/>
<polygon fill="midnightblue" stroke="midnightblue" points="39.9822,-23.7624 30.1426,-19.8339 35.3847,-29.041 39.9822,-23.7624"/>
</g>
<!-- Node3 -->
<g id="node3" class="node"><title>Node3</title>
<polygon fill="white" stroke="#bfbfbf" points="59,-0.5 59,-19.5 105,-19.5 105,-0.5 59,-0.5"/>
<text text-anchor="middle" x="82" y="-7.5" font-family="Helvetica,sans-Serif" font-size="10.00">chrono</text>
</g>
<!-- Node1&#45;&gt;Node3 -->
<g id="edge2" class="edge"><title>Node1&#45;&gt;Node3</title>
<path fill="none" stroke="midnightblue" d="M82,-56.083C82,-49.0059 82,-38.8611 82,-29.9865"/>
<polygon fill="midnightblue" stroke="midnightblue" points="85.5001,-29.751 82,-19.7511 78.5001,-29.7511 85.5001,-29.751"/>
</g>
<!-- Node4 -->
<g id="node4" class="node"><title>Node4</title>
<polygon fill="white" stroke="#bfbfbf" points="123.5,-0.5 123.5,-19.5 242.5,-19.5 242.5,-0.5 123.5,-0.5"/>
<text text-anchor="middle" x="183" y="-7.5" font-family="Helvetica,sans-Serif" font-size="10.00">boost/thread/mutex.hpp</text>
</g>
<!-- Node1&#45;&gt;Node4 -->
<g id="edge3" class="edge"><title>Node1&#45;&gt;Node4</title>
<path fill="none" stroke="midnightblue" d="M98.2274,-56.324C114.351,-47.7034 139.3,-34.3643 157.964,-24.3855"/>
<polygon fill="midnightblue" stroke="midnightblue" points="159.644,-27.456 166.813,-19.6545 156.344,-21.283 159.644,-27.456"/>
</g>
</g>
</svg>
