<?xml version="1.0" encoding="UTF-8" standalone="no"?>
<!DOCTYPE svg PUBLIC "-//W3C//DTD SVG 1.1//EN"
 "http://www.w3.org/Graphics/SVG/1.1/DTD/svg11.dtd">
<!-- Generated by graphviz version 2.36.0 (20140111.2315)
 -->
<!-- Title: external/gicp/ann_1.1.2/src/kd_util.h Pages: 1 -->
<svg width="1246pt" height="176pt"
 viewBox="0.00 0.00 1246.00 176.00" xmlns="http://www.w3.org/2000/svg" xmlns:xlink="http://www.w3.org/1999/xlink">
<g id="graph0" class="graph" transform="scale(1 1) rotate(0) translate(4 172)">
<title>external/gicp/ann_1.1.2/src/kd_util.h</title>
<polygon fill="white" stroke="none" points="-4,4 -4,-172 1242,-172 1242,4 -4,4"/>
<!-- Node1 -->
<g id="node1" class="node"><title>Node1</title>
<polygon fill="#bfbfbf" stroke="black" points="712,-137 712,-167 830,-167 830,-137 712,-137"/>
<text text-anchor="start" x="720" y="-155" font-family="Helvetica,sans-Serif" font-size="10.00">external/gicp/ann_1.1.2</text>
<text text-anchor="middle" x="771" y="-144" font-family="Helvetica,sans-Serif" font-size="10.00">/src/kd_util.h</text>
</g>
<!-- Node2 -->
<g id="node2" class="node"><title>Node2</title>
<g id="a_node2"><a xlink:href="../../d6/d5b/kd__fix__rad__search_8h.html" target="_top" xlink:title="external/gicp/ann_1.1.2\l/src/kd_fix_rad_search.h">
<polygon fill="white" stroke="black" points="157,-69 157,-99 281,-99 281,-69 157,-69"/>
<text text-anchor="start" x="165" y="-87" font-family="Helvetica,sans-Serif" font-size="10.00">external/gicp/ann_1.1.2</text>
<text text-anchor="middle" x="219" y="-76" font-family="Helvetica,sans-Serif" font-size="10.00">/src/kd_fix_rad_search.h</text>
</a>
</g>
</g>
<!-- Node1&#45;&gt;Node2 -->
<g id="edge1" class="edge"><title>Node1&#45;&gt;Node2</title>
<path fill="none" stroke="midnightblue" d="M701.745,-142.719C593.242,-129.746 384.872,-104.833 281.015,-92.4148"/>
<polygon fill="midnightblue" stroke="midnightblue" points="701.582,-146.225 711.926,-143.937 702.413,-139.274 701.582,-146.225"/>
</g>
<!-- Node5 -->
<g id="node5" class="node"><title>Node5</title>
<g id="a_node5"><a xlink:href="../../d5/d23/kd__pr__search_8h.html" target="_top" xlink:title="external/gicp/ann_1.1.2\l/src/kd_pr_search.h">
<polygon fill="white" stroke="black" points="440,-69 440,-99 558,-99 558,-69 440,-69"/>
<text text-anchor="start" x="448" y="-87" font-family="Helvetica,sans-Serif" font-size="10.00">external/gicp/ann_1.1.2</text>
<text text-anchor="middle" x="499" y="-76" font-family="Helvetica,sans-Serif" font-size="10.00">/src/kd_pr_search.h</text>
</a>
</g>
</g>
<!-- Node1&#45;&gt;Node5 -->
<g id="edge4" class="edge"><title>Node1&#45;&gt;Node5</title>
<path fill="none" stroke="midnightblue" d="M703.02,-134.505C658.042,-123.591 599.697,-109.434 556.928,-99.0561"/>
<polygon fill="midnightblue" stroke="midnightblue" points="702.439,-137.965 712.983,-136.922 704.09,-131.163 702.439,-137.965"/>
</g>
<!-- Node8 -->
<g id="node8" class="node"><title>Node8</title>
<g id="a_node8"><a xlink:href="../../df/d79/kd__search_8h.html" target="_top" xlink:title="external/gicp/ann_1.1.2\l/src/kd_search.h">
<polygon fill="white" stroke="black" points="576,-69 576,-99 694,-99 694,-69 576,-69"/>
<text text-anchor="start" x="584" y="-87" font-family="Helvetica,sans-Serif" font-size="10.00">external/gicp/ann_1.1.2</text>
<text text-anchor="middle" x="635" y="-76" font-family="Helvetica,sans-Serif" font-size="10.00">/src/kd_search.h</text>
</a>
</g>
</g>
<!-- Node1&#45;&gt;Node8 -->
<g id="edge7" class="edge"><title>Node1&#45;&gt;Node8</title>
<path fill="none" stroke="midnightblue" d="M732.547,-132.339C710.823,-121.796 684.105,-108.83 664.127,-99.1352"/>
<polygon fill="midnightblue" stroke="midnightblue" points="731.3,-135.624 741.825,-136.841 734.356,-129.327 731.3,-135.624"/>
</g>
<!-- Node11 -->
<g id="node11" class="node"><title>Node11</title>
<g id="a_node11"><a xlink:href="../../df/da7/bd__tree_8cpp.html" target="_top" xlink:title="external/gicp/ann_1.1.2\l/src/bd_tree.cpp">
<polygon fill="white" stroke="black" points="712,-69 712,-99 830,-99 830,-69 712,-69"/>
<text text-anchor="start" x="720" y="-87" font-family="Helvetica,sans-Serif" font-size="10.00">external/gicp/ann_1.1.2</text>
<text text-anchor="middle" x="771" y="-76" font-family="Helvetica,sans-Serif" font-size="10.00">/src/bd_tree.cpp</text>
</a>
</g>
</g>
<!-- Node1&#45;&gt;Node11 -->
<g id="edge10" class="edge"><title>Node1&#45;&gt;Node11</title>
<path fill="none" stroke="midnightblue" d="M771,-126.532C771,-117.361 771,-107.245 771,-99.2931"/>
<polygon fill="midnightblue" stroke="midnightblue" points="767.5,-126.679 771,-136.679 774.5,-126.679 767.5,-126.679"/>
</g>
<!-- Node12 -->
<g id="node12" class="node"><title>Node12</title>
<g id="a_node12"><a xlink:href="../../da/d3e/kd__split_8cpp.html" target="_top" xlink:title="external/gicp/ann_1.1.2\l/src/kd_split.cpp">
<polygon fill="white" stroke="black" points="848,-69 848,-99 966,-99 966,-69 848,-69"/>
<text text-anchor="start" x="856" y="-87" font-family="Helvetica,sans-Serif" font-size="10.00">external/gicp/ann_1.1.2</text>
<text text-anchor="middle" x="907" y="-76" font-family="Helvetica,sans-Serif" font-size="10.00">/src/kd_split.cpp</text>
</a>
</g>
</g>
<!-- Node1&#45;&gt;Node12 -->
<g id="edge11" class="edge"><title>Node1&#45;&gt;Node12</title>
<path fill="none" stroke="midnightblue" d="M809.453,-132.339C831.177,-121.796 857.895,-108.83 877.873,-99.1352"/>
<polygon fill="midnightblue" stroke="midnightblue" points="807.644,-129.327 800.175,-136.841 810.7,-135.624 807.644,-129.327"/>
</g>
<!-- Node13 -->
<g id="node13" class="node"><title>Node13</title>
<g id="a_node13"><a xlink:href="../../d6/d35/kd__tree_8cpp.html" target="_top" xlink:title="external/gicp/ann_1.1.2\l/src/kd_tree.cpp">
<polygon fill="white" stroke="black" points="984,-69 984,-99 1102,-99 1102,-69 984,-69"/>
<text text-anchor="start" x="992" y="-87" font-family="Helvetica,sans-Serif" font-size="10.00">external/gicp/ann_1.1.2</text>
<text text-anchor="middle" x="1043" y="-76" font-family="Helvetica,sans-Serif" font-size="10.00">/src/kd_tree.cpp</text>
</a>
</g>
</g>
<!-- Node1&#45;&gt;Node13 -->
<g id="edge12" class="edge"><title>Node1&#45;&gt;Node13</title>
<path fill="none" stroke="midnightblue" d="M838.98,-134.505C883.958,-123.591 942.303,-109.434 985.072,-99.0561"/>
<polygon fill="midnightblue" stroke="midnightblue" points="837.91,-131.163 829.017,-136.922 839.561,-137.965 837.91,-131.163"/>
</g>
<!-- Node14 -->
<g id="node14" class="node"><title>Node14</title>
<g id="a_node14"><a xlink:href="../../d9/d87/kd__util_8cpp.html" target="_top" xlink:title="external/gicp/ann_1.1.2\l/src/kd_util.cpp">
<polygon fill="white" stroke="black" points="1120,-69 1120,-99 1238,-99 1238,-69 1120,-69"/>
<text text-anchor="start" x="1128" y="-87" font-family="Helvetica,sans-Serif" font-size="10.00">external/gicp/ann_1.1.2</text>
<text text-anchor="middle" x="1179" y="-76" font-family="Helvetica,sans-Serif" font-size="10.00">/src/kd_util.cpp</text>
</a>
</g>
</g>
<!-- Node1&#45;&gt;Node14 -->
<g id="edge13" class="edge"><title>Node1&#45;&gt;Node14</title>
<path fill="none" stroke="midnightblue" d="M840.457,-141.994C909.335,-132.732 1017.77,-117.254 1111,-100 1113.85,-99.472 1116.77,-98.9111 1119.71,-98.3283"/>
<polygon fill="midnightblue" stroke="midnightblue" points="839.617,-138.575 830.169,-143.371 840.545,-145.514 839.617,-138.575"/>
</g>
<!-- Node3 -->
<g id="node3" class="node"><title>Node3</title>
<g id="a_node3"><a xlink:href="../../d4/d39/bd__fix__rad__search_8cpp.html" target="_top" xlink:title="external/gicp/ann_1.1.2\l/src/bd_fix_rad_search.cpp">
<polygon fill="white" stroke="black" points="0,-1 0,-31 134,-31 134,-1 0,-1"/>
<text text-anchor="start" x="8" y="-19" font-family="Helvetica,sans-Serif" font-size="10.00">external/gicp/ann_1.1.2</text>
<text text-anchor="middle" x="67" y="-8" font-family="Helvetica,sans-Serif" font-size="10.00">/src/bd_fix_rad_search.cpp</text>
</a>
</g>
</g>
<!-- Node2&#45;&gt;Node3 -->
<g id="edge2" class="edge"><title>Node2&#45;&gt;Node3</title>
<path fill="none" stroke="midnightblue" d="M176.966,-64.7485C152.426,-54.093 121.938,-40.8547 99.2927,-31.0218"/>
<polygon fill="midnightblue" stroke="midnightblue" points="175.826,-68.0689 186.392,-68.8413 178.614,-61.648 175.826,-68.0689"/>
</g>
<!-- Node4 -->
<g id="node4" class="node"><title>Node4</title>
<g id="a_node4"><a xlink:href="../../da/da1/kd__fix__rad__search_8cpp.html" target="_top" xlink:title="external/gicp/ann_1.1.2\l/src/kd_fix_rad_search.cpp">
<polygon fill="white" stroke="black" points="152,-1 152,-31 286,-31 286,-1 152,-1"/>
<text text-anchor="start" x="160" y="-19" font-family="Helvetica,sans-Serif" font-size="10.00">external/gicp/ann_1.1.2</text>
<text text-anchor="middle" x="219" y="-8" font-family="Helvetica,sans-Serif" font-size="10.00">/src/kd_fix_rad_search.cpp</text>
</a>
</g>
</g>
<!-- Node2&#45;&gt;Node4 -->
<g id="edge3" class="edge"><title>Node2&#45;&gt;Node4</title>
<path fill="none" stroke="midnightblue" d="M219,-58.5322C219,-49.3606 219,-39.2449 219,-31.2931"/>
<polygon fill="midnightblue" stroke="midnightblue" points="215.5,-58.6789 219,-68.679 222.5,-58.679 215.5,-58.6789"/>
</g>
<!-- Node6 -->
<g id="node6" class="node"><title>Node6</title>
<g id="a_node6"><a xlink:href="../../d0/dba/bd__pr__search_8cpp.html" target="_top" xlink:title="external/gicp/ann_1.1.2\l/src/bd_pr_search.cpp">
<polygon fill="white" stroke="black" points="304,-1 304,-31 422,-31 422,-1 304,-1"/>
<text text-anchor="start" x="312" y="-19" font-family="Helvetica,sans-Serif" font-size="10.00">external/gicp/ann_1.1.2</text>
<text text-anchor="middle" x="363" y="-8" font-family="Helvetica,sans-Serif" font-size="10.00">/src/bd_pr_search.cpp</text>
</a>
</g>
</g>
<!-- Node5&#45;&gt;Node6 -->
<g id="edge5" class="edge"><title>Node5&#45;&gt;Node6</title>
<path fill="none" stroke="midnightblue" d="M460.547,-64.3388C438.823,-53.7964 412.105,-40.8303 392.127,-31.1352"/>
<polygon fill="midnightblue" stroke="midnightblue" points="459.3,-67.6241 469.825,-68.8413 462.356,-61.3265 459.3,-67.6241"/>
</g>
<!-- Node7 -->
<g id="node7" class="node"><title>Node7</title>
<g id="a_node7"><a xlink:href="../../de/deb/kd__pr__search_8cpp.html" target="_top" xlink:title="external/gicp/ann_1.1.2\l/src/kd_pr_search.cpp">
<polygon fill="white" stroke="black" points="440,-1 440,-31 558,-31 558,-1 440,-1"/>
<text text-anchor="start" x="448" y="-19" font-family="Helvetica,sans-Serif" font-size="10.00">external/gicp/ann_1.1.2</text>
<text text-anchor="middle" x="499" y="-8" font-family="Helvetica,sans-Serif" font-size="10.00">/src/kd_pr_search.cpp</text>
</a>
</g>
</g>
<!-- Node5&#45;&gt;Node7 -->
<g id="edge6" class="edge"><title>Node5&#45;&gt;Node7</title>
<path fill="none" stroke="midnightblue" d="M499,-58.5322C499,-49.3606 499,-39.2449 499,-31.2931"/>
<polygon fill="midnightblue" stroke="midnightblue" points="495.5,-58.6789 499,-68.679 502.5,-58.679 495.5,-58.6789"/>
</g>
<!-- Node9 -->
<g id="node9" class="node"><title>Node9</title>
<g id="a_node9"><a xlink:href="../../dd/d9d/bd__search_8cpp.html" target="_top" xlink:title="external/gicp/ann_1.1.2\l/src/bd_search.cpp">
<polygon fill="white" stroke="black" points="576,-1 576,-31 694,-31 694,-1 576,-1"/>
<text text-anchor="start" x="584" y="-19" font-family="Helvetica,sans-Serif" font-size="10.00">external/gicp/ann_1.1.2</text>
<text text-anchor="middle" x="635" y="-8" font-family="Helvetica,sans-Serif" font-size="10.00">/src/bd_search.cpp</text>
</a>
</g>
</g>
<!-- Node8&#45;&gt;Node9 -->
<g id="edge8" class="edge"><title>Node8&#45;&gt;Node9</title>
<path fill="none" stroke="midnightblue" d="M635,-58.5322C635,-49.3606 635,-39.2449 635,-31.2931"/>
<polygon fill="midnightblue" stroke="midnightblue" points="631.5,-58.6789 635,-68.679 638.5,-58.679 631.5,-58.6789"/>
</g>
<!-- Node10 -->
<g id="node10" class="node"><title>Node10</title>
<g id="a_node10"><a xlink:href="../../dd/d00/kd__search_8cpp.html" target="_top" xlink:title="external/gicp/ann_1.1.2\l/src/kd_search.cpp">
<polygon fill="white" stroke="black" points="712,-1 712,-31 830,-31 830,-1 712,-1"/>
<text text-anchor="start" x="720" y="-19" font-family="Helvetica,sans-Serif" font-size="10.00">external/gicp/ann_1.1.2</text>
<text text-anchor="middle" x="771" y="-8" font-family="Helvetica,sans-Serif" font-size="10.00">/src/kd_search.cpp</text>
</a>
</g>
</g>
<!-- Node8&#45;&gt;Node10 -->
<g id="edge9" class="edge"><title>Node8&#45;&gt;Node10</title>
<path fill="none" stroke="midnightblue" d="M673.453,-64.3388C695.177,-53.7964 721.895,-40.8303 741.873,-31.1352"/>
<polygon fill="midnightblue" stroke="midnightblue" points="671.644,-61.3265 664.175,-68.8413 674.7,-67.6241 671.644,-61.3265"/>
</g>
</g>
</svg>
