<?xml version="1.0" encoding="UTF-8" standalone="no"?>
<!DOCTYPE svg PUBLIC "-//W3C//DTD SVG 1.1//EN"
 "http://www.w3.org/Graphics/SVG/1.1/DTD/svg11.dtd">
<!-- Generated by graphviz version 2.36.0 (20140111.2315)
 -->
<!-- Title: GLTexInput::LoadImageFile Pages: 1 -->
<svg width="264pt" height="408pt"
 viewBox="0.00 0.00 264.00 408.00" xmlns="http://www.w3.org/2000/svg" xmlns:xlink="http://www.w3.org/1999/xlink">
<g id="graph0" class="graph" transform="scale(1 1) rotate(0) translate(4 404)">
<title>GLTexInput::LoadImageFile</title>
<polygon fill="white" stroke="none" points="-4,4 -4,-404 260,-404 260,4 -4,4"/>
<!-- Node1 -->
<g id="node1" class="node"><title>Node1</title>
<polygon fill="#bfbfbf" stroke="black" points="0.5,-190.5 0.5,-209.5 137.5,-209.5 137.5,-190.5 0.5,-190.5"/>
<text text-anchor="middle" x="69" y="-197.5" font-family="Helvetica,sans-Serif" font-size="10.00">GLTexInput::LoadImageFile</text>
</g>
<!-- Node2 -->
<g id="node2" class="node"><title>Node2</title>
<g id="a_node2"><a xlink:href="../../d2/d16/il_8h.html#a21ddd3621df6a2e12c66df6b350409d9" target="_top" xlink:title="ilInit">
<polygon fill="white" stroke="black" points="197.5,-380.5 197.5,-399.5 232.5,-399.5 232.5,-380.5 197.5,-380.5"/>
<text text-anchor="middle" x="215" y="-387.5" font-family="Helvetica,sans-Serif" font-size="10.00">ilInit</text>
</a>
</g>
</g>
<!-- Node1&#45;&gt;Node2 -->
<g id="edge1" class="edge"><title>Node1&#45;&gt;Node2</title>
<path fill="none" stroke="midnightblue" d="M73.6186,-209.845C84.5449,-238.368 119.817,-322.127 174,-371 178.035,-374.64 182.892,-377.718 187.809,-380.268"/>
<polygon fill="midnightblue" stroke="midnightblue" points="186.587,-383.558 197.137,-384.527 189.494,-377.19 186.587,-383.558"/>
</g>
<!-- Node3 -->
<g id="node3" class="node"><title>Node3</title>
<g id="a_node3"><a xlink:href="../../d2/d16/il_8h.html#ad3ab67c4e120b397314e42c112eac628" target="_top" xlink:title="ilOriginFunc">
<polygon fill="white" stroke="black" points="181,-342.5 181,-361.5 249,-361.5 249,-342.5 181,-342.5"/>
<text text-anchor="middle" x="215" y="-349.5" font-family="Helvetica,sans-Serif" font-size="10.00">ilOriginFunc</text>
</a>
</g>
</g>
<!-- Node1&#45;&gt;Node3 -->
<g id="edge2" class="edge"><title>Node1&#45;&gt;Node3</title>
<path fill="none" stroke="midnightblue" d="M75.3529,-209.606C88.9987,-233.358 127.329,-295.62 174,-333 175.995,-334.598 178.147,-336.101 180.381,-337.508"/>
<polygon fill="midnightblue" stroke="midnightblue" points="178.808,-340.638 189.247,-342.447 182.214,-334.523 178.808,-340.638"/>
</g>
<!-- Node4 -->
<g id="node4" class="node"><title>Node4</title>
<g id="a_node4"><a xlink:href="../../d2/d16/il_8h.html#a1dc69aee6c4a60673f6aa6f450d05c37" target="_top" xlink:title="ilEnable">
<polygon fill="white" stroke="black" points="189.5,-304.5 189.5,-323.5 240.5,-323.5 240.5,-304.5 189.5,-304.5"/>
<text text-anchor="middle" x="215" y="-311.5" font-family="Helvetica,sans-Serif" font-size="10.00">ilEnable</text>
</a>
</g>
</g>
<!-- Node1&#45;&gt;Node4 -->
<g id="edge3" class="edge"><title>Node1&#45;&gt;Node4</title>
<path fill="none" stroke="midnightblue" d="M78.6787,-209.645C95.61,-228.045 134.83,-268.67 174,-295 176.534,-296.704 179.245,-298.336 182.016,-299.878"/>
<polygon fill="midnightblue" stroke="midnightblue" points="180.442,-303.004 190.934,-304.474 183.648,-296.781 180.442,-303.004"/>
</g>
<!-- Node5 -->
<g id="node5" class="node"><title>Node5</title>
<g id="a_node5"><a xlink:href="../../d2/d16/il_8h.html#a1996dc2c6f1ec0b5ede9ea99373b1667" target="_top" xlink:title="ilGenImages">
<polygon fill="white" stroke="black" points="179.5,-266.5 179.5,-285.5 250.5,-285.5 250.5,-266.5 179.5,-266.5"/>
<text text-anchor="middle" x="215" y="-273.5" font-family="Helvetica,sans-Serif" font-size="10.00">ilGenImages</text>
</a>
</g>
</g>
<!-- Node1&#45;&gt;Node5 -->
<g id="edge4" class="edge"><title>Node1&#45;&gt;Node5</title>
<path fill="none" stroke="midnightblue" d="M86.7722,-209.584C107.197,-221.163 142.831,-241.073 174,-257 177.177,-258.623 180.517,-260.283 183.855,-261.911"/>
<polygon fill="midnightblue" stroke="midnightblue" points="182.598,-265.19 193.127,-266.365 185.629,-258.88 182.598,-265.19"/>
</g>
<!-- Node6 -->
<g id="node6" class="node"><title>Node6</title>
<g id="a_node6"><a xlink:href="../../d2/d16/il_8h.html#a5b194319263be3981e57edff5cd20f06" target="_top" xlink:title="ilBindImage">
<polygon fill="white" stroke="black" points="181,-228.5 181,-247.5 249,-247.5 249,-228.5 181,-228.5"/>
<text text-anchor="middle" x="215" y="-235.5" font-family="Helvetica,sans-Serif" font-size="10.00">ilBindImage</text>
</a>
</g>
</g>
<!-- Node1&#45;&gt;Node6 -->
<g id="edge5" class="edge"><title>Node1&#45;&gt;Node6</title>
<path fill="none" stroke="midnightblue" d="M106.337,-209.589C125.956,-214.766 150.301,-221.191 170.875,-226.62"/>
<polygon fill="midnightblue" stroke="midnightblue" points="170.073,-230.028 180.636,-229.195 171.86,-223.26 170.073,-230.028"/>
</g>
<!-- Node7 -->
<g id="node7" class="node"><title>Node7</title>
<g id="a_node7"><a xlink:href="../../d2/d16/il_8h.html#aabdd461d9326ef760d550121d64da3e1" target="_top" xlink:title="ilLoadImage">
<polygon fill="white" stroke="black" points="180.5,-190.5 180.5,-209.5 249.5,-209.5 249.5,-190.5 180.5,-190.5"/>
<text text-anchor="middle" x="215" y="-197.5" font-family="Helvetica,sans-Serif" font-size="10.00">ilLoadImage</text>
</a>
</g>
</g>
<!-- Node1&#45;&gt;Node7 -->
<g id="edge6" class="edge"><title>Node1&#45;&gt;Node7</title>
<path fill="none" stroke="midnightblue" d="M137.783,-200C148.72,-200 159.786,-200 169.969,-200"/>
<polygon fill="midnightblue" stroke="midnightblue" points="170.219,-203.5 180.219,-200 170.218,-196.5 170.219,-203.5"/>
</g>
<!-- Node8 -->
<g id="node8" class="node"><title>Node8</title>
<g id="a_node8"><a xlink:href="../../d2/d16/il_8h.html#ab142f916902d6d251b153151223a950d" target="_top" xlink:title="ilGetInteger">
<polygon fill="white" stroke="black" points="181.5,-152.5 181.5,-171.5 248.5,-171.5 248.5,-152.5 181.5,-152.5"/>
<text text-anchor="middle" x="215" y="-159.5" font-family="Helvetica,sans-Serif" font-size="10.00">ilGetInteger</text>
</a>
</g>
</g>
<!-- Node1&#45;&gt;Node8 -->
<g id="edge7" class="edge"><title>Node1&#45;&gt;Node8</title>
<path fill="none" stroke="midnightblue" d="M106.337,-190.411C126.099,-185.196 150.657,-178.716 171.325,-173.261"/>
<polygon fill="midnightblue" stroke="midnightblue" points="172.346,-176.612 181.121,-170.676 170.559,-169.844 172.346,-176.612"/>
</g>
<!-- Node9 -->
<g id="node9" class="node"><title>Node9</title>
<g id="a_node9"><a xlink:href="../../d2/d16/il_8h.html#ab4343941107c32d8312baa2ef2aeb796" target="_top" xlink:title="ilGetData">
<polygon fill="white" stroke="black" points="186,-114.5 186,-133.5 244,-133.5 244,-114.5 186,-114.5"/>
<text text-anchor="middle" x="215" y="-121.5" font-family="Helvetica,sans-Serif" font-size="10.00">ilGetData</text>
</a>
</g>
</g>
<!-- Node1&#45;&gt;Node9 -->
<g id="edge8" class="edge"><title>Node1&#45;&gt;Node9</title>
<path fill="none" stroke="midnightblue" d="M86.7722,-190.416C107.197,-178.837 142.831,-158.927 174,-143 177.177,-141.377 180.517,-139.717 183.855,-138.089"/>
<polygon fill="midnightblue" stroke="midnightblue" points="185.629,-141.12 193.127,-133.635 182.598,-134.81 185.629,-141.12"/>
</g>
<!-- Node10 -->
<g id="node10" class="node"><title>Node10</title>
<g id="a_node10"><a xlink:href="../../d2/d16/il_8h.html#add4600e363a1e68cf5f5e34e5bce5bac" target="_top" xlink:title="ilGetError">
<polygon fill="white" stroke="black" points="186,-76.5 186,-95.5 244,-95.5 244,-76.5 186,-76.5"/>
<text text-anchor="middle" x="215" y="-83.5" font-family="Helvetica,sans-Serif" font-size="10.00">ilGetError</text>
</a>
</g>
</g>
<!-- Node1&#45;&gt;Node10 -->
<g id="edge9" class="edge"><title>Node1&#45;&gt;Node10</title>
<path fill="none" stroke="midnightblue" d="M78.6787,-190.355C95.61,-171.955 134.83,-131.33 174,-105 176.534,-103.296 179.245,-101.664 182.016,-100.122"/>
<polygon fill="midnightblue" stroke="midnightblue" points="183.648,-103.219 190.934,-95.5264 180.442,-96.9962 183.648,-103.219"/>
</g>
<!-- Node11 -->
<g id="node11" class="node"><title>Node11</title>
<g id="a_node11"><a xlink:href="../../d2/d16/il_8h.html#a19983786494ca1d9157922f6888f6277" target="_top" xlink:title="ilDeleteImages">
<polygon fill="white" stroke="black" points="174,-38.5 174,-57.5 256,-57.5 256,-38.5 174,-38.5"/>
<text text-anchor="middle" x="215" y="-45.5" font-family="Helvetica,sans-Serif" font-size="10.00">ilDeleteImages</text>
</a>
</g>
</g>
<!-- Node1&#45;&gt;Node11 -->
<g id="edge10" class="edge"><title>Node1&#45;&gt;Node11</title>
<path fill="none" stroke="midnightblue" d="M75.3529,-190.394C88.9987,-166.642 127.329,-104.38 174,-67 175.995,-65.402 178.147,-63.8986 180.381,-62.4921"/>
<polygon fill="midnightblue" stroke="midnightblue" points="182.214,-65.4773 189.247,-57.5532 178.808,-59.3621 182.214,-65.4773"/>
</g>
<!-- Node12 -->
<g id="node12" class="node"><title>Node12</title>
<g id="a_node12"><a xlink:href="../../db/d82/wglew_8h.html#a500a82aecba06f4550f6849b8099ca21" target="_top" xlink:title="int">
<polygon fill="white" stroke="black" points="200.5,-0.5 200.5,-19.5 229.5,-19.5 229.5,-0.5 200.5,-0.5"/>
<text text-anchor="middle" x="215" y="-7.5" font-family="Helvetica,sans-Serif" font-size="10.00">int</text>
</a>
</g>
</g>
<!-- Node1&#45;&gt;Node12 -->
<g id="edge11" class="edge"><title>Node1&#45;&gt;Node12</title>
<path fill="none" stroke="midnightblue" d="M73.6186,-190.155C84.5449,-161.632 119.817,-77.873 174,-29 178.828,-24.6456 184.83,-21.0948 190.705,-18.2918"/>
<polygon fill="midnightblue" stroke="midnightblue" points="192.387,-21.3812 200.241,-14.2707 189.667,-14.9311 192.387,-21.3812"/>
</g>
</g>
</svg>
