<?xml version="1.0" encoding="UTF-8" standalone="no"?>
<!DOCTYPE svg PUBLIC "-//W3C//DTD SVG 1.1//EN"
 "http://www.w3.org/Graphics/SVG/1.1/DTD/svg11.dtd">
<!-- Generated by graphviz version 2.36.0 (20140111.2315)
 -->
<!-- Title: GLTexInput::SetImageData Pages: 1 -->
<svg width="442pt" height="294pt"
 viewBox="0.00 0.00 442.00 294.00" xmlns="http://www.w3.org/2000/svg" xmlns:xlink="http://www.w3.org/1999/xlink">
<g id="graph0" class="graph" transform="scale(1 1) rotate(0) translate(4 290)">
<title>GLTexInput::SetImageData</title>
<polygon fill="white" stroke="none" points="-4,4 -4,-290 438,-290 438,4 -4,4"/>
<!-- Node1 -->
<g id="node1" class="node"><title>Node1</title>
<polygon fill="#bfbfbf" stroke="black" points="0.5,-152.5 0.5,-171.5 137.5,-171.5 137.5,-152.5 0.5,-152.5"/>
<text text-anchor="middle" x="69" y="-159.5" font-family="Helvetica,sans-Serif" font-size="10.00">GLTexInput::SetImageData</text>
</g>
<!-- Node2 -->
<g id="node2" class="node"><title>Node2</title>
<g id="a_node2"><a xlink:href="../../da/d33/glew_8h.html#a99e77ebf136a8c511226cf705049a305" target="_top" xlink:title="glGenTextures">
<polygon fill="white" stroke="black" points="207,-266.5 207,-285.5 287,-285.5 287,-266.5 207,-266.5"/>
<text text-anchor="middle" x="247" y="-273.5" font-family="Helvetica,sans-Serif" font-size="10.00">glGenTextures</text>
</a>
</g>
</g>
<!-- Node1&#45;&gt;Node2 -->
<g id="edge1" class="edge"><title>Node1&#45;&gt;Node2</title>
<path fill="none" stroke="midnightblue" d="M77.7689,-171.723C93.7043,-191.002 132.131,-234.175 174,-257 181.182,-260.915 189.212,-264.056 197.233,-266.565"/>
<polygon fill="midnightblue" stroke="midnightblue" points="196.377,-269.961 206.953,-269.323 198.288,-263.227 196.377,-269.961"/>
</g>
<!-- Node3 -->
<g id="node3" class="node"><title>Node3</title>
<g id="a_node3"><a xlink:href="../../da/d33/glew_8h.html#a940f58f3728713267a58e2d09ff602b2" target="_top" xlink:title="glBindTexture">
<polygon fill="white" stroke="black" points="208.5,-228.5 208.5,-247.5 285.5,-247.5 285.5,-228.5 208.5,-228.5"/>
<text text-anchor="middle" x="247" y="-235.5" font-family="Helvetica,sans-Serif" font-size="10.00">glBindTexture</text>
</a>
</g>
</g>
<!-- Node1&#45;&gt;Node3 -->
<g id="edge2" class="edge"><title>Node1&#45;&gt;Node3</title>
<path fill="none" stroke="midnightblue" d="M84.9336,-171.711C104.638,-184.161 140.726,-205.722 174,-219 181.853,-222.134 190.394,-224.907 198.757,-227.298"/>
<polygon fill="midnightblue" stroke="midnightblue" points="197.875,-230.685 208.443,-229.93 199.71,-223.93 197.875,-230.685"/>
</g>
<!-- Node4 -->
<g id="node4" class="node"><title>Node4</title>
<g id="a_node4"><a xlink:href="../../da/d33/glew_8h.html#ac8dbabff536e520bc700960dadd8d787" target="_top" xlink:title="glTexParameteri">
<polygon fill="white" stroke="black" points="203,-190.5 203,-209.5 291,-209.5 291,-190.5 203,-190.5"/>
<text text-anchor="middle" x="247" y="-197.5" font-family="Helvetica,sans-Serif" font-size="10.00">glTexParameteri</text>
</a>
</g>
</g>
<!-- Node1&#45;&gt;Node4 -->
<g id="edge3" class="edge"><title>Node1&#45;&gt;Node4</title>
<path fill="none" stroke="midnightblue" d="M114.412,-171.589C138.22,-176.729 167.721,-183.099 192.753,-188.504"/>
<polygon fill="midnightblue" stroke="midnightblue" points="192.305,-191.987 202.819,-190.677 193.783,-185.145 192.305,-191.987"/>
</g>
<!-- Node5 -->
<g id="node5" class="node"><title>Node5</title>
<g id="a_node5"><a xlink:href="../../da/d33/glew_8h.html#adb2666717eedb30c430d1a371d897c76" target="_top" xlink:title="glPixelStorei">
<polygon fill="white" stroke="black" points="211.5,-152.5 211.5,-171.5 282.5,-171.5 282.5,-152.5 211.5,-152.5"/>
<text text-anchor="middle" x="247" y="-159.5" font-family="Helvetica,sans-Serif" font-size="10.00">glPixelStorei</text>
</a>
</g>
</g>
<!-- Node1&#45;&gt;Node5 -->
<g id="edge4" class="edge"><title>Node1&#45;&gt;Node5</title>
<path fill="none" stroke="midnightblue" d="M137.543,-162C158.907,-162 181.975,-162 201.321,-162"/>
<polygon fill="midnightblue" stroke="midnightblue" points="201.359,-165.5 211.359,-162 201.359,-158.5 201.359,-165.5"/>
</g>
<!-- Node6 -->
<g id="node6" class="node"><title>Node6</title>
<g id="a_node6"><a xlink:href="../../da/d33/glew_8h.html#aa95edbecc15f2cb8072b81af66d60f5b" target="_top" xlink:title="glTexImage2D">
<polygon fill="white" stroke="black" points="207,-114.5 207,-133.5 287,-133.5 287,-114.5 207,-114.5"/>
<text text-anchor="middle" x="247" y="-121.5" font-family="Helvetica,sans-Serif" font-size="10.00">glTexImage2D</text>
</a>
</g>
</g>
<!-- Node1&#45;&gt;Node6 -->
<g id="edge5" class="edge"><title>Node1&#45;&gt;Node6</title>
<path fill="none" stroke="midnightblue" d="M114.412,-152.411C139.584,-146.976 171.122,-140.167 197.011,-134.577"/>
<polygon fill="midnightblue" stroke="midnightblue" points="197.958,-137.953 206.995,-132.422 196.481,-131.111 197.958,-137.953"/>
</g>
<!-- Node7 -->
<g id="node7" class="node"><title>Node7</title>
<g id="a_node7"><a xlink:href="../../d2/d55/classGlobalUtil.html#a30830c22f7574d8d6f5a5b0a0b31ad50" target="_top" xlink:title="GlobalUtil::FitViewPort">
<polygon fill="white" stroke="black" points="189,-76.5 189,-95.5 305,-95.5 305,-76.5 189,-76.5"/>
<text text-anchor="middle" x="247" y="-83.5" font-family="Helvetica,sans-Serif" font-size="10.00">GlobalUtil::FitViewPort</text>
</a>
</g>
</g>
<!-- Node1&#45;&gt;Node7 -->
<g id="edge6" class="edge"><title>Node1&#45;&gt;Node7</title>
<path fill="none" stroke="midnightblue" d="M84.9336,-152.289C104.638,-139.839 140.726,-118.278 174,-105 179.989,-102.61 186.377,-100.431 192.781,-98.4696"/>
<polygon fill="midnightblue" stroke="midnightblue" points="194.171,-101.711 202.804,-95.5697 192.225,-94.987 194.171,-101.711"/>
</g>
<!-- Node13 -->
<g id="node13" class="node"><title>Node13</title>
<g id="a_node13"><a xlink:href="../../d4/d24/classShaderMan.html#a1cf293b113fc3d6353d4cc5c9c70ea75" target="_top" xlink:title="ShaderMan::HaveShaderMan">
<polygon fill="white" stroke="black" points="174.5,-38.5 174.5,-57.5 319.5,-57.5 319.5,-38.5 174.5,-38.5"/>
<text text-anchor="middle" x="247" y="-45.5" font-family="Helvetica,sans-Serif" font-size="10.00">ShaderMan::HaveShaderMan</text>
</a>
</g>
</g>
<!-- Node1&#45;&gt;Node13 -->
<g id="edge12" class="edge"><title>Node1&#45;&gt;Node13</title>
<path fill="none" stroke="midnightblue" d="M77.7689,-152.277C93.7043,-132.998 132.131,-89.8246 174,-67 178.179,-64.7221 182.644,-62.7065 187.228,-60.9247"/>
<polygon fill="midnightblue" stroke="midnightblue" points="188.47,-64.1983 196.748,-57.5869 186.154,-57.5926 188.47,-64.1983"/>
</g>
<!-- Node8 -->
<g id="node8" class="node"><title>Node8</title>
<g id="a_node8"><a xlink:href="../../da/d33/glew_8h.html#ae9ebc290561b3321b629610807155a35" target="_top" xlink:title="glGetIntegerv">
<polygon fill="white" stroke="black" points="357.5,-152.5 357.5,-171.5 432.5,-171.5 432.5,-152.5 357.5,-152.5"/>
<text text-anchor="middle" x="395" y="-159.5" font-family="Helvetica,sans-Serif" font-size="10.00">glGetIntegerv</text>
</a>
</g>
</g>
<!-- Node7&#45;&gt;Node8 -->
<g id="edge7" class="edge"><title>Node7&#45;&gt;Node8</title>
<path fill="none" stroke="midnightblue" d="M298.634,-95.5265C306.078,-98.0035 313.439,-101.11 320,-105 340.011,-116.865 337.312,-129.143 356,-143 358.074,-144.538 360.291,-146.01 362.573,-147.406"/>
<polygon fill="midnightblue" stroke="midnightblue" points="361.094,-150.588 371.534,-152.39 364.496,-144.471 361.094,-150.588"/>
</g>
<!-- Node9 -->
<g id="node9" class="node"><title>Node9</title>
<g id="a_node9"><a xlink:href="../../da/d33/glew_8h.html#a8e93835e91933b7078c88f905dd8599c" target="_top" xlink:title="glViewport">
<polygon fill="white" stroke="black" points="364,-114.5 364,-133.5 426,-133.5 426,-114.5 364,-114.5"/>
<text text-anchor="middle" x="395" y="-121.5" font-family="Helvetica,sans-Serif" font-size="10.00">glViewport</text>
</a>
</g>
</g>
<!-- Node7&#45;&gt;Node9 -->
<g id="edge8" class="edge"><title>Node7&#45;&gt;Node9</title>
<path fill="none" stroke="midnightblue" d="M284.842,-95.589C305.845,-101.055 332.189,-107.912 353.736,-113.52"/>
<polygon fill="midnightblue" stroke="midnightblue" points="353.012,-116.948 363.571,-116.08 354.775,-110.174 353.012,-116.948"/>
</g>
<!-- Node10 -->
<g id="node10" class="node"><title>Node10</title>
<g id="a_node10"><a xlink:href="../../da/d33/glew_8h.html#af14e38e22806d0220680b52edbc3bcef" target="_top" xlink:title="glMatrixMode">
<polygon fill="white" stroke="black" points="357.5,-76.5 357.5,-95.5 432.5,-95.5 432.5,-76.5 357.5,-76.5"/>
<text text-anchor="middle" x="395" y="-83.5" font-family="Helvetica,sans-Serif" font-size="10.00">glMatrixMode</text>
</a>
</g>
</g>
<!-- Node7&#45;&gt;Node10 -->
<g id="edge9" class="edge"><title>Node7&#45;&gt;Node10</title>
<path fill="none" stroke="midnightblue" d="M305.284,-86C319.152,-86 333.815,-86 347.139,-86"/>
<polygon fill="midnightblue" stroke="midnightblue" points="347.496,-89.5001 357.496,-86 347.496,-82.5001 347.496,-89.5001"/>
</g>
<!-- Node11 -->
<g id="node11" class="node"><title>Node11</title>
<g id="a_node11"><a xlink:href="../../da/d33/glew_8h.html#a6577472f85b23086331edadaf0311a49" target="_top" xlink:title="glLoadIdentity">
<polygon fill="white" stroke="black" points="356.5,-38.5 356.5,-57.5 433.5,-57.5 433.5,-38.5 356.5,-38.5"/>
<text text-anchor="middle" x="395" y="-45.5" font-family="Helvetica,sans-Serif" font-size="10.00">glLoadIdentity</text>
</a>
</g>
</g>
<!-- Node7&#45;&gt;Node11 -->
<g id="edge10" class="edge"><title>Node7&#45;&gt;Node11</title>
<path fill="none" stroke="midnightblue" d="M284.842,-76.411C303.848,-71.4642 327.229,-65.3789 347.469,-60.1108"/>
<polygon fill="midnightblue" stroke="midnightblue" points="348.627,-63.4261 357.423,-57.5201 346.864,-56.6518 348.627,-63.4261"/>
</g>
<!-- Node12 -->
<g id="node12" class="node"><title>Node12</title>
<g id="a_node12"><a xlink:href="../../da/d33/glew_8h.html#a2d92120b1fad876057dfd00e2d942525" target="_top" xlink:title="glOrtho">
<polygon fill="white" stroke="black" points="371,-0.5 371,-19.5 419,-19.5 419,-0.5 371,-0.5"/>
<text text-anchor="middle" x="395" y="-7.5" font-family="Helvetica,sans-Serif" font-size="10.00">glOrtho</text>
</a>
</g>
</g>
<!-- Node7&#45;&gt;Node12 -->
<g id="edge11" class="edge"><title>Node7&#45;&gt;Node12</title>
<path fill="none" stroke="midnightblue" d="M298.634,-76.4735C306.078,-73.9965 313.439,-70.8902 320,-67 340.011,-55.1346 337.312,-42.8567 356,-29 358.074,-27.4624 360.291,-25.99 362.573,-24.5939"/>
<polygon fill="midnightblue" stroke="midnightblue" points="364.496,-27.5291 371.534,-19.6097 361.094,-21.4116 364.496,-27.5291"/>
</g>
</g>
</svg>
