<?xml version="1.0" encoding="UTF-8" standalone="no"?>
<!DOCTYPE svg PUBLIC "-//W3C//DTD SVG 1.1//EN"
 "http://www.w3.org/Graphics/SVG/1.1/DTD/svg11.dtd">
<!-- Generated by graphviz version 2.36.0 (20140111.2315)
 -->
<!-- Title: lsd_slam::TrackingReference::importFrame Pages: 1 -->
<svg width="508pt" height="220pt"
 viewBox="0.00 0.00 508.00 220.00" xmlns="http://www.w3.org/2000/svg" xmlns:xlink="http://www.w3.org/1999/xlink">
<g id="graph0" class="graph" transform="scale(1 1) rotate(0) translate(4 216)">
<title>lsd_slam::TrackingReference::importFrame</title>
<polygon fill="white" stroke="none" points="-4,4 -4,-216 504,-216 504,4 -4,4"/>
<!-- Node1 -->
<g id="node1" class="node"><title>Node1</title>
<polygon fill="#bfbfbf" stroke="black" points="0,-82 0,-112 144,-112 144,-82 0,-82"/>
<text text-anchor="start" x="8" y="-100" font-family="Helvetica,sans-Serif" font-size="10.00">lsd_slam::TrackingReference</text>
<text text-anchor="middle" x="72" y="-89" font-family="Helvetica,sans-Serif" font-size="10.00">::importFrame</text>
</g>
<!-- Node2 -->
<g id="node2" class="node"><title>Node2</title>
<g id="a_node2"><a xlink:href="../../dd/d08/classlsd__slam_1_1Frame.html#af73ccb75e1e449d9a8f2044246ee3530" target="_top" xlink:title="lsd_slam::Frame::getActiveLock">
<polygon fill="white" stroke="black" points="180,-163.5 180,-182.5 338,-182.5 338,-163.5 180,-163.5"/>
<text text-anchor="middle" x="259" y="-170.5" font-family="Helvetica,sans-Serif" font-size="10.00">lsd_slam::Frame::getActiveLock</text>
</a>
</g>
</g>
<!-- Node1&#45;&gt;Node2 -->
<g id="edge1" class="edge"><title>Node1&#45;&gt;Node2</title>
<path fill="none" stroke="midnightblue" d="M97.2474,-112.188C118.412,-124.882 150.302,-142.679 180,-154 186.475,-156.468 193.377,-158.695 200.296,-160.68"/>
<polygon fill="midnightblue" stroke="midnightblue" points="199.83,-164.18 210.398,-163.416 201.66,-157.423 199.83,-164.18"/>
</g>
<!-- Node5 -->
<g id="node5" class="node"><title>Node5</title>
<g id="a_node5"><a xlink:href="../../dd/d08/classlsd__slam_1_1Frame.html#a6d38d40cd9a68d253bcb3cab2ddfa068" target="_top" xlink:title="lsd_slam::Frame::id">
<polygon fill="white" stroke="black" points="207.5,-125.5 207.5,-144.5 310.5,-144.5 310.5,-125.5 207.5,-125.5"/>
<text text-anchor="middle" x="259" y="-132.5" font-family="Helvetica,sans-Serif" font-size="10.00">lsd_slam::Frame::id</text>
</a>
</g>
</g>
<!-- Node1&#45;&gt;Node5 -->
<g id="edge4" class="edge"><title>Node1&#45;&gt;Node5</title>
<path fill="none" stroke="midnightblue" d="M144.261,-111.637C163.327,-115.554 183.666,-119.731 201.794,-123.455"/>
<polygon fill="midnightblue" stroke="midnightblue" points="201.116,-126.889 211.616,-125.472 202.525,-120.032 201.116,-126.889"/>
</g>
<!-- Node6 -->
<g id="node6" class="node"><title>Node6</title>
<g id="a_node6"><a xlink:href="../../dd/d08/classlsd__slam_1_1Frame.html#a3f14a1c43b6cb21d31274f880b0bf36b" target="_top" xlink:title="lsd_slam::Frame::width">
<polygon fill="white" stroke="black" points="199.5,-87.5 199.5,-106.5 318.5,-106.5 318.5,-87.5 199.5,-87.5"/>
<text text-anchor="middle" x="259" y="-94.5" font-family="Helvetica,sans-Serif" font-size="10.00">lsd_slam::Frame::width</text>
</a>
</g>
</g>
<!-- Node1&#45;&gt;Node6 -->
<g id="edge5" class="edge"><title>Node1&#45;&gt;Node6</title>
<path fill="none" stroke="midnightblue" d="M144.261,-97C159.065,-97 174.636,-97 189.344,-97"/>
<polygon fill="midnightblue" stroke="midnightblue" points="189.368,-100.5 199.368,-97 189.368,-93.5001 189.368,-100.5"/>
</g>
<!-- Node7 -->
<g id="node7" class="node"><title>Node7</title>
<g id="a_node7"><a xlink:href="../../dd/d08/classlsd__slam_1_1Frame.html#a014d19bf6ffba0f0c0b8b684f9afb0b0" target="_top" xlink:title="lsd_slam::Frame::height">
<polygon fill="white" stroke="black" points="198,-49.5 198,-68.5 320,-68.5 320,-49.5 198,-49.5"/>
<text text-anchor="middle" x="259" y="-56.5" font-family="Helvetica,sans-Serif" font-size="10.00">lsd_slam::Frame::height</text>
</a>
</g>
</g>
<!-- Node1&#45;&gt;Node7 -->
<g id="edge6" class="edge"><title>Node1&#45;&gt;Node7</title>
<path fill="none" stroke="midnightblue" d="M144.261,-82.3626C163.327,-78.4463 183.666,-74.2686 201.794,-70.545"/>
<polygon fill="midnightblue" stroke="midnightblue" points="202.525,-73.9681 211.616,-68.5275 201.116,-67.1112 202.525,-73.9681"/>
</g>
<!-- Node8 -->
<g id="node8" class="node"><title>Node8</title>
<g id="a_node8"><a xlink:href="../../d5/d8e/classlsd__slam_1_1TrackingReference.html#a60a7eea36764253fe87d0b451c07dbb9" target="_top" xlink:title="lsd_slam::TrackingReference\l::clearAll">
<polygon fill="white" stroke="black" points="187,-0 187,-30 331,-30 331,-0 187,-0"/>
<text text-anchor="start" x="195" y="-18" font-family="Helvetica,sans-Serif" font-size="10.00">lsd_slam::TrackingReference</text>
<text text-anchor="middle" x="259" y="-7" font-family="Helvetica,sans-Serif" font-size="10.00">::clearAll</text>
</a>
</g>
</g>
<!-- Node1&#45;&gt;Node8 -->
<g id="edge7" class="edge"><title>Node1&#45;&gt;Node8</title>
<path fill="none" stroke="midnightblue" d="M98.3122,-81.8486C119.604,-69.514 151.112,-52.2074 180,-40 185.37,-37.7305 191.021,-35.5468 196.725,-33.4795"/>
<polygon fill="midnightblue" stroke="midnightblue" points="198.052,-36.7233 206.334,-30.1157 195.739,-30.1164 198.052,-36.7233"/>
</g>
<!-- Node3 -->
<g id="node3" class="node"><title>Node3</title>
<g id="a_node3"><a xlink:href="../../d1/d95/classlsd__slam_1_1FrameMemory.html#adf4afed8c58a420b38e4b117628ac32d" target="_top" xlink:title="lsd_slam::FrameMemory\l::getInstance">
<polygon fill="white" stroke="black" points="374.5,-182 374.5,-212 499.5,-212 499.5,-182 374.5,-182"/>
<text text-anchor="start" x="382.5" y="-200" font-family="Helvetica,sans-Serif" font-size="10.00">lsd_slam::FrameMemory</text>
<text text-anchor="middle" x="437" y="-189" font-family="Helvetica,sans-Serif" font-size="10.00">::getInstance</text>
</a>
</g>
</g>
<!-- Node2&#45;&gt;Node3 -->
<g id="edge2" class="edge"><title>Node2&#45;&gt;Node3</title>
<path fill="none" stroke="midnightblue" d="M329.813,-182.52C341.055,-184.053 352.711,-185.642 364.004,-187.182"/>
<polygon fill="midnightblue" stroke="midnightblue" points="363.869,-190.696 374.25,-188.58 364.815,-183.76 363.869,-190.696"/>
</g>
<!-- Node4 -->
<g id="node4" class="node"><title>Node4</title>
<g id="a_node4"><a xlink:href="../../d1/d95/classlsd__slam_1_1FrameMemory.html#a6835f2a14358dee3518d9f9bff8526e3" target="_top" xlink:title="lsd_slam::FrameMemory\l::activateFrame">
<polygon fill="white" stroke="black" points="374.5,-133 374.5,-163 499.5,-163 499.5,-133 374.5,-133"/>
<text text-anchor="start" x="382.5" y="-151" font-family="Helvetica,sans-Serif" font-size="10.00">lsd_slam::FrameMemory</text>
<text text-anchor="middle" x="437" y="-140" font-family="Helvetica,sans-Serif" font-size="10.00">::activateFrame</text>
</a>
</g>
</g>
<!-- Node2&#45;&gt;Node4 -->
<g id="edge3" class="edge"><title>Node2&#45;&gt;Node4</title>
<path fill="none" stroke="midnightblue" d="M327.04,-163.477C339.183,-161.752 351.891,-159.947 364.165,-158.204"/>
<polygon fill="midnightblue" stroke="midnightblue" points="364.943,-161.629 374.351,-156.757 363.958,-154.698 364.943,-161.629"/>
</g>
</g>
</svg>
