<?xml version="1.0" encoding="UTF-8" standalone="no"?>
<!DOCTYPE svg PUBLIC "-//W3C//DTD SVG 1.1//EN"
 "http://www.w3.org/Graphics/SVG/1.1/DTD/svg11.dtd">
<!-- Generated by graphviz version 2.36.0 (20140111.2315)
 -->
<!-- Title: lsd_slam::TrackingReference::importFrame Pages: 1 -->
<!--zoomable 220 -->
<svg id="main" version="1.1" xmlns="http://www.w3.org/2000/svg" xmlns:xlink="http://www.w3.org/1999/xlink" xml:space="preserve" onload="init(evt)">
<style type="text/css"><![CDATA[
.edge:hover path { stroke: red; }
.edge:hover polygon { stroke: red; fill: red; }
]]></style>
<script type="text/javascript"><![CDATA[
var edges = document.getElementsByTagName('g');
if (edges && edges.length) {
  for (var i=0;i<edges.length;i++) {
    if (edges[i].id.substr(0,4)=='edge') {
      edges[i].setAttribute('class','edge');
    }
  }
}
]]></script>
        <defs>
                <circle id="rim" cx="0" cy="0" r="7"/>
                <circle id="rim2" cx="0" cy="0" r="3.5"/>
                <g id="zoomPlus">
                        <use xlink:href="#rim" fill="#404040">
                                <set attributeName="fill" to="#808080" begin="zoomplus.mouseover" end="zoomplus.mouseout"/>
                        </use>
                        <path d="M-4,0h8M0,-4v8" fill="none" stroke="white" stroke-width="1.5" pointer-events="none"/>
                </g>
                <g id="zoomMin">
                        <use xlink:href="#rim" fill="#404040">
                                <set attributeName="fill" to="#808080" begin="zoomminus.mouseover" end="zoomminus.mouseout"/>
                        </use>
                        <path d="M-4,0h8" fill="none" stroke="white" stroke-width="1.5" pointer-events="none"/>
                </g>
                <g id="dirArrow">
                        <path fill="none" stroke="white" stroke-width="1.5" d="M0,-3.0v7 M-2.5,-0.5L0,-3.0L2.5,-0.5"/>
                </g>
               <g id="resetDef">
                       <use xlink:href="#rim2" fill="#404040">
                               <set attributeName="fill" to="#808080" begin="reset.mouseover" end="reset.mouseout"/>
                       </use>
               </g>
        </defs>

<script type="text/javascript">
var viewWidth = 508;
var viewHeight = 220;
var sectionId = 'dynsection-2';
</script>
<script xlink:href="../../svgpan.js"/>
<svg id="graph" class="graph">
<g id="viewport">
<title>lsd_slam::TrackingReference::importFrame</title>
<polygon fill="white" stroke="none" points="-4,4 -4,-216 504,-216 504,4 -4,4"/>
<!-- Node1 -->
<g id="node1" class="node"><title>Node1</title>
<polygon fill="#bfbfbf" stroke="black" points="0,-82 0,-112 144,-112 144,-82 0,-82"/>
<text text-anchor="start" x="8" y="-100" font-family="Helvetica,sans-Serif" font-size="10.00">lsd_slam::TrackingReference</text>
<text text-anchor="middle" x="72" y="-89" font-family="Helvetica,sans-Serif" font-size="10.00">::importFrame</text>
</g>
<!-- Node2 -->
<g id="node2" class="node"><title>Node2</title>
<g id="a_node2"><a xlink:href="../../dd/d08/classlsd__slam_1_1Frame.html#af73ccb75e1e449d9a8f2044246ee3530" target="_top" xlink:title="lsd_slam::Frame::getActiveLock">
<polygon fill="white" stroke="black" points="180,-163.5 180,-182.5 338,-182.5 338,-163.5 180,-163.5"/>
<text text-anchor="middle" x="259" y="-170.5" font-family="Helvetica,sans-Serif" font-size="10.00">lsd_slam::Frame::getActiveLock</text>
</a>
</g>
</g>
<!-- Node1&#45;&gt;Node2 -->
<g id="edge1" class="edge"><title>Node1&#45;&gt;Node2</title>
<path fill="none" stroke="midnightblue" d="M97.2474,-112.188C118.412,-124.882 150.302,-142.679 180,-154 186.475,-156.468 193.377,-158.695 200.296,-160.68"/>
<polygon fill="midnightblue" stroke="midnightblue" points="199.83,-164.18 210.398,-163.416 201.66,-157.423 199.83,-164.18"/>
</g>
<!-- Node5 -->
<g id="node5" class="node"><title>Node5</title>
<g id="a_node5"><a xlink:href="../../dd/d08/classlsd__slam_1_1Frame.html#a6d38d40cd9a68d253bcb3cab2ddfa068" target="_top" xlink:title="lsd_slam::Frame::id">
<polygon fill="white" stroke="black" points="207.5,-125.5 207.5,-144.5 310.5,-144.5 310.5,-125.5 207.5,-125.5"/>
<text text-anchor="middle" x="259" y="-132.5" font-family="Helvetica,sans-Serif" font-size="10.00">lsd_slam::Frame::id</text>
</a>
</g>
</g>
<!-- Node1&#45;&gt;Node5 -->
<g id="edge4" class="edge"><title>Node1&#45;&gt;Node5</title>
<path fill="none" stroke="midnightblue" d="M144.261,-111.637C163.327,-115.554 183.666,-119.731 201.794,-123.455"/>
<polygon fill="midnightblue" stroke="midnightblue" points="201.116,-126.889 211.616,-125.472 202.525,-120.032 201.116,-126.889"/>
</g>
<!-- Node6 -->
<g id="node6" class="node"><title>Node6</title>
<g id="a_node6"><a xlink:href="../../dd/d08/classlsd__slam_1_1Frame.html#a3f14a1c43b6cb21d31274f880b0bf36b" target="_top" xlink:title="lsd_slam::Frame::width">
<polygon fill="white" stroke="black" points="199.5,-87.5 199.5,-106.5 318.5,-106.5 318.5,-87.5 199.5,-87.5"/>
<text text-anchor="middle" x="259" y="-94.5" font-family="Helvetica,sans-Serif" font-size="10.00">lsd_slam::Frame::width</text>
</a>
</g>
</g>
<!-- Node1&#45;&gt;Node6 -->
<g id="edge5" class="edge"><title>Node1&#45;&gt;Node6</title>
<path fill="none" stroke="midnightblue" d="M144.261,-97C159.065,-97 174.636,-97 189.344,-97"/>
<polygon fill="midnightblue" stroke="midnightblue" points="189.368,-100.5 199.368,-97 189.368,-93.5001 189.368,-100.5"/>
</g>
<!-- Node7 -->
<g id="node7" class="node"><title>Node7</title>
<g id="a_node7"><a xlink:href="../../dd/d08/classlsd__slam_1_1Frame.html#a014d19bf6ffba0f0c0b8b684f9afb0b0" target="_top" xlink:title="lsd_slam::Frame::height">
<polygon fill="white" stroke="black" points="198,-49.5 198,-68.5 320,-68.5 320,-49.5 198,-49.5"/>
<text text-anchor="middle" x="259" y="-56.5" font-family="Helvetica,sans-Serif" font-size="10.00">lsd_slam::Frame::height</text>
</a>
</g>
</g>
<!-- Node1&#45;&gt;Node7 -->
<g id="edge6" class="edge"><title>Node1&#45;&gt;Node7</title>
<path fill="none" stroke="midnightblue" d="M144.261,-82.3626C163.327,-78.4463 183.666,-74.2686 201.794,-70.545"/>
<polygon fill="midnightblue" stroke="midnightblue" points="202.525,-73.9681 211.616,-68.5275 201.116,-67.1112 202.525,-73.9681"/>
</g>
<!-- Node8 -->
<g id="node8" class="node"><title>Node8</title>
<g id="a_node8"><a xlink:href="../../d5/d8e/classlsd__slam_1_1TrackingReference.html#a60a7eea36764253fe87d0b451c07dbb9" target="_top" xlink:title="lsd_slam::TrackingReference\l::clearAll">
<polygon fill="white" stroke="black" points="187,-0 187,-30 331,-30 331,-0 187,-0"/>
<text text-anchor="start" x="195" y="-18" font-family="Helvetica,sans-Serif" font-size="10.00">lsd_slam::TrackingReference</text>
<text text-anchor="middle" x="259" y="-7" font-family="Helvetica,sans-Serif" font-size="10.00">::clearAll</text>
</a>
</g>
</g>
<!-- Node1&#45;&gt;Node8 -->
<g id="edge7" class="edge"><title>Node1&#45;&gt;Node8</title>
<path fill="none" stroke="midnightblue" d="M98.3122,-81.8486C119.604,-69.514 151.112,-52.2074 180,-40 185.37,-37.7305 191.021,-35.5468 196.725,-33.4795"/>
<polygon fill="midnightblue" stroke="midnightblue" points="198.052,-36.7233 206.334,-30.1157 195.739,-30.1164 198.052,-36.7233"/>
</g>
<!-- Node3 -->
<g id="node3" class="node"><title>Node3</title>
<g id="a_node3"><a xlink:href="../../d1/d95/classlsd__slam_1_1FrameMemory.html#adf4afed8c58a420b38e4b117628ac32d" target="_top" xlink:title="lsd_slam::FrameMemory\l::getInstance">
<polygon fill="white" stroke="black" points="374.5,-182 374.5,-212 499.5,-212 499.5,-182 374.5,-182"/>
<text text-anchor="start" x="382.5" y="-200" font-family="Helvetica,sans-Serif" font-size="10.00">lsd_slam::FrameMemory</text>
<text text-anchor="middle" x="437" y="-189" font-family="Helvetica,sans-Serif" font-size="10.00">::getInstance</text>
</a>
</g>
</g>
<!-- Node2&#45;&gt;Node3 -->
<g id="edge2" class="edge"><title>Node2&#45;&gt;Node3</title>
<path fill="none" stroke="midnightblue" d="M329.813,-182.52C341.055,-184.053 352.711,-185.642 364.004,-187.182"/>
<polygon fill="midnightblue" stroke="midnightblue" points="363.869,-190.696 374.25,-188.58 364.815,-183.76 363.869,-190.696"/>
</g>
<!-- Node4 -->
<g id="node4" class="node"><title>Node4</title>
<g id="a_node4"><a xlink:href="../../d1/d95/classlsd__slam_1_1FrameMemory.html#a6835f2a14358dee3518d9f9bff8526e3" target="_top" xlink:title="lsd_slam::FrameMemory\l::activateFrame">
<polygon fill="white" stroke="black" points="374.5,-133 374.5,-163 499.5,-163 499.5,-133 374.5,-133"/>
<text text-anchor="start" x="382.5" y="-151" font-family="Helvetica,sans-Serif" font-size="10.00">lsd_slam::FrameMemory</text>
<text text-anchor="middle" x="437" y="-140" font-family="Helvetica,sans-Serif" font-size="10.00">::activateFrame</text>
</a>
</g>
</g>
<!-- Node2&#45;&gt;Node4 -->
<g id="edge3" class="edge"><title>Node2&#45;&gt;Node4</title>
<path fill="none" stroke="midnightblue" d="M327.04,-163.477C339.183,-161.752 351.891,-159.947 364.165,-158.204"/>
<polygon fill="midnightblue" stroke="midnightblue" points="364.943,-161.629 374.351,-156.757 363.958,-154.698 364.943,-161.629"/>
</g>
</g>
</svg>
        <g id="navigator" transform="translate(0 0)" fill="#404254">
                <rect fill="#f2f5e9" fill-opacity="0.5" stroke="#606060" stroke-width=".5" x="0" y="0" width="60" height="60"/>
                <use id="zoomplus" xlink:href="#zoomPlus" x="17" y="9" onmousedown="handleZoom(evt,'in')"/>
                <use id="zoomminus" xlink:href="#zoomMin" x="42" y="9" onmousedown="handleZoom(evt,'out')"/>
                <use id="reset" xlink:href="#resetDef" x="30" y="36" onmousedown="handleReset()"/>
                <g id="arrowUp" xlink:href="#dirArrow" transform="translate(30 24)" onmousedown="handlePan(0,-1)">
                  <use xlink:href="#rim" fill="#404040">
                        <set attributeName="fill" to="#808080" begin="arrowUp.mouseover" end="arrowUp.mouseout"/>
                  </use>
                  <path fill="none" stroke="white" stroke-width="1.5" d="M0,-3.0v7 M-2.5,-0.5L0,-3.0L2.5,-0.5"/>
                </g>
                <g id="arrowRight" xlink:href="#dirArrow" transform="rotate(90) translate(36 -43)" onmousedown="handlePan(1,0)">
                  <use xlink:href="#rim" fill="#404040">
                        <set attributeName="fill" to="#808080" begin="arrowRight.mouseover" end="arrowRight.mouseout"/>
                  </use>
                  <path fill="none" stroke="white" stroke-width="1.5" d="M0,-3.0v7 M-2.5,-0.5L0,-3.0L2.5,-0.5"/>
                </g>
                <g id="arrowDown" xlink:href="#dirArrow" transform="rotate(180) translate(-30 -48)" onmousedown="handlePan(0,1)">
                  <use xlink:href="#rim" fill="#404040">
                        <set attributeName="fill" to="#808080" begin="arrowDown.mouseover" end="arrowDown.mouseout"/>
                  </use>
                  <path fill="none" stroke="white" stroke-width="1.5" d="M0,-3.0v7 M-2.5,-0.5L0,-3.0L2.5,-0.5"/>
                </g>
                <g id="arrowLeft" xlink:href="#dirArrow" transform="rotate(270) translate(-36 17)" onmousedown="handlePan(-1,0)">
                  <use xlink:href="#rim" fill="#404040">
                        <set attributeName="fill" to="#808080" begin="arrowLeft.mouseover" end="arrowLeft.mouseout"/>
                  </use>
                  <path fill="none" stroke="white" stroke-width="1.5" d="M0,-3.0v7 M-2.5,-0.5L0,-3.0L2.5,-0.5"/>
                </g>
        </g>
        <svg viewBox="0 0 15 15" width="100%" height="30px" preserveAspectRatio="xMaxYMin meet">
         <g id="arrow_out" transform="scale(0.3 0.3)">
          <a xlink:href="classlsd__slam_1_1TrackingReference_a73119563af9f3bde976a5a9e4e988b2b_cgraph_org.svg" target="_base">
           <rect id="button" ry="5" rx="5" y="6" x="6" height="38" width="38"
                fill="#f2f5e9" fill-opacity="0.5" stroke="#606060" stroke-width="1.0"/>
           <path id="arrow"
             d="M 11.500037,31.436501 C 11.940474,20.09759 22.043105,11.32322 32.158766,21.979434 L 37.068811,17.246167 C 37.068811,17.246167 37.088388,32 37.088388,32 L 22.160133,31.978069 C 22.160133,31.978069 26.997745,27.140456 26.997745,27.140456 C 18.528582,18.264221 13.291696,25.230495 11.500037,31.436501 z"
             style="fill:#404040;"/>
          </a>
         </g>
        </svg>
</svg>
