<?xml version="1.0" encoding="UTF-8" standalone="no"?>
<!DOCTYPE svg PUBLIC "-//W3C//DTD SVG 1.1//EN"
 "http://www.w3.org/Graphics/SVG/1.1/DTD/svg11.dtd">
<!-- Generated by graphviz version 2.36.0 (20140111.2315)
 -->
<!-- Title: thirdparty/openFabMap/src Pages: 1 -->
<svg width="97pt" height="151pt"
 viewBox="0.00 0.00 97.00 151.00" xmlns="http://www.w3.org/2000/svg" xmlns:xlink="http://www.w3.org/1999/xlink">
<g id="graph0" class="graph" transform="scale(1 1) rotate(0) translate(4 147)">
<title>thirdparty/openFabMap/src</title>
<polygon fill="white" stroke="none" points="-4,4 -4,-147 93,-147 93,4 -4,4"/>
<g id="clust1" class="cluster"><title>clusterdir_64448de85cbe42ab6d1f0c3dcfdae65c</title>
<g id="a_clust1"><a xlink:href="dir_64448de85cbe42ab6d1f0c3dcfdae65c.html" target="_top" xlink:title="openFabMap">
<polygon fill="#ddddee" stroke="black" points="8,-64 8,-135 81,-135 81,-64 8,-64"/>
<text text-anchor="middle" x="44.5" y="-123" font-family="Helvetica,sans-Serif" font-size="10.00">openFabMap</text>
</a>
</g>
</g>
<!-- dir_167836574a318d6d0ccf06d891301cbc -->
<g id="node1" class="node"><title>dir_167836574a318d6d0ccf06d891301cbc</title>
<g id="a_node1"><a xlink:href="dir_167836574a318d6d0ccf06d891301cbc.html" target="_top" xlink:title="src">
<polygon fill="#eeeeff" stroke="black" points="71,-108 17,-108 17,-72 71,-72 71,-108"/>
<text text-anchor="middle" x="44" y="-87.5" font-family="Helvetica,sans-Serif" font-size="10.00">src</text>
</a>
</g>
</g>
<!-- dir_39cee6436a83d96e60d3a343599ab3f5 -->
<g id="node2" class="node"><title>dir_39cee6436a83d96e60d3a343599ab3f5</title>
<g id="a_node2"><a xlink:href="dir_39cee6436a83d96e60d3a343599ab3f5.html" target="_top" xlink:title="include">
<polygon fill="none" stroke="black" points="71,-36 17,-36 17,-0 71,-0 71,-36"/>
<text text-anchor="middle" x="44" y="-15.5" font-family="Helvetica,sans-Serif" font-size="10.00">include</text>
</a>
</g>
</g>
<!-- dir_167836574a318d6d0ccf06d891301cbc&#45;&gt;dir_39cee6436a83d96e60d3a343599ab3f5 -->
<g id="edge1" class="edge"><title>dir_167836574a318d6d0ccf06d891301cbc&#45;&gt;dir_39cee6436a83d96e60d3a343599ab3f5</title>
<path fill="none" stroke="black" d="M44,-71.6966C44,-63.9827 44,-54.7125 44,-46.1124"/>
<polygon fill="black" stroke="black" points="47.5001,-46.1043 44,-36.1043 40.5001,-46.1044 47.5001,-46.1043"/>
<g id="a_edge1&#45;headlabel"><a xlink:href="dir_000017_000025.html" target="_top" xlink:title="3">
<text text-anchor="middle" x="50.3393" y="-47.199" font-family="Helvetica,sans-Serif" font-size="10.00">3</text>
</a>
</g>
</g>
</g>
</svg>
