<?xml version="1.0" encoding="UTF-8" standalone="no"?>
<!DOCTYPE svg PUBLIC "-//W3C//DTD SVG 1.1//EN"
 "http://www.w3.org/Graphics/SVG/1.1/DTD/svg11.dtd">
<!-- Generated by graphviz version 2.36.0 (20140111.2315)
 -->
<!-- Title: src/util Pages: 1 -->
<svg width="166pt" height="151pt"
 viewBox="0.00 0.00 166.00 151.00" xmlns="http://www.w3.org/2000/svg" xmlns:xlink="http://www.w3.org/1999/xlink">
<g id="graph0" class="graph" transform="scale(1 1) rotate(0) translate(4 147)">
<title>src/util</title>
<polygon fill="white" stroke="none" points="-4,4 -4,-147 162,-147 162,4 -4,4"/>
<g id="clust1" class="cluster"><title>clusterdir_ab5d75ad8c66551d10c4965d9af7e3ec</title>
<g id="a_clust1"><a xlink:href="dir_ab5d75ad8c66551d10c4965d9af7e3ec.html" target="_top" xlink:title="src">
<polygon fill="#ddddee" stroke="black" points="9,-64 9,-135 79,-135 79,-64 9,-64"/>
<text text-anchor="middle" x="44" y="-123" font-family="Helvetica,sans-Serif" font-size="10.00">src</text>
</a>
</g>
</g>
<!-- dir_34bcbc45e305e89c33b8e97dd88c544b -->
<g id="node1" class="node"><title>dir_34bcbc45e305e89c33b8e97dd88c544b</title>
<g id="a_node1"><a xlink:href="dir_34bcbc45e305e89c33b8e97dd88c544b.html" target="_top" xlink:title="util">
<polygon fill="#eeeeff" stroke="black" points="71,-108 17,-108 17,-72 71,-72 71,-108"/>
<text text-anchor="middle" x="44" y="-87.5" font-family="Helvetica,sans-Serif" font-size="10.00">util</text>
</a>
</g>
</g>
<!-- dir_1fe0d3d7756bf8082d7d7d98c210802f -->
<g id="node2" class="node"><title>dir_1fe0d3d7756bf8082d7d7d98c210802f</title>
<g id="a_node2"><a xlink:href="dir_1fe0d3d7756bf8082d7d7d98c210802f.html" target="_top" xlink:title="DataStructures">
<polygon fill="none" stroke="black" points="82.25,-36 -0.25,-36 -0.25,-0 82.25,-0 82.25,-36"/>
<text text-anchor="middle" x="41" y="-15.5" font-family="Helvetica,sans-Serif" font-size="10.00">DataStructures</text>
</a>
</g>
</g>
<!-- dir_34bcbc45e305e89c33b8e97dd88c544b&#45;&gt;dir_1fe0d3d7756bf8082d7d7d98c210802f -->
<g id="edge2" class="edge"><title>dir_34bcbc45e305e89c33b8e97dd88c544b&#45;&gt;dir_1fe0d3d7756bf8082d7d7d98c210802f</title>
<path fill="none" stroke="black" d="M37.3427,-71.6966C36.2164,-63.9827 35.5926,-54.7125 35.5667,-46.1124"/>
<polygon fill="black" stroke="black" points="39.0656,-46.1956 35.838,-36.1043 32.0682,-46.0058 39.0656,-46.1956"/>
<g id="a_edge2&#45;headlabel"><a xlink:href="dir_000024_000012.html" target="_top" xlink:title="1">
<text text-anchor="middle" x="41.8065" y="-47.3658" font-family="Helvetica,sans-Serif" font-size="10.00">1</text>
</a>
</g>
</g>
<!-- dir_289bbddd08fbc437f0d31835729d536b -->
<g id="node3" class="node"><title>dir_289bbddd08fbc437f0d31835729d536b</title>
<g id="a_node3"><a xlink:href="dir_289bbddd08fbc437f0d31835729d536b.html" target="_top" xlink:title="IOWrapper">
<polygon fill="white" stroke="red" points="158,-108 94,-108 94,-72 158,-72 158,-108"/>
<text text-anchor="middle" x="126" y="-87.5" font-family="Helvetica,sans-Serif" font-size="10.00">IOWrapper</text>
</a>
</g>
</g>
<!-- dir_34bcbc45e305e89c33b8e97dd88c544b&#45;&gt;dir_289bbddd08fbc437f0d31835729d536b -->
<g id="edge3" class="edge"><title>dir_34bcbc45e305e89c33b8e97dd88c544b&#45;&gt;dir_289bbddd08fbc437f0d31835729d536b</title>
<path fill="none" stroke="black" d="M71.2266,-90C75.3609,-90 79.4952,-90 83.6295,-90"/>
<polygon fill="black" stroke="black" points="83.9062,-93.5001 93.9062,-90 83.9062,-86.5001 83.9062,-93.5001"/>
<g id="a_edge3&#45;headlabel"><a xlink:href="dir_000024_000018.html" target="_top" xlink:title="1">
<text text-anchor="middle" x="80.3116" y="-93.8393" font-family="Helvetica,sans-Serif" font-size="10.00">1</text>
</a>
</g>
</g>
<!-- dir_a65dcb3837643c07dc99e376c7aee8a8 -->
<g id="node4" class="node"><title>dir_a65dcb3837643c07dc99e376c7aee8a8</title>
<g id="a_node4"><a xlink:href="dir_a65dcb3837643c07dc99e376c7aee8a8.html" target="_top" xlink:title="thirdparty">
<polygon fill="white" stroke="red" points="157.25,-36 100.75,-36 100.75,-0 157.25,-0 157.25,-36"/>
<text text-anchor="middle" x="129" y="-15.5" font-family="Helvetica,sans-Serif" font-size="10.00">thirdparty</text>
</a>
</g>
</g>
<!-- dir_34bcbc45e305e89c33b8e97dd88c544b&#45;&gt;dir_a65dcb3837643c07dc99e376c7aee8a8 -->
<g id="edge4" class="edge"><title>dir_34bcbc45e305e89c33b8e97dd88c544b&#45;&gt;dir_a65dcb3837643c07dc99e376c7aee8a8</title>
<path fill="none" stroke="black" d="M65.0112,-71.6966C75.7163,-62.8807 88.8897,-52.0321 100.496,-42.4742"/>
<polygon fill="black" stroke="black" points="102.736,-45.1632 108.23,-36.1043 98.2861,-39.7597 102.736,-45.1632"/>
<g id="a_edge4&#45;headlabel"><a xlink:href="dir_000024_000015.html" target="_top" xlink:title="4">
<text text-anchor="middle" x="101.766" y="-47.14" font-family="Helvetica,sans-Serif" font-size="10.00">4</text>
</a>
</g>
</g>
<!-- dir_1fe0d3d7756bf8082d7d7d98c210802f&#45;&gt;dir_34bcbc45e305e89c33b8e97dd88c544b -->
<g id="edge1" class="edge"><title>dir_1fe0d3d7756bf8082d7d7d98c210802f&#45;&gt;dir_34bcbc45e305e89c33b8e97dd88c544b</title>
<path fill="none" stroke="black" d="M47.6281,-36.1043C48.763,-43.7913 49.3963,-53.0537 49.4325,-61.6651"/>
<polygon fill="black" stroke="black" points="45.9329,-61.6098 49.1742,-71.6966 52.9306,-61.7901 45.9329,-61.6098"/>
<g id="a_edge1&#45;headlabel"><a xlink:href="dir_000012_000024.html" target="_top" xlink:title="3">
<text text-anchor="middle" x="43.187" y="-55.4433" font-family="Helvetica,sans-Serif" font-size="10.00">3</text>
</a>
</g>
</g>
<!-- dir_289bbddd08fbc437f0d31835729d536b&#45;&gt;dir_34bcbc45e305e89c33b8e97dd88c544b -->
<g id="edge6" class="edge"><title>dir_289bbddd08fbc437f0d31835729d536b&#45;&gt;dir_34bcbc45e305e89c33b8e97dd88c544b</title>
<path fill="none" stroke="black" d="M93.9062,-90C89.7719,-90 85.6376,-90 81.5033,-90"/>
<polygon fill="black" stroke="black" points="81.2266,-86.5001 71.2266,-90 81.2265,-93.5001 81.2266,-86.5001"/>
<g id="a_edge6&#45;headlabel"><a xlink:href="dir_000018_000024.html" target="_top" xlink:title="6">
<text text-anchor="middle" x="84.8212" y="-81.1607" font-family="Helvetica,sans-Serif" font-size="10.00">6</text>
</a>
</g>
</g>
<!-- dir_289bbddd08fbc437f0d31835729d536b&#45;&gt;dir_1fe0d3d7756bf8082d7d7d98c210802f -->
<g id="edge5" class="edge"><title>dir_289bbddd08fbc437f0d31835729d536b&#45;&gt;dir_1fe0d3d7756bf8082d7d7d98c210802f</title>
<path fill="none" stroke="black" d="M104.989,-71.6966C94.2837,-62.8807 81.1103,-52.0321 69.5044,-42.4742"/>
<polygon fill="black" stroke="black" points="71.7139,-39.7597 61.7695,-36.1043 67.2639,-45.1632 71.7139,-39.7597"/>
<g id="a_edge5&#45;headlabel"><a xlink:href="dir_000018_000012.html" target="_top" xlink:title="1">
<text text-anchor="middle" x="76.2936" y="-37.3531" font-family="Helvetica,sans-Serif" font-size="10.00">1</text>
</a>
</g>
</g>
<!-- dir_289bbddd08fbc437f0d31835729d536b&#45;&gt;dir_a65dcb3837643c07dc99e376c7aee8a8 -->
<g id="edge7" class="edge"><title>dir_289bbddd08fbc437f0d31835729d536b&#45;&gt;dir_a65dcb3837643c07dc99e376c7aee8a8</title>
<path fill="none" stroke="black" d="M126.742,-71.6966C127.072,-63.9827 127.469,-54.7125 127.838,-46.1124"/>
<polygon fill="black" stroke="black" points="131.335,-46.2451 128.267,-36.1043 124.342,-45.9453 131.335,-46.2451"/>
<g id="a_edge7&#45;headlabel"><a xlink:href="dir_000018_000015.html" target="_top" xlink:title="1">
<text text-anchor="middle" x="134.018" y="-47.4579" font-family="Helvetica,sans-Serif" font-size="10.00">1</text>
</a>
</g>
</g>
</g>
</svg>
