<?xml version="1.0" encoding="UTF-8" standalone="no"?>
<!DOCTYPE svg PUBLIC "-//W3C//DTD SVG 1.1//EN"
 "http://www.w3.org/Graphics/SVG/1.1/DTD/svg11.dtd">
<!-- Generated by graphviz version 2.36.0 (20140111.2315)
 -->
<!-- Title: Graphical Class Hierarchy Pages: 1 -->
<svg width="208pt" height="142pt"
 viewBox="0.00 0.00 208.00 142.00" xmlns="http://www.w3.org/2000/svg" xmlns:xlink="http://www.w3.org/1999/xlink">
<g id="graph0" class="graph" transform="scale(1 1) rotate(0) translate(4 138)">
<title>Graphical Class Hierarchy</title>
<polygon fill="white" stroke="none" points="-4,4 -4,-138 204,-138 204,4 -4,4"/>
<!-- Node1 -->
<g id="node1" class="node"><title>Node1</title>
<g id="a_node1"><a xlink:href="d5/d90/classof2_1_1FabMap.html" target="_top" xlink:title="of2::FabMap">
<polygon fill="white" stroke="black" points="0.5,-57.5 0.5,-76.5 71.5,-76.5 71.5,-57.5 0.5,-57.5"/>
<text text-anchor="middle" x="36" y="-64.5" font-family="Helvetica,sans-Serif" font-size="10.00">of2::FabMap</text>
</a>
</g>
</g>
<!-- Node2 -->
<g id="node2" class="node"><title>Node2</title>
<g id="a_node2"><a xlink:href="dd/d71/classof2_1_1FabMap1.html" target="_top" xlink:title="of2::FabMap1">
<polygon fill="white" stroke="black" points="115.5,-114.5 115.5,-133.5 192.5,-133.5 192.5,-114.5 115.5,-114.5"/>
<text text-anchor="middle" x="154" y="-121.5" font-family="Helvetica,sans-Serif" font-size="10.00">of2::FabMap1</text>
</a>
</g>
</g>
<!-- Node1&#45;&gt;Node2 -->
<g id="edge1" class="edge"><title>Node1&#45;&gt;Node2</title>
<path fill="none" stroke="midnightblue" d="M62.7717,-81.53C76.1195,-88.8665 92.7716,-97.7288 108,-105 114.734,-108.216 122.156,-111.465 128.997,-114.346"/>
<polygon fill="midnightblue" stroke="midnightblue" points="64.1468,-78.2905 53.704,-76.5022 60.7523,-84.4124 64.1468,-78.2905"/>
</g>
<!-- Node3 -->
<g id="node3" class="node"><title>Node3</title>
<g id="a_node3"><a xlink:href="dc/d0e/classof2_1_1FabMap2.html" target="_top" xlink:title="of2::FabMap2">
<polygon fill="white" stroke="black" points="115.5,-76.5 115.5,-95.5 192.5,-95.5 192.5,-76.5 115.5,-76.5"/>
<text text-anchor="middle" x="154" y="-83.5" font-family="Helvetica,sans-Serif" font-size="10.00">of2::FabMap2</text>
</a>
</g>
</g>
<!-- Node1&#45;&gt;Node3 -->
<g id="edge2" class="edge"><title>Node1&#45;&gt;Node3</title>
<path fill="none" stroke="midnightblue" d="M81.7629,-74.3318C92.8713,-76.1513 104.664,-78.0829 115.391,-79.8399"/>
<polygon fill="midnightblue" stroke="midnightblue" points="82.2381,-70.8631 71.8038,-72.7006 81.1066,-77.7711 82.2381,-70.8631"/>
</g>
<!-- Node4 -->
<g id="node4" class="node"><title>Node4</title>
<g id="a_node4"><a xlink:href="d5/dd3/classof2_1_1FabMapFBO.html" target="_top" xlink:title="of2::FabMapFBO">
<polygon fill="white" stroke="black" points="108,-38.5 108,-57.5 200,-57.5 200,-38.5 108,-38.5"/>
<text text-anchor="middle" x="154" y="-45.5" font-family="Helvetica,sans-Serif" font-size="10.00">of2::FabMapFBO</text>
</a>
</g>
</g>
<!-- Node1&#45;&gt;Node4 -->
<g id="edge3" class="edge"><title>Node1&#45;&gt;Node4</title>
<path fill="none" stroke="midnightblue" d="M81.9445,-59.6384C90.4625,-58.2432 99.3768,-56.7831 107.9,-55.3871"/>
<polygon fill="midnightblue" stroke="midnightblue" points="81.1066,-56.2289 71.8038,-61.2994 82.2381,-63.1369 81.1066,-56.2289"/>
</g>
<!-- Node5 -->
<g id="node5" class="node"><title>Node5</title>
<g id="a_node5"><a xlink:href="da/de7/classof2_1_1FabMapLUT.html" target="_top" xlink:title="of2::FabMapLUT">
<polygon fill="white" stroke="black" points="109,-0.5 109,-19.5 199,-19.5 199,-0.5 109,-0.5"/>
<text text-anchor="middle" x="154" y="-7.5" font-family="Helvetica,sans-Serif" font-size="10.00">of2::FabMapLUT</text>
</a>
</g>
</g>
<!-- Node1&#45;&gt;Node5 -->
<g id="edge4" class="edge"><title>Node1&#45;&gt;Node5</title>
<path fill="none" stroke="midnightblue" d="M62.7717,-52.47C76.1195,-45.1335 92.7716,-36.2712 108,-29 114.734,-25.7845 122.156,-22.5345 128.997,-19.6537"/>
<polygon fill="midnightblue" stroke="midnightblue" points="60.7523,-49.5876 53.704,-57.4978 64.1468,-55.7095 60.7523,-49.5876"/>
</g>
</g>
</svg>
