<?xml version="1.0" encoding="UTF-8" standalone="no"?>
<!DOCTYPE svg PUBLIC "-//W3C//DTD SVG 1.1//EN"
 "http://www.w3.org/Graphics/SVG/1.1/DTD/svg11.dtd">
<!-- Generated by graphviz version 2.36.0 (20140111.2315)
 -->
<!-- Title: Graphical Class Hierarchy Pages: 1 -->
<svg width="304pt" height="60pt"
 viewBox="0.00 0.00 304.00 60.00" xmlns="http://www.w3.org/2000/svg" xmlns:xlink="http://www.w3.org/1999/xlink">
<g id="graph0" class="graph" transform="scale(1 1) rotate(0) translate(4 56)">
<title>Graphical Class Hierarchy</title>
<polygon fill="white" stroke="none" points="-4,4 -4,-56 300,-56 300,4 -4,4"/>
<!-- Node1 -->
<g id="node1" class="node"><title>Node1</title>
<g id="a_node1"><a xlink:href="d9/d39/classSophus_1_1SE2GroupBase.html" target="_top" xlink:title="Sophus::SE2GroupBase\l\&lt; Map\&lt; const Sophus::\lSE2Group\&lt; _Scalar \&gt;, \l_Options \&gt; \&gt;">
<polygon fill="white" stroke="black" points="0.5,-0 0.5,-52 123.5,-52 123.5,-0 0.5,-0"/>
<text text-anchor="start" x="8.5" y="-40" font-family="Helvetica,sans-Serif" font-size="10.00">Sophus::SE2GroupBase</text>
<text text-anchor="start" x="8.5" y="-29" font-family="Helvetica,sans-Serif" font-size="10.00">&lt; Map&lt; const Sophus::</text>
<text text-anchor="start" x="8.5" y="-18" font-family="Helvetica,sans-Serif" font-size="10.00">SE2Group&lt; _Scalar &gt;, </text>
<text text-anchor="middle" x="62" y="-7" font-family="Helvetica,sans-Serif" font-size="10.00">_Options &gt; &gt;</text>
</a>
</g>
</g>
<!-- Node2 -->
<g id="node2" class="node"><title>Node2</title>
<g id="a_node2"><a xlink:href="d8/d43/classEigen_1_1Map_3_01const_01Sophus_1_1SE2Group_3_01__Scalar_01_4_00_01__Options_01_4.html" target="_top" xlink:title="Specialisation of Eigen::Map for const SE2GroupBase. ">
<polygon fill="white" stroke="black" points="160.5,-5.5 160.5,-46.5 295.5,-46.5 295.5,-5.5 160.5,-5.5"/>
<text text-anchor="start" x="168.5" y="-34.5" font-family="Helvetica,sans-Serif" font-size="10.00">Eigen::Map&lt; const Sophus</text>
<text text-anchor="start" x="168.5" y="-23.5" font-family="Helvetica,sans-Serif" font-size="10.00">::SE2Group&lt; _Scalar &gt;,</text>
<text text-anchor="middle" x="228" y="-12.5" font-family="Helvetica,sans-Serif" font-size="10.00"> _Options &gt;</text>
</a>
</g>
</g>
<!-- Node1&#45;&gt;Node2 -->
<g id="edge1" class="edge"><title>Node1&#45;&gt;Node2</title>
<path fill="none" stroke="midnightblue" d="M133.817,-26C142.609,-26 151.575,-26 160.301,-26"/>
<polygon fill="midnightblue" stroke="midnightblue" points="133.602,-22.5001 123.602,-26 133.602,-29.5001 133.602,-22.5001"/>
</g>
</g>
</svg>
