<?xml version="1.0" encoding="UTF-8" standalone="no"?>
<!DOCTYPE svg PUBLIC "-//W3C//DTD SVG 1.1//EN"
 "http://www.w3.org/Graphics/SVG/1.1/DTD/svg11.dtd">
<!-- Generated by graphviz version 2.36.0 (20140111.2315)
 -->
<!-- Title: Graphical Class Hierarchy Pages: 1 -->
<svg width="308pt" height="60pt"
 viewBox="0.00 0.00 308.00 60.00" xmlns="http://www.w3.org/2000/svg" xmlns:xlink="http://www.w3.org/1999/xlink">
<g id="graph0" class="graph" transform="scale(1 1) rotate(0) translate(4 56)">
<title>Graphical Class Hierarchy</title>
<polygon fill="white" stroke="none" points="-4,4 -4,-56 304,-56 304,4 -4,4"/>
<!-- Node1 -->
<g id="node1" class="node"><title>Node1</title>
<g id="a_node1"><a xlink:href="d6/db5/classSophus_1_1Sim3GroupBase.html" target="_top" xlink:title="Sophus::Sim3GroupBase\l\&lt; Map\&lt; const Sophus::\lSim3Group\&lt; _Scalar \&gt;,\l _Options \&gt; \&gt;">
<polygon fill="white" stroke="black" points="0.5,-0 0.5,-52 127.5,-52 127.5,-0 0.5,-0"/>
<text text-anchor="start" x="8.5" y="-40" font-family="Helvetica,sans-Serif" font-size="10.00">Sophus::Sim3GroupBase</text>
<text text-anchor="start" x="8.5" y="-29" font-family="Helvetica,sans-Serif" font-size="10.00">&lt; Map&lt; const Sophus::</text>
<text text-anchor="start" x="8.5" y="-18" font-family="Helvetica,sans-Serif" font-size="10.00">Sim3Group&lt; _Scalar &gt;,</text>
<text text-anchor="middle" x="64" y="-7" font-family="Helvetica,sans-Serif" font-size="10.00"> _Options &gt; &gt;</text>
</a>
</g>
</g>
<!-- Node2 -->
<g id="node2" class="node"><title>Node2</title>
<g id="a_node2"><a xlink:href="d7/d0a/classEigen_1_1Map_3_01const_01Sophus_1_1Sim3Group_3_01__Scalar_01_4_00_01__Options_01_4.html" target="_top" xlink:title="Specialisation of Eigen::Map for const Sim3GroupBase. ">
<polygon fill="white" stroke="black" points="164.5,-5.5 164.5,-46.5 299.5,-46.5 299.5,-5.5 164.5,-5.5"/>
<text text-anchor="start" x="172.5" y="-34.5" font-family="Helvetica,sans-Serif" font-size="10.00">Eigen::Map&lt; const Sophus</text>
<text text-anchor="start" x="172.5" y="-23.5" font-family="Helvetica,sans-Serif" font-size="10.00">::Sim3Group&lt; _Scalar &gt;,</text>
<text text-anchor="middle" x="232" y="-12.5" font-family="Helvetica,sans-Serif" font-size="10.00"> _Options &gt;</text>
</a>
</g>
</g>
<!-- Node1&#45;&gt;Node2 -->
<g id="edge1" class="edge"><title>Node1&#45;&gt;Node2</title>
<path fill="none" stroke="midnightblue" d="M137.946,-26C146.704,-26 155.614,-26 164.277,-26"/>
<polygon fill="midnightblue" stroke="midnightblue" points="137.758,-22.5001 127.757,-26 137.757,-29.5001 137.758,-22.5001"/>
</g>
</g>
</svg>
