<?xml version="1.0" encoding="UTF-8" standalone="no"?>
<!DOCTYPE svg PUBLIC "-//W3C//DTD SVG 1.1//EN"
 "http://www.w3.org/Graphics/SVG/1.1/DTD/svg11.dtd">
<!-- Generated by graphviz version 2.36.0 (20140111.2315)
 -->
<!-- Title: Graphical Class Hierarchy Pages: 1 -->
<svg width="278pt" height="48pt"
 viewBox="0.00 0.00 278.00 48.00" xmlns="http://www.w3.org/2000/svg" xmlns:xlink="http://www.w3.org/1999/xlink">
<g id="graph0" class="graph" transform="scale(1 1) rotate(0) translate(4 44)">
<title>Graphical Class Hierarchy</title>
<polygon fill="white" stroke="none" points="-4,4 -4,-44 274,-44 274,4 -4,4"/>
<!-- Node1 -->
<g id="node1" class="node"><title>Node1</title>
<g id="a_node1"><a xlink:href="d5/d43/classSophus_1_1SO3GroupBase.html" target="_top" xlink:title="SO3 base type &#45; implements SO3 class but is storage agnostic. ">
<polygon fill="white" stroke="black" points="0,-5 0,-35 124,-35 124,-5 0,-5"/>
<text text-anchor="start" x="8" y="-23" font-family="Helvetica,sans-Serif" font-size="10.00">Sophus::SO3GroupBase</text>
<text text-anchor="middle" x="62" y="-12" font-family="Helvetica,sans-Serif" font-size="10.00">&lt; Derived &gt;</text>
</a>
</g>
</g>
<!-- Node2 -->
<g id="node2" class="node"><title>Node2</title>
<g id="a_node2"><a xlink:href="d7/da3/classEigen_1_1Map_3_01Sophus_1_1SO3Group_3_01__Scalar_01_4_00_01__Options_01_4.html" target="_top" xlink:title="Specialisation of Eigen::Map for SO3GroupBase. ">
<polygon fill="white" stroke="black" points="160,0.5 160,-40.5 270,-40.5 270,0.5 160,0.5"/>
<text text-anchor="start" x="168" y="-28.5" font-family="Helvetica,sans-Serif" font-size="10.00">Eigen::Map&lt; Sophus</text>
<text text-anchor="start" x="168" y="-17.5" font-family="Helvetica,sans-Serif" font-size="10.00">::SO3Group&lt; _Scalar</text>
<text text-anchor="middle" x="215" y="-6.5" font-family="Helvetica,sans-Serif" font-size="10.00"> &gt;, _Options &gt;</text>
</a>
</g>
</g>
<!-- Node1&#45;&gt;Node2 -->
<g id="edge1" class="edge"><title>Node1&#45;&gt;Node2</title>
<path fill="none" stroke="midnightblue" d="M134.424,-20C142.997,-20 151.642,-20 159.912,-20"/>
<polygon fill="midnightblue" stroke="midnightblue" points="134.418,-16.5001 124.417,-20 134.417,-23.5001 134.418,-16.5001"/>
</g>
</g>
</svg>
