<?xml version="1.0" encoding="UTF-8" standalone="no"?>
<!DOCTYPE svg PUBLIC "-//W3C//DTD SVG 1.1//EN"
 "http://www.w3.org/Graphics/SVG/1.1/DTD/svg11.dtd">
<!-- Generated by graphviz version 2.36.0 (20140111.2315)
 -->
<!-- Title: Graphical Class Hierarchy Pages: 1 -->
<svg width="260pt" height="349pt"
 viewBox="0.00 0.00 260.00 349.00" xmlns="http://www.w3.org/2000/svg" xmlns:xlink="http://www.w3.org/1999/xlink">
<g id="graph0" class="graph" transform="scale(1 1) rotate(0) translate(4 345)">
<title>Graphical Class Hierarchy</title>
<polygon fill="white" stroke="none" points="-4,4 -4,-345 256,-345 256,4 -4,4"/>
<!-- Node1 -->
<g id="node1" class="node"><title>Node1</title>
<polygon fill="white" stroke="#bfbfbf" points="0,-160.5 0,-179.5 38,-179.5 38,-160.5 0,-160.5"/>
<text text-anchor="middle" x="19" y="-167.5" font-family="Helvetica,sans-Serif" font-size="10.00">traits</text>
</g>
<!-- Node2 -->
<g id="node2" class="node"><title>Node2</title>
<g id="a_node2"><a xlink:href="db/d63/structEigen_1_1internal_1_1traits_3_01Map_3_01const_01Sophus_1_1RxSO3Group_3_01__Scalar_01_4_00_01__Options_01_4_01_4.html" target="_top" xlink:title="Eigen::internal::traits\l\&lt; Map\&lt; const Sophus::RxSO3Group\l\&lt; _Scalar \&gt;, _Options \&gt; \&gt;">
<polygon fill="white" stroke="black" points="74,-299.5 74,-340.5 252,-340.5 252,-299.5 74,-299.5"/>
<text text-anchor="start" x="82" y="-328.5" font-family="Helvetica,sans-Serif" font-size="10.00">Eigen::internal::traits</text>
<text text-anchor="start" x="82" y="-317.5" font-family="Helvetica,sans-Serif" font-size="10.00">&lt; Map&lt; const Sophus::RxSO3Group</text>
<text text-anchor="middle" x="163" y="-306.5" font-family="Helvetica,sans-Serif" font-size="10.00">&lt; _Scalar &gt;, _Options &gt; &gt;</text>
</a>
</g>
</g>
<!-- Node1&#45;&gt;Node2 -->
<g id="edge1" class="edge"><title>Node1&#45;&gt;Node2</title>
<path fill="none" stroke="midnightblue" d="M23.821,-189.363C29.9536,-215.501 44.4349,-261.909 74,-289 78.2993,-292.939 83.1297,-296.384 88.2568,-299.395"/>
<polygon fill="midnightblue" stroke="midnightblue" points="27.2257,-188.548 21.6842,-179.518 20.3849,-190.033 27.2257,-188.548"/>
</g>
<!-- Node3 -->
<g id="node3" class="node"><title>Node3</title>
<g id="a_node3"><a xlink:href="d4/d67/structEigen_1_1internal_1_1traits_3_01Map_3_01const_01Sophus_1_1SE2Group_3_01__Scalar_01_4_00_01__Options_01_4_01_4.html" target="_top" xlink:title="Eigen::internal::traits\l\&lt; Map\&lt; const Sophus::SE2Group\l\&lt; _Scalar \&gt;, _Options \&gt; \&gt;">
<polygon fill="white" stroke="black" points="81,-239.5 81,-280.5 245,-280.5 245,-239.5 81,-239.5"/>
<text text-anchor="start" x="89" y="-268.5" font-family="Helvetica,sans-Serif" font-size="10.00">Eigen::internal::traits</text>
<text text-anchor="start" x="89" y="-257.5" font-family="Helvetica,sans-Serif" font-size="10.00">&lt; Map&lt; const Sophus::SE2Group</text>
<text text-anchor="middle" x="163" y="-246.5" font-family="Helvetica,sans-Serif" font-size="10.00">&lt; _Scalar &gt;, _Options &gt; &gt;</text>
</a>
</g>
</g>
<!-- Node1&#45;&gt;Node3 -->
<g id="edge2" class="edge"><title>Node1&#45;&gt;Node3</title>
<path fill="none" stroke="midnightblue" d="M32.5938,-187.937C42.5278,-200.923 57.4362,-218.049 74,-229 79.8102,-232.841 86.1513,-236.267 92.681,-239.308"/>
<polygon fill="midnightblue" stroke="midnightblue" points="35.3009,-185.711 26.5519,-179.735 29.665,-189.863 35.3009,-185.711"/>
</g>
<!-- Node4 -->
<g id="node4" class="node"><title>Node4</title>
<g id="a_node4"><a xlink:href="dc/d5f/structEigen_1_1internal_1_1traits_3_01Map_3_01const_01Sophus_1_1SE3Group_3_01__Scalar_01_4_00_01__Options_01_4_01_4.html" target="_top" xlink:title="Eigen::internal::traits\l\&lt; Map\&lt; const Sophus::SE3Group\l\&lt; _Scalar \&gt;, _Options \&gt; \&gt;">
<polygon fill="white" stroke="black" points="81,-179.5 81,-220.5 245,-220.5 245,-179.5 81,-179.5"/>
<text text-anchor="start" x="89" y="-208.5" font-family="Helvetica,sans-Serif" font-size="10.00">Eigen::internal::traits</text>
<text text-anchor="start" x="89" y="-197.5" font-family="Helvetica,sans-Serif" font-size="10.00">&lt; Map&lt; const Sophus::SE3Group</text>
<text text-anchor="middle" x="163" y="-186.5" font-family="Helvetica,sans-Serif" font-size="10.00">&lt; _Scalar &gt;, _Options &gt; &gt;</text>
</a>
</g>
</g>
<!-- Node1&#45;&gt;Node4 -->
<g id="edge3" class="edge"><title>Node1&#45;&gt;Node4</title>
<path fill="none" stroke="midnightblue" d="M48.3275,-175.985C57.9139,-178.01 69.1503,-180.384 80.7598,-182.837"/>
<polygon fill="midnightblue" stroke="midnightblue" points="48.7808,-172.503 38.2733,-173.861 47.3339,-179.352 48.7808,-172.503"/>
</g>
<!-- Node5 -->
<g id="node5" class="node"><title>Node5</title>
<g id="a_node5"><a xlink:href="d3/d6f/structEigen_1_1internal_1_1traits_3_01Map_3_01const_01Sophus_1_1Sim3Group_3_01__Scalar_01_4_00_01__Options_01_4_01_4.html" target="_top" xlink:title="Eigen::internal::traits\l\&lt; Map\&lt; const Sophus::Sim3Group\l\&lt; _Scalar \&gt;, _Options \&gt; \&gt;">
<polygon fill="white" stroke="black" points="79,-119.5 79,-160.5 247,-160.5 247,-119.5 79,-119.5"/>
<text text-anchor="start" x="87" y="-148.5" font-family="Helvetica,sans-Serif" font-size="10.00">Eigen::internal::traits</text>
<text text-anchor="start" x="87" y="-137.5" font-family="Helvetica,sans-Serif" font-size="10.00">&lt; Map&lt; const Sophus::Sim3Group</text>
<text text-anchor="middle" x="163" y="-126.5" font-family="Helvetica,sans-Serif" font-size="10.00">&lt; _Scalar &gt;, _Options &gt; &gt;</text>
</a>
</g>
</g>
<!-- Node1&#45;&gt;Node5 -->
<g id="edge4" class="edge"><title>Node1&#45;&gt;Node5</title>
<path fill="none" stroke="midnightblue" d="M48.1916,-164.044C57.2807,-162.124 67.8634,-159.888 78.846,-157.568"/>
<polygon fill="midnightblue" stroke="midnightblue" points="47.3339,-160.648 38.2733,-166.139 48.7808,-167.497 47.3339,-160.648"/>
</g>
<!-- Node6 -->
<g id="node6" class="node"><title>Node6</title>
<g id="a_node6"><a xlink:href="de/daa/structEigen_1_1internal_1_1traits_3_01Map_3_01const_01Sophus_1_1SO2Group_3_01__Scalar_01_4_00_01__Options_01_4_01_4.html" target="_top" xlink:title="Eigen::internal::traits\l\&lt; Map\&lt; const Sophus::SO2Group\l\&lt; _Scalar \&gt;, _Options \&gt; \&gt;">
<polygon fill="white" stroke="black" points="80.5,-59.5 80.5,-100.5 245.5,-100.5 245.5,-59.5 80.5,-59.5"/>
<text text-anchor="start" x="88.5" y="-88.5" font-family="Helvetica,sans-Serif" font-size="10.00">Eigen::internal::traits</text>
<text text-anchor="start" x="88.5" y="-77.5" font-family="Helvetica,sans-Serif" font-size="10.00">&lt; Map&lt; const Sophus::SO2Group</text>
<text text-anchor="middle" x="163" y="-66.5" font-family="Helvetica,sans-Serif" font-size="10.00">&lt; _Scalar &gt;, _Options &gt; &gt;</text>
</a>
</g>
</g>
<!-- Node1&#45;&gt;Node6 -->
<g id="edge5" class="edge"><title>Node1&#45;&gt;Node6</title>
<path fill="none" stroke="midnightblue" d="M32.4984,-151.701C42.3838,-138.465 57.273,-121.037 74,-110 79.2543,-106.533 84.95,-103.426 90.8307,-100.65"/>
<polygon fill="midnightblue" stroke="midnightblue" points="29.4829,-149.9 26.493,-160.064 35.1689,-153.983 29.4829,-149.9"/>
</g>
<!-- Node7 -->
<g id="node7" class="node"><title>Node7</title>
<g id="a_node7"><a xlink:href="d7/d56/structEigen_1_1internal_1_1traits_3_01Map_3_01const_01Sophus_1_1SO3Group_3_01__Scalar_01_4_00_01__Options_01_4_01_4.html" target="_top" xlink:title="Eigen::internal::traits\l\&lt; Map\&lt; const Sophus::SO3Group\l\&lt; _Scalar \&gt;, _Options \&gt; \&gt;">
<polygon fill="white" stroke="black" points="80.5,0.5 80.5,-40.5 245.5,-40.5 245.5,0.5 80.5,0.5"/>
<text text-anchor="start" x="88.5" y="-28.5" font-family="Helvetica,sans-Serif" font-size="10.00">Eigen::internal::traits</text>
<text text-anchor="start" x="88.5" y="-17.5" font-family="Helvetica,sans-Serif" font-size="10.00">&lt; Map&lt; const Sophus::SO3Group</text>
<text text-anchor="middle" x="163" y="-6.5" font-family="Helvetica,sans-Serif" font-size="10.00">&lt; _Scalar &gt;, _Options &gt; &gt;</text>
</a>
</g>
</g>
<!-- Node1&#45;&gt;Node7 -->
<g id="edge6" class="edge"><title>Node1&#45;&gt;Node7</title>
<path fill="none" stroke="midnightblue" d="M23.7343,-150.433C29.7669,-124.028 44.1334,-77.1751 74,-50 77.8204,-46.5239 82.0607,-43.448 86.5563,-40.7267"/>
<polygon fill="midnightblue" stroke="midnightblue" points="20.2754,-149.873 21.6382,-160.38 27.125,-151.317 20.2754,-149.873"/>
</g>
</g>
</svg>
