<?xml version="1.0" encoding="UTF-8" standalone="no"?>
<!DOCTYPE svg PUBLIC "-//W3C//DTD SVG 1.1//EN"
 "http://www.w3.org/Graphics/SVG/1.1/DTD/svg11.dtd">
<!-- Generated by graphviz version 2.36.0 (20140111.2315)
 -->
<!-- Title: of2::FabMap::PeqGL Pages: 1 -->
<svg width="266pt" height="66pt"
 viewBox="0.00 0.00 266.00 66.00" xmlns="http://www.w3.org/2000/svg" xmlns:xlink="http://www.w3.org/1999/xlink">
<g id="graph0" class="graph" transform="scale(1 1) rotate(0) translate(4 62)">
<title>of2::FabMap::PeqGL</title>
<polygon fill="white" stroke="none" points="-4,4 -4,-62 262,-62 262,4 -4,4"/>
<!-- Node1 -->
<g id="node1" class="node"><title>Node1</title>
<polygon fill="#bfbfbf" stroke="black" points="0.5,-19.5 0.5,-38.5 107.5,-38.5 107.5,-19.5 0.5,-19.5"/>
<text text-anchor="middle" x="54" y="-26.5" font-family="Helvetica,sans-Serif" font-size="10.00">of2::FabMap::PeqGL</text>
</g>
<!-- Node2 -->
<g id="node2" class="node"><title>Node2</title>
<g id="a_node2"><a xlink:href="../../d5/d90/classof2_1_1FabMap.html#ab1b431a81b66fa64cd32ba2738855c92" target="_top" xlink:title="of2::FabMap::PzqGeq">
<polygon fill="white" stroke="black" points="144.5,-38.5 144.5,-57.5 257.5,-57.5 257.5,-38.5 144.5,-38.5"/>
<text text-anchor="middle" x="201" y="-45.5" font-family="Helvetica,sans-Serif" font-size="10.00">of2::FabMap::PzqGeq</text>
</a>
</g>
</g>
<!-- Node1&#45;&gt;Node2 -->
<g id="edge1" class="edge"><title>Node1&#45;&gt;Node2</title>
<path fill="none" stroke="midnightblue" d="M107.759,-35.9132C116.256,-37.0266 125.145,-38.1914 133.908,-39.3396"/>
<polygon fill="midnightblue" stroke="midnightblue" points="133.736,-42.847 144.106,-40.676 134.646,-35.9063 133.736,-42.847"/>
</g>
<!-- Node3 -->
<g id="node3" class="node"><title>Node3</title>
<g id="a_node3"><a xlink:href="../../d5/d90/classof2_1_1FabMap.html#ac1aee23d3571915728cd1c4820ae5bcd" target="_top" xlink:title="of2::FabMap::Pzq">
<polygon fill="white" stroke="black" points="153.5,-0.5 153.5,-19.5 248.5,-19.5 248.5,-0.5 153.5,-0.5"/>
<text text-anchor="middle" x="201" y="-7.5" font-family="Helvetica,sans-Serif" font-size="10.00">of2::FabMap::Pzq</text>
</a>
</g>
</g>
<!-- Node1&#45;&gt;Node3 -->
<g id="edge2" class="edge"><title>Node1&#45;&gt;Node3</title>
<path fill="none" stroke="midnightblue" d="M107.759,-22.0868C119.282,-20.5768 131.526,-18.9724 143.2,-17.4428"/>
<polygon fill="midnightblue" stroke="midnightblue" points="143.819,-20.8917 153.279,-16.122 142.909,-13.951 143.819,-20.8917"/>
</g>
</g>
</svg>
