<?xml version="1.0" encoding="UTF-8" standalone="no"?>
<!DOCTYPE svg PUBLIC "-//W3C//DTD SVG 1.1//EN"
 "http://www.w3.org/Graphics/SVG/1.1/DTD/svg11.dtd">
<!-- Generated by graphviz version 2.36.0 (20140111.2315)
 -->
<!-- Title: of2::FabMap::getNewPlaceLikelihood Pages: 1 -->
<svg width="320pt" height="218pt"
 viewBox="0.00 0.00 320.00 218.00" xmlns="http://www.w3.org/2000/svg" xmlns:xlink="http://www.w3.org/1999/xlink">
<g id="graph0" class="graph" transform="scale(1 1) rotate(0) translate(4 214)">
<title>of2::FabMap::getNewPlaceLikelihood</title>
<polygon fill="white" stroke="none" points="-4,4 -4,-214 316,-214 316,4 -4,4"/>
<!-- Node1 -->
<g id="node1" class="node"><title>Node1</title>
<polygon fill="#bfbfbf" stroke="black" points="0,-90 0,-120 136,-120 136,-90 0,-90"/>
<text text-anchor="start" x="8" y="-108" font-family="Helvetica,sans-Serif" font-size="10.00">of2::FabMap::getNewPlace</text>
<text text-anchor="middle" x="68" y="-97" font-family="Helvetica,sans-Serif" font-size="10.00">Likelihood</text>
</g>
<!-- Node2 -->
<g id="node2" class="node"><title>Node2</title>
<g id="a_node2"><a xlink:href="../../d5/d90/classof2_1_1FabMap.html#ac1aee23d3571915728cd1c4820ae5bcd" target="_top" xlink:title="of2::FabMap::Pzq">
<polygon fill="white" stroke="black" points="194.5,-190.5 194.5,-209.5 289.5,-209.5 289.5,-190.5 194.5,-190.5"/>
<text text-anchor="middle" x="242" y="-197.5" font-family="Helvetica,sans-Serif" font-size="10.00">of2::FabMap::Pzq</text>
</a>
</g>
</g>
<!-- Node1&#45;&gt;Node2 -->
<g id="edge1" class="edge"><title>Node1&#45;&gt;Node2</title>
<path fill="none" stroke="midnightblue" d="M85.5871,-120.29C104.957,-137.383 138.618,-164.784 172,-181 176.699,-183.283 181.716,-185.328 186.82,-187.153"/>
<polygon fill="midnightblue" stroke="midnightblue" points="186.087,-190.596 196.68,-190.393 188.273,-183.946 186.087,-190.596"/>
</g>
<!-- Node3 -->
<g id="node3" class="node"><title>Node3</title>
<g id="a_node3"><a xlink:href="../../d5/d90/classof2_1_1FabMap.html#ab1b431a81b66fa64cd32ba2738855c92" target="_top" xlink:title="of2::FabMap::PzqGeq">
<polygon fill="white" stroke="black" points="185.5,-152.5 185.5,-171.5 298.5,-171.5 298.5,-152.5 185.5,-152.5"/>
<text text-anchor="middle" x="242" y="-159.5" font-family="Helvetica,sans-Serif" font-size="10.00">of2::FabMap::PzqGeq</text>
</a>
</g>
</g>
<!-- Node1&#45;&gt;Node3 -->
<g id="edge2" class="edge"><title>Node1&#45;&gt;Node3</title>
<path fill="none" stroke="midnightblue" d="M107.371,-120.036C126.633,-127.359 150.407,-136.058 172,-143 179.155,-145.301 186.782,-147.575 194.257,-149.707"/>
<polygon fill="midnightblue" stroke="midnightblue" points="193.372,-153.093 203.945,-152.417 195.258,-146.352 193.372,-153.093"/>
</g>
<!-- Node4 -->
<g id="node4" class="node"><title>Node4</title>
<g id="a_node4"><a xlink:href="../../d5/d90/classof2_1_1FabMap.html#a764248a90dbf7a4c7d74e4faa4031a61" target="_top" xlink:title="of2::FabMap::pq">
<polygon fill="white" stroke="black" points="198,-114.5 198,-133.5 286,-133.5 286,-114.5 198,-114.5"/>
<text text-anchor="middle" x="242" y="-121.5" font-family="Helvetica,sans-Serif" font-size="10.00">of2::FabMap::pq</text>
</a>
</g>
</g>
<!-- Node1&#45;&gt;Node4 -->
<g id="edge3" class="edge"><title>Node1&#45;&gt;Node4</title>
<path fill="none" stroke="midnightblue" d="M136.485,-112.455C153.47,-114.331 171.466,-116.319 187.651,-118.107"/>
<polygon fill="midnightblue" stroke="midnightblue" points="187.672,-121.63 197.996,-119.25 188.441,-114.673 187.672,-121.63"/>
</g>
<!-- Node5 -->
<g id="node5" class="node"><title>Node5</title>
<g id="a_node5"><a xlink:href="../../d5/d90/classof2_1_1FabMap.html#a9621ee6393d8b9ec8c580f10576f32ec" target="_top" xlink:title="of2::FabMap::PzqGzpq">
<polygon fill="white" stroke="black" points="183,-76.5 183,-95.5 301,-95.5 301,-76.5 183,-76.5"/>
<text text-anchor="middle" x="242" y="-83.5" font-family="Helvetica,sans-Serif" font-size="10.00">of2::FabMap::PzqGzpq</text>
</a>
</g>
</g>
<!-- Node1&#45;&gt;Node5 -->
<g id="edge4" class="edge"><title>Node1&#45;&gt;Node5</title>
<path fill="none" stroke="midnightblue" d="M136.485,-97.5452C148.47,-96.2213 160.959,-94.8418 172.959,-93.5162"/>
<polygon fill="midnightblue" stroke="midnightblue" points="173.347,-96.9946 182.903,-92.4177 172.579,-90.037 173.347,-96.9946"/>
</g>
<!-- Node6 -->
<g id="node6" class="node"><title>Node6</title>
<g id="a_node6"><a xlink:href="../../d5/d90/classof2_1_1FabMap.html#a9666c07f1ce24f4da897d631c1c48ee5" target="_top" xlink:title="of2::FabMap::getLikelihoods">
<polygon fill="white" stroke="black" points="172,-38.5 172,-57.5 312,-57.5 312,-38.5 172,-38.5"/>
<text text-anchor="middle" x="242" y="-45.5" font-family="Helvetica,sans-Serif" font-size="10.00">of2::FabMap::getLikelihoods</text>
</a>
</g>
</g>
<!-- Node1&#45;&gt;Node6 -->
<g id="edge5" class="edge"><title>Node1&#45;&gt;Node6</title>
<path fill="none" stroke="midnightblue" d="M107.371,-89.9641C126.633,-82.6415 150.407,-73.9423 172,-67 179.155,-64.6995 186.782,-62.4252 194.257,-60.2934"/>
<polygon fill="midnightblue" stroke="midnightblue" points="195.258,-63.6478 203.945,-57.5826 193.372,-56.9067 195.258,-63.6478"/>
</g>
<!-- Node7 -->
<g id="node7" class="node"><title>Node7</title>
<g id="a_node7"><a xlink:href="../../d5/dc1/thirdparty_2openFabMap_2src_2FabMap_8cpp.html#ab1ee3cc2f92080193f7332ac10a30f0a" target="_top" xlink:title="logsumexp">
<polygon fill="white" stroke="black" points="210,-0.5 210,-19.5 274,-19.5 274,-0.5 210,-0.5"/>
<text text-anchor="middle" x="242" y="-7.5" font-family="Helvetica,sans-Serif" font-size="10.00">logsumexp</text>
</a>
</g>
</g>
<!-- Node1&#45;&gt;Node7 -->
<g id="edge6" class="edge"><title>Node1&#45;&gt;Node7</title>
<path fill="none" stroke="midnightblue" d="M85.5871,-89.7096C104.957,-72.6171 138.618,-45.2159 172,-29 180.793,-24.7289 190.697,-21.2885 200.2,-18.5717"/>
<polygon fill="midnightblue" stroke="midnightblue" points="201.128,-21.9468 209.895,-15.9979 199.332,-15.1812 201.128,-21.9468"/>
</g>
</g>
</svg>
