<?xml version="1.0" encoding="UTF-8" standalone="no"?>
<!DOCTYPE svg PUBLIC "-//W3C//DTD SVG 1.1//EN"
 "http://www.w3.org/Graphics/SVG/1.1/DTD/svg11.dtd">
<!-- Generated by graphviz version 2.36.0 (20140111.2315)
 -->
<!-- Title: main Pages: 1 -->
<svg width="244pt" height="252pt"
 viewBox="0.00 0.00 244.00 252.00" xmlns="http://www.w3.org/2000/svg" xmlns:xlink="http://www.w3.org/1999/xlink">
<g id="graph0" class="graph" transform="scale(1 1) rotate(0) translate(4 248)">
<title>main</title>
<polygon fill="white" stroke="none" points="-4,4 -4,-248 240,-248 240,4 -4,4"/>
<!-- Node1 -->
<g id="node1" class="node"><title>Node1</title>
<polygon fill="#bfbfbf" stroke="black" points="0,-120.5 0,-139.5 38,-139.5 38,-120.5 0,-120.5"/>
<text text-anchor="middle" x="19" y="-127.5" font-family="Helvetica,sans-Serif" font-size="10.00">main</text>
</g>
<!-- Node2 -->
<g id="node2" class="node"><title>Node2</title>
<g id="a_node2"><a xlink:href="../../dc/dca/namespacelsd__slam.html#a0c6488bcb7e77ab97cae5c9db84ef819" target="_top" xlink:title="lsd_slam::dynConfCb">
<polygon fill="white" stroke="black" points="99.5,-224.5 99.5,-243.5 210.5,-243.5 210.5,-224.5 99.5,-224.5"/>
<text text-anchor="middle" x="155" y="-231.5" font-family="Helvetica,sans-Serif" font-size="10.00">lsd_slam::dynConfCb</text>
</a>
</g>
</g>
<!-- Node1&#45;&gt;Node2 -->
<g id="edge1" class="edge"><title>Node1&#45;&gt;Node2</title>
<path fill="none" stroke="midnightblue" d="M23.3114,-139.629C29.9554,-157.449 46.6607,-195.523 74,-215 78.8414,-218.449 84.2244,-221.279 89.8447,-223.599"/>
<polygon fill="midnightblue" stroke="midnightblue" points="88.8792,-226.971 99.4738,-227.044 91.2368,-220.38 88.8792,-226.971"/>
</g>
<!-- Node3 -->
<g id="node3" class="node"><title>Node3</title>
<g id="a_node3"><a xlink:href="../../dc/dca/namespacelsd__slam.html#a1727ed6a6a3b9b25505843d48cee74b5" target="_top" xlink:title="lsd_slam::dynConfCbDebug">
<polygon fill="white" stroke="black" points="85,-186.5 85,-205.5 225,-205.5 225,-186.5 85,-186.5"/>
<text text-anchor="middle" x="155" y="-193.5" font-family="Helvetica,sans-Serif" font-size="10.00">lsd_slam::dynConfCbDebug</text>
</a>
</g>
</g>
<!-- Node1&#45;&gt;Node3 -->
<g id="edge2" class="edge"><title>Node1&#45;&gt;Node3</title>
<path fill="none" stroke="midnightblue" d="M28.5897,-139.59C38.5133,-150.081 55.8223,-166.645 74,-176 79.5135,-178.837 85.4514,-181.287 91.5122,-183.399"/>
<polygon fill="midnightblue" stroke="midnightblue" points="90.5037,-186.751 101.094,-186.447 92.6258,-180.081 90.5037,-186.751"/>
</g>
<!-- Node4 -->
<g id="node4" class="node"><title>Node4</title>
<g id="a_node4"><a xlink:href="../../da/d27/classlsd__slam_1_1InputImageStream.html#a6e8bce6255dabfb4556e4fac8390a6b0" target="_top" xlink:title="lsd_slam::InputImageStream\l::setCalibration">
<polygon fill="white" stroke="black" points="84,-137 84,-167 226,-167 226,-137 84,-137"/>
<text text-anchor="start" x="92" y="-155" font-family="Helvetica,sans-Serif" font-size="10.00">lsd_slam::InputImageStream</text>
<text text-anchor="middle" x="155" y="-144" font-family="Helvetica,sans-Serif" font-size="10.00">::setCalibration</text>
</a>
</g>
</g>
<!-- Node1&#45;&gt;Node4 -->
<g id="edge3" class="edge"><title>Node1&#45;&gt;Node4</title>
<path fill="none" stroke="midnightblue" d="M38.0718,-132.967C47.7868,-134.562 60.5196,-136.652 73.9817,-138.863"/>
<polygon fill="midnightblue" stroke="midnightblue" points="73.4454,-142.321 83.8803,-140.488 74.5795,-135.414 73.4454,-142.321"/>
</g>
<!-- Node5 -->
<g id="node5" class="node"><title>Node5</title>
<g id="a_node5"><a xlink:href="../../da/d27/classlsd__slam_1_1InputImageStream.html#a54d88ab343986e2a8f17d1ff5f5901be" target="_top" xlink:title="lsd_slam::InputImageStream::run">
<polygon fill="white" stroke="black" points="74.5,-98.5 74.5,-117.5 235.5,-117.5 235.5,-98.5 74.5,-98.5"/>
<text text-anchor="middle" x="155" y="-105.5" font-family="Helvetica,sans-Serif" font-size="10.00">lsd_slam::InputImageStream::run</text>
</a>
</g>
</g>
<!-- Node1&#45;&gt;Node5 -->
<g id="edge4" class="edge"><title>Node1&#45;&gt;Node5</title>
<path fill="none" stroke="midnightblue" d="M38.0718,-127.033C50.5528,-124.984 68.0146,-122.117 85.6047,-119.229"/>
<polygon fill="midnightblue" stroke="midnightblue" points="86.6388,-122.606 95.9396,-117.532 85.5046,-115.699 86.6388,-122.606"/>
</g>
<!-- Node6 -->
<g id="node6" class="node"><title>Node6</title>
<g id="a_node6"><a xlink:href="../../da/d27/classlsd__slam_1_1InputImageStream.html#aae9c5e1689761e9ea6f9f4ce8682e8f1" target="_top" xlink:title="lsd_slam::InputImageStream\l::width">
<polygon fill="white" stroke="black" points="84,-49 84,-79 226,-79 226,-49 84,-49"/>
<text text-anchor="start" x="92" y="-67" font-family="Helvetica,sans-Serif" font-size="10.00">lsd_slam::InputImageStream</text>
<text text-anchor="middle" x="155" y="-56" font-family="Helvetica,sans-Serif" font-size="10.00">::width</text>
</a>
</g>
</g>
<!-- Node1&#45;&gt;Node6 -->
<g id="edge5" class="edge"><title>Node1&#45;&gt;Node6</title>
<path fill="none" stroke="midnightblue" d="M30.4146,-120.323C40.7749,-111.144 57.4705,-97.5246 74,-89 78.3001,-86.7823 82.8328,-84.719 87.4651,-82.8074"/>
<polygon fill="midnightblue" stroke="midnightblue" points="89.0044,-85.9648 97.0707,-79.0955 86.4813,-79.4353 89.0044,-85.9648"/>
</g>
<!-- Node7 -->
<g id="node7" class="node"><title>Node7</title>
<g id="a_node7"><a xlink:href="../../da/d27/classlsd__slam_1_1InputImageStream.html#ab9a42e4ab63c80b7e0ba629ec689b7fa" target="_top" xlink:title="lsd_slam::InputImageStream\l::height">
<polygon fill="white" stroke="black" points="84,-0 84,-30 226,-30 226,-0 84,-0"/>
<text text-anchor="start" x="92" y="-18" font-family="Helvetica,sans-Serif" font-size="10.00">lsd_slam::InputImageStream</text>
<text text-anchor="middle" x="155" y="-7" font-family="Helvetica,sans-Serif" font-size="10.00">::height</text>
</a>
</g>
</g>
<!-- Node1&#45;&gt;Node7 -->
<g id="edge6" class="edge"><title>Node1&#45;&gt;Node7</title>
<path fill="none" stroke="midnightblue" d="M23.1798,-120.282C29.7043,-101.857 46.3612,-61.7458 74,-40 76.3051,-38.1864 78.7431,-36.5034 81.2788,-34.9417"/>
<polygon fill="midnightblue" stroke="midnightblue" points="83.1064,-37.9321 90.2257,-30.0857 79.7672,-31.7799 83.1064,-37.9321"/>
</g>
</g>
</svg>
