<?xml version="1.0" encoding="UTF-8" standalone="no"?>
<!DOCTYPE svg PUBLIC "-//W3C//DTD SVG 1.1//EN"
 "http://www.w3.org/Graphics/SVG/1.1/DTD/svg11.dtd">
<!-- Generated by graphviz version 2.36.0 (20140111.2315)
 -->
<!-- Title: MultiThreadDemo Pages: 1 -->
<svg width="636pt" height="1716pt"
 viewBox="0.00 0.00 636.00 1716.00" xmlns="http://www.w3.org/2000/svg" xmlns:xlink="http://www.w3.org/1999/xlink">
<g id="graph0" class="graph" transform="scale(1 1) rotate(0) translate(4 1712)">
<title>MultiThreadDemo</title>
<polygon fill="white" stroke="none" points="-4,4 -4,-1712 632,-1712 632,4 -4,4"/>
<!-- Node1 -->
<g id="node1" class="node"><title>Node1</title>
<polygon fill="#bfbfbf" stroke="black" points="171.5,-0.5 171.5,-79.5 280.5,-79.5 280.5,-0.5 171.5,-0.5"/>
<text text-anchor="middle" x="226" y="-67.5" font-family="Helvetica,sans-Serif" font-size="10.00">MultiThreadDemo</text>
<polyline fill="none" stroke="black" points="171.5,-60.5 280.5,-60.5 "/>
<text text-anchor="middle" x="226" y="-48.5" font-family="Helvetica,sans-Serif" font-size="10.00"> </text>
<polyline fill="none" stroke="black" points="171.5,-41.5 280.5,-41.5 "/>
<text text-anchor="start" x="179.5" y="-29.5" font-family="Helvetica,sans-Serif" font-size="10.00">+ MultiThreadDemo()</text>
<text text-anchor="start" x="179.5" y="-18.5" font-family="Helvetica,sans-Serif" font-size="10.00">+ RunTask()</text>
<text text-anchor="start" x="179.5" y="-7.5" font-family="Helvetica,sans-Serif" font-size="10.00">+ InitializeSIFT()</text>
</g>
<!-- Node2 -->
<g id="node2" class="node"><title>Node2</title>
<g id="a_node2"><a xlink:href="../../dd/d97/classMultiThreadSIFT.html" target="_top" xlink:title="{MultiThreadSIFT\n|# _thread_param\l# _device_id\l|+ MultiThreadSIFT()\l+ ~MultiThreadSIFT()\l+ RunThread()\l+ RunTask()\l+ InitializeSIFT()\l+ RunMultiThreadSIFT()\l}">
<polygon fill="white" stroke="black" points="165,-118.5 165,-241.5 287,-241.5 287,-118.5 165,-118.5"/>
<text text-anchor="middle" x="226" y="-229.5" font-family="Helvetica,sans-Serif" font-size="10.00">MultiThreadSIFT</text>
<polyline fill="none" stroke="black" points="165,-222.5 287,-222.5 "/>
<text text-anchor="start" x="173" y="-210.5" font-family="Helvetica,sans-Serif" font-size="10.00"># _thread_param</text>
<text text-anchor="start" x="173" y="-199.5" font-family="Helvetica,sans-Serif" font-size="10.00"># _device_id</text>
<polyline fill="none" stroke="black" points="165,-192.5 287,-192.5 "/>
<text text-anchor="start" x="173" y="-180.5" font-family="Helvetica,sans-Serif" font-size="10.00">+ MultiThreadSIFT()</text>
<text text-anchor="start" x="173" y="-169.5" font-family="Helvetica,sans-Serif" font-size="10.00">+ ~MultiThreadSIFT()</text>
<text text-anchor="start" x="173" y="-158.5" font-family="Helvetica,sans-Serif" font-size="10.00">+ RunThread()</text>
<text text-anchor="start" x="173" y="-147.5" font-family="Helvetica,sans-Serif" font-size="10.00">+ RunTask()</text>
<text text-anchor="start" x="173" y="-136.5" font-family="Helvetica,sans-Serif" font-size="10.00">+ InitializeSIFT()</text>
<text text-anchor="start" x="173" y="-125.5" font-family="Helvetica,sans-Serif" font-size="10.00">+ RunMultiThreadSIFT()</text>
</a>
</g>
</g>
<!-- Node2&#45;&gt;Node1 -->
<g id="edge1" class="edge"><title>Node2&#45;&gt;Node1</title>
<path fill="none" stroke="midnightblue" d="M226,-108.227C226,-98.3814 226,-88.5839 226,-79.6371"/>
<polygon fill="none" stroke="midnightblue" points="222.5,-108.471 226,-118.471 229.5,-108.471 222.5,-108.471"/>
</g>
<!-- Node3 -->
<g id="node3" class="node"><title>Node3</title>
<g id="a_node3"><a xlink:href="../../d4/dee/classSiftGPU.html" target="_top" xlink:title="{SiftGPU\n|+ _timing\l# _current\l# _initialized\l# _image_loaded\l# _imgpath\l# _outpath\l|+ GetCurrentImagePath()\l+ SetImageList()\l+ GetFeatureNum()\l+ SaveSIFT()\l+ GetFeatureVector()\l+ SetKeypointList()\l+ CreateContextGL()\l+ VerifyContextGL()\l+ IsFullSupported()\l+ SetVerbose()\land 15 more...\l# InitSiftGPU()\l# LoadImageList()\l# PrintUsage()\l}">
<polygon fill="white" stroke="black" points="162.5,-290.5 162.5,-545.5 289.5,-545.5 289.5,-290.5 162.5,-290.5"/>
<text text-anchor="middle" x="226" y="-533.5" font-family="Helvetica,sans-Serif" font-size="10.00">SiftGPU</text>
<polyline fill="none" stroke="black" points="162.5,-526.5 289.5,-526.5 "/>
<text text-anchor="start" x="170.5" y="-514.5" font-family="Helvetica,sans-Serif" font-size="10.00">+ _timing</text>
<text text-anchor="start" x="170.5" y="-503.5" font-family="Helvetica,sans-Serif" font-size="10.00"># _current</text>
<text text-anchor="start" x="170.5" y="-492.5" font-family="Helvetica,sans-Serif" font-size="10.00"># _initialized</text>
<text text-anchor="start" x="170.5" y="-481.5" font-family="Helvetica,sans-Serif" font-size="10.00"># _image_loaded</text>
<text text-anchor="start" x="170.5" y="-470.5" font-family="Helvetica,sans-Serif" font-size="10.00"># _imgpath</text>
<text text-anchor="start" x="170.5" y="-459.5" font-family="Helvetica,sans-Serif" font-size="10.00"># _outpath</text>
<polyline fill="none" stroke="black" points="162.5,-452.5 289.5,-452.5 "/>
<text text-anchor="start" x="170.5" y="-440.5" font-family="Helvetica,sans-Serif" font-size="10.00">+ GetCurrentImagePath()</text>
<text text-anchor="start" x="170.5" y="-429.5" font-family="Helvetica,sans-Serif" font-size="10.00">+ SetImageList()</text>
<text text-anchor="start" x="170.5" y="-418.5" font-family="Helvetica,sans-Serif" font-size="10.00">+ GetFeatureNum()</text>
<text text-anchor="start" x="170.5" y="-407.5" font-family="Helvetica,sans-Serif" font-size="10.00">+ SaveSIFT()</text>
<text text-anchor="start" x="170.5" y="-396.5" font-family="Helvetica,sans-Serif" font-size="10.00">+ GetFeatureVector()</text>
<text text-anchor="start" x="170.5" y="-385.5" font-family="Helvetica,sans-Serif" font-size="10.00">+ SetKeypointList()</text>
<text text-anchor="start" x="170.5" y="-374.5" font-family="Helvetica,sans-Serif" font-size="10.00">+ CreateContextGL()</text>
<text text-anchor="start" x="170.5" y="-363.5" font-family="Helvetica,sans-Serif" font-size="10.00">+ VerifyContextGL()</text>
<text text-anchor="start" x="170.5" y="-352.5" font-family="Helvetica,sans-Serif" font-size="10.00">+ IsFullSupported()</text>
<text text-anchor="start" x="170.5" y="-341.5" font-family="Helvetica,sans-Serif" font-size="10.00">+ SetVerbose()</text>
<text text-anchor="start" x="170.5" y="-330.5" font-family="Helvetica,sans-Serif" font-size="10.00">and 15 more...</text>
<text text-anchor="start" x="170.5" y="-319.5" font-family="Helvetica,sans-Serif" font-size="10.00"># InitSiftGPU()</text>
<text text-anchor="start" x="170.5" y="-308.5" font-family="Helvetica,sans-Serif" font-size="10.00"># LoadImageList()</text>
<text text-anchor="start" x="170.5" y="-297.5" font-family="Helvetica,sans-Serif" font-size="10.00"># PrintUsage()</text>
</a>
</g>
</g>
<!-- Node3&#45;&gt;Node2 -->
<g id="edge2" class="edge"><title>Node3&#45;&gt;Node2</title>
<path fill="none" stroke="#404040" d="M226,-290.364C226,-277.918 226,-265.6 226,-253.969"/>
<polygon fill="none" stroke="#404040" points="226,-253.644 222,-247.644 226,-241.644 230,-247.643 226,-253.644"/>
<text text-anchor="middle" x="240" y="-263.5" font-family="Helvetica,sans-Serif" font-size="10.00"> #_sift</text>
</g>
<!-- Node4 -->
<g id="node4" class="node"><title>Node4</title>
<g id="a_node4"><a xlink:href="../../dc/d5a/classSiftParam.html" target="_top" xlink:title="{SiftParam\n|+ _sigma\l+ _sigma_skip0\l+ _sigma_skip1\l+ _sigma0\l+ _sigman\l+ _sigma_num\l+ _dog_level_num\l+ _level_num\l+ _level_min\l+ _level_max\l+ _level_ds\l+ _dog_threshold\l+ _edge_threshold\l|+ ParseSiftParam()\l+ GetLevelSigma()\l+ GetInitialSmoothSigma()\l+ SiftParam()\l}">
<polygon fill="white" stroke="black" points="126,-1046 126,-1268 258,-1268 258,-1046 126,-1046"/>
<text text-anchor="middle" x="192" y="-1256" font-family="Helvetica,sans-Serif" font-size="10.00">SiftParam</text>
<polyline fill="none" stroke="black" points="126,-1249 258,-1249 "/>
<text text-anchor="start" x="134" y="-1237" font-family="Helvetica,sans-Serif" font-size="10.00">+ _sigma</text>
<text text-anchor="start" x="134" y="-1226" font-family="Helvetica,sans-Serif" font-size="10.00">+ _sigma_skip0</text>
<text text-anchor="start" x="134" y="-1215" font-family="Helvetica,sans-Serif" font-size="10.00">+ _sigma_skip1</text>
<text text-anchor="start" x="134" y="-1204" font-family="Helvetica,sans-Serif" font-size="10.00">+ _sigma0</text>
<text text-anchor="start" x="134" y="-1193" font-family="Helvetica,sans-Serif" font-size="10.00">+ _sigman</text>
<text text-anchor="start" x="134" y="-1182" font-family="Helvetica,sans-Serif" font-size="10.00">+ _sigma_num</text>
<text text-anchor="start" x="134" y="-1171" font-family="Helvetica,sans-Serif" font-size="10.00">+ _dog_level_num</text>
<text text-anchor="start" x="134" y="-1160" font-family="Helvetica,sans-Serif" font-size="10.00">+ _level_num</text>
<text text-anchor="start" x="134" y="-1149" font-family="Helvetica,sans-Serif" font-size="10.00">+ _level_min</text>
<text text-anchor="start" x="134" y="-1138" font-family="Helvetica,sans-Serif" font-size="10.00">+ _level_max</text>
<text text-anchor="start" x="134" y="-1127" font-family="Helvetica,sans-Serif" font-size="10.00">+ _level_ds</text>
<text text-anchor="start" x="134" y="-1116" font-family="Helvetica,sans-Serif" font-size="10.00">+ _dog_threshold</text>
<text text-anchor="start" x="134" y="-1105" font-family="Helvetica,sans-Serif" font-size="10.00">+ _edge_threshold</text>
<polyline fill="none" stroke="black" points="126,-1098 258,-1098 "/>
<text text-anchor="start" x="134" y="-1086" font-family="Helvetica,sans-Serif" font-size="10.00">+ ParseSiftParam()</text>
<text text-anchor="start" x="134" y="-1075" font-family="Helvetica,sans-Serif" font-size="10.00">+ GetLevelSigma()</text>
<text text-anchor="start" x="134" y="-1064" font-family="Helvetica,sans-Serif" font-size="10.00">+ GetInitialSmoothSigma()</text>
<text text-anchor="start" x="134" y="-1053" font-family="Helvetica,sans-Serif" font-size="10.00">+ SiftParam()</text>
</a>
</g>
</g>
<!-- Node4&#45;&gt;Node3 -->
<g id="edge3" class="edge"><title>Node4&#45;&gt;Node3</title>
<path fill="none" stroke="midnightblue" d="M193.796,-1035.67C195.983,-921.804 200.616,-746.155 210,-594 210.967,-578.318 212.193,-561.863 213.534,-545.581"/>
<polygon fill="none" stroke="midnightblue" points="190.294,-1035.74 193.605,-1045.8 197.293,-1035.87 190.294,-1035.74"/>
</g>
<!-- Node5 -->
<g id="node5" class="node"><title>Node5</title>
<g id="a_node5"><a xlink:href="../../dd/dce/classSiftPyramid.html" target="_top" xlink:title="{SiftPyramid\n|+ _timing\l+ _octave_min\l+ _octave_num\l+ _pyramid_octave_num\l+ _pyramid_octave_first\l+ _pyramid_width\l+ _pyramid_height\l+ _down_sample_factor\l+ _allocated\l+ _alignment\l+ _siftgpu_failed\l# _hpLevelNum\l# _levelFeatureNum\l# _featureNum\l# _histo_buffer\l# _existing_keypoints\l# _featureDisplayVBO\l# _featurePointVBO\l|+ RunSIFT()\l+ SaveSIFT()\l+ CopyFeatureVector()\l+ SetKeypointList()\l+ GetFeatureDescriptors()\l+ GenerateFeatureListTex()\l+ ReshapeFeatureListCPU()\l+ GenerateFeatureDisplayVBO()\l+ DownloadKeypoints()\l+ GenerateFeatureListCPU()\land 23 more...\l+ GetRequiredOctaveNum()\l}">
<polygon fill="white" stroke="black" points="219,-594.5 219,-959.5 377,-959.5 377,-594.5 219,-594.5"/>
<text text-anchor="middle" x="298" y="-947.5" font-family="Helvetica,sans-Serif" font-size="10.00">SiftPyramid</text>
<polyline fill="none" stroke="black" points="219,-940.5 377,-940.5 "/>
<text text-anchor="start" x="227" y="-928.5" font-family="Helvetica,sans-Serif" font-size="10.00">+ _timing</text>
<text text-anchor="start" x="227" y="-917.5" font-family="Helvetica,sans-Serif" font-size="10.00">+ _octave_min</text>
<text text-anchor="start" x="227" y="-906.5" font-family="Helvetica,sans-Serif" font-size="10.00">+ _octave_num</text>
<text text-anchor="start" x="227" y="-895.5" font-family="Helvetica,sans-Serif" font-size="10.00">+ _pyramid_octave_num</text>
<text text-anchor="start" x="227" y="-884.5" font-family="Helvetica,sans-Serif" font-size="10.00">+ _pyramid_octave_first</text>
<text text-anchor="start" x="227" y="-873.5" font-family="Helvetica,sans-Serif" font-size="10.00">+ _pyramid_width</text>
<text text-anchor="start" x="227" y="-862.5" font-family="Helvetica,sans-Serif" font-size="10.00">+ _pyramid_height</text>
<text text-anchor="start" x="227" y="-851.5" font-family="Helvetica,sans-Serif" font-size="10.00">+ _down_sample_factor</text>
<text text-anchor="start" x="227" y="-840.5" font-family="Helvetica,sans-Serif" font-size="10.00">+ _allocated</text>
<text text-anchor="start" x="227" y="-829.5" font-family="Helvetica,sans-Serif" font-size="10.00">+ _alignment</text>
<text text-anchor="start" x="227" y="-818.5" font-family="Helvetica,sans-Serif" font-size="10.00">+ _siftgpu_failed</text>
<text text-anchor="start" x="227" y="-807.5" font-family="Helvetica,sans-Serif" font-size="10.00"># _hpLevelNum</text>
<text text-anchor="start" x="227" y="-796.5" font-family="Helvetica,sans-Serif" font-size="10.00"># _levelFeatureNum</text>
<text text-anchor="start" x="227" y="-785.5" font-family="Helvetica,sans-Serif" font-size="10.00"># _featureNum</text>
<text text-anchor="start" x="227" y="-774.5" font-family="Helvetica,sans-Serif" font-size="10.00"># _histo_buffer</text>
<text text-anchor="start" x="227" y="-763.5" font-family="Helvetica,sans-Serif" font-size="10.00"># _existing_keypoints</text>
<text text-anchor="start" x="227" y="-752.5" font-family="Helvetica,sans-Serif" font-size="10.00"># _featureDisplayVBO</text>
<text text-anchor="start" x="227" y="-741.5" font-family="Helvetica,sans-Serif" font-size="10.00"># _featurePointVBO</text>
<polyline fill="none" stroke="black" points="219,-734.5 377,-734.5 "/>
<text text-anchor="start" x="227" y="-722.5" font-family="Helvetica,sans-Serif" font-size="10.00">+ RunSIFT()</text>
<text text-anchor="start" x="227" y="-711.5" font-family="Helvetica,sans-Serif" font-size="10.00">+ SaveSIFT()</text>
<text text-anchor="start" x="227" y="-700.5" font-family="Helvetica,sans-Serif" font-size="10.00">+ CopyFeatureVector()</text>
<text text-anchor="start" x="227" y="-689.5" font-family="Helvetica,sans-Serif" font-size="10.00">+ SetKeypointList()</text>
<text text-anchor="start" x="227" y="-678.5" font-family="Helvetica,sans-Serif" font-size="10.00">+ GetFeatureDescriptors()</text>
<text text-anchor="start" x="227" y="-667.5" font-family="Helvetica,sans-Serif" font-size="10.00">+ GenerateFeatureListTex()</text>
<text text-anchor="start" x="227" y="-656.5" font-family="Helvetica,sans-Serif" font-size="10.00">+ ReshapeFeatureListCPU()</text>
<text text-anchor="start" x="227" y="-645.5" font-family="Helvetica,sans-Serif" font-size="10.00">+ GenerateFeatureDisplayVBO()</text>
<text text-anchor="start" x="227" y="-634.5" font-family="Helvetica,sans-Serif" font-size="10.00">+ DownloadKeypoints()</text>
<text text-anchor="start" x="227" y="-623.5" font-family="Helvetica,sans-Serif" font-size="10.00">+ GenerateFeatureListCPU()</text>
<text text-anchor="start" x="227" y="-612.5" font-family="Helvetica,sans-Serif" font-size="10.00">and 23 more...</text>
<text text-anchor="start" x="227" y="-601.5" font-family="Helvetica,sans-Serif" font-size="10.00">+ GetRequiredOctaveNum()</text>
</a>
</g>
</g>
<!-- Node4&#45;&gt;Node5 -->
<g id="edge7" class="edge"><title>Node4&#45;&gt;Node5</title>
<path fill="none" stroke="#404040" d="M222.873,-1045.9C229.445,-1022.47 236.571,-997.06 243.727,-971.54"/>
<polygon fill="none" stroke="#404040" points="243.775,-971.368 241.544,-964.511 247.015,-959.814 249.246,-966.671 243.775,-971.368"/>
<text text-anchor="middle" x="260" y="-986.5" font-family="Helvetica,sans-Serif" font-size="10.00"> #param</text>
</g>
<!-- Node5&#45;&gt;Node3 -->
<g id="edge4" class="edge"><title>Node5&#45;&gt;Node3</title>
<path fill="none" stroke="#404040" d="M261.367,-594.362C258.892,-582.09 256.421,-569.837 254,-557.836"/>
<polygon fill="none" stroke="#404040" points="253.971,-557.69 248.864,-552.599 251.599,-545.927 256.706,-551.018 253.971,-557.69"/>
<text text-anchor="middle" x="280.5" y="-567.5" font-family="Helvetica,sans-Serif" font-size="10.00"> #_pyramid</text>
</g>
<!-- Node6 -->
<g id="node6" class="node"><title>Node6</title>
<g id="a_node6"><a xlink:href="../../d2/d55/classGlobalUtil.html" target="_top" xlink:title="{GlobalUtil\n||+ CLOCK()\l+ StopTimer()\l+ StartTimer()\l+ GetElapsedTime()\l+ FitViewPort()\l+ SetTextureParameter()\l+ SetTextureParameterUS()\l+ CheckErrorsGL()\l+ CheckFramebufferStatus()\l+ SelectDisplay()\land 6 more...\l}">
<polygon fill="white" stroke="black" points="219.5,-1334.5 219.5,-1501.5 360.5,-1501.5 360.5,-1334.5 219.5,-1334.5"/>
<text text-anchor="middle" x="290" y="-1489.5" font-family="Helvetica,sans-Serif" font-size="10.00">GlobalUtil</text>
<polyline fill="none" stroke="black" points="219.5,-1482.5 360.5,-1482.5 "/>
<text text-anchor="middle" x="290" y="-1470.5" font-family="Helvetica,sans-Serif" font-size="10.00"> </text>
<polyline fill="none" stroke="black" points="219.5,-1463.5 360.5,-1463.5 "/>
<text text-anchor="start" x="227.5" y="-1451.5" font-family="Helvetica,sans-Serif" font-size="10.00">+ CLOCK()</text>
<text text-anchor="start" x="227.5" y="-1440.5" font-family="Helvetica,sans-Serif" font-size="10.00">+ StopTimer()</text>
<text text-anchor="start" x="227.5" y="-1429.5" font-family="Helvetica,sans-Serif" font-size="10.00">+ StartTimer()</text>
<text text-anchor="start" x="227.5" y="-1418.5" font-family="Helvetica,sans-Serif" font-size="10.00">+ GetElapsedTime()</text>
<text text-anchor="start" x="227.5" y="-1407.5" font-family="Helvetica,sans-Serif" font-size="10.00">+ FitViewPort()</text>
<text text-anchor="start" x="227.5" y="-1396.5" font-family="Helvetica,sans-Serif" font-size="10.00">+ SetTextureParameter()</text>
<text text-anchor="start" x="227.5" y="-1385.5" font-family="Helvetica,sans-Serif" font-size="10.00">+ SetTextureParameterUS()</text>
<text text-anchor="start" x="227.5" y="-1374.5" font-family="Helvetica,sans-Serif" font-size="10.00">+ CheckErrorsGL()</text>
<text text-anchor="start" x="227.5" y="-1363.5" font-family="Helvetica,sans-Serif" font-size="10.00">+ CheckFramebufferStatus()</text>
<text text-anchor="start" x="227.5" y="-1352.5" font-family="Helvetica,sans-Serif" font-size="10.00">+ SelectDisplay()</text>
<text text-anchor="start" x="227.5" y="-1341.5" font-family="Helvetica,sans-Serif" font-size="10.00">and 6 more...</text>
</a>
</g>
</g>
<!-- Node6&#45;&gt;Node5 -->
<g id="edge5" class="edge"><title>Node6&#45;&gt;Node5</title>
<path fill="none" stroke="midnightblue" d="M346.668,-1325.16C350.803,-1315.57 354.375,-1305.75 357,-1296 393.748,-1159.5 385.118,-1117.62 363,-978 362.043,-971.96 360.933,-965.854 359.694,-959.717"/>
<polygon fill="none" stroke="midnightblue" points="343.476,-1323.72 342.543,-1334.28 349.853,-1326.61 343.476,-1323.72"/>
</g>
<!-- Node11 -->
<g id="node11" class="node"><title>Node11</title>
<g id="a_node11"><a xlink:href="../../df/da6/classGLTexImage.html" target="_top" xlink:title="{GLTexImage\n|# _texID\l# _imgWidth\l# _imgHeight\l# _texWidth\l# _texHeight\l# _drawWidth\l# _drawHeight\l|+ DrawQuadUS()\l+ DrawQuadDS()\l+ DrawImage()\l+ TexConvertRGB()\l+ ZeroHistoMargin()\l+ SetImageSize()\l+ InitTexture()\l+ InitTexture()\l+ FillMargin()\l+ DrawScaledQuad()\land 28 more...\l+ DetachFBO()\l+ UnbindTex()\l+ UnbindMultiTex()\l+ DrawQuad()\l}">
<polygon fill="white" stroke="black" points="0,-1018.5 0,-1295.5 108,-1295.5 108,-1018.5 0,-1018.5"/>
<text text-anchor="middle" x="54" y="-1283.5" font-family="Helvetica,sans-Serif" font-size="10.00">GLTexImage</text>
<polyline fill="none" stroke="black" points="0,-1276.5 108,-1276.5 "/>
<text text-anchor="start" x="8" y="-1264.5" font-family="Helvetica,sans-Serif" font-size="10.00"># _texID</text>
<text text-anchor="start" x="8" y="-1253.5" font-family="Helvetica,sans-Serif" font-size="10.00"># _imgWidth</text>
<text text-anchor="start" x="8" y="-1242.5" font-family="Helvetica,sans-Serif" font-size="10.00"># _imgHeight</text>
<text text-anchor="start" x="8" y="-1231.5" font-family="Helvetica,sans-Serif" font-size="10.00"># _texWidth</text>
<text text-anchor="start" x="8" y="-1220.5" font-family="Helvetica,sans-Serif" font-size="10.00"># _texHeight</text>
<text text-anchor="start" x="8" y="-1209.5" font-family="Helvetica,sans-Serif" font-size="10.00"># _drawWidth</text>
<text text-anchor="start" x="8" y="-1198.5" font-family="Helvetica,sans-Serif" font-size="10.00"># _drawHeight</text>
<polyline fill="none" stroke="black" points="0,-1191.5 108,-1191.5 "/>
<text text-anchor="start" x="8" y="-1179.5" font-family="Helvetica,sans-Serif" font-size="10.00">+ DrawQuadUS()</text>
<text text-anchor="start" x="8" y="-1168.5" font-family="Helvetica,sans-Serif" font-size="10.00">+ DrawQuadDS()</text>
<text text-anchor="start" x="8" y="-1157.5" font-family="Helvetica,sans-Serif" font-size="10.00">+ DrawImage()</text>
<text text-anchor="start" x="8" y="-1146.5" font-family="Helvetica,sans-Serif" font-size="10.00">+ TexConvertRGB()</text>
<text text-anchor="start" x="8" y="-1135.5" font-family="Helvetica,sans-Serif" font-size="10.00">+ ZeroHistoMargin()</text>
<text text-anchor="start" x="8" y="-1124.5" font-family="Helvetica,sans-Serif" font-size="10.00">+ SetImageSize()</text>
<text text-anchor="start" x="8" y="-1113.5" font-family="Helvetica,sans-Serif" font-size="10.00">+ InitTexture()</text>
<text text-anchor="start" x="8" y="-1102.5" font-family="Helvetica,sans-Serif" font-size="10.00">+ InitTexture()</text>
<text text-anchor="start" x="8" y="-1091.5" font-family="Helvetica,sans-Serif" font-size="10.00">+ FillMargin()</text>
<text text-anchor="start" x="8" y="-1080.5" font-family="Helvetica,sans-Serif" font-size="10.00">+ DrawScaledQuad()</text>
<text text-anchor="start" x="8" y="-1069.5" font-family="Helvetica,sans-Serif" font-size="10.00">and 28 more...</text>
<text text-anchor="start" x="8" y="-1058.5" font-family="Helvetica,sans-Serif" font-size="10.00">+ DetachFBO()</text>
<text text-anchor="start" x="8" y="-1047.5" font-family="Helvetica,sans-Serif" font-size="10.00">+ UnbindTex()</text>
<text text-anchor="start" x="8" y="-1036.5" font-family="Helvetica,sans-Serif" font-size="10.00">+ UnbindMultiTex()</text>
<text text-anchor="start" x="8" y="-1025.5" font-family="Helvetica,sans-Serif" font-size="10.00">+ DrawQuad()</text>
</a>
</g>
</g>
<!-- Node6&#45;&gt;Node11 -->
<g id="edge12" class="edge"><title>Node6&#45;&gt;Node11</title>
<path fill="none" stroke="midnightblue" d="M210.685,-1374.14C178.469,-1353.76 142.835,-1327.03 117,-1296 113.882,-1292.26 110.886,-1288.33 108.01,-1284.27"/>
<polygon fill="none" stroke="midnightblue" points="208.89,-1377.15 219.23,-1379.45 212.585,-1371.2 208.89,-1377.15"/>
</g>
<!-- Node7 -->
<g id="node7" class="node"><title>Node7</title>
<g id="a_node7"><a xlink:href="../../db/d04/classGlobalParam.html" target="_top" xlink:title="{GlobalParam\n|+ _texTarget\l+ _iTexFormat\l+ _texMaxDim\l+ _texMaxDimGL\l+ _texMinDim\l+ _MemCapGPU\l+ _FitMemoryCap\l+ _verbose\l+ _timingS\l+ _timingO\land 53 more...\l|}">
<polygon fill="white" stroke="black" points="242.5,-1540.5 242.5,-1707.5 337.5,-1707.5 337.5,-1540.5 242.5,-1540.5"/>
<text text-anchor="middle" x="290" y="-1695.5" font-family="Helvetica,sans-Serif" font-size="10.00">GlobalParam</text>
<polyline fill="none" stroke="black" points="242.5,-1688.5 337.5,-1688.5 "/>
<text text-anchor="start" x="250.5" y="-1676.5" font-family="Helvetica,sans-Serif" font-size="10.00">+ _texTarget</text>
<text text-anchor="start" x="250.5" y="-1665.5" font-family="Helvetica,sans-Serif" font-size="10.00">+ _iTexFormat</text>
<text text-anchor="start" x="250.5" y="-1654.5" font-family="Helvetica,sans-Serif" font-size="10.00">+ _texMaxDim</text>
<text text-anchor="start" x="250.5" y="-1643.5" font-family="Helvetica,sans-Serif" font-size="10.00">+ _texMaxDimGL</text>
<text text-anchor="start" x="250.5" y="-1632.5" font-family="Helvetica,sans-Serif" font-size="10.00">+ _texMinDim</text>
<text text-anchor="start" x="250.5" y="-1621.5" font-family="Helvetica,sans-Serif" font-size="10.00">+ _MemCapGPU</text>
<text text-anchor="start" x="250.5" y="-1610.5" font-family="Helvetica,sans-Serif" font-size="10.00">+ _FitMemoryCap</text>
<text text-anchor="start" x="250.5" y="-1599.5" font-family="Helvetica,sans-Serif" font-size="10.00">+ _verbose</text>
<text text-anchor="start" x="250.5" y="-1588.5" font-family="Helvetica,sans-Serif" font-size="10.00">+ _timingS</text>
<text text-anchor="start" x="250.5" y="-1577.5" font-family="Helvetica,sans-Serif" font-size="10.00">+ _timingO</text>
<text text-anchor="start" x="250.5" y="-1566.5" font-family="Helvetica,sans-Serif" font-size="10.00">and 53 more...</text>
<polyline fill="none" stroke="black" points="242.5,-1559.5 337.5,-1559.5 "/>
<text text-anchor="middle" x="290" y="-1547.5" font-family="Helvetica,sans-Serif" font-size="10.00"> </text>
</a>
</g>
</g>
<!-- Node7&#45;&gt;Node6 -->
<g id="edge6" class="edge"><title>Node7&#45;&gt;Node6</title>
<path fill="none" stroke="midnightblue" d="M290,-1530.13C290,-1520.68 290,-1511.13 290,-1501.8"/>
<polygon fill="none" stroke="midnightblue" points="286.5,-1530.32 290,-1540.32 293.5,-1530.32 286.5,-1530.32"/>
</g>
<!-- Node8 -->
<g id="node8" class="node"><title>Node8</title>
<polygon fill="white" stroke="#bfbfbf" points="405,-1128.5 405,-1185.5 485,-1185.5 485,-1128.5 405,-1128.5"/>
<text text-anchor="middle" x="445" y="-1173.5" font-family="Helvetica,sans-Serif" font-size="10.00">vector&lt; float &gt;</text>
<polyline fill="none" stroke="#bfbfbf" points="405,-1166.5 485,-1166.5 "/>
<text text-anchor="middle" x="445" y="-1154.5" font-family="Helvetica,sans-Serif" font-size="10.00"> </text>
<polyline fill="none" stroke="#bfbfbf" points="405,-1147.5 485,-1147.5 "/>
<text text-anchor="middle" x="445" y="-1135.5" font-family="Helvetica,sans-Serif" font-size="10.00"> </text>
</g>
<!-- Node8&#45;&gt;Node5 -->
<g id="edge8" class="edge"><title>Node8&#45;&gt;Node5</title>
<path fill="none" stroke="#404040" d="M437.939,-1128.46C428.589,-1093.13 410.937,-1030.19 391,-978 388.051,-970.281 384.938,-962.441 381.711,-954.557"/>
<polygon fill="none" stroke="#404040" points="381.676,-954.473 375.681,-950.464 377.076,-943.389 383.07,-947.398 381.676,-954.473"/>
<text text-anchor="middle" x="442" y="-992" font-family="Helvetica,sans-Serif" font-size="10.00"> +_descriptor_buffer</text>
<text text-anchor="middle" x="442" y="-981" font-family="Helvetica,sans-Serif" font-size="10.00">+_keypoint_buffer</text>
</g>
<!-- Node9 -->
<g id="node9" class="node"><title>Node9</title>
<polygon fill="white" stroke="#bfbfbf" points="276,-1128.5 276,-1185.5 348,-1185.5 348,-1128.5 276,-1128.5"/>
<text text-anchor="middle" x="312" y="-1173.5" font-family="Helvetica,sans-Serif" font-size="10.00">vector&lt; int &gt;</text>
<polyline fill="none" stroke="#bfbfbf" points="276,-1166.5 348,-1166.5 "/>
<text text-anchor="middle" x="312" y="-1154.5" font-family="Helvetica,sans-Serif" font-size="10.00"> </text>
<polyline fill="none" stroke="#bfbfbf" points="276,-1147.5 348,-1147.5 "/>
<text text-anchor="middle" x="312" y="-1135.5" font-family="Helvetica,sans-Serif" font-size="10.00"> </text>
</g>
<!-- Node9&#45;&gt;Node5 -->
<g id="edge9" class="edge"><title>Node9&#45;&gt;Node5</title>
<path fill="none" stroke="#404040" d="M305.49,-1128.3C298.558,-1097.27 288.038,-1045.36 284,-1000 283.181,-990.804 282.638,-981.39 282.325,-971.878"/>
<polygon fill="none" stroke="#404040" points="282.323,-971.784 278.186,-965.877 282.048,-959.787 286.184,-965.694 282.323,-971.784"/>
<text text-anchor="middle" x="323.5" y="-986.5" font-family="Helvetica,sans-Serif" font-size="10.00"> #_keypoint_index</text>
</g>
<!-- Node10 -->
<g id="node10" class="node"><title>Node10</title>
<g id="a_node10"><a xlink:href="../../d0/d3c/classGLTexInput.html" target="_top" xlink:title="{GLTexInput\n|+ _down_sampled\l+ _rgb_converted\l+ _data_modified\l+ _converted_data\l+ _pixel_data\l|+ GLTexInput()\l+ SetImageData()\l+ LoadImageFile()\l+ VerifyTexture()\l+ ~GLTexInput()\l+ IsSimpleGlFormat()\l+ DownSamplePixelDataI()\l+ DownSamplePixelDataI2F()\l+ DownSamplePixelDataF()\l+ TruncateWidthCU()\l}">
<polygon fill="white" stroke="black" points="6.5,-677 6.5,-877 153.5,-877 153.5,-677 6.5,-677"/>
<text text-anchor="middle" x="80" y="-865" font-family="Helvetica,sans-Serif" font-size="10.00">GLTexInput</text>
<polyline fill="none" stroke="black" points="6.5,-858 153.5,-858 "/>
<text text-anchor="start" x="14.5" y="-846" font-family="Helvetica,sans-Serif" font-size="10.00">+ _down_sampled</text>
<text text-anchor="start" x="14.5" y="-835" font-family="Helvetica,sans-Serif" font-size="10.00">+ _rgb_converted</text>
<text text-anchor="start" x="14.5" y="-824" font-family="Helvetica,sans-Serif" font-size="10.00">+ _data_modified</text>
<text text-anchor="start" x="14.5" y="-813" font-family="Helvetica,sans-Serif" font-size="10.00">+ _converted_data</text>
<text text-anchor="start" x="14.5" y="-802" font-family="Helvetica,sans-Serif" font-size="10.00">+ _pixel_data</text>
<polyline fill="none" stroke="black" points="6.5,-795 153.5,-795 "/>
<text text-anchor="start" x="14.5" y="-783" font-family="Helvetica,sans-Serif" font-size="10.00">+ GLTexInput()</text>
<text text-anchor="start" x="14.5" y="-772" font-family="Helvetica,sans-Serif" font-size="10.00">+ SetImageData()</text>
<text text-anchor="start" x="14.5" y="-761" font-family="Helvetica,sans-Serif" font-size="10.00">+ LoadImageFile()</text>
<text text-anchor="start" x="14.5" y="-750" font-family="Helvetica,sans-Serif" font-size="10.00">+ VerifyTexture()</text>
<text text-anchor="start" x="14.5" y="-739" font-family="Helvetica,sans-Serif" font-size="10.00">+ ~GLTexInput()</text>
<text text-anchor="start" x="14.5" y="-728" font-family="Helvetica,sans-Serif" font-size="10.00">+ IsSimpleGlFormat()</text>
<text text-anchor="start" x="14.5" y="-717" font-family="Helvetica,sans-Serif" font-size="10.00">+ DownSamplePixelDataI()</text>
<text text-anchor="start" x="14.5" y="-706" font-family="Helvetica,sans-Serif" font-size="10.00">+ DownSamplePixelDataI2F()</text>
<text text-anchor="start" x="14.5" y="-695" font-family="Helvetica,sans-Serif" font-size="10.00">+ DownSamplePixelDataF()</text>
<text text-anchor="start" x="14.5" y="-684" font-family="Helvetica,sans-Serif" font-size="10.00">+ TruncateWidthCU()</text>
</a>
</g>
</g>
<!-- Node10&#45;&gt;Node3 -->
<g id="edge10" class="edge"><title>Node10&#45;&gt;Node3</title>
<path fill="none" stroke="#404040" d="M90.6996,-676.805C96.9296,-640.305 106.709,-599.288 122,-564 130.77,-543.76 142.707,-523.562 155.371,-504.948"/>
<polygon fill="none" stroke="#404040" points="155.392,-504.918 155.542,-497.709 162.255,-495.075 162.105,-502.284 155.392,-504.918"/>
<text text-anchor="middle" x="149.5" y="-567.5" font-family="Helvetica,sans-Serif" font-size="10.00"> #_texImage</text>
</g>
<!-- Node11&#45;&gt;Node10 -->
<g id="edge11" class="edge"><title>Node11&#45;&gt;Node10</title>
<path fill="none" stroke="midnightblue" d="M64.162,-1008.26C67.1834,-964.334 70.4198,-917.281 73.1744,-877.233"/>
<polygon fill="none" stroke="midnightblue" points="60.6547,-1008.25 63.4601,-1018.46 67.6382,-1008.73 60.6547,-1008.25"/>
</g>
<!-- Node12 -->
<g id="node12" class="node"><title>Node12</title>
<g id="a_node12"><a xlink:href="../../db/dc3/classImageList.html" target="_top" xlink:title="{ImageList\n||}">
<polygon fill="white" stroke="black" points="465.5,-748.5 465.5,-805.5 524.5,-805.5 524.5,-748.5 465.5,-748.5"/>
<text text-anchor="middle" x="495" y="-793.5" font-family="Helvetica,sans-Serif" font-size="10.00">ImageList</text>
<polyline fill="none" stroke="black" points="465.5,-786.5 524.5,-786.5 "/>
<text text-anchor="middle" x="495" y="-774.5" font-family="Helvetica,sans-Serif" font-size="10.00"> </text>
<polyline fill="none" stroke="black" points="465.5,-767.5 524.5,-767.5 "/>
<text text-anchor="middle" x="495" y="-755.5" font-family="Helvetica,sans-Serif" font-size="10.00"> </text>
</a>
</g>
</g>
<!-- Node12&#45;&gt;Node3 -->
<g id="edge13" class="edge"><title>Node12&#45;&gt;Node3</title>
<path fill="none" stroke="#404040" d="M480.529,-748.426C460.839,-711.829 423.615,-645.801 385,-594 358.651,-558.654 326.426,-522.165 297.893,-491.713"/>
<polygon fill="none" stroke="#404040" points="297.794,-491.608 290.767,-489.987 289.56,-482.878 296.587,-484.498 297.794,-491.608"/>
<text text-anchor="middle" x="383.5" y="-567.5" font-family="Helvetica,sans-Serif" font-size="10.00"> #_list</text>
</g>
<!-- Node13 -->
<g id="node13" class="node"><title>Node13</title>
<polygon fill="white" stroke="#bfbfbf" points="503.5,-1128.5 503.5,-1185.5 628.5,-1185.5 628.5,-1128.5 503.5,-1128.5"/>
<text text-anchor="middle" x="566" y="-1173.5" font-family="Helvetica,sans-Serif" font-size="10.00">std::vector&lt; std::string &gt;</text>
<polyline fill="none" stroke="#bfbfbf" points="503.5,-1166.5 628.5,-1166.5 "/>
<text text-anchor="middle" x="566" y="-1154.5" font-family="Helvetica,sans-Serif" font-size="10.00"> </text>
<polyline fill="none" stroke="#bfbfbf" points="503.5,-1147.5 628.5,-1147.5 "/>
<text text-anchor="middle" x="566" y="-1135.5" font-family="Helvetica,sans-Serif" font-size="10.00"> </text>
</g>
<!-- Node13&#45;&gt;Node12 -->
<g id="edge14" class="edge"><title>Node13&#45;&gt;Node12</title>
<path fill="none" stroke="midnightblue" d="M560.384,-1118.41C554.873,-1082.33 546.006,-1026.33 537,-978 525.495,-916.264 509.821,-844.289 501.244,-805.746"/>
<polygon fill="none" stroke="midnightblue" points="556.953,-1119.13 561.915,-1128.49 563.873,-1118.08 556.953,-1119.13"/>
</g>
</g>
</svg>
