<?xml version="1.0" encoding="UTF-8" standalone="no"?>
<!DOCTYPE svg PUBLIC "-//W3C//DTD SVG 1.1//EN"
 "http://www.w3.org/Graphics/SVG/1.1/DTD/svg11.dtd">
<!-- Generated by graphviz version 2.36.0 (20140111.2315)
 -->
<!-- Title: external/gicp/ann_1.1.2/src/bd_search.cpp Pages: 1 -->
<svg width="373pt" height="376pt"
 viewBox="0.00 0.00 373.00 376.00" xmlns="http://www.w3.org/2000/svg" xmlns:xlink="http://www.w3.org/1999/xlink">
<g id="graph0" class="graph" transform="scale(1 1) rotate(0) translate(4 372)">
<title>external/gicp/ann_1.1.2/src/bd_search.cpp</title>
<polygon fill="white" stroke="none" points="-4,4 -4,-372 369,-372 369,4 -4,4"/>
<!-- Node1 -->
<g id="node1" class="node"><title>Node1</title>
<polygon fill="#bfbfbf" stroke="black" points="37,-337 37,-367 155,-367 155,-337 37,-337"/>
<text text-anchor="start" x="45" y="-355" font-family="Helvetica,sans-Serif" font-size="10.00">external/gicp/ann_1.1.2</text>
<text text-anchor="middle" x="96" y="-344" font-family="Helvetica,sans-Serif" font-size="10.00">/src/bd_search.cpp</text>
</g>
<!-- Node2 -->
<g id="node2" class="node"><title>Node2</title>
<g id="a_node2"><a xlink:href="../../d6/d5d/bd__tree_8h.html" target="_top" xlink:title="bd_tree.h">
<polygon fill="white" stroke="black" points="-0.5,-224.5 -0.5,-243.5 56.5,-243.5 56.5,-224.5 -0.5,-224.5"/>
<text text-anchor="middle" x="28" y="-231.5" font-family="Helvetica,sans-Serif" font-size="10.00">bd_tree.h</text>
</a>
</g>
</g>
<!-- Node1&#45;&gt;Node2 -->
<g id="edge1" class="edge"><title>Node1&#45;&gt;Node2</title>
<path fill="none" stroke="midnightblue" d="M87.6619,-336.776C75.1871,-315.496 51.6935,-275.418 38.209,-252.415"/>
<polygon fill="midnightblue" stroke="midnightblue" points="41.1808,-250.564 33.1041,-243.707 35.1419,-254.104 41.1808,-250.564"/>
</g>
<!-- Node13 -->
<g id="node13" class="node"><title>Node13</title>
<g id="a_node13"><a xlink:href="../../df/d79/kd__search_8h.html" target="_top" xlink:title="kd_search.h">
<polygon fill="white" stroke="black" points="105,-280.5 105,-299.5 175,-299.5 175,-280.5 105,-280.5"/>
<text text-anchor="middle" x="140" y="-287.5" font-family="Helvetica,sans-Serif" font-size="10.00">kd_search.h</text>
</a>
</g>
</g>
<!-- Node1&#45;&gt;Node13 -->
<g id="edge13" class="edge"><title>Node1&#45;&gt;Node13</title>
<path fill="none" stroke="midnightblue" d="M106.427,-336.781C112.755,-328.152 120.869,-317.088 127.534,-307.999"/>
<polygon fill="midnightblue" stroke="midnightblue" points="130.506,-309.864 133.598,-299.731 124.862,-305.725 130.506,-309.864"/>
</g>
<!-- Node3 -->
<g id="node3" class="node"><title>Node3</title>
<g id="a_node3"><a xlink:href="../../d5/d32/ANNx_8h.html" target="_top" xlink:title="ANN/ANNx.h">
<polygon fill="white" stroke="black" points="55.5,-112.5 55.5,-131.5 132.5,-131.5 132.5,-112.5 55.5,-112.5"/>
<text text-anchor="middle" x="94" y="-119.5" font-family="Helvetica,sans-Serif" font-size="10.00">ANN/ANNx.h</text>
</a>
</g>
</g>
<!-- Node2&#45;&gt;Node3 -->
<g id="edge2" class="edge"><title>Node2&#45;&gt;Node3</title>
<path fill="none" stroke="midnightblue" d="M29.4266,-224.462C31.8751,-211.498 37.738,-186.412 49,-168 55.8856,-156.743 66.1414,-146.194 75.1239,-138.144"/>
<polygon fill="midnightblue" stroke="midnightblue" points="77.5603,-140.666 82.8819,-131.504 73.0087,-135.347 77.5603,-140.666"/>
</g>
<!-- Node12 -->
<g id="node12" class="node"><title>Node12</title>
<g id="a_node12"><a xlink:href="../../da/dd0/kd__tree_8h.html" target="_top" xlink:title="kd_tree.h">
<polygon fill="white" stroke="black" points="58.5,-168.5 58.5,-187.5 115.5,-187.5 115.5,-168.5 58.5,-168.5"/>
<text text-anchor="middle" x="87" y="-175.5" font-family="Helvetica,sans-Serif" font-size="10.00">kd_tree.h</text>
</a>
</g>
</g>
<!-- Node2&#45;&gt;Node12 -->
<g id="edge11" class="edge"><title>Node2&#45;&gt;Node12</title>
<path fill="none" stroke="midnightblue" d="M37.4794,-224.324C46.2011,-216.341 59.3435,-204.313 69.8978,-194.653"/>
<polygon fill="midnightblue" stroke="midnightblue" points="72.3345,-197.167 77.3481,-187.834 67.6083,-192.004 72.3345,-197.167"/>
</g>
<!-- Node4 -->
<g id="node4" class="node"><title>Node4</title>
<polygon fill="white" stroke="#bfbfbf" points="69,-56.5 69,-75.5 119,-75.5 119,-56.5 69,-56.5"/>
<text text-anchor="middle" x="94" y="-63.5" font-family="Helvetica,sans-Serif" font-size="10.00">iomanip</text>
</g>
<!-- Node3&#45;&gt;Node4 -->
<g id="edge3" class="edge"><title>Node3&#45;&gt;Node4</title>
<path fill="none" stroke="midnightblue" d="M94,-112.083C94,-105.006 94,-94.8611 94,-85.9865"/>
<polygon fill="midnightblue" stroke="midnightblue" points="97.5001,-85.751 94,-75.7511 90.5001,-85.7511 97.5001,-85.751"/>
</g>
<!-- Node5 -->
<g id="node5" class="node"><title>Node5</title>
<g id="a_node5"><a xlink:href="../../d8/da9/ANN_8h.html" target="_top" xlink:title="ANN/ANN.h">
<polygon fill="white" stroke="black" points="150.5,-56.5 150.5,-75.5 221.5,-75.5 221.5,-56.5 150.5,-56.5"/>
<text text-anchor="middle" x="186" y="-63.5" font-family="Helvetica,sans-Serif" font-size="10.00">ANN/ANN.h</text>
</a>
</g>
</g>
<!-- Node3&#45;&gt;Node5 -->
<g id="edge4" class="edge"><title>Node3&#45;&gt;Node5</title>
<path fill="none" stroke="midnightblue" d="M108.781,-112.324C123.267,-103.822 145.573,-90.7288 162.493,-80.7975"/>
<polygon fill="midnightblue" stroke="midnightblue" points="164.403,-83.735 171.255,-75.6545 160.859,-77.6981 164.403,-83.735"/>
</g>
<!-- Node6 -->
<g id="node6" class="node"><title>Node6</title>
<polygon fill="white" stroke="#bfbfbf" points="-0.5,-0.5 -0.5,-19.5 44.5,-19.5 44.5,-0.5 -0.5,-0.5"/>
<text text-anchor="middle" x="22" y="-7.5" font-family="Helvetica,sans-Serif" font-size="10.00">cstdlib</text>
</g>
<!-- Node5&#45;&gt;Node6 -->
<g id="edge5" class="edge"><title>Node5&#45;&gt;Node6</title>
<path fill="none" stroke="midnightblue" d="M160.014,-56.4435C131.45,-47.0385 85.5172,-31.9142 54.5698,-21.7242"/>
<polygon fill="midnightblue" stroke="midnightblue" points="55.2888,-18.2762 44.6958,-18.473 53.0995,-24.925 55.2888,-18.2762"/>
</g>
<!-- Node7 -->
<g id="node7" class="node"><title>Node7</title>
<polygon fill="white" stroke="#bfbfbf" points="63,-0.5 63,-19.5 107,-19.5 107,-0.5 63,-0.5"/>
<text text-anchor="middle" x="85" y="-7.5" font-family="Helvetica,sans-Serif" font-size="10.00">cmath</text>
</g>
<!-- Node5&#45;&gt;Node7 -->
<g id="edge6" class="edge"><title>Node5&#45;&gt;Node7</title>
<path fill="none" stroke="midnightblue" d="M169.773,-56.324C153.649,-47.7034 128.7,-34.3643 110.036,-24.3855"/>
<polygon fill="midnightblue" stroke="midnightblue" points="111.656,-21.283 101.187,-19.6545 108.356,-27.456 111.656,-21.283"/>
</g>
<!-- Node8 -->
<g id="node8" class="node"><title>Node8</title>
<polygon fill="white" stroke="#bfbfbf" points="125,-0.5 125,-19.5 179,-19.5 179,-0.5 125,-0.5"/>
<text text-anchor="middle" x="152" y="-7.5" font-family="Helvetica,sans-Serif" font-size="10.00">iostream</text>
</g>
<!-- Node5&#45;&gt;Node8 -->
<g id="edge7" class="edge"><title>Node5&#45;&gt;Node8</title>
<path fill="none" stroke="midnightblue" d="M180.386,-56.083C175.633,-48.5341 168.682,-37.4948 162.848,-28.2298"/>
<polygon fill="midnightblue" stroke="midnightblue" points="165.8,-26.3486 157.51,-19.7511 159.876,-30.0783 165.8,-26.3486"/>
</g>
<!-- Node9 -->
<g id="node9" class="node"><title>Node9</title>
<polygon fill="white" stroke="#bfbfbf" points="197,-0.5 197,-19.5 243,-19.5 243,-0.5 197,-0.5"/>
<text text-anchor="middle" x="220" y="-7.5" font-family="Helvetica,sans-Serif" font-size="10.00">cstring</text>
</g>
<!-- Node5&#45;&gt;Node9 -->
<g id="edge8" class="edge"><title>Node5&#45;&gt;Node9</title>
<path fill="none" stroke="midnightblue" d="M191.614,-56.083C196.367,-48.5341 203.318,-37.4948 209.152,-28.2298"/>
<polygon fill="midnightblue" stroke="midnightblue" points="212.124,-30.0783 214.49,-19.7511 206.2,-26.3486 212.124,-30.0783"/>
</g>
<!-- Node10 -->
<g id="node10" class="node"><title>Node10</title>
<polygon fill="white" stroke="#bfbfbf" points="261.5,-0.5 261.5,-19.5 306.5,-19.5 306.5,-0.5 261.5,-0.5"/>
<text text-anchor="middle" x="284" y="-7.5" font-family="Helvetica,sans-Serif" font-size="10.00">climits</text>
</g>
<!-- Node5&#45;&gt;Node10 -->
<g id="edge9" class="edge"><title>Node5&#45;&gt;Node10</title>
<path fill="none" stroke="midnightblue" d="M201.745,-56.324C217.319,-47.7428 241.377,-34.486 259.459,-24.5224"/>
<polygon fill="midnightblue" stroke="midnightblue" points="261.224,-27.546 268.294,-19.6545 257.846,-21.4152 261.224,-27.546"/>
</g>
<!-- Node11 -->
<g id="node11" class="node"><title>Node11</title>
<polygon fill="white" stroke="#bfbfbf" points="324.5,-0.5 324.5,-19.5 365.5,-19.5 365.5,-0.5 324.5,-0.5"/>
<text text-anchor="middle" x="345" y="-7.5" font-family="Helvetica,sans-Serif" font-size="10.00">cfloat</text>
</g>
<!-- Node5&#45;&gt;Node11 -->
<g id="edge10" class="edge"><title>Node5&#45;&gt;Node11</title>
<path fill="none" stroke="midnightblue" d="M211.194,-56.4435C239.359,-46.8782 284.942,-31.3969 314.945,-21.2075"/>
<polygon fill="midnightblue" stroke="midnightblue" points="316.131,-24.501 324.474,-17.971 313.88,-17.8728 316.131,-24.501"/>
</g>
<!-- Node12&#45;&gt;Node3 -->
<g id="edge12" class="edge"><title>Node12&#45;&gt;Node3</title>
<path fill="none" stroke="midnightblue" d="M88.1559,-168.083C89.0835,-160.927 90.4176,-150.635 91.5771,-141.691"/>
<polygon fill="midnightblue" stroke="midnightblue" points="95.0509,-142.118 92.8656,-131.751 88.109,-141.218 95.0509,-142.118"/>
</g>
<!-- Node13&#45;&gt;Node12 -->
<g id="edge14" class="edge"><title>Node13&#45;&gt;Node12</title>
<path fill="none" stroke="midnightblue" d="M131.33,-280.476C123.143,-271.958 111.092,-258.127 104,-244 96.6405,-229.341 92.2367,-211.173 89.762,-197.775"/>
<polygon fill="midnightblue" stroke="midnightblue" points="93.201,-197.118 88.1145,-187.824 86.295,-198.261 93.201,-197.118"/>
</g>
<!-- Node14 -->
<g id="node14" class="node"><title>Node14</title>
<g id="a_node14"><a xlink:href="../../d7/de2/kd__util_8h.html" target="_top" xlink:title="kd_util.h">
<polygon fill="white" stroke="black" points="113.5,-224.5 113.5,-243.5 166.5,-243.5 166.5,-224.5 113.5,-224.5"/>
<text text-anchor="middle" x="140" y="-231.5" font-family="Helvetica,sans-Serif" font-size="10.00">kd_util.h</text>
</a>
</g>
</g>
<!-- Node13&#45;&gt;Node14 -->
<g id="edge15" class="edge"><title>Node13&#45;&gt;Node14</title>
<path fill="none" stroke="midnightblue" d="M140,-280.083C140,-273.006 140,-262.861 140,-253.986"/>
<polygon fill="midnightblue" stroke="midnightblue" points="143.5,-253.751 140,-243.751 136.5,-253.751 143.5,-253.751"/>
</g>
<!-- Node15 -->
<g id="node15" class="node"><title>Node15</title>
<g id="a_node15"><a xlink:href="../../d4/d04/pr__queue__k_8h.html" target="_top" xlink:title="pr_queue_k.h">
<polygon fill="white" stroke="black" points="184.5,-224.5 184.5,-243.5 259.5,-243.5 259.5,-224.5 184.5,-224.5"/>
<text text-anchor="middle" x="222" y="-231.5" font-family="Helvetica,sans-Serif" font-size="10.00">pr_queue_k.h</text>
</a>
</g>
</g>
<!-- Node13&#45;&gt;Node15 -->
<g id="edge17" class="edge"><title>Node13&#45;&gt;Node15</title>
<path fill="none" stroke="midnightblue" d="M153.175,-280.324C165.847,-271.979 185.233,-259.212 200.206,-249.352"/>
<polygon fill="midnightblue" stroke="midnightblue" points="202.431,-252.078 208.858,-243.655 198.581,-246.231 202.431,-252.078"/>
</g>
<!-- Node16 -->
<g id="node16" class="node"><title>Node16</title>
<g id="a_node16"><a xlink:href="../../da/d50/ANNperf_8h.html" target="_top" xlink:title="ANN/ANNperf.h">
<polygon fill="white" stroke="black" points="178,-168.5 178,-187.5 266,-187.5 266,-168.5 178,-168.5"/>
<text text-anchor="middle" x="222" y="-175.5" font-family="Helvetica,sans-Serif" font-size="10.00">ANN/ANNperf.h</text>
</a>
</g>
</g>
<!-- Node13&#45;&gt;Node16 -->
<g id="edge21" class="edge"><title>Node13&#45;&gt;Node16</title>
<path fill="none" stroke="midnightblue" d="M175.076,-287.324C205.242,-283.805 247.098,-273.504 268,-244 280.293,-226.647 261.204,-206.679 244.008,-193.504"/>
<polygon fill="midnightblue" stroke="midnightblue" points="246.02,-190.64 235.864,-187.624 241.922,-196.315 246.02,-190.64"/>
</g>
<!-- Node14&#45;&gt;Node12 -->
<g id="edge16" class="edge"><title>Node14&#45;&gt;Node12</title>
<path fill="none" stroke="midnightblue" d="M131.248,-224.083C123.53,-216.22 112.095,-204.569 102.783,-195.081"/>
<polygon fill="midnightblue" stroke="midnightblue" points="105.092,-192.436 95.589,-187.751 100.096,-197.34 105.092,-192.436"/>
</g>
<!-- Node15&#45;&gt;Node3 -->
<g id="edge18" class="edge"><title>Node15&#45;&gt;Node3</title>
<path fill="none" stroke="midnightblue" d="M211.814,-224.404C201.123,-215.37 183.842,-200.732 169,-188 149.359,-171.151 126.95,-151.7 111.781,-138.499"/>
<polygon fill="midnightblue" stroke="midnightblue" points="114.002,-135.792 104.162,-131.864 109.405,-141.071 114.002,-135.792"/>
</g>
<!-- Node15&#45;&gt;Node16 -->
<g id="edge19" class="edge"><title>Node15&#45;&gt;Node16</title>
<path fill="none" stroke="midnightblue" d="M222,-224.083C222,-217.006 222,-206.861 222,-197.986"/>
<polygon fill="midnightblue" stroke="midnightblue" points="225.5,-197.751 222,-187.751 218.5,-197.751 225.5,-197.751"/>
</g>
<!-- Node16&#45;&gt;Node5 -->
<g id="edge20" class="edge"><title>Node16&#45;&gt;Node5</title>
<path fill="none" stroke="midnightblue" d="M219.175,-168.368C213.339,-150.537 199.842,-109.295 191.98,-85.2717"/>
<polygon fill="midnightblue" stroke="midnightblue" points="195.249,-84.0067 188.812,-75.5914 188.596,-86.1841 195.249,-84.0067"/>
</g>
</g>
</svg>
