<?xml version="1.0" encoding="UTF-8" standalone="no"?>
<!DOCTYPE svg PUBLIC "-//W3C//DTD SVG 1.1//EN"
 "http://www.w3.org/Graphics/SVG/1.1/DTD/svg11.dtd">
<!-- Generated by graphviz version 2.36.0 (20140111.2315)
 -->
<!-- Title: external/SiftGPU/src/TestWin/SimpleSIFT.cpp Pages: 1 -->
<svg width="382pt" height="96pt"
 viewBox="0.00 0.00 382.00 96.00" xmlns="http://www.w3.org/2000/svg" xmlns:xlink="http://www.w3.org/1999/xlink">
<g id="graph0" class="graph" transform="scale(1 1) rotate(0) translate(4 92)">
<title>external/SiftGPU/src/TestWin/SimpleSIFT.cpp</title>
<polygon fill="white" stroke="none" points="-4,4 -4,-92 378,-92 378,4 -4,4"/>
<!-- Node1 -->
<g id="node1" class="node"><title>Node1</title>
<polygon fill="#bfbfbf" stroke="black" points="90,-57 90,-87 220,-87 220,-57 90,-57"/>
<text text-anchor="start" x="98" y="-75" font-family="Helvetica,sans-Serif" font-size="10.00">external/SiftGPU/src</text>
<text text-anchor="middle" x="155" y="-64" font-family="Helvetica,sans-Serif" font-size="10.00">/TestWin/SimpleSIFT.cpp</text>
</g>
<!-- Node2 -->
<g id="node2" class="node"><title>Node2</title>
<polygon fill="white" stroke="#bfbfbf" points="0,-0.5 0,-19.5 48,-19.5 48,-0.5 0,-0.5"/>
<text text-anchor="middle" x="24" y="-7.5" font-family="Helvetica,sans-Serif" font-size="10.00">stdlib.h</text>
</g>
<!-- Node1&#45;&gt;Node2 -->
<g id="edge1" class="edge"><title>Node1&#45;&gt;Node2</title>
<path fill="none" stroke="midnightblue" d="M124.286,-56.9327C102.382,-46.9004 73.167,-33.5193 51.9221,-23.7888"/>
<polygon fill="midnightblue" stroke="midnightblue" points="53.326,-20.5821 42.7767,-19.6 50.411,-26.9464 53.326,-20.5821"/>
</g>
<!-- Node3 -->
<g id="node3" class="node"><title>Node3</title>
<polygon fill="white" stroke="#bfbfbf" points="66,-0.5 66,-19.5 110,-19.5 110,-0.5 66,-0.5"/>
<text text-anchor="middle" x="88" y="-7.5" font-family="Helvetica,sans-Serif" font-size="10.00">vector</text>
</g>
<!-- Node1&#45;&gt;Node3 -->
<g id="edge2" class="edge"><title>Node1&#45;&gt;Node3</title>
<path fill="none" stroke="midnightblue" d="M139.122,-56.7808C128.985,-47.7026 115.838,-35.9291 105.415,-26.5951"/>
<polygon fill="midnightblue" stroke="midnightblue" points="107.534,-23.7944 97.7491,-19.7305 102.864,-29.0091 107.534,-23.7944"/>
</g>
<!-- Node4 -->
<g id="node4" class="node"><title>Node4</title>
<polygon fill="white" stroke="#bfbfbf" points="128,-0.5 128,-19.5 182,-19.5 182,-0.5 128,-0.5"/>
<text text-anchor="middle" x="155" y="-7.5" font-family="Helvetica,sans-Serif" font-size="10.00">iostream</text>
</g>
<!-- Node1&#45;&gt;Node4 -->
<g id="edge3" class="edge"><title>Node1&#45;&gt;Node4</title>
<path fill="none" stroke="midnightblue" d="M155,-56.7808C155,-48.7812 155,-38.6887 155,-30.0168"/>
<polygon fill="midnightblue" stroke="midnightblue" points="158.5,-29.7305 155,-19.7305 151.5,-29.7306 158.5,-29.7305"/>
</g>
<!-- Node5 -->
<g id="node5" class="node"><title>Node5</title>
<polygon fill="white" stroke="#bfbfbf" points="200,-0.5 200,-19.5 246,-19.5 246,-0.5 200,-0.5"/>
<text text-anchor="middle" x="223" y="-7.5" font-family="Helvetica,sans-Serif" font-size="10.00">dlfcn.h</text>
</g>
<!-- Node1&#45;&gt;Node5 -->
<g id="edge4" class="edge"><title>Node1&#45;&gt;Node5</title>
<path fill="none" stroke="midnightblue" d="M171.115,-56.7808C181.404,-47.7026 194.747,-35.9291 205.326,-26.5951"/>
<polygon fill="midnightblue" stroke="midnightblue" points="207.923,-28.9712 213.105,-19.7305 203.291,-23.7223 207.923,-28.9712"/>
</g>
<!-- Node6 -->
<g id="node6" class="node"><title>Node6</title>
<g id="a_node6"><a xlink:href="../../d2/d17/SiftGPU_8h.html" target="_top" xlink:title="../SiftGPU/SiftGPU.h">
<polygon fill="white" stroke="black" points="264,-0.5 264,-19.5 374,-19.5 374,-0.5 264,-0.5"/>
<text text-anchor="middle" x="319" y="-7.5" font-family="Helvetica,sans-Serif" font-size="10.00">../SiftGPU/SiftGPU.h</text>
</a>
</g>
</g>
<!-- Node1&#45;&gt;Node6 -->
<g id="edge5" class="edge"><title>Node1&#45;&gt;Node6</title>
<path fill="none" stroke="midnightblue" d="M193.451,-56.9327C221.49,-46.6744 259.1,-32.9148 285.826,-23.1369"/>
<polygon fill="midnightblue" stroke="midnightblue" points="287.305,-26.3228 295.493,-19.6 284.899,-19.749 287.305,-26.3228"/>
</g>
</g>
</svg>
