<?xml version="1.0" encoding="UTF-8" standalone="no"?>
<!DOCTYPE svg PUBLIC "-//W3C//DTD SVG 1.1//EN"
 "http://www.w3.org/Graphics/SVG/1.1/DTD/svg11.dtd">
<!-- Generated by graphviz version 2.36.0 (20140111.2315)
 -->
<!-- Title: lsd_slam::Frame Pages: 1 -->
<!--zoomable 1426 -->
<svg id="main" version="1.1" xmlns="http://www.w3.org/2000/svg" xmlns:xlink="http://www.w3.org/1999/xlink" xml:space="preserve" onload="init(evt)">
<style type="text/css"><![CDATA[
.edge:hover path { stroke: red; }
.edge:hover polygon { stroke: red; fill: red; }
]]></style>
<script type="text/javascript"><![CDATA[
var edges = document.getElementsByTagName('g');
if (edges && edges.length) {
  for (var i=0;i<edges.length;i++) {
    if (edges[i].id.substr(0,4)=='edge') {
      edges[i].setAttribute('class','edge');
    }
  }
}
]]></script>
        <defs>
                <circle id="rim" cx="0" cy="0" r="7"/>
                <circle id="rim2" cx="0" cy="0" r="3.5"/>
                <g id="zoomPlus">
                        <use xlink:href="#rim" fill="#404040">
                                <set attributeName="fill" to="#808080" begin="zoomplus.mouseover" end="zoomplus.mouseout"/>
                        </use>
                        <path d="M-4,0h8M0,-4v8" fill="none" stroke="white" stroke-width="1.5" pointer-events="none"/>
                </g>
                <g id="zoomMin">
                        <use xlink:href="#rim" fill="#404040">
                                <set attributeName="fill" to="#808080" begin="zoomminus.mouseover" end="zoomminus.mouseout"/>
                        </use>
                        <path d="M-4,0h8" fill="none" stroke="white" stroke-width="1.5" pointer-events="none"/>
                </g>
                <g id="dirArrow">
                        <path fill="none" stroke="white" stroke-width="1.5" d="M0,-3.0v7 M-2.5,-0.5L0,-3.0L2.5,-0.5"/>
                </g>
               <g id="resetDef">
                       <use xlink:href="#rim2" fill="#404040">
                               <set attributeName="fill" to="#808080" begin="reset.mouseover" end="reset.mouseout"/>
                       </use>
               </g>
        </defs>

<script type="text/javascript">
var viewWidth = 436;
var viewHeight = 1426;
var sectionId = 'dynsection-0';
</script>
<script xlink:href="../../svgpan.js"/>
<svg id="graph" class="graph">
<g id="viewport">
<title>lsd_slam::Frame</title>
<polygon fill="white" stroke="none" points="-4,4 -4,-1422 432,-1422 432,4 -4,4"/>
<!-- Node1 -->
<g id="node1" class="node"><title>Node1</title>
<polygon fill="#bfbfbf" stroke="black" points="0,-194.5 0,-471.5 148,-471.5 148,-194.5 0,-194.5"/>
<text text-anchor="middle" x="74" y="-459.5" font-family="Helvetica,sans-Serif" font-size="10.00">lsd_slam::Frame</text>
<polyline fill="none" stroke="black" points="0,-452.5 148,-452.5 "/>
<text text-anchor="start" x="8" y="-440.5" font-family="Helvetica,sans-Serif" font-size="10.00">+ neighbors</text>
<text text-anchor="start" x="8" y="-429.5" font-family="Helvetica,sans-Serif" font-size="10.00">+ trackingFailed</text>
<text text-anchor="start" x="8" y="-418.5" font-family="Helvetica,sans-Serif" font-size="10.00">+ depthHasBeenUpdatedFlag</text>
<text text-anchor="start" x="8" y="-407.5" font-family="Helvetica,sans-Serif" font-size="10.00">+ permaRef_mutex</text>
<text text-anchor="start" x="8" y="-396.5" font-family="Helvetica,sans-Serif" font-size="10.00">+ permaRef_posData</text>
<text text-anchor="start" x="8" y="-385.5" font-family="Helvetica,sans-Serif" font-size="10.00">+ permaRef_colorAndVarData</text>
<text text-anchor="start" x="8" y="-374.5" font-family="Helvetica,sans-Serif" font-size="10.00">+ permaRefNumPts</text>
<text text-anchor="start" x="8" y="-363.5" font-family="Helvetica,sans-Serif" font-size="10.00">+ referenceID</text>
<text text-anchor="start" x="8" y="-352.5" font-family="Helvetica,sans-Serif" font-size="10.00">+ referenceLevel</text>
<text text-anchor="start" x="8" y="-341.5" font-family="Helvetica,sans-Serif" font-size="10.00">+ distSquared</text>
<text text-anchor="start" x="8" y="-330.5" font-family="Helvetica,sans-Serif" font-size="10.00">and 20 more...</text>
<polyline fill="none" stroke="black" points="0,-323.5 148,-323.5 "/>
<text text-anchor="start" x="8" y="-311.5" font-family="Helvetica,sans-Serif" font-size="10.00">+ Frame()</text>
<text text-anchor="start" x="8" y="-300.5" font-family="Helvetica,sans-Serif" font-size="10.00">+ Frame()</text>
<text text-anchor="start" x="8" y="-289.5" font-family="Helvetica,sans-Serif" font-size="10.00">+ ~Frame()</text>
<text text-anchor="start" x="8" y="-278.5" font-family="Helvetica,sans-Serif" font-size="10.00">+ setDepth()</text>
<text text-anchor="start" x="8" y="-267.5" font-family="Helvetica,sans-Serif" font-size="10.00">+ calculateMeanInformation()</text>
<text text-anchor="start" x="8" y="-256.5" font-family="Helvetica,sans-Serif" font-size="10.00">+ setDepthFromGroundTruth()</text>
<text text-anchor="start" x="8" y="-245.5" font-family="Helvetica,sans-Serif" font-size="10.00">+ prepareForStereoWith()</text>
<text text-anchor="start" x="8" y="-234.5" font-family="Helvetica,sans-Serif" font-size="10.00">+ id()</text>
<text text-anchor="start" x="8" y="-223.5" font-family="Helvetica,sans-Serif" font-size="10.00">+ width()</text>
<text text-anchor="start" x="8" y="-212.5" font-family="Helvetica,sans-Serif" font-size="10.00">+ height()</text>
<text text-anchor="start" x="8" y="-201.5" font-family="Helvetica,sans-Serif" font-size="10.00">and 29 more...</text>
</g>
<!-- Node2 -->
<g id="node2" class="node"><title>Node2</title>
<g id="a_node2"><a xlink:href="../../d9/d9e/classlsd__slam_1_1FramePoseStruct.html" target="_top" xlink:title="{lsd_slam::FramePoseStruct\n|+ frameID\l+ isRegisteredToGraph\l+ isOptimized\l+ isInGraph\l|+ FramePoseStruct()\l+ ~FramePoseStruct()\l+ setPoseGraphOptResult()\l+ applyPoseGraphOptResult()\l+ getCamToWorld()\l+ invalidateCache()\l}">
<polygon fill="white" stroke="black" points="86,-0.5 86,-145.5 234,-145.5 234,-0.5 86,-0.5"/>
<text text-anchor="middle" x="160" y="-133.5" font-family="Helvetica,sans-Serif" font-size="10.00">lsd_slam::FramePoseStruct</text>
<polyline fill="none" stroke="black" points="86,-126.5 234,-126.5 "/>
<text text-anchor="start" x="94" y="-114.5" font-family="Helvetica,sans-Serif" font-size="10.00">+ frameID</text>
<text text-anchor="start" x="94" y="-103.5" font-family="Helvetica,sans-Serif" font-size="10.00">+ isRegisteredToGraph</text>
<text text-anchor="start" x="94" y="-92.5" font-family="Helvetica,sans-Serif" font-size="10.00">+ isOptimized</text>
<text text-anchor="start" x="94" y="-81.5" font-family="Helvetica,sans-Serif" font-size="10.00">+ isInGraph</text>
<polyline fill="none" stroke="black" points="86,-74.5 234,-74.5 "/>
<text text-anchor="start" x="94" y="-62.5" font-family="Helvetica,sans-Serif" font-size="10.00">+ FramePoseStruct()</text>
<text text-anchor="start" x="94" y="-51.5" font-family="Helvetica,sans-Serif" font-size="10.00">+ ~FramePoseStruct()</text>
<text text-anchor="start" x="94" y="-40.5" font-family="Helvetica,sans-Serif" font-size="10.00">+ setPoseGraphOptResult()</text>
<text text-anchor="start" x="94" y="-29.5" font-family="Helvetica,sans-Serif" font-size="10.00">+ applyPoseGraphOptResult()</text>
<text text-anchor="start" x="94" y="-18.5" font-family="Helvetica,sans-Serif" font-size="10.00">+ getCamToWorld()</text>
<text text-anchor="start" x="94" y="-7.5" font-family="Helvetica,sans-Serif" font-size="10.00">+ invalidateCache()</text>
</a>
</g>
</g>
<!-- Node1&#45;&gt;Node2 -->
<g id="edge2" class="edge"><title>Node1&#45;&gt;Node2</title>
<path fill="none" stroke="#404040" d="M80.6189,-194.311C83.0797,-183.883 86.1614,-173.667 90,-164 91.0091,-161.459 92.113,-158.93 93.2987,-156.419"/>
<polygon fill="none" stroke="#404040" points="93.4222,-156.183 92.6559,-149.013 98.9799,-145.547 99.7462,-152.718 93.4222,-156.183"/>
<text text-anchor="middle" x="107" y="-167.5" font-family="Helvetica,sans-Serif" font-size="10.00"> +frame</text>
</g>
<!-- Node2&#45;&gt;Node1 -->
<g id="edge1" class="edge"><title>Node2&#45;&gt;Node1</title>
<path fill="none" stroke="#404040" d="M136.125,-145.624C132.229,-157.312 128.07,-169.79 123.82,-182.541"/>
<polygon fill="none" stroke="#404040" points="123.69,-182.929 125.588,-189.886 119.896,-194.313 117.998,-187.356 123.69,-182.929"/>
<text text-anchor="middle" x="145.5" y="-167.5" font-family="Helvetica,sans-Serif" font-size="10.00"> +pose</text>
</g>
<!-- Node2&#45;&gt;Node2 -->
<g id="edge3" class="edge"><title>Node2&#45;&gt;Node2</title>
<path fill="none" stroke="#404040" d="M234.36,-89.1532C244.916,-86.5406 252,-81.1562 252,-73 252,-68.2847 249.632,-64.4958 245.595,-61.6333"/>
<polygon fill="none" stroke="#404040" points="245.4,-61.5502 238.312,-62.8785 234.36,-56.8468 241.448,-55.5186 245.4,-61.5502"/>
<text text-anchor="middle" x="288.5" y="-70.5" font-family="Helvetica,sans-Serif" font-size="10.00"> +trackingParent</text>
</g>
<!-- Node3 -->
<g id="node3" class="node"><title>Node3</title>
<g id="a_node3"><a xlink:href="../../de/d0b/classSophus_1_1Sim3Group.html" target="_top" xlink:title="Sim3 default type &#45; Constructors and default storage for Sim3 Type. ">
<polygon fill="white" stroke="black" points="58,-530.5 58,-741.5 168,-741.5 168,-530.5 58,-530.5"/>
<text text-anchor="start" x="66" y="-729.5" font-family="Helvetica,sans-Serif" font-size="10.00">Sophus::Sim3Group&lt;</text>
<text text-anchor="middle" x="113" y="-718.5" font-family="Helvetica,sans-Serif" font-size="10.00"> _Scalar, _Options &gt;</text>
<polyline fill="none" stroke="black" points="58,-711.5 168,-711.5 "/>
<text text-anchor="start" x="66" y="-699.5" font-family="Helvetica,sans-Serif" font-size="10.00">+ DoF</text>
<text text-anchor="start" x="66" y="-688.5" font-family="Helvetica,sans-Serif" font-size="10.00">+ num_parameters</text>
<text text-anchor="start" x="66" y="-677.5" font-family="Helvetica,sans-Serif" font-size="10.00">+ N</text>
<text text-anchor="start" x="66" y="-666.5" font-family="Helvetica,sans-Serif" font-size="10.00"># translation_</text>
<polyline fill="none" stroke="black" points="58,-659.5 168,-659.5 "/>
<text text-anchor="start" x="66" y="-647.5" font-family="Helvetica,sans-Serif" font-size="10.00">+ Sim3Group()</text>
<text text-anchor="start" x="66" y="-636.5" font-family="Helvetica,sans-Serif" font-size="10.00">+ Sim3Group()</text>
<text text-anchor="start" x="66" y="-625.5" font-family="Helvetica,sans-Serif" font-size="10.00">+ Sim3Group()</text>
<text text-anchor="start" x="66" y="-614.5" font-family="Helvetica,sans-Serif" font-size="10.00">+ Sim3Group()</text>
<text text-anchor="start" x="66" y="-603.5" font-family="Helvetica,sans-Serif" font-size="10.00">+ Sim3Group()</text>
<text text-anchor="start" x="66" y="-592.5" font-family="Helvetica,sans-Serif" font-size="10.00">+ data()</text>
<text text-anchor="start" x="66" y="-581.5" font-family="Helvetica,sans-Serif" font-size="10.00">+ data()</text>
<text text-anchor="start" x="66" y="-570.5" font-family="Helvetica,sans-Serif" font-size="10.00">+ rxso3()</text>
<text text-anchor="start" x="66" y="-559.5" font-family="Helvetica,sans-Serif" font-size="10.00">+ rxso3()</text>
<text text-anchor="start" x="66" y="-548.5" font-family="Helvetica,sans-Serif" font-size="10.00">+ translation()</text>
<text text-anchor="start" x="66" y="-537.5" font-family="Helvetica,sans-Serif" font-size="10.00">+ translation()</text>
</a>
</g>
</g>
<!-- Node3&#45;&gt;Node1 -->
<g id="edge10" class="edge"><title>Node3&#45;&gt;Node1</title>
<path fill="none" stroke="#404040" d="M57.8632,-551.096C51.7544,-538.43 46.4885,-525.183 43,-512 40.5738,-502.832 39.1531,-493.346 38.5342,-483.746"/>
<polygon fill="none" stroke="#404040" points="38.5279,-483.535 34.3477,-477.659 38.1638,-471.541 42.344,-477.416 38.5279,-483.535"/>
<text text-anchor="start" x="43" y="-504" font-family="Helvetica,sans-Serif" font-size="10.00"> +lastConstraintTrackedCam</text>
<text text-anchor="middle" x="106.5" y="-493" font-family="Helvetica,sans-Serif" font-size="10.00">ToWorld</text>
</g>
<!-- Node3&#45;&gt;Node2 -->
<g id="edge4" class="edge"><title>Node3&#45;&gt;Node2</title>
<path fill="none" stroke="#404040" d="M165.057,-530.366C166.982,-524.238 168.657,-518.091 170,-512 196.691,-390.921 185.337,-246.45 173.566,-157.467"/>
<polygon fill="none" stroke="#404040" points="173.563,-157.446 168.79,-152.041 171.944,-145.556 176.717,-150.962 173.563,-157.446"/>
<text text-anchor="middle" x="230" y="-330.5" font-family="Helvetica,sans-Serif" font-size="10.00"> +thisToParent_raw</text>
</g>
<!-- Node4 -->
<g id="node4" class="node"><title>Node4</title>
<g id="a_node4"><a xlink:href="../../d6/db5/classSophus_1_1Sim3GroupBase.html" target="_top" xlink:title="{Sophus::Sim3GroupBase\l\&lt; Sim3Group\&lt; _Scalar,\l _Options \&gt; \&gt;\n|+ DoF\l+ num_parameters\l+ N\l|+ Adj()\l+ cast()\l+ fastMultiply()\l+ inverse()\l+ log()\l+ matrix()\l+ matrix3x4()\l+ operator=()\l+ operator*()\l+ operator*()\land 13 more...\l+ log()\l+ d_lieBracketab_by_d_a()\l+ exp()\l+ generator()\l+ hat()\l+ lieBracket()\l+ vee()\l}">
<polygon fill="white" stroke="black" points="30.5,-791 30.5,-1079 163.5,-1079 163.5,-791 30.5,-791"/>
<text text-anchor="start" x="38.5" y="-1067" font-family="Helvetica,sans-Serif" font-size="10.00">Sophus::Sim3GroupBase</text>
<text text-anchor="start" x="38.5" y="-1056" font-family="Helvetica,sans-Serif" font-size="10.00">&lt; Sim3Group&lt; _Scalar,</text>
<text text-anchor="middle" x="97" y="-1045" font-family="Helvetica,sans-Serif" font-size="10.00"> _Options &gt; &gt;</text>
<polyline fill="none" stroke="black" points="30.5,-1038 163.5,-1038 "/>
<text text-anchor="start" x="38.5" y="-1026" font-family="Helvetica,sans-Serif" font-size="10.00">+ DoF</text>
<text text-anchor="start" x="38.5" y="-1015" font-family="Helvetica,sans-Serif" font-size="10.00">+ num_parameters</text>
<text text-anchor="start" x="38.5" y="-1004" font-family="Helvetica,sans-Serif" font-size="10.00">+ N</text>
<polyline fill="none" stroke="black" points="30.5,-997 163.5,-997 "/>
<text text-anchor="start" x="38.5" y="-985" font-family="Helvetica,sans-Serif" font-size="10.00">+ Adj()</text>
<text text-anchor="start" x="38.5" y="-974" font-family="Helvetica,sans-Serif" font-size="10.00">+ cast()</text>
<text text-anchor="start" x="38.5" y="-963" font-family="Helvetica,sans-Serif" font-size="10.00">+ fastMultiply()</text>
<text text-anchor="start" x="38.5" y="-952" font-family="Helvetica,sans-Serif" font-size="10.00">+ inverse()</text>
<text text-anchor="start" x="38.5" y="-941" font-family="Helvetica,sans-Serif" font-size="10.00">+ log()</text>
<text text-anchor="start" x="38.5" y="-930" font-family="Helvetica,sans-Serif" font-size="10.00">+ matrix()</text>
<text text-anchor="start" x="38.5" y="-919" font-family="Helvetica,sans-Serif" font-size="10.00">+ matrix3x4()</text>
<text text-anchor="start" x="38.5" y="-908" font-family="Helvetica,sans-Serif" font-size="10.00">+ operator=()</text>
<text text-anchor="start" x="38.5" y="-897" font-family="Helvetica,sans-Serif" font-size="10.00">+ operator*()</text>
<text text-anchor="start" x="38.5" y="-886" font-family="Helvetica,sans-Serif" font-size="10.00">+ operator*()</text>
<text text-anchor="start" x="38.5" y="-875" font-family="Helvetica,sans-Serif" font-size="10.00">and 13 more...</text>
<text text-anchor="start" x="38.5" y="-864" font-family="Helvetica,sans-Serif" font-size="10.00">+ log()</text>
<text text-anchor="start" x="38.5" y="-853" font-family="Helvetica,sans-Serif" font-size="10.00">+ d_lieBracketab_by_d_a()</text>
<text text-anchor="start" x="38.5" y="-842" font-family="Helvetica,sans-Serif" font-size="10.00">+ exp()</text>
<text text-anchor="start" x="38.5" y="-831" font-family="Helvetica,sans-Serif" font-size="10.00">+ generator()</text>
<text text-anchor="start" x="38.5" y="-820" font-family="Helvetica,sans-Serif" font-size="10.00">+ hat()</text>
<text text-anchor="start" x="38.5" y="-809" font-family="Helvetica,sans-Serif" font-size="10.00">+ lieBracket()</text>
<text text-anchor="start" x="38.5" y="-798" font-family="Helvetica,sans-Serif" font-size="10.00">+ vee()</text>
</a>
</g>
</g>
<!-- Node4&#45;&gt;Node3 -->
<g id="edge5" class="edge"><title>Node4&#45;&gt;Node3</title>
<path fill="none" stroke="midnightblue" d="M105.26,-780.682C105.966,-767.56 106.671,-754.489 107.35,-741.878"/>
<polygon fill="none" stroke="midnightblue" points="101.762,-780.546 104.719,-790.72 108.752,-780.923 101.762,-780.546"/>
</g>
<!-- Node5 -->
<g id="node5" class="node"><title>Node5</title>
<g id="a_node5"><a xlink:href="../../d5/d41/classSophus_1_1RxSO3Group.html" target="_top" xlink:title="{Sophus::RxSO3Group\l\&lt; Scalar \&gt;\n|+ DoF\l+ num_parameters\l+ N\l# quaternion_\l|+ RxSO3Group()\l+ RxSO3Group()\l+ RxSO3Group()\l+ RxSO3Group()\l+ RxSO3Group()\l+ RxSO3Group()\l+ quaternion()\l+ quaternion()\l}">
<polygon fill="white" stroke="black" points="182,-846 182,-1024 296,-1024 296,-846 182,-846"/>
<text text-anchor="start" x="190" y="-1012" font-family="Helvetica,sans-Serif" font-size="10.00">Sophus::RxSO3Group</text>
<text text-anchor="middle" x="239" y="-1001" font-family="Helvetica,sans-Serif" font-size="10.00">&lt; Scalar &gt;</text>
<polyline fill="none" stroke="black" points="182,-994 296,-994 "/>
<text text-anchor="start" x="190" y="-982" font-family="Helvetica,sans-Serif" font-size="10.00">+ DoF</text>
<text text-anchor="start" x="190" y="-971" font-family="Helvetica,sans-Serif" font-size="10.00">+ num_parameters</text>
<text text-anchor="start" x="190" y="-960" font-family="Helvetica,sans-Serif" font-size="10.00">+ N</text>
<text text-anchor="start" x="190" y="-949" font-family="Helvetica,sans-Serif" font-size="10.00"># quaternion_</text>
<polyline fill="none" stroke="black" points="182,-942 296,-942 "/>
<text text-anchor="start" x="190" y="-930" font-family="Helvetica,sans-Serif" font-size="10.00">+ RxSO3Group()</text>
<text text-anchor="start" x="190" y="-919" font-family="Helvetica,sans-Serif" font-size="10.00">+ RxSO3Group()</text>
<text text-anchor="start" x="190" y="-908" font-family="Helvetica,sans-Serif" font-size="10.00">+ RxSO3Group()</text>
<text text-anchor="start" x="190" y="-897" font-family="Helvetica,sans-Serif" font-size="10.00">+ RxSO3Group()</text>
<text text-anchor="start" x="190" y="-886" font-family="Helvetica,sans-Serif" font-size="10.00">+ RxSO3Group()</text>
<text text-anchor="start" x="190" y="-875" font-family="Helvetica,sans-Serif" font-size="10.00">+ RxSO3Group()</text>
<text text-anchor="start" x="190" y="-864" font-family="Helvetica,sans-Serif" font-size="10.00">+ quaternion()</text>
<text text-anchor="start" x="190" y="-853" font-family="Helvetica,sans-Serif" font-size="10.00">+ quaternion()</text>
</a>
</g>
</g>
<!-- Node5&#45;&gt;Node3 -->
<g id="edge6" class="edge"><title>Node5&#45;&gt;Node3</title>
<path fill="none" stroke="#404040" d="M201.537,-845.694C189.197,-816.607 175.283,-783.811 162.204,-752.981"/>
<polygon fill="none" stroke="#404040" points="162.114,-752.77 156.089,-748.808 157.428,-741.723 163.453,-745.684 162.114,-752.77"/>
<text text-anchor="middle" x="188" y="-763.5" font-family="Helvetica,sans-Serif" font-size="10.00"> #rxso3_</text>
</g>
<!-- Node6 -->
<g id="node6" class="node"><title>Node6</title>
<g id="a_node6"><a xlink:href="../../d7/dde/classSophus_1_1RxSO3GroupBase.html" target="_top" xlink:title="{Sophus::RxSO3GroupBase\l\&lt; RxSO3Group\&lt; Scalar, 0 \&gt; \&gt;\n|+ DoF\l+ num_parameters\l+ N\l|+ Adj()\l+ cast()\l+ data()\l+ data()\l+ fastMultiply()\l+ inverse()\l+ log()\l+ matrix()\l+ operator=()\l+ operator*()\land 9 more...\l+ log()\l+ d_lieBracketab_by_d_a()\l+ exp()\l+ expAndTheta()\l+ generator()\l+ hat()\l+ lieBracket()\l+ logAndTheta()\l+ vee()\l}">
<polygon fill="white" stroke="black" points="164,-1118.5 164,-1417.5 314,-1417.5 314,-1118.5 164,-1118.5"/>
<text text-anchor="start" x="172" y="-1405.5" font-family="Helvetica,sans-Serif" font-size="10.00">Sophus::RxSO3GroupBase</text>
<text text-anchor="middle" x="239" y="-1394.5" font-family="Helvetica,sans-Serif" font-size="10.00">&lt; RxSO3Group&lt; Scalar, 0 &gt; &gt;</text>
<polyline fill="none" stroke="black" points="164,-1387.5 314,-1387.5 "/>
<text text-anchor="start" x="172" y="-1375.5" font-family="Helvetica,sans-Serif" font-size="10.00">+ DoF</text>
<text text-anchor="start" x="172" y="-1364.5" font-family="Helvetica,sans-Serif" font-size="10.00">+ num_parameters</text>
<text text-anchor="start" x="172" y="-1353.5" font-family="Helvetica,sans-Serif" font-size="10.00">+ N</text>
<polyline fill="none" stroke="black" points="164,-1346.5 314,-1346.5 "/>
<text text-anchor="start" x="172" y="-1334.5" font-family="Helvetica,sans-Serif" font-size="10.00">+ Adj()</text>
<text text-anchor="start" x="172" y="-1323.5" font-family="Helvetica,sans-Serif" font-size="10.00">+ cast()</text>
<text text-anchor="start" x="172" y="-1312.5" font-family="Helvetica,sans-Serif" font-size="10.00">+ data()</text>
<text text-anchor="start" x="172" y="-1301.5" font-family="Helvetica,sans-Serif" font-size="10.00">+ data()</text>
<text text-anchor="start" x="172" y="-1290.5" font-family="Helvetica,sans-Serif" font-size="10.00">+ fastMultiply()</text>
<text text-anchor="start" x="172" y="-1279.5" font-family="Helvetica,sans-Serif" font-size="10.00">+ inverse()</text>
<text text-anchor="start" x="172" y="-1268.5" font-family="Helvetica,sans-Serif" font-size="10.00">+ log()</text>
<text text-anchor="start" x="172" y="-1257.5" font-family="Helvetica,sans-Serif" font-size="10.00">+ matrix()</text>
<text text-anchor="start" x="172" y="-1246.5" font-family="Helvetica,sans-Serif" font-size="10.00">+ operator=()</text>
<text text-anchor="start" x="172" y="-1235.5" font-family="Helvetica,sans-Serif" font-size="10.00">+ operator*()</text>
<text text-anchor="start" x="172" y="-1224.5" font-family="Helvetica,sans-Serif" font-size="10.00">and 9 more...</text>
<text text-anchor="start" x="172" y="-1213.5" font-family="Helvetica,sans-Serif" font-size="10.00">+ log()</text>
<text text-anchor="start" x="172" y="-1202.5" font-family="Helvetica,sans-Serif" font-size="10.00">+ d_lieBracketab_by_d_a()</text>
<text text-anchor="start" x="172" y="-1191.5" font-family="Helvetica,sans-Serif" font-size="10.00">+ exp()</text>
<text text-anchor="start" x="172" y="-1180.5" font-family="Helvetica,sans-Serif" font-size="10.00">+ expAndTheta()</text>
<text text-anchor="start" x="172" y="-1169.5" font-family="Helvetica,sans-Serif" font-size="10.00">+ generator()</text>
<text text-anchor="start" x="172" y="-1158.5" font-family="Helvetica,sans-Serif" font-size="10.00">+ hat()</text>
<text text-anchor="start" x="172" y="-1147.5" font-family="Helvetica,sans-Serif" font-size="10.00">+ lieBracket()</text>
<text text-anchor="start" x="172" y="-1136.5" font-family="Helvetica,sans-Serif" font-size="10.00">+ logAndTheta()</text>
<text text-anchor="start" x="172" y="-1125.5" font-family="Helvetica,sans-Serif" font-size="10.00">+ vee()</text>
</a>
</g>
</g>
<!-- Node6&#45;&gt;Node5 -->
<g id="edge7" class="edge"><title>Node6&#45;&gt;Node5</title>
<path fill="none" stroke="midnightblue" d="M239,-1108.25C239,-1079.39 239,-1050.25 239,-1024.36"/>
<polygon fill="none" stroke="midnightblue" points="235.5,-1108.44 239,-1118.44 242.5,-1108.44 235.5,-1108.44"/>
</g>
<!-- Node7 -->
<g id="node7" class="node"><title>Node7</title>
<g id="a_node7"><a xlink:href="../../d6/d1f/classlsd__slam_1_1VertexSim3.html" target="_top" xlink:title="{lsd_slam::VertexSim3\n|+ EIGEN_MAKE_ALIGNED\l_OPERATOR_NEW\l+ _fix_scale\l|+ VertexSim3()\l+ read()\l+ write()\l+ setToOriginImpl()\l+ oplusImpl()\l}">
<polygon fill="white" stroke="black" points="288,-271.5 288,-394.5 428,-394.5 428,-271.5 288,-271.5"/>
<text text-anchor="middle" x="358" y="-382.5" font-family="Helvetica,sans-Serif" font-size="10.00">lsd_slam::VertexSim3</text>
<polyline fill="none" stroke="black" points="288,-375.5 428,-375.5 "/>
<text text-anchor="start" x="296" y="-363.5" font-family="Helvetica,sans-Serif" font-size="10.00">+ EIGEN_MAKE_ALIGNED</text>
<text text-anchor="start" x="296" y="-352.5" font-family="Helvetica,sans-Serif" font-size="10.00">_OPERATOR_NEW</text>
<text text-anchor="start" x="296" y="-341.5" font-family="Helvetica,sans-Serif" font-size="10.00">+ _fix_scale</text>
<polyline fill="none" stroke="black" points="288,-334.5 428,-334.5 "/>
<text text-anchor="start" x="296" y="-322.5" font-family="Helvetica,sans-Serif" font-size="10.00">+ VertexSim3()</text>
<text text-anchor="start" x="296" y="-311.5" font-family="Helvetica,sans-Serif" font-size="10.00">+ read()</text>
<text text-anchor="start" x="296" y="-300.5" font-family="Helvetica,sans-Serif" font-size="10.00">+ write()</text>
<text text-anchor="start" x="296" y="-289.5" font-family="Helvetica,sans-Serif" font-size="10.00">+ setToOriginImpl()</text>
<text text-anchor="start" x="296" y="-278.5" font-family="Helvetica,sans-Serif" font-size="10.00">+ oplusImpl()</text>
</a>
</g>
</g>
<!-- Node7&#45;&gt;Node2 -->
<g id="edge8" class="edge"><title>Node7&#45;&gt;Node2</title>
<path fill="none" stroke="#404040" d="M324.897,-271.422C310.403,-246.636 292.496,-218.166 274,-194 263.951,-180.871 252.661,-167.582 241.195,-154.868"/>
<polygon fill="none" stroke="#404040" points="240.929,-154.578 233.928,-152.85 232.83,-145.723 239.831,-147.451 240.929,-154.578"/>
<text text-anchor="middle" x="289" y="-167.5" font-family="Helvetica,sans-Serif" font-size="10.00"> +graphVertex</text>
</g>
<!-- Node8 -->
<g id="node8" class="node"><title>Node8</title>
<polygon fill="white" stroke="#bfbfbf" points="304.5,-602 304.5,-670 411.5,-670 411.5,-602 304.5,-602"/>
<text text-anchor="start" x="312.5" y="-658" font-family="Helvetica,sans-Serif" font-size="10.00">g2o::BaseVertex&lt; 7,</text>
<text text-anchor="middle" x="358" y="-647" font-family="Helvetica,sans-Serif" font-size="10.00"> Sophus::Sim3d &gt;</text>
<polyline fill="none" stroke="#bfbfbf" points="304.5,-640 411.5,-640 "/>
<text text-anchor="middle" x="358" y="-628" font-family="Helvetica,sans-Serif" font-size="10.00"> </text>
<polyline fill="none" stroke="#bfbfbf" points="304.5,-621 411.5,-621 "/>
<text text-anchor="middle" x="358" y="-609" font-family="Helvetica,sans-Serif" font-size="10.00"> </text>
</g>
<!-- Node8&#45;&gt;Node7 -->
<g id="edge9" class="edge"><title>Node8&#45;&gt;Node7</title>
<path fill="none" stroke="midnightblue" d="M358,-591.757C358,-540.029 358,-453.108 358,-394.676"/>
<polygon fill="none" stroke="midnightblue" points="354.5,-591.927 358,-601.927 361.5,-591.927 354.5,-591.927"/>
</g>
</g>
</svg>
        <g id="navigator" transform="translate(0 0)" fill="#404254">
                <rect fill="#f2f5e9" fill-opacity="0.5" stroke="#606060" stroke-width=".5" x="0" y="0" width="60" height="60"/>
                <use id="zoomplus" xlink:href="#zoomPlus" x="17" y="9" onmousedown="handleZoom(evt,'in')"/>
                <use id="zoomminus" xlink:href="#zoomMin" x="42" y="9" onmousedown="handleZoom(evt,'out')"/>
                <use id="reset" xlink:href="#resetDef" x="30" y="36" onmousedown="handleReset()"/>
                <g id="arrowUp" xlink:href="#dirArrow" transform="translate(30 24)" onmousedown="handlePan(0,-1)">
                  <use xlink:href="#rim" fill="#404040">
                        <set attributeName="fill" to="#808080" begin="arrowUp.mouseover" end="arrowUp.mouseout"/>
                  </use>
                  <path fill="none" stroke="white" stroke-width="1.5" d="M0,-3.0v7 M-2.5,-0.5L0,-3.0L2.5,-0.5"/>
                </g>
                <g id="arrowRight" xlink:href="#dirArrow" transform="rotate(90) translate(36 -43)" onmousedown="handlePan(1,0)">
                  <use xlink:href="#rim" fill="#404040">
                        <set attributeName="fill" to="#808080" begin="arrowRight.mouseover" end="arrowRight.mouseout"/>
                  </use>
                  <path fill="none" stroke="white" stroke-width="1.5" d="M0,-3.0v7 M-2.5,-0.5L0,-3.0L2.5,-0.5"/>
                </g>
                <g id="arrowDown" xlink:href="#dirArrow" transform="rotate(180) translate(-30 -48)" onmousedown="handlePan(0,1)">
                  <use xlink:href="#rim" fill="#404040">
                        <set attributeName="fill" to="#808080" begin="arrowDown.mouseover" end="arrowDown.mouseout"/>
                  </use>
                  <path fill="none" stroke="white" stroke-width="1.5" d="M0,-3.0v7 M-2.5,-0.5L0,-3.0L2.5,-0.5"/>
                </g>
                <g id="arrowLeft" xlink:href="#dirArrow" transform="rotate(270) translate(-36 17)" onmousedown="handlePan(-1,0)">
                  <use xlink:href="#rim" fill="#404040">
                        <set attributeName="fill" to="#808080" begin="arrowLeft.mouseover" end="arrowLeft.mouseout"/>
                  </use>
                  <path fill="none" stroke="white" stroke-width="1.5" d="M0,-3.0v7 M-2.5,-0.5L0,-3.0L2.5,-0.5"/>
                </g>
        </g>
        <svg viewBox="0 0 15 15" width="100%" height="30px" preserveAspectRatio="xMaxYMin meet">
         <g id="arrow_out" transform="scale(0.3 0.3)">
          <a xlink:href="classlsd__slam_1_1Frame__coll__graph_org.svg" target="_base">
           <rect id="button" ry="5" rx="5" y="6" x="6" height="38" width="38"
                fill="#f2f5e9" fill-opacity="0.5" stroke="#606060" stroke-width="1.0"/>
           <path id="arrow"
             d="M 11.500037,31.436501 C 11.940474,20.09759 22.043105,11.32322 32.158766,21.979434 L 37.068811,17.246167 C 37.068811,17.246167 37.088388,32 37.088388,32 L 22.160133,31.978069 C 22.160133,31.978069 26.997745,27.140456 26.997745,27.140456 C 18.528582,18.264221 13.291696,25.230495 11.500037,31.436501 z"
             style="fill:#404040;"/>
          </a>
         </g>
        </svg>
</svg>
