<?xml version="1.0" encoding="UTF-8" standalone="no"?>
<!DOCTYPE svg PUBLIC "-//W3C//DTD SVG 1.1//EN"
 "http://www.w3.org/Graphics/SVG/1.1/DTD/svg11.dtd">
<!-- Generated by graphviz version 2.36.0 (20140111.2315)
 -->
<!-- Title: src/DataStructures Pages: 1 -->
<svg width="265pt" height="260pt"
 viewBox="0.00 0.00 265.12 260.00" xmlns="http://www.w3.org/2000/svg" xmlns:xlink="http://www.w3.org/1999/xlink">
<g id="graph0" class="graph" transform="scale(1 1) rotate(0) translate(4 256)">
<title>src/DataStructures</title>
<polygon fill="white" stroke="none" points="-4,4 -4,-256 261.118,-256 261.118,4 -4,4"/>
<g id="clust1" class="cluster"><title>clusterdir_ab5d75ad8c66551d10c4965d9af7e3ec</title>
<g id="a_clust1"><a xlink:href="dir_ab5d75ad8c66551d10c4965d9af7e3ec.html" target="_top" xlink:title="src">
<polygon fill="#ddddee" stroke="black" points="8,-136 8,-207 108,-207 108,-136 8,-136"/>
<text text-anchor="middle" x="58" y="-195" font-family="Helvetica,sans-Serif" font-size="10.00">src</text>
</a>
</g>
</g>
<!-- dir_1fe0d3d7756bf8082d7d7d98c210802f -->
<g id="node1" class="node"><title>dir_1fe0d3d7756bf8082d7d7d98c210802f</title>
<g id="a_node1"><a xlink:href="dir_1fe0d3d7756bf8082d7d7d98c210802f.html" target="_top" xlink:title="DataStructures">
<polygon fill="#eeeeff" stroke="black" points="99.25,-180 16.75,-180 16.75,-144 99.25,-144 99.25,-180"/>
<text text-anchor="middle" x="58" y="-159.5" font-family="Helvetica,sans-Serif" font-size="10.00">DataStructures</text>
</a>
</g>
</g>
<!-- dir_34bcbc45e305e89c33b8e97dd88c544b -->
<g id="node2" class="node"><title>dir_34bcbc45e305e89c33b8e97dd88c544b</title>
<g id="a_node2"><a xlink:href="dir_34bcbc45e305e89c33b8e97dd88c544b.html" target="_top" xlink:title="util">
<polygon fill="none" stroke="black" points="174,-36 120,-36 120,-0 174,-0 174,-36"/>
<text text-anchor="middle" x="147" y="-15.5" font-family="Helvetica,sans-Serif" font-size="10.00">util</text>
</a>
</g>
</g>
<!-- dir_1fe0d3d7756bf8082d7d7d98c210802f&#45;&gt;dir_34bcbc45e305e89c33b8e97dd88c544b -->
<g id="edge1" class="edge"><title>dir_1fe0d3d7756bf8082d7d7d98c210802f&#45;&gt;dir_34bcbc45e305e89c33b8e97dd88c544b</title>
<path fill="none" stroke="black" d="M58.4305,-143.949C59.6403,-125 63.8485,-94.155 78,-72 86.3904,-58.8644 99.2273,-47.7071 111.563,-39.0675"/>
<polygon fill="black" stroke="black" points="113.564,-41.9401 119.962,-33.4951 109.694,-36.1071 113.564,-41.9401"/>
<g id="a_edge1&#45;headlabel"><a xlink:href="dir_000012_000024.html" target="_top" xlink:title="3">
<text text-anchor="middle" x="112.139" y="-43.7932" font-family="Helvetica,sans-Serif" font-size="10.00">3</text>
</a>
</g>
</g>
<!-- dir_9d3713884cd15a71aa79ab8693b359da -->
<g id="node3" class="node"><title>dir_9d3713884cd15a71aa79ab8693b359da</title>
<g id="a_node3"><a xlink:href="dir_9d3713884cd15a71aa79ab8693b359da.html" target="_top" xlink:title="DepthEstimation">
<polygon fill="none" stroke="black" points="206.25,-252 117.75,-252 117.75,-216 206.25,-216 206.25,-252"/>
<text text-anchor="middle" x="162" y="-231.5" font-family="Helvetica,sans-Serif" font-size="10.00">DepthEstimation</text>
</a>
</g>
</g>
<!-- dir_1fe0d3d7756bf8082d7d7d98c210802f&#45;&gt;dir_9d3713884cd15a71aa79ab8693b359da -->
<g id="edge2" class="edge"><title>dir_1fe0d3d7756bf8082d7d7d98c210802f&#45;&gt;dir_9d3713884cd15a71aa79ab8693b359da</title>
<path fill="none" stroke="black" d="M70.0489,-180.163C79.5193,-188.677 92.5991,-198.854 105,-207 106.899,-208.247 108.862,-209.489 110.87,-210.715"/>
<polygon fill="black" stroke="black" points="109.483,-213.957 119.886,-215.96 113.003,-207.906 109.483,-213.957"/>
<g id="a_edge2&#45;headlabel"><a xlink:href="dir_000012_000013.html" target="_top" xlink:title="1">
<text text-anchor="middle" x="104.948" y="-212.103" font-family="Helvetica,sans-Serif" font-size="10.00">1</text>
</a>
</g>
</g>
<!-- dir_db2588f7d7371108dad9c5300c0d0c3e -->
<g id="node4" class="node"><title>dir_db2588f7d7371108dad9c5300c0d0c3e</title>
<g id="a_node4"><a xlink:href="dir_db2588f7d7371108dad9c5300c0d0c3e.html" target="_top" xlink:title="Tracking">
<polygon fill="none" stroke="black" points="174,-108 120,-108 120,-72 174,-72 174,-108"/>
<text text-anchor="middle" x="147" y="-87.5" font-family="Helvetica,sans-Serif" font-size="10.00">Tracking</text>
</a>
</g>
</g>
<!-- dir_1fe0d3d7756bf8082d7d7d98c210802f&#45;&gt;dir_db2588f7d7371108dad9c5300c0d0c3e -->
<g id="edge3" class="edge"><title>dir_1fe0d3d7756bf8082d7d7d98c210802f&#45;&gt;dir_db2588f7d7371108dad9c5300c0d0c3e</title>
<path fill="none" stroke="black" d="M74.0843,-143.697C84.5603,-134.73 98.4795,-123.659 111.395,-113.984"/>
<polygon fill="black" stroke="black" points="113.722,-116.616 119.691,-107.863 109.566,-110.983 113.722,-116.616"/>
<g id="a_edge3&#45;headlabel"><a xlink:href="dir_000012_000023.html" target="_top" xlink:title="1">
<text text-anchor="middle" x="112.515" y="-118.535" font-family="Helvetica,sans-Serif" font-size="10.00">1</text>
</a>
</g>
</g>
<!-- dir_19ea50756aacddc563e0f838ca8e5131 -->
<g id="node5" class="node"><title>dir_19ea50756aacddc563e0f838ca8e5131</title>
<g id="a_node5"><a xlink:href="dir_19ea50756aacddc563e0f838ca8e5131.html" target="_top" xlink:title="GlobalMapping">
<polygon fill="none" stroke="black" points="237.25,-180 156.75,-180 156.75,-144 237.25,-144 237.25,-180"/>
<text text-anchor="middle" x="197" y="-159.5" font-family="Helvetica,sans-Serif" font-size="10.00">GlobalMapping</text>
</a>
</g>
</g>
<!-- dir_1fe0d3d7756bf8082d7d7d98c210802f&#45;&gt;dir_19ea50756aacddc563e0f838ca8e5131 -->
<g id="edge4" class="edge"><title>dir_1fe0d3d7756bf8082d7d7d98c210802f&#45;&gt;dir_19ea50756aacddc563e0f838ca8e5131</title>
<path fill="none" stroke="black" d="M99.2656,-162C114.924,-162 130.583,-162 146.242,-162"/>
<polygon fill="black" stroke="black" points="146.532,-165.5 156.532,-162 146.532,-158.5 146.532,-165.5"/>
<g id="a_edge4&#45;headlabel"><a xlink:href="dir_000012_000014.html" target="_top" xlink:title="1">
<text text-anchor="middle" x="142.937" y="-165.839" font-family="Helvetica,sans-Serif" font-size="10.00">1</text>
</a>
</g>
</g>
<!-- dir_34bcbc45e305e89c33b8e97dd88c544b&#45;&gt;dir_1fe0d3d7756bf8082d7d7d98c210802f -->
<g id="edge5" class="edge"><title>dir_34bcbc45e305e89c33b8e97dd88c544b&#45;&gt;dir_1fe0d3d7756bf8082d7d7d98c210802f</title>
<path fill="none" stroke="black" d="M135.065,-36.0138C127.927,-46.3249 118.765,-59.8016 111,-72 97.6774,-92.9283 83.3226,-117.146 72.9169,-135.03"/>
<polygon fill="black" stroke="black" points="69.8471,-133.347 67.8617,-143.754 75.9037,-136.857 69.8471,-133.347"/>
<g id="a_edge5&#45;headlabel"><a xlink:href="dir_000024_000012.html" target="_top" xlink:title="1">
<text text-anchor="middle" x="69.1926" y="-126.313" font-family="Helvetica,sans-Serif" font-size="10.00">1</text>
</a>
</g>
</g>
<!-- dir_9d3713884cd15a71aa79ab8693b359da&#45;&gt;dir_1fe0d3d7756bf8082d7d7d98c210802f -->
<g id="edge6" class="edge"><title>dir_9d3713884cd15a71aa79ab8693b359da&#45;&gt;dir_1fe0d3d7756bf8082d7d7d98c210802f</title>
<path fill="none" stroke="black" d="M137.666,-215.96C132.742,-213.106 127.674,-210.07 123,-207 113.506,-200.763 103.613,-193.336 94.4154,-186.376"/>
<polygon fill="black" stroke="black" points="96.2831,-183.4 86.195,-180.163 92.0624,-188.985 96.2831,-183.4"/>
<g id="a_edge6&#45;headlabel"><a xlink:href="dir_000013_000012.html" target="_top" xlink:title="2">
<text text-anchor="middle" x="100.863" y="-180.803" font-family="Helvetica,sans-Serif" font-size="10.00">2</text>
</a>
</g>
</g>
<!-- dir_9d3713884cd15a71aa79ab8693b359da&#45;&gt;dir_34bcbc45e305e89c33b8e97dd88c544b -->
<g id="edge7" class="edge"><title>dir_9d3713884cd15a71aa79ab8693b359da&#45;&gt;dir_34bcbc45e305e89c33b8e97dd88c544b</title>
<path fill="none" stroke="black" d="M206.589,-229.7C221.547,-226.206 236.76,-219.533 246,-207 264.726,-181.601 255.36,-166.135 246,-136 234.107,-97.7078 201.912,-63.9562 177.437,-42.6677"/>
<polygon fill="black" stroke="black" points="179.693,-39.9912 169.798,-36.2038 175.171,-45.335 179.693,-39.9912"/>
<g id="a_edge7&#45;headlabel"><a xlink:href="dir_000013_000024.html" target="_top" xlink:title="8">
<text text-anchor="middle" x="184.271" y="-37.6455" font-family="Helvetica,sans-Serif" font-size="10.00">8</text>
</a>
</g>
</g>
<!-- dir_9d3713884cd15a71aa79ab8693b359da&#45;&gt;dir_19ea50756aacddc563e0f838ca8e5131 -->
<g id="edge8" class="edge"><title>dir_9d3713884cd15a71aa79ab8693b359da&#45;&gt;dir_19ea50756aacddc563e0f838ca8e5131</title>
<path fill="none" stroke="black" d="M170.652,-215.697C174.636,-207.728 179.45,-198.1 183.868,-189.264"/>
<polygon fill="black" stroke="black" points="187.106,-190.614 188.448,-180.104 180.845,-187.483 187.106,-190.614"/>
<g id="a_edge8&#45;headlabel"><a xlink:href="dir_000013_000014.html" target="_top" xlink:title="2">
<text text-anchor="middle" x="188.038" y="-192.599" font-family="Helvetica,sans-Serif" font-size="10.00">2</text>
</a>
</g>
</g>
<!-- dir_db2588f7d7371108dad9c5300c0d0c3e&#45;&gt;dir_1fe0d3d7756bf8082d7d7d98c210802f -->
<g id="edge9" class="edge"><title>dir_db2588f7d7371108dad9c5300c0d0c3e&#45;&gt;dir_1fe0d3d7756bf8082d7d7d98c210802f</title>
<path fill="none" stroke="black" d="M131.148,-108.104C120.801,-116.974 107.028,-127.941 94.1801,-137.585"/>
<polygon fill="black" stroke="black" points="91.8752,-134.937 85.9157,-143.697 96.0372,-140.565 91.8752,-134.937"/>
<g id="a_edge9&#45;headlabel"><a xlink:href="dir_000023_000012.html" target="_top" xlink:title="4">
<text text-anchor="middle" x="93.0772" y="-128.017" font-family="Helvetica,sans-Serif" font-size="10.00">4</text>
</a>
</g>
</g>
<!-- dir_db2588f7d7371108dad9c5300c0d0c3e&#45;&gt;dir_34bcbc45e305e89c33b8e97dd88c544b -->
<g id="edge10" class="edge"><title>dir_db2588f7d7371108dad9c5300c0d0c3e&#45;&gt;dir_34bcbc45e305e89c33b8e97dd88c544b</title>
<path fill="none" stroke="black" d="M147,-71.6966C147,-63.9827 147,-54.7125 147,-46.1124"/>
<polygon fill="black" stroke="black" points="150.5,-46.1043 147,-36.1043 143.5,-46.1044 150.5,-46.1043"/>
<g id="a_edge10&#45;headlabel"><a xlink:href="dir_000023_000024.html" target="_top" xlink:title="15">
<text text-anchor="middle" x="153.339" y="-47.199" font-family="Helvetica,sans-Serif" font-size="10.00">15</text>
</a>
</g>
</g>
<!-- dir_db2588f7d7371108dad9c5300c0d0c3e&#45;&gt;dir_9d3713884cd15a71aa79ab8693b359da -->
<g id="edge11" class="edge"><title>dir_db2588f7d7371108dad9c5300c0d0c3e&#45;&gt;dir_9d3713884cd15a71aa79ab8693b359da</title>
<path fill="none" stroke="black" d="M144.262,-108.266C141.462,-129.499 138.392,-166.711 147.894,-206.137"/>
<polygon fill="black" stroke="black" points="144.547,-207.168 150.508,-215.927 151.31,-205.362 144.547,-207.168"/>
<g id="a_edge11&#45;headlabel"><a xlink:href="dir_000023_000013.html" target="_top" xlink:title="1">
<text text-anchor="middle" x="140.876" y="-201.928" font-family="Helvetica,sans-Serif" font-size="10.00">1</text>
</a>
</g>
</g>
<!-- dir_db2588f7d7371108dad9c5300c0d0c3e&#45;&gt;dir_19ea50756aacddc563e0f838ca8e5131 -->
<g id="edge12" class="edge"><title>dir_db2588f7d7371108dad9c5300c0d0c3e&#45;&gt;dir_19ea50756aacddc563e0f838ca8e5131</title>
<path fill="none" stroke="black" d="M165.112,-108.104C171.755,-116.214 179.016,-126.076 185.029,-135.078"/>
<polygon fill="black" stroke="black" points="182.211,-137.169 190.556,-143.697 188.103,-133.39 182.211,-137.169"/>
<g id="a_edge12&#45;headlabel"><a xlink:href="dir_000023_000014.html" target="_top" xlink:title="1">
<text text-anchor="middle" x="177.881" y="-133.176" font-family="Helvetica,sans-Serif" font-size="10.00">1</text>
</a>
</g>
</g>
<!-- dir_19ea50756aacddc563e0f838ca8e5131&#45;&gt;dir_1fe0d3d7756bf8082d7d7d98c210802f -->
<g id="edge13" class="edge"><title>dir_19ea50756aacddc563e0f838ca8e5131&#45;&gt;dir_1fe0d3d7756bf8082d7d7d98c210802f</title>
<path fill="none" stroke="black" d="M156.532,-162C140.873,-162 125.214,-162 109.556,-162"/>
<polygon fill="black" stroke="black" points="109.266,-158.5 99.2656,-162 109.266,-165.5 109.266,-158.5"/>
<g id="a_edge13&#45;headlabel"><a xlink:href="dir_000014_000012.html" target="_top" xlink:title="2">
<text text-anchor="middle" x="112.86" y="-153.161" font-family="Helvetica,sans-Serif" font-size="10.00">2</text>
</a>
</g>
</g>
<!-- dir_19ea50756aacddc563e0f838ca8e5131&#45;&gt;dir_34bcbc45e305e89c33b8e97dd88c544b -->
<g id="edge14" class="edge"><title>dir_19ea50756aacddc563e0f838ca8e5131&#45;&gt;dir_34bcbc45e305e89c33b8e97dd88c544b</title>
<path fill="none" stroke="black" d="M196.509,-143.685C195.484,-125.309 192.37,-95.7112 183,-72 179.177,-62.326 173.343,-52.6473 167.478,-44.2584"/>
<polygon fill="black" stroke="black" points="170.179,-42.0232 161.437,-36.0373 164.538,-46.1682 170.179,-42.0232"/>
<g id="a_edge14&#45;headlabel"><a xlink:href="dir_000014_000024.html" target="_top" xlink:title="6">
<text text-anchor="middle" x="174.595" y="-40.7387" font-family="Helvetica,sans-Serif" font-size="10.00">6</text>
</a>
</g>
</g>
<!-- dir_19ea50756aacddc563e0f838ca8e5131&#45;&gt;dir_db2588f7d7371108dad9c5300c0d0c3e -->
<g id="edge15" class="edge"><title>dir_19ea50756aacddc563e0f838ca8e5131&#45;&gt;dir_db2588f7d7371108dad9c5300c0d0c3e</title>
<path fill="none" stroke="black" d="M178.725,-143.697C172.073,-135.559 164.817,-125.689 158.824,-116.701"/>
<polygon fill="black" stroke="black" points="161.661,-114.64 153.322,-108.104 155.765,-118.414 161.661,-114.64"/>
<g id="a_edge15&#45;headlabel"><a xlink:href="dir_000014_000023.html" target="_top" xlink:title="1">
<text text-anchor="middle" x="165.99" y="-113.637" font-family="Helvetica,sans-Serif" font-size="10.00">1</text>
</a>
</g>
</g>
</g>
</svg>
