<?xml version="1.0" encoding="UTF-8" standalone="no"?>
<!DOCTYPE svg PUBLIC "-//W3C//DTD SVG 1.1//EN"
 "http://www.w3.org/Graphics/SVG/1.1/DTD/svg11.dtd">
<!-- Generated by graphviz version 2.36.0 (20140111.2315)
 -->
<!-- Title: src/DepthEstimation Pages: 1 -->
<svg width="220pt" height="295pt"
 viewBox="0.00 0.00 220.00 295.00" xmlns="http://www.w3.org/2000/svg" xmlns:xlink="http://www.w3.org/1999/xlink">
<g id="graph0" class="graph" transform="scale(1 1) rotate(0) translate(4 291)">
<title>src/DepthEstimation</title>
<polygon fill="white" stroke="none" points="-4,4 -4,-291 216,-291 216,4 -4,4"/>
<g id="clust1" class="cluster"><title>clusterdir_ab5d75ad8c66551d10c4965d9af7e3ec</title>
<g id="a_clust1"><a xlink:href="dir_ab5d75ad8c66551d10c4965d9af7e3ec.html" target="_top" xlink:title="src">
<polygon fill="#ddddee" stroke="black" points="8,-208 8,-279 112,-279 112,-208 8,-208"/>
<text text-anchor="middle" x="60" y="-267" font-family="Helvetica,sans-Serif" font-size="10.00">src</text>
</a>
</g>
</g>
<!-- dir_9d3713884cd15a71aa79ab8693b359da -->
<g id="node1" class="node"><title>dir_9d3713884cd15a71aa79ab8693b359da</title>
<g id="a_node1"><a xlink:href="dir_9d3713884cd15a71aa79ab8693b359da.html" target="_top" xlink:title="DepthEstimation">
<polygon fill="#eeeeff" stroke="black" points="104.25,-252 15.75,-252 15.75,-216 104.25,-216 104.25,-252"/>
<text text-anchor="middle" x="60" y="-231.5" font-family="Helvetica,sans-Serif" font-size="10.00">DepthEstimation</text>
</a>
</g>
</g>
<!-- dir_1fe0d3d7756bf8082d7d7d98c210802f -->
<g id="node2" class="node"><title>dir_1fe0d3d7756bf8082d7d7d98c210802f</title>
<g id="a_node2"><a xlink:href="dir_1fe0d3d7756bf8082d7d7d98c210802f.html" target="_top" xlink:title="DataStructures">
<polygon fill="none" stroke="black" points="211.25,-252 128.75,-252 128.75,-216 211.25,-216 211.25,-252"/>
<text text-anchor="middle" x="170" y="-231.5" font-family="Helvetica,sans-Serif" font-size="10.00">DataStructures</text>
</a>
</g>
</g>
<!-- dir_9d3713884cd15a71aa79ab8693b359da&#45;&gt;dir_1fe0d3d7756bf8082d7d7d98c210802f -->
<g id="edge6" class="edge"><title>dir_9d3713884cd15a71aa79ab8693b359da&#45;&gt;dir_1fe0d3d7756bf8082d7d7d98c210802f</title>
<path fill="none" stroke="black" d="M104.258,-234C108.959,-234 113.661,-234 118.362,-234"/>
<polygon fill="black" stroke="black" points="118.654,-237.5 128.654,-234 118.654,-230.5 118.654,-237.5"/>
<g id="a_edge6&#45;headlabel"><a xlink:href="dir_000013_000012.html" target="_top" xlink:title="2">
<text text-anchor="middle" x="115.06" y="-237.839" font-family="Helvetica,sans-Serif" font-size="10.00">2</text>
</a>
</g>
</g>
<!-- dir_34bcbc45e305e89c33b8e97dd88c544b -->
<g id="node3" class="node"><title>dir_34bcbc45e305e89c33b8e97dd88c544b</title>
<g id="a_node3"><a xlink:href="dir_34bcbc45e305e89c33b8e97dd88c544b.html" target="_top" xlink:title="util">
<polygon fill="none" stroke="black" points="142,-180 88,-180 88,-144 142,-144 142,-180"/>
<text text-anchor="middle" x="115" y="-159.5" font-family="Helvetica,sans-Serif" font-size="10.00">util</text>
</a>
</g>
</g>
<!-- dir_9d3713884cd15a71aa79ab8693b359da&#45;&gt;dir_34bcbc45e305e89c33b8e97dd88c544b -->
<g id="edge7" class="edge"><title>dir_9d3713884cd15a71aa79ab8693b359da&#45;&gt;dir_34bcbc45e305e89c33b8e97dd88c544b</title>
<path fill="none" stroke="black" d="M73.5955,-215.697C80.1227,-207.389 88.068,-197.277 95.2466,-188.141"/>
<polygon fill="black" stroke="black" points="98.1347,-190.13 101.561,-180.104 92.6305,-185.805 98.1347,-190.13"/>
<g id="a_edge7&#45;headlabel"><a xlink:href="dir_000013_000024.html" target="_top" xlink:title="8">
<text text-anchor="middle" x="98.1465" y="-192.211" font-family="Helvetica,sans-Serif" font-size="10.00">8</text>
</a>
</g>
</g>
<!-- dir_289bbddd08fbc437f0d31835729d536b -->
<g id="node4" class="node"><title>dir_289bbddd08fbc437f0d31835729d536b</title>
<g id="a_node4"><a xlink:href="dir_289bbddd08fbc437f0d31835729d536b.html" target="_top" xlink:title="IOWrapper">
<polygon fill="white" stroke="red" points="166,-108 102,-108 102,-72 166,-72 166,-108"/>
<text text-anchor="middle" x="134" y="-87.5" font-family="Helvetica,sans-Serif" font-size="10.00">IOWrapper</text>
</a>
</g>
</g>
<!-- dir_9d3713884cd15a71aa79ab8693b359da&#45;&gt;dir_289bbddd08fbc437f0d31835729d536b -->
<g id="edge8" class="edge"><title>dir_9d3713884cd15a71aa79ab8693b359da&#45;&gt;dir_289bbddd08fbc437f0d31835729d536b</title>
<path fill="none" stroke="black" d="M60.6962,-215.896C62.1059,-197.174 66.3391,-166.788 79,-144 84.9772,-133.242 93.8497,-123.318 102.732,-115.037"/>
<polygon fill="black" stroke="black" points="105.291,-117.447 110.469,-108.204 100.657,-112.201 105.291,-117.447"/>
<g id="a_edge8&#45;headlabel"><a xlink:href="dir_000013_000018.html" target="_top" xlink:title="1">
<text text-anchor="middle" x="104.476" y="-119.455" font-family="Helvetica,sans-Serif" font-size="10.00">1</text>
</a>
</g>
</g>
<!-- dir_19ea50756aacddc563e0f838ca8e5131 -->
<g id="node5" class="node"><title>dir_19ea50756aacddc563e0f838ca8e5131</title>
<g id="a_node5"><a xlink:href="dir_19ea50756aacddc563e0f838ca8e5131.html" target="_top" xlink:title="GlobalMapping">
<polygon fill="none" stroke="black" points="174.25,-36 93.75,-36 93.75,-0 174.25,-0 174.25,-36"/>
<text text-anchor="middle" x="134" y="-15.5" font-family="Helvetica,sans-Serif" font-size="10.00">GlobalMapping</text>
</a>
</g>
</g>
<!-- dir_9d3713884cd15a71aa79ab8693b359da&#45;&gt;dir_19ea50756aacddc563e0f838ca8e5131 -->
<g id="edge9" class="edge"><title>dir_9d3713884cd15a71aa79ab8693b359da&#45;&gt;dir_19ea50756aacddc563e0f838ca8e5131</title>
<path fill="none" stroke="black" d="M59.1255,-215.784C58.547,-197.743 58.5722,-168.651 63,-144 68.9633,-110.8 70.1342,-101.212 87,-72 92.8379,-61.8887 100.81,-51.9878 108.53,-43.532"/>
<polygon fill="black" stroke="black" points="111.135,-45.8709 115.481,-36.2081 106.058,-41.0522 111.135,-45.8709"/>
<g id="a_edge9&#45;headlabel"><a xlink:href="dir_000013_000014.html" target="_top" xlink:title="2">
<text text-anchor="middle" x="110.72" y="-47.9327" font-family="Helvetica,sans-Serif" font-size="10.00">2</text>
</a>
</g>
</g>
<!-- dir_1fe0d3d7756bf8082d7d7d98c210802f&#45;&gt;dir_9d3713884cd15a71aa79ab8693b359da -->
<g id="edge2" class="edge"><title>dir_1fe0d3d7756bf8082d7d7d98c210802f&#45;&gt;dir_9d3713884cd15a71aa79ab8693b359da</title>
<path fill="none" stroke="black" d="M128.654,-234C123.953,-234 119.252,-234 114.55,-234"/>
<polygon fill="black" stroke="black" points="114.258,-230.5 104.258,-234 114.258,-237.5 114.258,-230.5"/>
<g id="a_edge2&#45;headlabel"><a xlink:href="dir_000012_000013.html" target="_top" xlink:title="1">
<text text-anchor="middle" x="117.852" y="-225.161" font-family="Helvetica,sans-Serif" font-size="10.00">1</text>
</a>
</g>
</g>
<!-- dir_1fe0d3d7756bf8082d7d7d98c210802f&#45;&gt;dir_34bcbc45e305e89c33b8e97dd88c544b -->
<g id="edge1" class="edge"><title>dir_1fe0d3d7756bf8082d7d7d98c210802f&#45;&gt;dir_34bcbc45e305e89c33b8e97dd88c544b</title>
<path fill="none" stroke="black" d="M150.489,-215.697C143.18,-207.474 135.129,-197.483 128.453,-188.421"/>
<polygon fill="black" stroke="black" points="131.189,-186.229 122.544,-180.104 125.483,-190.283 131.189,-186.229"/>
<g id="a_edge1&#45;headlabel"><a xlink:href="dir_000012_000024.html" target="_top" xlink:title="3">
<text text-anchor="middle" x="135.586" y="-185.014" font-family="Helvetica,sans-Serif" font-size="10.00">3</text>
</a>
</g>
</g>
<!-- dir_1fe0d3d7756bf8082d7d7d98c210802f&#45;&gt;dir_19ea50756aacddc563e0f838ca8e5131 -->
<g id="edge3" class="edge"><title>dir_1fe0d3d7756bf8082d7d7d98c210802f&#45;&gt;dir_19ea50756aacddc563e0f838ca8e5131</title>
<path fill="none" stroke="black" d="M168.981,-215.966C172.219,-185.934 183.087,-122.015 166,-72 162.595,-62.0321 156.469,-52.4851 150.372,-44.3081"/>
<polygon fill="black" stroke="black" points="153.053,-42.0551 144.143,-36.3227 147.533,-46.3604 153.053,-42.0551"/>
<g id="a_edge3&#45;headlabel"><a xlink:href="dir_000012_000014.html" target="_top" xlink:title="1">
<text text-anchor="middle" x="157.503" y="-40.6433" font-family="Helvetica,sans-Serif" font-size="10.00">1</text>
</a>
</g>
</g>
<!-- dir_34bcbc45e305e89c33b8e97dd88c544b&#45;&gt;dir_1fe0d3d7756bf8082d7d7d98c210802f -->
<g id="edge4" class="edge"><title>dir_34bcbc45e305e89c33b8e97dd88c544b&#45;&gt;dir_1fe0d3d7756bf8082d7d7d98c210802f</title>
<path fill="none" stroke="black" d="M134.334,-180.104C141.631,-188.298 149.687,-198.282 156.385,-207.359"/>
<polygon fill="black" stroke="black" points="153.669,-209.58 162.32,-215.697 159.372,-205.52 153.669,-209.58"/>
<g id="a_edge4&#45;headlabel"><a xlink:href="dir_000024_000012.html" target="_top" xlink:title="1">
<text text-anchor="middle" x="149.271" y="-205.799" font-family="Helvetica,sans-Serif" font-size="10.00">1</text>
</a>
</g>
</g>
<!-- dir_34bcbc45e305e89c33b8e97dd88c544b&#45;&gt;dir_289bbddd08fbc437f0d31835729d536b -->
<g id="edge5" class="edge"><title>dir_34bcbc45e305e89c33b8e97dd88c544b&#45;&gt;dir_289bbddd08fbc437f0d31835729d536b</title>
<path fill="none" stroke="black" d="M113.781,-143.697C115.093,-135.898 117.419,-126.509 120.134,-117.829"/>
<polygon fill="black" stroke="black" points="123.536,-118.699 123.462,-108.104 116.913,-116.432 123.536,-118.699"/>
<g id="a_edge5&#45;headlabel"><a xlink:href="dir_000024_000018.html" target="_top" xlink:title="1">
<text text-anchor="middle" x="125.058" y="-120.519" font-family="Helvetica,sans-Serif" font-size="10.00">1</text>
</a>
</g>
</g>
<!-- dir_289bbddd08fbc437f0d31835729d536b&#45;&gt;dir_1fe0d3d7756bf8082d7d7d98c210802f -->
<g id="edge10" class="edge"><title>dir_289bbddd08fbc437f0d31835729d536b&#45;&gt;dir_1fe0d3d7756bf8082d7d7d98c210802f</title>
<path fill="none" stroke="black" d="M139.951,-108.057C143.433,-118.384 147.766,-131.861 151,-144 156.456,-164.482 161.412,-187.938 164.893,-205.627"/>
<polygon fill="black" stroke="black" points="161.528,-206.663 166.861,-215.817 168.401,-205.335 161.528,-206.663"/>
<g id="a_edge10&#45;headlabel"><a xlink:href="dir_000018_000012.html" target="_top" xlink:title="1">
<text text-anchor="middle" x="158.059" y="-201.172" font-family="Helvetica,sans-Serif" font-size="10.00">1</text>
</a>
</g>
</g>
<!-- dir_289bbddd08fbc437f0d31835729d536b&#45;&gt;dir_34bcbc45e305e89c33b8e97dd88c544b -->
<g id="edge11" class="edge"><title>dir_289bbddd08fbc437f0d31835729d536b&#45;&gt;dir_34bcbc45e305e89c33b8e97dd88c544b</title>
<path fill="none" stroke="black" d="M135.252,-108.104C133.943,-115.96 131.593,-125.462 128.847,-134.232"/>
<polygon fill="black" stroke="black" points="125.534,-133.102 125.612,-143.697 132.158,-135.366 125.534,-133.102"/>
<g id="a_edge11&#45;headlabel"><a xlink:href="dir_000018_000024.html" target="_top" xlink:title="6">
<text text-anchor="middle" x="124.01" y="-126.282" font-family="Helvetica,sans-Serif" font-size="10.00">6</text>
</a>
</g>
</g>
<!-- dir_289bbddd08fbc437f0d31835729d536b&#45;&gt;dir_19ea50756aacddc563e0f838ca8e5131 -->
<g id="edge12" class="edge"><title>dir_289bbddd08fbc437f0d31835729d536b&#45;&gt;dir_19ea50756aacddc563e0f838ca8e5131</title>
<path fill="none" stroke="black" d="M128.084,-71.6966C127.289,-63.9827 127.062,-54.7125 127.405,-46.1124"/>
<polygon fill="black" stroke="black" points="130.898,-46.3243 128.105,-36.1043 123.915,-45.8356 130.898,-46.3243"/>
<g id="a_edge12&#45;headlabel"><a xlink:href="dir_000018_000014.html" target="_top" xlink:title="2">
<text text-anchor="middle" x="133.48" y="-47.6083" font-family="Helvetica,sans-Serif" font-size="10.00">2</text>
</a>
</g>
</g>
<!-- dir_19ea50756aacddc563e0f838ca8e5131&#45;&gt;dir_1fe0d3d7756bf8082d7d7d98c210802f -->
<g id="edge13" class="edge"><title>dir_19ea50756aacddc563e0f838ca8e5131&#45;&gt;dir_1fe0d3d7756bf8082d7d7d98c210802f</title>
<path fill="none" stroke="black" d="M160.195,-36.3227C169.885,-45.9032 179.412,-58.5696 184,-72 199.419,-117.131 192.075,-173.583 182.793,-206.243"/>
<polygon fill="black" stroke="black" points="179.397,-205.377 179.738,-215.966 186.075,-207.475 179.397,-205.377"/>
<g id="a_edge13&#45;headlabel"><a xlink:href="dir_000014_000012.html" target="_top" xlink:title="2">
<text text-anchor="middle" x="177.765" y="-198.596" font-family="Helvetica,sans-Serif" font-size="10.00">2</text>
</a>
</g>
</g>
<!-- dir_19ea50756aacddc563e0f838ca8e5131&#45;&gt;dir_34bcbc45e305e89c33b8e97dd88c544b -->
<g id="edge14" class="edge"><title>dir_19ea50756aacddc563e0f838ca8e5131&#45;&gt;dir_34bcbc45e305e89c33b8e97dd88c544b</title>
<path fill="none" stroke="black" d="M115.831,-36.3227C107.115,-45.9032 97.5884,-58.5696 93,-72 85.9664,-92.5875 92.7157,-116.563 100.535,-134.439"/>
<polygon fill="black" stroke="black" points="97.4675,-136.14 104.908,-143.683 103.795,-133.147 97.4675,-136.14"/>
<g id="a_edge14&#45;headlabel"><a xlink:href="dir_000014_000024.html" target="_top" xlink:title="6">
<text text-anchor="middle" x="93.3637" y="-131.605" font-family="Helvetica,sans-Serif" font-size="10.00">6</text>
</a>
</g>
</g>
<!-- dir_19ea50756aacddc563e0f838ca8e5131&#45;&gt;dir_289bbddd08fbc437f0d31835729d536b -->
<g id="edge15" class="edge"><title>dir_19ea50756aacddc563e0f838ca8e5131&#45;&gt;dir_289bbddd08fbc437f0d31835729d536b</title>
<path fill="none" stroke="black" d="M139.895,-36.1043C140.701,-43.7913 140.937,-53.0537 140.604,-61.6651"/>
<polygon fill="black" stroke="black" points="137.109,-61.4805 139.916,-71.6966 144.092,-61.9597 137.109,-61.4805"/>
<g id="a_edge15&#45;headlabel"><a xlink:href="dir_000014_000018.html" target="_top" xlink:title="1">
<text text-anchor="middle" x="134.522" y="-55.2" font-family="Helvetica,sans-Serif" font-size="10.00">1</text>
</a>
</g>
</g>
</g>
</svg>
