<?xml version="1.0" encoding="UTF-8" standalone="no"?>
<!DOCTYPE svg PUBLIC "-//W3C//DTD SVG 1.1//EN"
 "http://www.w3.org/Graphics/SVG/1.1/DTD/svg11.dtd">
<!-- Generated by graphviz version 2.36.0 (20140111.2315)
 -->
<!-- Title: src/GlobalMapping Pages: 1 -->
<svg width="254pt" height="260pt"
 viewBox="0.00 0.00 253.65 260.00" xmlns="http://www.w3.org/2000/svg" xmlns:xlink="http://www.w3.org/1999/xlink">
<g id="graph0" class="graph" transform="scale(1 1) rotate(0) translate(4 256)">
<title>src/GlobalMapping</title>
<polygon fill="white" stroke="none" points="-4,4 -4,-256 249.65,-256 249.65,4 -4,4"/>
<g id="clust1" class="cluster"><title>clusterdir_ab5d75ad8c66551d10c4965d9af7e3ec</title>
<g id="a_clust1"><a xlink:href="dir_ab5d75ad8c66551d10c4965d9af7e3ec.html" target="_top" xlink:title="src">
<polygon fill="#ddddee" stroke="black" points="8,-136 8,-207 106,-207 106,-136 8,-136"/>
<text text-anchor="middle" x="57" y="-195" font-family="Helvetica,sans-Serif" font-size="10.00">src</text>
</a>
</g>
</g>
<!-- dir_19ea50756aacddc563e0f838ca8e5131 -->
<g id="node1" class="node"><title>dir_19ea50756aacddc563e0f838ca8e5131</title>
<g id="a_node1"><a xlink:href="dir_19ea50756aacddc563e0f838ca8e5131.html" target="_top" xlink:title="GlobalMapping">
<polygon fill="#eeeeff" stroke="black" points="97.25,-180 16.75,-180 16.75,-144 97.25,-144 97.25,-180"/>
<text text-anchor="middle" x="57" y="-159.5" font-family="Helvetica,sans-Serif" font-size="10.00">GlobalMapping</text>
</a>
</g>
</g>
<!-- dir_1fe0d3d7756bf8082d7d7d98c210802f -->
<g id="node2" class="node"><title>dir_1fe0d3d7756bf8082d7d7d98c210802f</title>
<g id="a_node2"><a xlink:href="dir_1fe0d3d7756bf8082d7d7d98c210802f.html" target="_top" xlink:title="DataStructures">
<polygon fill="none" stroke="black" points="208.25,-252 125.75,-252 125.75,-216 208.25,-216 208.25,-252"/>
<text text-anchor="middle" x="167" y="-231.5" font-family="Helvetica,sans-Serif" font-size="10.00">DataStructures</text>
</a>
</g>
</g>
<!-- dir_19ea50756aacddc563e0f838ca8e5131&#45;&gt;dir_1fe0d3d7756bf8082d7d7d98c210802f -->
<g id="edge12" class="edge"><title>dir_19ea50756aacddc563e0f838ca8e5131&#45;&gt;dir_1fe0d3d7756bf8082d7d7d98c210802f</title>
<path fill="none" stroke="black" d="M68.005,-180.051C77.2615,-188.735 90.3458,-199.099 103,-207 107.258,-209.659 111.831,-212.227 116.513,-214.646"/>
<polygon fill="black" stroke="black" points="115.076,-217.839 125.596,-219.099 118.158,-211.554 115.076,-217.839"/>
<g id="a_edge12&#45;headlabel"><a xlink:href="dir_000014_000012.html" target="_top" xlink:title="2">
<text text-anchor="middle" x="110.599" y="-216.306" font-family="Helvetica,sans-Serif" font-size="10.00">2</text>
</a>
</g>
</g>
<!-- dir_34bcbc45e305e89c33b8e97dd88c544b -->
<g id="node3" class="node"><title>dir_34bcbc45e305e89c33b8e97dd88c544b</title>
<g id="a_node3"><a xlink:href="dir_34bcbc45e305e89c33b8e97dd88c544b.html" target="_top" xlink:title="util">
<polygon fill="none" stroke="black" points="162,-108 108,-108 108,-72 162,-72 162,-108"/>
<text text-anchor="middle" x="135" y="-87.5" font-family="Helvetica,sans-Serif" font-size="10.00">util</text>
</a>
</g>
</g>
<!-- dir_19ea50756aacddc563e0f838ca8e5131&#45;&gt;dir_34bcbc45e305e89c33b8e97dd88c544b -->
<g id="edge13" class="edge"><title>dir_19ea50756aacddc563e0f838ca8e5131&#45;&gt;dir_34bcbc45e305e89c33b8e97dd88c544b</title>
<path fill="none" stroke="black" d="M76.2809,-143.697C85.9154,-135.05 97.7288,-124.449 108.227,-115.027"/>
<polygon fill="black" stroke="black" points="110.836,-117.388 115.941,-108.104 106.161,-112.179 110.836,-117.388"/>
<g id="a_edge13&#45;headlabel"><a xlink:href="dir_000014_000024.html" target="_top" xlink:title="6">
<text text-anchor="middle" x="110.057" y="-119.402" font-family="Helvetica,sans-Serif" font-size="10.00">6</text>
</a>
</g>
</g>
<!-- dir_289bbddd08fbc437f0d31835729d536b -->
<g id="node4" class="node"><title>dir_289bbddd08fbc437f0d31835729d536b</title>
<g id="a_node4"><a xlink:href="dir_289bbddd08fbc437f0d31835729d536b.html" target="_top" xlink:title="IOWrapper">
<polygon fill="white" stroke="red" points="167,-36 103,-36 103,-0 167,-0 167,-36"/>
<text text-anchor="middle" x="135" y="-15.5" font-family="Helvetica,sans-Serif" font-size="10.00">IOWrapper</text>
</a>
</g>
</g>
<!-- dir_19ea50756aacddc563e0f838ca8e5131&#45;&gt;dir_289bbddd08fbc437f0d31835729d536b -->
<g id="edge14" class="edge"><title>dir_19ea50756aacddc563e0f838ca8e5131&#45;&gt;dir_289bbddd08fbc437f0d31835729d536b</title>
<path fill="none" stroke="black" d="M64.1343,-143.872C71.9399,-125.653 85.1914,-96.1849 99,-72 104.24,-62.8233 110.548,-53.1588 116.41,-44.6322"/>
<polygon fill="black" stroke="black" points="119.427,-46.4261 122.295,-36.2267 113.692,-42.4116 119.427,-46.4261"/>
<g id="a_edge14&#45;headlabel"><a xlink:href="dir_000014_000018.html" target="_top" xlink:title="1">
<text text-anchor="middle" x="119.691" y="-48.4991" font-family="Helvetica,sans-Serif" font-size="10.00">1</text>
</a>
</g>
</g>
<!-- dir_db2588f7d7371108dad9c5300c0d0c3e -->
<g id="node5" class="node"><title>dir_db2588f7d7371108dad9c5300c0d0c3e</title>
<g id="a_node5"><a xlink:href="dir_db2588f7d7371108dad9c5300c0d0c3e.html" target="_top" xlink:title="Tracking">
<polygon fill="none" stroke="black" points="226,-180 172,-180 172,-144 226,-144 226,-180"/>
<text text-anchor="middle" x="199" y="-159.5" font-family="Helvetica,sans-Serif" font-size="10.00">Tracking</text>
</a>
</g>
</g>
<!-- dir_19ea50756aacddc563e0f838ca8e5131&#45;&gt;dir_db2588f7d7371108dad9c5300c0d0c3e -->
<g id="edge15" class="edge"><title>dir_19ea50756aacddc563e0f838ca8e5131&#45;&gt;dir_db2588f7d7371108dad9c5300c0d0c3e</title>
<path fill="none" stroke="black" d="M97.4922,-162C118.829,-162 140.166,-162 161.503,-162"/>
<polygon fill="black" stroke="black" points="161.641,-165.5 171.64,-162 161.64,-158.5 161.641,-165.5"/>
<g id="a_edge15&#45;headlabel"><a xlink:href="dir_000014_000023.html" target="_top" xlink:title="1">
<text text-anchor="middle" x="158.046" y="-165.839" font-family="Helvetica,sans-Serif" font-size="10.00">1</text>
</a>
</g>
</g>
<!-- dir_1fe0d3d7756bf8082d7d7d98c210802f&#45;&gt;dir_19ea50756aacddc563e0f838ca8e5131 -->
<g id="edge3" class="edge"><title>dir_1fe0d3d7756bf8082d7d7d98c210802f&#45;&gt;dir_19ea50756aacddc563e0f838ca8e5131</title>
<path fill="none" stroke="black" d="M136.836,-215.924C131.471,-213.139 126.017,-210.133 121,-207 111.312,-200.951 101.371,-193.458 92.2151,-186.381"/>
<polygon fill="black" stroke="black" points="94.1033,-183.416 84.0568,-180.051 89.8124,-188.946 94.1033,-183.416"/>
<g id="a_edge3&#45;headlabel"><a xlink:href="dir_000012_000014.html" target="_top" xlink:title="1">
<text text-anchor="middle" x="98.6838" y="-180.876" font-family="Helvetica,sans-Serif" font-size="10.00">1</text>
</a>
</g>
</g>
<!-- dir_1fe0d3d7756bf8082d7d7d98c210802f&#45;&gt;dir_34bcbc45e305e89c33b8e97dd88c544b -->
<g id="edge1" class="edge"><title>dir_1fe0d3d7756bf8082d7d7d98c210802f&#45;&gt;dir_34bcbc45e305e89c33b8e97dd88c544b</title>
<path fill="none" stroke="black" d="M158.556,-215.871C150.543,-191.67 140.233,-147.211 135.714,-118.393"/>
<polygon fill="black" stroke="black" points="139.138,-117.606 134.283,-108.189 132.206,-118.579 139.138,-117.606"/>
<g id="a_edge1&#45;headlabel"><a xlink:href="dir_000012_000024.html" target="_top" xlink:title="3">
<text text-anchor="middle" x="142.449" y="-118.271" font-family="Helvetica,sans-Serif" font-size="10.00">3</text>
</a>
</g>
</g>
<!-- dir_1fe0d3d7756bf8082d7d7d98c210802f&#45;&gt;dir_db2588f7d7371108dad9c5300c0d0c3e -->
<g id="edge2" class="edge"><title>dir_1fe0d3d7756bf8082d7d7d98c210802f&#45;&gt;dir_db2588f7d7371108dad9c5300c0d0c3e</title>
<path fill="none" stroke="black" d="M168.994,-215.697C171.845,-207.644 176.091,-197.894 180.576,-188.982"/>
<polygon fill="black" stroke="black" points="183.691,-190.578 185.286,-180.104 177.507,-187.298 183.691,-190.578"/>
<g id="a_edge2&#45;headlabel"><a xlink:href="dir_000012_000023.html" target="_top" xlink:title="1">
<text text-anchor="middle" x="184.514" y="-192.584" font-family="Helvetica,sans-Serif" font-size="10.00">1</text>
</a>
</g>
</g>
<!-- dir_34bcbc45e305e89c33b8e97dd88c544b&#45;&gt;dir_1fe0d3d7756bf8082d7d7d98c210802f -->
<g id="edge4" class="edge"><title>dir_34bcbc45e305e89c33b8e97dd88c544b&#45;&gt;dir_1fe0d3d7756bf8082d7d7d98c210802f</title>
<path fill="none" stroke="black" d="M143.465,-108.189C151.481,-132.424 161.788,-176.888 166.297,-205.679"/>
<polygon fill="black" stroke="black" points="162.871,-206.454 167.725,-215.871 169.804,-205.483 162.871,-206.454"/>
<g id="a_edge4&#45;headlabel"><a xlink:href="dir_000024_000012.html" target="_top" xlink:title="1">
<text text-anchor="middle" x="159.561" y="-200.787" font-family="Helvetica,sans-Serif" font-size="10.00">1</text>
</a>
</g>
</g>
<!-- dir_34bcbc45e305e89c33b8e97dd88c544b&#45;&gt;dir_289bbddd08fbc437f0d31835729d536b -->
<g id="edge5" class="edge"><title>dir_34bcbc45e305e89c33b8e97dd88c544b&#45;&gt;dir_289bbddd08fbc437f0d31835729d536b</title>
<path fill="none" stroke="black" d="M129.084,-71.6966C128.289,-63.9827 128.062,-54.7125 128.405,-46.1124"/>
<polygon fill="black" stroke="black" points="131.898,-46.3243 129.105,-36.1043 124.915,-45.8356 131.898,-46.3243"/>
<g id="a_edge5&#45;headlabel"><a xlink:href="dir_000024_000018.html" target="_top" xlink:title="1">
<text text-anchor="middle" x="134.48" y="-47.6083" font-family="Helvetica,sans-Serif" font-size="10.00">1</text>
</a>
</g>
</g>
<!-- dir_289bbddd08fbc437f0d31835729d536b&#45;&gt;dir_1fe0d3d7756bf8082d7d7d98c210802f -->
<g id="edge6" class="edge"><title>dir_289bbddd08fbc437f0d31835729d536b&#45;&gt;dir_1fe0d3d7756bf8082d7d7d98c210802f</title>
<path fill="none" stroke="black" d="M158.223,-36.088C183.561,-56.4818 222.224,-93.2443 235,-136 244.035,-166.235 252.89,-181.006 235,-207 230.665,-213.299 224.581,-218.073 217.817,-221.691"/>
<polygon fill="black" stroke="black" points="215.982,-218.676 208.272,-225.942 218.831,-225.07 215.982,-218.676"/>
<g id="a_edge6&#45;headlabel"><a xlink:href="dir_000018_000012.html" target="_top" xlink:title="1">
<text text-anchor="middle" x="218.111" y="-212.12" font-family="Helvetica,sans-Serif" font-size="10.00">1</text>
</a>
</g>
</g>
<!-- dir_289bbddd08fbc437f0d31835729d536b&#45;&gt;dir_34bcbc45e305e89c33b8e97dd88c544b -->
<g id="edge7" class="edge"><title>dir_289bbddd08fbc437f0d31835729d536b&#45;&gt;dir_34bcbc45e305e89c33b8e97dd88c544b</title>
<path fill="none" stroke="black" d="M140.895,-36.1043C141.701,-43.7913 141.937,-53.0537 141.604,-61.6651"/>
<polygon fill="black" stroke="black" points="138.109,-61.4805 140.916,-71.6966 145.092,-61.9597 138.109,-61.4805"/>
<g id="a_edge7&#45;headlabel"><a xlink:href="dir_000018_000024.html" target="_top" xlink:title="6">
<text text-anchor="middle" x="135.522" y="-55.2" font-family="Helvetica,sans-Serif" font-size="10.00">6</text>
</a>
</g>
</g>
<!-- dir_db2588f7d7371108dad9c5300c0d0c3e&#45;&gt;dir_19ea50756aacddc563e0f838ca8e5131 -->
<g id="edge11" class="edge"><title>dir_db2588f7d7371108dad9c5300c0d0c3e&#45;&gt;dir_19ea50756aacddc563e0f838ca8e5131</title>
<path fill="none" stroke="black" d="M171.64,-162C150.304,-162 128.967,-162 107.63,-162"/>
<polygon fill="black" stroke="black" points="107.492,-158.5 97.4922,-162 107.492,-165.5 107.492,-158.5"/>
<g id="a_edge11&#45;headlabel"><a xlink:href="dir_000023_000014.html" target="_top" xlink:title="1">
<text text-anchor="middle" x="111.087" y="-153.161" font-family="Helvetica,sans-Serif" font-size="10.00">1</text>
</a>
</g>
</g>
<!-- dir_db2588f7d7371108dad9c5300c0d0c3e&#45;&gt;dir_1fe0d3d7756bf8082d7d7d98c210802f -->
<g id="edge8" class="edge"><title>dir_db2588f7d7371108dad9c5300c0d0c3e&#45;&gt;dir_1fe0d3d7756bf8082d7d7d98c210802f</title>
<path fill="none" stroke="black" d="M197.076,-180.104C194.248,-188.129 190.015,-197.871 185.535,-206.797"/>
<polygon fill="black" stroke="black" points="182.41,-205.221 180.826,-215.697 188.597,-208.495 182.41,-205.221"/>
<g id="a_edge8&#45;headlabel"><a xlink:href="dir_000023_000012.html" target="_top" xlink:title="4">
<text text-anchor="middle" x="181.581" y="-198.216" font-family="Helvetica,sans-Serif" font-size="10.00">4</text>
</a>
</g>
</g>
<!-- dir_db2588f7d7371108dad9c5300c0d0c3e&#45;&gt;dir_34bcbc45e305e89c33b8e97dd88c544b -->
<g id="edge9" class="edge"><title>dir_db2588f7d7371108dad9c5300c0d0c3e&#45;&gt;dir_34bcbc45e305e89c33b8e97dd88c544b</title>
<path fill="none" stroke="black" d="M183.18,-143.697C175.43,-135.22 165.961,-124.864 157.476,-115.583"/>
<polygon fill="black" stroke="black" points="159.969,-113.123 150.638,-108.104 154.803,-117.846 159.969,-113.123"/>
<g id="a_edge9&#45;headlabel"><a xlink:href="dir_000023_000024.html" target="_top" xlink:title="15">
<text text-anchor="middle" x="164.49" y="-111.36" font-family="Helvetica,sans-Serif" font-size="10.00">15</text>
</a>
</g>
</g>
<!-- dir_db2588f7d7371108dad9c5300c0d0c3e&#45;&gt;dir_289bbddd08fbc437f0d31835729d536b -->
<g id="edge10" class="edge"><title>dir_db2588f7d7371108dad9c5300c0d0c3e&#45;&gt;dir_289bbddd08fbc437f0d31835729d536b</title>
<path fill="none" stroke="black" d="M195.153,-143.706C190.708,-125.349 182.502,-95.7659 171,-72 166.469,-62.6368 160.444,-53.0419 154.622,-44.6341"/>
<polygon fill="black" stroke="black" points="157.366,-42.4546 148.699,-36.3613 151.674,-46.5297 157.366,-42.4546"/>
<g id="a_edge10&#45;headlabel"><a xlink:href="dir_000023_000018.html" target="_top" xlink:title="4">
<text text-anchor="middle" x="161.767" y="-41.2245" font-family="Helvetica,sans-Serif" font-size="10.00">4</text>
</a>
</g>
</g>
</g>
</svg>
