<?xml version="1.0" encoding="UTF-8" standalone="no"?>
<!DOCTYPE svg PUBLIC "-//W3C//DTD SVG 1.1//EN"
 "http://www.w3.org/Graphics/SVG/1.1/DTD/svg11.dtd">
<!-- Generated by graphviz version 2.36.0 (20140111.2315)
 -->
<!-- Title: Graphical Class Hierarchy Pages: 1 -->
<svg width="292pt" height="48pt"
 viewBox="0.00 0.00 292.00 48.00" xmlns="http://www.w3.org/2000/svg" xmlns:xlink="http://www.w3.org/1999/xlink">
<g id="graph0" class="graph" transform="scale(1 1) rotate(0) translate(4 44)">
<title>Graphical Class Hierarchy</title>
<polygon fill="white" stroke="none" points="-4,4 -4,-44 288,-44 288,4 -4,4"/>
<!-- Node1 -->
<g id="node1" class="node"><title>Node1</title>
<g id="a_node1"><a xlink:href="d0/d8c/classSophus_1_1SE3GroupBase.html" target="_top" xlink:title="Sophus::SE3GroupBase\l\&lt; Map\&lt; Sophus::SE3Group\l\&lt; _Scalar \&gt;, _Options \&gt; \&gt;">
<polygon fill="white" stroke="black" points="0.5,0.5 0.5,-40.5 137.5,-40.5 137.5,0.5 0.5,0.5"/>
<text text-anchor="start" x="8.5" y="-28.5" font-family="Helvetica,sans-Serif" font-size="10.00">Sophus::SE3GroupBase</text>
<text text-anchor="start" x="8.5" y="-17.5" font-family="Helvetica,sans-Serif" font-size="10.00">&lt; Map&lt; Sophus::SE3Group</text>
<text text-anchor="middle" x="69" y="-6.5" font-family="Helvetica,sans-Serif" font-size="10.00">&lt; _Scalar &gt;, _Options &gt; &gt;</text>
</a>
</g>
</g>
<!-- Node2 -->
<g id="node2" class="node"><title>Node2</title>
<g id="a_node2"><a xlink:href="db/db0/classEigen_1_1Map_3_01Sophus_1_1SE3Group_3_01__Scalar_01_4_00_01__Options_01_4.html" target="_top" xlink:title="Specialisation of Eigen::Map for SE3GroupBase. ">
<polygon fill="white" stroke="black" points="174,0.5 174,-40.5 284,-40.5 284,0.5 174,0.5"/>
<text text-anchor="start" x="182" y="-28.5" font-family="Helvetica,sans-Serif" font-size="10.00">Eigen::Map&lt; Sophus</text>
<text text-anchor="start" x="182" y="-17.5" font-family="Helvetica,sans-Serif" font-size="10.00">::SE3Group&lt; _Scalar</text>
<text text-anchor="middle" x="229" y="-6.5" font-family="Helvetica,sans-Serif" font-size="10.00"> &gt;, _Options &gt;</text>
</a>
</g>
</g>
<!-- Node1&#45;&gt;Node2 -->
<g id="edge1" class="edge"><title>Node1&#45;&gt;Node2</title>
<path fill="none" stroke="midnightblue" d="M148.143,-20C156.876,-20 165.623,-20 173.957,-20"/>
<polygon fill="midnightblue" stroke="midnightblue" points="147.923,-16.5001 137.923,-20 147.923,-23.5001 147.923,-16.5001"/>
</g>
</g>
</svg>
