<?xml version="1.0" encoding="UTF-8" standalone="no"?>
<!DOCTYPE svg PUBLIC "-//W3C//DTD SVG 1.1//EN"
 "http://www.w3.org/Graphics/SVG/1.1/DTD/svg11.dtd">
<!-- Generated by graphviz version 2.36.0 (20140111.2315)
 -->
<!-- Title: Graphical Class Hierarchy Pages: 1 -->
<svg width="512pt" height="87pt"
 viewBox="0.00 0.00 512.00 87.00" xmlns="http://www.w3.org/2000/svg" xmlns:xlink="http://www.w3.org/1999/xlink">
<g id="graph0" class="graph" transform="scale(1 1) rotate(0) translate(4 83)">
<title>Graphical Class Hierarchy</title>
<polygon fill="white" stroke="none" points="-4,4 -4,-83 508,-83 508,4 -4,4"/>
<!-- Node1 -->
<g id="node1" class="node"><title>Node1</title>
<polygon fill="white" stroke="#bfbfbf" points="0.5,-29.5 0.5,-48.5 95.5,-48.5 95.5,-29.5 0.5,-29.5"/>
<text text-anchor="middle" x="48" y="-36.5" font-family="Helvetica,sans-Serif" font-size="10.00">ParamDescription</text>
</g>
<!-- Node2 -->
<g id="node2" class="node"><title>Node2</title>
<g id="a_node2"><a xlink:href="da/da6/classlsd__slam__core_1_1LSDDebugParamsConfig_1_1AbstractParamDescription.html" target="_top" xlink:title="lsd_slam_core::LSDDebugParams\lConfig::AbstractParamDescription">
<polygon fill="white" stroke="black" points="132.5,-49 132.5,-79 299.5,-79 299.5,-49 132.5,-49"/>
<text text-anchor="start" x="140.5" y="-67" font-family="Helvetica,sans-Serif" font-size="10.00">lsd_slam_core::LSDDebugParams</text>
<text text-anchor="middle" x="216" y="-56" font-family="Helvetica,sans-Serif" font-size="10.00">Config::AbstractParamDescription</text>
</a>
</g>
</g>
<!-- Node1&#45;&gt;Node2 -->
<g id="edge1" class="edge"><title>Node1&#45;&gt;Node2</title>
<path fill="none" stroke="midnightblue" d="M105.836,-47.5597C114.35,-48.8419 123.273,-50.1857 132.193,-51.529"/>
<polygon fill="midnightblue" stroke="midnightblue" points="106.092,-44.0588 95.682,-46.0304 105.049,-50.9807 106.092,-44.0588"/>
</g>
<!-- Node4 -->
<g id="node4" class="node"><title>Node4</title>
<g id="a_node4"><a xlink:href="dc/dc1/classlsd__slam__core_1_1LSDParamsConfig_1_1AbstractParamDescription.html" target="_top" xlink:title="lsd_slam_core::LSDParams\lConfig::AbstractParamDescription">
<polygon fill="white" stroke="black" points="133,-0 133,-30 299,-30 299,-0 133,-0"/>
<text text-anchor="start" x="141" y="-18" font-family="Helvetica,sans-Serif" font-size="10.00">lsd_slam_core::LSDParams</text>
<text text-anchor="middle" x="216" y="-7" font-family="Helvetica,sans-Serif" font-size="10.00">Config::AbstractParamDescription</text>
</a>
</g>
</g>
<!-- Node1&#45;&gt;Node4 -->
<g id="edge3" class="edge"><title>Node1&#45;&gt;Node4</title>
<path fill="none" stroke="midnightblue" d="M105.725,-30.7987C114.474,-29.5339 123.656,-28.2063 132.825,-26.8807"/>
<polygon fill="midnightblue" stroke="midnightblue" points="105.078,-27.3558 95.682,-32.2508 106.08,-34.2838 105.078,-27.3558"/>
</g>
<!-- Node3 -->
<g id="node3" class="node"><title>Node3</title>
<g id="a_node3"><a xlink:href="dc/df2/classlsd__slam__core_1_1LSDDebugParamsConfig_1_1ParamDescription.html" target="_top" xlink:title="lsd_slam_core::LSDDebugParams\lConfig::ParamDescription\&lt; T \&gt;">
<polygon fill="white" stroke="black" points="336.5,-49 336.5,-79 503.5,-79 503.5,-49 336.5,-49"/>
<text text-anchor="start" x="344.5" y="-67" font-family="Helvetica,sans-Serif" font-size="10.00">lsd_slam_core::LSDDebugParams</text>
<text text-anchor="middle" x="420" y="-56" font-family="Helvetica,sans-Serif" font-size="10.00">Config::ParamDescription&lt; T &gt;</text>
</a>
</g>
</g>
<!-- Node2&#45;&gt;Node3 -->
<g id="edge2" class="edge"><title>Node2&#45;&gt;Node3</title>
<path fill="none" stroke="midnightblue" d="M310.018,-64C318.815,-64 327.694,-64 336.385,-64"/>
<polygon fill="midnightblue" stroke="midnightblue" points="309.744,-60.5001 299.744,-64 309.744,-67.5001 309.744,-60.5001"/>
</g>
<!-- Node5 -->
<g id="node5" class="node"><title>Node5</title>
<g id="a_node5"><a xlink:href="df/d20/classlsd__slam__core_1_1LSDParamsConfig_1_1ParamDescription.html" target="_top" xlink:title="lsd_slam_core::LSDParams\lConfig::ParamDescription\&lt; T \&gt;">
<polygon fill="white" stroke="black" points="343.5,-0 343.5,-30 496.5,-30 496.5,-0 343.5,-0"/>
<text text-anchor="start" x="351.5" y="-18" font-family="Helvetica,sans-Serif" font-size="10.00">lsd_slam_core::LSDParams</text>
<text text-anchor="middle" x="420" y="-7" font-family="Helvetica,sans-Serif" font-size="10.00">Config::ParamDescription&lt; T &gt;</text>
</a>
</g>
</g>
<!-- Node4&#45;&gt;Node5 -->
<g id="edge4" class="edge"><title>Node4&#45;&gt;Node5</title>
<path fill="none" stroke="midnightblue" d="M309.179,-15C320.64,-15 332.254,-15 343.424,-15"/>
<polygon fill="midnightblue" stroke="midnightblue" points="309.161,-11.5001 299.161,-15 309.161,-18.5001 309.161,-11.5001"/>
</g>
</g>
</svg>
