<?xml version="1.0" encoding="UTF-8" standalone="no"?>
<!DOCTYPE svg PUBLIC "-//W3C//DTD SVG 1.1//EN"
 "http://www.w3.org/Graphics/SVG/1.1/DTD/svg11.dtd">
<!-- Generated by graphviz version 2.36.0 (20140111.2315)
 -->
<!-- Title: Graphical Class Hierarchy Pages: 1 -->
<svg width="296pt" height="48pt"
 viewBox="0.00 0.00 296.00 48.00" xmlns="http://www.w3.org/2000/svg" xmlns:xlink="http://www.w3.org/1999/xlink">
<g id="graph0" class="graph" transform="scale(1 1) rotate(0) translate(4 44)">
<title>Graphical Class Hierarchy</title>
<polygon fill="white" stroke="none" points="-4,4 -4,-44 292,-44 292,4 -4,4"/>
<!-- Node1 -->
<g id="node1" class="node"><title>Node1</title>
<g id="a_node1"><a xlink:href="d7/dde/classSophus_1_1RxSO3GroupBase.html" target="_top" xlink:title="Sophus::RxSO3GroupBase\l\&lt; RxSO3Group\&lt; _Scalar,\l _Options \&gt; \&gt;">
<polygon fill="white" stroke="black" points="0.5,0.5 0.5,-40.5 137.5,-40.5 137.5,0.5 0.5,0.5"/>
<text text-anchor="start" x="8.5" y="-28.5" font-family="Helvetica,sans-Serif" font-size="10.00">Sophus::RxSO3GroupBase</text>
<text text-anchor="start" x="8.5" y="-17.5" font-family="Helvetica,sans-Serif" font-size="10.00">&lt; RxSO3Group&lt; _Scalar,</text>
<text text-anchor="middle" x="69" y="-6.5" font-family="Helvetica,sans-Serif" font-size="10.00"> _Options &gt; &gt;</text>
</a>
</g>
</g>
<!-- Node2 -->
<g id="node2" class="node"><title>Node2</title>
<g id="a_node2"><a xlink:href="d5/d41/classSophus_1_1RxSO3Group.html" target="_top" xlink:title="RxSO3 default type &#45; Constructors and default storage for RxSO3 Type. ">
<polygon fill="white" stroke="black" points="174,-5 174,-35 288,-35 288,-5 174,-5"/>
<text text-anchor="start" x="182" y="-23" font-family="Helvetica,sans-Serif" font-size="10.00">Sophus::RxSO3Group</text>
<text text-anchor="middle" x="231" y="-12" font-family="Helvetica,sans-Serif" font-size="10.00">&lt; _Scalar, _Options &gt;</text>
</a>
</g>
</g>
<!-- Node1&#45;&gt;Node2 -->
<g id="edge1" class="edge"><title>Node1&#45;&gt;Node2</title>
<path fill="none" stroke="midnightblue" d="M147.978,-20C156.636,-20 165.325,-20 173.639,-20"/>
<polygon fill="midnightblue" stroke="midnightblue" points="147.854,-16.5001 137.854,-20 147.854,-23.5001 147.854,-16.5001"/>
</g>
</g>
</svg>
