<?xml version="1.0" encoding="UTF-8" standalone="no"?>
<!DOCTYPE svg PUBLIC "-//W3C//DTD SVG 1.1//EN"
 "http://www.w3.org/Graphics/SVG/1.1/DTD/svg11.dtd">
<!-- Generated by graphviz version 2.36.0 (20140111.2315)
 -->
<!-- Title: adjustedGridWrapper Pages: 1 -->
<svg width="410pt" height="99pt"
 viewBox="0.00 0.00 410.00 98.84" xmlns="http://www.w3.org/2000/svg" xmlns:xlink="http://www.w3.org/1999/xlink">
<g id="graph0" class="graph" transform="scale(1 1) rotate(0) translate(4 94.8397)">
<title>adjustedGridWrapper</title>
<polygon fill="white" stroke="none" points="-4,4 -4,-94.8397 406,-94.8397 406,4 -4,4"/>
<!-- Node1 -->
<g id="node1" class="node"><title>Node1</title>
<polygon fill="#bfbfbf" stroke="black" points="0,-33.3397 0,-52.3397 108,-52.3397 108,-33.3397 0,-33.3397"/>
<text text-anchor="middle" x="54" y="-40.3397" font-family="Helvetica,sans-Serif" font-size="10.00">adjustedGridWrapper</text>
</g>
<!-- Node2 -->
<g id="node2" class="node"><title>Node2</title>
<g id="a_node2"><a xlink:href="../../d3/d3e/classParameterServer.html#a5457f900e543c5a466bf9b65ee6bc577" target="_top" xlink:title="ParameterServer::instance">
<polygon fill="white" stroke="black" points="268.5,-71.3397 268.5,-90.3397 401.5,-90.3397 401.5,-71.3397 268.5,-71.3397"/>
<text text-anchor="middle" x="335" y="-78.3397" font-family="Helvetica,sans-Serif" font-size="10.00">ParameterServer::instance</text>
</a>
</g>
</g>
<!-- Node1&#45;&gt;Node2 -->
<g id="edge1" class="edge"><title>Node1&#45;&gt;Node2</title>
<path fill="none" stroke="midnightblue" d="M71.724,-52.4154C89.13,-61.7867 117.499,-75.419 144,-80.8397 181.061,-88.4206 223.046,-89.2095 258.106,-87.7703"/>
<polygon fill="midnightblue" stroke="midnightblue" points="258.454,-91.2578 268.275,-87.2834 258.119,-84.2658 258.454,-91.2578"/>
</g>
<!-- Node3 -->
<g id="node3" class="node"><title>Node3</title>
<g id="a_node3"><a xlink:href="../../d3/d3e/classParameterServer.html#a3c8af50664e423b555bbb1874f488413" target="_top" xlink:title="ParameterServer::get">
<polygon fill="white" stroke="black" points="280,-14.3397 280,-33.3397 390,-33.3397 390,-14.3397 280,-14.3397"/>
<text text-anchor="middle" x="335" y="-21.3397" font-family="Helvetica,sans-Serif" font-size="10.00">ParameterServer::get</text>
</a>
</g>
</g>
<!-- Node1&#45;&gt;Node3 -->
<g id="edge2" class="edge"><title>Node1&#45;&gt;Node3</title>
<path fill="none" stroke="midnightblue" d="M71.724,-33.2641C89.13,-23.8928 117.499,-10.2605 144,-4.83973 193.342,5.25322 251.035,-3.32473 289.79,-11.9676"/>
<polygon fill="midnightblue" stroke="midnightblue" points="289.173,-15.4176 299.706,-14.2729 290.758,-8.59937 289.173,-15.4176"/>
</g>
<!-- Node4 -->
<g id="node4" class="node"><title>Node4</title>
<g id="a_node4"><a xlink:href="../../d7/d5f/misc_8cpp.html#a8e7a4140590e8656e82d7c4734020815" target="_top" xlink:title="round">
<polygon fill="white" stroke="black" points="167.5,-14.3397 167.5,-33.3397 208.5,-33.3397 208.5,-14.3397 167.5,-14.3397"/>
<text text-anchor="middle" x="188" y="-21.3397" font-family="Helvetica,sans-Serif" font-size="10.00">round</text>
</a>
</g>
</g>
<!-- Node1&#45;&gt;Node4 -->
<g id="edge3" class="edge"><title>Node1&#45;&gt;Node4</title>
<path fill="none" stroke="midnightblue" d="M108.309,-35.1665C124.958,-32.77 142.727,-30.2123 157.16,-28.1349"/>
<polygon fill="midnightblue" stroke="midnightblue" points="158.073,-31.5397 167.472,-26.6506 157.075,-24.6111 158.073,-31.5397"/>
</g>
<!-- Node5 -->
<g id="node5" class="node"><title>Node5</title>
<g id="a_node5"><a xlink:href="../../d9/dcb/features_8cpp.html#a9e68ed636c5cdabac9a4bd5c84bfa836" target="_top" xlink:title="adjusterWrapper">
<polygon fill="white" stroke="black" points="144,-52.3397 144,-71.3397 232,-71.3397 232,-52.3397 144,-52.3397"/>
<text text-anchor="middle" x="188" y="-59.3397" font-family="Helvetica,sans-Serif" font-size="10.00">adjusterWrapper</text>
</a>
</g>
</g>
<!-- Node1&#45;&gt;Node5 -->
<g id="edge4" class="edge"><title>Node1&#45;&gt;Node5</title>
<path fill="none" stroke="midnightblue" d="M108.309,-50.513C116.652,-51.7138 125.275,-52.9551 133.619,-54.1562"/>
<polygon fill="midnightblue" stroke="midnightblue" points="133.224,-57.6353 143.621,-55.5958 134.222,-50.7067 133.224,-57.6353"/>
</g>
<!-- Node5&#45;&gt;Node2 -->
<g id="edge5" class="edge"><title>Node5&#45;&gt;Node2</title>
<path fill="none" stroke="midnightblue" d="M232.112,-67.4889C240.422,-68.5778 249.351,-69.7478 258.346,-70.9264"/>
<polygon fill="midnightblue" stroke="midnightblue" points="258.129,-74.4278 268.499,-72.2568 259.038,-67.4871 258.129,-74.4278"/>
</g>
<!-- Node5&#45;&gt;Node3 -->
<g id="edge6" class="edge"><title>Node5&#45;&gt;Node3</title>
<path fill="none" stroke="midnightblue" d="M225.59,-52.2507C244.465,-47.304 267.686,-41.2186 287.788,-35.9505"/>
<polygon fill="midnightblue" stroke="midnightblue" points="288.887,-39.2806 297.673,-33.3598 287.113,-32.5093 288.887,-39.2806"/>
</g>
</g>
</svg>
