<?xml version="1.0" encoding="UTF-8" standalone="no"?>
<!DOCTYPE svg PUBLIC "-//W3C//DTD SVG 1.1//EN"
 "http://www.w3.org/Graphics/SVG/1.1/DTD/svg11.dtd">
<!-- Generated by graphviz version 2.36.0 (20140111.2315)
 -->
<!-- Title: lsd_slam::LiveSLAMWrapper::logCameraPose Pages: 1 -->
<svg width="340pt" height="77pt"
 viewBox="0.00 0.00 340.00 77.00" xmlns="http://www.w3.org/2000/svg" xmlns:xlink="http://www.w3.org/1999/xlink">
<g id="graph0" class="graph" transform="scale(1 1) rotate(0) translate(4 73)">
<title>lsd_slam::LiveSLAMWrapper::logCameraPose</title>
<polygon fill="white" stroke="none" points="-4,4 -4,-73 336,-73 336,4 -4,4"/>
<!-- Node1 -->
<g id="node1" class="node"><title>Node1</title>
<polygon fill="#bfbfbf" stroke="black" points="0.5,-17 0.5,-47 143.5,-47 143.5,-17 0.5,-17"/>
<text text-anchor="start" x="8.5" y="-35" font-family="Helvetica,sans-Serif" font-size="10.00">lsd_slam::LiveSLAMWrapper</text>
<text text-anchor="middle" x="72" y="-24" font-family="Helvetica,sans-Serif" font-size="10.00">::logCameraPose</text>
</g>
<!-- Node2 -->
<g id="node2" class="node"><title>Node2</title>
<g id="a_node2"><a xlink:href="../../d0/d8c/classSophus_1_1SE3GroupBase.html#a4ca1572cb93cddcc95db981fc1f861b2" target="_top" xlink:title="Accessor of unit quaternion. ">
<polygon fill="white" stroke="black" points="194.5,-39 194.5,-69 317.5,-69 317.5,-39 194.5,-39"/>
<text text-anchor="start" x="202.5" y="-57" font-family="Helvetica,sans-Serif" font-size="10.00">Sophus::SE3GroupBase</text>
<text text-anchor="middle" x="256" y="-46" font-family="Helvetica,sans-Serif" font-size="10.00">::unit_quaternion</text>
</a>
</g>
</g>
<!-- Node1&#45;&gt;Node2 -->
<g id="edge1" class="edge"><title>Node1&#45;&gt;Node2</title>
<path fill="none" stroke="midnightblue" d="M143.626,-40.5373C157.003,-42.1542 170.999,-43.846 184.376,-45.463"/>
<polygon fill="midnightblue" stroke="midnightblue" points="184.116,-48.957 194.464,-46.6824 184.956,-42.0076 184.116,-48.957"/>
</g>
<!-- Node3 -->
<g id="node3" class="node"><title>Node3</title>
<g id="a_node3"><a xlink:href="../../dd/d3d/classSophus_1_1SE3Group.html#a1bfd300de4529a2f6ba0ff5baecea98e" target="_top" xlink:title="Mutator of translation vector. ">
<polygon fill="white" stroke="black" points="180,-0.5 180,-19.5 332,-19.5 332,-0.5 180,-0.5"/>
<text text-anchor="middle" x="256" y="-7.5" font-family="Helvetica,sans-Serif" font-size="10.00">Sophus::SE3Group::translation</text>
</a>
</g>
</g>
<!-- Node1&#45;&gt;Node3 -->
<g id="edge2" class="edge"><title>Node1&#45;&gt;Node3</title>
<path fill="none" stroke="midnightblue" d="M143.626,-23.4627C152.173,-22.4297 160.972,-21.3661 169.7,-20.3109"/>
<polygon fill="midnightblue" stroke="midnightblue" points="170.388,-23.7534 179.896,-19.0785 169.548,-16.804 170.388,-23.7534"/>
</g>
</g>
</svg>
