<?xml version="1.0" encoding="UTF-8" standalone="no"?>
<!DOCTYPE svg PUBLIC "-//W3C//DTD SVG 1.1//EN"
 "http://www.w3.org/Graphics/SVG/1.1/DTD/svg11.dtd">
<!-- Generated by graphviz version 2.36.0 (20140111.2315)
 -->
<!-- Title: lsd_slam::LiveSLAMWrapper::LiveSLAMWrapper Pages: 1 -->
<svg width="346pt" height="338pt"
 viewBox="0.00 0.00 346.00 338.00" xmlns="http://www.w3.org/2000/svg" xmlns:xlink="http://www.w3.org/1999/xlink">
<g id="graph0" class="graph" transform="scale(1 1) rotate(0) translate(4 334)">
<title>lsd_slam::LiveSLAMWrapper::LiveSLAMWrapper</title>
<polygon fill="white" stroke="none" points="-4,4 -4,-334 342,-334 342,4 -4,4"/>
<!-- Node1 -->
<g id="node1" class="node"><title>Node1</title>
<polygon fill="#bfbfbf" stroke="black" points="0.5,-161 0.5,-191 143.5,-191 143.5,-161 0.5,-161"/>
<text text-anchor="start" x="8.5" y="-179" font-family="Helvetica,sans-Serif" font-size="10.00">lsd_slam::LiveSLAMWrapper</text>
<text text-anchor="middle" x="72" y="-168" font-family="Helvetica,sans-Serif" font-size="10.00">::LiveSLAMWrapper</text>
</g>
<!-- Node2 -->
<g id="node2" class="node"><title>Node2</title>
<g id="a_node2"><a xlink:href="../../da/d27/classlsd__slam_1_1InputImageStream.html#ac8212a5168eb9bc3aa04f7bcc6922dfb" target="_top" xlink:title="lsd_slam::InputImageStream\l::getBuffer">
<polygon fill="white" stroke="black" points="188,-300 188,-330 330,-330 330,-300 188,-300"/>
<text text-anchor="start" x="196" y="-318" font-family="Helvetica,sans-Serif" font-size="10.00">lsd_slam::InputImageStream</text>
<text text-anchor="middle" x="259" y="-307" font-family="Helvetica,sans-Serif" font-size="10.00">::getBuffer</text>
</a>
</g>
</g>
<!-- Node1&#45;&gt;Node2 -->
<g id="edge1" class="edge"><title>Node1&#45;&gt;Node2</title>
<path fill="none" stroke="midnightblue" d="M83.3303,-191.252C100.575,-215.584 137.551,-263.172 180,-290 183.193,-292.018 186.563,-293.886 190.039,-295.614"/>
<polygon fill="midnightblue" stroke="midnightblue" points="188.886,-298.934 199.44,-299.867 191.772,-292.556 188.886,-298.934"/>
</g>
<!-- Node3 -->
<g id="node3" class="node"><title>Node3</title>
<g id="a_node3"><a xlink:href="../../da/d27/classlsd__slam_1_1InputImageStream.html#a1198316d84d00116bcbee6358c591493" target="_top" xlink:title="lsd_slam::InputImageStream::fx">
<polygon fill="white" stroke="black" points="181,-261.5 181,-280.5 337,-280.5 337,-261.5 181,-261.5"/>
<text text-anchor="middle" x="259" y="-268.5" font-family="Helvetica,sans-Serif" font-size="10.00">lsd_slam::InputImageStream::fx</text>
</a>
</g>
</g>
<!-- Node1&#45;&gt;Node3 -->
<g id="edge2" class="edge"><title>Node1&#45;&gt;Node3</title>
<path fill="none" stroke="midnightblue" d="M89.8939,-191.132C109.979,-208.34 145.178,-236.103 180,-252 185.361,-254.447 191.079,-256.605 196.889,-258.501"/>
<polygon fill="midnightblue" stroke="midnightblue" points="196.124,-261.925 206.709,-261.45 198.138,-255.221 196.124,-261.925"/>
</g>
<!-- Node4 -->
<g id="node4" class="node"><title>Node4</title>
<g id="a_node4"><a xlink:href="../../da/d27/classlsd__slam_1_1InputImageStream.html#ae8c6946d639eaa11bf228bb62fb0317c" target="_top" xlink:title="lsd_slam::InputImageStream::fy">
<polygon fill="white" stroke="black" points="181,-223.5 181,-242.5 337,-242.5 337,-223.5 181,-223.5"/>
<text text-anchor="middle" x="259" y="-230.5" font-family="Helvetica,sans-Serif" font-size="10.00">lsd_slam::InputImageStream::fy</text>
</a>
</g>
</g>
<!-- Node1&#45;&gt;Node4 -->
<g id="edge3" class="edge"><title>Node1&#45;&gt;Node4</title>
<path fill="none" stroke="midnightblue" d="M112.317,-191.05C132.405,-198.461 157.333,-207.234 180,-214 188.159,-216.436 196.866,-218.791 205.395,-220.965"/>
<polygon fill="midnightblue" stroke="midnightblue" points="204.733,-224.407 215.282,-223.429 206.425,-217.615 204.733,-224.407"/>
</g>
<!-- Node5 -->
<g id="node5" class="node"><title>Node5</title>
<g id="a_node5"><a xlink:href="../../da/d27/classlsd__slam_1_1InputImageStream.html#a56cdd46f70f734b5a3f34344f6f448ba" target="_top" xlink:title="lsd_slam::InputImageStream::cx">
<polygon fill="white" stroke="black" points="180,-185.5 180,-204.5 338,-204.5 338,-185.5 180,-185.5"/>
<text text-anchor="middle" x="259" y="-192.5" font-family="Helvetica,sans-Serif" font-size="10.00">lsd_slam::InputImageStream::cx</text>
</a>
</g>
</g>
<!-- Node1&#45;&gt;Node5 -->
<g id="edge4" class="edge"><title>Node1&#45;&gt;Node5</title>
<path fill="none" stroke="midnightblue" d="M143.732,-183.264C152.237,-184.138 161.002,-185.038 169.717,-185.933"/>
<polygon fill="midnightblue" stroke="midnightblue" points="169.6,-189.439 179.906,-186.98 170.316,-182.476 169.6,-189.439"/>
</g>
<!-- Node6 -->
<g id="node6" class="node"><title>Node6</title>
<g id="a_node6"><a xlink:href="../../da/d27/classlsd__slam_1_1InputImageStream.html#a53b48fb8024b569ba167d886a2b28f3f" target="_top" xlink:title="lsd_slam::InputImageStream::cy">
<polygon fill="white" stroke="black" points="180,-147.5 180,-166.5 338,-166.5 338,-147.5 180,-147.5"/>
<text text-anchor="middle" x="259" y="-154.5" font-family="Helvetica,sans-Serif" font-size="10.00">lsd_slam::InputImageStream::cy</text>
</a>
</g>
</g>
<!-- Node1&#45;&gt;Node6 -->
<g id="edge5" class="edge"><title>Node1&#45;&gt;Node6</title>
<path fill="none" stroke="midnightblue" d="M143.732,-168.736C152.237,-167.862 161.002,-166.962 169.717,-166.067"/>
<polygon fill="midnightblue" stroke="midnightblue" points="170.316,-169.524 179.906,-165.02 169.6,-162.561 170.316,-169.524"/>
</g>
<!-- Node7 -->
<g id="node7" class="node"><title>Node7</title>
<g id="a_node7"><a xlink:href="../../da/d27/classlsd__slam_1_1InputImageStream.html#aae9c5e1689761e9ea6f9f4ce8682e8f1" target="_top" xlink:title="lsd_slam::InputImageStream\l::width">
<polygon fill="white" stroke="black" points="188,-98 188,-128 330,-128 330,-98 188,-98"/>
<text text-anchor="start" x="196" y="-116" font-family="Helvetica,sans-Serif" font-size="10.00">lsd_slam::InputImageStream</text>
<text text-anchor="middle" x="259" y="-105" font-family="Helvetica,sans-Serif" font-size="10.00">::width</text>
</a>
</g>
</g>
<!-- Node1&#45;&gt;Node7 -->
<g id="edge6" class="edge"><title>Node1&#45;&gt;Node7</title>
<path fill="none" stroke="midnightblue" d="M114.308,-160.993C134.128,-153.878 158.242,-145.349 180,-138 186.517,-135.799 193.357,-133.537 200.164,-131.316"/>
<polygon fill="midnightblue" stroke="midnightblue" points="201.64,-134.517 210.073,-128.102 199.481,-127.858 201.64,-134.517"/>
</g>
<!-- Node8 -->
<g id="node8" class="node"><title>Node8</title>
<g id="a_node8"><a xlink:href="../../da/d27/classlsd__slam_1_1InputImageStream.html#ab9a42e4ab63c80b7e0ba629ec689b7fa" target="_top" xlink:title="lsd_slam::InputImageStream\l::height">
<polygon fill="white" stroke="black" points="188,-49 188,-79 330,-79 330,-49 188,-49"/>
<text text-anchor="start" x="196" y="-67" font-family="Helvetica,sans-Serif" font-size="10.00">lsd_slam::InputImageStream</text>
<text text-anchor="middle" x="259" y="-56" font-family="Helvetica,sans-Serif" font-size="10.00">::height</text>
</a>
</g>
</g>
<!-- Node1&#45;&gt;Node8 -->
<g id="edge7" class="edge"><title>Node1&#45;&gt;Node8</title>
<path fill="none" stroke="midnightblue" d="M87.9643,-160.715C107.519,-141.523 143.58,-108.727 180,-89 183.976,-86.8465 188.167,-84.8422 192.46,-82.9834"/>
<polygon fill="midnightblue" stroke="midnightblue" points="194.009,-86.1326 201.972,-79.1449 191.389,-79.6411 194.009,-86.1326"/>
</g>
<!-- Node9 -->
<g id="node9" class="node"><title>Node9</title>
<g id="a_node9"><a xlink:href="../../db/d29/classlsd__slam_1_1SlamSystem.html#a3e42198c83b0bc44bef086dd77647535" target="_top" xlink:title="lsd_slam::SlamSystem\l::setVisualization">
<polygon fill="white" stroke="black" points="200,-0 200,-30 318,-30 318,-0 200,-0"/>
<text text-anchor="start" x="208" y="-18" font-family="Helvetica,sans-Serif" font-size="10.00">lsd_slam::SlamSystem</text>
<text text-anchor="middle" x="259" y="-7" font-family="Helvetica,sans-Serif" font-size="10.00">::setVisualization</text>
</a>
</g>
</g>
<!-- Node1&#45;&gt;Node9 -->
<g id="edge8" class="edge"><title>Node1&#45;&gt;Node9</title>
<path fill="none" stroke="midnightblue" d="M80.8365,-160.921C96.1264,-132.955 132.628,-72.9104 180,-40 183.321,-37.6928 186.867,-35.5896 190.546,-33.6738"/>
<polygon fill="midnightblue" stroke="midnightblue" points="192.343,-36.697 199.916,-29.2874 189.376,-30.3573 192.343,-36.697"/>
</g>
</g>
</svg>
