<?xml version="1.0" encoding="UTF-8" standalone="no"?>
<!DOCTYPE svg PUBLIC "-//W3C//DTD SVG 1.1//EN"
 "http://www.w3.org/Graphics/SVG/1.1/DTD/svg11.dtd">
<!-- Generated by graphviz version 2.36.0 (20140111.2315)
 -->
<!-- Title: src/GlobalMapping/TrackableKeyFrameSearch.h Pages: 1 -->
<svg width="277pt" height="108pt"
 viewBox="0.00 0.00 277.00 108.00" xmlns="http://www.w3.org/2000/svg" xmlns:xlink="http://www.w3.org/1999/xlink">
<g id="graph0" class="graph" transform="scale(1 1) rotate(0) translate(4 104)">
<title>src/GlobalMapping/TrackableKeyFrameSearch.h</title>
<polygon fill="white" stroke="none" points="-4,4 -4,-104 273,-104 273,4 -4,4"/>
<!-- Node1 -->
<g id="node1" class="node"><title>Node1</title>
<polygon fill="#bfbfbf" stroke="black" points="71.5,-69 71.5,-99 214.5,-99 214.5,-69 71.5,-69"/>
<text text-anchor="start" x="79.5" y="-87" font-family="Helvetica,sans-Serif" font-size="10.00">src/GlobalMapping/Trackable</text>
<text text-anchor="middle" x="143" y="-76" font-family="Helvetica,sans-Serif" font-size="10.00">KeyFrameSearch.h</text>
</g>
<!-- Node2 -->
<g id="node2" class="node"><title>Node2</title>
<g id="a_node2"><a xlink:href="../../d3/dd3/TrackableKeyFrameSearch_8cpp.html" target="_top" xlink:title="src/GlobalMapping/Trackable\lKeyFrameSearch.cpp">
<polygon fill="white" stroke="black" points="-0.5,-1 -0.5,-31 142.5,-31 142.5,-1 -0.5,-1"/>
<text text-anchor="start" x="7.5" y="-19" font-family="Helvetica,sans-Serif" font-size="10.00">src/GlobalMapping/Trackable</text>
<text text-anchor="middle" x="71" y="-8" font-family="Helvetica,sans-Serif" font-size="10.00">KeyFrameSearch.cpp</text>
</a>
</g>
</g>
<!-- Node1&#45;&gt;Node2 -->
<g id="edge1" class="edge"><title>Node1&#45;&gt;Node2</title>
<path fill="none" stroke="midnightblue" d="M119.847,-61.7762C108.975,-51.8105 96.3043,-40.1956 86.5924,-31.2931"/>
<polygon fill="midnightblue" stroke="midnightblue" points="117.64,-64.5018 127.377,-68.679 122.371,-59.3417 117.64,-64.5018"/>
</g>
<!-- Node3 -->
<g id="node3" class="node"><title>Node3</title>
<g id="a_node3"><a xlink:href="../../de/dce/SlamSystem_8cpp.html" target="_top" xlink:title="src/SlamSystem.cpp">
<polygon fill="white" stroke="black" points="161,-6.5 161,-25.5 269,-25.5 269,-6.5 161,-6.5"/>
<text text-anchor="middle" x="215" y="-13.5" font-family="Helvetica,sans-Serif" font-size="10.00">src/SlamSystem.cpp</text>
</a>
</g>
</g>
<!-- Node1&#45;&gt;Node3 -->
<g id="edge2" class="edge"><title>Node1&#45;&gt;Node3</title>
<path fill="none" stroke="midnightblue" d="M166.071,-61.8517C179.365,-49.6656 195.371,-34.9929 205.369,-25.8283"/>
<polygon fill="midnightblue" stroke="midnightblue" points="163.629,-59.3417 158.623,-68.679 168.36,-64.5018 163.629,-59.3417"/>
</g>
</g>
</svg>
