<?xml version="1.0" encoding="UTF-8" standalone="no"?>
<!DOCTYPE svg PUBLIC "-//W3C//DTD SVG 1.1//EN"
 "http://www.w3.org/Graphics/SVG/1.1/DTD/svg11.dtd">
<!-- Generated by graphviz version 2.36.0 (20140111.2315)
 -->
<!-- Title: src/IOWrapper/InputImageStream.h Pages: 1 -->
<!--zoomable 220 -->
<svg id="main" version="1.1" xmlns="http://www.w3.org/2000/svg" xmlns:xlink="http://www.w3.org/1999/xlink" xml:space="preserve" onload="init(evt)">
<style type="text/css"><![CDATA[
.edge:hover path { stroke: red; }
.edge:hover polygon { stroke: red; fill: red; }
]]></style>
<script type="text/javascript"><![CDATA[
var edges = document.getElementsByTagName('g');
if (edges && edges.length) {
  for (var i=0;i<edges.length;i++) {
    if (edges[i].id.substr(0,4)=='edge') {
      edges[i].setAttribute('class','edge');
    }
  }
}
]]></script>
        <defs>
                <circle id="rim" cx="0" cy="0" r="7"/>
                <circle id="rim2" cx="0" cy="0" r="3.5"/>
                <g id="zoomPlus">
                        <use xlink:href="#rim" fill="#404040">
                                <set attributeName="fill" to="#808080" begin="zoomplus.mouseover" end="zoomplus.mouseout"/>
                        </use>
                        <path d="M-4,0h8M0,-4v8" fill="none" stroke="white" stroke-width="1.5" pointer-events="none"/>
                </g>
                <g id="zoomMin">
                        <use xlink:href="#rim" fill="#404040">
                                <set attributeName="fill" to="#808080" begin="zoomminus.mouseover" end="zoomminus.mouseout"/>
                        </use>
                        <path d="M-4,0h8" fill="none" stroke="white" stroke-width="1.5" pointer-events="none"/>
                </g>
                <g id="dirArrow">
                        <path fill="none" stroke="white" stroke-width="1.5" d="M0,-3.0v7 M-2.5,-0.5L0,-3.0L2.5,-0.5"/>
                </g>
               <g id="resetDef">
                       <use xlink:href="#rim2" fill="#404040">
                               <set attributeName="fill" to="#808080" begin="reset.mouseover" end="reset.mouseout"/>
                       </use>
               </g>
        </defs>

<script type="text/javascript">
var viewWidth = 691;
var viewHeight = 220;
var sectionId = 'dynsection-0';
</script>
<script xlink:href="../../svgpan.js"/>
<svg id="graph" class="graph">
<g id="viewport">
<title>src/IOWrapper/InputImageStream.h</title>
<polygon fill="white" stroke="none" points="-4,4 -4,-216 687,-216 687,4 -4,4"/>
<!-- Node1 -->
<g id="node1" class="node"><title>Node1</title>
<polygon fill="#bfbfbf" stroke="black" points="245,-181 245,-211 377,-211 377,-181 245,-181"/>
<text text-anchor="start" x="253" y="-199" font-family="Helvetica,sans-Serif" font-size="10.00">src/IOWrapper/InputImage</text>
<text text-anchor="middle" x="311" y="-188" font-family="Helvetica,sans-Serif" font-size="10.00">Stream.h</text>
</g>
<!-- Node2 -->
<g id="node2" class="node"><title>Node2</title>
<g id="a_node2"><a xlink:href="../../d5/d13/NotifyBuffer_8h.html" target="_top" xlink:title="IOWrapper/NotifyBuffer.h">
<polygon fill="white" stroke="black" points="109,-124.5 109,-143.5 237,-143.5 237,-124.5 109,-124.5"/>
<text text-anchor="middle" x="173" y="-131.5" font-family="Helvetica,sans-Serif" font-size="10.00">IOWrapper/NotifyBuffer.h</text>
</a>
</g>
</g>
<!-- Node1&#45;&gt;Node2 -->
<g id="edge1" class="edge"><title>Node1&#45;&gt;Node2</title>
<path fill="none" stroke="midnightblue" d="M278.645,-180.933C255.467,-170.855 224.517,-157.399 202.112,-147.657"/>
<polygon fill="midnightblue" stroke="midnightblue" points="203.346,-144.378 192.78,-143.6 200.555,-150.797 203.346,-144.378"/>
</g>
<!-- Node6 -->
<g id="node6" class="node"><title>Node6</title>
<g id="a_node6"><a xlink:href="../../da/d15/TimestampedObject_8h.html" target="_top" xlink:title="IOWrapper/TimestampedObject.h">
<polygon fill="white" stroke="black" points="312.5,-124.5 312.5,-143.5 475.5,-143.5 475.5,-124.5 312.5,-124.5"/>
<text text-anchor="middle" x="394" y="-131.5" font-family="Helvetica,sans-Serif" font-size="10.00">IOWrapper/TimestampedObject.h</text>
</a>
</g>
</g>
<!-- Node1&#45;&gt;Node6 -->
<g id="edge5" class="edge"><title>Node1&#45;&gt;Node6</title>
<path fill="none" stroke="midnightblue" d="M330.67,-180.781C343.601,-171.433 360.486,-159.227 373.568,-149.77"/>
<polygon fill="midnightblue" stroke="midnightblue" points="375.869,-152.426 381.923,-143.731 371.768,-146.753 375.869,-152.426"/>
</g>
<!-- Node3 -->
<g id="node3" class="node"><title>Node3</title>
<polygon fill="white" stroke="#bfbfbf" points="-0.5,-62.5 -0.5,-81.5 42.5,-81.5 42.5,-62.5 -0.5,-62.5"/>
<text text-anchor="middle" x="21" y="-69.5" font-family="Helvetica,sans-Serif" font-size="10.00">deque</text>
</g>
<!-- Node2&#45;&gt;Node3 -->
<g id="edge2" class="edge"><title>Node2&#45;&gt;Node3</title>
<path fill="none" stroke="midnightblue" d="M147.444,-124.495C122.534,-115.99 83.7341,-102.169 51,-88 49.5972,-87.3928 48.1667,-86.7524 46.7288,-86.092"/>
<polygon fill="midnightblue" stroke="midnightblue" points="47.8797,-82.7619 37.3506,-81.5835 44.8468,-89.0707 47.8797,-82.7619"/>
</g>
<!-- Node4 -->
<g id="node4" class="node"><title>Node4</title>
<polygon fill="white" stroke="#bfbfbf" points="60.5,-57 60.5,-87 173.5,-87 173.5,-57 60.5,-57"/>
<text text-anchor="start" x="68.5" y="-75" font-family="Helvetica,sans-Serif" font-size="10.00">boost/thread/recursive</text>
<text text-anchor="middle" x="117" y="-64" font-family="Helvetica,sans-Serif" font-size="10.00">_mutex.hpp</text>
</g>
<!-- Node2&#45;&gt;Node4 -->
<g id="edge3" class="edge"><title>Node2&#45;&gt;Node4</title>
<path fill="none" stroke="midnightblue" d="M164.977,-124.403C157.747,-116.657 146.809,-104.938 137.202,-94.6447"/>
<polygon fill="midnightblue" stroke="midnightblue" points="139.58,-92.0633 130.198,-87.1408 134.463,-96.8395 139.58,-92.0633"/>
</g>
<!-- Node5 -->
<g id="node5" class="node"><title>Node5</title>
<polygon fill="white" stroke="#bfbfbf" points="191.5,-62.5 191.5,-81.5 322.5,-81.5 322.5,-62.5 191.5,-62.5"/>
<text text-anchor="middle" x="257" y="-69.5" font-family="Helvetica,sans-Serif" font-size="10.00">boost/thread/condition.hpp</text>
</g>
<!-- Node2&#45;&gt;Node5 -->
<g id="edge4" class="edge"><title>Node2&#45;&gt;Node5</title>
<path fill="none" stroke="midnightblue" d="M185.035,-124.403C198.508,-114.78 220.566,-99.0242 236.715,-87.4891"/>
<polygon fill="midnightblue" stroke="midnightblue" points="238.884,-90.2411 244.987,-81.5806 234.815,-84.5449 238.884,-90.2411"/>
</g>
<!-- Node7 -->
<g id="node7" class="node"><title>Node7</title>
<polygon fill="white" stroke="#bfbfbf" points="384,-0.5 384,-19.5 430,-19.5 430,-0.5 384,-0.5"/>
<text text-anchor="middle" x="407" y="-7.5" font-family="Helvetica,sans-Serif" font-size="10.00">chrono</text>
</g>
<!-- Node6&#45;&gt;Node7 -->
<g id="edge6" class="edge"><title>Node6&#45;&gt;Node7</title>
<path fill="none" stroke="midnightblue" d="M387.627,-124.376C377.865,-110.056 361.215,-80.5179 370,-56 373.941,-45.0027 381.857,-34.7688 389.36,-26.8479"/>
<polygon fill="midnightblue" stroke="midnightblue" points="391.892,-29.2659 396.562,-19.7555 386.981,-24.2784 391.892,-29.2659"/>
</g>
<!-- Node8 -->
<g id="node8" class="node"><title>Node8</title>
<polygon fill="white" stroke="#bfbfbf" points="379,-62.5 379,-81.5 495,-81.5 495,-62.5 379,-62.5"/>
<text text-anchor="middle" x="437" y="-69.5" font-family="Helvetica,sans-Serif" font-size="10.00">opencv2/core/core.hpp</text>
</g>
<!-- Node6&#45;&gt;Node8 -->
<g id="edge7" class="edge"><title>Node6&#45;&gt;Node8</title>
<path fill="none" stroke="midnightblue" d="M400.161,-124.403C406.611,-115.403 416.904,-101.041 424.973,-89.7824"/>
<polygon fill="midnightblue" stroke="midnightblue" points="427.87,-91.7476 430.851,-81.5806 422.18,-87.6699 427.87,-91.7476"/>
</g>
<!-- Node9 -->
<g id="node9" class="node"><title>Node9</title>
<g id="a_node9"><a xlink:href="../../d7/d66/Timestamp_8h.html" target="_top" xlink:title="IOWrapper/Timestamp.h">
<polygon fill="white" stroke="black" points="513,-62.5 513,-81.5 637,-81.5 637,-62.5 513,-62.5"/>
<text text-anchor="middle" x="575" y="-69.5" font-family="Helvetica,sans-Serif" font-size="10.00">IOWrapper/Timestamp.h</text>
</a>
</g>
</g>
<!-- Node6&#45;&gt;Node9 -->
<g id="edge8" class="edge"><title>Node6&#45;&gt;Node9</title>
<path fill="none" stroke="midnightblue" d="M419.933,-124.403C451.25,-114.022 504.09,-96.5062 539.256,-84.849"/>
<polygon fill="midnightblue" stroke="midnightblue" points="540.724,-88.0494 549.115,-81.5806 538.522,-81.405 540.724,-88.0494"/>
</g>
<!-- Node9&#45;&gt;Node7 -->
<g id="edge10" class="edge"><title>Node9&#45;&gt;Node7</title>
<path fill="none" stroke="midnightblue" d="M550.93,-62.4035C521.74,-51.9787 472.406,-34.3591 439.767,-22.7026"/>
<polygon fill="midnightblue" stroke="midnightblue" points="440.81,-19.3584 430.215,-19.2911 438.455,-25.9506 440.81,-19.3584"/>
</g>
<!-- Node10 -->
<g id="node10" class="node"><title>Node10</title>
<polygon fill="white" stroke="#bfbfbf" points="505.5,-0.5 505.5,-19.5 546.5,-19.5 546.5,-0.5 505.5,-0.5"/>
<text text-anchor="middle" x="526" y="-7.5" font-family="Helvetica,sans-Serif" font-size="10.00">string</text>
</g>
<!-- Node9&#45;&gt;Node10 -->
<g id="edge9" class="edge"><title>Node9&#45;&gt;Node10</title>
<path fill="none" stroke="midnightblue" d="M567.979,-62.4035C560.557,-53.3143 548.667,-38.7559 539.433,-27.4489"/>
<polygon fill="midnightblue" stroke="midnightblue" points="542.044,-25.1121 533.007,-19.5806 536.622,-29.5398 542.044,-25.1121"/>
</g>
<!-- Node11 -->
<g id="node11" class="node"><title>Node11</title>
<polygon fill="white" stroke="#bfbfbf" points="564.5,-0.5 564.5,-19.5 683.5,-19.5 683.5,-0.5 564.5,-0.5"/>
<text text-anchor="middle" x="624" y="-7.5" font-family="Helvetica,sans-Serif" font-size="10.00">boost/thread/mutex.hpp</text>
</g>
<!-- Node9&#45;&gt;Node11 -->
<g id="edge11" class="edge"><title>Node9&#45;&gt;Node11</title>
<path fill="none" stroke="midnightblue" d="M582.021,-62.4035C589.443,-53.3143 601.333,-38.7559 610.567,-27.4489"/>
<polygon fill="midnightblue" stroke="midnightblue" points="613.378,-29.5398 616.993,-19.5806 607.956,-25.1121 613.378,-29.5398"/>
</g>
</g>
</svg>
        <g id="navigator" transform="translate(0 0)" fill="#404254">
                <rect fill="#f2f5e9" fill-opacity="0.5" stroke="#606060" stroke-width=".5" x="0" y="0" width="60" height="60"/>
                <use id="zoomplus" xlink:href="#zoomPlus" x="17" y="9" onmousedown="handleZoom(evt,'in')"/>
                <use id="zoomminus" xlink:href="#zoomMin" x="42" y="9" onmousedown="handleZoom(evt,'out')"/>
                <use id="reset" xlink:href="#resetDef" x="30" y="36" onmousedown="handleReset()"/>
                <g id="arrowUp" xlink:href="#dirArrow" transform="translate(30 24)" onmousedown="handlePan(0,-1)">
                  <use xlink:href="#rim" fill="#404040">
                        <set attributeName="fill" to="#808080" begin="arrowUp.mouseover" end="arrowUp.mouseout"/>
                  </use>
                  <path fill="none" stroke="white" stroke-width="1.5" d="M0,-3.0v7 M-2.5,-0.5L0,-3.0L2.5,-0.5"/>
                </g>
                <g id="arrowRight" xlink:href="#dirArrow" transform="rotate(90) translate(36 -43)" onmousedown="handlePan(1,0)">
                  <use xlink:href="#rim" fill="#404040">
                        <set attributeName="fill" to="#808080" begin="arrowRight.mouseover" end="arrowRight.mouseout"/>
                  </use>
                  <path fill="none" stroke="white" stroke-width="1.5" d="M0,-3.0v7 M-2.5,-0.5L0,-3.0L2.5,-0.5"/>
                </g>
                <g id="arrowDown" xlink:href="#dirArrow" transform="rotate(180) translate(-30 -48)" onmousedown="handlePan(0,1)">
                  <use xlink:href="#rim" fill="#404040">
                        <set attributeName="fill" to="#808080" begin="arrowDown.mouseover" end="arrowDown.mouseout"/>
                  </use>
                  <path fill="none" stroke="white" stroke-width="1.5" d="M0,-3.0v7 M-2.5,-0.5L0,-3.0L2.5,-0.5"/>
                </g>
                <g id="arrowLeft" xlink:href="#dirArrow" transform="rotate(270) translate(-36 17)" onmousedown="handlePan(-1,0)">
                  <use xlink:href="#rim" fill="#404040">
                        <set attributeName="fill" to="#808080" begin="arrowLeft.mouseover" end="arrowLeft.mouseout"/>
                  </use>
                  <path fill="none" stroke="white" stroke-width="1.5" d="M0,-3.0v7 M-2.5,-0.5L0,-3.0L2.5,-0.5"/>
                </g>
        </g>
        <svg viewBox="0 0 15 15" width="100%" height="30px" preserveAspectRatio="xMaxYMin meet">
         <g id="arrow_out" transform="scale(0.3 0.3)">
          <a xlink:href="InputImageStream_8h__incl_org.svg" target="_base">
           <rect id="button" ry="5" rx="5" y="6" x="6" height="38" width="38"
                fill="#f2f5e9" fill-opacity="0.5" stroke="#606060" stroke-width="1.0"/>
           <path id="arrow"
             d="M 11.500037,31.436501 C 11.940474,20.09759 22.043105,11.32322 32.158766,21.979434 L 37.068811,17.246167 C 37.068811,17.246167 37.088388,32 37.088388,32 L 22.160133,31.978069 C 22.160133,31.978069 26.997745,27.140456 26.997745,27.140456 C 18.528582,18.264221 13.291696,25.230495 11.500037,31.436501 z"
             style="fill:#404040;"/>
          </a>
         </g>
        </svg>
</svg>
