<?xml version="1.0" encoding="UTF-8" standalone="no"?>
<!DOCTYPE svg PUBLIC "-//W3C//DTD SVG 1.1//EN"
 "http://www.w3.org/Graphics/SVG/1.1/DTD/svg11.dtd">
<!-- Generated by graphviz version 2.36.0 (20140111.2315)
 -->
<!-- Title: SiftMatchGL Pages: 1 -->
<svg width="126pt" height="414pt"
 viewBox="0.00 0.00 126.00 414.00" xmlns="http://www.w3.org/2000/svg" xmlns:xlink="http://www.w3.org/1999/xlink">
<g id="graph0" class="graph" transform="scale(1 1) rotate(0) translate(4 410)">
<title>SiftMatchGL</title>
<polygon fill="white" stroke="none" points="-4,4 -4,-410 122,-410 122,4 -4,4"/>
<!-- Node1 -->
<g id="node1" class="node"><title>Node1</title>
<polygon fill="#bfbfbf" stroke="black" points="-1,-0.5 -1,-145.5 119,-145.5 119,-0.5 -1,-0.5"/>
<text text-anchor="middle" x="59" y="-133.5" font-family="Helvetica,sans-Serif" font-size="10.00">SiftMatchGL</text>
<polyline fill="none" stroke="black" points="-1,-126.5 119,-126.5 "/>
<text text-anchor="middle" x="59" y="-114.5" font-family="Helvetica,sans-Serif" font-size="10.00"> </text>
<polyline fill="none" stroke="black" points="-1,-107.5 119,-107.5 "/>
<text text-anchor="start" x="7" y="-95.5" font-family="Helvetica,sans-Serif" font-size="10.00">+ SiftMatchGL()</text>
<text text-anchor="start" x="7" y="-84.5" font-family="Helvetica,sans-Serif" font-size="10.00">+ ~SiftMatchGL()</text>
<text text-anchor="start" x="7" y="-73.5" font-family="Helvetica,sans-Serif" font-size="10.00">+ InitSiftMatch()</text>
<text text-anchor="start" x="7" y="-62.5" font-family="Helvetica,sans-Serif" font-size="10.00">+ SetMaxSift()</text>
<text text-anchor="start" x="7" y="-51.5" font-family="Helvetica,sans-Serif" font-size="10.00">+ SetDescriptors()</text>
<text text-anchor="start" x="7" y="-40.5" font-family="Helvetica,sans-Serif" font-size="10.00">+ SetDescriptors()</text>
<text text-anchor="start" x="7" y="-29.5" font-family="Helvetica,sans-Serif" font-size="10.00">+ SetFeautreLocation()</text>
<text text-anchor="start" x="7" y="-18.5" font-family="Helvetica,sans-Serif" font-size="10.00">+ GetSiftMatch()</text>
<text text-anchor="start" x="7" y="-7.5" font-family="Helvetica,sans-Serif" font-size="10.00">+ GetGuidedSiftMatch()</text>
</g>
<!-- Node2 -->
<g id="node2" class="node"><title>Node2</title>
<g id="a_node2"><a xlink:href="../../db/df0/classSiftMatchGPU.html" target="_top" xlink:title="matcher export ">
<polygon fill="white" stroke="black" points="-1,-183 -1,-405 119,-405 119,-183 -1,-183"/>
<text text-anchor="middle" x="59" y="-393" font-family="Helvetica,sans-Serif" font-size="10.00">SiftMatchGPU</text>
<polyline fill="none" stroke="black" points="-1,-386 119,-386 "/>
<text text-anchor="middle" x="59" y="-374" font-family="Helvetica,sans-Serif" font-size="10.00"> </text>
<polyline fill="none" stroke="black" points="-1,-367 119,-367 "/>
<text text-anchor="start" x="7" y="-355" font-family="Helvetica,sans-Serif" font-size="10.00">+ CreateContextGL()</text>
<text text-anchor="start" x="7" y="-344" font-family="Helvetica,sans-Serif" font-size="10.00">+ VerifyContextGL()</text>
<text text-anchor="start" x="7" y="-333" font-family="Helvetica,sans-Serif" font-size="10.00">+ SiftMatchGPU()</text>
<text text-anchor="start" x="7" y="-322" font-family="Helvetica,sans-Serif" font-size="10.00">+ SetLanguage()</text>
<text text-anchor="start" x="7" y="-311" font-family="Helvetica,sans-Serif" font-size="10.00">+ SetDeviceParam()</text>
<text text-anchor="start" x="7" y="-300" font-family="Helvetica,sans-Serif" font-size="10.00">+ SetMaxSift()</text>
<text text-anchor="start" x="7" y="-289" font-family="Helvetica,sans-Serif" font-size="10.00">+ ~SiftMatchGPU()</text>
<text text-anchor="start" x="7" y="-278" font-family="Helvetica,sans-Serif" font-size="10.00">+ SetDescriptors()</text>
<text text-anchor="start" x="7" y="-267" font-family="Helvetica,sans-Serif" font-size="10.00">+ SetDescriptors()</text>
<text text-anchor="start" x="7" y="-256" font-family="Helvetica,sans-Serif" font-size="10.00">+ GetSiftMatch()</text>
<text text-anchor="start" x="7" y="-245" font-family="Helvetica,sans-Serif" font-size="10.00">+ SetFeautreLocation()</text>
<text text-anchor="start" x="7" y="-234" font-family="Helvetica,sans-Serif" font-size="10.00">+ SetFeatureLocation()</text>
<text text-anchor="start" x="7" y="-223" font-family="Helvetica,sans-Serif" font-size="10.00">+ GetGuidedSiftMatch()</text>
<text text-anchor="start" x="7" y="-212" font-family="Helvetica,sans-Serif" font-size="10.00">+ operator new()</text>
<text text-anchor="start" x="7" y="-201" font-family="Helvetica,sans-Serif" font-size="10.00"># _CreateContextGL()</text>
<text text-anchor="start" x="7" y="-190" font-family="Helvetica,sans-Serif" font-size="10.00"># _VerifyContextGL()</text>
</a>
</g>
</g>
<!-- Node2&#45;&gt;Node1 -->
<g id="edge1" class="edge"><title>Node2&#45;&gt;Node1</title>
<path fill="none" stroke="midnightblue" d="M59,-172.773C59,-163.504 59,-154.339 59,-145.547"/>
<polygon fill="none" stroke="midnightblue" points="55.5001,-172.858 59,-182.858 62.5001,-172.858 55.5001,-172.858"/>
</g>
</g>
</svg>
