<?xml version="1.0" encoding="UTF-8" standalone="no"?>
<!DOCTYPE svg PUBLIC "-//W3C//DTD SVG 1.1//EN"
 "http://www.w3.org/Graphics/SVG/1.1/DTD/svg11.dtd">
<!-- Generated by graphviz version 2.36.0 (20140111.2315)
 -->
<!-- Title: sl_fair_split Pages: 1 -->
<svg width="198pt" height="180pt"
 viewBox="0.00 0.00 198.00 180.00" xmlns="http://www.w3.org/2000/svg" xmlns:xlink="http://www.w3.org/1999/xlink">
<g id="graph0" class="graph" transform="scale(1 1) rotate(0) translate(4 176)">
<title>sl_fair_split</title>
<polygon fill="white" stroke="none" points="-4,4 -4,-176 194,-176 194,4 -4,4"/>
<!-- Node1 -->
<g id="node1" class="node"><title>Node1</title>
<polygon fill="#bfbfbf" stroke="black" points="0,-76.5 0,-95.5 66,-95.5 66,-76.5 0,-76.5"/>
<text text-anchor="middle" x="33" y="-83.5" font-family="Helvetica,sans-Serif" font-size="10.00">sl_fair_split</text>
</g>
<!-- Node2 -->
<g id="node2" class="node"><title>Node2</title>
<g id="a_node2"><a xlink:href="../../d9/d87/kd__util_8cpp.html#a8de10b7ed69bdf2b2db334bf5be7e015" target="_top" xlink:title="annSpread">
<polygon fill="white" stroke="black" points="114.5,-152.5 114.5,-171.5 177.5,-171.5 177.5,-152.5 114.5,-152.5"/>
<text text-anchor="middle" x="146" y="-159.5" font-family="Helvetica,sans-Serif" font-size="10.00">annSpread</text>
</a>
</g>
</g>
<!-- Node1&#45;&gt;Node2 -->
<g id="edge1" class="edge"><title>Node1&#45;&gt;Node2</title>
<path fill="none" stroke="midnightblue" d="M43.8941,-95.8605C56.5427,-108.08 79.507,-128.997 102,-143 104.771,-144.725 107.727,-146.375 110.74,-147.932"/>
<polygon fill="midnightblue" stroke="midnightblue" points="109.303,-151.124 119.833,-152.3 112.335,-144.815 109.303,-151.124"/>
</g>
<!-- Node3 -->
<g id="node3" class="node"><title>Node3</title>
<g id="a_node3"><a xlink:href="../../d9/d87/kd__util_8cpp.html#a79e0b5d9056cd12db02b51f8b69c464a" target="_top" xlink:title="annMinMax">
<polygon fill="white" stroke="black" points="112.5,-114.5 112.5,-133.5 179.5,-133.5 179.5,-114.5 112.5,-114.5"/>
<text text-anchor="middle" x="146" y="-121.5" font-family="Helvetica,sans-Serif" font-size="10.00">annMinMax</text>
</a>
</g>
</g>
<!-- Node1&#45;&gt;Node3 -->
<g id="edge2" class="edge"><title>Node1&#45;&gt;Node3</title>
<path fill="none" stroke="midnightblue" d="M62.01,-95.589C75.6817,-100.269 92.331,-105.969 107.118,-111.032"/>
<polygon fill="midnightblue" stroke="midnightblue" points="106.404,-114.486 116.999,-114.414 108.672,-107.864 106.404,-114.486"/>
</g>
<!-- Node4 -->
<g id="node4" class="node"><title>Node4</title>
<g id="a_node4"><a xlink:href="../../d9/d87/kd__util_8cpp.html#a3b25673b846dead901bb0d9fc4942ac5" target="_top" xlink:title="annSplitBalance">
<polygon fill="white" stroke="black" points="102.5,-76.5 102.5,-95.5 189.5,-95.5 189.5,-76.5 102.5,-76.5"/>
<text text-anchor="middle" x="146" y="-83.5" font-family="Helvetica,sans-Serif" font-size="10.00">annSplitBalance</text>
</a>
</g>
</g>
<!-- Node1&#45;&gt;Node4 -->
<g id="edge3" class="edge"><title>Node1&#45;&gt;Node4</title>
<path fill="none" stroke="midnightblue" d="M66.1058,-86C74.2054,-86 83.1186,-86 91.9491,-86"/>
<polygon fill="midnightblue" stroke="midnightblue" points="92.2235,-89.5001 102.223,-86 92.2234,-82.5001 92.2235,-89.5001"/>
</g>
<!-- Node5 -->
<g id="node5" class="node"><title>Node5</title>
<g id="a_node5"><a xlink:href="../../d9/d87/kd__util_8cpp.html#a204cfb519eaf094b1310c8cd3470154f" target="_top" xlink:title="annPlaneSplit">
<polygon fill="white" stroke="black" points="107.5,-38.5 107.5,-57.5 184.5,-57.5 184.5,-38.5 107.5,-38.5"/>
<text text-anchor="middle" x="146" y="-45.5" font-family="Helvetica,sans-Serif" font-size="10.00">annPlaneSplit</text>
</a>
</g>
</g>
<!-- Node1&#45;&gt;Node5 -->
<g id="edge4" class="edge"><title>Node1&#45;&gt;Node5</title>
<path fill="none" stroke="midnightblue" d="M62.01,-76.411C75.6817,-71.7306 92.331,-66.0308 107.118,-60.9685"/>
<polygon fill="midnightblue" stroke="midnightblue" points="108.672,-64.1362 116.999,-57.5859 106.404,-57.5136 108.672,-64.1362"/>
</g>
<!-- Node6 -->
<g id="node6" class="node"><title>Node6</title>
<g id="a_node6"><a xlink:href="../../d9/d87/kd__util_8cpp.html#ada35176903dab27160ac24f82b17c8dd" target="_top" xlink:title="annMedianSplit">
<polygon fill="white" stroke="black" points="104.5,-0.5 104.5,-19.5 187.5,-19.5 187.5,-0.5 104.5,-0.5"/>
<text text-anchor="middle" x="146" y="-7.5" font-family="Helvetica,sans-Serif" font-size="10.00">annMedianSplit</text>
</a>
</g>
</g>
<!-- Node1&#45;&gt;Node6 -->
<g id="edge5" class="edge"><title>Node1&#45;&gt;Node6</title>
<path fill="none" stroke="midnightblue" d="M43.8941,-76.1395C56.5427,-63.9204 79.507,-43.0033 102,-29 104.771,-27.2746 107.727,-25.6245 110.74,-24.0684"/>
<polygon fill="midnightblue" stroke="midnightblue" points="112.335,-27.1855 119.833,-19.7002 109.303,-20.8759 112.335,-27.1855"/>
</g>
</g>
</svg>
