<?xml version="1.0" encoding="UTF-8" standalone="no"?>
<!DOCTYPE svg PUBLIC "-//W3C//DTD SVG 1.1//EN"
 "http://www.w3.org/Graphics/SVG/1.1/DTD/svg11.dtd">
<!-- Generated by graphviz version 2.36.0 (20140111.2315)
 -->
<!-- Title: sl_midpt_split Pages: 1 -->
<svg width="200pt" height="104pt"
 viewBox="0.00 0.00 200.00 104.00" xmlns="http://www.w3.org/2000/svg" xmlns:xlink="http://www.w3.org/1999/xlink">
<g id="graph0" class="graph" transform="scale(1 1) rotate(0) translate(4 100)">
<title>sl_midpt_split</title>
<polygon fill="white" stroke="none" points="-4,4 -4,-100 196,-100 196,4 -4,4"/>
<!-- Node1 -->
<g id="node1" class="node"><title>Node1</title>
<polygon fill="#bfbfbf" stroke="black" points="0.5,-38.5 0.5,-57.5 77.5,-57.5 77.5,-38.5 0.5,-38.5"/>
<text text-anchor="middle" x="39" y="-45.5" font-family="Helvetica,sans-Serif" font-size="10.00">sl_midpt_split</text>
</g>
<!-- Node2 -->
<g id="node2" class="node"><title>Node2</title>
<g id="a_node2"><a xlink:href="../../d9/d87/kd__util_8cpp.html#a8de10b7ed69bdf2b2db334bf5be7e015" target="_top" xlink:title="annSpread">
<polygon fill="white" stroke="black" points="121.5,-76.5 121.5,-95.5 184.5,-95.5 184.5,-76.5 121.5,-76.5"/>
<text text-anchor="middle" x="153" y="-83.5" font-family="Helvetica,sans-Serif" font-size="10.00">annSpread</text>
</a>
</g>
</g>
<!-- Node1&#45;&gt;Node2 -->
<g id="edge1" class="edge"><title>Node1&#45;&gt;Node2</title>
<path fill="none" stroke="midnightblue" d="M68.2623,-57.589C82.1899,-62.3144 99.1798,-68.0789 114.207,-73.1774"/>
<polygon fill="midnightblue" stroke="midnightblue" points="113.152,-76.5155 123.747,-76.4141 115.401,-69.8866 113.152,-76.5155"/>
</g>
<!-- Node3 -->
<g id="node3" class="node"><title>Node3</title>
<g id="a_node3"><a xlink:href="../../d9/d87/kd__util_8cpp.html#a79e0b5d9056cd12db02b51f8b69c464a" target="_top" xlink:title="annMinMax">
<polygon fill="white" stroke="black" points="119.5,-38.5 119.5,-57.5 186.5,-57.5 186.5,-38.5 119.5,-38.5"/>
<text text-anchor="middle" x="153" y="-45.5" font-family="Helvetica,sans-Serif" font-size="10.00">annMinMax</text>
</a>
</g>
</g>
<!-- Node1&#45;&gt;Node3 -->
<g id="edge2" class="edge"><title>Node1&#45;&gt;Node3</title>
<path fill="none" stroke="midnightblue" d="M77.6059,-48C87.7103,-48 98.7134,-48 109.083,-48"/>
<polygon fill="midnightblue" stroke="midnightblue" points="109.184,-51.5001 119.184,-48 109.184,-44.5001 109.184,-51.5001"/>
</g>
<!-- Node4 -->
<g id="node4" class="node"><title>Node4</title>
<g id="a_node4"><a xlink:href="../../d9/d87/kd__util_8cpp.html#a204cfb519eaf094b1310c8cd3470154f" target="_top" xlink:title="annPlaneSplit">
<polygon fill="white" stroke="black" points="114.5,-0.5 114.5,-19.5 191.5,-19.5 191.5,-0.5 114.5,-0.5"/>
<text text-anchor="middle" x="153" y="-7.5" font-family="Helvetica,sans-Serif" font-size="10.00">annPlaneSplit</text>
</a>
</g>
</g>
<!-- Node1&#45;&gt;Node4 -->
<g id="edge3" class="edge"><title>Node1&#45;&gt;Node4</title>
<path fill="none" stroke="midnightblue" d="M68.2623,-38.411C82.1899,-33.6856 99.1798,-27.9211 114.207,-22.8226"/>
<polygon fill="midnightblue" stroke="midnightblue" points="115.401,-26.1134 123.747,-19.5859 113.152,-19.4845 115.401,-26.1134"/>
</g>
</g>
</svg>
