<?xml version="1.0" encoding="UTF-8" standalone="no"?>
<!DOCTYPE svg PUBLIC "-//W3C//DTD SVG 1.1//EN"
 "http://www.w3.org/Graphics/SVG/1.1/DTD/svg11.dtd">
<!-- Generated by graphviz version 2.36.0 (20140111.2315)
 -->
<!-- Title: lsd_slam_core::LSDParamsConfig::AbstractGroupDescription Pages: 1 -->
<svg width="172pt" height="250pt"
 viewBox="0.00 0.00 172.00 250.00" xmlns="http://www.w3.org/2000/svg" xmlns:xlink="http://www.w3.org/1999/xlink">
<g id="graph0" class="graph" transform="scale(1 1) rotate(0) translate(4 246)">
<title>lsd_slam_core::LSDParamsConfig::AbstractGroupDescription</title>
<polygon fill="white" stroke="none" points="-4,4 -4,-246 168,-246 168,4 -4,4"/>
<!-- Node1 -->
<g id="node1" class="node"><title>Node1</title>
<polygon fill="#bfbfbf" stroke="black" points="0,-1 0,-135 164,-135 164,-1 0,-1"/>
<text text-anchor="start" x="8" y="-123" font-family="Helvetica,sans-Serif" font-size="10.00">lsd_slam_core::LSDParams</text>
<text text-anchor="middle" x="82" y="-112" font-family="Helvetica,sans-Serif" font-size="10.00">Config::AbstractGroupDescription</text>
<polyline fill="none" stroke="black" points="0,-105 164,-105 "/>
<text text-anchor="start" x="8" y="-93" font-family="Helvetica,sans-Serif" font-size="10.00">+ abstract_parameters</text>
<text text-anchor="start" x="8" y="-82" font-family="Helvetica,sans-Serif" font-size="10.00">+ state</text>
<polyline fill="none" stroke="black" points="0,-75 164,-75 "/>
<text text-anchor="start" x="8" y="-63" font-family="Helvetica,sans-Serif" font-size="10.00">+ AbstractGroupDescription()</text>
<text text-anchor="start" x="8" y="-52" font-family="Helvetica,sans-Serif" font-size="10.00">+ toMessage()</text>
<text text-anchor="start" x="8" y="-41" font-family="Helvetica,sans-Serif" font-size="10.00">+ fromMessage()</text>
<text text-anchor="start" x="8" y="-30" font-family="Helvetica,sans-Serif" font-size="10.00">+ updateParams()</text>
<text text-anchor="start" x="8" y="-19" font-family="Helvetica,sans-Serif" font-size="10.00">+ setInitialState()</text>
<text text-anchor="start" x="8" y="-8" font-family="Helvetica,sans-Serif" font-size="10.00">+ convertParams()</text>
</g>
<!-- Node2 -->
<g id="node2" class="node"><title>Node2</title>
<polygon fill="white" stroke="#bfbfbf" points="28.5,-173 28.5,-241 135.5,-241 135.5,-173 28.5,-173"/>
<text text-anchor="start" x="36.5" y="-229" font-family="Helvetica,sans-Serif" font-size="10.00">dynamic_reconfigure</text>
<text text-anchor="middle" x="82" y="-218" font-family="Helvetica,sans-Serif" font-size="10.00">::Group</text>
<polyline fill="none" stroke="#bfbfbf" points="28.5,-211 135.5,-211 "/>
<text text-anchor="middle" x="82" y="-199" font-family="Helvetica,sans-Serif" font-size="10.00"> </text>
<polyline fill="none" stroke="#bfbfbf" points="28.5,-192 135.5,-192 "/>
<text text-anchor="middle" x="82" y="-180" font-family="Helvetica,sans-Serif" font-size="10.00"> </text>
</g>
<!-- Node2&#45;&gt;Node1 -->
<g id="edge1" class="edge"><title>Node2&#45;&gt;Node1</title>
<path fill="none" stroke="midnightblue" d="M82,-162.83C82,-154.015 82,-144.549 82,-135.142"/>
<polygon fill="none" stroke="midnightblue" points="78.5001,-162.836 82,-172.836 85.5001,-162.836 78.5001,-162.836"/>
</g>
</g>
</svg>
