<?xml version="1.0" encoding="UTF-8" standalone="no"?>
<!DOCTYPE svg PUBLIC "-//W3C//DTD SVG 1.1//EN"
 "http://www.w3.org/Graphics/SVG/1.1/DTD/svg11.dtd">
<!-- Generated by graphviz version 2.36.0 (20140111.2315)
 -->
<!-- Title: annClusGaussPts Pages: 1 -->
<svg width="220pt" height="66pt"
 viewBox="0.00 0.00 220.00 66.00" xmlns="http://www.w3.org/2000/svg" xmlns:xlink="http://www.w3.org/1999/xlink">
<g id="graph0" class="graph" transform="scale(1 1) rotate(0) translate(4 62)">
<title>annClusGaussPts</title>
<polygon fill="white" stroke="none" points="-4,4 -4,-62 216,-62 216,4 -4,4"/>
<!-- Node1 -->
<g id="node1" class="node"><title>Node1</title>
<polygon fill="#bfbfbf" stroke="black" points="0,-19.5 0,-38.5 96,-38.5 96,-19.5 0,-19.5"/>
<text text-anchor="middle" x="48" y="-26.5" font-family="Helvetica,sans-Serif" font-size="10.00">annClusGaussPts</text>
</g>
<!-- Node2 -->
<g id="node2" class="node"><title>Node2</title>
<g id="a_node2"><a xlink:href="../../d8/da9/ANN_8h.html#af45ca32b2926c0e7c20c458e555c8c04" target="_top" xlink:title="annDeallocPts">
<polygon fill="white" stroke="black" points="132,-38.5 132,-57.5 212,-57.5 212,-38.5 132,-38.5"/>
<text text-anchor="middle" x="172" y="-45.5" font-family="Helvetica,sans-Serif" font-size="10.00">annDeallocPts</text>
</a>
</g>
</g>
<!-- Node1&#45;&gt;Node2 -->
<g id="edge1" class="edge"><title>Node1&#45;&gt;Node2</title>
<path fill="none" stroke="midnightblue" d="M96.1684,-36.3459C104.558,-37.6525 113.317,-39.0165 121.762,-40.3319"/>
<polygon fill="midnightblue" stroke="midnightblue" points="121.444,-43.8244 131.864,-41.905 122.521,-36.9078 121.444,-43.8244"/>
</g>
<!-- Node3 -->
<g id="node3" class="node"><title>Node3</title>
<g id="a_node3"><a xlink:href="../../d8/da9/ANN_8h.html#a7d801c6084e348aefc8d675d5b8f2f9a" target="_top" xlink:title="annAllocPts">
<polygon fill="white" stroke="black" points="137.5,-0.5 137.5,-19.5 206.5,-19.5 206.5,-0.5 137.5,-0.5"/>
<text text-anchor="middle" x="172" y="-7.5" font-family="Helvetica,sans-Serif" font-size="10.00">annAllocPts</text>
</a>
</g>
</g>
<!-- Node1&#45;&gt;Node3 -->
<g id="edge2" class="edge"><title>Node1&#45;&gt;Node3</title>
<path fill="none" stroke="midnightblue" d="M96.1684,-21.6541C106.321,-20.073 117.012,-18.4079 127.037,-16.8468"/>
<polygon fill="midnightblue" stroke="midnightblue" points="127.849,-20.2626 137.191,-15.2654 126.771,-13.346 127.849,-20.2626"/>
</g>
</g>
</svg>
