<?xml version="1.0" encoding="UTF-8" standalone="no"?>
<!DOCTYPE svg PUBLIC "-//W3C//DTD SVG 1.1//EN"
 "http://www.w3.org/Graphics/SVG/1.1/DTD/svg11.dtd">
<!-- Generated by graphviz version 2.36.0 (20140111.2315)
 -->
<!-- Title: thirdparty/Sophus/sophus/so2.hpp Pages: 1 -->
<svg width="282pt" height="176pt"
 viewBox="0.00 0.00 282.00 176.00" xmlns="http://www.w3.org/2000/svg" xmlns:xlink="http://www.w3.org/1999/xlink">
<g id="graph0" class="graph" transform="scale(1 1) rotate(0) translate(4 172)">
<title>thirdparty/Sophus/sophus/so2.hpp</title>
<polygon fill="white" stroke="none" points="-4,4 -4,-172 278,-172 278,4 -4,4"/>
<!-- Node1 -->
<g id="node1" class="node"><title>Node1</title>
<polygon fill="#bfbfbf" stroke="black" points="73,-137 73,-167 201,-167 201,-137 73,-137"/>
<text text-anchor="start" x="81" y="-155" font-family="Helvetica,sans-Serif" font-size="10.00">thirdparty/Sophus/sophus</text>
<text text-anchor="middle" x="137" y="-144" font-family="Helvetica,sans-Serif" font-size="10.00">/so2.hpp</text>
</g>
<!-- Node2 -->
<g id="node2" class="node"><title>Node2</title>
<g id="a_node2"><a xlink:href="../../df/ded/se2_8hpp.html" target="_top" xlink:title="thirdparty/Sophus/sophus\l/se2.hpp">
<polygon fill="white" stroke="black" points="0,-69 0,-99 128,-99 128,-69 0,-69"/>
<text text-anchor="start" x="8" y="-87" font-family="Helvetica,sans-Serif" font-size="10.00">thirdparty/Sophus/sophus</text>
<text text-anchor="middle" x="64" y="-76" font-family="Helvetica,sans-Serif" font-size="10.00">/se2.hpp</text>
</a>
</g>
</g>
<!-- Node1&#45;&gt;Node2 -->
<g id="edge1" class="edge"><title>Node1&#45;&gt;Node2</title>
<path fill="none" stroke="midnightblue" d="M113.47,-129.727C102.366,-119.687 89.4206,-107.983 79.5582,-99.0663"/>
<polygon fill="midnightblue" stroke="midnightblue" points="111.395,-132.569 121.16,-136.679 116.09,-127.376 111.395,-132.569"/>
</g>
<!-- Node4 -->
<g id="node4" class="node"><title>Node4</title>
<g id="a_node4"><a xlink:href="../../d5/d4f/test__so2_8cpp.html" target="_top" xlink:title="thirdparty/Sophus/sophus\l/test_so2.cpp">
<polygon fill="white" stroke="black" points="146,-69 146,-99 274,-99 274,-69 146,-69"/>
<text text-anchor="start" x="154" y="-87" font-family="Helvetica,sans-Serif" font-size="10.00">thirdparty/Sophus/sophus</text>
<text text-anchor="middle" x="210" y="-76" font-family="Helvetica,sans-Serif" font-size="10.00">/test_so2.cpp</text>
</a>
</g>
</g>
<!-- Node1&#45;&gt;Node4 -->
<g id="edge3" class="edge"><title>Node1&#45;&gt;Node4</title>
<path fill="none" stroke="midnightblue" d="M160.53,-129.727C171.634,-119.687 184.579,-107.983 194.442,-99.0663"/>
<polygon fill="midnightblue" stroke="midnightblue" points="157.91,-127.376 152.84,-136.679 162.605,-132.569 157.91,-127.376"/>
</g>
<!-- Node3 -->
<g id="node3" class="node"><title>Node3</title>
<g id="a_node3"><a xlink:href="../../dd/df9/test__se2_8cpp.html" target="_top" xlink:title="thirdparty/Sophus/sophus\l/test_se2.cpp">
<polygon fill="white" stroke="black" points="0,-1 0,-31 128,-31 128,-1 0,-1"/>
<text text-anchor="start" x="8" y="-19" font-family="Helvetica,sans-Serif" font-size="10.00">thirdparty/Sophus/sophus</text>
<text text-anchor="middle" x="64" y="-8" font-family="Helvetica,sans-Serif" font-size="10.00">/test_se2.cpp</text>
</a>
</g>
</g>
<!-- Node2&#45;&gt;Node3 -->
<g id="edge2" class="edge"><title>Node2&#45;&gt;Node3</title>
<path fill="none" stroke="midnightblue" d="M64,-58.5322C64,-49.3606 64,-39.2449 64,-31.2931"/>
<polygon fill="midnightblue" stroke="midnightblue" points="60.5001,-58.6789 64,-68.679 67.5001,-58.679 60.5001,-58.6789"/>
</g>
</g>
</svg>
