<?xml version="1.0" encoding="UTF-8" standalone="no"?>
<!DOCTYPE svg PUBLIC "-//W3C//DTD SVG 1.1//EN"
 "http://www.w3.org/Graphics/SVG/1.1/DTD/svg11.dtd">
<!-- Generated by graphviz version 2.36.0 (20140111.2315)
 -->
<!-- Title: VideoDynamicAdaptedFeatureDetector::clone Pages: 1 -->
<svg width="388pt" height="48pt"
 viewBox="0.00 0.00 388.00 48.00" xmlns="http://www.w3.org/2000/svg" xmlns:xlink="http://www.w3.org/1999/xlink">
<g id="graph0" class="graph" transform="scale(1 1) rotate(0) translate(4 44)">
<title>VideoDynamicAdaptedFeatureDetector::clone</title>
<polygon fill="white" stroke="none" points="-4,4 -4,-44 384,-44 384,4 -4,4"/>
<!-- Node1 -->
<g id="node1" class="node"><title>Node1</title>
<polygon fill="#bfbfbf" stroke="black" points="0.5,-5 0.5,-35 149.5,-35 149.5,-5 0.5,-5"/>
<text text-anchor="start" x="8.5" y="-23" font-family="Helvetica,sans-Serif" font-size="10.00">VideoDynamicAdaptedFeature</text>
<text text-anchor="middle" x="75" y="-12" font-family="Helvetica,sans-Serif" font-size="10.00">Detector::clone</text>
</g>
<!-- Node2 -->
<g id="node2" class="node"><title>Node2</title>
<g id="a_node2"><a xlink:href="../../df/de2/classVideoDynamicAdaptedFeatureDetector.html#a985c20982318855085dfaf20ad6ed647" target="_top" xlink:title="VideoDynamicAdaptedFeature\lDetector::VideoDynamicAdaptedFeature\lDetector">
<polygon fill="white" stroke="black" points="186.5,0.5 186.5,-40.5 379.5,-40.5 379.5,0.5 186.5,0.5"/>
<text text-anchor="start" x="194.5" y="-28.5" font-family="Helvetica,sans-Serif" font-size="10.00">VideoDynamicAdaptedFeature</text>
<text text-anchor="start" x="194.5" y="-17.5" font-family="Helvetica,sans-Serif" font-size="10.00">Detector::VideoDynamicAdaptedFeature</text>
<text text-anchor="middle" x="283" y="-6.5" font-family="Helvetica,sans-Serif" font-size="10.00">Detector</text>
</a>
</g>
</g>
<!-- Node1&#45;&gt;Node2 -->
<g id="edge1" class="edge"><title>Node1&#45;&gt;Node2</title>
<path fill="none" stroke="midnightblue" d="M149.789,-20C158.429,-20 167.367,-20 176.333,-20"/>
<polygon fill="midnightblue" stroke="midnightblue" points="176.452,-23.5001 186.452,-20 176.452,-16.5001 176.452,-23.5001"/>
</g>
</g>
</svg>
