<?xml version="1.0" encoding="UTF-8" standalone="no"?>
<!DOCTYPE svg PUBLIC "-//W3C//DTD SVG 1.1//EN"
 "http://www.w3.org/Graphics/SVG/1.1/DTD/svg11.dtd">
<!-- Generated by graphviz version 2.36.0 (20140111.2315)
 -->
<!-- Title: ANNpointSet Pages: 1 -->
<svg width="227pt" height="552pt"
 viewBox="0.00 0.00 227.00 552.00" xmlns="http://www.w3.org/2000/svg" xmlns:xlink="http://www.w3.org/1999/xlink">
<g id="graph0" class="graph" transform="scale(1 1) rotate(0) translate(4 548)">
<title>ANNpointSet</title>
<polygon fill="white" stroke="none" points="-4,4 -4,-548 223,-548 223,4 -4,4"/>
<!-- Node1 -->
<g id="node1" class="node"><title>Node1</title>
<polygon fill="#bfbfbf" stroke="black" points="62.5,-431 62.5,-543 159.5,-543 159.5,-431 62.5,-431"/>
<text text-anchor="middle" x="111" y="-531" font-family="Helvetica,sans-Serif" font-size="10.00">ANNpointSet</text>
<polyline fill="none" stroke="black" points="62.5,-524 159.5,-524 "/>
<text text-anchor="middle" x="111" y="-512" font-family="Helvetica,sans-Serif" font-size="10.00"> </text>
<polyline fill="none" stroke="black" points="62.5,-505 159.5,-505 "/>
<text text-anchor="start" x="70.5" y="-493" font-family="Helvetica,sans-Serif" font-size="10.00">+ ~ANNpointSet()</text>
<text text-anchor="start" x="70.5" y="-482" font-family="Helvetica,sans-Serif" font-size="10.00">+ annkSearch()</text>
<text text-anchor="start" x="70.5" y="-471" font-family="Helvetica,sans-Serif" font-size="10.00">+ annkFRSearch()</text>
<text text-anchor="start" x="70.5" y="-460" font-family="Helvetica,sans-Serif" font-size="10.00">+ theDim()</text>
<text text-anchor="start" x="70.5" y="-449" font-family="Helvetica,sans-Serif" font-size="10.00">+ nPoints()</text>
<text text-anchor="start" x="70.5" y="-438" font-family="Helvetica,sans-Serif" font-size="10.00">+ thePoints()</text>
</g>
<!-- Node2 -->
<g id="node2" class="node"><title>Node2</title>
<g id="a_node2"><a xlink:href="../../da/dd1/classANNbruteForce.html" target="_top" xlink:title="{ANNbruteForce\n||+ ANNbruteForce()\l+ ~ANNbruteForce()\l+ annkSearch()\l+ annkFRSearch()\l+ theDim()\l+ nPoints()\l+ thePoints()\l}">
<polygon fill="white" stroke="black" points="-1,-193.5 -1,-316.5 105,-316.5 105,-193.5 -1,-193.5"/>
<text text-anchor="middle" x="52" y="-304.5" font-family="Helvetica,sans-Serif" font-size="10.00">ANNbruteForce</text>
<polyline fill="none" stroke="black" points="-1,-297.5 105,-297.5 "/>
<text text-anchor="middle" x="52" y="-285.5" font-family="Helvetica,sans-Serif" font-size="10.00"> </text>
<polyline fill="none" stroke="black" points="-1,-278.5 105,-278.5 "/>
<text text-anchor="start" x="7" y="-266.5" font-family="Helvetica,sans-Serif" font-size="10.00">+ ANNbruteForce()</text>
<text text-anchor="start" x="7" y="-255.5" font-family="Helvetica,sans-Serif" font-size="10.00">+ ~ANNbruteForce()</text>
<text text-anchor="start" x="7" y="-244.5" font-family="Helvetica,sans-Serif" font-size="10.00">+ annkSearch()</text>
<text text-anchor="start" x="7" y="-233.5" font-family="Helvetica,sans-Serif" font-size="10.00">+ annkFRSearch()</text>
<text text-anchor="start" x="7" y="-222.5" font-family="Helvetica,sans-Serif" font-size="10.00">+ theDim()</text>
<text text-anchor="start" x="7" y="-211.5" font-family="Helvetica,sans-Serif" font-size="10.00">+ nPoints()</text>
<text text-anchor="start" x="7" y="-200.5" font-family="Helvetica,sans-Serif" font-size="10.00">+ thePoints()</text>
</a>
</g>
</g>
<!-- Node1&#45;&gt;Node2 -->
<g id="edge1" class="edge"><title>Node1&#45;&gt;Node2</title>
<path fill="none" stroke="midnightblue" d="M94.3215,-420.982C85.9252,-388.251 75.8084,-348.812 67.5718,-316.704"/>
<polygon fill="none" stroke="midnightblue" points="90.993,-422.093 96.868,-430.909 97.7734,-420.353 90.993,-422.093"/>
</g>
<!-- Node3 -->
<g id="node3" class="node"><title>Node3</title>
<g id="a_node3"><a xlink:href="../../d2/d8c/classANNkd__tree.html" target="_top" xlink:title="{ANNkd_tree\n|# dim\l# n_pts\l# bkt_size\l# pts\l# pidx\l# root\l# bnd_box_lo\l# bnd_box_hi\l|+ ANNkd_tree()\l+ ANNkd_tree()\l+ ANNkd_tree()\l+ ~ANNkd_tree()\l+ annkSearch()\l+ annkPriSearch()\l+ annkFRSearch()\l+ theDim()\l+ nPoints()\l+ thePoints()\l+ Print()\l+ Dump()\l+ getStats()\l# SkeletonTree()\l}">
<polygon fill="white" stroke="black" points="122.5,-116.5 122.5,-393.5 219.5,-393.5 219.5,-116.5 122.5,-116.5"/>
<text text-anchor="middle" x="171" y="-381.5" font-family="Helvetica,sans-Serif" font-size="10.00">ANNkd_tree</text>
<polyline fill="none" stroke="black" points="122.5,-374.5 219.5,-374.5 "/>
<text text-anchor="start" x="130.5" y="-362.5" font-family="Helvetica,sans-Serif" font-size="10.00"># dim</text>
<text text-anchor="start" x="130.5" y="-351.5" font-family="Helvetica,sans-Serif" font-size="10.00"># n_pts</text>
<text text-anchor="start" x="130.5" y="-340.5" font-family="Helvetica,sans-Serif" font-size="10.00"># bkt_size</text>
<text text-anchor="start" x="130.5" y="-329.5" font-family="Helvetica,sans-Serif" font-size="10.00"># pts</text>
<text text-anchor="start" x="130.5" y="-318.5" font-family="Helvetica,sans-Serif" font-size="10.00"># pidx</text>
<text text-anchor="start" x="130.5" y="-307.5" font-family="Helvetica,sans-Serif" font-size="10.00"># root</text>
<text text-anchor="start" x="130.5" y="-296.5" font-family="Helvetica,sans-Serif" font-size="10.00"># bnd_box_lo</text>
<text text-anchor="start" x="130.5" y="-285.5" font-family="Helvetica,sans-Serif" font-size="10.00"># bnd_box_hi</text>
<polyline fill="none" stroke="black" points="122.5,-278.5 219.5,-278.5 "/>
<text text-anchor="start" x="130.5" y="-266.5" font-family="Helvetica,sans-Serif" font-size="10.00">+ ANNkd_tree()</text>
<text text-anchor="start" x="130.5" y="-255.5" font-family="Helvetica,sans-Serif" font-size="10.00">+ ANNkd_tree()</text>
<text text-anchor="start" x="130.5" y="-244.5" font-family="Helvetica,sans-Serif" font-size="10.00">+ ANNkd_tree()</text>
<text text-anchor="start" x="130.5" y="-233.5" font-family="Helvetica,sans-Serif" font-size="10.00">+ ~ANNkd_tree()</text>
<text text-anchor="start" x="130.5" y="-222.5" font-family="Helvetica,sans-Serif" font-size="10.00">+ annkSearch()</text>
<text text-anchor="start" x="130.5" y="-211.5" font-family="Helvetica,sans-Serif" font-size="10.00">+ annkPriSearch()</text>
<text text-anchor="start" x="130.5" y="-200.5" font-family="Helvetica,sans-Serif" font-size="10.00">+ annkFRSearch()</text>
<text text-anchor="start" x="130.5" y="-189.5" font-family="Helvetica,sans-Serif" font-size="10.00">+ theDim()</text>
<text text-anchor="start" x="130.5" y="-178.5" font-family="Helvetica,sans-Serif" font-size="10.00">+ nPoints()</text>
<text text-anchor="start" x="130.5" y="-167.5" font-family="Helvetica,sans-Serif" font-size="10.00">+ thePoints()</text>
<text text-anchor="start" x="130.5" y="-156.5" font-family="Helvetica,sans-Serif" font-size="10.00">+ Print()</text>
<text text-anchor="start" x="130.5" y="-145.5" font-family="Helvetica,sans-Serif" font-size="10.00">+ Dump()</text>
<text text-anchor="start" x="130.5" y="-134.5" font-family="Helvetica,sans-Serif" font-size="10.00">+ getStats()</text>
<text text-anchor="start" x="130.5" y="-123.5" font-family="Helvetica,sans-Serif" font-size="10.00"># SkeletonTree()</text>
</a>
</g>
</g>
<!-- Node1&#45;&gt;Node3 -->
<g id="edge2" class="edge"><title>Node1&#45;&gt;Node3</title>
<path fill="none" stroke="midnightblue" d="M127.907,-421.188C130.205,-412.381 132.63,-403.085 135.111,-393.575"/>
<polygon fill="none" stroke="midnightblue" points="124.509,-420.35 125.371,-430.909 131.282,-422.117 124.509,-420.35"/>
</g>
<!-- Node4 -->
<g id="node4" class="node"><title>Node4</title>
<g id="a_node4"><a xlink:href="../../d7/d4d/classANNbd__tree.html" target="_top" xlink:title="{ANNbd_tree\n||+ ANNbd_tree()\l+ ANNbd_tree()\l+ ANNbd_tree()\l}">
<polygon fill="white" stroke="black" points="128,-0.5 128,-79.5 214,-79.5 214,-0.5 128,-0.5"/>
<text text-anchor="middle" x="171" y="-67.5" font-family="Helvetica,sans-Serif" font-size="10.00">ANNbd_tree</text>
<polyline fill="none" stroke="black" points="128,-60.5 214,-60.5 "/>
<text text-anchor="middle" x="171" y="-48.5" font-family="Helvetica,sans-Serif" font-size="10.00"> </text>
<polyline fill="none" stroke="black" points="128,-41.5 214,-41.5 "/>
<text text-anchor="start" x="136" y="-29.5" font-family="Helvetica,sans-Serif" font-size="10.00">+ ANNbd_tree()</text>
<text text-anchor="start" x="136" y="-18.5" font-family="Helvetica,sans-Serif" font-size="10.00">+ ANNbd_tree()</text>
<text text-anchor="start" x="136" y="-7.5" font-family="Helvetica,sans-Serif" font-size="10.00">+ ANNbd_tree()</text>
</a>
</g>
</g>
<!-- Node3&#45;&gt;Node4 -->
<g id="edge3" class="edge"><title>Node3&#45;&gt;Node4</title>
<path fill="none" stroke="midnightblue" d="M171,-106.252C171,-96.6846 171,-87.6428 171,-79.51"/>
<polygon fill="none" stroke="midnightblue" points="167.5,-106.396 171,-116.396 174.5,-106.396 167.5,-106.396"/>
</g>
</g>
</svg>
