<?xml version="1.0" encoding="UTF-8" standalone="no"?>
<!DOCTYPE svg PUBLIC "-//W3C//DTD SVG 1.1//EN"
 "http://www.w3.org/Graphics/SVG/1.1/DTD/svg11.dtd">
<!-- Generated by graphviz version 2.36.0 (20140111.2315)
 -->
<!-- Title: src/DataStructures/Frame.h Pages: 1 -->
<!--zoomable 524 -->
<svg id="main" version="1.1" xmlns="http://www.w3.org/2000/svg" xmlns:xlink="http://www.w3.org/1999/xlink" xml:space="preserve" onload="init(evt)">
<style type="text/css"><![CDATA[
.edge:hover path { stroke: red; }
.edge:hover polygon { stroke: red; fill: red; }
]]></style>
<script type="text/javascript"><![CDATA[
var edges = document.getElementsByTagName('g');
if (edges && edges.length) {
  for (var i=0;i<edges.length;i++) {
    if (edges[i].id.substr(0,4)=='edge') {
      edges[i].setAttribute('class','edge');
    }
  }
}
]]></script>
        <defs>
                <circle id="rim" cx="0" cy="0" r="7"/>
                <circle id="rim2" cx="0" cy="0" r="3.5"/>
                <g id="zoomPlus">
                        <use xlink:href="#rim" fill="#404040">
                                <set attributeName="fill" to="#808080" begin="zoomplus.mouseover" end="zoomplus.mouseout"/>
                        </use>
                        <path d="M-4,0h8M0,-4v8" fill="none" stroke="white" stroke-width="1.5" pointer-events="none"/>
                </g>
                <g id="zoomMin">
                        <use xlink:href="#rim" fill="#404040">
                                <set attributeName="fill" to="#808080" begin="zoomminus.mouseover" end="zoomminus.mouseout"/>
                        </use>
                        <path d="M-4,0h8" fill="none" stroke="white" stroke-width="1.5" pointer-events="none"/>
                </g>
                <g id="dirArrow">
                        <path fill="none" stroke="white" stroke-width="1.5" d="M0,-3.0v7 M-2.5,-0.5L0,-3.0L2.5,-0.5"/>
                </g>
               <g id="resetDef">
                       <use xlink:href="#rim2" fill="#404040">
                               <set attributeName="fill" to="#808080" begin="reset.mouseover" end="reset.mouseout"/>
                       </use>
               </g>
        </defs>

<script type="text/javascript">
var viewWidth = 999;
var viewHeight = 524;
var sectionId = 'dynsection-0';
</script>
<script xlink:href="../../svgpan.js"/>
<svg id="graph" class="graph">
<g id="viewport">
<title>src/DataStructures/Frame.h</title>
<polygon fill="white" stroke="none" points="-4,4 -4,-520 995,-520 995,4 -4,4"/>
<!-- Node1 -->
<g id="node1" class="node"><title>Node1</title>
<polygon fill="#bfbfbf" stroke="black" points="304.5,-485 304.5,-515 403.5,-515 403.5,-485 304.5,-485"/>
<text text-anchor="start" x="312.5" y="-503" font-family="Helvetica,sans-Serif" font-size="10.00">src/DataStructures</text>
<text text-anchor="middle" x="354" y="-492" font-family="Helvetica,sans-Serif" font-size="10.00">/Frame.h</text>
</g>
<!-- Node2 -->
<g id="node2" class="node"><title>Node2</title>
<g id="a_node2"><a xlink:href="../../d2/d13/SophusUtil_8h.html" target="_top" xlink:title="util/SophusUtil.h">
<polygon fill="white" stroke="black" points="80.5,-286.5 80.5,-305.5 169.5,-305.5 169.5,-286.5 80.5,-286.5"/>
<text text-anchor="middle" x="125" y="-293.5" font-family="Helvetica,sans-Serif" font-size="10.00">util/SophusUtil.h</text>
</a>
</g>
</g>
<!-- Node1&#45;&gt;Node2 -->
<g id="edge1" class="edge"><title>Node1&#45;&gt;Node2</title>
<path fill="none" stroke="midnightblue" d="M304.21,-498.065C226.938,-495.443 83.7087,-485.512 52,-448 41.9139,-436.068 43.2187,-373.206 57,-348 65.8851,-331.749 82.4026,-319.175 96.933,-310.577"/>
<polygon fill="midnightblue" stroke="midnightblue" points="99.0422,-313.41 106.094,-305.504 95.6507,-307.287 99.0422,-313.41"/>
</g>
<!-- Node11 -->
<g id="node11" class="node"><title>Node11</title>
<g id="a_node11"><a xlink:href="../../de/d60/settings_8h.html" target="_top" xlink:title="util/settings.h">
<polygon fill="white" stroke="black" points="61.5,-422.5 61.5,-441.5 136.5,-441.5 136.5,-422.5 61.5,-422.5"/>
<text text-anchor="middle" x="99" y="-429.5" font-family="Helvetica,sans-Serif" font-size="10.00">util/settings.h</text>
</a>
</g>
</g>
<!-- Node1&#45;&gt;Node11 -->
<g id="edge12" class="edge"><title>Node1&#45;&gt;Node11</title>
<path fill="none" stroke="midnightblue" d="M304.316,-487.994C261.794,-478.309 199.064,-463.387 145,-448 141.395,-446.974 137.649,-445.85 133.92,-444.693"/>
<polygon fill="midnightblue" stroke="midnightblue" points="134.792,-441.297 124.202,-441.599 132.669,-447.968 134.792,-441.297"/>
</g>
<!-- Node14 -->
<g id="node14" class="node"><title>Node14</title>
<polygon fill="white" stroke="#bfbfbf" points="154.5,-417 154.5,-447 267.5,-447 267.5,-417 154.5,-417"/>
<text text-anchor="start" x="162.5" y="-435" font-family="Helvetica,sans-Serif" font-size="10.00">boost/thread/recursive</text>
<text text-anchor="middle" x="211" y="-424" font-family="Helvetica,sans-Serif" font-size="10.00">_mutex.hpp</text>
</g>
<!-- Node1&#45;&gt;Node14 -->
<g id="edge15" class="edge"><title>Node1&#45;&gt;Node14</title>
<path fill="none" stroke="midnightblue" d="M323.323,-484.841C302.117,-475.054 273.706,-461.941 250.764,-451.353"/>
<polygon fill="midnightblue" stroke="midnightblue" points="252.173,-448.148 241.626,-447.135 249.239,-454.504 252.173,-448.148"/>
</g>
<!-- Node15 -->
<g id="node15" class="node"><title>Node15</title>
<polygon fill="white" stroke="#bfbfbf" points="396.5,-349 396.5,-379 499.5,-379 499.5,-349 396.5,-349"/>
<text text-anchor="start" x="404.5" y="-367" font-family="Helvetica,sans-Serif" font-size="10.00">boost/thread/shared</text>
<text text-anchor="middle" x="448" y="-356" font-family="Helvetica,sans-Serif" font-size="10.00">_mutex.hpp</text>
</g>
<!-- Node1&#45;&gt;Node15 -->
<g id="edge16" class="edge"><title>Node1&#45;&gt;Node15</title>
<path fill="none" stroke="midnightblue" d="M386.597,-484.825C402.347,-476.352 420.143,-464.079 431,-448 442.724,-430.637 446.665,-406.9 447.853,-389.258"/>
<polygon fill="midnightblue" stroke="midnightblue" points="451.354,-389.312 448.283,-379.172 444.361,-389.014 451.354,-389.312"/>
</g>
<!-- Node16 -->
<g id="node16" class="node"><title>Node16</title>
<g id="a_node16"><a xlink:href="../../db/d75/FramePoseStruct_8h.html" target="_top" xlink:title="DataStructures/FramePose\lStruct.h">
<polygon fill="white" stroke="black" points="286,-417 286,-447 422,-447 422,-417 286,-417"/>
<text text-anchor="start" x="294" y="-435" font-family="Helvetica,sans-Serif" font-size="10.00">DataStructures/FramePose</text>
<text text-anchor="middle" x="354" y="-424" font-family="Helvetica,sans-Serif" font-size="10.00">Struct.h</text>
</a>
</g>
</g>
<!-- Node1&#45;&gt;Node16 -->
<g id="edge17" class="edge"><title>Node1&#45;&gt;Node16</title>
<path fill="none" stroke="midnightblue" d="M354,-484.679C354,-476.722 354,-466.605 354,-457.436"/>
<polygon fill="midnightblue" stroke="midnightblue" points="357.5,-457.293 354,-447.293 350.5,-457.293 357.5,-457.293"/>
</g>
<!-- Node21 -->
<g id="node21" class="node"><title>Node21</title>
<g id="a_node21"><a xlink:href="../../dd/d8b/FrameMemory_8h.html" target="_top" xlink:title="DataStructures/FrameMemory.h">
<polygon fill="white" stroke="black" points="562.5,-422.5 562.5,-441.5 719.5,-441.5 719.5,-422.5 562.5,-422.5"/>
<text text-anchor="middle" x="641" y="-429.5" font-family="Helvetica,sans-Serif" font-size="10.00">DataStructures/FrameMemory.h</text>
</a>
</g>
</g>
<!-- Node1&#45;&gt;Node21 -->
<g id="edge24" class="edge"><title>Node1&#45;&gt;Node21</title>
<path fill="none" stroke="midnightblue" d="M403.664,-487.579C457.059,-475.3 541.32,-455.923 593.758,-443.864"/>
<polygon fill="midnightblue" stroke="midnightblue" points="594.842,-447.206 603.803,-441.554 593.273,-440.384 594.842,-447.206"/>
</g>
<!-- Node28 -->
<g id="node28" class="node"><title>Node28</title>
<polygon fill="white" stroke="#bfbfbf" points="738,-422.5 738,-441.5 816,-441.5 816,-422.5 738,-422.5"/>
<text text-anchor="middle" x="777" y="-429.5" font-family="Helvetica,sans-Serif" font-size="10.00">unordered_set</text>
</g>
<!-- Node1&#45;&gt;Node28 -->
<g id="edge32" class="edge"><title>Node1&#45;&gt;Node28</title>
<path fill="none" stroke="midnightblue" d="M403.756,-494.794C475.846,-488.12 613.272,-473.21 728,-448 732.521,-447.007 737.229,-445.797 741.86,-444.501"/>
<polygon fill="midnightblue" stroke="midnightblue" points="743.175,-447.762 751.775,-441.574 741.193,-441.049 743.175,-447.762"/>
</g>
<!-- Node3 -->
<g id="node3" class="node"><title>Node3</title>
<g id="a_node3"><a xlink:href="../../dc/d5c/sim3_8hpp.html" target="_top" xlink:title="sophus/sim3.hpp">
<polygon fill="white" stroke="black" points="42.5,-224.5 42.5,-243.5 133.5,-243.5 133.5,-224.5 42.5,-224.5"/>
<text text-anchor="middle" x="88" y="-231.5" font-family="Helvetica,sans-Serif" font-size="10.00">sophus/sim3.hpp</text>
</a>
</g>
</g>
<!-- Node2&#45;&gt;Node3 -->
<g id="edge2" class="edge"><title>Node2&#45;&gt;Node3</title>
<path fill="none" stroke="midnightblue" d="M119.699,-286.403C114.204,-277.493 105.467,-263.325 98.5559,-252.118"/>
<polygon fill="midnightblue" stroke="midnightblue" points="101.519,-250.255 93.2914,-243.581 95.5612,-253.929 101.519,-250.255"/>
</g>
<!-- Node10 -->
<g id="node10" class="node"><title>Node10</title>
<g id="a_node10"><a xlink:href="../../d4/d4b/se3_8hpp.html" target="_top" xlink:title="sophus/se3.hpp">
<polygon fill="white" stroke="black" points="132,-168.5 132,-187.5 218,-187.5 218,-168.5 132,-168.5"/>
<text text-anchor="middle" x="175" y="-175.5" font-family="Helvetica,sans-Serif" font-size="10.00">sophus/se3.hpp</text>
</a>
</g>
</g>
<!-- Node2&#45;&gt;Node10 -->
<g id="edge10" class="edge"><title>Node2&#45;&gt;Node10</title>
<path fill="none" stroke="midnightblue" d="M128.758,-286.281C136.906,-267.379 156.338,-222.295 167.241,-197"/>
<polygon fill="midnightblue" stroke="midnightblue" points="170.59,-198.073 171.334,-187.505 164.162,-195.303 170.59,-198.073"/>
</g>
<!-- Node4 -->
<g id="node4" class="node"><title>Node4</title>
<g id="a_node4"><a xlink:href="../../d7/d6a/rxso3_8hpp.html" target="_top" xlink:title="rxso3.hpp">
<polygon fill="white" stroke="black" points="54.5,-168.5 54.5,-187.5 113.5,-187.5 113.5,-168.5 54.5,-168.5"/>
<text text-anchor="middle" x="84" y="-175.5" font-family="Helvetica,sans-Serif" font-size="10.00">rxso3.hpp</text>
</a>
</g>
</g>
<!-- Node3&#45;&gt;Node4 -->
<g id="edge3" class="edge"><title>Node3&#45;&gt;Node4</title>
<path fill="none" stroke="midnightblue" d="M87.3395,-224.083C86.8152,-217.006 86.0638,-206.861 85.4064,-197.986"/>
<polygon fill="midnightblue" stroke="midnightblue" points="88.8775,-197.465 84.6482,-187.751 81.8966,-197.982 88.8775,-197.465"/>
</g>
<!-- Node5 -->
<g id="node5" class="node"><title>Node5</title>
<g id="a_node5"><a xlink:href="../../d7/dc1/sophus_8hpp.html" target="_top" xlink:title="sophus.hpp">
<polygon fill="white" stroke="black" points="77.5,-56.5 77.5,-75.5 144.5,-75.5 144.5,-56.5 77.5,-56.5"/>
<text text-anchor="middle" x="111" y="-63.5" font-family="Helvetica,sans-Serif" font-size="10.00">sophus.hpp</text>
</a>
</g>
</g>
<!-- Node4&#45;&gt;Node5 -->
<g id="edge4" class="edge"><title>Node4&#45;&gt;Node5</title>
<path fill="none" stroke="midnightblue" d="M86.1186,-168.368C90.4758,-150.617 100.527,-109.666 106.435,-85.5974"/>
<polygon fill="midnightblue" stroke="midnightblue" points="109.906,-86.1375 108.891,-75.5914 103.108,-84.4688 109.906,-86.1375"/>
</g>
<!-- Node9 -->
<g id="node9" class="node"><title>Node9</title>
<g id="a_node9"><a xlink:href="../../de/de9/so3_8hpp.html" target="_top" xlink:title="so3.hpp">
<polygon fill="white" stroke="black" points="112.5,-112.5 112.5,-131.5 163.5,-131.5 163.5,-112.5 112.5,-112.5"/>
<text text-anchor="middle" x="138" y="-119.5" font-family="Helvetica,sans-Serif" font-size="10.00">so3.hpp</text>
</a>
</g>
</g>
<!-- Node4&#45;&gt;Node9 -->
<g id="edge8" class="edge"><title>Node4&#45;&gt;Node9</title>
<path fill="none" stroke="midnightblue" d="M92.917,-168.083C100.78,-160.22 112.431,-148.569 121.919,-139.081"/>
<polygon fill="midnightblue" stroke="midnightblue" points="124.653,-141.297 129.249,-131.751 119.703,-136.347 124.653,-141.297"/>
</g>
<!-- Node6 -->
<g id="node6" class="node"><title>Node6</title>
<polygon fill="white" stroke="#bfbfbf" points="-0.5,-0.5 -0.5,-19.5 58.5,-19.5 58.5,-0.5 -0.5,-0.5"/>
<text text-anchor="middle" x="29" y="-7.5" font-family="Helvetica,sans-Serif" font-size="10.00">stdexcept</text>
</g>
<!-- Node5&#45;&gt;Node6 -->
<g id="edge5" class="edge"><title>Node5&#45;&gt;Node6</title>
<path fill="none" stroke="midnightblue" d="M97.8253,-56.324C85.1532,-47.979 65.7666,-35.2122 50.7944,-25.3524"/>
<polygon fill="midnightblue" stroke="midnightblue" points="52.4187,-22.2313 42.142,-19.6545 48.5688,-28.0776 52.4187,-22.2313"/>
</g>
<!-- Node7 -->
<g id="node7" class="node"><title>Node7</title>
<polygon fill="white" stroke="#bfbfbf" points="76.5,-0.5 76.5,-19.5 145.5,-19.5 145.5,-0.5 76.5,-0.5"/>
<text text-anchor="middle" x="111" y="-7.5" font-family="Helvetica,sans-Serif" font-size="10.00">Eigen/Eigen</text>
</g>
<!-- Node5&#45;&gt;Node7 -->
<g id="edge6" class="edge"><title>Node5&#45;&gt;Node7</title>
<path fill="none" stroke="midnightblue" d="M111,-56.083C111,-49.0059 111,-38.8611 111,-29.9865"/>
<polygon fill="midnightblue" stroke="midnightblue" points="114.5,-29.751 111,-19.7511 107.5,-29.7511 114.5,-29.751"/>
</g>
<!-- Node8 -->
<g id="node8" class="node"><title>Node8</title>
<polygon fill="white" stroke="#bfbfbf" points="163.5,-0.5 163.5,-19.5 250.5,-19.5 250.5,-0.5 163.5,-0.5"/>
<text text-anchor="middle" x="207" y="-7.5" font-family="Helvetica,sans-Serif" font-size="10.00">Eigen/Geometry</text>
</g>
<!-- Node5&#45;&gt;Node8 -->
<g id="edge7" class="edge"><title>Node5&#45;&gt;Node8</title>
<path fill="none" stroke="midnightblue" d="M126.424,-56.324C141.54,-47.8215 164.815,-34.7288 182.471,-24.7975"/>
<polygon fill="midnightblue" stroke="midnightblue" points="184.614,-27.6077 191.614,-19.6545 181.183,-21.5066 184.614,-27.6077"/>
</g>
<!-- Node9&#45;&gt;Node5 -->
<g id="edge9" class="edge"><title>Node9&#45;&gt;Node5</title>
<path fill="none" stroke="midnightblue" d="M133.541,-112.083C129.846,-104.691 124.477,-93.9533 119.906,-84.8111"/>
<polygon fill="midnightblue" stroke="midnightblue" points="122.978,-83.1301 115.376,-75.7511 116.717,-86.2606 122.978,-83.1301"/>
</g>
<!-- Node10&#45;&gt;Node9 -->
<g id="edge11" class="edge"><title>Node10&#45;&gt;Node9</title>
<path fill="none" stroke="midnightblue" d="M168.89,-168.083C163.718,-160.534 156.154,-149.495 149.806,-140.23"/>
<polygon fill="midnightblue" stroke="midnightblue" points="152.536,-138.022 143.996,-131.751 146.761,-141.979 152.536,-138.022"/>
</g>
<!-- Node12 -->
<g id="node12" class="node"><title>Node12</title>
<polygon fill="white" stroke="#bfbfbf" points="66.5,-354.5 66.5,-373.5 115.5,-373.5 115.5,-354.5 66.5,-354.5"/>
<text text-anchor="middle" x="91" y="-361.5" font-family="Helvetica,sans-Serif" font-size="10.00">string.h</text>
</g>
<!-- Node11&#45;&gt;Node12 -->
<g id="edge13" class="edge"><title>Node11&#45;&gt;Node12</title>
<path fill="none" stroke="midnightblue" d="M97.9541,-422.372C96.7749,-412.643 94.8216,-396.528 93.2849,-383.85"/>
<polygon fill="midnightblue" stroke="midnightblue" points="96.7496,-383.347 92.0717,-373.841 89.8005,-384.19 96.7496,-383.347"/>
</g>
<!-- Node13 -->
<g id="node13" class="node"><title>Node13</title>
<polygon fill="white" stroke="#bfbfbf" points="133.5,-354.5 133.5,-373.5 174.5,-373.5 174.5,-354.5 133.5,-354.5"/>
<text text-anchor="middle" x="154" y="-361.5" font-family="Helvetica,sans-Serif" font-size="10.00">string</text>
</g>
<!-- Node11&#45;&gt;Node13 -->
<g id="edge14" class="edge"><title>Node11&#45;&gt;Node13</title>
<path fill="none" stroke="midnightblue" d="M106.19,-422.372C114.789,-412.053 129.374,-394.551 140.179,-381.585"/>
<polygon fill="midnightblue" stroke="midnightblue" points="142.919,-383.764 146.632,-373.841 137.542,-379.283 142.919,-383.764"/>
</g>
<!-- Node16&#45;&gt;Node2 -->
<g id="edge18" class="edge"><title>Node16&#45;&gt;Node2</title>
<path fill="none" stroke="midnightblue" d="M308.49,-416.968C283.019,-408.157 251.213,-395.522 225,-380 207.634,-369.717 165.701,-333.27 142.02,-312.25"/>
<polygon fill="midnightblue" stroke="midnightblue" points="144.269,-309.567 134.475,-305.527 139.612,-314.793 144.269,-309.567"/>
</g>
<!-- Node17 -->
<g id="node17" class="node"><title>Node17</title>
<g id="a_node17"><a xlink:href="../../d0/dca/g2oTypeSim3Sophus_8h.html" target="_top" xlink:title="GlobalMapping/g2oTypeSim3\lSophus.h">
<polygon fill="white" stroke="black" points="234,-349 234,-379 378,-379 378,-349 234,-349"/>
<text text-anchor="start" x="242" y="-367" font-family="Helvetica,sans-Serif" font-size="10.00">GlobalMapping/g2oTypeSim3</text>
<text text-anchor="middle" x="306" y="-356" font-family="Helvetica,sans-Serif" font-size="10.00">Sophus.h</text>
</a>
</g>
</g>
<!-- Node16&#45;&gt;Node17 -->
<g id="edge19" class="edge"><title>Node16&#45;&gt;Node17</title>
<path fill="none" stroke="midnightblue" d="M343.585,-416.679C337.421,-408.203 329.474,-397.276 322.476,-387.655"/>
<polygon fill="midnightblue" stroke="midnightblue" points="325.107,-385.322 316.395,-379.293 319.446,-389.439 325.107,-385.322"/>
</g>
<!-- Node17&#45;&gt;Node2 -->
<g id="edge20" class="edge"><title>Node17&#45;&gt;Node2</title>
<path fill="none" stroke="midnightblue" d="M267.171,-348.841C234.646,-336.982 188.732,-320.239 157.968,-309.022"/>
<polygon fill="midnightblue" stroke="midnightblue" points="159.143,-305.724 148.549,-305.587 156.745,-312.301 159.143,-305.724"/>
</g>
<!-- Node18 -->
<g id="node18" class="node"><title>Node18</title>
<polygon fill="white" stroke="#bfbfbf" points="439.5,-286.5 439.5,-305.5 558.5,-305.5 558.5,-286.5 439.5,-286.5"/>
<text text-anchor="middle" x="499" y="-293.5" font-family="Helvetica,sans-Serif" font-size="10.00">g2o/core/base_vertex.h</text>
</g>
<!-- Node17&#45;&gt;Node18 -->
<g id="edge21" class="edge"><title>Node17&#45;&gt;Node18</title>
<path fill="none" stroke="midnightblue" d="M347.403,-348.841C382.234,-336.93 431.467,-320.094 464.271,-308.876"/>
<polygon fill="midnightblue" stroke="midnightblue" points="465.561,-312.134 473.89,-305.587 463.295,-305.511 465.561,-312.134"/>
</g>
<!-- Node19 -->
<g id="node19" class="node"><title>Node19</title>
<polygon fill="white" stroke="#bfbfbf" points="188,-281 188,-311 298,-311 298,-281 188,-281"/>
<text text-anchor="start" x="196" y="-299" font-family="Helvetica,sans-Serif" font-size="10.00">g2o/core/base_binary</text>
<text text-anchor="middle" x="243" y="-288" font-family="Helvetica,sans-Serif" font-size="10.00">_edge.h</text>
</g>
<!-- Node17&#45;&gt;Node19 -->
<g id="edge22" class="edge"><title>Node17&#45;&gt;Node19</title>
<path fill="none" stroke="midnightblue" d="M292.33,-348.679C283.992,-339.944 273.168,-328.605 263.785,-318.775"/>
<polygon fill="midnightblue" stroke="midnightblue" points="266.08,-316.11 256.643,-311.293 261.016,-320.943 266.08,-316.11"/>
</g>
<!-- Node20 -->
<g id="node20" class="node"><title>Node20</title>
<polygon fill="white" stroke="#bfbfbf" points="316.5,-281 316.5,-311 421.5,-311 421.5,-281 316.5,-281"/>
<text text-anchor="start" x="324.5" y="-299" font-family="Helvetica,sans-Serif" font-size="10.00">g2o/types/sba/types</text>
<text text-anchor="middle" x="369" y="-288" font-family="Helvetica,sans-Serif" font-size="10.00">_six_dof_expmap.h</text>
</g>
<!-- Node17&#45;&gt;Node20 -->
<g id="edge23" class="edge"><title>Node17&#45;&gt;Node20</title>
<path fill="none" stroke="midnightblue" d="M319.67,-348.679C328.008,-339.944 338.832,-328.605 348.215,-318.775"/>
<polygon fill="midnightblue" stroke="midnightblue" points="350.984,-320.943 355.357,-311.293 345.92,-316.11 350.984,-320.943"/>
</g>
<!-- Node21&#45;&gt;Node15 -->
<g id="edge30" class="edge"><title>Node21&#45;&gt;Node15</title>
<path fill="none" stroke="midnightblue" d="M615.769,-422.372C586.223,-412.268 536.538,-395.277 498.887,-382.402"/>
<polygon fill="midnightblue" stroke="midnightblue" points="499.698,-378.98 489.104,-379.056 497.433,-385.604 499.698,-378.98"/>
</g>
<!-- Node22 -->
<g id="node22" class="node"><title>Node22</title>
<polygon fill="white" stroke="#bfbfbf" points="517.5,-354.5 517.5,-373.5 600.5,-373.5 600.5,-354.5 517.5,-354.5"/>
<text text-anchor="middle" x="559" y="-361.5" font-family="Helvetica,sans-Serif" font-size="10.00">unordered_map</text>
</g>
<!-- Node21&#45;&gt;Node22 -->
<g id="edge25" class="edge"><title>Node21&#45;&gt;Node22</title>
<path fill="none" stroke="midnightblue" d="M630.28,-422.372C616.897,-411.6 593.791,-393.002 577.52,-379.906"/>
<polygon fill="midnightblue" stroke="midnightblue" points="579.707,-377.174 569.723,-373.63 575.318,-382.627 579.707,-377.174"/>
</g>
<!-- Node23 -->
<g id="node23" class="node"><title>Node23</title>
<polygon fill="white" stroke="#bfbfbf" points="619,-354.5 619,-373.5 663,-373.5 663,-354.5 619,-354.5"/>
<text text-anchor="middle" x="641" y="-361.5" font-family="Helvetica,sans-Serif" font-size="10.00">vector</text>
</g>
<!-- Node21&#45;&gt;Node23 -->
<g id="edge26" class="edge"><title>Node21&#45;&gt;Node23</title>
<path fill="none" stroke="midnightblue" d="M641,-422.372C641,-412.643 641,-396.528 641,-383.85"/>
<polygon fill="midnightblue" stroke="midnightblue" points="644.5,-383.841 641,-373.841 637.5,-383.841 644.5,-383.841"/>
</g>
<!-- Node24 -->
<g id="node24" class="node"><title>Node24</title>
<polygon fill="white" stroke="#bfbfbf" points="681.5,-354.5 681.5,-373.5 800.5,-373.5 800.5,-354.5 681.5,-354.5"/>
<text text-anchor="middle" x="741" y="-361.5" font-family="Helvetica,sans-Serif" font-size="10.00">boost/thread/mutex.hpp</text>
</g>
<!-- Node21&#45;&gt;Node24 -->
<g id="edge27" class="edge"><title>Node21&#45;&gt;Node24</title>
<path fill="none" stroke="midnightblue" d="M654.073,-422.372C670.693,-411.403 699.611,-392.317 719.498,-379.191"/>
<polygon fill="midnightblue" stroke="midnightblue" points="721.505,-382.06 727.924,-373.63 717.649,-376.218 721.505,-382.06"/>
</g>
<!-- Node25 -->
<g id="node25" class="node"><title>Node25</title>
<polygon fill="white" stroke="#bfbfbf" points="818.5,-354.5 818.5,-373.5 861.5,-373.5 861.5,-354.5 818.5,-354.5"/>
<text text-anchor="middle" x="840" y="-361.5" font-family="Helvetica,sans-Serif" font-size="10.00">deque</text>
</g>
<!-- Node21&#45;&gt;Node25 -->
<g id="edge28" class="edge"><title>Node21&#45;&gt;Node25</title>
<path fill="none" stroke="midnightblue" d="M674.673,-422.44C708.97,-413.337 763.437,-397.814 809,-380 810.646,-379.356 812.326,-378.661 814.008,-377.936"/>
<polygon fill="midnightblue" stroke="midnightblue" points="815.856,-380.939 823.48,-373.582 812.932,-374.578 815.856,-380.939"/>
</g>
<!-- Node26 -->
<g id="node26" class="node"><title>Node26</title>
<polygon fill="white" stroke="#bfbfbf" points="879.5,-354.5 879.5,-373.5 908.5,-373.5 908.5,-354.5 879.5,-354.5"/>
<text text-anchor="middle" x="894" y="-361.5" font-family="Helvetica,sans-Serif" font-size="10.00">list</text>
</g>
<!-- Node21&#45;&gt;Node26 -->
<g id="edge29" class="edge"><title>Node21&#45;&gt;Node26</title>
<path fill="none" stroke="midnightblue" d="M688.317,-422.42C745.354,-411.738 837.587,-393.281 870,-380 870.875,-379.641 871.755,-379.252 872.632,-378.838"/>
<polygon fill="midnightblue" stroke="midnightblue" points="874.687,-381.7 881.727,-373.783 871.286,-375.582 874.687,-381.7"/>
</g>
<!-- Node27 -->
<g id="node27" class="node"><title>Node27</title>
<polygon fill="white" stroke="#bfbfbf" points="926.5,-354.5 926.5,-373.5 991.5,-373.5 991.5,-354.5 926.5,-354.5"/>
<text text-anchor="middle" x="959" y="-361.5" font-family="Helvetica,sans-Serif" font-size="10.00">Eigen/Core</text>
</g>
<!-- Node21&#45;&gt;Node27 -->
<g id="edge31" class="edge"><title>Node21&#45;&gt;Node27</title>
<path fill="none" stroke="midnightblue" d="M689.378,-422.496C762.604,-409.558 895.385,-385.817 917,-380 920.393,-379.087 923.902,-378.027 927.38,-376.899"/>
<polygon fill="midnightblue" stroke="midnightblue" points="928.65,-380.164 936.977,-373.614 926.383,-373.541 928.65,-380.164"/>
</g>
</g>
</svg>
        <g id="navigator" transform="translate(0 0)" fill="#404254">
                <rect fill="#f2f5e9" fill-opacity="0.5" stroke="#606060" stroke-width=".5" x="0" y="0" width="60" height="60"/>
                <use id="zoomplus" xlink:href="#zoomPlus" x="17" y="9" onmousedown="handleZoom(evt,'in')"/>
                <use id="zoomminus" xlink:href="#zoomMin" x="42" y="9" onmousedown="handleZoom(evt,'out')"/>
                <use id="reset" xlink:href="#resetDef" x="30" y="36" onmousedown="handleReset()"/>
                <g id="arrowUp" xlink:href="#dirArrow" transform="translate(30 24)" onmousedown="handlePan(0,-1)">
                  <use xlink:href="#rim" fill="#404040">
                        <set attributeName="fill" to="#808080" begin="arrowUp.mouseover" end="arrowUp.mouseout"/>
                  </use>
                  <path fill="none" stroke="white" stroke-width="1.5" d="M0,-3.0v7 M-2.5,-0.5L0,-3.0L2.5,-0.5"/>
                </g>
                <g id="arrowRight" xlink:href="#dirArrow" transform="rotate(90) translate(36 -43)" onmousedown="handlePan(1,0)">
                  <use xlink:href="#rim" fill="#404040">
                        <set attributeName="fill" to="#808080" begin="arrowRight.mouseover" end="arrowRight.mouseout"/>
                  </use>
                  <path fill="none" stroke="white" stroke-width="1.5" d="M0,-3.0v7 M-2.5,-0.5L0,-3.0L2.5,-0.5"/>
                </g>
                <g id="arrowDown" xlink:href="#dirArrow" transform="rotate(180) translate(-30 -48)" onmousedown="handlePan(0,1)">
                  <use xlink:href="#rim" fill="#404040">
                        <set attributeName="fill" to="#808080" begin="arrowDown.mouseover" end="arrowDown.mouseout"/>
                  </use>
                  <path fill="none" stroke="white" stroke-width="1.5" d="M0,-3.0v7 M-2.5,-0.5L0,-3.0L2.5,-0.5"/>
                </g>
                <g id="arrowLeft" xlink:href="#dirArrow" transform="rotate(270) translate(-36 17)" onmousedown="handlePan(-1,0)">
                  <use xlink:href="#rim" fill="#404040">
                        <set attributeName="fill" to="#808080" begin="arrowLeft.mouseover" end="arrowLeft.mouseout"/>
                  </use>
                  <path fill="none" stroke="white" stroke-width="1.5" d="M0,-3.0v7 M-2.5,-0.5L0,-3.0L2.5,-0.5"/>
                </g>
        </g>
        <svg viewBox="0 0 15 15" width="100%" height="30px" preserveAspectRatio="xMaxYMin meet">
         <g id="arrow_out" transform="scale(0.3 0.3)">
          <a xlink:href="Frame_8h__incl_org.svg" target="_base">
           <rect id="button" ry="5" rx="5" y="6" x="6" height="38" width="38"
                fill="#f2f5e9" fill-opacity="0.5" stroke="#606060" stroke-width="1.0"/>
           <path id="arrow"
             d="M 11.500037,31.436501 C 11.940474,20.09759 22.043105,11.32322 32.158766,21.979434 L 37.068811,17.246167 C 37.068811,17.246167 37.088388,32 37.088388,32 L 22.160133,31.978069 C 22.160133,31.978069 26.997745,27.140456 26.997745,27.140456 C 18.528582,18.264221 13.291696,25.230495 11.500037,31.436501 z"
             style="fill:#404040;"/>
          </a>
         </g>
        </svg>
</svg>
