<?xml version="1.0" encoding="UTF-8" standalone="no"?>
<!DOCTYPE svg PUBLIC "-//W3C//DTD SVG 1.1//EN"
 "http://www.w3.org/Graphics/SVG/1.1/DTD/svg11.dtd">
<!-- Generated by graphviz version 2.36.0 (20140111.2315)
 -->
<!-- Title: src/IOWrapper/OpenCV/ImageDisplay_OpenCV.cpp Pages: 1 -->
<svg width="630pt" height="152pt"
 viewBox="0.00 0.00 630.00 152.00" xmlns="http://www.w3.org/2000/svg" xmlns:xlink="http://www.w3.org/1999/xlink">
<g id="graph0" class="graph" transform="scale(1 1) rotate(0) translate(4 148)">
<title>src/IOWrapper/OpenCV/ImageDisplay_OpenCV.cpp</title>
<polygon fill="white" stroke="none" points="-4,4 -4,-148 626,-148 626,4 -4,4"/>
<!-- Node1 -->
<g id="node1" class="node"><title>Node1</title>
<polygon fill="#bfbfbf" stroke="black" points="327.5,-113 327.5,-143 468.5,-143 468.5,-113 327.5,-113"/>
<text text-anchor="start" x="335.5" y="-131" font-family="Helvetica,sans-Serif" font-size="10.00">src/IOWrapper/OpenCV</text>
<text text-anchor="middle" x="398" y="-120" font-family="Helvetica,sans-Serif" font-size="10.00">/ImageDisplay_OpenCV.cpp</text>
</g>
<!-- Node2 -->
<g id="node2" class="node"><title>Node2</title>
<g id="a_node2"><a xlink:href="../../d8/d3f/ImageDisplay_8h.html" target="_top" xlink:title="IOWrapper/ImageDisplay.h">
<polygon fill="white" stroke="black" points="65.5,-56.5 65.5,-75.5 200.5,-75.5 200.5,-56.5 65.5,-56.5"/>
<text text-anchor="middle" x="133" y="-63.5" font-family="Helvetica,sans-Serif" font-size="10.00">IOWrapper/ImageDisplay.h</text>
</a>
</g>
</g>
<!-- Node1&#45;&gt;Node2 -->
<g id="edge1" class="edge"><title>Node1&#45;&gt;Node2</title>
<path fill="none" stroke="midnightblue" d="M335.869,-112.933C288.424,-102.19 224.022,-87.6087 180.613,-77.7804"/>
<polygon fill="midnightblue" stroke="midnightblue" points="181.124,-74.3074 170.598,-75.5127 179.578,-81.1346 181.124,-74.3074"/>
</g>
<!-- Node5 -->
<g id="node5" class="node"><title>Node5</title>
<polygon fill="white" stroke="#bfbfbf" points="219,-56.5 219,-75.5 359,-75.5 359,-56.5 219,-56.5"/>
<text text-anchor="middle" x="289" y="-63.5" font-family="Helvetica,sans-Serif" font-size="10.00">opencv2/highgui/highgui.hpp</text>
</g>
<!-- Node1&#45;&gt;Node5 -->
<g id="edge4" class="edge"><title>Node1&#45;&gt;Node5</title>
<path fill="none" stroke="midnightblue" d="M372.444,-112.933C354.712,-103.171 331.22,-90.2401 313.68,-80.5856"/>
<polygon fill="midnightblue" stroke="midnightblue" points="315.072,-77.3562 304.623,-75.6 311.696,-83.4885 315.072,-77.3562"/>
</g>
<!-- Node6 -->
<g id="node6" class="node"><title>Node6</title>
<polygon fill="white" stroke="#bfbfbf" points="377.5,-56.5 377.5,-75.5 418.5,-75.5 418.5,-56.5 377.5,-56.5"/>
<text text-anchor="middle" x="398" y="-63.5" font-family="Helvetica,sans-Serif" font-size="10.00">string</text>
</g>
<!-- Node1&#45;&gt;Node6 -->
<g id="edge5" class="edge"><title>Node1&#45;&gt;Node6</title>
<path fill="none" stroke="midnightblue" d="M398,-112.781C398,-104.781 398,-94.6887 398,-86.0168"/>
<polygon fill="midnightblue" stroke="midnightblue" points="401.5,-85.7305 398,-75.7305 394.5,-85.7306 401.5,-85.7305"/>
</g>
<!-- Node7 -->
<g id="node7" class="node"><title>Node7</title>
<polygon fill="white" stroke="#bfbfbf" points="437,-56.5 437,-75.5 515,-75.5 515,-56.5 437,-56.5"/>
<text text-anchor="middle" x="476" y="-63.5" font-family="Helvetica,sans-Serif" font-size="10.00">unordered_set</text>
</g>
<!-- Node1&#45;&gt;Node7 -->
<g id="edge6" class="edge"><title>Node1&#45;&gt;Node7</title>
<path fill="none" stroke="midnightblue" d="M416.485,-112.781C428.52,-103.523 444.2,-91.4618 456.443,-82.0435"/>
<polygon fill="midnightblue" stroke="midnightblue" points="458.858,-84.6019 464.65,-75.7305 454.59,-79.0535 458.858,-84.6019"/>
</g>
<!-- Node8 -->
<g id="node8" class="node"><title>Node8</title>
<polygon fill="white" stroke="#bfbfbf" points="533.5,-56.5 533.5,-75.5 622.5,-75.5 622.5,-56.5 533.5,-56.5"/>
<text text-anchor="middle" x="578" y="-63.5" font-family="Helvetica,sans-Serif" font-size="10.00">boost/thread.hpp</text>
</g>
<!-- Node1&#45;&gt;Node8 -->
<g id="edge7" class="edge"><title>Node1&#45;&gt;Node8</title>
<path fill="none" stroke="midnightblue" d="M440.202,-112.933C471.341,-102.553 513.234,-88.5887 542.625,-78.7916"/>
<polygon fill="midnightblue" stroke="midnightblue" points="544.082,-81.9954 552.462,-75.5127 541.868,-75.3546 544.082,-81.9954"/>
</g>
<!-- Node3 -->
<g id="node3" class="node"><title>Node3</title>
<polygon fill="white" stroke="#bfbfbf" points="0,-0.5 0,-19.5 116,-19.5 116,-0.5 0,-0.5"/>
<text text-anchor="middle" x="58" y="-7.5" font-family="Helvetica,sans-Serif" font-size="10.00">opencv2/core/core.hpp</text>
</g>
<!-- Node2&#45;&gt;Node3 -->
<g id="edge2" class="edge"><title>Node2&#45;&gt;Node3</title>
<path fill="none" stroke="midnightblue" d="M120.95,-56.324C109.537,-48.1066 92.169,-35.6017 78.5651,-25.8069"/>
<polygon fill="midnightblue" stroke="midnightblue" points="80.4297,-22.8366 70.2693,-19.8339 76.3396,-28.5174 80.4297,-22.8366"/>
</g>
<!-- Node4 -->
<g id="node4" class="node"><title>Node4</title>
<polygon fill="white" stroke="#bfbfbf" points="134.5,-0.5 134.5,-19.5 281.5,-19.5 281.5,-0.5 134.5,-0.5"/>
<text text-anchor="middle" x="208" y="-7.5" font-family="Helvetica,sans-Serif" font-size="10.00">opencv2/imgproc/imgproc.hpp</text>
</g>
<!-- Node2&#45;&gt;Node4 -->
<g id="edge3" class="edge"><title>Node2&#45;&gt;Node4</title>
<path fill="none" stroke="midnightblue" d="M145.05,-56.324C156.463,-48.1066 173.831,-35.6017 187.435,-25.8069"/>
<polygon fill="midnightblue" stroke="midnightblue" points="189.66,-28.5174 195.731,-19.8339 185.57,-22.8366 189.66,-28.5174"/>
</g>
</g>
</svg>
