<?xml version="1.0" encoding="UTF-8" standalone="no"?>
<!DOCTYPE svg PUBLIC "-//W3C//DTD SVG 1.1//EN"
 "http://www.w3.org/Graphics/SVG/1.1/DTD/svg11.dtd">
<!-- Generated by graphviz version 2.36.0 (20140111.2315)
 -->
<!-- Title: external/SiftGPU/include/GL/glut.h Pages: 1 -->
<svg width="132pt" height="96pt"
 viewBox="0.00 0.00 132.00 96.00" xmlns="http://www.w3.org/2000/svg" xmlns:xlink="http://www.w3.org/1999/xlink">
<g id="graph0" class="graph" transform="scale(1 1) rotate(0) translate(4 92)">
<title>external/SiftGPU/include/GL/glut.h</title>
<polygon fill="white" stroke="none" points="-4,4 -4,-92 128,-92 128,4 -4,4"/>
<!-- Node1 -->
<g id="node1" class="node"><title>Node1</title>
<polygon fill="#bfbfbf" stroke="black" points="-0.5,-57 -0.5,-87 124.5,-87 124.5,-57 -0.5,-57"/>
<text text-anchor="start" x="7.5" y="-75" font-family="Helvetica,sans-Serif" font-size="10.00">external/SiftGPU/include</text>
<text text-anchor="middle" x="62" y="-64" font-family="Helvetica,sans-Serif" font-size="10.00">/GL/glut.h</text>
</g>
<!-- Node2 -->
<g id="node2" class="node"><title>Node2</title>
<polygon fill="white" stroke="#bfbfbf" points="4,-0.5 4,-19.5 52,-19.5 52,-0.5 4,-0.5"/>
<text text-anchor="middle" x="28" y="-7.5" font-family="Helvetica,sans-Serif" font-size="10.00">GL/gl.h</text>
</g>
<!-- Node1&#45;&gt;Node2 -->
<g id="edge1" class="edge"><title>Node1&#45;&gt;Node2</title>
<path fill="none" stroke="midnightblue" d="M53.9425,-56.7808C49.1547,-48.3318 43.0439,-37.5481 37.9559,-28.5693"/>
<polygon fill="midnightblue" stroke="midnightblue" points="40.9226,-26.7052 32.9473,-19.7305 34.8324,-30.1563 40.9226,-26.7052"/>
</g>
<!-- Node3 -->
<g id="node3" class="node"><title>Node3</title>
<polygon fill="white" stroke="#bfbfbf" points="70.5,-0.5 70.5,-19.5 123.5,-19.5 123.5,-0.5 70.5,-0.5"/>
<text text-anchor="middle" x="97" y="-7.5" font-family="Helvetica,sans-Serif" font-size="10.00">GL/glu.h</text>
</g>
<!-- Node1&#45;&gt;Node3 -->
<g id="edge2" class="edge"><title>Node1&#45;&gt;Node3</title>
<path fill="none" stroke="midnightblue" d="M70.2945,-56.7808C75.2231,-48.3318 81.5136,-37.5481 86.7512,-28.5693"/>
<polygon fill="midnightblue" stroke="midnightblue" points="89.8917,-30.1319 91.9072,-19.7305 83.8452,-26.6048 89.8917,-30.1319"/>
</g>
</g>
</svg>
