<?xml version="1.0" encoding="UTF-8" standalone="no"?>
<!DOCTYPE svg PUBLIC "-//W3C//DTD SVG 1.1//EN"
 "http://www.w3.org/Graphics/SVG/1.1/DTD/svg11.dtd">
<!-- Generated by graphviz version 2.36.0 (20140111.2315)
 -->
<!-- Title: external/SiftGPU/src Pages: 1 -->
<svg width="282pt" height="231pt"
 viewBox="0.00 0.00 282.00 231.00" xmlns="http://www.w3.org/2000/svg" xmlns:xlink="http://www.w3.org/1999/xlink">
<g id="graph0" class="graph" transform="scale(1 1) rotate(0) translate(4 227)">
<title>external/SiftGPU/src</title>
<polygon fill="white" stroke="none" points="-4,4 -4,-227 278,-227 278,4 -4,4"/>
<g id="clust1" class="cluster"><title>clusterdir_b460e88a442db0310519efdd754406d5</title>
<g id="a_clust1"><a xlink:href="dir_b460e88a442db0310519efdd754406d5.html" target="_top" xlink:title="SiftGPU">
<polygon fill="#ddddee" stroke="black" points="8,-56 8,-215 266,-215 266,-56 8,-56"/>
<text text-anchor="middle" x="137" y="-203" font-family="Helvetica,sans-Serif" font-size="10.00">SiftGPU</text>
</a>
</g>
</g>
<g id="clust2" class="cluster"><title>clusterdir_7cf36d6d648ad7db70891e97a21d34fa</title>
<g id="a_clust2"><a xlink:href="dir_7cf36d6d648ad7db70891e97a21d34fa.html" target="_top">
<polygon fill="#eeeeff" stroke="black" points="16,-64 16,-188 258,-188 258,-64 16,-64"/>
</a>
</g>
</g>
<!-- dir_7cf36d6d648ad7db70891e97a21d34fa -->
<g id="node1" class="node"><title>dir_7cf36d6d648ad7db70891e97a21d34fa</title>
<text text-anchor="middle" x="223" y="-159.5" font-family="Helvetica,sans-Serif" font-size="10.00">src</text>
</g>
<!-- dir_b0ef8fe33e08b13582d96ef50fa9b9a5 -->
<g id="node2" class="node"><title>dir_b0ef8fe33e08b13582d96ef50fa9b9a5</title>
<g id="a_node2"><a xlink:href="dir_b0ef8fe33e08b13582d96ef50fa9b9a5.html" target="_top" xlink:title="ServerSiftGPU">
<polygon fill="white" stroke="black" points="106,-180 24,-180 24,-144 106,-144 106,-180"/>
<text text-anchor="middle" x="65" y="-159.5" font-family="Helvetica,sans-Serif" font-size="10.00">ServerSiftGPU</text>
</a>
</g>
</g>
<!-- dir_b536c00a4e54b87f582b9b73af8292b0 -->
<g id="node3" class="node"><title>dir_b536c00a4e54b87f582b9b73af8292b0</title>
<g id="a_node3"><a xlink:href="dir_b536c00a4e54b87f582b9b73af8292b0.html" target="_top" xlink:title="SiftGPU">
<polygon fill="white" stroke="black" points="123,-108 69,-108 69,-72 123,-72 123,-108"/>
<text text-anchor="middle" x="96" y="-87.5" font-family="Helvetica,sans-Serif" font-size="10.00">SiftGPU</text>
</a>
</g>
</g>
<!-- dir_b0ef8fe33e08b13582d96ef50fa9b9a5&#45;&gt;dir_b536c00a4e54b87f582b9b73af8292b0 -->
<g id="edge2" class="edge"><title>dir_b0ef8fe33e08b13582d96ef50fa9b9a5&#45;&gt;dir_b536c00a4e54b87f582b9b73af8292b0</title>
<path fill="none" stroke="black" d="M72.6629,-143.697C76.1917,-135.728 80.4559,-126.1 84.3687,-117.264"/>
<polygon fill="black" stroke="black" points="87.5761,-118.665 88.4252,-108.104 81.1757,-115.831 87.5761,-118.665"/>
<g id="a_edge2&#45;headlabel"><a xlink:href="dir_000014_000015.html" target="_top" xlink:title="3">
<text text-anchor="middle" x="88.7167" y="-120.602" font-family="Helvetica,sans-Serif" font-size="10.00">3</text>
</a>
</g>
</g>
<!-- dir_1460a2be8eab5f4c6fba9c3f882ec4d1 -->
<g id="node5" class="node"><title>dir_1460a2be8eab5f4c6fba9c3f882ec4d1</title>
<g id="a_node5"><a xlink:href="dir_1460a2be8eab5f4c6fba9c3f882ec4d1.html" target="_top" xlink:title="include">
<polygon fill="white" stroke="red" points="150,-36 96,-36 96,-0 150,-0 150,-36"/>
<text text-anchor="middle" x="123" y="-15.5" font-family="Helvetica,sans-Serif" font-size="10.00">include</text>
</a>
</g>
</g>
<!-- dir_b536c00a4e54b87f582b9b73af8292b0&#45;&gt;dir_1460a2be8eab5f4c6fba9c3f882ec4d1 -->
<g id="edge1" class="edge"><title>dir_b536c00a4e54b87f582b9b73af8292b0&#45;&gt;dir_1460a2be8eab5f4c6fba9c3f882ec4d1</title>
<path fill="none" stroke="black" d="M102.674,-71.6966C105.715,-63.8132 109.383,-54.3042 112.761,-45.5464"/>
<polygon fill="black" stroke="black" points="116.069,-46.6939 116.403,-36.1043 109.538,-44.1748 116.069,-46.6939"/>
<g id="a_edge1&#45;headlabel"><a xlink:href="dir_000015_000010.html" target="_top" xlink:title="11">
<text text-anchor="middle" x="117.425" y="-48.5695" font-family="Helvetica,sans-Serif" font-size="10.00">11</text>
</a>
</g>
</g>
<!-- dir_330fc5c7d166fe8a6317bb57b72992c4 -->
<g id="node4" class="node"><title>dir_330fc5c7d166fe8a6317bb57b72992c4</title>
<g id="a_node4"><a xlink:href="dir_330fc5c7d166fe8a6317bb57b72992c4.html" target="_top" xlink:title="TestWin">
<polygon fill="white" stroke="black" points="178,-180 124,-180 124,-144 178,-144 178,-180"/>
<text text-anchor="middle" x="151" y="-159.5" font-family="Helvetica,sans-Serif" font-size="10.00">TestWin</text>
</a>
</g>
</g>
<!-- dir_330fc5c7d166fe8a6317bb57b72992c4&#45;&gt;dir_b536c00a4e54b87f582b9b73af8292b0 -->
<g id="edge3" class="edge"><title>dir_330fc5c7d166fe8a6317bb57b72992c4&#45;&gt;dir_b536c00a4e54b87f582b9b73af8292b0</title>
<path fill="none" stroke="black" d="M137.404,-143.697C130.877,-135.389 122.932,-125.277 115.753,-116.141"/>
<polygon fill="black" stroke="black" points="118.369,-113.805 109.439,-108.104 112.865,-118.13 118.369,-113.805"/>
<g id="a_edge3&#45;headlabel"><a xlink:href="dir_000016_000015.html" target="_top" xlink:title="4">
<text text-anchor="middle" x="122.823" y="-112.377" font-family="Helvetica,sans-Serif" font-size="10.00">4</text>
</a>
</g>
</g>
<!-- dir_330fc5c7d166fe8a6317bb57b72992c4&#45;&gt;dir_1460a2be8eab5f4c6fba9c3f882ec4d1 -->
<g id="edge4" class="edge"><title>dir_330fc5c7d166fe8a6317bb57b72992c4&#45;&gt;dir_1460a2be8eab5f4c6fba9c3f882ec4d1</title>
<path fill="none" stroke="black" d="M148.218,-143.843C144.765,-123.002 138.528,-86.8088 132,-56 131.315,-52.7663 130.554,-49.3844 129.773,-46.0354"/>
<polygon fill="black" stroke="black" points="133.166,-45.1743 127.426,-36.2688 126.36,-46.8098 133.166,-45.1743"/>
<g id="a_edge4&#45;headlabel"><a xlink:href="dir_000016_000010.html" target="_top" xlink:title="1">
<text text-anchor="middle" x="136.766" y="-45.5062" font-family="Helvetica,sans-Serif" font-size="10.00">1</text>
</a>
</g>
</g>
</g>
</svg>
