<?xml version="1.0" encoding="UTF-8" standalone="no"?>
<!DOCTYPE svg PUBLIC "-//W3C//DTD SVG 1.1//EN"
 "http://www.w3.org/Graphics/SVG/1.1/DTD/svg11.dtd">
<!-- Generated by graphviz version 2.36.0 (20140111.2315)
 -->
<!-- Title: external/SiftGPU Pages: 1 -->
<svg width="182pt" height="183pt"
 viewBox="0.00 0.00 182.00 183.00" xmlns="http://www.w3.org/2000/svg" xmlns:xlink="http://www.w3.org/1999/xlink">
<g id="graph0" class="graph" transform="scale(1 1) rotate(0) translate(4 179)">
<title>external/SiftGPU</title>
<polygon fill="white" stroke="none" points="-4,4 -4,-179 178,-179 178,4 -4,4"/>
<g id="clust1" class="cluster"><title>clusterdir_b52b2de0789f0ebcf01de5e740993cf5</title>
<g id="a_clust1"><a xlink:href="dir_b52b2de0789f0ebcf01de5e740993cf5.html" target="_top" xlink:title="external">
<polygon fill="#ddddee" stroke="black" points="8,-8 8,-167 166,-167 166,-8 8,-8"/>
<text text-anchor="middle" x="87" y="-155" font-family="Helvetica,sans-Serif" font-size="10.00">external</text>
</a>
</g>
</g>
<g id="clust2" class="cluster"><title>clusterdir_b460e88a442db0310519efdd754406d5</title>
<g id="a_clust2"><a xlink:href="dir_b460e88a442db0310519efdd754406d5.html" target="_top">
<polygon fill="#eeeeff" stroke="black" points="16,-16 16,-140 158,-140 158,-16 16,-16"/>
</a>
</g>
</g>
<!-- dir_b460e88a442db0310519efdd754406d5 -->
<g id="node1" class="node"><title>dir_b460e88a442db0310519efdd754406d5</title>
<text text-anchor="middle" x="123" y="-111.5" font-family="Helvetica,sans-Serif" font-size="10.00">SiftGPU</text>
</g>
<!-- dir_1460a2be8eab5f4c6fba9c3f882ec4d1 -->
<g id="node2" class="node"><title>dir_1460a2be8eab5f4c6fba9c3f882ec4d1</title>
<g id="a_node2"><a xlink:href="dir_1460a2be8eab5f4c6fba9c3f882ec4d1.html" target="_top" xlink:title="include">
<polygon fill="white" stroke="red" points="78,-60 24,-60 24,-24 78,-24 78,-60"/>
<text text-anchor="middle" x="51" y="-39.5" font-family="Helvetica,sans-Serif" font-size="10.00">include</text>
</a>
</g>
</g>
<!-- dir_7cf36d6d648ad7db70891e97a21d34fa -->
<g id="node3" class="node"><title>dir_7cf36d6d648ad7db70891e97a21d34fa</title>
<g id="a_node3"><a xlink:href="dir_7cf36d6d648ad7db70891e97a21d34fa.html" target="_top" xlink:title="src">
<polygon fill="white" stroke="red" points="78,-132 24,-132 24,-96 78,-96 78,-132"/>
<text text-anchor="middle" x="51" y="-111.5" font-family="Helvetica,sans-Serif" font-size="10.00">src</text>
</a>
</g>
</g>
<!-- dir_7cf36d6d648ad7db70891e97a21d34fa&#45;&gt;dir_1460a2be8eab5f4c6fba9c3f882ec4d1 -->
<g id="edge1" class="edge"><title>dir_7cf36d6d648ad7db70891e97a21d34fa&#45;&gt;dir_1460a2be8eab5f4c6fba9c3f882ec4d1</title>
<path fill="none" stroke="black" d="M51,-95.6966C51,-87.9827 51,-78.7125 51,-70.1124"/>
<polygon fill="black" stroke="black" points="54.5001,-70.1043 51,-60.1043 47.5001,-70.1044 54.5001,-70.1043"/>
<g id="a_edge1&#45;headlabel"><a xlink:href="dir_000013_000010.html" target="_top" xlink:title="12">
<text text-anchor="middle" x="57.3393" y="-71.199" font-family="Helvetica,sans-Serif" font-size="10.00">12</text>
</a>
</g>
</g>
</g>
</svg>
