<?xml version="1.0" encoding="UTF-8" standalone="no"?>
<!DOCTYPE svg PUBLIC "-//W3C//DTD SVG 1.1//EN"
 "http://www.w3.org/Graphics/SVG/1.1/DTD/svg11.dtd">
<!-- Generated by graphviz version 2.36.0 (20140111.2315)
 -->
<!-- Title: Graphical Class Hierarchy Pages: 1 -->
<svg width="456pt" height="77pt"
 viewBox="0.00 0.00 456.00 77.00" xmlns="http://www.w3.org/2000/svg" xmlns:xlink="http://www.w3.org/1999/xlink">
<g id="graph0" class="graph" transform="scale(1 1) rotate(0) translate(4 73)">
<title>Graphical Class Hierarchy</title>
<polygon fill="white" stroke="none" points="-4,4 -4,-73 452,-73 452,4 -4,4"/>
<!-- Node1 -->
<g id="node1" class="node"><title>Node1</title>
<polygon fill="white" stroke="#bfbfbf" points="0.5,-22.5 0.5,-41.5 87.5,-41.5 87.5,-22.5 0.5,-22.5"/>
<text text-anchor="middle" x="44" y="-29.5" font-family="Helvetica,sans-Serif" font-size="10.00">FeatureDetector</text>
</g>
<!-- Node2 -->
<g id="node2" class="node"><title>Node2</title>
<g id="a_node2"><a xlink:href="d2/da5/classStatefulFeatureDetector.html" target="_top" xlink:title="StatefulFeatureDetector">
<polygon fill="white" stroke="black" points="124.5,-22.5 124.5,-41.5 245.5,-41.5 245.5,-22.5 124.5,-22.5"/>
<text text-anchor="middle" x="185" y="-29.5" font-family="Helvetica,sans-Serif" font-size="10.00">StatefulFeatureDetector</text>
</a>
</g>
</g>
<!-- Node1&#45;&gt;Node2 -->
<g id="edge1" class="edge"><title>Node1&#45;&gt;Node2</title>
<path fill="none" stroke="midnightblue" d="M98.1218,-32C106.728,-32 115.689,-32 124.436,-32"/>
<polygon fill="midnightblue" stroke="midnightblue" points="97.8388,-28.5001 87.8388,-32 97.8387,-35.5001 97.8388,-28.5001"/>
</g>
<!-- Node3 -->
<g id="node3" class="node"><title>Node3</title>
<g id="a_node3"><a xlink:href="df/de2/classVideoDynamicAdaptedFeatureDetector.html" target="_top" xlink:title="VideoDynamicAdaptedFeature\lDetector">
<polygon fill="white" stroke="black" points="290.5,-39 290.5,-69 439.5,-69 439.5,-39 290.5,-39"/>
<text text-anchor="start" x="298.5" y="-57" font-family="Helvetica,sans-Serif" font-size="10.00">VideoDynamicAdaptedFeature</text>
<text text-anchor="middle" x="365" y="-46" font-family="Helvetica,sans-Serif" font-size="10.00">Detector</text>
</a>
</g>
</g>
<!-- Node2&#45;&gt;Node3 -->
<g id="edge2" class="edge"><title>Node2&#45;&gt;Node3</title>
<path fill="none" stroke="midnightblue" d="M256.016,-40.6537C267.332,-42.0523 279.078,-43.504 290.474,-44.9126"/>
<polygon fill="midnightblue" stroke="midnightblue" points="256.12,-37.14 245.767,-39.3869 255.262,-44.0872 256.12,-37.14"/>
</g>
<!-- Node4 -->
<g id="node4" class="node"><title>Node4</title>
<g id="a_node4"><a xlink:href="d3/d58/classVideoGridAdaptedFeatureDetector.html" target="_top" xlink:title="VideoGridAdaptedFeatureDetector">
<polygon fill="white" stroke="black" points="282,-0.5 282,-19.5 448,-19.5 448,-0.5 282,-0.5"/>
<text text-anchor="middle" x="365" y="-7.5" font-family="Helvetica,sans-Serif" font-size="10.00">VideoGridAdaptedFeatureDetector</text>
</a>
</g>
</g>
<!-- Node2&#45;&gt;Node4 -->
<g id="edge3" class="edge"><title>Node2&#45;&gt;Node4</title>
<path fill="none" stroke="midnightblue" d="M255.85,-23.3668C266.073,-22.1033 276.65,-20.7961 287.005,-19.5162"/>
<polygon fill="midnightblue" stroke="midnightblue" points="255.262,-19.9128 245.767,-24.6131 256.12,-26.86 255.262,-19.9128"/>
</g>
</g>
</svg>
