<?xml version="1.0" encoding="UTF-8" standalone="no"?>
<!DOCTYPE svg PUBLIC "-//W3C//DTD SVG 1.1//EN"
 "http://www.w3.org/Graphics/SVG/1.1/DTD/svg11.dtd">
<!-- Generated by graphviz version 2.36.0 (20140111.2315)
 -->
<!-- Title: Graphical Class Hierarchy Pages: 1 -->
<svg width="424pt" height="104pt"
 viewBox="0.00 0.00 424.00 104.00" xmlns="http://www.w3.org/2000/svg" xmlns:xlink="http://www.w3.org/1999/xlink">
<g id="graph0" class="graph" transform="scale(1 1) rotate(0) translate(4 100)">
<title>Graphical Class Hierarchy</title>
<polygon fill="white" stroke="none" points="-4,4 -4,-100 420,-100 420,4 -4,4"/>
<!-- Node1 -->
<g id="node1" class="node"><title>Node1</title>
<g id="a_node1"><a xlink:href="db/df0/classSiftMatchGPU.html" target="_top" xlink:title="matcher export ">
<polygon fill="white" stroke="black" points="96,-57.5 96,-76.5 176,-76.5 176,-57.5 96,-57.5"/>
<text text-anchor="middle" x="136" y="-64.5" font-family="Helvetica,sans-Serif" font-size="10.00">SiftMatchGPU</text>
</a>
</g>
</g>
<!-- Node2 -->
<g id="node2" class="node"><title>Node2</title>
<g id="a_node2"><a xlink:href="d3/d80/classComboSiftGPU.html" target="_top" xlink:title="ComboSiftGPU">
<polygon fill="white" stroke="black" points="212.5,-38.5 212.5,-57.5 297.5,-57.5 297.5,-38.5 212.5,-38.5"/>
<text text-anchor="middle" x="255" y="-45.5" font-family="Helvetica,sans-Serif" font-size="10.00">ComboSiftGPU</text>
</a>
</g>
</g>
<!-- Node1&#45;&gt;Node2 -->
<g id="edge1" class="edge"><title>Node1&#45;&gt;Node2</title>
<path fill="none" stroke="midnightblue" d="M186.251,-59.0019C194.889,-57.5992 203.803,-56.1517 212.213,-54.7859"/>
<polygon fill="midnightblue" stroke="midnightblue" points="185.594,-55.5627 176.285,-60.6204 186.717,-62.4721 185.594,-55.5627"/>
</g>
<!-- Node4 -->
<g id="node4" class="node"><title>Node4</title>
<g id="a_node4"><a xlink:href="dc/d42/classSiftMatchGL.html" target="_top" xlink:title="SiftMatchGL">
<polygon fill="white" stroke="black" points="219.5,-76.5 219.5,-95.5 290.5,-95.5 290.5,-76.5 219.5,-76.5"/>
<text text-anchor="middle" x="255" y="-83.5" font-family="Helvetica,sans-Serif" font-size="10.00">SiftMatchGL</text>
</a>
</g>
</g>
<!-- Node1&#45;&gt;Node4 -->
<g id="edge3" class="edge"><title>Node1&#45;&gt;Node4</title>
<path fill="none" stroke="midnightblue" d="M186.31,-75.0075C197.416,-76.8111 208.975,-78.6883 219.333,-80.3703"/>
<polygon fill="midnightblue" stroke="midnightblue" points="186.717,-71.5279 176.285,-73.3796 185.594,-78.4373 186.717,-71.5279"/>
</g>
<!-- Node3 -->
<g id="node3" class="node"><title>Node3</title>
<g id="a_node3"><a xlink:href="d1/db7/classServerSiftGPU.html" target="_top" xlink:title="ServerSiftGPU">
<polygon fill="white" stroke="black" points="334,-38.5 334,-57.5 416,-57.5 416,-38.5 334,-38.5"/>
<text text-anchor="middle" x="375" y="-45.5" font-family="Helvetica,sans-Serif" font-size="10.00">ServerSiftGPU</text>
</a>
</g>
</g>
<!-- Node2&#45;&gt;Node3 -->
<g id="edge2" class="edge"><title>Node2&#45;&gt;Node3</title>
<path fill="none" stroke="midnightblue" d="M307.763,-48C316.543,-48 325.541,-48 333.962,-48"/>
<polygon fill="midnightblue" stroke="midnightblue" points="307.602,-44.5001 297.602,-48 307.602,-51.5001 307.602,-44.5001"/>
</g>
<!-- Node5 -->
<g id="node5" class="node"><title>Node5</title>
<g id="a_node5"><a xlink:href="dc/d5a/classSiftParam.html" target="_top" xlink:title="SiftParam">
<polygon fill="white" stroke="black" points="0,-19.5 0,-38.5 60,-38.5 60,-19.5 0,-19.5"/>
<text text-anchor="middle" x="30" y="-26.5" font-family="Helvetica,sans-Serif" font-size="10.00">SiftParam</text>
</a>
</g>
</g>
<!-- Node6 -->
<g id="node6" class="node"><title>Node6</title>
<g id="a_node6"><a xlink:href="d4/dee/classSiftGPU.html" target="_top" xlink:title="SiftGPU">
<polygon fill="white" stroke="black" points="109.5,-19.5 109.5,-38.5 162.5,-38.5 162.5,-19.5 109.5,-19.5"/>
<text text-anchor="middle" x="136" y="-26.5" font-family="Helvetica,sans-Serif" font-size="10.00">SiftGPU</text>
</a>
</g>
</g>
<!-- Node5&#45;&gt;Node6 -->
<g id="edge4" class="edge"><title>Node5&#45;&gt;Node6</title>
<path fill="none" stroke="midnightblue" d="M70.3538,-29C83.3399,-29 97.4462,-29 109.159,-29"/>
<polygon fill="midnightblue" stroke="midnightblue" points="70.2466,-25.5001 60.2466,-29 70.2465,-32.5001 70.2466,-25.5001"/>
</g>
<!-- Node6&#45;&gt;Node2 -->
<g id="edge5" class="edge"><title>Node6&#45;&gt;Node2</title>
<path fill="none" stroke="midnightblue" d="M172.722,-34.8011C185.216,-36.83 199.353,-39.1257 212.292,-41.2269"/>
<polygon fill="midnightblue" stroke="midnightblue" points="173.108,-31.3179 162.676,-33.1696 171.986,-38.2274 173.108,-31.3179"/>
</g>
<!-- Node7 -->
<g id="node7" class="node"><title>Node7</title>
<g id="a_node7"><a xlink:href="d9/d69/classSiftGPUEX.html" target="_top" xlink:title="SiftGPUEX">
<polygon fill="white" stroke="black" points="221.5,-0.5 221.5,-19.5 288.5,-19.5 288.5,-0.5 221.5,-0.5"/>
<text text-anchor="middle" x="255" y="-7.5" font-family="Helvetica,sans-Serif" font-size="10.00">SiftGPUEX</text>
</a>
</g>
</g>
<!-- Node6&#45;&gt;Node7 -->
<g id="edge6" class="edge"><title>Node6&#45;&gt;Node7</title>
<path fill="none" stroke="midnightblue" d="M172.889,-23.1719C188.307,-20.6681 206.201,-17.7622 221.253,-15.3178"/>
<polygon fill="midnightblue" stroke="midnightblue" points="171.986,-19.7726 162.676,-24.8304 173.108,-26.6821 171.986,-19.7726"/>
</g>
</g>
</svg>
