<?xml version="1.0" encoding="UTF-8" standalone="no"?>
<!DOCTYPE svg PUBLIC "-//W3C//DTD SVG 1.1//EN"
 "http://www.w3.org/Graphics/SVG/1.1/DTD/svg11.dtd">
<!-- Generated by graphviz version 2.36.0 (20140111.2315)
 -->
<!-- Title: Graphical Class Hierarchy Pages: 1 -->
<svg width="200pt" height="66pt"
 viewBox="0.00 0.00 200.00 66.00" xmlns="http://www.w3.org/2000/svg" xmlns:xlink="http://www.w3.org/1999/xlink">
<g id="graph0" class="graph" transform="scale(1 1) rotate(0) translate(4 62)">
<title>Graphical Class Hierarchy</title>
<polygon fill="white" stroke="none" points="-4,4 -4,-62 196,-62 196,4 -4,4"/>
<!-- Node1 -->
<g id="node1" class="node"><title>Node1</title>
<g id="a_node1"><a xlink:href="d9/d4e/classShaderBag.html" target="_top" xlink:title="ShaderBag">
<polygon fill="white" stroke="black" points="0.5,-19.5 0.5,-38.5 65.5,-38.5 65.5,-19.5 0.5,-19.5"/>
<text text-anchor="middle" x="33" y="-26.5" font-family="Helvetica,sans-Serif" font-size="10.00">ShaderBag</text>
</a>
</g>
</g>
<!-- Node2 -->
<g id="node2" class="node"><title>Node2</title>
<g id="a_node2"><a xlink:href="d5/d94/classShaderBagGLSL.html" target="_top" xlink:title="ShaderBagGLSL">
<polygon fill="white" stroke="black" points="102.5,-38.5 102.5,-57.5 191.5,-57.5 191.5,-38.5 102.5,-38.5"/>
<text text-anchor="middle" x="147" y="-45.5" font-family="Helvetica,sans-Serif" font-size="10.00">ShaderBagGLSL</text>
</a>
</g>
</g>
<!-- Node1&#45;&gt;Node2 -->
<g id="edge1" class="edge"><title>Node1&#45;&gt;Node2</title>
<path fill="none" stroke="midnightblue" d="M75.7358,-36.0802C84.4436,-37.5574 93.6445,-39.1183 102.417,-40.6065"/>
<polygon fill="midnightblue" stroke="midnightblue" points="76.2397,-32.6157 65.7951,-34.3938 75.0688,-39.5171 76.2397,-32.6157"/>
</g>
<!-- Node3 -->
<g id="node3" class="node"><title>Node3</title>
<g id="a_node3"><a xlink:href="db/db0/classShaderBagPKSL.html" target="_top" xlink:title="ShaderBagPKSL">
<polygon fill="white" stroke="black" points="102,-0.5 102,-19.5 192,-19.5 192,-0.5 102,-0.5"/>
<text text-anchor="middle" x="147" y="-7.5" font-family="Helvetica,sans-Serif" font-size="10.00">ShaderBagPKSL</text>
</a>
</g>
</g>
<!-- Node1&#45;&gt;Node3 -->
<g id="edge2" class="edge"><title>Node1&#45;&gt;Node3</title>
<path fill="none" stroke="midnightblue" d="M75.7809,-21.9122C84.2001,-20.4839 93.0784,-18.9778 101.584,-17.5349"/>
<polygon fill="midnightblue" stroke="midnightblue" points="75.0688,-18.4829 65.7951,-23.6062 76.2397,-25.3843 75.0688,-18.4829"/>
</g>
</g>
</svg>
