<?xml version="1.0" encoding="UTF-8" standalone="no"?>
<!DOCTYPE svg PUBLIC "-//W3C//DTD SVG 1.1//EN"
 "http://www.w3.org/Graphics/SVG/1.1/DTD/svg11.dtd">
<!-- Generated by graphviz version 2.36.0 (20140111.2315)
 -->
<!-- Title: Graphical Class Hierarchy Pages: 1 -->
<svg width="234pt" height="66pt"
 viewBox="0.00 0.00 234.00 66.00" xmlns="http://www.w3.org/2000/svg" xmlns:xlink="http://www.w3.org/1999/xlink">
<g id="graph0" class="graph" transform="scale(1 1) rotate(0) translate(4 62)">
<title>Graphical Class Hierarchy</title>
<polygon fill="white" stroke="none" points="-4,4 -4,-62 230,-62 230,4 -4,4"/>
<!-- Node1 -->
<g id="node1" class="node"><title>Node1</title>
<g id="a_node1"><a xlink:href="dd/d97/classMultiThreadSIFT.html" target="_top" xlink:title="MultiThreadSIFT">
<polygon fill="white" stroke="black" points="0.5,-19.5 0.5,-38.5 89.5,-38.5 89.5,-19.5 0.5,-19.5"/>
<text text-anchor="middle" x="45" y="-26.5" font-family="Helvetica,sans-Serif" font-size="10.00">MultiThreadSIFT</text>
</a>
</g>
</g>
<!-- Node2 -->
<g id="node2" class="node"><title>Node2</title>
<g id="a_node2"><a xlink:href="dd/d15/classMultiProcessDemo.html" target="_top" xlink:title="MultiProcessDemo">
<polygon fill="white" stroke="black" points="126,-38.5 126,-57.5 226,-57.5 226,-38.5 126,-38.5"/>
<text text-anchor="middle" x="176" y="-45.5" font-family="Helvetica,sans-Serif" font-size="10.00">MultiProcessDemo</text>
</a>
</g>
</g>
<!-- Node1&#45;&gt;Node2 -->
<g id="edge1" class="edge"><title>Node1&#45;&gt;Node2</title>
<path fill="none" stroke="midnightblue" d="M99.6164,-36.897C108.223,-38.1646 117.096,-39.4715 125.598,-40.7237"/>
<polygon fill="midnightblue" stroke="midnightblue" points="100.077,-33.4271 89.6735,-35.4325 99.0568,-40.3524 100.077,-33.4271"/>
</g>
<!-- Node3 -->
<g id="node3" class="node"><title>Node3</title>
<g id="a_node3"><a xlink:href="d8/dd9/classMultiThreadDemo.html" target="_top" xlink:title="MultiThreadDemo">
<polygon fill="white" stroke="black" points="129,-0.5 129,-19.5 223,-19.5 223,-0.5 129,-0.5"/>
<text text-anchor="middle" x="176" y="-7.5" font-family="Helvetica,sans-Serif" font-size="10.00">MultiThreadDemo</text>
</a>
</g>
</g>
<!-- Node1&#45;&gt;Node3 -->
<g id="edge2" class="edge"><title>Node1&#45;&gt;Node3</title>
<path fill="none" stroke="midnightblue" d="M99.5951,-21.1061C109.269,-19.6813 119.281,-18.2067 128.724,-16.8158"/>
<polygon fill="midnightblue" stroke="midnightblue" points="99.0568,-17.6476 89.6735,-22.5675 100.077,-24.5729 99.0568,-17.6476"/>
</g>
</g>
</svg>
