<?xml version="1.0" encoding="UTF-8" standalone="no"?>
<!DOCTYPE svg PUBLIC "-//W3C//DTD SVG 1.1//EN"
 "http://www.w3.org/Graphics/SVG/1.1/DTD/svg11.dtd">
<!-- Generated by graphviz version 2.36.0 (20140111.2315)
 -->
<!-- Title: Graphical Class Hierarchy Pages: 1 -->
<svg width="194pt" height="66pt"
 viewBox="0.00 0.00 194.00 66.00" xmlns="http://www.w3.org/2000/svg" xmlns:xlink="http://www.w3.org/1999/xlink">
<g id="graph0" class="graph" transform="scale(1 1) rotate(0) translate(4 62)">
<title>Graphical Class Hierarchy</title>
<polygon fill="white" stroke="none" points="-4,4 -4,-62 190,-62 190,4 -4,4"/>
<!-- Node1 -->
<g id="node1" class="node"><title>Node1</title>
<g id="a_node1"><a xlink:href="d4/da2/classBasicTestWin.html" target="_top" xlink:title="BasicTestWin">
<polygon fill="white" stroke="black" points="0,-19.5 0,-38.5 78,-38.5 78,-19.5 0,-19.5"/>
<text text-anchor="middle" x="39" y="-26.5" font-family="Helvetica,sans-Serif" font-size="10.00">BasicTestWin</text>
</a>
</g>
</g>
<!-- Node2 -->
<g id="node2" class="node"><title>Node2</title>
<g id="a_node2"><a xlink:href="d4/d08/classGLTestWnd.html" target="_top" xlink:title="GLTestWnd">
<polygon fill="white" stroke="black" points="115.5,-38.5 115.5,-57.5 184.5,-57.5 184.5,-38.5 115.5,-38.5"/>
<text text-anchor="middle" x="150" y="-45.5" font-family="Helvetica,sans-Serif" font-size="10.00">GLTestWnd</text>
</a>
</g>
</g>
<!-- Node1&#45;&gt;Node2 -->
<g id="edge1" class="edge"><title>Node1&#45;&gt;Node2</title>
<path fill="none" stroke="midnightblue" d="M88.0115,-37.369C97.2635,-38.9817 106.769,-40.6385 115.44,-42.15"/>
<polygon fill="midnightblue" stroke="midnightblue" points="88.5754,-33.9146 78.1229,-35.6453 87.3733,-40.8106 88.5754,-33.9146"/>
</g>
<!-- Node3 -->
<g id="node3" class="node"><title>Node3</title>
<g id="a_node3"><a xlink:href="d9/dfc/classTestWinGlut.html" target="_top" xlink:title="TestWinGlut">
<polygon fill="white" stroke="black" points="114.5,-0.5 114.5,-19.5 185.5,-19.5 185.5,-0.5 114.5,-0.5"/>
<text text-anchor="middle" x="150" y="-7.5" font-family="Helvetica,sans-Serif" font-size="10.00">TestWinGlut</text>
</a>
</g>
</g>
<!-- Node1&#45;&gt;Node3 -->
<g id="edge2" class="edge"><title>Node1&#45;&gt;Node3</title>
<path fill="none" stroke="midnightblue" d="M87.9936,-20.6341C96.8695,-19.087 105.979,-17.4991 114.362,-16.0378"/>
<polygon fill="midnightblue" stroke="midnightblue" points="87.3733,-17.1894 78.1229,-22.3547 88.5754,-24.0854 87.3733,-17.1894"/>
</g>
</g>
</svg>
