<?xml version="1.0" encoding="UTF-8" standalone="no"?>
<!DOCTYPE svg PUBLIC "-//W3C//DTD SVG 1.1//EN"
 "http://www.w3.org/Graphics/SVG/1.1/DTD/svg11.dtd">
<!-- Generated by graphviz version 2.36.0 (20140111.2315)
 -->
<!-- Title: Graphical Class Hierarchy Pages: 1 -->
<svg width="232pt" height="175pt"
 viewBox="0.00 0.00 232.00 175.00" xmlns="http://www.w3.org/2000/svg" xmlns:xlink="http://www.w3.org/1999/xlink">
<g id="graph0" class="graph" transform="scale(1 1) rotate(0) translate(4 171)">
<title>Graphical Class Hierarchy</title>
<polygon fill="white" stroke="none" points="-4,4 -4,-171 228,-171 228,4 -4,4"/>
<!-- Node1 -->
<g id="node1" class="node"><title>Node1</title>
<polygon fill="white" stroke="#bfbfbf" points="0,-78.5 0,-97.5 68,-97.5 68,-78.5 0,-78.5"/>
<text text-anchor="middle" x="34" y="-85.5" font-family="Helvetica,sans-Serif" font-size="10.00">SimpleFilter</text>
</g>
<!-- Node2 -->
<g id="node2" class="node"><title>Node2</title>
<g id="a_node2"><a xlink:href="d3/dee/classBagSubscriber.html" target="_top" xlink:title="BagSubscriber\&lt; M \&gt;">
<polygon fill="white" stroke="black" points="110.5,-147.5 110.5,-166.5 217.5,-166.5 217.5,-147.5 110.5,-147.5"/>
<text text-anchor="middle" x="164" y="-154.5" font-family="Helvetica,sans-Serif" font-size="10.00">BagSubscriber&lt; M &gt;</text>
</a>
</g>
</g>
<!-- Node1&#45;&gt;Node2 -->
<g id="edge1" class="edge"><title>Node1&#45;&gt;Node2</title>
<path fill="none" stroke="midnightblue" d="M54.489,-104.176C67.7967,-114.617 86.182,-127.901 104,-137 111.898,-141.034 120.79,-144.535 129.229,-147.432"/>
<polygon fill="midnightblue" stroke="midnightblue" points="56.5254,-101.323 46.5342,-97.7973 52.1463,-106.784 56.5254,-101.323"/>
</g>
<!-- Node3 -->
<g id="node3" class="node"><title>Node3</title>
<g id="a_node3"><a xlink:href="d3/dee/classBagSubscriber.html" target="_top" xlink:title="BagSubscriber\&lt; sensor\l_msgs::CameraInfo \&gt;">
<polygon fill="white" stroke="black" points="104.5,-98 104.5,-128 223.5,-128 223.5,-98 104.5,-98"/>
<text text-anchor="start" x="112.5" y="-116" font-family="Helvetica,sans-Serif" font-size="10.00">BagSubscriber&lt; sensor</text>
<text text-anchor="middle" x="164" y="-105" font-family="Helvetica,sans-Serif" font-size="10.00">_msgs::CameraInfo &gt;</text>
</a>
</g>
</g>
<!-- Node1&#45;&gt;Node3 -->
<g id="edge2" class="edge"><title>Node1&#45;&gt;Node3</title>
<path fill="none" stroke="midnightblue" d="M78.154,-96.4285C86.4869,-98.056 95.349,-99.7869 104.084,-101.493"/>
<polygon fill="midnightblue" stroke="midnightblue" points="78.7819,-92.9851 68.2964,-94.5032 77.44,-99.8553 78.7819,-92.9851"/>
</g>
<!-- Node4 -->
<g id="node4" class="node"><title>Node4</title>
<g id="a_node4"><a xlink:href="d3/dee/classBagSubscriber.html" target="_top" xlink:title="BagSubscriber\&lt; sensor\l_msgs::Image \&gt;">
<polygon fill="white" stroke="black" points="104.5,-49 104.5,-79 223.5,-79 223.5,-49 104.5,-49"/>
<text text-anchor="start" x="112.5" y="-67" font-family="Helvetica,sans-Serif" font-size="10.00">BagSubscriber&lt; sensor</text>
<text text-anchor="middle" x="164" y="-56" font-family="Helvetica,sans-Serif" font-size="10.00">_msgs::Image &gt;</text>
</a>
</g>
</g>
<!-- Node1&#45;&gt;Node4 -->
<g id="edge3" class="edge"><title>Node1&#45;&gt;Node4</title>
<path fill="none" stroke="midnightblue" d="M78.154,-79.9086C86.4869,-78.3462 95.349,-76.6846 104.084,-75.0467"/>
<polygon fill="midnightblue" stroke="midnightblue" points="77.48,-76.4739 68.2964,-81.7569 78.7701,-83.354 77.48,-76.4739"/>
</g>
<!-- Node5 -->
<g id="node5" class="node"><title>Node5</title>
<g id="a_node5"><a xlink:href="d3/dee/classBagSubscriber.html" target="_top" xlink:title="BagSubscriber\&lt; sensor\l_msgs::PointCloud2 \&gt;">
<polygon fill="white" stroke="black" points="104.5,-0 104.5,-30 223.5,-30 223.5,-0 104.5,-0"/>
<text text-anchor="start" x="112.5" y="-18" font-family="Helvetica,sans-Serif" font-size="10.00">BagSubscriber&lt; sensor</text>
<text text-anchor="middle" x="164" y="-7" font-family="Helvetica,sans-Serif" font-size="10.00">_msgs::PointCloud2 &gt;</text>
</a>
</g>
</g>
<!-- Node1&#45;&gt;Node5 -->
<g id="edge4" class="edge"><title>Node1&#45;&gt;Node5</title>
<path fill="none" stroke="midnightblue" d="M55.2528,-72.2422C68.6339,-62.2577 86.8122,-49.4859 104,-40 110.428,-36.4523 117.464,-33.0721 124.366,-30.009"/>
<polygon fill="midnightblue" stroke="midnightblue" points="53.0657,-69.5082 47.2109,-78.3384 57.2944,-75.0866 53.0657,-69.5082"/>
</g>
</g>
</svg>
