<?xml version="1.0" encoding="UTF-8" standalone="no"?>
<!DOCTYPE svg PUBLIC "-//W3C//DTD SVG 1.1//EN"
 "http://www.w3.org/Graphics/SVG/1.1/DTD/svg11.dtd">
<!-- Generated by graphviz version 2.36.0 (20140111.2315)
 -->
<!-- Title: Graphical Class Hierarchy Pages: 1 -->
<svg width="526pt" height="142pt"
 viewBox="0.00 0.00 526.00 142.00" xmlns="http://www.w3.org/2000/svg" xmlns:xlink="http://www.w3.org/1999/xlink">
<g id="graph0" class="graph" transform="scale(1 1) rotate(0) translate(4 138)">
<title>Graphical Class Hierarchy</title>
<polygon fill="white" stroke="none" points="-4,4 -4,-138 522,-138 522,4 -4,4"/>
<!-- Node1 -->
<g id="node1" class="node"><title>Node1</title>
<g id="a_node1"><a xlink:href="db/d04/classGlobalParam.html" target="_top" xlink:title="GlobalParam">
<polygon fill="white" stroke="black" points="0.5,-57.5 0.5,-76.5 73.5,-76.5 73.5,-57.5 0.5,-57.5"/>
<text text-anchor="middle" x="37" y="-64.5" font-family="Helvetica,sans-Serif" font-size="10.00">GlobalParam</text>
</a>
</g>
</g>
<!-- Node2 -->
<g id="node2" class="node"><title>Node2</title>
<g id="a_node2"><a xlink:href="d2/d55/classGlobalUtil.html" target="_top" xlink:title="GlobalUtil">
<polygon fill="white" stroke="black" points="110.5,-57.5 110.5,-76.5 169.5,-76.5 169.5,-57.5 110.5,-57.5"/>
<text text-anchor="middle" x="140" y="-64.5" font-family="Helvetica,sans-Serif" font-size="10.00">GlobalUtil</text>
</a>
</g>
</g>
<!-- Node1&#45;&gt;Node2 -->
<g id="edge1" class="edge"><title>Node1&#45;&gt;Node2</title>
<path fill="none" stroke="midnightblue" d="M83.7006,-67C92.7736,-67 102.055,-67 110.359,-67"/>
<polygon fill="midnightblue" stroke="midnightblue" points="83.6089,-63.5001 73.6088,-67 83.6088,-70.5001 83.6089,-63.5001"/>
</g>
<!-- Node3 -->
<g id="node3" class="node"><title>Node3</title>
<g id="a_node3"><a xlink:href="df/da6/classGLTexImage.html" target="_top" xlink:title="GLTexImage">
<polygon fill="white" stroke="black" points="206.5,-76.5 206.5,-95.5 279.5,-95.5 279.5,-76.5 206.5,-76.5"/>
<text text-anchor="middle" x="243" y="-83.5" font-family="Helvetica,sans-Serif" font-size="10.00">GLTexImage</text>
</a>
</g>
</g>
<!-- Node2&#45;&gt;Node3 -->
<g id="edge2" class="edge"><title>Node2&#45;&gt;Node3</title>
<path fill="none" stroke="midnightblue" d="M179.687,-74.2777C188.474,-75.9308 197.767,-77.6789 206.418,-79.3063"/>
<polygon fill="midnightblue" stroke="midnightblue" points="180.147,-70.803 169.672,-72.3938 178.853,-77.6823 180.147,-70.803"/>
</g>
<!-- Node6 -->
<g id="node6" class="node"><title>Node6</title>
<g id="a_node6"><a xlink:href="dd/dce/classSiftPyramid.html" target="_top" xlink:title="SiftPyramid">
<polygon fill="white" stroke="black" points="209,-38.5 209,-57.5 277,-57.5 277,-38.5 209,-38.5"/>
<text text-anchor="middle" x="243" y="-45.5" font-family="Helvetica,sans-Serif" font-size="10.00">SiftPyramid</text>
</a>
</g>
</g>
<!-- Node2&#45;&gt;Node6 -->
<g id="edge5" class="edge"><title>Node2&#45;&gt;Node6</title>
<path fill="none" stroke="midnightblue" d="M179.503,-59.7569C189.217,-57.9295 199.559,-55.9839 208.977,-54.2123"/>
<polygon fill="midnightblue" stroke="midnightblue" points="178.853,-56.3177 169.672,-61.6062 180.147,-63.197 178.853,-56.3177"/>
</g>
<!-- Node4 -->
<g id="node4" class="node"><title>Node4</title>
<g id="a_node4"><a xlink:href="d0/d3c/classGLTexInput.html" target="_top" xlink:title="GLTexInput">
<polygon fill="white" stroke="black" points="322,-114.5 322,-133.5 390,-133.5 390,-114.5 322,-114.5"/>
<text text-anchor="middle" x="356" y="-121.5" font-family="Helvetica,sans-Serif" font-size="10.00">GLTexInput</text>
</a>
</g>
</g>
<!-- Node3&#45;&gt;Node4 -->
<g id="edge3" class="edge"><title>Node3&#45;&gt;Node4</title>
<path fill="none" stroke="midnightblue" d="M281.891,-98.9718C296.68,-104.034 313.329,-109.734 326.999,-114.414"/>
<polygon fill="midnightblue" stroke="midnightblue" points="282.605,-95.5166 272.01,-95.589 280.337,-102.139 282.605,-95.5166"/>
</g>
<!-- Node5 -->
<g id="node5" class="node"><title>Node5</title>
<g id="a_node5"><a xlink:href="d1/d1a/classGLTexPacked.html" target="_top" xlink:title="GLTexPacked">
<polygon fill="white" stroke="black" points="316.5,-76.5 316.5,-95.5 395.5,-95.5 395.5,-76.5 316.5,-76.5"/>
<text text-anchor="middle" x="356" y="-83.5" font-family="Helvetica,sans-Serif" font-size="10.00">GLTexPacked</text>
</a>
</g>
</g>
<!-- Node3&#45;&gt;Node5 -->
<g id="edge4" class="edge"><title>Node3&#45;&gt;Node5</title>
<path fill="none" stroke="midnightblue" d="M289.834,-86C298.617,-86 307.733,-86 316.265,-86"/>
<polygon fill="midnightblue" stroke="midnightblue" points="289.732,-82.5001 279.732,-86 289.732,-89.5001 289.732,-82.5001"/>
</g>
<!-- Node7 -->
<g id="node7" class="node"><title>Node7</title>
<g id="a_node7"><a xlink:href="d1/d75/classPyramidGL.html" target="_top" xlink:title="PyramidGL">
<polygon fill="white" stroke="black" points="323.5,-38.5 323.5,-57.5 388.5,-57.5 388.5,-38.5 323.5,-38.5"/>
<text text-anchor="middle" x="356" y="-45.5" font-family="Helvetica,sans-Serif" font-size="10.00">PyramidGL</text>
</a>
</g>
</g>
<!-- Node6&#45;&gt;Node7 -->
<g id="edge6" class="edge"><title>Node6&#45;&gt;Node7</title>
<path fill="none" stroke="midnightblue" d="M287.323,-48C299.371,-48 312.224,-48 323.457,-48"/>
<polygon fill="midnightblue" stroke="midnightblue" points="287.003,-44.5001 277.003,-48 287.003,-51.5001 287.003,-44.5001"/>
</g>
<!-- Node8 -->
<g id="node8" class="node"><title>Node8</title>
<g id="a_node8"><a xlink:href="d9/df0/classPyramidNaive.html" target="_top" xlink:title="PyramidNaive">
<polygon fill="white" stroke="black" points="436,-38.5 436,-57.5 514,-57.5 514,-38.5 436,-38.5"/>
<text text-anchor="middle" x="475" y="-45.5" font-family="Helvetica,sans-Serif" font-size="10.00">PyramidNaive</text>
</a>
</g>
</g>
<!-- Node7&#45;&gt;Node8 -->
<g id="edge7" class="edge"><title>Node7&#45;&gt;Node8</title>
<path fill="none" stroke="midnightblue" d="M398.88,-48C410.87,-48 423.876,-48 435.643,-48"/>
<polygon fill="midnightblue" stroke="midnightblue" points="398.662,-44.5001 388.662,-48 398.662,-51.5001 398.662,-44.5001"/>
</g>
<!-- Node9 -->
<g id="node9" class="node"><title>Node9</title>
<g id="a_node9"><a xlink:href="d0/dbc/classPyramidPacked.html" target="_top" xlink:title="PyramidPacked">
<polygon fill="white" stroke="black" points="432,-0.5 432,-19.5 518,-19.5 518,-0.5 432,-0.5"/>
<text text-anchor="middle" x="475" y="-7.5" font-family="Helvetica,sans-Serif" font-size="10.00">PyramidPacked</text>
</a>
</g>
</g>
<!-- Node7&#45;&gt;Node9 -->
<g id="edge8" class="edge"><title>Node7&#45;&gt;Node9</title>
<path fill="none" stroke="midnightblue" d="M396.042,-35.3196C411.851,-30.1852 429.799,-24.3559 444.485,-19.5859"/>
<polygon fill="midnightblue" stroke="midnightblue" points="394.954,-31.9931 386.524,-38.411 397.116,-38.6507 394.954,-31.9931"/>
</g>
<!-- Node10 -->
<g id="node10" class="node"><title>Node10</title>
<g id="a_node10"><a xlink:href="d4/d24/classShaderMan.html" target="_top" xlink:title="ShaderMan">
<polygon fill="white" stroke="black" points="323,-0.5 323,-19.5 389,-19.5 389,-0.5 323,-0.5"/>
<text text-anchor="middle" x="356" y="-7.5" font-family="Helvetica,sans-Serif" font-size="10.00">ShaderMan</text>
</a>
</g>
</g>
<!-- Node10&#45;&gt;Node8 -->
<g id="edge9" class="edge"><title>Node10&#45;&gt;Node8</title>
<path fill="none" stroke="midnightblue" d="M396.042,-22.6804C411.851,-27.8148 429.799,-33.6441 444.485,-38.4141"/>
<polygon fill="midnightblue" stroke="midnightblue" points="397.116,-19.3493 386.524,-19.589 394.954,-26.0069 397.116,-19.3493"/>
</g>
<!-- Node10&#45;&gt;Node9 -->
<g id="edge10" class="edge"><title>Node10&#45;&gt;Node9</title>
<path fill="none" stroke="midnightblue" d="M399.482,-10C409.989,-10 421.242,-10 431.738,-10"/>
<polygon fill="midnightblue" stroke="midnightblue" points="399.281,-6.5001 389.28,-10 399.28,-13.5001 399.281,-6.5001"/>
</g>
</g>
</svg>
