<?xml version="1.0" encoding="UTF-8" standalone="no"?>
<!DOCTYPE svg PUBLIC "-//W3C//DTD SVG 1.1//EN"
 "http://www.w3.org/Graphics/SVG/1.1/DTD/svg11.dtd">
<!-- Generated by graphviz version 2.36.0 (20140111.2315)
 -->
<!-- Title: Graphical Class Hierarchy Pages: 1 -->
<svg width="200pt" height="104pt"
 viewBox="0.00 0.00 200.00 104.00" xmlns="http://www.w3.org/2000/svg" xmlns:xlink="http://www.w3.org/1999/xlink">
<g id="graph0" class="graph" transform="scale(1 1) rotate(0) translate(4 100)">
<title>Graphical Class Hierarchy</title>
<polygon fill="white" stroke="none" points="-4,4 -4,-100 196,-100 196,4 -4,4"/>
<!-- Node1 -->
<g id="node1" class="node"><title>Node1</title>
<g id="a_node1"><a xlink:href="dc/d39/classANNkd__node.html" target="_top" xlink:title="ANNkd_node">
<polygon fill="white" stroke="black" points="0.5,-38.5 0.5,-57.5 75.5,-57.5 75.5,-38.5 0.5,-38.5"/>
<text text-anchor="middle" x="38" y="-45.5" font-family="Helvetica,sans-Serif" font-size="10.00">ANNkd_node</text>
</a>
</g>
</g>
<!-- Node2 -->
<g id="node2" class="node"><title>Node2</title>
<g id="a_node2"><a xlink:href="d8/da9/classANNbd__shrink.html" target="_top" xlink:title="ANNbd_shrink">
<polygon fill="white" stroke="black" points="112,-76.5 112,-95.5 192,-95.5 192,-76.5 112,-76.5"/>
<text text-anchor="middle" x="152" y="-83.5" font-family="Helvetica,sans-Serif" font-size="10.00">ANNbd_shrink</text>
</a>
</g>
</g>
<!-- Node1&#45;&gt;Node2 -->
<g id="edge1" class="edge"><title>Node1&#45;&gt;Node2</title>
<path fill="none" stroke="midnightblue" d="M76.8027,-60.8259C91.8308,-65.9247 108.82,-71.6891 122.747,-76.4141"/>
<polygon fill="midnightblue" stroke="midnightblue" points="77.8567,-57.4876 67.2623,-57.589 75.6076,-64.1165 77.8567,-57.4876"/>
</g>
<!-- Node3 -->
<g id="node3" class="node"><title>Node3</title>
<g id="a_node3"><a xlink:href="dd/d04/classANNkd__leaf.html" target="_top" xlink:title="ANNkd_leaf">
<polygon fill="white" stroke="black" points="117,-38.5 117,-57.5 187,-57.5 187,-38.5 117,-38.5"/>
<text text-anchor="middle" x="152" y="-45.5" font-family="Helvetica,sans-Serif" font-size="10.00">ANNkd_leaf</text>
</a>
</g>
</g>
<!-- Node1&#45;&gt;Node3 -->
<g id="edge2" class="edge"><title>Node1&#45;&gt;Node3</title>
<path fill="none" stroke="midnightblue" d="M85.8795,-48C96.2852,-48 107.123,-48 116.902,-48"/>
<polygon fill="midnightblue" stroke="midnightblue" points="85.673,-44.5001 75.673,-48 85.673,-51.5001 85.673,-44.5001"/>
</g>
<!-- Node4 -->
<g id="node4" class="node"><title>Node4</title>
<g id="a_node4"><a xlink:href="dc/d0c/classANNkd__split.html" target="_top" xlink:title="ANNkd_split">
<polygon fill="white" stroke="black" points="116,-0.5 116,-19.5 188,-19.5 188,-0.5 116,-0.5"/>
<text text-anchor="middle" x="152" y="-7.5" font-family="Helvetica,sans-Serif" font-size="10.00">ANNkd_split</text>
</a>
</g>
</g>
<!-- Node1&#45;&gt;Node4 -->
<g id="edge3" class="edge"><title>Node1&#45;&gt;Node4</title>
<path fill="none" stroke="midnightblue" d="M76.8027,-35.1741C91.8308,-30.0753 108.82,-24.3109 122.747,-19.5859"/>
<polygon fill="midnightblue" stroke="midnightblue" points="75.6076,-31.8835 67.2623,-38.411 77.8567,-38.5124 75.6076,-31.8835"/>
</g>
</g>
</svg>
