<?xml version="1.0" encoding="UTF-8" standalone="no"?>
<!DOCTYPE svg PUBLIC "-//W3C//DTD SVG 1.1//EN"
 "http://www.w3.org/Graphics/SVG/1.1/DTD/svg11.dtd">
<!-- Generated by graphviz version 2.36.0 (20140111.2315)
 -->
<!-- Title: GraphManager::setEmpiricalCovariancesForEdgeSet Pages: 1 -->
<svg width="328pt" height="38pt"
 viewBox="0.00 0.00 328.00 38.00" xmlns="http://www.w3.org/2000/svg" xmlns:xlink="http://www.w3.org/1999/xlink">
<g id="graph0" class="graph" transform="scale(1 1) rotate(0) translate(4 34)">
<title>GraphManager::setEmpiricalCovariancesForEdgeSet</title>
<polygon fill="white" stroke="none" points="-4,4 -4,-34 324,-34 324,4 -4,4"/>
<!-- Node1 -->
<g id="node1" class="node"><title>Node1</title>
<polygon fill="#bfbfbf" stroke="black" points="0,-0 0,-30 140,-30 140,-0 0,-0"/>
<text text-anchor="start" x="8" y="-18" font-family="Helvetica,sans-Serif" font-size="10.00">GraphManager::setEmpirical</text>
<text text-anchor="middle" x="70" y="-7" font-family="Helvetica,sans-Serif" font-size="10.00">CovariancesForEdgeSet</text>
</g>
<!-- Node2 -->
<g id="node2" class="node"><title>Node2</title>
<g id="a_node2"><a xlink:href="../../d6/d63/covariance__estimation_8cpp.html#a3f9c5eef4aa65b3e8a3c92ef1fc6539e" target="_top" xlink:title="computeEmpiricalInformation\lMatrix">
<polygon fill="white" stroke="black" points="176.5,-0 176.5,-30 319.5,-30 319.5,-0 176.5,-0"/>
<text text-anchor="start" x="184.5" y="-18" font-family="Helvetica,sans-Serif" font-size="10.00">computeEmpiricalInformation</text>
<text text-anchor="middle" x="248" y="-7" font-family="Helvetica,sans-Serif" font-size="10.00">Matrix</text>
</a>
</g>
</g>
<!-- Node1&#45;&gt;Node2 -->
<g id="edge1" class="edge"><title>Node1&#45;&gt;Node2</title>
<path fill="none" stroke="midnightblue" d="M140.055,-15C148.638,-15 157.473,-15 166.213,-15"/>
<polygon fill="midnightblue" stroke="midnightblue" points="166.408,-18.5001 176.408,-15 166.408,-11.5001 166.408,-18.5001"/>
</g>
</g>
</svg>
