<?xml version="1.0" encoding="UTF-8" standalone="no"?>
<!DOCTYPE svg PUBLIC "-//W3C//DTD SVG 1.1//EN"
 "http://www.w3.org/Graphics/SVG/1.1/DTD/svg11.dtd">
<!-- Generated by graphviz version 2.36.0 (20140111.2315)
 -->
<!-- Title: GraphManager::optimizeGraph Pages: 1 -->
<svg width="1336pt" height="509pt"
 viewBox="0.00 0.00 1336.00 508.59" xmlns="http://www.w3.org/2000/svg" xmlns:xlink="http://www.w3.org/1999/xlink">
<g id="graph0" class="graph" transform="scale(1 1) rotate(0) translate(4 504.591)">
<title>GraphManager::optimizeGraph</title>
<polygon fill="white" stroke="none" points="-4,4 -4,-504.591 1332,-504.591 1332,4 -4,4"/>
<!-- Node1 -->
<g id="node1" class="node"><title>Node1</title>
<polygon fill="#bfbfbf" stroke="black" points="0.5,-116.091 0.5,-135.091 149.5,-135.091 149.5,-116.091 0.5,-116.091"/>
<text text-anchor="middle" x="75" y="-123.091" font-family="Helvetica,sans-Serif" font-size="10.00">GraphManager::optimizeGraph</text>
</g>
<!-- Node2 -->
<g id="node2" class="node"><title>Node2</title>
<g id="a_node2"><a xlink:href="../../d3/d3e/classParameterServer.html#a5457f900e543c5a466bf9b65ee6bc577" target="_top" xlink:title="ParameterServer::instance">
<polygon fill="white" stroke="black" points="1181.5,-153.091 1181.5,-172.091 1314.5,-172.091 1314.5,-153.091 1181.5,-153.091"/>
<text text-anchor="middle" x="1248" y="-160.091" font-family="Helvetica,sans-Serif" font-size="10.00">ParameterServer::instance</text>
</a>
</g>
</g>
<!-- Node1&#45;&gt;Node2 -->
<g id="edge1" class="edge"><title>Node1&#45;&gt;Node2</title>
<path fill="none" stroke="midnightblue" d="M94.1668,-116.053C149.702,-87.8152 322.763,-6.59057 476,-6.59057 476,-6.59057 476,-6.59057 854,-6.59057 979.309,-6.59057 1033.52,23.8992 1132,-53.5906 1163.92,-78.708 1137.9,-110.317 1168,-137.591 1173.09,-142.198 1179.02,-145.957 1185.31,-149.023"/>
<polygon fill="midnightblue" stroke="midnightblue" points="1184.15,-152.333 1194.72,-153.038 1186.89,-145.894 1184.15,-152.333"/>
</g>
<!-- Node3 -->
<g id="node3" class="node"><title>Node3</title>
<g id="a_node3"><a xlink:href="../../d0/d8b/classGraphManager.html#aa29c73b4f404c4f89694f91c9af3e6a6" target="_top" xlink:title="Applies g2o for optimization returns chi2. ">
<polygon fill="white" stroke="black" points="186,-235.091 186,-254.091 354,-254.091 354,-235.091 186,-235.091"/>
<text text-anchor="middle" x="270" y="-242.091" font-family="Helvetica,sans-Serif" font-size="10.00">GraphManager::optimizeGraphImpl</text>
</a>
</g>
</g>
<!-- Node1&#45;&gt;Node3 -->
<g id="edge2" class="edge"><title>Node1&#45;&gt;Node3</title>
<path fill="none" stroke="midnightblue" d="M91.4678,-135.128C124.994,-155.799 204.572,-204.865 244.812,-229.676"/>
<polygon fill="midnightblue" stroke="midnightblue" points="243.11,-232.739 253.459,-235.008 246.783,-226.78 243.11,-232.739"/>
</g>
<!-- Node3&#45;&gt;Node2 -->
<g id="edge3" class="edge"><title>Node3&#45;&gt;Node2</title>
<path fill="none" stroke="midnightblue" d="M276.045,-234.893C290.023,-209.201 332.083,-139.512 390,-112.591 539.574,-43.0644 982.946,-22.957 1132,-93.5906 1154.83,-104.411 1147.09,-123.412 1168,-137.591 1175.27,-142.517 1183.56,-146.516 1191.97,-149.749"/>
<polygon fill="midnightblue" stroke="midnightblue" points="1190.89,-153.076 1201.48,-153.082 1193.2,-146.47 1190.89,-153.076"/>
</g>
<!-- Node4 -->
<g id="node4" class="node"><title>Node4</title>
<g id="a_node4"><a xlink:href="../../d3/d3e/classParameterServer.html#a3c8af50664e423b555bbb1874f488413" target="_top" xlink:title="ParameterServer::get">
<polygon fill="white" stroke="black" points="1193,-317.091 1193,-336.091 1303,-336.091 1303,-317.091 1193,-317.091"/>
<text text-anchor="middle" x="1248" y="-324.091" font-family="Helvetica,sans-Serif" font-size="10.00">ParameterServer::get</text>
</a>
</g>
</g>
<!-- Node3&#45;&gt;Node4 -->
<g id="edge4" class="edge"><title>Node3&#45;&gt;Node4</title>
<path fill="none" stroke="midnightblue" d="M274.016,-254.122C284.323,-284.91 321.364,-381.989 390,-421.591 498.037,-483.926 545.269,-440.591 670,-440.591 670,-440.591 670,-440.591 854,-440.591 995.949,-440.591 1155.73,-371.142 1219.03,-340.656"/>
<polygon fill="midnightblue" stroke="midnightblue" points="1220.89,-343.643 1228.34,-336.114 1217.82,-337.351 1220.89,-343.643"/>
</g>
<!-- Node5 -->
<g id="node5" class="node"><title>Node5</title>
<g id="a_node5"><a xlink:href="../../d4/d1a/graph__manager_8cpp.html#a3e690180d75a521b31a3d4b402793d5e" target="_top" xlink:title="fixationOfVertices">
<polygon fill="white" stroke="black" points="429.5,-279.091 429.5,-298.091 524.5,-298.091 524.5,-279.091 429.5,-279.091"/>
<text text-anchor="middle" x="477" y="-286.091" font-family="Helvetica,sans-Serif" font-size="10.00">fixationOfVertices</text>
</a>
</g>
</g>
<!-- Node3&#45;&gt;Node5 -->
<g id="edge5" class="edge"><title>Node3&#45;&gt;Node5</title>
<path fill="none" stroke="midnightblue" d="M315.482,-254.138C346.644,-260.826 388.473,-269.804 421.619,-276.918"/>
<polygon fill="midnightblue" stroke="midnightblue" points="421.093,-280.385 431.605,-279.062 422.562,-273.541 421.093,-280.385"/>
</g>
<!-- Node6 -->
<g id="node6" class="node"><title>Node6</title>
<g id="a_node6"><a xlink:href="../../d0/d8b/classGraphManager.html#a802422b66dc417f4125842b53da8183a" target="_top" xlink:title="GraphManager::last\l_added_cam_vertex_id">
<polygon fill="white" stroke="black" points="418.5,-229.591 418.5,-259.591 535.5,-259.591 535.5,-229.591 418.5,-229.591"/>
<text text-anchor="start" x="426.5" y="-247.591" font-family="Helvetica,sans-Serif" font-size="10.00">GraphManager::last</text>
<text text-anchor="middle" x="477" y="-236.591" font-family="Helvetica,sans-Serif" font-size="10.00">_added_cam_vertex_id</text>
</a>
</g>
</g>
<!-- Node3&#45;&gt;Node6 -->
<g id="edge6" class="edge"><title>Node3&#45;&gt;Node6</title>
<path fill="none" stroke="midnightblue" d="M354.086,-244.591C372.085,-244.591 390.913,-244.591 408.239,-244.591"/>
<polygon fill="midnightblue" stroke="midnightblue" points="408.249,-248.091 418.249,-244.591 408.249,-241.091 408.249,-248.091"/>
</g>
<!-- Node7 -->
<g id="node7" class="node"><title>Node7</title>
<g id="a_node7"><a xlink:href="../../d4/d08/misc_8h.html#a7bd6e35e893b731601e2239721f03ae9" target="_top" xlink:title="eigenTransf2TF">
<polygon fill="white" stroke="black" points="434.5,-191.091 434.5,-210.091 519.5,-210.091 519.5,-191.091 434.5,-191.091"/>
<text text-anchor="middle" x="477" y="-198.091" font-family="Helvetica,sans-Serif" font-size="10.00">eigenTransf2TF</text>
</a>
</g>
</g>
<!-- Node3&#45;&gt;Node7 -->
<g id="edge7" class="edge"><title>Node3&#45;&gt;Node7</title>
<path fill="none" stroke="midnightblue" d="M315.482,-235.043C347.497,-228.172 390.773,-218.883 424.323,-211.682"/>
<polygon fill="midnightblue" stroke="midnightblue" points="425.357,-215.04 434.399,-209.519 423.888,-208.196 425.357,-215.04"/>
</g>
<!-- Node8 -->
<g id="node8" class="node"><title>Node8</title>
<g id="a_node8"><a xlink:href="../../d0/d8b/classGraphManager.html#a5ed6dafc45d6736bb5fbbe0ba5cc1d89" target="_top" xlink:title="GraphManager::stampedTransform\lInWorldFrame">
<polygon fill="white" stroke="black" points="964,-103.591 964,-133.591 1132,-133.591 1132,-103.591 964,-103.591"/>
<text text-anchor="start" x="972" y="-121.591" font-family="Helvetica,sans-Serif" font-size="10.00">GraphManager::stampedTransform</text>
<text text-anchor="middle" x="1048" y="-110.591" font-family="Helvetica,sans-Serif" font-size="10.00">InWorldFrame</text>
</a>
</g>
</g>
<!-- Node3&#45;&gt;Node8 -->
<g id="edge8" class="edge"><title>Node3&#45;&gt;Node8</title>
<path fill="none" stroke="midnightblue" d="M278.341,-235.026C295.27,-213.83 339.49,-163.234 390,-143.591 489.999,-104.701 797.441,-109.448 953.72,-114.713"/>
<polygon fill="midnightblue" stroke="midnightblue" points="953.676,-118.214 963.791,-115.06 953.918,-111.218 953.676,-118.214"/>
</g>
<!-- Node10 -->
<g id="node10" class="node"><title>Node10</title>
<g id="a_node10"><a xlink:href="../../d0/d8b/classGraphManager.html#a4347303a3197042850f9d2226c70bfc9" target="_top" xlink:title="Broadcast given transform. ">
<polygon fill="white" stroke="black" points="390.5,-393.091 390.5,-412.091 563.5,-412.091 563.5,-393.091 390.5,-393.091"/>
<text text-anchor="middle" x="477" y="-400.091" font-family="Helvetica,sans-Serif" font-size="10.00">GraphManager::broadcastTransform</text>
</a>
</g>
</g>
<!-- Node3&#45;&gt;Node10 -->
<g id="edge12" class="edge"><title>Node3&#45;&gt;Node10</title>
<path fill="none" stroke="midnightblue" d="M276.212,-254.202C290.605,-279.764 333.602,-349.776 390,-383.591 393.615,-385.758 397.448,-387.678 401.41,-389.381"/>
<polygon fill="midnightblue" stroke="midnightblue" points="400.259,-392.687 410.85,-392.969 402.747,-386.144 400.259,-392.687"/>
</g>
<!-- Node12 -->
<g id="node12" class="node"><title>Node12</title>
<g id="a_node12"><a xlink:href="../../d0/d8b/classGraphManager.html#a1c8c6572bc4dd18f271496bc7f0d549c" target="_top" xlink:title="GraphManager::updateCloud\lOrigin">
<polygon fill="white" stroke="black" points="600.5,-343.591 600.5,-373.591 741.5,-373.591 741.5,-343.591 600.5,-343.591"/>
<text text-anchor="start" x="608.5" y="-361.591" font-family="Helvetica,sans-Serif" font-size="10.00">GraphManager::updateCloud</text>
<text text-anchor="middle" x="671" y="-350.591" font-family="Helvetica,sans-Serif" font-size="10.00">Origin</text>
</a>
</g>
</g>
<!-- Node3&#45;&gt;Node12 -->
<g id="edge14" class="edge"><title>Node3&#45;&gt;Node12</title>
<path fill="none" stroke="midnightblue" d="M285.725,-254.309C307.562,-268.265 350.241,-293.815 390,-307.591 426.156,-320.118 521.053,-336.155 590.379,-346.869"/>
<polygon fill="midnightblue" stroke="midnightblue" points="589.996,-350.351 600.412,-348.41 591.059,-343.432 589.996,-350.351"/>
</g>
<!-- Node13 -->
<g id="node13" class="node"><title>Node13</title>
<g id="a_node13"><a xlink:href="../../d0/d8b/classGraphManager.html#a9f80605d0434d29938fd8a7258156c24" target="_top" xlink:title="GraphManager::renderToOctomap">
<polygon fill="white" stroke="black" points="395,-153.091 395,-172.091 559,-172.091 559,-153.091 395,-153.091"/>
<text text-anchor="middle" x="477" y="-160.091" font-family="Helvetica,sans-Serif" font-size="10.00">GraphManager::renderToOctomap</text>
</a>
</g>
</g>
<!-- Node3&#45;&gt;Node13 -->
<g id="edge15" class="edge"><title>Node3&#45;&gt;Node13</title>
<path fill="none" stroke="midnightblue" d="M285.794,-235.067C307.718,-221.354 350.505,-196.104 390,-181.591 397.085,-178.987 404.636,-176.681 412.209,-174.654"/>
<polygon fill="midnightblue" stroke="midnightblue" points="413.3,-177.989 422.141,-172.15 411.588,-171.201 413.3,-177.989"/>
</g>
<!-- Node18 -->
<g id="node18" class="node"><title>Node18</title>
<g id="a_node18"><a xlink:href="../../d0/d8b/classGraphManager.html#a72b82d3cb977a1901c70c5aebac7c903" target="_top" xlink:title="Return pointer to a list of the optimizers graph edges on the heap(!) ">
<polygon fill="white" stroke="black" points="400,-35.0906 400,-54.0906 554,-54.0906 554,-35.0906 400,-35.0906"/>
<text text-anchor="middle" x="477" y="-42.0906" font-family="Helvetica,sans-Serif" font-size="10.00">GraphManager::getGraphEdges</text>
</a>
</g>
</g>
<!-- Node3&#45;&gt;Node18 -->
<g id="edge28" class="edge"><title>Node3&#45;&gt;Node18</title>
<path fill="none" stroke="midnightblue" d="M274.715,-234.83C286.58,-205 326.55,-114.292 390,-68.5906 396.053,-64.2306 402.87,-60.6618 409.949,-57.7406"/>
<polygon fill="midnightblue" stroke="midnightblue" points="411.542,-60.8839 419.717,-54.1453 409.124,-54.3147 411.542,-60.8839"/>
</g>
<!-- Node19 -->
<g id="node19" class="node"><title>Node19</title>
<g id="a_node19"><a xlink:href="../../d0/d8b/classGraphManager.html#a4aa1914e94c6a0d60f698d45811a01ef" target="_top" xlink:title="Return pointer to a list of the optimizers graph poses on the heap(!) ">
<polygon fill="white" stroke="black" points="407.5,-469.591 407.5,-499.591 546.5,-499.591 546.5,-469.591 407.5,-469.591"/>
<text text-anchor="start" x="415.5" y="-487.591" font-family="Helvetica,sans-Serif" font-size="10.00">GraphManager::getAllPoses</text>
<text text-anchor="middle" x="477" y="-476.591" font-family="Helvetica,sans-Serif" font-size="10.00">AsMatrixList</text>
</a>
</g>
</g>
<!-- Node3&#45;&gt;Node19 -->
<g id="edge29" class="edge"><title>Node3&#45;&gt;Node19</title>
<path fill="none" stroke="midnightblue" d="M273.718,-254.122C283.565,-286.965 320.505,-396.595 390,-454.591 394.78,-458.58 400.125,-462.052 405.747,-465.071"/>
<polygon fill="midnightblue" stroke="midnightblue" points="404.244,-468.232 414.768,-469.452 407.302,-461.935 404.244,-468.232"/>
</g>
<!-- Node22 -->
<g id="node22" class="node"><title>Node22</title>
<g id="a_node22"><a xlink:href="../../d7/d12/classScopedTimer.html#acb1a3efcc11ddfb39b059611f7e548ab" target="_top" xlink:title="Get time since construction. ">
<polygon fill="white" stroke="black" points="420,-355.091 420,-374.091 534,-374.091 534,-355.091 420,-355.091"/>
<text text-anchor="middle" x="477" y="-362.091" font-family="Helvetica,sans-Serif" font-size="10.00">ScopedTimer::elapsed</text>
</a>
</g>
</g>
<!-- Node3&#45;&gt;Node22 -->
<g id="edge32" class="edge"><title>Node3&#45;&gt;Node22</title>
<path fill="none" stroke="midnightblue" d="M280.211,-254.309C299.023,-273.598 343.98,-316.896 390,-340.591 398.889,-345.167 408.758,-348.962 418.549,-352.077"/>
<polygon fill="midnightblue" stroke="midnightblue" points="417.692,-355.473 428.275,-354.97 419.688,-348.764 417.692,-355.473"/>
</g>
<!-- Node8&#45;&gt;Node2 -->
<g id="edge9" class="edge"><title>Node8&#45;&gt;Node2</title>
<path fill="none" stroke="midnightblue" d="M1116.59,-133.61C1141.98,-139.252 1170.44,-145.577 1194.28,-150.875"/>
<polygon fill="midnightblue" stroke="midnightblue" points="1193.67,-154.325 1204.19,-153.078 1195.19,-147.492 1193.67,-154.325"/>
</g>
<!-- Node8&#45;&gt;Node4 -->
<g id="edge10" class="edge"><title>Node8&#45;&gt;Node4</title>
<path fill="none" stroke="midnightblue" d="M1063.56,-133.885C1099.65,-171.803 1193.07,-269.933 1230.82,-309.59"/>
<polygon fill="midnightblue" stroke="midnightblue" points="1228.36,-312.085 1237.79,-316.915 1233.43,-307.259 1228.36,-312.085"/>
</g>
<!-- Node9 -->
<g id="node9" class="node"><title>Node9</title>
<g id="a_node9"><a xlink:href="../../df/dd0/classNode.html#adaf50ff94906ea43c16b79fe0e3547ab" target="_top" xlink:title="Transform, e.g., from kinematics. ">
<polygon fill="white" stroke="black" points="1168.5,-109.091 1168.5,-128.091 1327.5,-128.091 1327.5,-109.091 1168.5,-109.091"/>
<text text-anchor="middle" x="1248" y="-116.091" font-family="Helvetica,sans-Serif" font-size="10.00">Node::getBase2PointsTransform</text>
</a>
</g>
</g>
<!-- Node8&#45;&gt;Node9 -->
<g id="edge11" class="edge"><title>Node8&#45;&gt;Node9</title>
<path fill="none" stroke="midnightblue" d="M1132.11,-118.591C1140.7,-118.591 1149.46,-118.591 1158.12,-118.591"/>
<polygon fill="midnightblue" stroke="midnightblue" points="1158.22,-122.091 1168.22,-118.591 1158.22,-115.091 1158.22,-122.091"/>
</g>
<!-- Node11 -->
<g id="node11" class="node"><title>Node11</title>
<g id="a_node11"><a xlink:href="../../de/d83/graph__manager_8h.html#a2e10953ff4a21d6e02d9574a3b2740b8" target="_top" xlink:title="Send node&#39;s pointcloud with given publisher and timestamp. ">
<polygon fill="white" stroke="black" points="634.5,-393.091 634.5,-412.091 707.5,-412.091 707.5,-393.091 634.5,-393.091"/>
<text text-anchor="middle" x="671" y="-400.091" font-family="Helvetica,sans-Serif" font-size="10.00">publishCloud</text>
</a>
</g>
</g>
<!-- Node10&#45;&gt;Node11 -->
<g id="edge13" class="edge"><title>Node10&#45;&gt;Node11</title>
<path fill="none" stroke="midnightblue" d="M563.612,-402.591C584.44,-402.591 605.928,-402.591 624.092,-402.591"/>
<polygon fill="midnightblue" stroke="midnightblue" points="624.094,-406.091 634.094,-402.591 624.094,-399.091 624.094,-406.091"/>
</g>
<!-- Node13&#45;&gt;Node2 -->
<g id="edge25" class="edge"><title>Node13&#45;&gt;Node2</title>
<path fill="none" stroke="midnightblue" d="M559.205,-162.591C708.794,-162.591 1025.85,-162.591 1171.26,-162.591"/>
<polygon fill="midnightblue" stroke="midnightblue" points="1171.42,-166.091 1181.42,-162.591 1171.42,-159.091 1171.42,-166.091"/>
</g>
<!-- Node13&#45;&gt;Node4 -->
<g id="edge26" class="edge"><title>Node13&#45;&gt;Node4</title>
<path fill="none" stroke="midnightblue" d="M548.788,-172.121C554.271,-174.637 559.439,-177.749 564,-181.591 596.321,-208.812 567.025,-243.165 600,-269.591 728.059,-372.217 800.476,-317.764 964,-331.591 1038.95,-337.928 1125.44,-334.9 1182.88,-331.44"/>
<polygon fill="midnightblue" stroke="midnightblue" points="1183.14,-334.93 1192.9,-330.814 1182.7,-327.944 1183.14,-334.93"/>
</g>
<!-- Node13&#45;&gt;Node12 -->
<g id="edge16" class="edge"><title>Node13&#45;&gt;Node12</title>
<path fill="none" stroke="midnightblue" d="M551.061,-172.258C555.785,-174.776 560.173,-177.85 564,-181.591 612.1,-228.61 556.511,-277.276 600,-328.591 602.965,-332.089 606.412,-335.191 610.156,-337.938"/>
<polygon fill="midnightblue" stroke="midnightblue" points="608.436,-340.993 618.753,-343.405 612.192,-335.086 608.436,-340.993"/>
</g>
<!-- Node14 -->
<g id="node14" class="node"><title>Node14</title>
<g id="a_node14"><a xlink:href="../../d7/ddc/classColorOctomapServer.html#ac16ce374c11799891e316f637acbd2e7" target="_top" xlink:title="ColorOctomapServer\l::insertCloudCallback">
<polygon fill="white" stroke="black" points="616,-191.591 616,-221.591 726,-221.591 726,-191.591 616,-191.591"/>
<text text-anchor="start" x="624" y="-209.591" font-family="Helvetica,sans-Serif" font-size="10.00">ColorOctomapServer</text>
<text text-anchor="middle" x="671" y="-198.591" font-family="Helvetica,sans-Serif" font-size="10.00">::insertCloudCallback</text>
</a>
</g>
</g>
<!-- Node13&#45;&gt;Node14 -->
<g id="edge17" class="edge"><title>Node13&#45;&gt;Node14</title>
<path fill="none" stroke="midnightblue" d="M521.777,-172.137C535.322,-175.124 550.286,-178.459 564,-181.591 577.572,-184.69 592.106,-188.075 605.925,-191.324"/>
<polygon fill="midnightblue" stroke="midnightblue" points="605.301,-194.773 615.837,-193.66 606.907,-187.96 605.301,-194.773"/>
</g>
<!-- Node17 -->
<g id="node17" class="node"><title>Node17</title>
<g id="a_node17"><a xlink:href="../../df/dd0/classNode.html#ade58f2370cb8542f4bc4c1350a3ba462" target="_top" xlink:title="erase the points from the cloud to save memory ">
<polygon fill="white" stroke="black" points="613.5,-241.091 613.5,-260.091 728.5,-260.091 728.5,-241.091 613.5,-241.091"/>
<text text-anchor="middle" x="671" y="-248.091" font-family="Helvetica,sans-Serif" font-size="10.00">Node::clearPointCloud</text>
</a>
</g>
</g>
<!-- Node13&#45;&gt;Node17 -->
<g id="edge27" class="edge"><title>Node13&#45;&gt;Node17</title>
<path fill="none" stroke="midnightblue" d="M544.77,-172.221C551.554,-174.679 558.106,-177.752 564,-181.591 586.644,-196.339 577.815,-215.16 600,-230.591 603.502,-233.026 607.297,-235.167 611.247,-237.049"/>
<polygon fill="midnightblue" stroke="midnightblue" points="610.105,-240.365 620.681,-240.986 612.801,-233.905 610.105,-240.365"/>
</g>
<!-- Node14&#45;&gt;Node2 -->
<g id="edge18" class="edge"><title>Node14&#45;&gt;Node2</title>
<path fill="none" stroke="midnightblue" d="M726.25,-204.039C812.362,-199.766 985.581,-190.267 1132,-176.591 1144.77,-175.398 1158.31,-173.931 1171.44,-172.401"/>
<polygon fill="midnightblue" stroke="midnightblue" points="1171.87,-175.875 1181.39,-171.222 1171.05,-168.923 1171.87,-175.875"/>
</g>
<!-- Node15 -->
<g id="node15" class="node"><title>Node15</title>
<g id="a_node15"><a xlink:href="../../d7/ddc/classColorOctomapServer.html#ab96bf80f442fcebd4e269b40dc31f841" target="_top" xlink:title="ColorOctomapServer\l::insertCloudCallbackCommon">
<polygon fill="white" stroke="black" points="778,-242.591 778,-272.591 928,-272.591 928,-242.591 778,-242.591"/>
<text text-anchor="start" x="786" y="-260.591" font-family="Helvetica,sans-Serif" font-size="10.00">ColorOctomapServer</text>
<text text-anchor="middle" x="853" y="-249.591" font-family="Helvetica,sans-Serif" font-size="10.00">::insertCloudCallbackCommon</text>
</a>
</g>
</g>
<!-- Node14&#45;&gt;Node15 -->
<g id="edge19" class="edge"><title>Node14&#45;&gt;Node15</title>
<path fill="none" stroke="midnightblue" d="M725.032,-221.616C745.175,-227.324 768.308,-233.878 789.264,-239.815"/>
<polygon fill="midnightblue" stroke="midnightblue" points="788.46,-243.225 799.036,-242.584 790.369,-236.491 788.46,-243.225"/>
</g>
<!-- Node15&#45;&gt;Node2 -->
<g id="edge20" class="edge"><title>Node15&#45;&gt;Node2</title>
<path fill="none" stroke="midnightblue" d="M928.071,-251.643C984.78,-245.775 1064.47,-234.672 1132,-214.591 1163.61,-205.19 1197.8,-188.871 1220.61,-177.016"/>
<polygon fill="midnightblue" stroke="midnightblue" points="1222.44,-180.007 1229.65,-172.242 1219.17,-173.818 1222.44,-180.007"/>
</g>
<!-- Node15&#45;&gt;Node4 -->
<g id="edge21" class="edge"><title>Node15&#45;&gt;Node4</title>
<path fill="none" stroke="midnightblue" d="M880.628,-272.624C902.34,-284.091 934.184,-299.142 964,-306.591 1037.48,-324.947 1124.79,-328.468 1182.81,-328.352"/>
<polygon fill="midnightblue" stroke="midnightblue" points="1182.95,-331.851 1192.93,-328.294 1182.91,-324.851 1182.95,-331.851"/>
</g>
<!-- Node16 -->
<g id="node16" class="node"><title>Node16</title>
<g id="a_node16"><a xlink:href="../../d7/ddc/classColorOctomapServer.html#ac7cca7bcabafb3876d7ad4bb3a6b6c8f" target="_top" xlink:title="Clear octomap and reset values to paramters from parameter server. ">
<polygon fill="white" stroke="black" points="994,-267.591 994,-297.591 1102,-297.591 1102,-267.591 994,-267.591"/>
<text text-anchor="start" x="1002" y="-285.591" font-family="Helvetica,sans-Serif" font-size="10.00">ColorOctomapServer</text>
<text text-anchor="middle" x="1048" y="-274.591" font-family="Helvetica,sans-Serif" font-size="10.00">::reset</text>
</a>
</g>
</g>
<!-- Node15&#45;&gt;Node16 -->
<g id="edge22" class="edge"><title>Node15&#45;&gt;Node16</title>
<path fill="none" stroke="midnightblue" d="M928.067,-267.185C946.373,-269.556 965.818,-272.075 983.567,-274.374"/>
<polygon fill="midnightblue" stroke="midnightblue" points="983.432,-277.886 993.799,-275.699 984.331,-270.944 983.432,-277.886"/>
</g>
<!-- Node16&#45;&gt;Node2 -->
<g id="edge23" class="edge"><title>Node16&#45;&gt;Node2</title>
<path fill="none" stroke="midnightblue" d="M1098.85,-267.479C1110.06,-263.293 1121.68,-258.303 1132,-252.591 1169.77,-231.691 1208.16,-198.785 1229.65,-179.085"/>
<polygon fill="midnightblue" stroke="midnightblue" points="1232.08,-181.606 1237.02,-172.234 1227.31,-176.479 1232.08,-181.606"/>
</g>
<!-- Node16&#45;&gt;Node4 -->
<g id="edge24" class="edge"><title>Node16&#45;&gt;Node4</title>
<path fill="none" stroke="midnightblue" d="M1102.06,-294.382C1130.65,-300.735 1165.81,-308.547 1194.33,-314.887"/>
<polygon fill="midnightblue" stroke="midnightblue" points="1193.61,-318.31 1204.13,-317.063 1195.12,-311.477 1193.61,-318.31"/>
</g>
<!-- Node20 -->
<g id="node20" class="node"><title>Node20</title>
<g id="a_node20"><a xlink:href="../../d4/d08/misc_8h.html#a2b945fc2871e0006d856539080d3e0a0" target="_top" xlink:title="eigenTF2QMatrix">
<polygon fill="white" stroke="black" points="625,-475.091 625,-494.091 717,-494.091 717,-475.091 625,-475.091"/>
<text text-anchor="middle" x="671" y="-482.091" font-family="Helvetica,sans-Serif" font-size="10.00">eigenTF2QMatrix</text>
</a>
</g>
</g>
<!-- Node19&#45;&gt;Node20 -->
<g id="edge30" class="edge"><title>Node19&#45;&gt;Node20</title>
<path fill="none" stroke="midnightblue" d="M546.503,-484.591C568.9,-484.591 593.478,-484.591 614.77,-484.591"/>
<polygon fill="midnightblue" stroke="midnightblue" points="614.934,-488.091 624.934,-484.591 614.934,-481.091 614.934,-488.091"/>
</g>
<!-- Node21 -->
<g id="node21" class="node"><title>Node21</title>
<g id="a_node21"><a xlink:href="../../d4/d08/misc_8h.html#afe9e1e85e61b3925b1121b6a11177591" target="_top" xlink:title="printQMatrix4x4">
<polygon fill="white" stroke="black" points="810,-475.091 810,-494.091 896,-494.091 896,-475.091 810,-475.091"/>
<text text-anchor="middle" x="853" y="-482.091" font-family="Helvetica,sans-Serif" font-size="10.00">printQMatrix4x4</text>
</a>
</g>
</g>
<!-- Node20&#45;&gt;Node21 -->
<g id="edge31" class="edge"><title>Node20&#45;&gt;Node21</title>
<path fill="none" stroke="midnightblue" d="M717.422,-484.591C742.522,-484.591 773.811,-484.591 799.901,-484.591"/>
<polygon fill="midnightblue" stroke="midnightblue" points="799.99,-488.091 809.99,-484.591 799.99,-481.091 799.99,-488.091"/>
</g>
</g>
</svg>
