<?xml version="1.0" encoding="UTF-8" standalone="no"?>
<!DOCTYPE svg PUBLIC "-//W3C//DTD SVG 1.1//EN"
 "http://www.w3.org/Graphics/SVG/1.1/DTD/svg11.dtd">
<!-- Generated by graphviz version 2.36.0 (20140111.2315)
 -->
<!-- Title: GraphManager::saveBagfile Pages: 1 -->
<svg width="526pt" height="218pt"
 viewBox="0.00 0.00 526.00 218.00" xmlns="http://www.w3.org/2000/svg" xmlns:xlink="http://www.w3.org/1999/xlink">
<g id="graph0" class="graph" transform="scale(1 1) rotate(0) translate(4 214)">
<title>GraphManager::saveBagfile</title>
<polygon fill="white" stroke="none" points="-4,4 -4,-214 522,-214 522,4 -4,4"/>
<!-- Node1 -->
<g id="node1" class="node"><title>Node1</title>
<polygon fill="#bfbfbf" stroke="black" points="0.5,-152.5 0.5,-171.5 137.5,-171.5 137.5,-152.5 0.5,-152.5"/>
<text text-anchor="middle" x="69" y="-159.5" font-family="Helvetica,sans-Serif" font-size="10.00">GraphManager::saveBagfile</text>
</g>
<!-- Node2 -->
<g id="node2" class="node"><title>Node2</title>
<g id="a_node2"><a xlink:href="../../d3/d3e/classParameterServer.html#a5457f900e543c5a466bf9b65ee6bc577" target="_top" xlink:title="ParameterServer::instance">
<polygon fill="white" stroke="black" points="371.5,-190.5 371.5,-209.5 504.5,-209.5 504.5,-190.5 371.5,-190.5"/>
<text text-anchor="middle" x="438" y="-197.5" font-family="Helvetica,sans-Serif" font-size="10.00">ParameterServer::instance</text>
</a>
</g>
</g>
<!-- Node1&#45;&gt;Node2 -->
<g id="edge1" class="edge"><title>Node1&#45;&gt;Node2</title>
<path fill="none" stroke="midnightblue" d="M137.64,-171.532C149.736,-173.115 162.233,-174.672 174,-176 236.894,-183.1 308.434,-189.521 361.007,-193.932"/>
<polygon fill="midnightblue" stroke="midnightblue" points="361.004,-197.443 371.26,-194.786 361.586,-190.468 361.004,-197.443"/>
</g>
<!-- Node3 -->
<g id="node3" class="node"><title>Node3</title>
<g id="a_node3"><a xlink:href="../../d0/d8b/classGraphManager.html#a0ca3bc82d7532c35ad52294ab9f2d0e4" target="_top" xlink:title="Compute the tranformation between (sensor) Base and Fixed (Map) frame. ">
<polygon fill="white" stroke="black" points="174,-103 174,-133 322,-133 322,-103 174,-103"/>
<text text-anchor="start" x="182" y="-121" font-family="Helvetica,sans-Serif" font-size="10.00">GraphManager::computeFixed</text>
<text text-anchor="middle" x="248" y="-110" font-family="Helvetica,sans-Serif" font-size="10.00">ToBaseTransform</text>
</a>
</g>
</g>
<!-- Node1&#45;&gt;Node3 -->
<g id="edge2" class="edge"><title>Node1&#45;&gt;Node3</title>
<path fill="none" stroke="midnightblue" d="M108.406,-152.453C128.334,-147.499 153.315,-141.289 176.56,-135.51"/>
<polygon fill="midnightblue" stroke="midnightblue" points="177.536,-138.875 186.396,-133.065 175.847,-132.081 177.536,-138.875"/>
</g>
<!-- Node5 -->
<g id="node5" class="node"><title>Node5</title>
<g id="a_node5"><a xlink:href="../../df/dd0/classNode.html#adaf50ff94906ea43c16b79fe0e3547ab" target="_top" xlink:title="Transform, e.g., from kinematics. ">
<polygon fill="white" stroke="black" points="358.5,-152.5 358.5,-171.5 517.5,-171.5 517.5,-152.5 358.5,-152.5"/>
<text text-anchor="middle" x="438" y="-159.5" font-family="Helvetica,sans-Serif" font-size="10.00">Node::getBase2PointsTransform</text>
</a>
</g>
</g>
<!-- Node1&#45;&gt;Node5 -->
<g id="edge9" class="edge"><title>Node1&#45;&gt;Node5</title>
<path fill="none" stroke="midnightblue" d="M137.741,-162C196.917,-162 283.239,-162 347.982,-162"/>
<polygon fill="midnightblue" stroke="midnightblue" points="348.18,-165.5 358.18,-162 348.18,-158.5 348.18,-165.5"/>
</g>
<!-- Node3&#45;&gt;Node2 -->
<g id="edge7" class="edge"><title>Node3&#45;&gt;Node2</title>
<path fill="none" stroke="midnightblue" d="M270.998,-133.267C292.356,-147.459 326.133,-168.27 358,-181 364.249,-183.496 370.912,-185.722 377.618,-187.691"/>
<polygon fill="midnightblue" stroke="midnightblue" points="376.86,-191.113 387.431,-190.395 378.72,-184.364 376.86,-191.113"/>
</g>
<!-- Node4 -->
<g id="node4" class="node"><title>Node4</title>
<g id="a_node4"><a xlink:href="../../d4/d08/misc_8h.html#a7bd6e35e893b731601e2239721f03ae9" target="_top" xlink:title="eigenTransf2TF">
<polygon fill="white" stroke="black" points="395.5,-38.5 395.5,-57.5 480.5,-57.5 480.5,-38.5 395.5,-38.5"/>
<text text-anchor="middle" x="438" y="-45.5" font-family="Helvetica,sans-Serif" font-size="10.00">eigenTransf2TF</text>
</a>
</g>
</g>
<!-- Node3&#45;&gt;Node4 -->
<g id="edge3" class="edge"><title>Node3&#45;&gt;Node4</title>
<path fill="none" stroke="midnightblue" d="M277.03,-102.966C298.666,-91.8369 329.605,-76.943 358,-67 366.702,-63.9529 376.11,-61.2232 385.296,-58.8475"/>
<polygon fill="midnightblue" stroke="midnightblue" points="386.268,-62.2125 395.133,-56.4103 384.585,-55.4179 386.268,-62.2125"/>
</g>
<!-- Node3&#45;&gt;Node5 -->
<g id="edge4" class="edge"><title>Node3&#45;&gt;Node5</title>
<path fill="none" stroke="midnightblue" d="M313.173,-133.019C337.064,-138.611 363.823,-144.874 386.336,-150.143"/>
<polygon fill="midnightblue" stroke="midnightblue" points="385.822,-153.617 396.356,-152.488 387.417,-146.801 385.822,-153.617"/>
</g>
<!-- Node6 -->
<g id="node6" class="node"><title>Node6</title>
<g id="a_node6"><a xlink:href="../../d7/d5f/misc_8cpp.html#a620c2e3dd4f6b457a8425876e8632981" target="_top" xlink:title="Print tf::Transform via ROS_INFO. ">
<polygon fill="white" stroke="black" points="398,-0.5 398,-19.5 478,-19.5 478,-0.5 398,-0.5"/>
<text text-anchor="middle" x="438" y="-7.5" font-family="Helvetica,sans-Serif" font-size="10.00">printTransform</text>
</a>
</g>
</g>
<!-- Node3&#45;&gt;Node6 -->
<g id="edge5" class="edge"><title>Node3&#45;&gt;Node6</title>
<path fill="none" stroke="midnightblue" d="M262.995,-102.955C282.405,-83.0059 319.479,-48.1032 358,-29 367.194,-24.4406 377.542,-20.9381 387.646,-18.2601"/>
<polygon fill="midnightblue" stroke="midnightblue" points="388.721,-21.6013 397.617,-15.8484 387.075,-14.7975 388.721,-21.6013"/>
</g>
<!-- Node7 -->
<g id="node7" class="node"><title>Node7</title>
<g id="a_node7"><a xlink:href="../../df/dd0/classNode.html#aa714d9c36f25c4a40d69b6bd100c10fe" target="_top" xlink:title="Transform, e.g., from MoCap. ">
<polygon fill="white" stroke="black" points="359,-114.5 359,-133.5 517,-133.5 517,-114.5 359,-114.5"/>
<text text-anchor="middle" x="438" y="-121.5" font-family="Helvetica,sans-Serif" font-size="10.00">Node::getGroundTruthTransform</text>
</a>
</g>
</g>
<!-- Node3&#45;&gt;Node7 -->
<g id="edge6" class="edge"><title>Node3&#45;&gt;Node7</title>
<path fill="none" stroke="midnightblue" d="M322.224,-120.337C330.82,-120.611 339.66,-120.893 348.437,-121.174"/>
<polygon fill="midnightblue" stroke="midnightblue" points="348.585,-124.68 358.692,-121.501 348.809,-117.684 348.585,-124.68"/>
</g>
<!-- Node8 -->
<g id="node8" class="node"><title>Node8</title>
<g id="a_node8"><a xlink:href="../../d3/d3e/classParameterServer.html#a3c8af50664e423b555bbb1874f488413" target="_top" xlink:title="ParameterServer::get">
<polygon fill="white" stroke="black" points="383,-76.5 383,-95.5 493,-95.5 493,-76.5 383,-76.5"/>
<text text-anchor="middle" x="438" y="-83.5" font-family="Helvetica,sans-Serif" font-size="10.00">ParameterServer::get</text>
</a>
</g>
</g>
<!-- Node3&#45;&gt;Node8 -->
<g id="edge8" class="edge"><title>Node3&#45;&gt;Node8</title>
<path fill="none" stroke="midnightblue" d="M322.224,-105.536C338.958,-102.688 356.618,-99.6821 372.933,-96.9049"/>
<polygon fill="midnightblue" stroke="midnightblue" points="373.628,-100.337 382.898,-95.2088 372.453,-93.4365 373.628,-100.337"/>
</g>
</g>
</svg>
