<?xml version="1.0" encoding="UTF-8" standalone="no"?>
<!DOCTYPE svg PUBLIC "-//W3C//DTD SVG 1.1//EN"
 "http://www.w3.org/Graphics/SVG/1.1/DTD/svg11.dtd">
<!-- Generated by graphviz version 2.36.0 (20140111.2315)
 -->
<!-- Title: GraphManager::optimizeGraphImpl Pages: 1 -->
<svg width="1150pt" height="697pt"
 viewBox="0.00 0.00 1150.00 697.38" xmlns="http://www.w3.org/2000/svg" xmlns:xlink="http://www.w3.org/1999/xlink">
<g id="graph0" class="graph" transform="scale(1 1) rotate(0) translate(4 693.381)">
<title>GraphManager::optimizeGraphImpl</title>
<polygon fill="white" stroke="none" points="-4,4 -4,-693.381 1146,-693.381 1146,4 -4,4"/>
<!-- Node1 -->
<g id="node1" class="node"><title>Node1</title>
<polygon fill="#bfbfbf" stroke="black" points="0,-230.5 0,-249.5 168,-249.5 168,-230.5 0,-230.5"/>
<text text-anchor="middle" x="84" y="-237.5" font-family="Helvetica,sans-Serif" font-size="10.00">GraphManager::optimizeGraphImpl</text>
</g>
<!-- Node2 -->
<g id="node2" class="node"><title>Node2</title>
<g id="a_node2"><a xlink:href="../../d3/d3e/classParameterServer.html#a5457f900e543c5a466bf9b65ee6bc577" target="_top" xlink:title="ParameterServer::instance">
<polygon fill="white" stroke="black" points="995.5,-395.5 995.5,-414.5 1128.5,-414.5 1128.5,-395.5 995.5,-395.5"/>
<text text-anchor="middle" x="1062" y="-402.5" font-family="Helvetica,sans-Serif" font-size="10.00">ParameterServer::instance</text>
</a>
</g>
</g>
<!-- Node1&#45;&gt;Node2 -->
<g id="edge1" class="edge"><title>Node1&#45;&gt;Node2</title>
<path fill="none" stroke="midnightblue" d="M107.81,-249.601C131.441,-259.13 169.654,-273.382 204,-281 357.574,-315.062 400.182,-296.413 556,-318 718.186,-340.47 908.182,-375.597 1002.18,-393.569"/>
<polygon fill="midnightblue" stroke="midnightblue" points="1001.58,-397.019 1012.06,-395.464 1002.9,-390.144 1001.58,-397.019"/>
</g>
<!-- Node3 -->
<g id="node3" class="node"><title>Node3</title>
<g id="a_node3"><a xlink:href="../../d3/d3e/classParameterServer.html#a3c8af50664e423b555bbb1874f488413" target="_top" xlink:title="ParameterServer::get">
<polygon fill="white" stroke="black" points="1007,-540.5 1007,-559.5 1117,-559.5 1117,-540.5 1007,-540.5"/>
<text text-anchor="middle" x="1062" y="-547.5" font-family="Helvetica,sans-Serif" font-size="10.00">ParameterServer::get</text>
</a>
</g>
</g>
<!-- Node1&#45;&gt;Node3 -->
<g id="edge2" class="edge"><title>Node1&#45;&gt;Node3</title>
<path fill="none" stroke="midnightblue" d="M89.1119,-249.677C102.121,-279.378 145.034,-370.623 204,-427 307.758,-526.201 340.45,-588 484,-588 484,-588 484,-588 668,-588 791.786,-588 823.116,-585.923 946,-571 965.64,-568.615 986.997,-565.001 1005.92,-561.441"/>
<polygon fill="midnightblue" stroke="midnightblue" points="1006.7,-564.855 1015.86,-559.533 1005.38,-557.981 1006.7,-564.855"/>
</g>
<!-- Node4 -->
<g id="node4" class="node"><title>Node4</title>
<g id="a_node4"><a xlink:href="../../d4/d1a/graph__manager_8cpp.html#a3e690180d75a521b31a3d4b402793d5e" target="_top" xlink:title="fixationOfVertices">
<polygon fill="white" stroke="black" points="243.5,-252.5 243.5,-271.5 338.5,-271.5 338.5,-252.5 243.5,-252.5"/>
<text text-anchor="middle" x="291" y="-259.5" font-family="Helvetica,sans-Serif" font-size="10.00">fixationOfVertices</text>
</a>
</g>
</g>
<!-- Node1&#45;&gt;Node4 -->
<g id="edge3" class="edge"><title>Node1&#45;&gt;Node4</title>
<path fill="none" stroke="midnightblue" d="M168.086,-248.917C190.018,-251.27 213.182,-253.756 233.359,-255.921"/>
<polygon fill="midnightblue" stroke="midnightblue" points="232.993,-259.402 243.31,-256.989 233.74,-252.442 232.993,-259.402"/>
</g>
<!-- Node5 -->
<g id="node5" class="node"><title>Node5</title>
<g id="a_node5"><a xlink:href="../../d0/d8b/classGraphManager.html#a802422b66dc417f4125842b53da8183a" target="_top" xlink:title="GraphManager::last\l_added_cam_vertex_id">
<polygon fill="white" stroke="black" points="232.5,-203 232.5,-233 349.5,-233 349.5,-203 232.5,-203"/>
<text text-anchor="start" x="240.5" y="-221" font-family="Helvetica,sans-Serif" font-size="10.00">GraphManager::last</text>
<text text-anchor="middle" x="291" y="-210" font-family="Helvetica,sans-Serif" font-size="10.00">_added_cam_vertex_id</text>
</a>
</g>
</g>
<!-- Node1&#45;&gt;Node5 -->
<g id="edge4" class="edge"><title>Node1&#45;&gt;Node5</title>
<path fill="none" stroke="midnightblue" d="M168.086,-231.083C186.085,-229.152 204.913,-227.131 222.239,-225.272"/>
<polygon fill="midnightblue" stroke="midnightblue" points="222.68,-228.745 232.249,-224.198 221.933,-221.785 222.68,-228.745"/>
</g>
<!-- Node6 -->
<g id="node6" class="node"><title>Node6</title>
<g id="a_node6"><a xlink:href="../../d4/d08/misc_8h.html#a7bd6e35e893b731601e2239721f03ae9" target="_top" xlink:title="eigenTransf2TF">
<polygon fill="white" stroke="black" points="248.5,-164.5 248.5,-183.5 333.5,-183.5 333.5,-164.5 248.5,-164.5"/>
<text text-anchor="middle" x="291" y="-171.5" font-family="Helvetica,sans-Serif" font-size="10.00">eigenTransf2TF</text>
</a>
</g>
</g>
<!-- Node1&#45;&gt;Node6 -->
<g id="edge5" class="edge"><title>Node1&#45;&gt;Node6</title>
<path fill="none" stroke="midnightblue" d="M107.043,-230.405C130.686,-220.368 169.495,-204.624 204,-194 214.991,-190.616 226.926,-187.498 238.308,-184.78"/>
<polygon fill="midnightblue" stroke="midnightblue" points="239.181,-188.17 248.13,-182.498 237.597,-181.352 239.181,-188.17"/>
</g>
<!-- Node7 -->
<g id="node7" class="node"><title>Node7</title>
<g id="a_node7"><a xlink:href="../../d0/d8b/classGraphManager.html#a5ed6dafc45d6736bb5fbbe0ba5cc1d89" target="_top" xlink:title="GraphManager::stampedTransform\lInWorldFrame">
<polygon fill="white" stroke="black" points="778,-617 778,-647 946,-647 946,-617 778,-617"/>
<text text-anchor="start" x="786" y="-635" font-family="Helvetica,sans-Serif" font-size="10.00">GraphManager::stampedTransform</text>
<text text-anchor="middle" x="862" y="-624" font-family="Helvetica,sans-Serif" font-size="10.00">InWorldFrame</text>
</a>
</g>
</g>
<!-- Node1&#45;&gt;Node7 -->
<g id="edge6" class="edge"><title>Node1&#45;&gt;Node7</title>
<path fill="none" stroke="midnightblue" d="M84.6222,-249.703C83.3413,-297.739 84.6592,-511.387 204,-602 383.074,-737.967 675.392,-682.51 800.783,-649.671"/>
<polygon fill="midnightblue" stroke="midnightblue" points="801.835,-653.012 810.597,-647.056 800.033,-646.248 801.835,-653.012"/>
</g>
<!-- Node9 -->
<g id="node9" class="node"><title>Node9</title>
<g id="a_node9"><a xlink:href="../../d0/d8b/classGraphManager.html#a4347303a3197042850f9d2226c70bfc9" target="_top" xlink:title="Broadcast given transform. ">
<polygon fill="white" stroke="black" points="204.5,-126.5 204.5,-145.5 377.5,-145.5 377.5,-126.5 204.5,-126.5"/>
<text text-anchor="middle" x="291" y="-133.5" font-family="Helvetica,sans-Serif" font-size="10.00">GraphManager::broadcastTransform</text>
</a>
</g>
</g>
<!-- Node1&#45;&gt;Node9 -->
<g id="edge10" class="edge"><title>Node1&#45;&gt;Node9</title>
<path fill="none" stroke="midnightblue" d="M95.2438,-230.436C114.796,-212.725 159.467,-174.825 204,-155 209.684,-152.47 215.733,-150.264 221.888,-148.343"/>
<polygon fill="midnightblue" stroke="midnightblue" points="222.964,-151.676 231.611,-145.554 221.033,-144.947 222.964,-151.676"/>
</g>
<!-- Node11 -->
<g id="node11" class="node"><title>Node11</title>
<g id="a_node11"><a xlink:href="../../d0/d8b/classGraphManager.html#a1c8c6572bc4dd18f271496bc7f0d549c" target="_top" xlink:title="GraphManager::updateCloud\lOrigin">
<polygon fill="white" stroke="black" points="414.5,-327 414.5,-357 555.5,-357 555.5,-327 414.5,-327"/>
<text text-anchor="start" x="422.5" y="-345" font-family="Helvetica,sans-Serif" font-size="10.00">GraphManager::updateCloud</text>
<text text-anchor="middle" x="485" y="-334" font-family="Helvetica,sans-Serif" font-size="10.00">Origin</text>
</a>
</g>
</g>
<!-- Node1&#45;&gt;Node11 -->
<g id="edge12" class="edge"><title>Node1&#45;&gt;Node11</title>
<path fill="none" stroke="midnightblue" d="M96.2418,-249.509C116.353,-265.912 160.47,-299.187 204,-314 269.008,-336.122 347.041,-342.392 404.198,-343.549"/>
<polygon fill="midnightblue" stroke="midnightblue" points="404.207,-347.049 414.26,-343.704 404.315,-340.05 404.207,-347.049"/>
</g>
<!-- Node12 -->
<g id="node12" class="node"><title>Node12</title>
<g id="a_node12"><a xlink:href="../../d0/d8b/classGraphManager.html#a9f80605d0434d29938fd8a7258156c24" target="_top" xlink:title="GraphManager::renderToOctomap">
<polygon fill="white" stroke="black" points="209,-398.5 209,-417.5 373,-417.5 373,-398.5 209,-398.5"/>
<text text-anchor="middle" x="291" y="-405.5" font-family="Helvetica,sans-Serif" font-size="10.00">GraphManager::renderToOctomap</text>
</a>
</g>
</g>
<!-- Node1&#45;&gt;Node12 -->
<g id="edge13" class="edge"><title>Node1&#45;&gt;Node12</title>
<path fill="none" stroke="midnightblue" d="M94.007,-249.726C113.161,-270.135 159.808,-318.4 204,-353 223.074,-367.934 246.297,-382.6 263.8,-393.027"/>
<polygon fill="midnightblue" stroke="midnightblue" points="262.479,-396.31 272.874,-398.358 266.025,-390.275 262.479,-396.31"/>
</g>
<!-- Node17 -->
<g id="node17" class="node"><title>Node17</title>
<g id="a_node17"><a xlink:href="../../d0/d8b/classGraphManager.html#a72b82d3cb977a1901c70c5aebac7c903" target="_top" xlink:title="Return pointer to a list of the optimizers graph edges on the heap(!) ">
<polygon fill="white" stroke="black" points="214,-88.5 214,-107.5 368,-107.5 368,-88.5 214,-88.5"/>
<text text-anchor="middle" x="291" y="-95.5" font-family="Helvetica,sans-Serif" font-size="10.00">GraphManager::getGraphEdges</text>
</a>
</g>
</g>
<!-- Node1&#45;&gt;Node17 -->
<g id="edge26" class="edge"><title>Node1&#45;&gt;Node17</title>
<path fill="none" stroke="midnightblue" d="M91.186,-230.497C106.939,-207.12 151.091,-146.573 204,-117 208.012,-114.757 212.269,-112.779 216.656,-111.035"/>
<polygon fill="midnightblue" stroke="midnightblue" points="218.167,-114.213 226.425,-107.576 215.831,-107.614 218.167,-114.213"/>
</g>
<!-- Node18 -->
<g id="node18" class="node"><title>Node18</title>
<g id="a_node18"><a xlink:href="../../d0/d8b/classGraphManager.html#a4aa1914e94c6a0d60f698d45811a01ef" target="_top" xlink:title="Return pointer to a list of the optimizers graph poses on the heap(!) ">
<polygon fill="white" stroke="black" points="221.5,-39 221.5,-69 360.5,-69 360.5,-39 221.5,-39"/>
<text text-anchor="start" x="229.5" y="-57" font-family="Helvetica,sans-Serif" font-size="10.00">GraphManager::getAllPoses</text>
<text text-anchor="middle" x="291" y="-46" font-family="Helvetica,sans-Serif" font-size="10.00">AsMatrixList</text>
</a>
</g>
</g>
<!-- Node1&#45;&gt;Node18 -->
<g id="edge27" class="edge"><title>Node1&#45;&gt;Node18</title>
<path fill="none" stroke="midnightblue" d="M89.3452,-230.315C102.402,-202.336 144.114,-120.73 204,-79 206.743,-77.0888 209.631,-75.3223 212.622,-73.6896"/>
<polygon fill="midnightblue" stroke="midnightblue" points="214.405,-76.7141 221.856,-69.1824 211.334,-70.4234 214.405,-76.7141"/>
</g>
<!-- Node21 -->
<g id="node21" class="node"><title>Node21</title>
<g id="a_node21"><a xlink:href="../../d7/d12/classScopedTimer.html#acb1a3efcc11ddfb39b059611f7e548ab" target="_top" xlink:title="Get time since construction. ">
<polygon fill="white" stroke="black" points="234,-0.5 234,-19.5 348,-19.5 348,-0.5 234,-0.5"/>
<text text-anchor="middle" x="291" y="-7.5" font-family="Helvetica,sans-Serif" font-size="10.00">ScopedTimer::elapsed</text>
</a>
</g>
</g>
<!-- Node1&#45;&gt;Node21 -->
<g id="edge30" class="edge"><title>Node1&#45;&gt;Node21</title>
<path fill="none" stroke="midnightblue" d="M87.4978,-230.19C96.6259,-196.437 131.5,-84.1909 204,-30 209.993,-25.5203 216.828,-22.0218 223.965,-19.2931"/>
<polygon fill="midnightblue" stroke="midnightblue" points="225.438,-22.4923 233.834,-16.0296 223.24,-15.8463 225.438,-22.4923"/>
</g>
<!-- Node7&#45;&gt;Node2 -->
<g id="edge7" class="edge"><title>Node7&#45;&gt;Node2</title>
<path fill="none" stroke="midnightblue" d="M876.299,-616.753C911.74,-576.121 1008.31,-465.405 1045.82,-422.404"/>
<polygon fill="midnightblue" stroke="midnightblue" points="1048.56,-424.584 1052.5,-414.747 1043.29,-419.982 1048.56,-424.584"/>
</g>
<!-- Node7&#45;&gt;Node3 -->
<g id="edge8" class="edge"><title>Node7&#45;&gt;Node3</title>
<path fill="none" stroke="midnightblue" d="M906.75,-616.907C919.484,-612.32 933.365,-607.131 946,-602 975.488,-590.025 1008.53,-574.899 1031.61,-564.052"/>
<polygon fill="midnightblue" stroke="midnightblue" points="1033.3,-567.124 1040.85,-559.688 1030.31,-560.795 1033.3,-567.124"/>
</g>
<!-- Node8 -->
<g id="node8" class="node"><title>Node8</title>
<g id="a_node8"><a xlink:href="../../df/dd0/classNode.html#adaf50ff94906ea43c16b79fe0e3547ab" target="_top" xlink:title="Transform, e.g., from kinematics. ">
<polygon fill="white" stroke="black" points="982.5,-622.5 982.5,-641.5 1141.5,-641.5 1141.5,-622.5 982.5,-622.5"/>
<text text-anchor="middle" x="1062" y="-629.5" font-family="Helvetica,sans-Serif" font-size="10.00">Node::getBase2PointsTransform</text>
</a>
</g>
</g>
<!-- Node7&#45;&gt;Node8 -->
<g id="edge9" class="edge"><title>Node7&#45;&gt;Node8</title>
<path fill="none" stroke="midnightblue" d="M946.109,-632C954.705,-632 963.464,-632 972.119,-632"/>
<polygon fill="midnightblue" stroke="midnightblue" points="972.216,-635.5 982.216,-632 972.216,-628.5 972.216,-635.5"/>
</g>
<!-- Node10 -->
<g id="node10" class="node"><title>Node10</title>
<g id="a_node10"><a xlink:href="../../de/d83/graph__manager_8h.html#a2e10953ff4a21d6e02d9574a3b2740b8" target="_top" xlink:title="Send node&#39;s pointcloud with given publisher and timestamp. ">
<polygon fill="white" stroke="black" points="448.5,-126.5 448.5,-145.5 521.5,-145.5 521.5,-126.5 448.5,-126.5"/>
<text text-anchor="middle" x="485" y="-133.5" font-family="Helvetica,sans-Serif" font-size="10.00">publishCloud</text>
</a>
</g>
</g>
<!-- Node9&#45;&gt;Node10 -->
<g id="edge11" class="edge"><title>Node9&#45;&gt;Node10</title>
<path fill="none" stroke="midnightblue" d="M377.612,-136C398.44,-136 419.928,-136 438.092,-136"/>
<polygon fill="midnightblue" stroke="midnightblue" points="438.094,-139.5 448.094,-136 438.094,-132.5 438.094,-139.5"/>
</g>
<!-- Node12&#45;&gt;Node2 -->
<g id="edge23" class="edge"><title>Node12&#45;&gt;Node2</title>
<path fill="none" stroke="midnightblue" d="M373.046,-406.641C386.716,-406.421 400.762,-406.199 414,-406 650.428,-402.438 709.581,-396.89 946,-401 958.609,-401.219 971.992,-401.574 985,-401.983"/>
<polygon fill="midnightblue" stroke="midnightblue" points="985.221,-405.492 995.331,-402.322 985.451,-398.496 985.221,-405.492"/>
</g>
<!-- Node12&#45;&gt;Node3 -->
<g id="edge24" class="edge"><title>Node12&#45;&gt;Node3</title>
<path fill="none" stroke="midnightblue" d="M301.722,-417.525C321.147,-435.881 366.947,-475.853 414,-493 616.545,-566.812 877.401,-562.169 996.518,-555.085"/>
<polygon fill="midnightblue" stroke="midnightblue" points="996.803,-558.574 1006.57,-554.461 996.369,-551.587 996.803,-558.574"/>
</g>
<!-- Node12&#45;&gt;Node11 -->
<g id="edge14" class="edge"><title>Node12&#45;&gt;Node11</title>
<path fill="none" stroke="midnightblue" d="M319.918,-398.403C348.724,-388.501 394.378,-372.808 430.224,-360.486"/>
<polygon fill="midnightblue" stroke="midnightblue" points="431.733,-363.668 440.052,-357.107 429.457,-357.048 431.733,-363.668"/>
</g>
<!-- Node13 -->
<g id="node13" class="node"><title>Node13</title>
<g id="a_node13"><a xlink:href="../../d7/ddc/classColorOctomapServer.html#ac16ce374c11799891e316f637acbd2e7" target="_top" xlink:title="ColorOctomapServer\l::insertCloudCallback">
<polygon fill="white" stroke="black" points="430,-415 430,-445 540,-445 540,-415 430,-415"/>
<text text-anchor="start" x="438" y="-433" font-family="Helvetica,sans-Serif" font-size="10.00">ColorOctomapServer</text>
<text text-anchor="middle" x="485" y="-422" font-family="Helvetica,sans-Serif" font-size="10.00">::insertCloudCallback</text>
</a>
</g>
</g>
<!-- Node12&#45;&gt;Node13 -->
<g id="edge15" class="edge"><title>Node12&#45;&gt;Node13</title>
<path fill="none" stroke="midnightblue" d="M373.147,-417.298C388.697,-419.08 404.78,-420.923 419.71,-422.633"/>
<polygon fill="midnightblue" stroke="midnightblue" points="419.508,-426.133 429.842,-423.794 420.305,-419.179 419.508,-426.133"/>
</g>
<!-- Node16 -->
<g id="node16" class="node"><title>Node16</title>
<g id="a_node16"><a xlink:href="../../df/dd0/classNode.html#ade58f2370cb8542f4bc4c1350a3ba462" target="_top" xlink:title="erase the points from the cloud to save memory ">
<polygon fill="white" stroke="black" points="427.5,-464.5 427.5,-483.5 542.5,-483.5 542.5,-464.5 427.5,-464.5"/>
<text text-anchor="middle" x="485" y="-471.5" font-family="Helvetica,sans-Serif" font-size="10.00">Node::clearPointCloud</text>
</a>
</g>
</g>
<!-- Node12&#45;&gt;Node16 -->
<g id="edge25" class="edge"><title>Node12&#45;&gt;Node16</title>
<path fill="none" stroke="midnightblue" d="M315.638,-417.574C340.066,-427.312 379.399,-442.556 414,-454 422.021,-456.653 430.626,-459.284 438.963,-461.724"/>
<polygon fill="midnightblue" stroke="midnightblue" points="437.997,-465.088 448.575,-464.49 439.933,-458.361 437.997,-465.088"/>
</g>
<!-- Node13&#45;&gt;Node2 -->
<g id="edge16" class="edge"><title>Node13&#45;&gt;Node2</title>
<path fill="none" stroke="midnightblue" d="M540.137,-423.689C556.756,-421.938 575.113,-420.193 592,-419 730.433,-409.223 892.321,-406.259 985.139,-405.37"/>
<polygon fill="midnightblue" stroke="midnightblue" points="985.313,-408.868 995.281,-405.278 985.25,-401.868 985.313,-408.868"/>
</g>
<!-- Node14 -->
<g id="node14" class="node"><title>Node14</title>
<g id="a_node14"><a xlink:href="../../d7/ddc/classColorOctomapServer.html#ab96bf80f442fcebd4e269b40dc31f841" target="_top" xlink:title="ColorOctomapServer\l::insertCloudCallbackCommon">
<polygon fill="white" stroke="black" points="592,-428 592,-458 742,-458 742,-428 592,-428"/>
<text text-anchor="start" x="600" y="-446" font-family="Helvetica,sans-Serif" font-size="10.00">ColorOctomapServer</text>
<text text-anchor="middle" x="667" y="-435" font-family="Helvetica,sans-Serif" font-size="10.00">::insertCloudCallbackCommon</text>
</a>
</g>
</g>
<!-- Node13&#45;&gt;Node14 -->
<g id="edge17" class="edge"><title>Node13&#45;&gt;Node14</title>
<path fill="none" stroke="midnightblue" d="M540.006,-433.9C553.089,-434.845 567.386,-435.878 581.503,-436.897"/>
<polygon fill="midnightblue" stroke="midnightblue" points="581.503,-440.406 591.73,-437.636 582.008,-433.425 581.503,-440.406"/>
</g>
<!-- Node14&#45;&gt;Node2 -->
<g id="edge18" class="edge"><title>Node14&#45;&gt;Node2</title>
<path fill="none" stroke="midnightblue" d="M742.382,-435.808C811.95,-429.081 915.352,-419.083 985.333,-412.316"/>
<polygon fill="midnightblue" stroke="midnightblue" points="985.791,-415.789 995.407,-411.342 985.117,-408.821 985.791,-415.789"/>
</g>
<!-- Node14&#45;&gt;Node3 -->
<g id="edge19" class="edge"><title>Node14&#45;&gt;Node3</title>
<path fill="none" stroke="midnightblue" d="M697.197,-458.099C718.981,-468.843 749.734,-482.927 778,-492 851.429,-515.571 938.75,-531.751 996.781,-540.916"/>
<polygon fill="midnightblue" stroke="midnightblue" points="996.489,-544.412 1006.91,-542.49 997.565,-537.495 996.489,-544.412"/>
</g>
<!-- Node15 -->
<g id="node15" class="node"><title>Node15</title>
<g id="a_node15"><a xlink:href="../../d7/ddc/classColorOctomapServer.html#ac7cca7bcabafb3876d7ad4bb3a6b6c8f" target="_top" xlink:title="Clear octomap and reset values to paramters from parameter server. ">
<polygon fill="white" stroke="black" points="808,-453 808,-483 916,-483 916,-453 808,-453"/>
<text text-anchor="start" x="816" y="-471" font-family="Helvetica,sans-Serif" font-size="10.00">ColorOctomapServer</text>
<text text-anchor="middle" x="862" y="-460" font-family="Helvetica,sans-Serif" font-size="10.00">::reset</text>
</a>
</g>
</g>
<!-- Node14&#45;&gt;Node15 -->
<g id="edge20" class="edge"><title>Node14&#45;&gt;Node15</title>
<path fill="none" stroke="midnightblue" d="M742.067,-452.594C760.373,-454.965 779.818,-457.484 797.567,-459.783"/>
<polygon fill="midnightblue" stroke="midnightblue" points="797.432,-463.295 807.799,-461.109 798.331,-456.353 797.432,-463.295"/>
</g>
<!-- Node15&#45;&gt;Node2 -->
<g id="edge21" class="edge"><title>Node15&#45;&gt;Node2</title>
<path fill="none" stroke="midnightblue" d="M910.174,-452.99C944.028,-442.218 989.142,-427.864 1021.19,-417.668"/>
<polygon fill="midnightblue" stroke="midnightblue" points="1022.63,-420.881 1031.1,-414.514 1020.51,-414.211 1022.63,-420.881"/>
</g>
<!-- Node15&#45;&gt;Node3 -->
<g id="edge22" class="edge"><title>Node15&#45;&gt;Node3</title>
<path fill="none" stroke="midnightblue" d="M906.75,-483.093C919.484,-487.68 933.365,-492.869 946,-498 975.488,-509.975 1008.53,-525.101 1031.61,-535.948"/>
<polygon fill="midnightblue" stroke="midnightblue" points="1030.31,-539.205 1040.85,-540.312 1033.3,-532.876 1030.31,-539.205"/>
</g>
<!-- Node19 -->
<g id="node19" class="node"><title>Node19</title>
<g id="a_node19"><a xlink:href="../../d4/d08/misc_8h.html#a2b945fc2871e0006d856539080d3e0a0" target="_top" xlink:title="eigenTF2QMatrix">
<polygon fill="white" stroke="black" points="439,-44.5 439,-63.5 531,-63.5 531,-44.5 439,-44.5"/>
<text text-anchor="middle" x="485" y="-51.5" font-family="Helvetica,sans-Serif" font-size="10.00">eigenTF2QMatrix</text>
</a>
</g>
</g>
<!-- Node18&#45;&gt;Node19 -->
<g id="edge28" class="edge"><title>Node18&#45;&gt;Node19</title>
<path fill="none" stroke="midnightblue" d="M360.503,-54C382.9,-54 407.478,-54 428.77,-54"/>
<polygon fill="midnightblue" stroke="midnightblue" points="428.934,-57.5001 438.934,-54 428.934,-50.5001 428.934,-57.5001"/>
</g>
<!-- Node20 -->
<g id="node20" class="node"><title>Node20</title>
<g id="a_node20"><a xlink:href="../../d4/d08/misc_8h.html#afe9e1e85e61b3925b1121b6a11177591" target="_top" xlink:title="printQMatrix4x4">
<polygon fill="white" stroke="black" points="624,-44.5 624,-63.5 710,-63.5 710,-44.5 624,-44.5"/>
<text text-anchor="middle" x="667" y="-51.5" font-family="Helvetica,sans-Serif" font-size="10.00">printQMatrix4x4</text>
</a>
</g>
</g>
<!-- Node19&#45;&gt;Node20 -->
<g id="edge29" class="edge"><title>Node19&#45;&gt;Node20</title>
<path fill="none" stroke="midnightblue" d="M531.422,-54C556.522,-54 587.811,-54 613.901,-54"/>
<polygon fill="midnightblue" stroke="midnightblue" points="613.99,-57.5001 623.99,-54 613.99,-50.5001 613.99,-57.5001"/>
</g>
</g>
</svg>
