<?xml version="1.0" encoding="UTF-8" standalone="no"?>
<!DOCTYPE svg PUBLIC "-//W3C//DTD SVG 1.1//EN"
 "http://www.w3.org/Graphics/SVG/1.1/DTD/svg11.dtd">
<!-- Generated by graphviz version 2.36.0 (20140111.2315)
 -->
<!-- Title: GraphManager::saveOctomap Pages: 1 -->
<svg width="1236pt" height="419pt"
 viewBox="0.00 0.00 1236.00 419.17" xmlns="http://www.w3.org/2000/svg" xmlns:xlink="http://www.w3.org/1999/xlink">
<g id="graph0" class="graph" transform="scale(1 1) rotate(0) translate(4 415.169)">
<title>GraphManager::saveOctomap</title>
<polygon fill="white" stroke="none" points="-4,4 -4,-415.169 1232,-415.169 1232,4 -4,4"/>
<!-- Node1 -->
<g id="node1" class="node"><title>Node1</title>
<polygon fill="#bfbfbf" stroke="black" points="0.5,-280.5 0.5,-299.5 147.5,-299.5 147.5,-280.5 0.5,-280.5"/>
<text text-anchor="middle" x="74" y="-287.5" font-family="Helvetica,sans-Serif" font-size="10.00">GraphManager::saveOctomap</text>
</g>
<!-- Node2 -->
<g id="node2" class="node"><title>Node2</title>
<g id="a_node2"><a xlink:href="../../d3/d3e/classParameterServer.html#a5457f900e543c5a466bf9b65ee6bc577" target="_top" xlink:title="ParameterServer::instance">
<polygon fill="white" stroke="black" points="1094.5,-110.5 1094.5,-129.5 1227.5,-129.5 1227.5,-110.5 1094.5,-110.5"/>
<text text-anchor="middle" x="1161" y="-117.5" font-family="Helvetica,sans-Serif" font-size="10.00">ParameterServer::instance</text>
</a>
</g>
</g>
<!-- Node1&#45;&gt;Node2 -->
<g id="edge1" class="edge"><title>Node1&#45;&gt;Node2</title>
<path fill="none" stroke="midnightblue" d="M81.1156,-280.351C113.839,-230.032 273.988,-0 467,-0 467,-0 467,-0 840,-0 939.21,-0 967.239,-7.93663 1058,-48 1090.13,-62.1822 1122.45,-87.2533 1141.84,-103.749"/>
<polygon fill="midnightblue" stroke="midnightblue" points="1139.72,-106.537 1149.56,-110.446 1144.3,-101.249 1139.72,-106.537"/>
</g>
<!-- Node3 -->
<g id="node3" class="node"><title>Node3</title>
<g id="a_node3"><a xlink:href="../../d0/d8b/classGraphManager.html#a9326b1a6847be22d3a8e7d62ba1cef78" target="_top" xlink:title="Only write (not create, not clear) existing octomap. ">
<polygon fill="white" stroke="black" points="394.5,-356.5 394.5,-375.5 541.5,-375.5 541.5,-356.5 394.5,-356.5"/>
<text text-anchor="middle" x="468" y="-363.5" font-family="Helvetica,sans-Serif" font-size="10.00">GraphManager::writeOctomap</text>
</a>
</g>
</g>
<!-- Node1&#45;&gt;Node3 -->
<g id="edge2" class="edge"><title>Node1&#45;&gt;Node3</title>
<path fill="none" stroke="midnightblue" d="M124.25,-299.548C196.376,-313.532 330.536,-339.543 407.887,-354.539"/>
<polygon fill="midnightblue" stroke="midnightblue" points="407.468,-358.023 417.951,-356.491 408.8,-351.151 407.468,-358.023"/>
</g>
<!-- Node6 -->
<g id="node6" class="node"><title>Node6</title>
<g id="a_node6"><a xlink:href="../../d0/d8b/classGraphManager.html#aab5a5410cbd554efa9da341fc630ec81" target="_top" xlink:title="GraphManager::saveOctomapImpl">
<polygon fill="white" stroke="black" points="184,-280.5 184,-299.5 350,-299.5 350,-280.5 184,-280.5"/>
<text text-anchor="middle" x="267" y="-287.5" font-family="Helvetica,sans-Serif" font-size="10.00">GraphManager::saveOctomapImpl</text>
</a>
</g>
</g>
<!-- Node1&#45;&gt;Node6 -->
<g id="edge6" class="edge"><title>Node1&#45;&gt;Node6</title>
<path fill="none" stroke="midnightblue" d="M147.754,-290C156.24,-290 164.981,-290 173.687,-290"/>
<polygon fill="midnightblue" stroke="midnightblue" points="173.873,-293.5 183.873,-290 173.873,-286.5 173.873,-293.5"/>
</g>
<!-- Node4 -->
<g id="node4" class="node"><title>Node4</title>
<g id="a_node4"><a xlink:href="../../d7/ddc/classColorOctomapServer.html#a6417ff01f1d2878b1ef7f036368e787f" target="_top" xlink:title="ColorOctomapServer\l::save">
<polygon fill="white" stroke="black" points="785,-335 785,-365 893,-365 893,-335 785,-335"/>
<text text-anchor="start" x="793" y="-353" font-family="Helvetica,sans-Serif" font-size="10.00">ColorOctomapServer</text>
<text text-anchor="middle" x="839" y="-342" font-family="Helvetica,sans-Serif" font-size="10.00">::save</text>
</a>
</g>
</g>
<!-- Node3&#45;&gt;Node4 -->
<g id="edge3" class="edge"><title>Node3&#45;&gt;Node4</title>
<path fill="none" stroke="midnightblue" d="M541.903,-362.839C609.887,-359.891 710.254,-355.539 774.888,-352.737"/>
<polygon fill="midnightblue" stroke="midnightblue" points="775.105,-356.231 784.944,-352.301 774.802,-349.237 775.105,-356.231"/>
</g>
<!-- Node4&#45;&gt;Node2 -->
<g id="edge4" class="edge"><title>Node4&#45;&gt;Node2</title>
<path fill="none" stroke="midnightblue" d="M873.216,-334.842C917.607,-313.776 997.675,-272.906 1058,-226 1092.89,-198.875 1127.21,-159.992 1145.8,-137.638"/>
<polygon fill="midnightblue" stroke="midnightblue" points="1148.69,-139.626 1152.33,-129.675 1143.28,-135.186 1148.69,-139.626"/>
</g>
<!-- Node5 -->
<g id="node5" class="node"><title>Node5</title>
<g id="a_node5"><a xlink:href="../../d3/d3e/classParameterServer.html#a3c8af50664e423b555bbb1874f488413" target="_top" xlink:title="ParameterServer::get">
<polygon fill="white" stroke="black" points="1106,-312.5 1106,-331.5 1216,-331.5 1216,-312.5 1106,-312.5"/>
<text text-anchor="middle" x="1161" y="-319.5" font-family="Helvetica,sans-Serif" font-size="10.00">ParameterServer::get</text>
</a>
</g>
</g>
<!-- Node4&#45;&gt;Node5 -->
<g id="edge5" class="edge"><title>Node4&#45;&gt;Node5</title>
<path fill="none" stroke="midnightblue" d="M893.395,-347.65C937.584,-345.445 1001.96,-341.637 1058,-336 1070.28,-334.765 1083.35,-333.177 1095.9,-331.518"/>
<polygon fill="midnightblue" stroke="midnightblue" points="1096.39,-334.984 1105.83,-330.177 1095.45,-328.047 1096.39,-334.984"/>
</g>
<!-- Node6&#45;&gt;Node2 -->
<g id="edge11" class="edge"><title>Node6&#45;&gt;Node2</title>
<path fill="none" stroke="midnightblue" d="M271.095,-280.417C281.636,-249.382 319.237,-150.871 386,-103 486.307,-31.0766 532.572,-38 656,-38 656,-38 656,-38 840,-38 949.016,-38 1072.57,-83.2104 1128.96,-106.491"/>
<polygon fill="midnightblue" stroke="midnightblue" points="1127.8,-109.799 1138.38,-110.433 1130.51,-103.342 1127.8,-109.799"/>
</g>
<!-- Node6&#45;&gt;Node3 -->
<g id="edge24" class="edge"><title>Node6&#45;&gt;Node3</title>
<path fill="none" stroke="midnightblue" d="M287.727,-299.618C310.906,-310.701 350.69,-329.048 386,-342 397.289,-346.141 409.655,-350.091 421.25,-353.548"/>
<polygon fill="midnightblue" stroke="midnightblue" points="420.615,-357.008 431.195,-356.451 422.576,-350.289 420.615,-357.008"/>
</g>
<!-- Node6&#45;&gt;Node4 -->
<g id="edge25" class="edge"><title>Node6&#45;&gt;Node4</title>
<path fill="none" stroke="midnightblue" d="M346.685,-299.521C359.81,-301.055 373.286,-302.599 386,-304 524.579,-319.271 687.267,-335.383 774.712,-343.895"/>
<polygon fill="midnightblue" stroke="midnightblue" points="774.447,-347.386 784.739,-344.87 775.125,-340.419 774.447,-347.386"/>
</g>
<!-- Node6&#45;&gt;Node5 -->
<g id="edge12" class="edge"><title>Node6&#45;&gt;Node5</title>
<path fill="none" stroke="midnightblue" d="M276.229,-299.796C293.892,-320.017 337.771,-366.069 386,-385 497.979,-428.954 535.703,-404 656,-404 656,-404 656,-404 840,-404 949.016,-404 1072.57,-358.79 1128.96,-335.509"/>
<polygon fill="midnightblue" stroke="midnightblue" points="1130.51,-338.658 1138.38,-331.567 1127.8,-332.201 1130.51,-338.658"/>
</g>
<!-- Node7 -->
<g id="node7" class="node"><title>Node7</title>
<g id="a_node7"><a xlink:href="../../d0/d8b/classGraphManager.html#a1c8c6572bc4dd18f271496bc7f0d549c" target="_top" xlink:title="GraphManager::updateCloud\lOrigin">
<polygon fill="white" stroke="black" points="586.5,-67 586.5,-97 727.5,-97 727.5,-67 586.5,-67"/>
<text text-anchor="start" x="594.5" y="-85" font-family="Helvetica,sans-Serif" font-size="10.00">GraphManager::updateCloud</text>
<text text-anchor="middle" x="657" y="-74" font-family="Helvetica,sans-Serif" font-size="10.00">Origin</text>
</a>
</g>
</g>
<!-- Node6&#45;&gt;Node7 -->
<g id="edge7" class="edge"><title>Node6&#45;&gt;Node7</title>
<path fill="none" stroke="midnightblue" d="M275.167,-280.337C292.055,-258.216 336.659,-203.463 386,-173 444.964,-136.596 520.247,-112.784 576.332,-98.6842"/>
<polygon fill="midnightblue" stroke="midnightblue" points="577.346,-102.039 586.219,-96.2488 575.672,-95.2422 577.346,-102.039"/>
</g>
<!-- Node8 -->
<g id="node8" class="node"><title>Node8</title>
<g id="a_node8"><a xlink:href="../../d7/ddc/classColorOctomapServer.html#ac7cca7bcabafb3876d7ad4bb3a6b6c8f" target="_top" xlink:title="Clear octomap and reset values to paramters from parameter server. ">
<polygon fill="white" stroke="black" points="950,-187 950,-217 1058,-217 1058,-187 950,-187"/>
<text text-anchor="start" x="958" y="-205" font-family="Helvetica,sans-Serif" font-size="10.00">ColorOctomapServer</text>
<text text-anchor="middle" x="1004" y="-194" font-family="Helvetica,sans-Serif" font-size="10.00">::reset</text>
</a>
</g>
</g>
<!-- Node6&#45;&gt;Node8 -->
<g id="edge8" class="edge"><title>Node6&#45;&gt;Node8</title>
<path fill="none" stroke="midnightblue" d="M347.356,-280.499C494.237,-262.913 805.687,-225.624 939.609,-209.59"/>
<polygon fill="midnightblue" stroke="midnightblue" points="940.195,-213.045 949.708,-208.38 939.363,-206.094 940.195,-213.045"/>
</g>
<!-- Node9 -->
<g id="node9" class="node"><title>Node9</title>
<g id="a_node9"><a xlink:href="../../d0/d8b/classGraphManager.html#a9f80605d0434d29938fd8a7258156c24" target="_top" xlink:title="GraphManager::renderToOctomap">
<polygon fill="white" stroke="black" points="386,-182.5 386,-201.5 550,-201.5 550,-182.5 386,-182.5"/>
<text text-anchor="middle" x="468" y="-189.5" font-family="Helvetica,sans-Serif" font-size="10.00">GraphManager::renderToOctomap</text>
</a>
</g>
</g>
<!-- Node6&#45;&gt;Node9 -->
<g id="edge13" class="edge"><title>Node6&#45;&gt;Node9</title>
<path fill="none" stroke="midnightblue" d="M287.443,-280.425C322.664,-263.08 397.171,-226.388 438.274,-206.147"/>
<polygon fill="midnightblue" stroke="midnightblue" points="440.053,-209.172 447.478,-201.614 436.96,-202.892 440.053,-209.172"/>
</g>
<!-- Node8&#45;&gt;Node2 -->
<g id="edge9" class="edge"><title>Node8&#45;&gt;Node2</title>
<path fill="none" stroke="midnightblue" d="M1033.43,-186.96C1061.73,-171.988 1104.86,-149.17 1132.74,-134.419"/>
<polygon fill="midnightblue" stroke="midnightblue" points="1134.72,-137.334 1141.92,-129.564 1131.44,-131.147 1134.72,-137.334"/>
</g>
<!-- Node8&#45;&gt;Node5 -->
<g id="edge10" class="edge"><title>Node8&#45;&gt;Node5</title>
<path fill="none" stroke="midnightblue" d="M1024.63,-217.198C1054.14,-240.044 1109.65,-283.022 1139.6,-306.21"/>
<polygon fill="midnightblue" stroke="midnightblue" points="1137.63,-309.106 1147.68,-312.46 1141.91,-303.571 1137.63,-309.106"/>
</g>
<!-- Node9&#45;&gt;Node2 -->
<g id="edge21" class="edge"><title>Node9&#45;&gt;Node2</title>
<path fill="none" stroke="midnightblue" d="M487.445,-182.398C510.004,-171.178 549.682,-153.114 586,-145 761.113,-105.878 973.544,-109.392 1084.39,-114.94"/>
<polygon fill="midnightblue" stroke="midnightblue" points="1084.3,-118.44 1094.47,-115.465 1084.66,-111.45 1084.3,-118.44"/>
</g>
<!-- Node9&#45;&gt;Node5 -->
<g id="edge22" class="edge"><title>Node9&#45;&gt;Node5</title>
<path fill="none" stroke="midnightblue" d="M492.365,-201.617C515.709,-210.882 552.803,-224.684 586,-233 768.185,-278.636 989.088,-304.976 1095.95,-315.942"/>
<polygon fill="midnightblue" stroke="midnightblue" points="1095.63,-319.427 1105.93,-316.955 1096.33,-312.463 1095.63,-319.427"/>
</g>
<!-- Node9&#45;&gt;Node7 -->
<g id="edge14" class="edge"><title>Node9&#45;&gt;Node7</title>
<path fill="none" stroke="midnightblue" d="M481.462,-182.269C502.299,-166.282 545.885,-134.036 586,-112 592.926,-108.195 600.433,-104.532 607.873,-101.152"/>
<polygon fill="midnightblue" stroke="midnightblue" points="609.475,-104.27 617.212,-97.0315 606.65,-97.8659 609.475,-104.27"/>
</g>
<!-- Node10 -->
<g id="node10" class="node"><title>Node10</title>
<g id="a_node10"><a xlink:href="../../d7/ddc/classColorOctomapServer.html#ac16ce374c11799891e316f637acbd2e7" target="_top" xlink:title="ColorOctomapServer\l::insertCloudCallback">
<polygon fill="white" stroke="black" points="602,-155 602,-185 712,-185 712,-155 602,-155"/>
<text text-anchor="start" x="610" y="-173" font-family="Helvetica,sans-Serif" font-size="10.00">ColorOctomapServer</text>
<text text-anchor="middle" x="657" y="-162" font-family="Helvetica,sans-Serif" font-size="10.00">::insertCloudCallback</text>
</a>
</g>
</g>
<!-- Node9&#45;&gt;Node10 -->
<g id="edge15" class="edge"><title>Node9&#45;&gt;Node10</title>
<path fill="none" stroke="midnightblue" d="M549.933,-182.478C563.935,-180.831 578.319,-179.139 591.799,-177.553"/>
<polygon fill="midnightblue" stroke="midnightblue" points="592.387,-181.008 601.91,-176.364 591.569,-174.056 592.387,-181.008"/>
</g>
<!-- Node12 -->
<g id="node12" class="node"><title>Node12</title>
<g id="a_node12"><a xlink:href="../../df/dd0/classNode.html#ade58f2370cb8542f4bc4c1350a3ba462" target="_top" xlink:title="erase the points from the cloud to save memory ">
<polygon fill="white" stroke="black" points="599.5,-204.5 599.5,-223.5 714.5,-223.5 714.5,-204.5 599.5,-204.5"/>
<text text-anchor="middle" x="657" y="-211.5" font-family="Helvetica,sans-Serif" font-size="10.00">Node::clearPointCloud</text>
</a>
</g>
</g>
<!-- Node9&#45;&gt;Node12 -->
<g id="edge23" class="edge"><title>Node9&#45;&gt;Node12</title>
<path fill="none" stroke="midnightblue" d="M549.933,-201.522C563.096,-203.07 576.598,-204.659 589.368,-206.161"/>
<polygon fill="midnightblue" stroke="midnightblue" points="589.093,-209.653 599.433,-207.345 589.91,-202.701 589.093,-209.653"/>
</g>
<!-- Node10&#45;&gt;Node2 -->
<g id="edge16" class="edge"><title>Node10&#45;&gt;Node2</title>
<path fill="none" stroke="midnightblue" d="M712.197,-163.861C728.818,-161.98 747.161,-159.904 764,-158 846.665,-148.654 867.196,-145.024 950,-137 994.376,-132.7 1044.1,-128.641 1084.02,-125.568"/>
<polygon fill="midnightblue" stroke="midnightblue" points="1084.51,-129.041 1094.22,-124.788 1083.98,-122.061 1084.51,-129.041"/>
</g>
<!-- Node11 -->
<g id="node11" class="node"><title>Node11</title>
<g id="a_node11"><a xlink:href="../../d7/ddc/classColorOctomapServer.html#ab96bf80f442fcebd4e269b40dc31f841" target="_top" xlink:title="ColorOctomapServer\l::insertCloudCallbackCommon">
<polygon fill="white" stroke="black" points="764,-168 764,-198 914,-198 914,-168 764,-168"/>
<text text-anchor="start" x="772" y="-186" font-family="Helvetica,sans-Serif" font-size="10.00">ColorOctomapServer</text>
<text text-anchor="middle" x="839" y="-175" font-family="Helvetica,sans-Serif" font-size="10.00">::insertCloudCallbackCommon</text>
</a>
</g>
</g>
<!-- Node10&#45;&gt;Node11 -->
<g id="edge17" class="edge"><title>Node10&#45;&gt;Node11</title>
<path fill="none" stroke="midnightblue" d="M712.006,-173.9C725.089,-174.845 739.386,-175.878 753.503,-176.897"/>
<polygon fill="midnightblue" stroke="midnightblue" points="753.503,-180.406 763.73,-177.636 754.008,-173.425 753.503,-180.406"/>
</g>
<!-- Node11&#45;&gt;Node2 -->
<g id="edge18" class="edge"><title>Node11&#45;&gt;Node2</title>
<path fill="none" stroke="midnightblue" d="M914.219,-168.388C971.285,-157.153 1049.02,-141.849 1101.67,-131.483"/>
<polygon fill="midnightblue" stroke="midnightblue" points="1102.39,-134.909 1111.53,-129.543 1101.04,-128.04 1102.39,-134.909"/>
</g>
<!-- Node11&#45;&gt;Node5 -->
<g id="edge19" class="edge"><title>Node11&#45;&gt;Node5</title>
<path fill="none" stroke="midnightblue" d="M874.55,-198.008C937.163,-225.205 1068.47,-282.24 1128.65,-308.382"/>
<polygon fill="midnightblue" stroke="midnightblue" points="1127.45,-311.677 1138.02,-312.451 1130.24,-305.256 1127.45,-311.677"/>
</g>
<!-- Node11&#45;&gt;Node8 -->
<g id="edge20" class="edge"><title>Node11&#45;&gt;Node8</title>
<path fill="none" stroke="midnightblue" d="M914.345,-191.666C922.822,-192.654 931.402,-193.654 939.716,-194.623"/>
<polygon fill="midnightblue" stroke="midnightblue" points="939.362,-198.106 949.7,-195.787 940.172,-191.153 939.362,-198.106"/>
</g>
</g>
</svg>
