<?xml version="1.0" encoding="UTF-8" standalone="no"?>
<!DOCTYPE svg PUBLIC "-//W3C//DTD SVG 1.1//EN"
 "http://www.w3.org/Graphics/SVG/1.1/DTD/svg11.dtd">
<!-- Generated by graphviz version 2.36.0 (20140111.2315)
 -->
<!-- Title: GraphManager::renderToOctomap Pages: 1 -->
<svg width="850pt" height="317pt"
 viewBox="0.00 0.00 850.00 317.00" xmlns="http://www.w3.org/2000/svg" xmlns:xlink="http://www.w3.org/1999/xlink">
<g id="graph0" class="graph" transform="scale(1 1) rotate(0) translate(4 313)">
<title>GraphManager::renderToOctomap</title>
<polygon fill="white" stroke="none" points="-4,4 -4,-313 846,-313 846,4 -4,4"/>
<!-- Node1 -->
<g id="node1" class="node"><title>Node1</title>
<polygon fill="#bfbfbf" stroke="black" points="0,-177.5 0,-196.5 164,-196.5 164,-177.5 0,-177.5"/>
<text text-anchor="middle" x="82" y="-184.5" font-family="Helvetica,sans-Serif" font-size="10.00">GraphManager::renderToOctomap</text>
</g>
<!-- Node2 -->
<g id="node2" class="node"><title>Node2</title>
<g id="a_node2"><a xlink:href="../../d0/d8b/classGraphManager.html#a1c8c6572bc4dd18f271496bc7f0d549c" target="_top" xlink:title="GraphManager::updateCloud\lOrigin">
<polygon fill="white" stroke="black" points="200.5,-279 200.5,-309 341.5,-309 341.5,-279 200.5,-279"/>
<text text-anchor="start" x="208.5" y="-297" font-family="Helvetica,sans-Serif" font-size="10.00">GraphManager::updateCloud</text>
<text text-anchor="middle" x="271" y="-286" font-family="Helvetica,sans-Serif" font-size="10.00">Origin</text>
</a>
</g>
</g>
<!-- Node1&#45;&gt;Node2 -->
<g id="edge1" class="edge"><title>Node1&#45;&gt;Node2</title>
<path fill="none" stroke="midnightblue" d="M95.8644,-196.566C116.923,-211.968 160.381,-242.691 200,-264 206.959,-267.743 214.484,-271.374 221.932,-274.74"/>
<polygon fill="midnightblue" stroke="midnightblue" points="220.713,-278.027 231.275,-278.852 223.532,-271.62 220.713,-278.027"/>
</g>
<!-- Node3 -->
<g id="node3" class="node"><title>Node3</title>
<g id="a_node3"><a xlink:href="../../d7/ddc/classColorOctomapServer.html#ac16ce374c11799891e316f637acbd2e7" target="_top" xlink:title="ColorOctomapServer\l::insertCloudCallback">
<polygon fill="white" stroke="black" points="216,-172 216,-202 326,-202 326,-172 216,-172"/>
<text text-anchor="start" x="224" y="-190" font-family="Helvetica,sans-Serif" font-size="10.00">ColorOctomapServer</text>
<text text-anchor="middle" x="271" y="-179" font-family="Helvetica,sans-Serif" font-size="10.00">::insertCloudCallback</text>
</a>
</g>
</g>
<!-- Node1&#45;&gt;Node3 -->
<g id="edge2" class="edge"><title>Node1&#45;&gt;Node3</title>
<path fill="none" stroke="midnightblue" d="M164.205,-187C178.108,-187 192.379,-187 205.761,-187"/>
<polygon fill="midnightblue" stroke="midnightblue" points="205.801,-190.5 215.801,-187 205.8,-183.5 205.801,-190.5"/>
</g>
<!-- Node4 -->
<g id="node4" class="node"><title>Node4</title>
<g id="a_node4"><a xlink:href="../../d3/d3e/classParameterServer.html#a5457f900e543c5a466bf9b65ee6bc577" target="_top" xlink:title="ParameterServer::instance">
<polygon fill="white" stroke="black" points="708.5,-183.5 708.5,-202.5 841.5,-202.5 841.5,-183.5 708.5,-183.5"/>
<text text-anchor="middle" x="775" y="-190.5" font-family="Helvetica,sans-Serif" font-size="10.00">ParameterServer::instance</text>
</a>
</g>
</g>
<!-- Node1&#45;&gt;Node4 -->
<g id="edge10" class="edge"><title>Node1&#45;&gt;Node4</title>
<path fill="none" stroke="midnightblue" d="M119.853,-196.554C142.743,-201.989 172.872,-208.246 200,-211 271.114,-218.219 559.362,-212.631 672,-205 680.531,-204.422 689.444,-203.64 698.298,-202.749"/>
<polygon fill="midnightblue" stroke="midnightblue" points="698.667,-206.23 708.246,-201.704 697.935,-199.269 698.667,-206.23"/>
</g>
<!-- Node6 -->
<g id="node6" class="node"><title>Node6</title>
<g id="a_node6"><a xlink:href="../../d3/d3e/classParameterServer.html#a3c8af50664e423b555bbb1874f488413" target="_top" xlink:title="ParameterServer::get">
<polygon fill="white" stroke="black" points="720,-76.5 720,-95.5 830,-95.5 830,-76.5 720,-76.5"/>
<text text-anchor="middle" x="775" y="-83.5" font-family="Helvetica,sans-Serif" font-size="10.00">ParameterServer::get</text>
</a>
</g>
</g>
<!-- Node1&#45;&gt;Node6 -->
<g id="edge11" class="edge"><title>Node1&#45;&gt;Node6</title>
<path fill="none" stroke="midnightblue" d="M117.035,-177.42C195.196,-155.975 393.897,-104.608 564,-87 612.746,-81.9542 668.198,-81.9314 709.875,-83.048"/>
<polygon fill="midnightblue" stroke="midnightblue" points="709.792,-86.547 719.892,-83.3452 710,-79.5501 709.792,-86.547"/>
</g>
<!-- Node8 -->
<g id="node8" class="node"><title>Node8</title>
<g id="a_node8"><a xlink:href="../../df/dd0/classNode.html#ade58f2370cb8542f4bc4c1350a3ba462" target="_top" xlink:title="erase the points from the cloud to save memory ">
<polygon fill="white" stroke="black" points="213.5,-0.5 213.5,-19.5 328.5,-19.5 328.5,-0.5 213.5,-0.5"/>
<text text-anchor="middle" x="271" y="-7.5" font-family="Helvetica,sans-Serif" font-size="10.00">Node::clearPointCloud</text>
</a>
</g>
</g>
<!-- Node1&#45;&gt;Node8 -->
<g id="edge12" class="edge"><title>Node1&#45;&gt;Node8</title>
<path fill="none" stroke="midnightblue" d="M87.8446,-177.167C101.596,-150.246 143.559,-74.6458 200,-34 205.949,-29.7159 212.724,-26.1492 219.661,-23.193"/>
<polygon fill="midnightblue" stroke="midnightblue" points="221.087,-26.394 229.158,-19.5301 218.569,-19.8629 221.087,-26.394"/>
</g>
<!-- Node3&#45;&gt;Node4 -->
<g id="edge3" class="edge"><title>Node3&#45;&gt;Node4</title>
<path fill="none" stroke="midnightblue" d="M326.2,-187.648C415.91,-188.72 595.505,-190.867 697.895,-192.09"/>
<polygon fill="midnightblue" stroke="midnightblue" points="698.124,-195.593 708.165,-192.213 698.207,-188.594 698.124,-195.593"/>
</g>
<!-- Node5 -->
<g id="node5" class="node"><title>Node5</title>
<g id="a_node5"><a xlink:href="../../d7/ddc/classColorOctomapServer.html#ab96bf80f442fcebd4e269b40dc31f841" target="_top" xlink:title="ColorOctomapServer\l::insertCloudCallbackCommon">
<polygon fill="white" stroke="black" points="378,-134 378,-164 528,-164 528,-134 378,-134"/>
<text text-anchor="start" x="386" y="-152" font-family="Helvetica,sans-Serif" font-size="10.00">ColorOctomapServer</text>
<text text-anchor="middle" x="453" y="-141" font-family="Helvetica,sans-Serif" font-size="10.00">::insertCloudCallbackCommon</text>
</a>
</g>
</g>
<!-- Node3&#45;&gt;Node5 -->
<g id="edge4" class="edge"><title>Node3&#45;&gt;Node5</title>
<path fill="none" stroke="midnightblue" d="M326.006,-175.599C340.107,-172.622 355.62,-169.347 370.796,-166.143"/>
<polygon fill="midnightblue" stroke="midnightblue" points="371.64,-169.542 380.702,-164.052 370.194,-162.693 371.64,-169.542"/>
</g>
<!-- Node5&#45;&gt;Node4 -->
<g id="edge5" class="edge"><title>Node5&#45;&gt;Node4</title>
<path fill="none" stroke="midnightblue" d="M528.219,-159.205C579.281,-166.226 646.892,-175.523 698.275,-182.588"/>
<polygon fill="midnightblue" stroke="midnightblue" points="697.942,-186.075 708.326,-183.97 698.896,-179.14 697.942,-186.075"/>
</g>
<!-- Node5&#45;&gt;Node6 -->
<g id="edge6" class="edge"><title>Node5&#45;&gt;Node6</title>
<path fill="none" stroke="midnightblue" d="M485.494,-133.983C507.091,-124.365 536.673,-112.508 564,-106 612.053,-94.556 667.765,-89.6191 709.726,-87.5094"/>
<polygon fill="midnightblue" stroke="midnightblue" points="709.986,-91.0012 719.813,-87.0431 709.662,-84.0087 709.986,-91.0012"/>
</g>
<!-- Node7 -->
<g id="node7" class="node"><title>Node7</title>
<g id="a_node7"><a xlink:href="../../d7/ddc/classColorOctomapServer.html#ac7cca7bcabafb3876d7ad4bb3a6b6c8f" target="_top" xlink:title="Clear octomap and reset values to paramters from parameter server. ">
<polygon fill="white" stroke="black" points="564,-115 564,-145 672,-145 672,-115 564,-115"/>
<text text-anchor="start" x="572" y="-133" font-family="Helvetica,sans-Serif" font-size="10.00">ColorOctomapServer</text>
<text text-anchor="middle" x="618" y="-122" font-family="Helvetica,sans-Serif" font-size="10.00">::reset</text>
</a>
</g>
</g>
<!-- Node5&#45;&gt;Node7 -->
<g id="edge7" class="edge"><title>Node5&#45;&gt;Node7</title>
<path fill="none" stroke="midnightblue" d="M528.345,-140.334C536.822,-139.346 545.402,-138.346 553.716,-137.377"/>
<polygon fill="midnightblue" stroke="midnightblue" points="554.172,-140.847 563.7,-136.213 553.362,-133.894 554.172,-140.847"/>
</g>
<!-- Node7&#45;&gt;Node4 -->
<g id="edge8" class="edge"><title>Node7&#45;&gt;Node4</title>
<path fill="none" stroke="midnightblue" d="M656.126,-145.09C681.902,-155.567 715.944,-169.403 740.815,-179.512"/>
<polygon fill="midnightblue" stroke="midnightblue" points="739.612,-182.801 750.194,-183.324 742.248,-176.316 739.612,-182.801"/>
</g>
<!-- Node7&#45;&gt;Node6 -->
<g id="edge9" class="edge"><title>Node7&#45;&gt;Node6</title>
<path fill="none" stroke="midnightblue" d="M671.909,-114.981C691,-109.561 712.312,-103.511 730.506,-98.3468"/>
<polygon fill="midnightblue" stroke="midnightblue" points="731.594,-101.676 740.258,-95.5783 729.683,-94.9422 731.594,-101.676"/>
</g>
</g>
</svg>
