<?xml version="1.0" encoding="UTF-8" standalone="no"?>
<!DOCTYPE svg PUBLIC "-//W3C//DTD SVG 1.1//EN"
 "http://www.w3.org/Graphics/SVG/1.1/DTD/svg11.dtd">
<!-- Generated by graphviz version 2.36.0 (20140111.2315)
 -->
<!-- Title: GraphManager::getAllPosesAsMatrixList Pages: 1 -->
<svg width="398pt" height="38pt"
 viewBox="0.00 0.00 398.00 38.00" xmlns="http://www.w3.org/2000/svg" xmlns:xlink="http://www.w3.org/1999/xlink">
<g id="graph0" class="graph" transform="scale(1 1) rotate(0) translate(4 34)">
<title>GraphManager::getAllPosesAsMatrixList</title>
<polygon fill="white" stroke="none" points="-4,4 -4,-34 394,-34 394,4 -4,4"/>
<!-- Node1 -->
<g id="node1" class="node"><title>Node1</title>
<polygon fill="#bfbfbf" stroke="black" points="0.5,-0 0.5,-30 139.5,-30 139.5,-0 0.5,-0"/>
<text text-anchor="start" x="8.5" y="-18" font-family="Helvetica,sans-Serif" font-size="10.00">GraphManager::getAllPoses</text>
<text text-anchor="middle" x="70" y="-7" font-family="Helvetica,sans-Serif" font-size="10.00">AsMatrixList</text>
</g>
<!-- Node2 -->
<g id="node2" class="node"><title>Node2</title>
<g id="a_node2"><a xlink:href="../../d4/d08/misc_8h.html#a2b945fc2871e0006d856539080d3e0a0" target="_top" xlink:title="eigenTF2QMatrix">
<polygon fill="white" stroke="black" points="176,-5.5 176,-24.5 268,-24.5 268,-5.5 176,-5.5"/>
<text text-anchor="middle" x="222" y="-12.5" font-family="Helvetica,sans-Serif" font-size="10.00">eigenTF2QMatrix</text>
</a>
</g>
</g>
<!-- Node1&#45;&gt;Node2 -->
<g id="edge1" class="edge"><title>Node1&#45;&gt;Node2</title>
<path fill="none" stroke="midnightblue" d="M139.854,-15C148.505,-15 157.266,-15 165.672,-15"/>
<polygon fill="midnightblue" stroke="midnightblue" points="165.719,-18.5001 175.718,-15 165.718,-11.5001 165.719,-18.5001"/>
</g>
<!-- Node3 -->
<g id="node3" class="node"><title>Node3</title>
<g id="a_node3"><a xlink:href="../../d4/d08/misc_8h.html#afe9e1e85e61b3925b1121b6a11177591" target="_top" xlink:title="printQMatrix4x4">
<polygon fill="white" stroke="black" points="304,-5.5 304,-24.5 390,-24.5 390,-5.5 304,-5.5"/>
<text text-anchor="middle" x="347" y="-12.5" font-family="Helvetica,sans-Serif" font-size="10.00">printQMatrix4x4</text>
</a>
</g>
</g>
<!-- Node2&#45;&gt;Node3 -->
<g id="edge2" class="edge"><title>Node2&#45;&gt;Node3</title>
<path fill="none" stroke="midnightblue" d="M268.102,-15C276.389,-15 285.104,-15 293.583,-15"/>
<polygon fill="midnightblue" stroke="midnightblue" points="293.765,-18.5001 303.765,-15 293.764,-11.5001 293.765,-18.5001"/>
</g>
</g>
</svg>
