<?xml version="1.0" encoding="UTF-8" standalone="no"?>
<!DOCTYPE svg PUBLIC "-//W3C//DTD SVG 1.1//EN"
 "http://www.w3.org/Graphics/SVG/1.1/DTD/svg11.dtd">
<!-- Generated by graphviz version 2.36.0 (20140111.2315)
 -->
<!-- Title: GraphManager::addOdometry Pages: 1 -->
<svg width="628pt" height="269pt"
 viewBox="0.00 0.00 628.00 269.06" xmlns="http://www.w3.org/2000/svg" xmlns:xlink="http://www.w3.org/1999/xlink">
<g id="graph0" class="graph" transform="scale(1 1) rotate(0) translate(4 265.057)">
<title>GraphManager::addOdometry</title>
<polygon fill="white" stroke="none" points="-4,4 -4,-265.057 624,-265.057 624,4 -4,4"/>
<!-- Node1 -->
<g id="node1" class="node"><title>Node1</title>
<polygon fill="#bfbfbf" stroke="black" points="0.5,-127.557 0.5,-146.557 145.5,-146.557 145.5,-127.557 0.5,-127.557"/>
<text text-anchor="middle" x="73" y="-134.557" font-family="Helvetica,sans-Serif" font-size="10.00">GraphManager::addOdometry</text>
</g>
<!-- Node2 -->
<g id="node2" class="node"><title>Node2</title>
<g id="a_node2"><a xlink:href="../../d3/d3e/classParameterServer.html#a5457f900e543c5a466bf9b65ee6bc577" target="_top" xlink:title="ParameterServer::instance">
<polygon fill="white" stroke="black" points="364.5,-127.557 364.5,-146.557 497.5,-146.557 497.5,-127.557 364.5,-127.557"/>
<text text-anchor="middle" x="431" y="-134.557" font-family="Helvetica,sans-Serif" font-size="10.00">ParameterServer::instance</text>
</a>
</g>
</g>
<!-- Node1&#45;&gt;Node2 -->
<g id="edge1" class="edge"><title>Node1&#45;&gt;Node2</title>
<path fill="none" stroke="midnightblue" d="M145.614,-137.057C206.199,-137.057 292.758,-137.057 354.438,-137.057"/>
<polygon fill="midnightblue" stroke="midnightblue" points="354.499,-140.557 364.499,-137.057 354.499,-133.557 354.499,-140.557"/>
</g>
<!-- Node3 -->
<g id="node3" class="node"><title>Node3</title>
<g id="a_node3"><a xlink:href="../../d3/d3e/classParameterServer.html#a3c8af50664e423b555bbb1874f488413" target="_top" xlink:title="ParameterServer::get">
<polygon fill="white" stroke="black" points="376,-241.557 376,-260.557 486,-260.557 486,-241.557 376,-241.557"/>
<text text-anchor="middle" x="431" y="-248.557" font-family="Helvetica,sans-Serif" font-size="10.00">ParameterServer::get</text>
</a>
</g>
</g>
<!-- Node1&#45;&gt;Node3 -->
<g id="edge2" class="edge"><title>Node1&#45;&gt;Node3</title>
<path fill="none" stroke="midnightblue" d="M81.342,-146.824C97.1501,-166.992 136.669,-212.947 182,-232.057 240.753,-256.825 314.235,-259.342 365.909,-257.037"/>
<polygon fill="midnightblue" stroke="midnightblue" points="366.137,-260.53 375.942,-256.517 365.774,-253.539 366.137,-260.53"/>
</g>
<!-- Node4 -->
<g id="node4" class="node"><title>Node4</title>
<g id="a_node4"><a xlink:href="../../d7/d5f/misc_8cpp.html#a620c2e3dd4f6b457a8425876e8632981" target="_top" xlink:title="Print tf::Transform via ROS_INFO. ">
<polygon fill="white" stroke="black" points="215,-165.557 215,-184.557 295,-184.557 295,-165.557 215,-165.557"/>
<text text-anchor="middle" x="255" y="-172.557" font-family="Helvetica,sans-Serif" font-size="10.00">printTransform</text>
</a>
</g>
</g>
<!-- Node1&#45;&gt;Node4 -->
<g id="edge3" class="edge"><title>Node1&#45;&gt;Node4</title>
<path fill="none" stroke="midnightblue" d="M119.422,-146.646C145.464,-152.144 178.169,-159.048 204.817,-164.674"/>
<polygon fill="midnightblue" stroke="midnightblue" points="204.199,-168.121 214.707,-166.762 205.645,-161.272 204.199,-168.121"/>
</g>
<!-- Node5 -->
<g id="node5" class="node"><title>Node5</title>
<g id="a_node5"><a xlink:href="../../db/d8d/graph__mgr__odom_8cpp.html#a894c401fd82c1af5365d883aebe1bdc0" target="_top" xlink:title="createOdometryEdge">
<polygon fill="white" stroke="black" points="200.5,-203.557 200.5,-222.557 309.5,-222.557 309.5,-203.557 200.5,-203.557"/>
<text text-anchor="middle" x="255" y="-210.557" font-family="Helvetica,sans-Serif" font-size="10.00">createOdometryEdge</text>
</a>
</g>
</g>
<!-- Node1&#45;&gt;Node5 -->
<g id="edge4" class="edge"><title>Node1&#45;&gt;Node5</title>
<path fill="none" stroke="midnightblue" d="M89.5649,-146.73C110.089,-159.138 147.631,-180.655 182,-194.057 188.231,-196.487 194.884,-198.711 201.534,-200.712"/>
<polygon fill="midnightblue" stroke="midnightblue" points="200.649,-204.099 211.226,-203.484 202.574,-197.369 200.649,-204.099"/>
</g>
<!-- Node7 -->
<g id="node7" class="node"><title>Node7</title>
<g id="a_node7"><a xlink:href="../../d4/d08/misc_8h.html#a2b945fc2871e0006d856539080d3e0a0" target="_top" xlink:title="eigenTF2QMatrix">
<polygon fill="white" stroke="black" points="385,-12.5569 385,-31.5569 477,-31.5569 477,-12.5569 385,-12.5569"/>
<text text-anchor="middle" x="431" y="-19.5569" font-family="Helvetica,sans-Serif" font-size="10.00">eigenTF2QMatrix</text>
</a>
</g>
</g>
<!-- Node1&#45;&gt;Node7 -->
<g id="edge8" class="edge"><title>Node1&#45;&gt;Node7</title>
<path fill="none" stroke="midnightblue" d="M79.1401,-127.255C92.3554,-103.264 130.151,-41.8891 182,-19.0569 247.206,9.65735 331.729,-0.00137963 383.356,-10.4238"/>
<polygon fill="midnightblue" stroke="midnightblue" points="382.72,-13.8665 393.227,-12.5073 384.165,-7.01744 382.72,-13.8665"/>
</g>
<!-- Node9 -->
<g id="node9" class="node"><title>Node9</title>
<g id="a_node9"><a xlink:href="../../d0/d8b/classGraphManager.html#a2e6e14b4906e351b7ba2135315dd6fa3" target="_top" xlink:title="Adds an odometry edge to the optimizer. ">
<polygon fill="white" stroke="black" points="182.5,-78.0569 182.5,-108.057 327.5,-108.057 327.5,-78.0569 182.5,-78.0569"/>
<text text-anchor="start" x="190.5" y="-96.0569" font-family="Helvetica,sans-Serif" font-size="10.00">GraphManager::addOdometry</text>
<text text-anchor="middle" x="255" y="-85.0569" font-family="Helvetica,sans-Serif" font-size="10.00">EdgeToG2O</text>
</a>
</g>
</g>
<!-- Node1&#45;&gt;Node9 -->
<g id="edge10" class="edge"><title>Node1&#45;&gt;Node9</title>
<path fill="none" stroke="midnightblue" d="M113.057,-127.51C133.323,-122.556 158.728,-116.346 182.366,-110.567"/>
<polygon fill="midnightblue" stroke="midnightblue" points="183.486,-113.897 192.369,-108.122 181.824,-107.097 183.486,-113.897"/>
</g>
<!-- Node10 -->
<g id="node10" class="node"><title>Node10</title>
<g id="a_node10"><a xlink:href="../../d0/d8b/classGraphManager.html#a4aa1914e94c6a0d60f698d45811a01ef" target="_top" xlink:title="Return pointer to a list of the optimizers graph poses on the heap(!) ">
<polygon fill="white" stroke="black" points="185.5,-29.0569 185.5,-59.0569 324.5,-59.0569 324.5,-29.0569 185.5,-29.0569"/>
<text text-anchor="start" x="193.5" y="-47.0569" font-family="Helvetica,sans-Serif" font-size="10.00">GraphManager::getAllPoses</text>
<text text-anchor="middle" x="255" y="-36.0569" font-family="Helvetica,sans-Serif" font-size="10.00">AsMatrixList</text>
</a>
</g>
</g>
<!-- Node1&#45;&gt;Node10 -->
<g id="edge12" class="edge"><title>Node1&#45;&gt;Node10</title>
<path fill="none" stroke="midnightblue" d="M86.6937,-127.465C106.284,-113.012 145.451,-85.4934 182,-68.0569 185.813,-66.2379 189.8,-64.498 193.858,-62.8461"/>
<polygon fill="midnightblue" stroke="midnightblue" points="195.341,-66.0252 203.407,-59.155 192.818,-59.496 195.341,-66.0252"/>
</g>
<!-- Node5&#45;&gt;Node2 -->
<g id="edge5" class="edge"><title>Node5&#45;&gt;Node2</title>
<path fill="none" stroke="midnightblue" d="M299.219,-203.543C308.843,-200.905 318.89,-197.736 328,-194.057 356.546,-182.53 387.092,-164.638 407.235,-151.979"/>
<polygon fill="midnightblue" stroke="midnightblue" points="409.164,-154.9 415.714,-146.573 405.4,-148.998 409.164,-154.9"/>
</g>
<!-- Node5&#45;&gt;Node3 -->
<g id="edge6" class="edge"><title>Node5&#45;&gt;Node3</title>
<path fill="none" stroke="midnightblue" d="M299.908,-222.646C323.179,-227.728 351.954,-234.012 376.519,-239.377"/>
<polygon fill="midnightblue" stroke="midnightblue" points="375.892,-242.823 386.408,-241.537 377.385,-235.984 375.892,-242.823"/>
</g>
<!-- Node6 -->
<g id="node6" class="node"><title>Node6</title>
<g id="a_node6"><a xlink:href="../../d7/d5f/misc_8cpp.html#a24fe652a87f594d550c1202bd9d61832" target="_top" xlink:title="Conversion Function. ">
<polygon fill="white" stroke="black" points="407,-203.557 407,-222.557 455,-222.557 455,-203.557 407,-203.557"/>
<text text-anchor="middle" x="431" y="-210.557" font-family="Helvetica,sans-Serif" font-size="10.00">tf2G2O</text>
</a>
</g>
</g>
<!-- Node5&#45;&gt;Node6 -->
<g id="edge7" class="edge"><title>Node5&#45;&gt;Node6</title>
<path fill="none" stroke="midnightblue" d="M309.626,-213.057C337.982,-213.057 371.913,-213.057 396.513,-213.057"/>
<polygon fill="midnightblue" stroke="midnightblue" points="396.772,-216.557 406.772,-213.057 396.772,-209.557 396.772,-216.557"/>
</g>
<!-- Node8 -->
<g id="node8" class="node"><title>Node8</title>
<g id="a_node8"><a xlink:href="../../d4/d08/misc_8h.html#afe9e1e85e61b3925b1121b6a11177591" target="_top" xlink:title="printQMatrix4x4">
<polygon fill="white" stroke="black" points="534,-12.5569 534,-31.5569 620,-31.5569 620,-12.5569 534,-12.5569"/>
<text text-anchor="middle" x="577" y="-19.5569" font-family="Helvetica,sans-Serif" font-size="10.00">printQMatrix4x4</text>
</a>
</g>
</g>
<!-- Node7&#45;&gt;Node8 -->
<g id="edge9" class="edge"><title>Node7&#45;&gt;Node8</title>
<path fill="none" stroke="midnightblue" d="M477.167,-22.0569C491.911,-22.0569 508.406,-22.0569 523.633,-22.0569"/>
<polygon fill="midnightblue" stroke="midnightblue" points="523.935,-25.557 533.935,-22.0569 523.935,-18.557 523.935,-25.557"/>
</g>
<!-- Node9&#45;&gt;Node2 -->
<g id="edge11" class="edge"><title>Node9&#45;&gt;Node2</title>
<path fill="none" stroke="midnightblue" d="M315.394,-108.076C337.307,-113.617 361.827,-119.818 382.545,-125.057"/>
<polygon fill="midnightblue" stroke="midnightblue" points="381.83,-128.486 392.383,-127.545 383.546,-121.7 381.83,-128.486"/>
</g>
<!-- Node10&#45;&gt;Node7 -->
<g id="edge13" class="edge"><title>Node10&#45;&gt;Node7</title>
<path fill="none" stroke="midnightblue" d="M324.769,-35.3619C341.367,-33.2634 358.892,-31.0476 374.777,-29.0391"/>
<polygon fill="midnightblue" stroke="midnightblue" points="375.472,-32.4792 384.954,-27.7524 374.594,-25.5345 375.472,-32.4792"/>
</g>
</g>
</svg>
