<?xml version="1.0" encoding="UTF-8" standalone="no"?>
<!DOCTYPE svg PUBLIC "-//W3C//DTD SVG 1.1//EN"
 "http://www.w3.org/Graphics/SVG/1.1/DTD/svg11.dtd">
<!-- Generated by graphviz version 2.36.0 (20140111.2315)
 -->
<!-- Title: GraphManager::resetGraph Pages: 1 -->
<svg width="504pt" height="75pt"
 viewBox="0.00 0.00 504.00 75.00" xmlns="http://www.w3.org/2000/svg" xmlns:xlink="http://www.w3.org/1999/xlink">
<g id="graph0" class="graph" transform="scale(1 1) rotate(0) translate(4 71)">
<title>GraphManager::resetGraph</title>
<polygon fill="white" stroke="none" points="-4,4 -4,-71 500,-71 500,4 -4,4"/>
<!-- Node1 -->
<g id="node1" class="node"><title>Node1</title>
<polygon fill="#bfbfbf" stroke="black" points="0,-28.5 0,-47.5 134,-47.5 134,-28.5 0,-28.5"/>
<text text-anchor="middle" x="67" y="-35.5" font-family="Helvetica,sans-Serif" font-size="10.00">GraphManager::resetGraph</text>
</g>
<!-- Node2 -->
<g id="node2" class="node"><title>Node2</title>
<g id="a_node2"><a xlink:href="../../d3/d3e/classParameterServer.html#a5457f900e543c5a466bf9b65ee6bc577" target="_top" xlink:title="ParameterServer::instance">
<polygon fill="white" stroke="black" points="362.5,-47.5 362.5,-66.5 495.5,-66.5 495.5,-47.5 362.5,-47.5"/>
<text text-anchor="middle" x="429" y="-54.5" font-family="Helvetica,sans-Serif" font-size="10.00">ParameterServer::instance</text>
</a>
</g>
</g>
<!-- Node1&#45;&gt;Node2 -->
<g id="edge1" class="edge"><title>Node1&#45;&gt;Node2</title>
<path fill="none" stroke="midnightblue" d="M109.444,-47.5111C127.876,-51.2763 149.911,-55.1449 170,-57 231.153,-62.6471 300.809,-62.2452 352.317,-60.6539"/>
<polygon fill="midnightblue" stroke="midnightblue" points="352.49,-64.1502 362.369,-60.3213 352.258,-57.1541 352.49,-64.1502"/>
</g>
<!-- Node3 -->
<g id="node3" class="node"><title>Node3</title>
<g id="a_node3"><a xlink:href="../../d0/d8b/classGraphManager.html#a372079b96a4b36722f94a81fe79c278c" target="_top" xlink:title="Instanciate the optimizer with the desired backend. ">
<polygon fill="white" stroke="black" points="170.5,-28.5 170.5,-47.5 325.5,-47.5 325.5,-28.5 170.5,-28.5"/>
<text text-anchor="middle" x="248" y="-35.5" font-family="Helvetica,sans-Serif" font-size="10.00">GraphManager::createOptimizer</text>
</a>
</g>
</g>
<!-- Node1&#45;&gt;Node3 -->
<g id="edge2" class="edge"><title>Node1&#45;&gt;Node3</title>
<path fill="none" stroke="midnightblue" d="M134.144,-38C142.591,-38 151.336,-38 160.049,-38"/>
<polygon fill="midnightblue" stroke="midnightblue" points="160.242,-41.5001 170.242,-38 160.242,-34.5001 160.242,-41.5001"/>
</g>
<!-- Node4 -->
<g id="node4" class="node"><title>Node4</title>
<g id="a_node4"><a xlink:href="../../d3/d3e/classParameterServer.html#a3c8af50664e423b555bbb1874f488413" target="_top" xlink:title="ParameterServer::get">
<polygon fill="white" stroke="black" points="374,-0.5 374,-19.5 484,-19.5 484,-0.5 374,-0.5"/>
<text text-anchor="middle" x="429" y="-7.5" font-family="Helvetica,sans-Serif" font-size="10.00">ParameterServer::get</text>
</a>
</g>
</g>
<!-- Node1&#45;&gt;Node4 -->
<g id="edge5" class="edge"><title>Node1&#45;&gt;Node4</title>
<path fill="none" stroke="midnightblue" d="M111.466,-28.4235C129.487,-24.8401 150.663,-21.1263 170,-19 235.781,-11.7669 311.511,-9.88354 363.828,-9.58495"/>
<polygon fill="midnightblue" stroke="midnightblue" points="363.983,-13.0845 373.97,-9.54525 363.956,-6.08452 363.983,-13.0845"/>
</g>
<!-- Node3&#45;&gt;Node2 -->
<g id="edge3" class="edge"><title>Node3&#45;&gt;Node2</title>
<path fill="none" stroke="midnightblue" d="M325.691,-46.1404C334.489,-47.0743 343.456,-48.026 352.242,-48.9586"/>
<polygon fill="midnightblue" stroke="midnightblue" points="352.138,-52.4671 362.451,-50.0423 352.876,-45.5062 352.138,-52.4671"/>
</g>
<!-- Node3&#45;&gt;Node4 -->
<g id="edge4" class="edge"><title>Node3&#45;&gt;Node4</title>
<path fill="none" stroke="midnightblue" d="M309.851,-28.4814C327.219,-25.7646 346.197,-22.796 363.761,-20.0486"/>
<polygon fill="midnightblue" stroke="midnightblue" points="364.577,-23.4635 373.916,-18.46 363.495,-16.5476 364.577,-23.4635"/>
</g>
</g>
</svg>
