<?xml version="1.0" encoding="UTF-8" standalone="no"?>
<!DOCTYPE svg PUBLIC "-//W3C//DTD SVG 1.1//EN"
 "http://www.w3.org/Graphics/SVG/1.1/DTD/svg11.dtd">
<!-- Generated by graphviz version 2.36.0 (20140111.2315)
 -->
<!-- Title: GraphManager::sendAllCloudsImpl Pages: 1 -->
<svg width="556pt" height="218pt"
 viewBox="0.00 0.00 556.00 218.00" xmlns="http://www.w3.org/2000/svg" xmlns:xlink="http://www.w3.org/1999/xlink">
<g id="graph0" class="graph" transform="scale(1 1) rotate(0) translate(4 214)">
<title>GraphManager::sendAllCloudsImpl</title>
<polygon fill="white" stroke="none" points="-4,4 -4,-214 552,-214 552,4 -4,4"/>
<!-- Node1 -->
<g id="node1" class="node"><title>Node1</title>
<polygon fill="#bfbfbf" stroke="black" points="0,-130.5 0,-149.5 168,-149.5 168,-130.5 0,-130.5"/>
<text text-anchor="middle" x="84" y="-137.5" font-family="Helvetica,sans-Serif" font-size="10.00">GraphManager::sendAllCloudsImpl</text>
</g>
<!-- Node2 -->
<g id="node2" class="node"><title>Node2</title>
<g id="a_node2"><a xlink:href="../../d3/d3e/classParameterServer.html#a5457f900e543c5a466bf9b65ee6bc577" target="_top" xlink:title="ParameterServer::instance">
<polygon fill="white" stroke="black" points="401.5,-190.5 401.5,-209.5 534.5,-209.5 534.5,-190.5 401.5,-190.5"/>
<text text-anchor="middle" x="468" y="-197.5" font-family="Helvetica,sans-Serif" font-size="10.00">ParameterServer::instance</text>
</a>
</g>
</g>
<!-- Node1&#45;&gt;Node2 -->
<g id="edge1" class="edge"><title>Node1&#45;&gt;Node2</title>
<path fill="none" stroke="midnightblue" d="M126.709,-149.56C149.473,-154.576 178.199,-160.579 204,-165 266.911,-175.779 338.773,-185.144 391.464,-191.467"/>
<polygon fill="midnightblue" stroke="midnightblue" points="391.061,-194.944 401.405,-192.651 391.889,-187.993 391.061,-194.944"/>
</g>
<!-- Node3 -->
<g id="node3" class="node"><title>Node3</title>
<g id="a_node3"><a xlink:href="../../d3/d3e/classParameterServer.html#a3c8af50664e423b555bbb1874f488413" target="_top" xlink:title="ParameterServer::get">
<polygon fill="white" stroke="black" points="413,-152.5 413,-171.5 523,-171.5 523,-152.5 413,-152.5"/>
<text text-anchor="middle" x="468" y="-159.5" font-family="Helvetica,sans-Serif" font-size="10.00">ParameterServer::get</text>
</a>
</g>
</g>
<!-- Node1&#45;&gt;Node3 -->
<g id="edge2" class="edge"><title>Node1&#45;&gt;Node3</title>
<path fill="none" stroke="midnightblue" d="M168.359,-144.801C238.897,-148.863 338.515,-154.6 402.935,-158.31"/>
<polygon fill="midnightblue" stroke="midnightblue" points="402.777,-161.807 412.962,-158.888 403.18,-154.819 402.777,-161.807"/>
</g>
<!-- Node4 -->
<g id="node4" class="node"><title>Node4</title>
<g id="a_node4"><a xlink:href="../../d0/d8b/classGraphManager.html#a0ca3bc82d7532c35ad52294ab9f2d0e4" target="_top" xlink:title="Compute the tranformation between (sensor) Base and Fixed (Map) frame. ">
<polygon fill="white" stroke="black" points="204,-103 204,-133 352,-133 352,-103 204,-103"/>
<text text-anchor="start" x="212" y="-121" font-family="Helvetica,sans-Serif" font-size="10.00">GraphManager::computeFixed</text>
<text text-anchor="middle" x="278" y="-110" font-family="Helvetica,sans-Serif" font-size="10.00">ToBaseTransform</text>
</a>
</g>
</g>
<!-- Node1&#45;&gt;Node4 -->
<g id="edge3" class="edge"><title>Node1&#45;&gt;Node4</title>
<path fill="none" stroke="midnightblue" d="M168.097,-130.478C176.527,-129.512 185.093,-128.531 193.527,-127.565"/>
<polygon fill="midnightblue" stroke="midnightblue" points="194.195,-131.011 203.731,-126.395 193.398,-124.057 194.195,-131.011"/>
</g>
<!-- Node9 -->
<g id="node9" class="node"><title>Node9</title>
<g id="a_node9"><a xlink:href="../../de/d83/graph__manager_8h.html#a2e10953ff4a21d6e02d9574a3b2740b8" target="_top" xlink:title="Send node&#39;s pointcloud with given publisher and timestamp. ">
<polygon fill="white" stroke="black" points="241.5,-64.5 241.5,-83.5 314.5,-83.5 314.5,-64.5 241.5,-64.5"/>
<text text-anchor="middle" x="278" y="-71.5" font-family="Helvetica,sans-Serif" font-size="10.00">publishCloud</text>
</a>
</g>
</g>
<!-- Node1&#45;&gt;Node9 -->
<g id="edge10" class="edge"><title>Node1&#45;&gt;Node9</title>
<path fill="none" stroke="midnightblue" d="M107.076,-130.345C130.747,-120.214 169.579,-104.231 204,-93 212.869,-90.1064 222.454,-87.3519 231.67,-84.8833"/>
<polygon fill="midnightblue" stroke="midnightblue" points="232.684,-88.2362 241.475,-82.3237 230.915,-81.4632 232.684,-88.2362"/>
</g>
<!-- Node4&#45;&gt;Node2 -->
<g id="edge8" class="edge"><title>Node4&#45;&gt;Node2</title>
<path fill="none" stroke="midnightblue" d="M300.998,-133.267C322.356,-147.459 356.133,-168.27 388,-181 394.249,-183.496 400.912,-185.722 407.618,-187.691"/>
<polygon fill="midnightblue" stroke="midnightblue" points="406.86,-191.113 417.431,-190.395 408.72,-184.364 406.86,-191.113"/>
</g>
<!-- Node4&#45;&gt;Node3 -->
<g id="edge9" class="edge"><title>Node4&#45;&gt;Node3</title>
<path fill="none" stroke="midnightblue" d="M343.173,-133.019C367.064,-138.611 393.823,-144.874 416.336,-150.143"/>
<polygon fill="midnightblue" stroke="midnightblue" points="415.822,-153.617 426.356,-152.488 417.417,-146.801 415.822,-153.617"/>
</g>
<!-- Node5 -->
<g id="node5" class="node"><title>Node5</title>
<g id="a_node5"><a xlink:href="../../d4/d08/misc_8h.html#a7bd6e35e893b731601e2239721f03ae9" target="_top" xlink:title="eigenTransf2TF">
<polygon fill="white" stroke="black" points="425.5,-38.5 425.5,-57.5 510.5,-57.5 510.5,-38.5 425.5,-38.5"/>
<text text-anchor="middle" x="468" y="-45.5" font-family="Helvetica,sans-Serif" font-size="10.00">eigenTransf2TF</text>
</a>
</g>
</g>
<!-- Node4&#45;&gt;Node5 -->
<g id="edge4" class="edge"><title>Node4&#45;&gt;Node5</title>
<path fill="none" stroke="midnightblue" d="M329.297,-102.975C337.06,-100.032 344.862,-96.6954 352,-93 369.527,-83.9261 370.066,-75.2411 388,-67 396.657,-63.0218 406.245,-59.8202 415.67,-57.2624"/>
<polygon fill="midnightblue" stroke="midnightblue" points="416.539,-60.6528 425.387,-54.8243 414.836,-53.8633 416.539,-60.6528"/>
</g>
<!-- Node6 -->
<g id="node6" class="node"><title>Node6</title>
<g id="a_node6"><a xlink:href="../../df/dd0/classNode.html#adaf50ff94906ea43c16b79fe0e3547ab" target="_top" xlink:title="Transform, e.g., from kinematics. ">
<polygon fill="white" stroke="black" points="388.5,-0.5 388.5,-19.5 547.5,-19.5 547.5,-0.5 388.5,-0.5"/>
<text text-anchor="middle" x="468" y="-7.5" font-family="Helvetica,sans-Serif" font-size="10.00">Node::getBase2PointsTransform</text>
</a>
</g>
</g>
<!-- Node4&#45;&gt;Node6 -->
<g id="edge5" class="edge"><title>Node4&#45;&gt;Node6</title>
<path fill="none" stroke="midnightblue" d="M336.584,-102.906C342.107,-100.13 347.367,-96.8566 352,-93 377.083,-72.1212 361.964,-48.6782 388,-29 390.374,-27.2058 392.893,-25.5783 395.517,-24.1022"/>
<polygon fill="midnightblue" stroke="midnightblue" points="397.291,-27.133 404.786,-19.6446 394.257,-20.8246 397.291,-27.133"/>
</g>
<!-- Node7 -->
<g id="node7" class="node"><title>Node7</title>
<g id="a_node7"><a xlink:href="../../d7/d5f/misc_8cpp.html#a620c2e3dd4f6b457a8425876e8632981" target="_top" xlink:title="Print tf::Transform via ROS_INFO. ">
<polygon fill="white" stroke="black" points="428,-114.5 428,-133.5 508,-133.5 508,-114.5 428,-114.5"/>
<text text-anchor="middle" x="468" y="-121.5" font-family="Helvetica,sans-Serif" font-size="10.00">printTransform</text>
</a>
</g>
</g>
<!-- Node4&#45;&gt;Node7 -->
<g id="edge6" class="edge"><title>Node4&#45;&gt;Node7</title>
<path fill="none" stroke="midnightblue" d="M352.224,-120.337C374.173,-121.037 397.713,-121.789 417.726,-122.427"/>
<polygon fill="midnightblue" stroke="midnightblue" points="417.736,-125.929 427.843,-122.75 417.96,-118.933 417.736,-125.929"/>
</g>
<!-- Node8 -->
<g id="node8" class="node"><title>Node8</title>
<g id="a_node8"><a xlink:href="../../df/dd0/classNode.html#aa714d9c36f25c4a40d69b6bd100c10fe" target="_top" xlink:title="Transform, e.g., from MoCap. ">
<polygon fill="white" stroke="black" points="389,-76.5 389,-95.5 547,-95.5 547,-76.5 389,-76.5"/>
<text text-anchor="middle" x="468" y="-83.5" font-family="Helvetica,sans-Serif" font-size="10.00">Node::getGroundTruthTransform</text>
</a>
</g>
</g>
<!-- Node4&#45;&gt;Node8 -->
<g id="edge7" class="edge"><title>Node4&#45;&gt;Node8</title>
<path fill="none" stroke="midnightblue" d="M352.224,-105.536C368.293,-102.801 385.215,-99.9209 400.981,-97.2372"/>
<polygon fill="midnightblue" stroke="midnightblue" points="401.884,-100.634 411.154,-95.5056 400.709,-93.7333 401.884,-100.634"/>
</g>
</g>
</svg>
