<?xml version="1.0" encoding="UTF-8" standalone="no"?>
<!DOCTYPE svg PUBLIC "-//W3C//DTD SVG 1.1//EN"
 "http://www.w3.org/Graphics/SVG/1.1/DTD/svg11.dtd">
<!-- Generated by graphviz version 2.36.0 (20140111.2315)
 -->
<!-- Title: GraphManager::saveIndividualCloudsToFile Pages: 1 -->
<svg width="538pt" height="227pt"
 viewBox="0.00 0.00 538.00 227.00" xmlns="http://www.w3.org/2000/svg" xmlns:xlink="http://www.w3.org/1999/xlink">
<g id="graph0" class="graph" transform="scale(1 1) rotate(0) translate(4 223)">
<title>GraphManager::saveIndividualCloudsToFile</title>
<polygon fill="white" stroke="none" points="-4,4 -4,-223 534,-223 534,4 -4,4"/>
<!-- Node1 -->
<g id="node1" class="node"><title>Node1</title>
<polygon fill="#bfbfbf" stroke="black" points="0.5,-92 0.5,-122 149.5,-122 149.5,-92 0.5,-92"/>
<text text-anchor="start" x="8.5" y="-110" font-family="Helvetica,sans-Serif" font-size="10.00">GraphManager::saveIndividual</text>
<text text-anchor="middle" x="75" y="-99" font-family="Helvetica,sans-Serif" font-size="10.00">CloudsToFile</text>
</g>
<!-- Node2 -->
<g id="node2" class="node"><title>Node2</title>
<g id="a_node2"><a xlink:href="../../d3/d3e/classParameterServer.html#a5457f900e543c5a466bf9b65ee6bc577" target="_top" xlink:title="ParameterServer::instance">
<polygon fill="white" stroke="black" points="383.5,-199.5 383.5,-218.5 516.5,-218.5 516.5,-199.5 383.5,-199.5"/>
<text text-anchor="middle" x="450" y="-206.5" font-family="Helvetica,sans-Serif" font-size="10.00">ParameterServer::instance</text>
</a>
</g>
</g>
<!-- Node1&#45;&gt;Node2 -->
<g id="edge1" class="edge"><title>Node1&#45;&gt;Node2</title>
<path fill="none" stroke="midnightblue" d="M94.5354,-122.222C115.395,-138.454 150.964,-163.507 186,-176 246.673,-197.635 319.627,-205.477 373.292,-208.141"/>
<polygon fill="midnightblue" stroke="midnightblue" points="373.272,-211.643 383.419,-208.594 373.585,-204.65 373.272,-211.643"/>
</g>
<!-- Node3 -->
<g id="node3" class="node"><title>Node3</title>
<g id="a_node3"><a xlink:href="../../d3/d3e/classParameterServer.html#a3c8af50664e423b555bbb1874f488413" target="_top" xlink:title="ParameterServer::get">
<polygon fill="white" stroke="black" points="395,-160.5 395,-179.5 505,-179.5 505,-160.5 395,-160.5"/>
<text text-anchor="middle" x="450" y="-167.5" font-family="Helvetica,sans-Serif" font-size="10.00">ParameterServer::get</text>
</a>
</g>
</g>
<!-- Node1&#45;&gt;Node3 -->
<g id="edge2" class="edge"><title>Node1&#45;&gt;Node3</title>
<path fill="none" stroke="midnightblue" d="M104.531,-122.026C126.235,-132.681 157.181,-146.243 186,-153 252.541,-168.602 330.971,-171.785 384.761,-171.729"/>
<polygon fill="midnightblue" stroke="midnightblue" points="384.861,-175.229 394.844,-171.681 384.828,-168.229 384.861,-175.229"/>
</g>
<!-- Node4 -->
<g id="node4" class="node"><title>Node4</title>
<g id="a_node4"><a xlink:href="../../d4/d08/misc_8h.html#a7bd6e35e893b731601e2239721f03ae9" target="_top" xlink:title="eigenTransf2TF">
<polygon fill="white" stroke="black" points="407.5,-79.5 407.5,-98.5 492.5,-98.5 492.5,-79.5 407.5,-79.5"/>
<text text-anchor="middle" x="450" y="-86.5" font-family="Helvetica,sans-Serif" font-size="10.00">eigenTransf2TF</text>
</a>
</g>
</g>
<!-- Node1&#45;&gt;Node4 -->
<g id="edge3" class="edge"><title>Node1&#45;&gt;Node4</title>
<path fill="none" stroke="midnightblue" d="M149.693,-103.444C222.698,-99.9208 332.643,-94.6151 396.982,-91.5102"/>
<polygon fill="midnightblue" stroke="midnightblue" points="397.47,-94.9909 407.289,-91.0128 397.132,-87.999 397.47,-94.9909"/>
</g>
<!-- Node5 -->
<g id="node5" class="node"><title>Node5</title>
<g id="a_node5"><a xlink:href="../../df/dd0/classNode.html#adaf50ff94906ea43c16b79fe0e3547ab" target="_top" xlink:title="Transform, e.g., from kinematics. ">
<polygon fill="white" stroke="black" points="370.5,-38.5 370.5,-57.5 529.5,-57.5 529.5,-38.5 370.5,-38.5"/>
<text text-anchor="middle" x="450" y="-45.5" font-family="Helvetica,sans-Serif" font-size="10.00">Node::getBase2PointsTransform</text>
</a>
</g>
</g>
<!-- Node1&#45;&gt;Node5 -->
<g id="edge4" class="edge"><title>Node1&#45;&gt;Node5</title>
<path fill="none" stroke="midnightblue" d="M149.693,-95.3435C216.097,-84.8399 313.064,-69.502 378.473,-59.1557"/>
<polygon fill="midnightblue" stroke="midnightblue" points="379.36,-62.559 388.691,-57.5396 378.267,-55.645 379.36,-62.559"/>
</g>
<!-- Node6 -->
<g id="node6" class="node"><title>Node6</title>
<g id="a_node6"><a xlink:href="../../d0/d8b/classGraphManager.html#a0ca3bc82d7532c35ad52294ab9f2d0e4" target="_top" xlink:title="Compute the tranformation between (sensor) Base and Fixed (Map) frame. ">
<polygon fill="white" stroke="black" points="186,-114 186,-144 334,-144 334,-114 186,-114"/>
<text text-anchor="start" x="194" y="-132" font-family="Helvetica,sans-Serif" font-size="10.00">GraphManager::computeFixed</text>
<text text-anchor="middle" x="260" y="-121" font-family="Helvetica,sans-Serif" font-size="10.00">ToBaseTransform</text>
</a>
</g>
</g>
<!-- Node1&#45;&gt;Node6 -->
<g id="edge5" class="edge"><title>Node1&#45;&gt;Node6</title>
<path fill="none" stroke="midnightblue" d="M149.642,-115.853C158.208,-116.883 166.992,-117.939 175.676,-118.983"/>
<polygon fill="midnightblue" stroke="midnightblue" points="175.46,-122.482 185.806,-120.201 176.296,-115.532 175.46,-122.482"/>
</g>
<!-- Node8 -->
<g id="node8" class="node"><title>Node8</title>
<g id="a_node8"><a xlink:href="../../df/dd0/classNode.html#aa714d9c36f25c4a40d69b6bd100c10fe" target="_top" xlink:title="Transform, e.g., from MoCap. ">
<polygon fill="white" stroke="black" points="371,-0.5 371,-19.5 529,-19.5 529,-0.5 371,-0.5"/>
<text text-anchor="middle" x="450" y="-7.5" font-family="Helvetica,sans-Serif" font-size="10.00">Node::getGroundTruthTransform</text>
</a>
</g>
</g>
<!-- Node1&#45;&gt;Node8 -->
<g id="edge12" class="edge"><title>Node1&#45;&gt;Node8</title>
<path fill="none" stroke="midnightblue" d="M110.154,-91.9108C131.611,-82.8692 160.046,-71.6767 186,-64 249.932,-45.0903 324.524,-30.4541 377.906,-21.2189"/>
<polygon fill="midnightblue" stroke="midnightblue" points="378.688,-24.6362 387.955,-19.5009 377.508,-17.7363 378.688,-24.6362"/>
</g>
<!-- Node6&#45;&gt;Node2 -->
<g id="edge10" class="edge"><title>Node6&#45;&gt;Node2</title>
<path fill="none" stroke="midnightblue" d="M284.384,-144.174C305.894,-157.564 339.053,-176.798 370,-189 377.311,-191.883 385.169,-194.456 392.992,-196.718"/>
<polygon fill="midnightblue" stroke="midnightblue" points="392.269,-200.149 402.838,-199.418 394.119,-193.398 392.269,-200.149"/>
</g>
<!-- Node6&#45;&gt;Node3 -->
<g id="edge11" class="edge"><title>Node6&#45;&gt;Node3</title>
<path fill="none" stroke="midnightblue" d="M329.937,-144.034C351.452,-148.726 374.858,-153.831 395.178,-158.262"/>
<polygon fill="midnightblue" stroke="midnightblue" points="394.673,-161.734 405.189,-160.446 396.165,-154.895 394.673,-161.734"/>
</g>
<!-- Node6&#45;&gt;Node4 -->
<g id="edge6" class="edge"><title>Node6&#45;&gt;Node4</title>
<path fill="none" stroke="midnightblue" d="M331.539,-113.992C353.377,-109.345 377.019,-104.315 397.328,-99.994"/>
<polygon fill="midnightblue" stroke="midnightblue" points="398.26,-103.374 407.312,-97.8697 396.803,-96.5275 398.26,-103.374"/>
</g>
<!-- Node6&#45;&gt;Node5 -->
<g id="edge7" class="edge"><title>Node6&#45;&gt;Node5</title>
<path fill="none" stroke="midnightblue" d="M285.336,-113.764C306.933,-100.752 339.673,-82.2491 370,-70 378.916,-66.3989 388.626,-63.1666 398.091,-60.3592"/>
<polygon fill="midnightblue" stroke="midnightblue" points="399.161,-63.6935 407.821,-57.5898 397.245,-56.9609 399.161,-63.6935"/>
</g>
<!-- Node7 -->
<g id="node7" class="node"><title>Node7</title>
<g id="a_node7"><a xlink:href="../../d7/d5f/misc_8cpp.html#a620c2e3dd4f6b457a8425876e8632981" target="_top" xlink:title="Print tf::Transform via ROS_INFO. ">
<polygon fill="white" stroke="black" points="410,-119.5 410,-138.5 490,-138.5 490,-119.5 410,-119.5"/>
<text text-anchor="middle" x="450" y="-126.5" font-family="Helvetica,sans-Serif" font-size="10.00">printTransform</text>
</a>
</g>
</g>
<!-- Node6&#45;&gt;Node7 -->
<g id="edge8" class="edge"><title>Node6&#45;&gt;Node7</title>
<path fill="none" stroke="midnightblue" d="M334.224,-129C356.173,-129 379.713,-129 399.726,-129"/>
<polygon fill="midnightblue" stroke="midnightblue" points="399.843,-132.5 409.843,-129 399.843,-125.5 399.843,-132.5"/>
</g>
<!-- Node6&#45;&gt;Node8 -->
<g id="edge9" class="edge"><title>Node6&#45;&gt;Node8</title>
<path fill="none" stroke="midnightblue" d="M273.02,-113.904C291.47,-91.7878 328.969,-50.8428 370,-29 374.288,-26.7172 378.852,-24.7048 383.54,-22.9312"/>
<polygon fill="midnightblue" stroke="midnightblue" points="384.948,-26.1495 393.289,-19.6163 382.694,-19.5221 384.948,-26.1495"/>
</g>
</g>
</svg>
