<?xml version="1.0" encoding="UTF-8" standalone="no"?>
<!DOCTYPE svg PUBLIC "-//W3C//DTD SVG 1.1//EN"
 "http://www.w3.org/Graphics/SVG/1.1/DTD/svg11.dtd">
<!-- Generated by graphviz version 2.36.0 (20140111.2315)
 -->
<!-- Title: GraphManager::firstNode Pages: 1 -->
<svg width="1514pt" height="737pt"
 viewBox="0.00 0.00 1514.00 737.39" xmlns="http://www.w3.org/2000/svg" xmlns:xlink="http://www.w3.org/1999/xlink">
<g id="graph0" class="graph" transform="scale(1 1) rotate(0) translate(4 733.393)">
<title>GraphManager::firstNode</title>
<polygon fill="white" stroke="none" points="-4,4 -4,-733.393 1510,-733.393 1510,4 -4,4"/>
<!-- Node1 -->
<g id="node1" class="node"><title>Node1</title>
<polygon fill="#bfbfbf" stroke="black" points="0,-595.893 0,-614.893 126,-614.893 126,-595.893 0,-595.893"/>
<text text-anchor="middle" x="63" y="-602.893" font-family="Helvetica,sans-Serif" font-size="10.00">GraphManager::firstNode</text>
</g>
<!-- Node2 -->
<g id="node2" class="node"><title>Node2</title>
<g id="a_node2"><a xlink:href="../../df/dd0/classNode.html#aa714d9c36f25c4a40d69b6bd100c10fe" target="_top" xlink:title="Transform, e.g., from MoCap. ">
<polygon fill="white" stroke="black" points="162,-709.893 162,-728.893 320,-728.893 320,-709.893 162,-709.893"/>
<text text-anchor="middle" x="241" y="-716.893" font-family="Helvetica,sans-Serif" font-size="10.00">Node::getGroundTruthTransform</text>
</a>
</g>
</g>
<!-- Node1&#45;&gt;Node2 -->
<g id="edge1" class="edge"><title>Node1&#45;&gt;Node2</title>
<path fill="none" stroke="midnightblue" d="M70.9259,-614.904C85.4948,-634.185 121.34,-677.948 162,-700.393 166.202,-702.713 170.685,-704.752 175.297,-706.545"/>
<polygon fill="midnightblue" stroke="midnightblue" points="174.303,-709.905 184.898,-709.888 176.605,-703.294 174.303,-709.905"/>
</g>
<!-- Node3 -->
<g id="node3" class="node"><title>Node3</title>
<g id="a_node3"><a xlink:href="../../d7/d5f/misc_8cpp.html#a620c2e3dd4f6b457a8425876e8632981" target="_top" xlink:title="Print tf::Transform via ROS_INFO. ">
<polygon fill="white" stroke="black" points="201,-671.893 201,-690.893 281,-690.893 281,-671.893 201,-671.893"/>
<text text-anchor="middle" x="241" y="-678.893" font-family="Helvetica,sans-Serif" font-size="10.00">printTransform</text>
</a>
</g>
</g>
<!-- Node1&#45;&gt;Node3 -->
<g id="edge2" class="edge"><title>Node1&#45;&gt;Node3</title>
<path fill="none" stroke="midnightblue" d="M77.6287,-615.037C95.9859,-627.614 130.05,-649.526 162,-662.393 171.116,-666.065 181.127,-669.155 190.849,-671.706"/>
<polygon fill="midnightblue" stroke="midnightblue" points="190.278,-675.17 200.826,-674.17 191.957,-668.374 190.278,-675.17"/>
</g>
<!-- Node4 -->
<g id="node4" class="node"><title>Node4</title>
<g id="a_node4"><a xlink:href="../../d7/d5f/misc_8cpp.html#a24fe652a87f594d550c1202bd9d61832" target="_top" xlink:title="Conversion Function. ">
<polygon fill="white" stroke="black" points="217,-633.893 217,-652.893 265,-652.893 265,-633.893 217,-633.893"/>
<text text-anchor="middle" x="241" y="-640.893" font-family="Helvetica,sans-Serif" font-size="10.00">tf2G2O</text>
</a>
</g>
</g>
<!-- Node1&#45;&gt;Node4 -->
<g id="edge3" class="edge"><title>Node1&#45;&gt;Node4</title>
<path fill="none" stroke="midnightblue" d="M108.412,-614.982C138.933,-621.572 178.812,-630.182 206.634,-636.189"/>
<polygon fill="midnightblue" stroke="midnightblue" points="206.149,-639.665 216.663,-638.355 207.627,-632.823 206.149,-639.665"/>
</g>
<!-- Node5 -->
<g id="node5" class="node"><title>Node5</title>
<g id="a_node5"><a xlink:href="../../d7/d5f/misc_8cpp.html#a3f5a98bfd7988fd43573e8237580486b" target="_top" xlink:title="Conversion Function. ">
<polygon fill="white" stroke="black" points="205,-595.893 205,-614.893 277,-614.893 277,-595.893 205,-595.893"/>
<text text-anchor="middle" x="241" y="-602.893" font-family="Helvetica,sans-Serif" font-size="10.00">g2o2QMatrix</text>
</a>
</g>
</g>
<!-- Node1&#45;&gt;Node5 -->
<g id="edge4" class="edge"><title>Node1&#45;&gt;Node5</title>
<path fill="none" stroke="midnightblue" d="M126.051,-605.393C148.656,-605.393 173.77,-605.393 194.656,-605.393"/>
<polygon fill="midnightblue" stroke="midnightblue" points="194.847,-608.893 204.847,-605.393 194.847,-601.893 194.847,-608.893"/>
</g>
<!-- Node7 -->
<g id="node7" class="node"><title>Node7</title>
<g id="a_node7"><a xlink:href="../../d3/d3e/classParameterServer.html#a5457f900e543c5a466bf9b65ee6bc577" target="_top" xlink:title="ParameterServer::instance">
<polygon fill="white" stroke="black" points="1359.5,-342.893 1359.5,-361.893 1492.5,-361.893 1492.5,-342.893 1359.5,-342.893"/>
<text text-anchor="middle" x="1426" y="-349.893" font-family="Helvetica,sans-Serif" font-size="10.00">ParameterServer::instance</text>
</a>
</g>
</g>
<!-- Node1&#45;&gt;Node7 -->
<g id="edge6" class="edge"><title>Node1&#45;&gt;Node7</title>
<path fill="none" stroke="midnightblue" d="M91.8336,-595.768C153.535,-575.317 306.809,-529.393 439,-529.393 439,-529.393 439,-529.393 1032,-529.393 1159.2,-529.393 1198.33,-522.292 1310,-461.393 1353.02,-437.934 1391.85,-394.349 1411.49,-370.004"/>
<polygon fill="midnightblue" stroke="midnightblue" points="1414.38,-371.994 1417.83,-361.978 1408.89,-367.654 1414.38,-371.994"/>
</g>
<!-- Node8 -->
<g id="node8" class="node"><title>Node8</title>
<g id="a_node8"><a xlink:href="../../d0/d8b/classGraphManager.html#aff1adf83b01fae1430f01a1cf1e6c20e" target="_top" xlink:title="Add a keyframe to the list (and log keyframes) ">
<polygon fill="white" stroke="black" points="575,-576.893 575,-595.893 719,-595.893 719,-576.893 575,-576.893"/>
<text text-anchor="middle" x="647" y="-583.893" font-family="Helvetica,sans-Serif" font-size="10.00">GraphManager::addKeyframe</text>
</a>
</g>
</g>
<!-- Node1&#45;&gt;Node8 -->
<g id="edge7" class="edge"><title>Node1&#45;&gt;Node8</title>
<path fill="none" stroke="midnightblue" d="M103.799,-595.883C121.506,-592.118 142.679,-588.249 162,-586.393 303.027,-572.848 468.237,-577.145 564.601,-581.658"/>
<polygon fill="midnightblue" stroke="midnightblue" points="564.699,-585.166 574.856,-582.151 565.035,-578.175 564.699,-585.166"/>
</g>
<!-- Node11 -->
<g id="node11" class="node"><title>Node11</title>
<g id="a_node11"><a xlink:href="../../d0/d8b/classGraphManager.html#a485d97d70bb895457ccd9538fbbb3bf6" target="_top" xlink:title="GraphManager::optimizeGraph">
<polygon fill="white" stroke="black" points="166.5,-481.893 166.5,-500.893 315.5,-500.893 315.5,-481.893 166.5,-481.893"/>
<text text-anchor="middle" x="241" y="-488.893" font-family="Helvetica,sans-Serif" font-size="10.00">GraphManager::optimizeGraph</text>
</a>
</g>
</g>
<!-- Node1&#45;&gt;Node11 -->
<g id="edge11" class="edge"><title>Node1&#45;&gt;Node11</title>
<path fill="none" stroke="midnightblue" d="M71.8574,-595.754C87.264,-577.463 123.325,-537.572 162,-515.393 169.769,-510.938 178.457,-507.22 187.136,-504.146"/>
<polygon fill="midnightblue" stroke="midnightblue" points="188.474,-507.391 196.883,-500.945 186.29,-500.74 188.474,-507.391"/>
</g>
<!-- Node6 -->
<g id="node6" class="node"><title>Node6</title>
<g id="a_node6"><a xlink:href="../../d7/d5f/misc_8cpp.html#afe9e1e85e61b3925b1121b6a11177591" target="_top" xlink:title="printQMatrix4x4">
<polygon fill="white" stroke="black" points="397,-595.893 397,-614.893 483,-614.893 483,-595.893 397,-595.893"/>
<text text-anchor="middle" x="440" y="-602.893" font-family="Helvetica,sans-Serif" font-size="10.00">printQMatrix4x4</text>
</a>
</g>
</g>
<!-- Node5&#45;&gt;Node6 -->
<g id="edge5" class="edge"><title>Node5&#45;&gt;Node6</title>
<path fill="none" stroke="midnightblue" d="M277.22,-605.393C307.61,-605.393 351.936,-605.393 386.509,-605.393"/>
<polygon fill="midnightblue" stroke="midnightblue" points="386.899,-608.893 396.899,-605.393 386.899,-601.893 386.899,-608.893"/>
</g>
<!-- Node8&#45;&gt;Node7 -->
<g id="edge8" class="edge"><title>Node8&#45;&gt;Node7</title>
<path fill="none" stroke="midnightblue" d="M719.186,-590.211C869.604,-596.947 1213.84,-604.936 1310,-543.393 1374.07,-502.388 1407.54,-411.78 1419.64,-371.892"/>
<polygon fill="midnightblue" stroke="midnightblue" points="1423.06,-372.649 1422.49,-362.07 1416.34,-370.697 1423.06,-372.649"/>
</g>
<!-- Node9 -->
<g id="node9" class="node"><title>Node9</title>
<g id="a_node9"><a xlink:href="../../df/dd0/classNode.html#ade58f2370cb8542f4bc4c1350a3ba462" target="_top" xlink:title="erase the points from the cloud to save memory ">
<polygon fill="white" stroke="black" points="787.5,-557.893 787.5,-576.893 902.5,-576.893 902.5,-557.893 787.5,-557.893"/>
<text text-anchor="middle" x="845" y="-564.893" font-family="Helvetica,sans-Serif" font-size="10.00">Node::clearPointCloud</text>
</a>
</g>
</g>
<!-- Node8&#45;&gt;Node9 -->
<g id="edge9" class="edge"><title>Node8&#45;&gt;Node9</title>
<path fill="none" stroke="midnightblue" d="M719.038,-579.507C737.987,-577.67 758.395,-575.692 777.113,-573.877"/>
<polygon fill="midnightblue" stroke="midnightblue" points="777.703,-577.337 787.318,-572.888 777.027,-570.369 777.703,-577.337"/>
</g>
<!-- Node10 -->
<g id="node10" class="node"><title>Node10</title>
<g id="a_node10"><a xlink:href="../../df/dd0/classNode.html#ac0d0027d1f1ac83c942d007629268171" target="_top" xlink:title="Node::clearFeatureInformation">
<polygon fill="white" stroke="black" points="770.5,-633.893 770.5,-652.893 919.5,-652.893 919.5,-633.893 770.5,-633.893"/>
<text text-anchor="middle" x="845" y="-640.893" font-family="Helvetica,sans-Serif" font-size="10.00">Node::clearFeatureInformation</text>
</a>
</g>
</g>
<!-- Node8&#45;&gt;Node10 -->
<g id="edge10" class="edge"><title>Node8&#45;&gt;Node10</title>
<path fill="none" stroke="midnightblue" d="M680.806,-595.934C713.877,-605.552 765.076,-620.441 801.296,-630.974"/>
<polygon fill="midnightblue" stroke="midnightblue" points="800.507,-634.39 811.087,-633.822 802.462,-627.668 800.507,-634.39"/>
</g>
<!-- Node11&#45;&gt;Node7 -->
<g id="edge12" class="edge"><title>Node11&#45;&gt;Node7</title>
<path fill="none" stroke="midnightblue" d="M315.721,-491.393C396.708,-491.393 530.622,-491.393 646,-491.393 646,-491.393 646,-491.393 1032,-491.393 1179.7,-491.393 1341.67,-403.056 1401.29,-367.226"/>
<polygon fill="midnightblue" stroke="midnightblue" points="1403.24,-370.136 1409.96,-361.947 1399.6,-364.157 1403.24,-370.136"/>
</g>
<!-- Node12 -->
<g id="node12" class="node"><title>Node12</title>
<g id="a_node12"><a xlink:href="../../d0/d8b/classGraphManager.html#aa29c73b4f404c4f89694f91c9af3e6a6" target="_top" xlink:title="Applies g2o for optimization returns chi2. ">
<polygon fill="white" stroke="black" points="356,-241.893 356,-260.893 524,-260.893 524,-241.893 356,-241.893"/>
<text text-anchor="middle" x="440" y="-248.893" font-family="Helvetica,sans-Serif" font-size="10.00">GraphManager::optimizeGraphImpl</text>
</a>
</g>
</g>
<!-- Node11&#45;&gt;Node12 -->
<g id="edge13" class="edge"><title>Node11&#45;&gt;Node12</title>
<path fill="none" stroke="midnightblue" d="M249.967,-481.688C279.919,-445.198 386.039,-315.914 424.742,-268.764"/>
<polygon fill="midnightblue" stroke="midnightblue" points="427.511,-270.907 431.15,-260.957 422.1,-266.466 427.511,-270.907"/>
</g>
<!-- Node12&#45;&gt;Node7 -->
<g id="edge14" class="edge"><title>Node12&#45;&gt;Node7</title>
<path fill="none" stroke="midnightblue" d="M456.902,-261.019C479.131,-273.998 521.143,-296.814 560,-308.393 684.479,-345.489 1012.16,-358.906 1142,-362.393 1216.64,-364.398 1235.4,-365.631 1310,-362.393 1322.64,-361.845 1336.04,-360.959 1349.05,-359.935"/>
<polygon fill="midnightblue" stroke="midnightblue" points="1349.7,-363.394 1359.38,-359.088 1349.13,-356.417 1349.7,-363.394"/>
</g>
<!-- Node13 -->
<g id="node13" class="node"><title>Node13</title>
<g id="a_node13"><a xlink:href="../../d3/d3e/classParameterServer.html#a3c8af50664e423b555bbb1874f488413" target="_top" xlink:title="ParameterServer::get">
<polygon fill="white" stroke="black" points="1371,-140.893 1371,-159.893 1481,-159.893 1481,-140.893 1371,-140.893"/>
<text text-anchor="middle" x="1426" y="-147.893" font-family="Helvetica,sans-Serif" font-size="10.00">ParameterServer::get</text>
</a>
</g>
</g>
<!-- Node12&#45;&gt;Node13 -->
<g id="edge15" class="edge"><title>Node12&#45;&gt;Node13</title>
<path fill="none" stroke="midnightblue" d="M443.149,-241.728C451.324,-207.472 483.949,-91.246 560,-41.3934 666.151,28.1903 717.076,-11.3934 844,-11.3934 844,-11.3934 844,-11.3934 1032,-11.3934 1159.41,-11.3934 1202.45,-13.0814 1310,-81.3934 1331.33,-94.9403 1325.09,-111.215 1346,-125.393 1353.27,-130.32 1361.56,-134.319 1369.97,-137.552"/>
<polygon fill="midnightblue" stroke="midnightblue" points="1368.89,-140.879 1379.48,-140.885 1371.2,-134.273 1368.89,-140.879"/>
</g>
<!-- Node14 -->
<g id="node14" class="node"><title>Node14</title>
<g id="a_node14"><a xlink:href="../../d4/d1a/graph__manager_8cpp.html#a3e690180d75a521b31a3d4b402793d5e" target="_top" xlink:title="fixationOfVertices">
<polygon fill="white" stroke="black" points="599.5,-241.893 599.5,-260.893 694.5,-260.893 694.5,-241.893 599.5,-241.893"/>
<text text-anchor="middle" x="647" y="-248.893" font-family="Helvetica,sans-Serif" font-size="10.00">fixationOfVertices</text>
</a>
</g>
</g>
<!-- Node12&#45;&gt;Node14 -->
<g id="edge16" class="edge"><title>Node12&#45;&gt;Node14</title>
<path fill="none" stroke="midnightblue" d="M524.086,-251.393C545.918,-251.393 568.97,-251.393 589.082,-251.393"/>
<polygon fill="midnightblue" stroke="midnightblue" points="589.31,-254.893 599.31,-251.393 589.309,-247.893 589.31,-254.893"/>
</g>
<!-- Node15 -->
<g id="node15" class="node"><title>Node15</title>
<g id="a_node15"><a xlink:href="../../d0/d8b/classGraphManager.html#a802422b66dc417f4125842b53da8183a" target="_top" xlink:title="GraphManager::last\l_added_cam_vertex_id">
<polygon fill="white" stroke="black" points="588.5,-192.393 588.5,-222.393 705.5,-222.393 705.5,-192.393 588.5,-192.393"/>
<text text-anchor="start" x="596.5" y="-210.393" font-family="Helvetica,sans-Serif" font-size="10.00">GraphManager::last</text>
<text text-anchor="middle" x="647" y="-199.393" font-family="Helvetica,sans-Serif" font-size="10.00">_added_cam_vertex_id</text>
</a>
</g>
</g>
<!-- Node12&#45;&gt;Node15 -->
<g id="edge17" class="edge"><title>Node12&#45;&gt;Node15</title>
<path fill="none" stroke="midnightblue" d="M485.482,-241.846C512.566,-236.033 547.709,-228.49 578.205,-221.945"/>
<polygon fill="midnightblue" stroke="midnightblue" points="579.308,-225.288 588.351,-219.767 577.839,-218.443 579.308,-225.288"/>
</g>
<!-- Node16 -->
<g id="node16" class="node"><title>Node16</title>
<g id="a_node16"><a xlink:href="../../d4/d08/misc_8h.html#a7bd6e35e893b731601e2239721f03ae9" target="_top" xlink:title="eigenTransf2TF">
<polygon fill="white" stroke="black" points="604.5,-153.893 604.5,-172.893 689.5,-172.893 689.5,-153.893 604.5,-153.893"/>
<text text-anchor="middle" x="647" y="-160.893" font-family="Helvetica,sans-Serif" font-size="10.00">eigenTransf2TF</text>
</a>
</g>
</g>
<!-- Node12&#45;&gt;Node16 -->
<g id="edge18" class="edge"><title>Node12&#45;&gt;Node16</title>
<path fill="none" stroke="midnightblue" d="M454.228,-241.874C475.493,-227.01 519.055,-198.343 560,-182.393 570.799,-178.187 582.743,-174.805 594.206,-172.13"/>
<polygon fill="midnightblue" stroke="midnightblue" points="595.098,-175.517 604.116,-169.957 593.598,-168.68 595.098,-175.517"/>
</g>
<!-- Node17 -->
<g id="node17" class="node"><title>Node17</title>
<g id="a_node17"><a xlink:href="../../d0/d8b/classGraphManager.html#a5ed6dafc45d6736bb5fbbe0ba5cc1d89" target="_top" xlink:title="GraphManager::stampedTransform\lInWorldFrame">
<polygon fill="white" stroke="black" points="1142,-91.3934 1142,-121.393 1310,-121.393 1310,-91.3934 1142,-91.3934"/>
<text text-anchor="start" x="1150" y="-109.393" font-family="Helvetica,sans-Serif" font-size="10.00">GraphManager::stampedTransform</text>
<text text-anchor="middle" x="1226" y="-98.3934" font-family="Helvetica,sans-Serif" font-size="10.00">InWorldFrame</text>
</a>
</g>
</g>
<!-- Node12&#45;&gt;Node17 -->
<g id="edge19" class="edge"><title>Node12&#45;&gt;Node17</title>
<path fill="none" stroke="midnightblue" d="M443.668,-241.805C453.125,-209.916 488.383,-107.25 560,-68.3934 656.475,-16.0495 975.534,-62.2299 1134.02,-89.5991"/>
<polygon fill="midnightblue" stroke="midnightblue" points="1133.77,-93.1083 1144.23,-91.3735 1134.97,-86.2118 1133.77,-93.1083"/>
</g>
<!-- Node19 -->
<g id="node19" class="node"><title>Node19</title>
<g id="a_node19"><a xlink:href="../../d0/d8b/classGraphManager.html#a4347303a3197042850f9d2226c70bfc9" target="_top" xlink:title="Broadcast given transform. ">
<polygon fill="white" stroke="black" points="560.5,-77.8934 560.5,-96.8934 733.5,-96.8934 733.5,-77.8934 560.5,-77.8934"/>
<text text-anchor="middle" x="647" y="-84.8934" font-family="Helvetica,sans-Serif" font-size="10.00">GraphManager::broadcastTransform</text>
</a>
</g>
</g>
<!-- Node12&#45;&gt;Node19 -->
<g id="edge23" class="edge"><title>Node12&#45;&gt;Node19</title>
<path fill="none" stroke="midnightblue" d="M446.297,-241.881C460.903,-216.553 504.38,-146.983 560,-111.393 567.038,-106.89 574.926,-103.218 582.993,-100.229"/>
<polygon fill="midnightblue" stroke="midnightblue" points="584.146,-103.534 592.505,-97.0235 581.911,-96.9002 584.146,-103.534"/>
</g>
<!-- Node21 -->
<g id="node21" class="node"><title>Node21</title>
<g id="a_node21"><a xlink:href="../../d0/d8b/classGraphManager.html#a1c8c6572bc4dd18f271496bc7f0d549c" target="_top" xlink:title="GraphManager::updateCloud\lOrigin">
<polygon fill="white" stroke="black" points="774.5,-116.393 774.5,-146.393 915.5,-146.393 915.5,-116.393 774.5,-116.393"/>
<text text-anchor="start" x="782.5" y="-134.393" font-family="Helvetica,sans-Serif" font-size="10.00">GraphManager::updateCloud</text>
<text text-anchor="middle" x="845" y="-123.393" font-family="Helvetica,sans-Serif" font-size="10.00">Origin</text>
</a>
</g>
</g>
<!-- Node12&#45;&gt;Node21 -->
<g id="edge25" class="edge"><title>Node12&#45;&gt;Node21</title>
<path fill="none" stroke="midnightblue" d="M447.963,-241.632C464.438,-219.457 508.329,-165.575 560,-144.393 624.946,-117.769 705.376,-116.714 764.045,-121.035"/>
<polygon fill="midnightblue" stroke="midnightblue" points="764.121,-124.552 774.37,-121.867 764.683,-117.575 764.121,-124.552"/>
</g>
<!-- Node22 -->
<g id="node22" class="node"><title>Node22</title>
<g id="a_node22"><a xlink:href="../../d0/d8b/classGraphManager.html#a9f80605d0434d29938fd8a7258156c24" target="_top" xlink:title="GraphManager::renderToOctomap">
<polygon fill="white" stroke="black" points="565,-279.893 565,-298.893 729,-298.893 729,-279.893 565,-279.893"/>
<text text-anchor="middle" x="647" y="-286.893" font-family="Helvetica,sans-Serif" font-size="10.00">GraphManager::renderToOctomap</text>
</a>
</g>
</g>
<!-- Node12&#45;&gt;Node22 -->
<g id="edge26" class="edge"><title>Node12&#45;&gt;Node22</title>
<path fill="none" stroke="midnightblue" d="M492.466,-260.933C520.368,-266.106 555.045,-272.534 584.38,-277.971"/>
<polygon fill="midnightblue" stroke="midnightblue" points="584.043,-281.468 594.513,-279.85 585.319,-274.585 584.043,-281.468"/>
</g>
<!-- Node26 -->
<g id="node26" class="node"><title>Node26</title>
<g id="a_node26"><a xlink:href="../../d0/d8b/classGraphManager.html#a72b82d3cb977a1901c70c5aebac7c903" target="_top" xlink:title="Return pointer to a list of the optimizers graph edges on the heap(!) ">
<polygon fill="white" stroke="black" points="570,-393.893 570,-412.893 724,-412.893 724,-393.893 570,-393.893"/>
<text text-anchor="middle" x="647" y="-400.893" font-family="Helvetica,sans-Serif" font-size="10.00">GraphManager::getGraphEdges</text>
</a>
</g>
</g>
<!-- Node12&#45;&gt;Node26 -->
<g id="edge39" class="edge"><title>Node12&#45;&gt;Node26</title>
<path fill="none" stroke="midnightblue" d="M446.54,-260.945C461.423,-285.687 504.903,-352.173 560,-384.393 563.712,-386.564 567.647,-388.488 571.71,-390.191"/>
<polygon fill="midnightblue" stroke="midnightblue" points="570.788,-393.582 581.381,-393.782 573.224,-387.02 570.788,-393.582"/>
</g>
<!-- Node27 -->
<g id="node27" class="node"><title>Node27</title>
<g id="a_node27"><a xlink:href="../../d0/d8b/classGraphManager.html#a4aa1914e94c6a0d60f698d45811a01ef" target="_top" xlink:title="Return pointer to a list of the optimizers graph poses on the heap(!) ">
<polygon fill="white" stroke="black" points="577.5,-432.393 577.5,-462.393 716.5,-462.393 716.5,-432.393 577.5,-432.393"/>
<text text-anchor="start" x="585.5" y="-450.393" font-family="Helvetica,sans-Serif" font-size="10.00">GraphManager::getAllPoses</text>
<text text-anchor="middle" x="647" y="-439.393" font-family="Helvetica,sans-Serif" font-size="10.00">AsMatrixList</text>
</a>
</g>
</g>
<!-- Node12&#45;&gt;Node27 -->
<g id="edge40" class="edge"><title>Node12&#45;&gt;Node27</title>
<path fill="none" stroke="midnightblue" d="M444.992,-261.26C457.367,-290.575 498.015,-377.874 560,-422.393 562.715,-424.344 565.581,-426.142 568.553,-427.802"/>
<polygon fill="midnightblue" stroke="midnightblue" points="567.23,-431.053 577.742,-432.373 570.347,-424.785 567.23,-431.053"/>
</g>
<!-- Node30 -->
<g id="node30" class="node"><title>Node30</title>
<g id="a_node30"><a xlink:href="../../d7/d12/classScopedTimer.html#acb1a3efcc11ddfb39b059611f7e548ab" target="_top" xlink:title="Get time since construction. ">
<polygon fill="white" stroke="black" points="590,-355.893 590,-374.893 704,-374.893 704,-355.893 590,-355.893"/>
<text text-anchor="middle" x="647" y="-362.893" font-family="Helvetica,sans-Serif" font-size="10.00">ScopedTimer::elapsed</text>
</a>
</g>
</g>
<!-- Node12&#45;&gt;Node30 -->
<g id="edge43" class="edge"><title>Node12&#45;&gt;Node30</title>
<path fill="none" stroke="midnightblue" d="M450.934,-261.031C470.314,-279.32 515.2,-319.207 560,-341.393 569.263,-345.981 579.537,-349.807 589.665,-352.957"/>
<polygon fill="midnightblue" stroke="midnightblue" points="588.713,-356.325 599.293,-355.773 590.678,-349.607 588.713,-356.325"/>
</g>
<!-- Node17&#45;&gt;Node7 -->
<g id="edge20" class="edge"><title>Node17&#45;&gt;Node7</title>
<path fill="none" stroke="midnightblue" d="M1239.74,-121.726C1256.1,-141.459 1285.34,-176.843 1310,-207.393 1346.81,-252.988 1389.54,-307.213 1411.07,-334.629"/>
<polygon fill="midnightblue" stroke="midnightblue" points="1408.59,-337.142 1417.52,-342.847 1414.1,-332.82 1408.59,-337.142"/>
</g>
<!-- Node17&#45;&gt;Node13 -->
<g id="edge21" class="edge"><title>Node17&#45;&gt;Node13</title>
<path fill="none" stroke="midnightblue" d="M1294.59,-121.413C1319.98,-127.055 1348.44,-133.38 1372.28,-138.678"/>
<polygon fill="midnightblue" stroke="midnightblue" points="1371.67,-142.128 1382.19,-140.881 1373.19,-135.295 1371.67,-142.128"/>
</g>
<!-- Node18 -->
<g id="node18" class="node"><title>Node18</title>
<g id="a_node18"><a xlink:href="../../df/dd0/classNode.html#adaf50ff94906ea43c16b79fe0e3547ab" target="_top" xlink:title="Transform, e.g., from kinematics. ">
<polygon fill="white" stroke="black" points="1346.5,-96.8934 1346.5,-115.893 1505.5,-115.893 1505.5,-96.8934 1346.5,-96.8934"/>
<text text-anchor="middle" x="1426" y="-103.893" font-family="Helvetica,sans-Serif" font-size="10.00">Node::getBase2PointsTransform</text>
</a>
</g>
</g>
<!-- Node17&#45;&gt;Node18 -->
<g id="edge22" class="edge"><title>Node17&#45;&gt;Node18</title>
<path fill="none" stroke="midnightblue" d="M1310.11,-106.393C1318.7,-106.393 1327.46,-106.393 1336.12,-106.393"/>
<polygon fill="midnightblue" stroke="midnightblue" points="1336.22,-109.893 1346.22,-106.393 1336.22,-102.893 1336.22,-109.893"/>
</g>
<!-- Node20 -->
<g id="node20" class="node"><title>Node20</title>
<g id="a_node20"><a xlink:href="../../de/d83/graph__manager_8h.html#a2e10953ff4a21d6e02d9574a3b2740b8" target="_top" xlink:title="Send node&#39;s pointcloud with given publisher and timestamp. ">
<polygon fill="white" stroke="black" points="808.5,-77.8934 808.5,-96.8934 881.5,-96.8934 881.5,-77.8934 808.5,-77.8934"/>
<text text-anchor="middle" x="845" y="-84.8934" font-family="Helvetica,sans-Serif" font-size="10.00">publishCloud</text>
</a>
</g>
</g>
<!-- Node19&#45;&gt;Node20 -->
<g id="edge24" class="edge"><title>Node19&#45;&gt;Node20</title>
<path fill="none" stroke="midnightblue" d="M733.683,-87.3934C755.759,-87.3934 778.683,-87.3934 797.876,-87.3934"/>
<polygon fill="midnightblue" stroke="midnightblue" points="798.126,-90.8935 808.126,-87.3934 798.126,-83.8935 798.126,-90.8935"/>
</g>
<!-- Node22&#45;&gt;Node7 -->
<g id="edge36" class="edge"><title>Node22&#45;&gt;Node7</title>
<path fill="none" stroke="midnightblue" d="M689.567,-298.933C713.057,-303.98 743.033,-309.849 770,-313.393 978.454,-340.789 1226.78,-348.954 1349.15,-351.377"/>
<polygon fill="midnightblue" stroke="midnightblue" points="1349.1,-354.877 1359.16,-351.568 1349.23,-347.878 1349.1,-354.877"/>
</g>
<!-- Node22&#45;&gt;Node9 -->
<g id="edge38" class="edge"><title>Node22&#45;&gt;Node9</title>
<path fill="none" stroke="midnightblue" d="M670.631,-298.962C690.139,-308.325 717.667,-324.386 734,-346.393 767.184,-391.106 745.186,-416.546 770,-466.393 785.948,-498.431 811.99,-531.034 828.546,-550.225"/>
<polygon fill="midnightblue" stroke="midnightblue" points="825.982,-552.61 835.209,-557.818 831.244,-547.993 825.982,-552.61"/>
</g>
<!-- Node22&#45;&gt;Node13 -->
<g id="edge37" class="edge"><title>Node22&#45;&gt;Node13</title>
<path fill="none" stroke="midnightblue" d="M692.703,-279.823C706.013,-276.891 720.616,-273.593 734,-270.393 916.11,-226.857 956.929,-193.823 1142,-165.393 1216.55,-153.942 1303.29,-150.826 1360.9,-150.17"/>
<polygon fill="midnightblue" stroke="midnightblue" points="1360.98,-153.669 1370.95,-150.077 1360.92,-146.669 1360.98,-153.669"/>
</g>
<!-- Node22&#45;&gt;Node21 -->
<g id="edge27" class="edge"><title>Node22&#45;&gt;Node21</title>
<path fill="none" stroke="midnightblue" d="M719.912,-279.795C725.02,-277.279 729.802,-274.186 734,-270.393 771.86,-236.196 735.138,-198.642 770,-161.393 773.375,-157.788 777.243,-154.605 781.403,-151.796"/>
<polygon fill="midnightblue" stroke="midnightblue" points="783.459,-154.646 790.285,-146.543 779.896,-148.621 783.459,-154.646"/>
</g>
<!-- Node23 -->
<g id="node23" class="node"><title>Node23</title>
<g id="a_node23"><a xlink:href="../../d7/ddc/classColorOctomapServer.html#ac16ce374c11799891e316f637acbd2e7" target="_top" xlink:title="ColorOctomapServer\l::insertCloudCallback">
<polygon fill="white" stroke="black" points="790,-274.393 790,-304.393 900,-304.393 900,-274.393 790,-274.393"/>
<text text-anchor="start" x="798" y="-292.393" font-family="Helvetica,sans-Serif" font-size="10.00">ColorOctomapServer</text>
<text text-anchor="middle" x="845" y="-281.393" font-family="Helvetica,sans-Serif" font-size="10.00">::insertCloudCallback</text>
</a>
</g>
</g>
<!-- Node22&#45;&gt;Node23 -->
<g id="edge28" class="edge"><title>Node22&#45;&gt;Node23</title>
<path fill="none" stroke="midnightblue" d="M729.136,-289.393C745.895,-289.393 763.334,-289.393 779.409,-289.393"/>
<polygon fill="midnightblue" stroke="midnightblue" points="779.756,-292.893 789.756,-289.393 779.756,-285.893 779.756,-292.893"/>
</g>
<!-- Node23&#45;&gt;Node7 -->
<g id="edge29" class="edge"><title>Node23&#45;&gt;Node7</title>
<path fill="none" stroke="midnightblue" d="M900.321,-294.847C986.995,-303.611 1161.91,-321.561 1310,-338.393 1322.74,-339.841 1336.27,-341.436 1349.4,-343.015"/>
<polygon fill="midnightblue" stroke="midnightblue" points="1348.99,-346.492 1359.34,-344.217 1349.83,-339.543 1348.99,-346.492"/>
</g>
<!-- Node24 -->
<g id="node24" class="node"><title>Node24</title>
<g id="a_node24"><a xlink:href="../../d7/ddc/classColorOctomapServer.html#ab96bf80f442fcebd4e269b40dc31f841" target="_top" xlink:title="ColorOctomapServer\l::insertCloudCallbackCommon">
<polygon fill="white" stroke="black" points="956,-236.393 956,-266.393 1106,-266.393 1106,-236.393 956,-236.393"/>
<text text-anchor="start" x="964" y="-254.393" font-family="Helvetica,sans-Serif" font-size="10.00">ColorOctomapServer</text>
<text text-anchor="middle" x="1031" y="-243.393" font-family="Helvetica,sans-Serif" font-size="10.00">::insertCloudCallbackCommon</text>
</a>
</g>
</g>
<!-- Node23&#45;&gt;Node24 -->
<g id="edge30" class="edge"><title>Node23&#45;&gt;Node24</title>
<path fill="none" stroke="midnightblue" d="M900.211,-278.198C914.959,-275.152 931.275,-271.782 947.219,-268.49"/>
<polygon fill="midnightblue" stroke="midnightblue" points="947.995,-271.903 957.08,-266.453 946.579,-265.048 947.995,-271.903"/>
</g>
<!-- Node24&#45;&gt;Node7 -->
<g id="edge31" class="edge"><title>Node24&#45;&gt;Node7</title>
<path fill="none" stroke="midnightblue" d="M1106.06,-259.327C1162.76,-266.622 1242.45,-279.531 1310,-300.393 1341.51,-310.125 1375.72,-326.386 1398.56,-338.136"/>
<polygon fill="midnightblue" stroke="midnightblue" points="1397.13,-341.338 1407.61,-342.864 1400.37,-335.133 1397.13,-341.338"/>
</g>
<!-- Node24&#45;&gt;Node13 -->
<g id="edge32" class="edge"><title>Node24&#45;&gt;Node13</title>
<path fill="none" stroke="midnightblue" d="M1065.14,-236.302C1086.69,-226.951 1115.59,-215.265 1142,-207.393 1215.74,-185.417 1302.82,-169.299 1360.72,-159.917"/>
<polygon fill="midnightblue" stroke="midnightblue" points="1361.5,-163.336 1370.82,-158.3 1360.4,-156.424 1361.5,-163.336"/>
</g>
<!-- Node25 -->
<g id="node25" class="node"><title>Node25</title>
<g id="a_node25"><a xlink:href="../../d7/ddc/classColorOctomapServer.html#ac7cca7bcabafb3876d7ad4bb3a6b6c8f" target="_top" xlink:title="Clear octomap and reset values to paramters from parameter server. ">
<polygon fill="white" stroke="black" points="1172,-217.393 1172,-247.393 1280,-247.393 1280,-217.393 1172,-217.393"/>
<text text-anchor="start" x="1180" y="-235.393" font-family="Helvetica,sans-Serif" font-size="10.00">ColorOctomapServer</text>
<text text-anchor="middle" x="1226" y="-224.393" font-family="Helvetica,sans-Serif" font-size="10.00">::reset</text>
</a>
</g>
</g>
<!-- Node24&#45;&gt;Node25 -->
<g id="edge33" class="edge"><title>Node24&#45;&gt;Node25</title>
<path fill="none" stroke="midnightblue" d="M1106.07,-244.102C1124.37,-242.3 1143.82,-240.385 1161.57,-238.638"/>
<polygon fill="midnightblue" stroke="midnightblue" points="1162.19,-242.094 1171.8,-237.631 1161.5,-235.127 1162.19,-242.094"/>
</g>
<!-- Node25&#45;&gt;Node7 -->
<g id="edge34" class="edge"><title>Node25&#45;&gt;Node7</title>
<path fill="none" stroke="midnightblue" d="M1276.85,-247.505C1288.06,-251.691 1299.68,-256.681 1310,-262.393 1347.77,-283.292 1386.16,-316.199 1407.65,-335.899"/>
<polygon fill="midnightblue" stroke="midnightblue" points="1405.31,-338.505 1415.02,-342.75 1410.08,-333.378 1405.31,-338.505"/>
</g>
<!-- Node25&#45;&gt;Node13 -->
<g id="edge35" class="edge"><title>Node25&#45;&gt;Node13</title>
<path fill="none" stroke="midnightblue" d="M1270.75,-217.3C1283.48,-212.713 1297.37,-207.524 1310,-202.393 1339.49,-190.419 1372.53,-175.292 1395.61,-164.446"/>
<polygon fill="midnightblue" stroke="midnightblue" points="1397.3,-167.517 1404.85,-160.081 1394.31,-161.188 1397.3,-167.517"/>
</g>
<!-- Node28 -->
<g id="node28" class="node"><title>Node28</title>
<g id="a_node28"><a xlink:href="../../d4/d08/misc_8h.html#a2b945fc2871e0006d856539080d3e0a0" target="_top" xlink:title="eigenTF2QMatrix">
<polygon fill="white" stroke="black" points="799,-437.893 799,-456.893 891,-456.893 891,-437.893 799,-437.893"/>
<text text-anchor="middle" x="845" y="-444.893" font-family="Helvetica,sans-Serif" font-size="10.00">eigenTF2QMatrix</text>
</a>
</g>
</g>
<!-- Node27&#45;&gt;Node28 -->
<g id="edge41" class="edge"><title>Node27&#45;&gt;Node28</title>
<path fill="none" stroke="midnightblue" d="M716.551,-447.393C740.197,-447.393 766.364,-447.393 788.804,-447.393"/>
<polygon fill="midnightblue" stroke="midnightblue" points="788.83,-450.893 798.83,-447.393 788.83,-443.893 788.83,-450.893"/>
</g>
<!-- Node29 -->
<g id="node29" class="node"><title>Node29</title>
<g id="a_node29"><a xlink:href="../../d4/d08/misc_8h.html#afe9e1e85e61b3925b1121b6a11177591" target="_top" xlink:title="printQMatrix4x4">
<polygon fill="white" stroke="black" points="988,-437.893 988,-456.893 1074,-456.893 1074,-437.893 988,-437.893"/>
<text text-anchor="middle" x="1031" y="-444.893" font-family="Helvetica,sans-Serif" font-size="10.00">printQMatrix4x4</text>
</a>
</g>
</g>
<!-- Node28&#45;&gt;Node29 -->
<g id="edge42" class="edge"><title>Node28&#45;&gt;Node29</title>
<path fill="none" stroke="midnightblue" d="M891.011,-447.393C917.238,-447.393 950.429,-447.393 977.798,-447.393"/>
<polygon fill="midnightblue" stroke="midnightblue" points="977.976,-450.893 987.976,-447.393 977.976,-443.893 977.976,-450.893"/>
</g>
</g>
</svg>
