<?xml version="1.0" encoding="UTF-8" standalone="no"?>
<!DOCTYPE svg PUBLIC "-//W3C//DTD SVG 1.1//EN"
 "http://www.w3.org/Graphics/SVG/1.1/DTD/svg11.dtd">
<!-- Generated by graphviz version 2.36.0 (20140111.2315)
 -->
<!-- Title: GraphManager::filterNodesByPosition Pages: 1 -->
<!--zoomable 123 -->
<svg id="main" version="1.1" xmlns="http://www.w3.org/2000/svg" xmlns:xlink="http://www.w3.org/1999/xlink" xml:space="preserve" onload="init(evt)">
<style type="text/css"><![CDATA[
.edge:hover path { stroke: red; }
.edge:hover polygon { stroke: red; fill: red; }
]]></style>
<script type="text/javascript"><![CDATA[
var edges = document.getElementsByTagName('g');
if (edges && edges.length) {
  for (var i=0;i<edges.length;i++) {
    if (edges[i].id.substr(0,4)=='edge') {
      edges[i].setAttribute('class','edge');
    }
  }
}
]]></script>
        <defs>
                <circle id="rim" cx="0" cy="0" r="7"/>
                <circle id="rim2" cx="0" cy="0" r="3.5"/>
                <g id="zoomPlus">
                        <use xlink:href="#rim" fill="#404040">
                                <set attributeName="fill" to="#808080" begin="zoomplus.mouseover" end="zoomplus.mouseout"/>
                        </use>
                        <path d="M-4,0h8M0,-4v8" fill="none" stroke="white" stroke-width="1.5" pointer-events="none"/>
                </g>
                <g id="zoomMin">
                        <use xlink:href="#rim" fill="#404040">
                                <set attributeName="fill" to="#808080" begin="zoomminus.mouseover" end="zoomminus.mouseout"/>
                        </use>
                        <path d="M-4,0h8" fill="none" stroke="white" stroke-width="1.5" pointer-events="none"/>
                </g>
                <g id="dirArrow">
                        <path fill="none" stroke="white" stroke-width="1.5" d="M0,-3.0v7 M-2.5,-0.5L0,-3.0L2.5,-0.5"/>
                </g>
               <g id="resetDef">
                       <use xlink:href="#rim2" fill="#404040">
                               <set attributeName="fill" to="#808080" begin="reset.mouseover" end="reset.mouseout"/>
                       </use>
               </g>
        </defs>

<script type="text/javascript">
var viewWidth = 556;
var viewHeight = 123;
var sectionId = 'dynsection-13';
</script>
<script xlink:href="../../svgpan.js"/>
<svg id="graph" class="graph">
<g id="viewport">
<title>GraphManager::filterNodesByPosition</title>
<polygon fill="white" stroke="none" points="-4,4 -4,-119.257 552,-119.257 552,4 -4,4"/>
<!-- Node1 -->
<g id="node1" class="node"><title>Node1</title>
<polygon fill="#bfbfbf" stroke="black" points="0,-52 0,-82 134,-82 134,-52 0,-52"/>
<text text-anchor="start" x="8" y="-70" font-family="Helvetica,sans-Serif" font-size="10.00">GraphManager::filterNodes</text>
<text text-anchor="middle" x="67" y="-59" font-family="Helvetica,sans-Serif" font-size="10.00">ByPosition</text>
</g>
<!-- Node2 -->
<g id="node2" class="node"><title>Node2</title>
<g id="a_node2"><a xlink:href="../../df/dd0/classNode.html#ae47543737e94f99487ee4cfdf1976b29" target="_top" xlink:title="Center needs to be in the coordinate frame of the node (i.e. the camera is 0,0,0) ...">
<polygon fill="white" stroke="black" points="170.5,-57.5 170.5,-76.5 271.5,-76.5 271.5,-57.5 170.5,-57.5"/>
<text text-anchor="middle" x="221" y="-64.5" font-family="Helvetica,sans-Serif" font-size="10.00">Node::copy_filtered</text>
</a>
</g>
</g>
<!-- Node1&#45;&gt;Node2 -->
<g id="edge1" class="edge"><title>Node1&#45;&gt;Node2</title>
<path fill="none" stroke="midnightblue" d="M134.227,-67C142.872,-67 151.689,-67 160.22,-67"/>
<polygon fill="midnightblue" stroke="midnightblue" points="160.453,-70.5001 170.453,-67 160.453,-63.5001 160.453,-70.5001"/>
</g>
<!-- Node3 -->
<g id="node3" class="node"><title>Node3</title>
<g id="a_node3"><a xlink:href="../../df/dd0/classNode.html#ad7a34779cad45d997bfd6d3d8043c75f" target="_top" xlink:title="Node::Node">
<polygon fill="white" stroke="black" points="478.5,-57.5 478.5,-76.5 547.5,-76.5 547.5,-57.5 478.5,-57.5"/>
<text text-anchor="middle" x="513" y="-64.5" font-family="Helvetica,sans-Serif" font-size="10.00">Node::Node</text>
</a>
</g>
</g>
<!-- Node2&#45;&gt;Node3 -->
<g id="edge2" class="edge"><title>Node2&#45;&gt;Node3</title>
<path fill="none" stroke="midnightblue" d="M238.116,-76.5727C254.901,-85.9417 282.286,-99.5722 308,-105 366.271,-117.3 384.276,-119.658 442,-105 459.423,-100.576 477.202,-90.8457 490.483,-82.3394"/>
<polygon fill="midnightblue" stroke="midnightblue" points="492.521,-85.1869 498.898,-76.7262 488.637,-79.3634 492.521,-85.1869"/>
</g>
<!-- Node4 -->
<g id="node4" class="node"><title>Node4</title>
<g id="a_node4"><a xlink:href="../../d7/d70/node_8cpp.html#ad21425cc55c472412d4843b27ba210b6" target="_top" xlink:title="copy_filter_cloud">
<polygon fill="white" stroke="black" points="330,-76.5 330,-95.5 420,-95.5 420,-76.5 330,-76.5"/>
<text text-anchor="middle" x="375" y="-83.5" font-family="Helvetica,sans-Serif" font-size="10.00">copy_filter_cloud</text>
</a>
</g>
</g>
<!-- Node2&#45;&gt;Node4 -->
<g id="edge3" class="edge"><title>Node2&#45;&gt;Node4</title>
<path fill="none" stroke="midnightblue" d="M271.77,-73.2213C287.112,-75.139 304.078,-77.2597 319.707,-79.2134"/>
<polygon fill="midnightblue" stroke="midnightblue" points="319.398,-82.7019 329.754,-80.4693 320.266,-75.7559 319.398,-82.7019"/>
</g>
<!-- Node5 -->
<g id="node5" class="node"><title>Node5</title>
<g id="a_node5"><a xlink:href="../../d7/d70/node_8cpp.html#a41a4745b7a947f40229e7ece7095d41d" target="_top" xlink:title="copy_filter_features">
<polygon fill="white" stroke="black" points="324,-38.5 324,-57.5 426,-57.5 426,-38.5 324,-38.5"/>
<text text-anchor="middle" x="375" y="-45.5" font-family="Helvetica,sans-Serif" font-size="10.00">copy_filter_features</text>
</a>
</g>
</g>
<!-- Node2&#45;&gt;Node5 -->
<g id="edge4" class="edge"><title>Node2&#45;&gt;Node5</title>
<path fill="none" stroke="midnightblue" d="M271.77,-60.7787C285.217,-59.0979 299.912,-57.261 313.861,-55.5174"/>
<polygon fill="midnightblue" stroke="midnightblue" points="314.369,-58.9812 323.858,-54.2678 313.501,-52.0353 314.369,-58.9812"/>
</g>
<!-- Node6 -->
<g id="node6" class="node"><title>Node6</title>
<g id="a_node6"><a xlink:href="../../df/dd0/classNode.html#ab088d507af4b733aea7c0ce9333cf24e" target="_top" xlink:title="Node::getMemoryFootprint">
<polygon fill="white" stroke="black" points="308.5,-0.5 308.5,-19.5 441.5,-19.5 441.5,-0.5 308.5,-0.5"/>
<text text-anchor="middle" x="375" y="-7.5" font-family="Helvetica,sans-Serif" font-size="10.00">Node::getMemoryFootprint</text>
</a>
</g>
</g>
<!-- Node2&#45;&gt;Node6 -->
<g id="edge5" class="edge"><title>Node2&#45;&gt;Node6</title>
<path fill="none" stroke="midnightblue" d="M241.501,-57.4724C258.732,-49.2745 284.678,-37.4653 308,-29 314.326,-26.704 321.07,-24.4969 327.741,-22.4511"/>
<polygon fill="midnightblue" stroke="midnightblue" points="328.817,-25.7826 337.405,-19.5776 326.822,-19.073 328.817,-25.7826"/>
</g>
<!-- Node6&#45;&gt;Node3 -->
<g id="edge6" class="edge"><title>Node6&#45;&gt;Node3</title>
<path fill="none" stroke="midnightblue" d="M414.523,-19.5673C423.661,-22.2526 433.283,-25.429 442,-29 457.754,-35.454 474.545,-44.4892 487.732,-52.1302"/>
<polygon fill="midnightblue" stroke="midnightblue" points="486.242,-55.3148 496.631,-57.3907 489.804,-49.289 486.242,-55.3148"/>
</g>
</g>
</svg>
        <g id="navigator" transform="translate(0 0)" fill="#404254">
                <rect fill="#f2f5e9" fill-opacity="0.5" stroke="#606060" stroke-width=".5" x="0" y="0" width="60" height="60"/>
                <use id="zoomplus" xlink:href="#zoomPlus" x="17" y="9" onmousedown="handleZoom(evt,'in')"/>
                <use id="zoomminus" xlink:href="#zoomMin" x="42" y="9" onmousedown="handleZoom(evt,'out')"/>
                <use id="reset" xlink:href="#resetDef" x="30" y="36" onmousedown="handleReset()"/>
                <g id="arrowUp" xlink:href="#dirArrow" transform="translate(30 24)" onmousedown="handlePan(0,-1)">
                  <use xlink:href="#rim" fill="#404040">
                        <set attributeName="fill" to="#808080" begin="arrowUp.mouseover" end="arrowUp.mouseout"/>
                  </use>
                  <path fill="none" stroke="white" stroke-width="1.5" d="M0,-3.0v7 M-2.5,-0.5L0,-3.0L2.5,-0.5"/>
                </g>
                <g id="arrowRight" xlink:href="#dirArrow" transform="rotate(90) translate(36 -43)" onmousedown="handlePan(1,0)">
                  <use xlink:href="#rim" fill="#404040">
                        <set attributeName="fill" to="#808080" begin="arrowRight.mouseover" end="arrowRight.mouseout"/>
                  </use>
                  <path fill="none" stroke="white" stroke-width="1.5" d="M0,-3.0v7 M-2.5,-0.5L0,-3.0L2.5,-0.5"/>
                </g>
                <g id="arrowDown" xlink:href="#dirArrow" transform="rotate(180) translate(-30 -48)" onmousedown="handlePan(0,1)">
                  <use xlink:href="#rim" fill="#404040">
                        <set attributeName="fill" to="#808080" begin="arrowDown.mouseover" end="arrowDown.mouseout"/>
                  </use>
                  <path fill="none" stroke="white" stroke-width="1.5" d="M0,-3.0v7 M-2.5,-0.5L0,-3.0L2.5,-0.5"/>
                </g>
                <g id="arrowLeft" xlink:href="#dirArrow" transform="rotate(270) translate(-36 17)" onmousedown="handlePan(-1,0)">
                  <use xlink:href="#rim" fill="#404040">
                        <set attributeName="fill" to="#808080" begin="arrowLeft.mouseover" end="arrowLeft.mouseout"/>
                  </use>
                  <path fill="none" stroke="white" stroke-width="1.5" d="M0,-3.0v7 M-2.5,-0.5L0,-3.0L2.5,-0.5"/>
                </g>
        </g>
        <svg viewBox="0 0 15 15" width="100%" height="30px" preserveAspectRatio="xMaxYMin meet">
         <g id="arrow_out" transform="scale(0.3 0.3)">
          <a xlink:href="classGraphManager_a699b9e48860d514493b4319612ba3d8f_cgraph_org.svg" target="_base">
           <rect id="button" ry="5" rx="5" y="6" x="6" height="38" width="38"
                fill="#f2f5e9" fill-opacity="0.5" stroke="#606060" stroke-width="1.0"/>
           <path id="arrow"
             d="M 11.500037,31.436501 C 11.940474,20.09759 22.043105,11.32322 32.158766,21.979434 L 37.068811,17.246167 C 37.068811,17.246167 37.088388,32 37.088388,32 L 22.160133,31.978069 C 22.160133,31.978069 26.997745,27.140456 26.997745,27.140456 C 18.528582,18.264221 13.291696,25.230495 11.500037,31.436501 z"
             style="fill:#404040;"/>
          </a>
         </g>
        </svg>
</svg>
