<?xml version="1.0" encoding="UTF-8" standalone="no"?>
<!DOCTYPE svg PUBLIC "-//W3C//DTD SVG 1.1//EN"
 "http://www.w3.org/Graphics/SVG/1.1/DTD/svg11.dtd">
<!-- Generated by graphviz version 2.36.0 (20140111.2315)
 -->
<!-- Title: GraphManager::saveBagfileAsync Pages: 1 -->
<!--zoomable 218 -->
<svg id="main" version="1.1" xmlns="http://www.w3.org/2000/svg" xmlns:xlink="http://www.w3.org/1999/xlink" xml:space="preserve" onload="init(evt)">
<style type="text/css"><![CDATA[
.edge:hover path { stroke: red; }
.edge:hover polygon { stroke: red; fill: red; }
]]></style>
<script type="text/javascript"><![CDATA[
var edges = document.getElementsByTagName('g');
if (edges && edges.length) {
  for (var i=0;i<edges.length;i++) {
    if (edges[i].id.substr(0,4)=='edge') {
      edges[i].setAttribute('class','edge');
    }
  }
}
]]></script>
        <defs>
                <circle id="rim" cx="0" cy="0" r="7"/>
                <circle id="rim2" cx="0" cy="0" r="3.5"/>
                <g id="zoomPlus">
                        <use xlink:href="#rim" fill="#404040">
                                <set attributeName="fill" to="#808080" begin="zoomplus.mouseover" end="zoomplus.mouseout"/>
                        </use>
                        <path d="M-4,0h8M0,-4v8" fill="none" stroke="white" stroke-width="1.5" pointer-events="none"/>
                </g>
                <g id="zoomMin">
                        <use xlink:href="#rim" fill="#404040">
                                <set attributeName="fill" to="#808080" begin="zoomminus.mouseover" end="zoomminus.mouseout"/>
                        </use>
                        <path d="M-4,0h8" fill="none" stroke="white" stroke-width="1.5" pointer-events="none"/>
                </g>
                <g id="dirArrow">
                        <path fill="none" stroke="white" stroke-width="1.5" d="M0,-3.0v7 M-2.5,-0.5L0,-3.0L2.5,-0.5"/>
                </g>
               <g id="resetDef">
                       <use xlink:href="#rim2" fill="#404040">
                               <set attributeName="fill" to="#808080" begin="reset.mouseover" end="reset.mouseout"/>
                       </use>
               </g>
        </defs>

<script type="text/javascript">
var viewWidth = 700;
var viewHeight = 218;
var sectionId = 'dynsection-34';
</script>
<script xlink:href="../../svgpan.js"/>
<svg id="graph" class="graph">
<g id="viewport">
<title>GraphManager::saveBagfileAsync</title>
<polygon fill="white" stroke="none" points="-4,4 -4,-214 696,-214 696,4 -4,4"/>
<!-- Node1 -->
<g id="node1" class="node"><title>Node1</title>
<polygon fill="#bfbfbf" stroke="black" points="0.5,-164 0.5,-194 137.5,-194 137.5,-164 0.5,-164"/>
<text text-anchor="start" x="8.5" y="-182" font-family="Helvetica,sans-Serif" font-size="10.00">GraphManager::saveBagfile</text>
<text text-anchor="middle" x="69" y="-171" font-family="Helvetica,sans-Serif" font-size="10.00">Async</text>
</g>
<!-- Node2 -->
<g id="node2" class="node"><title>Node2</title>
<g id="a_node2"><a xlink:href="../../d3/d3e/classParameterServer.html#a5457f900e543c5a466bf9b65ee6bc577" target="_top" xlink:title="ParameterServer::instance">
<polygon fill="white" stroke="black" points="545.5,-190.5 545.5,-209.5 678.5,-209.5 678.5,-190.5 545.5,-190.5"/>
<text text-anchor="middle" x="612" y="-197.5" font-family="Helvetica,sans-Serif" font-size="10.00">ParameterServer::instance</text>
</a>
</g>
</g>
<!-- Node1&#45;&gt;Node2 -->
<g id="edge1" class="edge"><title>Node1&#45;&gt;Node2</title>
<path fill="none" stroke="midnightblue" d="M137.697,-181.628C238.945,-185.558 429.207,-192.943 535.057,-197.052"/>
<polygon fill="midnightblue" stroke="midnightblue" points="535.216,-200.561 545.344,-197.451 535.488,-193.566 535.216,-200.561"/>
</g>
<!-- Node3 -->
<g id="node3" class="node"><title>Node3</title>
<g id="a_node3"><a xlink:href="../../d0/d8b/classGraphManager.html#a8e9a91f6b16e300a71dbaaa638e41fec" target="_top" xlink:title="iterate over all Nodes, writing their transform and pointcloud to a bagfile ">
<polygon fill="white" stroke="black" points="174.5,-128.5 174.5,-147.5 311.5,-147.5 311.5,-128.5 174.5,-128.5"/>
<text text-anchor="middle" x="243" y="-135.5" font-family="Helvetica,sans-Serif" font-size="10.00">GraphManager::saveBagfile</text>
</a>
</g>
</g>
<!-- Node1&#45;&gt;Node3 -->
<g id="edge2" class="edge"><title>Node1&#45;&gt;Node3</title>
<path fill="none" stroke="midnightblue" d="M133.07,-163.966C152.485,-159.338 173.582,-154.309 191.993,-149.92"/>
<polygon fill="midnightblue" stroke="midnightblue" points="193.002,-153.278 201.918,-147.554 191.379,-146.469 193.002,-153.278"/>
</g>
<!-- Node3&#45;&gt;Node2 -->
<g id="edge3" class="edge"><title>Node3&#45;&gt;Node2</title>
<path fill="none" stroke="midnightblue" d="M300.539,-147.552C366.369,-158.673 474.955,-177.017 544.699,-188.799"/>
<polygon fill="midnightblue" stroke="midnightblue" points="544.254,-192.274 554.698,-190.488 545.42,-185.371 544.254,-192.274"/>
</g>
<!-- Node4 -->
<g id="node4" class="node"><title>Node4</title>
<g id="a_node4"><a xlink:href="../../d0/d8b/classGraphManager.html#a0ca3bc82d7532c35ad52294ab9f2d0e4" target="_top" xlink:title="Compute the tranformation between (sensor) Base and Fixed (Map) frame. ">
<polygon fill="white" stroke="black" points="348,-103 348,-133 496,-133 496,-103 348,-103"/>
<text text-anchor="start" x="356" y="-121" font-family="Helvetica,sans-Serif" font-size="10.00">GraphManager::computeFixed</text>
<text text-anchor="middle" x="422" y="-110" font-family="Helvetica,sans-Serif" font-size="10.00">ToBaseTransform</text>
</a>
</g>
</g>
<!-- Node3&#45;&gt;Node4 -->
<g id="edge4" class="edge"><title>Node3&#45;&gt;Node4</title>
<path fill="none" stroke="midnightblue" d="M311.674,-130.353C320.161,-129.394 328.92,-128.405 337.612,-127.422"/>
<polygon fill="midnightblue" stroke="midnightblue" points="338.222,-130.876 347.766,-126.275 337.436,-123.92 338.222,-130.876"/>
</g>
<!-- Node6 -->
<g id="node6" class="node"><title>Node6</title>
<g id="a_node6"><a xlink:href="../../df/dd0/classNode.html#adaf50ff94906ea43c16b79fe0e3547ab" target="_top" xlink:title="Transform, e.g., from kinematics. ">
<polygon fill="white" stroke="black" points="532.5,-0.5 532.5,-19.5 691.5,-19.5 691.5,-0.5 532.5,-0.5"/>
<text text-anchor="middle" x="612" y="-7.5" font-family="Helvetica,sans-Serif" font-size="10.00">Node::getBase2PointsTransform</text>
</a>
</g>
</g>
<!-- Node3&#45;&gt;Node6 -->
<g id="edge11" class="edge"><title>Node3&#45;&gt;Node6</title>
<path fill="none" stroke="midnightblue" d="M264.925,-128.405C285.794,-118.965 318.854,-104.357 348,-93 428.675,-61.5648 448.918,-53.3752 532,-29 540.359,-26.5474 549.283,-24.1724 558.012,-21.9803"/>
<polygon fill="midnightblue" stroke="midnightblue" points="558.869,-25.374 567.745,-19.5887 557.199,-18.5762 558.869,-25.374"/>
</g>
<!-- Node4&#45;&gt;Node2 -->
<g id="edge9" class="edge"><title>Node4&#45;&gt;Node2</title>
<path fill="none" stroke="midnightblue" d="M466.715,-133.03C476.678,-137.246 486.979,-142.269 496,-148 514.321,-159.638 512.839,-170.804 532,-181 536.289,-183.282 540.853,-185.294 545.541,-187.067"/>
<polygon fill="midnightblue" stroke="midnightblue" points="544.696,-190.476 555.29,-190.381 546.949,-183.848 544.696,-190.476"/>
</g>
<!-- Node5 -->
<g id="node5" class="node"><title>Node5</title>
<g id="a_node5"><a xlink:href="../../d4/d08/misc_8h.html#a7bd6e35e893b731601e2239721f03ae9" target="_top" xlink:title="eigenTransf2TF">
<polygon fill="white" stroke="black" points="569.5,-114.5 569.5,-133.5 654.5,-133.5 654.5,-114.5 569.5,-114.5"/>
<text text-anchor="middle" x="612" y="-121.5" font-family="Helvetica,sans-Serif" font-size="10.00">eigenTransf2TF</text>
</a>
</g>
</g>
<!-- Node4&#45;&gt;Node5 -->
<g id="edge5" class="edge"><title>Node4&#45;&gt;Node5</title>
<path fill="none" stroke="midnightblue" d="M496.224,-120.337C517.286,-121.009 539.813,-121.728 559.282,-122.349"/>
<polygon fill="midnightblue" stroke="midnightblue" points="559.35,-125.853 569.457,-122.674 559.574,-118.857 559.35,-125.853"/>
</g>
<!-- Node4&#45;&gt;Node6 -->
<g id="edge6" class="edge"><title>Node4&#45;&gt;Node6</title>
<path fill="none" stroke="midnightblue" d="M440.709,-102.808C468.894,-78.7426 521.823,-34.0472 532,-29 536.897,-26.5714 542.122,-24.4428 547.463,-22.5788"/>
<polygon fill="midnightblue" stroke="midnightblue" points="548.683,-25.8635 557.156,-19.502 546.566,-19.1915 548.683,-25.8635"/>
</g>
<!-- Node7 -->
<g id="node7" class="node"><title>Node7</title>
<g id="a_node7"><a xlink:href="../../d7/d5f/misc_8cpp.html#a620c2e3dd4f6b457a8425876e8632981" target="_top" xlink:title="Print tf::Transform via ROS_INFO. ">
<polygon fill="white" stroke="black" points="572,-76.5 572,-95.5 652,-95.5 652,-76.5 572,-76.5"/>
<text text-anchor="middle" x="612" y="-83.5" font-family="Helvetica,sans-Serif" font-size="10.00">printTransform</text>
</a>
</g>
</g>
<!-- Node4&#45;&gt;Node7 -->
<g id="edge7" class="edge"><title>Node4&#45;&gt;Node7</title>
<path fill="none" stroke="midnightblue" d="M496.224,-105.536C518.173,-101.8 541.713,-97.7935 561.726,-94.3871"/>
<polygon fill="midnightblue" stroke="midnightblue" points="562.572,-97.7935 571.843,-92.665 561.397,-90.8927 562.572,-97.7935"/>
</g>
<!-- Node8 -->
<g id="node8" class="node"><title>Node8</title>
<g id="a_node8"><a xlink:href="../../df/dd0/classNode.html#aa714d9c36f25c4a40d69b6bd100c10fe" target="_top" xlink:title="Transform, e.g., from MoCap. ">
<polygon fill="white" stroke="black" points="533,-38.5 533,-57.5 691,-57.5 691,-38.5 533,-38.5"/>
<text text-anchor="middle" x="612" y="-45.5" font-family="Helvetica,sans-Serif" font-size="10.00">Node::getGroundTruthTransform</text>
</a>
</g>
</g>
<!-- Node4&#45;&gt;Node8 -->
<g id="edge8" class="edge"><title>Node4&#45;&gt;Node8</title>
<path fill="none" stroke="midnightblue" d="M451.03,-102.966C472.666,-91.8369 503.605,-76.943 532,-67 539.302,-64.4431 547.101,-62.1098 554.849,-60.0215"/>
<polygon fill="midnightblue" stroke="midnightblue" points="555.785,-63.3947 564.594,-57.5091 554.037,-56.6164 555.785,-63.3947"/>
</g>
<!-- Node9 -->
<g id="node9" class="node"><title>Node9</title>
<g id="a_node9"><a xlink:href="../../d3/d3e/classParameterServer.html#a3c8af50664e423b555bbb1874f488413" target="_top" xlink:title="ParameterServer::get">
<polygon fill="white" stroke="black" points="557,-152.5 557,-171.5 667,-171.5 667,-152.5 557,-152.5"/>
<text text-anchor="middle" x="612" y="-159.5" font-family="Helvetica,sans-Serif" font-size="10.00">ParameterServer::get</text>
</a>
</g>
</g>
<!-- Node4&#45;&gt;Node9 -->
<g id="edge10" class="edge"><title>Node4&#45;&gt;Node9</title>
<path fill="none" stroke="midnightblue" d="M487.173,-133.019C511.064,-138.611 537.823,-144.874 560.336,-150.143"/>
<polygon fill="midnightblue" stroke="midnightblue" points="559.822,-153.617 570.356,-152.488 561.417,-146.801 559.822,-153.617"/>
</g>
</g>
</svg>
        <g id="navigator" transform="translate(0 0)" fill="#404254">
                <rect fill="#f2f5e9" fill-opacity="0.5" stroke="#606060" stroke-width=".5" x="0" y="0" width="60" height="60"/>
                <use id="zoomplus" xlink:href="#zoomPlus" x="17" y="9" onmousedown="handleZoom(evt,'in')"/>
                <use id="zoomminus" xlink:href="#zoomMin" x="42" y="9" onmousedown="handleZoom(evt,'out')"/>
                <use id="reset" xlink:href="#resetDef" x="30" y="36" onmousedown="handleReset()"/>
                <g id="arrowUp" xlink:href="#dirArrow" transform="translate(30 24)" onmousedown="handlePan(0,-1)">
                  <use xlink:href="#rim" fill="#404040">
                        <set attributeName="fill" to="#808080" begin="arrowUp.mouseover" end="arrowUp.mouseout"/>
                  </use>
                  <path fill="none" stroke="white" stroke-width="1.5" d="M0,-3.0v7 M-2.5,-0.5L0,-3.0L2.5,-0.5"/>
                </g>
                <g id="arrowRight" xlink:href="#dirArrow" transform="rotate(90) translate(36 -43)" onmousedown="handlePan(1,0)">
                  <use xlink:href="#rim" fill="#404040">
                        <set attributeName="fill" to="#808080" begin="arrowRight.mouseover" end="arrowRight.mouseout"/>
                  </use>
                  <path fill="none" stroke="white" stroke-width="1.5" d="M0,-3.0v7 M-2.5,-0.5L0,-3.0L2.5,-0.5"/>
                </g>
                <g id="arrowDown" xlink:href="#dirArrow" transform="rotate(180) translate(-30 -48)" onmousedown="handlePan(0,1)">
                  <use xlink:href="#rim" fill="#404040">
                        <set attributeName="fill" to="#808080" begin="arrowDown.mouseover" end="arrowDown.mouseout"/>
                  </use>
                  <path fill="none" stroke="white" stroke-width="1.5" d="M0,-3.0v7 M-2.5,-0.5L0,-3.0L2.5,-0.5"/>
                </g>
                <g id="arrowLeft" xlink:href="#dirArrow" transform="rotate(270) translate(-36 17)" onmousedown="handlePan(-1,0)">
                  <use xlink:href="#rim" fill="#404040">
                        <set attributeName="fill" to="#808080" begin="arrowLeft.mouseover" end="arrowLeft.mouseout"/>
                  </use>
                  <path fill="none" stroke="white" stroke-width="1.5" d="M0,-3.0v7 M-2.5,-0.5L0,-3.0L2.5,-0.5"/>
                </g>
        </g>
        <svg viewBox="0 0 15 15" width="100%" height="30px" preserveAspectRatio="xMaxYMin meet">
         <g id="arrow_out" transform="scale(0.3 0.3)">
          <a xlink:href="classGraphManager_aed2ab5b2a911d4f5278e1749463b43b6_cgraph_org.svg" target="_base">
           <rect id="button" ry="5" rx="5" y="6" x="6" height="38" width="38"
                fill="#f2f5e9" fill-opacity="0.5" stroke="#606060" stroke-width="1.0"/>
           <path id="arrow"
             d="M 11.500037,31.436501 C 11.940474,20.09759 22.043105,11.32322 32.158766,21.979434 L 37.068811,17.246167 C 37.068811,17.246167 37.088388,32 37.088388,32 L 22.160133,31.978069 C 22.160133,31.978069 26.997745,27.140456 26.997745,27.140456 C 18.528582,18.264221 13.291696,25.230495 11.500037,31.436501 z"
             style="fill:#404040;"/>
          </a>
         </g>
        </svg>
</svg>
