<?xml version="1.0" encoding="UTF-8" standalone="no"?>
<!DOCTYPE svg PUBLIC "-//W3C//DTD SVG 1.1//EN"
 "http://www.w3.org/Graphics/SVG/1.1/DTD/svg11.dtd">
<!-- Generated by graphviz version 2.36.0 (20140111.2315)
 -->
<!-- Title: GraphManager::sendAllClouds Pages: 1 -->
<!--zoomable 218 -->
<svg id="main" version="1.1" xmlns="http://www.w3.org/2000/svg" xmlns:xlink="http://www.w3.org/1999/xlink" xml:space="preserve" onload="init(evt)">
<style type="text/css"><![CDATA[
.edge:hover path { stroke: red; }
.edge:hover polygon { stroke: red; fill: red; }
]]></style>
<script type="text/javascript"><![CDATA[
var edges = document.getElementsByTagName('g');
if (edges && edges.length) {
  for (var i=0;i<edges.length;i++) {
    if (edges[i].id.substr(0,4)=='edge') {
      edges[i].setAttribute('class','edge');
    }
  }
}
]]></script>
        <defs>
                <circle id="rim" cx="0" cy="0" r="7"/>
                <circle id="rim2" cx="0" cy="0" r="3.5"/>
                <g id="zoomPlus">
                        <use xlink:href="#rim" fill="#404040">
                                <set attributeName="fill" to="#808080" begin="zoomplus.mouseover" end="zoomplus.mouseout"/>
                        </use>
                        <path d="M-4,0h8M0,-4v8" fill="none" stroke="white" stroke-width="1.5" pointer-events="none"/>
                </g>
                <g id="zoomMin">
                        <use xlink:href="#rim" fill="#404040">
                                <set attributeName="fill" to="#808080" begin="zoomminus.mouseover" end="zoomminus.mouseout"/>
                        </use>
                        <path d="M-4,0h8" fill="none" stroke="white" stroke-width="1.5" pointer-events="none"/>
                </g>
                <g id="dirArrow">
                        <path fill="none" stroke="white" stroke-width="1.5" d="M0,-3.0v7 M-2.5,-0.5L0,-3.0L2.5,-0.5"/>
                </g>
               <g id="resetDef">
                       <use xlink:href="#rim2" fill="#404040">
                               <set attributeName="fill" to="#808080" begin="reset.mouseover" end="reset.mouseout"/>
                       </use>
               </g>
        </defs>

<script type="text/javascript">
var viewWidth = 742;
var viewHeight = 218;
var sectionId = 'dynsection-40';
</script>
<script xlink:href="../../svgpan.js"/>
<svg id="graph" class="graph">
<g id="viewport">
<title>GraphManager::sendAllClouds</title>
<polygon fill="white" stroke="none" points="-4,4 -4,-214 738,-214 738,4 -4,4"/>
<!-- Node1 -->
<g id="node1" class="node"><title>Node1</title>
<polygon fill="#bfbfbf" stroke="black" points="0.5,-149.5 0.5,-168.5 149.5,-168.5 149.5,-149.5 0.5,-149.5"/>
<text text-anchor="middle" x="75" y="-156.5" font-family="Helvetica,sans-Serif" font-size="10.00">GraphManager::sendAllClouds</text>
</g>
<!-- Node2 -->
<g id="node2" class="node"><title>Node2</title>
<g id="a_node2"><a xlink:href="../../d3/d3e/classParameterServer.html#a5457f900e543c5a466bf9b65ee6bc577" target="_top" xlink:title="ParameterServer::instance">
<polygon fill="white" stroke="black" points="587.5,-190.5 587.5,-209.5 720.5,-209.5 720.5,-190.5 587.5,-190.5"/>
<text text-anchor="middle" x="654" y="-197.5" font-family="Helvetica,sans-Serif" font-size="10.00">ParameterServer::instance</text>
</a>
</g>
</g>
<!-- Node1&#45;&gt;Node2 -->
<g id="edge1" class="edge"><title>Node1&#45;&gt;Node2</title>
<path fill="none" stroke="midnightblue" d="M149.664,-164.234C259.702,-172.053 465.939,-186.708 577.205,-194.614"/>
<polygon fill="midnightblue" stroke="midnightblue" points="577.119,-198.117 587.342,-195.335 577.616,-191.134 577.119,-198.117"/>
</g>
<!-- Node3 -->
<g id="node3" class="node"><title>Node3</title>
<g id="a_node3"><a xlink:href="../../d0/d8b/classGraphManager.html#a55c91d5dba44245d656e29700a3942ba" target="_top" xlink:title="GraphManager::sendAllCloudsImpl">
<polygon fill="white" stroke="black" points="186,-108.5 186,-127.5 354,-127.5 354,-108.5 186,-108.5"/>
<text text-anchor="middle" x="270" y="-115.5" font-family="Helvetica,sans-Serif" font-size="10.00">GraphManager::sendAllCloudsImpl</text>
</a>
</g>
</g>
<!-- Node1&#45;&gt;Node3 -->
<g id="edge2" class="edge"><title>Node1&#45;&gt;Node3</title>
<path fill="none" stroke="midnightblue" d="M120.763,-149.491C148.555,-143.587 184.474,-135.956 213.995,-129.685"/>
<polygon fill="midnightblue" stroke="midnightblue" points="215.091,-133.03 224.146,-127.529 213.637,-126.183 215.091,-133.03"/>
</g>
<!-- Node3&#45;&gt;Node2 -->
<g id="edge3" class="edge"><title>Node3&#45;&gt;Node2</title>
<path fill="none" stroke="midnightblue" d="M315.568,-127.567C386.012,-142.689 522.872,-172.067 598.86,-188.378"/>
<polygon fill="midnightblue" stroke="midnightblue" points="598.204,-191.817 608.716,-190.494 599.673,-184.973 598.204,-191.817"/>
</g>
<!-- Node4 -->
<g id="node4" class="node"><title>Node4</title>
<g id="a_node4"><a xlink:href="../../d3/d3e/classParameterServer.html#a3c8af50664e423b555bbb1874f488413" target="_top" xlink:title="ParameterServer::get">
<polygon fill="white" stroke="black" points="599,-0.5 599,-19.5 709,-19.5 709,-0.5 599,-0.5"/>
<text text-anchor="middle" x="654" y="-7.5" font-family="Helvetica,sans-Serif" font-size="10.00">ParameterServer::get</text>
</a>
</g>
</g>
<!-- Node3&#45;&gt;Node4 -->
<g id="edge4" class="edge"><title>Node3&#45;&gt;Node4</title>
<path fill="none" stroke="midnightblue" d="M285.344,-108.458C307.044,-94.4842 349.947,-68.6378 390,-55 455.708,-32.627 534.599,-21.0277 588.73,-15.255"/>
<polygon fill="midnightblue" stroke="midnightblue" points="589.288,-18.7161 598.877,-14.2102 588.571,-11.7529 589.288,-18.7161"/>
</g>
<!-- Node5 -->
<g id="node5" class="node"><title>Node5</title>
<g id="a_node5"><a xlink:href="../../d0/d8b/classGraphManager.html#a0ca3bc82d7532c35ad52294ab9f2d0e4" target="_top" xlink:title="Compute the tranformation between (sensor) Base and Fixed (Map) frame. ">
<polygon fill="white" stroke="black" points="390,-103 390,-133 538,-133 538,-103 390,-103"/>
<text text-anchor="start" x="398" y="-121" font-family="Helvetica,sans-Serif" font-size="10.00">GraphManager::computeFixed</text>
<text text-anchor="middle" x="464" y="-110" font-family="Helvetica,sans-Serif" font-size="10.00">ToBaseTransform</text>
</a>
</g>
</g>
<!-- Node3&#45;&gt;Node5 -->
<g id="edge5" class="edge"><title>Node3&#45;&gt;Node5</title>
<path fill="none" stroke="midnightblue" d="M354.097,-118C362.527,-118 371.093,-118 379.527,-118"/>
<polygon fill="midnightblue" stroke="midnightblue" points="379.732,-121.5 389.731,-118 379.731,-114.5 379.732,-121.5"/>
</g>
<!-- Node10 -->
<g id="node10" class="node"><title>Node10</title>
<g id="a_node10"><a xlink:href="../../de/d83/graph__manager_8h.html#a2e10953ff4a21d6e02d9574a3b2740b8" target="_top" xlink:title="Send node&#39;s pointcloud with given publisher and timestamp. ">
<polygon fill="white" stroke="black" points="427.5,-64.5 427.5,-83.5 500.5,-83.5 500.5,-64.5 427.5,-64.5"/>
<text text-anchor="middle" x="464" y="-71.5" font-family="Helvetica,sans-Serif" font-size="10.00">publishCloud</text>
</a>
</g>
</g>
<!-- Node3&#45;&gt;Node10 -->
<g id="edge12" class="edge"><title>Node3&#45;&gt;Node10</title>
<path fill="none" stroke="midnightblue" d="M312.661,-108.453C343.512,-101.383 385.527,-91.7541 417.299,-84.4731"/>
<polygon fill="midnightblue" stroke="midnightblue" points="418.262,-87.8433 427.227,-82.1979 416.698,-81.0202 418.262,-87.8433"/>
</g>
<!-- Node5&#45;&gt;Node2 -->
<g id="edge10" class="edge"><title>Node5&#45;&gt;Node2</title>
<path fill="none" stroke="midnightblue" d="M508.715,-133.03C518.678,-137.246 528.979,-142.269 538,-148 556.321,-159.638 554.839,-170.804 574,-181 578.289,-183.282 582.853,-185.294 587.541,-187.067"/>
<polygon fill="midnightblue" stroke="midnightblue" points="586.696,-190.476 597.29,-190.381 588.949,-183.848 586.696,-190.476"/>
</g>
<!-- Node5&#45;&gt;Node4 -->
<g id="edge11" class="edge"><title>Node5&#45;&gt;Node4</title>
<path fill="none" stroke="midnightblue" d="M522.584,-102.906C528.107,-100.13 533.367,-96.8566 538,-93 563.083,-72.1212 547.964,-48.6782 574,-29 578.686,-25.4582 583.938,-22.5659 589.447,-20.2055"/>
<polygon fill="midnightblue" stroke="midnightblue" points="590.738,-23.4599 598.908,-16.7146 588.315,-16.8927 590.738,-23.4599"/>
</g>
<!-- Node6 -->
<g id="node6" class="node"><title>Node6</title>
<g id="a_node6"><a xlink:href="../../d4/d08/misc_8h.html#a7bd6e35e893b731601e2239721f03ae9" target="_top" xlink:title="eigenTransf2TF">
<polygon fill="white" stroke="black" points="611.5,-38.5 611.5,-57.5 696.5,-57.5 696.5,-38.5 611.5,-38.5"/>
<text text-anchor="middle" x="654" y="-45.5" font-family="Helvetica,sans-Serif" font-size="10.00">eigenTransf2TF</text>
</a>
</g>
</g>
<!-- Node5&#45;&gt;Node6 -->
<g id="edge6" class="edge"><title>Node5&#45;&gt;Node6</title>
<path fill="none" stroke="midnightblue" d="M515.297,-102.975C523.06,-100.032 530.862,-96.6954 538,-93 555.527,-83.9261 556.066,-75.2411 574,-67 582.657,-63.0218 592.245,-59.8202 601.67,-57.2624"/>
<polygon fill="midnightblue" stroke="midnightblue" points="602.539,-60.6528 611.387,-54.8243 600.836,-53.8633 602.539,-60.6528"/>
</g>
<!-- Node7 -->
<g id="node7" class="node"><title>Node7</title>
<g id="a_node7"><a xlink:href="../../df/dd0/classNode.html#adaf50ff94906ea43c16b79fe0e3547ab" target="_top" xlink:title="Transform, e.g., from kinematics. ">
<polygon fill="white" stroke="black" points="574.5,-152.5 574.5,-171.5 733.5,-171.5 733.5,-152.5 574.5,-152.5"/>
<text text-anchor="middle" x="654" y="-159.5" font-family="Helvetica,sans-Serif" font-size="10.00">Node::getBase2PointsTransform</text>
</a>
</g>
</g>
<!-- Node5&#45;&gt;Node7 -->
<g id="edge7" class="edge"><title>Node5&#45;&gt;Node7</title>
<path fill="none" stroke="midnightblue" d="M529.173,-133.019C553.064,-138.611 579.823,-144.874 602.336,-150.143"/>
<polygon fill="midnightblue" stroke="midnightblue" points="601.822,-153.617 612.356,-152.488 603.417,-146.801 601.822,-153.617"/>
</g>
<!-- Node8 -->
<g id="node8" class="node"><title>Node8</title>
<g id="a_node8"><a xlink:href="../../d7/d5f/misc_8cpp.html#a620c2e3dd4f6b457a8425876e8632981" target="_top" xlink:title="Print tf::Transform via ROS_INFO. ">
<polygon fill="white" stroke="black" points="614,-114.5 614,-133.5 694,-133.5 694,-114.5 614,-114.5"/>
<text text-anchor="middle" x="654" y="-121.5" font-family="Helvetica,sans-Serif" font-size="10.00">printTransform</text>
</a>
</g>
</g>
<!-- Node5&#45;&gt;Node8 -->
<g id="edge8" class="edge"><title>Node5&#45;&gt;Node8</title>
<path fill="none" stroke="midnightblue" d="M538.224,-120.337C560.173,-121.037 583.713,-121.789 603.726,-122.427"/>
<polygon fill="midnightblue" stroke="midnightblue" points="603.736,-125.929 613.843,-122.75 603.96,-118.933 603.736,-125.929"/>
</g>
<!-- Node9 -->
<g id="node9" class="node"><title>Node9</title>
<g id="a_node9"><a xlink:href="../../df/dd0/classNode.html#aa714d9c36f25c4a40d69b6bd100c10fe" target="_top" xlink:title="Transform, e.g., from MoCap. ">
<polygon fill="white" stroke="black" points="575,-76.5 575,-95.5 733,-95.5 733,-76.5 575,-76.5"/>
<text text-anchor="middle" x="654" y="-83.5" font-family="Helvetica,sans-Serif" font-size="10.00">Node::getGroundTruthTransform</text>
</a>
</g>
</g>
<!-- Node5&#45;&gt;Node9 -->
<g id="edge9" class="edge"><title>Node5&#45;&gt;Node9</title>
<path fill="none" stroke="midnightblue" d="M538.224,-105.536C554.293,-102.801 571.215,-99.9209 586.981,-97.2372"/>
<polygon fill="midnightblue" stroke="midnightblue" points="587.884,-100.634 597.154,-95.5056 586.709,-93.7333 587.884,-100.634"/>
</g>
</g>
</svg>
        <g id="navigator" transform="translate(0 0)" fill="#404254">
                <rect fill="#f2f5e9" fill-opacity="0.5" stroke="#606060" stroke-width=".5" x="0" y="0" width="60" height="60"/>
                <use id="zoomplus" xlink:href="#zoomPlus" x="17" y="9" onmousedown="handleZoom(evt,'in')"/>
                <use id="zoomminus" xlink:href="#zoomMin" x="42" y="9" onmousedown="handleZoom(evt,'out')"/>
                <use id="reset" xlink:href="#resetDef" x="30" y="36" onmousedown="handleReset()"/>
                <g id="arrowUp" xlink:href="#dirArrow" transform="translate(30 24)" onmousedown="handlePan(0,-1)">
                  <use xlink:href="#rim" fill="#404040">
                        <set attributeName="fill" to="#808080" begin="arrowUp.mouseover" end="arrowUp.mouseout"/>
                  </use>
                  <path fill="none" stroke="white" stroke-width="1.5" d="M0,-3.0v7 M-2.5,-0.5L0,-3.0L2.5,-0.5"/>
                </g>
                <g id="arrowRight" xlink:href="#dirArrow" transform="rotate(90) translate(36 -43)" onmousedown="handlePan(1,0)">
                  <use xlink:href="#rim" fill="#404040">
                        <set attributeName="fill" to="#808080" begin="arrowRight.mouseover" end="arrowRight.mouseout"/>
                  </use>
                  <path fill="none" stroke="white" stroke-width="1.5" d="M0,-3.0v7 M-2.5,-0.5L0,-3.0L2.5,-0.5"/>
                </g>
                <g id="arrowDown" xlink:href="#dirArrow" transform="rotate(180) translate(-30 -48)" onmousedown="handlePan(0,1)">
                  <use xlink:href="#rim" fill="#404040">
                        <set attributeName="fill" to="#808080" begin="arrowDown.mouseover" end="arrowDown.mouseout"/>
                  </use>
                  <path fill="none" stroke="white" stroke-width="1.5" d="M0,-3.0v7 M-2.5,-0.5L0,-3.0L2.5,-0.5"/>
                </g>
                <g id="arrowLeft" xlink:href="#dirArrow" transform="rotate(270) translate(-36 17)" onmousedown="handlePan(-1,0)">
                  <use xlink:href="#rim" fill="#404040">
                        <set attributeName="fill" to="#808080" begin="arrowLeft.mouseover" end="arrowLeft.mouseout"/>
                  </use>
                  <path fill="none" stroke="white" stroke-width="1.5" d="M0,-3.0v7 M-2.5,-0.5L0,-3.0L2.5,-0.5"/>
                </g>
        </g>
        <svg viewBox="0 0 15 15" width="100%" height="30px" preserveAspectRatio="xMaxYMin meet">
         <g id="arrow_out" transform="scale(0.3 0.3)">
          <a xlink:href="classGraphManager_a92c9a0e282d9c65cb8579d966b4f76e1_cgraph_org.svg" target="_base">
           <rect id="button" ry="5" rx="5" y="6" x="6" height="38" width="38"
                fill="#f2f5e9" fill-opacity="0.5" stroke="#606060" stroke-width="1.0"/>
           <path id="arrow"
             d="M 11.500037,31.436501 C 11.940474,20.09759 22.043105,11.32322 32.158766,21.979434 L 37.068811,17.246167 C 37.068811,17.246167 37.088388,32 37.088388,32 L 22.160133,31.978069 C 22.160133,31.978069 26.997745,27.140456 26.997745,27.140456 C 18.528582,18.264221 13.291696,25.230495 11.500037,31.436501 z"
             style="fill:#404040;"/>
          </a>
         </g>
        </svg>
</svg>
