<?xml version="1.0" encoding="UTF-8" standalone="no"?>
<!DOCTYPE svg PUBLIC "-//W3C//DTD SVG 1.1//EN"
 "http://www.w3.org/Graphics/SVG/1.1/DTD/svg11.dtd">
<!-- Generated by graphviz version 2.36.0 (20140111.2315)
 -->
<!-- Title: lsd_slam_core::LSDParamsConfig::AbstractParamDescription Pages: 1 -->
<svg width="174pt" height="260pt"
 viewBox="0.00 0.00 174.00 260.00" xmlns="http://www.w3.org/2000/svg" xmlns:xlink="http://www.w3.org/1999/xlink">
<g id="graph0" class="graph" transform="scale(1 1) rotate(0) translate(4 256)">
<title>lsd_slam_core::LSDParamsConfig::AbstractParamDescription</title>
<polygon fill="white" stroke="none" points="-4,4 -4,-256 170,-256 170,4 -4,4"/>
<!-- Node1 -->
<g id="node1" class="node"><title>Node1</title>
<polygon fill="#bfbfbf" stroke="black" points="0,-0.5 0,-145.5 166,-145.5 166,-0.5 0,-0.5"/>
<text text-anchor="start" x="8" y="-133.5" font-family="Helvetica,sans-Serif" font-size="10.00">lsd_slam_core::LSDParams</text>
<text text-anchor="middle" x="83" y="-122.5" font-family="Helvetica,sans-Serif" font-size="10.00">Config::AbstractParamDescription</text>
<polyline fill="none" stroke="black" points="0,-115.5 166,-115.5 "/>
<text text-anchor="middle" x="83" y="-103.5" font-family="Helvetica,sans-Serif" font-size="10.00"> </text>
<polyline fill="none" stroke="black" points="0,-96.5 166,-96.5 "/>
<text text-anchor="start" x="8" y="-84.5" font-family="Helvetica,sans-Serif" font-size="10.00">+ AbstractParamDescription()</text>
<text text-anchor="start" x="8" y="-73.5" font-family="Helvetica,sans-Serif" font-size="10.00">+ clamp()</text>
<text text-anchor="start" x="8" y="-62.5" font-family="Helvetica,sans-Serif" font-size="10.00">+ calcLevel()</text>
<text text-anchor="start" x="8" y="-51.5" font-family="Helvetica,sans-Serif" font-size="10.00">+ fromServer()</text>
<text text-anchor="start" x="8" y="-40.5" font-family="Helvetica,sans-Serif" font-size="10.00">+ toServer()</text>
<text text-anchor="start" x="8" y="-29.5" font-family="Helvetica,sans-Serif" font-size="10.00">+ fromMessage()</text>
<text text-anchor="start" x="8" y="-18.5" font-family="Helvetica,sans-Serif" font-size="10.00">+ toMessage()</text>
<text text-anchor="start" x="8" y="-7.5" font-family="Helvetica,sans-Serif" font-size="10.00">+ getValue()</text>
</g>
<!-- Node2 -->
<g id="node2" class="node"><title>Node2</title>
<polygon fill="white" stroke="#bfbfbf" points="29.5,-183 29.5,-251 136.5,-251 136.5,-183 29.5,-183"/>
<text text-anchor="start" x="37.5" y="-239" font-family="Helvetica,sans-Serif" font-size="10.00">dynamic_reconfigure</text>
<text text-anchor="middle" x="83" y="-228" font-family="Helvetica,sans-Serif" font-size="10.00">::ParamDescription</text>
<polyline fill="none" stroke="#bfbfbf" points="29.5,-221 136.5,-221 "/>
<text text-anchor="middle" x="83" y="-209" font-family="Helvetica,sans-Serif" font-size="10.00"> </text>
<polyline fill="none" stroke="#bfbfbf" points="29.5,-202 136.5,-202 "/>
<text text-anchor="middle" x="83" y="-190" font-family="Helvetica,sans-Serif" font-size="10.00"> </text>
</g>
<!-- Node2&#45;&gt;Node1 -->
<g id="edge1" class="edge"><title>Node2&#45;&gt;Node1</title>
<path fill="none" stroke="midnightblue" d="M83,-172.643C83,-164.101 83,-154.926 83,-145.735"/>
<polygon fill="none" stroke="midnightblue" points="79.5001,-172.707 83,-182.707 86.5001,-172.707 79.5001,-172.707"/>
</g>
</g>
</svg>
