<?xml version="1.0" encoding="UTF-8" standalone="no"?>
<!DOCTYPE svg PUBLIC "-//W3C//DTD SVG 1.1//EN"
 "http://www.w3.org/Graphics/SVG/1.1/DTD/svg11.dtd">
<!-- Generated by graphviz version 2.36.0 (20140111.2315)
 -->
<!-- Title: of2::FabMap2::getNewPlaceLikelihood Pages: 1 -->
<svg width="480pt" height="66pt"
 viewBox="0.00 0.00 480.00 66.00" xmlns="http://www.w3.org/2000/svg" xmlns:xlink="http://www.w3.org/1999/xlink">
<g id="graph0" class="graph" transform="scale(1 1) rotate(0) translate(4 62)">
<title>of2::FabMap2::getNewPlaceLikelihood</title>
<polygon fill="white" stroke="none" points="-4,4 -4,-62 476,-62 476,4 -4,4"/>
<!-- Node1 -->
<g id="node1" class="node"><title>Node1</title>
<polygon fill="#bfbfbf" stroke="black" points="0.5,-14 0.5,-44 141.5,-44 141.5,-14 0.5,-14"/>
<text text-anchor="start" x="8.5" y="-32" font-family="Helvetica,sans-Serif" font-size="10.00">of2::FabMap2::getNewPlace</text>
<text text-anchor="middle" x="71" y="-21" font-family="Helvetica,sans-Serif" font-size="10.00">Likelihood</text>
</g>
<!-- Node2 -->
<g id="node2" class="node"><title>Node2</title>
<g id="a_node2"><a xlink:href="../../dc/d0e/classof2_1_1FabMap2.html#acf1d374dc49aef49238fc29dd7ead4ab" target="_top" xlink:title="of2::FabMap2::getIndexLikelihoods">
<polygon fill="white" stroke="black" points="178.5,-38.5 178.5,-57.5 347.5,-57.5 347.5,-38.5 178.5,-38.5"/>
<text text-anchor="middle" x="263" y="-45.5" font-family="Helvetica,sans-Serif" font-size="10.00">of2::FabMap2::getIndexLikelihoods</text>
</a>
</g>
</g>
<!-- Node1&#45;&gt;Node2 -->
<g id="edge1" class="edge"><title>Node1&#45;&gt;Node2</title>
<path fill="none" stroke="midnightblue" d="M141.67,-35.967C150.365,-36.8365 159.366,-37.7366 168.351,-38.6351"/>
<polygon fill="midnightblue" stroke="midnightblue" points="168.172,-42.1346 178.471,-39.6471 168.869,-35.1693 168.172,-42.1346"/>
</g>
<!-- Node4 -->
<g id="node4" class="node"><title>Node4</title>
<g id="a_node4"><a xlink:href="../../d5/dc1/thirdparty_2openFabMap_2src_2FabMap_8cpp.html#ab1ee3cc2f92080193f7332ac10a30f0a" target="_top" xlink:title="logsumexp">
<polygon fill="white" stroke="black" points="231,-0.5 231,-19.5 295,-19.5 295,-0.5 231,-0.5"/>
<text text-anchor="middle" x="263" y="-7.5" font-family="Helvetica,sans-Serif" font-size="10.00">logsumexp</text>
</a>
</g>
</g>
<!-- Node1&#45;&gt;Node4 -->
<g id="edge3" class="edge"><title>Node1&#45;&gt;Node4</title>
<path fill="none" stroke="midnightblue" d="M141.67,-22.033C168.121,-19.3879 197.398,-16.4602 220.451,-14.1549"/>
<polygon fill="midnightblue" stroke="midnightblue" points="220.97,-17.6205 230.572,-13.1428 220.273,-10.6553 220.97,-17.6205"/>
</g>
<!-- Node3 -->
<g id="node3" class="node"><title>Node3</title>
<g id="a_node3"><a xlink:href="../../d5/d90/classof2_1_1FabMap.html#a764248a90dbf7a4c7d74e4faa4031a61" target="_top" xlink:title="of2::FabMap::pq">
<polygon fill="white" stroke="black" points="384,-38.5 384,-57.5 472,-57.5 472,-38.5 384,-38.5"/>
<text text-anchor="middle" x="428" y="-45.5" font-family="Helvetica,sans-Serif" font-size="10.00">of2::FabMap::pq</text>
</a>
</g>
</g>
<!-- Node2&#45;&gt;Node3 -->
<g id="edge2" class="edge"><title>Node2&#45;&gt;Node3</title>
<path fill="none" stroke="midnightblue" d="M347.887,-48C356.663,-48 365.402,-48 373.696,-48"/>
<polygon fill="midnightblue" stroke="midnightblue" points="373.934,-51.5001 383.934,-48 373.934,-44.5001 373.934,-51.5001"/>
</g>
</g>
</svg>
