<?xml version="1.0" encoding="UTF-8" standalone="no"?>
<!DOCTYPE svg PUBLIC "-//W3C//DTD SVG 1.1//EN"
 "http://www.w3.org/Graphics/SVG/1.1/DTD/svg11.dtd">
<!-- Generated by graphviz version 2.36.0 (20140111.2315)
 -->
<!-- Title: FilterProgram Pages: 1 -->
<svg width="122pt" height="216pt"
 viewBox="0.00 0.00 122.00 216.00" xmlns="http://www.w3.org/2000/svg" xmlns:xlink="http://www.w3.org/1999/xlink">
<g id="graph0" class="graph" transform="scale(1 1) rotate(0) translate(4 212)">
<title>FilterProgram</title>
<polygon fill="white" stroke="none" points="-4,4 -4,-212 118,-212 118,4 -4,4"/>
<!-- Node1 -->
<g id="node1" class="node"><title>Node1</title>
<polygon fill="#bfbfbf" stroke="black" points="9,-106.5 9,-207.5 105,-207.5 105,-106.5 9,-106.5"/>
<text text-anchor="middle" x="57" y="-195.5" font-family="Helvetica,sans-Serif" font-size="10.00">FilterProgram</text>
<polyline fill="none" stroke="black" points="9,-188.5 105,-188.5 "/>
<text text-anchor="start" x="17" y="-176.5" font-family="Helvetica,sans-Serif" font-size="10.00">+ s_shader_h</text>
<text text-anchor="start" x="17" y="-165.5" font-family="Helvetica,sans-Serif" font-size="10.00">+ s_shader_v</text>
<text text-anchor="start" x="17" y="-154.5" font-family="Helvetica,sans-Serif" font-size="10.00">+ _size</text>
<text text-anchor="start" x="17" y="-143.5" font-family="Helvetica,sans-Serif" font-size="10.00">+ _id</text>
<polyline fill="none" stroke="black" points="9,-136.5 105,-136.5 "/>
<text text-anchor="start" x="17" y="-124.5" font-family="Helvetica,sans-Serif" font-size="10.00">+ FilterProgram()</text>
<text text-anchor="start" x="17" y="-113.5" font-family="Helvetica,sans-Serif" font-size="10.00">+ ~FilterProgram()</text>
</g>
<!-- Node2 -->
<g id="node2" class="node"><title>Node2</title>
<g id="a_node2"><a xlink:href="../../d5/d24/classFilterGLSL.html" target="_top" xlink:title="{FilterGLSL\n||+ MakeFilterProgram()\l+ FilterGLSL()\l}">
<polygon fill="white" stroke="black" points="0,-1 0,-69 114,-69 114,-1 0,-1"/>
<text text-anchor="middle" x="57" y="-57" font-family="Helvetica,sans-Serif" font-size="10.00">FilterGLSL</text>
<polyline fill="none" stroke="black" points="0,-50 114,-50 "/>
<text text-anchor="middle" x="57" y="-38" font-family="Helvetica,sans-Serif" font-size="10.00"> </text>
<polyline fill="none" stroke="black" points="0,-31 114,-31 "/>
<text text-anchor="start" x="8" y="-19" font-family="Helvetica,sans-Serif" font-size="10.00">+ MakeFilterProgram()</text>
<text text-anchor="start" x="8" y="-8" font-family="Helvetica,sans-Serif" font-size="10.00">+ FilterGLSL()</text>
</a>
</g>
</g>
<!-- Node1&#45;&gt;Node2 -->
<g id="edge1" class="edge"><title>Node1&#45;&gt;Node2</title>
<path fill="none" stroke="midnightblue" d="M57,-96.4271C57,-87.1013 57,-77.7617 57,-69.3096"/>
<polygon fill="none" stroke="midnightblue" points="53.5001,-96.4986 57,-106.499 60.5001,-96.4986 53.5001,-96.4986"/>
</g>
</g>
</svg>
