<?xml version="1.0" encoding="UTF-8" standalone="no"?>
<!DOCTYPE svg PUBLIC "-//W3C//DTD SVG 1.1//EN"
 "http://www.w3.org/Graphics/SVG/1.1/DTD/svg11.dtd">
<!-- Generated by graphviz version 2.36.0 (20140111.2315)
 -->
<!-- Title: lsd_slam::ROSOutput3DWrapper::publishKeyframe Pages: 1 -->
<svg width="538pt" height="574pt"
 viewBox="0.00 0.00 538.00 574.00" xmlns="http://www.w3.org/2000/svg" xmlns:xlink="http://www.w3.org/1999/xlink">
<g id="graph0" class="graph" transform="scale(1 1) rotate(0) translate(4 570)">
<title>lsd_slam::ROSOutput3DWrapper::publishKeyframe</title>
<polygon fill="white" stroke="none" points="-4,4 -4,-570 534,-570 534,4 -4,4"/>
<!-- Node1 -->
<g id="node1" class="node"><title>Node1</title>
<polygon fill="#bfbfbf" stroke="black" points="0,-245 0,-275 162,-275 162,-245 0,-245"/>
<text text-anchor="start" x="8" y="-263" font-family="Helvetica,sans-Serif" font-size="10.00">lsd_slam::ROSOutput3DWrapper</text>
<text text-anchor="middle" x="81" y="-252" font-family="Helvetica,sans-Serif" font-size="10.00">::publishKeyframe</text>
</g>
<!-- Node2 -->
<g id="node2" class="node"><title>Node2</title>
<g id="a_node2"><a xlink:href="../../dd/d08/classlsd__slam_1_1Frame.html#af73ccb75e1e449d9a8f2044246ee3530" target="_top" xlink:title="lsd_slam::Frame::getActiveLock">
<polygon fill="white" stroke="black" points="198,-517.5 198,-536.5 356,-536.5 356,-517.5 198,-517.5"/>
<text text-anchor="middle" x="277" y="-524.5" font-family="Helvetica,sans-Serif" font-size="10.00">lsd_slam::Frame::getActiveLock</text>
</a>
</g>
</g>
<!-- Node1&#45;&gt;Node2 -->
<g id="edge1" class="edge"><title>Node1&#45;&gt;Node2</title>
<path fill="none" stroke="midnightblue" d="M84.4093,-275.019C92.1872,-318.391 120.769,-444.762 198,-508 200.076,-509.7 202.281,-511.251 204.583,-512.667"/>
<polygon fill="midnightblue" stroke="midnightblue" points="203.393,-515.993 213.882,-517.484 206.613,-509.777 203.393,-515.993"/>
</g>
<!-- Node5 -->
<g id="node5" class="node"><title>Node5</title>
<g id="a_node5"><a xlink:href="../../dd/d08/classlsd__slam_1_1Frame.html#a6d38d40cd9a68d253bcb3cab2ddfa068" target="_top" xlink:title="lsd_slam::Frame::id">
<polygon fill="white" stroke="black" points="225.5,-479.5 225.5,-498.5 328.5,-498.5 328.5,-479.5 225.5,-479.5"/>
<text text-anchor="middle" x="277" y="-486.5" font-family="Helvetica,sans-Serif" font-size="10.00">lsd_slam::Frame::id</text>
</a>
</g>
</g>
<!-- Node1&#45;&gt;Node5 -->
<g id="edge4" class="edge"><title>Node1&#45;&gt;Node5</title>
<path fill="none" stroke="midnightblue" d="M85.8218,-275.224C96.4206,-314.175 129.993,-418.028 198,-470 203.357,-474.094 209.475,-477.319 215.874,-479.858"/>
<polygon fill="midnightblue" stroke="midnightblue" points="214.802,-483.19 225.396,-483.107 217.063,-476.565 214.802,-483.19"/>
</g>
<!-- Node6 -->
<g id="node6" class="node"><title>Node6</title>
<g id="a_node6"><a xlink:href="../../dd/d08/classlsd__slam_1_1Frame.html#a7124f3e1da6e9db387a3f89706225b47" target="_top" xlink:title="lsd_slam::Frame::timestamp">
<polygon fill="white" stroke="black" points="206.5,-441.5 206.5,-460.5 347.5,-460.5 347.5,-441.5 206.5,-441.5"/>
<text text-anchor="middle" x="277" y="-448.5" font-family="Helvetica,sans-Serif" font-size="10.00">lsd_slam::Frame::timestamp</text>
</a>
</g>
</g>
<!-- Node1&#45;&gt;Node6 -->
<g id="edge5" class="edge"><title>Node1&#45;&gt;Node6</title>
<path fill="none" stroke="midnightblue" d="M87.7372,-275.182C101.335,-309.012 138.882,-390.84 198,-432 200.89,-434.012 203.969,-435.812 207.172,-437.422"/>
<polygon fill="midnightblue" stroke="midnightblue" points="205.907,-440.689 216.473,-441.476 208.704,-434.272 205.907,-440.689"/>
</g>
<!-- Node7 -->
<g id="node7" class="node"><title>Node7</title>
<g id="a_node7"><a xlink:href="../../dd/d08/classlsd__slam_1_1Frame.html#a3f14a1c43b6cb21d31274f880b0bf36b" target="_top" xlink:title="lsd_slam::Frame::width">
<polygon fill="white" stroke="black" points="217.5,-403.5 217.5,-422.5 336.5,-422.5 336.5,-403.5 217.5,-403.5"/>
<text text-anchor="middle" x="277" y="-410.5" font-family="Helvetica,sans-Serif" font-size="10.00">lsd_slam::Frame::width</text>
</a>
</g>
</g>
<!-- Node1&#45;&gt;Node7 -->
<g id="edge6" class="edge"><title>Node1&#45;&gt;Node7</title>
<path fill="none" stroke="midnightblue" d="M90.6705,-275.166C107.538,-303.233 147.576,-363.216 198,-394 201.448,-396.105 205.115,-397.977 208.907,-399.641"/>
<polygon fill="midnightblue" stroke="midnightblue" points="207.95,-403.024 218.539,-403.367 210.475,-396.495 207.95,-403.024"/>
</g>
<!-- Node8 -->
<g id="node8" class="node"><title>Node8</title>
<g id="a_node8"><a xlink:href="../../dd/d08/classlsd__slam_1_1Frame.html#a014d19bf6ffba0f0c0b8b684f9afb0b0" target="_top" xlink:title="lsd_slam::Frame::height">
<polygon fill="white" stroke="black" points="216,-365.5 216,-384.5 338,-384.5 338,-365.5 216,-365.5"/>
<text text-anchor="middle" x="277" y="-372.5" font-family="Helvetica,sans-Serif" font-size="10.00">lsd_slam::Frame::height</text>
</a>
</g>
</g>
<!-- Node1&#45;&gt;Node8 -->
<g id="edge7" class="edge"><title>Node1&#45;&gt;Node8</title>
<path fill="none" stroke="midnightblue" d="M96.2309,-275.255C116.727,-296.319 156.66,-334.074 198,-355 203.566,-357.818 209.562,-360.26 215.668,-362.374"/>
<polygon fill="midnightblue" stroke="midnightblue" points="214.719,-365.745 225.309,-365.43 216.834,-359.072 214.719,-365.745"/>
</g>
<!-- Node9 -->
<g id="node9" class="node"><title>Node9</title>
<g id="a_node9"><a xlink:href="../../dd/d08/classlsd__slam_1_1Frame.html#a0f4a92d51569c280e4b37acbf562ea47" target="_top" xlink:title="lsd_slam::Frame::getScaled\lCamToWorld">
<polygon fill="white" stroke="black" points="207.5,-316 207.5,-346 346.5,-346 346.5,-316 207.5,-316"/>
<text text-anchor="start" x="215.5" y="-334" font-family="Helvetica,sans-Serif" font-size="10.00">lsd_slam::Frame::getScaled</text>
<text text-anchor="middle" x="277" y="-323" font-family="Helvetica,sans-Serif" font-size="10.00">CamToWorld</text>
</a>
</g>
</g>
<!-- Node1&#45;&gt;Node9 -->
<g id="edge8" class="edge"><title>Node1&#45;&gt;Node9</title>
<path fill="none" stroke="midnightblue" d="M118.074,-275.031C140.85,-284.34 170.975,-296.323 198,-306 204.296,-308.255 210.912,-310.525 217.517,-312.728"/>
<polygon fill="midnightblue" stroke="midnightblue" points="216.555,-316.096 227.148,-315.9 218.744,-309.447 216.555,-316.096"/>
</g>
<!-- Node11 -->
<g id="node11" class="node"><title>Node11</title>
<g id="a_node11"><a xlink:href="../../d6/db5/classSophus_1_1Sim3GroupBase.html#afb710f8ef8ee6f6168dea80fe119d131" target="_top" xlink:title="Sophus::Sim3GroupBase\l::cast">
<polygon fill="white" stroke="black" points="213.5,-267 213.5,-297 340.5,-297 340.5,-267 213.5,-267"/>
<text text-anchor="start" x="221.5" y="-285" font-family="Helvetica,sans-Serif" font-size="10.00">Sophus::Sim3GroupBase</text>
<text text-anchor="middle" x="277" y="-274" font-family="Helvetica,sans-Serif" font-size="10.00">::cast</text>
</a>
</g>
</g>
<!-- Node1&#45;&gt;Node11 -->
<g id="edge11" class="edge"><title>Node1&#45;&gt;Node11</title>
<path fill="none" stroke="midnightblue" d="M162.027,-269.075C175.668,-270.622 189.77,-272.221 203.21,-273.745"/>
<polygon fill="midnightblue" stroke="midnightblue" points="203.01,-277.245 213.34,-274.894 203.798,-270.29 203.01,-277.245"/>
</g>
<!-- Node12 -->
<g id="node12" class="node"><title>Node12</title>
<g id="a_node12"><a xlink:href="../../dd/d08/classlsd__slam_1_1Frame.html#aaa552f594a3e712b981762719d652359" target="_top" xlink:title="lsd_slam::Frame::fx">
<polygon fill="white" stroke="black" points="225,-228.5 225,-247.5 329,-247.5 329,-228.5 225,-228.5"/>
<text text-anchor="middle" x="277" y="-235.5" font-family="Helvetica,sans-Serif" font-size="10.00">lsd_slam::Frame::fx</text>
</a>
</g>
</g>
<!-- Node1&#45;&gt;Node12 -->
<g id="edge12" class="edge"><title>Node1&#45;&gt;Node12</title>
<path fill="none" stroke="midnightblue" d="M162.027,-250.925C179.574,-248.935 197.885,-246.858 214.566,-244.967"/>
<polygon fill="midnightblue" stroke="midnightblue" points="215.18,-248.42 224.721,-243.815 214.391,-241.464 215.18,-248.42"/>
</g>
<!-- Node13 -->
<g id="node13" class="node"><title>Node13</title>
<g id="a_node13"><a xlink:href="../../dd/d08/classlsd__slam_1_1Frame.html#af8a9e82339d7f20a380a47d27cdeb01e" target="_top" xlink:title="lsd_slam::Frame::fy">
<polygon fill="white" stroke="black" points="225,-190.5 225,-209.5 329,-209.5 329,-190.5 225,-190.5"/>
<text text-anchor="middle" x="277" y="-197.5" font-family="Helvetica,sans-Serif" font-size="10.00">lsd_slam::Frame::fy</text>
</a>
</g>
</g>
<!-- Node1&#45;&gt;Node13 -->
<g id="edge13" class="edge"><title>Node1&#45;&gt;Node13</title>
<path fill="none" stroke="midnightblue" d="M121.404,-244.96C143.701,-236.731 172.205,-226.679 198,-219 206.161,-216.57 214.869,-214.218 223.399,-212.045"/>
<polygon fill="midnightblue" stroke="midnightblue" points="224.428,-215.396 233.286,-209.583 222.736,-208.603 224.428,-215.396"/>
</g>
<!-- Node14 -->
<g id="node14" class="node"><title>Node14</title>
<g id="a_node14"><a xlink:href="../../dd/d08/classlsd__slam_1_1Frame.html#a8d46588a32aa5feb71f771f267dc432d" target="_top" xlink:title="lsd_slam::Frame::cx">
<polygon fill="white" stroke="black" points="224,-152.5 224,-171.5 330,-171.5 330,-152.5 224,-152.5"/>
<text text-anchor="middle" x="277" y="-159.5" font-family="Helvetica,sans-Serif" font-size="10.00">lsd_slam::Frame::cx</text>
</a>
</g>
</g>
<!-- Node1&#45;&gt;Node14 -->
<g id="edge14" class="edge"><title>Node1&#45;&gt;Node14</title>
<path fill="none" stroke="midnightblue" d="M99.6636,-244.942C121.417,-227.145 160.152,-197.83 198,-181 203.466,-178.569 209.292,-176.42 215.203,-174.525"/>
<polygon fill="midnightblue" stroke="midnightblue" points="216.588,-177.766 225.184,-171.573 214.602,-171.053 216.588,-177.766"/>
</g>
<!-- Node15 -->
<g id="node15" class="node"><title>Node15</title>
<g id="a_node15"><a xlink:href="../../dd/d08/classlsd__slam_1_1Frame.html#a2732f1bad0442085b11f3552a2fd0525" target="_top" xlink:title="lsd_slam::Frame::cy">
<polygon fill="white" stroke="black" points="224,-114.5 224,-133.5 330,-133.5 330,-114.5 224,-114.5"/>
<text text-anchor="middle" x="277" y="-121.5" font-family="Helvetica,sans-Serif" font-size="10.00">lsd_slam::Frame::cy</text>
</a>
</g>
</g>
<!-- Node1&#45;&gt;Node15 -->
<g id="edge15" class="edge"><title>Node1&#45;&gt;Node15</title>
<path fill="none" stroke="midnightblue" d="M92.5891,-244.817C111.001,-219.614 151.431,-169.313 198,-143 203.053,-140.145 208.526,-137.716 214.148,-135.65"/>
<polygon fill="midnightblue" stroke="midnightblue" points="215.299,-138.956 223.704,-132.505 213.111,-132.307 215.299,-138.956"/>
</g>
<!-- Node16 -->
<g id="node16" class="node"><title>Node16</title>
<g id="a_node16"><a xlink:href="../../dd/d08/classlsd__slam_1_1Frame.html#ad78d873de1adfd4ab3268c50b1d462c7" target="_top" xlink:title="lsd_slam::Frame::idepth">
<polygon fill="white" stroke="black" points="216,-76.5 216,-95.5 338,-95.5 338,-76.5 216,-76.5"/>
<text text-anchor="middle" x="277" y="-83.5" font-family="Helvetica,sans-Serif" font-size="10.00">lsd_slam::Frame::idepth</text>
</a>
</g>
</g>
<!-- Node1&#45;&gt;Node16 -->
<g id="edge16" class="edge"><title>Node1&#45;&gt;Node16</title>
<path fill="none" stroke="midnightblue" d="M88.8398,-244.91C103.839,-213.606 142.747,-141.488 198,-105 201.151,-102.919 204.509,-101.066 207.994,-99.4153"/>
<polygon fill="midnightblue" stroke="midnightblue" points="209.559,-102.556 217.464,-95.5028 206.886,-96.0865 209.559,-102.556"/>
</g>
<!-- Node17 -->
<g id="node17" class="node"><title>Node17</title>
<g id="a_node17"><a xlink:href="../../dd/d08/classlsd__slam_1_1Frame.html#aa3fb7f275b5da621c039a6746b905770" target="_top" xlink:title="lsd_slam::Frame::idepthVar">
<polygon fill="white" stroke="black" points="208.5,-38.5 208.5,-57.5 345.5,-57.5 345.5,-38.5 208.5,-38.5"/>
<text text-anchor="middle" x="277" y="-45.5" font-family="Helvetica,sans-Serif" font-size="10.00">lsd_slam::Frame::idepthVar</text>
</a>
</g>
</g>
<!-- Node1&#45;&gt;Node17 -->
<g id="edge17" class="edge"><title>Node1&#45;&gt;Node17</title>
<path fill="none" stroke="midnightblue" d="M86.5496,-244.926C98.416,-208.293 133.918,-114.144 198,-67 200.638,-65.0591 203.449,-63.3143 206.38,-61.7462"/>
<polygon fill="midnightblue" stroke="midnightblue" points="207.858,-64.9186 215.473,-57.5518 204.926,-58.5622 207.858,-64.9186"/>
</g>
<!-- Node18 -->
<g id="node18" class="node"><title>Node18</title>
<g id="a_node18"><a xlink:href="../../dd/d08/classlsd__slam_1_1Frame.html#a9306307027bbe62b973c0b138216b456" target="_top" xlink:title="lsd_slam::Frame::image">
<polygon fill="white" stroke="black" points="216,-0.5 216,-19.5 338,-19.5 338,-0.5 216,-0.5"/>
<text text-anchor="middle" x="277" y="-7.5" font-family="Helvetica,sans-Serif" font-size="10.00">lsd_slam::Frame::image</text>
</a>
</g>
</g>
<!-- Node1&#45;&gt;Node18 -->
<g id="edge18" class="edge"><title>Node1&#45;&gt;Node18</title>
<path fill="none" stroke="midnightblue" d="M85.0018,-244.812C94.0325,-203.293 124.962,-87.1242 198,-29 200.755,-26.8072 203.727,-24.8622 206.844,-23.1374"/>
<polygon fill="midnightblue" stroke="midnightblue" points="208.41,-26.2689 215.961,-18.8368 205.423,-19.938 208.41,-26.2689"/>
</g>
<!-- Node3 -->
<g id="node3" class="node"><title>Node3</title>
<g id="a_node3"><a xlink:href="../../d1/d95/classlsd__slam_1_1FrameMemory.html#adf4afed8c58a420b38e4b117628ac32d" target="_top" xlink:title="lsd_slam::FrameMemory\l::getInstance">
<polygon fill="white" stroke="black" points="398.5,-536 398.5,-566 523.5,-566 523.5,-536 398.5,-536"/>
<text text-anchor="start" x="406.5" y="-554" font-family="Helvetica,sans-Serif" font-size="10.00">lsd_slam::FrameMemory</text>
<text text-anchor="middle" x="461" y="-543" font-family="Helvetica,sans-Serif" font-size="10.00">::getInstance</text>
</a>
</g>
</g>
<!-- Node2&#45;&gt;Node3 -->
<g id="edge2" class="edge"><title>Node2&#45;&gt;Node3</title>
<path fill="none" stroke="midnightblue" d="M350.193,-536.52C362.801,-538.182 375.912,-539.911 388.501,-541.572"/>
<polygon fill="midnightblue" stroke="midnightblue" points="388.094,-545.048 398.466,-542.886 389.009,-538.108 388.094,-545.048"/>
</g>
<!-- Node4 -->
<g id="node4" class="node"><title>Node4</title>
<g id="a_node4"><a xlink:href="../../d1/d95/classlsd__slam_1_1FrameMemory.html#a6835f2a14358dee3518d9f9bff8526e3" target="_top" xlink:title="lsd_slam::FrameMemory\l::activateFrame">
<polygon fill="white" stroke="black" points="398.5,-487 398.5,-517 523.5,-517 523.5,-487 398.5,-487"/>
<text text-anchor="start" x="406.5" y="-505" font-family="Helvetica,sans-Serif" font-size="10.00">lsd_slam::FrameMemory</text>
<text text-anchor="middle" x="461" y="-494" font-family="Helvetica,sans-Serif" font-size="10.00">::activateFrame</text>
</a>
</g>
</g>
<!-- Node2&#45;&gt;Node4 -->
<g id="edge3" class="edge"><title>Node2&#45;&gt;Node4</title>
<path fill="none" stroke="midnightblue" d="M347.326,-517.477C360.694,-515.641 374.725,-513.714 388.171,-511.867"/>
<polygon fill="midnightblue" stroke="midnightblue" points="388.888,-515.301 398.319,-510.473 387.935,-508.366 388.888,-515.301"/>
</g>
<!-- Node10 -->
<g id="node10" class="node"><title>Node10</title>
<g id="a_node10"><a xlink:href="../../d9/d9e/classlsd__slam_1_1FramePoseStruct.html#ae2e711db13b9732374fd5e04f960f914" target="_top" xlink:title="lsd_slam::FramePoseStruct\l::getCamToWorld">
<polygon fill="white" stroke="black" points="392,-316 392,-346 530,-346 530,-316 392,-316"/>
<text text-anchor="start" x="400" y="-334" font-family="Helvetica,sans-Serif" font-size="10.00">lsd_slam::FramePoseStruct</text>
<text text-anchor="middle" x="461" y="-323" font-family="Helvetica,sans-Serif" font-size="10.00">::getCamToWorld</text>
</a>
</g>
</g>
<!-- Node9&#45;&gt;Node10 -->
<g id="edge9" class="edge"><title>Node9&#45;&gt;Node10</title>
<path fill="none" stroke="midnightblue" d="M346.547,-331C358.004,-331 369.966,-331 381.646,-331"/>
<polygon fill="midnightblue" stroke="midnightblue" points="381.817,-334.5 391.817,-331 381.817,-327.5 381.817,-334.5"/>
</g>
<!-- Node10&#45;&gt;Node10 -->
<g id="edge10" class="edge"><title>Node10&#45;&gt;Node10</title>
<path fill="none" stroke="midnightblue" d="M428.656,-346.275C421.469,-355.406 432.25,-364 461,-364 478.07,-364 488.806,-360.97 493.207,-356.598"/>
<polygon fill="midnightblue" stroke="midnightblue" points="496.711,-356.321 493.344,-346.275 489.711,-356.228 496.711,-356.321"/>
</g>
</g>
</svg>
