<?xml version="1.0" encoding="UTF-8" standalone="no"?>
<!DOCTYPE svg PUBLIC "-//W3C//DTD SVG 1.1//EN"
 "http://www.w3.org/Graphics/SVG/1.1/DTD/svg11.dtd">
<!-- Generated by graphviz version 2.36.0 (20140111.2315)
 -->
<!-- Title: SiftMatchGPU::SetDescriptors Pages: 1 -->
<svg width="348pt" height="46pt"
 viewBox="0.00 0.00 348.00 46.00" xmlns="http://www.w3.org/2000/svg" xmlns:xlink="http://www.w3.org/1999/xlink">
<g id="graph0" class="graph" transform="scale(1 1) rotate(0) translate(4 42)">
<title>SiftMatchGPU::SetDescriptors</title>
<polygon fill="white" stroke="none" points="-4,4 -4,-42 344,-42 344,4 -4,4"/>
<!-- Node1 -->
<g id="node1" class="node"><title>Node1</title>
<polygon fill="#bfbfbf" stroke="black" points="0,-0.5 0,-19.5 152,-19.5 152,-0.5 0,-0.5"/>
<text text-anchor="middle" x="76" y="-7.5" font-family="Helvetica,sans-Serif" font-size="10.00">SiftMatchGPU::SetDescriptors</text>
</g>
<!-- Node2 -->
<g id="node2" class="node"><title>Node2</title>
<g id="a_node2"><a xlink:href="../../db/df0/classSiftMatchGPU.html#a91cd5ad3db30d844c057a8b83ec2edf6" target="_top" xlink:title="SiftMatchGPU::SetDescriptors">
<polygon fill="white" stroke="black" points="188,-0.5 188,-19.5 340,-19.5 340,-0.5 188,-0.5"/>
<text text-anchor="middle" x="264" y="-7.5" font-family="Helvetica,sans-Serif" font-size="10.00">SiftMatchGPU::SetDescriptors</text>
</a>
</g>
</g>
<!-- Node1&#45;&gt;Node2 -->
<g id="edge1" class="edge"><title>Node1&#45;&gt;Node2</title>
<path fill="none" stroke="midnightblue" d="M152.117,-10C160.596,-10 169.281,-10 177.875,-10"/>
<polygon fill="midnightblue" stroke="midnightblue" points="177.905,-13.5001 187.905,-10 177.905,-6.5001 177.905,-13.5001"/>
</g>
<!-- Node2&#45;&gt;Node2 -->
<g id="edge2" class="edge"><title>Node2&#45;&gt;Node2</title>
<path fill="none" stroke="midnightblue" d="M235.024,-19.7571C220.927,-28.5653 230.586,-38 264,-38 286.972,-38 298.716,-33.5406 299.232,-27.8913"/>
<polygon fill="midnightblue" stroke="midnightblue" points="301.847,-25.5501 292.976,-19.7571 296.298,-29.8176 301.847,-25.5501"/>
</g>
</g>
</svg>
