<?xml version="1.0" encoding="UTF-8" standalone="no"?>
<!DOCTYPE svg PUBLIC "-//W3C//DTD SVG 1.1//EN"
 "http://www.w3.org/Graphics/SVG/1.1/DTD/svg11.dtd">
<!-- Generated by graphviz version 2.36.0 (20140111.2315)
 -->
<!-- Title: SiftMatchGPU::GetGuidedSiftMatch Pages: 1 -->
<svg width="336pt" height="56pt"
 viewBox="0.00 0.00 336.00 56.00" xmlns="http://www.w3.org/2000/svg" xmlns:xlink="http://www.w3.org/1999/xlink">
<g id="graph0" class="graph" transform="scale(1 1) rotate(0) translate(4 52)">
<title>SiftMatchGPU::GetGuidedSiftMatch</title>
<polygon fill="white" stroke="none" points="-4,4 -4,-52 332,-52 332,4 -4,4"/>
<!-- Node1 -->
<g id="node1" class="node"><title>Node1</title>
<polygon fill="#bfbfbf" stroke="black" points="0,-0 0,-30 148,-30 148,-0 0,-0"/>
<text text-anchor="start" x="8" y="-18" font-family="Helvetica,sans-Serif" font-size="10.00">SiftMatchGPU::GetGuidedSift</text>
<text text-anchor="middle" x="74" y="-7" font-family="Helvetica,sans-Serif" font-size="10.00">Match</text>
</g>
<!-- Node1&#45;&gt;Node1 -->
<g id="edge3" class="edge"><title>Node1&#45;&gt;Node1</title>
<path fill="none" stroke="midnightblue" d="M42.0078,-30.2754C34.8984,-39.4062 45.5625,-48 74,-48 90.8848,-48 101.504,-44.9704 105.857,-40.5975"/>
<polygon fill="midnightblue" stroke="midnightblue" points="109.361,-40.3205 105.992,-30.2754 102.361,-40.2286 109.361,-40.3205"/>
</g>
<!-- Node2 -->
<g id="node2" class="node"><title>Node2</title>
<g id="a_node2"><a xlink:href="../../db/df0/classSiftMatchGPU.html#a8794f4846ef52e42d033d5e419274a11" target="_top" xlink:title="SiftMatchGPU::GetSiftMatch">
<polygon fill="white" stroke="black" points="184,-5.5 184,-24.5 328,-24.5 328,-5.5 184,-5.5"/>
<text text-anchor="middle" x="256" y="-12.5" font-family="Helvetica,sans-Serif" font-size="10.00">SiftMatchGPU::GetSiftMatch</text>
</a>
</g>
</g>
<!-- Node1&#45;&gt;Node2 -->
<g id="edge1" class="edge"><title>Node1&#45;&gt;Node2</title>
<path fill="none" stroke="midnightblue" d="M148.213,-15C156.586,-15 165.16,-15 173.63,-15"/>
<polygon fill="midnightblue" stroke="midnightblue" points="173.892,-18.5001 183.892,-15 173.892,-11.5001 173.892,-18.5001"/>
</g>
<!-- Node2&#45;&gt;Node2 -->
<g id="edge2" class="edge"><title>Node2&#45;&gt;Node2</title>
<path fill="none" stroke="midnightblue" d="M227.949,-24.7571C214.302,-33.5653 223.652,-43 256,-43 278.239,-43 289.608,-38.5406 290.108,-32.8913"/>
<polygon fill="midnightblue" stroke="midnightblue" points="292.831,-30.6878 284.051,-24.7571 287.216,-34.8682 292.831,-30.6878"/>
</g>
</g>
</svg>
