<?xml version="1.0" encoding="UTF-8" standalone="no"?>
<!DOCTYPE svg PUBLIC "-//W3C//DTD SVG 1.1//EN"
 "http://www.w3.org/Graphics/SVG/1.1/DTD/svg11.dtd">
<!-- Generated by graphviz version 2.36.0 (20140111.2315)
 -->
<!-- Title: ANNkd_split::ann_FR_search Pages: 1 -->
<svg width="274pt" height="38pt"
 viewBox="0.00 0.00 274.00 38.00" xmlns="http://www.w3.org/2000/svg" xmlns:xlink="http://www.w3.org/1999/xlink">
<g id="graph0" class="graph" transform="scale(1 1) rotate(0) translate(4 34)">
<title>ANNkd_split::ann_FR_search</title>
<polygon fill="white" stroke="none" points="-4,4 -4,-34 270,-34 270,4 -4,4"/>
<!-- Node1 -->
<g id="node1" class="node"><title>Node1</title>
<polygon fill="#bfbfbf" stroke="black" points="0.5,-0 0.5,-30 113.5,-30 113.5,-0 0.5,-0"/>
<text text-anchor="start" x="8.5" y="-18" font-family="Helvetica,sans-Serif" font-size="10.00">ANNkd_split::ann_FR</text>
<text text-anchor="middle" x="57" y="-7" font-family="Helvetica,sans-Serif" font-size="10.00">_search</text>
</g>
<!-- Node2 -->
<g id="node2" class="node"><title>Node2</title>
<g id="a_node2"><a xlink:href="../../dc/d39/classANNkd__node.html#a11fe71e8339a86a149ab556586777f86" target="_top" xlink:title="ANNkd_node::ann_FR\l_search">
<polygon fill="white" stroke="black" points="150,-0 150,-30 266,-30 266,-0 150,-0"/>
<text text-anchor="start" x="158" y="-18" font-family="Helvetica,sans-Serif" font-size="10.00">ANNkd_node::ann_FR</text>
<text text-anchor="middle" x="208" y="-7" font-family="Helvetica,sans-Serif" font-size="10.00">_search</text>
</a>
</g>
</g>
<!-- Node1&#45;&gt;Node2 -->
<g id="edge1" class="edge"><title>Node1&#45;&gt;Node2</title>
<path fill="none" stroke="midnightblue" d="M113.906,-15C122.334,-15 131.101,-15 139.737,-15"/>
<polygon fill="midnightblue" stroke="midnightblue" points="139.787,-18.5001 149.787,-15 139.787,-11.5001 139.787,-18.5001"/>
</g>
</g>
</svg>
