<?xml version="1.0" encoding="UTF-8" standalone="no"?>
<!DOCTYPE svg PUBLIC "-//W3C//DTD SVG 1.1//EN"
 "http://www.w3.org/Graphics/SVG/1.1/DTD/svg11.dtd">
<!-- Generated by graphviz version 2.36.0 (20140111.2315)
 -->
<!-- Title: src/misc2.h Pages: 1 -->
<svg width="501pt" height="96pt"
 viewBox="0.00 0.00 501.00 96.00" xmlns="http://www.w3.org/2000/svg" xmlns:xlink="http://www.w3.org/1999/xlink">
<g id="graph0" class="graph" transform="scale(1 1) rotate(0) translate(4 92)">
<title>src/misc2.h</title>
<polygon fill="white" stroke="none" points="-4,4 -4,-92 497,-92 497,4 -4,4"/>
<!-- Node1 -->
<g id="node1" class="node"><title>Node1</title>
<polygon fill="#bfbfbf" stroke="black" points="219,-68.5 219,-87.5 287,-87.5 287,-68.5 219,-68.5"/>
<text text-anchor="middle" x="253" y="-75.5" font-family="Helvetica,sans-Serif" font-size="10.00">src/misc2.h</text>
</g>
<!-- Node2 -->
<g id="node2" class="node"><title>Node2</title>
<g id="a_node2"><a xlink:href="../../df/dbf/glviewer_8cpp.html" target="_top" xlink:title="src/glviewer.cpp">
<polygon fill="white" stroke="black" points="0,-6.5 0,-25.5 88,-25.5 88,-6.5 0,-6.5"/>
<text text-anchor="middle" x="44" y="-13.5" font-family="Helvetica,sans-Serif" font-size="10.00">src/glviewer.cpp</text>
</a>
</g>
</g>
<!-- Node1&#45;&gt;Node2 -->
<g id="edge1" class="edge"><title>Node1&#45;&gt;Node2</title>
<path fill="none" stroke="midnightblue" d="M213.223,-65.5807C172.612,-53.9221 110.49,-36.0881 73.8891,-25.5806"/>
<polygon fill="midnightblue" stroke="midnightblue" points="212.478,-69.0082 223.055,-68.4035 214.409,-62.2799 212.478,-69.0082"/>
</g>
<!-- Node3 -->
<g id="node3" class="node"><title>Node3</title>
<g id="a_node3"><a xlink:href="../../d8/d76/landmark_8cpp.html" target="_top" xlink:title="src/landmark.cpp">
<polygon fill="white" stroke="black" points="106,-6.5 106,-25.5 198,-25.5 198,-6.5 106,-6.5"/>
<text text-anchor="middle" x="152" y="-13.5" font-family="Helvetica,sans-Serif" font-size="10.00">src/landmark.cpp</text>
</a>
</g>
</g>
<!-- Node1&#45;&gt;Node3 -->
<g id="edge2" class="edge"><title>Node1&#45;&gt;Node3</title>
<path fill="none" stroke="midnightblue" d="M229.915,-63.2863C210.386,-51.6847 183.007,-35.4202 166.444,-25.5806"/>
<polygon fill="midnightblue" stroke="midnightblue" points="228.144,-66.3051 238.529,-68.4035 231.719,-60.287 228.144,-66.3051"/>
</g>
<!-- Node4 -->
<g id="node4" class="node"><title>Node4</title>
<g id="a_node4"><a xlink:href="../../d7/d5f/misc_8cpp.html" target="_top" xlink:title="src/misc.cpp">
<polygon fill="white" stroke="black" points="216.5,-6.5 216.5,-25.5 289.5,-25.5 289.5,-6.5 216.5,-6.5"/>
<text text-anchor="middle" x="253" y="-13.5" font-family="Helvetica,sans-Serif" font-size="10.00">src/misc.cpp</text>
</a>
</g>
</g>
<!-- Node1&#45;&gt;Node4 -->
<g id="edge3" class="edge"><title>Node1&#45;&gt;Node4</title>
<path fill="none" stroke="midnightblue" d="M253,-58.1595C253,-47.2482 253,-34.04 253,-25.5806"/>
<polygon fill="midnightblue" stroke="midnightblue" points="249.5,-58.4034 253,-68.4035 256.5,-58.4035 249.5,-58.4034"/>
</g>
<!-- Node5 -->
<g id="node5" class="node"><title>Node5</title>
<g id="a_node5"><a xlink:href="../../d7/d70/node_8cpp.html" target="_top" xlink:title="src/node.cpp">
<polygon fill="white" stroke="black" points="307.5,-6.5 307.5,-25.5 380.5,-25.5 380.5,-6.5 307.5,-6.5"/>
<text text-anchor="middle" x="344" y="-13.5" font-family="Helvetica,sans-Serif" font-size="10.00">src/node.cpp</text>
</a>
</g>
</g>
<!-- Node1&#45;&gt;Node5 -->
<g id="edge4" class="edge"><title>Node1&#45;&gt;Node5</title>
<path fill="none" stroke="midnightblue" d="M274.52,-62.8113C292.063,-51.2443 316.265,-35.2867 330.986,-25.5806"/>
<polygon fill="midnightblue" stroke="midnightblue" points="272.46,-59.9768 266.038,-68.4035 276.313,-65.8209 272.46,-59.9768"/>
</g>
<!-- Node6 -->
<g id="node6" class="node"><title>Node6</title>
<g id="a_node6"><a xlink:href="../../db/de8/transformation__estimation_8cpp.html" target="_top" xlink:title="src/transformation\l_estimation.cpp">
<polygon fill="white" stroke="black" points="398.5,-1 398.5,-31 493.5,-31 493.5,-1 398.5,-1"/>
<text text-anchor="start" x="406.5" y="-19" font-family="Helvetica,sans-Serif" font-size="10.00">src/transformation</text>
<text text-anchor="middle" x="446" y="-8" font-family="Helvetica,sans-Serif" font-size="10.00">_estimation.cpp</text>
</a>
</g>
</g>
<!-- Node1&#45;&gt;Node6 -->
<g id="edge5" class="edge"><title>Node1&#45;&gt;Node6</title>
<path fill="none" stroke="midnightblue" d="M290.391,-65.3759C321.973,-55.5577 367.293,-41.4685 400.885,-31.0253"/>
<polygon fill="midnightblue" stroke="midnightblue" points="289.162,-62.0925 280.652,-68.4035 291.24,-68.777 289.162,-62.0925"/>
</g>
</g>
</svg>
