<?xml version="1.0" encoding="UTF-8" standalone="no"?>
<!DOCTYPE svg PUBLIC "-//W3C//DTD SVG 1.1//EN"
 "http://www.w3.org/Graphics/SVG/1.1/DTD/svg11.dtd">
<!-- Generated by graphviz version 2.36.0 (20140111.2315)
 -->
<!-- Title: external/SiftGPU/include/GL/glew.h Pages: 1 -->
<svg width="1484pt" height="108pt"
 viewBox="0.00 0.00 1484.00 108.00" xmlns="http://www.w3.org/2000/svg" xmlns:xlink="http://www.w3.org/1999/xlink">
<g id="graph0" class="graph" transform="scale(1 1) rotate(0) translate(4 104)">
<title>external/SiftGPU/include/GL/glew.h</title>
<polygon fill="white" stroke="none" points="-4,4 -4,-104 1480,-104 1480,4 -4,4"/>
<!-- Node1 -->
<g id="node1" class="node"><title>Node1</title>
<polygon fill="#bfbfbf" stroke="black" points="709.5,-69 709.5,-99 834.5,-99 834.5,-69 709.5,-69"/>
<text text-anchor="start" x="717.5" y="-87" font-family="Helvetica,sans-Serif" font-size="10.00">external/SiftGPU/include</text>
<text text-anchor="middle" x="772" y="-76" font-family="Helvetica,sans-Serif" font-size="10.00">/GL/glew.h</text>
</g>
<!-- Node2 -->
<g id="node2" class="node"><title>Node2</title>
<g id="a_node2"><a xlink:href="../../df/d50/FrameBufferObject_8cpp.html" target="_top" xlink:title="external/SiftGPU/src\l/SiftGPU/FrameBufferObject.cpp">
<polygon fill="white" stroke="black" points="-0.5,-1 -0.5,-31 160.5,-31 160.5,-1 -0.5,-1"/>
<text text-anchor="start" x="7.5" y="-19" font-family="Helvetica,sans-Serif" font-size="10.00">external/SiftGPU/src</text>
<text text-anchor="middle" x="80" y="-8" font-family="Helvetica,sans-Serif" font-size="10.00">/SiftGPU/FrameBufferObject.cpp</text>
</a>
</g>
</g>
<!-- Node1&#45;&gt;Node2 -->
<g id="edge1" class="edge"><title>Node1&#45;&gt;Node2</title>
<path fill="none" stroke="midnightblue" d="M699.013,-78.779C585.408,-71.7694 359.531,-56.0715 169,-32 166.357,-31.6661 163.673,-31.3104 160.964,-30.9373"/>
<polygon fill="midnightblue" stroke="midnightblue" points="699.125,-82.2923 709.32,-79.4101 699.552,-75.3054 699.125,-82.2923"/>
</g>
<!-- Node3 -->
<g id="node3" class="node"><title>Node3</title>
<g id="a_node3"><a xlink:href="../../d0/d4c/GlobalUtil_8cpp.html" target="_top" xlink:title="external/SiftGPU/src\l/SiftGPU/GlobalUtil.cpp">
<polygon fill="white" stroke="black" points="178.5,-1 178.5,-31 299.5,-31 299.5,-1 178.5,-1"/>
<text text-anchor="start" x="186.5" y="-19" font-family="Helvetica,sans-Serif" font-size="10.00">external/SiftGPU/src</text>
<text text-anchor="middle" x="239" y="-8" font-family="Helvetica,sans-Serif" font-size="10.00">/SiftGPU/GlobalUtil.cpp</text>
</a>
</g>
</g>
<!-- Node1&#45;&gt;Node3 -->
<g id="edge2" class="edge"><title>Node1&#45;&gt;Node3</title>
<path fill="none" stroke="midnightblue" d="M699.211,-77.2803C607.755,-69.5668 446.155,-54.1905 309,-32 305.933,-31.5037 302.797,-30.9614 299.635,-30.3866"/>
<polygon fill="midnightblue" stroke="midnightblue" points="698.939,-80.7697 709.196,-78.1155 699.523,-73.7941 698.939,-80.7697"/>
</g>
<!-- Node4 -->
<g id="node4" class="node"><title>Node4</title>
<g id="a_node4"><a xlink:href="../../db/dda/GLTexImage_8cpp.html" target="_top" xlink:title="external/SiftGPU/src\l/SiftGPU/GLTexImage.cpp">
<polygon fill="white" stroke="black" points="318,-1 318,-31 452,-31 452,-1 318,-1"/>
<text text-anchor="start" x="326" y="-19" font-family="Helvetica,sans-Serif" font-size="10.00">external/SiftGPU/src</text>
<text text-anchor="middle" x="385" y="-8" font-family="Helvetica,sans-Serif" font-size="10.00">/SiftGPU/GLTexImage.cpp</text>
</a>
</g>
</g>
<!-- Node1&#45;&gt;Node4 -->
<g id="edge3" class="edge"><title>Node1&#45;&gt;Node4</title>
<path fill="none" stroke="midnightblue" d="M699.105,-71.7282C636.006,-61.8083 542.351,-46.6943 461,-32 458.088,-31.4741 455.116,-30.9278 452.114,-30.3684"/>
<polygon fill="midnightblue" stroke="midnightblue" points="698.93,-75.2435 709.351,-73.3357 700.015,-68.3281 698.93,-75.2435"/>
</g>
<!-- Node5 -->
<g id="node5" class="node"><title>Node5</title>
<g id="a_node5"><a xlink:href="../../d4/d97/ProgramGLSL_8cpp.html" target="_top" xlink:title="external/SiftGPU/src\l/SiftGPU/ProgramGLSL.cpp">
<polygon fill="white" stroke="black" points="470,-1 470,-31 610,-31 610,-1 470,-1"/>
<text text-anchor="start" x="478" y="-19" font-family="Helvetica,sans-Serif" font-size="10.00">external/SiftGPU/src</text>
<text text-anchor="middle" x="540" y="-8" font-family="Helvetica,sans-Serif" font-size="10.00">/SiftGPU/ProgramGLSL.cpp</text>
</a>
</g>
</g>
<!-- Node1&#45;&gt;Node5 -->
<g id="edge4" class="edge"><title>Node1&#45;&gt;Node5</title>
<path fill="none" stroke="midnightblue" d="M712.561,-66.0905C674.401,-55.2347 625.429,-41.303 589.409,-31.0561"/>
<polygon fill="midnightblue" stroke="midnightblue" points="711.939,-69.5524 722.515,-68.9223 713.854,-62.8195 711.939,-69.5524"/>
</g>
<!-- Node6 -->
<g id="node6" class="node"><title>Node6</title>
<g id="a_node6"><a xlink:href="../../d7/d8c/ProgramGPU_8cpp.html" target="_top" xlink:title="external/SiftGPU/src\l/SiftGPU/ProgramGPU.cpp">
<polygon fill="white" stroke="black" points="628.5,-1 628.5,-31 765.5,-31 765.5,-1 628.5,-1"/>
<text text-anchor="start" x="636.5" y="-19" font-family="Helvetica,sans-Serif" font-size="10.00">external/SiftGPU/src</text>
<text text-anchor="middle" x="697" y="-8" font-family="Helvetica,sans-Serif" font-size="10.00">/SiftGPU/ProgramGPU.cpp</text>
</a>
</g>
</g>
<!-- Node1&#45;&gt;Node6 -->
<g id="edge5" class="edge"><title>Node1&#45;&gt;Node6</title>
<path fill="none" stroke="midnightblue" d="M748.157,-62.0184C736.676,-51.9145 723.215,-40.0696 712.984,-31.0663"/>
<polygon fill="midnightblue" stroke="midnightblue" points="745.907,-64.7002 755.726,-68.679 750.531,-59.4452 745.907,-64.7002"/>
</g>
<!-- Node7 -->
<g id="node7" class="node"><title>Node7</title>
<g id="a_node7"><a xlink:href="../../d5/d65/PyramidGL_8cpp.html" target="_top" xlink:title="external/SiftGPU/src\l/SiftGPU/PyramidGL.cpp">
<polygon fill="white" stroke="black" points="783.5,-1 783.5,-31 910.5,-31 910.5,-1 783.5,-1"/>
<text text-anchor="start" x="791.5" y="-19" font-family="Helvetica,sans-Serif" font-size="10.00">external/SiftGPU/src</text>
<text text-anchor="middle" x="847" y="-8" font-family="Helvetica,sans-Serif" font-size="10.00">/SiftGPU/PyramidGL.cpp</text>
</a>
</g>
</g>
<!-- Node1&#45;&gt;Node7 -->
<g id="edge6" class="edge"><title>Node1&#45;&gt;Node7</title>
<path fill="none" stroke="midnightblue" d="M795.843,-62.0184C807.324,-51.9145 820.785,-40.0696 831.016,-31.0663"/>
<polygon fill="midnightblue" stroke="midnightblue" points="793.469,-59.4452 788.274,-68.679 798.093,-64.7002 793.469,-59.4452"/>
</g>
<!-- Node8 -->
<g id="node8" class="node"><title>Node8</title>
<g id="a_node8"><a xlink:href="../../d7/d1f/ShaderMan_8cpp.html" target="_top" xlink:title="external/SiftGPU/src\l/SiftGPU/ShaderMan.cpp">
<polygon fill="white" stroke="black" points="929,-1 929,-31 1057,-31 1057,-1 929,-1"/>
<text text-anchor="start" x="937" y="-19" font-family="Helvetica,sans-Serif" font-size="10.00">external/SiftGPU/src</text>
<text text-anchor="middle" x="993" y="-8" font-family="Helvetica,sans-Serif" font-size="10.00">/SiftGPU/ShaderMan.cpp</text>
</a>
</g>
</g>
<!-- Node1&#45;&gt;Node8 -->
<g id="edge7" class="edge"><title>Node1&#45;&gt;Node8</title>
<path fill="none" stroke="midnightblue" d="M829.086,-65.9518C865.368,-55.1162 911.768,-41.2594 945.933,-31.0561"/>
<polygon fill="midnightblue" stroke="midnightblue" points="827.719,-62.707 819.139,-68.9223 829.722,-69.4143 827.719,-62.707"/>
</g>
<!-- Node9 -->
<g id="node9" class="node"><title>Node9</title>
<g id="a_node9"><a xlink:href="../../de/d03/SiftGPU_8cpp.html" target="_top" xlink:title="external/SiftGPU/src\l/SiftGPU/SiftGPU.cpp">
<polygon fill="white" stroke="black" points="1075.5,-1 1075.5,-31 1190.5,-31 1190.5,-1 1075.5,-1"/>
<text text-anchor="start" x="1083.5" y="-19" font-family="Helvetica,sans-Serif" font-size="10.00">external/SiftGPU/src</text>
<text text-anchor="middle" x="1133" y="-8" font-family="Helvetica,sans-Serif" font-size="10.00">/SiftGPU/SiftGPU.cpp</text>
</a>
</g>
</g>
<!-- Node1&#45;&gt;Node9 -->
<g id="edge8" class="edge"><title>Node1&#45;&gt;Node9</title>
<path fill="none" stroke="midnightblue" d="M844.745,-71.3888C904.354,-61.6325 990.828,-46.9257 1066,-32 1069.04,-31.3964 1072.15,-30.7607 1075.29,-30.1057"/>
<polygon fill="midnightblue" stroke="midnightblue" points="843.983,-67.9668 834.677,-73.0315 845.11,-74.8755 843.983,-67.9668"/>
</g>
<!-- Node10 -->
<g id="node10" class="node"><title>Node10</title>
<g id="a_node10"><a xlink:href="../../dd/d0c/SiftMatch_8cpp.html" target="_top" xlink:title="external/SiftGPU/src\l/SiftGPU/SiftMatch.cpp">
<polygon fill="white" stroke="black" points="1209,-1 1209,-31 1329,-31 1329,-1 1209,-1"/>
<text text-anchor="start" x="1217" y="-19" font-family="Helvetica,sans-Serif" font-size="10.00">external/SiftGPU/src</text>
<text text-anchor="middle" x="1269" y="-8" font-family="Helvetica,sans-Serif" font-size="10.00">/SiftGPU/SiftMatch.cpp</text>
</a>
</g>
</g>
<!-- Node1&#45;&gt;Node10 -->
<g id="edge9" class="edge"><title>Node1&#45;&gt;Node10</title>
<path fill="none" stroke="midnightblue" d="M844.937,-76.3552C930.178,-68.1121 1075.33,-52.5903 1199,-32 1202.19,-31.4693 1205.45,-30.8916 1208.74,-30.2821"/>
<polygon fill="midnightblue" stroke="midnightblue" points="844.463,-72.8845 834.844,-77.3243 845.132,-79.8524 844.463,-72.8845"/>
</g>
<!-- Node11 -->
<g id="node11" class="node"><title>Node11</title>
<g id="a_node11"><a xlink:href="../../d8/dfb/SiftPyramid_8cpp.html" target="_top" xlink:title="external/SiftGPU/src\l/SiftGPU/SiftPyramid.cpp">
<polygon fill="white" stroke="black" points="1347.5,-1 1347.5,-31 1476.5,-31 1476.5,-1 1347.5,-1"/>
<text text-anchor="start" x="1355.5" y="-19" font-family="Helvetica,sans-Serif" font-size="10.00">external/SiftGPU/src</text>
<text text-anchor="middle" x="1412" y="-8" font-family="Helvetica,sans-Serif" font-size="10.00">/SiftGPU/SiftPyramid.cpp</text>
</a>
</g>
</g>
<!-- Node1&#45;&gt;Node11 -->
<g id="edge10" class="edge"><title>Node1&#45;&gt;Node11</title>
<path fill="none" stroke="midnightblue" d="M844.659,-78.9444C952.504,-72.3595 1161.13,-57.4497 1337,-32 1340.42,-31.5056 1343.91,-30.9568 1347.44,-30.3699"/>
<polygon fill="midnightblue" stroke="midnightblue" points="844.312,-75.4589 834.542,-79.5557 844.735,-82.4461 844.312,-75.4589"/>
</g>
</g>
</svg>
