<?xml version="1.0" encoding="UTF-8" standalone="no"?>
<!DOCTYPE svg PUBLIC "-//W3C//DTD SVG 1.1//EN"
 "http://www.w3.org/Graphics/SVG/1.1/DTD/svg11.dtd">
<!-- Generated by graphviz version 2.36.0 (20140111.2315)
 -->
<!-- Title: main Pages: 1 -->
<svg width="452pt" height="180pt"
 viewBox="0.00 0.00 452.00 180.00" xmlns="http://www.w3.org/2000/svg" xmlns:xlink="http://www.w3.org/1999/xlink">
<g id="graph0" class="graph" transform="scale(1 1) rotate(0) translate(4 176)">
<title>main</title>
<polygon fill="white" stroke="none" points="-4,4 -4,-176 448,-176 448,4 -4,4"/>
<!-- Node1 -->
<g id="node1" class="node"><title>Node1</title>
<polygon fill="#bfbfbf" stroke="black" points="0,-76.5 0,-95.5 38,-95.5 38,-76.5 0,-76.5"/>
<text text-anchor="middle" x="19" y="-83.5" font-family="Helvetica,sans-Serif" font-size="10.00">main</text>
</g>
<!-- Node2 -->
<g id="node2" class="node"><title>Node2</title>
<g id="a_node2"><a xlink:href="../../d1/d0f/ServerSiftGPU_8cpp.html#ab7f82efa5db440235d578daacf60b6fc" target="_top" xlink:title="RunServerLoop">
<polygon fill="white" stroke="black" points="98,-152.5 98,-171.5 182,-171.5 182,-152.5 98,-152.5"/>
<text text-anchor="middle" x="140" y="-159.5" font-family="Helvetica,sans-Serif" font-size="10.00">RunServerLoop</text>
</a>
</g>
</g>
<!-- Node1&#45;&gt;Node2 -->
<g id="edge1" class="edge"><title>Node1&#45;&gt;Node2</title>
<path fill="none" stroke="midnightblue" d="M26.5264,-95.556C35.6807,-108.242 53.5267,-130.493 74,-143 78.4019,-145.689 83.2043,-148.015 88.1405,-150.022"/>
<polygon fill="midnightblue" stroke="midnightblue" points="87.1338,-153.38 97.728,-153.503 89.5225,-146.8 87.1338,-153.38"/>
</g>
<!-- Node3 -->
<g id="node3" class="node"><title>Node3</title>
<g id="a_node3"><a xlink:href="../../d1/d0f/ServerSiftGPU_8cpp.html#a2cab8623166d3e8c458d38ef42c61bda" target="_top" xlink:title="CreateRemoteSiftGPU">
<polygon fill="white" stroke="black" points="81.5,-114.5 81.5,-133.5 198.5,-133.5 198.5,-114.5 81.5,-114.5"/>
<text text-anchor="middle" x="140" y="-121.5" font-family="Helvetica,sans-Serif" font-size="10.00">CreateRemoteSiftGPU</text>
</a>
</g>
</g>
<!-- Node1&#45;&gt;Node3 -->
<g id="edge2" class="edge"><title>Node1&#45;&gt;Node3</title>
<path fill="none" stroke="midnightblue" d="M38.411,-92.7549C48.812,-96.5011 62.0797,-101.164 74,-105 80.9248,-107.229 88.2994,-109.49 95.5018,-111.638"/>
<polygon fill="midnightblue" stroke="midnightblue" points="94.5766,-115.014 105.158,-114.483 96.555,-108.299 94.5766,-115.014"/>
</g>
<!-- Node4 -->
<g id="node4" class="node"><title>Node4</title>
<g id="a_node4"><a xlink:href="../../d4/dee/classSiftGPU.html#ab50cd0cc4d3f46ede220221f6ca46498" target="_top" xlink:title="SiftGPU::ParseParam">
<polygon fill="white" stroke="black" points="83.5,-76.5 83.5,-95.5 196.5,-95.5 196.5,-76.5 83.5,-76.5"/>
<text text-anchor="middle" x="140" y="-83.5" font-family="Helvetica,sans-Serif" font-size="10.00">SiftGPU::ParseParam</text>
</a>
</g>
</g>
<!-- Node1&#45;&gt;Node4 -->
<g id="edge3" class="edge"><title>Node1&#45;&gt;Node4</title>
<path fill="none" stroke="midnightblue" d="M38.0735,-86C47.6674,-86 60.114,-86 72.9722,-86"/>
<polygon fill="midnightblue" stroke="midnightblue" points="73.3258,-89.5001 83.3258,-86 73.3258,-82.5001 73.3258,-89.5001"/>
</g>
<!-- Node7 -->
<g id="node7" class="node"><title>Node7</title>
<g id="a_node7"><a xlink:href="../../d4/dee/classSiftGPU.html#a1f45e5fce1b3027e4eda6f2d7cd09d07" target="_top" xlink:title="SiftGPU::VerifyContextGL">
<polygon fill="white" stroke="black" points="74,-38.5 74,-57.5 206,-57.5 206,-38.5 74,-38.5"/>
<text text-anchor="middle" x="140" y="-45.5" font-family="Helvetica,sans-Serif" font-size="10.00">SiftGPU::VerifyContextGL</text>
</a>
</g>
</g>
<!-- Node1&#45;&gt;Node7 -->
<g id="edge6" class="edge"><title>Node1&#45;&gt;Node7</title>
<path fill="none" stroke="midnightblue" d="M38.411,-79.2451C48.812,-75.4989 62.0797,-70.8362 74,-67 80.9248,-64.7714 88.2994,-62.5102 95.5018,-60.3623"/>
<polygon fill="midnightblue" stroke="midnightblue" points="96.555,-63.7008 105.158,-57.5173 94.5766,-56.9862 96.555,-63.7008"/>
</g>
<!-- Node8 -->
<g id="node8" class="node"><title>Node8</title>
<g id="a_node8"><a xlink:href="../../d4/dee/classSiftGPU.html#a7ecfea9c8fe68cbe0667a5754322222a" target="_top" xlink:title="SiftGPU::RunSIFT">
<polygon fill="white" stroke="black" points="90.5,-0.5 90.5,-19.5 189.5,-19.5 189.5,-0.5 90.5,-0.5"/>
<text text-anchor="middle" x="140" y="-7.5" font-family="Helvetica,sans-Serif" font-size="10.00">SiftGPU::RunSIFT</text>
</a>
</g>
</g>
<!-- Node1&#45;&gt;Node8 -->
<g id="edge7" class="edge"><title>Node1&#45;&gt;Node8</title>
<path fill="none" stroke="midnightblue" d="M26.5264,-76.444C35.6807,-63.7585 53.5267,-41.5073 74,-29 77.5554,-26.828 81.372,-24.8932 85.3094,-23.1716"/>
<polygon fill="midnightblue" stroke="midnightblue" points="86.6041,-26.4235 94.6497,-19.5302 84.0614,-19.9016 86.6041,-26.4235"/>
</g>
<!-- Node5 -->
<g id="node5" class="node"><title>Node5</title>
<g id="a_node5"><a xlink:href="../../d2/d55/classGlobalUtil.html#a22689de5e558d891c11c8fec2e5c2931" target="_top" xlink:title="GlobalUtil::SelectDisplay">
<polygon fill="white" stroke="black" points="242,-76.5 242,-95.5 368,-95.5 368,-76.5 242,-76.5"/>
<text text-anchor="middle" x="305" y="-83.5" font-family="Helvetica,sans-Serif" font-size="10.00">GlobalUtil::SelectDisplay</text>
</a>
</g>
</g>
<!-- Node4&#45;&gt;Node5 -->
<g id="edge4" class="edge"><title>Node4&#45;&gt;Node5</title>
<path fill="none" stroke="midnightblue" d="M196.639,-86C207.91,-86 219.916,-86 231.665,-86"/>
<polygon fill="midnightblue" stroke="midnightblue" points="231.899,-89.5001 241.899,-86 231.899,-82.5001 231.899,-89.5001"/>
</g>
<!-- Node6 -->
<g id="node6" class="node"><title>Node6</title>
<g id="a_node6"><a xlink:href="../../db/d82/wglew_8h.html#a7b84f5391331438359747d138a86ffe3" target="_top" xlink:title="HDC">
<polygon fill="white" stroke="black" points="404.5,-76.5 404.5,-95.5 443.5,-95.5 443.5,-76.5 404.5,-76.5"/>
<text text-anchor="middle" x="424" y="-83.5" font-family="Helvetica,sans-Serif" font-size="10.00">HDC</text>
</a>
</g>
</g>
<!-- Node5&#45;&gt;Node6 -->
<g id="edge5" class="edge"><title>Node5&#45;&gt;Node6</title>
<path fill="none" stroke="midnightblue" d="M368.268,-86C377.273,-86 386.158,-86 394.065,-86"/>
<polygon fill="midnightblue" stroke="midnightblue" points="394.161,-89.5001 404.161,-86 394.161,-82.5001 394.161,-89.5001"/>
</g>
</g>
</svg>
