<?xml version="1.0" encoding="UTF-8" standalone="no"?>
<!DOCTYPE svg PUBLIC "-//W3C//DTD SVG 1.1//EN"
 "http://www.w3.org/Graphics/SVG/1.1/DTD/svg11.dtd">
<!-- Generated by graphviz version 2.36.0 (20140111.2315)
 -->
<!-- Title: src/glviewer.h Pages: 1 -->
<svg width="589pt" height="196pt"
 viewBox="0.00 0.00 589.00 196.00" xmlns="http://www.w3.org/2000/svg" xmlns:xlink="http://www.w3.org/1999/xlink">
<g id="graph0" class="graph" transform="scale(1 1) rotate(0) translate(4 192)">
<title>src/glviewer.h</title>
<polygon fill="white" stroke="none" points="-4,4 -4,-192 585,-192 585,4 -4,4"/>
<!-- Node1 -->
<g id="node1" class="node"><title>Node1</title>
<polygon fill="#bfbfbf" stroke="black" points="162.5,-168.5 162.5,-187.5 239.5,-187.5 239.5,-168.5 162.5,-168.5"/>
<text text-anchor="middle" x="201" y="-175.5" font-family="Helvetica,sans-Serif" font-size="10.00">src/glviewer.h</text>
</g>
<!-- Node2 -->
<g id="node2" class="node"><title>Node2</title>
<polygon fill="white" stroke="#bfbfbf" points="0,-112.5 0,-131.5 68,-131.5 68,-112.5 0,-112.5"/>
<text text-anchor="middle" x="34" y="-119.5" font-family="Helvetica,sans-Serif" font-size="10.00">QGLWidget</text>
</g>
<!-- Node1&#45;&gt;Node2 -->
<g id="edge1" class="edge"><title>Node1&#45;&gt;Node2</title>
<path fill="none" stroke="midnightblue" d="M174.538,-168.444C146.322,-159.32 101.46,-144.813 70.0315,-134.651"/>
<polygon fill="midnightblue" stroke="midnightblue" points="70.9296,-131.263 60.3378,-131.516 68.7759,-137.923 70.9296,-131.263"/>
</g>
<!-- Node3 -->
<g id="node3" class="node"><title>Node3</title>
<polygon fill="white" stroke="#bfbfbf" points="86,-112.5 86,-131.5 126,-131.5 126,-112.5 86,-112.5"/>
<text text-anchor="middle" x="106" y="-119.5" font-family="Helvetica,sans-Serif" font-size="10.00">QList</text>
</g>
<!-- Node1&#45;&gt;Node3 -->
<g id="edge2" class="edge"><title>Node1&#45;&gt;Node3</title>
<path fill="none" stroke="midnightblue" d="M185.737,-168.324C170.779,-159.822 147.745,-146.729 130.273,-136.797"/>
<polygon fill="midnightblue" stroke="midnightblue" points="131.649,-133.553 121.226,-131.655 128.19,-139.639 131.649,-133.553"/>
</g>
<!-- Node4 -->
<g id="node4" class="node"><title>Node4</title>
<polygon fill="white" stroke="#bfbfbf" points="144.5,-112.5 144.5,-131.5 185.5,-131.5 185.5,-112.5 144.5,-112.5"/>
<text text-anchor="middle" x="165" y="-119.5" font-family="Helvetica,sans-Serif" font-size="10.00">QPair</text>
</g>
<!-- Node1&#45;&gt;Node4 -->
<g id="edge3" class="edge"><title>Node1&#45;&gt;Node4</title>
<path fill="none" stroke="midnightblue" d="M195.055,-168.083C190.023,-160.534 182.663,-149.495 176.487,-140.23"/>
<polygon fill="midnightblue" stroke="midnightblue" points="179.293,-138.13 170.834,-131.751 173.469,-142.013 179.293,-138.13"/>
</g>
<!-- Node5 -->
<g id="node5" class="node"><title>Node5</title>
<polygon fill="white" stroke="#bfbfbf" points="203.5,-112.5 203.5,-131.5 270.5,-131.5 270.5,-112.5 203.5,-112.5"/>
<text text-anchor="middle" x="237" y="-119.5" font-family="Helvetica,sans-Serif" font-size="10.00">QMatrix4x4</text>
</g>
<!-- Node1&#45;&gt;Node5 -->
<g id="edge4" class="edge"><title>Node1&#45;&gt;Node5</title>
<path fill="none" stroke="midnightblue" d="M206.945,-168.083C211.977,-160.534 219.337,-149.495 225.513,-140.23"/>
<polygon fill="midnightblue" stroke="midnightblue" points="228.531,-142.013 231.166,-131.751 222.707,-138.13 228.531,-142.013"/>
</g>
<!-- Node6 -->
<g id="node6" class="node"><title>Node6</title>
<g id="a_node6"><a xlink:href="../../d2/de7/parameter__server_8h.html" target="_top" xlink:title="parameter_server.h">
<polygon fill="white" stroke="black" points="288.5,-112.5 288.5,-131.5 389.5,-131.5 389.5,-112.5 288.5,-112.5"/>
<text text-anchor="middle" x="339" y="-119.5" font-family="Helvetica,sans-Serif" font-size="10.00">parameter_server.h</text>
</a>
</g>
</g>
<!-- Node1&#45;&gt;Node6 -->
<g id="edge5" class="edge"><title>Node1&#45;&gt;Node6</title>
<path fill="none" stroke="midnightblue" d="M222.867,-168.444C245.779,-159.478 281.975,-145.314 307.866,-135.183"/>
<polygon fill="midnightblue" stroke="midnightblue" points="309.199,-138.42 317.236,-131.516 306.648,-131.901 309.199,-138.42"/>
</g>
<!-- Node13 -->
<g id="node13" class="node"><title>Node13</title>
<g id="a_node13"><a xlink:href="../../de/d31/renderable_8h.html" target="_top" xlink:title="renderable.h">
<polygon fill="white" stroke="black" points="408,-112.5 408,-131.5 478,-131.5 478,-112.5 408,-112.5"/>
<text text-anchor="middle" x="443" y="-119.5" font-family="Helvetica,sans-Serif" font-size="10.00">renderable.h</text>
</a>
</g>
</g>
<!-- Node1&#45;&gt;Node13 -->
<g id="edge13" class="edge"><title>Node1&#45;&gt;Node13</title>
<path fill="none" stroke="midnightblue" d="M239.346,-168.444C282.465,-158.822 352.408,-143.215 398.058,-133.028"/>
<polygon fill="midnightblue" stroke="midnightblue" points="398.979,-136.409 407.977,-130.815 397.455,-129.577 398.979,-136.409"/>
</g>
<!-- Node7 -->
<g id="node7" class="node"><title>Node7</title>
<polygon fill="white" stroke="#bfbfbf" points="111.5,-56.5 111.5,-75.5 152.5,-75.5 152.5,-56.5 111.5,-56.5"/>
<text text-anchor="middle" x="132" y="-63.5" font-family="Helvetica,sans-Serif" font-size="10.00">string</text>
</g>
<!-- Node6&#45;&gt;Node7 -->
<g id="edge6" class="edge"><title>Node6&#45;&gt;Node7</title>
<path fill="none" stroke="midnightblue" d="M302.713,-112.426C268.68,-104.252 216.16,-91.2994 162.272,-76.2587"/>
<polygon fill="midnightblue" stroke="midnightblue" points="163.129,-72.8638 152.555,-73.5275 161.235,-79.6027 163.129,-72.8638"/>
</g>
<!-- Node8 -->
<g id="node8" class="node"><title>Node8</title>
<polygon fill="white" stroke="#bfbfbf" points="170.5,-56.5 170.5,-75.5 225.5,-75.5 225.5,-56.5 170.5,-56.5"/>
<text text-anchor="middle" x="198" y="-63.5" font-family="Helvetica,sans-Serif" font-size="10.00">ros/ros.h</text>
</g>
<!-- Node6&#45;&gt;Node8 -->
<g id="edge7" class="edge"><title>Node6&#45;&gt;Node8</title>
<path fill="none" stroke="midnightblue" d="M316.658,-112.444C293.247,-103.478 256.264,-89.314 229.81,-79.1827"/>
<polygon fill="midnightblue" stroke="midnightblue" points="230.828,-75.8245 220.237,-75.5164 228.324,-82.3615 230.828,-75.8245"/>
</g>
<!-- Node9 -->
<g id="node9" class="node"><title>Node9</title>
<polygon fill="white" stroke="#bfbfbf" points="244,-56.5 244,-75.5 322,-75.5 322,-56.5 244,-56.5"/>
<text text-anchor="middle" x="283" y="-63.5" font-family="Helvetica,sans-Serif" font-size="10.00">boost/any.hpp</text>
</g>
<!-- Node6&#45;&gt;Node9 -->
<g id="edge8" class="edge"><title>Node6&#45;&gt;Node9</title>
<path fill="none" stroke="midnightblue" d="M330.003,-112.324C321.806,-104.42 309.494,-92.5482 299.528,-82.9377"/>
<polygon fill="midnightblue" stroke="midnightblue" points="301.789,-80.2558 292.161,-75.8339 296.93,-85.2947 301.789,-80.2558"/>
</g>
<!-- Node10 -->
<g id="node10" class="node"><title>Node10</title>
<polygon fill="white" stroke="#bfbfbf" points="340.5,-56.5 340.5,-75.5 449.5,-75.5 449.5,-56.5 340.5,-56.5"/>
<text text-anchor="middle" x="395" y="-63.5" font-family="Helvetica,sans-Serif" font-size="10.00">pcl_ros/point_cloud.h</text>
</g>
<!-- Node6&#45;&gt;Node10 -->
<g id="edge9" class="edge"><title>Node6&#45;&gt;Node10</title>
<path fill="none" stroke="midnightblue" d="M347.997,-112.324C356.194,-104.42 368.506,-92.5482 378.472,-82.9377"/>
<polygon fill="midnightblue" stroke="midnightblue" points="381.07,-85.2947 385.839,-75.8339 376.211,-80.2558 381.07,-85.2947"/>
</g>
<!-- Node11 -->
<g id="node11" class="node"><title>Node11</title>
<polygon fill="white" stroke="#bfbfbf" points="465.5,-0.5 465.5,-19.5 556.5,-19.5 556.5,-0.5 465.5,-0.5"/>
<text text-anchor="middle" x="511" y="-7.5" font-family="Helvetica,sans-Serif" font-size="10.00">pcl/point_types.h</text>
</g>
<!-- Node6&#45;&gt;Node11 -->
<g id="edge10" class="edge"><title>Node6&#45;&gt;Node11</title>
<path fill="none" stroke="midnightblue" d="M375.776,-112.485C400.618,-105.498 433.266,-93.8129 458,-76 475.834,-63.1565 491.062,-42.8622 500.558,-28.3679"/>
<polygon fill="midnightblue" stroke="midnightblue" points="503.575,-30.1448 505.94,-19.8172 497.651,-26.4159 503.575,-30.1448"/>
</g>
<!-- Node12 -->
<g id="node12" class="node"><title>Node12</title>
<g id="a_node12"><a xlink:href="../../d1/d45/point__types_8h.html" target="_top" xlink:title="point_types.h">
<polygon fill="white" stroke="black" points="506.5,-56.5 506.5,-75.5 581.5,-75.5 581.5,-56.5 506.5,-56.5"/>
<text text-anchor="middle" x="544" y="-63.5" font-family="Helvetica,sans-Serif" font-size="10.00">point_types.h</text>
</a>
</g>
</g>
<!-- Node6&#45;&gt;Node12 -->
<g id="edge11" class="edge"><title>Node6&#45;&gt;Node12</title>
<path fill="none" stroke="midnightblue" d="M371.483,-112.444C406.72,-103.162 463.104,-88.3093 501.759,-78.127"/>
<polygon fill="midnightblue" stroke="midnightblue" points="502.891,-81.4483 511.669,-75.5164 501.107,-74.6792 502.891,-81.4483"/>
</g>
<!-- Node12&#45;&gt;Node11 -->
<g id="edge12" class="edge"><title>Node12&#45;&gt;Node11</title>
<path fill="none" stroke="midnightblue" d="M538.551,-56.083C533.986,-48.6127 527.332,-37.7244 521.707,-28.5199"/>
<polygon fill="midnightblue" stroke="midnightblue" points="524.549,-26.4588 516.348,-19.7511 518.576,-30.109 524.549,-26.4588"/>
</g>
</g>
</svg>
