<?xml version="1.0" encoding="UTF-8" standalone="no"?>
<!DOCTYPE svg PUBLIC "-//W3C//DTD SVG 1.1//EN"
 "http://www.w3.org/Graphics/SVG/1.1/DTD/svg11.dtd">
<!-- Generated by graphviz version 2.36.0 (20140111.2315)
 -->
<!-- Title: SiftGPU::RunSIFT Pages: 1 -->
<!--zoomable 142 -->
<svg id="main" version="1.1" xmlns="http://www.w3.org/2000/svg" xmlns:xlink="http://www.w3.org/1999/xlink" xml:space="preserve" onload="init(evt)">
<style type="text/css"><![CDATA[
.edge:hover path { stroke: red; }
.edge:hover polygon { stroke: red; fill: red; }
]]></style>
<script type="text/javascript"><![CDATA[
var edges = document.getElementsByTagName('g');
if (edges && edges.length) {
  for (var i=0;i<edges.length;i++) {
    if (edges[i].id.substr(0,4)=='edge') {
      edges[i].setAttribute('class','edge');
    }
  }
}
]]></script>
        <defs>
                <circle id="rim" cx="0" cy="0" r="7"/>
                <circle id="rim2" cx="0" cy="0" r="3.5"/>
                <g id="zoomPlus">
                        <use xlink:href="#rim" fill="#404040">
                                <set attributeName="fill" to="#808080" begin="zoomplus.mouseover" end="zoomplus.mouseout"/>
                        </use>
                        <path d="M-4,0h8M0,-4v8" fill="none" stroke="white" stroke-width="1.5" pointer-events="none"/>
                </g>
                <g id="zoomMin">
                        <use xlink:href="#rim" fill="#404040">
                                <set attributeName="fill" to="#808080" begin="zoomminus.mouseover" end="zoomminus.mouseout"/>
                        </use>
                        <path d="M-4,0h8" fill="none" stroke="white" stroke-width="1.5" pointer-events="none"/>
                </g>
                <g id="dirArrow">
                        <path fill="none" stroke="white" stroke-width="1.5" d="M0,-3.0v7 M-2.5,-0.5L0,-3.0L2.5,-0.5"/>
                </g>
               <g id="resetDef">
                       <use xlink:href="#rim2" fill="#404040">
                               <set attributeName="fill" to="#808080" begin="reset.mouseover" end="reset.mouseout"/>
                       </use>
               </g>
        </defs>

<script type="text/javascript">
var viewWidth = 622;
var viewHeight = 142;
var sectionId = 'dynsection-5';
</script>
<script xlink:href="../../svgpan.js"/>
<svg id="graph" class="graph">
<g id="viewport">
<title>SiftGPU::RunSIFT</title>
<polygon fill="white" stroke="none" points="-4,4 -4,-138 618,-138 618,4 -4,4"/>
<!-- Node1 -->
<g id="node1" class="node"><title>Node1</title>
<polygon fill="#bfbfbf" stroke="black" points="0.5,-57.5 0.5,-76.5 99.5,-76.5 99.5,-57.5 0.5,-57.5"/>
<text text-anchor="middle" x="50" y="-64.5" font-family="Helvetica,sans-Serif" font-size="10.00">SiftGPU::RunSIFT</text>
</g>
<!-- Node2 -->
<g id="node2" class="node"><title>Node2</title>
<g id="a_node2"><a xlink:href="../../d2/d55/classGlobalUtil.html#ad88109c1e1efc71fdd98a85c51b6321b" target="_top" xlink:title="GlobalUtil::SetGLParam">
<polygon fill="white" stroke="black" points="136,-114.5 136,-133.5 258,-133.5 258,-114.5 136,-114.5"/>
<text text-anchor="middle" x="197" y="-121.5" font-family="Helvetica,sans-Serif" font-size="10.00">GlobalUtil::SetGLParam</text>
</a>
</g>
</g>
<!-- Node1&#45;&gt;Node2 -->
<g id="edge1" class="edge"><title>Node1&#45;&gt;Node2</title>
<path fill="none" stroke="midnightblue" d="M70.6548,-76.5537C87.7133,-84.6595 113.187,-96.3207 136,-105 141.626,-107.141 147.61,-109.24 153.536,-111.216"/>
<polygon fill="midnightblue" stroke="midnightblue" points="152.791,-114.654 163.383,-114.412 154.952,-107.996 152.791,-114.654"/>
</g>
<!-- Node4 -->
<g id="node4" class="node"><title>Node4</title>
<g id="a_node4"><a xlink:href="../../d2/d55/classGlobalUtil.html#aaa5ebd526dfe13eb5eb61fee67c75a10" target="_top" xlink:title="GlobalUtil::StartTimer">
<polygon fill="white" stroke="black" points="141.5,-76.5 141.5,-95.5 252.5,-95.5 252.5,-76.5 141.5,-76.5"/>
<text text-anchor="middle" x="197" y="-83.5" font-family="Helvetica,sans-Serif" font-size="10.00">GlobalUtil::StartTimer</text>
</a>
</g>
</g>
<!-- Node1&#45;&gt;Node4 -->
<g id="edge3" class="edge"><title>Node1&#45;&gt;Node4</title>
<path fill="none" stroke="midnightblue" d="M99.6863,-73.3796C109.849,-74.7112 120.714,-76.1349 131.351,-77.5287"/>
<polygon fill="midnightblue" stroke="midnightblue" points="131.079,-81.0229 141.449,-78.8519 131.988,-74.0823 131.079,-81.0229"/>
</g>
<!-- Node7 -->
<g id="node7" class="node"><title>Node7</title>
<g id="a_node7"><a xlink:href="../../d2/d55/classGlobalUtil.html#a6b0bb7a6fc3b0dcfcf22a3a00bb05a65" target="_top" xlink:title="GlobalUtil::StopTimer">
<polygon fill="white" stroke="black" points="142,-38.5 142,-57.5 252,-57.5 252,-38.5 142,-38.5"/>
<text text-anchor="middle" x="197" y="-45.5" font-family="Helvetica,sans-Serif" font-size="10.00">GlobalUtil::StopTimer</text>
</a>
</g>
</g>
<!-- Node1&#45;&gt;Node7 -->
<g id="edge6" class="edge"><title>Node1&#45;&gt;Node7</title>
<path fill="none" stroke="midnightblue" d="M99.6863,-60.6204C109.974,-59.2724 120.981,-57.8301 131.742,-56.42"/>
<polygon fill="midnightblue" stroke="midnightblue" points="132.493,-59.8516 141.953,-55.082 131.583,-52.911 132.493,-59.8516"/>
</g>
<!-- Node10 -->
<g id="node10" class="node"><title>Node10</title>
<g id="a_node10"><a xlink:href="../../d2/d55/classGlobalUtil.html#a4d0d910aba3a7cffc91c07ee8377f012" target="_top" xlink:title="GlobalUtil::GetElapsedTime">
<polygon fill="white" stroke="black" points="294,-0.5 294,-19.5 432,-19.5 432,-0.5 294,-0.5"/>
<text text-anchor="middle" x="363" y="-7.5" font-family="Helvetica,sans-Serif" font-size="10.00">GlobalUtil::GetElapsedTime</text>
</a>
</g>
</g>
<!-- Node1&#45;&gt;Node10 -->
<g id="edge10" class="edge"><title>Node1&#45;&gt;Node10</title>
<path fill="none" stroke="midnightblue" d="M67.9589,-57.3586C84.6861,-48.3532 111.268,-35.3716 136,-29 184.109,-16.6061 239.693,-11.8138 283.699,-10.1407"/>
<polygon fill="midnightblue" stroke="midnightblue" points="283.885,-13.6365 293.762,-9.80436 283.651,-6.64042 283.885,-13.6365"/>
</g>
<!-- Node3 -->
<g id="node3" class="node"><title>Node3</title>
<g id="a_node3"><a xlink:href="../../da/d33/glew_8h.html#a1beaf822e5a901dc3fe429b68efb77d4" target="_top" xlink:title="glEnable">
<polygon fill="white" stroke="black" points="336,-114.5 336,-133.5 390,-133.5 390,-114.5 336,-114.5"/>
<text text-anchor="middle" x="363" y="-121.5" font-family="Helvetica,sans-Serif" font-size="10.00">glEnable</text>
</a>
</g>
</g>
<!-- Node2&#45;&gt;Node3 -->
<g id="edge2" class="edge"><title>Node2&#45;&gt;Node3</title>
<path fill="none" stroke="midnightblue" d="M258.136,-124C280.763,-124 305.787,-124 325.601,-124"/>
<polygon fill="midnightblue" stroke="midnightblue" points="325.736,-127.5 335.736,-124 325.736,-120.5 325.736,-127.5"/>
</g>
<!-- Node5 -->
<g id="node5" class="node"><title>Node5</title>
<g id="a_node5"><a xlink:href="../../d9/d98/classClockTimer.html#a21afd83f68d30c08892743115f6ea9cd" target="_top" xlink:title="ClockTimer::StartTimer">
<polygon fill="white" stroke="black" points="303.5,-76.5 303.5,-95.5 422.5,-95.5 422.5,-76.5 303.5,-76.5"/>
<text text-anchor="middle" x="363" y="-83.5" font-family="Helvetica,sans-Serif" font-size="10.00">ClockTimer::StartTimer</text>
</a>
</g>
</g>
<!-- Node4&#45;&gt;Node5 -->
<g id="edge4" class="edge"><title>Node4&#45;&gt;Node5</title>
<path fill="none" stroke="midnightblue" d="M252.61,-86C265.604,-86 279.635,-86 293.173,-86"/>
<polygon fill="midnightblue" stroke="midnightblue" points="293.406,-89.5001 303.405,-86 293.405,-82.5001 293.406,-89.5001"/>
</g>
<!-- Node6 -->
<g id="node6" class="node"><title>Node6</title>
<g id="a_node6"><a xlink:href="../../d9/d98/classClockTimer.html#a23cf363d1025bb1a93951d9ccdabc639" target="_top" xlink:title="ClockTimer::ClockMS">
<polygon fill="white" stroke="black" points="484.5,-57.5 484.5,-76.5 597.5,-76.5 597.5,-57.5 484.5,-57.5"/>
<text text-anchor="middle" x="541" y="-64.5" font-family="Helvetica,sans-Serif" font-size="10.00">ClockTimer::ClockMS</text>
</a>
</g>
</g>
<!-- Node5&#45;&gt;Node6 -->
<g id="edge5" class="edge"><title>Node5&#45;&gt;Node6</title>
<path fill="none" stroke="midnightblue" d="M422.605,-79.6733C439.085,-77.8943 457.118,-75.9475 473.997,-74.1253"/>
<polygon fill="midnightblue" stroke="midnightblue" points="474.767,-77.5627 484.333,-73.0095 474.015,-70.6031 474.767,-77.5627"/>
</g>
<!-- Node8 -->
<g id="node8" class="node"><title>Node8</title>
<g id="a_node8"><a xlink:href="../../d9/d98/classClockTimer.html#a7506d8fad1473bf4f3bdfb9e8590a6c3" target="_top" xlink:title="ClockTimer::StopTimer">
<polygon fill="white" stroke="black" points="304,-38.5 304,-57.5 422,-57.5 422,-38.5 304,-38.5"/>
<text text-anchor="middle" x="363" y="-45.5" font-family="Helvetica,sans-Serif" font-size="10.00">ClockTimer::StopTimer</text>
</a>
</g>
</g>
<!-- Node7&#45;&gt;Node8 -->
<g id="edge7" class="edge"><title>Node7&#45;&gt;Node8</title>
<path fill="none" stroke="midnightblue" d="M252.154,-48C265.518,-48 280.001,-48 293.932,-48"/>
<polygon fill="midnightblue" stroke="midnightblue" points="293.954,-51.5001 303.954,-48 293.954,-44.5001 293.954,-51.5001"/>
</g>
<!-- Node8&#45;&gt;Node6 -->
<g id="edge8" class="edge"><title>Node8&#45;&gt;Node6</title>
<path fill="none" stroke="midnightblue" d="M422.117,-54.274C438.7,-56.0642 456.89,-58.0279 473.912,-59.8655"/>
<polygon fill="midnightblue" stroke="midnightblue" points="474.017,-63.3971 484.335,-60.9907 474.769,-56.4376 474.017,-63.3971"/>
</g>
<!-- Node9 -->
<g id="node9" class="node"><title>Node9</title>
<g id="a_node9"><a xlink:href="../../d9/d98/classClockTimer.html#a5a6919057a81f4843619032cab692091" target="_top" xlink:title="ClockTimer::GetElapsedTime">
<polygon fill="white" stroke="black" points="468,-19.5 468,-38.5 614,-38.5 614,-19.5 468,-19.5"/>
<text text-anchor="middle" x="541" y="-26.5" font-family="Helvetica,sans-Serif" font-size="10.00">ClockTimer::GetElapsedTime</text>
</a>
</g>
</g>
<!-- Node8&#45;&gt;Node9 -->
<g id="edge9" class="edge"><title>Node8&#45;&gt;Node9</title>
<path fill="none" stroke="midnightblue" d="M422.117,-41.726C433.537,-40.4931 445.72,-39.1779 457.759,-37.8783"/>
<polygon fill="midnightblue" stroke="midnightblue" points="458.25,-41.3457 467.817,-36.7925 457.499,-34.3861 458.25,-41.3457"/>
</g>
<!-- Node10&#45;&gt;Node9 -->
<g id="edge11" class="edge"><title>Node10&#45;&gt;Node9</title>
<path fill="none" stroke="midnightblue" d="M432.046,-17.3459C440.459,-18.2541 449.128,-19.19 457.724,-20.118"/>
<polygon fill="midnightblue" stroke="midnightblue" points="457.444,-23.608 467.762,-21.2016 458.196,-16.6484 457.444,-23.608"/>
</g>
</g>
</svg>
        <g id="navigator" transform="translate(0 0)" fill="#404254">
                <rect fill="#f2f5e9" fill-opacity="0.5" stroke="#606060" stroke-width=".5" x="0" y="0" width="60" height="60"/>
                <use id="zoomplus" xlink:href="#zoomPlus" x="17" y="9" onmousedown="handleZoom(evt,'in')"/>
                <use id="zoomminus" xlink:href="#zoomMin" x="42" y="9" onmousedown="handleZoom(evt,'out')"/>
                <use id="reset" xlink:href="#resetDef" x="30" y="36" onmousedown="handleReset()"/>
                <g id="arrowUp" xlink:href="#dirArrow" transform="translate(30 24)" onmousedown="handlePan(0,-1)">
                  <use xlink:href="#rim" fill="#404040">
                        <set attributeName="fill" to="#808080" begin="arrowUp.mouseover" end="arrowUp.mouseout"/>
                  </use>
                  <path fill="none" stroke="white" stroke-width="1.5" d="M0,-3.0v7 M-2.5,-0.5L0,-3.0L2.5,-0.5"/>
                </g>
                <g id="arrowRight" xlink:href="#dirArrow" transform="rotate(90) translate(36 -43)" onmousedown="handlePan(1,0)">
                  <use xlink:href="#rim" fill="#404040">
                        <set attributeName="fill" to="#808080" begin="arrowRight.mouseover" end="arrowRight.mouseout"/>
                  </use>
                  <path fill="none" stroke="white" stroke-width="1.5" d="M0,-3.0v7 M-2.5,-0.5L0,-3.0L2.5,-0.5"/>
                </g>
                <g id="arrowDown" xlink:href="#dirArrow" transform="rotate(180) translate(-30 -48)" onmousedown="handlePan(0,1)">
                  <use xlink:href="#rim" fill="#404040">
                        <set attributeName="fill" to="#808080" begin="arrowDown.mouseover" end="arrowDown.mouseout"/>
                  </use>
                  <path fill="none" stroke="white" stroke-width="1.5" d="M0,-3.0v7 M-2.5,-0.5L0,-3.0L2.5,-0.5"/>
                </g>
                <g id="arrowLeft" xlink:href="#dirArrow" transform="rotate(270) translate(-36 17)" onmousedown="handlePan(-1,0)">
                  <use xlink:href="#rim" fill="#404040">
                        <set attributeName="fill" to="#808080" begin="arrowLeft.mouseover" end="arrowLeft.mouseout"/>
                  </use>
                  <path fill="none" stroke="white" stroke-width="1.5" d="M0,-3.0v7 M-2.5,-0.5L0,-3.0L2.5,-0.5"/>
                </g>
        </g>
        <svg viewBox="0 0 15 15" width="100%" height="30px" preserveAspectRatio="xMaxYMin meet">
         <g id="arrow_out" transform="scale(0.3 0.3)">
          <a xlink:href="classSiftGPU_acc157d8bdfb0cd90cc1119c9df3a1f57_cgraph_org.svg" target="_base">
           <rect id="button" ry="5" rx="5" y="6" x="6" height="38" width="38"
                fill="#f2f5e9" fill-opacity="0.5" stroke="#606060" stroke-width="1.0"/>
           <path id="arrow"
             d="M 11.500037,31.436501 C 11.940474,20.09759 22.043105,11.32322 32.158766,21.979434 L 37.068811,17.246167 C 37.068811,17.246167 37.088388,32 37.088388,32 L 22.160133,31.978069 C 22.160133,31.978069 26.997745,27.140456 26.997745,27.140456 C 18.528582,18.264221 13.291696,25.230495 11.500037,31.436501 z"
             style="fill:#404040;"/>
          </a>
         </g>
        </svg>
</svg>
