<?xml version="1.0" encoding="UTF-8" standalone="no"?>
<!DOCTYPE svg PUBLIC "-//W3C//DTD SVG 1.1//EN"
 "http://www.w3.org/Graphics/SVG/1.1/DTD/svg11.dtd">
<!-- Generated by graphviz version 2.36.0 (20140111.2315)
 -->
<!-- Title: SiftGPU::InitSiftGPU Pages: 1 -->
<svg width="684pt" height="408pt"
 viewBox="0.00 0.00 684.00 408.00" xmlns="http://www.w3.org/2000/svg" xmlns:xlink="http://www.w3.org/1999/xlink">
<g id="graph0" class="graph" transform="scale(1 1) rotate(0) translate(4 404)">
<title>SiftGPU::InitSiftGPU</title>
<polygon fill="white" stroke="none" points="-4,4 -4,-404 680,-404 680,4 -4,4"/>
<!-- Node1 -->
<g id="node1" class="node"><title>Node1</title>
<polygon fill="#bfbfbf" stroke="black" points="0,-57.5 0,-76.5 110,-76.5 110,-57.5 0,-57.5"/>
<text text-anchor="middle" x="55" y="-64.5" font-family="Helvetica,sans-Serif" font-size="10.00">SiftGPU::InitSiftGPU</text>
</g>
<!-- Node2 -->
<g id="node2" class="node"><title>Node2</title>
<g id="a_node2"><a xlink:href="../../d2/d55/classGlobalUtil.html#abfcfe44b5171cff8fb899908809e545e" target="_top" xlink:title="GlobalUtil::InitGLParam">
<polygon fill="white" stroke="black" points="163,-228.5 163,-247.5 283,-247.5 283,-228.5 163,-228.5"/>
<text text-anchor="middle" x="223" y="-235.5" font-family="Helvetica,sans-Serif" font-size="10.00">GlobalUtil::InitGLParam</text>
</a>
</g>
</g>
<!-- Node1&#45;&gt;Node2 -->
<g id="edge1" class="edge"><title>Node1&#45;&gt;Node2</title>
<path fill="none" stroke="midnightblue" d="M65.4005,-76.6837C92.5639,-104.665 171.405,-185.881 205.722,-221.232"/>
<polygon fill="midnightblue" stroke="midnightblue" points="203.226,-223.685 212.703,-228.423 208.249,-218.809 203.226,-223.685"/>
</g>
<!-- Node13 -->
<g id="node13" class="node"><title>Node13</title>
<g id="a_node13"><a xlink:href="../../d2/d55/classGlobalUtil.html#aaa5ebd526dfe13eb5eb61fee67c75a10" target="_top" xlink:title="GlobalUtil::StartTimer">
<polygon fill="white" stroke="black" points="167.5,-76.5 167.5,-95.5 278.5,-95.5 278.5,-76.5 167.5,-76.5"/>
<text text-anchor="middle" x="223" y="-83.5" font-family="Helvetica,sans-Serif" font-size="10.00">GlobalUtil::StartTimer</text>
</a>
</g>
</g>
<!-- Node1&#45;&gt;Node13 -->
<g id="edge12" class="edge"><title>Node1&#45;&gt;Node13</title>
<path fill="none" stroke="midnightblue" d="M110.355,-73.2213C125.325,-74.9348 141.712,-76.8104 157.208,-78.5841"/>
<polygon fill="midnightblue" stroke="midnightblue" points="156.906,-82.0723 167.239,-79.7322 157.702,-75.1177 156.906,-82.0723"/>
</g>
<!-- Node16 -->
<g id="node16" class="node"><title>Node16</title>
<g id="a_node16"><a xlink:href="../../d2/d55/classGlobalUtil.html#a6b0bb7a6fc3b0dcfcf22a3a00bb05a65" target="_top" xlink:title="GlobalUtil::StopTimer">
<polygon fill="white" stroke="black" points="168,-38.5 168,-57.5 278,-57.5 278,-38.5 168,-38.5"/>
<text text-anchor="middle" x="223" y="-45.5" font-family="Helvetica,sans-Serif" font-size="10.00">GlobalUtil::StopTimer</text>
</a>
</g>
</g>
<!-- Node1&#45;&gt;Node16 -->
<g id="edge15" class="edge"><title>Node1&#45;&gt;Node16</title>
<path fill="none" stroke="midnightblue" d="M110.355,-60.7787C125.48,-59.0475 142.052,-57.1507 157.69,-55.3608"/>
<polygon fill="midnightblue" stroke="midnightblue" points="158.27,-58.8174 167.807,-54.2028 157.474,-51.8628 158.27,-58.8174"/>
</g>
<!-- Node19 -->
<g id="node19" class="node"><title>Node19</title>
<g id="a_node19"><a xlink:href="../../d9/d98/classClockTimer.html#a3fd5435068dfdabd946d243e3b5434fd" target="_top" xlink:title="ClockTimer::InitHighResolution">
<polygon fill="white" stroke="black" points="146.5,-0.5 146.5,-19.5 299.5,-19.5 299.5,-0.5 146.5,-0.5"/>
<text text-anchor="middle" x="223" y="-7.5" font-family="Helvetica,sans-Serif" font-size="10.00">ClockTimer::InitHighResolution</text>
</a>
</g>
</g>
<!-- Node1&#45;&gt;Node19 -->
<g id="edge19" class="edge"><title>Node1&#45;&gt;Node19</title>
<path fill="none" stroke="midnightblue" d="M76.0304,-57.4868C94.046,-49.1865 121.386,-37.2183 146,-29 153.438,-26.5166 161.381,-24.1881 169.223,-22.0706"/>
<polygon fill="midnightblue" stroke="midnightblue" points="170.265,-25.416 179.058,-19.5056 168.499,-18.6425 170.265,-25.416"/>
</g>
<!-- Node3 -->
<g id="node3" class="node"><title>Node3</title>
<g id="a_node3"><a xlink:href="../../da/d33/glew_8h.html#a60f638ea2b56ff27509779faf093e3e7" target="_top" xlink:title="glewInit">
<polygon fill="white" stroke="black" points="390,-380.5 390,-399.5 440,-399.5 440,-380.5 390,-380.5"/>
<text text-anchor="middle" x="415" y="-387.5" font-family="Helvetica,sans-Serif" font-size="10.00">glewInit</text>
</a>
</g>
</g>
<!-- Node2&#45;&gt;Node3 -->
<g id="edge2" class="edge"><title>Node2&#45;&gt;Node3</title>
<path fill="none" stroke="midnightblue" d="M229.302,-247.85C243.223,-272.723 283.403,-338.395 336,-371 349.155,-379.155 365.574,-383.81 379.95,-386.467"/>
<polygon fill="midnightblue" stroke="midnightblue" points="379.554,-389.948 389.981,-388.07 380.659,-383.036 379.554,-389.948"/>
</g>
<!-- Node4 -->
<g id="node4" class="node"><title>Node4</title>
<g id="a_node4"><a xlink:href="../../da/d33/glew_8h.html#aec433a2092e9179b6f66af1a822adf30" target="_top" xlink:title="glGetString">
<polygon fill="white" stroke="black" points="382.5,-342.5 382.5,-361.5 447.5,-361.5 447.5,-342.5 382.5,-342.5"/>
<text text-anchor="middle" x="415" y="-349.5" font-family="Helvetica,sans-Serif" font-size="10.00">glGetString</text>
</a>
</g>
</g>
<!-- Node2&#45;&gt;Node4 -->
<g id="edge3" class="edge"><title>Node2&#45;&gt;Node4</title>
<path fill="none" stroke="midnightblue" d="M232.501,-247.767C249.903,-267.123 291.699,-310.43 336,-333 347.255,-338.734 360.316,-342.789 372.494,-345.636"/>
<polygon fill="midnightblue" stroke="midnightblue" points="371.948,-349.098 382.457,-347.753 373.403,-342.251 371.948,-349.098"/>
</g>
<!-- Node5 -->
<g id="node5" class="node"><title>Node5</title>
<g id="a_node5"><a xlink:href="../../da/d33/glew_8h.html#a3d84341b1f876ac61065fef3f5933ff7" target="_top" xlink:title="glewGetExtension">
<polygon fill="white" stroke="black" points="367,-304.5 367,-323.5 463,-323.5 463,-304.5 367,-304.5"/>
<text text-anchor="middle" x="415" y="-311.5" font-family="Helvetica,sans-Serif" font-size="10.00">glewGetExtension</text>
</a>
</g>
</g>
<!-- Node2&#45;&gt;Node5 -->
<g id="edge4" class="edge"><title>Node2&#45;&gt;Node5</title>
<path fill="none" stroke="midnightblue" d="M239.79,-247.524C261.006,-259.969 300.198,-281.734 336,-295 342.829,-297.53 350.119,-299.819 357.398,-301.86"/>
<polygon fill="midnightblue" stroke="midnightblue" points="356.71,-305.298 367.273,-304.488 358.51,-298.534 356.71,-305.298"/>
</g>
<!-- Node6 -->
<g id="node6" class="node"><title>Node6</title>
<g id="a_node6"><a xlink:href="../../da/d33/glew_8h.html#ae9ebc290561b3321b629610807155a35" target="_top" xlink:title="glGetIntegerv">
<polygon fill="white" stroke="black" points="377.5,-266.5 377.5,-285.5 452.5,-285.5 452.5,-266.5 377.5,-266.5"/>
<text text-anchor="middle" x="415" y="-273.5" font-family="Helvetica,sans-Serif" font-size="10.00">glGetIntegerv</text>
</a>
</g>
</g>
<!-- Node2&#45;&gt;Node6 -->
<g id="edge5" class="edge"><title>Node2&#45;&gt;Node6</title>
<path fill="none" stroke="midnightblue" d="M271.945,-247.589C301.25,-253.45 338.547,-260.909 367.57,-266.714"/>
<polygon fill="midnightblue" stroke="midnightblue" points="366.972,-270.164 377.465,-268.693 368.345,-263.3 366.972,-270.164"/>
</g>
<!-- Node7 -->
<g id="node7" class="node"><title>Node7</title>
<g id="a_node7"><a xlink:href="../../da/d33/glew_8h.html#a1beaf822e5a901dc3fe429b68efb77d4" target="_top" xlink:title="glEnable">
<polygon fill="white" stroke="black" points="388,-228.5 388,-247.5 442,-247.5 442,-228.5 388,-228.5"/>
<text text-anchor="middle" x="415" y="-235.5" font-family="Helvetica,sans-Serif" font-size="10.00">glEnable</text>
</a>
</g>
</g>
<!-- Node2&#45;&gt;Node7 -->
<g id="edge6" class="edge"><title>Node2&#45;&gt;Node7</title>
<path fill="none" stroke="midnightblue" d="M283.076,-238C314.042,-238 350.981,-238 377.715,-238"/>
<polygon fill="midnightblue" stroke="midnightblue" points="377.784,-241.5 387.784,-238 377.784,-234.5 377.784,-241.5"/>
</g>
<!-- Node8 -->
<g id="node8" class="node"><title>Node8</title>
<g id="a_node8"><a xlink:href="../../da/d33/glew_8h.html#af1e3a750be50d9edd85f0fe49a6fe4a0" target="_top" xlink:title="glShadeModel">
<polygon fill="white" stroke="black" points="376,-190.5 376,-209.5 454,-209.5 454,-190.5 376,-190.5"/>
<text text-anchor="middle" x="415" y="-197.5" font-family="Helvetica,sans-Serif" font-size="10.00">glShadeModel</text>
</a>
</g>
</g>
<!-- Node2&#45;&gt;Node8 -->
<g id="edge7" class="edge"><title>Node2&#45;&gt;Node8</title>
<path fill="none" stroke="midnightblue" d="M271.945,-228.411C300.758,-222.648 337.298,-215.34 366.103,-209.579"/>
<polygon fill="midnightblue" stroke="midnightblue" points="366.824,-213.005 375.943,-207.611 365.451,-206.141 366.824,-213.005"/>
</g>
<!-- Node9 -->
<g id="node9" class="node"><title>Node9</title>
<g id="a_node9"><a xlink:href="../../da/d33/glew_8h.html#a5e3f489d997350749919a24247a8203b" target="_top" xlink:title="glPolygonMode">
<polygon fill="white" stroke="black" points="373.5,-152.5 373.5,-171.5 456.5,-171.5 456.5,-152.5 373.5,-152.5"/>
<text text-anchor="middle" x="415" y="-159.5" font-family="Helvetica,sans-Serif" font-size="10.00">glPolygonMode</text>
</a>
</g>
</g>
<!-- Node2&#45;&gt;Node9 -->
<g id="edge8" class="edge"><title>Node2&#45;&gt;Node9</title>
<path fill="none" stroke="midnightblue" d="M239.79,-228.476C261.006,-216.031 300.198,-194.266 336,-181 344.734,-177.764 354.223,-174.922 363.479,-172.49"/>
<polygon fill="midnightblue" stroke="midnightblue" points="364.531,-175.835 373.383,-170.012 362.832,-169.044 364.531,-175.835"/>
</g>
<!-- Node10 -->
<g id="node10" class="node"><title>Node10</title>
<g id="a_node10"><a xlink:href="../../d2/d55/classGlobalUtil.html#ac91a1662f96ce5d1829dbb91db81be10" target="_top" xlink:title="GlobalUtil::SetTextureParameter">
<polygon fill="white" stroke="black" points="336,-114.5 336,-133.5 494,-133.5 494,-114.5 336,-114.5"/>
<text text-anchor="middle" x="415" y="-121.5" font-family="Helvetica,sans-Serif" font-size="10.00">GlobalUtil::SetTextureParameter</text>
</a>
</g>
</g>
<!-- Node2&#45;&gt;Node10 -->
<g id="edge9" class="edge"><title>Node2&#45;&gt;Node10</title>
<path fill="none" stroke="midnightblue" d="M232.501,-228.233C249.903,-208.877 291.699,-165.57 336,-143 340.616,-140.648 345.537,-138.579 350.575,-136.759"/>
<polygon fill="midnightblue" stroke="midnightblue" points="351.944,-139.994 360.362,-133.56 349.769,-133.34 351.944,-139.994"/>
</g>
<!-- Node11 -->
<g id="node11" class="node"><title>Node11</title>
<g id="a_node11"><a xlink:href="../../da/d33/glew_8h.html#ac8dbabff536e520bc700960dadd8d787" target="_top" xlink:title="glTexParameteri">
<polygon fill="white" stroke="black" points="559,-152.5 559,-171.5 647,-171.5 647,-152.5 559,-152.5"/>
<text text-anchor="middle" x="603" y="-159.5" font-family="Helvetica,sans-Serif" font-size="10.00">glTexParameteri</text>
</a>
</g>
</g>
<!-- Node10&#45;&gt;Node11 -->
<g id="edge10" class="edge"><title>Node10&#45;&gt;Node11</title>
<path fill="none" stroke="midnightblue" d="M462.936,-133.589C489.083,-138.931 521.729,-145.601 548.819,-151.135"/>
<polygon fill="midnightblue" stroke="midnightblue" points="548.406,-154.623 558.904,-153.195 549.807,-147.765 548.406,-154.623"/>
</g>
<!-- Node12 -->
<g id="node12" class="node"><title>Node12</title>
<g id="a_node12"><a xlink:href="../../da/d33/glew_8h.html#a414668e7628d609ce501994bd609bfdf" target="_top" xlink:title="glTexEnvi">
<polygon fill="white" stroke="black" points="573,-114.5 573,-133.5 633,-133.5 633,-114.5 573,-114.5"/>
<text text-anchor="middle" x="603" y="-121.5" font-family="Helvetica,sans-Serif" font-size="10.00">glTexEnvi</text>
</a>
</g>
</g>
<!-- Node10&#45;&gt;Node12 -->
<g id="edge11" class="edge"><title>Node10&#45;&gt;Node12</title>
<path fill="none" stroke="midnightblue" d="M494.072,-124C517.668,-124 542.58,-124 562.518,-124"/>
<polygon fill="midnightblue" stroke="midnightblue" points="562.749,-127.5 572.749,-124 562.749,-120.5 562.749,-127.5"/>
</g>
<!-- Node14 -->
<g id="node14" class="node"><title>Node14</title>
<g id="a_node14"><a xlink:href="../../d9/d98/classClockTimer.html#a21afd83f68d30c08892743115f6ea9cd" target="_top" xlink:title="ClockTimer::StartTimer">
<polygon fill="white" stroke="black" points="355.5,-76.5 355.5,-95.5 474.5,-95.5 474.5,-76.5 355.5,-76.5"/>
<text text-anchor="middle" x="415" y="-83.5" font-family="Helvetica,sans-Serif" font-size="10.00">ClockTimer::StartTimer</text>
</a>
</g>
</g>
<!-- Node13&#45;&gt;Node14 -->
<g id="edge13" class="edge"><title>Node13&#45;&gt;Node14</title>
<path fill="none" stroke="midnightblue" d="M278.701,-86C299.427,-86 323.295,-86 345.158,-86"/>
<polygon fill="midnightblue" stroke="midnightblue" points="345.374,-89.5001 355.374,-86 345.374,-82.5001 345.374,-89.5001"/>
</g>
<!-- Node15 -->
<g id="node15" class="node"><title>Node15</title>
<g id="a_node15"><a xlink:href="../../d9/d98/classClockTimer.html#a23cf363d1025bb1a93951d9ccdabc639" target="_top" xlink:title="ClockTimer::ClockMS">
<polygon fill="white" stroke="black" points="546.5,-76.5 546.5,-95.5 659.5,-95.5 659.5,-76.5 546.5,-76.5"/>
<text text-anchor="middle" x="603" y="-83.5" font-family="Helvetica,sans-Serif" font-size="10.00">ClockTimer::ClockMS</text>
</a>
</g>
</g>
<!-- Node14&#45;&gt;Node15 -->
<g id="edge14" class="edge"><title>Node14&#45;&gt;Node15</title>
<path fill="none" stroke="midnightblue" d="M474.596,-86C494.182,-86 516.137,-86 536.231,-86"/>
<polygon fill="midnightblue" stroke="midnightblue" points="536.237,-89.5001 546.237,-86 536.237,-82.5001 536.237,-89.5001"/>
</g>
<!-- Node17 -->
<g id="node17" class="node"><title>Node17</title>
<g id="a_node17"><a xlink:href="../../d9/d98/classClockTimer.html#a7506d8fad1473bf4f3bdfb9e8590a6c3" target="_top" xlink:title="ClockTimer::StopTimer">
<polygon fill="white" stroke="black" points="356,-38.5 356,-57.5 474,-57.5 474,-38.5 356,-38.5"/>
<text text-anchor="middle" x="415" y="-45.5" font-family="Helvetica,sans-Serif" font-size="10.00">ClockTimer::StopTimer</text>
</a>
</g>
</g>
<!-- Node16&#45;&gt;Node17 -->
<g id="edge16" class="edge"><title>Node16&#45;&gt;Node17</title>
<path fill="none" stroke="midnightblue" d="M278.192,-48C299.213,-48 323.525,-48 345.72,-48"/>
<polygon fill="midnightblue" stroke="midnightblue" points="345.749,-51.5001 355.749,-48 345.748,-44.5001 345.749,-51.5001"/>
</g>
<!-- Node17&#45;&gt;Node15 -->
<g id="edge17" class="edge"><title>Node17&#45;&gt;Node15</title>
<path fill="none" stroke="midnightblue" d="M462.936,-57.589C488.033,-62.7165 519.119,-69.0672 545.53,-74.4632"/>
<polygon fill="midnightblue" stroke="midnightblue" points="544.904,-77.9074 555.402,-76.4799 546.305,-71.049 544.904,-77.9074"/>
</g>
<!-- Node18 -->
<g id="node18" class="node"><title>Node18</title>
<g id="a_node18"><a xlink:href="../../d9/d98/classClockTimer.html#a5a6919057a81f4843619032cab692091" target="_top" xlink:title="ClockTimer::GetElapsedTime">
<polygon fill="white" stroke="black" points="530,-38.5 530,-57.5 676,-57.5 676,-38.5 530,-38.5"/>
<text text-anchor="middle" x="603" y="-45.5" font-family="Helvetica,sans-Serif" font-size="10.00">ClockTimer::GetElapsedTime</text>
</a>
</g>
</g>
<!-- Node17&#45;&gt;Node18 -->
<g id="edge18" class="edge"><title>Node17&#45;&gt;Node18</title>
<path fill="none" stroke="midnightblue" d="M474.086,-48C488.601,-48 504.443,-48 519.88,-48"/>
<polygon fill="midnightblue" stroke="midnightblue" points="519.947,-51.5001 529.947,-48 519.947,-44.5001 519.947,-51.5001"/>
</g>
</g>
</svg>
