<?xml version="1.0" encoding="UTF-8" standalone="no"?>
<!DOCTYPE svg PUBLIC "-//W3C//DTD SVG 1.1//EN"
 "http://www.w3.org/Graphics/SVG/1.1/DTD/svg11.dtd">
<!-- Generated by graphviz version 2.36.0 (20140111.2315)
 -->
<!-- Title: SiftGPU::ParseParam Pages: 1 -->
<svg width="360pt" height="28pt"
 viewBox="0.00 0.00 360.00 28.00" xmlns="http://www.w3.org/2000/svg" xmlns:xlink="http://www.w3.org/1999/xlink">
<g id="graph0" class="graph" transform="scale(1 1) rotate(0) translate(4 24)">
<title>SiftGPU::ParseParam</title>
<polygon fill="white" stroke="none" points="-4,4 -4,-24 356,-24 356,4 -4,4"/>
<!-- Node1 -->
<g id="node1" class="node"><title>Node1</title>
<polygon fill="#bfbfbf" stroke="black" points="0.5,-0.5 0.5,-19.5 113.5,-19.5 113.5,-0.5 0.5,-0.5"/>
<text text-anchor="middle" x="57" y="-7.5" font-family="Helvetica,sans-Serif" font-size="10.00">SiftGPU::ParseParam</text>
</g>
<!-- Node2 -->
<g id="node2" class="node"><title>Node2</title>
<g id="a_node2"><a xlink:href="../../d2/d55/classGlobalUtil.html#a22689de5e558d891c11c8fec2e5c2931" target="_top" xlink:title="GlobalUtil::SelectDisplay">
<polygon fill="white" stroke="black" points="150,-0.5 150,-19.5 276,-19.5 276,-0.5 150,-0.5"/>
<text text-anchor="middle" x="213" y="-7.5" font-family="Helvetica,sans-Serif" font-size="10.00">GlobalUtil::SelectDisplay</text>
</a>
</g>
</g>
<!-- Node1&#45;&gt;Node2 -->
<g id="edge1" class="edge"><title>Node1&#45;&gt;Node2</title>
<path fill="none" stroke="midnightblue" d="M113.598,-10C122.081,-10 130.941,-10 139.719,-10"/>
<polygon fill="midnightblue" stroke="midnightblue" points="139.959,-13.5001 149.959,-10 139.959,-6.5001 139.959,-13.5001"/>
</g>
<!-- Node3 -->
<g id="node3" class="node"><title>Node3</title>
<g id="a_node3"><a xlink:href="../../db/d82/wglew_8h.html#a7b84f5391331438359747d138a86ffe3" target="_top" xlink:title="HDC">
<polygon fill="white" stroke="black" points="312.5,-0.5 312.5,-19.5 351.5,-19.5 351.5,-0.5 312.5,-0.5"/>
<text text-anchor="middle" x="332" y="-7.5" font-family="Helvetica,sans-Serif" font-size="10.00">HDC</text>
</a>
</g>
</g>
<!-- Node2&#45;&gt;Node3 -->
<g id="edge2" class="edge"><title>Node2&#45;&gt;Node3</title>
<path fill="none" stroke="midnightblue" d="M276.268,-10C285.273,-10 294.158,-10 302.065,-10"/>
<polygon fill="midnightblue" stroke="midnightblue" points="302.161,-13.5001 312.161,-10 302.161,-6.5001 302.161,-13.5001"/>
</g>
</g>
</svg>
