<?xml version="1.0" encoding="UTF-8" standalone="no"?>
<!DOCTYPE svg PUBLIC "-//W3C//DTD SVG 1.1//EN"
 "http://www.w3.org/Graphics/SVG/1.1/DTD/svg11.dtd">
<!-- Generated by graphviz version 2.36.0 (20140111.2315)
 -->
<!-- Title: lsd_slam_core::LSDDebugParamsConfig::GroupDescription&lt; T, PT &gt; Pages: 1 -->
<svg width="174pt" height="420pt"
 viewBox="0.00 0.00 174.00 420.00" xmlns="http://www.w3.org/2000/svg" xmlns:xlink="http://www.w3.org/1999/xlink">
<g id="graph0" class="graph" transform="scale(1 1) rotate(0) translate(4 416)">
<title>lsd_slam_core::LSDDebugParamsConfig::GroupDescription&lt; T, PT &gt;</title>
<polygon fill="white" stroke="none" points="-4,4 -4,-416 170,-416 170,4 -4,4"/>
<!-- Node1 -->
<g id="node1" class="node"><title>Node1</title>
<polygon fill="#bfbfbf" stroke="black" points="-0.5,-0.5 -0.5,-145.5 166.5,-145.5 166.5,-0.5 -0.5,-0.5"/>
<text text-anchor="start" x="7.5" y="-133.5" font-family="Helvetica,sans-Serif" font-size="10.00">lsd_slam_core::LSDDebugParams</text>
<text text-anchor="start" x="7.5" y="-122.5" font-family="Helvetica,sans-Serif" font-size="10.00">Config::GroupDescription</text>
<text text-anchor="middle" x="83" y="-111.5" font-family="Helvetica,sans-Serif" font-size="10.00">&lt; T, PT &gt;</text>
<polyline fill="none" stroke="black" points="-0.5,-104.5 166.5,-104.5 "/>
<text text-anchor="start" x="7.5" y="-92.5" font-family="Helvetica,sans-Serif" font-size="10.00">+ field</text>
<text text-anchor="start" x="7.5" y="-81.5" font-family="Helvetica,sans-Serif" font-size="10.00">+ groups</text>
<polyline fill="none" stroke="black" points="-0.5,-74.5 166.5,-74.5 "/>
<text text-anchor="start" x="7.5" y="-62.5" font-family="Helvetica,sans-Serif" font-size="10.00">+ GroupDescription()</text>
<text text-anchor="start" x="7.5" y="-51.5" font-family="Helvetica,sans-Serif" font-size="10.00">+ GroupDescription()</text>
<text text-anchor="start" x="7.5" y="-40.5" font-family="Helvetica,sans-Serif" font-size="10.00">+ fromMessage()</text>
<text text-anchor="start" x="7.5" y="-29.5" font-family="Helvetica,sans-Serif" font-size="10.00">+ setInitialState()</text>
<text text-anchor="start" x="7.5" y="-18.5" font-family="Helvetica,sans-Serif" font-size="10.00">+ updateParams()</text>
<text text-anchor="start" x="7.5" y="-7.5" font-family="Helvetica,sans-Serif" font-size="10.00">+ toMessage()</text>
</g>
<!-- Node2 -->
<g id="node2" class="node"><title>Node2</title>
<g id="a_node2"><a xlink:href="../../d0/d26/classlsd__slam__core_1_1LSDDebugParamsConfig_1_1AbstractGroupDescription.html" target="_top" xlink:title="{lsd_slam_core::LSDDebugParams\lConfig::AbstractGroupDescription\n|+ abstract_parameters\l+ state\l|+ AbstractGroupDescription()\l+ toMessage()\l+ fromMessage()\l+ updateParams()\l+ setInitialState()\l+ convertParams()\l}">
<polygon fill="white" stroke="black" points="-0.5,-183 -0.5,-317 166.5,-317 166.5,-183 -0.5,-183"/>
<text text-anchor="start" x="7.5" y="-305" font-family="Helvetica,sans-Serif" font-size="10.00">lsd_slam_core::LSDDebugParams</text>
<text text-anchor="middle" x="83" y="-294" font-family="Helvetica,sans-Serif" font-size="10.00">Config::AbstractGroupDescription</text>
<polyline fill="none" stroke="black" points="-0.5,-287 166.5,-287 "/>
<text text-anchor="start" x="7.5" y="-275" font-family="Helvetica,sans-Serif" font-size="10.00">+ abstract_parameters</text>
<text text-anchor="start" x="7.5" y="-264" font-family="Helvetica,sans-Serif" font-size="10.00">+ state</text>
<polyline fill="none" stroke="black" points="-0.5,-257 166.5,-257 "/>
<text text-anchor="start" x="7.5" y="-245" font-family="Helvetica,sans-Serif" font-size="10.00">+ AbstractGroupDescription()</text>
<text text-anchor="start" x="7.5" y="-234" font-family="Helvetica,sans-Serif" font-size="10.00">+ toMessage()</text>
<text text-anchor="start" x="7.5" y="-223" font-family="Helvetica,sans-Serif" font-size="10.00">+ fromMessage()</text>
<text text-anchor="start" x="7.5" y="-212" font-family="Helvetica,sans-Serif" font-size="10.00">+ updateParams()</text>
<text text-anchor="start" x="7.5" y="-201" font-family="Helvetica,sans-Serif" font-size="10.00">+ setInitialState()</text>
<text text-anchor="start" x="7.5" y="-190" font-family="Helvetica,sans-Serif" font-size="10.00">+ convertParams()</text>
</a>
</g>
</g>
<!-- Node2&#45;&gt;Node1 -->
<g id="edge1" class="edge"><title>Node2&#45;&gt;Node1</title>
<path fill="none" stroke="midnightblue" d="M83,-172.725C83,-163.686 83,-154.484 83,-145.514"/>
<polygon fill="none" stroke="midnightblue" points="79.5001,-172.84 83,-182.84 86.5001,-172.84 79.5001,-172.84"/>
</g>
<!-- Node3 -->
<g id="node3" class="node"><title>Node3</title>
<polygon fill="white" stroke="#bfbfbf" points="61.5,-354.5 61.5,-411.5 104.5,-411.5 104.5,-354.5 61.5,-354.5"/>
<text text-anchor="middle" x="83" y="-399.5" font-family="Helvetica,sans-Serif" font-size="10.00">Group</text>
<polyline fill="none" stroke="#bfbfbf" points="61.5,-392.5 104.5,-392.5 "/>
<text text-anchor="middle" x="83" y="-380.5" font-family="Helvetica,sans-Serif" font-size="10.00"> </text>
<polyline fill="none" stroke="#bfbfbf" points="61.5,-373.5 104.5,-373.5 "/>
<text text-anchor="middle" x="83" y="-361.5" font-family="Helvetica,sans-Serif" font-size="10.00"> </text>
</g>
<!-- Node3&#45;&gt;Node2 -->
<g id="edge2" class="edge"><title>Node3&#45;&gt;Node2</title>
<path fill="none" stroke="midnightblue" d="M83,-343.942C83,-335.47 83,-326.249 83,-317.016"/>
<polygon fill="none" stroke="midnightblue" points="79.5001,-344.218 83,-354.218 86.5001,-344.218 79.5001,-344.218"/>
</g>
</g>
</svg>
