<?xml version="1.0" encoding="UTF-8" standalone="no"?>
<!DOCTYPE svg PUBLIC "-//W3C//DTD SVG 1.1//EN"
 "http://www.w3.org/Graphics/SVG/1.1/DTD/svg11.dtd">
<!-- Generated by graphviz version 2.36.0 (20140111.2315)
 -->
<!-- Title: src/DataStructures/FramePoseStruct.h Pages: 1 -->
<svg width="2111pt" height="176pt"
 viewBox="0.00 0.00 2111.00 176.00" xmlns="http://www.w3.org/2000/svg" xmlns:xlink="http://www.w3.org/1999/xlink">
<g id="graph0" class="graph" transform="scale(1 1) rotate(0) translate(4 172)">
<title>src/DataStructures/FramePoseStruct.h</title>
<polygon fill="white" stroke="none" points="-4,4 -4,-172 2107,-172 2107,4 -4,4"/>
<!-- Node1 -->
<g id="node1" class="node"><title>Node1</title>
<polygon fill="#bfbfbf" stroke="black" points="620,-137 620,-167 724,-167 724,-137 620,-137"/>
<text text-anchor="start" x="628" y="-155" font-family="Helvetica,sans-Serif" font-size="10.00">src/DataStructures</text>
<text text-anchor="middle" x="672" y="-144" font-family="Helvetica,sans-Serif" font-size="10.00">/FramePoseStruct.h</text>
</g>
<!-- Node2 -->
<g id="node2" class="node"><title>Node2</title>
<g id="a_node2"><a xlink:href="../../d7/db3/Frame_8h.html" target="_top" xlink:title="src/DataStructures\l/Frame.h">
<polygon fill="white" stroke="black" points="853.5,-69 853.5,-99 952.5,-99 952.5,-69 853.5,-69"/>
<text text-anchor="start" x="861.5" y="-87" font-family="Helvetica,sans-Serif" font-size="10.00">src/DataStructures</text>
<text text-anchor="middle" x="903" y="-76" font-family="Helvetica,sans-Serif" font-size="10.00">/Frame.h</text>
</a>
</g>
</g>
<!-- Node1&#45;&gt;Node2 -->
<g id="edge1" class="edge"><title>Node1&#45;&gt;Node2</title>
<path fill="none" stroke="midnightblue" d="M731.183,-134.091C769.178,-123.235 817.94,-109.303 853.804,-99.0561"/>
<polygon fill="midnightblue" stroke="midnightblue" points="729.926,-130.81 721.272,-136.922 731.849,-137.54 729.926,-130.81"/>
</g>
<!-- Node5 -->
<g id="node5" class="node"><title>Node5</title>
<g id="a_node5"><a xlink:href="../../d1/d10/FramePoseStruct_8cpp.html" target="_top" xlink:title="src/DataStructures\l/FramePoseStruct.cpp">
<polygon fill="white" stroke="black" points="-0.5,-1 -0.5,-31 114.5,-31 114.5,-1 -0.5,-1"/>
<text text-anchor="start" x="7.5" y="-19" font-family="Helvetica,sans-Serif" font-size="10.00">src/DataStructures</text>
<text text-anchor="middle" x="57" y="-8" font-family="Helvetica,sans-Serif" font-size="10.00">/FramePoseStruct.cpp</text>
</a>
</g>
</g>
<!-- Node1&#45;&gt;Node5 -->
<g id="edge16" class="edge"><title>Node1&#45;&gt;Node5</title>
<path fill="none" stroke="midnightblue" d="M609.924,-137.756C508.145,-115.995 299.447,-71.173 123,-32 120.247,-31.3888 117.43,-30.7603 114.585,-30.1233"/>
<polygon fill="midnightblue" stroke="midnightblue" points="609.22,-141.185 619.731,-139.853 610.684,-134.34 609.22,-141.185"/>
</g>
<!-- Node3 -->
<g id="node3" class="node"><title>Node3</title>
<g id="a_node3"><a xlink:href="../../d5/de0/Frame_8cpp.html" target="_top" xlink:title="src/DataStructures\l/Frame.cpp">
<polygon fill="white" stroke="black" points="132.5,-1 132.5,-31 231.5,-31 231.5,-1 132.5,-1"/>
<text text-anchor="start" x="140.5" y="-19" font-family="Helvetica,sans-Serif" font-size="10.00">src/DataStructures</text>
<text text-anchor="middle" x="182" y="-8" font-family="Helvetica,sans-Serif" font-size="10.00">/Frame.cpp</text>
</a>
</g>
</g>
<!-- Node2&#45;&gt;Node3 -->
<g id="edge2" class="edge"><title>Node2&#45;&gt;Node3</title>
<path fill="none" stroke="midnightblue" d="M843.09,-81.8301C726.445,-78.7938 460.996,-68.1635 241,-32 237.976,-31.5028 234.879,-30.9258 231.766,-30.2934"/>
<polygon fill="midnightblue" stroke="midnightblue" points="843.155,-85.3328 853.24,-82.0848 843.33,-78.335 843.155,-85.3328"/>
</g>
<!-- Node4 -->
<g id="node4" class="node"><title>Node4</title>
<g id="a_node4"><a xlink:href="../../d6/d4d/FrameMemory_8cpp.html" target="_top" xlink:title="src/DataStructures\l/FrameMemory.cpp">
<polygon fill="white" stroke="black" points="249.5,-1 249.5,-31 350.5,-31 350.5,-1 249.5,-1"/>
<text text-anchor="start" x="257.5" y="-19" font-family="Helvetica,sans-Serif" font-size="10.00">src/DataStructures</text>
<text text-anchor="middle" x="300" y="-8" font-family="Helvetica,sans-Serif" font-size="10.00">/FrameMemory.cpp</text>
</a>
</g>
</g>
<!-- Node2&#45;&gt;Node4 -->
<g id="edge3" class="edge"><title>Node2&#45;&gt;Node4</title>
<path fill="none" stroke="midnightblue" d="M842.998,-80.3357C742.484,-75.2102 533.974,-61.7408 360,-32 356.931,-31.4753 353.787,-30.877 350.625,-30.2285"/>
<polygon fill="midnightblue" stroke="midnightblue" points="843.095,-83.8449 853.257,-80.8489 843.445,-76.8536 843.095,-83.8449"/>
</g>
<!-- Node2&#45;&gt;Node5 -->
<g id="edge4" class="edge"><title>Node2&#45;&gt;Node5</title>
<path fill="none" stroke="midnightblue" d="M843.211,-82.3072C712.103,-80.0852 389.736,-70.7823 123,-32 120.325,-31.6111 117.599,-31.1711 114.851,-30.6921"/>
<polygon fill="midnightblue" stroke="midnightblue" points="843.381,-85.8103 853.437,-82.4726 843.495,-78.8112 843.381,-85.8103"/>
</g>
<!-- Node6 -->
<g id="node6" class="node"><title>Node6</title>
<g id="a_node6"><a xlink:href="../../d8/d5e/DepthMap_8cpp.html" target="_top" xlink:title="src/DepthEstimation\l/DepthMap.cpp">
<polygon fill="white" stroke="black" points="369,-1 369,-31 475,-31 475,-1 369,-1"/>
<text text-anchor="start" x="377" y="-19" font-family="Helvetica,sans-Serif" font-size="10.00">src/DepthEstimation</text>
<text text-anchor="middle" x="422" y="-8" font-family="Helvetica,sans-Serif" font-size="10.00">/DepthMap.cpp</text>
</a>
</g>
</g>
<!-- Node2&#45;&gt;Node6 -->
<g id="edge5" class="edge"><title>Node2&#45;&gt;Node6</title>
<path fill="none" stroke="midnightblue" d="M843.118,-77.8268C761.679,-70.3063 611.627,-54.7253 485,-32 481.791,-31.424 478.5,-30.7861 475.188,-30.1076"/>
<polygon fill="midnightblue" stroke="midnightblue" points="842.907,-81.322 853.184,-78.7475 843.545,-74.3511 842.907,-81.322"/>
</g>
<!-- Node7 -->
<g id="node7" class="node"><title>Node7</title>
<g id="a_node7"><a xlink:href="../../d5/dd0/DepthMapPixelHypothesis_8cpp.html" target="_top" xlink:title="src/DepthEstimation\l/DepthMapPixelHypothesis.cpp">
<polygon fill="white" stroke="black" points="493.5,-1 493.5,-31 648.5,-31 648.5,-1 493.5,-1"/>
<text text-anchor="start" x="501.5" y="-19" font-family="Helvetica,sans-Serif" font-size="10.00">src/DepthEstimation</text>
<text text-anchor="middle" x="571" y="-8" font-family="Helvetica,sans-Serif" font-size="10.00">/DepthMapPixelHypothesis.cpp</text>
</a>
</g>
</g>
<!-- Node2&#45;&gt;Node7 -->
<g id="edge6" class="edge"><title>Node2&#45;&gt;Node7</title>
<path fill="none" stroke="midnightblue" d="M843.42,-71.1558C786.813,-59.9026 701.662,-42.975 641.657,-31.0463"/>
<polygon fill="midnightblue" stroke="midnightblue" points="842.806,-74.6021 853.296,-73.1191 844.171,-67.7364 842.806,-74.6021"/>
</g>
<!-- Node8 -->
<g id="node8" class="node"><title>Node8</title>
<g id="a_node8"><a xlink:href="../../d7/d84/KeyFrameGraph_8cpp.html" target="_top" xlink:title="src/GlobalMapping/KeyFrame\lGraph.cpp">
<polygon fill="white" stroke="black" points="667,-1 667,-31 813,-31 813,-1 667,-1"/>
<text text-anchor="start" x="675" y="-19" font-family="Helvetica,sans-Serif" font-size="10.00">src/GlobalMapping/KeyFrame</text>
<text text-anchor="middle" x="740" y="-8" font-family="Helvetica,sans-Serif" font-size="10.00">Graph.cpp</text>
</a>
</g>
</g>
<!-- Node2&#45;&gt;Node8 -->
<g id="edge7" class="edge"><title>Node2&#45;&gt;Node8</title>
<path fill="none" stroke="midnightblue" d="M858.622,-65.0308C832.188,-54.3276 799.129,-40.9417 774.63,-31.0218"/>
<polygon fill="midnightblue" stroke="midnightblue" points="857.45,-68.3323 868.032,-68.8413 860.077,-61.844 857.45,-68.3323"/>
</g>
<!-- Node9 -->
<g id="node9" class="node"><title>Node9</title>
<g id="a_node9"><a xlink:href="../../d3/dd3/TrackableKeyFrameSearch_8cpp.html" target="_top" xlink:title="src/GlobalMapping/Trackable\lKeyFrameSearch.cpp">
<polygon fill="white" stroke="black" points="831.5,-1 831.5,-31 974.5,-31 974.5,-1 831.5,-1"/>
<text text-anchor="start" x="839.5" y="-19" font-family="Helvetica,sans-Serif" font-size="10.00">src/GlobalMapping/Trackable</text>
<text text-anchor="middle" x="903" y="-8" font-family="Helvetica,sans-Serif" font-size="10.00">KeyFrameSearch.cpp</text>
</a>
</g>
</g>
<!-- Node2&#45;&gt;Node9 -->
<g id="edge8" class="edge"><title>Node2&#45;&gt;Node9</title>
<path fill="none" stroke="midnightblue" d="M903,-58.5322C903,-49.3606 903,-39.2449 903,-31.2931"/>
<polygon fill="midnightblue" stroke="midnightblue" points="899.5,-58.6789 903,-68.679 906.5,-58.679 899.5,-58.6789"/>
</g>
<!-- Node10 -->
<g id="node10" class="node"><title>Node10</title>
<g id="a_node10"><a xlink:href="../../d5/d46/ROSOutput3DWrapper_8cpp.html" target="_top" xlink:title="src/IOWrapper/ROS/ROSOutput3\lDWrapper.cpp">
<polygon fill="white" stroke="black" points="993,-1 993,-31 1157,-31 1157,-1 993,-1"/>
<text text-anchor="start" x="1001" y="-19" font-family="Helvetica,sans-Serif" font-size="10.00">src/IOWrapper/ROS/ROSOutput3</text>
<text text-anchor="middle" x="1075" y="-8" font-family="Helvetica,sans-Serif" font-size="10.00">DWrapper.cpp</text>
</a>
</g>
</g>
<!-- Node2&#45;&gt;Node10 -->
<g id="edge9" class="edge"><title>Node2&#45;&gt;Node10</title>
<path fill="none" stroke="midnightblue" d="M949.462,-65.1715C977.416,-54.4451 1012.49,-40.9852 1038.46,-31.0218"/>
<polygon fill="midnightblue" stroke="midnightblue" points="947.981,-61.9911 939.898,-68.8413 950.488,-68.5265 947.981,-61.9911"/>
</g>
<!-- Node11 -->
<g id="node11" class="node"><title>Node11</title>
<g id="a_node11"><a xlink:href="../../de/dce/SlamSystem_8cpp.html" target="_top" xlink:title="src/SlamSystem.cpp">
<polygon fill="white" stroke="black" points="1175,-6.5 1175,-25.5 1283,-25.5 1283,-6.5 1175,-6.5"/>
<text text-anchor="middle" x="1229" y="-13.5" font-family="Helvetica,sans-Serif" font-size="10.00">src/SlamSystem.cpp</text>
</a>
</g>
</g>
<!-- Node2&#45;&gt;Node11 -->
<g id="edge10" class="edge"><title>Node2&#45;&gt;Node11</title>
<path fill="none" stroke="midnightblue" d="M962.547,-72.1943C1015.95,-62.3277 1096.38,-47.0308 1166,-32 1175.23,-30.0068 1185.19,-27.7067 1194.4,-25.5156"/>
<polygon fill="midnightblue" stroke="midnightblue" points="961.77,-68.7786 952.569,-74.0328 963.038,-75.6628 961.77,-68.7786"/>
</g>
<!-- Node12 -->
<g id="node12" class="node"><title>Node12</title>
<g id="a_node12"><a xlink:href="../../d0/df5/Relocalizer_8cpp.html" target="_top" xlink:title="src/Tracking/Relocalizer.cpp">
<polygon fill="white" stroke="black" points="1301.5,-6.5 1301.5,-25.5 1442.5,-25.5 1442.5,-6.5 1301.5,-6.5"/>
<text text-anchor="middle" x="1372" y="-13.5" font-family="Helvetica,sans-Serif" font-size="10.00">src/Tracking/Relocalizer.cpp</text>
</a>
</g>
</g>
<!-- Node2&#45;&gt;Node12 -->
<g id="edge11" class="edge"><title>Node2&#45;&gt;Node12</title>
<path fill="none" stroke="midnightblue" d="M962.95,-76.1774C1039.48,-67.2304 1175.88,-50.4841 1292,-32 1304,-30.0896 1316.97,-27.77 1328.9,-25.5316"/>
<polygon fill="midnightblue" stroke="midnightblue" points="962.086,-72.7543 952.558,-77.3875 962.896,-79.7073 962.086,-72.7543"/>
</g>
<!-- Node13 -->
<g id="node13" class="node"><title>Node13</title>
<g id="a_node13"><a xlink:href="../../d6/d91/SE3Tracker_8cpp.html" target="_top" xlink:title="src/Tracking/SE3Tracker.cpp">
<polygon fill="white" stroke="black" points="1461,-6.5 1461,-25.5 1605,-25.5 1605,-6.5 1461,-6.5"/>
<text text-anchor="middle" x="1533" y="-13.5" font-family="Helvetica,sans-Serif" font-size="10.00">src/Tracking/SE3Tracker.cpp</text>
</a>
</g>
</g>
<!-- Node2&#45;&gt;Node13 -->
<g id="edge12" class="edge"><title>Node2&#45;&gt;Node13</title>
<path fill="none" stroke="midnightblue" d="M962.664,-79.1769C1063.55,-72.3257 1274.15,-56.3564 1451,-32 1463.9,-30.2229 1477.87,-27.8414 1490.55,-25.5001"/>
<polygon fill="midnightblue" stroke="midnightblue" points="962.405,-75.6863 952.663,-79.8505 962.876,-82.6705 962.405,-75.6863"/>
</g>
<!-- Node14 -->
<g id="node14" class="node"><title>Node14</title>
<g id="a_node14"><a xlink:href="../../d6/dec/Sim3Tracker_8cpp.html" target="_top" xlink:title="src/Tracking/Sim3Tracker.cpp">
<polygon fill="white" stroke="black" points="1623,-6.5 1623,-25.5 1771,-25.5 1771,-6.5 1623,-6.5"/>
<text text-anchor="middle" x="1697" y="-13.5" font-family="Helvetica,sans-Serif" font-size="10.00">src/Tracking/Sim3Tracker.cpp</text>
</a>
</g>
</g>
<!-- Node2&#45;&gt;Node14 -->
<g id="edge13" class="edge"><title>Node2&#45;&gt;Node14</title>
<path fill="none" stroke="midnightblue" d="M963.045,-80.867C1085.74,-76.0299 1373.89,-62.2197 1614,-32 1627.37,-30.3177 1641.84,-27.9074 1654.91,-25.5094"/>
<polygon fill="midnightblue" stroke="midnightblue" points="962.601,-77.3815 952.744,-81.2672 962.873,-84.3762 962.601,-77.3815"/>
</g>
<!-- Node15 -->
<g id="node15" class="node"><title>Node15</title>
<g id="a_node15"><a xlink:href="../../de/db1/TrackingReference_8cpp.html" target="_top" xlink:title="src/Tracking/TrackingReference.cpp">
<polygon fill="white" stroke="black" points="1789.5,-6.5 1789.5,-25.5 1964.5,-25.5 1964.5,-6.5 1789.5,-6.5"/>
<text text-anchor="middle" x="1877" y="-13.5" font-family="Helvetica,sans-Serif" font-size="10.00">src/Tracking/TrackingReference.cpp</text>
</a>
</g>
</g>
<!-- Node2&#45;&gt;Node15 -->
<g id="edge14" class="edge"><title>Node2&#45;&gt;Node15</title>
<path fill="none" stroke="midnightblue" d="M962.823,-81.4874C1104.91,-77.4662 1473.72,-64.5117 1780,-32 1795.59,-30.3451 1812.5,-27.9424 1827.77,-25.5432"/>
<polygon fill="midnightblue" stroke="midnightblue" points="962.484,-77.9954 952.586,-81.7727 962.679,-84.9926 962.484,-77.9954"/>
</g>
<!-- Node16 -->
<g id="node16" class="node"><title>Node16</title>
<g id="a_node16"><a xlink:href="../../de/dc8/globalFuncs_8cpp.html" target="_top" xlink:title="src/util/globalFuncs.cpp">
<polygon fill="white" stroke="black" points="1983,-6.5 1983,-25.5 2103,-25.5 2103,-6.5 1983,-6.5"/>
<text text-anchor="middle" x="2043" y="-13.5" font-family="Helvetica,sans-Serif" font-size="10.00">src/util/globalFuncs.cpp</text>
</a>
</g>
</g>
<!-- Node2&#45;&gt;Node16 -->
<g id="edge15" class="edge"><title>Node2&#45;&gt;Node16</title>
<path fill="none" stroke="midnightblue" d="M962.874,-83.5644C1125.82,-84.3641 1590.65,-81.7383 1973,-32 1984.71,-30.4769 1997.37,-28.0185 2008.66,-25.5288"/>
<polygon fill="midnightblue" stroke="midnightblue" points="962.601,-80.0629 952.582,-83.5072 962.562,-87.0628 962.601,-80.0629"/>
</g>
</g>
</svg>
