<?xml version="1.0" encoding="UTF-8" standalone="no"?>
<!DOCTYPE svg PUBLIC "-//W3C//DTD SVG 1.1//EN"
 "http://www.w3.org/Graphics/SVG/1.1/DTD/svg11.dtd">
<!-- Generated by graphviz version 2.36.0 (20140111.2315)
 -->
<!-- Title: openFABMAP Pages: 1 -->
<svg width="240pt" height="66pt"
 viewBox="0.00 0.00 240.00 66.00" xmlns="http://www.w3.org/2000/svg" xmlns:xlink="http://www.w3.org/1999/xlink">
<g id="graph0" class="graph" transform="scale(1 1) rotate(0) translate(4 62)">
<title>openFABMAP</title>
<polygon fill="white" stroke="none" points="-4,4 -4,-62 236,-62 236,4 -4,4"/>
<!-- Node1 -->
<g id="node1" class="node"><title>Node1</title>
<polygon fill="#bfbfbf" stroke="black" points="0.5,-19.5 0.5,-38.5 79.5,-38.5 79.5,-19.5 0.5,-19.5"/>
<text text-anchor="middle" x="40" y="-26.5" font-family="Helvetica,sans-Serif" font-size="10.00">openFABMAP</text>
</g>
<!-- Node2 -->
<g id="node2" class="node"><title>Node2</title>
<g id="a_node2"><a xlink:href="../../d5/d90/classof2_1_1FabMap.html#a28ce7f775d11ea389874889406ad031e" target="_top" xlink:title="of2::FabMap::compare">
<polygon fill="white" stroke="black" points="116.5,-38.5 116.5,-57.5 231.5,-57.5 231.5,-38.5 116.5,-38.5"/>
<text text-anchor="middle" x="174" y="-45.5" font-family="Helvetica,sans-Serif" font-size="10.00">of2::FabMap::compare</text>
</a>
</g>
</g>
<!-- Node1&#45;&gt;Node2 -->
<g id="edge1" class="edge"><title>Node1&#45;&gt;Node2</title>
<path fill="none" stroke="midnightblue" d="M79.5347,-34.5467C87.8281,-35.7404 96.8257,-37.0355 105.852,-38.3347"/>
<polygon fill="midnightblue" stroke="midnightblue" points="105.622,-41.8377 116.019,-39.7982 106.62,-34.9091 105.622,-41.8377"/>
</g>
<!-- Node3 -->
<g id="node3" class="node"><title>Node3</title>
<g id="a_node3"><a xlink:href="../../d5/d90/classof2_1_1FabMap.html#a3883e92f51f3bfc269f829baf4133d71" target="_top" xlink:title="of2::FabMap::add">
<polygon fill="white" stroke="black" points="127.5,-0.5 127.5,-19.5 220.5,-19.5 220.5,-0.5 127.5,-0.5"/>
<text text-anchor="middle" x="174" y="-7.5" font-family="Helvetica,sans-Serif" font-size="10.00">of2::FabMap::add</text>
</a>
</g>
</g>
<!-- Node1&#45;&gt;Node3 -->
<g id="edge2" class="edge"><title>Node1&#45;&gt;Node3</title>
<path fill="none" stroke="midnightblue" d="M79.5347,-23.4533C91.3036,-21.7593 104.491,-19.8612 117.165,-18.0368"/>
<polygon fill="midnightblue" stroke="midnightblue" points="117.784,-21.484 127.183,-16.5949 116.786,-14.5554 117.784,-21.484"/>
</g>
</g>
</svg>
