<?xml version="1.0" encoding="UTF-8" standalone="no"?>
<!DOCTYPE svg PUBLIC "-//W3C//DTD SVG 1.1//EN"
 "http://www.w3.org/Graphics/SVG/1.1/DTD/svg11.dtd">
<!-- Generated by graphviz version 2.36.0 (20140111.2315)
 -->
<!-- Title: external/SiftGPU/src/SiftGPU/SiftGPU.h Pages: 1 -->
<!--zoomable 108 -->
<svg id="main" version="1.1" xmlns="http://www.w3.org/2000/svg" xmlns:xlink="http://www.w3.org/1999/xlink" xml:space="preserve" onload="init(evt)">
<style type="text/css"><![CDATA[
.edge:hover path { stroke: red; }
.edge:hover polygon { stroke: red; fill: red; }
]]></style>
<script type="text/javascript"><![CDATA[
var edges = document.getElementsByTagName('g');
if (edges && edges.length) {
  for (var i=0;i<edges.length;i++) {
    if (edges[i].id.substr(0,4)=='edge') {
      edges[i].setAttribute('class','edge');
    }
  }
}
]]></script>
        <defs>
                <circle id="rim" cx="0" cy="0" r="7"/>
                <circle id="rim2" cx="0" cy="0" r="3.5"/>
                <g id="zoomPlus">
                        <use xlink:href="#rim" fill="#404040">
                                <set attributeName="fill" to="#808080" begin="zoomplus.mouseover" end="zoomplus.mouseout"/>
                        </use>
                        <path d="M-4,0h8M0,-4v8" fill="none" stroke="white" stroke-width="1.5" pointer-events="none"/>
                </g>
                <g id="zoomMin">
                        <use xlink:href="#rim" fill="#404040">
                                <set attributeName="fill" to="#808080" begin="zoomminus.mouseover" end="zoomminus.mouseout"/>
                        </use>
                        <path d="M-4,0h8" fill="none" stroke="white" stroke-width="1.5" pointer-events="none"/>
                </g>
                <g id="dirArrow">
                        <path fill="none" stroke="white" stroke-width="1.5" d="M0,-3.0v7 M-2.5,-0.5L0,-3.0L2.5,-0.5"/>
                </g>
               <g id="resetDef">
                       <use xlink:href="#rim2" fill="#404040">
                               <set attributeName="fill" to="#808080" begin="reset.mouseover" end="reset.mouseout"/>
                       </use>
               </g>
        </defs>

<script type="text/javascript">
var viewWidth = 2093;
var viewHeight = 108;
var sectionId = 'dynsection-0';
</script>
<script xlink:href="../../svgpan.js"/>
<svg id="graph" class="graph">
<g id="viewport">
<title>external/SiftGPU/src/SiftGPU/SiftGPU.h</title>
<polygon fill="white" stroke="none" points="-4,4 -4,-104 2089,-104 2089,4 -4,4"/>
<!-- Node1 -->
<g id="node1" class="node"><title>Node1</title>
<polygon fill="#bfbfbf" stroke="black" points="1019.5,-69 1019.5,-99 1126.5,-99 1126.5,-69 1019.5,-69"/>
<text text-anchor="start" x="1027.5" y="-87" font-family="Helvetica,sans-Serif" font-size="10.00">external/SiftGPU/src</text>
<text text-anchor="middle" x="1073" y="-76" font-family="Helvetica,sans-Serif" font-size="10.00">/SiftGPU/SiftGPU.h</text>
</g>
<!-- Node2 -->
<g id="node2" class="node"><title>Node2</title>
<g id="a_node2"><a xlink:href="../../df/dd7/server_8cpp.html" target="_top" xlink:title="external/SiftGPU/src\l/ServerSiftGPU/server.cpp">
<polygon fill="white" stroke="black" points="0,-1 0,-31 134,-31 134,-1 0,-1"/>
<text text-anchor="start" x="8" y="-19" font-family="Helvetica,sans-Serif" font-size="10.00">external/SiftGPU/src</text>
<text text-anchor="middle" x="67" y="-8" font-family="Helvetica,sans-Serif" font-size="10.00">/ServerSiftGPU/server.cpp</text>
</a>
</g>
</g>
<!-- Node1&#45;&gt;Node2 -->
<g id="edge1" class="edge"><title>Node1&#45;&gt;Node2</title>
<path fill="none" stroke="midnightblue" d="M1009.27,-82.5745C858.228,-80.8983 466.873,-72.6383 143,-32 140.064,-31.6316 137.072,-31.2158 134.054,-30.7634"/>
<polygon fill="midnightblue" stroke="midnightblue" points="1009.26,-86.0745 1019.3,-82.6799 1009.33,-79.0749 1009.26,-86.0745"/>
</g>
<!-- Node3 -->
<g id="node3" class="node"><title>Node3</title>
<g id="a_node3"><a xlink:href="../../d1/d0f/ServerSiftGPU_8cpp.html" target="_top" xlink:title="external/SiftGPU/src\l/ServerSiftGPU/ServerSiftGPU.cpp">
<polygon fill="white" stroke="black" points="152,-1 152,-31 324,-31 324,-1 152,-1"/>
<text text-anchor="start" x="160" y="-19" font-family="Helvetica,sans-Serif" font-size="10.00">external/SiftGPU/src</text>
<text text-anchor="middle" x="238" y="-8" font-family="Helvetica,sans-Serif" font-size="10.00">/ServerSiftGPU/ServerSiftGPU.cpp</text>
</a>
</g>
</g>
<!-- Node1&#45;&gt;Node3 -->
<g id="edge2" class="edge"><title>Node1&#45;&gt;Node3</title>
<path fill="none" stroke="midnightblue" d="M1009.42,-80.501C881.18,-75.0456 582.483,-60.2379 333,-32 330.096,-31.6714 327.146,-31.3176 324.169,-30.9436"/>
<polygon fill="midnightblue" stroke="midnightblue" points="1009.32,-83.9999 1019.46,-80.9238 1009.61,-77.0061 1009.32,-83.9999"/>
</g>
<!-- Node4 -->
<g id="node4" class="node"><title>Node4</title>
<g id="a_node4"><a xlink:href="../../d4/d97/ProgramGLSL_8cpp.html" target="_top" xlink:title="external/SiftGPU/src\l/SiftGPU/ProgramGLSL.cpp">
<polygon fill="white" stroke="black" points="342,-1 342,-31 482,-31 482,-1 342,-1"/>
<text text-anchor="start" x="350" y="-19" font-family="Helvetica,sans-Serif" font-size="10.00">external/SiftGPU/src</text>
<text text-anchor="middle" x="412" y="-8" font-family="Helvetica,sans-Serif" font-size="10.00">/SiftGPU/ProgramGLSL.cpp</text>
</a>
</g>
</g>
<!-- Node1&#45;&gt;Node4 -->
<g id="edge3" class="edge"><title>Node1&#45;&gt;Node4</title>
<path fill="none" stroke="midnightblue" d="M1009.43,-79.5214C902.171,-73.185 678.606,-57.964 491,-32 488.096,-31.5981 485.137,-31.1612 482.151,-30.6977"/>
<polygon fill="midnightblue" stroke="midnightblue" points="1009.25,-83.017 1019.44,-80.1069 1009.66,-76.0289 1009.25,-83.017"/>
</g>
<!-- Node5 -->
<g id="node5" class="node"><title>Node5</title>
<g id="a_node5"><a xlink:href="../../d7/d8c/ProgramGPU_8cpp.html" target="_top" xlink:title="external/SiftGPU/src\l/SiftGPU/ProgramGPU.cpp">
<polygon fill="white" stroke="black" points="500.5,-1 500.5,-31 637.5,-31 637.5,-1 500.5,-1"/>
<text text-anchor="start" x="508.5" y="-19" font-family="Helvetica,sans-Serif" font-size="10.00">external/SiftGPU/src</text>
<text text-anchor="middle" x="569" y="-8" font-family="Helvetica,sans-Serif" font-size="10.00">/SiftGPU/ProgramGPU.cpp</text>
</a>
</g>
</g>
<!-- Node1&#45;&gt;Node5 -->
<g id="edge4" class="edge"><title>Node1&#45;&gt;Node5</title>
<path fill="none" stroke="midnightblue" d="M1009.13,-76.8513C925.466,-68.4593 774.331,-52.1357 646,-32 643.309,-31.5778 640.569,-31.13 637.803,-30.6632"/>
<polygon fill="midnightblue" stroke="midnightblue" points="1008.94,-80.3498 1019.24,-77.8597 1009.63,-73.3844 1008.94,-80.3498"/>
</g>
<!-- Node6 -->
<g id="node6" class="node"><title>Node6</title>
<g id="a_node6"><a xlink:href="../../d5/d65/PyramidGL_8cpp.html" target="_top" xlink:title="external/SiftGPU/src\l/SiftGPU/PyramidGL.cpp">
<polygon fill="white" stroke="black" points="655.5,-1 655.5,-31 782.5,-31 782.5,-1 655.5,-1"/>
<text text-anchor="start" x="663.5" y="-19" font-family="Helvetica,sans-Serif" font-size="10.00">external/SiftGPU/src</text>
<text text-anchor="middle" x="719" y="-8" font-family="Helvetica,sans-Serif" font-size="10.00">/SiftGPU/PyramidGL.cpp</text>
</a>
</g>
</g>
<!-- Node1&#45;&gt;Node6 -->
<g id="edge5" class="edge"><title>Node1&#45;&gt;Node6</title>
<path fill="none" stroke="midnightblue" d="M1009.38,-71.885C952.371,-61.8235 866.508,-46.4144 792,-32 788.951,-31.4102 785.833,-30.7992 782.684,-30.176"/>
<polygon fill="midnightblue" stroke="midnightblue" points="1008.87,-75.3493 1019.32,-73.6382 1010.08,-68.4555 1008.87,-75.3493"/>
</g>
<!-- Node7 -->
<g id="node7" class="node"><title>Node7</title>
<g id="a_node7"><a xlink:href="../../d7/d1f/ShaderMan_8cpp.html" target="_top" xlink:title="external/SiftGPU/src\l/SiftGPU/ShaderMan.cpp">
<polygon fill="white" stroke="black" points="801,-1 801,-31 929,-31 929,-1 801,-1"/>
<text text-anchor="start" x="809" y="-19" font-family="Helvetica,sans-Serif" font-size="10.00">external/SiftGPU/src</text>
<text text-anchor="middle" x="865" y="-8" font-family="Helvetica,sans-Serif" font-size="10.00">/SiftGPU/ShaderMan.cpp</text>
</a>
</g>
</g>
<!-- Node1&#45;&gt;Node7 -->
<g id="edge6" class="edge"><title>Node1&#45;&gt;Node7</title>
<path fill="none" stroke="midnightblue" d="M1018.83,-65.8127C984.751,-54.9979 941.316,-41.2157 909.298,-31.0561"/>
<polygon fill="midnightblue" stroke="midnightblue" points="1018.04,-69.2338 1028.63,-68.9223 1020.16,-62.5617 1018.04,-69.2338"/>
</g>
<!-- Node8 -->
<g id="node8" class="node"><title>Node8</title>
<g id="a_node8"><a xlink:href="../../de/d03/SiftGPU_8cpp.html" target="_top" xlink:title="external/SiftGPU/src\l/SiftGPU/SiftGPU.cpp">
<polygon fill="white" stroke="black" points="947.5,-1 947.5,-31 1062.5,-31 1062.5,-1 947.5,-1"/>
<text text-anchor="start" x="955.5" y="-19" font-family="Helvetica,sans-Serif" font-size="10.00">external/SiftGPU/src</text>
<text text-anchor="middle" x="1005" y="-8" font-family="Helvetica,sans-Serif" font-size="10.00">/SiftGPU/SiftGPU.cpp</text>
</a>
</g>
</g>
<!-- Node1&#45;&gt;Node8 -->
<g id="edge7" class="edge"><title>Node1&#45;&gt;Node8</title>
<path fill="none" stroke="midnightblue" d="M1050.83,-61.4855C1040.63,-51.5852 1028.81,-40.1092 1019.73,-31.2931"/>
<polygon fill="midnightblue" stroke="midnightblue" points="1048.63,-64.2257 1058.25,-68.679 1053.51,-59.2027 1048.63,-64.2257"/>
</g>
<!-- Node9 -->
<g id="node9" class="node"><title>Node9</title>
<g id="a_node9"><a xlink:href="../../dd/d0c/SiftMatch_8cpp.html" target="_top" xlink:title="external/SiftGPU/src\l/SiftGPU/SiftMatch.cpp">
<polygon fill="white" stroke="black" points="1081,-1 1081,-31 1201,-31 1201,-1 1081,-1"/>
<text text-anchor="start" x="1089" y="-19" font-family="Helvetica,sans-Serif" font-size="10.00">external/SiftGPU/src</text>
<text text-anchor="middle" x="1141" y="-8" font-family="Helvetica,sans-Serif" font-size="10.00">/SiftGPU/SiftMatch.cpp</text>
</a>
</g>
</g>
<!-- Node1&#45;&gt;Node9 -->
<g id="edge8" class="edge"><title>Node1&#45;&gt;Node9</title>
<path fill="none" stroke="midnightblue" d="M1095.17,-61.4855C1105.37,-51.5852 1117.19,-40.1092 1126.27,-31.2931"/>
<polygon fill="midnightblue" stroke="midnightblue" points="1092.49,-59.2027 1087.75,-68.679 1097.37,-64.2257 1092.49,-59.2027"/>
</g>
<!-- Node10 -->
<g id="node10" class="node"><title>Node10</title>
<g id="a_node10"><a xlink:href="../../d8/dfb/SiftPyramid_8cpp.html" target="_top" xlink:title="external/SiftGPU/src\l/SiftGPU/SiftPyramid.cpp">
<polygon fill="white" stroke="black" points="1219.5,-1 1219.5,-31 1348.5,-31 1348.5,-1 1219.5,-1"/>
<text text-anchor="start" x="1227.5" y="-19" font-family="Helvetica,sans-Serif" font-size="10.00">external/SiftGPU/src</text>
<text text-anchor="middle" x="1284" y="-8" font-family="Helvetica,sans-Serif" font-size="10.00">/SiftGPU/SiftPyramid.cpp</text>
</a>
</g>
</g>
<!-- Node1&#45;&gt;Node10 -->
<g id="edge9" class="edge"><title>Node1&#45;&gt;Node10</title>
<path fill="none" stroke="midnightblue" d="M1127.95,-65.8127C1162.52,-54.9979 1206.58,-41.2157 1239.06,-31.0561"/>
<polygon fill="midnightblue" stroke="midnightblue" points="1126.51,-62.5965 1118.01,-68.9223 1128.59,-69.2773 1126.51,-62.5965"/>
</g>
<!-- Node11 -->
<g id="node11" class="node"><title>Node11</title>
<g id="a_node11"><a xlink:href="../../da/d99/BasicTestWin_8cpp.html" target="_top" xlink:title="external/SiftGPU/src\l/TestWin/BasicTestWin.cpp">
<polygon fill="white" stroke="black" points="1367,-1 1367,-31 1507,-31 1507,-1 1367,-1"/>
<text text-anchor="start" x="1375" y="-19" font-family="Helvetica,sans-Serif" font-size="10.00">external/SiftGPU/src</text>
<text text-anchor="middle" x="1437" y="-8" font-family="Helvetica,sans-Serif" font-size="10.00">/TestWin/BasicTestWin.cpp</text>
</a>
</g>
</g>
<!-- Node1&#45;&gt;Node11 -->
<g id="edge10" class="edge"><title>Node1&#45;&gt;Node11</title>
<path fill="none" stroke="midnightblue" d="M1136.72,-71.7016C1194.29,-61.4582 1281.35,-45.8839 1357,-32 1360.2,-31.4133 1363.46,-30.8109 1366.77,-30.2005"/>
<polygon fill="midnightblue" stroke="midnightblue" points="1135.91,-68.2907 1126.68,-73.4875 1137.13,-75.1826 1135.91,-68.2907"/>
</g>
<!-- Node12 -->
<g id="node12" class="node"><title>Node12</title>
<g id="a_node12"><a xlink:href="../../d0/d3e/MultiThreadSIFT_8cpp.html" target="_top" xlink:title="external/SiftGPU/src\l/TestWin/MultiThreadSIFT.cpp">
<polygon fill="white" stroke="black" points="1525.5,-1 1525.5,-31 1676.5,-31 1676.5,-1 1525.5,-1"/>
<text text-anchor="start" x="1533.5" y="-19" font-family="Helvetica,sans-Serif" font-size="10.00">external/SiftGPU/src</text>
<text text-anchor="middle" x="1601" y="-8" font-family="Helvetica,sans-Serif" font-size="10.00">/TestWin/MultiThreadSIFT.cpp</text>
</a>
</g>
</g>
<!-- Node1&#45;&gt;Node12 -->
<g id="edge11" class="edge"><title>Node1&#45;&gt;Node12</title>
<path fill="none" stroke="midnightblue" d="M1136.82,-76.8686C1223.04,-68.3066 1381.47,-51.5967 1516,-32 1519.11,-31.5464 1522.29,-31.0663 1525.49,-30.5671"/>
<polygon fill="midnightblue" stroke="midnightblue" points="1136.27,-73.4052 1126.67,-77.872 1136.96,-80.3713 1136.27,-73.4052"/>
</g>
<!-- Node13 -->
<g id="node13" class="node"><title>Node13</title>
<g id="a_node13"><a xlink:href="../../df/de8/SimpleSIFT_8cpp.html" target="_top" xlink:title="external/SiftGPU/src\l/TestWin/SimpleSIFT.cpp">
<polygon fill="white" stroke="black" points="1695,-1 1695,-31 1825,-31 1825,-1 1695,-1"/>
<text text-anchor="start" x="1703" y="-19" font-family="Helvetica,sans-Serif" font-size="10.00">external/SiftGPU/src</text>
<text text-anchor="middle" x="1760" y="-8" font-family="Helvetica,sans-Serif" font-size="10.00">/TestWin/SimpleSIFT.cpp</text>
</a>
</g>
</g>
<!-- Node1&#45;&gt;Node13 -->
<g id="edge12" class="edge"><title>Node1&#45;&gt;Node13</title>
<path fill="none" stroke="midnightblue" d="M1136.93,-80.0815C1248.57,-74.4486 1486.14,-60.0787 1685,-32 1688.16,-31.5544 1691.38,-31.0606 1694.63,-30.5314"/>
<polygon fill="midnightblue" stroke="midnightblue" points="1136.66,-76.5904 1126.85,-80.5836 1137.01,-83.5818 1136.66,-76.5904"/>
</g>
<!-- Node14 -->
<g id="node14" class="node"><title>Node14</title>
<g id="a_node14"><a xlink:href="../../de/d95/speed_8cpp.html" target="_top" xlink:title="external/SiftGPU/src\l/TestWin/speed.cpp">
<polygon fill="white" stroke="black" points="1843.5,-1 1843.5,-31 1950.5,-31 1950.5,-1 1843.5,-1"/>
<text text-anchor="start" x="1851.5" y="-19" font-family="Helvetica,sans-Serif" font-size="10.00">external/SiftGPU/src</text>
<text text-anchor="middle" x="1897" y="-8" font-family="Helvetica,sans-Serif" font-size="10.00">/TestWin/speed.cpp</text>
</a>
</g>
</g>
<!-- Node1&#45;&gt;Node14 -->
<g id="edge13" class="edge"><title>Node1&#45;&gt;Node14</title>
<path fill="none" stroke="midnightblue" d="M1137.13,-82.3039C1268.58,-80.0866 1577.79,-70.8093 1834,-32 1837,-31.5454 1840.07,-31.0198 1843.16,-30.4432"/>
<polygon fill="midnightblue" stroke="midnightblue" points="1136.79,-78.8088 1126.85,-82.4689 1136.9,-85.8079 1136.79,-78.8088"/>
</g>
<!-- Node15 -->
<g id="node15" class="node"><title>Node15</title>
<g id="a_node15"><a xlink:href="../../d4/dc7/sift__gpu__wrapper_8h.html" target="_top" xlink:title="src/sift_gpu_wrapper.h">
<polygon fill="white" stroke="black" points="1969,-6.5 1969,-25.5 2085,-25.5 2085,-6.5 1969,-6.5"/>
<text text-anchor="middle" x="2027" y="-13.5" font-family="Helvetica,sans-Serif" font-size="10.00">src/sift_gpu_wrapper.h</text>
</a>
</g>
</g>
<!-- Node1&#45;&gt;Node15 -->
<g id="edge14" class="edge"><title>Node1&#45;&gt;Node15</title>
<path fill="none" stroke="midnightblue" d="M1136.86,-82.8091C1283.06,-81.6129 1653.08,-74.2701 1959,-32 1970.26,-30.4446 1982.42,-28.009 1993.3,-25.5494"/>
<polygon fill="midnightblue" stroke="midnightblue" points="1136.69,-79.3101 1126.72,-82.885 1136.75,-86.31 1136.69,-79.3101"/>
</g>
</g>
</svg>
        <g id="navigator" transform="translate(0 0)" fill="#404254">
                <rect fill="#f2f5e9" fill-opacity="0.5" stroke="#606060" stroke-width=".5" x="0" y="0" width="60" height="60"/>
                <use id="zoomplus" xlink:href="#zoomPlus" x="17" y="9" onmousedown="handleZoom(evt,'in')"/>
                <use id="zoomminus" xlink:href="#zoomMin" x="42" y="9" onmousedown="handleZoom(evt,'out')"/>
                <use id="reset" xlink:href="#resetDef" x="30" y="36" onmousedown="handleReset()"/>
                <g id="arrowUp" xlink:href="#dirArrow" transform="translate(30 24)" onmousedown="handlePan(0,-1)">
                  <use xlink:href="#rim" fill="#404040">
                        <set attributeName="fill" to="#808080" begin="arrowUp.mouseover" end="arrowUp.mouseout"/>
                  </use>
                  <path fill="none" stroke="white" stroke-width="1.5" d="M0,-3.0v7 M-2.5,-0.5L0,-3.0L2.5,-0.5"/>
                </g>
                <g id="arrowRight" xlink:href="#dirArrow" transform="rotate(90) translate(36 -43)" onmousedown="handlePan(1,0)">
                  <use xlink:href="#rim" fill="#404040">
                        <set attributeName="fill" to="#808080" begin="arrowRight.mouseover" end="arrowRight.mouseout"/>
                  </use>
                  <path fill="none" stroke="white" stroke-width="1.5" d="M0,-3.0v7 M-2.5,-0.5L0,-3.0L2.5,-0.5"/>
                </g>
                <g id="arrowDown" xlink:href="#dirArrow" transform="rotate(180) translate(-30 -48)" onmousedown="handlePan(0,1)">
                  <use xlink:href="#rim" fill="#404040">
                        <set attributeName="fill" to="#808080" begin="arrowDown.mouseover" end="arrowDown.mouseout"/>
                  </use>
                  <path fill="none" stroke="white" stroke-width="1.5" d="M0,-3.0v7 M-2.5,-0.5L0,-3.0L2.5,-0.5"/>
                </g>
                <g id="arrowLeft" xlink:href="#dirArrow" transform="rotate(270) translate(-36 17)" onmousedown="handlePan(-1,0)">
                  <use xlink:href="#rim" fill="#404040">
                        <set attributeName="fill" to="#808080" begin="arrowLeft.mouseover" end="arrowLeft.mouseout"/>
                  </use>
                  <path fill="none" stroke="white" stroke-width="1.5" d="M0,-3.0v7 M-2.5,-0.5L0,-3.0L2.5,-0.5"/>
                </g>
        </g>
        <svg viewBox="0 0 15 15" width="100%" height="30px" preserveAspectRatio="xMaxYMin meet">
         <g id="arrow_out" transform="scale(0.3 0.3)">
          <a xlink:href="SiftGPU_8h__dep__incl_org.svg" target="_base">
           <rect id="button" ry="5" rx="5" y="6" x="6" height="38" width="38"
                fill="#f2f5e9" fill-opacity="0.5" stroke="#606060" stroke-width="1.0"/>
           <path id="arrow"
             d="M 11.500037,31.436501 C 11.940474,20.09759 22.043105,11.32322 32.158766,21.979434 L 37.068811,17.246167 C 37.068811,17.246167 37.088388,32 37.088388,32 L 22.160133,31.978069 C 22.160133,31.978069 26.997745,27.140456 26.997745,27.140456 C 18.528582,18.264221 13.291696,25.230495 11.500037,31.436501 z"
             style="fill:#404040;"/>
          </a>
         </g>
        </svg>
</svg>
