<?xml version="1.0" encoding="UTF-8" standalone="no"?>
<!DOCTYPE svg PUBLIC "-//W3C//DTD SVG 1.1//EN"
 "http://www.w3.org/Graphics/SVG/1.1/DTD/svg11.dtd">
<!-- Generated by graphviz version 2.36.0 (20140111.2315)
 -->
<!-- Title: Node::projectTo3D Pages: 1 -->
<svg width="284pt" height="180pt"
 viewBox="0.00 0.00 284.00 180.00" xmlns="http://www.w3.org/2000/svg" xmlns:xlink="http://www.w3.org/1999/xlink">
<g id="graph0" class="graph" transform="scale(1 1) rotate(0) translate(4 176)">
<title>Node::projectTo3D</title>
<polygon fill="white" stroke="none" points="-4,4 -4,-176 280,-176 280,4 -4,4"/>
<!-- Node1 -->
<g id="node1" class="node"><title>Node1</title>
<polygon fill="#bfbfbf" stroke="black" points="0.5,-76.5 0.5,-95.5 99.5,-95.5 99.5,-76.5 0.5,-76.5"/>
<text text-anchor="middle" x="50" y="-83.5" font-family="Helvetica,sans-Serif" font-size="10.00">Node::projectTo3D</text>
</g>
<!-- Node2 -->
<g id="node2" class="node"><title>Node2</title>
<g id="a_node2"><a xlink:href="../../d3/d3e/classParameterServer.html#a5457f900e543c5a466bf9b65ee6bc577" target="_top" xlink:title="ParameterServer::instance">
<polygon fill="white" stroke="black" points="139.5,-152.5 139.5,-171.5 272.5,-171.5 272.5,-152.5 139.5,-152.5"/>
<text text-anchor="middle" x="206" y="-159.5" font-family="Helvetica,sans-Serif" font-size="10.00">ParameterServer::instance</text>
</a>
</g>
</g>
<!-- Node1&#45;&gt;Node2 -->
<g id="edge1" class="edge"><title>Node1&#45;&gt;Node2</title>
<path fill="none" stroke="midnightblue" d="M62.6542,-95.6177C78.3918,-108.167 107.733,-130.046 136,-143 141.083,-145.329 146.511,-147.427 152.006,-149.302"/>
<polygon fill="midnightblue" stroke="midnightblue" points="151.318,-152.756 161.908,-152.439 153.432,-146.083 151.318,-152.756"/>
</g>
<!-- Node3 -->
<g id="node3" class="node"><title>Node3</title>
<g id="a_node3"><a xlink:href="../../d3/d3e/classParameterServer.html#a3c8af50664e423b555bbb1874f488413" target="_top" xlink:title="ParameterServer::get">
<polygon fill="white" stroke="black" points="151,-114.5 151,-133.5 261,-133.5 261,-114.5 151,-114.5"/>
<text text-anchor="middle" x="206" y="-121.5" font-family="Helvetica,sans-Serif" font-size="10.00">ParameterServer::get</text>
</a>
</g>
</g>
<!-- Node1&#45;&gt;Node3 -->
<g id="edge2" class="edge"><title>Node1&#45;&gt;Node3</title>
<path fill="none" stroke="midnightblue" d="M89.8607,-95.589C110.091,-100.581 135.021,-106.732 156.504,-112.033"/>
<polygon fill="midnightblue" stroke="midnightblue" points="155.871,-115.482 166.419,-114.48 157.548,-108.686 155.871,-115.482"/>
</g>
<!-- Node4 -->
<g id="node4" class="node"><title>Node4</title>
<g id="a_node4"><a xlink:href="../../d7/d5f/misc_8cpp.html#ae9f9d8888e9caa7ac0047793e40481a1" target="_top" xlink:title="getMinDepthInNeighborhood">
<polygon fill="white" stroke="black" points="136,-76.5 136,-95.5 276,-95.5 276,-76.5 136,-76.5"/>
<text text-anchor="middle" x="206" y="-83.5" font-family="Helvetica,sans-Serif" font-size="10.00">getMinDepthInNeighborhood</text>
</a>
</g>
</g>
<!-- Node1&#45;&gt;Node4 -->
<g id="edge3" class="edge"><title>Node1&#45;&gt;Node4</title>
<path fill="none" stroke="midnightblue" d="M99.7266,-86C108.05,-86 116.885,-86 125.759,-86"/>
<polygon fill="midnightblue" stroke="midnightblue" points="125.771,-89.5001 135.771,-86 125.771,-82.5001 125.771,-89.5001"/>
</g>
<!-- Node5 -->
<g id="node5" class="node"><title>Node5</title>
<g id="a_node5"><a xlink:href="../../d7/d5f/misc_8cpp.html#a8e7a4140590e8656e82d7c4734020815" target="_top" xlink:title="round">
<polygon fill="white" stroke="black" points="185.5,-38.5 185.5,-57.5 226.5,-57.5 226.5,-38.5 185.5,-38.5"/>
<text text-anchor="middle" x="206" y="-45.5" font-family="Helvetica,sans-Serif" font-size="10.00">round</text>
</a>
</g>
</g>
<!-- Node1&#45;&gt;Node5 -->
<g id="edge4" class="edge"><title>Node1&#45;&gt;Node5</title>
<path fill="none" stroke="midnightblue" d="M89.8607,-76.411C116.525,-69.8315 151.353,-61.2376 175.693,-55.2317"/>
<polygon fill="midnightblue" stroke="midnightblue" points="176.557,-58.6234 185.427,-52.8296 174.88,-51.8273 176.557,-58.6234"/>
</g>
<!-- Node6 -->
<g id="node6" class="node"><title>Node6</title>
<g id="a_node6"><a xlink:href="../../de/dd9/misc2_8h.html#a545b1d6d9a8b6e450e9e13b9914faabc" target="_top" xlink:title="backProject">
<polygon fill="white" stroke="black" points="172,-0.5 172,-19.5 240,-19.5 240,-0.5 172,-0.5"/>
<text text-anchor="middle" x="206" y="-7.5" font-family="Helvetica,sans-Serif" font-size="10.00">backProject</text>
</a>
</g>
</g>
<!-- Node1&#45;&gt;Node6 -->
<g id="edge5" class="edge"><title>Node1&#45;&gt;Node6</title>
<path fill="none" stroke="midnightblue" d="M62.6542,-76.3823C78.3918,-63.8334 107.733,-41.9538 136,-29 144.207,-25.2391 153.313,-22.0825 162.147,-19.4902"/>
<polygon fill="midnightblue" stroke="midnightblue" points="163.227,-22.8234 171.944,-16.801 161.374,-16.0732 163.227,-22.8234"/>
</g>
</g>
</svg>
