<?xml version="1.0" encoding="UTF-8" standalone="no"?>
<!DOCTYPE svg PUBLIC "-//W3C//DTD SVG 1.1//EN"
 "http://www.w3.org/Graphics/SVG/1.1/DTD/svg11.dtd">
<!-- Generated by graphviz version 2.36.0 (20140111.2315)
 -->
<!-- Title: Node::matchNodePair Pages: 1 -->
<!--zoomable 778 -->
<svg id="main" version="1.1" xmlns="http://www.w3.org/2000/svg" xmlns:xlink="http://www.w3.org/1999/xlink" xml:space="preserve" onload="init(evt)">
<style type="text/css"><![CDATA[
.edge:hover path { stroke: red; }
.edge:hover polygon { stroke: red; fill: red; }
]]></style>
<script type="text/javascript"><![CDATA[
var edges = document.getElementsByTagName('g');
if (edges && edges.length) {
  for (var i=0;i<edges.length;i++) {
    if (edges[i].id.substr(0,4)=='edge') {
      edges[i].setAttribute('class','edge');
    }
  }
}
]]></script>
        <defs>
                <circle id="rim" cx="0" cy="0" r="7"/>
                <circle id="rim2" cx="0" cy="0" r="3.5"/>
                <g id="zoomPlus">
                        <use xlink:href="#rim" fill="#404040">
                                <set attributeName="fill" to="#808080" begin="zoomplus.mouseover" end="zoomplus.mouseout"/>
                        </use>
                        <path d="M-4,0h8M0,-4v8" fill="none" stroke="white" stroke-width="1.5" pointer-events="none"/>
                </g>
                <g id="zoomMin">
                        <use xlink:href="#rim" fill="#404040">
                                <set attributeName="fill" to="#808080" begin="zoomminus.mouseover" end="zoomminus.mouseout"/>
                        </use>
                        <path d="M-4,0h8" fill="none" stroke="white" stroke-width="1.5" pointer-events="none"/>
                </g>
                <g id="dirArrow">
                        <path fill="none" stroke="white" stroke-width="1.5" d="M0,-3.0v7 M-2.5,-0.5L0,-3.0L2.5,-0.5"/>
                </g>
               <g id="resetDef">
                       <use xlink:href="#rim2" fill="#404040">
                               <set attributeName="fill" to="#808080" begin="reset.mouseover" end="reset.mouseout"/>
                       </use>
               </g>
        </defs>

<script type="text/javascript">
var viewWidth = 1392;
var viewHeight = 778;
var sectionId = 'dynsection-10';
</script>
<script xlink:href="../../svgpan.js"/>
<svg id="graph" class="graph">
<g id="viewport">
<title>Node::matchNodePair</title>
<polygon fill="white" stroke="none" points="-4,4 -4,-774 1388,-774 1388,4 -4,4"/>
<!-- Node1 -->
<g id="node1" class="node"><title>Node1</title>
<polygon fill="#bfbfbf" stroke="black" points="0.5,-171.5 0.5,-190.5 113.5,-190.5 113.5,-171.5 0.5,-171.5"/>
<text text-anchor="middle" x="57" y="-178.5" font-family="Helvetica,sans-Serif" font-size="10.00">Node::matchNodePair</text>
</g>
<!-- Node2 -->
<g id="node2" class="node"><title>Node2</title>
<g id="a_node2"><a xlink:href="../../d3/d3e/classParameterServer.html#a5457f900e543c5a466bf9b65ee6bc577" target="_top" xlink:title="ParameterServer::instance">
<polygon fill="white" stroke="black" points="1250.5,-475.5 1250.5,-494.5 1383.5,-494.5 1383.5,-475.5 1250.5,-475.5"/>
<text text-anchor="middle" x="1317" y="-482.5" font-family="Helvetica,sans-Serif" font-size="10.00">ParameterServer::instance</text>
</a>
</g>
</g>
<!-- Node1&#45;&gt;Node2 -->
<g id="edge1" class="edge"><title>Node1&#45;&gt;Node2</title>
<path fill="none" stroke="midnightblue" d="M57.7731,-190.623C57.1306,-237.559 59.6812,-445.52 150,-577 236.619,-703.093 282.022,-770 435,-770 435,-770 435,-770 971,-770 1138.77,-770 1268.99,-567.204 1305.63,-503.746"/>
<polygon fill="midnightblue" stroke="midnightblue" points="1308.81,-505.235 1310.7,-494.81 1302.72,-501.782 1308.81,-505.235"/>
</g>
<!-- Node3 -->
<g id="node3" class="node"><title>Node3</title>
<g id="a_node3"><a xlink:href="../../db/d82/wglew_8h.html#a500a82aecba06f4550f6849b8099ca21" target="_top" xlink:title="int">
<polygon fill="white" stroke="black" points="955.5,-456.5 955.5,-475.5 984.5,-475.5 984.5,-456.5 955.5,-456.5"/>
<text text-anchor="middle" x="970" y="-463.5" font-family="Helvetica,sans-Serif" font-size="10.00">int</text>
</a>
</g>
</g>
<!-- Node1&#45;&gt;Node3 -->
<g id="edge2" class="edge"><title>Node1&#45;&gt;Node3</title>
<path fill="none" stroke="midnightblue" d="M60.9862,-190.739C70.0695,-218.975 99.8502,-302.032 150,-352 251.693,-453.324 291.444,-504 435,-504 435,-504 435,-504 626,-504 730.186,-504 756.808,-504.357 860,-490 889.853,-485.847 923.669,-477.88 945.611,-472.267"/>
<polygon fill="midnightblue" stroke="midnightblue" points="946.565,-475.636 955.36,-469.728 944.8,-468.862 946.565,-475.636"/>
</g>
<!-- Node4 -->
<g id="node4" class="node"><title>Node4</title>
<g id="a_node4"><a xlink:href="../../d3/d3e/classParameterServer.html#a3c8af50664e423b555bbb1874f488413" target="_top" xlink:title="ParameterServer::get">
<polygon fill="white" stroke="black" points="1262,-342.5 1262,-361.5 1372,-361.5 1372,-342.5 1262,-342.5"/>
<text text-anchor="middle" x="1317" y="-349.5" font-family="Helvetica,sans-Serif" font-size="10.00">ParameterServer::get</text>
</a>
</g>
</g>
<!-- Node1&#45;&gt;Node4 -->
<g id="edge3" class="edge"><title>Node1&#45;&gt;Node4</title>
<path fill="none" stroke="midnightblue" d="M95.7079,-171.459C163.254,-155.233 309.56,-124 435,-124 435,-124 435,-124 971,-124 1080.45,-124 1124.82,-100.545 1214,-164 1273.06,-206.021 1301.35,-293.257 1311.47,-332.33"/>
<polygon fill="midnightblue" stroke="midnightblue" points="1308.11,-333.325 1313.89,-342.2 1314.9,-331.653 1308.11,-333.325"/>
</g>
<!-- Node5 -->
<g id="node5" class="node"><title>Node5</title>
<g id="a_node5"><a xlink:href="../../df/dd0/classNode.html#a3593ebae998adac8b73d7e941b486c49" target="_top" xlink:title="Node::featureMatching">
<polygon fill="white" stroke="black" points="740,-599.5 740,-618.5 856,-618.5 856,-599.5 740,-599.5"/>
<text text-anchor="middle" x="798" y="-606.5" font-family="Helvetica,sans-Serif" font-size="10.00">Node::featureMatching</text>
</a>
</g>
</g>
<!-- Node1&#45;&gt;Node5 -->
<g id="edge4" class="edge"><title>Node1&#45;&gt;Node5</title>
<path fill="none" stroke="midnightblue" d="M59.2328,-190.535C65.8812,-240.461 99.0598,-471.253 150,-518 316.034,-670.366 614.015,-641.052 739.161,-620.279"/>
<polygon fill="midnightblue" stroke="midnightblue" points="740.029,-623.682 749.299,-618.551 738.853,-616.781 740.029,-623.682"/>
</g>
<!-- Node11 -->
<g id="node11" class="node"><title>Node11</title>
<g id="a_node11"><a xlink:href="../../df/dd0/classNode.html#a6414ea84b27691d2451f5eca2c3c0ac1" target="_top" xlink:title="Compute the relative transformation between the nodes. ">
<polygon fill="white" stroke="black" points="150,-323.5 150,-342.5 322,-342.5 322,-323.5 150,-323.5"/>
<text text-anchor="middle" x="236" y="-330.5" font-family="Helvetica,sans-Serif" font-size="10.00">Node::getRelativeTransformationTo</text>
</a>
</g>
</g>
<!-- Node1&#45;&gt;Node11 -->
<g id="edge14" class="edge"><title>Node1&#45;&gt;Node11</title>
<path fill="none" stroke="midnightblue" d="M69.0721,-190.508C98.4998,-215.779 178.927,-284.847 215.921,-316.616"/>
<polygon fill="midnightblue" stroke="midnightblue" points="214.065,-319.636 223.932,-323.495 218.626,-314.325 214.065,-319.636"/>
</g>
<!-- Node23 -->
<g id="node23" class="node"><title>Node23</title>
<g id="a_node23"><a xlink:href="../../d7/d70/node_8cpp.html#aa98d49a0e825d3a8556f13f76bf86b8a" target="_top" xlink:title="pairwiseObservationLikelihood">
<polygon fill="white" stroke="black" points="550.5,-190.5 550.5,-209.5 699.5,-209.5 699.5,-190.5 550.5,-190.5"/>
<text text-anchor="middle" x="625" y="-197.5" font-family="Helvetica,sans-Serif" font-size="10.00">pairwiseObservationLikelihood</text>
</a>
</g>
</g>
<!-- Node1&#45;&gt;Node23 -->
<g id="edge34" class="edge"><title>Node1&#45;&gt;Node23</title>
<path fill="none" stroke="midnightblue" d="M113.536,-179.544C199.483,-177.757 369.854,-176.07 514,-186 525.364,-186.783 537.351,-187.952 549.065,-189.286"/>
<polygon fill="midnightblue" stroke="midnightblue" points="548.925,-192.794 559.268,-190.496 549.75,-185.843 548.925,-192.794"/>
</g>
<!-- Node28 -->
<g id="node28" class="node"><title>Node28</title>
<g id="a_node28"><a xlink:href="../../d7/d5f/misc_8cpp.html#aa1ee2bfacc8626268bd8c12368e3f38c" target="_top" xlink:title="Quality is output param. ">
<polygon fill="white" stroke="black" points="1083,-342.5 1083,-361.5 1211,-361.5 1211,-342.5 1083,-342.5"/>
<text text-anchor="middle" x="1147" y="-349.5" font-family="Helvetica,sans-Serif" font-size="10.00">observation_criterion_met</text>
</a>
</g>
</g>
<!-- Node1&#45;&gt;Node28 -->
<g id="edge43" class="edge"><title>Node1&#45;&gt;Node28</title>
<path fill="none" stroke="midnightblue" d="M113.674,-188.52C225.38,-203.958 484.592,-241.538 700,-286 716.152,-289.334 719.809,-291.86 736,-295 852.996,-317.69 990.463,-334.902 1072.78,-344.212"/>
<polygon fill="midnightblue" stroke="midnightblue" points="1072.46,-347.698 1082.79,-345.336 1073.24,-340.742 1072.46,-347.698"/>
</g>
<!-- Node29 -->
<g id="node29" class="node"><title>Node29</title>
<g id="a_node29"><a xlink:href="../../d7/d7a/icp_8h.html#a35fb7940503bf5ba5f94ef9dcb6ad3e3" target="_top" xlink:title="Filter NaNs. Uniformly subsample the remaining points to achieve the desired size. ">
<polygon fill="white" stroke="black" points="205.5,-76.5 205.5,-95.5 266.5,-95.5 266.5,-76.5 205.5,-76.5"/>
<text text-anchor="middle" x="236" y="-83.5" font-family="Helvetica,sans-Serif" font-size="10.00">filterCloud</text>
</a>
</g>
</g>
<!-- Node1&#45;&gt;Node29 -->
<g id="edge46" class="edge"><title>Node1&#45;&gt;Node29</title>
<path fill="none" stroke="midnightblue" d="M67.8693,-171.271C83.8197,-156.065 116.839,-126.688 150,-110 164.134,-102.887 180.684,-97.6093 195.406,-93.8425"/>
<polygon fill="midnightblue" stroke="midnightblue" points="196.35,-97.2152 205.253,-91.4721 194.712,-90.4095 196.35,-97.2152"/>
</g>
<!-- Node30 -->
<g id="node30" class="node"><title>Node30</title>
<g id="a_node30"><a xlink:href="../../d7/d7a/icp_8h.html#aff9db6a8526984d12debe4f90312e726" target="_top" xlink:title="icpAlignment">
<polygon fill="white" stroke="black" points="199.5,-38.5 199.5,-57.5 272.5,-57.5 272.5,-38.5 199.5,-38.5"/>
<text text-anchor="middle" x="236" y="-45.5" font-family="Helvetica,sans-Serif" font-size="10.00">icpAlignment</text>
</a>
</g>
</g>
<!-- Node1&#45;&gt;Node30 -->
<g id="edge47" class="edge"><title>Node1&#45;&gt;Node30</title>
<path fill="none" stroke="midnightblue" d="M62.9019,-171.21C74.6261,-148.868 106.576,-93.9742 150,-67 161.771,-59.6881 176.007,-55.1763 189.434,-52.397"/>
<polygon fill="midnightblue" stroke="midnightblue" points="190.267,-55.8036 199.491,-50.5916 189.03,-48.9138 190.267,-55.8036"/>
</g>
<!-- Node31 -->
<g id="node31" class="node"><title>Node31</title>
<g id="a_node31"><a xlink:href="../../d7/d5f/misc_8cpp.html#a3e76d2b492d7a82d93174c0519073a98" target="_top" xlink:title="Conversion Function. ">
<polygon fill="white" stroke="black" points="203.5,-0.5 203.5,-19.5 268.5,-19.5 268.5,-0.5 203.5,-0.5"/>
<text text-anchor="middle" x="236" y="-7.5" font-family="Helvetica,sans-Serif" font-size="10.00">eigen2G2O</text>
</a>
</g>
</g>
<!-- Node1&#45;&gt;Node31 -->
<g id="edge48" class="edge"><title>Node1&#45;&gt;Node31</title>
<path fill="none" stroke="midnightblue" d="M60.8709,-171.316C69.4584,-144.127 97.6512,-66.6269 150,-29 162.57,-19.965 178.68,-15.1177 193.488,-12.5537"/>
<polygon fill="midnightblue" stroke="midnightblue" points="194.072,-16.0059 203.473,-11.12 193.077,-9.07694 194.072,-16.0059"/>
</g>
<!-- Node5&#45;&gt;Node2 -->
<g id="edge5" class="edge"><title>Node5&#45;&gt;Node2</title>
<path fill="none" stroke="midnightblue" d="M856.121,-617.237C939.123,-626.578 1096.03,-634.189 1214,-580 1252.24,-562.433 1285.6,-524.89 1303.06,-502.62"/>
<polygon fill="midnightblue" stroke="midnightblue" points="1305.86,-504.715 1309.15,-494.641 1300.3,-500.469 1305.86,-504.715"/>
</g>
<!-- Node5&#45;&gt;Node3 -->
<g id="edge13" class="edge"><title>Node5&#45;&gt;Node3</title>
<path fill="none" stroke="midnightblue" d="M810.418,-599.395C839.089,-575.278 914.353,-511.968 949.894,-482.071"/>
<polygon fill="midnightblue" stroke="midnightblue" points="952.232,-484.679 957.632,-475.563 947.726,-479.322 952.232,-484.679"/>
</g>
<!-- Node5&#45;&gt;Node4 -->
<g id="edge6" class="edge"><title>Node5&#45;&gt;Node4</title>
<path fill="none" stroke="midnightblue" d="M818.237,-599.471C875.244,-571.207 1039.6,-489.514 1044,-485 1070.08,-458.228 1051,-432.58 1080,-409 1093.76,-397.815 1191.37,-376.711 1256.67,-363.558"/>
<polygon fill="midnightblue" stroke="midnightblue" points="1257.74,-366.914 1266.86,-361.518 1256.36,-360.05 1257.74,-366.914"/>
</g>
<!-- Node6 -->
<g id="node6" class="node"><title>Node6</title>
<g id="a_node6"><a xlink:href="../../d7/dc4/classSiftGPUWrapper.html#aa5c9eb7fff96d65e839bd1068ebae286" target="_top" xlink:title="SiftGPUWrapper::getInstance">
<polygon fill="white" stroke="black" points="896.5,-722.5 896.5,-741.5 1043.5,-741.5 1043.5,-722.5 896.5,-722.5"/>
<text text-anchor="middle" x="970" y="-729.5" font-family="Helvetica,sans-Serif" font-size="10.00">SiftGPUWrapper::getInstance</text>
</a>
</g>
</g>
<!-- Node5&#45;&gt;Node6 -->
<g id="edge7" class="edge"><title>Node5&#45;&gt;Node6</title>
<path fill="none" stroke="midnightblue" d="M805.214,-618.742C818.945,-639.447 854.005,-687.974 896,-713 899.67,-715.187 903.591,-717.125 907.638,-718.843"/>
<polygon fill="midnightblue" stroke="midnightblue" points="906.661,-722.215 917.253,-722.462 909.127,-715.664 906.661,-722.215"/>
</g>
<!-- Node7 -->
<g id="node7" class="node"><title>Node7</title>
<g id="a_node7"><a xlink:href="../../d7/dc4/classSiftGPUWrapper.html#ae1b9dd41e73ed1e5128db7f33201ba3a" target="_top" xlink:title="SiftGPUWrapper::match">
<polygon fill="white" stroke="black" points="908.5,-684.5 908.5,-703.5 1031.5,-703.5 1031.5,-684.5 908.5,-684.5"/>
<text text-anchor="middle" x="970" y="-691.5" font-family="Helvetica,sans-Serif" font-size="10.00">SiftGPUWrapper::match</text>
</a>
</g>
</g>
<!-- Node5&#45;&gt;Node7 -->
<g id="edge8" class="edge"><title>Node5&#45;&gt;Node7</title>
<path fill="none" stroke="midnightblue" d="M810.167,-618.516C827.457,-632.784 862.243,-659.68 896,-675 901.348,-677.427 907.062,-679.587 912.85,-681.498"/>
<polygon fill="midnightblue" stroke="midnightblue" points="912.023,-684.905 922.609,-684.485 914.071,-678.212 912.023,-684.905"/>
</g>
<!-- Node8 -->
<g id="node8" class="node"><title>Node8</title>
<g id="a_node8"><a xlink:href="../../d9/dcb/features_8cpp.html#ab83576fffb06103339a41d363d199761" target="_top" xlink:title="bruteForceSearchORB">
<polygon fill="white" stroke="black" points="912,-646.5 912,-665.5 1028,-665.5 1028,-646.5 912,-646.5"/>
<text text-anchor="middle" x="970" y="-653.5" font-family="Helvetica,sans-Serif" font-size="10.00">bruteForceSearchORB</text>
</a>
</g>
</g>
<!-- Node5&#45;&gt;Node8 -->
<g id="edge9" class="edge"><title>Node5&#45;&gt;Node8</title>
<path fill="none" stroke="midnightblue" d="M833.402,-618.511C859.699,-625.781 896.154,-635.86 924.643,-643.737"/>
<polygon fill="midnightblue" stroke="midnightblue" points="923.787,-647.131 934.358,-646.422 925.652,-640.384 923.787,-647.131"/>
</g>
<!-- Node9 -->
<g id="node9" class="node"><title>Node9</title>
<g id="a_node9"><a xlink:href="../../df/dd0/classNode.html#a0a845cd744860df353a246a7e56aeda5" target="_top" xlink:title="Node::knnSearch">
<polygon fill="white" stroke="black" points="924,-570.5 924,-589.5 1016,-589.5 1016,-570.5 924,-570.5"/>
<text text-anchor="middle" x="970" y="-577.5" font-family="Helvetica,sans-Serif" font-size="10.00">Node::knnSearch</text>
</a>
</g>
</g>
<!-- Node5&#45;&gt;Node9 -->
<g id="edge10" class="edge"><title>Node5&#45;&gt;Node9</title>
<path fill="none" stroke="midnightblue" d="M855.135,-599.424C874.073,-596.193 895.179,-592.593 914.026,-589.378"/>
<polygon fill="midnightblue" stroke="midnightblue" points="914.674,-592.818 923.943,-587.686 913.496,-585.918 914.674,-592.818"/>
</g>
<!-- Node10 -->
<g id="node10" class="node"><title>Node10</title>
<g id="a_node10"><a xlink:href="../../df/dd0/classNode.html#ac94f231cfd44a191d4eb6aaeb390b05d" target="_top" xlink:title="Node::getFlannIndex">
<polygon fill="white" stroke="black" points="1093.5,-551.5 1093.5,-570.5 1200.5,-570.5 1200.5,-551.5 1093.5,-551.5"/>
<text text-anchor="middle" x="1147" y="-558.5" font-family="Helvetica,sans-Serif" font-size="10.00">Node::getFlannIndex</text>
</a>
</g>
</g>
<!-- Node9&#45;&gt;Node10 -->
<g id="edge11" class="edge"><title>Node9&#45;&gt;Node10</title>
<path fill="none" stroke="midnightblue" d="M1016.07,-575.107C1036.53,-572.885 1061.08,-570.22 1083.3,-567.808"/>
<polygon fill="midnightblue" stroke="midnightblue" points="1083.76,-571.278 1093.32,-566.719 1083,-564.319 1083.76,-571.278"/>
</g>
<!-- Node10&#45;&gt;Node2 -->
<g id="edge12" class="edge"><title>Node10&#45;&gt;Node2</title>
<path fill="none" stroke="midnightblue" d="M1169.28,-551.375C1198.69,-538.069 1251.94,-513.98 1285.56,-498.772"/>
<polygon fill="midnightblue" stroke="midnightblue" points="1287.23,-501.858 1294.9,-494.547 1284.34,-495.48 1287.23,-501.858"/>
</g>
<!-- Node11&#45;&gt;Node2 -->
<g id="edge15" class="edge"><title>Node11&#45;&gt;Node2</title>
<path fill="none" stroke="midnightblue" d="M243.267,-342.579C259.233,-366.115 304.017,-426.905 358,-455 434.806,-494.972 464.311,-475.577 550,-488 632.382,-499.943 652.901,-505.103 736,-510 916.744,-520.652 1129.43,-504.044 1240.22,-493.189"/>
<polygon fill="midnightblue" stroke="midnightblue" points="1240.69,-496.66 1250.29,-492.19 1240,-489.694 1240.69,-496.66"/>
</g>
<!-- Node11&#45;&gt;Node3 -->
<g id="edge17" class="edge"><title>Node11&#45;&gt;Node3</title>
<path fill="none" stroke="midnightblue" d="M246.657,-342.548C265.948,-360.985 311.415,-401.31 358,-420 572.009,-505.86 861.671,-479.298 945.427,-469.14"/>
<polygon fill="midnightblue" stroke="midnightblue" points="945.952,-472.601 955.438,-467.882 945.08,-465.656 945.952,-472.601"/>
</g>
<!-- Node11&#45;&gt;Node4 -->
<g id="edge16" class="edge"><title>Node11&#45;&gt;Node4</title>
<path fill="none" stroke="midnightblue" d="M251.516,-323.452C294.744,-295.584 427.259,-214.234 550,-181 656.275,-152.224 686.898,-162 797,-162 797,-162 797,-162 971,-162 1082.68,-162 1120.21,-165.366 1214,-226 1256.94,-253.762 1290.31,-305.583 1306.06,-333.33"/>
<polygon fill="midnightblue" stroke="midnightblue" points="1303.16,-335.31 1311.05,-342.374 1309.28,-331.928 1303.16,-335.31"/>
</g>
<!-- Node12 -->
<g id="node12" class="node"><title>Node12</title>
<g id="a_node12"><a xlink:href="../../d7/d70/node_8cpp.html#ae6783e74cdfdf7592dcc37eed92111b9" target="_top" xlink:title="Randomly choose &lt;sample_size&gt; of the matches. ">
<polygon fill="white" stroke="black" points="375.5,-381 375.5,-411 496.5,-411 496.5,-381 375.5,-381"/>
<text text-anchor="start" x="383.5" y="-399" font-family="Helvetica,sans-Serif" font-size="10.00">sample_matches_prefer</text>
<text text-anchor="middle" x="436" y="-388" font-family="Helvetica,sans-Serif" font-size="10.00">_by_distance</text>
</a>
</g>
</g>
<!-- Node11&#45;&gt;Node12 -->
<g id="edge18" class="edge"><title>Node11&#45;&gt;Node12</title>
<path fill="none" stroke="midnightblue" d="M267.072,-342.568C296.342,-351.882 341.571,-366.273 377.719,-377.774"/>
<polygon fill="midnightblue" stroke="midnightblue" points="377.062,-381.238 387.653,-380.935 379.185,-374.568 377.062,-381.238"/>
</g>
<!-- Node13 -->
<g id="node13" class="node"><title>Node13</title>
<g id="a_node13"><a xlink:href="../../d7/de3/transformation__estimation__euclidean_8cpp.html#a0ee1461eedf67d77a90b243bb21abbf8" target="_top" xlink:title="getTransformFromMatches">
<polygon fill="white" stroke="black" points="1080,-418.5 1080,-437.5 1214,-437.5 1214,-418.5 1080,-418.5"/>
<text text-anchor="middle" x="1147" y="-425.5" font-family="Helvetica,sans-Serif" font-size="10.00">getTransformFromMatches</text>
</a>
</g>
</g>
<!-- Node11&#45;&gt;Node13 -->
<g id="edge19" class="edge"><title>Node11&#45;&gt;Node13</title>
<path fill="none" stroke="midnightblue" d="M260.146,-323.405C284.135,-314.018 322.96,-300.373 358,-295 426.532,-284.492 444.683,-293.51 514,-295 596.724,-296.778 621.588,-276.581 700,-303 718.46,-309.22 718.238,-320.002 736,-328 798.668,-356.22 989.684,-396.785 1087.27,-416.445"/>
<polygon fill="midnightblue" stroke="midnightblue" points="1086.78,-419.916 1097.27,-418.452 1088.15,-413.052 1086.78,-419.916"/>
</g>
<!-- Node14 -->
<g id="node14" class="node"><title>Node14</title>
<g id="a_node14"><a xlink:href="../../df/dd0/classNode.html#afa9bccaa864fb36110272870821e3045" target="_top" xlink:title="Node::computeInliersAndError">
<polygon fill="white" stroke="black" points="362,-304.5 362,-323.5 510,-323.5 510,-304.5 362,-304.5"/>
<text text-anchor="middle" x="436" y="-311.5" font-family="Helvetica,sans-Serif" font-size="10.00">Node::computeInliersAndError</text>
</a>
</g>
</g>
<!-- Node11&#45;&gt;Node14 -->
<g id="edge22" class="edge"><title>Node11&#45;&gt;Node14</title>
<path fill="none" stroke="midnightblue" d="M322.119,-324.832C331.921,-323.891 341.908,-322.933 351.685,-321.995"/>
<polygon fill="midnightblue" stroke="midnightblue" points="352.162,-325.465 361.782,-321.026 351.493,-318.497 352.162,-325.465"/>
</g>
<!-- Node18 -->
<g id="node18" class="node"><title>Node18</title>
<g id="a_node18"><a xlink:href="../../db/de8/transformation__estimation_8cpp.html#ae132bbe4221b90bd758bcb75348c413b" target="_top" xlink:title="Compute. ">
<polygon fill="white" stroke="black" points="358.5,-342.5 358.5,-361.5 513.5,-361.5 513.5,-342.5 358.5,-342.5"/>
<text text-anchor="middle" x="436" y="-349.5" font-family="Helvetica,sans-Serif" font-size="10.00">getTransformFromMatchesG2O</text>
</a>
</g>
</g>
<!-- Node11&#45;&gt;Node18 -->
<g id="edge28" class="edge"><title>Node11&#45;&gt;Node18</title>
<path fill="none" stroke="midnightblue" d="M322.119,-341.168C330.782,-341.999 339.591,-342.845 348.271,-343.678"/>
<polygon fill="midnightblue" stroke="midnightblue" points="348.097,-347.177 358.386,-344.648 348.766,-340.209 348.097,-347.177"/>
</g>
<!-- Node13&#45;&gt;Node2 -->
<g id="edge20" class="edge"><title>Node13&#45;&gt;Node2</title>
<path fill="none" stroke="midnightblue" d="M1183.09,-437.564C1193.12,-440.443 1204.03,-443.715 1214,-447 1237.03,-454.592 1262.6,-464.121 1282.38,-471.737"/>
<polygon fill="midnightblue" stroke="midnightblue" points="1281.28,-475.064 1291.87,-475.415 1283.81,-468.537 1281.28,-475.064"/>
</g>
<!-- Node13&#45;&gt;Node4 -->
<g id="edge21" class="edge"><title>Node13&#45;&gt;Node4</title>
<path fill="none" stroke="midnightblue" d="M1176.56,-418.475C1188.29,-414.342 1201.92,-409.25 1214,-404 1240.28,-392.574 1269.31,-377.526 1289.66,-366.559"/>
<polygon fill="midnightblue" stroke="midnightblue" points="1291.51,-369.535 1298.63,-361.686 1288.17,-363.385 1291.51,-369.535"/>
</g>
<!-- Node15 -->
<g id="node15" class="node"><title>Node15</title>
<g id="a_node15"><a xlink:href="../../d7/d5f/misc_8cpp.html#a001e65281aa59e3ed033b38f7fbac389" target="_top" xlink:title="errorFunction2">
<polygon fill="white" stroke="black" points="758.5,-380.5 758.5,-399.5 837.5,-399.5 837.5,-380.5 758.5,-380.5"/>
<text text-anchor="middle" x="798" y="-387.5" font-family="Helvetica,sans-Serif" font-size="10.00">errorFunction2</text>
</a>
</g>
</g>
<!-- Node14&#45;&gt;Node15 -->
<g id="edge23" class="edge"><title>Node14&#45;&gt;Node15</title>
<path fill="none" stroke="midnightblue" d="M510.066,-306.702C564.604,-304.182 639.78,-307.039 700,-333 719.932,-341.593 717.592,-354.5 736,-366 742.437,-370.021 749.659,-373.576 756.821,-376.634"/>
<polygon fill="midnightblue" stroke="midnightblue" points="755.887,-380.03 766.471,-380.494 758.487,-373.531 755.887,-380.03"/>
</g>
<!-- Node16 -->
<g id="node16" class="node"><title>Node16</title>
<g id="a_node16"><a xlink:href="../../de/dd9/misc2_8h.html#a9fd104b651d76a0fd52bc23c6588e71f" target="_top" xlink:title="depth_covariance">
<polygon fill="white" stroke="black" points="923.5,-418.5 923.5,-437.5 1016.5,-437.5 1016.5,-418.5 923.5,-418.5"/>
<text text-anchor="middle" x="970" y="-425.5" font-family="Helvetica,sans-Serif" font-size="10.00">depth_covariance</text>
</a>
</g>
</g>
<!-- Node15&#45;&gt;Node16 -->
<g id="edge24" class="edge"><title>Node15&#45;&gt;Node16</title>
<path fill="none" stroke="midnightblue" d="M837.576,-398.623C860.926,-403.842 891.019,-410.569 916.516,-416.268"/>
<polygon fill="midnightblue" stroke="midnightblue" points="915.877,-419.712 926.4,-418.478 917.404,-412.88 915.877,-419.712"/>
</g>
<!-- Node17 -->
<g id="node17" class="node"><title>Node17</title>
<g id="a_node17"><a xlink:href="../../de/dd9/misc2_8h.html#a44186cfabec64587c7bc742ae9dab267" target="_top" xlink:title="depth_std_dev">
<polygon fill="white" stroke="black" points="1107,-456.5 1107,-475.5 1187,-475.5 1187,-456.5 1107,-456.5"/>
<text text-anchor="middle" x="1147" y="-463.5" font-family="Helvetica,sans-Serif" font-size="10.00">depth_std_dev</text>
</a>
</g>
</g>
<!-- Node16&#45;&gt;Node17 -->
<g id="edge25" class="edge"><title>Node16&#45;&gt;Node17</title>
<path fill="none" stroke="midnightblue" d="M1015.16,-437.589C1040.1,-443.004 1071.32,-449.784 1097.01,-455.363"/>
<polygon fill="midnightblue" stroke="midnightblue" points="1096.41,-458.813 1106.92,-457.515 1097.89,-451.973 1096.41,-458.813"/>
</g>
<!-- Node17&#45;&gt;Node2 -->
<g id="edge26" class="edge"><title>Node17&#45;&gt;Node2</title>
<path fill="none" stroke="midnightblue" d="M1187.39,-470.455C1203.18,-472.241 1221.94,-474.362 1240.18,-476.425"/>
<polygon fill="midnightblue" stroke="midnightblue" points="1239.9,-479.916 1250.23,-477.562 1240.69,-472.96 1239.9,-479.916"/>
</g>
<!-- Node17&#45;&gt;Node4 -->
<g id="edge27" class="edge"><title>Node17&#45;&gt;Node4</title>
<path fill="none" stroke="midnightblue" d="M1187.27,-457.966C1196.38,-455.226 1205.8,-451.64 1214,-447 1250.09,-426.569 1283.58,-390.915 1301.77,-369.578"/>
<polygon fill="midnightblue" stroke="midnightblue" points="1304.66,-371.572 1308.38,-361.652 1299.29,-367.087 1304.66,-371.572"/>
</g>
<!-- Node19 -->
<g id="node19" class="node"><title>Node19</title>
<g id="a_node19"><a xlink:href="../../db/de8/transformation__estimation_8cpp.html#a455b14f62916ccaf06b60973ff60c0bd" target="_top" xlink:title="Set parameters for icp optimizer. ">
<polygon fill="white" stroke="black" points="584,-342.5 584,-361.5 666,-361.5 666,-342.5 584,-342.5"/>
<text text-anchor="middle" x="625" y="-349.5" font-family="Helvetica,sans-Serif" font-size="10.00">optimizerSetup</text>
</a>
</g>
</g>
<!-- Node18&#45;&gt;Node19 -->
<g id="edge29" class="edge"><title>Node18&#45;&gt;Node19</title>
<path fill="none" stroke="midnightblue" d="M513.6,-352C533.845,-352 555.185,-352 573.649,-352"/>
<polygon fill="midnightblue" stroke="midnightblue" points="573.87,-355.5 583.87,-352 573.87,-348.5 573.87,-355.5"/>
</g>
<!-- Node20 -->
<g id="node20" class="node"><title>Node20</title>
<g id="a_node20"><a xlink:href="../../db/de8/transformation__estimation_8cpp.html#a9092bcf56fd2c99c8ed1b3b93d5ea90d" target="_top" xlink:title="sensorVerticesSetup">
<polygon fill="white" stroke="black" points="571.5,-380.5 571.5,-399.5 678.5,-399.5 678.5,-380.5 571.5,-380.5"/>
<text text-anchor="middle" x="625" y="-387.5" font-family="Helvetica,sans-Serif" font-size="10.00">sensorVerticesSetup</text>
</a>
</g>
</g>
<!-- Node18&#45;&gt;Node20 -->
<g id="edge30" class="edge"><title>Node18&#45;&gt;Node20</title>
<path fill="none" stroke="midnightblue" d="M484.188,-361.589C509.42,-366.716 540.673,-373.067 567.227,-378.463"/>
<polygon fill="midnightblue" stroke="midnightblue" points="566.655,-381.918 577.151,-380.48 568.049,-375.059 566.655,-381.918"/>
</g>
<!-- Node21 -->
<g id="node21" class="node"><title>Node21</title>
<g id="a_node21"><a xlink:href="../../db/de8/transformation__estimation_8cpp.html#a03128e7debd64905353ca9ed99f87957" target="_top" xlink:title="edgeToFeature">
<polygon fill="white" stroke="black" points="584,-418.5 584,-437.5 666,-437.5 666,-418.5 584,-418.5"/>
<text text-anchor="middle" x="625" y="-425.5" font-family="Helvetica,sans-Serif" font-size="10.00">edgeToFeature</text>
</a>
</g>
</g>
<!-- Node18&#45;&gt;Node21 -->
<g id="edge31" class="edge"><title>Node18&#45;&gt;Node21</title>
<path fill="none" stroke="midnightblue" d="M489.479,-361.505C497.994,-364.195 506.478,-367.627 514,-372 533.835,-383.532 530.149,-397.496 550,-409 557.341,-413.254 565.634,-416.569 573.945,-419.147"/>
<polygon fill="midnightblue" stroke="midnightblue" points="573.08,-422.54 583.653,-421.849 574.957,-415.796 573.08,-422.54"/>
</g>
<!-- Node22 -->
<g id="node22" class="node"><title>Node22</title>
<g id="a_node22"><a xlink:href="../../de/dd9/misc2_8h.html#afbe45c56479961a8b78b900d2bf9b267" target="_top" xlink:title="point_information_matrix">
<polygon fill="white" stroke="black" points="736.5,-418.5 736.5,-437.5 859.5,-437.5 859.5,-418.5 736.5,-418.5"/>
<text text-anchor="middle" x="798" y="-425.5" font-family="Helvetica,sans-Serif" font-size="10.00">point_information_matrix</text>
</a>
</g>
</g>
<!-- Node21&#45;&gt;Node22 -->
<g id="edge32" class="edge"><title>Node21&#45;&gt;Node22</title>
<path fill="none" stroke="midnightblue" d="M666.092,-428C683.995,-428 705.64,-428 726.13,-428"/>
<polygon fill="midnightblue" stroke="midnightblue" points="726.392,-431.5 736.392,-428 726.392,-424.5 726.392,-431.5"/>
</g>
<!-- Node22&#45;&gt;Node16 -->
<g id="edge33" class="edge"><title>Node22&#45;&gt;Node16</title>
<path fill="none" stroke="midnightblue" d="M859.894,-428C877.251,-428 896.071,-428 913.114,-428"/>
<polygon fill="midnightblue" stroke="midnightblue" points="913.468,-431.5 923.468,-428 913.468,-424.5 913.468,-431.5"/>
</g>
<!-- Node24 -->
<g id="node24" class="node"><title>Node24</title>
<g id="a_node24"><a xlink:href="../../d7/d5f/misc_8cpp.html#a68317c5f245be471b8d9676b0de04206" target="_top" xlink:title="observationLikelihood">
<polygon fill="white" stroke="black" points="743,-266.5 743,-285.5 853,-285.5 853,-266.5 743,-266.5"/>
<text text-anchor="middle" x="798" y="-273.5" font-family="Helvetica,sans-Serif" font-size="10.00">observationLikelihood</text>
</a>
</g>
</g>
<!-- Node23&#45;&gt;Node24 -->
<g id="edge35" class="edge"><title>Node23&#45;&gt;Node24</title>
<path fill="none" stroke="midnightblue" d="M659.618,-209.511C672.443,-213.5 687.078,-218.493 700,-224 725.529,-234.88 753.312,-250.151 772.574,-261.33"/>
<polygon fill="midnightblue" stroke="midnightblue" points="770.903,-264.407 781.299,-266.451 774.447,-258.37 770.903,-264.407"/>
</g>
<!-- Node27 -->
<g id="node27" class="node"><title>Node27</title>
<g id="a_node27"><a xlink:href="../../df/dd0/classNode.html#a59fe0e8a0416efde2c422eb1586fefe2" target="_top" xlink:title="Node::getCamInfo">
<polygon fill="white" stroke="black" points="749.5,-190.5 749.5,-209.5 846.5,-209.5 846.5,-190.5 749.5,-190.5"/>
<text text-anchor="middle" x="798" y="-197.5" font-family="Helvetica,sans-Serif" font-size="10.00">Node::getCamInfo</text>
</a>
</g>
</g>
<!-- Node23&#45;&gt;Node27 -->
<g id="edge42" class="edge"><title>Node23&#45;&gt;Node27</title>
<path fill="none" stroke="midnightblue" d="M699.512,-200C712.797,-200 726.477,-200 739.232,-200"/>
<polygon fill="midnightblue" stroke="midnightblue" points="739.239,-203.5 749.239,-200 739.239,-196.5 739.239,-203.5"/>
</g>
<!-- Node24&#45;&gt;Node2 -->
<g id="edge36" class="edge"><title>Node24&#45;&gt;Node2</title>
<path fill="none" stroke="midnightblue" d="M844.276,-285.594C860.539,-288.848 879.049,-292.331 896,-295 1036.61,-317.14 1092.6,-258.68 1214,-333 1240.39,-349.153 1285.63,-428.654 1305.79,-465.804"/>
<polygon fill="midnightblue" stroke="midnightblue" points="1302.96,-467.922 1310.78,-475.071 1309.12,-464.606 1302.96,-467.922"/>
</g>
<!-- Node24&#45;&gt;Node3 -->
<g id="edge38" class="edge"><title>Node24&#45;&gt;Node3</title>
<path fill="none" stroke="midnightblue" d="M805.841,-285.728C817.604,-302.649 842.121,-338.779 860,-371 878.135,-403.681 867.21,-423.165 896,-447 909.718,-458.357 929.462,-463.01 944.958,-464.876"/>
<polygon fill="midnightblue" stroke="midnightblue" points="945.074,-468.4 955.344,-465.799 945.693,-461.427 945.074,-468.4"/>
</g>
<!-- Node24&#45;&gt;Node4 -->
<g id="edge37" class="edge"><title>Node24&#45;&gt;Node4</title>
<path fill="none" stroke="midnightblue" d="M810.601,-266.352C827.901,-252.66 862.074,-228.23 896,-219 959.471,-201.732 979.841,-204.496 1044,-219 1144.01,-241.609 1249.53,-306.981 1294.1,-336.822"/>
<polygon fill="midnightblue" stroke="midnightblue" points="1292.18,-339.749 1302.42,-342.459 1296.11,-333.953 1292.18,-339.749"/>
</g>
<!-- Node24&#45;&gt;Node16 -->
<g id="edge40" class="edge"><title>Node24&#45;&gt;Node16</title>
<path fill="none" stroke="midnightblue" d="M809.634,-285.508C837.898,-310.779 915.145,-379.847 950.675,-411.616"/>
<polygon fill="midnightblue" stroke="midnightblue" points="948.582,-414.439 958.37,-418.495 953.248,-409.221 948.582,-414.439"/>
</g>
<!-- Node25 -->
<g id="node25" class="node"><title>Node25</title>
<g id="a_node25"><a xlink:href="../../d7/d5f/misc_8cpp.html#a8e7a4140590e8656e82d7c4734020815" target="_top" xlink:title="round">
<polygon fill="white" stroke="black" points="949.5,-266.5 949.5,-285.5 990.5,-285.5 990.5,-266.5 949.5,-266.5"/>
<text text-anchor="middle" x="970" y="-273.5" font-family="Helvetica,sans-Serif" font-size="10.00">round</text>
</a>
</g>
</g>
<!-- Node24&#45;&gt;Node25 -->
<g id="edge39" class="edge"><title>Node24&#45;&gt;Node25</title>
<path fill="none" stroke="midnightblue" d="M853.256,-276C881.738,-276 915.543,-276 939.241,-276"/>
<polygon fill="midnightblue" stroke="midnightblue" points="939.363,-279.5 949.363,-276 939.363,-272.5 939.363,-279.5"/>
</g>
<!-- Node26 -->
<g id="node26" class="node"><title>Node26</title>
<g id="a_node26"><a xlink:href="../../d7/d5f/misc_8cpp.html#a3ef5ad497ff56ad294ad4ed2bc7d7660" target="_top" xlink:title="cdf">
<polygon fill="white" stroke="black" points="955,-228.5 955,-247.5 985,-247.5 985,-228.5 955,-228.5"/>
<text text-anchor="middle" x="970" y="-235.5" font-family="Helvetica,sans-Serif" font-size="10.00">cdf</text>
</a>
</g>
</g>
<!-- Node24&#45;&gt;Node26 -->
<g id="edge41" class="edge"><title>Node24&#45;&gt;Node26</title>
<path fill="none" stroke="midnightblue" d="M841.898,-266.411C874.404,-259.145 917.899,-249.423 944.655,-243.442"/>
<polygon fill="midnightblue" stroke="midnightblue" points="945.693,-246.796 954.689,-241.199 944.166,-239.965 945.693,-246.796"/>
</g>
<!-- Node28&#45;&gt;Node2 -->
<g id="edge44" class="edge"><title>Node28&#45;&gt;Node2</title>
<path fill="none" stroke="midnightblue" d="M1160.08,-361.565C1188.52,-384.078 1259.94,-440.62 1295.39,-468.68"/>
<polygon fill="midnightblue" stroke="midnightblue" points="1293.56,-471.7 1303.57,-475.163 1297.91,-466.212 1293.56,-471.7"/>
</g>
<!-- Node28&#45;&gt;Node4 -->
<g id="edge45" class="edge"><title>Node28&#45;&gt;Node4</title>
<path fill="none" stroke="midnightblue" d="M1211.03,-352C1224.39,-352 1238.5,-352 1251.89,-352"/>
<polygon fill="midnightblue" stroke="midnightblue" points="1251.97,-355.5 1261.97,-352 1251.97,-348.5 1251.97,-355.5"/>
</g>
</g>
</svg>
        <g id="navigator" transform="translate(0 0)" fill="#404254">
                <rect fill="#f2f5e9" fill-opacity="0.5" stroke="#606060" stroke-width=".5" x="0" y="0" width="60" height="60"/>
                <use id="zoomplus" xlink:href="#zoomPlus" x="17" y="9" onmousedown="handleZoom(evt,'in')"/>
                <use id="zoomminus" xlink:href="#zoomMin" x="42" y="9" onmousedown="handleZoom(evt,'out')"/>
                <use id="reset" xlink:href="#resetDef" x="30" y="36" onmousedown="handleReset()"/>
                <g id="arrowUp" xlink:href="#dirArrow" transform="translate(30 24)" onmousedown="handlePan(0,-1)">
                  <use xlink:href="#rim" fill="#404040">
                        <set attributeName="fill" to="#808080" begin="arrowUp.mouseover" end="arrowUp.mouseout"/>
                  </use>
                  <path fill="none" stroke="white" stroke-width="1.5" d="M0,-3.0v7 M-2.5,-0.5L0,-3.0L2.5,-0.5"/>
                </g>
                <g id="arrowRight" xlink:href="#dirArrow" transform="rotate(90) translate(36 -43)" onmousedown="handlePan(1,0)">
                  <use xlink:href="#rim" fill="#404040">
                        <set attributeName="fill" to="#808080" begin="arrowRight.mouseover" end="arrowRight.mouseout"/>
                  </use>
                  <path fill="none" stroke="white" stroke-width="1.5" d="M0,-3.0v7 M-2.5,-0.5L0,-3.0L2.5,-0.5"/>
                </g>
                <g id="arrowDown" xlink:href="#dirArrow" transform="rotate(180) translate(-30 -48)" onmousedown="handlePan(0,1)">
                  <use xlink:href="#rim" fill="#404040">
                        <set attributeName="fill" to="#808080" begin="arrowDown.mouseover" end="arrowDown.mouseout"/>
                  </use>
                  <path fill="none" stroke="white" stroke-width="1.5" d="M0,-3.0v7 M-2.5,-0.5L0,-3.0L2.5,-0.5"/>
                </g>
                <g id="arrowLeft" xlink:href="#dirArrow" transform="rotate(270) translate(-36 17)" onmousedown="handlePan(-1,0)">
                  <use xlink:href="#rim" fill="#404040">
                        <set attributeName="fill" to="#808080" begin="arrowLeft.mouseover" end="arrowLeft.mouseout"/>
                  </use>
                  <path fill="none" stroke="white" stroke-width="1.5" d="M0,-3.0v7 M-2.5,-0.5L0,-3.0L2.5,-0.5"/>
                </g>
        </g>
        <svg viewBox="0 0 15 15" width="100%" height="30px" preserveAspectRatio="xMaxYMin meet">
         <g id="arrow_out" transform="scale(0.3 0.3)">
          <a xlink:href="classNode_a798492f2da22010b3af5ceeea01abbc7_cgraph_org.svg" target="_base">
           <rect id="button" ry="5" rx="5" y="6" x="6" height="38" width="38"
                fill="#f2f5e9" fill-opacity="0.5" stroke="#606060" stroke-width="1.0"/>
           <path id="arrow"
             d="M 11.500037,31.436501 C 11.940474,20.09759 22.043105,11.32322 32.158766,21.979434 L 37.068811,17.246167 C 37.068811,17.246167 37.088388,32 37.088388,32 L 22.160133,31.978069 C 22.160133,31.978069 26.997745,27.140456 26.997745,27.140456 C 18.528582,18.264221 13.291696,25.230495 11.500037,31.436501 z"
             style="fill:#404040;"/>
          </a>
         </g>
        </svg>
</svg>
