<?xml version="1.0" encoding="UTF-8" standalone="no"?>
<!DOCTYPE svg PUBLIC "-//W3C//DTD SVG 1.1//EN"
 "http://www.w3.org/Graphics/SVG/1.1/DTD/svg11.dtd">
<!-- Generated by graphviz version 2.36.0 (20140111.2315)
 -->
<!-- Title: Node::featureMatching Pages: 1 -->
<svg width="622pt" height="250pt"
 viewBox="0.00 0.00 622.00 250.11" xmlns="http://www.w3.org/2000/svg" xmlns:xlink="http://www.w3.org/1999/xlink">
<g id="graph0" class="graph" transform="scale(1 1) rotate(0) translate(4 246.107)">
<title>Node::featureMatching</title>
<polygon fill="white" stroke="none" points="-4,4 -4,-246.107 618,-246.107 618,4 -4,4"/>
<!-- Node1 -->
<g id="node1" class="node"><title>Node1</title>
<polygon fill="#bfbfbf" stroke="black" points="0,-114.5 0,-133.5 116,-133.5 116,-114.5 0,-114.5"/>
<text text-anchor="middle" x="58" y="-121.5" font-family="Helvetica,sans-Serif" font-size="10.00">Node::featureMatching</text>
</g>
<!-- Node2 -->
<g id="node2" class="node"><title>Node2</title>
<g id="a_node2"><a xlink:href="../../d3/d3e/classParameterServer.html#a5457f900e543c5a466bf9b65ee6bc577" target="_top" xlink:title="ParameterServer::instance">
<polygon fill="white" stroke="black" points="480.5,-171.5 480.5,-190.5 613.5,-190.5 613.5,-171.5 480.5,-171.5"/>
<text text-anchor="middle" x="547" y="-178.5" font-family="Helvetica,sans-Serif" font-size="10.00">ParameterServer::instance</text>
</a>
</g>
</g>
<!-- Node1&#45;&gt;Node2 -->
<g id="edge1" class="edge"><title>Node1&#45;&gt;Node2</title>
<path fill="none" stroke="midnightblue" d="M64.6709,-133.692C77.278,-154.144 109.873,-201.287 152,-219 277.286,-271.678 444.146,-220.283 513.568,-194.179"/>
<polygon fill="midnightblue" stroke="midnightblue" points="515.005,-197.376 523.087,-190.526 512.497,-190.841 515.005,-197.376"/>
</g>
<!-- Node3 -->
<g id="node3" class="node"><title>Node3</title>
<g id="a_node3"><a xlink:href="../../d3/d3e/classParameterServer.html#a3c8af50664e423b555bbb1874f488413" target="_top" xlink:title="ParameterServer::get">
<polygon fill="white" stroke="black" points="171,-190.5 171,-209.5 281,-209.5 281,-190.5 171,-190.5"/>
<text text-anchor="middle" x="226" y="-197.5" font-family="Helvetica,sans-Serif" font-size="10.00">ParameterServer::get</text>
</a>
</g>
</g>
<!-- Node1&#45;&gt;Node3 -->
<g id="edge2" class="edge"><title>Node1&#45;&gt;Node3</title>
<path fill="none" stroke="midnightblue" d="M71.8809,-133.612C89.2434,-146.154 121.505,-168.026 152,-181 157.773,-183.456 163.942,-185.658 170.156,-187.616"/>
<polygon fill="midnightblue" stroke="midnightblue" points="169.327,-191.02 179.908,-190.491 171.306,-184.306 169.327,-191.02"/>
</g>
<!-- Node4 -->
<g id="node4" class="node"><title>Node4</title>
<g id="a_node4"><a xlink:href="../../d7/dc4/classSiftGPUWrapper.html#aa5c9eb7fff96d65e839bd1068ebae286" target="_top" xlink:title="SiftGPUWrapper::getInstance">
<polygon fill="white" stroke="black" points="152.5,-152.5 152.5,-171.5 299.5,-171.5 299.5,-152.5 152.5,-152.5"/>
<text text-anchor="middle" x="226" y="-159.5" font-family="Helvetica,sans-Serif" font-size="10.00">SiftGPUWrapper::getInstance</text>
</a>
</g>
</g>
<!-- Node1&#45;&gt;Node4 -->
<g id="edge3" class="edge"><title>Node1&#45;&gt;Node4</title>
<path fill="none" stroke="midnightblue" d="M100.889,-133.589C122.893,-138.626 150.055,-144.844 173.352,-150.177"/>
<polygon fill="midnightblue" stroke="midnightblue" points="172.884,-153.66 183.412,-152.48 174.446,-146.837 172.884,-153.66"/>
</g>
<!-- Node5 -->
<g id="node5" class="node"><title>Node5</title>
<g id="a_node5"><a xlink:href="../../d7/dc4/classSiftGPUWrapper.html#ae1b9dd41e73ed1e5128db7f33201ba3a" target="_top" xlink:title="SiftGPUWrapper::match">
<polygon fill="white" stroke="black" points="164.5,-114.5 164.5,-133.5 287.5,-133.5 287.5,-114.5 164.5,-114.5"/>
<text text-anchor="middle" x="226" y="-121.5" font-family="Helvetica,sans-Serif" font-size="10.00">SiftGPUWrapper::match</text>
</a>
</g>
</g>
<!-- Node1&#45;&gt;Node5 -->
<g id="edge4" class="edge"><title>Node1&#45;&gt;Node5</title>
<path fill="none" stroke="midnightblue" d="M116.128,-124C128.412,-124 141.537,-124 154.267,-124"/>
<polygon fill="midnightblue" stroke="midnightblue" points="154.369,-127.5 164.369,-124 154.369,-120.5 154.369,-127.5"/>
</g>
<!-- Node6 -->
<g id="node6" class="node"><title>Node6</title>
<g id="a_node6"><a xlink:href="../../d9/dcb/features_8cpp.html#ab83576fffb06103339a41d363d199761" target="_top" xlink:title="bruteForceSearchORB">
<polygon fill="white" stroke="black" points="168,-76.5 168,-95.5 284,-95.5 284,-76.5 168,-76.5"/>
<text text-anchor="middle" x="226" y="-83.5" font-family="Helvetica,sans-Serif" font-size="10.00">bruteForceSearchORB</text>
</a>
</g>
</g>
<!-- Node1&#45;&gt;Node6 -->
<g id="edge5" class="edge"><title>Node1&#45;&gt;Node6</title>
<path fill="none" stroke="midnightblue" d="M100.889,-114.411C122.893,-109.374 150.055,-103.156 173.352,-97.8229"/>
<polygon fill="midnightblue" stroke="midnightblue" points="174.446,-101.163 183.412,-95.5201 172.884,-94.3398 174.446,-101.163"/>
</g>
<!-- Node7 -->
<g id="node7" class="node"><title>Node7</title>
<g id="a_node7"><a xlink:href="../../df/dd0/classNode.html#a0a845cd744860df353a246a7e56aeda5" target="_top" xlink:title="Node::knnSearch">
<polygon fill="white" stroke="black" points="180,-38.5 180,-57.5 272,-57.5 272,-38.5 180,-38.5"/>
<text text-anchor="middle" x="226" y="-45.5" font-family="Helvetica,sans-Serif" font-size="10.00">Node::knnSearch</text>
</a>
</g>
</g>
<!-- Node1&#45;&gt;Node7 -->
<g id="edge6" class="edge"><title>Node1&#45;&gt;Node7</title>
<path fill="none" stroke="midnightblue" d="M71.8809,-114.388C89.2434,-101.846 121.505,-79.9736 152,-67 157.773,-64.544 163.942,-62.3418 170.156,-60.3844"/>
<polygon fill="midnightblue" stroke="midnightblue" points="171.306,-63.6943 179.908,-57.5089 169.327,-56.9801 171.306,-63.6943"/>
</g>
<!-- Node9 -->
<g id="node9" class="node"><title>Node9</title>
<g id="a_node9"><a xlink:href="../../db/d82/wglew_8h.html#a500a82aecba06f4550f6849b8099ca21" target="_top" xlink:title="int">
<polygon fill="white" stroke="black" points="211.5,-0.5 211.5,-19.5 240.5,-19.5 240.5,-0.5 211.5,-0.5"/>
<text text-anchor="middle" x="226" y="-7.5" font-family="Helvetica,sans-Serif" font-size="10.00">int</text>
</a>
</g>
</g>
<!-- Node1&#45;&gt;Node9 -->
<g id="edge9" class="edge"><title>Node1&#45;&gt;Node9</title>
<path fill="none" stroke="midnightblue" d="M65.6921,-114.233C79.4835,-94.8769 113.062,-51.5709 152,-29 167.134,-20.2272 186.35,-15.4365 201.267,-12.8608"/>
<polygon fill="midnightblue" stroke="midnightblue" points="201.886,-16.3071 211.25,-11.3514 200.839,-9.3858 201.886,-16.3071"/>
</g>
<!-- Node8 -->
<g id="node8" class="node"><title>Node8</title>
<g id="a_node8"><a xlink:href="../../df/dd0/classNode.html#ac94f231cfd44a191d4eb6aaeb390b05d" target="_top" xlink:title="Node::getFlannIndex">
<polygon fill="white" stroke="black" points="336.5,-114.5 336.5,-133.5 443.5,-133.5 443.5,-114.5 336.5,-114.5"/>
<text text-anchor="middle" x="390" y="-121.5" font-family="Helvetica,sans-Serif" font-size="10.00">Node::getFlannIndex</text>
</a>
</g>
</g>
<!-- Node7&#45;&gt;Node8 -->
<g id="edge7" class="edge"><title>Node7&#45;&gt;Node8</title>
<path fill="none" stroke="midnightblue" d="M272.149,-57.3758C281.541,-59.9803 291.24,-63.1707 300,-67 325.054,-77.9528 351.098,-95.4693 368.49,-108.196"/>
<polygon fill="midnightblue" stroke="midnightblue" points="366.637,-111.18 376.745,-114.355 370.822,-105.57 366.637,-111.18"/>
</g>
<!-- Node8&#45;&gt;Node2 -->
<g id="edge8" class="edge"><title>Node8&#45;&gt;Node2</title>
<path fill="none" stroke="midnightblue" d="M416.944,-133.541C442.538,-142.953 481.862,-157.414 510.377,-167.9"/>
<polygon fill="midnightblue" stroke="midnightblue" points="509.378,-171.262 519.972,-171.428 511.794,-164.692 509.378,-171.262"/>
</g>
</g>
</svg>
