<?xml version="1.0" encoding="UTF-8" standalone="no"?>
<!DOCTYPE svg PUBLIC "-//W3C//DTD SVG 1.1//EN"
 "http://www.w3.org/Graphics/SVG/1.1/DTD/svg11.dtd">
<!-- Generated by graphviz version 2.36.0 (20140111.2315)
 -->
<!-- Title: Node::Node Pages: 1 -->
<svg width="432pt" height="300pt"
 viewBox="0.00 0.00 432.00 300.12" xmlns="http://www.w3.org/2000/svg" xmlns:xlink="http://www.w3.org/1999/xlink">
<g id="graph0" class="graph" transform="scale(1 1) rotate(0) translate(4 296.118)">
<title>Node::Node</title>
<polygon fill="white" stroke="none" points="-4,4 -4,-296.118 428,-296.118 428,4 -4,4"/>
<!-- Node1 -->
<g id="node1" class="node"><title>Node1</title>
<polygon fill="#bfbfbf" stroke="black" points="0.5,-144.5 0.5,-163.5 69.5,-163.5 69.5,-144.5 0.5,-144.5"/>
<text text-anchor="middle" x="35" y="-151.5" font-family="Helvetica,sans-Serif" font-size="10.00">Node::Node</text>
</g>
<!-- Node2 -->
<g id="node2" class="node"><title>Node2</title>
<g id="a_node2"><a xlink:href="../../d3/d3e/classParameterServer.html#a5457f900e543c5a466bf9b65ee6bc577" target="_top" xlink:title="ParameterServer::instance">
<polygon fill="white" stroke="black" points="290.5,-258.5 290.5,-277.5 423.5,-277.5 423.5,-258.5 290.5,-258.5"/>
<text text-anchor="middle" x="357" y="-265.5" font-family="Helvetica,sans-Serif" font-size="10.00">ParameterServer::instance</text>
</a>
</g>
</g>
<!-- Node1&#45;&gt;Node2 -->
<g id="edge1" class="edge"><title>Node1&#45;&gt;Node2</title>
<path fill="none" stroke="midnightblue" d="M38.4679,-163.676C44.9472,-186.786 64.8543,-244.982 106,-268 170.807,-304.256 260.657,-292.049 313.127,-279.965"/>
<polygon fill="midnightblue" stroke="midnightblue" points="314.201,-283.306 323.105,-277.564 312.563,-276.5 314.201,-283.306"/>
</g>
<!-- Node3 -->
<g id="node3" class="node"><title>Node3</title>
<g id="a_node3"><a xlink:href="../../d3/d3e/classParameterServer.html#a3c8af50664e423b555bbb1874f488413" target="_top" xlink:title="ParameterServer::get">
<polygon fill="white" stroke="black" points="302,-182.5 302,-201.5 412,-201.5 412,-182.5 302,-182.5"/>
<text text-anchor="middle" x="357" y="-189.5" font-family="Helvetica,sans-Serif" font-size="10.00">ParameterServer::get</text>
</a>
</g>
</g>
<!-- Node1&#45;&gt;Node3 -->
<g id="edge2" class="edge"><title>Node1&#45;&gt;Node3</title>
<path fill="none" stroke="midnightblue" d="M69.567,-150.338C112.66,-146.47 189.562,-142.387 254,-154 279.732,-158.637 307.444,-169.362 327.479,-178.239"/>
<polygon fill="midnightblue" stroke="midnightblue" points="326.104,-181.459 336.656,-182.414 329.003,-175.087 326.104,-181.459"/>
</g>
<!-- Node4 -->
<g id="node4" class="node"><title>Node4</title>
<g id="a_node4"><a xlink:href="../../d7/dc4/classSiftGPUWrapper.html#aa5c9eb7fff96d65e839bd1068ebae286" target="_top" xlink:title="SiftGPUWrapper::getInstance">
<polygon fill="white" stroke="black" points="106.5,-201.5 106.5,-220.5 253.5,-220.5 253.5,-201.5 106.5,-201.5"/>
<text text-anchor="middle" x="180" y="-208.5" font-family="Helvetica,sans-Serif" font-size="10.00">SiftGPUWrapper::getInstance</text>
</a>
</g>
</g>
<!-- Node1&#45;&gt;Node4 -->
<g id="edge3" class="edge"><title>Node1&#45;&gt;Node4</title>
<path fill="none" stroke="midnightblue" d="M51.0491,-163.567C64.8844,-172.018 86.1924,-184.181 106,-192 112.22,-194.455 118.863,-196.687 125.513,-198.687"/>
<polygon fill="midnightblue" stroke="midnightblue" points="124.636,-202.076 135.212,-201.45 126.553,-195.344 124.636,-202.076"/>
</g>
<!-- Node5 -->
<g id="node5" class="node"><title>Node5</title>
<g id="a_node5"><a xlink:href="../../d7/dc4/classSiftGPUWrapper.html#ab9de5eb1e668e8f8820589cf64ee03b3" target="_top" xlink:title="SiftGPUWrapper::detect">
<polygon fill="white" stroke="black" points="118.5,-163.5 118.5,-182.5 241.5,-182.5 241.5,-163.5 118.5,-163.5"/>
<text text-anchor="middle" x="180" y="-170.5" font-family="Helvetica,sans-Serif" font-size="10.00">SiftGPUWrapper::detect</text>
</a>
</g>
</g>
<!-- Node1&#45;&gt;Node5 -->
<g id="edge4" class="edge"><title>Node1&#45;&gt;Node5</title>
<path fill="none" stroke="midnightblue" d="M69.5271,-158.455C81.1708,-160.002 94.7072,-161.8 108.21,-163.594"/>
<polygon fill="midnightblue" stroke="midnightblue" points="108.123,-167.113 118.497,-164.961 109.045,-160.174 108.123,-167.113"/>
</g>
<!-- Node6 -->
<g id="node6" class="node"><title>Node6</title>
<g id="a_node6"><a xlink:href="../../df/dd0/classNode.html#abfd65c763bcd19579c2391a09e95a989" target="_top" xlink:title="return the 3D projection of valid keypoints using information from the point cloud and remove invalid...">
<polygon fill="white" stroke="black" points="130.5,-239.5 130.5,-258.5 229.5,-258.5 229.5,-239.5 130.5,-239.5"/>
<text text-anchor="middle" x="180" y="-246.5" font-family="Helvetica,sans-Serif" font-size="10.00">Node::projectTo3D</text>
</a>
</g>
</g>
<!-- Node1&#45;&gt;Node6 -->
<g id="edge5" class="edge"><title>Node1&#45;&gt;Node6</title>
<path fill="none" stroke="midnightblue" d="M42.0724,-163.565C52.887,-179.793 77.0841,-212.645 106,-230 110.632,-232.78 115.666,-235.157 120.854,-237.19"/>
<polygon fill="midnightblue" stroke="midnightblue" points="119.706,-240.496 130.301,-240.488 122.014,-233.887 119.706,-240.496"/>
</g>
<!-- Node7 -->
<g id="node7" class="node"><title>Node7</title>
<g id="a_node7"><a xlink:href="../../db/d82/wglew_8h.html#a500a82aecba06f4550f6849b8099ca21" target="_top" xlink:title="int">
<polygon fill="white" stroke="black" points="165.5,-87.5 165.5,-106.5 194.5,-106.5 194.5,-87.5 165.5,-87.5"/>
<text text-anchor="middle" x="180" y="-94.5" font-family="Helvetica,sans-Serif" font-size="10.00">int</text>
</a>
</g>
</g>
<!-- Node1&#45;&gt;Node7 -->
<g id="edge8" class="edge"><title>Node1&#45;&gt;Node7</title>
<path fill="none" stroke="midnightblue" d="M54.7366,-144.396C68.6771,-137.441 88.276,-128.06 106,-121 122.356,-114.485 141.248,-108.309 155.715,-103.854"/>
<polygon fill="midnightblue" stroke="midnightblue" points="156.81,-107.18 165.368,-100.934 154.783,-100.479 156.81,-107.18"/>
</g>
<!-- Node8 -->
<g id="node8" class="node"><title>Node8</title>
<g id="a_node8"><a xlink:href="../../df/dd0/classNode.html#ade58f2370cb8542f4bc4c1350a3ba462" target="_top" xlink:title="erase the points from the cloud to save memory ">
<polygon fill="white" stroke="black" points="122.5,-49.5 122.5,-68.5 237.5,-68.5 237.5,-49.5 122.5,-49.5"/>
<text text-anchor="middle" x="180" y="-56.5" font-family="Helvetica,sans-Serif" font-size="10.00">Node::clearPointCloud</text>
</a>
</g>
</g>
<!-- Node1&#45;&gt;Node8 -->
<g id="edge9" class="edge"><title>Node1&#45;&gt;Node8</title>
<path fill="none" stroke="midnightblue" d="M42.0724,-144.435C52.887,-128.207 77.0841,-95.3546 106,-78 109.663,-75.8013 113.579,-73.8545 117.622,-72.131"/>
<polygon fill="midnightblue" stroke="midnightblue" points="119.113,-75.3092 127.231,-68.5014 116.64,-68.7608 119.113,-75.3092"/>
</g>
<!-- Node9 -->
<g id="node9" class="node"><title>Node9</title>
<g id="a_node9"><a xlink:href="../../d7/d70/node_8cpp.html#af65e2788880b5969b4370e98d99cf968" target="_top" xlink:title="Compute the RootSIFT from SIFT according to Arandjelovic and Zisserman. ">
<polygon fill="white" stroke="black" points="125,-0 125,-30 235,-30 235,-0 125,-0"/>
<text text-anchor="start" x="133" y="-18" font-family="Helvetica,sans-Serif" font-size="10.00">squareroot_descriptor</text>
<text text-anchor="middle" x="180" y="-7" font-family="Helvetica,sans-Serif" font-size="10.00">_space</text>
</a>
</g>
</g>
<!-- Node1&#45;&gt;Node9 -->
<g id="edge10" class="edge"><title>Node1&#45;&gt;Node9</title>
<path fill="none" stroke="midnightblue" d="M39.3777,-144.188C47.4104,-122.28 69.7372,-69.0277 106,-40 109.088,-37.5278 112.436,-35.2932 115.941,-33.2744"/>
<polygon fill="midnightblue" stroke="midnightblue" points="117.608,-36.3531 124.923,-28.6882 114.425,-30.1188 117.608,-36.3531"/>
</g>
<!-- Node6&#45;&gt;Node2 -->
<g id="edge6" class="edge"><title>Node6&#45;&gt;Node2</title>
<path fill="none" stroke="midnightblue" d="M229.747,-254.293C245.388,-255.991 263.098,-257.914 280.201,-259.77"/>
<polygon fill="midnightblue" stroke="midnightblue" points="279.862,-263.254 290.181,-260.854 280.617,-256.295 279.862,-263.254"/>
</g>
<!-- Node6&#45;&gt;Node3 -->
<g id="edge7" class="edge"><title>Node6&#45;&gt;Node3</title>
<path fill="none" stroke="midnightblue" d="M220.611,-239.475C231.497,-236.645 243.259,-233.389 254,-230 277.28,-222.655 303.036,-213.047 322.843,-205.33"/>
<polygon fill="midnightblue" stroke="midnightblue" points="324.305,-208.516 332.332,-201.601 321.745,-202.001 324.305,-208.516"/>
</g>
</g>
</svg>
