<?xml version="1.0" encoding="UTF-8" standalone="no"?>
<!DOCTYPE svg PUBLIC "-//W3C//DTD SVG 1.1//EN"
 "http://www.w3.org/Graphics/SVG/1.1/DTD/svg11.dtd">
<!-- Generated by graphviz version 2.36.0 (20140111.2315)
 -->
<!-- Title: lsd_slam::se3FromSim3 Pages: 1 -->
<svg width="294pt" height="87pt"
 viewBox="0.00 0.00 294.00 87.00" xmlns="http://www.w3.org/2000/svg" xmlns:xlink="http://www.w3.org/1999/xlink">
<g id="graph0" class="graph" transform="scale(1 1) rotate(0) translate(4 83)">
<title>lsd_slam::se3FromSim3</title>
<polygon fill="white" stroke="none" points="-4,4 -4,-83 290,-83 290,4 -4,4"/>
<!-- Node1 -->
<g id="node1" class="node"><title>Node1</title>
<polygon fill="#bfbfbf" stroke="black" points="0,-29.5 0,-48.5 122,-48.5 122,-29.5 0,-29.5"/>
<text text-anchor="middle" x="61" y="-36.5" font-family="Helvetica,sans-Serif" font-size="10.00">lsd_slam::se3FromSim3</text>
</g>
<!-- Node2 -->
<g id="node2" class="node"><title>Node2</title>
<g id="a_node2"><a xlink:href="../../d6/db5/classSophus_1_1Sim3GroupBase.html#a3629f9f036df49823d478e3692d23e82" target="_top" xlink:title="Mutator of quaternion. ">
<polygon fill="white" stroke="black" points="158.5,-49 158.5,-79 285.5,-79 285.5,-49 158.5,-49"/>
<text text-anchor="start" x="166.5" y="-67" font-family="Helvetica,sans-Serif" font-size="10.00">Sophus::Sim3GroupBase</text>
<text text-anchor="middle" x="222" y="-56" font-family="Helvetica,sans-Serif" font-size="10.00">::quaternion</text>
</a>
</g>
</g>
<!-- Node1&#45;&gt;Node2 -->
<g id="edge1" class="edge"><title>Node1&#45;&gt;Node2</title>
<path fill="none" stroke="midnightblue" d="M122.111,-48.4514C130.737,-49.8077 139.687,-51.2149 148.521,-52.6039"/>
<polygon fill="midnightblue" stroke="midnightblue" points="147.999,-56.0647 158.421,-54.1606 149.086,-49.1497 147.999,-56.0647"/>
</g>
<!-- Node3 -->
<g id="node3" class="node"><title>Node3</title>
<g id="a_node3"><a xlink:href="../../de/d0b/classSophus_1_1Sim3Group.html#ace8b98b369832930e647675b8c005d64" target="_top" xlink:title="Mutator of translation vector. ">
<polygon fill="white" stroke="black" points="167,-0 167,-30 277,-30 277,-0 167,-0"/>
<text text-anchor="start" x="175" y="-18" font-family="Helvetica,sans-Serif" font-size="10.00">Sophus::Sim3Group::</text>
<text text-anchor="middle" x="222" y="-7" font-family="Helvetica,sans-Serif" font-size="10.00">translation</text>
</a>
</g>
</g>
<!-- Node1&#45;&gt;Node3 -->
<g id="edge2" class="edge"><title>Node1&#45;&gt;Node3</title>
<path fill="none" stroke="midnightblue" d="M122.111,-29.9266C133.47,-28.2121 145.391,-26.4126 156.868,-24.6803"/>
<polygon fill="midnightblue" stroke="midnightblue" points="157.449,-28.1324 166.814,-23.179 156.404,-21.2108 157.449,-28.1324"/>
</g>
</g>
</svg>
