<?xml version="1.0" encoding="UTF-8" standalone="no"?>
<!DOCTYPE svg PUBLIC "-//W3C//DTD SVG 1.1//EN"
 "http://www.w3.org/Graphics/SVG/1.1/DTD/svg11.dtd">
<!-- Generated by graphviz version 2.36.0 (20140111.2315)
 -->
<!-- Title: lsd_slam::sim3FromSE3 Pages: 1 -->
<svg width="320pt" height="126pt"
 viewBox="0.00 0.00 320.00 126.00" xmlns="http://www.w3.org/2000/svg" xmlns:xlink="http://www.w3.org/1999/xlink">
<g id="graph0" class="graph" transform="scale(1 1) rotate(0) translate(4 122)">
<title>lsd_slam::sim3FromSE3</title>
<polygon fill="white" stroke="none" points="-4,4 -4,-122 316,-122 316,4 -4,4"/>
<!-- Node1 -->
<g id="node1" class="node"><title>Node1</title>
<polygon fill="#bfbfbf" stroke="black" points="0,-49.5 0,-68.5 124,-68.5 124,-49.5 0,-49.5"/>
<text text-anchor="middle" x="62" y="-56.5" font-family="Helvetica,sans-Serif" font-size="10.00">lsd_slam::sim3FromSE3</text>
</g>
<!-- Node2 -->
<g id="node2" class="node"><title>Node2</title>
<g id="a_node2"><a xlink:href="../../d0/d8c/classSophus_1_1SE3GroupBase.html#a4ca1572cb93cddcc95db981fc1f861b2" target="_top" xlink:title="Accessor of unit quaternion. ">
<polygon fill="white" stroke="black" points="174.5,-88 174.5,-118 297.5,-118 297.5,-88 174.5,-88"/>
<text text-anchor="start" x="182.5" y="-106" font-family="Helvetica,sans-Serif" font-size="10.00">Sophus::SE3GroupBase</text>
<text text-anchor="middle" x="236" y="-95" font-family="Helvetica,sans-Serif" font-size="10.00">::unit_quaternion</text>
</a>
</g>
</g>
<!-- Node1&#45;&gt;Node2 -->
<g id="edge1" class="edge"><title>Node1&#45;&gt;Node2</title>
<path fill="none" stroke="midnightblue" d="M100.321,-68.5473C119.6,-73.4791 143.745,-79.6558 166.247,-85.4121"/>
<polygon fill="midnightblue" stroke="midnightblue" points="165.553,-88.847 176.108,-87.9346 167.288,-82.0654 165.553,-88.847"/>
</g>
<!-- Node3 -->
<g id="node3" class="node"><title>Node3</title>
<g id="a_node3"><a xlink:href="../../dd/d3d/classSophus_1_1SE3Group.html#a1bfd300de4529a2f6ba0ff5baecea98e" target="_top" xlink:title="Mutator of translation vector. ">
<polygon fill="white" stroke="black" points="160,-49.5 160,-68.5 312,-68.5 312,-49.5 160,-49.5"/>
<text text-anchor="middle" x="236" y="-56.5" font-family="Helvetica,sans-Serif" font-size="10.00">Sophus::SE3Group::translation</text>
</a>
</g>
</g>
<!-- Node1&#45;&gt;Node3 -->
<g id="edge2" class="edge"><title>Node1&#45;&gt;Node3</title>
<path fill="none" stroke="midnightblue" d="M124.125,-59C132.453,-59 141.122,-59 149.78,-59"/>
<polygon fill="midnightblue" stroke="midnightblue" points="149.918,-62.5001 159.918,-59 149.918,-55.5001 149.918,-62.5001"/>
</g>
<!-- Node4 -->
<g id="node4" class="node"><title>Node4</title>
<g id="a_node4"><a xlink:href="../../d6/db5/classSophus_1_1Sim3GroupBase.html#a04b97a30687ff11cd2c1192902b495e0" target="_top" xlink:title="Scale setter. ">
<polygon fill="white" stroke="black" points="172.5,-0 172.5,-30 299.5,-30 299.5,-0 172.5,-0"/>
<text text-anchor="start" x="180.5" y="-18" font-family="Helvetica,sans-Serif" font-size="10.00">Sophus::Sim3GroupBase</text>
<text text-anchor="middle" x="236" y="-7" font-family="Helvetica,sans-Serif" font-size="10.00">::setScale</text>
</a>
</g>
</g>
<!-- Node1&#45;&gt;Node4 -->
<g id="edge3" class="edge"><title>Node1&#45;&gt;Node4</title>
<path fill="none" stroke="midnightblue" d="M100.321,-49.4527C119.6,-44.5209 143.745,-38.3442 166.247,-32.5879"/>
<polygon fill="midnightblue" stroke="midnightblue" points="167.288,-35.9346 176.108,-30.0654 165.553,-29.153 167.288,-35.9346"/>
</g>
</g>
</svg>
