<?xml version="1.0" encoding="UTF-8" standalone="no"?>
<!DOCTYPE svg PUBLIC "-//W3C//DTD SVG 1.1//EN"
 "http://www.w3.org/Graphics/SVG/1.1/DTD/svg11.dtd">
<!-- Generated by graphviz version 2.36.0 (20140111.2315)
 -->
<!-- Title: lsd_slam::getDepthRainbowPlot Pages: 1 -->
<svg width="340pt" height="180pt"
 viewBox="0.00 0.00 340.00 180.00" xmlns="http://www.w3.org/2000/svg" xmlns:xlink="http://www.w3.org/1999/xlink">
<g id="graph0" class="graph" transform="scale(1 1) rotate(0) translate(4 176)">
<title>lsd_slam::getDepthRainbowPlot</title>
<polygon fill="white" stroke="none" points="-4,4 -4,-176 336,-176 336,4 -4,4"/>
<!-- Node1 -->
<g id="node1" class="node"><title>Node1</title>
<polygon fill="#bfbfbf" stroke="black" points="0.5,-76.5 0.5,-95.5 157.5,-95.5 157.5,-76.5 0.5,-76.5"/>
<text text-anchor="middle" x="79" y="-83.5" font-family="Helvetica,sans-Serif" font-size="10.00">lsd_slam::getDepthRainbowPlot</text>
</g>
<!-- Node2 -->
<g id="node2" class="node"><title>Node2</title>
<g id="a_node2"><a xlink:href="../../dd/d08/classlsd__slam_1_1Frame.html#ad78d873de1adfd4ab3268c50b1d462c7" target="_top" xlink:title="lsd_slam::Frame::idepth">
<polygon fill="white" stroke="black" points="202,-152.5 202,-171.5 324,-171.5 324,-152.5 202,-152.5"/>
<text text-anchor="middle" x="263" y="-159.5" font-family="Helvetica,sans-Serif" font-size="10.00">lsd_slam::Frame::idepth</text>
</a>
</g>
</g>
<!-- Node1&#45;&gt;Node2 -->
<g id="edge1" class="edge"><title>Node1&#45;&gt;Node2</title>
<path fill="none" stroke="midnightblue" d="M96.5389,-95.5341C118.321,-107.793 158.076,-129.147 194,-143 200.004,-145.315 206.406,-147.48 212.789,-149.459"/>
<polygon fill="midnightblue" stroke="midnightblue" points="212.163,-152.924 222.745,-152.41 214.152,-146.212 212.163,-152.924"/>
</g>
<!-- Node3 -->
<g id="node3" class="node"><title>Node3</title>
<g id="a_node3"><a xlink:href="../../dd/d08/classlsd__slam_1_1Frame.html#aa3fb7f275b5da621c039a6746b905770" target="_top" xlink:title="lsd_slam::Frame::idepthVar">
<polygon fill="white" stroke="black" points="194.5,-114.5 194.5,-133.5 331.5,-133.5 331.5,-114.5 194.5,-114.5"/>
<text text-anchor="middle" x="263" y="-121.5" font-family="Helvetica,sans-Serif" font-size="10.00">lsd_slam::Frame::idepthVar</text>
</a>
</g>
</g>
<!-- Node1&#45;&gt;Node3 -->
<g id="edge2" class="edge"><title>Node1&#45;&gt;Node3</title>
<path fill="none" stroke="midnightblue" d="M125.926,-95.589C150.376,-100.694 180.633,-107.011 206.403,-112.392"/>
<polygon fill="midnightblue" stroke="midnightblue" points="205.9,-115.862 216.404,-114.48 207.33,-109.01 205.9,-115.862"/>
</g>
<!-- Node4 -->
<g id="node4" class="node"><title>Node4</title>
<g id="a_node4"><a xlink:href="../../dd/d08/classlsd__slam_1_1Frame.html#a9306307027bbe62b973c0b138216b456" target="_top" xlink:title="lsd_slam::Frame::image">
<polygon fill="white" stroke="black" points="202,-76.5 202,-95.5 324,-95.5 324,-76.5 202,-76.5"/>
<text text-anchor="middle" x="263" y="-83.5" font-family="Helvetica,sans-Serif" font-size="10.00">lsd_slam::Frame::image</text>
</a>
</g>
</g>
<!-- Node1&#45;&gt;Node4 -->
<g id="edge3" class="edge"><title>Node1&#45;&gt;Node4</title>
<path fill="none" stroke="midnightblue" d="M157.712,-86C169.03,-86 180.628,-86 191.785,-86"/>
<polygon fill="midnightblue" stroke="midnightblue" points="191.887,-89.5001 201.887,-86 191.887,-82.5001 191.887,-89.5001"/>
</g>
<!-- Node5 -->
<g id="node5" class="node"><title>Node5</title>
<g id="a_node5"><a xlink:href="../../dd/d08/classlsd__slam_1_1Frame.html#a3f14a1c43b6cb21d31274f880b0bf36b" target="_top" xlink:title="lsd_slam::Frame::width">
<polygon fill="white" stroke="black" points="203.5,-38.5 203.5,-57.5 322.5,-57.5 322.5,-38.5 203.5,-38.5"/>
<text text-anchor="middle" x="263" y="-45.5" font-family="Helvetica,sans-Serif" font-size="10.00">lsd_slam::Frame::width</text>
</a>
</g>
</g>
<!-- Node1&#45;&gt;Node5 -->
<g id="edge4" class="edge"><title>Node1&#45;&gt;Node5</title>
<path fill="none" stroke="midnightblue" d="M125.926,-76.411C150.376,-71.3061 180.633,-64.9887 206.403,-59.6082"/>
<polygon fill="midnightblue" stroke="midnightblue" points="207.33,-62.9901 216.404,-57.5201 205.9,-56.1378 207.33,-62.9901"/>
</g>
<!-- Node6 -->
<g id="node6" class="node"><title>Node6</title>
<g id="a_node6"><a xlink:href="../../dd/d08/classlsd__slam_1_1Frame.html#a014d19bf6ffba0f0c0b8b684f9afb0b0" target="_top" xlink:title="lsd_slam::Frame::height">
<polygon fill="white" stroke="black" points="202,-0.5 202,-19.5 324,-19.5 324,-0.5 202,-0.5"/>
<text text-anchor="middle" x="263" y="-7.5" font-family="Helvetica,sans-Serif" font-size="10.00">lsd_slam::Frame::height</text>
</a>
</g>
</g>
<!-- Node1&#45;&gt;Node6 -->
<g id="edge5" class="edge"><title>Node1&#45;&gt;Node6</title>
<path fill="none" stroke="midnightblue" d="M96.5389,-76.4659C118.321,-64.2073 158.076,-42.8532 194,-29 200.004,-26.6846 206.406,-24.5197 212.789,-22.5411"/>
<polygon fill="midnightblue" stroke="midnightblue" points="214.152,-25.7877 222.745,-19.5903 212.163,-19.0763 214.152,-25.7877"/>
</g>
</g>
</svg>
