<?xml version="1.0" encoding="UTF-8" standalone="no"?>
<!DOCTYPE svg PUBLIC "-//W3C//DTD SVG 1.1//EN"
 "http://www.w3.org/Graphics/SVG/1.1/DTD/svg11.dtd">
<!-- Generated by graphviz version 2.36.0 (20140111.2315)
 -->
<!-- Title: external/SiftGPU/src/SiftGPU/GLTexImage.h Pages: 1 -->
<!--zoomable 108 -->
<svg id="main" version="1.1" xmlns="http://www.w3.org/2000/svg" xmlns:xlink="http://www.w3.org/1999/xlink" xml:space="preserve" onload="init(evt)">
<style type="text/css"><![CDATA[
.edge:hover path { stroke: red; }
.edge:hover polygon { stroke: red; fill: red; }
]]></style>
<script type="text/javascript"><![CDATA[
var edges = document.getElementsByTagName('g');
if (edges && edges.length) {
  for (var i=0;i<edges.length;i++) {
    if (edges[i].id.substr(0,4)=='edge') {
      edges[i].setAttribute('class','edge');
    }
  }
}
]]></script>
        <defs>
                <circle id="rim" cx="0" cy="0" r="7"/>
                <circle id="rim2" cx="0" cy="0" r="3.5"/>
                <g id="zoomPlus">
                        <use xlink:href="#rim" fill="#404040">
                                <set attributeName="fill" to="#808080" begin="zoomplus.mouseover" end="zoomplus.mouseout"/>
                        </use>
                        <path d="M-4,0h8M0,-4v8" fill="none" stroke="white" stroke-width="1.5" pointer-events="none"/>
                </g>
                <g id="zoomMin">
                        <use xlink:href="#rim" fill="#404040">
                                <set attributeName="fill" to="#808080" begin="zoomminus.mouseover" end="zoomminus.mouseout"/>
                        </use>
                        <path d="M-4,0h8" fill="none" stroke="white" stroke-width="1.5" pointer-events="none"/>
                </g>
                <g id="dirArrow">
                        <path fill="none" stroke="white" stroke-width="1.5" d="M0,-3.0v7 M-2.5,-0.5L0,-3.0L2.5,-0.5"/>
                </g>
               <g id="resetDef">
                       <use xlink:href="#rim2" fill="#404040">
                               <set attributeName="fill" to="#808080" begin="reset.mouseover" end="reset.mouseout"/>
                       </use>
               </g>
        </defs>

<script type="text/javascript">
var viewWidth = 1019;
var viewHeight = 108;
var sectionId = 'dynsection-0';
</script>
<script xlink:href="../../svgpan.js"/>
<svg id="graph" class="graph">
<g id="viewport">
<title>external/SiftGPU/src/SiftGPU/GLTexImage.h</title>
<polygon fill="white" stroke="none" points="-4,4 -4,-104 1015,-104 1015,4 -4,4"/>
<!-- Node1 -->
<g id="node1" class="node"><title>Node1</title>
<polygon fill="#bfbfbf" stroke="black" points="467,-69 467,-99 591,-99 591,-69 467,-69"/>
<text text-anchor="start" x="475" y="-87" font-family="Helvetica,sans-Serif" font-size="10.00">external/SiftGPU/src</text>
<text text-anchor="middle" x="529" y="-76" font-family="Helvetica,sans-Serif" font-size="10.00">/SiftGPU/GLTexImage.h</text>
</g>
<!-- Node2 -->
<g id="node2" class="node"><title>Node2</title>
<g id="a_node2"><a xlink:href="../../db/dda/GLTexImage_8cpp.html" target="_top" xlink:title="external/SiftGPU/src\l/SiftGPU/GLTexImage.cpp">
<polygon fill="white" stroke="black" points="0,-1 0,-31 134,-31 134,-1 0,-1"/>
<text text-anchor="start" x="8" y="-19" font-family="Helvetica,sans-Serif" font-size="10.00">external/SiftGPU/src</text>
<text text-anchor="middle" x="67" y="-8" font-family="Helvetica,sans-Serif" font-size="10.00">/SiftGPU/GLTexImage.cpp</text>
</a>
</g>
</g>
<!-- Node1&#45;&gt;Node2 -->
<g id="edge1" class="edge"><title>Node1&#45;&gt;Node2</title>
<path fill="none" stroke="midnightblue" d="M456.822,-74.8515C379.123,-65.756 251.995,-49.9379 143,-32 140.08,-31.5195 137.102,-31.0108 134.095,-30.4824"/>
<polygon fill="midnightblue" stroke="midnightblue" points="456.644,-78.3544 466.982,-76.0355 457.455,-71.4014 456.644,-78.3544"/>
</g>
<!-- Node3 -->
<g id="node3" class="node"><title>Node3</title>
<g id="a_node3"><a xlink:href="../../d4/d97/ProgramGLSL_8cpp.html" target="_top" xlink:title="external/SiftGPU/src\l/SiftGPU/ProgramGLSL.cpp">
<polygon fill="white" stroke="black" points="152,-1 152,-31 292,-31 292,-1 152,-1"/>
<text text-anchor="start" x="160" y="-19" font-family="Helvetica,sans-Serif" font-size="10.00">external/SiftGPU/src</text>
<text text-anchor="middle" x="222" y="-8" font-family="Helvetica,sans-Serif" font-size="10.00">/SiftGPU/ProgramGLSL.cpp</text>
</a>
</g>
</g>
<!-- Node1&#45;&gt;Node3 -->
<g id="edge2" class="edge"><title>Node1&#45;&gt;Node3</title>
<path fill="none" stroke="midnightblue" d="M456.835,-67.4857C405.447,-56.4381 336.958,-41.7141 287.212,-31.0196"/>
<polygon fill="midnightblue" stroke="midnightblue" points="456.362,-70.9638 466.874,-69.6439 457.833,-64.1202 456.362,-70.9638"/>
</g>
<!-- Node4 -->
<g id="node4" class="node"><title>Node4</title>
<g id="a_node4"><a xlink:href="../../d7/d8c/ProgramGPU_8cpp.html" target="_top" xlink:title="external/SiftGPU/src\l/SiftGPU/ProgramGPU.cpp">
<polygon fill="white" stroke="black" points="310.5,-1 310.5,-31 447.5,-31 447.5,-1 310.5,-1"/>
<text text-anchor="start" x="318.5" y="-19" font-family="Helvetica,sans-Serif" font-size="10.00">external/SiftGPU/src</text>
<text text-anchor="middle" x="379" y="-8" font-family="Helvetica,sans-Serif" font-size="10.00">/SiftGPU/ProgramGPU.cpp</text>
</a>
</g>
</g>
<!-- Node1&#45;&gt;Node4 -->
<g id="edge3" class="edge"><title>Node1&#45;&gt;Node4</title>
<path fill="none" stroke="midnightblue" d="M487.519,-64.7485C463.302,-54.093 433.215,-40.8547 410.868,-31.0218"/>
<polygon fill="midnightblue" stroke="midnightblue" points="486.258,-68.0175 496.821,-68.8413 489.078,-61.6103 486.258,-68.0175"/>
</g>
<!-- Node5 -->
<g id="node5" class="node"><title>Node5</title>
<g id="a_node5"><a xlink:href="../../d5/d65/PyramidGL_8cpp.html" target="_top" xlink:title="external/SiftGPU/src\l/SiftGPU/PyramidGL.cpp">
<polygon fill="white" stroke="black" points="465.5,-1 465.5,-31 592.5,-31 592.5,-1 465.5,-1"/>
<text text-anchor="start" x="473.5" y="-19" font-family="Helvetica,sans-Serif" font-size="10.00">external/SiftGPU/src</text>
<text text-anchor="middle" x="529" y="-8" font-family="Helvetica,sans-Serif" font-size="10.00">/SiftGPU/PyramidGL.cpp</text>
</a>
</g>
</g>
<!-- Node1&#45;&gt;Node5 -->
<g id="edge4" class="edge"><title>Node1&#45;&gt;Node5</title>
<path fill="none" stroke="midnightblue" d="M529,-58.5322C529,-49.3606 529,-39.2449 529,-31.2931"/>
<polygon fill="midnightblue" stroke="midnightblue" points="525.5,-58.6789 529,-68.679 532.5,-58.679 525.5,-58.6789"/>
</g>
<!-- Node6 -->
<g id="node6" class="node"><title>Node6</title>
<g id="a_node6"><a xlink:href="../../d7/d1f/ShaderMan_8cpp.html" target="_top" xlink:title="external/SiftGPU/src\l/SiftGPU/ShaderMan.cpp">
<polygon fill="white" stroke="black" points="611,-1 611,-31 739,-31 739,-1 611,-1"/>
<text text-anchor="start" x="619" y="-19" font-family="Helvetica,sans-Serif" font-size="10.00">external/SiftGPU/src</text>
<text text-anchor="middle" x="675" y="-8" font-family="Helvetica,sans-Serif" font-size="10.00">/SiftGPU/ShaderMan.cpp</text>
</a>
</g>
</g>
<!-- Node1&#45;&gt;Node6 -->
<g id="edge5" class="edge"><title>Node1&#45;&gt;Node6</title>
<path fill="none" stroke="midnightblue" d="M569.688,-64.6069C593.205,-53.976 622.327,-40.8112 643.982,-31.0218"/>
<polygon fill="midnightblue" stroke="midnightblue" points="567.991,-61.5328 560.321,-68.8413 570.875,-67.9113 567.991,-61.5328"/>
</g>
<!-- Node7 -->
<g id="node7" class="node"><title>Node7</title>
<g id="a_node7"><a xlink:href="../../de/d03/SiftGPU_8cpp.html" target="_top" xlink:title="external/SiftGPU/src\l/SiftGPU/SiftGPU.cpp">
<polygon fill="white" stroke="black" points="757.5,-1 757.5,-31 872.5,-31 872.5,-1 757.5,-1"/>
<text text-anchor="start" x="765.5" y="-19" font-family="Helvetica,sans-Serif" font-size="10.00">external/SiftGPU/src</text>
<text text-anchor="middle" x="815" y="-8" font-family="Helvetica,sans-Serif" font-size="10.00">/SiftGPU/SiftGPU.cpp</text>
</a>
</g>
</g>
<!-- Node1&#45;&gt;Node7 -->
<g id="edge6" class="edge"><title>Node1&#45;&gt;Node7</title>
<path fill="none" stroke="midnightblue" d="M599.786,-66.6647C648.203,-55.4916 711.595,-40.8627 757.018,-30.3805"/>
<polygon fill="midnightblue" stroke="midnightblue" points="598.96,-63.2633 590.003,-68.9223 600.534,-70.084 598.96,-63.2633"/>
</g>
<!-- Node8 -->
<g id="node8" class="node"><title>Node8</title>
<g id="a_node8"><a xlink:href="../../dd/d0c/SiftMatch_8cpp.html" target="_top" xlink:title="external/SiftGPU/src\l/SiftGPU/SiftMatch.cpp">
<polygon fill="white" stroke="black" points="891,-1 891,-31 1011,-31 1011,-1 891,-1"/>
<text text-anchor="start" x="899" y="-19" font-family="Helvetica,sans-Serif" font-size="10.00">external/SiftGPU/src</text>
<text text-anchor="middle" x="951" y="-8" font-family="Helvetica,sans-Serif" font-size="10.00">/SiftGPU/SiftMatch.cpp</text>
</a>
</g>
</g>
<!-- Node1&#45;&gt;Node8 -->
<g id="edge7" class="edge"><title>Node1&#45;&gt;Node8</title>
<path fill="none" stroke="midnightblue" d="M601.421,-73.9539C672.747,-64.7044 784.691,-49.2756 881,-32 884.181,-31.4295 887.437,-30.8201 890.722,-30.1857"/>
<polygon fill="midnightblue" stroke="midnightblue" points="600.669,-70.5219 591.199,-75.2733 601.565,-77.4643 600.669,-70.5219"/>
</g>
</g>
</svg>
        <g id="navigator" transform="translate(0 0)" fill="#404254">
                <rect fill="#f2f5e9" fill-opacity="0.5" stroke="#606060" stroke-width=".5" x="0" y="0" width="60" height="60"/>
                <use id="zoomplus" xlink:href="#zoomPlus" x="17" y="9" onmousedown="handleZoom(evt,'in')"/>
                <use id="zoomminus" xlink:href="#zoomMin" x="42" y="9" onmousedown="handleZoom(evt,'out')"/>
                <use id="reset" xlink:href="#resetDef" x="30" y="36" onmousedown="handleReset()"/>
                <g id="arrowUp" xlink:href="#dirArrow" transform="translate(30 24)" onmousedown="handlePan(0,-1)">
                  <use xlink:href="#rim" fill="#404040">
                        <set attributeName="fill" to="#808080" begin="arrowUp.mouseover" end="arrowUp.mouseout"/>
                  </use>
                  <path fill="none" stroke="white" stroke-width="1.5" d="M0,-3.0v7 M-2.5,-0.5L0,-3.0L2.5,-0.5"/>
                </g>
                <g id="arrowRight" xlink:href="#dirArrow" transform="rotate(90) translate(36 -43)" onmousedown="handlePan(1,0)">
                  <use xlink:href="#rim" fill="#404040">
                        <set attributeName="fill" to="#808080" begin="arrowRight.mouseover" end="arrowRight.mouseout"/>
                  </use>
                  <path fill="none" stroke="white" stroke-width="1.5" d="M0,-3.0v7 M-2.5,-0.5L0,-3.0L2.5,-0.5"/>
                </g>
                <g id="arrowDown" xlink:href="#dirArrow" transform="rotate(180) translate(-30 -48)" onmousedown="handlePan(0,1)">
                  <use xlink:href="#rim" fill="#404040">
                        <set attributeName="fill" to="#808080" begin="arrowDown.mouseover" end="arrowDown.mouseout"/>
                  </use>
                  <path fill="none" stroke="white" stroke-width="1.5" d="M0,-3.0v7 M-2.5,-0.5L0,-3.0L2.5,-0.5"/>
                </g>
                <g id="arrowLeft" xlink:href="#dirArrow" transform="rotate(270) translate(-36 17)" onmousedown="handlePan(-1,0)">
                  <use xlink:href="#rim" fill="#404040">
                        <set attributeName="fill" to="#808080" begin="arrowLeft.mouseover" end="arrowLeft.mouseout"/>
                  </use>
                  <path fill="none" stroke="white" stroke-width="1.5" d="M0,-3.0v7 M-2.5,-0.5L0,-3.0L2.5,-0.5"/>
                </g>
        </g>
        <svg viewBox="0 0 15 15" width="100%" height="30px" preserveAspectRatio="xMaxYMin meet">
         <g id="arrow_out" transform="scale(0.3 0.3)">
          <a xlink:href="GLTexImage_8h__dep__incl_org.svg" target="_base">
           <rect id="button" ry="5" rx="5" y="6" x="6" height="38" width="38"
                fill="#f2f5e9" fill-opacity="0.5" stroke="#606060" stroke-width="1.0"/>
           <path id="arrow"
             d="M 11.500037,31.436501 C 11.940474,20.09759 22.043105,11.32322 32.158766,21.979434 L 37.068811,17.246167 C 37.068811,17.246167 37.088388,32 37.088388,32 L 22.160133,31.978069 C 22.160133,31.978069 26.997745,27.140456 26.997745,27.140456 C 18.528582,18.264221 13.291696,25.230495 11.500037,31.436501 z"
             style="fill:#404040;"/>
          </a>
         </g>
        </svg>
</svg>
