<?xml version="1.0" encoding="UTF-8" standalone="no"?>
<!DOCTYPE svg PUBLIC "-//W3C//DTD SVG 1.1//EN"
 "http://www.w3.org/Graphics/SVG/1.1/DTD/svg11.dtd">
<!-- Generated by graphviz version 2.36.0 (20140111.2315)
 -->
<!-- Title: GLTexPacked::TexConvertRGB Pages: 1 -->
<!--zoomable 256 -->
<svg id="main" version="1.1" xmlns="http://www.w3.org/2000/svg" xmlns:xlink="http://www.w3.org/1999/xlink" xml:space="preserve" onload="init(evt)">
<style type="text/css"><![CDATA[
.edge:hover path { stroke: red; }
.edge:hover polygon { stroke: red; fill: red; }
]]></style>
<script type="text/javascript"><![CDATA[
var edges = document.getElementsByTagName('g');
if (edges && edges.length) {
  for (var i=0;i<edges.length;i++) {
    if (edges[i].id.substr(0,4)=='edge') {
      edges[i].setAttribute('class','edge');
    }
  }
}
]]></script>
        <defs>
                <circle id="rim" cx="0" cy="0" r="7"/>
                <circle id="rim2" cx="0" cy="0" r="3.5"/>
                <g id="zoomPlus">
                        <use xlink:href="#rim" fill="#404040">
                                <set attributeName="fill" to="#808080" begin="zoomplus.mouseover" end="zoomplus.mouseout"/>
                        </use>
                        <path d="M-4,0h8M0,-4v8" fill="none" stroke="white" stroke-width="1.5" pointer-events="none"/>
                </g>
                <g id="zoomMin">
                        <use xlink:href="#rim" fill="#404040">
                                <set attributeName="fill" to="#808080" begin="zoomminus.mouseover" end="zoomminus.mouseout"/>
                        </use>
                        <path d="M-4,0h8" fill="none" stroke="white" stroke-width="1.5" pointer-events="none"/>
                </g>
                <g id="dirArrow">
                        <path fill="none" stroke="white" stroke-width="1.5" d="M0,-3.0v7 M-2.5,-0.5L0,-3.0L2.5,-0.5"/>
                </g>
               <g id="resetDef">
                       <use xlink:href="#rim2" fill="#404040">
                               <set attributeName="fill" to="#808080" begin="reset.mouseover" end="reset.mouseout"/>
                       </use>
               </g>
        </defs>

<script type="text/javascript">
var viewWidth = 546;
var viewHeight = 256;
var sectionId = 'dynsection-8';
</script>
<script xlink:href="../../svgpan.js"/>
<svg id="graph" class="graph">
<g id="viewport">
<title>GLTexPacked::TexConvertRGB</title>
<polygon fill="white" stroke="none" points="-4,4 -4,-252 542,-252 542,4 -4,4"/>
<!-- Node1 -->
<g id="node1" class="node"><title>Node1</title>
<polygon fill="#bfbfbf" stroke="black" points="0,-114.5 0,-133.5 158,-133.5 158,-114.5 0,-114.5"/>
<text text-anchor="middle" x="79" y="-121.5" font-family="Helvetica,sans-Serif" font-size="10.00">GLTexPacked::TexConvertRGB</text>
</g>
<!-- Node2 -->
<g id="node2" class="node"><title>Node2</title>
<g id="a_node2"><a xlink:href="../../da/d33/glew_8h.html#a99e77ebf136a8c511226cf705049a305" target="_top" xlink:title="glGenTextures">
<polygon fill="white" stroke="black" points="239,-228.5 239,-247.5 319,-247.5 319,-228.5 239,-228.5"/>
<text text-anchor="middle" x="279" y="-235.5" font-family="Helvetica,sans-Serif" font-size="10.00">glGenTextures</text>
</a>
</g>
</g>
<!-- Node1&#45;&gt;Node2 -->
<g id="edge1" class="edge"><title>Node1&#45;&gt;Node2</title>
<path fill="none" stroke="midnightblue" d="M88.3896,-133.526C105.951,-152.834 148.722,-196.646 194,-219 204.68,-224.273 216.848,-228.104 228.543,-230.88"/>
<polygon fill="midnightblue" stroke="midnightblue" points="228.136,-234.373 238.649,-233.058 229.611,-227.53 228.136,-234.373"/>
</g>
<!-- Node3 -->
<g id="node3" class="node"><title>Node3</title>
<g id="a_node3"><a xlink:href="../../da/d33/glew_8h.html#a940f58f3728713267a58e2d09ff602b2" target="_top" xlink:title="glBindTexture">
<polygon fill="white" stroke="black" points="240.5,-190.5 240.5,-209.5 317.5,-209.5 317.5,-190.5 240.5,-190.5"/>
<text text-anchor="middle" x="279" y="-197.5" font-family="Helvetica,sans-Serif" font-size="10.00">glBindTexture</text>
</a>
</g>
</g>
<!-- Node1&#45;&gt;Node3 -->
<g id="edge2" class="edge"><title>Node1&#45;&gt;Node3</title>
<path fill="none" stroke="midnightblue" d="M96.0639,-133.596C117.651,-146.121 157.533,-167.975 194,-181 205.55,-185.125 218.324,-188.558 230.35,-191.318"/>
<polygon fill="midnightblue" stroke="midnightblue" points="229.716,-194.762 240.233,-193.479 231.211,-187.924 229.716,-194.762"/>
</g>
<!-- Node4 -->
<g id="node4" class="node"><title>Node4</title>
<g id="a_node4"><a xlink:href="../../da/d33/glew_8h.html#aa95edbecc15f2cb8072b81af66d60f5b" target="_top" xlink:title="glTexImage2D">
<polygon fill="white" stroke="black" points="239,-152.5 239,-171.5 319,-171.5 319,-152.5 239,-152.5"/>
<text text-anchor="middle" x="279" y="-159.5" font-family="Helvetica,sans-Serif" font-size="10.00">glTexImage2D</text>
</a>
</g>
</g>
<!-- Node1&#45;&gt;Node4 -->
<g id="edge3" class="edge"><title>Node1&#45;&gt;Node4</title>
<path fill="none" stroke="midnightblue" d="M129.708,-133.54C160.069,-139.367 198.735,-146.787 228.971,-152.59"/>
<polygon fill="midnightblue" stroke="midnightblue" points="228.397,-156.044 238.877,-154.492 229.716,-149.169 228.397,-156.044"/>
</g>
<!-- Node5 -->
<g id="node5" class="node"><title>Node5</title>
<g id="a_node5"><a xlink:href="../../d4/d24/classShaderMan.html#a3db8e7e25049e43d44256326cffe1384" target="_top" xlink:title="ShaderMan::UseShaderRGB2Gray">
<polygon fill="white" stroke="black" points="194.5,-114.5 194.5,-133.5 363.5,-133.5 363.5,-114.5 194.5,-114.5"/>
<text text-anchor="middle" x="279" y="-121.5" font-family="Helvetica,sans-Serif" font-size="10.00">ShaderMan::UseShaderRGB2Gray</text>
</a>
</g>
</g>
<!-- Node1&#45;&gt;Node5 -->
<g id="edge4" class="edge"><title>Node1&#45;&gt;Node5</title>
<path fill="none" stroke="midnightblue" d="M158.255,-124C166.801,-124 175.563,-124 184.271,-124"/>
<polygon fill="midnightblue" stroke="midnightblue" points="184.452,-127.5 194.452,-124 184.452,-120.5 184.452,-127.5"/>
</g>
<!-- Node7 -->
<g id="node7" class="node"><title>Node7</title>
<g id="a_node7"><a xlink:href="../../da/d33/glew_8h.html#a170c1426633472880793e711b06ef0df" target="_top" xlink:title="glDrawBuffer">
<polygon fill="white" stroke="black" points="242,-76.5 242,-95.5 316,-95.5 316,-76.5 242,-76.5"/>
<text text-anchor="middle" x="279" y="-83.5" font-family="Helvetica,sans-Serif" font-size="10.00">glDrawBuffer</text>
</a>
</g>
</g>
<!-- Node1&#45;&gt;Node7 -->
<g id="edge6" class="edge"><title>Node1&#45;&gt;Node7</title>
<path fill="none" stroke="midnightblue" d="M129.708,-114.46C160.996,-108.455 201.101,-100.758 231.714,-94.8832"/>
<polygon fill="midnightblue" stroke="midnightblue" points="232.544,-98.2878 241.705,-92.9656 231.225,-91.4132 232.544,-98.2878"/>
</g>
<!-- Node8 -->
<g id="node8" class="node"><title>Node8</title>
<g id="a_node8"><a xlink:href="../../d4/d24/classShaderMan.html#a9e0bda881ceb8f67650029155d23c4aa" target="_top" xlink:title="ShaderMan::UnloadProgram">
<polygon fill="white" stroke="black" points="209,-38.5 209,-57.5 349,-57.5 349,-38.5 209,-38.5"/>
<text text-anchor="middle" x="279" y="-45.5" font-family="Helvetica,sans-Serif" font-size="10.00">ShaderMan::UnloadProgram</text>
</a>
</g>
</g>
<!-- Node1&#45;&gt;Node8 -->
<g id="edge7" class="edge"><title>Node1&#45;&gt;Node8</title>
<path fill="none" stroke="midnightblue" d="M96.0639,-114.404C117.651,-101.879 157.533,-80.025 194,-67 201.326,-64.3833 209.144,-62.0454 216.952,-59.981"/>
<polygon fill="midnightblue" stroke="midnightblue" points="217.949,-63.3393 226.798,-57.5121 216.247,-56.5495 217.949,-63.3393"/>
</g>
<!-- Node10 -->
<g id="node10" class="node"><title>Node10</title>
<g id="a_node10"><a xlink:href="../../da/d33/glew_8h.html#a2f5eccab2c3938a8c0c141035b4df47c" target="_top" xlink:title="glDeleteTextures">
<polygon fill="white" stroke="black" points="233.5,-0.5 233.5,-19.5 324.5,-19.5 324.5,-0.5 233.5,-0.5"/>
<text text-anchor="middle" x="279" y="-7.5" font-family="Helvetica,sans-Serif" font-size="10.00">glDeleteTextures</text>
</a>
</g>
</g>
<!-- Node1&#45;&gt;Node10 -->
<g id="edge9" class="edge"><title>Node1&#45;&gt;Node10</title>
<path fill="none" stroke="midnightblue" d="M88.3896,-114.474C105.951,-95.1655 148.722,-51.3537 194,-29 203.05,-24.5322 213.167,-21.0996 223.16,-18.4668"/>
<polygon fill="midnightblue" stroke="midnightblue" points="224.158,-21.8267 233.067,-16.0919 222.526,-15.0195 224.158,-21.8267"/>
</g>
<!-- Node6 -->
<g id="node6" class="node"><title>Node6</title>
<g id="a_node6"><a xlink:href="../../d9/d26/classProgramGPU.html#acd625b26fa073fc83ec0be9badb29635" target="_top" xlink:title="ProgramGPU::UseProgram">
<polygon fill="white" stroke="black" points="401,-114.5 401,-133.5 537,-133.5 537,-114.5 401,-114.5"/>
<text text-anchor="middle" x="469" y="-121.5" font-family="Helvetica,sans-Serif" font-size="10.00">ProgramGPU::UseProgram</text>
</a>
</g>
</g>
<!-- Node5&#45;&gt;Node6 -->
<g id="edge5" class="edge"><title>Node5&#45;&gt;Node6</title>
<path fill="none" stroke="midnightblue" d="M363.554,-124C372.603,-124 381.783,-124 390.752,-124"/>
<polygon fill="midnightblue" stroke="midnightblue" points="390.772,-127.5 400.772,-124 390.772,-120.5 390.772,-127.5"/>
</g>
<!-- Node9 -->
<g id="node9" class="node"><title>Node9</title>
<g id="a_node9"><a xlink:href="../../d9/d4e/classShaderBag.html#aacdddcf6984572013aec63a1d97b24b2" target="_top" xlink:title="ShaderBag::UnloadProgram">
<polygon fill="white" stroke="black" points="400,-38.5 400,-57.5 538,-57.5 538,-38.5 400,-38.5"/>
<text text-anchor="middle" x="469" y="-45.5" font-family="Helvetica,sans-Serif" font-size="10.00">ShaderBag::UnloadProgram</text>
</a>
</g>
</g>
<!-- Node8&#45;&gt;Node9 -->
<g id="edge8" class="edge"><title>Node8&#45;&gt;Node9</title>
<path fill="none" stroke="midnightblue" d="M349.203,-48C362.385,-48 376.268,-48 389.71,-48"/>
<polygon fill="midnightblue" stroke="midnightblue" points="389.884,-51.5001 399.884,-48 389.884,-44.5001 389.884,-51.5001"/>
</g>
</g>
</svg>
        <g id="navigator" transform="translate(0 0)" fill="#404254">
                <rect fill="#f2f5e9" fill-opacity="0.5" stroke="#606060" stroke-width=".5" x="0" y="0" width="60" height="60"/>
                <use id="zoomplus" xlink:href="#zoomPlus" x="17" y="9" onmousedown="handleZoom(evt,'in')"/>
                <use id="zoomminus" xlink:href="#zoomMin" x="42" y="9" onmousedown="handleZoom(evt,'out')"/>
                <use id="reset" xlink:href="#resetDef" x="30" y="36" onmousedown="handleReset()"/>
                <g id="arrowUp" xlink:href="#dirArrow" transform="translate(30 24)" onmousedown="handlePan(0,-1)">
                  <use xlink:href="#rim" fill="#404040">
                        <set attributeName="fill" to="#808080" begin="arrowUp.mouseover" end="arrowUp.mouseout"/>
                  </use>
                  <path fill="none" stroke="white" stroke-width="1.5" d="M0,-3.0v7 M-2.5,-0.5L0,-3.0L2.5,-0.5"/>
                </g>
                <g id="arrowRight" xlink:href="#dirArrow" transform="rotate(90) translate(36 -43)" onmousedown="handlePan(1,0)">
                  <use xlink:href="#rim" fill="#404040">
                        <set attributeName="fill" to="#808080" begin="arrowRight.mouseover" end="arrowRight.mouseout"/>
                  </use>
                  <path fill="none" stroke="white" stroke-width="1.5" d="M0,-3.0v7 M-2.5,-0.5L0,-3.0L2.5,-0.5"/>
                </g>
                <g id="arrowDown" xlink:href="#dirArrow" transform="rotate(180) translate(-30 -48)" onmousedown="handlePan(0,1)">
                  <use xlink:href="#rim" fill="#404040">
                        <set attributeName="fill" to="#808080" begin="arrowDown.mouseover" end="arrowDown.mouseout"/>
                  </use>
                  <path fill="none" stroke="white" stroke-width="1.5" d="M0,-3.0v7 M-2.5,-0.5L0,-3.0L2.5,-0.5"/>
                </g>
                <g id="arrowLeft" xlink:href="#dirArrow" transform="rotate(270) translate(-36 17)" onmousedown="handlePan(-1,0)">
                  <use xlink:href="#rim" fill="#404040">
                        <set attributeName="fill" to="#808080" begin="arrowLeft.mouseover" end="arrowLeft.mouseout"/>
                  </use>
                  <path fill="none" stroke="white" stroke-width="1.5" d="M0,-3.0v7 M-2.5,-0.5L0,-3.0L2.5,-0.5"/>
                </g>
        </g>
        <svg viewBox="0 0 15 15" width="100%" height="30px" preserveAspectRatio="xMaxYMin meet">
         <g id="arrow_out" transform="scale(0.3 0.3)">
          <a xlink:href="classGLTexPacked_ac3adf4b845bba3f8233f97652c90e4f6_cgraph_org.svg" target="_base">
           <rect id="button" ry="5" rx="5" y="6" x="6" height="38" width="38"
                fill="#f2f5e9" fill-opacity="0.5" stroke="#606060" stroke-width="1.0"/>
           <path id="arrow"
             d="M 11.500037,31.436501 C 11.940474,20.09759 22.043105,11.32322 32.158766,21.979434 L 37.068811,17.246167 C 37.068811,17.246167 37.088388,32 37.088388,32 L 22.160133,31.978069 C 22.160133,31.978069 26.997745,27.140456 26.997745,27.140456 C 18.528582,18.264221 13.291696,25.230495 11.500037,31.436501 z"
             style="fill:#404040;"/>
          </a>
         </g>
        </svg>
</svg>
