<?xml version="1.0" encoding="UTF-8" standalone="no"?>
<!DOCTYPE svg PUBLIC "-//W3C//DTD SVG 1.1//EN"
 "http://www.w3.org/Graphics/SVG/1.1/DTD/svg11.dtd">
<!-- Generated by graphviz version 2.36.0 (20140111.2315)
 -->
<!-- Title: GLTexPacked::InitTexture Pages: 1 -->
<svg width="264pt" height="142pt"
 viewBox="0.00 0.00 264.00 142.00" xmlns="http://www.w3.org/2000/svg" xmlns:xlink="http://www.w3.org/1999/xlink">
<g id="graph0" class="graph" transform="scale(1 1) rotate(0) translate(4 138)">
<title>GLTexPacked::InitTexture</title>
<polygon fill="white" stroke="none" points="-4,4 -4,-138 260,-138 260,4 -4,4"/>
<!-- Node1 -->
<g id="node1" class="node"><title>Node1</title>
<polygon fill="#bfbfbf" stroke="black" points="0.5,-57.5 0.5,-76.5 131.5,-76.5 131.5,-57.5 0.5,-57.5"/>
<text text-anchor="middle" x="66" y="-64.5" font-family="Helvetica,sans-Serif" font-size="10.00">GLTexPacked::InitTexture</text>
</g>
<!-- Node2 -->
<g id="node2" class="node"><title>Node2</title>
<g id="a_node2"><a xlink:href="../../da/d33/glew_8h.html#a99e77ebf136a8c511226cf705049a305" target="_top" xlink:title="glGenTextures">
<polygon fill="white" stroke="black" points="172,-114.5 172,-133.5 252,-133.5 252,-114.5 172,-114.5"/>
<text text-anchor="middle" x="212" y="-121.5" font-family="Helvetica,sans-Serif" font-size="10.00">glGenTextures</text>
</a>
</g>
</g>
<!-- Node1&#45;&gt;Node2 -->
<g id="edge1" class="edge"><title>Node1&#45;&gt;Node2</title>
<path fill="none" stroke="midnightblue" d="M91.1024,-76.5405C114.673,-85.8705 150.777,-100.162 177.209,-110.624"/>
<polygon fill="midnightblue" stroke="midnightblue" points="176.233,-114.002 186.819,-114.428 178.809,-107.493 176.233,-114.002"/>
</g>
<!-- Node3 -->
<g id="node3" class="node"><title>Node3</title>
<g id="a_node3"><a xlink:href="../../da/d33/glew_8h.html#ac8dbabff536e520bc700960dadd8d787" target="_top" xlink:title="glTexParameteri">
<polygon fill="white" stroke="black" points="168,-76.5 168,-95.5 256,-95.5 256,-76.5 168,-76.5"/>
<text text-anchor="middle" x="212" y="-83.5" font-family="Helvetica,sans-Serif" font-size="10.00">glTexParameteri</text>
</a>
</g>
</g>
<!-- Node1&#45;&gt;Node3 -->
<g id="edge2" class="edge"><title>Node1&#45;&gt;Node3</title>
<path fill="none" stroke="midnightblue" d="M131.839,-75.5551C140.543,-76.7035 149.387,-77.8706 157.858,-78.9882"/>
<polygon fill="midnightblue" stroke="midnightblue" points="157.597,-82.484 167.969,-80.3223 158.513,-75.5442 157.597,-82.484"/>
</g>
<!-- Node4 -->
<g id="node4" class="node"><title>Node4</title>
<g id="a_node4"><a xlink:href="../../da/d33/glew_8h.html#a414668e7628d609ce501994bd609bfdf" target="_top" xlink:title="glTexEnvi">
<polygon fill="white" stroke="black" points="182,-38.5 182,-57.5 242,-57.5 242,-38.5 182,-38.5"/>
<text text-anchor="middle" x="212" y="-45.5" font-family="Helvetica,sans-Serif" font-size="10.00">glTexEnvi</text>
</a>
</g>
</g>
<!-- Node1&#45;&gt;Node4 -->
<g id="edge3" class="edge"><title>Node1&#45;&gt;Node4</title>
<path fill="none" stroke="midnightblue" d="M131.839,-58.4449C145.486,-56.6442 159.48,-54.7978 171.833,-53.1679"/>
<polygon fill="midnightblue" stroke="midnightblue" points="172.323,-56.6336 181.779,-51.8555 171.408,-49.6938 172.323,-56.6336"/>
</g>
<!-- Node5 -->
<g id="node5" class="node"><title>Node5</title>
<g id="a_node5"><a xlink:href="../../da/d33/glew_8h.html#aa95edbecc15f2cb8072b81af66d60f5b" target="_top" xlink:title="glTexImage2D">
<polygon fill="white" stroke="black" points="172,-0.5 172,-19.5 252,-19.5 252,-0.5 172,-0.5"/>
<text text-anchor="middle" x="212" y="-7.5" font-family="Helvetica,sans-Serif" font-size="10.00">glTexImage2D</text>
</a>
</g>
</g>
<!-- Node1&#45;&gt;Node5 -->
<g id="edge4" class="edge"><title>Node1&#45;&gt;Node5</title>
<path fill="none" stroke="midnightblue" d="M91.1024,-57.4595C114.673,-48.1295 150.777,-33.8384 177.209,-23.3758"/>
<polygon fill="midnightblue" stroke="midnightblue" points="178.809,-26.5065 186.819,-19.5716 176.233,-19.9979 178.809,-26.5065"/>
</g>
</g>
</svg>
