<?xml version="1.0" encoding="UTF-8" standalone="no"?>
<!DOCTYPE svg PUBLIC "-//W3C//DTD SVG 1.1//EN"
 "http://www.w3.org/Graphics/SVG/1.1/DTD/svg11.dtd">
<!-- Generated by graphviz version 2.36.0 (20140111.2315)
 -->
<!-- Title: GLTexPacked::ZeroHistoMargin Pages: 1 -->
<svg width="538pt" height="218pt"
 viewBox="0.00 0.00 538.00 218.00" xmlns="http://www.w3.org/2000/svg" xmlns:xlink="http://www.w3.org/1999/xlink">
<g id="graph0" class="graph" transform="scale(1 1) rotate(0) translate(4 214)">
<title>GLTexPacked::ZeroHistoMargin</title>
<polygon fill="white" stroke="none" points="-4,4 -4,-214 534,-214 534,4 -4,4"/>
<!-- Node1 -->
<g id="node1" class="node"><title>Node1</title>
<polygon fill="#bfbfbf" stroke="black" points="0.5,-66.5 0.5,-85.5 157.5,-85.5 157.5,-66.5 0.5,-66.5"/>
<text text-anchor="middle" x="79" y="-73.5" font-family="Helvetica,sans-Serif" font-size="10.00">GLTexPacked::ZeroHistoMargin</text>
</g>
<!-- Node2 -->
<g id="node2" class="node"><title>Node2</title>
<g id="a_node2"><a xlink:href="../../d2/d55/classGlobalUtil.html#a30830c22f7574d8d6f5a5b0a0b31ad50" target="_top" xlink:title="GlobalUtil::FitViewPort">
<polygon fill="white" stroke="black" points="218,-95.5 218,-114.5 334,-114.5 334,-95.5 218,-95.5"/>
<text text-anchor="middle" x="276" y="-102.5" font-family="Helvetica,sans-Serif" font-size="10.00">GlobalUtil::FitViewPort</text>
</a>
</g>
</g>
<!-- Node1&#45;&gt;Node2 -->
<g id="edge1" class="edge"><title>Node1&#45;&gt;Node2</title>
<path fill="none" stroke="midnightblue" d="M144.12,-85.5359C164.535,-88.5719 187.17,-91.9381 207.797,-95.0056"/>
<polygon fill="midnightblue" stroke="midnightblue" points="207.336,-98.4756 217.742,-96.4848 208.366,-91.5518 207.336,-98.4756"/>
</g>
<!-- Node8 -->
<g id="node8" class="node"><title>Node8</title>
<g id="a_node8"><a xlink:href="../../d4/d24/classShaderMan.html#a1cb28dadb77f568d0b23300ac82f1fb6" target="_top" xlink:title="ShaderMan::UseShaderZeroPass">
<polygon fill="white" stroke="black" points="194.5,-38.5 194.5,-57.5 357.5,-57.5 357.5,-38.5 194.5,-38.5"/>
<text text-anchor="middle" x="276" y="-45.5" font-family="Helvetica,sans-Serif" font-size="10.00">ShaderMan::UseShaderZeroPass</text>
</a>
</g>
</g>
<!-- Node1&#45;&gt;Node8 -->
<g id="edge7" class="edge"><title>Node1&#45;&gt;Node8</title>
<path fill="none" stroke="midnightblue" d="M146.29,-66.4814C163.088,-64.0694 181.268,-61.4589 198.525,-58.981"/>
<polygon fill="midnightblue" stroke="midnightblue" points="199.161,-62.4257 208.562,-57.5398 198.166,-55.4968 199.161,-62.4257"/>
</g>
<!-- Node3 -->
<g id="node3" class="node"><title>Node3</title>
<g id="a_node3"><a xlink:href="../../da/d33/glew_8h.html#ae9ebc290561b3321b629610807155a35" target="_top" xlink:title="glGetIntegerv">
<polygon fill="white" stroke="black" points="424.5,-190.5 424.5,-209.5 499.5,-209.5 499.5,-190.5 424.5,-190.5"/>
<text text-anchor="middle" x="462" y="-197.5" font-family="Helvetica,sans-Serif" font-size="10.00">glGetIntegerv</text>
</a>
</g>
</g>
<!-- Node2&#45;&gt;Node3 -->
<g id="edge2" class="edge"><title>Node2&#45;&gt;Node3</title>
<path fill="none" stroke="midnightblue" d="M288.929,-114.506C309.338,-130.353 352.757,-162.275 394,-181 400.585,-183.99 407.75,-186.62 414.865,-188.894"/>
<polygon fill="midnightblue" stroke="midnightblue" points="413.893,-192.257 424.477,-191.777 415.904,-185.552 413.893,-192.257"/>
</g>
<!-- Node4 -->
<g id="node4" class="node"><title>Node4</title>
<g id="a_node4"><a xlink:href="../../da/d33/glew_8h.html#a8e93835e91933b7078c88f905dd8599c" target="_top" xlink:title="glViewport">
<polygon fill="white" stroke="black" points="431,-152.5 431,-171.5 493,-171.5 493,-152.5 431,-152.5"/>
<text text-anchor="middle" x="462" y="-159.5" font-family="Helvetica,sans-Serif" font-size="10.00">glViewport</text>
</a>
</g>
</g>
<!-- Node2&#45;&gt;Node4 -->
<g id="edge3" class="edge"><title>Node2&#45;&gt;Node4</title>
<path fill="none" stroke="midnightblue" d="M305.276,-114.514C328.914,-122.388 363.554,-133.743 394,-143 402.741,-145.658 412.159,-148.402 421.093,-150.95"/>
<polygon fill="midnightblue" stroke="midnightblue" points="420.337,-154.373 430.912,-153.728 422.243,-147.638 420.337,-154.373"/>
</g>
<!-- Node5 -->
<g id="node5" class="node"><title>Node5</title>
<g id="a_node5"><a xlink:href="../../da/d33/glew_8h.html#af14e38e22806d0220680b52edbc3bcef" target="_top" xlink:title="glMatrixMode">
<polygon fill="white" stroke="black" points="424.5,-114.5 424.5,-133.5 499.5,-133.5 499.5,-114.5 424.5,-114.5"/>
<text text-anchor="middle" x="462" y="-121.5" font-family="Helvetica,sans-Serif" font-size="10.00">glMatrixMode</text>
</a>
</g>
</g>
<!-- Node2&#45;&gt;Node5 -->
<g id="edge4" class="edge"><title>Node2&#45;&gt;Node5</title>
<path fill="none" stroke="midnightblue" d="M334.21,-110.908C359.964,-113.567 389.984,-116.667 414.346,-119.182"/>
<polygon fill="midnightblue" stroke="midnightblue" points="414.105,-122.676 424.412,-120.222 414.824,-115.713 414.105,-122.676"/>
</g>
<!-- Node6 -->
<g id="node6" class="node"><title>Node6</title>
<g id="a_node6"><a xlink:href="../../da/d33/glew_8h.html#a6577472f85b23086331edadaf0311a49" target="_top" xlink:title="glLoadIdentity">
<polygon fill="white" stroke="black" points="423.5,-76.5 423.5,-95.5 500.5,-95.5 500.5,-76.5 423.5,-76.5"/>
<text text-anchor="middle" x="462" y="-83.5" font-family="Helvetica,sans-Serif" font-size="10.00">glLoadIdentity</text>
</a>
</g>
</g>
<!-- Node2&#45;&gt;Node6 -->
<g id="edge5" class="edge"><title>Node2&#45;&gt;Node6</title>
<path fill="none" stroke="midnightblue" d="M334.21,-99.0924C359.595,-96.4712 389.124,-93.422 413.295,-90.9261"/>
<polygon fill="midnightblue" stroke="midnightblue" points="413.711,-94.4018 423.298,-89.8931 412.992,-87.4389 413.711,-94.4018"/>
</g>
<!-- Node7 -->
<g id="node7" class="node"><title>Node7</title>
<g id="a_node7"><a xlink:href="../../da/d33/glew_8h.html#a2d92120b1fad876057dfd00e2d942525" target="_top" xlink:title="glOrtho">
<polygon fill="white" stroke="black" points="438,-38.5 438,-57.5 486,-57.5 486,-38.5 438,-38.5"/>
<text text-anchor="middle" x="462" y="-45.5" font-family="Helvetica,sans-Serif" font-size="10.00">glOrtho</text>
</a>
</g>
</g>
<!-- Node2&#45;&gt;Node7 -->
<g id="edge6" class="edge"><title>Node2&#45;&gt;Node7</title>
<path fill="none" stroke="midnightblue" d="M305.276,-95.4856C328.914,-87.6116 363.554,-76.2575 394,-67 405.045,-63.6415 417.172,-60.1451 428.037,-57.0809"/>
<polygon fill="midnightblue" stroke="midnightblue" points="429.305,-60.3606 437.991,-54.2941 427.417,-53.6198 429.305,-60.3606"/>
</g>
<!-- Node9 -->
<g id="node9" class="node"><title>Node9</title>
<g id="a_node9"><a xlink:href="../../d9/d26/classProgramGPU.html#acd625b26fa073fc83ec0be9badb29635" target="_top" xlink:title="ProgramGPU::UseProgram">
<polygon fill="white" stroke="black" points="394,-0.5 394,-19.5 530,-19.5 530,-0.5 394,-0.5"/>
<text text-anchor="middle" x="462" y="-7.5" font-family="Helvetica,sans-Serif" font-size="10.00">ProgramGPU::UseProgram</text>
</a>
</g>
</g>
<!-- Node8&#45;&gt;Node9 -->
<g id="edge8" class="edge"><title>Node8&#45;&gt;Node9</title>
<path fill="none" stroke="midnightblue" d="M323.431,-38.411C348.149,-33.3061 378.739,-26.9887 404.792,-21.6082"/>
<polygon fill="midnightblue" stroke="midnightblue" points="405.817,-24.9703 414.903,-19.5201 404.402,-18.115 405.817,-24.9703"/>
</g>
</g>
</svg>
