<?xml version="1.0" encoding="UTF-8" standalone="no"?>
<!DOCTYPE svg PUBLIC "-//W3C//DTD SVG 1.1//EN"
 "http://www.w3.org/Graphics/SVG/1.1/DTD/svg11.dtd">
<!-- Generated by graphviz version 2.36.0 (20140111.2315)
 -->
<!-- Title: GLTexPacked::DrawImage Pages: 1 -->
<svg width="256pt" height="180pt"
 viewBox="0.00 0.00 256.00 180.00" xmlns="http://www.w3.org/2000/svg" xmlns:xlink="http://www.w3.org/1999/xlink">
<g id="graph0" class="graph" transform="scale(1 1) rotate(0) translate(4 176)">
<title>GLTexPacked::DrawImage</title>
<polygon fill="white" stroke="none" points="-4,4 -4,-176 252,-176 252,4 -4,4"/>
<!-- Node1 -->
<g id="node1" class="node"><title>Node1</title>
<polygon fill="#bfbfbf" stroke="black" points="0.5,-76.5 0.5,-95.5 135.5,-95.5 135.5,-76.5 0.5,-76.5"/>
<text text-anchor="middle" x="68" y="-83.5" font-family="Helvetica,sans-Serif" font-size="10.00">GLTexPacked::DrawImage</text>
</g>
<!-- Node2 -->
<g id="node2" class="node"><title>Node2</title>
<g id="a_node2"><a xlink:href="../../da/d33/glew_8h.html#a98964453975519f92d6cc59ef77f7436" target="_top" xlink:title="glBegin">
<polygon fill="white" stroke="black" points="185.5,-152.5 185.5,-171.5 234.5,-171.5 234.5,-152.5 185.5,-152.5"/>
<text text-anchor="middle" x="210" y="-159.5" font-family="Helvetica,sans-Serif" font-size="10.00">glBegin</text>
</a>
</g>
</g>
<!-- Node1&#45;&gt;Node2 -->
<g id="edge1" class="edge"><title>Node1&#45;&gt;Node2</title>
<path fill="none" stroke="midnightblue" d="M86.0426,-95.6437C106.397,-107.112 141.524,-126.747 172,-143 174.931,-144.563 178.003,-146.178 181.071,-147.775"/>
<polygon fill="midnightblue" stroke="midnightblue" points="179.627,-150.969 190.118,-152.447 182.839,-144.749 179.627,-150.969"/>
</g>
<!-- Node3 -->
<g id="node3" class="node"><title>Node3</title>
<g id="a_node3"><a xlink:href="../../da/d33/glew_8h.html#a09db6f9fa0d39ef7e3919e6212296ece" target="_top" xlink:title="glTexCoord2f">
<polygon fill="white" stroke="black" points="172.5,-114.5 172.5,-133.5 247.5,-133.5 247.5,-114.5 172.5,-114.5"/>
<text text-anchor="middle" x="210" y="-121.5" font-family="Helvetica,sans-Serif" font-size="10.00">glTexCoord2f</text>
</a>
</g>
</g>
<!-- Node1&#45;&gt;Node3 -->
<g id="edge2" class="edge"><title>Node1&#45;&gt;Node3</title>
<path fill="none" stroke="midnightblue" d="M104.328,-95.589C122.401,-100.494 144.598,-106.52 163.895,-111.757"/>
<polygon fill="midnightblue" stroke="midnightblue" points="163.116,-115.172 173.683,-114.414 164.949,-108.417 163.116,-115.172"/>
</g>
<!-- Node4 -->
<g id="node4" class="node"><title>Node4</title>
<g id="a_node4"><a xlink:href="../../da/d33/glew_8h.html#a43e94a9a0586067872b96a8a790e60bc" target="_top" xlink:title="glVertex2i">
<polygon fill="white" stroke="black" points="180,-76.5 180,-95.5 240,-95.5 240,-76.5 180,-76.5"/>
<text text-anchor="middle" x="210" y="-83.5" font-family="Helvetica,sans-Serif" font-size="10.00">glVertex2i</text>
</a>
</g>
</g>
<!-- Node1&#45;&gt;Node4 -->
<g id="edge3" class="edge"><title>Node1&#45;&gt;Node4</title>
<path fill="none" stroke="midnightblue" d="M135.72,-86C147.34,-86 159.081,-86 169.659,-86"/>
<polygon fill="midnightblue" stroke="midnightblue" points="169.801,-89.5001 179.801,-86 169.801,-82.5001 169.801,-89.5001"/>
</g>
<!-- Node5 -->
<g id="node5" class="node"><title>Node5</title>
<g id="a_node5"><a xlink:href="../../da/d33/glew_8h.html#abbff207d1fa71b296ff35b149cef7238" target="_top" xlink:title="glEnd">
<polygon fill="white" stroke="black" points="189.5,-38.5 189.5,-57.5 230.5,-57.5 230.5,-38.5 189.5,-38.5"/>
<text text-anchor="middle" x="210" y="-45.5" font-family="Helvetica,sans-Serif" font-size="10.00">glEnd</text>
</a>
</g>
</g>
<!-- Node1&#45;&gt;Node5 -->
<g id="edge4" class="edge"><title>Node1&#45;&gt;Node5</title>
<path fill="none" stroke="midnightblue" d="M104.328,-76.411C127.544,-70.1094 157.568,-61.9601 179.503,-56.0063"/>
<polygon fill="midnightblue" stroke="midnightblue" points="180.523,-59.3562 189.257,-53.3589 178.689,-52.6006 180.523,-59.3562"/>
</g>
<!-- Node6 -->
<g id="node6" class="node"><title>Node6</title>
<g id="a_node6"><a xlink:href="../../da/d33/glew_8h.html#afb3e087fc26a916a909d46ead9cfc44a" target="_top" xlink:title="glFlush">
<polygon fill="white" stroke="black" points="186,-0.5 186,-19.5 234,-19.5 234,-0.5 186,-0.5"/>
<text text-anchor="middle" x="210" y="-7.5" font-family="Helvetica,sans-Serif" font-size="10.00">glFlush</text>
</a>
</g>
</g>
<!-- Node1&#45;&gt;Node6 -->
<g id="edge5" class="edge"><title>Node1&#45;&gt;Node6</title>
<path fill="none" stroke="midnightblue" d="M86.0426,-76.3563C106.397,-64.8878 141.524,-45.2528 172,-29 174.931,-27.437 178.003,-25.8222 181.071,-24.2247"/>
<polygon fill="midnightblue" stroke="midnightblue" points="182.839,-27.2512 190.118,-19.5533 179.627,-21.0315 182.839,-27.2512"/>
</g>
</g>
</svg>
