<?xml version="1.0" encoding="UTF-8" standalone="no"?>
<!DOCTYPE svg PUBLIC "-//W3C//DTD SVG 1.1//EN"
 "http://www.w3.org/Graphics/SVG/1.1/DTD/svg11.dtd">
<!-- Generated by graphviz version 2.36.0 (20140111.2315)
 -->
<!-- Title: MultiThreadDemo::InitializeSIFT Pages: 1 -->
<svg width="784pt" height="104pt"
 viewBox="0.00 0.00 784.00 104.00" xmlns="http://www.w3.org/2000/svg" xmlns:xlink="http://www.w3.org/1999/xlink">
<g id="graph0" class="graph" transform="scale(1 1) rotate(0) translate(4 100)">
<title>MultiThreadDemo::InitializeSIFT</title>
<polygon fill="white" stroke="none" points="-4,4 -4,-100 780,-100 780,4 -4,4"/>
<!-- Node1 -->
<g id="node1" class="node"><title>Node1</title>
<polygon fill="#bfbfbf" stroke="black" points="0,-19.5 0,-38.5 158,-38.5 158,-19.5 0,-19.5"/>
<text text-anchor="middle" x="79" y="-26.5" font-family="Helvetica,sans-Serif" font-size="10.00">MultiThreadDemo::InitializeSIFT</text>
</g>
<!-- Node2 -->
<g id="node2" class="node"><title>Node2</title>
<g id="a_node2"><a xlink:href="../../dd/d97/classMultiThreadSIFT.html#a68c00453dab8102b74eaeb6d19e1a592" target="_top" xlink:title="MultiThreadSIFT::InitializeSIFT">
<polygon fill="white" stroke="black" points="194.5,-38.5 194.5,-57.5 347.5,-57.5 347.5,-38.5 194.5,-38.5"/>
<text text-anchor="middle" x="271" y="-45.5" font-family="Helvetica,sans-Serif" font-size="10.00">MultiThreadSIFT::InitializeSIFT</text>
</a>
</g>
</g>
<!-- Node1&#45;&gt;Node2 -->
<g id="edge1" class="edge"><title>Node1&#45;&gt;Node2</title>
<path fill="none" stroke="midnightblue" d="M158.103,-36.8103C166.71,-37.671 175.508,-38.5508 184.203,-39.4203"/>
<polygon fill="midnightblue" stroke="midnightblue" points="184.046,-42.922 194.344,-40.4344 184.742,-35.9567 184.046,-42.922"/>
</g>
<!-- Node9 -->
<g id="node9" class="node"><title>Node9</title>
<g id="a_node9"><a xlink:href="../../d4/dee/classSiftGPU.html#a7ecfea9c8fe68cbe0667a5754322222a" target="_top" xlink:title="SiftGPU::RunSIFT">
<polygon fill="white" stroke="black" points="221.5,-0.5 221.5,-19.5 320.5,-19.5 320.5,-0.5 221.5,-0.5"/>
<text text-anchor="middle" x="271" y="-7.5" font-family="Helvetica,sans-Serif" font-size="10.00">SiftGPU::RunSIFT</text>
</a>
</g>
</g>
<!-- Node1&#45;&gt;Node9 -->
<g id="edge8" class="edge"><title>Node1&#45;&gt;Node9</title>
<path fill="none" stroke="midnightblue" d="M158.103,-21.1897C175.818,-19.4182 194.343,-17.5657 211.106,-15.8894"/>
<polygon fill="midnightblue" stroke="midnightblue" points="211.69,-19.3485 221.292,-14.8708 210.994,-12.3833 211.69,-19.3485"/>
</g>
<!-- Node3 -->
<g id="node3" class="node"><title>Node3</title>
<g id="a_node3"><a xlink:href="../../d4/dee/classSiftGPU.html#ab50cd0cc4d3f46ede220221f6ca46498" target="_top" xlink:title="SiftGPU::ParseParam">
<polygon fill="white" stroke="black" points="395.5,-76.5 395.5,-95.5 508.5,-95.5 508.5,-76.5 395.5,-76.5"/>
<text text-anchor="middle" x="452" y="-83.5" font-family="Helvetica,sans-Serif" font-size="10.00">SiftGPU::ParseParam</text>
</a>
</g>
</g>
<!-- Node2&#45;&gt;Node3 -->
<g id="edge2" class="edge"><title>Node2&#45;&gt;Node3</title>
<path fill="none" stroke="midnightblue" d="M317.169,-57.589C341.216,-62.6939 370.974,-69.0113 396.319,-74.3918"/>
<polygon fill="midnightblue" stroke="midnightblue" points="395.647,-77.8269 406.156,-76.4799 397.1,-70.9795 395.647,-77.8269"/>
</g>
<!-- Node6 -->
<g id="node6" class="node"><title>Node6</title>
<g id="a_node6"><a xlink:href="../../d4/dee/classSiftGPU.html#ab2791178a6e15b8c5dd1979f00d9e737" target="_top" xlink:title="SiftGPU::CreateContextGL">
<polygon fill="white" stroke="black" points="384,-38.5 384,-57.5 520,-57.5 520,-38.5 384,-38.5"/>
<text text-anchor="middle" x="452" y="-45.5" font-family="Helvetica,sans-Serif" font-size="10.00">SiftGPU::CreateContextGL</text>
</a>
</g>
</g>
<!-- Node2&#45;&gt;Node6 -->
<g id="edge5" class="edge"><title>Node2&#45;&gt;Node6</title>
<path fill="none" stroke="midnightblue" d="M347.653,-48C356.294,-48 365.111,-48 373.773,-48"/>
<polygon fill="midnightblue" stroke="midnightblue" points="373.849,-51.5001 383.849,-48 373.849,-44.5001 373.849,-51.5001"/>
</g>
<!-- Node8 -->
<g id="node8" class="node"><title>Node8</title>
<g id="a_node8"><a xlink:href="../../d9/db8/glut_8h.html#a6f255d924f7a6bb2c4be0c8c2f2d9ce3" target="_top" xlink:title="exit">
<polygon fill="white" stroke="black" points="436,-0.5 436,-19.5 468,-19.5 468,-0.5 436,-0.5"/>
<text text-anchor="middle" x="452" y="-7.5" font-family="Helvetica,sans-Serif" font-size="10.00">exit</text>
</a>
</g>
</g>
<!-- Node2&#45;&gt;Node8 -->
<g id="edge7" class="edge"><title>Node2&#45;&gt;Node8</title>
<path fill="none" stroke="midnightblue" d="M317.169,-38.411C351.7,-31.0805 398.009,-21.2496 426.114,-15.2832"/>
<polygon fill="midnightblue" stroke="midnightblue" points="426.876,-18.6994 435.931,-13.1989 425.422,-11.8519 426.876,-18.6994"/>
</g>
<!-- Node4 -->
<g id="node4" class="node"><title>Node4</title>
<g id="a_node4"><a xlink:href="../../d2/d55/classGlobalUtil.html#a22689de5e558d891c11c8fec2e5c2931" target="_top" xlink:title="GlobalUtil::SelectDisplay">
<polygon fill="white" stroke="black" points="565,-76.5 565,-95.5 691,-95.5 691,-76.5 565,-76.5"/>
<text text-anchor="middle" x="628" y="-83.5" font-family="Helvetica,sans-Serif" font-size="10.00">GlobalUtil::SelectDisplay</text>
</a>
</g>
</g>
<!-- Node3&#45;&gt;Node4 -->
<g id="edge3" class="edge"><title>Node3&#45;&gt;Node4</title>
<path fill="none" stroke="midnightblue" d="M508.533,-86C523.219,-86 539.287,-86 554.718,-86"/>
<polygon fill="midnightblue" stroke="midnightblue" points="554.746,-89.5001 564.746,-86 554.746,-82.5001 554.746,-89.5001"/>
</g>
<!-- Node5 -->
<g id="node5" class="node"><title>Node5</title>
<g id="a_node5"><a xlink:href="../../db/d82/wglew_8h.html#a7b84f5391331438359747d138a86ffe3" target="_top" xlink:title="HDC">
<polygon fill="white" stroke="black" points="736.5,-76.5 736.5,-95.5 775.5,-95.5 775.5,-76.5 736.5,-76.5"/>
<text text-anchor="middle" x="756" y="-83.5" font-family="Helvetica,sans-Serif" font-size="10.00">HDC</text>
</a>
</g>
</g>
<!-- Node4&#45;&gt;Node5 -->
<g id="edge4" class="edge"><title>Node4&#45;&gt;Node5</title>
<path fill="none" stroke="midnightblue" d="M691.262,-86C703.502,-86 715.779,-86 726.245,-86"/>
<polygon fill="midnightblue" stroke="midnightblue" points="726.419,-89.5001 736.419,-86 726.419,-82.5001 726.419,-89.5001"/>
</g>
<!-- Node7 -->
<g id="node7" class="node"><title>Node7</title>
<g id="a_node7"><a xlink:href="../../d2/d55/classGlobalUtil.html#ae7f13fca68dc4629c9731ef5042e2c23" target="_top" xlink:title="GlobalUtil::CreateWindowEZ">
<polygon fill="white" stroke="black" points="556.5,-38.5 556.5,-57.5 699.5,-57.5 699.5,-38.5 556.5,-38.5"/>
<text text-anchor="middle" x="628" y="-45.5" font-family="Helvetica,sans-Serif" font-size="10.00">GlobalUtil::CreateWindowEZ</text>
</a>
</g>
</g>
<!-- Node6&#45;&gt;Node7 -->
<g id="edge6" class="edge"><title>Node6&#45;&gt;Node7</title>
<path fill="none" stroke="midnightblue" d="M520.273,-48C528.796,-48 537.586,-48 546.291,-48"/>
<polygon fill="midnightblue" stroke="midnightblue" points="546.451,-51.5001 556.451,-48 546.451,-44.5001 546.451,-51.5001"/>
</g>
</g>
</svg>
