<?xml version="1.0" encoding="UTF-8" standalone="no"?>
<!DOCTYPE svg PUBLIC "-//W3C//DTD SVG 1.1//EN"
 "http://www.w3.org/Graphics/SVG/1.1/DTD/svg11.dtd">
<!-- Generated by graphviz version 2.36.0 (20140111.2315)
 -->
<!-- Title: src/DataStructures/FramePoseStruct.cpp Pages: 1 -->
<svg width="1145pt" height="580pt"
 viewBox="0.00 0.00 1145.32 580.00" xmlns="http://www.w3.org/2000/svg" xmlns:xlink="http://www.w3.org/1999/xlink">
<g id="graph0" class="graph" transform="scale(1 1) rotate(0) translate(4 576)">
<title>src/DataStructures/FramePoseStruct.cpp</title>
<polygon fill="white" stroke="none" points="-4,4 -4,-576 1141.32,-576 1141.32,4 -4,4"/>
<!-- Node1 -->
<g id="node1" class="node"><title>Node1</title>
<polygon fill="#bfbfbf" stroke="black" points="482.5,-541 482.5,-571 597.5,-571 597.5,-541 482.5,-541"/>
<text text-anchor="start" x="490.5" y="-559" font-family="Helvetica,sans-Serif" font-size="10.00">src/DataStructures</text>
<text text-anchor="middle" x="540" y="-548" font-family="Helvetica,sans-Serif" font-size="10.00">/FramePoseStruct.cpp</text>
</g>
<!-- Node2 -->
<g id="node2" class="node"><title>Node2</title>
<g id="a_node2"><a xlink:href="../../db/d75/FramePoseStruct_8h.html" target="_top" xlink:title="DataStructures/FramePose\lStruct.h">
<polygon fill="white" stroke="black" points="275,-417 275,-447 411,-447 411,-417 275,-417"/>
<text text-anchor="start" x="283" y="-435" font-family="Helvetica,sans-Serif" font-size="10.00">DataStructures/FramePose</text>
<text text-anchor="middle" x="343" y="-424" font-family="Helvetica,sans-Serif" font-size="10.00">Struct.h</text>
</a>
</g>
</g>
<!-- Node1&#45;&gt;Node2 -->
<g id="edge1" class="edge"><title>Node1&#45;&gt;Node2</title>
<path fill="none" stroke="midnightblue" d="M517.016,-540.766C481.725,-518.911 414.113,-477.04 374.354,-452.417"/>
<polygon fill="midnightblue" stroke="midnightblue" points="376.182,-449.433 365.838,-447.143 372.497,-455.384 376.182,-449.433"/>
</g>
<!-- Node16 -->
<g id="node16" class="node"><title>Node16</title>
<g id="a_node16"><a xlink:href="../../d7/db3/Frame_8h.html" target="_top" xlink:title="DataStructures/Frame.h">
<polygon fill="white" stroke="black" points="560,-484.5 560,-503.5 682,-503.5 682,-484.5 560,-484.5"/>
<text text-anchor="middle" x="621" y="-491.5" font-family="Helvetica,sans-Serif" font-size="10.00">DataStructures/Frame.h</text>
</a>
</g>
</g>
<!-- Node1&#45;&gt;Node16 -->
<g id="edge18" class="edge"><title>Node1&#45;&gt;Node16</title>
<path fill="none" stroke="midnightblue" d="M559.196,-540.781C571.816,-531.433 588.293,-519.227 601.061,-509.77"/>
<polygon fill="midnightblue" stroke="midnightblue" points="603.262,-512.495 609.214,-503.731 599.095,-506.87 603.262,-512.495"/>
</g>
<!-- Node3 -->
<g id="node3" class="node"><title>Node3</title>
<g id="a_node3"><a xlink:href="../../d2/d13/SophusUtil_8h.html" target="_top" xlink:title="util/SophusUtil.h">
<polygon fill="white" stroke="black" points="388.5,-286.5 388.5,-305.5 477.5,-305.5 477.5,-286.5 388.5,-286.5"/>
<text text-anchor="middle" x="433" y="-293.5" font-family="Helvetica,sans-Serif" font-size="10.00">util/SophusUtil.h</text>
</a>
</g>
</g>
<!-- Node2&#45;&gt;Node3 -->
<g id="edge2" class="edge"><title>Node2&#45;&gt;Node3</title>
<path fill="none" stroke="midnightblue" d="M346.016,-416.767C350.195,-399.373 358.981,-369.594 374,-348 383.954,-333.689 398.819,-320.873 411.137,-311.668"/>
<polygon fill="midnightblue" stroke="midnightblue" points="413.464,-314.306 419.55,-305.634 409.385,-308.618 413.464,-314.306"/>
</g>
<!-- Node12 -->
<g id="node12" class="node"><title>Node12</title>
<g id="a_node12"><a xlink:href="../../d0/dca/g2oTypeSim3Sophus_8h.html" target="_top" xlink:title="GlobalMapping/g2oTypeSim3\lSophus.h">
<polygon fill="white" stroke="black" points="183,-349 183,-379 327,-379 327,-349 183,-349"/>
<text text-anchor="start" x="191" y="-367" font-family="Helvetica,sans-Serif" font-size="10.00">GlobalMapping/g2oTypeSim3</text>
<text text-anchor="middle" x="255" y="-356" font-family="Helvetica,sans-Serif" font-size="10.00">Sophus.h</text>
</a>
</g>
</g>
<!-- Node2&#45;&gt;Node12 -->
<g id="edge13" class="edge"><title>Node2&#45;&gt;Node12</title>
<path fill="none" stroke="midnightblue" d="M323.905,-416.679C311.598,-407.449 295.414,-395.311 281.824,-385.118"/>
<polygon fill="midnightblue" stroke="midnightblue" points="283.855,-382.266 273.755,-379.066 279.655,-387.866 283.855,-382.266"/>
</g>
<!-- Node4 -->
<g id="node4" class="node"><title>Node4</title>
<g id="a_node4"><a xlink:href="../../dc/d5c/sim3_8hpp.html" target="_top" xlink:title="sophus/sim3.hpp">
<polygon fill="white" stroke="black" points="350.5,-224.5 350.5,-243.5 441.5,-243.5 441.5,-224.5 350.5,-224.5"/>
<text text-anchor="middle" x="396" y="-231.5" font-family="Helvetica,sans-Serif" font-size="10.00">sophus/sim3.hpp</text>
</a>
</g>
</g>
<!-- Node3&#45;&gt;Node4 -->
<g id="edge3" class="edge"><title>Node3&#45;&gt;Node4</title>
<path fill="none" stroke="midnightblue" d="M427.699,-286.403C422.204,-277.493 413.467,-263.325 406.556,-252.118"/>
<polygon fill="midnightblue" stroke="midnightblue" points="409.519,-250.255 401.291,-243.581 403.561,-253.929 409.519,-250.255"/>
</g>
<!-- Node11 -->
<g id="node11" class="node"><title>Node11</title>
<g id="a_node11"><a xlink:href="../../d4/d4b/se3_8hpp.html" target="_top" xlink:title="sophus/se3.hpp">
<polygon fill="white" stroke="black" points="440,-168.5 440,-187.5 526,-187.5 526,-168.5 440,-168.5"/>
<text text-anchor="middle" x="483" y="-175.5" font-family="Helvetica,sans-Serif" font-size="10.00">sophus/se3.hpp</text>
</a>
</g>
</g>
<!-- Node3&#45;&gt;Node11 -->
<g id="edge11" class="edge"><title>Node3&#45;&gt;Node11</title>
<path fill="none" stroke="midnightblue" d="M436.758,-286.281C444.906,-267.379 464.338,-222.295 475.241,-197"/>
<polygon fill="midnightblue" stroke="midnightblue" points="478.59,-198.073 479.334,-187.505 472.162,-195.303 478.59,-198.073"/>
</g>
<!-- Node5 -->
<g id="node5" class="node"><title>Node5</title>
<g id="a_node5"><a xlink:href="../../d7/d6a/rxso3_8hpp.html" target="_top" xlink:title="rxso3.hpp">
<polygon fill="white" stroke="black" points="362.5,-168.5 362.5,-187.5 421.5,-187.5 421.5,-168.5 362.5,-168.5"/>
<text text-anchor="middle" x="392" y="-175.5" font-family="Helvetica,sans-Serif" font-size="10.00">rxso3.hpp</text>
</a>
</g>
</g>
<!-- Node4&#45;&gt;Node5 -->
<g id="edge4" class="edge"><title>Node4&#45;&gt;Node5</title>
<path fill="none" stroke="midnightblue" d="M395.339,-224.083C394.815,-217.006 394.064,-206.861 393.406,-197.986"/>
<polygon fill="midnightblue" stroke="midnightblue" points="396.877,-197.465 392.648,-187.751 389.897,-197.982 396.877,-197.465"/>
</g>
<!-- Node6 -->
<g id="node6" class="node"><title>Node6</title>
<g id="a_node6"><a xlink:href="../../d7/dc1/sophus_8hpp.html" target="_top" xlink:title="sophus.hpp">
<polygon fill="white" stroke="black" points="385.5,-56.5 385.5,-75.5 452.5,-75.5 452.5,-56.5 385.5,-56.5"/>
<text text-anchor="middle" x="419" y="-63.5" font-family="Helvetica,sans-Serif" font-size="10.00">sophus.hpp</text>
</a>
</g>
</g>
<!-- Node5&#45;&gt;Node6 -->
<g id="edge5" class="edge"><title>Node5&#45;&gt;Node6</title>
<path fill="none" stroke="midnightblue" d="M394.119,-168.368C398.476,-150.617 408.527,-109.666 414.435,-85.5974"/>
<polygon fill="midnightblue" stroke="midnightblue" points="417.906,-86.1375 416.891,-75.5914 411.108,-84.4688 417.906,-86.1375"/>
</g>
<!-- Node10 -->
<g id="node10" class="node"><title>Node10</title>
<g id="a_node10"><a xlink:href="../../de/de9/so3_8hpp.html" target="_top" xlink:title="so3.hpp">
<polygon fill="white" stroke="black" points="420.5,-112.5 420.5,-131.5 471.5,-131.5 471.5,-112.5 420.5,-112.5"/>
<text text-anchor="middle" x="446" y="-119.5" font-family="Helvetica,sans-Serif" font-size="10.00">so3.hpp</text>
</a>
</g>
</g>
<!-- Node5&#45;&gt;Node10 -->
<g id="edge9" class="edge"><title>Node5&#45;&gt;Node10</title>
<path fill="none" stroke="midnightblue" d="M400.917,-168.083C408.78,-160.22 420.431,-148.569 429.919,-139.081"/>
<polygon fill="midnightblue" stroke="midnightblue" points="432.653,-141.297 437.249,-131.751 427.703,-136.347 432.653,-141.297"/>
</g>
<!-- Node7 -->
<g id="node7" class="node"><title>Node7</title>
<polygon fill="white" stroke="#bfbfbf" points="307.5,-0.5 307.5,-19.5 366.5,-19.5 366.5,-0.5 307.5,-0.5"/>
<text text-anchor="middle" x="337" y="-7.5" font-family="Helvetica,sans-Serif" font-size="10.00">stdexcept</text>
</g>
<!-- Node6&#45;&gt;Node7 -->
<g id="edge6" class="edge"><title>Node6&#45;&gt;Node7</title>
<path fill="none" stroke="midnightblue" d="M405.825,-56.324C393.153,-47.979 373.767,-35.2122 358.794,-25.3524"/>
<polygon fill="midnightblue" stroke="midnightblue" points="360.419,-22.2313 350.142,-19.6545 356.569,-28.0776 360.419,-22.2313"/>
</g>
<!-- Node8 -->
<g id="node8" class="node"><title>Node8</title>
<polygon fill="white" stroke="#bfbfbf" points="384.5,-0.5 384.5,-19.5 453.5,-19.5 453.5,-0.5 384.5,-0.5"/>
<text text-anchor="middle" x="419" y="-7.5" font-family="Helvetica,sans-Serif" font-size="10.00">Eigen/Eigen</text>
</g>
<!-- Node6&#45;&gt;Node8 -->
<g id="edge7" class="edge"><title>Node6&#45;&gt;Node8</title>
<path fill="none" stroke="midnightblue" d="M419,-56.083C419,-49.0059 419,-38.8611 419,-29.9865"/>
<polygon fill="midnightblue" stroke="midnightblue" points="422.5,-29.751 419,-19.7511 415.5,-29.7511 422.5,-29.751"/>
</g>
<!-- Node9 -->
<g id="node9" class="node"><title>Node9</title>
<polygon fill="white" stroke="#bfbfbf" points="471.5,-0.5 471.5,-19.5 558.5,-19.5 558.5,-0.5 471.5,-0.5"/>
<text text-anchor="middle" x="515" y="-7.5" font-family="Helvetica,sans-Serif" font-size="10.00">Eigen/Geometry</text>
</g>
<!-- Node6&#45;&gt;Node9 -->
<g id="edge8" class="edge"><title>Node6&#45;&gt;Node9</title>
<path fill="none" stroke="midnightblue" d="M434.424,-56.324C449.54,-47.8215 472.815,-34.7288 490.471,-24.7975"/>
<polygon fill="midnightblue" stroke="midnightblue" points="492.614,-27.6077 499.614,-19.6545 489.183,-21.5066 492.614,-27.6077"/>
</g>
<!-- Node10&#45;&gt;Node6 -->
<g id="edge10" class="edge"><title>Node10&#45;&gt;Node6</title>
<path fill="none" stroke="midnightblue" d="M441.541,-112.083C437.846,-104.691 432.477,-93.9533 427.906,-84.8111"/>
<polygon fill="midnightblue" stroke="midnightblue" points="430.978,-83.1301 423.376,-75.7511 424.717,-86.2606 430.978,-83.1301"/>
</g>
<!-- Node11&#45;&gt;Node10 -->
<g id="edge12" class="edge"><title>Node11&#45;&gt;Node10</title>
<path fill="none" stroke="midnightblue" d="M476.89,-168.083C471.718,-160.534 464.154,-149.495 457.806,-140.23"/>
<polygon fill="midnightblue" stroke="midnightblue" points="460.536,-138.022 451.996,-131.751 454.761,-141.979 460.536,-138.022"/>
</g>
<!-- Node12&#45;&gt;Node3 -->
<g id="edge14" class="edge"><title>Node12&#45;&gt;Node3</title>
<path fill="none" stroke="midnightblue" d="M293.185,-348.841C325.032,-337.033 369.934,-320.384 400.184,-309.168"/>
<polygon fill="midnightblue" stroke="midnightblue" points="401.682,-312.345 409.842,-305.587 399.249,-305.782 401.682,-312.345"/>
</g>
<!-- Node13 -->
<g id="node13" class="node"><title>Node13</title>
<polygon fill="white" stroke="#bfbfbf" points="-0.5,-286.5 -0.5,-305.5 118.5,-305.5 118.5,-286.5 -0.5,-286.5"/>
<text text-anchor="middle" x="59" y="-293.5" font-family="Helvetica,sans-Serif" font-size="10.00">g2o/core/base_vertex.h</text>
</g>
<!-- Node12&#45;&gt;Node13 -->
<g id="edge15" class="edge"><title>Node12&#45;&gt;Node13</title>
<path fill="none" stroke="midnightblue" d="M212.953,-348.841C177.581,-336.93 127.583,-320.094 94.2688,-308.876"/>
<polygon fill="midnightblue" stroke="midnightblue" points="95.0944,-305.461 84.5003,-305.587 92.8604,-312.095 95.0944,-305.461"/>
</g>
<!-- Node14 -->
<g id="node14" class="node"><title>Node14</title>
<polygon fill="white" stroke="#bfbfbf" points="137,-281 137,-311 247,-311 247,-281 137,-281"/>
<text text-anchor="start" x="145" y="-299" font-family="Helvetica,sans-Serif" font-size="10.00">g2o/core/base_binary</text>
<text text-anchor="middle" x="192" y="-288" font-family="Helvetica,sans-Serif" font-size="10.00">_edge.h</text>
</g>
<!-- Node12&#45;&gt;Node14 -->
<g id="edge16" class="edge"><title>Node12&#45;&gt;Node14</title>
<path fill="none" stroke="midnightblue" d="M241.33,-348.679C232.992,-339.944 222.168,-328.605 212.785,-318.775"/>
<polygon fill="midnightblue" stroke="midnightblue" points="215.08,-316.11 205.643,-311.293 210.016,-320.943 215.08,-316.11"/>
</g>
<!-- Node15 -->
<g id="node15" class="node"><title>Node15</title>
<polygon fill="white" stroke="#bfbfbf" points="265.5,-281 265.5,-311 370.5,-311 370.5,-281 265.5,-281"/>
<text text-anchor="start" x="273.5" y="-299" font-family="Helvetica,sans-Serif" font-size="10.00">g2o/types/sba/types</text>
<text text-anchor="middle" x="318" y="-288" font-family="Helvetica,sans-Serif" font-size="10.00">_six_dof_expmap.h</text>
</g>
<!-- Node12&#45;&gt;Node15 -->
<g id="edge17" class="edge"><title>Node12&#45;&gt;Node15</title>
<path fill="none" stroke="midnightblue" d="M268.67,-348.679C277.008,-339.944 287.832,-328.605 297.215,-318.775"/>
<polygon fill="midnightblue" stroke="midnightblue" points="299.984,-320.943 304.357,-311.293 294.92,-316.11 299.984,-320.943"/>
</g>
<!-- Node16&#45;&gt;Node2 -->
<g id="edge25" class="edge"><title>Node16&#45;&gt;Node2</title>
<path fill="none" stroke="midnightblue" d="M581.465,-484.467C539.075,-475.318 470.77,-460.576 418.105,-449.21"/>
<polygon fill="midnightblue" stroke="midnightblue" points="418.642,-445.745 408.129,-447.057 417.165,-452.588 418.642,-445.745"/>
</g>
<!-- Node16&#45;&gt;Node3 -->
<g id="edge19" class="edge"><title>Node16&#45;&gt;Node3</title>
<path fill="none" stroke="midnightblue" d="M682.24,-493.95C839.795,-494.519 1238.3,-483.047 1113,-348 1070.82,-302.533 642.03,-297.329 487.849,-296.937"/>
<polygon fill="midnightblue" stroke="midnightblue" points="487.671,-293.437 477.664,-296.917 487.658,-300.437 487.671,-293.437"/>
</g>
<!-- Node17 -->
<g id="node17" class="node"><title>Node17</title>
<g id="a_node17"><a xlink:href="../../de/d60/settings_8h.html" target="_top" xlink:title="util/settings.h">
<polygon fill="white" stroke="black" points="429.5,-422.5 429.5,-441.5 504.5,-441.5 504.5,-422.5 429.5,-422.5"/>
<text text-anchor="middle" x="467" y="-429.5" font-family="Helvetica,sans-Serif" font-size="10.00">util/settings.h</text>
</a>
</g>
</g>
<!-- Node16&#45;&gt;Node17 -->
<g id="edge20" class="edge"><title>Node16&#45;&gt;Node17</title>
<path fill="none" stroke="midnightblue" d="M598.936,-484.403C572.633,-474.156 528.487,-456.956 498.575,-445.302"/>
<polygon fill="midnightblue" stroke="midnightblue" points="499.612,-441.95 489.024,-441.581 497.071,-448.472 499.612,-441.95"/>
</g>
<!-- Node20 -->
<g id="node20" class="node"><title>Node20</title>
<polygon fill="white" stroke="#bfbfbf" points="522.5,-417 522.5,-447 635.5,-447 635.5,-417 522.5,-417"/>
<text text-anchor="start" x="530.5" y="-435" font-family="Helvetica,sans-Serif" font-size="10.00">boost/thread/recursive</text>
<text text-anchor="middle" x="579" y="-424" font-family="Helvetica,sans-Serif" font-size="10.00">_mutex.hpp</text>
</g>
<!-- Node16&#45;&gt;Node20 -->
<g id="edge23" class="edge"><title>Node16&#45;&gt;Node20</title>
<path fill="none" stroke="midnightblue" d="M614.982,-484.403C609.719,-476.885 601.837,-465.624 594.79,-455.556"/>
<polygon fill="midnightblue" stroke="midnightblue" points="597.501,-453.326 588.899,-447.141 591.766,-457.34 597.501,-453.326"/>
</g>
<!-- Node21 -->
<g id="node21" class="node"><title>Node21</title>
<polygon fill="white" stroke="#bfbfbf" points="509.5,-349 509.5,-379 612.5,-379 612.5,-349 509.5,-349"/>
<text text-anchor="start" x="517.5" y="-367" font-family="Helvetica,sans-Serif" font-size="10.00">boost/thread/shared</text>
<text text-anchor="middle" x="561" y="-356" font-family="Helvetica,sans-Serif" font-size="10.00">_mutex.hpp</text>
</g>
<!-- Node16&#45;&gt;Node21 -->
<g id="edge24" class="edge"><title>Node16&#45;&gt;Node21</title>
<path fill="none" stroke="midnightblue" d="M627.716,-484.433C638.397,-469.688 656.802,-438.893 644,-416 636.28,-402.196 623.125,-391.672 609.535,-383.873"/>
<polygon fill="midnightblue" stroke="midnightblue" points="611.07,-380.725 600.595,-379.134 607.792,-386.91 611.07,-380.725"/>
</g>
<!-- Node22 -->
<g id="node22" class="node"><title>Node22</title>
<g id="a_node22"><a xlink:href="../../dd/d8b/FrameMemory_8h.html" target="_top" xlink:title="DataStructures/FrameMemory.h">
<polygon fill="white" stroke="black" points="692.5,-422.5 692.5,-441.5 849.5,-441.5 849.5,-422.5 692.5,-422.5"/>
<text text-anchor="middle" x="771" y="-429.5" font-family="Helvetica,sans-Serif" font-size="10.00">DataStructures/FrameMemory.h</text>
</a>
</g>
</g>
<!-- Node16&#45;&gt;Node22 -->
<g id="edge26" class="edge"><title>Node16&#45;&gt;Node22</title>
<path fill="none" stroke="midnightblue" d="M642.491,-484.403C668.11,-474.156 711.11,-456.956 740.245,-445.302"/>
<polygon fill="midnightblue" stroke="midnightblue" points="741.564,-448.544 749.549,-441.581 738.964,-442.045 741.564,-448.544"/>
</g>
<!-- Node29 -->
<g id="node29" class="node"><title>Node29</title>
<polygon fill="white" stroke="#bfbfbf" points="868,-422.5 868,-441.5 946,-441.5 946,-422.5 868,-422.5"/>
<text text-anchor="middle" x="907" y="-429.5" font-family="Helvetica,sans-Serif" font-size="10.00">unordered_set</text>
</g>
<!-- Node16&#45;&gt;Node29 -->
<g id="edge34" class="edge"><title>Node16&#45;&gt;Node29</title>
<path fill="none" stroke="midnightblue" d="M675.015,-484.476C723.289,-476.448 795.795,-463.378 858,-448 862.344,-446.926 866.872,-445.695 871.345,-444.41"/>
<polygon fill="midnightblue" stroke="midnightblue" points="872.368,-447.758 880.955,-441.552 870.372,-441.048 872.368,-447.758"/>
</g>
<!-- Node18 -->
<g id="node18" class="node"><title>Node18</title>
<polygon fill="white" stroke="#bfbfbf" points="442.5,-354.5 442.5,-373.5 491.5,-373.5 491.5,-354.5 442.5,-354.5"/>
<text text-anchor="middle" x="467" y="-361.5" font-family="Helvetica,sans-Serif" font-size="10.00">string.h</text>
</g>
<!-- Node17&#45;&gt;Node18 -->
<g id="edge21" class="edge"><title>Node17&#45;&gt;Node18</title>
<path fill="none" stroke="midnightblue" d="M467,-422.372C467,-412.643 467,-396.528 467,-383.85"/>
<polygon fill="midnightblue" stroke="midnightblue" points="470.5,-383.841 467,-373.841 463.5,-383.841 470.5,-383.841"/>
</g>
<!-- Node19 -->
<g id="node19" class="node"><title>Node19</title>
<polygon fill="white" stroke="#bfbfbf" points="383.5,-354.5 383.5,-373.5 424.5,-373.5 424.5,-354.5 383.5,-354.5"/>
<text text-anchor="middle" x="404" y="-361.5" font-family="Helvetica,sans-Serif" font-size="10.00">string</text>
</g>
<!-- Node17&#45;&gt;Node19 -->
<g id="edge22" class="edge"><title>Node17&#45;&gt;Node19</title>
<path fill="none" stroke="midnightblue" d="M458.764,-422.372C448.82,-411.955 431.889,-394.217 419.479,-381.216"/>
<polygon fill="midnightblue" stroke="midnightblue" points="421.876,-378.658 412.439,-373.841 416.812,-383.491 421.876,-378.658"/>
</g>
<!-- Node22&#45;&gt;Node21 -->
<g id="edge32" class="edge"><title>Node22&#45;&gt;Node21</title>
<path fill="none" stroke="midnightblue" d="M743.546,-422.372C711.124,-412.182 656.415,-394.988 615.326,-382.074"/>
<polygon fill="midnightblue" stroke="midnightblue" points="616.314,-378.716 605.724,-379.056 614.215,-385.394 616.314,-378.716"/>
</g>
<!-- Node23 -->
<g id="node23" class="node"><title>Node23</title>
<polygon fill="white" stroke="#bfbfbf" points="713.5,-354.5 713.5,-373.5 796.5,-373.5 796.5,-354.5 713.5,-354.5"/>
<text text-anchor="middle" x="755" y="-361.5" font-family="Helvetica,sans-Serif" font-size="10.00">unordered_map</text>
</g>
<!-- Node22&#45;&gt;Node23 -->
<g id="edge27" class="edge"><title>Node22&#45;&gt;Node23</title>
<path fill="none" stroke="midnightblue" d="M768.908,-422.372C766.55,-412.643 762.643,-396.528 759.57,-383.85"/>
<polygon fill="midnightblue" stroke="midnightblue" points="762.901,-382.735 757.143,-373.841 756.098,-384.384 762.901,-382.735"/>
</g>
<!-- Node24 -->
<g id="node24" class="node"><title>Node24</title>
<polygon fill="white" stroke="#bfbfbf" points="815,-354.5 815,-373.5 859,-373.5 859,-354.5 815,-354.5"/>
<text text-anchor="middle" x="837" y="-361.5" font-family="Helvetica,sans-Serif" font-size="10.00">vector</text>
</g>
<!-- Node22&#45;&gt;Node24 -->
<g id="edge28" class="edge"><title>Node22&#45;&gt;Node24</title>
<path fill="none" stroke="midnightblue" d="M779.628,-422.372C790.045,-411.955 807.783,-394.217 820.784,-381.216"/>
<polygon fill="midnightblue" stroke="midnightblue" points="823.563,-383.387 828.159,-373.841 818.613,-378.437 823.563,-383.387"/>
</g>
<!-- Node25 -->
<g id="node25" class="node"><title>Node25</title>
<polygon fill="white" stroke="#bfbfbf" points="877.5,-354.5 877.5,-373.5 996.5,-373.5 996.5,-354.5 877.5,-354.5"/>
<text text-anchor="middle" x="937" y="-361.5" font-family="Helvetica,sans-Serif" font-size="10.00">boost/thread/mutex.hpp</text>
</g>
<!-- Node22&#45;&gt;Node25 -->
<g id="edge29" class="edge"><title>Node22&#45;&gt;Node25</title>
<path fill="none" stroke="midnightblue" d="M792.702,-422.372C821.612,-410.877 872.942,-390.469 905.947,-377.346"/>
<polygon fill="midnightblue" stroke="midnightblue" points="907.557,-380.473 915.556,-373.526 904.971,-373.968 907.557,-380.473"/>
</g>
<!-- Node26 -->
<g id="node26" class="node"><title>Node26</title>
<polygon fill="white" stroke="#bfbfbf" points="1014.5,-354.5 1014.5,-373.5 1057.5,-373.5 1057.5,-354.5 1014.5,-354.5"/>
<text text-anchor="middle" x="1036" y="-361.5" font-family="Helvetica,sans-Serif" font-size="10.00">deque</text>
</g>
<!-- Node22&#45;&gt;Node26 -->
<g id="edge30" class="edge"><title>Node22&#45;&gt;Node26</title>
<path fill="none" stroke="midnightblue" d="M816.127,-422.482C873.891,-411.35 970.613,-391.88 1005,-380 1006.91,-379.341 1008.85,-378.595 1010.79,-377.797"/>
<polygon fill="midnightblue" stroke="midnightblue" points="1012.55,-380.84 1020.22,-373.525 1009.66,-374.464 1012.55,-380.84"/>
</g>
<!-- Node27 -->
<g id="node27" class="node"><title>Node27</title>
<polygon fill="white" stroke="#bfbfbf" points="1075.5,-354.5 1075.5,-373.5 1104.5,-373.5 1104.5,-354.5 1075.5,-354.5"/>
<text text-anchor="middle" x="1090" y="-361.5" font-family="Helvetica,sans-Serif" font-size="10.00">list</text>
</g>
<!-- Node22&#45;&gt;Node27 -->
<g id="edge31" class="edge"><title>Node22&#45;&gt;Node27</title>
<path fill="none" stroke="midnightblue" d="M821.116,-422.461C904.549,-408.227 1063.14,-381.093 1066,-380 1067.06,-379.597 1068.12,-379.145 1069.17,-378.656"/>
<polygon fill="midnightblue" stroke="midnightblue" points="1071.23,-381.514 1078.27,-373.595 1067.83,-375.397 1071.23,-381.514"/>
</g>
<!-- Node28 -->
<g id="node28" class="node"><title>Node28</title>
<polygon fill="white" stroke="#bfbfbf" points="630.5,-354.5 630.5,-373.5 695.5,-373.5 695.5,-354.5 630.5,-354.5"/>
<text text-anchor="middle" x="663" y="-361.5" font-family="Helvetica,sans-Serif" font-size="10.00">Eigen/Core</text>
</g>
<!-- Node22&#45;&gt;Node28 -->
<g id="edge33" class="edge"><title>Node22&#45;&gt;Node28</title>
<path fill="none" stroke="midnightblue" d="M756.881,-422.372C738.851,-411.353 707.419,-392.145 685.932,-379.014"/>
<polygon fill="midnightblue" stroke="midnightblue" points="687.481,-375.859 677.123,-373.63 683.83,-381.832 687.481,-375.859"/>
</g>
</g>
</svg>
