<?xml version="1.0" encoding="UTF-8" standalone="no"?>
<!DOCTYPE svg PUBLIC "-//W3C//DTD SVG 1.1//EN"
 "http://www.w3.org/Graphics/SVG/1.1/DTD/svg11.dtd">
<!-- Generated by graphviz version 2.36.0 (20140111.2315)
 -->
<!-- Title: GLTestWnd Pages: 1 -->
<svg width="636pt" height="2132pt"
 viewBox="0.00 0.00 636.00 2132.00" xmlns="http://www.w3.org/2000/svg" xmlns:xlink="http://www.w3.org/1999/xlink">
<g id="graph0" class="graph" transform="scale(1 1) rotate(0) translate(4 2128)">
<title>GLTestWnd</title>
<polygon fill="white" stroke="none" points="-4,4 -4,-2128 632,-2128 632,4 -4,4"/>
<!-- Node1 -->
<g id="node1" class="node"><title>Node1</title>
<polygon fill="#bfbfbf" stroke="black" points="166,-1 166,-157 286,-157 286,-1 166,-1"/>
<text text-anchor="middle" x="226" y="-145" font-family="Helvetica,sans-Serif" font-size="10.00">GLTestWnd</text>
<polyline fill="none" stroke="black" points="166,-138 286,-138 "/>
<text text-anchor="middle" x="226" y="-126" font-family="Helvetica,sans-Serif" font-size="10.00"> </text>
<polyline fill="none" stroke="black" points="166,-119 286,-119 "/>
<text text-anchor="start" x="174" y="-107" font-family="Helvetica,sans-Serif" font-size="10.00">+ UpdateDisplay()</text>
<text text-anchor="start" x="174" y="-96" font-family="Helvetica,sans-Serif" font-size="10.00">+ SetWindowTitle()</text>
<text text-anchor="start" x="174" y="-85" font-family="Helvetica,sans-Serif" font-size="10.00">+ SetDisplaySize()</text>
<text text-anchor="start" x="174" y="-74" font-family="Helvetica,sans-Serif" font-size="10.00">+ ParseCommandLine()</text>
<text text-anchor="start" x="174" y="-63" font-family="Helvetica,sans-Serif" font-size="10.00">+ glPaint()</text>
<text text-anchor="start" x="174" y="-52" font-family="Helvetica,sans-Serif" font-size="10.00">+ glResize()</text>
<text text-anchor="start" x="174" y="-41" font-family="Helvetica,sans-Serif" font-size="10.00">+ glCreateRC()</text>
<text text-anchor="start" x="174" y="-30" font-family="Helvetica,sans-Serif" font-size="10.00">+ GLTestWnd()</text>
<text text-anchor="start" x="174" y="-19" font-family="Helvetica,sans-Serif" font-size="10.00">+ GLTestWnd()</text>
<text text-anchor="start" x="174" y="-8" font-family="Helvetica,sans-Serif" font-size="10.00">+ ~GLTestWnd()</text>
</g>
<!-- Node2 -->
<g id="node2" class="node"><title>Node2</title>
<g id="a_node2"><a xlink:href="../../d4/da2/classBasicTestWin.html" target="_top" xlink:title="{BasicTestWin\n|# _displayScale\l# _imgWidth\l# _imgHeight\l# _win_x\l# _win_y\l# _current\l|+ SetVerbose()\l+ FitWindow()\l+ OnIdle()\l+ EndMotion()\l+ StartMotion()\l+ SetView()\l+ ReShape()\l+ MoveMouse()\l+ KeyInput()\l+ Display()\l+ UpdateDisplay()\l+ BasicTestWin()\l+ ~BasicTestWin()\l+ ParseSiftParam()\l+ RunSiftGPU()\l+ myclock()\l# SetWindowTitle()\l# SetDisplaySize()\l}">
<polygon fill="white" stroke="black" points="175.5,-196.5 175.5,-495.5 276.5,-495.5 276.5,-196.5 175.5,-196.5"/>
<text text-anchor="middle" x="226" y="-483.5" font-family="Helvetica,sans-Serif" font-size="10.00">BasicTestWin</text>
<polyline fill="none" stroke="black" points="175.5,-476.5 276.5,-476.5 "/>
<text text-anchor="start" x="183.5" y="-464.5" font-family="Helvetica,sans-Serif" font-size="10.00"># _displayScale</text>
<text text-anchor="start" x="183.5" y="-453.5" font-family="Helvetica,sans-Serif" font-size="10.00"># _imgWidth</text>
<text text-anchor="start" x="183.5" y="-442.5" font-family="Helvetica,sans-Serif" font-size="10.00"># _imgHeight</text>
<text text-anchor="start" x="183.5" y="-431.5" font-family="Helvetica,sans-Serif" font-size="10.00"># _win_x</text>
<text text-anchor="start" x="183.5" y="-420.5" font-family="Helvetica,sans-Serif" font-size="10.00"># _win_y</text>
<text text-anchor="start" x="183.5" y="-409.5" font-family="Helvetica,sans-Serif" font-size="10.00"># _current</text>
<polyline fill="none" stroke="black" points="175.5,-402.5 276.5,-402.5 "/>
<text text-anchor="start" x="183.5" y="-390.5" font-family="Helvetica,sans-Serif" font-size="10.00">+ SetVerbose()</text>
<text text-anchor="start" x="183.5" y="-379.5" font-family="Helvetica,sans-Serif" font-size="10.00">+ FitWindow()</text>
<text text-anchor="start" x="183.5" y="-368.5" font-family="Helvetica,sans-Serif" font-size="10.00">+ OnIdle()</text>
<text text-anchor="start" x="183.5" y="-357.5" font-family="Helvetica,sans-Serif" font-size="10.00">+ EndMotion()</text>
<text text-anchor="start" x="183.5" y="-346.5" font-family="Helvetica,sans-Serif" font-size="10.00">+ StartMotion()</text>
<text text-anchor="start" x="183.5" y="-335.5" font-family="Helvetica,sans-Serif" font-size="10.00">+ SetView()</text>
<text text-anchor="start" x="183.5" y="-324.5" font-family="Helvetica,sans-Serif" font-size="10.00">+ ReShape()</text>
<text text-anchor="start" x="183.5" y="-313.5" font-family="Helvetica,sans-Serif" font-size="10.00">+ MoveMouse()</text>
<text text-anchor="start" x="183.5" y="-302.5" font-family="Helvetica,sans-Serif" font-size="10.00">+ KeyInput()</text>
<text text-anchor="start" x="183.5" y="-291.5" font-family="Helvetica,sans-Serif" font-size="10.00">+ Display()</text>
<text text-anchor="start" x="183.5" y="-280.5" font-family="Helvetica,sans-Serif" font-size="10.00">+ UpdateDisplay()</text>
<text text-anchor="start" x="183.5" y="-269.5" font-family="Helvetica,sans-Serif" font-size="10.00">+ BasicTestWin()</text>
<text text-anchor="start" x="183.5" y="-258.5" font-family="Helvetica,sans-Serif" font-size="10.00">+ ~BasicTestWin()</text>
<text text-anchor="start" x="183.5" y="-247.5" font-family="Helvetica,sans-Serif" font-size="10.00">+ ParseSiftParam()</text>
<text text-anchor="start" x="183.5" y="-236.5" font-family="Helvetica,sans-Serif" font-size="10.00">+ RunSiftGPU()</text>
<text text-anchor="start" x="183.5" y="-225.5" font-family="Helvetica,sans-Serif" font-size="10.00">+ myclock()</text>
<text text-anchor="start" x="183.5" y="-214.5" font-family="Helvetica,sans-Serif" font-size="10.00"># SetWindowTitle()</text>
<text text-anchor="start" x="183.5" y="-203.5" font-family="Helvetica,sans-Serif" font-size="10.00"># SetDisplaySize()</text>
</a>
</g>
</g>
<!-- Node2&#45;&gt;Node1 -->
<g id="edge1" class="edge"><title>Node2&#45;&gt;Node1</title>
<path fill="none" stroke="midnightblue" d="M226,-186.197C226,-176.221 226,-166.453 226,-157.13"/>
<polygon fill="none" stroke="midnightblue" points="222.5,-186.233 226,-196.233 229.5,-186.233 222.5,-186.233"/>
</g>
<!-- Node3 -->
<g id="node3" class="node"><title>Node3</title>
<g id="a_node3"><a xlink:href="../../d9/d69/classSiftGPUEX.html" target="_top" xlink:title="{SiftGPUEX\n||+ SiftGPUEX()\l+ SetView()\l+ DisplaySIFT()\l+ ToggleDisplayDebug()\l+ RandomizeColor()\l+ GetImageDimension()\l+ GetInitWindowPotition()\l}">
<polygon fill="white" stroke="black" points="161.5,-544.5 161.5,-667.5 290.5,-667.5 290.5,-544.5 161.5,-544.5"/>
<text text-anchor="middle" x="226" y="-655.5" font-family="Helvetica,sans-Serif" font-size="10.00">SiftGPUEX</text>
<polyline fill="none" stroke="black" points="161.5,-648.5 290.5,-648.5 "/>
<text text-anchor="middle" x="226" y="-636.5" font-family="Helvetica,sans-Serif" font-size="10.00"> </text>
<polyline fill="none" stroke="black" points="161.5,-629.5 290.5,-629.5 "/>
<text text-anchor="start" x="169.5" y="-617.5" font-family="Helvetica,sans-Serif" font-size="10.00">+ SiftGPUEX()</text>
<text text-anchor="start" x="169.5" y="-606.5" font-family="Helvetica,sans-Serif" font-size="10.00">+ SetView()</text>
<text text-anchor="start" x="169.5" y="-595.5" font-family="Helvetica,sans-Serif" font-size="10.00">+ DisplaySIFT()</text>
<text text-anchor="start" x="169.5" y="-584.5" font-family="Helvetica,sans-Serif" font-size="10.00">+ ToggleDisplayDebug()</text>
<text text-anchor="start" x="169.5" y="-573.5" font-family="Helvetica,sans-Serif" font-size="10.00">+ RandomizeColor()</text>
<text text-anchor="start" x="169.5" y="-562.5" font-family="Helvetica,sans-Serif" font-size="10.00">+ GetImageDimension()</text>
<text text-anchor="start" x="169.5" y="-551.5" font-family="Helvetica,sans-Serif" font-size="10.00">+ GetInitWindowPotition()</text>
</a>
</g>
</g>
<!-- Node3&#45;&gt;Node2 -->
<g id="edge2" class="edge"><title>Node3&#45;&gt;Node2</title>
<path fill="none" stroke="#404040" d="M226,-544.184C226,-532.895 226,-520.627 226,-507.919"/>
<polygon fill="none" stroke="#404040" points="226,-507.617 222,-501.617 226,-495.617 230,-501.617 226,-507.617"/>
<text text-anchor="middle" x="240" y="-517.5" font-family="Helvetica,sans-Serif" font-size="10.00"> #_sift</text>
</g>
<!-- Node4 -->
<g id="node4" class="node"><title>Node4</title>
<g id="a_node4"><a xlink:href="../../d4/dee/classSiftGPU.html" target="_top" xlink:title="{SiftGPU\n|+ _timing\l# _current\l# _initialized\l# _image_loaded\l# _imgpath\l# _outpath\l|+ GetCurrentImagePath()\l+ SetImageList()\l+ GetFeatureNum()\l+ SaveSIFT()\l+ GetFeatureVector()\l+ SetKeypointList()\l+ CreateContextGL()\l+ VerifyContextGL()\l+ IsFullSupported()\l+ SetVerbose()\land 15 more...\l# InitSiftGPU()\l# LoadImageList()\l# PrintUsage()\l}">
<polygon fill="white" stroke="black" points="162.5,-706.5 162.5,-961.5 289.5,-961.5 289.5,-706.5 162.5,-706.5"/>
<text text-anchor="middle" x="226" y="-949.5" font-family="Helvetica,sans-Serif" font-size="10.00">SiftGPU</text>
<polyline fill="none" stroke="black" points="162.5,-942.5 289.5,-942.5 "/>
<text text-anchor="start" x="170.5" y="-930.5" font-family="Helvetica,sans-Serif" font-size="10.00">+ _timing</text>
<text text-anchor="start" x="170.5" y="-919.5" font-family="Helvetica,sans-Serif" font-size="10.00"># _current</text>
<text text-anchor="start" x="170.5" y="-908.5" font-family="Helvetica,sans-Serif" font-size="10.00"># _initialized</text>
<text text-anchor="start" x="170.5" y="-897.5" font-family="Helvetica,sans-Serif" font-size="10.00"># _image_loaded</text>
<text text-anchor="start" x="170.5" y="-886.5" font-family="Helvetica,sans-Serif" font-size="10.00"># _imgpath</text>
<text text-anchor="start" x="170.5" y="-875.5" font-family="Helvetica,sans-Serif" font-size="10.00"># _outpath</text>
<polyline fill="none" stroke="black" points="162.5,-868.5 289.5,-868.5 "/>
<text text-anchor="start" x="170.5" y="-856.5" font-family="Helvetica,sans-Serif" font-size="10.00">+ GetCurrentImagePath()</text>
<text text-anchor="start" x="170.5" y="-845.5" font-family="Helvetica,sans-Serif" font-size="10.00">+ SetImageList()</text>
<text text-anchor="start" x="170.5" y="-834.5" font-family="Helvetica,sans-Serif" font-size="10.00">+ GetFeatureNum()</text>
<text text-anchor="start" x="170.5" y="-823.5" font-family="Helvetica,sans-Serif" font-size="10.00">+ SaveSIFT()</text>
<text text-anchor="start" x="170.5" y="-812.5" font-family="Helvetica,sans-Serif" font-size="10.00">+ GetFeatureVector()</text>
<text text-anchor="start" x="170.5" y="-801.5" font-family="Helvetica,sans-Serif" font-size="10.00">+ SetKeypointList()</text>
<text text-anchor="start" x="170.5" y="-790.5" font-family="Helvetica,sans-Serif" font-size="10.00">+ CreateContextGL()</text>
<text text-anchor="start" x="170.5" y="-779.5" font-family="Helvetica,sans-Serif" font-size="10.00">+ VerifyContextGL()</text>
<text text-anchor="start" x="170.5" y="-768.5" font-family="Helvetica,sans-Serif" font-size="10.00">+ IsFullSupported()</text>
<text text-anchor="start" x="170.5" y="-757.5" font-family="Helvetica,sans-Serif" font-size="10.00">+ SetVerbose()</text>
<text text-anchor="start" x="170.5" y="-746.5" font-family="Helvetica,sans-Serif" font-size="10.00">and 15 more...</text>
<text text-anchor="start" x="170.5" y="-735.5" font-family="Helvetica,sans-Serif" font-size="10.00"># InitSiftGPU()</text>
<text text-anchor="start" x="170.5" y="-724.5" font-family="Helvetica,sans-Serif" font-size="10.00"># LoadImageList()</text>
<text text-anchor="start" x="170.5" y="-713.5" font-family="Helvetica,sans-Serif" font-size="10.00"># PrintUsage()</text>
</a>
</g>
</g>
<!-- Node4&#45;&gt;Node3 -->
<g id="edge3" class="edge"><title>Node4&#45;&gt;Node3</title>
<path fill="none" stroke="midnightblue" d="M226,-696.455C226,-686.527 226,-676.853 226,-667.757"/>
<polygon fill="none" stroke="midnightblue" points="222.5,-696.456 226,-706.456 229.5,-696.456 222.5,-696.456"/>
</g>
<!-- Node5 -->
<g id="node5" class="node"><title>Node5</title>
<g id="a_node5"><a xlink:href="../../dc/d5a/classSiftParam.html" target="_top" xlink:title="{SiftParam\n|+ _sigma\l+ _sigma_skip0\l+ _sigma_skip1\l+ _sigma0\l+ _sigman\l+ _sigma_num\l+ _dog_level_num\l+ _level_num\l+ _level_min\l+ _level_max\l+ _level_ds\l+ _dog_threshold\l+ _edge_threshold\l|+ ParseSiftParam()\l+ GetLevelSigma()\l+ GetInitialSmoothSigma()\l+ SiftParam()\l}">
<polygon fill="white" stroke="black" points="126,-1462 126,-1684 258,-1684 258,-1462 126,-1462"/>
<text text-anchor="middle" x="192" y="-1672" font-family="Helvetica,sans-Serif" font-size="10.00">SiftParam</text>
<polyline fill="none" stroke="black" points="126,-1665 258,-1665 "/>
<text text-anchor="start" x="134" y="-1653" font-family="Helvetica,sans-Serif" font-size="10.00">+ _sigma</text>
<text text-anchor="start" x="134" y="-1642" font-family="Helvetica,sans-Serif" font-size="10.00">+ _sigma_skip0</text>
<text text-anchor="start" x="134" y="-1631" font-family="Helvetica,sans-Serif" font-size="10.00">+ _sigma_skip1</text>
<text text-anchor="start" x="134" y="-1620" font-family="Helvetica,sans-Serif" font-size="10.00">+ _sigma0</text>
<text text-anchor="start" x="134" y="-1609" font-family="Helvetica,sans-Serif" font-size="10.00">+ _sigman</text>
<text text-anchor="start" x="134" y="-1598" font-family="Helvetica,sans-Serif" font-size="10.00">+ _sigma_num</text>
<text text-anchor="start" x="134" y="-1587" font-family="Helvetica,sans-Serif" font-size="10.00">+ _dog_level_num</text>
<text text-anchor="start" x="134" y="-1576" font-family="Helvetica,sans-Serif" font-size="10.00">+ _level_num</text>
<text text-anchor="start" x="134" y="-1565" font-family="Helvetica,sans-Serif" font-size="10.00">+ _level_min</text>
<text text-anchor="start" x="134" y="-1554" font-family="Helvetica,sans-Serif" font-size="10.00">+ _level_max</text>
<text text-anchor="start" x="134" y="-1543" font-family="Helvetica,sans-Serif" font-size="10.00">+ _level_ds</text>
<text text-anchor="start" x="134" y="-1532" font-family="Helvetica,sans-Serif" font-size="10.00">+ _dog_threshold</text>
<text text-anchor="start" x="134" y="-1521" font-family="Helvetica,sans-Serif" font-size="10.00">+ _edge_threshold</text>
<polyline fill="none" stroke="black" points="126,-1514 258,-1514 "/>
<text text-anchor="start" x="134" y="-1502" font-family="Helvetica,sans-Serif" font-size="10.00">+ ParseSiftParam()</text>
<text text-anchor="start" x="134" y="-1491" font-family="Helvetica,sans-Serif" font-size="10.00">+ GetLevelSigma()</text>
<text text-anchor="start" x="134" y="-1480" font-family="Helvetica,sans-Serif" font-size="10.00">+ GetInitialSmoothSigma()</text>
<text text-anchor="start" x="134" y="-1469" font-family="Helvetica,sans-Serif" font-size="10.00">+ SiftParam()</text>
</a>
</g>
</g>
<!-- Node5&#45;&gt;Node4 -->
<g id="edge4" class="edge"><title>Node5&#45;&gt;Node4</title>
<path fill="none" stroke="midnightblue" d="M193.796,-1451.67C195.983,-1337.8 200.616,-1162.16 210,-1010 210.967,-994.318 212.193,-977.863 213.534,-961.581"/>
<polygon fill="none" stroke="midnightblue" points="190.294,-1451.74 193.605,-1461.8 197.293,-1451.87 190.294,-1451.74"/>
</g>
<!-- Node6 -->
<g id="node6" class="node"><title>Node6</title>
<g id="a_node6"><a xlink:href="../../dd/dce/classSiftPyramid.html" target="_top" xlink:title="{SiftPyramid\n|+ _timing\l+ _octave_min\l+ _octave_num\l+ _pyramid_octave_num\l+ _pyramid_octave_first\l+ _pyramid_width\l+ _pyramid_height\l+ _down_sample_factor\l+ _allocated\l+ _alignment\l+ _siftgpu_failed\l# _hpLevelNum\l# _levelFeatureNum\l# _featureNum\l# _histo_buffer\l# _existing_keypoints\l# _featureDisplayVBO\l# _featurePointVBO\l|+ RunSIFT()\l+ SaveSIFT()\l+ CopyFeatureVector()\l+ SetKeypointList()\l+ GetFeatureDescriptors()\l+ GenerateFeatureListTex()\l+ ReshapeFeatureListCPU()\l+ GenerateFeatureDisplayVBO()\l+ DownloadKeypoints()\l+ GenerateFeatureListCPU()\land 23 more...\l+ GetRequiredOctaveNum()\l}">
<polygon fill="white" stroke="black" points="219,-1010.5 219,-1375.5 377,-1375.5 377,-1010.5 219,-1010.5"/>
<text text-anchor="middle" x="298" y="-1363.5" font-family="Helvetica,sans-Serif" font-size="10.00">SiftPyramid</text>
<polyline fill="none" stroke="black" points="219,-1356.5 377,-1356.5 "/>
<text text-anchor="start" x="227" y="-1344.5" font-family="Helvetica,sans-Serif" font-size="10.00">+ _timing</text>
<text text-anchor="start" x="227" y="-1333.5" font-family="Helvetica,sans-Serif" font-size="10.00">+ _octave_min</text>
<text text-anchor="start" x="227" y="-1322.5" font-family="Helvetica,sans-Serif" font-size="10.00">+ _octave_num</text>
<text text-anchor="start" x="227" y="-1311.5" font-family="Helvetica,sans-Serif" font-size="10.00">+ _pyramid_octave_num</text>
<text text-anchor="start" x="227" y="-1300.5" font-family="Helvetica,sans-Serif" font-size="10.00">+ _pyramid_octave_first</text>
<text text-anchor="start" x="227" y="-1289.5" font-family="Helvetica,sans-Serif" font-size="10.00">+ _pyramid_width</text>
<text text-anchor="start" x="227" y="-1278.5" font-family="Helvetica,sans-Serif" font-size="10.00">+ _pyramid_height</text>
<text text-anchor="start" x="227" y="-1267.5" font-family="Helvetica,sans-Serif" font-size="10.00">+ _down_sample_factor</text>
<text text-anchor="start" x="227" y="-1256.5" font-family="Helvetica,sans-Serif" font-size="10.00">+ _allocated</text>
<text text-anchor="start" x="227" y="-1245.5" font-family="Helvetica,sans-Serif" font-size="10.00">+ _alignment</text>
<text text-anchor="start" x="227" y="-1234.5" font-family="Helvetica,sans-Serif" font-size="10.00">+ _siftgpu_failed</text>
<text text-anchor="start" x="227" y="-1223.5" font-family="Helvetica,sans-Serif" font-size="10.00"># _hpLevelNum</text>
<text text-anchor="start" x="227" y="-1212.5" font-family="Helvetica,sans-Serif" font-size="10.00"># _levelFeatureNum</text>
<text text-anchor="start" x="227" y="-1201.5" font-family="Helvetica,sans-Serif" font-size="10.00"># _featureNum</text>
<text text-anchor="start" x="227" y="-1190.5" font-family="Helvetica,sans-Serif" font-size="10.00"># _histo_buffer</text>
<text text-anchor="start" x="227" y="-1179.5" font-family="Helvetica,sans-Serif" font-size="10.00"># _existing_keypoints</text>
<text text-anchor="start" x="227" y="-1168.5" font-family="Helvetica,sans-Serif" font-size="10.00"># _featureDisplayVBO</text>
<text text-anchor="start" x="227" y="-1157.5" font-family="Helvetica,sans-Serif" font-size="10.00"># _featurePointVBO</text>
<polyline fill="none" stroke="black" points="219,-1150.5 377,-1150.5 "/>
<text text-anchor="start" x="227" y="-1138.5" font-family="Helvetica,sans-Serif" font-size="10.00">+ RunSIFT()</text>
<text text-anchor="start" x="227" y="-1127.5" font-family="Helvetica,sans-Serif" font-size="10.00">+ SaveSIFT()</text>
<text text-anchor="start" x="227" y="-1116.5" font-family="Helvetica,sans-Serif" font-size="10.00">+ CopyFeatureVector()</text>
<text text-anchor="start" x="227" y="-1105.5" font-family="Helvetica,sans-Serif" font-size="10.00">+ SetKeypointList()</text>
<text text-anchor="start" x="227" y="-1094.5" font-family="Helvetica,sans-Serif" font-size="10.00">+ GetFeatureDescriptors()</text>
<text text-anchor="start" x="227" y="-1083.5" font-family="Helvetica,sans-Serif" font-size="10.00">+ GenerateFeatureListTex()</text>
<text text-anchor="start" x="227" y="-1072.5" font-family="Helvetica,sans-Serif" font-size="10.00">+ ReshapeFeatureListCPU()</text>
<text text-anchor="start" x="227" y="-1061.5" font-family="Helvetica,sans-Serif" font-size="10.00">+ GenerateFeatureDisplayVBO()</text>
<text text-anchor="start" x="227" y="-1050.5" font-family="Helvetica,sans-Serif" font-size="10.00">+ DownloadKeypoints()</text>
<text text-anchor="start" x="227" y="-1039.5" font-family="Helvetica,sans-Serif" font-size="10.00">+ GenerateFeatureListCPU()</text>
<text text-anchor="start" x="227" y="-1028.5" font-family="Helvetica,sans-Serif" font-size="10.00">and 23 more...</text>
<text text-anchor="start" x="227" y="-1017.5" font-family="Helvetica,sans-Serif" font-size="10.00">+ GetRequiredOctaveNum()</text>
</a>
</g>
</g>
<!-- Node5&#45;&gt;Node6 -->
<g id="edge8" class="edge"><title>Node5&#45;&gt;Node6</title>
<path fill="none" stroke="#404040" d="M222.873,-1461.9C229.445,-1438.47 236.571,-1413.06 243.727,-1387.54"/>
<polygon fill="none" stroke="#404040" points="243.775,-1387.37 241.544,-1380.51 247.015,-1375.81 249.246,-1382.67 243.775,-1387.37"/>
<text text-anchor="middle" x="260" y="-1402.5" font-family="Helvetica,sans-Serif" font-size="10.00"> #param</text>
</g>
<!-- Node6&#45;&gt;Node4 -->
<g id="edge5" class="edge"><title>Node6&#45;&gt;Node4</title>
<path fill="none" stroke="#404040" d="M261.367,-1010.36C258.892,-998.09 256.421,-985.837 254,-973.836"/>
<polygon fill="none" stroke="#404040" points="253.971,-973.69 248.864,-968.599 251.599,-961.927 256.706,-967.018 253.971,-973.69"/>
<text text-anchor="middle" x="280.5" y="-983.5" font-family="Helvetica,sans-Serif" font-size="10.00"> #_pyramid</text>
</g>
<!-- Node7 -->
<g id="node7" class="node"><title>Node7</title>
<g id="a_node7"><a xlink:href="../../d2/d55/classGlobalUtil.html" target="_top" xlink:title="{GlobalUtil\n||+ CLOCK()\l+ StopTimer()\l+ StartTimer()\l+ GetElapsedTime()\l+ FitViewPort()\l+ SetTextureParameter()\l+ SetTextureParameterUS()\l+ CheckErrorsGL()\l+ CheckFramebufferStatus()\l+ SelectDisplay()\land 6 more...\l}">
<polygon fill="white" stroke="black" points="219.5,-1750.5 219.5,-1917.5 360.5,-1917.5 360.5,-1750.5 219.5,-1750.5"/>
<text text-anchor="middle" x="290" y="-1905.5" font-family="Helvetica,sans-Serif" font-size="10.00">GlobalUtil</text>
<polyline fill="none" stroke="black" points="219.5,-1898.5 360.5,-1898.5 "/>
<text text-anchor="middle" x="290" y="-1886.5" font-family="Helvetica,sans-Serif" font-size="10.00"> </text>
<polyline fill="none" stroke="black" points="219.5,-1879.5 360.5,-1879.5 "/>
<text text-anchor="start" x="227.5" y="-1867.5" font-family="Helvetica,sans-Serif" font-size="10.00">+ CLOCK()</text>
<text text-anchor="start" x="227.5" y="-1856.5" font-family="Helvetica,sans-Serif" font-size="10.00">+ StopTimer()</text>
<text text-anchor="start" x="227.5" y="-1845.5" font-family="Helvetica,sans-Serif" font-size="10.00">+ StartTimer()</text>
<text text-anchor="start" x="227.5" y="-1834.5" font-family="Helvetica,sans-Serif" font-size="10.00">+ GetElapsedTime()</text>
<text text-anchor="start" x="227.5" y="-1823.5" font-family="Helvetica,sans-Serif" font-size="10.00">+ FitViewPort()</text>
<text text-anchor="start" x="227.5" y="-1812.5" font-family="Helvetica,sans-Serif" font-size="10.00">+ SetTextureParameter()</text>
<text text-anchor="start" x="227.5" y="-1801.5" font-family="Helvetica,sans-Serif" font-size="10.00">+ SetTextureParameterUS()</text>
<text text-anchor="start" x="227.5" y="-1790.5" font-family="Helvetica,sans-Serif" font-size="10.00">+ CheckErrorsGL()</text>
<text text-anchor="start" x="227.5" y="-1779.5" font-family="Helvetica,sans-Serif" font-size="10.00">+ CheckFramebufferStatus()</text>
<text text-anchor="start" x="227.5" y="-1768.5" font-family="Helvetica,sans-Serif" font-size="10.00">+ SelectDisplay()</text>
<text text-anchor="start" x="227.5" y="-1757.5" font-family="Helvetica,sans-Serif" font-size="10.00">and 6 more...</text>
</a>
</g>
</g>
<!-- Node7&#45;&gt;Node6 -->
<g id="edge6" class="edge"><title>Node7&#45;&gt;Node6</title>
<path fill="none" stroke="midnightblue" d="M346.668,-1741.16C350.803,-1731.57 354.375,-1721.75 357,-1712 393.748,-1575.5 385.118,-1533.62 363,-1394 362.043,-1387.96 360.933,-1381.85 359.694,-1375.72"/>
<polygon fill="none" stroke="midnightblue" points="343.476,-1739.72 342.543,-1750.28 349.853,-1742.61 343.476,-1739.72"/>
</g>
<!-- Node12 -->
<g id="node12" class="node"><title>Node12</title>
<g id="a_node12"><a xlink:href="../../df/da6/classGLTexImage.html" target="_top" xlink:title="{GLTexImage\n|# _texID\l# _imgWidth\l# _imgHeight\l# _texWidth\l# _texHeight\l# _drawWidth\l# _drawHeight\l|+ DrawQuadUS()\l+ DrawQuadDS()\l+ DrawImage()\l+ TexConvertRGB()\l+ ZeroHistoMargin()\l+ SetImageSize()\l+ InitTexture()\l+ InitTexture()\l+ FillMargin()\l+ DrawScaledQuad()\land 28 more...\l+ DetachFBO()\l+ UnbindTex()\l+ UnbindMultiTex()\l+ DrawQuad()\l}">
<polygon fill="white" stroke="black" points="0,-1434.5 0,-1711.5 108,-1711.5 108,-1434.5 0,-1434.5"/>
<text text-anchor="middle" x="54" y="-1699.5" font-family="Helvetica,sans-Serif" font-size="10.00">GLTexImage</text>
<polyline fill="none" stroke="black" points="0,-1692.5 108,-1692.5 "/>
<text text-anchor="start" x="8" y="-1680.5" font-family="Helvetica,sans-Serif" font-size="10.00"># _texID</text>
<text text-anchor="start" x="8" y="-1669.5" font-family="Helvetica,sans-Serif" font-size="10.00"># _imgWidth</text>
<text text-anchor="start" x="8" y="-1658.5" font-family="Helvetica,sans-Serif" font-size="10.00"># _imgHeight</text>
<text text-anchor="start" x="8" y="-1647.5" font-family="Helvetica,sans-Serif" font-size="10.00"># _texWidth</text>
<text text-anchor="start" x="8" y="-1636.5" font-family="Helvetica,sans-Serif" font-size="10.00"># _texHeight</text>
<text text-anchor="start" x="8" y="-1625.5" font-family="Helvetica,sans-Serif" font-size="10.00"># _drawWidth</text>
<text text-anchor="start" x="8" y="-1614.5" font-family="Helvetica,sans-Serif" font-size="10.00"># _drawHeight</text>
<polyline fill="none" stroke="black" points="0,-1607.5 108,-1607.5 "/>
<text text-anchor="start" x="8" y="-1595.5" font-family="Helvetica,sans-Serif" font-size="10.00">+ DrawQuadUS()</text>
<text text-anchor="start" x="8" y="-1584.5" font-family="Helvetica,sans-Serif" font-size="10.00">+ DrawQuadDS()</text>
<text text-anchor="start" x="8" y="-1573.5" font-family="Helvetica,sans-Serif" font-size="10.00">+ DrawImage()</text>
<text text-anchor="start" x="8" y="-1562.5" font-family="Helvetica,sans-Serif" font-size="10.00">+ TexConvertRGB()</text>
<text text-anchor="start" x="8" y="-1551.5" font-family="Helvetica,sans-Serif" font-size="10.00">+ ZeroHistoMargin()</text>
<text text-anchor="start" x="8" y="-1540.5" font-family="Helvetica,sans-Serif" font-size="10.00">+ SetImageSize()</text>
<text text-anchor="start" x="8" y="-1529.5" font-family="Helvetica,sans-Serif" font-size="10.00">+ InitTexture()</text>
<text text-anchor="start" x="8" y="-1518.5" font-family="Helvetica,sans-Serif" font-size="10.00">+ InitTexture()</text>
<text text-anchor="start" x="8" y="-1507.5" font-family="Helvetica,sans-Serif" font-size="10.00">+ FillMargin()</text>
<text text-anchor="start" x="8" y="-1496.5" font-family="Helvetica,sans-Serif" font-size="10.00">+ DrawScaledQuad()</text>
<text text-anchor="start" x="8" y="-1485.5" font-family="Helvetica,sans-Serif" font-size="10.00">and 28 more...</text>
<text text-anchor="start" x="8" y="-1474.5" font-family="Helvetica,sans-Serif" font-size="10.00">+ DetachFBO()</text>
<text text-anchor="start" x="8" y="-1463.5" font-family="Helvetica,sans-Serif" font-size="10.00">+ UnbindTex()</text>
<text text-anchor="start" x="8" y="-1452.5" font-family="Helvetica,sans-Serif" font-size="10.00">+ UnbindMultiTex()</text>
<text text-anchor="start" x="8" y="-1441.5" font-family="Helvetica,sans-Serif" font-size="10.00">+ DrawQuad()</text>
</a>
</g>
</g>
<!-- Node7&#45;&gt;Node12 -->
<g id="edge13" class="edge"><title>Node7&#45;&gt;Node12</title>
<path fill="none" stroke="midnightblue" d="M210.685,-1790.14C178.469,-1769.76 142.835,-1743.03 117,-1712 113.882,-1708.26 110.886,-1704.33 108.01,-1700.27"/>
<polygon fill="none" stroke="midnightblue" points="208.89,-1793.15 219.23,-1795.45 212.585,-1787.2 208.89,-1793.15"/>
</g>
<!-- Node8 -->
<g id="node8" class="node"><title>Node8</title>
<g id="a_node8"><a xlink:href="../../db/d04/classGlobalParam.html" target="_top" xlink:title="{GlobalParam\n|+ _texTarget\l+ _iTexFormat\l+ _texMaxDim\l+ _texMaxDimGL\l+ _texMinDim\l+ _MemCapGPU\l+ _FitMemoryCap\l+ _verbose\l+ _timingS\l+ _timingO\land 53 more...\l|}">
<polygon fill="white" stroke="black" points="242.5,-1956.5 242.5,-2123.5 337.5,-2123.5 337.5,-1956.5 242.5,-1956.5"/>
<text text-anchor="middle" x="290" y="-2111.5" font-family="Helvetica,sans-Serif" font-size="10.00">GlobalParam</text>
<polyline fill="none" stroke="black" points="242.5,-2104.5 337.5,-2104.5 "/>
<text text-anchor="start" x="250.5" y="-2092.5" font-family="Helvetica,sans-Serif" font-size="10.00">+ _texTarget</text>
<text text-anchor="start" x="250.5" y="-2081.5" font-family="Helvetica,sans-Serif" font-size="10.00">+ _iTexFormat</text>
<text text-anchor="start" x="250.5" y="-2070.5" font-family="Helvetica,sans-Serif" font-size="10.00">+ _texMaxDim</text>
<text text-anchor="start" x="250.5" y="-2059.5" font-family="Helvetica,sans-Serif" font-size="10.00">+ _texMaxDimGL</text>
<text text-anchor="start" x="250.5" y="-2048.5" font-family="Helvetica,sans-Serif" font-size="10.00">+ _texMinDim</text>
<text text-anchor="start" x="250.5" y="-2037.5" font-family="Helvetica,sans-Serif" font-size="10.00">+ _MemCapGPU</text>
<text text-anchor="start" x="250.5" y="-2026.5" font-family="Helvetica,sans-Serif" font-size="10.00">+ _FitMemoryCap</text>
<text text-anchor="start" x="250.5" y="-2015.5" font-family="Helvetica,sans-Serif" font-size="10.00">+ _verbose</text>
<text text-anchor="start" x="250.5" y="-2004.5" font-family="Helvetica,sans-Serif" font-size="10.00">+ _timingS</text>
<text text-anchor="start" x="250.5" y="-1993.5" font-family="Helvetica,sans-Serif" font-size="10.00">+ _timingO</text>
<text text-anchor="start" x="250.5" y="-1982.5" font-family="Helvetica,sans-Serif" font-size="10.00">and 53 more...</text>
<polyline fill="none" stroke="black" points="242.5,-1975.5 337.5,-1975.5 "/>
<text text-anchor="middle" x="290" y="-1963.5" font-family="Helvetica,sans-Serif" font-size="10.00"> </text>
</a>
</g>
</g>
<!-- Node8&#45;&gt;Node7 -->
<g id="edge7" class="edge"><title>Node8&#45;&gt;Node7</title>
<path fill="none" stroke="midnightblue" d="M290,-1946.13C290,-1936.68 290,-1927.13 290,-1917.8"/>
<polygon fill="none" stroke="midnightblue" points="286.5,-1946.32 290,-1956.32 293.5,-1946.32 286.5,-1946.32"/>
</g>
<!-- Node9 -->
<g id="node9" class="node"><title>Node9</title>
<polygon fill="white" stroke="#bfbfbf" points="405,-1544.5 405,-1601.5 485,-1601.5 485,-1544.5 405,-1544.5"/>
<text text-anchor="middle" x="445" y="-1589.5" font-family="Helvetica,sans-Serif" font-size="10.00">vector&lt; float &gt;</text>
<polyline fill="none" stroke="#bfbfbf" points="405,-1582.5 485,-1582.5 "/>
<text text-anchor="middle" x="445" y="-1570.5" font-family="Helvetica,sans-Serif" font-size="10.00"> </text>
<polyline fill="none" stroke="#bfbfbf" points="405,-1563.5 485,-1563.5 "/>
<text text-anchor="middle" x="445" y="-1551.5" font-family="Helvetica,sans-Serif" font-size="10.00"> </text>
</g>
<!-- Node9&#45;&gt;Node6 -->
<g id="edge9" class="edge"><title>Node9&#45;&gt;Node6</title>
<path fill="none" stroke="#404040" d="M437.939,-1544.46C428.589,-1509.13 410.937,-1446.19 391,-1394 388.051,-1386.28 384.938,-1378.44 381.711,-1370.56"/>
<polygon fill="none" stroke="#404040" points="381.676,-1370.47 375.681,-1366.46 377.076,-1359.39 383.07,-1363.4 381.676,-1370.47"/>
<text text-anchor="middle" x="442" y="-1408" font-family="Helvetica,sans-Serif" font-size="10.00"> +_descriptor_buffer</text>
<text text-anchor="middle" x="442" y="-1397" font-family="Helvetica,sans-Serif" font-size="10.00">+_keypoint_buffer</text>
</g>
<!-- Node10 -->
<g id="node10" class="node"><title>Node10</title>
<polygon fill="white" stroke="#bfbfbf" points="276,-1544.5 276,-1601.5 348,-1601.5 348,-1544.5 276,-1544.5"/>
<text text-anchor="middle" x="312" y="-1589.5" font-family="Helvetica,sans-Serif" font-size="10.00">vector&lt; int &gt;</text>
<polyline fill="none" stroke="#bfbfbf" points="276,-1582.5 348,-1582.5 "/>
<text text-anchor="middle" x="312" y="-1570.5" font-family="Helvetica,sans-Serif" font-size="10.00"> </text>
<polyline fill="none" stroke="#bfbfbf" points="276,-1563.5 348,-1563.5 "/>
<text text-anchor="middle" x="312" y="-1551.5" font-family="Helvetica,sans-Serif" font-size="10.00"> </text>
</g>
<!-- Node10&#45;&gt;Node6 -->
<g id="edge10" class="edge"><title>Node10&#45;&gt;Node6</title>
<path fill="none" stroke="#404040" d="M305.49,-1544.3C298.558,-1513.27 288.038,-1461.36 284,-1416 283.181,-1406.8 282.638,-1397.39 282.325,-1387.88"/>
<polygon fill="none" stroke="#404040" points="282.323,-1387.78 278.186,-1381.88 282.048,-1375.79 286.184,-1381.69 282.323,-1387.78"/>
<text text-anchor="middle" x="323.5" y="-1402.5" font-family="Helvetica,sans-Serif" font-size="10.00"> #_keypoint_index</text>
</g>
<!-- Node11 -->
<g id="node11" class="node"><title>Node11</title>
<g id="a_node11"><a xlink:href="../../d0/d3c/classGLTexInput.html" target="_top" xlink:title="{GLTexInput\n|+ _down_sampled\l+ _rgb_converted\l+ _data_modified\l+ _converted_data\l+ _pixel_data\l|+ GLTexInput()\l+ SetImageData()\l+ LoadImageFile()\l+ VerifyTexture()\l+ ~GLTexInput()\l+ IsSimpleGlFormat()\l+ DownSamplePixelDataI()\l+ DownSamplePixelDataI2F()\l+ DownSamplePixelDataF()\l+ TruncateWidthCU()\l}">
<polygon fill="white" stroke="black" points="6.5,-1093 6.5,-1293 153.5,-1293 153.5,-1093 6.5,-1093"/>
<text text-anchor="middle" x="80" y="-1281" font-family="Helvetica,sans-Serif" font-size="10.00">GLTexInput</text>
<polyline fill="none" stroke="black" points="6.5,-1274 153.5,-1274 "/>
<text text-anchor="start" x="14.5" y="-1262" font-family="Helvetica,sans-Serif" font-size="10.00">+ _down_sampled</text>
<text text-anchor="start" x="14.5" y="-1251" font-family="Helvetica,sans-Serif" font-size="10.00">+ _rgb_converted</text>
<text text-anchor="start" x="14.5" y="-1240" font-family="Helvetica,sans-Serif" font-size="10.00">+ _data_modified</text>
<text text-anchor="start" x="14.5" y="-1229" font-family="Helvetica,sans-Serif" font-size="10.00">+ _converted_data</text>
<text text-anchor="start" x="14.5" y="-1218" font-family="Helvetica,sans-Serif" font-size="10.00">+ _pixel_data</text>
<polyline fill="none" stroke="black" points="6.5,-1211 153.5,-1211 "/>
<text text-anchor="start" x="14.5" y="-1199" font-family="Helvetica,sans-Serif" font-size="10.00">+ GLTexInput()</text>
<text text-anchor="start" x="14.5" y="-1188" font-family="Helvetica,sans-Serif" font-size="10.00">+ SetImageData()</text>
<text text-anchor="start" x="14.5" y="-1177" font-family="Helvetica,sans-Serif" font-size="10.00">+ LoadImageFile()</text>
<text text-anchor="start" x="14.5" y="-1166" font-family="Helvetica,sans-Serif" font-size="10.00">+ VerifyTexture()</text>
<text text-anchor="start" x="14.5" y="-1155" font-family="Helvetica,sans-Serif" font-size="10.00">+ ~GLTexInput()</text>
<text text-anchor="start" x="14.5" y="-1144" font-family="Helvetica,sans-Serif" font-size="10.00">+ IsSimpleGlFormat()</text>
<text text-anchor="start" x="14.5" y="-1133" font-family="Helvetica,sans-Serif" font-size="10.00">+ DownSamplePixelDataI()</text>
<text text-anchor="start" x="14.5" y="-1122" font-family="Helvetica,sans-Serif" font-size="10.00">+ DownSamplePixelDataI2F()</text>
<text text-anchor="start" x="14.5" y="-1111" font-family="Helvetica,sans-Serif" font-size="10.00">+ DownSamplePixelDataF()</text>
<text text-anchor="start" x="14.5" y="-1100" font-family="Helvetica,sans-Serif" font-size="10.00">+ TruncateWidthCU()</text>
</a>
</g>
</g>
<!-- Node11&#45;&gt;Node4 -->
<g id="edge11" class="edge"><title>Node11&#45;&gt;Node4</title>
<path fill="none" stroke="#404040" d="M90.6996,-1092.81C96.9296,-1056.3 106.709,-1015.29 122,-980 130.77,-959.76 142.707,-939.562 155.371,-920.948"/>
<polygon fill="none" stroke="#404040" points="155.392,-920.918 155.542,-913.709 162.255,-911.075 162.105,-918.284 155.392,-920.918"/>
<text text-anchor="middle" x="149.5" y="-983.5" font-family="Helvetica,sans-Serif" font-size="10.00"> #_texImage</text>
</g>
<!-- Node12&#45;&gt;Node11 -->
<g id="edge12" class="edge"><title>Node12&#45;&gt;Node11</title>
<path fill="none" stroke="midnightblue" d="M64.162,-1424.26C67.1834,-1380.33 70.4198,-1333.28 73.1744,-1293.23"/>
<polygon fill="none" stroke="midnightblue" points="60.6547,-1424.25 63.4601,-1434.46 67.6382,-1424.73 60.6547,-1424.25"/>
</g>
<!-- Node13 -->
<g id="node13" class="node"><title>Node13</title>
<g id="a_node13"><a xlink:href="../../db/dc3/classImageList.html" target="_top" xlink:title="{ImageList\n||}">
<polygon fill="white" stroke="black" points="465.5,-1164.5 465.5,-1221.5 524.5,-1221.5 524.5,-1164.5 465.5,-1164.5"/>
<text text-anchor="middle" x="495" y="-1209.5" font-family="Helvetica,sans-Serif" font-size="10.00">ImageList</text>
<polyline fill="none" stroke="black" points="465.5,-1202.5 524.5,-1202.5 "/>
<text text-anchor="middle" x="495" y="-1190.5" font-family="Helvetica,sans-Serif" font-size="10.00"> </text>
<polyline fill="none" stroke="black" points="465.5,-1183.5 524.5,-1183.5 "/>
<text text-anchor="middle" x="495" y="-1171.5" font-family="Helvetica,sans-Serif" font-size="10.00"> </text>
</a>
</g>
</g>
<!-- Node13&#45;&gt;Node4 -->
<g id="edge14" class="edge"><title>Node13&#45;&gt;Node4</title>
<path fill="none" stroke="#404040" d="M480.529,-1164.43C460.839,-1127.83 423.615,-1061.8 385,-1010 358.651,-974.654 326.426,-938.165 297.893,-907.713"/>
<polygon fill="none" stroke="#404040" points="297.794,-907.608 290.767,-905.987 289.56,-898.878 296.587,-900.498 297.794,-907.608"/>
<text text-anchor="middle" x="383.5" y="-983.5" font-family="Helvetica,sans-Serif" font-size="10.00"> #_list</text>
</g>
<!-- Node14 -->
<g id="node14" class="node"><title>Node14</title>
<polygon fill="white" stroke="#bfbfbf" points="503.5,-1544.5 503.5,-1601.5 628.5,-1601.5 628.5,-1544.5 503.5,-1544.5"/>
<text text-anchor="middle" x="566" y="-1589.5" font-family="Helvetica,sans-Serif" font-size="10.00">std::vector&lt; std::string &gt;</text>
<polyline fill="none" stroke="#bfbfbf" points="503.5,-1582.5 628.5,-1582.5 "/>
<text text-anchor="middle" x="566" y="-1570.5" font-family="Helvetica,sans-Serif" font-size="10.00"> </text>
<polyline fill="none" stroke="#bfbfbf" points="503.5,-1563.5 628.5,-1563.5 "/>
<text text-anchor="middle" x="566" y="-1551.5" font-family="Helvetica,sans-Serif" font-size="10.00"> </text>
</g>
<!-- Node14&#45;&gt;Node13 -->
<g id="edge15" class="edge"><title>Node14&#45;&gt;Node13</title>
<path fill="none" stroke="midnightblue" d="M560.384,-1534.41C554.873,-1498.33 546.006,-1442.33 537,-1394 525.495,-1332.26 509.821,-1260.29 501.244,-1221.75"/>
<polygon fill="none" stroke="midnightblue" points="556.953,-1535.13 561.915,-1544.49 563.873,-1534.08 556.953,-1535.13"/>
</g>
</g>
</svg>
