<?xml version="1.0" encoding="UTF-8" standalone="no"?>
<!DOCTYPE svg PUBLIC "-//W3C//DTD SVG 1.1//EN"
 "http://www.w3.org/Graphics/SVG/1.1/DTD/svg11.dtd">
<!-- Generated by graphviz version 2.36.0 (20140111.2315)
 -->
<!-- Title: GlobalUtil::StopTimer Pages: 1 -->
<svg width="454pt" height="66pt"
 viewBox="0.00 0.00 454.00 66.00" xmlns="http://www.w3.org/2000/svg" xmlns:xlink="http://www.w3.org/1999/xlink">
<g id="graph0" class="graph" transform="scale(1 1) rotate(0) translate(4 62)">
<title>GlobalUtil::StopTimer</title>
<polygon fill="white" stroke="none" points="-4,4 -4,-62 450,-62 450,4 -4,4"/>
<!-- Node1 -->
<g id="node1" class="node"><title>Node1</title>
<polygon fill="#bfbfbf" stroke="black" points="0,-19.5 0,-38.5 110,-38.5 110,-19.5 0,-19.5"/>
<text text-anchor="middle" x="55" y="-26.5" font-family="Helvetica,sans-Serif" font-size="10.00">GlobalUtil::StopTimer</text>
</g>
<!-- Node2 -->
<g id="node2" class="node"><title>Node2</title>
<g id="a_node2"><a xlink:href="../../d9/d98/classClockTimer.html#a7506d8fad1473bf4f3bdfb9e8590a6c3" target="_top" xlink:title="ClockTimer::StopTimer">
<polygon fill="white" stroke="black" points="146,-19.5 146,-38.5 264,-38.5 264,-19.5 146,-19.5"/>
<text text-anchor="middle" x="205" y="-26.5" font-family="Helvetica,sans-Serif" font-size="10.00">ClockTimer::StopTimer</text>
</a>
</g>
</g>
<!-- Node1&#45;&gt;Node2 -->
<g id="edge1" class="edge"><title>Node1&#45;&gt;Node2</title>
<path fill="none" stroke="midnightblue" d="M110.269,-29C118.481,-29 127.041,-29 135.506,-29"/>
<polygon fill="midnightblue" stroke="midnightblue" points="135.752,-32.5001 145.752,-29 135.752,-25.5001 135.752,-32.5001"/>
</g>
<!-- Node3 -->
<g id="node3" class="node"><title>Node3</title>
<g id="a_node3"><a xlink:href="../../d9/d98/classClockTimer.html#a23cf363d1025bb1a93951d9ccdabc639" target="_top" xlink:title="ClockTimer::ClockMS">
<polygon fill="white" stroke="black" points="316.5,-38.5 316.5,-57.5 429.5,-57.5 429.5,-38.5 316.5,-38.5"/>
<text text-anchor="middle" x="373" y="-45.5" font-family="Helvetica,sans-Serif" font-size="10.00">ClockTimer::ClockMS</text>
</a>
</g>
</g>
<!-- Node2&#45;&gt;Node3 -->
<g id="edge2" class="edge"><title>Node2&#45;&gt;Node3</title>
<path fill="none" stroke="midnightblue" d="M264.059,-35.6453C277.751,-37.2125 292.442,-38.894 306.44,-40.4962"/>
<polygon fill="midnightblue" stroke="midnightblue" points="306.153,-43.9861 316.486,-41.646 306.949,-37.0315 306.153,-43.9861"/>
</g>
<!-- Node4 -->
<g id="node4" class="node"><title>Node4</title>
<g id="a_node4"><a xlink:href="../../d9/d98/classClockTimer.html#a5a6919057a81f4843619032cab692091" target="_top" xlink:title="ClockTimer::GetElapsedTime">
<polygon fill="white" stroke="black" points="300,-0.5 300,-19.5 446,-19.5 446,-0.5 300,-0.5"/>
<text text-anchor="middle" x="373" y="-7.5" font-family="Helvetica,sans-Serif" font-size="10.00">ClockTimer::GetElapsedTime</text>
</a>
</g>
</g>
<!-- Node2&#45;&gt;Node4 -->
<g id="edge3" class="edge"><title>Node2&#45;&gt;Node4</title>
<path fill="none" stroke="midnightblue" d="M264.059,-22.3547C272.392,-21.401 281.094,-20.4049 289.785,-19.4101"/>
<polygon fill="midnightblue" stroke="midnightblue" points="290.422,-22.8601 299.959,-18.2456 289.626,-15.9055 290.422,-22.8601"/>
</g>
</g>
</svg>
