<?xml version="1.0" encoding="UTF-8" standalone="no"?>
<!DOCTYPE svg PUBLIC "-//W3C//DTD SVG 1.1//EN"
 "http://www.w3.org/Graphics/SVG/1.1/DTD/svg11.dtd">
<!-- Generated by graphviz version 2.36.0 (20140111.2315)
 -->
<!-- Title: GlobalUtil::CLOCK Pages: 1 -->
<svg width="402pt" height="28pt"
 viewBox="0.00 0.00 402.00 28.00" xmlns="http://www.w3.org/2000/svg" xmlns:xlink="http://www.w3.org/1999/xlink">
<g id="graph0" class="graph" transform="scale(1 1) rotate(0) translate(4 24)">
<title>GlobalUtil::CLOCK</title>
<polygon fill="white" stroke="none" points="-4,4 -4,-24 398,-24 398,4 -4,4"/>
<!-- Node1 -->
<g id="node1" class="node"><title>Node1</title>
<polygon fill="#bfbfbf" stroke="black" points="0,-0.5 0,-19.5 100,-19.5 100,-0.5 0,-0.5"/>
<text text-anchor="middle" x="50" y="-7.5" font-family="Helvetica,sans-Serif" font-size="10.00">GlobalUtil::CLOCK</text>
</g>
<!-- Node2 -->
<g id="node2" class="node"><title>Node2</title>
<g id="a_node2"><a xlink:href="../../d9/d98/classClockTimer.html#a20e0c3f7fcb4f981933e423e36edba23" target="_top" xlink:title="ClockTimer::CLOCK">
<polygon fill="white" stroke="black" points="136.5,-0.5 136.5,-19.5 243.5,-19.5 243.5,-0.5 136.5,-0.5"/>
<text text-anchor="middle" x="190" y="-7.5" font-family="Helvetica,sans-Serif" font-size="10.00">ClockTimer::CLOCK</text>
</a>
</g>
</g>
<!-- Node1&#45;&gt;Node2 -->
<g id="edge1" class="edge"><title>Node1&#45;&gt;Node2</title>
<path fill="none" stroke="midnightblue" d="M100.042,-10C108.506,-10 117.408,-10 126.176,-10"/>
<polygon fill="midnightblue" stroke="midnightblue" points="126.373,-13.5001 136.373,-10 126.373,-6.5001 126.373,-13.5001"/>
</g>
<!-- Node3 -->
<g id="node3" class="node"><title>Node3</title>
<g id="a_node3"><a xlink:href="../../d9/d98/classClockTimer.html#a23cf363d1025bb1a93951d9ccdabc639" target="_top" xlink:title="ClockTimer::ClockMS">
<polygon fill="white" stroke="black" points="280.5,-0.5 280.5,-19.5 393.5,-19.5 393.5,-0.5 280.5,-0.5"/>
<text text-anchor="middle" x="337" y="-7.5" font-family="Helvetica,sans-Serif" font-size="10.00">ClockTimer::ClockMS</text>
</a>
</g>
</g>
<!-- Node2&#45;&gt;Node3 -->
<g id="edge2" class="edge"><title>Node2&#45;&gt;Node3</title>
<path fill="none" stroke="midnightblue" d="M243.759,-10C252.256,-10 261.145,-10 269.908,-10"/>
<polygon fill="midnightblue" stroke="midnightblue" points="270.106,-13.5001 280.106,-10 270.106,-6.5001 270.106,-13.5001"/>
</g>
</g>
</svg>
