<?xml version="1.0" encoding="UTF-8" standalone="no"?>
<!DOCTYPE svg PUBLIC "-//W3C//DTD SVG 1.1//EN"
 "http://www.w3.org/Graphics/SVG/1.1/DTD/svg11.dtd">
<!-- Generated by graphviz version 2.36.0 (20140111.2315)
 -->
<!-- Title: src/graph_manager.cpp Pages: 1 -->
<svg width="4130pt" height="288pt"
 viewBox="0.00 0.00 4130.00 288.00" xmlns="http://www.w3.org/2000/svg" xmlns:xlink="http://www.w3.org/1999/xlink">
<g id="graph0" class="graph" transform="scale(1 1) rotate(0) translate(4 284)">
<title>src/graph_manager.cpp</title>
<polygon fill="white" stroke="none" points="-4,4 -4,-284 4126,-284 4126,4 -4,4"/>
<!-- Node1 -->
<g id="node1" class="node"><title>Node1</title>
<polygon fill="#bfbfbf" stroke="black" points="2445.5,-260.5 2445.5,-279.5 2564.5,-279.5 2564.5,-260.5 2445.5,-260.5"/>
<text text-anchor="middle" x="2505" y="-267.5" font-family="Helvetica,sans-Serif" font-size="10.00">src/graph_manager.cpp</text>
</g>
<!-- Node2 -->
<g id="node2" class="node"><title>Node2</title>
<polygon fill="white" stroke="#bfbfbf" points="0,-198.5 0,-217.5 62,-217.5 62,-198.5 0,-198.5"/>
<text text-anchor="middle" x="31" y="-205.5" font-family="Helvetica,sans-Serif" font-size="10.00">sys/time.h</text>
</g>
<!-- Node1&#45;&gt;Node2 -->
<g id="edge1" class="edge"><title>Node1&#45;&gt;Node2</title>
<path fill="none" stroke="midnightblue" d="M2445.34,-269.108C2094.81,-269.579 310.422,-269.705 71,-224 67.2072,-223.276 63.3027,-222.226 59.4888,-221.013"/>
<polygon fill="midnightblue" stroke="midnightblue" points="60.3385,-217.6 49.7439,-217.531 57.9832,-224.192 60.3385,-217.6"/>
</g>
<!-- Node3 -->
<g id="node3" class="node"><title>Node3</title>
<polygon fill="white" stroke="#bfbfbf" points="80,-193 80,-223 180,-223 180,-193 80,-193"/>
<text text-anchor="start" x="88" y="-211" font-family="Helvetica,sans-Serif" font-size="10.00">visualization_msgs</text>
<text text-anchor="middle" x="130" y="-200" font-family="Helvetica,sans-Serif" font-size="10.00">/Marker.h</text>
</g>
<!-- Node1&#45;&gt;Node3 -->
<g id="edge2" class="edge"><title>Node1&#45;&gt;Node3</title>
<path fill="none" stroke="midnightblue" d="M2445.28,-268.659C2109.49,-266.635 462.406,-255.244 190.224,-223.829"/>
<polygon fill="midnightblue" stroke="midnightblue" points="190.415,-220.325 180.058,-222.559 189.547,-227.271 190.415,-220.325"/>
</g>
<!-- Node4 -->
<g id="node4" class="node"><title>Node4</title>
<polygon fill="white" stroke="#bfbfbf" points="198,-198.5 198,-217.5 318,-217.5 318,-198.5 198,-198.5"/>
<text text-anchor="middle" x="258" y="-205.5" font-family="Helvetica,sans-Serif" font-size="10.00">geometry_msgs/Point.h</text>
</g>
<!-- Node1&#45;&gt;Node4 -->
<g id="edge3" class="edge"><title>Node1&#45;&gt;Node4</title>
<path fill="none" stroke="midnightblue" d="M2445.31,-269.211C2140.81,-270.065 758.26,-271.229 332,-224 322.719,-222.972 312.873,-221.354 303.496,-219.555"/>
<polygon fill="midnightblue" stroke="midnightblue" points="304.048,-216.096 293.553,-217.551 302.664,-222.958 304.048,-216.096"/>
</g>
<!-- Node5 -->
<g id="node5" class="node"><title>Node5</title>
<g id="a_node5"><a xlink:href="../../de/d83/graph__manager_8h.html" target="_top" xlink:title="graph_manager.h">
<polygon fill="white" stroke="red" points="1388,-198.5 1388,-217.5 1480,-217.5 1480,-198.5 1388,-198.5"/>
<text text-anchor="middle" x="1434" y="-205.5" font-family="Helvetica,sans-Serif" font-size="10.00">graph_manager.h</text>
</a>
</g>
</g>
<!-- Node1&#45;&gt;Node5 -->
<g id="edge4" class="edge"><title>Node1&#45;&gt;Node5</title>
<path fill="none" stroke="midnightblue" d="M2445.12,-265.646C2256.17,-255.06 1674.19,-222.456 1490.3,-212.154"/>
<polygon fill="midnightblue" stroke="midnightblue" points="1490.23,-208.645 1480.05,-211.58 1489.83,-215.634 1490.23,-208.645"/>
</g>
<!-- Node10 -->
<g id="node10" class="node"><title>Node10</title>
<polygon fill="white" stroke="#bfbfbf" points="1988,-57 1988,-87 2090,-87 2090,-57 1988,-57"/>
<text text-anchor="start" x="1996" y="-75" font-family="Helvetica,sans-Serif" font-size="10.00">opencv2/features2d</text>
<text text-anchor="middle" x="2039" y="-64" font-family="Helvetica,sans-Serif" font-size="10.00">/features2d.hpp</text>
</g>
<!-- Node1&#45;&gt;Node10 -->
<g id="edge45" class="edge"><title>Node1&#45;&gt;Node10</title>
<path fill="none" stroke="midnightblue" d="M2445.21,-261.287C2400.92,-254.205 2345.95,-242.046 2332,-224 2284.67,-162.788 2408.89,-171.122 2419,-156 2426.9,-144.176 2428.36,-134.705 2419,-124 2398.37,-100.417 2202.53,-83.9362 2100.37,-76.8673"/>
<polygon fill="midnightblue" stroke="midnightblue" points="2100.4,-73.3614 2090.19,-76.1724 2099.92,-80.3451 2100.4,-73.3614"/>
</g>
<!-- Node14 -->
<g id="node14" class="node"><title>Node14</title>
<polygon fill="white" stroke="#bfbfbf" points="476.5,-0.5 476.5,-19.5 585.5,-19.5 585.5,-0.5 476.5,-0.5"/>
<text text-anchor="middle" x="531" y="-7.5" font-family="Helvetica,sans-Serif" font-size="10.00">pcl_ros/point_cloud.h</text>
</g>
<!-- Node1&#45;&gt;Node14 -->
<g id="edge53" class="edge"><title>Node1&#45;&gt;Node14</title>
<path fill="none" stroke="midnightblue" d="M2445.49,-268.852C2139.87,-267.924 753.825,-261.66 566,-224 484.591,-207.677 438.821,-224.568 392,-156 354.497,-101.079 450.01,-47.5161 501.169,-23.767"/>
<polygon fill="midnightblue" stroke="midnightblue" points="502.798,-26.8714 510.46,-19.5543 499.907,-20.4961 502.798,-26.8714"/>
</g>
<!-- Node17 -->
<g id="node17" class="node"><title>Node17</title>
<polygon fill="white" stroke="#bfbfbf" points="457,-62.5 457,-81.5 549,-81.5 549,-62.5 457,-62.5"/>
<text text-anchor="middle" x="503" y="-69.5" font-family="Helvetica,sans-Serif" font-size="10.00">qtconcurrentrun.h</text>
</g>
<!-- Node1&#45;&gt;Node17 -->
<g id="edge47" class="edge"><title>Node1&#45;&gt;Node17</title>
<path fill="none" stroke="midnightblue" d="M2445.49,-268.1C2110.71,-262.754 474.589,-232.75 403,-156 376.754,-127.862 429.86,-100.378 468.238,-85.1645"/>
<polygon fill="midnightblue" stroke="midnightblue" points="469.536,-88.4155 477.621,-81.5682 467.031,-81.8792 469.536,-88.4155"/>
</g>
<!-- Node29 -->
<g id="node29" class="node"><title>Node29</title>
<polygon fill="white" stroke="#bfbfbf" points="2212,-130.5 2212,-149.5 2252,-149.5 2252,-130.5 2212,-130.5"/>
<text text-anchor="middle" x="2232" y="-137.5" font-family="Helvetica,sans-Serif" font-size="10.00">utility</text>
</g>
<!-- Node1&#45;&gt;Node29 -->
<g id="edge49" class="edge"><title>Node1&#45;&gt;Node29</title>
<path fill="none" stroke="midnightblue" d="M2445.42,-268.377C2399.27,-265.264 2335.56,-254.985 2289,-224 2264.95,-207.992 2248.19,-178.053 2239.34,-158.847"/>
<polygon fill="midnightblue" stroke="midnightblue" points="2242.54,-157.439 2235.33,-149.675 2236.13,-160.24 2242.54,-157.439"/>
</g>
<!-- Node30 -->
<g id="node30" class="node"><title>Node30</title>
<polygon fill="white" stroke="#bfbfbf" points="2270,-130.5 2270,-149.5 2410,-149.5 2410,-130.5 2270,-130.5"/>
<text text-anchor="middle" x="2340" y="-137.5" font-family="Helvetica,sans-Serif" font-size="10.00">g2o/core/sparse_optimizer.h</text>
</g>
<!-- Node1&#45;&gt;Node30 -->
<g id="edge62" class="edge"><title>Node1&#45;&gt;Node30</title>
<path fill="none" stroke="midnightblue" d="M2445.26,-264.141C2391.12,-258.35 2317.11,-246.49 2299,-224 2282.31,-203.265 2304.38,-174.616 2322.04,-156.974"/>
<polygon fill="midnightblue" stroke="midnightblue" points="2324.85,-159.135 2329.69,-149.711 2320.03,-154.058 2324.85,-159.135"/>
</g>
<!-- Node34 -->
<g id="node34" class="node"><title>Node34</title>
<g id="a_node34"><a xlink:href="../../d4/d08/misc_8h.html" target="_top" xlink:title="misc.h">
<polygon fill="white" stroke="red" points="2061,-198.5 2061,-217.5 2107,-217.5 2107,-198.5 2061,-198.5"/>
<text text-anchor="middle" x="2084" y="-205.5" font-family="Helvetica,sans-Serif" font-size="10.00">misc.h</text>
</a>
</g>
</g>
<!-- Node1&#45;&gt;Node34 -->
<g id="edge43" class="edge"><title>Node1&#45;&gt;Node34</title>
<path fill="none" stroke="midnightblue" d="M2445.4,-267.806C2368.28,-264.973 2230.36,-255.501 2117,-224 2114.51,-223.307 2111.96,-222.45 2109.45,-221.499"/>
<polygon fill="midnightblue" stroke="midnightblue" points="2110.64,-218.204 2100.07,-217.515 2107.91,-224.647 2110.64,-218.204"/>
</g>
<!-- Node35 -->
<g id="node35" class="node"><title>Node35</title>
<polygon fill="white" stroke="#bfbfbf" points="2341,-198.5 2341,-217.5 2395,-217.5 2395,-198.5 2341,-198.5"/>
<text text-anchor="middle" x="2368" y="-205.5" font-family="Helvetica,sans-Serif" font-size="10.00">QThread</text>
</g>
<!-- Node1&#45;&gt;Node35 -->
<g id="edge46" class="edge"><title>Node1&#45;&gt;Node35</title>
<path fill="none" stroke="midnightblue" d="M2485.37,-260.403C2462.18,-250.245 2423.38,-233.255 2396.79,-221.607"/>
<polygon fill="midnightblue" stroke="midnightblue" points="2398.16,-218.386 2387.59,-217.581 2395.35,-224.798 2398.16,-218.386"/>
</g>
<!-- Node36 -->
<g id="node36" class="node"><title>Node36</title>
<polygon fill="white" stroke="#bfbfbf" points="2413,-198.5 2413,-217.5 2507,-217.5 2507,-198.5 2413,-198.5"/>
<text text-anchor="middle" x="2460" y="-205.5" font-family="Helvetica,sans-Serif" font-size="10.00">QtConcurrentMap</text>
</g>
<!-- Node1&#45;&gt;Node36 -->
<g id="edge48" class="edge"><title>Node1&#45;&gt;Node36</title>
<path fill="none" stroke="midnightblue" d="M2498.55,-260.403C2491.8,-251.403 2481.03,-237.041 2472.59,-225.782"/>
<polygon fill="midnightblue" stroke="midnightblue" points="2475.24,-223.481 2466.44,-217.581 2469.64,-227.681 2475.24,-223.481"/>
</g>
<!-- Node37 -->
<g id="node37" class="node"><title>Node37</title>
<polygon fill="white" stroke="#bfbfbf" points="2525,-198.5 2525,-217.5 2575,-217.5 2575,-198.5 2525,-198.5"/>
<text text-anchor="middle" x="2550" y="-205.5" font-family="Helvetica,sans-Serif" font-size="10.00">fstream</text>
</g>
<!-- Node1&#45;&gt;Node37 -->
<g id="edge50" class="edge"><title>Node1&#45;&gt;Node37</title>
<path fill="none" stroke="midnightblue" d="M2511.45,-260.403C2518.2,-251.403 2528.97,-237.041 2537.41,-225.782"/>
<polygon fill="midnightblue" stroke="midnightblue" points="2540.36,-227.681 2543.56,-217.581 2534.76,-223.481 2540.36,-227.681"/>
</g>
<!-- Node38 -->
<g id="node38" class="node"><title>Node38</title>
<polygon fill="white" stroke="#bfbfbf" points="2593,-198.5 2593,-217.5 2633,-217.5 2633,-198.5 2593,-198.5"/>
<text text-anchor="middle" x="2613" y="-205.5" font-family="Helvetica,sans-Serif" font-size="10.00">limits</text>
</g>
<!-- Node1&#45;&gt;Node38 -->
<g id="edge51" class="edge"><title>Node1&#45;&gt;Node38</title>
<path fill="none" stroke="midnightblue" d="M2520.47,-260.403C2538.28,-250.512 2567.74,-234.144 2588.63,-222.538"/>
<polygon fill="midnightblue" stroke="midnightblue" points="2590.51,-225.497 2597.55,-217.581 2587.11,-219.378 2590.51,-225.497"/>
</g>
<!-- Node39 -->
<g id="node39" class="node"><title>Node39</title>
<polygon fill="white" stroke="#bfbfbf" points="2651.5,-198.5 2651.5,-217.5 2746.5,-217.5 2746.5,-198.5 2651.5,-198.5"/>
<text text-anchor="middle" x="2699" y="-205.5" font-family="Helvetica,sans-Serif" font-size="10.00">boost/foreach.hpp</text>
</g>
<!-- Node1&#45;&gt;Node39 -->
<g id="edge52" class="edge"><title>Node1&#45;&gt;Node39</title>
<path fill="none" stroke="midnightblue" d="M2532.8,-260.403C2566.65,-249.933 2623.97,-232.205 2661.65,-220.55"/>
<polygon fill="midnightblue" stroke="midnightblue" points="2662.74,-223.879 2671.26,-217.581 2660.67,-217.192 2662.74,-223.879"/>
</g>
<!-- Node40 -->
<g id="node40" class="node"><title>Node40</title>
<polygon fill="white" stroke="#bfbfbf" points="2765,-198.5 2765,-217.5 2905,-217.5 2905,-198.5 2765,-198.5"/>
<text text-anchor="middle" x="2835" y="-205.5" font-family="Helvetica,sans-Serif" font-size="10.00">g2o/types/slam3d/se3quat.h</text>
</g>
<!-- Node1&#45;&gt;Node40 -->
<g id="edge54" class="edge"><title>Node1&#45;&gt;Node40</title>
<path fill="none" stroke="midnightblue" d="M2552.95,-260.476C2603.29,-251.502 2684.73,-236.911 2755,-224 2763,-222.529 2771.45,-220.961 2779.75,-219.414"/>
<polygon fill="midnightblue" stroke="midnightblue" points="2780.55,-222.824 2789.74,-217.545 2779.27,-215.943 2780.55,-222.824"/>
</g>
<!-- Node41 -->
<g id="node41" class="node"><title>Node41</title>
<polygon fill="white" stroke="#bfbfbf" points="2923,-193 2923,-223 3041,-223 3041,-193 2923,-193"/>
<text text-anchor="start" x="2931" y="-211" font-family="Helvetica,sans-Serif" font-size="10.00">g2o/types/slam3d/edge</text>
<text text-anchor="middle" x="2982" y="-200" font-family="Helvetica,sans-Serif" font-size="10.00">_se3.h</text>
</g>
<!-- Node1&#45;&gt;Node41 -->
<g id="edge55" class="edge"><title>Node1&#45;&gt;Node41</title>
<path fill="none" stroke="midnightblue" d="M2564.54,-264.469C2642.37,-258.098 2783.1,-245.043 2912.63,-224.118"/>
<polygon fill="midnightblue" stroke="midnightblue" points="2913.43,-227.535 2922.73,-222.467 2912.3,-220.626 2913.43,-227.535"/>
</g>
<!-- Node42 -->
<g id="node42" class="node"><title>Node42</title>
<polygon fill="white" stroke="#bfbfbf" points="3059,-198.5 3059,-217.5 3179,-217.5 3179,-198.5 3059,-198.5"/>
<text text-anchor="middle" x="3119" y="-205.5" font-family="Helvetica,sans-Serif" font-size="10.00">g2o/core/block_solver.h</text>
</g>
<!-- Node1&#45;&gt;Node42 -->
<g id="edge56" class="edge"><title>Node1&#45;&gt;Node42</title>
<path fill="none" stroke="midnightblue" d="M2564.57,-266.651C2665.1,-262.113 2874.64,-250.184 3050,-224 3057.84,-222.829 3066.13,-221.292 3074.13,-219.649"/>
<polygon fill="midnightblue" stroke="midnightblue" points="3075.01,-223.039 3084.06,-217.53 3073.55,-216.193 3075.01,-223.039"/>
</g>
<!-- Node43 -->
<g id="node43" class="node"><title>Node43</title>
<polygon fill="white" stroke="#bfbfbf" points="3197.5,-193 3197.5,-223 3304.5,-223 3304.5,-193 3197.5,-193"/>
<text text-anchor="start" x="3205.5" y="-211" font-family="Helvetica,sans-Serif" font-size="10.00">g2o/core/optimizable</text>
<text text-anchor="middle" x="3251" y="-200" font-family="Helvetica,sans-Serif" font-size="10.00">_graph.h</text>
</g>
<!-- Node1&#45;&gt;Node43 -->
<g id="edge57" class="edge"><title>Node1&#45;&gt;Node43</title>
<path fill="none" stroke="midnightblue" d="M2564.65,-268.351C2683.64,-266.334 2958.73,-258.045 3187,-224 3187.11,-223.984 3187.21,-223.968 3187.32,-223.952"/>
<polygon fill="midnightblue" stroke="midnightblue" points="3188.07,-227.374 3197.35,-222.249 3186.9,-220.473 3188.07,-227.374"/>
</g>
<!-- Node44 -->
<g id="node44" class="node"><title>Node44</title>
<polygon fill="white" stroke="#bfbfbf" points="3323,-193 3323,-223 3445,-223 3445,-193 3323,-193"/>
<text text-anchor="start" x="3331" y="-211" font-family="Helvetica,sans-Serif" font-size="10.00">g2o/solvers/csparse</text>
<text text-anchor="middle" x="3384" y="-200" font-family="Helvetica,sans-Serif" font-size="10.00">/linear_solver_csparse.h</text>
</g>
<!-- Node1&#45;&gt;Node44 -->
<g id="edge58" class="edge"><title>Node1&#45;&gt;Node44</title>
<path fill="none" stroke="midnightblue" d="M2564.59,-268.784C2698.81,-267.62 3034.8,-260.915 3313,-224 3313.1,-223.987 3313.2,-223.973 3313.3,-223.959"/>
<polygon fill="midnightblue" stroke="midnightblue" points="3313.54,-227.463 3322.91,-222.524 3312.5,-220.54 3313.54,-227.463"/>
</g>
<!-- Node45 -->
<g id="node45" class="node"><title>Node45</title>
<polygon fill="white" stroke="#bfbfbf" points="3463.5,-193 3463.5,-223 3588.5,-223 3588.5,-193 3463.5,-193"/>
<text text-anchor="start" x="3471.5" y="-211" font-family="Helvetica,sans-Serif" font-size="10.00">g2o/solvers/cholmod</text>
<text text-anchor="middle" x="3526" y="-200" font-family="Helvetica,sans-Serif" font-size="10.00">/linear_solver_cholmod.h</text>
</g>
<!-- Node1&#45;&gt;Node45 -->
<g id="edge59" class="edge"><title>Node1&#45;&gt;Node45</title>
<path fill="none" stroke="midnightblue" d="M2564.69,-269.433C2713.31,-269.811 3111.91,-266.532 3453.19,-223.949"/>
<polygon fill="midnightblue" stroke="midnightblue" points="3453.79,-227.401 3463.27,-222.677 3452.91,-220.456 3453.79,-227.401"/>
</g>
<!-- Node46 -->
<g id="node46" class="node"><title>Node46</title>
<polygon fill="white" stroke="#bfbfbf" points="3607,-193 3607,-223 3719,-223 3719,-193 3607,-193"/>
<text text-anchor="start" x="3615" y="-211" font-family="Helvetica,sans-Serif" font-size="10.00">g2o/solvers/pcg/linear</text>
<text text-anchor="middle" x="3663" y="-200" font-family="Helvetica,sans-Serif" font-size="10.00">_solver_pcg.h</text>
</g>
<!-- Node1&#45;&gt;Node46 -->
<g id="edge60" class="edge"><title>Node1&#45;&gt;Node46</title>
<path fill="none" stroke="midnightblue" d="M2564.84,-267.972C2762.74,-264.345 3394.93,-250.898 3597,-224 3597.1,-223.986 3597.2,-223.973 3597.31,-223.959"/>
<polygon fill="midnightblue" stroke="midnightblue" points="3597.61,-227.454 3606.96,-222.468 3596.54,-220.536 3597.61,-227.454"/>
</g>
<!-- Node47 -->
<g id="node47" class="node"><title>Node47</title>
<polygon fill="white" stroke="#bfbfbf" points="3737,-193 3737,-223 3859,-223 3859,-193 3737,-193"/>
<text text-anchor="start" x="3745" y="-211" font-family="Helvetica,sans-Serif" font-size="10.00">g2o/solvers/dense/linear</text>
<text text-anchor="middle" x="3798" y="-200" font-family="Helvetica,sans-Serif" font-size="10.00">_solver_dense.h</text>
</g>
<!-- Node1&#45;&gt;Node47 -->
<g id="edge61" class="edge"><title>Node1&#45;&gt;Node47</title>
<path fill="none" stroke="midnightblue" d="M2564.79,-268.156C2777.65,-264.939 3498.12,-252.18 3727,-224 3727.1,-223.987 3727.2,-223.975 3727.3,-223.962"/>
<polygon fill="midnightblue" stroke="midnightblue" points="3727.51,-227.468 3736.92,-222.598 3726.53,-220.537 3727.51,-227.468"/>
</g>
<!-- Node48 -->
<g id="node48" class="node"><title>Node48</title>
<polygon fill="white" stroke="#bfbfbf" points="3877,-193 3877,-223 3987,-223 3987,-193 3877,-193"/>
<text text-anchor="start" x="3885" y="-211" font-family="Helvetica,sans-Serif" font-size="10.00">g2o/core/optimization</text>
<text text-anchor="middle" x="3932" y="-200" font-family="Helvetica,sans-Serif" font-size="10.00">_algorithm_dogleg.h</text>
</g>
<!-- Node1&#45;&gt;Node48 -->
<g id="edge63" class="edge"><title>Node1&#45;&gt;Node48</title>
<path fill="none" stroke="midnightblue" d="M2564.51,-268.596C2789.72,-266.828 3590.52,-258.311 3866.96,-223.912"/>
<polygon fill="midnightblue" stroke="midnightblue" points="3867.5,-227.372 3876.97,-222.624 3866.6,-220.429 3867.5,-227.372"/>
</g>
<!-- Node49 -->
<g id="node49" class="node"><title>Node49</title>
<polygon fill="white" stroke="#bfbfbf" points="4005.5,-193 4005.5,-223 4122.5,-223 4122.5,-193 4005.5,-193"/>
<text text-anchor="start" x="4013.5" y="-211" font-family="Helvetica,sans-Serif" font-size="10.00">g2o/core/optimization</text>
<text text-anchor="middle" x="4064" y="-200" font-family="Helvetica,sans-Serif" font-size="10.00">_algorithm_levenberg.h</text>
</g>
<!-- Node1&#45;&gt;Node49 -->
<g id="edge64" class="edge"><title>Node1&#45;&gt;Node49</title>
<path fill="none" stroke="midnightblue" d="M2564.65,-268.688C2803.44,-267.212 3691.6,-259.488 3995.03,-223.911"/>
<polygon fill="midnightblue" stroke="midnightblue" points="3995.64,-227.364 4005.15,-222.688 3994.8,-220.415 3995.64,-227.364"/>
</g>
<!-- Node50 -->
<g id="node50" class="node"><title>Node50</title>
<g id="a_node50"><a xlink:href="../../dd/de1/scoped__timer_8h.html" target="_top" xlink:title="scoped_timer.h">
<polygon fill="white" stroke="black" points="2125.5,-198.5 2125.5,-217.5 2208.5,-217.5 2208.5,-198.5 2125.5,-198.5"/>
<text text-anchor="middle" x="2167" y="-205.5" font-family="Helvetica,sans-Serif" font-size="10.00">scoped_timer.h</text>
</a>
</g>
</g>
<!-- Node1&#45;&gt;Node50 -->
<g id="edge65" class="edge"><title>Node1&#45;&gt;Node50</title>
<path fill="none" stroke="midnightblue" d="M2445.25,-261.295C2387.94,-253.473 2299.13,-240.224 2223,-224 2217.59,-222.846 2211.91,-221.496 2206.34,-220.086"/>
<polygon fill="midnightblue" stroke="midnightblue" points="2207.07,-216.658 2196.51,-217.516 2205.3,-223.43 2207.07,-216.658"/>
</g>
<!-- Node6 -->
<g id="node6" class="node"><title>Node6</title>
<polygon fill="white" stroke="#bfbfbf" points="1078.5,-0.5 1078.5,-19.5 1133.5,-19.5 1133.5,-0.5 1078.5,-0.5"/>
<text text-anchor="middle" x="1106" y="-7.5" font-family="Helvetica,sans-Serif" font-size="10.00">ros/ros.h</text>
</g>
<!-- Node5&#45;&gt;Node6 -->
<g id="edge5" class="edge"><title>Node5&#45;&gt;Node6</title>
<path fill="none" stroke="midnightblue" d="M1387.93,-205.532C1316.05,-202.163 1182.39,-191.207 1153,-156 1143.89,-145.082 1147.13,-136.956 1153,-124 1163,-101.909 1184,-110.091 1194,-88 1199.87,-75.0437 1201.42,-68.1319 1194,-56 1182.87,-37.8017 1161.79,-26.6658 1143.06,-20.0249"/>
<polygon fill="midnightblue" stroke="midnightblue" points="1144.13,-16.6935 1133.54,-16.9482 1141.98,-23.3542 1144.13,-16.6935"/>
</g>
<!-- Node7 -->
<g id="node7" class="node"><title>Node7</title>
<polygon fill="white" stroke="#bfbfbf" points="1162.5,-130.5 1162.5,-149.5 1293.5,-149.5 1293.5,-130.5 1162.5,-130.5"/>
<text text-anchor="middle" x="1228" y="-137.5" font-family="Helvetica,sans-Serif" font-size="10.00">tf/transform_broadcaster.h</text>
</g>
<!-- Node5&#45;&gt;Node7 -->
<g id="edge6" class="edge"><title>Node5&#45;&gt;Node7</title>
<path fill="none" stroke="midnightblue" d="M1407.07,-198.372C1370.5,-186.654 1305.01,-165.674 1264.18,-152.591"/>
<polygon fill="midnightblue" stroke="midnightblue" points="1265.2,-149.244 1254.61,-149.526 1263.07,-155.91 1265.2,-149.244"/>
</g>
<!-- Node8 -->
<g id="node8" class="node"><title>Node8</title>
<g id="a_node8"><a xlink:href="../../d1/d77/node_8h.html" target="_top" xlink:title="node.h">
<polygon fill="white" stroke="red" points="1022,-130.5 1022,-149.5 1068,-149.5 1068,-130.5 1022,-130.5"/>
<text text-anchor="middle" x="1045" y="-137.5" font-family="Helvetica,sans-Serif" font-size="10.00">node.h</text>
</a>
</g>
</g>
<!-- Node5&#45;&gt;Node8 -->
<g id="edge7" class="edge"><title>Node5&#45;&gt;Node8</title>
<path fill="none" stroke="midnightblue" d="M1388,-203.89C1320.08,-198.505 1189.43,-185.1 1082,-156 1079.02,-155.192 1075.95,-154.212 1072.93,-153.142"/>
<polygon fill="midnightblue" stroke="midnightblue" points="1074.11,-149.848 1063.52,-149.528 1071.6,-156.382 1074.11,-149.848"/>
</g>
<!-- Node9 -->
<g id="node9" class="node"><title>Node9</title>
<polygon fill="white" stroke="#bfbfbf" points="878,-62.5 878,-81.5 994,-81.5 994,-62.5 878,-62.5"/>
<text text-anchor="middle" x="936" y="-69.5" font-family="Helvetica,sans-Serif" font-size="10.00">opencv2/core/core.hpp</text>
</g>
<!-- Node5&#45;&gt;Node9 -->
<g id="edge23" class="edge"><title>Node5&#45;&gt;Node9</title>
<path fill="none" stroke="midnightblue" d="M1387.71,-205.887C1290.41,-202.853 1068.29,-192.071 1003,-156 975.945,-141.054 955.689,-110.315 944.866,-90.7306"/>
<polygon fill="midnightblue" stroke="midnightblue" points="947.839,-88.8637 940.08,-81.6484 941.646,-92.1269 947.839,-88.8637"/>
</g>
<!-- Node5&#45;&gt;Node10 -->
<g id="edge24" class="edge"><title>Node5&#45;&gt;Node10</title>
<path fill="none" stroke="midnightblue" d="M1480.05,-206.062C1611.14,-202.969 1979.56,-191.202 2020,-156 2036.48,-141.653 2040.26,-116.203 2040.52,-97.2548"/>
<polygon fill="midnightblue" stroke="midnightblue" points="2044.02,-97.1828 2040.34,-87.2458 2037.02,-97.3058 2044.02,-97.1828"/>
</g>
<!-- Node11 -->
<g id="node11" class="node"><title>Node11</title>
<polygon fill="white" stroke="#bfbfbf" points="1012.5,-62.5 1012.5,-81.5 1077.5,-81.5 1077.5,-62.5 1012.5,-62.5"/>
<text text-anchor="middle" x="1045" y="-69.5" font-family="Helvetica,sans-Serif" font-size="10.00">Eigen/Core</text>
</g>
<!-- Node5&#45;&gt;Node11 -->
<g id="edge21" class="edge"><title>Node5&#45;&gt;Node11</title>
<path fill="none" stroke="midnightblue" d="M1387.84,-204.804C1283.69,-199.376 1037.57,-183.723 1013,-156 996.1,-136.929 1014.28,-107.962 1029.34,-89.7777"/>
<polygon fill="midnightblue" stroke="midnightblue" points="1032.36,-91.638 1036.31,-81.8078 1027.09,-87.028 1032.36,-91.638"/>
</g>
<!-- Node12 -->
<g id="node12" class="node"><title>Node12</title>
<g id="a_node12"><a xlink:href="../../d2/de7/parameter__server_8h.html" target="_top" xlink:title="parameter_server.h">
<polygon fill="white" stroke="red" points="758.5,-62.5 758.5,-81.5 859.5,-81.5 859.5,-62.5 758.5,-62.5"/>
<text text-anchor="middle" x="809" y="-69.5" font-family="Helvetica,sans-Serif" font-size="10.00">parameter_server.h</text>
</a>
</g>
</g>
<!-- Node5&#45;&gt;Node12 -->
<g id="edge38" class="edge"><title>Node5&#45;&gt;Node12</title>
<path fill="none" stroke="midnightblue" d="M1387.9,-207.707C1302.49,-207.777 1114.71,-202.087 965,-156 937.95,-147.673 868.854,-108.233 832.373,-86.8544"/>
<polygon fill="midnightblue" stroke="midnightblue" points="833.821,-83.6457 823.427,-81.591 830.271,-89.6788 833.821,-83.6457"/>
</g>
<!-- Node13 -->
<g id="node13" class="node"><title>Node13</title>
<polygon fill="white" stroke="#bfbfbf" points="748.5,-0.5 748.5,-19.5 789.5,-19.5 789.5,-0.5 748.5,-0.5"/>
<text text-anchor="middle" x="769" y="-7.5" font-family="Helvetica,sans-Serif" font-size="10.00">string</text>
</g>
<!-- Node5&#45;&gt;Node13 -->
<g id="edge34" class="edge"><title>Node5&#45;&gt;Node13</title>
<path fill="none" stroke="midnightblue" d="M1387.58,-206.362C1273.59,-204.201 982.747,-194.922 895,-156 875.733,-147.454 878.216,-134.603 860,-124 815.177,-97.9097 779.496,-129.95 749,-88 736.237,-70.443 746.681,-45.4238 756.649,-28.7209"/>
<polygon fill="midnightblue" stroke="midnightblue" points="759.815,-30.2697 762.284,-19.9667 753.929,-26.4809 759.815,-30.2697"/>
</g>
<!-- Node15 -->
<g id="node15" class="node"><title>Node15</title>
<polygon fill="white" stroke="#bfbfbf" points="1134.5,-62.5 1134.5,-81.5 1185.5,-81.5 1185.5,-62.5 1134.5,-62.5"/>
<text text-anchor="middle" x="1160" y="-69.5" font-family="Helvetica,sans-Serif" font-size="10.00">QMutex</text>
</g>
<!-- Node5&#45;&gt;Node15 -->
<g id="edge31" class="edge"><title>Node5&#45;&gt;Node15</title>
<path fill="none" stroke="midnightblue" d="M1388,-206.525C1309.26,-204.629 1153.86,-195.805 1120,-156 1102.74,-135.714 1124.85,-106.706 1142.42,-88.9026"/>
<polygon fill="midnightblue" stroke="midnightblue" points="1145.25,-91.0422 1150.02,-81.5826 1140.39,-86.0019 1145.25,-91.0422"/>
</g>
<!-- Node16 -->
<g id="node16" class="node"><title>Node16</title>
<g id="a_node16"><a xlink:href="../../d5/d82/ColorOctomapServer_8h.html" target="_top" xlink:title="ColorOctomapServer.h">
<polygon fill="white" stroke="red" points="736,-130.5 736,-149.5 852,-149.5 852,-130.5 736,-130.5"/>
<text text-anchor="middle" x="794" y="-137.5" font-family="Helvetica,sans-Serif" font-size="10.00">ColorOctomapServer.h</text>
</a>
</g>
</g>
<!-- Node5&#45;&gt;Node16 -->
<g id="edge17" class="edge"><title>Node5&#45;&gt;Node16</title>
<path fill="none" stroke="midnightblue" d="M1387.77,-204.669C1290.7,-199.374 1058.68,-184.623 866,-156 857.829,-154.786 849.19,-153.228 840.841,-151.577"/>
<polygon fill="midnightblue" stroke="midnightblue" points="841.35,-148.109 830.851,-149.534 839.947,-154.967 841.35,-148.109"/>
</g>
<!-- Node18 -->
<g id="node18" class="node"><title>Node18</title>
<polygon fill="white" stroke="#bfbfbf" points="650,-62.5 650,-81.5 702,-81.5 702,-62.5 650,-62.5"/>
<text text-anchor="middle" x="676" y="-69.5" font-family="Helvetica,sans-Serif" font-size="10.00">memory</text>
</g>
<!-- Node5&#45;&gt;Node18 -->
<g id="edge36" class="edge"><title>Node5&#45;&gt;Node18</title>
<path fill="none" stroke="midnightblue" d="M1387.96,-206.098C1240.04,-202.869 783.302,-190.203 727,-156 703.096,-141.478 688.793,-111.082 681.662,-91.3806"/>
<polygon fill="midnightblue" stroke="midnightblue" points="684.916,-90.0762 678.423,-81.7046 678.278,-92.2984 684.916,-90.0762"/>
</g>
<!-- Node19 -->
<g id="node19" class="node"><title>Node19</title>
<polygon fill="white" stroke="#bfbfbf" points="1311.5,-130.5 1311.5,-149.5 1398.5,-149.5 1398.5,-130.5 1311.5,-130.5"/>
<text text-anchor="middle" x="1355" y="-137.5" font-family="Helvetica,sans-Serif" font-size="10.00">Eigen/Geometry</text>
</g>
<!-- Node5&#45;&gt;Node19 -->
<g id="edge22" class="edge"><title>Node5&#45;&gt;Node19</title>
<path fill="none" stroke="midnightblue" d="M1423.67,-198.372C1410.9,-187.699 1388.93,-169.343 1373.28,-156.268"/>
<polygon fill="midnightblue" stroke="midnightblue" points="1375.25,-153.356 1365.33,-149.63 1370.76,-158.728 1375.25,-153.356"/>
</g>
<!-- Node20 -->
<g id="node20" class="node"><title>Node20</title>
<polygon fill="white" stroke="#bfbfbf" points="1416.5,-130.5 1416.5,-149.5 1451.5,-149.5 1451.5,-130.5 1416.5,-130.5"/>
<text text-anchor="middle" x="1434" y="-137.5" font-family="Helvetica,sans-Serif" font-size="10.00">map</text>
</g>
<!-- Node5&#45;&gt;Node20 -->
<g id="edge25" class="edge"><title>Node5&#45;&gt;Node20</title>
<path fill="none" stroke="midnightblue" d="M1434,-198.372C1434,-188.643 1434,-172.528 1434,-159.85"/>
<polygon fill="midnightblue" stroke="midnightblue" points="1437.5,-159.841 1434,-149.841 1430.5,-159.841 1437.5,-159.841"/>
</g>
<!-- Node21 -->
<g id="node21" class="node"><title>Node21</title>
<polygon fill="white" stroke="#bfbfbf" points="1469.5,-130.5 1469.5,-149.5 1522.5,-149.5 1522.5,-130.5 1469.5,-130.5"/>
<text text-anchor="middle" x="1496" y="-137.5" font-family="Helvetica,sans-Serif" font-size="10.00">QObject</text>
</g>
<!-- Node5&#45;&gt;Node21 -->
<g id="edge26" class="edge"><title>Node5&#45;&gt;Node21</title>
<path fill="none" stroke="midnightblue" d="M1442.11,-198.372C1451.89,-187.955 1468.55,-170.217 1480.77,-157.216"/>
<polygon fill="midnightblue" stroke="midnightblue" points="1483.4,-159.526 1487.69,-149.841 1478.3,-154.733 1483.4,-159.526"/>
</g>
<!-- Node22 -->
<g id="node22" class="node"><title>Node22</title>
<polygon fill="white" stroke="#bfbfbf" points="1541,-130.5 1541,-149.5 1591,-149.5 1591,-130.5 1541,-130.5"/>
<text text-anchor="middle" x="1566" y="-137.5" font-family="Helvetica,sans-Serif" font-size="10.00">QString</text>
</g>
<!-- Node5&#45;&gt;Node22 -->
<g id="edge27" class="edge"><title>Node5&#45;&gt;Node22</title>
<path fill="none" stroke="midnightblue" d="M1451.26,-198.372C1473.79,-187.106 1513.44,-167.279 1539.72,-154.14"/>
<polygon fill="midnightblue" stroke="midnightblue" points="1541.36,-157.233 1548.74,-149.63 1538.23,-150.972 1541.36,-157.233"/>
</g>
<!-- Node23 -->
<g id="node23" class="node"><title>Node23</title>
<polygon fill="white" stroke="#bfbfbf" points="2067.5,-130.5 2067.5,-149.5 2134.5,-149.5 2134.5,-130.5 2067.5,-130.5"/>
<text text-anchor="middle" x="2101" y="-137.5" font-family="Helvetica,sans-Serif" font-size="10.00">QMatrix4x4</text>
</g>
<!-- Node5&#45;&gt;Node23 -->
<g id="edge28" class="edge"><title>Node5&#45;&gt;Node23</title>
<path fill="none" stroke="midnightblue" d="M1480.29,-206.659C1583.88,-205.143 1841.86,-197.165 2053,-156 2057.78,-155.068 2062.76,-153.829 2067.62,-152.461"/>
<polygon fill="midnightblue" stroke="midnightblue" points="2068.78,-155.77 2077.34,-149.531 2066.75,-149.068 2068.78,-155.77"/>
</g>
<!-- Node24 -->
<g id="node24" class="node"><title>Node24</title>
<polygon fill="white" stroke="#bfbfbf" points="1609,-130.5 1609,-149.5 1649,-149.5 1649,-130.5 1609,-130.5"/>
<text text-anchor="middle" x="1629" y="-137.5" font-family="Helvetica,sans-Serif" font-size="10.00">QList</text>
</g>
<!-- Node5&#45;&gt;Node24 -->
<g id="edge29" class="edge"><title>Node5&#45;&gt;Node24</title>
<path fill="none" stroke="midnightblue" d="M1468,-198.473C1502,-189.504 1555.48,-174.18 1600,-156 1601.41,-155.424 1602.84,-154.804 1604.28,-154.155"/>
<polygon fill="midnightblue" stroke="midnightblue" points="1606.13,-157.146 1613.59,-149.621 1603.07,-150.853 1606.13,-157.146"/>
</g>
<!-- Node25 -->
<g id="node25" class="node"><title>Node25</title>
<polygon fill="white" stroke="#bfbfbf" points="1667.5,-130.5 1667.5,-149.5 1710.5,-149.5 1710.5,-130.5 1667.5,-130.5"/>
<text text-anchor="middle" x="1689" y="-137.5" font-family="Helvetica,sans-Serif" font-size="10.00">QMap</text>
</g>
<!-- Node5&#45;&gt;Node25 -->
<g id="edge30" class="edge"><title>Node5&#45;&gt;Node25</title>
<path fill="none" stroke="midnightblue" d="M1480.33,-199.621C1526.24,-191.576 1598.16,-176.985 1658,-156 1659.86,-155.347 1661.76,-154.613 1663.65,-153.83"/>
<polygon fill="midnightblue" stroke="midnightblue" points="1665.22,-156.963 1672.89,-149.652 1662.33,-150.585 1665.22,-156.963"/>
</g>
<!-- Node26 -->
<g id="node26" class="node"><title>Node26</title>
<polygon fill="white" stroke="#bfbfbf" points="1729,-130.5 1729,-149.5 1783,-149.5 1783,-130.5 1729,-130.5"/>
<text text-anchor="middle" x="1756" y="-137.5" font-family="Helvetica,sans-Serif" font-size="10.00">iostream</text>
</g>
<!-- Node5&#45;&gt;Node26 -->
<g id="edge32" class="edge"><title>Node5&#45;&gt;Node26</title>
<path fill="none" stroke="midnightblue" d="M1480.08,-201.753C1537,-194.59 1636.42,-179.846 1719,-156 1721.81,-155.189 1724.7,-154.238 1727.56,-153.214"/>
<polygon fill="midnightblue" stroke="midnightblue" points="1728.99,-156.416 1737.06,-149.559 1726.47,-149.883 1728.99,-156.416"/>
</g>
<!-- Node27 -->
<g id="node27" class="node"><title>Node27</title>
<polygon fill="white" stroke="#bfbfbf" points="1801,-130.5 1801,-149.5 1853,-149.5 1853,-130.5 1801,-130.5"/>
<text text-anchor="middle" x="1827" y="-137.5" font-family="Helvetica,sans-Serif" font-size="10.00">sstream</text>
</g>
<!-- Node5&#45;&gt;Node27 -->
<g id="edge33" class="edge"><title>Node5&#45;&gt;Node27</title>
<path fill="none" stroke="midnightblue" d="M1480,-204.327C1548.93,-199.459 1682.58,-186.659 1792,-156 1794.65,-155.256 1797.37,-154.357 1800.06,-153.373"/>
<polygon fill="midnightblue" stroke="midnightblue" points="1801.56,-156.544 1809.52,-149.56 1798.94,-150.052 1801.56,-156.544"/>
</g>
<!-- Node28 -->
<g id="node28" class="node"><title>Node28</title>
<polygon fill="white" stroke="#bfbfbf" points="2152.5,-130.5 2152.5,-149.5 2193.5,-149.5 2193.5,-130.5 2152.5,-130.5"/>
<text text-anchor="middle" x="2173" y="-137.5" font-family="Helvetica,sans-Serif" font-size="10.00">ctime</text>
</g>
<!-- Node5&#45;&gt;Node28 -->
<g id="edge35" class="edge"><title>Node5&#45;&gt;Node28</title>
<path fill="none" stroke="midnightblue" d="M1480.38,-206.019C1617.21,-202.755 2017.44,-190.442 2143,-156 2145.19,-155.399 2147.41,-154.633 2149.6,-153.767"/>
<polygon fill="midnightblue" stroke="midnightblue" points="2151.19,-156.885 2158.81,-149.521 2148.26,-150.528 2151.19,-156.885"/>
</g>
<!-- Node5&#45;&gt;Node29 -->
<g id="edge37" class="edge"><title>Node5&#45;&gt;Node29</title>
<path fill="none" stroke="midnightblue" d="M1480.1,-206.321C1624.19,-203.826 2064.65,-193.27 2202,-156 2204.19,-155.405 2206.41,-154.644 2208.6,-153.78"/>
<polygon fill="midnightblue" stroke="midnightblue" points="2210.19,-156.899 2217.81,-149.538 2207.27,-150.541 2210.19,-156.899"/>
</g>
<!-- Node5&#45;&gt;Node30 -->
<g id="edge39" class="edge"><title>Node5&#45;&gt;Node30</title>
<path fill="none" stroke="midnightblue" d="M1480.37,-206.187C1606.32,-203.538 1965.18,-193.055 2261,-156 2270.56,-154.802 2280.71,-153.16 2290.43,-151.4"/>
<polygon fill="midnightblue" stroke="midnightblue" points="2291.19,-154.82 2300.37,-149.537 2289.9,-147.94 2291.19,-154.82"/>
</g>
<!-- Node31 -->
<g id="node31" class="node"><title>Node31</title>
<polygon fill="white" stroke="#bfbfbf" points="1871,-125 1871,-155 2011,-155 2011,-125 1871,-125"/>
<text text-anchor="start" x="1879" y="-143" font-family="Helvetica,sans-Serif" font-size="10.00">g2o/types/slam3d/parameter</text>
<text text-anchor="middle" x="1941" y="-132" font-family="Helvetica,sans-Serif" font-size="10.00">_camera.h</text>
</g>
<!-- Node5&#45;&gt;Node31 -->
<g id="edge40" class="edge"><title>Node5&#45;&gt;Node31</title>
<path fill="none" stroke="midnightblue" d="M1480.06,-202.565C1556.87,-194.94 1716.15,-178.148 1860.88,-156.111"/>
<polygon fill="midnightblue" stroke="midnightblue" points="1861.48,-159.56 1870.83,-154.583 1860.42,-152.641 1861.48,-159.56"/>
</g>
<!-- Node32 -->
<g id="node32" class="node"><title>Node32</title>
<polygon fill="white" stroke="#bfbfbf" points="412,-125 412,-155 536,-155 536,-125 412,-125"/>
<text text-anchor="start" x="420" y="-143" font-family="Helvetica,sans-Serif" font-size="10.00">g2o/types/slam2d/vertex</text>
<text text-anchor="middle" x="474" y="-132" font-family="Helvetica,sans-Serif" font-size="10.00">_se2.h</text>
</g>
<!-- Node5&#45;&gt;Node32 -->
<g id="edge41" class="edge"><title>Node5&#45;&gt;Node32</title>
<path fill="none" stroke="midnightblue" d="M1387.97,-206.803C1257.42,-205.724 873.621,-198.96 546.398,-156.051"/>
<polygon fill="midnightblue" stroke="midnightblue" points="546.619,-152.549 536.246,-154.705 545.699,-159.489 546.619,-152.549"/>
</g>
<!-- Node33 -->
<g id="node33" class="node"><title>Node33</title>
<polygon fill="white" stroke="#bfbfbf" points="554,-130.5 554,-149.5 680,-149.5 680,-130.5 554,-130.5"/>
<text text-anchor="middle" x="617" y="-137.5" font-family="Helvetica,sans-Serif" font-size="10.00">g2o/core/hyper_dijkstra.h</text>
</g>
<!-- Node5&#45;&gt;Node33 -->
<g id="edge42" class="edge"><title>Node5&#45;&gt;Node33</title>
<path fill="none" stroke="midnightblue" d="M1387.91,-205.802C1271.27,-202.343 955.106,-190.296 694,-156 684.877,-154.802 675.206,-153.191 665.912,-151.469"/>
<polygon fill="midnightblue" stroke="midnightblue" points="666.499,-148.018 656.019,-149.572 665.18,-154.893 666.499,-148.018"/>
</g>
<!-- Node8&#45;&gt;Node6 -->
<g id="edge8" class="edge"><title>Node8&#45;&gt;Node6</title>
<path fill="none" stroke="midnightblue" d="M1053.84,-130.424C1063.16,-120.896 1077.63,-104.648 1086,-88 1095.38,-69.33 1100.66,-45.8364 1103.41,-29.7399"/>
<polygon fill="midnightblue" stroke="midnightblue" points="1106.92,-29.9175 1104.98,-19.5013 1100,-28.8521 1106.92,-29.9175"/>
</g>
<!-- Node8&#45;&gt;Node9 -->
<g id="edge9" class="edge"><title>Node8&#45;&gt;Node9</title>
<path fill="none" stroke="midnightblue" d="M1030.75,-130.372C1012.47,-119.304 980.545,-99.9724 958.854,-86.838"/>
<polygon fill="midnightblue" stroke="midnightblue" points="960.62,-83.8161 950.253,-81.6305 956.995,-89.804 960.62,-83.8161"/>
</g>
<!-- Node8&#45;&gt;Node10 -->
<g id="edge10" class="edge"><title>Node8&#45;&gt;Node10</title>
<path fill="none" stroke="midnightblue" d="M1068.11,-135.241C1089.93,-131.822 1123.61,-126.882 1153,-124 1461.91,-93.7064 1833.32,-79.5082 1977.55,-74.8333"/>
<polygon fill="midnightblue" stroke="midnightblue" points="1978.07,-78.3187 1987.95,-74.5001 1977.84,-71.3223 1978.07,-78.3187"/>
</g>
<!-- Node8&#45;&gt;Node11 -->
<g id="edge11" class="edge"><title>Node8&#45;&gt;Node11</title>
<path fill="none" stroke="midnightblue" d="M1045,-130.372C1045,-120.643 1045,-104.528 1045,-91.8504"/>
<polygon fill="midnightblue" stroke="midnightblue" points="1048.5,-91.8411 1045,-81.8411 1041.5,-91.8412 1048.5,-91.8411"/>
</g>
<!-- Node8&#45;&gt;Node12 -->
<g id="edge12" class="edge"><title>Node8&#45;&gt;Node12</title>
<path fill="none" stroke="midnightblue" d="M1021.94,-132.551C981.902,-121.354 899.049,-98.1833 849.32,-84.2759"/>
<polygon fill="midnightblue" stroke="midnightblue" points="850.111,-80.863 839.538,-81.5404 848.226,-87.6044 850.111,-80.863"/>
</g>
<!-- Node8&#45;&gt;Node15 -->
<g id="edge16" class="edge"><title>Node8&#45;&gt;Node15</title>
<path fill="none" stroke="midnightblue" d="M1060.03,-130.372C1079.41,-119.254 1113.3,-99.7997 1136.19,-86.6624"/>
<polygon fill="midnightblue" stroke="midnightblue" points="1138.03,-89.6437 1144.96,-81.6305 1134.55,-83.5725 1138.03,-89.6437"/>
</g>
<!-- Node12&#45;&gt;Node6 -->
<g id="edge14" class="edge"><title>Node12&#45;&gt;Node6</title>
<path fill="none" stroke="midnightblue" d="M841.617,-62.4848C850.477,-60.2705 860.086,-57.9588 869,-56 938.973,-40.6236 1021.25,-25.7037 1068.15,-17.496"/>
<polygon fill="midnightblue" stroke="midnightblue" points="1068.91,-20.9161 1078.16,-15.7516 1067.71,-14.0199 1068.91,-20.9161"/>
</g>
<!-- Node12&#45;&gt;Node13 -->
<g id="edge13" class="edge"><title>Node12&#45;&gt;Node13</title>
<path fill="none" stroke="midnightblue" d="M803.269,-62.4035C797.328,-53.4925 787.883,-39.3247 780.412,-28.1177"/>
<polygon fill="midnightblue" stroke="midnightblue" points="783.18,-25.9596 774.72,-19.5806 777.355,-29.8426 783.18,-25.9596"/>
</g>
<!-- Node12&#45;&gt;Node14 -->
<g id="edge15" class="edge"><title>Node12&#45;&gt;Node14</title>
<path fill="none" stroke="midnightblue" d="M769.465,-62.4672C719.752,-51.7379 634.396,-33.3157 580.425,-21.6673"/>
<polygon fill="midnightblue" stroke="midnightblue" points="580.912,-18.1919 570.399,-19.5034 579.436,-25.0344 580.912,-18.1919"/>
</g>
<!-- Node16&#45;&gt;Node12 -->
<g id="edge18" class="edge"><title>Node16&#45;&gt;Node12</title>
<path fill="none" stroke="midnightblue" d="M795.961,-130.372C798.172,-120.643 801.835,-104.528 804.716,-91.8504"/>
<polygon fill="midnightblue" stroke="midnightblue" points="808.187,-92.3682 806.991,-81.8411 801.361,-90.8167 808.187,-92.3682"/>
</g>
<!-- Node16&#45;&gt;Node17 -->
<g id="edge19" class="edge"><title>Node16&#45;&gt;Node17</title>
<path fill="none" stroke="midnightblue" d="M756.255,-130.439C703.593,-118.495 608.086,-96.834 550.603,-83.7966"/>
<polygon fill="midnightblue" stroke="midnightblue" points="551.204,-80.3441 540.678,-81.5455 549.656,-87.1708 551.204,-80.3441"/>
</g>
<!-- Node16&#45;&gt;Node18 -->
<g id="edge20" class="edge"><title>Node16&#45;&gt;Node18</title>
<path fill="none" stroke="midnightblue" d="M778.574,-130.372C758.697,-119.254 723.915,-99.7997 700.427,-86.6624"/>
<polygon fill="midnightblue" stroke="midnightblue" points="701.866,-83.4574 691.43,-81.6305 698.449,-89.5667 701.866,-83.4574"/>
</g>
<!-- Node34&#45;&gt;Node23 -->
<g id="edge44" class="edge"><title>Node34&#45;&gt;Node23</title>
<path fill="none" stroke="midnightblue" d="M2086.22,-198.372C2088.73,-188.643 2092.88,-172.528 2096.14,-159.85"/>
<polygon fill="midnightblue" stroke="midnightblue" points="2099.62,-160.398 2098.72,-149.841 2092.84,-158.652 2099.62,-160.398"/>
</g>
<!-- Node50&#45;&gt;Node28 -->
<g id="edge66" class="edge"><title>Node50&#45;&gt;Node28</title>
<path fill="none" stroke="midnightblue" d="M2167.78,-198.372C2168.67,-188.643 2170.13,-172.528 2171.29,-159.85"/>
<polygon fill="midnightblue" stroke="midnightblue" points="2174.78,-160.117 2172.2,-149.841 2167.81,-159.483 2174.78,-160.117"/>
</g>
</g>
</svg>
