<?xml version="1.0" encoding="UTF-8" standalone="no"?>
<!DOCTYPE svg PUBLIC "-//W3C//DTD SVG 1.1//EN"
 "http://www.w3.org/Graphics/SVG/1.1/DTD/svg11.dtd">
<!-- Generated by graphviz version 2.36.0 (20140111.2315)
 -->
<!-- Title: src/transformation_estimation.cpp Pages: 1 -->
<!--zoomable 288 -->
<svg id="main" version="1.1" xmlns="http://www.w3.org/2000/svg" xmlns:xlink="http://www.w3.org/1999/xlink" xml:space="preserve" onload="init(evt)">
<style type="text/css"><![CDATA[
.edge:hover path { stroke: red; }
.edge:hover polygon { stroke: red; fill: red; }
]]></style>
<script type="text/javascript"><![CDATA[
var edges = document.getElementsByTagName('g');
if (edges && edges.length) {
  for (var i=0;i<edges.length;i++) {
    if (edges[i].id.substr(0,4)=='edge') {
      edges[i].setAttribute('class','edge');
    }
  }
}
]]></script>
        <defs>
                <circle id="rim" cx="0" cy="0" r="7"/>
                <circle id="rim2" cx="0" cy="0" r="3.5"/>
                <g id="zoomPlus">
                        <use xlink:href="#rim" fill="#404040">
                                <set attributeName="fill" to="#808080" begin="zoomplus.mouseover" end="zoomplus.mouseout"/>
                        </use>
                        <path d="M-4,0h8M0,-4v8" fill="none" stroke="white" stroke-width="1.5" pointer-events="none"/>
                </g>
                <g id="zoomMin">
                        <use xlink:href="#rim" fill="#404040">
                                <set attributeName="fill" to="#808080" begin="zoomminus.mouseover" end="zoomminus.mouseout"/>
                        </use>
                        <path d="M-4,0h8" fill="none" stroke="white" stroke-width="1.5" pointer-events="none"/>
                </g>
                <g id="dirArrow">
                        <path fill="none" stroke="white" stroke-width="1.5" d="M0,-3.0v7 M-2.5,-0.5L0,-3.0L2.5,-0.5"/>
                </g>
               <g id="resetDef">
                       <use xlink:href="#rim2" fill="#404040">
                               <set attributeName="fill" to="#808080" begin="reset.mouseover" end="reset.mouseout"/>
                       </use>
               </g>
        </defs>

<script type="text/javascript">
var viewWidth = 3517;
var viewHeight = 288;
var sectionId = 'dynsection-0';
</script>
<script xlink:href="../../svgpan.js"/>
<svg id="graph" class="graph">
<g id="viewport">
<title>src/transformation_estimation.cpp</title>
<polygon fill="white" stroke="none" points="-4,4 -4,-284 3513,-284 3513,4 -4,4"/>
<!-- Node1 -->
<g id="node1" class="node"><title>Node1</title>
<polygon fill="#bfbfbf" stroke="black" points="2240.5,-249 2240.5,-279 2335.5,-279 2335.5,-249 2240.5,-249"/>
<text text-anchor="start" x="2248.5" y="-267" font-family="Helvetica,sans-Serif" font-size="10.00">src/transformation</text>
<text text-anchor="middle" x="2288" y="-256" font-family="Helvetica,sans-Serif" font-size="10.00">_estimation.cpp</text>
</g>
<!-- Node2 -->
<g id="node2" class="node"><title>Node2</title>
<g id="a_node2"><a xlink:href="../../d1/d77/node_8h.html" target="_top" xlink:title="node.h">
<polygon fill="white" stroke="black" points="1066,-186.5 1066,-205.5 1112,-205.5 1112,-186.5 1066,-186.5"/>
<text text-anchor="middle" x="1089" y="-193.5" font-family="Helvetica,sans-Serif" font-size="10.00">node.h</text>
</a>
</g>
</g>
<!-- Node1&#45;&gt;Node2 -->
<g id="edge1" class="edge"><title>Node1&#45;&gt;Node2</title>
<path fill="none" stroke="midnightblue" d="M2240.26,-260.372C2042.51,-249.487 1290.15,-208.073 1122.33,-198.834"/>
<polygon fill="midnightblue" stroke="midnightblue" points="1122.31,-195.328 1112.13,-198.273 1121.92,-202.318 1122.31,-195.328"/>
</g>
<!-- Node22 -->
<g id="node22" class="node"><title>Node22</title>
<polygon fill="white" stroke="#bfbfbf" points="1475,-0.5 1475,-19.5 1615,-19.5 1615,-0.5 1475,-0.5"/>
<text text-anchor="middle" x="1545" y="-7.5" font-family="Helvetica,sans-Serif" font-size="10.00">g2o/types/slam3d/se3quat.h</text>
</g>
<!-- Node1&#45;&gt;Node22 -->
<g id="edge41" class="edge"><title>Node1&#45;&gt;Node22</title>
<path fill="none" stroke="midnightblue" d="M2240.34,-262.396C2098.72,-260.17 1687.41,-250.426 1642,-212 1587.44,-165.834 1642.04,-115.859 1603,-56 1594.68,-43.2404 1581.48,-32.5856 1569.78,-24.8518"/>
<polygon fill="midnightblue" stroke="midnightblue" points="1571.56,-21.8399 1561.23,-19.5206 1567.86,-27.7805 1571.56,-21.8399"/>
</g>
<!-- Node27 -->
<g id="node27" class="node"><title>Node27</title>
<g id="a_node27"><a xlink:href="../../dd/de1/scoped__timer_8h.html" target="_top" xlink:title="scoped_timer.h">
<polygon fill="white" stroke="black" points="1651.5,-186.5 1651.5,-205.5 1734.5,-205.5 1734.5,-186.5 1651.5,-186.5"/>
<text text-anchor="middle" x="1693" y="-193.5" font-family="Helvetica,sans-Serif" font-size="10.00">scoped_timer.h</text>
</a>
</g>
</g>
<!-- Node1&#45;&gt;Node27 -->
<g id="edge31" class="edge"><title>Node1&#45;&gt;Node27</title>
<path fill="none" stroke="midnightblue" d="M2240.27,-261.61C2145.08,-258.161 1925.19,-246.802 1744,-212 1738.86,-211.013 1733.5,-209.729 1728.27,-208.326"/>
<polygon fill="midnightblue" stroke="midnightblue" points="1729.02,-204.902 1718.45,-205.53 1727.11,-211.635 1729.02,-204.902"/>
</g>
<!-- Node29 -->
<g id="node29" class="node"><title>Node29</title>
<g id="a_node29"><a xlink:href="../../da/d4f/transformation__estimation_8h.html" target="_top" xlink:title="transformation_estimation.h">
<polygon fill="white" stroke="black" points="372.5,-124.5 372.5,-143.5 509.5,-143.5 509.5,-124.5 372.5,-124.5"/>
<text text-anchor="middle" x="441" y="-131.5" font-family="Helvetica,sans-Serif" font-size="10.00">transformation_estimation.h</text>
</a>
</g>
</g>
<!-- Node1&#45;&gt;Node29 -->
<g id="edge33" class="edge"><title>Node1&#45;&gt;Node29</title>
<path fill="none" stroke="midnightblue" d="M2240.38,-262.448C2075.96,-260.237 1516.9,-250.204 1057,-212 855.72,-195.28 619.031,-161.777 506.634,-145.022"/>
<polygon fill="midnightblue" stroke="midnightblue" points="506.883,-141.521 496.476,-143.503 505.848,-148.444 506.883,-141.521"/>
</g>
<!-- Node30 -->
<g id="node30" class="node"><title>Node30</title>
<polygon fill="white" stroke="#bfbfbf" points="1753,-186.5 1753,-205.5 1893,-205.5 1893,-186.5 1753,-186.5"/>
<text text-anchor="middle" x="1823" y="-193.5" font-family="Helvetica,sans-Serif" font-size="10.00">g2o/core/sparse_optimizer.h</text>
</g>
<!-- Node1&#45;&gt;Node30 -->
<g id="edge36" class="edge"><title>Node1&#45;&gt;Node30</title>
<path fill="none" stroke="midnightblue" d="M2240.33,-257.577C2167.32,-249.073 2023.46,-231.54 1902,-212 1893.39,-210.615 1884.27,-209.012 1875.41,-207.38"/>
<polygon fill="midnightblue" stroke="midnightblue" points="1876.04,-203.936 1865.56,-205.536 1874.75,-210.816 1876.04,-203.936"/>
</g>
<!-- Node31 -->
<g id="node31" class="node"><title>Node31</title>
<polygon fill="white" stroke="#bfbfbf" points="1911,-186.5 1911,-205.5 2031,-205.5 2031,-186.5 1911,-186.5"/>
<text text-anchor="middle" x="1971" y="-193.5" font-family="Helvetica,sans-Serif" font-size="10.00">g2o/core/block_solver.h</text>
</g>
<!-- Node1&#45;&gt;Node31 -->
<g id="edge37" class="edge"><title>Node1&#45;&gt;Node31</title>
<path fill="none" stroke="midnightblue" d="M2240.42,-253.381C2190.47,-243.245 2109.67,-226.736 2040,-212 2033.47,-210.619 2026.6,-209.148 2019.83,-207.687"/>
<polygon fill="midnightblue" stroke="midnightblue" points="2020.54,-204.26 2010.03,-205.565 2019.06,-211.101 2020.54,-204.26"/>
</g>
<!-- Node32 -->
<g id="node32" class="node"><title>Node32</title>
<polygon fill="white" stroke="#bfbfbf" points="2049,-186.5 2049,-205.5 2141,-205.5 2141,-186.5 2049,-186.5"/>
<text text-anchor="middle" x="2095" y="-193.5" font-family="Helvetica,sans-Serif" font-size="10.00">g2o/core/solver.h</text>
</g>
<!-- Node1&#45;&gt;Node32 -->
<g id="edge38" class="edge"><title>Node1&#45;&gt;Node32</title>
<path fill="none" stroke="midnightblue" d="M2246.6,-248.841C2211.77,-236.93 2162.53,-220.094 2129.73,-208.876"/>
<polygon fill="midnightblue" stroke="midnightblue" points="2130.7,-205.511 2120.11,-205.587 2128.44,-212.134 2130.7,-205.511"/>
</g>
<!-- Node33 -->
<g id="node33" class="node"><title>Node33</title>
<polygon fill="white" stroke="#bfbfbf" points="2159.5,-181 2159.5,-211 2284.5,-211 2284.5,-181 2159.5,-181"/>
<text text-anchor="start" x="2167.5" y="-199" font-family="Helvetica,sans-Serif" font-size="10.00">g2o/solvers/cholmod</text>
<text text-anchor="middle" x="2222" y="-188" font-family="Helvetica,sans-Serif" font-size="10.00">/linear_solver_cholmod.h</text>
</g>
<!-- Node1&#45;&gt;Node33 -->
<g id="edge39" class="edge"><title>Node1&#45;&gt;Node33</title>
<path fill="none" stroke="midnightblue" d="M2273.68,-248.679C2264.86,-239.857 2253.38,-228.38 2243.48,-218.483"/>
<polygon fill="midnightblue" stroke="midnightblue" points="2245.84,-215.889 2236.29,-211.293 2240.89,-220.839 2245.84,-215.889"/>
</g>
<!-- Node34 -->
<g id="node34" class="node"><title>Node34</title>
<polygon fill="white" stroke="#bfbfbf" points="2303,-181 2303,-211 2405,-211 2405,-181 2303,-181"/>
<text text-anchor="start" x="2311" y="-199" font-family="Helvetica,sans-Serif" font-size="10.00">g2o/types/icp/types</text>
<text text-anchor="middle" x="2354" y="-188" font-family="Helvetica,sans-Serif" font-size="10.00">_icp.h</text>
</g>
<!-- Node1&#45;&gt;Node34 -->
<g id="edge40" class="edge"><title>Node1&#45;&gt;Node34</title>
<path fill="none" stroke="midnightblue" d="M2302.32,-248.679C2311.14,-239.857 2322.62,-228.38 2332.52,-218.483"/>
<polygon fill="midnightblue" stroke="midnightblue" points="2335.11,-220.839 2339.71,-211.293 2330.16,-215.889 2335.11,-220.839"/>
</g>
<!-- Node35 -->
<g id="node35" class="node"><title>Node35</title>
<polygon fill="white" stroke="#bfbfbf" points="2423,-181 2423,-211 2541,-211 2541,-181 2423,-181"/>
<text text-anchor="start" x="2431" y="-199" font-family="Helvetica,sans-Serif" font-size="10.00">g2o/types/slam3d/edge</text>
<text text-anchor="middle" x="2482" y="-188" font-family="Helvetica,sans-Serif" font-size="10.00">_se3_pointxyz_depth.h</text>
</g>
<!-- Node1&#45;&gt;Node35 -->
<g id="edge42" class="edge"><title>Node1&#45;&gt;Node35</title>
<path fill="none" stroke="midnightblue" d="M2329.62,-248.841C2359.38,-238.715 2399.61,-225.03 2431.26,-214.262"/>
<polygon fill="midnightblue" stroke="midnightblue" points="2432.44,-217.556 2440.78,-211.022 2430.19,-210.929 2432.44,-217.556"/>
</g>
<!-- Node36 -->
<g id="node36" class="node"><title>Node36</title>
<polygon fill="white" stroke="#bfbfbf" points="2559,-181 2559,-211 2683,-211 2683,-181 2559,-181"/>
<text text-anchor="start" x="2567" y="-199" font-family="Helvetica,sans-Serif" font-size="10.00">g2o/types/slam3d/vertex</text>
<text text-anchor="middle" x="2621" y="-188" font-family="Helvetica,sans-Serif" font-size="10.00">_pointxyz.h</text>
</g>
<!-- Node1&#45;&gt;Node36 -->
<g id="edge43" class="edge"><title>Node1&#45;&gt;Node36</title>
<path fill="none" stroke="midnightblue" d="M2335.85,-253.922C2386.26,-244.308 2468.22,-228.523 2548.4,-212.309"/>
<polygon fill="midnightblue" stroke="midnightblue" points="2549.57,-215.643 2558.67,-210.226 2548.18,-208.782 2549.57,-215.643"/>
</g>
<!-- Node37 -->
<g id="node37" class="node"><title>Node37</title>
<g id="a_node37"><a xlink:href="../../de/dd9/misc2_8h.html" target="_top" xlink:title="misc2.h">
<polygon fill="white" stroke="black" points="299.5,-186.5 299.5,-205.5 350.5,-205.5 350.5,-186.5 299.5,-186.5"/>
<text text-anchor="middle" x="325" y="-193.5" font-family="Helvetica,sans-Serif" font-size="10.00">misc2.h</text>
</a>
</g>
</g>
<!-- Node1&#45;&gt;Node37 -->
<g id="edge44" class="edge"><title>Node1&#45;&gt;Node37</title>
<path fill="none" stroke="midnightblue" d="M2240.37,-261.595C2048.14,-255.896 1310.64,-233.771 704,-212 577.819,-207.472 428.04,-201.312 360.799,-198.505"/>
<polygon fill="midnightblue" stroke="midnightblue" points="360.869,-195.005 350.732,-198.084 360.577,-201.999 360.869,-195.005"/>
</g>
<!-- Node38 -->
<g id="node38" class="node"><title>Node38</title>
<polygon fill="white" stroke="#bfbfbf" points="2701.5,-186.5 2701.5,-205.5 2766.5,-205.5 2766.5,-186.5 2701.5,-186.5"/>
<text text-anchor="middle" x="2734" y="-193.5" font-family="Helvetica,sans-Serif" font-size="10.00">Eigen/SVD</text>
</g>
<!-- Node1&#45;&gt;Node38 -->
<g id="edge46" class="edge"><title>Node1&#45;&gt;Node38</title>
<path fill="none" stroke="midnightblue" d="M2335.73,-260.21C2411.75,-255.041 2564.68,-241.679 2691,-212 2694.87,-211.09 2698.88,-209.959 2702.83,-208.728"/>
<polygon fill="midnightblue" stroke="midnightblue" points="2704.01,-212.022 2712.39,-205.532 2701.79,-205.384 2704.01,-212.022"/>
</g>
<!-- Node39 -->
<g id="node39" class="node"><title>Node39</title>
<polygon fill="white" stroke="#bfbfbf" points="2785,-186.5 2785,-205.5 2939,-205.5 2939,-186.5 2785,-186.5"/>
<text text-anchor="middle" x="2862" y="-193.5" font-family="Helvetica,sans-Serif" font-size="10.00">g2o/core/estimate_propagator.h</text>
</g>
<!-- Node1&#45;&gt;Node39 -->
<g id="edge47" class="edge"><title>Node1&#45;&gt;Node39</title>
<path fill="none" stroke="midnightblue" d="M2335.82,-259.053C2423.24,-251.603 2614.58,-234.204 2775,-212 2785.02,-210.613 2795.66,-208.944 2805.93,-207.231"/>
<polygon fill="midnightblue" stroke="midnightblue" points="2806.76,-210.639 2816.03,-205.512 2805.59,-203.738 2806.76,-210.639"/>
</g>
<!-- Node40 -->
<g id="node40" class="node"><title>Node40</title>
<polygon fill="white" stroke="#bfbfbf" points="2957,-186.5 2957,-205.5 3083,-205.5 3083,-186.5 2957,-186.5"/>
<text text-anchor="middle" x="3020" y="-193.5" font-family="Helvetica,sans-Serif" font-size="10.00">g2o/core/hyper_dijkstra.h</text>
</g>
<!-- Node1&#45;&gt;Node40 -->
<g id="edge48" class="edge"><title>Node1&#45;&gt;Node40</title>
<path fill="none" stroke="midnightblue" d="M2335.85,-261.407C2444.92,-257.318 2720.16,-244.401 2948,-212 2956.36,-210.811 2965.2,-209.236 2973.73,-207.553"/>
<polygon fill="midnightblue" stroke="midnightblue" points="2974.44,-210.98 2983.53,-205.544 2973.03,-204.122 2974.44,-210.98"/>
</g>
<!-- Node41 -->
<g id="node41" class="node"><title>Node41</title>
<polygon fill="white" stroke="#bfbfbf" points="3101,-181 3101,-211 3239,-211 3239,-181 3101,-181"/>
<text text-anchor="start" x="3109" y="-199" font-family="Helvetica,sans-Serif" font-size="10.00">g2o/core/optimization</text>
<text text-anchor="middle" x="3170" y="-188" font-family="Helvetica,sans-Serif" font-size="10.00">_algorithm_gauss_newton.h</text>
</g>
<!-- Node1&#45;&gt;Node41 -->
<g id="edge49" class="edge"><title>Node1&#45;&gt;Node41</title>
<path fill="none" stroke="midnightblue" d="M2335.78,-262.078C2459.19,-259.247 2798.79,-248.597 3090.82,-212.044"/>
<polygon fill="midnightblue" stroke="midnightblue" points="3091.27,-215.516 3100.75,-210.789 3090.39,-208.571 3091.27,-215.516"/>
</g>
<!-- Node42 -->
<g id="node42" class="node"><title>Node42</title>
<polygon fill="white" stroke="#bfbfbf" points="3257.5,-181 3257.5,-211 3374.5,-211 3374.5,-181 3257.5,-181"/>
<text text-anchor="start" x="3265.5" y="-199" font-family="Helvetica,sans-Serif" font-size="10.00">g2o/core/optimization</text>
<text text-anchor="middle" x="3316" y="-188" font-family="Helvetica,sans-Serif" font-size="10.00">_algorithm_levenberg.h</text>
</g>
<!-- Node1&#45;&gt;Node42 -->
<g id="edge50" class="edge"><title>Node1&#45;&gt;Node42</title>
<path fill="none" stroke="midnightblue" d="M2335.71,-263.224C2474.88,-263.292 2892.44,-259.336 3247.19,-211.947"/>
<polygon fill="midnightblue" stroke="midnightblue" points="3247.69,-215.411 3257.13,-210.604 3246.76,-208.474 3247.69,-215.411"/>
</g>
<!-- Node43 -->
<g id="node43" class="node"><title>Node43</title>
<polygon fill="white" stroke="#bfbfbf" points="3393,-181 3393,-211 3509,-211 3509,-181 3393,-181"/>
<text text-anchor="start" x="3401" y="-199" font-family="Helvetica,sans-Serif" font-size="10.00">g2o/core/robust_kernel</text>
<text text-anchor="middle" x="3451" y="-188" font-family="Helvetica,sans-Serif" font-size="10.00">_impl.h</text>
</g>
<!-- Node1&#45;&gt;Node43 -->
<g id="edge51" class="edge"><title>Node1&#45;&gt;Node43</title>
<path fill="none" stroke="midnightblue" d="M2335.8,-261.86C2516.17,-257.391 3156.17,-239.992 3382.73,-211.812"/>
<polygon fill="midnightblue" stroke="midnightblue" points="3383.41,-215.253 3392.88,-210.505 3382.51,-208.311 3383.41,-215.253"/>
</g>
<!-- Node3 -->
<g id="node3" class="node"><title>Node3</title>
<polygon fill="white" stroke="#bfbfbf" points="416.5,-62.5 416.5,-81.5 471.5,-81.5 471.5,-62.5 416.5,-62.5"/>
<text text-anchor="middle" x="444" y="-69.5" font-family="Helvetica,sans-Serif" font-size="10.00">ros/ros.h</text>
</g>
<!-- Node2&#45;&gt;Node3 -->
<g id="edge2" class="edge"><title>Node2&#45;&gt;Node3</title>
<path fill="none" stroke="midnightblue" d="M1065.83,-195.199C947.26,-195.981 412.002,-196.565 363,-144 356.939,-137.498 358.704,-131.782 363,-124 369.052,-113.038 396.048,-97.309 417.232,-86.2239"/>
<polygon fill="midnightblue" stroke="midnightblue" points="418.869,-89.3178 426.168,-81.6383 415.673,-83.0899 418.869,-89.3178"/>
</g>
<!-- Node4 -->
<g id="node4" class="node"><title>Node4</title>
<polygon fill="white" stroke="#bfbfbf" points="1345,-124.5 1345,-143.5 1389,-143.5 1389,-124.5 1345,-124.5"/>
<text text-anchor="middle" x="1367" y="-131.5" font-family="Helvetica,sans-Serif" font-size="10.00">vector</text>
</g>
<!-- Node2&#45;&gt;Node4 -->
<g id="edge3" class="edge"><title>Node2&#45;&gt;Node4</title>
<path fill="none" stroke="midnightblue" d="M1112.29,-190.825C1154.67,-183.095 1247.38,-165.564 1334.89,-144.127"/>
<polygon fill="midnightblue" stroke="midnightblue" points="1335.84,-147.498 1344.71,-141.701 1334.16,-140.703 1335.84,-147.498"/>
</g>
<!-- Node5 -->
<g id="node5" class="node"><title>Node5</title>
<polygon fill="white" stroke="#bfbfbf" points="1407,-124.5 1407,-143.5 1523,-143.5 1523,-124.5 1407,-124.5"/>
<text text-anchor="middle" x="1465" y="-131.5" font-family="Helvetica,sans-Serif" font-size="10.00">opencv2/core/core.hpp</text>
</g>
<!-- Node2&#45;&gt;Node5 -->
<g id="edge4" class="edge"><title>Node2&#45;&gt;Node5</title>
<path fill="none" stroke="midnightblue" d="M1112.24,-191.292C1169.01,-182.233 1316.34,-158.722 1401.57,-145.122"/>
<polygon fill="midnightblue" stroke="midnightblue" points="1402.32,-148.546 1411.64,-143.514 1401.22,-141.634 1402.32,-148.546"/>
</g>
<!-- Node6 -->
<g id="node6" class="node"><title>Node6</title>
<polygon fill="white" stroke="#bfbfbf" points="1124,-57 1124,-87 1226,-87 1226,-57 1124,-57"/>
<text text-anchor="start" x="1132" y="-75" font-family="Helvetica,sans-Serif" font-size="10.00">opencv2/features2d</text>
<text text-anchor="middle" x="1175" y="-64" font-family="Helvetica,sans-Serif" font-size="10.00">/features2d.hpp</text>
</g>
<!-- Node2&#45;&gt;Node6 -->
<g id="edge5" class="edge"><title>Node2&#45;&gt;Node6</title>
<path fill="none" stroke="midnightblue" d="M1112.38,-189.902C1135.41,-183.5 1169.35,-170.042 1185,-144 1193.55,-129.784 1190.49,-111.131 1185.59,-96.5116"/>
<polygon fill="midnightblue" stroke="midnightblue" points="1188.85,-95.2412 1182.02,-87.1391 1182.31,-97.7301 1188.85,-95.2412"/>
</g>
<!-- Node7 -->
<g id="node7" class="node"><title>Node7</title>
<polygon fill="white" stroke="#bfbfbf" points="834.5,-0.5 834.5,-19.5 899.5,-19.5 899.5,-0.5 834.5,-0.5"/>
<text text-anchor="middle" x="867" y="-7.5" font-family="Helvetica,sans-Serif" font-size="10.00">Eigen/Core</text>
</g>
<!-- Node2&#45;&gt;Node7 -->
<g id="edge6" class="edge"><title>Node2&#45;&gt;Node7</title>
<path fill="none" stroke="midnightblue" d="M1065.85,-192.833C963.679,-183.262 558.091,-145.2 557,-144 476.561,-55.481 721.778,-23.5506 824.235,-14.2569"/>
<polygon fill="midnightblue" stroke="midnightblue" points="824.611,-17.7375 834.267,-13.3781 824,-10.7642 824.611,-17.7375"/>
</g>
<!-- Node8 -->
<g id="node8" class="node"><title>Node8</title>
<polygon fill="white" stroke="#bfbfbf" points="566,-124.5 566,-143.5 706,-143.5 706,-124.5 566,-124.5"/>
<text text-anchor="middle" x="636" y="-131.5" font-family="Helvetica,sans-Serif" font-size="10.00">sensor_msgs/PointCloud2.h</text>
</g>
<!-- Node2&#45;&gt;Node8 -->
<g id="edge7" class="edge"><title>Node2&#45;&gt;Node8</title>
<path fill="none" stroke="midnightblue" d="M1065.91,-191.942C1001.09,-183.356 815.32,-158.751 710.425,-144.858"/>
<polygon fill="midnightblue" stroke="midnightblue" points="710.595,-141.35 700.222,-143.506 709.676,-148.289 710.595,-141.35"/>
</g>
<!-- Node9 -->
<g id="node9" class="node"><title>Node9</title>
<polygon fill="white" stroke="#bfbfbf" points="724.5,-124.5 724.5,-143.5 861.5,-143.5 861.5,-124.5 724.5,-124.5"/>
<text text-anchor="middle" x="793" y="-131.5" font-family="Helvetica,sans-Serif" font-size="10.00">sensor_msgs/CameraInfo.h</text>
</g>
<!-- Node2&#45;&gt;Node9 -->
<g id="edge8" class="edge"><title>Node2&#45;&gt;Node9</title>
<path fill="none" stroke="midnightblue" d="M1065.77,-190.292C1018.49,-180.707 910.039,-158.724 845.027,-145.546"/>
<polygon fill="midnightblue" stroke="midnightblue" points="845.479,-142.066 834.982,-143.51 844.088,-148.927 845.479,-142.066"/>
</g>
<!-- Node10 -->
<g id="node10" class="node"><title>Node10</title>
<g id="a_node10"><a xlink:href="../../d2/de7/parameter__server_8h.html" target="_top" xlink:title="parameter_server.h">
<polygon fill="white" stroke="black" points="197.5,-124.5 197.5,-143.5 298.5,-143.5 298.5,-124.5 197.5,-124.5"/>
<text text-anchor="middle" x="248" y="-131.5" font-family="Helvetica,sans-Serif" font-size="10.00">parameter_server.h</text>
</a>
</g>
</g>
<!-- Node2&#45;&gt;Node10 -->
<g id="edge9" class="edge"><title>Node2&#45;&gt;Node10</title>
<path fill="none" stroke="midnightblue" d="M1066,-193.81C973.543,-188.951 620.078,-169.653 330,-144 323.195,-143.398 316.078,-142.708 309.003,-141.984"/>
<polygon fill="midnightblue" stroke="midnightblue" points="309.018,-138.466 298.708,-140.904 308.288,-145.428 309.018,-138.466"/>
</g>
<!-- Node16 -->
<g id="node16" class="node"><title>Node16</title>
<polygon fill="white" stroke="#bfbfbf" points="879.5,-124.5 879.5,-143.5 1002.5,-143.5 1002.5,-124.5 879.5,-124.5"/>
<text text-anchor="middle" x="941" y="-131.5" font-family="Helvetica,sans-Serif" font-size="10.00">tf/transform_datatypes.h</text>
</g>
<!-- Node2&#45;&gt;Node16 -->
<g id="edge17" class="edge"><title>Node2&#45;&gt;Node16</title>
<path fill="none" stroke="midnightblue" d="M1067.8,-186.403C1042.63,-176.2 1000.46,-159.105 971.721,-147.454"/>
<polygon fill="midnightblue" stroke="midnightblue" points="972.748,-144.094 962.165,-143.581 970.118,-150.581 972.748,-144.094"/>
</g>
<!-- Node17 -->
<g id="node17" class="node"><title>Node17</title>
<polygon fill="white" stroke="#bfbfbf" points="1020.5,-124.5 1020.5,-143.5 1071.5,-143.5 1071.5,-124.5 1020.5,-124.5"/>
<text text-anchor="middle" x="1046" y="-131.5" font-family="Helvetica,sans-Serif" font-size="10.00">QMutex</text>
</g>
<!-- Node2&#45;&gt;Node17 -->
<g id="edge18" class="edge"><title>Node2&#45;&gt;Node17</title>
<path fill="none" stroke="midnightblue" d="M1082.84,-186.403C1076.39,-177.403 1066.1,-163.041 1058.03,-151.782"/>
<polygon fill="midnightblue" stroke="midnightblue" points="1060.82,-149.67 1052.15,-143.581 1055.13,-153.748 1060.82,-149.67"/>
</g>
<!-- Node18 -->
<g id="node18" class="node"><title>Node18</title>
<g id="a_node18"><a xlink:href="../../d4/d2a/matching__result_8h.html" target="_top" xlink:title="matching_result.h">
<polygon fill="white" stroke="black" points="1233,-124.5 1233,-143.5 1327,-143.5 1327,-124.5 1233,-124.5"/>
<text text-anchor="middle" x="1280" y="-131.5" font-family="Helvetica,sans-Serif" font-size="10.00">matching_result.h</text>
</a>
</g>
</g>
<!-- Node2&#45;&gt;Node18 -->
<g id="edge19" class="edge"><title>Node2&#45;&gt;Node18</title>
<path fill="none" stroke="midnightblue" d="M1112.04,-187.763C1144.55,-177.548 1204.26,-158.794 1243.02,-146.616"/>
<polygon fill="midnightblue" stroke="midnightblue" points="1244.39,-149.856 1252.88,-143.52 1242.29,-143.178 1244.39,-149.856"/>
</g>
<!-- Node23 -->
<g id="node23" class="node"><title>Node23</title>
<polygon fill="white" stroke="#bfbfbf" points="1089,-124.5 1089,-143.5 1177,-143.5 1177,-124.5 1089,-124.5"/>
<text text-anchor="middle" x="1133" y="-131.5" font-family="Helvetica,sans-Serif" font-size="10.00">Eigen/StdVector</text>
</g>
<!-- Node2&#45;&gt;Node23 -->
<g id="edge27" class="edge"><title>Node2&#45;&gt;Node23</title>
<path fill="none" stroke="midnightblue" d="M1095.3,-186.403C1101.9,-177.403 1112.44,-163.041 1120.69,-151.782"/>
<polygon fill="midnightblue" stroke="midnightblue" points="1123.62,-153.714 1126.71,-143.581 1117.97,-149.575 1123.62,-153.714"/>
</g>
<!-- Node24 -->
<g id="node24" class="node"><title>Node24</title>
<g id="a_node24"><a xlink:href="../../df/dcb/header_8h.html" target="_top" xlink:title="header.h">
<polygon fill="white" stroke="black" points="1541,-124.5 1541,-143.5 1595,-143.5 1595,-124.5 1541,-124.5"/>
<text text-anchor="middle" x="1568" y="-131.5" font-family="Helvetica,sans-Serif" font-size="10.00">header.h</text>
</a>
</g>
</g>
<!-- Node2&#45;&gt;Node24 -->
<g id="edge28" class="edge"><title>Node2&#45;&gt;Node24</title>
<path fill="none" stroke="midnightblue" d="M1112.15,-193.344C1176.76,-188.512 1364.54,-173.007 1530.7,-143.825"/>
<polygon fill="midnightblue" stroke="midnightblue" points="1531.37,-147.261 1540.6,-142.064 1530.14,-140.369 1531.37,-147.261"/>
</g>
<!-- Node10&#45;&gt;Node3 -->
<g id="edge11" class="edge"><title>Node10&#45;&gt;Node3</title>
<path fill="none" stroke="midnightblue" d="M282.141,-124.493C314.566,-116.143 364.532,-102.569 407,-88 409.409,-87.1734 411.89,-86.275 414.371,-85.3425"/>
<polygon fill="midnightblue" stroke="midnightblue" points="415.757,-88.5585 423.795,-81.6562 413.207,-82.0394 415.757,-88.5585"/>
</g>
<!-- Node11 -->
<g id="node11" class="node"><title>Node11</title>
<polygon fill="white" stroke="#bfbfbf" points="133.5,-62.5 133.5,-81.5 174.5,-81.5 174.5,-62.5 133.5,-62.5"/>
<text text-anchor="middle" x="154" y="-69.5" font-family="Helvetica,sans-Serif" font-size="10.00">string</text>
</g>
<!-- Node10&#45;&gt;Node11 -->
<g id="edge10" class="edge"><title>Node10&#45;&gt;Node11</title>
<path fill="none" stroke="midnightblue" d="M234.532,-124.403C219.315,-114.691 194.313,-98.7319 176.199,-87.1697"/>
<polygon fill="midnightblue" stroke="midnightblue" points="177.755,-84.0108 167.443,-81.5806 173.989,-89.9112 177.755,-84.0108"/>
</g>
<!-- Node12 -->
<g id="node12" class="node"><title>Node12</title>
<polygon fill="white" stroke="#bfbfbf" points="193,-62.5 193,-81.5 271,-81.5 271,-62.5 193,-62.5"/>
<text text-anchor="middle" x="232" y="-69.5" font-family="Helvetica,sans-Serif" font-size="10.00">boost/any.hpp</text>
</g>
<!-- Node10&#45;&gt;Node12 -->
<g id="edge12" class="edge"><title>Node10&#45;&gt;Node12</title>
<path fill="none" stroke="midnightblue" d="M245.708,-124.403C243.426,-115.849 239.853,-102.45 236.927,-91.4762"/>
<polygon fill="midnightblue" stroke="midnightblue" points="240.247,-90.3411 234.288,-81.5806 233.483,-92.1448 240.247,-90.3411"/>
</g>
<!-- Node13 -->
<g id="node13" class="node"><title>Node13</title>
<polygon fill="white" stroke="#bfbfbf" points="289.5,-62.5 289.5,-81.5 398.5,-81.5 398.5,-62.5 289.5,-62.5"/>
<text text-anchor="middle" x="344" y="-69.5" font-family="Helvetica,sans-Serif" font-size="10.00">pcl_ros/point_cloud.h</text>
</g>
<!-- Node10&#45;&gt;Node13 -->
<g id="edge13" class="edge"><title>Node10&#45;&gt;Node13</title>
<path fill="none" stroke="midnightblue" d="M261.754,-124.403C277.366,-114.646 303.063,-98.5854 321.583,-87.0109"/>
<polygon fill="midnightblue" stroke="midnightblue" points="323.646,-89.8486 330.271,-81.5806 319.936,-83.9126 323.646,-89.8486"/>
</g>
<!-- Node14 -->
<g id="node14" class="node"><title>Node14</title>
<polygon fill="white" stroke="#bfbfbf" points="-0.5,-0.5 -0.5,-19.5 90.5,-19.5 90.5,-0.5 -0.5,-0.5"/>
<text text-anchor="middle" x="45" y="-7.5" font-family="Helvetica,sans-Serif" font-size="10.00">pcl/point_types.h</text>
</g>
<!-- Node10&#45;&gt;Node14 -->
<g id="edge14" class="edge"><title>Node10&#45;&gt;Node14</title>
<path fill="none" stroke="midnightblue" d="M197.468,-129.721C140.04,-124.818 51.5835,-113.29 31,-88 17.3775,-71.2627 26.0473,-45.6546 34.5918,-28.6257"/>
<polygon fill="midnightblue" stroke="midnightblue" points="37.7312,-30.1789 39.4387,-19.7225 31.5833,-26.8319 37.7312,-30.1789"/>
</g>
<!-- Node15 -->
<g id="node15" class="node"><title>Node15</title>
<g id="a_node15"><a xlink:href="../../d1/d45/point__types_8h.html" target="_top" xlink:title="point_types.h">
<polygon fill="white" stroke="black" points="40.5,-62.5 40.5,-81.5 115.5,-81.5 115.5,-62.5 40.5,-62.5"/>
<text text-anchor="middle" x="78" y="-69.5" font-family="Helvetica,sans-Serif" font-size="10.00">point_types.h</text>
</a>
</g>
</g>
<!-- Node10&#45;&gt;Node15 -->
<g id="edge15" class="edge"><title>Node10&#45;&gt;Node15</title>
<path fill="none" stroke="midnightblue" d="M223.643,-124.403C194.356,-114.067 145.026,-96.6564 111.998,-84.9994"/>
<polygon fill="midnightblue" stroke="midnightblue" points="112.906,-81.6084 102.312,-81.5806 110.577,-88.2093 112.906,-81.6084"/>
</g>
<!-- Node15&#45;&gt;Node14 -->
<g id="edge16" class="edge"><title>Node15&#45;&gt;Node14</title>
<path fill="none" stroke="midnightblue" d="M73.2719,-62.4035C68.4199,-53.5816 60.7341,-39.6075 54.6001,-28.4548"/>
<polygon fill="midnightblue" stroke="midnightblue" points="57.6053,-26.656 49.7193,-19.5806 51.4718,-30.0295 57.6053,-26.656"/>
</g>
<!-- Node18&#45;&gt;Node6 -->
<g id="edge20" class="edge"><title>Node18&#45;&gt;Node6</title>
<path fill="none" stroke="midnightblue" d="M1264.96,-124.403C1250.27,-116.011 1227.42,-102.957 1208.43,-92.1042"/>
<polygon fill="midnightblue" stroke="midnightblue" points="1210.17,-89.0634 1199.75,-87.1408 1206.69,-95.1411 1210.17,-89.0634"/>
</g>
<!-- Node18&#45;&gt;Node7 -->
<g id="edge21" class="edge"><title>Node18&#45;&gt;Node7</title>
<path fill="none" stroke="midnightblue" d="M1277.51,-124.028C1272.4,-107.469 1259.06,-72.3134 1234,-56 1181.39,-21.7462 994.938,-13.5659 909.873,-11.6126"/>
<polygon fill="midnightblue" stroke="midnightblue" points="909.847,-8.11135 899.775,-11.3992 909.699,-15.1098 909.847,-8.11135"/>
</g>
<!-- Node19 -->
<g id="node19" class="node"><title>Node19</title>
<g id="a_node19"><a xlink:href="../../db/dc3/edge_8h.html" target="_top" xlink:title="edge.h">
<polygon fill="white" stroke="black" points="1282,-62.5 1282,-81.5 1328,-81.5 1328,-62.5 1282,-62.5"/>
<text text-anchor="middle" x="1305" y="-69.5" font-family="Helvetica,sans-Serif" font-size="10.00">edge.h</text>
</a>
</g>
</g>
<!-- Node18&#45;&gt;Node19 -->
<g id="edge22" class="edge"><title>Node18&#45;&gt;Node19</title>
<path fill="none" stroke="midnightblue" d="M1283.58,-124.403C1287.18,-115.76 1292.85,-102.17 1297.44,-91.1341"/>
<polygon fill="midnightblue" stroke="midnightblue" points="1300.81,-92.1575 1301.42,-81.5806 1294.35,-89.4652 1300.81,-92.1575"/>
</g>
<!-- Node19&#45;&gt;Node7 -->
<g id="edge26" class="edge"><title>Node19&#45;&gt;Node7</title>
<path fill="none" stroke="midnightblue" d="M1286.51,-62.35C1280.7,-59.9464 1274.18,-57.5681 1268,-56 1140.34,-23.6126 983.913,-14.5254 909.823,-11.9829"/>
<polygon fill="midnightblue" stroke="midnightblue" points="909.609,-8.47442 899.502,-11.6533 909.385,-15.4709 909.609,-8.47442"/>
</g>
<!-- Node20 -->
<g id="node20" class="node"><title>Node20</title>
<polygon fill="white" stroke="#bfbfbf" points="1320,-0.5 1320,-19.5 1350,-19.5 1350,-0.5 1320,-0.5"/>
<text text-anchor="middle" x="1335" y="-7.5" font-family="Helvetica,sans-Serif" font-size="10.00">set</text>
</g>
<!-- Node19&#45;&gt;Node20 -->
<g id="edge23" class="edge"><title>Node19&#45;&gt;Node20</title>
<path fill="none" stroke="midnightblue" d="M1309.3,-62.4035C1313.66,-53.6707 1320.56,-39.8893 1326.1,-28.7936"/>
<polygon fill="midnightblue" stroke="midnightblue" points="1329.37,-30.0901 1330.71,-19.5806 1323.11,-26.9596 1329.37,-30.0901"/>
</g>
<!-- Node21 -->
<g id="node21" class="node"><title>Node21</title>
<polygon fill="white" stroke="#bfbfbf" points="1248,-0.5 1248,-19.5 1302,-19.5 1302,-0.5 1248,-0.5"/>
<text text-anchor="middle" x="1275" y="-7.5" font-family="Helvetica,sans-Serif" font-size="10.00">iostream</text>
</g>
<!-- Node19&#45;&gt;Node21 -->
<g id="edge24" class="edge"><title>Node19&#45;&gt;Node21</title>
<path fill="none" stroke="midnightblue" d="M1300.7,-62.4035C1296.34,-53.6707 1289.44,-39.8893 1283.9,-28.7936"/>
<polygon fill="midnightblue" stroke="midnightblue" points="1286.89,-26.9596 1279.29,-19.5806 1280.63,-30.0901 1286.89,-26.9596"/>
</g>
<!-- Node19&#45;&gt;Node22 -->
<g id="edge25" class="edge"><title>Node19&#45;&gt;Node22</title>
<path fill="none" stroke="midnightblue" d="M1328.01,-65.2469C1367.83,-55.2927 1450.2,-34.7007 1501.21,-21.9468"/>
<polygon fill="midnightblue" stroke="midnightblue" points="1502.12,-25.3269 1510.98,-19.506 1500.43,-18.5359 1502.12,-25.3269"/>
</g>
<!-- Node25 -->
<g id="node25" class="node"><title>Node25</title>
<polygon fill="white" stroke="#bfbfbf" points="1493,-62.5 1493,-81.5 1595,-81.5 1595,-62.5 1493,-62.5"/>
<text text-anchor="middle" x="1544" y="-69.5" font-family="Helvetica,sans-Serif" font-size="10.00">std_msgs/Header.h</text>
</g>
<!-- Node24&#45;&gt;Node25 -->
<g id="edge29" class="edge"><title>Node24&#45;&gt;Node25</title>
<path fill="none" stroke="midnightblue" d="M1564.56,-124.403C1561.1,-115.76 1555.67,-102.17 1551.25,-91.1341"/>
<polygon fill="midnightblue" stroke="midnightblue" points="1554.4,-89.5655 1547.43,-81.5806 1547.9,-92.1653 1554.4,-89.5655"/>
</g>
<!-- Node26 -->
<g id="node26" class="node"><title>Node26</title>
<polygon fill="white" stroke="#bfbfbf" points="1383,-62.5 1383,-81.5 1475,-81.5 1475,-62.5 1383,-62.5"/>
<text text-anchor="middle" x="1429" y="-69.5" font-family="Helvetica,sans-Serif" font-size="10.00">pcl/PCLHeader.h</text>
</g>
<!-- Node24&#45;&gt;Node26 -->
<g id="edge30" class="edge"><title>Node24&#45;&gt;Node26</title>
<path fill="none" stroke="midnightblue" d="M1548.08,-124.403C1524.55,-114.245 1485.19,-97.2547 1458.21,-85.6074"/>
<polygon fill="midnightblue" stroke="midnightblue" points="1459.45,-82.3303 1448.88,-81.5806 1456.67,-88.7572 1459.45,-82.3303"/>
</g>
<!-- Node28 -->
<g id="node28" class="node"><title>Node28</title>
<polygon fill="white" stroke="#bfbfbf" points="1672.5,-124.5 1672.5,-143.5 1713.5,-143.5 1713.5,-124.5 1672.5,-124.5"/>
<text text-anchor="middle" x="1693" y="-131.5" font-family="Helvetica,sans-Serif" font-size="10.00">ctime</text>
</g>
<!-- Node27&#45;&gt;Node28 -->
<g id="edge32" class="edge"><title>Node27&#45;&gt;Node28</title>
<path fill="none" stroke="midnightblue" d="M1693,-186.403C1693,-177.938 1693,-164.728 1693,-153.82"/>
<polygon fill="midnightblue" stroke="midnightblue" points="1696.5,-153.581 1693,-143.581 1689.5,-153.581 1696.5,-153.581"/>
</g>
<!-- Node29&#45;&gt;Node6 -->
<g id="edge35" class="edge"><title>Node29&#45;&gt;Node6</title>
<path fill="none" stroke="midnightblue" d="M509.723,-127.382C652.13,-115.741 977.475,-89.1465 1113.47,-78.0297"/>
<polygon fill="midnightblue" stroke="midnightblue" points="1114.03,-81.4961 1123.71,-77.1929 1113.45,-74.5194 1114.03,-81.4961"/>
</g>
<!-- Node29&#45;&gt;Node7 -->
<g id="edge34" class="edge"><title>Node29&#45;&gt;Node7</title>
<path fill="none" stroke="midnightblue" d="M448.879,-124.485C465.964,-106.231 506.299,-64.3158 524,-56 576.414,-31.3769 744.495,-18.3155 824.24,-13.3693"/>
<polygon fill="midnightblue" stroke="midnightblue" points="824.659,-16.8505 834.429,-12.7519 824.235,-9.86331 824.659,-16.8505"/>
</g>
<!-- Node37&#45;&gt;Node10 -->
<g id="edge45" class="edge"><title>Node37&#45;&gt;Node10</title>
<path fill="none" stroke="midnightblue" d="M313.968,-186.403C301.732,-176.869 281.771,-161.315 267.007,-149.811"/>
<polygon fill="midnightblue" stroke="midnightblue" points="269.051,-146.966 259.012,-143.581 264.748,-152.488 269.051,-146.966"/>
</g>
</g>
</svg>
        <g id="navigator" transform="translate(0 0)" fill="#404254">
                <rect fill="#f2f5e9" fill-opacity="0.5" stroke="#606060" stroke-width=".5" x="0" y="0" width="60" height="60"/>
                <use id="zoomplus" xlink:href="#zoomPlus" x="17" y="9" onmousedown="handleZoom(evt,'in')"/>
                <use id="zoomminus" xlink:href="#zoomMin" x="42" y="9" onmousedown="handleZoom(evt,'out')"/>
                <use id="reset" xlink:href="#resetDef" x="30" y="36" onmousedown="handleReset()"/>
                <g id="arrowUp" xlink:href="#dirArrow" transform="translate(30 24)" onmousedown="handlePan(0,-1)">
                  <use xlink:href="#rim" fill="#404040">
                        <set attributeName="fill" to="#808080" begin="arrowUp.mouseover" end="arrowUp.mouseout"/>
                  </use>
                  <path fill="none" stroke="white" stroke-width="1.5" d="M0,-3.0v7 M-2.5,-0.5L0,-3.0L2.5,-0.5"/>
                </g>
                <g id="arrowRight" xlink:href="#dirArrow" transform="rotate(90) translate(36 -43)" onmousedown="handlePan(1,0)">
                  <use xlink:href="#rim" fill="#404040">
                        <set attributeName="fill" to="#808080" begin="arrowRight.mouseover" end="arrowRight.mouseout"/>
                  </use>
                  <path fill="none" stroke="white" stroke-width="1.5" d="M0,-3.0v7 M-2.5,-0.5L0,-3.0L2.5,-0.5"/>
                </g>
                <g id="arrowDown" xlink:href="#dirArrow" transform="rotate(180) translate(-30 -48)" onmousedown="handlePan(0,1)">
                  <use xlink:href="#rim" fill="#404040">
                        <set attributeName="fill" to="#808080" begin="arrowDown.mouseover" end="arrowDown.mouseout"/>
                  </use>
                  <path fill="none" stroke="white" stroke-width="1.5" d="M0,-3.0v7 M-2.5,-0.5L0,-3.0L2.5,-0.5"/>
                </g>
                <g id="arrowLeft" xlink:href="#dirArrow" transform="rotate(270) translate(-36 17)" onmousedown="handlePan(-1,0)">
                  <use xlink:href="#rim" fill="#404040">
                        <set attributeName="fill" to="#808080" begin="arrowLeft.mouseover" end="arrowLeft.mouseout"/>
                  </use>
                  <path fill="none" stroke="white" stroke-width="1.5" d="M0,-3.0v7 M-2.5,-0.5L0,-3.0L2.5,-0.5"/>
                </g>
        </g>
        <svg viewBox="0 0 15 15" width="100%" height="30px" preserveAspectRatio="xMaxYMin meet">
         <g id="arrow_out" transform="scale(0.3 0.3)">
          <a xlink:href="transformation__estimation_8cpp__incl_org.svg" target="_base">
           <rect id="button" ry="5" rx="5" y="6" x="6" height="38" width="38"
                fill="#f2f5e9" fill-opacity="0.5" stroke="#606060" stroke-width="1.0"/>
           <path id="arrow"
             d="M 11.500037,31.436501 C 11.940474,20.09759 22.043105,11.32322 32.158766,21.979434 L 37.068811,17.246167 C 37.068811,17.246167 37.088388,32 37.088388,32 L 22.160133,31.978069 C 22.160133,31.978069 26.997745,27.140456 26.997745,27.140456 C 18.528582,18.264221 13.291696,25.230495 11.500037,31.436501 z"
             style="fill:#404040;"/>
          </a>
         </g>
        </svg>
</svg>
