<?xml version="1.0" encoding="UTF-8" standalone="no"?>
<!DOCTYPE svg PUBLIC "-//W3C//DTD SVG 1.1//EN"
 "http://www.w3.org/Graphics/SVG/1.1/DTD/svg11.dtd">
<!-- Generated by graphviz version 2.36.0 (20140111.2315)
 -->
<!-- Title: TestWinGlut Pages: 1 -->
<svg width="636pt" height="2098pt"
 viewBox="0.00 0.00 636.00 2098.00" xmlns="http://www.w3.org/2000/svg" xmlns:xlink="http://www.w3.org/1999/xlink">
<g id="graph0" class="graph" transform="scale(1 1) rotate(0) translate(4 2094)">
<title>TestWinGlut</title>
<polygon fill="white" stroke="none" points="-4,4 -4,-2094 632,-2094 632,4 -4,4"/>
<!-- Node1 -->
<g id="node1" class="node"><title>Node1</title>
<polygon fill="#bfbfbf" stroke="black" points="175.5,-0.5 175.5,-123.5 276.5,-123.5 276.5,-0.5 175.5,-0.5"/>
<text text-anchor="middle" x="226" y="-111.5" font-family="Helvetica,sans-Serif" font-size="10.00">TestWinGlut</text>
<polyline fill="none" stroke="black" points="175.5,-104.5 276.5,-104.5 "/>
<text text-anchor="middle" x="226" y="-92.5" font-family="Helvetica,sans-Serif" font-size="10.00"> </text>
<polyline fill="none" stroke="black" points="175.5,-85.5 276.5,-85.5 "/>
<text text-anchor="start" x="183.5" y="-73.5" font-family="Helvetica,sans-Serif" font-size="10.00">+ SetDisplaySize()</text>
<text text-anchor="start" x="183.5" y="-62.5" font-family="Helvetica,sans-Serif" font-size="10.00">+ UpdateDisplay()</text>
<text text-anchor="start" x="183.5" y="-51.5" font-family="Helvetica,sans-Serif" font-size="10.00">+ SetWindowTitle()</text>
<text text-anchor="start" x="183.5" y="-40.5" font-family="Helvetica,sans-Serif" font-size="10.00">+ TestWinGlut()</text>
<text text-anchor="start" x="183.5" y="-29.5" font-family="Helvetica,sans-Serif" font-size="10.00">+ ~TestWinGlut()</text>
<text text-anchor="start" x="183.5" y="-18.5" font-family="Helvetica,sans-Serif" font-size="10.00">+ motion()</text>
<text text-anchor="start" x="183.5" y="-7.5" font-family="Helvetica,sans-Serif" font-size="10.00">+ Run()</text>
</g>
<!-- Node2 -->
<g id="node2" class="node"><title>Node2</title>
<g id="a_node2"><a xlink:href="../../d4/da2/classBasicTestWin.html" target="_top" xlink:title="{BasicTestWin\n|# _displayScale\l# _imgWidth\l# _imgHeight\l# _win_x\l# _win_y\l# _current\l|+ SetVerbose()\l+ FitWindow()\l+ OnIdle()\l+ EndMotion()\l+ StartMotion()\l+ SetView()\l+ ReShape()\l+ MoveMouse()\l+ KeyInput()\l+ Display()\l+ UpdateDisplay()\l+ BasicTestWin()\l+ ~BasicTestWin()\l+ ParseSiftParam()\l+ RunSiftGPU()\l+ myclock()\l# SetWindowTitle()\l# SetDisplaySize()\l}">
<polygon fill="white" stroke="black" points="175.5,-162.5 175.5,-461.5 276.5,-461.5 276.5,-162.5 175.5,-162.5"/>
<text text-anchor="middle" x="226" y="-449.5" font-family="Helvetica,sans-Serif" font-size="10.00">BasicTestWin</text>
<polyline fill="none" stroke="black" points="175.5,-442.5 276.5,-442.5 "/>
<text text-anchor="start" x="183.5" y="-430.5" font-family="Helvetica,sans-Serif" font-size="10.00"># _displayScale</text>
<text text-anchor="start" x="183.5" y="-419.5" font-family="Helvetica,sans-Serif" font-size="10.00"># _imgWidth</text>
<text text-anchor="start" x="183.5" y="-408.5" font-family="Helvetica,sans-Serif" font-size="10.00"># _imgHeight</text>
<text text-anchor="start" x="183.5" y="-397.5" font-family="Helvetica,sans-Serif" font-size="10.00"># _win_x</text>
<text text-anchor="start" x="183.5" y="-386.5" font-family="Helvetica,sans-Serif" font-size="10.00"># _win_y</text>
<text text-anchor="start" x="183.5" y="-375.5" font-family="Helvetica,sans-Serif" font-size="10.00"># _current</text>
<polyline fill="none" stroke="black" points="175.5,-368.5 276.5,-368.5 "/>
<text text-anchor="start" x="183.5" y="-356.5" font-family="Helvetica,sans-Serif" font-size="10.00">+ SetVerbose()</text>
<text text-anchor="start" x="183.5" y="-345.5" font-family="Helvetica,sans-Serif" font-size="10.00">+ FitWindow()</text>
<text text-anchor="start" x="183.5" y="-334.5" font-family="Helvetica,sans-Serif" font-size="10.00">+ OnIdle()</text>
<text text-anchor="start" x="183.5" y="-323.5" font-family="Helvetica,sans-Serif" font-size="10.00">+ EndMotion()</text>
<text text-anchor="start" x="183.5" y="-312.5" font-family="Helvetica,sans-Serif" font-size="10.00">+ StartMotion()</text>
<text text-anchor="start" x="183.5" y="-301.5" font-family="Helvetica,sans-Serif" font-size="10.00">+ SetView()</text>
<text text-anchor="start" x="183.5" y="-290.5" font-family="Helvetica,sans-Serif" font-size="10.00">+ ReShape()</text>
<text text-anchor="start" x="183.5" y="-279.5" font-family="Helvetica,sans-Serif" font-size="10.00">+ MoveMouse()</text>
<text text-anchor="start" x="183.5" y="-268.5" font-family="Helvetica,sans-Serif" font-size="10.00">+ KeyInput()</text>
<text text-anchor="start" x="183.5" y="-257.5" font-family="Helvetica,sans-Serif" font-size="10.00">+ Display()</text>
<text text-anchor="start" x="183.5" y="-246.5" font-family="Helvetica,sans-Serif" font-size="10.00">+ UpdateDisplay()</text>
<text text-anchor="start" x="183.5" y="-235.5" font-family="Helvetica,sans-Serif" font-size="10.00">+ BasicTestWin()</text>
<text text-anchor="start" x="183.5" y="-224.5" font-family="Helvetica,sans-Serif" font-size="10.00">+ ~BasicTestWin()</text>
<text text-anchor="start" x="183.5" y="-213.5" font-family="Helvetica,sans-Serif" font-size="10.00">+ ParseSiftParam()</text>
<text text-anchor="start" x="183.5" y="-202.5" font-family="Helvetica,sans-Serif" font-size="10.00">+ RunSiftGPU()</text>
<text text-anchor="start" x="183.5" y="-191.5" font-family="Helvetica,sans-Serif" font-size="10.00">+ myclock()</text>
<text text-anchor="start" x="183.5" y="-180.5" font-family="Helvetica,sans-Serif" font-size="10.00"># SetWindowTitle()</text>
<text text-anchor="start" x="183.5" y="-169.5" font-family="Helvetica,sans-Serif" font-size="10.00"># SetDisplaySize()</text>
</a>
</g>
</g>
<!-- Node2&#45;&gt;Node1 -->
<g id="edge1" class="edge"><title>Node2&#45;&gt;Node1</title>
<path fill="none" stroke="midnightblue" d="M226,-152.317C226,-142.292 226,-132.595 226,-123.519"/>
<polygon fill="none" stroke="midnightblue" points="222.5,-152.442 226,-162.442 229.5,-152.442 222.5,-152.442"/>
</g>
<!-- Node3 -->
<g id="node3" class="node"><title>Node3</title>
<g id="a_node3"><a xlink:href="../../d9/d69/classSiftGPUEX.html" target="_top" xlink:title="{SiftGPUEX\n||+ SiftGPUEX()\l+ SetView()\l+ DisplaySIFT()\l+ ToggleDisplayDebug()\l+ RandomizeColor()\l+ GetImageDimension()\l+ GetInitWindowPotition()\l}">
<polygon fill="white" stroke="black" points="161.5,-510.5 161.5,-633.5 290.5,-633.5 290.5,-510.5 161.5,-510.5"/>
<text text-anchor="middle" x="226" y="-621.5" font-family="Helvetica,sans-Serif" font-size="10.00">SiftGPUEX</text>
<polyline fill="none" stroke="black" points="161.5,-614.5 290.5,-614.5 "/>
<text text-anchor="middle" x="226" y="-602.5" font-family="Helvetica,sans-Serif" font-size="10.00"> </text>
<polyline fill="none" stroke="black" points="161.5,-595.5 290.5,-595.5 "/>
<text text-anchor="start" x="169.5" y="-583.5" font-family="Helvetica,sans-Serif" font-size="10.00">+ SiftGPUEX()</text>
<text text-anchor="start" x="169.5" y="-572.5" font-family="Helvetica,sans-Serif" font-size="10.00">+ SetView()</text>
<text text-anchor="start" x="169.5" y="-561.5" font-family="Helvetica,sans-Serif" font-size="10.00">+ DisplaySIFT()</text>
<text text-anchor="start" x="169.5" y="-550.5" font-family="Helvetica,sans-Serif" font-size="10.00">+ ToggleDisplayDebug()</text>
<text text-anchor="start" x="169.5" y="-539.5" font-family="Helvetica,sans-Serif" font-size="10.00">+ RandomizeColor()</text>
<text text-anchor="start" x="169.5" y="-528.5" font-family="Helvetica,sans-Serif" font-size="10.00">+ GetImageDimension()</text>
<text text-anchor="start" x="169.5" y="-517.5" font-family="Helvetica,sans-Serif" font-size="10.00">+ GetInitWindowPotition()</text>
</a>
</g>
</g>
<!-- Node3&#45;&gt;Node2 -->
<g id="edge2" class="edge"><title>Node3&#45;&gt;Node2</title>
<path fill="none" stroke="#404040" d="M226,-510.184C226,-498.895 226,-486.627 226,-473.919"/>
<polygon fill="none" stroke="#404040" points="226,-473.617 222,-467.617 226,-461.617 230,-467.617 226,-473.617"/>
<text text-anchor="middle" x="240" y="-483.5" font-family="Helvetica,sans-Serif" font-size="10.00"> #_sift</text>
</g>
<!-- Node4 -->
<g id="node4" class="node"><title>Node4</title>
<g id="a_node4"><a xlink:href="../../d4/dee/classSiftGPU.html" target="_top" xlink:title="{SiftGPU\n|+ _timing\l# _current\l# _initialized\l# _image_loaded\l# _imgpath\l# _outpath\l|+ GetCurrentImagePath()\l+ SetImageList()\l+ GetFeatureNum()\l+ SaveSIFT()\l+ GetFeatureVector()\l+ SetKeypointList()\l+ CreateContextGL()\l+ VerifyContextGL()\l+ IsFullSupported()\l+ SetVerbose()\land 15 more...\l# InitSiftGPU()\l# LoadImageList()\l# PrintUsage()\l}">
<polygon fill="white" stroke="black" points="162.5,-672.5 162.5,-927.5 289.5,-927.5 289.5,-672.5 162.5,-672.5"/>
<text text-anchor="middle" x="226" y="-915.5" font-family="Helvetica,sans-Serif" font-size="10.00">SiftGPU</text>
<polyline fill="none" stroke="black" points="162.5,-908.5 289.5,-908.5 "/>
<text text-anchor="start" x="170.5" y="-896.5" font-family="Helvetica,sans-Serif" font-size="10.00">+ _timing</text>
<text text-anchor="start" x="170.5" y="-885.5" font-family="Helvetica,sans-Serif" font-size="10.00"># _current</text>
<text text-anchor="start" x="170.5" y="-874.5" font-family="Helvetica,sans-Serif" font-size="10.00"># _initialized</text>
<text text-anchor="start" x="170.5" y="-863.5" font-family="Helvetica,sans-Serif" font-size="10.00"># _image_loaded</text>
<text text-anchor="start" x="170.5" y="-852.5" font-family="Helvetica,sans-Serif" font-size="10.00"># _imgpath</text>
<text text-anchor="start" x="170.5" y="-841.5" font-family="Helvetica,sans-Serif" font-size="10.00"># _outpath</text>
<polyline fill="none" stroke="black" points="162.5,-834.5 289.5,-834.5 "/>
<text text-anchor="start" x="170.5" y="-822.5" font-family="Helvetica,sans-Serif" font-size="10.00">+ GetCurrentImagePath()</text>
<text text-anchor="start" x="170.5" y="-811.5" font-family="Helvetica,sans-Serif" font-size="10.00">+ SetImageList()</text>
<text text-anchor="start" x="170.5" y="-800.5" font-family="Helvetica,sans-Serif" font-size="10.00">+ GetFeatureNum()</text>
<text text-anchor="start" x="170.5" y="-789.5" font-family="Helvetica,sans-Serif" font-size="10.00">+ SaveSIFT()</text>
<text text-anchor="start" x="170.5" y="-778.5" font-family="Helvetica,sans-Serif" font-size="10.00">+ GetFeatureVector()</text>
<text text-anchor="start" x="170.5" y="-767.5" font-family="Helvetica,sans-Serif" font-size="10.00">+ SetKeypointList()</text>
<text text-anchor="start" x="170.5" y="-756.5" font-family="Helvetica,sans-Serif" font-size="10.00">+ CreateContextGL()</text>
<text text-anchor="start" x="170.5" y="-745.5" font-family="Helvetica,sans-Serif" font-size="10.00">+ VerifyContextGL()</text>
<text text-anchor="start" x="170.5" y="-734.5" font-family="Helvetica,sans-Serif" font-size="10.00">+ IsFullSupported()</text>
<text text-anchor="start" x="170.5" y="-723.5" font-family="Helvetica,sans-Serif" font-size="10.00">+ SetVerbose()</text>
<text text-anchor="start" x="170.5" y="-712.5" font-family="Helvetica,sans-Serif" font-size="10.00">and 15 more...</text>
<text text-anchor="start" x="170.5" y="-701.5" font-family="Helvetica,sans-Serif" font-size="10.00"># InitSiftGPU()</text>
<text text-anchor="start" x="170.5" y="-690.5" font-family="Helvetica,sans-Serif" font-size="10.00"># LoadImageList()</text>
<text text-anchor="start" x="170.5" y="-679.5" font-family="Helvetica,sans-Serif" font-size="10.00"># PrintUsage()</text>
</a>
</g>
</g>
<!-- Node4&#45;&gt;Node3 -->
<g id="edge3" class="edge"><title>Node4&#45;&gt;Node3</title>
<path fill="none" stroke="midnightblue" d="M226,-662.455C226,-652.527 226,-642.853 226,-633.757"/>
<polygon fill="none" stroke="midnightblue" points="222.5,-662.456 226,-672.456 229.5,-662.456 222.5,-662.456"/>
</g>
<!-- Node5 -->
<g id="node5" class="node"><title>Node5</title>
<g id="a_node5"><a xlink:href="../../dc/d5a/classSiftParam.html" target="_top" xlink:title="{SiftParam\n|+ _sigma\l+ _sigma_skip0\l+ _sigma_skip1\l+ _sigma0\l+ _sigman\l+ _sigma_num\l+ _dog_level_num\l+ _level_num\l+ _level_min\l+ _level_max\l+ _level_ds\l+ _dog_threshold\l+ _edge_threshold\l|+ ParseSiftParam()\l+ GetLevelSigma()\l+ GetInitialSmoothSigma()\l+ SiftParam()\l}">
<polygon fill="white" stroke="black" points="126,-1428 126,-1650 258,-1650 258,-1428 126,-1428"/>
<text text-anchor="middle" x="192" y="-1638" font-family="Helvetica,sans-Serif" font-size="10.00">SiftParam</text>
<polyline fill="none" stroke="black" points="126,-1631 258,-1631 "/>
<text text-anchor="start" x="134" y="-1619" font-family="Helvetica,sans-Serif" font-size="10.00">+ _sigma</text>
<text text-anchor="start" x="134" y="-1608" font-family="Helvetica,sans-Serif" font-size="10.00">+ _sigma_skip0</text>
<text text-anchor="start" x="134" y="-1597" font-family="Helvetica,sans-Serif" font-size="10.00">+ _sigma_skip1</text>
<text text-anchor="start" x="134" y="-1586" font-family="Helvetica,sans-Serif" font-size="10.00">+ _sigma0</text>
<text text-anchor="start" x="134" y="-1575" font-family="Helvetica,sans-Serif" font-size="10.00">+ _sigman</text>
<text text-anchor="start" x="134" y="-1564" font-family="Helvetica,sans-Serif" font-size="10.00">+ _sigma_num</text>
<text text-anchor="start" x="134" y="-1553" font-family="Helvetica,sans-Serif" font-size="10.00">+ _dog_level_num</text>
<text text-anchor="start" x="134" y="-1542" font-family="Helvetica,sans-Serif" font-size="10.00">+ _level_num</text>
<text text-anchor="start" x="134" y="-1531" font-family="Helvetica,sans-Serif" font-size="10.00">+ _level_min</text>
<text text-anchor="start" x="134" y="-1520" font-family="Helvetica,sans-Serif" font-size="10.00">+ _level_max</text>
<text text-anchor="start" x="134" y="-1509" font-family="Helvetica,sans-Serif" font-size="10.00">+ _level_ds</text>
<text text-anchor="start" x="134" y="-1498" font-family="Helvetica,sans-Serif" font-size="10.00">+ _dog_threshold</text>
<text text-anchor="start" x="134" y="-1487" font-family="Helvetica,sans-Serif" font-size="10.00">+ _edge_threshold</text>
<polyline fill="none" stroke="black" points="126,-1480 258,-1480 "/>
<text text-anchor="start" x="134" y="-1468" font-family="Helvetica,sans-Serif" font-size="10.00">+ ParseSiftParam()</text>
<text text-anchor="start" x="134" y="-1457" font-family="Helvetica,sans-Serif" font-size="10.00">+ GetLevelSigma()</text>
<text text-anchor="start" x="134" y="-1446" font-family="Helvetica,sans-Serif" font-size="10.00">+ GetInitialSmoothSigma()</text>
<text text-anchor="start" x="134" y="-1435" font-family="Helvetica,sans-Serif" font-size="10.00">+ SiftParam()</text>
</a>
</g>
</g>
<!-- Node5&#45;&gt;Node4 -->
<g id="edge4" class="edge"><title>Node5&#45;&gt;Node4</title>
<path fill="none" stroke="midnightblue" d="M193.796,-1417.67C195.983,-1303.8 200.616,-1128.16 210,-976 210.967,-960.318 212.193,-943.863 213.534,-927.581"/>
<polygon fill="none" stroke="midnightblue" points="190.294,-1417.74 193.605,-1427.8 197.293,-1417.87 190.294,-1417.74"/>
</g>
<!-- Node6 -->
<g id="node6" class="node"><title>Node6</title>
<g id="a_node6"><a xlink:href="../../dd/dce/classSiftPyramid.html" target="_top" xlink:title="{SiftPyramid\n|+ _timing\l+ _octave_min\l+ _octave_num\l+ _pyramid_octave_num\l+ _pyramid_octave_first\l+ _pyramid_width\l+ _pyramid_height\l+ _down_sample_factor\l+ _allocated\l+ _alignment\l+ _siftgpu_failed\l# _hpLevelNum\l# _levelFeatureNum\l# _featureNum\l# _histo_buffer\l# _existing_keypoints\l# _featureDisplayVBO\l# _featurePointVBO\l|+ RunSIFT()\l+ SaveSIFT()\l+ CopyFeatureVector()\l+ SetKeypointList()\l+ GetFeatureDescriptors()\l+ GenerateFeatureListTex()\l+ ReshapeFeatureListCPU()\l+ GenerateFeatureDisplayVBO()\l+ DownloadKeypoints()\l+ GenerateFeatureListCPU()\land 23 more...\l+ GetRequiredOctaveNum()\l}">
<polygon fill="white" stroke="black" points="219,-976.5 219,-1341.5 377,-1341.5 377,-976.5 219,-976.5"/>
<text text-anchor="middle" x="298" y="-1329.5" font-family="Helvetica,sans-Serif" font-size="10.00">SiftPyramid</text>
<polyline fill="none" stroke="black" points="219,-1322.5 377,-1322.5 "/>
<text text-anchor="start" x="227" y="-1310.5" font-family="Helvetica,sans-Serif" font-size="10.00">+ _timing</text>
<text text-anchor="start" x="227" y="-1299.5" font-family="Helvetica,sans-Serif" font-size="10.00">+ _octave_min</text>
<text text-anchor="start" x="227" y="-1288.5" font-family="Helvetica,sans-Serif" font-size="10.00">+ _octave_num</text>
<text text-anchor="start" x="227" y="-1277.5" font-family="Helvetica,sans-Serif" font-size="10.00">+ _pyramid_octave_num</text>
<text text-anchor="start" x="227" y="-1266.5" font-family="Helvetica,sans-Serif" font-size="10.00">+ _pyramid_octave_first</text>
<text text-anchor="start" x="227" y="-1255.5" font-family="Helvetica,sans-Serif" font-size="10.00">+ _pyramid_width</text>
<text text-anchor="start" x="227" y="-1244.5" font-family="Helvetica,sans-Serif" font-size="10.00">+ _pyramid_height</text>
<text text-anchor="start" x="227" y="-1233.5" font-family="Helvetica,sans-Serif" font-size="10.00">+ _down_sample_factor</text>
<text text-anchor="start" x="227" y="-1222.5" font-family="Helvetica,sans-Serif" font-size="10.00">+ _allocated</text>
<text text-anchor="start" x="227" y="-1211.5" font-family="Helvetica,sans-Serif" font-size="10.00">+ _alignment</text>
<text text-anchor="start" x="227" y="-1200.5" font-family="Helvetica,sans-Serif" font-size="10.00">+ _siftgpu_failed</text>
<text text-anchor="start" x="227" y="-1189.5" font-family="Helvetica,sans-Serif" font-size="10.00"># _hpLevelNum</text>
<text text-anchor="start" x="227" y="-1178.5" font-family="Helvetica,sans-Serif" font-size="10.00"># _levelFeatureNum</text>
<text text-anchor="start" x="227" y="-1167.5" font-family="Helvetica,sans-Serif" font-size="10.00"># _featureNum</text>
<text text-anchor="start" x="227" y="-1156.5" font-family="Helvetica,sans-Serif" font-size="10.00"># _histo_buffer</text>
<text text-anchor="start" x="227" y="-1145.5" font-family="Helvetica,sans-Serif" font-size="10.00"># _existing_keypoints</text>
<text text-anchor="start" x="227" y="-1134.5" font-family="Helvetica,sans-Serif" font-size="10.00"># _featureDisplayVBO</text>
<text text-anchor="start" x="227" y="-1123.5" font-family="Helvetica,sans-Serif" font-size="10.00"># _featurePointVBO</text>
<polyline fill="none" stroke="black" points="219,-1116.5 377,-1116.5 "/>
<text text-anchor="start" x="227" y="-1104.5" font-family="Helvetica,sans-Serif" font-size="10.00">+ RunSIFT()</text>
<text text-anchor="start" x="227" y="-1093.5" font-family="Helvetica,sans-Serif" font-size="10.00">+ SaveSIFT()</text>
<text text-anchor="start" x="227" y="-1082.5" font-family="Helvetica,sans-Serif" font-size="10.00">+ CopyFeatureVector()</text>
<text text-anchor="start" x="227" y="-1071.5" font-family="Helvetica,sans-Serif" font-size="10.00">+ SetKeypointList()</text>
<text text-anchor="start" x="227" y="-1060.5" font-family="Helvetica,sans-Serif" font-size="10.00">+ GetFeatureDescriptors()</text>
<text text-anchor="start" x="227" y="-1049.5" font-family="Helvetica,sans-Serif" font-size="10.00">+ GenerateFeatureListTex()</text>
<text text-anchor="start" x="227" y="-1038.5" font-family="Helvetica,sans-Serif" font-size="10.00">+ ReshapeFeatureListCPU()</text>
<text text-anchor="start" x="227" y="-1027.5" font-family="Helvetica,sans-Serif" font-size="10.00">+ GenerateFeatureDisplayVBO()</text>
<text text-anchor="start" x="227" y="-1016.5" font-family="Helvetica,sans-Serif" font-size="10.00">+ DownloadKeypoints()</text>
<text text-anchor="start" x="227" y="-1005.5" font-family="Helvetica,sans-Serif" font-size="10.00">+ GenerateFeatureListCPU()</text>
<text text-anchor="start" x="227" y="-994.5" font-family="Helvetica,sans-Serif" font-size="10.00">and 23 more...</text>
<text text-anchor="start" x="227" y="-983.5" font-family="Helvetica,sans-Serif" font-size="10.00">+ GetRequiredOctaveNum()</text>
</a>
</g>
</g>
<!-- Node5&#45;&gt;Node6 -->
<g id="edge8" class="edge"><title>Node5&#45;&gt;Node6</title>
<path fill="none" stroke="#404040" d="M222.873,-1427.9C229.445,-1404.47 236.571,-1379.06 243.727,-1353.54"/>
<polygon fill="none" stroke="#404040" points="243.775,-1353.37 241.544,-1346.51 247.015,-1341.81 249.246,-1348.67 243.775,-1353.37"/>
<text text-anchor="middle" x="260" y="-1368.5" font-family="Helvetica,sans-Serif" font-size="10.00"> #param</text>
</g>
<!-- Node6&#45;&gt;Node4 -->
<g id="edge5" class="edge"><title>Node6&#45;&gt;Node4</title>
<path fill="none" stroke="#404040" d="M261.367,-976.362C258.892,-964.09 256.421,-951.837 254,-939.836"/>
<polygon fill="none" stroke="#404040" points="253.971,-939.69 248.864,-934.599 251.599,-927.927 256.706,-933.018 253.971,-939.69"/>
<text text-anchor="middle" x="280.5" y="-949.5" font-family="Helvetica,sans-Serif" font-size="10.00"> #_pyramid</text>
</g>
<!-- Node7 -->
<g id="node7" class="node"><title>Node7</title>
<g id="a_node7"><a xlink:href="../../d2/d55/classGlobalUtil.html" target="_top" xlink:title="{GlobalUtil\n||+ CLOCK()\l+ StopTimer()\l+ StartTimer()\l+ GetElapsedTime()\l+ FitViewPort()\l+ SetTextureParameter()\l+ SetTextureParameterUS()\l+ CheckErrorsGL()\l+ CheckFramebufferStatus()\l+ SelectDisplay()\land 6 more...\l}">
<polygon fill="white" stroke="black" points="219.5,-1716.5 219.5,-1883.5 360.5,-1883.5 360.5,-1716.5 219.5,-1716.5"/>
<text text-anchor="middle" x="290" y="-1871.5" font-family="Helvetica,sans-Serif" font-size="10.00">GlobalUtil</text>
<polyline fill="none" stroke="black" points="219.5,-1864.5 360.5,-1864.5 "/>
<text text-anchor="middle" x="290" y="-1852.5" font-family="Helvetica,sans-Serif" font-size="10.00"> </text>
<polyline fill="none" stroke="black" points="219.5,-1845.5 360.5,-1845.5 "/>
<text text-anchor="start" x="227.5" y="-1833.5" font-family="Helvetica,sans-Serif" font-size="10.00">+ CLOCK()</text>
<text text-anchor="start" x="227.5" y="-1822.5" font-family="Helvetica,sans-Serif" font-size="10.00">+ StopTimer()</text>
<text text-anchor="start" x="227.5" y="-1811.5" font-family="Helvetica,sans-Serif" font-size="10.00">+ StartTimer()</text>
<text text-anchor="start" x="227.5" y="-1800.5" font-family="Helvetica,sans-Serif" font-size="10.00">+ GetElapsedTime()</text>
<text text-anchor="start" x="227.5" y="-1789.5" font-family="Helvetica,sans-Serif" font-size="10.00">+ FitViewPort()</text>
<text text-anchor="start" x="227.5" y="-1778.5" font-family="Helvetica,sans-Serif" font-size="10.00">+ SetTextureParameter()</text>
<text text-anchor="start" x="227.5" y="-1767.5" font-family="Helvetica,sans-Serif" font-size="10.00">+ SetTextureParameterUS()</text>
<text text-anchor="start" x="227.5" y="-1756.5" font-family="Helvetica,sans-Serif" font-size="10.00">+ CheckErrorsGL()</text>
<text text-anchor="start" x="227.5" y="-1745.5" font-family="Helvetica,sans-Serif" font-size="10.00">+ CheckFramebufferStatus()</text>
<text text-anchor="start" x="227.5" y="-1734.5" font-family="Helvetica,sans-Serif" font-size="10.00">+ SelectDisplay()</text>
<text text-anchor="start" x="227.5" y="-1723.5" font-family="Helvetica,sans-Serif" font-size="10.00">and 6 more...</text>
</a>
</g>
</g>
<!-- Node7&#45;&gt;Node6 -->
<g id="edge6" class="edge"><title>Node7&#45;&gt;Node6</title>
<path fill="none" stroke="midnightblue" d="M346.668,-1707.16C350.803,-1697.57 354.375,-1687.75 357,-1678 393.748,-1541.5 385.118,-1499.62 363,-1360 362.043,-1353.96 360.933,-1347.85 359.694,-1341.72"/>
<polygon fill="none" stroke="midnightblue" points="343.476,-1705.72 342.543,-1716.28 349.853,-1708.61 343.476,-1705.72"/>
</g>
<!-- Node12 -->
<g id="node12" class="node"><title>Node12</title>
<g id="a_node12"><a xlink:href="../../df/da6/classGLTexImage.html" target="_top" xlink:title="{GLTexImage\n|# _texID\l# _imgWidth\l# _imgHeight\l# _texWidth\l# _texHeight\l# _drawWidth\l# _drawHeight\l|+ DrawQuadUS()\l+ DrawQuadDS()\l+ DrawImage()\l+ TexConvertRGB()\l+ ZeroHistoMargin()\l+ SetImageSize()\l+ InitTexture()\l+ InitTexture()\l+ FillMargin()\l+ DrawScaledQuad()\land 28 more...\l+ DetachFBO()\l+ UnbindTex()\l+ UnbindMultiTex()\l+ DrawQuad()\l}">
<polygon fill="white" stroke="black" points="0,-1400.5 0,-1677.5 108,-1677.5 108,-1400.5 0,-1400.5"/>
<text text-anchor="middle" x="54" y="-1665.5" font-family="Helvetica,sans-Serif" font-size="10.00">GLTexImage</text>
<polyline fill="none" stroke="black" points="0,-1658.5 108,-1658.5 "/>
<text text-anchor="start" x="8" y="-1646.5" font-family="Helvetica,sans-Serif" font-size="10.00"># _texID</text>
<text text-anchor="start" x="8" y="-1635.5" font-family="Helvetica,sans-Serif" font-size="10.00"># _imgWidth</text>
<text text-anchor="start" x="8" y="-1624.5" font-family="Helvetica,sans-Serif" font-size="10.00"># _imgHeight</text>
<text text-anchor="start" x="8" y="-1613.5" font-family="Helvetica,sans-Serif" font-size="10.00"># _texWidth</text>
<text text-anchor="start" x="8" y="-1602.5" font-family="Helvetica,sans-Serif" font-size="10.00"># _texHeight</text>
<text text-anchor="start" x="8" y="-1591.5" font-family="Helvetica,sans-Serif" font-size="10.00"># _drawWidth</text>
<text text-anchor="start" x="8" y="-1580.5" font-family="Helvetica,sans-Serif" font-size="10.00"># _drawHeight</text>
<polyline fill="none" stroke="black" points="0,-1573.5 108,-1573.5 "/>
<text text-anchor="start" x="8" y="-1561.5" font-family="Helvetica,sans-Serif" font-size="10.00">+ DrawQuadUS()</text>
<text text-anchor="start" x="8" y="-1550.5" font-family="Helvetica,sans-Serif" font-size="10.00">+ DrawQuadDS()</text>
<text text-anchor="start" x="8" y="-1539.5" font-family="Helvetica,sans-Serif" font-size="10.00">+ DrawImage()</text>
<text text-anchor="start" x="8" y="-1528.5" font-family="Helvetica,sans-Serif" font-size="10.00">+ TexConvertRGB()</text>
<text text-anchor="start" x="8" y="-1517.5" font-family="Helvetica,sans-Serif" font-size="10.00">+ ZeroHistoMargin()</text>
<text text-anchor="start" x="8" y="-1506.5" font-family="Helvetica,sans-Serif" font-size="10.00">+ SetImageSize()</text>
<text text-anchor="start" x="8" y="-1495.5" font-family="Helvetica,sans-Serif" font-size="10.00">+ InitTexture()</text>
<text text-anchor="start" x="8" y="-1484.5" font-family="Helvetica,sans-Serif" font-size="10.00">+ InitTexture()</text>
<text text-anchor="start" x="8" y="-1473.5" font-family="Helvetica,sans-Serif" font-size="10.00">+ FillMargin()</text>
<text text-anchor="start" x="8" y="-1462.5" font-family="Helvetica,sans-Serif" font-size="10.00">+ DrawScaledQuad()</text>
<text text-anchor="start" x="8" y="-1451.5" font-family="Helvetica,sans-Serif" font-size="10.00">and 28 more...</text>
<text text-anchor="start" x="8" y="-1440.5" font-family="Helvetica,sans-Serif" font-size="10.00">+ DetachFBO()</text>
<text text-anchor="start" x="8" y="-1429.5" font-family="Helvetica,sans-Serif" font-size="10.00">+ UnbindTex()</text>
<text text-anchor="start" x="8" y="-1418.5" font-family="Helvetica,sans-Serif" font-size="10.00">+ UnbindMultiTex()</text>
<text text-anchor="start" x="8" y="-1407.5" font-family="Helvetica,sans-Serif" font-size="10.00">+ DrawQuad()</text>
</a>
</g>
</g>
<!-- Node7&#45;&gt;Node12 -->
<g id="edge13" class="edge"><title>Node7&#45;&gt;Node12</title>
<path fill="none" stroke="midnightblue" d="M210.685,-1756.14C178.469,-1735.76 142.835,-1709.03 117,-1678 113.882,-1674.26 110.886,-1670.33 108.01,-1666.27"/>
<polygon fill="none" stroke="midnightblue" points="208.89,-1759.15 219.23,-1761.45 212.585,-1753.2 208.89,-1759.15"/>
</g>
<!-- Node8 -->
<g id="node8" class="node"><title>Node8</title>
<g id="a_node8"><a xlink:href="../../db/d04/classGlobalParam.html" target="_top" xlink:title="{GlobalParam\n|+ _texTarget\l+ _iTexFormat\l+ _texMaxDim\l+ _texMaxDimGL\l+ _texMinDim\l+ _MemCapGPU\l+ _FitMemoryCap\l+ _verbose\l+ _timingS\l+ _timingO\land 53 more...\l|}">
<polygon fill="white" stroke="black" points="242.5,-1922.5 242.5,-2089.5 337.5,-2089.5 337.5,-1922.5 242.5,-1922.5"/>
<text text-anchor="middle" x="290" y="-2077.5" font-family="Helvetica,sans-Serif" font-size="10.00">GlobalParam</text>
<polyline fill="none" stroke="black" points="242.5,-2070.5 337.5,-2070.5 "/>
<text text-anchor="start" x="250.5" y="-2058.5" font-family="Helvetica,sans-Serif" font-size="10.00">+ _texTarget</text>
<text text-anchor="start" x="250.5" y="-2047.5" font-family="Helvetica,sans-Serif" font-size="10.00">+ _iTexFormat</text>
<text text-anchor="start" x="250.5" y="-2036.5" font-family="Helvetica,sans-Serif" font-size="10.00">+ _texMaxDim</text>
<text text-anchor="start" x="250.5" y="-2025.5" font-family="Helvetica,sans-Serif" font-size="10.00">+ _texMaxDimGL</text>
<text text-anchor="start" x="250.5" y="-2014.5" font-family="Helvetica,sans-Serif" font-size="10.00">+ _texMinDim</text>
<text text-anchor="start" x="250.5" y="-2003.5" font-family="Helvetica,sans-Serif" font-size="10.00">+ _MemCapGPU</text>
<text text-anchor="start" x="250.5" y="-1992.5" font-family="Helvetica,sans-Serif" font-size="10.00">+ _FitMemoryCap</text>
<text text-anchor="start" x="250.5" y="-1981.5" font-family="Helvetica,sans-Serif" font-size="10.00">+ _verbose</text>
<text text-anchor="start" x="250.5" y="-1970.5" font-family="Helvetica,sans-Serif" font-size="10.00">+ _timingS</text>
<text text-anchor="start" x="250.5" y="-1959.5" font-family="Helvetica,sans-Serif" font-size="10.00">+ _timingO</text>
<text text-anchor="start" x="250.5" y="-1948.5" font-family="Helvetica,sans-Serif" font-size="10.00">and 53 more...</text>
<polyline fill="none" stroke="black" points="242.5,-1941.5 337.5,-1941.5 "/>
<text text-anchor="middle" x="290" y="-1929.5" font-family="Helvetica,sans-Serif" font-size="10.00"> </text>
</a>
</g>
</g>
<!-- Node8&#45;&gt;Node7 -->
<g id="edge7" class="edge"><title>Node8&#45;&gt;Node7</title>
<path fill="none" stroke="midnightblue" d="M290,-1912.13C290,-1902.68 290,-1893.13 290,-1883.8"/>
<polygon fill="none" stroke="midnightblue" points="286.5,-1912.32 290,-1922.32 293.5,-1912.32 286.5,-1912.32"/>
</g>
<!-- Node9 -->
<g id="node9" class="node"><title>Node9</title>
<polygon fill="white" stroke="#bfbfbf" points="405,-1510.5 405,-1567.5 485,-1567.5 485,-1510.5 405,-1510.5"/>
<text text-anchor="middle" x="445" y="-1555.5" font-family="Helvetica,sans-Serif" font-size="10.00">vector&lt; float &gt;</text>
<polyline fill="none" stroke="#bfbfbf" points="405,-1548.5 485,-1548.5 "/>
<text text-anchor="middle" x="445" y="-1536.5" font-family="Helvetica,sans-Serif" font-size="10.00"> </text>
<polyline fill="none" stroke="#bfbfbf" points="405,-1529.5 485,-1529.5 "/>
<text text-anchor="middle" x="445" y="-1517.5" font-family="Helvetica,sans-Serif" font-size="10.00"> </text>
</g>
<!-- Node9&#45;&gt;Node6 -->
<g id="edge9" class="edge"><title>Node9&#45;&gt;Node6</title>
<path fill="none" stroke="#404040" d="M437.939,-1510.46C428.589,-1475.13 410.937,-1412.19 391,-1360 388.051,-1352.28 384.938,-1344.44 381.711,-1336.56"/>
<polygon fill="none" stroke="#404040" points="381.676,-1336.47 375.681,-1332.46 377.076,-1325.39 383.07,-1329.4 381.676,-1336.47"/>
<text text-anchor="middle" x="442" y="-1374" font-family="Helvetica,sans-Serif" font-size="10.00"> +_descriptor_buffer</text>
<text text-anchor="middle" x="442" y="-1363" font-family="Helvetica,sans-Serif" font-size="10.00">+_keypoint_buffer</text>
</g>
<!-- Node10 -->
<g id="node10" class="node"><title>Node10</title>
<polygon fill="white" stroke="#bfbfbf" points="276,-1510.5 276,-1567.5 348,-1567.5 348,-1510.5 276,-1510.5"/>
<text text-anchor="middle" x="312" y="-1555.5" font-family="Helvetica,sans-Serif" font-size="10.00">vector&lt; int &gt;</text>
<polyline fill="none" stroke="#bfbfbf" points="276,-1548.5 348,-1548.5 "/>
<text text-anchor="middle" x="312" y="-1536.5" font-family="Helvetica,sans-Serif" font-size="10.00"> </text>
<polyline fill="none" stroke="#bfbfbf" points="276,-1529.5 348,-1529.5 "/>
<text text-anchor="middle" x="312" y="-1517.5" font-family="Helvetica,sans-Serif" font-size="10.00"> </text>
</g>
<!-- Node10&#45;&gt;Node6 -->
<g id="edge10" class="edge"><title>Node10&#45;&gt;Node6</title>
<path fill="none" stroke="#404040" d="M305.49,-1510.3C298.558,-1479.27 288.038,-1427.36 284,-1382 283.181,-1372.8 282.638,-1363.39 282.325,-1353.88"/>
<polygon fill="none" stroke="#404040" points="282.323,-1353.78 278.186,-1347.88 282.048,-1341.79 286.184,-1347.69 282.323,-1353.78"/>
<text text-anchor="middle" x="323.5" y="-1368.5" font-family="Helvetica,sans-Serif" font-size="10.00"> #_keypoint_index</text>
</g>
<!-- Node11 -->
<g id="node11" class="node"><title>Node11</title>
<g id="a_node11"><a xlink:href="../../d0/d3c/classGLTexInput.html" target="_top" xlink:title="{GLTexInput\n|+ _down_sampled\l+ _rgb_converted\l+ _data_modified\l+ _converted_data\l+ _pixel_data\l|+ GLTexInput()\l+ SetImageData()\l+ LoadImageFile()\l+ VerifyTexture()\l+ ~GLTexInput()\l+ IsSimpleGlFormat()\l+ DownSamplePixelDataI()\l+ DownSamplePixelDataI2F()\l+ DownSamplePixelDataF()\l+ TruncateWidthCU()\l}">
<polygon fill="white" stroke="black" points="6.5,-1059 6.5,-1259 153.5,-1259 153.5,-1059 6.5,-1059"/>
<text text-anchor="middle" x="80" y="-1247" font-family="Helvetica,sans-Serif" font-size="10.00">GLTexInput</text>
<polyline fill="none" stroke="black" points="6.5,-1240 153.5,-1240 "/>
<text text-anchor="start" x="14.5" y="-1228" font-family="Helvetica,sans-Serif" font-size="10.00">+ _down_sampled</text>
<text text-anchor="start" x="14.5" y="-1217" font-family="Helvetica,sans-Serif" font-size="10.00">+ _rgb_converted</text>
<text text-anchor="start" x="14.5" y="-1206" font-family="Helvetica,sans-Serif" font-size="10.00">+ _data_modified</text>
<text text-anchor="start" x="14.5" y="-1195" font-family="Helvetica,sans-Serif" font-size="10.00">+ _converted_data</text>
<text text-anchor="start" x="14.5" y="-1184" font-family="Helvetica,sans-Serif" font-size="10.00">+ _pixel_data</text>
<polyline fill="none" stroke="black" points="6.5,-1177 153.5,-1177 "/>
<text text-anchor="start" x="14.5" y="-1165" font-family="Helvetica,sans-Serif" font-size="10.00">+ GLTexInput()</text>
<text text-anchor="start" x="14.5" y="-1154" font-family="Helvetica,sans-Serif" font-size="10.00">+ SetImageData()</text>
<text text-anchor="start" x="14.5" y="-1143" font-family="Helvetica,sans-Serif" font-size="10.00">+ LoadImageFile()</text>
<text text-anchor="start" x="14.5" y="-1132" font-family="Helvetica,sans-Serif" font-size="10.00">+ VerifyTexture()</text>
<text text-anchor="start" x="14.5" y="-1121" font-family="Helvetica,sans-Serif" font-size="10.00">+ ~GLTexInput()</text>
<text text-anchor="start" x="14.5" y="-1110" font-family="Helvetica,sans-Serif" font-size="10.00">+ IsSimpleGlFormat()</text>
<text text-anchor="start" x="14.5" y="-1099" font-family="Helvetica,sans-Serif" font-size="10.00">+ DownSamplePixelDataI()</text>
<text text-anchor="start" x="14.5" y="-1088" font-family="Helvetica,sans-Serif" font-size="10.00">+ DownSamplePixelDataI2F()</text>
<text text-anchor="start" x="14.5" y="-1077" font-family="Helvetica,sans-Serif" font-size="10.00">+ DownSamplePixelDataF()</text>
<text text-anchor="start" x="14.5" y="-1066" font-family="Helvetica,sans-Serif" font-size="10.00">+ TruncateWidthCU()</text>
</a>
</g>
</g>
<!-- Node11&#45;&gt;Node4 -->
<g id="edge11" class="edge"><title>Node11&#45;&gt;Node4</title>
<path fill="none" stroke="#404040" d="M90.6996,-1058.81C96.9296,-1022.3 106.709,-981.288 122,-946 130.77,-925.76 142.707,-905.562 155.371,-886.948"/>
<polygon fill="none" stroke="#404040" points="155.392,-886.918 155.542,-879.709 162.255,-877.075 162.105,-884.284 155.392,-886.918"/>
<text text-anchor="middle" x="149.5" y="-949.5" font-family="Helvetica,sans-Serif" font-size="10.00"> #_texImage</text>
</g>
<!-- Node12&#45;&gt;Node11 -->
<g id="edge12" class="edge"><title>Node12&#45;&gt;Node11</title>
<path fill="none" stroke="midnightblue" d="M64.162,-1390.26C67.1834,-1346.33 70.4198,-1299.28 73.1744,-1259.23"/>
<polygon fill="none" stroke="midnightblue" points="60.6547,-1390.25 63.4601,-1400.46 67.6382,-1390.73 60.6547,-1390.25"/>
</g>
<!-- Node13 -->
<g id="node13" class="node"><title>Node13</title>
<g id="a_node13"><a xlink:href="../../db/dc3/classImageList.html" target="_top" xlink:title="{ImageList\n||}">
<polygon fill="white" stroke="black" points="465.5,-1130.5 465.5,-1187.5 524.5,-1187.5 524.5,-1130.5 465.5,-1130.5"/>
<text text-anchor="middle" x="495" y="-1175.5" font-family="Helvetica,sans-Serif" font-size="10.00">ImageList</text>
<polyline fill="none" stroke="black" points="465.5,-1168.5 524.5,-1168.5 "/>
<text text-anchor="middle" x="495" y="-1156.5" font-family="Helvetica,sans-Serif" font-size="10.00"> </text>
<polyline fill="none" stroke="black" points="465.5,-1149.5 524.5,-1149.5 "/>
<text text-anchor="middle" x="495" y="-1137.5" font-family="Helvetica,sans-Serif" font-size="10.00"> </text>
</a>
</g>
</g>
<!-- Node13&#45;&gt;Node4 -->
<g id="edge14" class="edge"><title>Node13&#45;&gt;Node4</title>
<path fill="none" stroke="#404040" d="M480.529,-1130.43C460.839,-1093.83 423.615,-1027.8 385,-976 358.651,-940.654 326.426,-904.165 297.893,-873.713"/>
<polygon fill="none" stroke="#404040" points="297.794,-873.608 290.767,-871.987 289.56,-864.878 296.587,-866.498 297.794,-873.608"/>
<text text-anchor="middle" x="383.5" y="-949.5" font-family="Helvetica,sans-Serif" font-size="10.00"> #_list</text>
</g>
<!-- Node14 -->
<g id="node14" class="node"><title>Node14</title>
<polygon fill="white" stroke="#bfbfbf" points="503.5,-1510.5 503.5,-1567.5 628.5,-1567.5 628.5,-1510.5 503.5,-1510.5"/>
<text text-anchor="middle" x="566" y="-1555.5" font-family="Helvetica,sans-Serif" font-size="10.00">std::vector&lt; std::string &gt;</text>
<polyline fill="none" stroke="#bfbfbf" points="503.5,-1548.5 628.5,-1548.5 "/>
<text text-anchor="middle" x="566" y="-1536.5" font-family="Helvetica,sans-Serif" font-size="10.00"> </text>
<polyline fill="none" stroke="#bfbfbf" points="503.5,-1529.5 628.5,-1529.5 "/>
<text text-anchor="middle" x="566" y="-1517.5" font-family="Helvetica,sans-Serif" font-size="10.00"> </text>
</g>
<!-- Node14&#45;&gt;Node13 -->
<g id="edge15" class="edge"><title>Node14&#45;&gt;Node13</title>
<path fill="none" stroke="midnightblue" d="M560.384,-1500.41C554.873,-1464.33 546.006,-1408.33 537,-1360 525.495,-1298.26 509.821,-1226.29 501.244,-1187.75"/>
<polygon fill="none" stroke="midnightblue" points="556.953,-1501.13 561.915,-1510.49 563.873,-1500.08 556.953,-1501.13"/>
</g>
</g>
</svg>
