<?xml version="1.0" encoding="UTF-8" standalone="no"?>
<!DOCTYPE svg PUBLIC "-//W3C//DTD SVG 1.1//EN"
 "http://www.w3.org/Graphics/SVG/1.1/DTD/svg11.dtd">
<!-- Generated by graphviz version 2.36.0 (20140111.2315)
 -->
<!-- Title: figures.myboxplotpdfpage Pages: 1 -->
<svg width="424pt" height="28pt"
 viewBox="0.00 0.00 424.00 28.00" xmlns="http://www.w3.org/2000/svg" xmlns:xlink="http://www.w3.org/1999/xlink">
<g id="graph0" class="graph" transform="scale(1 1) rotate(0) translate(4 24)">
<title>figures.myboxplotpdfpage</title>
<polygon fill="white" stroke="none" points="-4,4 -4,-24 420,-24 420,4 -4,4"/>
<!-- Node1 -->
<g id="node1" class="node"><title>Node1</title>
<polygon fill="#bfbfbf" stroke="black" points="0,-0.5 0,-19.5 128,-19.5 128,-0.5 0,-0.5"/>
<text text-anchor="middle" x="64" y="-7.5" font-family="Helvetica,sans-Serif" font-size="10.00">figures.myboxplotpdfpage</text>
</g>
<!-- Node2 -->
<g id="node2" class="node"><title>Node2</title>
<g id="a_node2"><a xlink:href="../../dd/d26/namespacefigures.html#a1539c9a7e311c90f4ea26e116a43b94d" target="_top" xlink:title="figures.myboxplot">
<polygon fill="white" stroke="black" points="164,-0.5 164,-19.5 258,-19.5 258,-0.5 164,-0.5"/>
<text text-anchor="middle" x="211" y="-7.5" font-family="Helvetica,sans-Serif" font-size="10.00">figures.myboxplot</text>
</a>
</g>
</g>
<!-- Node1&#45;&gt;Node2 -->
<g id="edge1" class="edge"><title>Node1&#45;&gt;Node2</title>
<path fill="none" stroke="midnightblue" d="M128.177,-10C136.548,-10 145.088,-10 153.34,-10"/>
<polygon fill="midnightblue" stroke="midnightblue" points="153.604,-13.5001 163.604,-10 153.604,-6.5001 153.604,-13.5001"/>
</g>
<!-- Node3 -->
<g id="node3" class="node"><title>Node3</title>
<g id="a_node3"><a xlink:href="../../dd/d26/namespacefigures.html#a8f84d839d60d4366d0b25c4ab84d25e9" target="_top" xlink:title="figures.significance_test">
<polygon fill="white" stroke="black" points="294,-0.5 294,-19.5 416,-19.5 416,-0.5 294,-0.5"/>
<text text-anchor="middle" x="355" y="-7.5" font-family="Helvetica,sans-Serif" font-size="10.00">figures.significance_test</text>
</a>
</g>
</g>
<!-- Node2&#45;&gt;Node3 -->
<g id="edge2" class="edge"><title>Node2&#45;&gt;Node3</title>
<path fill="none" stroke="midnightblue" d="M258.103,-10C266.31,-10 275.026,-10 283.726,-10"/>
<polygon fill="midnightblue" stroke="midnightblue" points="283.902,-13.5001 293.902,-10 283.902,-6.5001 283.902,-13.5001"/>
</g>
</g>
</svg>
