<?xml version="1.0" encoding="UTF-8" standalone="no"?>
<!DOCTYPE svg PUBLIC "-//W3C//DTD SVG 1.1//EN"
 "http://www.w3.org/Graphics/SVG/1.1/DTD/svg11.dtd">
<!-- Generated by graphviz version 2.36.0 (20140111.2315)
 -->
<!-- Title: Eigen::internal::traits&lt; Map&lt; Sophus::RxSO3Group&lt; _Scalar &gt;, _Options &gt; &gt; Pages: 1 -->
<svg width="158pt" height="204pt"
 viewBox="0.00 0.00 158.00 204.00" xmlns="http://www.w3.org/2000/svg" xmlns:xlink="http://www.w3.org/1999/xlink">
<g id="graph0" class="graph" transform="scale(1 1) rotate(0) translate(4 200)">
<title>Eigen::internal::traits&lt; Map&lt; Sophus::RxSO3Group&lt; _Scalar &gt;, _Options &gt; &gt;</title>
<polygon fill="white" stroke="none" points="-4,4 -4,-200 154,-200 154,4 -4,4"/>
<!-- Node1 -->
<g id="node1" class="node"><title>Node1</title>
<polygon fill="#bfbfbf" stroke="black" points="-0.5,-0.5 -0.5,-79.5 150.5,-79.5 150.5,-0.5 -0.5,-0.5"/>
<text text-anchor="start" x="7.5" y="-67.5" font-family="Helvetica,sans-Serif" font-size="10.00">Eigen::internal::traits</text>
<text text-anchor="start" x="7.5" y="-56.5" font-family="Helvetica,sans-Serif" font-size="10.00">&lt; Map&lt; Sophus::RxSO3Group</text>
<text text-anchor="middle" x="75" y="-45.5" font-family="Helvetica,sans-Serif" font-size="10.00">&lt; _Scalar &gt;, _Options &gt; &gt;</text>
<polyline fill="none" stroke="black" points="-0.5,-38.5 150.5,-38.5 "/>
<text text-anchor="middle" x="75" y="-26.5" font-family="Helvetica,sans-Serif" font-size="10.00"> </text>
<polyline fill="none" stroke="black" points="-0.5,-19.5 150.5,-19.5 "/>
<text text-anchor="middle" x="75" y="-7.5" font-family="Helvetica,sans-Serif" font-size="10.00"> </text>
</g>
<!-- Node2 -->
<g id="node2" class="node"><title>Node2</title>
<g id="a_node2"><a xlink:href="../../dc/dbc/structEigen_1_1internal_1_1traits_3_01Sophus_1_1RxSO3Group_3_01__Scalar_00_01__Options_01_4_01_4.html" target="_top" xlink:title="{Eigen::internal::traits\l\&lt; Sophus::RxSO3Group\&lt;\l _Scalar, _Options \&gt; \&gt;\n||}">
<polygon fill="white" stroke="black" points="10.5,-116.5 10.5,-195.5 139.5,-195.5 139.5,-116.5 10.5,-116.5"/>
<text text-anchor="start" x="18.5" y="-183.5" font-family="Helvetica,sans-Serif" font-size="10.00">Eigen::internal::traits</text>
<text text-anchor="start" x="18.5" y="-172.5" font-family="Helvetica,sans-Serif" font-size="10.00">&lt; Sophus::RxSO3Group&lt;</text>
<text text-anchor="middle" x="75" y="-161.5" font-family="Helvetica,sans-Serif" font-size="10.00"> _Scalar, _Options &gt; &gt;</text>
<polyline fill="none" stroke="black" points="10.5,-154.5 139.5,-154.5 "/>
<text text-anchor="middle" x="75" y="-142.5" font-family="Helvetica,sans-Serif" font-size="10.00"> </text>
<polyline fill="none" stroke="black" points="10.5,-135.5 139.5,-135.5 "/>
<text text-anchor="middle" x="75" y="-123.5" font-family="Helvetica,sans-Serif" font-size="10.00"> </text>
</a>
</g>
</g>
<!-- Node2&#45;&gt;Node1 -->
<g id="edge1" class="edge"><title>Node2&#45;&gt;Node1</title>
<path fill="none" stroke="midnightblue" d="M75,-106.146C75,-97.256 75,-88.0961 75,-79.5555"/>
<polygon fill="none" stroke="midnightblue" points="71.5001,-106.405 75,-116.405 78.5001,-106.405 71.5001,-106.405"/>
</g>
</g>
</svg>
