<?xml version="1.0" encoding="UTF-8" standalone="no"?>
<!DOCTYPE svg PUBLIC "-//W3C//DTD SVG 1.1//EN"
 "http://www.w3.org/Graphics/SVG/1.1/DTD/svg11.dtd">
<!-- Generated by graphviz version 2.36.0 (20140111.2315)
 -->
<!-- Title: lsd_slam::Sim3Tracker::trackFrameSim3 Pages: 1 -->
<!--zoomable 636 -->
<svg id="main" version="1.1" xmlns="http://www.w3.org/2000/svg" xmlns:xlink="http://www.w3.org/1999/xlink" xml:space="preserve" onload="init(evt)">
<style type="text/css"><![CDATA[
.edge:hover path { stroke: red; }
.edge:hover polygon { stroke: red; fill: red; }
]]></style>
<script type="text/javascript"><![CDATA[
var edges = document.getElementsByTagName('g');
if (edges && edges.length) {
  for (var i=0;i<edges.length;i++) {
    if (edges[i].id.substr(0,4)=='edge') {
      edges[i].setAttribute('class','edge');
    }
  }
}
]]></script>
        <defs>
                <circle id="rim" cx="0" cy="0" r="7"/>
                <circle id="rim2" cx="0" cy="0" r="3.5"/>
                <g id="zoomPlus">
                        <use xlink:href="#rim" fill="#404040">
                                <set attributeName="fill" to="#808080" begin="zoomplus.mouseover" end="zoomplus.mouseout"/>
                        </use>
                        <path d="M-4,0h8M0,-4v8" fill="none" stroke="white" stroke-width="1.5" pointer-events="none"/>
                </g>
                <g id="zoomMin">
                        <use xlink:href="#rim" fill="#404040">
                                <set attributeName="fill" to="#808080" begin="zoomminus.mouseover" end="zoomminus.mouseout"/>
                        </use>
                        <path d="M-4,0h8" fill="none" stroke="white" stroke-width="1.5" pointer-events="none"/>
                </g>
                <g id="dirArrow">
                        <path fill="none" stroke="white" stroke-width="1.5" d="M0,-3.0v7 M-2.5,-0.5L0,-3.0L2.5,-0.5"/>
                </g>
               <g id="resetDef">
                       <use xlink:href="#rim2" fill="#404040">
                               <set attributeName="fill" to="#808080" begin="reset.mouseover" end="reset.mouseout"/>
                       </use>
               </g>
        </defs>

<script type="text/javascript">
var viewWidth = 496;
var viewHeight = 636;
var sectionId = 'dynsection-1';
</script>
<script xlink:href="../../svgpan.js"/>
<svg id="graph" class="graph">
<g id="viewport">
<title>lsd_slam::Sim3Tracker::trackFrameSim3</title>
<polygon fill="white" stroke="none" points="-4,4 -4,-632 492,-632 492,4 -4,4"/>
<!-- Node1 -->
<g id="node1" class="node"><title>Node1</title>
<polygon fill="#bfbfbf" stroke="black" points="0.5,-232 0.5,-262 117.5,-262 117.5,-232 0.5,-232"/>
<text text-anchor="start" x="8.5" y="-250" font-family="Helvetica,sans-Serif" font-size="10.00">lsd_slam::Sim3Tracker</text>
<text text-anchor="middle" x="59" y="-239" font-family="Helvetica,sans-Serif" font-size="10.00">::trackFrameSim3</text>
</g>
<!-- Node2 -->
<g id="node2" class="node"><title>Node2</title>
<g id="a_node2"><a xlink:href="../../dd/d08/classlsd__slam_1_1Frame.html#af73ccb75e1e449d9a8f2044246ee3530" target="_top" xlink:title="lsd_slam::Frame::getActiveLock">
<polygon fill="white" stroke="black" points="154,-554.5 154,-573.5 312,-573.5 312,-554.5 154,-554.5"/>
<text text-anchor="middle" x="233" y="-561.5" font-family="Helvetica,sans-Serif" font-size="10.00">lsd_slam::Frame::getActiveLock</text>
</a>
</g>
</g>
<!-- Node1&#45;&gt;Node2 -->
<g id="edge1" class="edge"><title>Node1&#45;&gt;Node2</title>
<path fill="none" stroke="midnightblue" d="M68.2959,-262.29C96.7827,-314.791 190.569,-487.642 221.789,-545.181"/>
<polygon fill="midnightblue" stroke="midnightblue" points="218.863,-547.127 226.708,-554.247 225.015,-543.788 218.863,-547.127"/>
</g>
<!-- Node5 -->
<g id="node5" class="node"><title>Node5</title>
<g id="a_node5"><a xlink:href="../../d6/db5/classSophus_1_1Sim3GroupBase.html#a21debb906ffbeda23394fbddea8f3acd" target="_top" xlink:title="Sophus::Sim3GroupBase\l::inverse">
<polygon fill="white" stroke="black" points="169.5,-345 169.5,-375 296.5,-375 296.5,-345 169.5,-345"/>
<text text-anchor="start" x="177.5" y="-363" font-family="Helvetica,sans-Serif" font-size="10.00">Sophus::Sim3GroupBase</text>
<text text-anchor="middle" x="233" y="-352" font-family="Helvetica,sans-Serif" font-size="10.00">::inverse</text>
</a>
</g>
</g>
<!-- Node1&#45;&gt;Node5 -->
<g id="edge4" class="edge"><title>Node1&#45;&gt;Node5</title>
<path fill="none" stroke="midnightblue" d="M72.4327,-262.236C89.0909,-281.721 120.465,-315.292 154,-335 157.655,-337.148 161.517,-339.135 165.487,-340.969"/>
<polygon fill="midnightblue" stroke="midnightblue" points="164.331,-344.28 174.903,-344.974 167.071,-337.839 164.331,-344.28"/>
</g>
<!-- Node6 -->
<g id="node6" class="node"><title>Node6</title>
<g id="a_node6"><a xlink:href="../../d5/d8e/classlsd__slam_1_1TrackingReference.html#a213f14e896c734faf7e2676282a7c54f" target="_top" xlink:title="lsd_slam::TrackingReference\l::makePointCloud">
<polygon fill="white" stroke="black" points="161,-296 161,-326 305,-326 305,-296 161,-296"/>
<text text-anchor="start" x="169" y="-314" font-family="Helvetica,sans-Serif" font-size="10.00">lsd_slam::TrackingReference</text>
<text text-anchor="middle" x="233" y="-303" font-family="Helvetica,sans-Serif" font-size="10.00">::makePointCloud</text>
</a>
</g>
</g>
<!-- Node1&#45;&gt;Node6 -->
<g id="edge5" class="edge"><title>Node1&#45;&gt;Node6</title>
<path fill="none" stroke="midnightblue" d="M100.326,-262.005C124.715,-271.08 156.007,-282.724 181.966,-292.383"/>
<polygon fill="midnightblue" stroke="midnightblue" points="181.036,-295.771 191.629,-295.978 183.477,-289.21 181.036,-295.771"/>
</g>
<!-- Node17 -->
<g id="node17" class="node"><title>Node17</title>
<g id="a_node17"><a xlink:href="../../d6/db5/classSophus_1_1Sim3GroupBase.html#ac39ec02a41087c306c333e7104def94c" target="_top" xlink:title="Group exponential. ">
<polygon fill="white" stroke="black" points="169.5,-163.5 169.5,-204.5 296.5,-204.5 296.5,-163.5 169.5,-163.5"/>
<text text-anchor="start" x="177.5" y="-192.5" font-family="Helvetica,sans-Serif" font-size="10.00">Sophus::Sim3GroupBase</text>
<text text-anchor="start" x="177.5" y="-181.5" font-family="Helvetica,sans-Serif" font-size="10.00">&lt; Sim3Group&lt; _Scalar,</text>
<text text-anchor="middle" x="233" y="-170.5" font-family="Helvetica,sans-Serif" font-size="10.00"> _Options &gt; &gt;::exp</text>
</a>
</g>
</g>
<!-- Node1&#45;&gt;Node17 -->
<g id="edge16" class="edge"><title>Node1&#45;&gt;Node17</title>
<path fill="none" stroke="midnightblue" d="M101.198,-231.91C120.677,-224.775 144.41,-216.082 166.287,-208.069"/>
<polygon fill="midnightblue" stroke="midnightblue" points="167.67,-211.29 175.856,-204.564 165.263,-204.717 167.67,-211.29"/>
</g>
<!-- Node21 -->
<g id="node21" class="node"><title>Node21</title>
<g id="a_node21"><a xlink:href="../../d6/db5/classSophus_1_1Sim3GroupBase.html#ae8417db9c9a27c4a99955561062d48fc" target="_top" xlink:title="Logarithmic map. ">
<polygon fill="white" stroke="black" points="160,-125.5 160,-144.5 306,-144.5 306,-125.5 160,-125.5"/>
<text text-anchor="middle" x="233" y="-132.5" font-family="Helvetica,sans-Serif" font-size="10.00">Sophus::Sim3GroupBase::log</text>
</a>
</g>
</g>
<!-- Node1&#45;&gt;Node21 -->
<g id="edge20" class="edge"><title>Node1&#45;&gt;Node21</title>
<path fill="none" stroke="midnightblue" d="M70.9266,-231.911C86.8165,-211.107 118.327,-173.93 154,-154 158.01,-151.76 162.279,-149.782 166.676,-148.035"/>
<polygon fill="midnightblue" stroke="midnightblue" points="168.196,-151.21 176.451,-144.569 165.856,-144.612 168.196,-151.21"/>
</g>
<!-- Node22 -->
<g id="node22" class="node"><title>Node22</title>
<g id="a_node22"><a xlink:href="../../d6/db5/classSophus_1_1Sim3GroupBase.html#a31cf579b7bc4d3b3358921f3501700cd" target="_top" xlink:title="Sophus::Sim3GroupBase\l::scale">
<polygon fill="white" stroke="black" points="169.5,-76 169.5,-106 296.5,-106 296.5,-76 169.5,-76"/>
<text text-anchor="start" x="177.5" y="-94" font-family="Helvetica,sans-Serif" font-size="10.00">Sophus::Sim3GroupBase</text>
<text text-anchor="middle" x="233" y="-83" font-family="Helvetica,sans-Serif" font-size="10.00">::scale</text>
</a>
</g>
</g>
<!-- Node1&#45;&gt;Node22 -->
<g id="edge21" class="edge"><title>Node1&#45;&gt;Node22</title>
<path fill="none" stroke="midnightblue" d="M66.9483,-231.61C80.05,-204.301 111.002,-147.303 154,-116 156.644,-114.075 159.443,-112.294 162.347,-110.647"/>
<polygon fill="midnightblue" stroke="midnightblue" points="163.988,-113.739 171.326,-106.096 160.824,-107.495 163.988,-113.739"/>
</g>
<!-- Node3 -->
<g id="node3" class="node"><title>Node3</title>
<g id="a_node3"><a xlink:href="../../d1/d95/classlsd__slam_1_1FrameMemory.html#adf4afed8c58a420b38e4b117628ac32d" target="_top" xlink:title="lsd_slam::FrameMemory\l::getInstance">
<polygon fill="white" stroke="black" points="355.5,-598 355.5,-628 480.5,-628 480.5,-598 355.5,-598"/>
<text text-anchor="start" x="363.5" y="-616" font-family="Helvetica,sans-Serif" font-size="10.00">lsd_slam::FrameMemory</text>
<text text-anchor="middle" x="418" y="-605" font-family="Helvetica,sans-Serif" font-size="10.00">::getInstance</text>
</a>
</g>
</g>
<!-- Node2&#45;&gt;Node3 -->
<g id="edge2" class="edge"><title>Node2&#45;&gt;Node3</title>
<path fill="none" stroke="midnightblue" d="M269.719,-573.564C292.786,-579.74 323.502,-587.965 350.913,-595.304"/>
<polygon fill="midnightblue" stroke="midnightblue" points="350.277,-598.757 360.842,-597.963 352.087,-591.996 350.277,-598.757"/>
</g>
<!-- Node4 -->
<g id="node4" class="node"><title>Node4</title>
<g id="a_node4"><a xlink:href="../../d1/d95/classlsd__slam_1_1FrameMemory.html#a6835f2a14358dee3518d9f9bff8526e3" target="_top" xlink:title="lsd_slam::FrameMemory\l::activateFrame">
<polygon fill="white" stroke="black" points="355.5,-549 355.5,-579 480.5,-579 480.5,-549 355.5,-549"/>
<text text-anchor="start" x="363.5" y="-567" font-family="Helvetica,sans-Serif" font-size="10.00">lsd_slam::FrameMemory</text>
<text text-anchor="middle" x="418" y="-556" font-family="Helvetica,sans-Serif" font-size="10.00">::activateFrame</text>
</a>
</g>
</g>
<!-- Node2&#45;&gt;Node4 -->
<g id="edge3" class="edge"><title>Node2&#45;&gt;Node4</title>
<path fill="none" stroke="midnightblue" d="M312.139,-564C323.108,-564 334.339,-564 345.183,-564"/>
<polygon fill="midnightblue" stroke="midnightblue" points="345.44,-567.5 355.44,-564 345.44,-560.5 345.44,-567.5"/>
</g>
<!-- Node7 -->
<g id="node7" class="node"><title>Node7</title>
<g id="a_node7"><a xlink:href="../../dd/d08/classlsd__slam_1_1Frame.html#a3f14a1c43b6cb21d31274f880b0bf36b" target="_top" xlink:title="lsd_slam::Frame::width">
<polygon fill="white" stroke="black" points="358.5,-510.5 358.5,-529.5 477.5,-529.5 477.5,-510.5 358.5,-510.5"/>
<text text-anchor="middle" x="418" y="-517.5" font-family="Helvetica,sans-Serif" font-size="10.00">lsd_slam::Frame::width</text>
</a>
</g>
</g>
<!-- Node6&#45;&gt;Node7 -->
<g id="edge6" class="edge"><title>Node6&#45;&gt;Node7</title>
<path fill="none" stroke="midnightblue" d="M301.246,-326.068C305.194,-328.602 308.837,-331.557 312,-335 363.067,-390.6 296.11,-446.167 348,-501 349.377,-502.455 350.855,-503.803 352.414,-505.05"/>
<polygon fill="midnightblue" stroke="midnightblue" points="350.517,-507.991 360.813,-510.487 354.321,-502.115 350.517,-507.991"/>
</g>
<!-- Node8 -->
<g id="node8" class="node"><title>Node8</title>
<g id="a_node8"><a xlink:href="../../dd/d08/classlsd__slam_1_1Frame.html#a014d19bf6ffba0f0c0b8b684f9afb0b0" target="_top" xlink:title="lsd_slam::Frame::height">
<polygon fill="white" stroke="black" points="357,-472.5 357,-491.5 479,-491.5 479,-472.5 357,-472.5"/>
<text text-anchor="middle" x="418" y="-479.5" font-family="Helvetica,sans-Serif" font-size="10.00">lsd_slam::Frame::height</text>
</a>
</g>
</g>
<!-- Node6&#45;&gt;Node8 -->
<g id="edge7" class="edge"><title>Node6&#45;&gt;Node8</title>
<path fill="none" stroke="midnightblue" d="M300.647,-326.065C304.789,-328.597 308.635,-331.553 312,-335 353.276,-377.293 306.099,-421.327 348,-463 349.454,-464.446 351.006,-465.784 352.64,-467.023"/>
<polygon fill="midnightblue" stroke="midnightblue" points="351.041,-470.149 361.389,-472.422 354.718,-464.192 351.041,-470.149"/>
</g>
<!-- Node9 -->
<g id="node9" class="node"><title>Node9</title>
<g id="a_node9"><a xlink:href="../../dd/d08/classlsd__slam_1_1Frame.html#a9d98889a6a367e862f28b4a035604f46" target="_top" xlink:title="lsd_slam::Frame::fxInv">
<polygon fill="white" stroke="black" points="359.5,-434.5 359.5,-453.5 476.5,-453.5 476.5,-434.5 359.5,-434.5"/>
<text text-anchor="middle" x="418" y="-441.5" font-family="Helvetica,sans-Serif" font-size="10.00">lsd_slam::Frame::fxInv</text>
</a>
</g>
</g>
<!-- Node6&#45;&gt;Node9 -->
<g id="edge8" class="edge"><title>Node6&#45;&gt;Node9</title>
<path fill="none" stroke="midnightblue" d="M299.495,-326.053C304.01,-328.586 308.249,-331.544 312,-335 343.686,-364.189 315.882,-396.287 348,-425 349.769,-426.581 351.657,-428.032 353.638,-429.364"/>
<polygon fill="midnightblue" stroke="midnightblue" points="352.387,-432.672 362.829,-434.469 355.786,-426.553 352.387,-432.672"/>
</g>
<!-- Node10 -->
<g id="node10" class="node"><title>Node10</title>
<g id="a_node10"><a xlink:href="../../dd/d08/classlsd__slam_1_1Frame.html#ab5c98941622d0f0470381a8ed2f833c1" target="_top" xlink:title="lsd_slam::Frame::fyInv">
<polygon fill="white" stroke="black" points="359.5,-396.5 359.5,-415.5 476.5,-415.5 476.5,-396.5 359.5,-396.5"/>
<text text-anchor="middle" x="418" y="-403.5" font-family="Helvetica,sans-Serif" font-size="10.00">lsd_slam::Frame::fyInv</text>
</a>
</g>
</g>
<!-- Node6&#45;&gt;Node10 -->
<g id="edge9" class="edge"><title>Node6&#45;&gt;Node10</title>
<path fill="none" stroke="midnightblue" d="M296.72,-326.09C302.126,-328.621 307.313,-331.569 312,-335 334.682,-351.603 325.073,-370.737 348,-387 350.736,-388.941 353.663,-390.684 356.709,-392.249"/>
<polygon fill="midnightblue" stroke="midnightblue" points="355.577,-395.575 366.137,-396.43 358.415,-389.177 355.577,-395.575"/>
</g>
<!-- Node11 -->
<g id="node11" class="node"><title>Node11</title>
<g id="a_node11"><a xlink:href="../../dd/d08/classlsd__slam_1_1Frame.html#a4690556800b10f98c18a2fada62ae62b" target="_top" xlink:title="lsd_slam::Frame::cxInv">
<polygon fill="white" stroke="black" points="358.5,-358.5 358.5,-377.5 477.5,-377.5 477.5,-358.5 358.5,-358.5"/>
<text text-anchor="middle" x="418" y="-365.5" font-family="Helvetica,sans-Serif" font-size="10.00">lsd_slam::Frame::cxInv</text>
</a>
</g>
</g>
<!-- Node6&#45;&gt;Node11 -->
<g id="edge10" class="edge"><title>Node6&#45;&gt;Node11</title>
<path fill="none" stroke="midnightblue" d="M284.942,-326.092C293.992,-328.939 303.302,-331.975 312,-335 328.215,-340.639 331.703,-343.603 348,-349 354.974,-351.309 362.407,-353.566 369.715,-355.67"/>
<polygon fill="midnightblue" stroke="midnightblue" points="368.974,-359.097 379.548,-358.436 370.87,-352.359 368.974,-359.097"/>
</g>
<!-- Node12 -->
<g id="node12" class="node"><title>Node12</title>
<g id="a_node12"><a xlink:href="../../dd/d08/classlsd__slam_1_1Frame.html#aae9fa687e7e515ba009a5fe5a617bf75" target="_top" xlink:title="lsd_slam::Frame::cyInv">
<polygon fill="white" stroke="black" points="358.5,-320.5 358.5,-339.5 477.5,-339.5 477.5,-320.5 358.5,-320.5"/>
<text text-anchor="middle" x="418" y="-327.5" font-family="Helvetica,sans-Serif" font-size="10.00">lsd_slam::Frame::cyInv</text>
</a>
</g>
</g>
<!-- Node6&#45;&gt;Node12 -->
<g id="edge11" class="edge"><title>Node6&#45;&gt;Node12</title>
<path fill="none" stroke="midnightblue" d="M305.015,-318.373C319.243,-319.85 334.169,-321.4 348.317,-322.869"/>
<polygon fill="midnightblue" stroke="midnightblue" points="348.153,-326.371 358.461,-323.922 348.876,-319.408 348.153,-326.371"/>
</g>
<!-- Node13 -->
<g id="node13" class="node"><title>Node13</title>
<g id="a_node13"><a xlink:href="../../dd/d08/classlsd__slam_1_1Frame.html#ad78d873de1adfd4ab3268c50b1d462c7" target="_top" xlink:title="lsd_slam::Frame::idepth">
<polygon fill="white" stroke="black" points="357,-282.5 357,-301.5 479,-301.5 479,-282.5 357,-282.5"/>
<text text-anchor="middle" x="418" y="-289.5" font-family="Helvetica,sans-Serif" font-size="10.00">lsd_slam::Frame::idepth</text>
</a>
</g>
</g>
<!-- Node6&#45;&gt;Node13 -->
<g id="edge12" class="edge"><title>Node6&#45;&gt;Node13</title>
<path fill="none" stroke="midnightblue" d="M305.015,-303.627C318.625,-302.214 332.873,-300.735 346.468,-299.323"/>
<polygon fill="midnightblue" stroke="midnightblue" points="347.13,-302.773 356.716,-298.259 346.408,-295.811 347.13,-302.773"/>
</g>
<!-- Node14 -->
<g id="node14" class="node"><title>Node14</title>
<g id="a_node14"><a xlink:href="../../dd/d08/classlsd__slam_1_1Frame.html#aa3fb7f275b5da621c039a6746b905770" target="_top" xlink:title="lsd_slam::Frame::idepthVar">
<polygon fill="white" stroke="black" points="349.5,-244.5 349.5,-263.5 486.5,-263.5 486.5,-244.5 349.5,-244.5"/>
<text text-anchor="middle" x="418" y="-251.5" font-family="Helvetica,sans-Serif" font-size="10.00">lsd_slam::Frame::idepthVar</text>
</a>
</g>
</g>
<!-- Node6&#45;&gt;Node14 -->
<g id="edge13" class="edge"><title>Node6&#45;&gt;Node14</title>
<path fill="none" stroke="midnightblue" d="M277.404,-295.93C298.608,-288.723 324.547,-280.132 348,-273 355.523,-270.712 363.542,-268.395 371.354,-266.202"/>
<polygon fill="midnightblue" stroke="midnightblue" points="372.383,-269.548 381.084,-263.502 370.512,-262.803 372.383,-269.548"/>
</g>
<!-- Node15 -->
<g id="node15" class="node"><title>Node15</title>
<g id="a_node15"><a xlink:href="../../dd/d08/classlsd__slam_1_1Frame.html#a9306307027bbe62b973c0b138216b456" target="_top" xlink:title="lsd_slam::Frame::image">
<polygon fill="white" stroke="black" points="357,-206.5 357,-225.5 479,-225.5 479,-206.5 357,-206.5"/>
<text text-anchor="middle" x="418" y="-213.5" font-family="Helvetica,sans-Serif" font-size="10.00">lsd_slam::Frame::image</text>
</a>
</g>
</g>
<!-- Node6&#45;&gt;Node15 -->
<g id="edge14" class="edge"><title>Node6&#45;&gt;Node15</title>
<path fill="none" stroke="midnightblue" d="M252.653,-295.813C274.362,-278.815 311.865,-251.5 348,-235 353.086,-232.678 358.516,-230.584 364.012,-228.712"/>
<polygon fill="midnightblue" stroke="midnightblue" points="365.438,-231.932 373.916,-225.578 363.326,-225.258 365.438,-231.932"/>
</g>
<!-- Node16 -->
<g id="node16" class="node"><title>Node16</title>
<g id="a_node16"><a xlink:href="../../dd/d08/classlsd__slam_1_1Frame.html#a2c31baa0cea975fb73ccf80d92f7a5de" target="_top" xlink:title="lsd_slam::Frame::gradients">
<polygon fill="white" stroke="black" points="350.5,-168.5 350.5,-187.5 485.5,-187.5 485.5,-168.5 350.5,-168.5"/>
<text text-anchor="middle" x="418" y="-175.5" font-family="Helvetica,sans-Serif" font-size="10.00">lsd_slam::Frame::gradients</text>
</a>
</g>
</g>
<!-- Node6&#45;&gt;Node16 -->
<g id="edge15" class="edge"><title>Node6&#45;&gt;Node16</title>
<path fill="none" stroke="midnightblue" d="M244.817,-295.964C263.213,-271.5 303.004,-223.186 348,-197 351.849,-194.76 355.973,-192.775 360.22,-191.017"/>
<polygon fill="midnightblue" stroke="midnightblue" points="361.492,-194.278 369.652,-187.521 359.059,-187.714 361.492,-194.278"/>
</g>
<!-- Node18 -->
<g id="node18" class="node"><title>Node18</title>
<g id="a_node18"><a xlink:href="../../d7/dde/classSophus_1_1RxSO3GroupBase.html#a64b2d932b458b49e01ffef1dfb789321" target="_top" xlink:title="Group exponential and theta. ">
<polygon fill="white" stroke="black" points="348,-108.5 348,-149.5 488,-149.5 488,-108.5 348,-108.5"/>
<text text-anchor="start" x="356" y="-137.5" font-family="Helvetica,sans-Serif" font-size="10.00">Sophus::RxSO3GroupBase</text>
<text text-anchor="start" x="356" y="-126.5" font-family="Helvetica,sans-Serif" font-size="10.00">&lt; RxSO3Group&lt; _Scalar,</text>
<text text-anchor="middle" x="418" y="-115.5" font-family="Helvetica,sans-Serif" font-size="10.00"> _Options &gt; &gt;::expAndTheta</text>
</a>
</g>
</g>
<!-- Node17&#45;&gt;Node18 -->
<g id="edge17" class="edge"><title>Node17&#45;&gt;Node18</title>
<path fill="none" stroke="midnightblue" d="M296.722,-165.149C310.341,-161.056 324.907,-156.678 339.032,-152.433"/>
<polygon fill="midnightblue" stroke="midnightblue" points="340.155,-155.75 348.724,-149.52 338.14,-149.046 340.155,-155.75"/>
</g>
<!-- Node19 -->
<g id="node19" class="node"><title>Node19</title>
<g id="a_node19"><a xlink:href="../../d5/d43/classSophus_1_1SO3GroupBase.html#a330c86d19073bb2d142d88078d92a513" target="_top" xlink:title="hat&#45;operator ">
<polygon fill="white" stroke="black" points="356,-48.5 356,-89.5 480,-89.5 480,-48.5 356,-48.5"/>
<text text-anchor="start" x="364" y="-77.5" font-family="Helvetica,sans-Serif" font-size="10.00">Sophus::SO3GroupBase</text>
<text text-anchor="start" x="364" y="-66.5" font-family="Helvetica,sans-Serif" font-size="10.00">&lt; SO3Group&lt; _Scalar,</text>
<text text-anchor="middle" x="418" y="-55.5" font-family="Helvetica,sans-Serif" font-size="10.00"> _Options &gt; &gt;::hat</text>
</a>
</g>
</g>
<!-- Node17&#45;&gt;Node19 -->
<g id="edge18" class="edge"><title>Node17&#45;&gt;Node19</title>
<path fill="none" stroke="midnightblue" d="M296.845,-163.969C302.225,-161.046 307.372,-157.737 312,-154 334.732,-135.648 325.668,-117.836 348,-99 349.535,-97.7051 351.135,-96.4576 352.786,-95.2564"/>
<polygon fill="midnightblue" stroke="midnightblue" points="354.943,-98.0277 361.405,-89.6315 351.118,-92.1655 354.943,-98.0277"/>
</g>
<!-- Node20 -->
<g id="node20" class="node"><title>Node20</title>
<g id="a_node20"><a xlink:href="../../d7/dde/classSophus_1_1RxSO3GroupBase.html#a568f5cbdc1a40cd0f6237a91da65cf4a" target="_top" xlink:title="Sophus::RxSO3GroupBase\l::scale">
<polygon fill="white" stroke="black" points="349.5,-0 349.5,-30 486.5,-30 486.5,-0 349.5,-0"/>
<text text-anchor="start" x="357.5" y="-18" font-family="Helvetica,sans-Serif" font-size="10.00">Sophus::RxSO3GroupBase</text>
<text text-anchor="middle" x="418" y="-7" font-family="Helvetica,sans-Serif" font-size="10.00">::scale</text>
</a>
</g>
</g>
<!-- Node17&#45;&gt;Node20 -->
<g id="edge19" class="edge"><title>Node17&#45;&gt;Node20</title>
<path fill="none" stroke="midnightblue" d="M296.513,-166.159C302.226,-162.776 307.533,-158.762 312,-154 348.643,-114.941 310.728,-77.4595 348,-39 349.048,-37.9184 350.148,-36.8856 351.291,-35.8992"/>
<polygon fill="midnightblue" stroke="midnightblue" points="353.347,-38.7321 359.406,-30.0413 349.25,-33.0563 353.347,-38.7321"/>
</g>
</g>
</svg>
        <g id="navigator" transform="translate(0 0)" fill="#404254">
                <rect fill="#f2f5e9" fill-opacity="0.5" stroke="#606060" stroke-width=".5" x="0" y="0" width="60" height="60"/>
                <use id="zoomplus" xlink:href="#zoomPlus" x="17" y="9" onmousedown="handleZoom(evt,'in')"/>
                <use id="zoomminus" xlink:href="#zoomMin" x="42" y="9" onmousedown="handleZoom(evt,'out')"/>
                <use id="reset" xlink:href="#resetDef" x="30" y="36" onmousedown="handleReset()"/>
                <g id="arrowUp" xlink:href="#dirArrow" transform="translate(30 24)" onmousedown="handlePan(0,-1)">
                  <use xlink:href="#rim" fill="#404040">
                        <set attributeName="fill" to="#808080" begin="arrowUp.mouseover" end="arrowUp.mouseout"/>
                  </use>
                  <path fill="none" stroke="white" stroke-width="1.5" d="M0,-3.0v7 M-2.5,-0.5L0,-3.0L2.5,-0.5"/>
                </g>
                <g id="arrowRight" xlink:href="#dirArrow" transform="rotate(90) translate(36 -43)" onmousedown="handlePan(1,0)">
                  <use xlink:href="#rim" fill="#404040">
                        <set attributeName="fill" to="#808080" begin="arrowRight.mouseover" end="arrowRight.mouseout"/>
                  </use>
                  <path fill="none" stroke="white" stroke-width="1.5" d="M0,-3.0v7 M-2.5,-0.5L0,-3.0L2.5,-0.5"/>
                </g>
                <g id="arrowDown" xlink:href="#dirArrow" transform="rotate(180) translate(-30 -48)" onmousedown="handlePan(0,1)">
                  <use xlink:href="#rim" fill="#404040">
                        <set attributeName="fill" to="#808080" begin="arrowDown.mouseover" end="arrowDown.mouseout"/>
                  </use>
                  <path fill="none" stroke="white" stroke-width="1.5" d="M0,-3.0v7 M-2.5,-0.5L0,-3.0L2.5,-0.5"/>
                </g>
                <g id="arrowLeft" xlink:href="#dirArrow" transform="rotate(270) translate(-36 17)" onmousedown="handlePan(-1,0)">
                  <use xlink:href="#rim" fill="#404040">
                        <set attributeName="fill" to="#808080" begin="arrowLeft.mouseover" end="arrowLeft.mouseout"/>
                  </use>
                  <path fill="none" stroke="white" stroke-width="1.5" d="M0,-3.0v7 M-2.5,-0.5L0,-3.0L2.5,-0.5"/>
                </g>
        </g>
        <svg viewBox="0 0 15 15" width="100%" height="30px" preserveAspectRatio="xMaxYMin meet">
         <g id="arrow_out" transform="scale(0.3 0.3)">
          <a xlink:href="classlsd__slam_1_1Sim3Tracker_a7cda8e0a6e18eeb3bca97a285bbe3c59_cgraph_org.svg" target="_base">
           <rect id="button" ry="5" rx="5" y="6" x="6" height="38" width="38"
                fill="#f2f5e9" fill-opacity="0.5" stroke="#606060" stroke-width="1.0"/>
           <path id="arrow"
             d="M 11.500037,31.436501 C 11.940474,20.09759 22.043105,11.32322 32.158766,21.979434 L 37.068811,17.246167 C 37.068811,17.246167 37.088388,32 37.088388,32 L 22.160133,31.978069 C 22.160133,31.978069 26.997745,27.140456 26.997745,27.140456 C 18.528582,18.264221 13.291696,25.230495 11.500037,31.436501 z"
             style="fill:#404040;"/>
          </a>
         </g>
        </svg>
</svg>
