<?xml version="1.0" encoding="UTF-8" standalone="no"?>
<!DOCTYPE svg PUBLIC "-//W3C//DTD SVG 1.1//EN"
 "http://www.w3.org/Graphics/SVG/1.1/DTD/svg11.dtd">
<!-- Generated by graphviz version 2.36.0 (20140111.2315)
 -->
<!-- Title: src/util/globalFuncs.h Pages: 1 -->
<svg width="648pt" height="364pt"
 viewBox="0.00 0.00 648.00 364.00" xmlns="http://www.w3.org/2000/svg" xmlns:xlink="http://www.w3.org/1999/xlink">
<g id="graph0" class="graph" transform="scale(1 1) rotate(0) translate(4 360)">
<title>src/util/globalFuncs.h</title>
<polygon fill="white" stroke="none" points="-4,4 -4,-360 644,-360 644,4 -4,4"/>
<!-- Node1 -->
<g id="node1" class="node"><title>Node1</title>
<polygon fill="#bfbfbf" stroke="black" points="170,-336.5 170,-355.5 280,-355.5 280,-336.5 170,-336.5"/>
<text text-anchor="middle" x="225" y="-343.5" font-family="Helvetica,sans-Serif" font-size="10.00">src/util/globalFuncs.h</text>
</g>
<!-- Node2 -->
<g id="node2" class="node"><title>Node2</title>
<polygon fill="white" stroke="#bfbfbf" points="105,-224.5 105,-243.5 221,-243.5 221,-224.5 105,-224.5"/>
<text text-anchor="middle" x="163" y="-231.5" font-family="Helvetica,sans-Serif" font-size="10.00">opencv2/core/core.hpp</text>
</g>
<!-- Node1&#45;&gt;Node2 -->
<g id="edge1" class="edge"><title>Node1&#45;&gt;Node2</title>
<path fill="none" stroke="midnightblue" d="M217.843,-336.417C210.73,-327.631 199.785,-313.404 192,-300 183.185,-284.824 175.225,-266.479 169.884,-253.154"/>
<polygon fill="midnightblue" stroke="midnightblue" points="173.091,-251.744 166.196,-243.699 166.57,-254.288 173.091,-251.744"/>
</g>
<!-- Node3 -->
<g id="node3" class="node"><title>Node3</title>
<g id="a_node3"><a xlink:href="../../de/d60/settings_8h.html" target="_top" xlink:title="util/settings.h">
<polygon fill="white" stroke="black" points="39.5,-280.5 39.5,-299.5 114.5,-299.5 114.5,-280.5 39.5,-280.5"/>
<text text-anchor="middle" x="77" y="-287.5" font-family="Helvetica,sans-Serif" font-size="10.00">util/settings.h</text>
</a>
</g>
</g>
<!-- Node1&#45;&gt;Node3 -->
<g id="edge2" class="edge"><title>Node1&#45;&gt;Node3</title>
<path fill="none" stroke="midnightblue" d="M201.549,-336.444C176.867,-327.438 137.815,-313.189 110.023,-303.049"/>
<polygon fill="midnightblue" stroke="midnightblue" points="110.935,-299.656 100.341,-299.516 108.536,-306.232 110.935,-299.656"/>
</g>
<!-- Node6 -->
<g id="node6" class="node"><title>Node6</title>
<g id="a_node6"><a xlink:href="../../da/d15/TimestampedObject_8h.html" target="_top" xlink:title="IOWrapper/TimestampedObject.h">
<polygon fill="white" stroke="black" points="201.5,-280.5 201.5,-299.5 364.5,-299.5 364.5,-280.5 201.5,-280.5"/>
<text text-anchor="middle" x="283" y="-287.5" font-family="Helvetica,sans-Serif" font-size="10.00">IOWrapper/TimestampedObject.h</text>
</a>
</g>
</g>
<!-- Node1&#45;&gt;Node6 -->
<g id="edge5" class="edge"><title>Node1&#45;&gt;Node6</title>
<path fill="none" stroke="midnightblue" d="M234.319,-336.324C242.893,-328.341 255.812,-316.313 266.188,-306.653"/>
<polygon fill="midnightblue" stroke="midnightblue" points="268.578,-309.21 273.512,-299.834 263.808,-304.086 268.578,-309.21"/>
</g>
<!-- Node10 -->
<g id="node10" class="node"><title>Node10</title>
<g id="a_node10"><a xlink:href="../../d2/d13/SophusUtil_8h.html" target="_top" xlink:title="util/SophusUtil.h">
<polygon fill="white" stroke="black" points="392.5,-280.5 392.5,-299.5 481.5,-299.5 481.5,-280.5 392.5,-280.5"/>
<text text-anchor="middle" x="437" y="-287.5" font-family="Helvetica,sans-Serif" font-size="10.00">util/SophusUtil.h</text>
</a>
</g>
</g>
<!-- Node1&#45;&gt;Node10 -->
<g id="edge12" class="edge"><title>Node1&#45;&gt;Node10</title>
<path fill="none" stroke="midnightblue" d="M258.592,-336.444C295.187,-327.122 353.838,-312.183 393.826,-301.997"/>
<polygon fill="midnightblue" stroke="midnightblue" points="394.739,-305.377 403.565,-299.516 393.011,-298.593 394.739,-305.377"/>
</g>
<!-- Node4 -->
<g id="node4" class="node"><title>Node4</title>
<polygon fill="white" stroke="#bfbfbf" points="-0.5,-224.5 -0.5,-243.5 48.5,-243.5 48.5,-224.5 -0.5,-224.5"/>
<text text-anchor="middle" x="24" y="-231.5" font-family="Helvetica,sans-Serif" font-size="10.00">string.h</text>
</g>
<!-- Node3&#45;&gt;Node4 -->
<g id="edge3" class="edge"><title>Node3&#45;&gt;Node4</title>
<path fill="none" stroke="midnightblue" d="M68.2481,-280.083C60.5303,-272.22 49.0953,-260.569 39.7835,-251.081"/>
<polygon fill="midnightblue" stroke="midnightblue" points="42.0916,-248.436 32.589,-243.751 37.0958,-253.34 42.0916,-248.436"/>
</g>
<!-- Node5 -->
<g id="node5" class="node"><title>Node5</title>
<polygon fill="white" stroke="#bfbfbf" points="90.5,-168.5 90.5,-187.5 131.5,-187.5 131.5,-168.5 90.5,-168.5"/>
<text text-anchor="middle" x="111" y="-175.5" font-family="Helvetica,sans-Serif" font-size="10.00">string</text>
</g>
<!-- Node3&#45;&gt;Node5 -->
<g id="edge4" class="edge"><title>Node3&#45;&gt;Node5</title>
<path fill="none" stroke="midnightblue" d="M79.4773,-280.137C83.0083,-267.596 89.7542,-243.974 96,-224 98.7684,-215.147 102.005,-205.372 104.761,-197.201"/>
<polygon fill="midnightblue" stroke="midnightblue" points="108.122,-198.19 108.028,-187.596 101.494,-195.936 108.122,-198.19"/>
</g>
<!-- Node6&#45;&gt;Node2 -->
<g id="edge7" class="edge"><title>Node6&#45;&gt;Node2</title>
<path fill="none" stroke="midnightblue" d="M263.986,-280.444C244.412,-271.636 213.692,-257.812 191.271,-247.722"/>
<polygon fill="midnightblue" stroke="midnightblue" points="192.481,-244.428 181.925,-243.516 189.608,-250.812 192.481,-244.428"/>
</g>
<!-- Node7 -->
<g id="node7" class="node"><title>Node7</title>
<polygon fill="white" stroke="#bfbfbf" points="330,-168.5 330,-187.5 376,-187.5 376,-168.5 330,-168.5"/>
<text text-anchor="middle" x="353" y="-175.5" font-family="Helvetica,sans-Serif" font-size="10.00">chrono</text>
</g>
<!-- Node6&#45;&gt;Node7 -->
<g id="edge6" class="edge"><title>Node6&#45;&gt;Node7</title>
<path fill="none" stroke="midnightblue" d="M318.852,-280.397C337.881,-273.81 359.627,-262.589 371,-244 380.036,-229.23 372.627,-209.835 364.757,-196.087"/>
<polygon fill="midnightblue" stroke="midnightblue" points="367.71,-194.208 359.43,-187.597 361.78,-197.928 367.71,-194.208"/>
</g>
<!-- Node8 -->
<g id="node8" class="node"><title>Node8</title>
<g id="a_node8"><a xlink:href="../../d7/d66/Timestamp_8h.html" target="_top" xlink:title="IOWrapper/Timestamp.h">
<polygon fill="white" stroke="black" points="239,-224.5 239,-243.5 363,-243.5 363,-224.5 239,-224.5"/>
<text text-anchor="middle" x="301" y="-231.5" font-family="Helvetica,sans-Serif" font-size="10.00">IOWrapper/Timestamp.h</text>
</a>
</g>
</g>
<!-- Node6&#45;&gt;Node8 -->
<g id="edge8" class="edge"><title>Node6&#45;&gt;Node8</title>
<path fill="none" stroke="midnightblue" d="M285.972,-280.083C288.384,-272.849 291.864,-262.409 294.868,-253.397"/>
<polygon fill="midnightblue" stroke="midnightblue" points="298.241,-254.345 298.083,-243.751 291.6,-252.131 298.241,-254.345"/>
</g>
<!-- Node8&#45;&gt;Node5 -->
<g id="edge9" class="edge"><title>Node8&#45;&gt;Node5</title>
<path fill="none" stroke="midnightblue" d="M270.894,-224.444C235.466,-214.374 176.972,-197.75 141.412,-187.643"/>
<polygon fill="midnightblue" stroke="midnightblue" points="142.172,-184.221 131.596,-184.854 140.258,-190.954 142.172,-184.221"/>
</g>
<!-- Node8&#45;&gt;Node7 -->
<g id="edge10" class="edge"><title>Node8&#45;&gt;Node7</title>
<path fill="none" stroke="midnightblue" d="M309.587,-224.083C317.159,-216.22 328.378,-204.569 337.514,-195.081"/>
<polygon fill="midnightblue" stroke="midnightblue" points="340.158,-197.382 344.573,-187.751 335.115,-192.527 340.158,-197.382"/>
</g>
<!-- Node9 -->
<g id="node9" class="node"><title>Node9</title>
<polygon fill="white" stroke="#bfbfbf" points="192.5,-168.5 192.5,-187.5 311.5,-187.5 311.5,-168.5 192.5,-168.5"/>
<text text-anchor="middle" x="252" y="-175.5" font-family="Helvetica,sans-Serif" font-size="10.00">boost/thread/mutex.hpp</text>
</g>
<!-- Node8&#45;&gt;Node9 -->
<g id="edge11" class="edge"><title>Node8&#45;&gt;Node9</title>
<path fill="none" stroke="midnightblue" d="M292.909,-224.083C285.845,-216.298 275.412,-204.801 266.851,-195.367"/>
<polygon fill="midnightblue" stroke="midnightblue" points="269.253,-192.805 259.941,-187.751 264.069,-197.509 269.253,-192.805"/>
</g>
<!-- Node11 -->
<g id="node11" class="node"><title>Node11</title>
<g id="a_node11"><a xlink:href="../../dc/d5c/sim3_8hpp.html" target="_top" xlink:title="sophus/sim3.hpp">
<polygon fill="white" stroke="black" points="473.5,-224.5 473.5,-243.5 564.5,-243.5 564.5,-224.5 473.5,-224.5"/>
<text text-anchor="middle" x="519" y="-231.5" font-family="Helvetica,sans-Serif" font-size="10.00">sophus/sim3.hpp</text>
</a>
</g>
</g>
<!-- Node10&#45;&gt;Node11 -->
<g id="edge13" class="edge"><title>Node10&#45;&gt;Node11</title>
<path fill="none" stroke="midnightblue" d="M450.175,-280.324C462.847,-271.979 482.233,-259.212 497.206,-249.352"/>
<polygon fill="midnightblue" stroke="midnightblue" points="499.431,-252.078 505.858,-243.655 495.581,-246.231 499.431,-252.078"/>
</g>
<!-- Node18 -->
<g id="node18" class="node"><title>Node18</title>
<g id="a_node18"><a xlink:href="../../d4/d4b/se3_8hpp.html" target="_top" xlink:title="sophus/se3.hpp">
<polygon fill="white" stroke="black" points="394,-168.5 394,-187.5 480,-187.5 480,-168.5 394,-168.5"/>
<text text-anchor="middle" x="437" y="-175.5" font-family="Helvetica,sans-Serif" font-size="10.00">sophus/se3.hpp</text>
</a>
</g>
</g>
<!-- Node10&#45;&gt;Node18 -->
<g id="edge21" class="edge"><title>Node10&#45;&gt;Node18</title>
<path fill="none" stroke="midnightblue" d="M437,-280.368C437,-262.617 437,-221.666 437,-197.597"/>
<polygon fill="midnightblue" stroke="midnightblue" points="440.5,-197.591 437,-187.591 433.5,-197.591 440.5,-197.591"/>
</g>
<!-- Node12 -->
<g id="node12" class="node"><title>Node12</title>
<g id="a_node12"><a xlink:href="../../d7/d6a/rxso3_8hpp.html" target="_top" xlink:title="rxso3.hpp">
<polygon fill="white" stroke="black" points="498.5,-168.5 498.5,-187.5 557.5,-187.5 557.5,-168.5 498.5,-168.5"/>
<text text-anchor="middle" x="528" y="-175.5" font-family="Helvetica,sans-Serif" font-size="10.00">rxso3.hpp</text>
</a>
</g>
</g>
<!-- Node11&#45;&gt;Node12 -->
<g id="edge14" class="edge"><title>Node11&#45;&gt;Node12</title>
<path fill="none" stroke="midnightblue" d="M520.486,-224.083C521.679,-216.927 523.394,-206.635 524.885,-197.691"/>
<polygon fill="midnightblue" stroke="midnightblue" points="528.35,-198.19 526.541,-187.751 521.445,-197.04 528.35,-198.19"/>
</g>
<!-- Node13 -->
<g id="node13" class="node"><title>Node13</title>
<g id="a_node13"><a xlink:href="../../d7/dc1/sophus_8hpp.html" target="_top" xlink:title="sophus.hpp">
<polygon fill="white" stroke="black" points="467.5,-56.5 467.5,-75.5 534.5,-75.5 534.5,-56.5 467.5,-56.5"/>
<text text-anchor="middle" x="501" y="-63.5" font-family="Helvetica,sans-Serif" font-size="10.00">sophus.hpp</text>
</a>
</g>
</g>
<!-- Node12&#45;&gt;Node13 -->
<g id="edge15" class="edge"><title>Node12&#45;&gt;Node13</title>
<path fill="none" stroke="midnightblue" d="M525.881,-168.368C521.524,-150.617 511.473,-109.666 505.565,-85.5974"/>
<polygon fill="midnightblue" stroke="midnightblue" points="508.892,-84.4688 503.109,-75.5914 502.094,-86.1375 508.892,-84.4688"/>
</g>
<!-- Node17 -->
<g id="node17" class="node"><title>Node17</title>
<g id="a_node17"><a xlink:href="../../de/de9/so3_8hpp.html" target="_top" xlink:title="so3.hpp">
<polygon fill="white" stroke="black" points="448.5,-112.5 448.5,-131.5 499.5,-131.5 499.5,-112.5 448.5,-112.5"/>
<text text-anchor="middle" x="474" y="-119.5" font-family="Helvetica,sans-Serif" font-size="10.00">so3.hpp</text>
</a>
</g>
</g>
<!-- Node12&#45;&gt;Node17 -->
<g id="edge19" class="edge"><title>Node12&#45;&gt;Node17</title>
<path fill="none" stroke="midnightblue" d="M519.083,-168.083C511.22,-160.22 499.569,-148.569 490.081,-139.081"/>
<polygon fill="midnightblue" stroke="midnightblue" points="492.297,-136.347 482.751,-131.751 487.347,-141.297 492.297,-136.347"/>
</g>
<!-- Node14 -->
<g id="node14" class="node"><title>Node14</title>
<polygon fill="white" stroke="#bfbfbf" points="389.5,-0.5 389.5,-19.5 448.5,-19.5 448.5,-0.5 389.5,-0.5"/>
<text text-anchor="middle" x="419" y="-7.5" font-family="Helvetica,sans-Serif" font-size="10.00">stdexcept</text>
</g>
<!-- Node13&#45;&gt;Node14 -->
<g id="edge16" class="edge"><title>Node13&#45;&gt;Node14</title>
<path fill="none" stroke="midnightblue" d="M487.825,-56.324C475.153,-47.979 455.767,-35.2122 440.794,-25.3524"/>
<polygon fill="midnightblue" stroke="midnightblue" points="442.419,-22.2313 432.142,-19.6545 438.569,-28.0776 442.419,-22.2313"/>
</g>
<!-- Node15 -->
<g id="node15" class="node"><title>Node15</title>
<polygon fill="white" stroke="#bfbfbf" points="466.5,-0.5 466.5,-19.5 535.5,-19.5 535.5,-0.5 466.5,-0.5"/>
<text text-anchor="middle" x="501" y="-7.5" font-family="Helvetica,sans-Serif" font-size="10.00">Eigen/Eigen</text>
</g>
<!-- Node13&#45;&gt;Node15 -->
<g id="edge17" class="edge"><title>Node13&#45;&gt;Node15</title>
<path fill="none" stroke="midnightblue" d="M501,-56.083C501,-49.0059 501,-38.8611 501,-29.9865"/>
<polygon fill="midnightblue" stroke="midnightblue" points="504.5,-29.751 501,-19.7511 497.5,-29.7511 504.5,-29.751"/>
</g>
<!-- Node16 -->
<g id="node16" class="node"><title>Node16</title>
<polygon fill="white" stroke="#bfbfbf" points="553.5,-0.5 553.5,-19.5 640.5,-19.5 640.5,-0.5 553.5,-0.5"/>
<text text-anchor="middle" x="597" y="-7.5" font-family="Helvetica,sans-Serif" font-size="10.00">Eigen/Geometry</text>
</g>
<!-- Node13&#45;&gt;Node16 -->
<g id="edge18" class="edge"><title>Node13&#45;&gt;Node16</title>
<path fill="none" stroke="midnightblue" d="M516.424,-56.324C531.54,-47.8215 554.815,-34.7288 572.471,-24.7975"/>
<polygon fill="midnightblue" stroke="midnightblue" points="574.614,-27.6077 581.614,-19.6545 571.183,-21.5066 574.614,-27.6077"/>
</g>
<!-- Node17&#45;&gt;Node13 -->
<g id="edge20" class="edge"><title>Node17&#45;&gt;Node13</title>
<path fill="none" stroke="midnightblue" d="M478.459,-112.083C482.154,-104.691 487.523,-93.9533 492.094,-84.8111"/>
<polygon fill="midnightblue" stroke="midnightblue" points="495.283,-86.2606 496.624,-75.7511 489.022,-83.1301 495.283,-86.2606"/>
</g>
<!-- Node18&#45;&gt;Node17 -->
<g id="edge22" class="edge"><title>Node18&#45;&gt;Node17</title>
<path fill="none" stroke="midnightblue" d="M443.11,-168.083C448.282,-160.534 455.846,-149.495 462.194,-140.23"/>
<polygon fill="midnightblue" stroke="midnightblue" points="465.239,-141.979 468.004,-131.751 459.464,-138.022 465.239,-141.979"/>
</g>
</g>
</svg>
