<?xml version="1.0" encoding="UTF-8" standalone="no"?>
<!DOCTYPE svg PUBLIC "-//W3C//DTD SVG 1.1//EN"
 "http://www.w3.org/Graphics/SVG/1.1/DTD/svg11.dtd">
<!-- Generated by graphviz version 2.36.0 (20140111.2315)
 -->
<!-- Title: ANNbruteForce Pages: 1 -->
<svg width="112pt" height="282pt"
 viewBox="0.00 0.00 112.00 282.00" xmlns="http://www.w3.org/2000/svg" xmlns:xlink="http://www.w3.org/1999/xlink">
<g id="graph0" class="graph" transform="scale(1 1) rotate(0) translate(4 278)">
<title>ANNbruteForce</title>
<polygon fill="white" stroke="none" points="-4,4 -4,-278 108,-278 108,4 -4,4"/>
<!-- Node1 -->
<g id="node1" class="node"><title>Node1</title>
<polygon fill="#bfbfbf" stroke="black" points="-1,-0.5 -1,-123.5 105,-123.5 105,-0.5 -1,-0.5"/>
<text text-anchor="middle" x="52" y="-111.5" font-family="Helvetica,sans-Serif" font-size="10.00">ANNbruteForce</text>
<polyline fill="none" stroke="black" points="-1,-104.5 105,-104.5 "/>
<text text-anchor="middle" x="52" y="-92.5" font-family="Helvetica,sans-Serif" font-size="10.00"> </text>
<polyline fill="none" stroke="black" points="-1,-85.5 105,-85.5 "/>
<text text-anchor="start" x="7" y="-73.5" font-family="Helvetica,sans-Serif" font-size="10.00">+ ANNbruteForce()</text>
<text text-anchor="start" x="7" y="-62.5" font-family="Helvetica,sans-Serif" font-size="10.00">+ ~ANNbruteForce()</text>
<text text-anchor="start" x="7" y="-51.5" font-family="Helvetica,sans-Serif" font-size="10.00">+ annkSearch()</text>
<text text-anchor="start" x="7" y="-40.5" font-family="Helvetica,sans-Serif" font-size="10.00">+ annkFRSearch()</text>
<text text-anchor="start" x="7" y="-29.5" font-family="Helvetica,sans-Serif" font-size="10.00">+ theDim()</text>
<text text-anchor="start" x="7" y="-18.5" font-family="Helvetica,sans-Serif" font-size="10.00">+ nPoints()</text>
<text text-anchor="start" x="7" y="-7.5" font-family="Helvetica,sans-Serif" font-size="10.00">+ thePoints()</text>
</g>
<!-- Node2 -->
<g id="node2" class="node"><title>Node2</title>
<g id="a_node2"><a xlink:href="../../d5/d76/classANNpointSet.html" target="_top" xlink:title="{ANNpointSet\n||+ ~ANNpointSet()\l+ annkSearch()\l+ annkFRSearch()\l+ theDim()\l+ nPoints()\l+ thePoints()\l}">
<polygon fill="white" stroke="black" points="3.5,-161 3.5,-273 100.5,-273 100.5,-161 3.5,-161"/>
<text text-anchor="middle" x="52" y="-261" font-family="Helvetica,sans-Serif" font-size="10.00">ANNpointSet</text>
<polyline fill="none" stroke="black" points="3.5,-254 100.5,-254 "/>
<text text-anchor="middle" x="52" y="-242" font-family="Helvetica,sans-Serif" font-size="10.00"> </text>
<polyline fill="none" stroke="black" points="3.5,-235 100.5,-235 "/>
<text text-anchor="start" x="11.5" y="-223" font-family="Helvetica,sans-Serif" font-size="10.00">+ ~ANNpointSet()</text>
<text text-anchor="start" x="11.5" y="-212" font-family="Helvetica,sans-Serif" font-size="10.00">+ annkSearch()</text>
<text text-anchor="start" x="11.5" y="-201" font-family="Helvetica,sans-Serif" font-size="10.00">+ annkFRSearch()</text>
<text text-anchor="start" x="11.5" y="-190" font-family="Helvetica,sans-Serif" font-size="10.00">+ theDim()</text>
<text text-anchor="start" x="11.5" y="-179" font-family="Helvetica,sans-Serif" font-size="10.00">+ nPoints()</text>
<text text-anchor="start" x="11.5" y="-168" font-family="Helvetica,sans-Serif" font-size="10.00">+ thePoints()</text>
</a>
</g>
</g>
<!-- Node2&#45;&gt;Node1 -->
<g id="edge1" class="edge"><title>Node2&#45;&gt;Node1</title>
<path fill="none" stroke="midnightblue" d="M52,-150.718C52,-141.717 52,-132.505 52,-123.593"/>
<polygon fill="none" stroke="midnightblue" points="48.5001,-150.763 52,-160.763 55.5001,-150.764 48.5001,-150.763"/>
</g>
</g>
</svg>
