<?xml version="1.0" encoding="UTF-8" standalone="no"?>
<!DOCTYPE svg PUBLIC "-//W3C//DTD SVG 1.1//EN"
 "http://www.w3.org/Graphics/SVG/1.1/DTD/svg11.dtd">
<!-- Generated by graphviz version 2.36.0 (20140111.2315)
 -->
<!-- Title: FilterGLSL Pages: 1 -->
<svg width="125pt" height="334pt"
 viewBox="0.00 0.00 125.00 334.00" xmlns="http://www.w3.org/2000/svg" xmlns:xlink="http://www.w3.org/1999/xlink">
<g id="graph0" class="graph" transform="scale(1 1) rotate(0) translate(4 330)">
<title>FilterGLSL</title>
<polygon fill="white" stroke="none" points="-4,4 -4,-330 121,-330 121,4 -4,4"/>
<!-- Node1 -->
<g id="node1" class="node"><title>Node1</title>
<polygon fill="#bfbfbf" stroke="black" points="0,-1 0,-69 114,-69 114,-1 0,-1"/>
<text text-anchor="middle" x="57" y="-57" font-family="Helvetica,sans-Serif" font-size="10.00">FilterGLSL</text>
<polyline fill="none" stroke="black" points="0,-50 114,-50 "/>
<text text-anchor="middle" x="57" y="-38" font-family="Helvetica,sans-Serif" font-size="10.00"> </text>
<polyline fill="none" stroke="black" points="0,-31 114,-31 "/>
<text text-anchor="start" x="8" y="-19" font-family="Helvetica,sans-Serif" font-size="10.00">+ MakeFilterProgram()</text>
<text text-anchor="start" x="8" y="-8" font-family="Helvetica,sans-Serif" font-size="10.00">+ FilterGLSL()</text>
</g>
<!-- Node2 -->
<g id="node2" class="node"><title>Node2</title>
<g id="a_node2"><a xlink:href="../../d9/d9b/classFilterProgram.html" target="_top" xlink:title="{FilterProgram\n|+ _size\l+ _id\l|+ FilterProgram()\l+ ~FilterProgram()\l}">
<polygon fill="white" stroke="black" points="9,-108.5 9,-187.5 105,-187.5 105,-108.5 9,-108.5"/>
<text text-anchor="middle" x="57" y="-175.5" font-family="Helvetica,sans-Serif" font-size="10.00">FilterProgram</text>
<polyline fill="none" stroke="black" points="9,-168.5 105,-168.5 "/>
<text text-anchor="start" x="17" y="-156.5" font-family="Helvetica,sans-Serif" font-size="10.00">+ _size</text>
<text text-anchor="start" x="17" y="-145.5" font-family="Helvetica,sans-Serif" font-size="10.00">+ _id</text>
<polyline fill="none" stroke="black" points="9,-138.5 105,-138.5 "/>
<text text-anchor="start" x="17" y="-126.5" font-family="Helvetica,sans-Serif" font-size="10.00">+ FilterProgram()</text>
<text text-anchor="start" x="17" y="-115.5" font-family="Helvetica,sans-Serif" font-size="10.00">+ ~FilterProgram()</text>
</a>
</g>
</g>
<!-- Node2&#45;&gt;Node1 -->
<g id="edge1" class="edge"><title>Node2&#45;&gt;Node1</title>
<path fill="none" stroke="midnightblue" d="M57,-98.3974C57,-88.5607 57,-78.4304 57,-69.2684"/>
<polygon fill="none" stroke="midnightblue" points="53.5001,-98.4891 57,-108.489 60.5001,-98.4891 53.5001,-98.4891"/>
</g>
<!-- Node3 -->
<g id="node3" class="node"><title>Node3</title>
<g id="a_node3"><a xlink:href="../../d9/d26/classProgramGPU.html" target="_top" xlink:title="{ProgramGPU\n||+ UseProgram()\l+ GetProgramID()\l+ ~ProgramGPU()\l}">
<polygon fill="white" stroke="black" points="9,-246.5 9,-325.5 105,-325.5 105,-246.5 9,-246.5"/>
<text text-anchor="middle" x="57" y="-313.5" font-family="Helvetica,sans-Serif" font-size="10.00">ProgramGPU</text>
<polyline fill="none" stroke="black" points="9,-306.5 105,-306.5 "/>
<text text-anchor="middle" x="57" y="-294.5" font-family="Helvetica,sans-Serif" font-size="10.00"> </text>
<polyline fill="none" stroke="black" points="9,-287.5 105,-287.5 "/>
<text text-anchor="start" x="17" y="-275.5" font-family="Helvetica,sans-Serif" font-size="10.00">+ UseProgram()</text>
<text text-anchor="start" x="17" y="-264.5" font-family="Helvetica,sans-Serif" font-size="10.00">+ GetProgramID()</text>
<text text-anchor="start" x="17" y="-253.5" font-family="Helvetica,sans-Serif" font-size="10.00">+ ~ProgramGPU()</text>
</a>
</g>
</g>
<!-- Node3&#45;&gt;Node2 -->
<g id="edge2" class="edge"><title>Node3&#45;&gt;Node2</title>
<path fill="none" stroke="#404040" d="M57,-246.392C57,-231.892 57,-215.184 57,-199.747"/>
<polygon fill="none" stroke="#404040" points="57.0001,-199.705 53,-193.705 57,-187.705 61,-193.705 57.0001,-199.705"/>
<text text-anchor="middle" x="87" y="-220" font-family="Helvetica,sans-Serif" font-size="10.00"> +s_shader_v</text>
<text text-anchor="middle" x="87" y="-209" font-family="Helvetica,sans-Serif" font-size="10.00">+s_shader_h</text>
</g>
</g>
</svg>
