<?xml version="1.0" encoding="UTF-8" standalone="no"?>
<!DOCTYPE svg PUBLIC "-//W3C//DTD SVG 1.1//EN"
 "http://www.w3.org/Graphics/SVG/1.1/DTD/svg11.dtd">
<!-- Generated by graphviz version 2.36.0 (20140111.2315)
 -->
<!-- Title: lsd_slam::KFConstraintStruct Pages: 1 -->
<svg width="604pt" height="1448pt"
 viewBox="0.00 0.00 604.00 1448.00" xmlns="http://www.w3.org/2000/svg" xmlns:xlink="http://www.w3.org/1999/xlink">
<g id="graph0" class="graph" transform="scale(1 1) rotate(0) translate(4 1444)">
<title>lsd_slam::KFConstraintStruct</title>
<polygon fill="white" stroke="none" points="-4,4 -4,-1444 600,-1444 600,4 -4,4"/>
<!-- Node1 -->
<g id="node1" class="node"><title>Node1</title>
<polygon fill="#bfbfbf" stroke="black" points="57,-1 57,-157 203,-157 203,-1 57,-1"/>
<text text-anchor="middle" x="130" y="-145" font-family="Helvetica,sans-Serif" font-size="10.00">lsd_slam::KFConstraintStruct</text>
<polyline fill="none" stroke="black" points="57,-138 203,-138 "/>
<text text-anchor="start" x="65" y="-126" font-family="Helvetica,sans-Serif" font-size="10.00">+ secondToFirst</text>
<text text-anchor="start" x="65" y="-115" font-family="Helvetica,sans-Serif" font-size="10.00">+ information</text>
<text text-anchor="start" x="65" y="-104" font-family="Helvetica,sans-Serif" font-size="10.00">+ robustKernel</text>
<text text-anchor="start" x="65" y="-93" font-family="Helvetica,sans-Serif" font-size="10.00">+ usage</text>
<text text-anchor="start" x="65" y="-82" font-family="Helvetica,sans-Serif" font-size="10.00">+ meanResidualD</text>
<text text-anchor="start" x="65" y="-71" font-family="Helvetica,sans-Serif" font-size="10.00">+ meanResidualP</text>
<text text-anchor="start" x="65" y="-60" font-family="Helvetica,sans-Serif" font-size="10.00">+ meanResidual</text>
<text text-anchor="start" x="65" y="-49" font-family="Helvetica,sans-Serif" font-size="10.00">+ reciprocalConsistency</text>
<text text-anchor="start" x="65" y="-38" font-family="Helvetica,sans-Serif" font-size="10.00">+ idxInAllEdges</text>
<polyline fill="none" stroke="black" points="57,-31 203,-31 "/>
<text text-anchor="start" x="65" y="-19" font-family="Helvetica,sans-Serif" font-size="10.00">+ KFConstraintStruct()</text>
<text text-anchor="start" x="65" y="-8" font-family="Helvetica,sans-Serif" font-size="10.00">+ ~KFConstraintStruct()</text>
</g>
<!-- Node2 -->
<g id="node2" class="node"><title>Node2</title>
<g id="a_node2"><a xlink:href="../../d3/db7/classlsd__slam_1_1EdgeSim3.html" target="_top" xlink:title="7D edge between two Vertex7 ">
<polygon fill="white" stroke="black" points="0,-277 0,-433 150,-433 150,-277 0,-277"/>
<text text-anchor="middle" x="75" y="-421" font-family="Helvetica,sans-Serif" font-size="10.00">lsd_slam::EdgeSim3</text>
<polyline fill="none" stroke="black" points="0,-414 150,-414 "/>
<text text-anchor="start" x="8" y="-402" font-family="Helvetica,sans-Serif" font-size="10.00"># _inverseMeasurement</text>
<polyline fill="none" stroke="black" points="0,-395 150,-395 "/>
<text text-anchor="start" x="8" y="-383" font-family="Helvetica,sans-Serif" font-size="10.00">+ EdgeSim3()</text>
<text text-anchor="start" x="8" y="-372" font-family="Helvetica,sans-Serif" font-size="10.00">+ read()</text>
<text text-anchor="start" x="8" y="-361" font-family="Helvetica,sans-Serif" font-size="10.00">+ write()</text>
<text text-anchor="start" x="8" y="-350" font-family="Helvetica,sans-Serif" font-size="10.00">+ computeError()</text>
<text text-anchor="start" x="8" y="-339" font-family="Helvetica,sans-Serif" font-size="10.00">+ linearizeOplus()</text>
<text text-anchor="start" x="8" y="-328" font-family="Helvetica,sans-Serif" font-size="10.00">+ setMeasurement()</text>
<text text-anchor="start" x="8" y="-317" font-family="Helvetica,sans-Serif" font-size="10.00">+ setMeasurementData()</text>
<text text-anchor="start" x="8" y="-306" font-family="Helvetica,sans-Serif" font-size="10.00">+ setMeasurementFromState()</text>
<text text-anchor="start" x="8" y="-295" font-family="Helvetica,sans-Serif" font-size="10.00">+ initialEstimatePossible()</text>
<text text-anchor="start" x="8" y="-284" font-family="Helvetica,sans-Serif" font-size="10.00">+ initialEstimate()</text>
</a>
</g>
</g>
<!-- Node2&#45;&gt;Node1 -->
<g id="edge1" class="edge"><title>Node2&#45;&gt;Node1</title>
<path fill="none" stroke="#404040" d="M80.3385,-276.689C83.4908,-245.183 88.4095,-208.578 96,-176 96.5642,-173.578 97.169,-171.133 97.8083,-168.674"/>
<polygon fill="none" stroke="#404040" points="97.8109,-168.665 95.5659,-161.812 101.028,-157.104 103.273,-163.957 97.8109,-168.665"/>
<text text-anchor="middle" x="111.5" y="-184.5" font-family="Helvetica,sans-Serif" font-size="10.00"> +edge</text>
</g>
<!-- Node3 -->
<g id="node3" class="node"><title>Node3</title>
<polygon fill="white" stroke="#bfbfbf" points="6.5,-618.5 6.5,-697.5 143.5,-697.5 143.5,-618.5 6.5,-618.5"/>
<text text-anchor="start" x="14.5" y="-685.5" font-family="Helvetica,sans-Serif" font-size="10.00">g2o::BaseBinaryEdge</text>
<text text-anchor="start" x="14.5" y="-674.5" font-family="Helvetica,sans-Serif" font-size="10.00">&lt; 7, Sophus::Sim3d,</text>
<text text-anchor="middle" x="75" y="-663.5" font-family="Helvetica,sans-Serif" font-size="10.00"> VertexSim3, VertexSim3 &gt;</text>
<polyline fill="none" stroke="#bfbfbf" points="6.5,-656.5 143.5,-656.5 "/>
<text text-anchor="middle" x="75" y="-644.5" font-family="Helvetica,sans-Serif" font-size="10.00"> </text>
<polyline fill="none" stroke="#bfbfbf" points="6.5,-637.5 143.5,-637.5 "/>
<text text-anchor="middle" x="75" y="-625.5" font-family="Helvetica,sans-Serif" font-size="10.00"> </text>
</g>
<!-- Node3&#45;&gt;Node2 -->
<g id="edge2" class="edge"><title>Node3&#45;&gt;Node2</title>
<path fill="none" stroke="midnightblue" d="M75,-607.968C75,-560.604 75,-488.142 75,-433.064"/>
<polygon fill="none" stroke="midnightblue" points="71.5001,-608.266 75,-618.266 78.5001,-608.266 71.5001,-608.266"/>
</g>
<!-- Node4 -->
<g id="node4" class="node"><title>Node4</title>
<g id="a_node4"><a xlink:href="../../dd/d08/classlsd__slam_1_1Frame.html" target="_top" xlink:title="{lsd_slam::Frame\n|+ neighbors\l+ trackingFailed\l+ depthHasBeenUpdatedFlag\l+ permaRef_mutex\l+ permaRef_posData\l+ permaRef_colorAndVarData\l+ permaRefNumPts\l+ referenceID\l+ referenceLevel\l+ distSquared\land 20 more...\l|+ Frame()\l+ Frame()\l+ ~Frame()\l+ setDepth()\l+ calculateMeanInformation()\l+ setDepthFromGroundTruth()\l+ prepareForStereoWith()\l+ id()\l+ width()\l+ height()\land 29 more...\l}">
<polygon fill="white" stroke="black" points="168,-216.5 168,-493.5 316,-493.5 316,-216.5 168,-216.5"/>
<text text-anchor="middle" x="242" y="-481.5" font-family="Helvetica,sans-Serif" font-size="10.00">lsd_slam::Frame</text>
<polyline fill="none" stroke="black" points="168,-474.5 316,-474.5 "/>
<text text-anchor="start" x="176" y="-462.5" font-family="Helvetica,sans-Serif" font-size="10.00">+ neighbors</text>
<text text-anchor="start" x="176" y="-451.5" font-family="Helvetica,sans-Serif" font-size="10.00">+ trackingFailed</text>
<text text-anchor="start" x="176" y="-440.5" font-family="Helvetica,sans-Serif" font-size="10.00">+ depthHasBeenUpdatedFlag</text>
<text text-anchor="start" x="176" y="-429.5" font-family="Helvetica,sans-Serif" font-size="10.00">+ permaRef_mutex</text>
<text text-anchor="start" x="176" y="-418.5" font-family="Helvetica,sans-Serif" font-size="10.00">+ permaRef_posData</text>
<text text-anchor="start" x="176" y="-407.5" font-family="Helvetica,sans-Serif" font-size="10.00">+ permaRef_colorAndVarData</text>
<text text-anchor="start" x="176" y="-396.5" font-family="Helvetica,sans-Serif" font-size="10.00">+ permaRefNumPts</text>
<text text-anchor="start" x="176" y="-385.5" font-family="Helvetica,sans-Serif" font-size="10.00">+ referenceID</text>
<text text-anchor="start" x="176" y="-374.5" font-family="Helvetica,sans-Serif" font-size="10.00">+ referenceLevel</text>
<text text-anchor="start" x="176" y="-363.5" font-family="Helvetica,sans-Serif" font-size="10.00">+ distSquared</text>
<text text-anchor="start" x="176" y="-352.5" font-family="Helvetica,sans-Serif" font-size="10.00">and 20 more...</text>
<polyline fill="none" stroke="black" points="168,-345.5 316,-345.5 "/>
<text text-anchor="start" x="176" y="-333.5" font-family="Helvetica,sans-Serif" font-size="10.00">+ Frame()</text>
<text text-anchor="start" x="176" y="-322.5" font-family="Helvetica,sans-Serif" font-size="10.00">+ Frame()</text>
<text text-anchor="start" x="176" y="-311.5" font-family="Helvetica,sans-Serif" font-size="10.00">+ ~Frame()</text>
<text text-anchor="start" x="176" y="-300.5" font-family="Helvetica,sans-Serif" font-size="10.00">+ setDepth()</text>
<text text-anchor="start" x="176" y="-289.5" font-family="Helvetica,sans-Serif" font-size="10.00">+ calculateMeanInformation()</text>
<text text-anchor="start" x="176" y="-278.5" font-family="Helvetica,sans-Serif" font-size="10.00">+ setDepthFromGroundTruth()</text>
<text text-anchor="start" x="176" y="-267.5" font-family="Helvetica,sans-Serif" font-size="10.00">+ prepareForStereoWith()</text>
<text text-anchor="start" x="176" y="-256.5" font-family="Helvetica,sans-Serif" font-size="10.00">+ id()</text>
<text text-anchor="start" x="176" y="-245.5" font-family="Helvetica,sans-Serif" font-size="10.00">+ width()</text>
<text text-anchor="start" x="176" y="-234.5" font-family="Helvetica,sans-Serif" font-size="10.00">+ height()</text>
<text text-anchor="start" x="176" y="-223.5" font-family="Helvetica,sans-Serif" font-size="10.00">and 29 more...</text>
</a>
</g>
</g>
<!-- Node4&#45;&gt;Node1 -->
<g id="edge3" class="edge"><title>Node4&#45;&gt;Node1</title>
<path fill="none" stroke="#404040" d="M184.463,-216.242C181.933,-210.08 179.436,-203.978 177,-198 173.101,-188.43 169.054,-178.409 165.044,-168.424"/>
<polygon fill="none" stroke="#404040" points="165.007,-168.33 159.062,-164.248 160.543,-157.191 166.488,-161.273 165.007,-168.33"/>
<text text-anchor="middle" x="210" y="-190" font-family="Helvetica,sans-Serif" font-size="10.00"> +firstFrame</text>
<text text-anchor="middle" x="210" y="-179" font-family="Helvetica,sans-Serif" font-size="10.00">+secondFrame</text>
</g>
<!-- Node5 -->
<g id="node5" class="node"><title>Node5</title>
<g id="a_node5"><a xlink:href="../../d9/d9e/classlsd__slam_1_1FramePoseStruct.html" target="_top" xlink:title="{lsd_slam::FramePoseStruct\n|+ frameID\l+ isRegisteredToGraph\l+ isOptimized\l+ isInGraph\l|+ FramePoseStruct()\l+ ~FramePoseStruct()\l+ setPoseGraphOptResult()\l+ applyPoseGraphOptResult()\l+ getCamToWorld()\l+ invalidateCache()\l}">
<polygon fill="white" stroke="black" points="249,-6.5 249,-151.5 397,-151.5 397,-6.5 249,-6.5"/>
<text text-anchor="middle" x="323" y="-139.5" font-family="Helvetica,sans-Serif" font-size="10.00">lsd_slam::FramePoseStruct</text>
<polyline fill="none" stroke="black" points="249,-132.5 397,-132.5 "/>
<text text-anchor="start" x="257" y="-120.5" font-family="Helvetica,sans-Serif" font-size="10.00">+ frameID</text>
<text text-anchor="start" x="257" y="-109.5" font-family="Helvetica,sans-Serif" font-size="10.00">+ isRegisteredToGraph</text>
<text text-anchor="start" x="257" y="-98.5" font-family="Helvetica,sans-Serif" font-size="10.00">+ isOptimized</text>
<text text-anchor="start" x="257" y="-87.5" font-family="Helvetica,sans-Serif" font-size="10.00">+ isInGraph</text>
<polyline fill="none" stroke="black" points="249,-80.5 397,-80.5 "/>
<text text-anchor="start" x="257" y="-68.5" font-family="Helvetica,sans-Serif" font-size="10.00">+ FramePoseStruct()</text>
<text text-anchor="start" x="257" y="-57.5" font-family="Helvetica,sans-Serif" font-size="10.00">+ ~FramePoseStruct()</text>
<text text-anchor="start" x="257" y="-46.5" font-family="Helvetica,sans-Serif" font-size="10.00">+ setPoseGraphOptResult()</text>
<text text-anchor="start" x="257" y="-35.5" font-family="Helvetica,sans-Serif" font-size="10.00">+ applyPoseGraphOptResult()</text>
<text text-anchor="start" x="257" y="-24.5" font-family="Helvetica,sans-Serif" font-size="10.00">+ getCamToWorld()</text>
<text text-anchor="start" x="257" y="-13.5" font-family="Helvetica,sans-Serif" font-size="10.00">+ invalidateCache()</text>
</a>
</g>
</g>
<!-- Node4&#45;&gt;Node5 -->
<g id="edge5" class="edge"><title>Node4&#45;&gt;Node5</title>
<path fill="none" stroke="#404040" d="M241.701,-216.321C244.045,-202.474 247.375,-188.809 252,-176 253.636,-171.468 255.56,-166.968 257.707,-162.531"/>
<polygon fill="none" stroke="#404040" points="257.852,-162.257 257.122,-155.083 263.463,-151.65 264.193,-158.824 257.852,-162.257"/>
<text text-anchor="middle" x="269" y="-184.5" font-family="Helvetica,sans-Serif" font-size="10.00"> +frame</text>
</g>
<!-- Node5&#45;&gt;Node4 -->
<g id="edge4" class="edge"><title>Node5&#45;&gt;Node4</title>
<path fill="none" stroke="#404040" d="M301.86,-151.509C296.979,-168.022 291.607,-186.194 286.146,-204.668"/>
<polygon fill="none" stroke="#404040" points="286.139,-204.69 288.274,-211.577 282.737,-216.197 280.602,-209.309 286.139,-204.69"/>
<text text-anchor="middle" x="310.5" y="-184.5" font-family="Helvetica,sans-Serif" font-size="10.00"> +pose</text>
</g>
<!-- Node5&#45;&gt;Node5 -->
<g id="edge6" class="edge"><title>Node5&#45;&gt;Node5</title>
<path fill="none" stroke="#404040" d="M397.36,-97.1723C407.916,-94.2332 415,-88.1758 415,-79 415,-73.5519 412.503,-69.2031 408.264,-65.9536"/>
<polygon fill="none" stroke="#404040" points="408.22,-65.933 401.088,-67.0003 397.36,-60.8277 404.492,-59.7604 408.22,-65.933"/>
<text text-anchor="middle" x="451.5" y="-76.5" font-family="Helvetica,sans-Serif" font-size="10.00"> +trackingParent</text>
</g>
<!-- Node6 -->
<g id="node6" class="node"><title>Node6</title>
<g id="a_node6"><a xlink:href="../../de/d0b/classSophus_1_1Sim3Group.html" target="_top" xlink:title="Sim3 default type &#45; Constructors and default storage for Sim3 Type. ">
<polygon fill="white" stroke="black" points="230,-552.5 230,-763.5 340,-763.5 340,-552.5 230,-552.5"/>
<text text-anchor="start" x="238" y="-751.5" font-family="Helvetica,sans-Serif" font-size="10.00">Sophus::Sim3Group&lt;</text>
<text text-anchor="middle" x="285" y="-740.5" font-family="Helvetica,sans-Serif" font-size="10.00"> _Scalar, _Options &gt;</text>
<polyline fill="none" stroke="black" points="230,-733.5 340,-733.5 "/>
<text text-anchor="start" x="238" y="-721.5" font-family="Helvetica,sans-Serif" font-size="10.00">+ DoF</text>
<text text-anchor="start" x="238" y="-710.5" font-family="Helvetica,sans-Serif" font-size="10.00">+ num_parameters</text>
<text text-anchor="start" x="238" y="-699.5" font-family="Helvetica,sans-Serif" font-size="10.00">+ N</text>
<text text-anchor="start" x="238" y="-688.5" font-family="Helvetica,sans-Serif" font-size="10.00"># translation_</text>
<polyline fill="none" stroke="black" points="230,-681.5 340,-681.5 "/>
<text text-anchor="start" x="238" y="-669.5" font-family="Helvetica,sans-Serif" font-size="10.00">+ Sim3Group()</text>
<text text-anchor="start" x="238" y="-658.5" font-family="Helvetica,sans-Serif" font-size="10.00">+ Sim3Group()</text>
<text text-anchor="start" x="238" y="-647.5" font-family="Helvetica,sans-Serif" font-size="10.00">+ Sim3Group()</text>
<text text-anchor="start" x="238" y="-636.5" font-family="Helvetica,sans-Serif" font-size="10.00">+ Sim3Group()</text>
<text text-anchor="start" x="238" y="-625.5" font-family="Helvetica,sans-Serif" font-size="10.00">+ Sim3Group()</text>
<text text-anchor="start" x="238" y="-614.5" font-family="Helvetica,sans-Serif" font-size="10.00">+ data()</text>
<text text-anchor="start" x="238" y="-603.5" font-family="Helvetica,sans-Serif" font-size="10.00">+ data()</text>
<text text-anchor="start" x="238" y="-592.5" font-family="Helvetica,sans-Serif" font-size="10.00">+ rxso3()</text>
<text text-anchor="start" x="238" y="-581.5" font-family="Helvetica,sans-Serif" font-size="10.00">+ rxso3()</text>
<text text-anchor="start" x="238" y="-570.5" font-family="Helvetica,sans-Serif" font-size="10.00">+ translation()</text>
<text text-anchor="start" x="238" y="-559.5" font-family="Helvetica,sans-Serif" font-size="10.00">+ translation()</text>
</a>
</g>
</g>
<!-- Node6&#45;&gt;Node4 -->
<g id="edge13" class="edge"><title>Node6&#45;&gt;Node4</title>
<path fill="none" stroke="#404040" d="M229.944,-579.49C222.131,-564.98 215.3,-549.488 211,-534 208.463,-524.862 206.958,-515.399 206.276,-505.816"/>
<polygon fill="none" stroke="#404040" points="206.269,-505.622 202.055,-499.769 205.836,-493.629 210.05,-499.481 206.269,-505.622"/>
<text text-anchor="start" x="211" y="-526" font-family="Helvetica,sans-Serif" font-size="10.00"> +lastConstraintTrackedCam</text>
<text text-anchor="middle" x="274.5" y="-515" font-family="Helvetica,sans-Serif" font-size="10.00">ToWorld</text>
</g>
<!-- Node6&#45;&gt;Node5 -->
<g id="edge7" class="edge"><title>Node6&#45;&gt;Node5</title>
<path fill="none" stroke="#404040" d="M333.412,-552.231C335.2,-546.138 336.755,-540.035 338,-534 364.226,-406.862 350.523,-255.516 337.397,-163.659"/>
<polygon fill="none" stroke="#404040" points="337.378,-163.527 332.55,-158.171 335.636,-151.654 340.465,-157.01 337.378,-163.527"/>
<text text-anchor="middle" x="396" y="-352.5" font-family="Helvetica,sans-Serif" font-size="10.00"> +thisToParent_raw</text>
</g>
<!-- Node7 -->
<g id="node7" class="node"><title>Node7</title>
<g id="a_node7"><a xlink:href="../../d6/db5/classSophus_1_1Sim3GroupBase.html" target="_top" xlink:title="{Sophus::Sim3GroupBase\l\&lt; Sim3Group\&lt; _Scalar,\l _Options \&gt; \&gt;\n|+ DoF\l+ num_parameters\l+ N\l|+ Adj()\l+ cast()\l+ fastMultiply()\l+ inverse()\l+ log()\l+ matrix()\l+ matrix3x4()\l+ operator=()\l+ operator*()\l+ operator*()\land 13 more...\l+ log()\l+ d_lieBracketab_by_d_a()\l+ exp()\l+ generator()\l+ hat()\l+ lieBracket()\l+ vee()\l}">
<polygon fill="white" stroke="black" points="147.5,-813 147.5,-1101 280.5,-1101 280.5,-813 147.5,-813"/>
<text text-anchor="start" x="155.5" y="-1089" font-family="Helvetica,sans-Serif" font-size="10.00">Sophus::Sim3GroupBase</text>
<text text-anchor="start" x="155.5" y="-1078" font-family="Helvetica,sans-Serif" font-size="10.00">&lt; Sim3Group&lt; _Scalar,</text>
<text text-anchor="middle" x="214" y="-1067" font-family="Helvetica,sans-Serif" font-size="10.00"> _Options &gt; &gt;</text>
<polyline fill="none" stroke="black" points="147.5,-1060 280.5,-1060 "/>
<text text-anchor="start" x="155.5" y="-1048" font-family="Helvetica,sans-Serif" font-size="10.00">+ DoF</text>
<text text-anchor="start" x="155.5" y="-1037" font-family="Helvetica,sans-Serif" font-size="10.00">+ num_parameters</text>
<text text-anchor="start" x="155.5" y="-1026" font-family="Helvetica,sans-Serif" font-size="10.00">+ N</text>
<polyline fill="none" stroke="black" points="147.5,-1019 280.5,-1019 "/>
<text text-anchor="start" x="155.5" y="-1007" font-family="Helvetica,sans-Serif" font-size="10.00">+ Adj()</text>
<text text-anchor="start" x="155.5" y="-996" font-family="Helvetica,sans-Serif" font-size="10.00">+ cast()</text>
<text text-anchor="start" x="155.5" y="-985" font-family="Helvetica,sans-Serif" font-size="10.00">+ fastMultiply()</text>
<text text-anchor="start" x="155.5" y="-974" font-family="Helvetica,sans-Serif" font-size="10.00">+ inverse()</text>
<text text-anchor="start" x="155.5" y="-963" font-family="Helvetica,sans-Serif" font-size="10.00">+ log()</text>
<text text-anchor="start" x="155.5" y="-952" font-family="Helvetica,sans-Serif" font-size="10.00">+ matrix()</text>
<text text-anchor="start" x="155.5" y="-941" font-family="Helvetica,sans-Serif" font-size="10.00">+ matrix3x4()</text>
<text text-anchor="start" x="155.5" y="-930" font-family="Helvetica,sans-Serif" font-size="10.00">+ operator=()</text>
<text text-anchor="start" x="155.5" y="-919" font-family="Helvetica,sans-Serif" font-size="10.00">+ operator*()</text>
<text text-anchor="start" x="155.5" y="-908" font-family="Helvetica,sans-Serif" font-size="10.00">+ operator*()</text>
<text text-anchor="start" x="155.5" y="-897" font-family="Helvetica,sans-Serif" font-size="10.00">and 13 more...</text>
<text text-anchor="start" x="155.5" y="-886" font-family="Helvetica,sans-Serif" font-size="10.00">+ log()</text>
<text text-anchor="start" x="155.5" y="-875" font-family="Helvetica,sans-Serif" font-size="10.00">+ d_lieBracketab_by_d_a()</text>
<text text-anchor="start" x="155.5" y="-864" font-family="Helvetica,sans-Serif" font-size="10.00">+ exp()</text>
<text text-anchor="start" x="155.5" y="-853" font-family="Helvetica,sans-Serif" font-size="10.00">+ generator()</text>
<text text-anchor="start" x="155.5" y="-842" font-family="Helvetica,sans-Serif" font-size="10.00">+ hat()</text>
<text text-anchor="start" x="155.5" y="-831" font-family="Helvetica,sans-Serif" font-size="10.00">+ lieBracket()</text>
<text text-anchor="start" x="155.5" y="-820" font-family="Helvetica,sans-Serif" font-size="10.00">+ vee()</text>
</a>
</g>
</g>
<!-- Node7&#45;&gt;Node6 -->
<g id="edge8" class="edge"><title>Node7&#45;&gt;Node6</title>
<path fill="none" stroke="midnightblue" d="M250.652,-802.682C253.789,-789.56 256.913,-776.489 259.928,-763.878"/>
<polygon fill="none" stroke="midnightblue" points="247.173,-802.18 248.252,-812.72 253.981,-803.808 247.173,-802.18"/>
</g>
<!-- Node8 -->
<g id="node8" class="node"><title>Node8</title>
<g id="a_node8"><a xlink:href="../../d5/d41/classSophus_1_1RxSO3Group.html" target="_top" xlink:title="{Sophus::RxSO3Group\l\&lt; Scalar \&gt;\n|+ DoF\l+ num_parameters\l+ N\l# quaternion_\l|+ RxSO3Group()\l+ RxSO3Group()\l+ RxSO3Group()\l+ RxSO3Group()\l+ RxSO3Group()\l+ RxSO3Group()\l+ quaternion()\l+ quaternion()\l}">
<polygon fill="white" stroke="black" points="299,-868 299,-1046 413,-1046 413,-868 299,-868"/>
<text text-anchor="start" x="307" y="-1034" font-family="Helvetica,sans-Serif" font-size="10.00">Sophus::RxSO3Group</text>
<text text-anchor="middle" x="356" y="-1023" font-family="Helvetica,sans-Serif" font-size="10.00">&lt; Scalar &gt;</text>
<polyline fill="none" stroke="black" points="299,-1016 413,-1016 "/>
<text text-anchor="start" x="307" y="-1004" font-family="Helvetica,sans-Serif" font-size="10.00">+ DoF</text>
<text text-anchor="start" x="307" y="-993" font-family="Helvetica,sans-Serif" font-size="10.00">+ num_parameters</text>
<text text-anchor="start" x="307" y="-982" font-family="Helvetica,sans-Serif" font-size="10.00">+ N</text>
<text text-anchor="start" x="307" y="-971" font-family="Helvetica,sans-Serif" font-size="10.00"># quaternion_</text>
<polyline fill="none" stroke="black" points="299,-964 413,-964 "/>
<text text-anchor="start" x="307" y="-952" font-family="Helvetica,sans-Serif" font-size="10.00">+ RxSO3Group()</text>
<text text-anchor="start" x="307" y="-941" font-family="Helvetica,sans-Serif" font-size="10.00">+ RxSO3Group()</text>
<text text-anchor="start" x="307" y="-930" font-family="Helvetica,sans-Serif" font-size="10.00">+ RxSO3Group()</text>
<text text-anchor="start" x="307" y="-919" font-family="Helvetica,sans-Serif" font-size="10.00">+ RxSO3Group()</text>
<text text-anchor="start" x="307" y="-908" font-family="Helvetica,sans-Serif" font-size="10.00">+ RxSO3Group()</text>
<text text-anchor="start" x="307" y="-897" font-family="Helvetica,sans-Serif" font-size="10.00">+ RxSO3Group()</text>
<text text-anchor="start" x="307" y="-886" font-family="Helvetica,sans-Serif" font-size="10.00">+ quaternion()</text>
<text text-anchor="start" x="307" y="-875" font-family="Helvetica,sans-Serif" font-size="10.00">+ quaternion()</text>
</a>
</g>
</g>
<!-- Node8&#45;&gt;Node6 -->
<g id="edge9" class="edge"><title>Node8&#45;&gt;Node6</title>
<path fill="none" stroke="#404040" d="M334.89,-867.694C327.997,-838.862 320.234,-806.386 312.92,-775.793"/>
<polygon fill="none" stroke="#404040" points="312.825,-775.394 307.539,-770.488 310.035,-763.723 315.32,-768.628 312.825,-775.394"/>
<text text-anchor="middle" x="336" y="-785.5" font-family="Helvetica,sans-Serif" font-size="10.00"> #rxso3_</text>
</g>
<!-- Node9 -->
<g id="node9" class="node"><title>Node9</title>
<g id="a_node9"><a xlink:href="../../d7/dde/classSophus_1_1RxSO3GroupBase.html" target="_top" xlink:title="{Sophus::RxSO3GroupBase\l\&lt; RxSO3Group\&lt; Scalar, 0 \&gt; \&gt;\n|+ DoF\l+ num_parameters\l+ N\l|+ Adj()\l+ cast()\l+ data()\l+ data()\l+ fastMultiply()\l+ inverse()\l+ log()\l+ matrix()\l+ operator=()\l+ operator*()\land 9 more...\l+ log()\l+ d_lieBracketab_by_d_a()\l+ exp()\l+ expAndTheta()\l+ generator()\l+ hat()\l+ lieBracket()\l+ logAndTheta()\l+ vee()\l}">
<polygon fill="white" stroke="black" points="281,-1140.5 281,-1439.5 431,-1439.5 431,-1140.5 281,-1140.5"/>
<text text-anchor="start" x="289" y="-1427.5" font-family="Helvetica,sans-Serif" font-size="10.00">Sophus::RxSO3GroupBase</text>
<text text-anchor="middle" x="356" y="-1416.5" font-family="Helvetica,sans-Serif" font-size="10.00">&lt; RxSO3Group&lt; Scalar, 0 &gt; &gt;</text>
<polyline fill="none" stroke="black" points="281,-1409.5 431,-1409.5 "/>
<text text-anchor="start" x="289" y="-1397.5" font-family="Helvetica,sans-Serif" font-size="10.00">+ DoF</text>
<text text-anchor="start" x="289" y="-1386.5" font-family="Helvetica,sans-Serif" font-size="10.00">+ num_parameters</text>
<text text-anchor="start" x="289" y="-1375.5" font-family="Helvetica,sans-Serif" font-size="10.00">+ N</text>
<polyline fill="none" stroke="black" points="281,-1368.5 431,-1368.5 "/>
<text text-anchor="start" x="289" y="-1356.5" font-family="Helvetica,sans-Serif" font-size="10.00">+ Adj()</text>
<text text-anchor="start" x="289" y="-1345.5" font-family="Helvetica,sans-Serif" font-size="10.00">+ cast()</text>
<text text-anchor="start" x="289" y="-1334.5" font-family="Helvetica,sans-Serif" font-size="10.00">+ data()</text>
<text text-anchor="start" x="289" y="-1323.5" font-family="Helvetica,sans-Serif" font-size="10.00">+ data()</text>
<text text-anchor="start" x="289" y="-1312.5" font-family="Helvetica,sans-Serif" font-size="10.00">+ fastMultiply()</text>
<text text-anchor="start" x="289" y="-1301.5" font-family="Helvetica,sans-Serif" font-size="10.00">+ inverse()</text>
<text text-anchor="start" x="289" y="-1290.5" font-family="Helvetica,sans-Serif" font-size="10.00">+ log()</text>
<text text-anchor="start" x="289" y="-1279.5" font-family="Helvetica,sans-Serif" font-size="10.00">+ matrix()</text>
<text text-anchor="start" x="289" y="-1268.5" font-family="Helvetica,sans-Serif" font-size="10.00">+ operator=()</text>
<text text-anchor="start" x="289" y="-1257.5" font-family="Helvetica,sans-Serif" font-size="10.00">+ operator*()</text>
<text text-anchor="start" x="289" y="-1246.5" font-family="Helvetica,sans-Serif" font-size="10.00">and 9 more...</text>
<text text-anchor="start" x="289" y="-1235.5" font-family="Helvetica,sans-Serif" font-size="10.00">+ log()</text>
<text text-anchor="start" x="289" y="-1224.5" font-family="Helvetica,sans-Serif" font-size="10.00">+ d_lieBracketab_by_d_a()</text>
<text text-anchor="start" x="289" y="-1213.5" font-family="Helvetica,sans-Serif" font-size="10.00">+ exp()</text>
<text text-anchor="start" x="289" y="-1202.5" font-family="Helvetica,sans-Serif" font-size="10.00">+ expAndTheta()</text>
<text text-anchor="start" x="289" y="-1191.5" font-family="Helvetica,sans-Serif" font-size="10.00">+ generator()</text>
<text text-anchor="start" x="289" y="-1180.5" font-family="Helvetica,sans-Serif" font-size="10.00">+ hat()</text>
<text text-anchor="start" x="289" y="-1169.5" font-family="Helvetica,sans-Serif" font-size="10.00">+ lieBracket()</text>
<text text-anchor="start" x="289" y="-1158.5" font-family="Helvetica,sans-Serif" font-size="10.00">+ logAndTheta()</text>
<text text-anchor="start" x="289" y="-1147.5" font-family="Helvetica,sans-Serif" font-size="10.00">+ vee()</text>
</a>
</g>
</g>
<!-- Node9&#45;&gt;Node8 -->
<g id="edge10" class="edge"><title>Node9&#45;&gt;Node8</title>
<path fill="none" stroke="midnightblue" d="M356,-1130.25C356,-1101.39 356,-1072.25 356,-1046.36"/>
<polygon fill="none" stroke="midnightblue" points="352.5,-1130.44 356,-1140.44 359.5,-1130.44 352.5,-1130.44"/>
</g>
<!-- Node10 -->
<g id="node10" class="node"><title>Node10</title>
<g id="a_node10"><a xlink:href="../../d6/d1f/classlsd__slam_1_1VertexSim3.html" target="_top" xlink:title="{lsd_slam::VertexSim3\n|+ EIGEN_MAKE_ALIGNED\l_OPERATOR_NEW\l+ _fix_scale\l|+ VertexSim3()\l+ read()\l+ write()\l+ setToOriginImpl()\l+ oplusImpl()\l}">
<polygon fill="white" stroke="black" points="456,-293.5 456,-416.5 596,-416.5 596,-293.5 456,-293.5"/>
<text text-anchor="middle" x="526" y="-404.5" font-family="Helvetica,sans-Serif" font-size="10.00">lsd_slam::VertexSim3</text>
<polyline fill="none" stroke="black" points="456,-397.5 596,-397.5 "/>
<text text-anchor="start" x="464" y="-385.5" font-family="Helvetica,sans-Serif" font-size="10.00">+ EIGEN_MAKE_ALIGNED</text>
<text text-anchor="start" x="464" y="-374.5" font-family="Helvetica,sans-Serif" font-size="10.00">_OPERATOR_NEW</text>
<text text-anchor="start" x="464" y="-363.5" font-family="Helvetica,sans-Serif" font-size="10.00">+ _fix_scale</text>
<polyline fill="none" stroke="black" points="456,-356.5 596,-356.5 "/>
<text text-anchor="start" x="464" y="-344.5" font-family="Helvetica,sans-Serif" font-size="10.00">+ VertexSim3()</text>
<text text-anchor="start" x="464" y="-333.5" font-family="Helvetica,sans-Serif" font-size="10.00">+ read()</text>
<text text-anchor="start" x="464" y="-322.5" font-family="Helvetica,sans-Serif" font-size="10.00">+ write()</text>
<text text-anchor="start" x="464" y="-311.5" font-family="Helvetica,sans-Serif" font-size="10.00">+ setToOriginImpl()</text>
<text text-anchor="start" x="464" y="-300.5" font-family="Helvetica,sans-Serif" font-size="10.00">+ oplusImpl()</text>
</a>
</g>
</g>
<!-- Node10&#45;&gt;Node5 -->
<g id="edge11" class="edge"><title>Node10&#45;&gt;Node5</title>
<path fill="none" stroke="#404040" d="M492.199,-293.452C477.664,-268.804 459.915,-240.426 442,-216 428.491,-197.58 413.04,-178.637 397.845,-160.958"/>
<polygon fill="none" stroke="#404040" points="397.797,-160.903 390.844,-158.992 389.934,-151.838 396.887,-153.75 397.797,-160.903"/>
<text text-anchor="middle" x="459" y="-184.5" font-family="Helvetica,sans-Serif" font-size="10.00"> +graphVertex</text>
</g>
<!-- Node11 -->
<g id="node11" class="node"><title>Node11</title>
<polygon fill="white" stroke="#bfbfbf" points="472.5,-624 472.5,-692 579.5,-692 579.5,-624 472.5,-624"/>
<text text-anchor="start" x="480.5" y="-680" font-family="Helvetica,sans-Serif" font-size="10.00">g2o::BaseVertex&lt; 7,</text>
<text text-anchor="middle" x="526" y="-669" font-family="Helvetica,sans-Serif" font-size="10.00"> Sophus::Sim3d &gt;</text>
<polyline fill="none" stroke="#bfbfbf" points="472.5,-662 579.5,-662 "/>
<text text-anchor="middle" x="526" y="-650" font-family="Helvetica,sans-Serif" font-size="10.00"> </text>
<polyline fill="none" stroke="#bfbfbf" points="472.5,-643 579.5,-643 "/>
<text text-anchor="middle" x="526" y="-631" font-family="Helvetica,sans-Serif" font-size="10.00"> </text>
</g>
<!-- Node11&#45;&gt;Node10 -->
<g id="edge12" class="edge"><title>Node11&#45;&gt;Node10</title>
<path fill="none" stroke="midnightblue" d="M526,-613.757C526,-562.029 526,-475.108 526,-416.676"/>
<polygon fill="none" stroke="midnightblue" points="522.5,-613.927 526,-623.927 529.5,-613.927 522.5,-613.927"/>
</g>
</g>
</svg>
