<?xml version="1.0" encoding="UTF-8" standalone="no"?>
<!DOCTYPE svg PUBLIC "-//W3C//DTD SVG 1.1//EN"
 "http://www.w3.org/Graphics/SVG/1.1/DTD/svg11.dtd">
<!-- Generated by graphviz version 2.36.0 (20140111.2315)
 -->
<!-- Title: src/parameter_server.h Pages: 1 -->
<!--zoomable 264 -->
<svg id="main" version="1.1" xmlns="http://www.w3.org/2000/svg" xmlns:xlink="http://www.w3.org/1999/xlink" xml:space="preserve" onload="init(evt)">
<style type="text/css"><![CDATA[
.edge:hover path { stroke: red; }
.edge:hover polygon { stroke: red; fill: red; }
]]></style>
<script type="text/javascript"><![CDATA[
var edges = document.getElementsByTagName('g');
if (edges && edges.length) {
  for (var i=0;i<edges.length;i++) {
    if (edges[i].id.substr(0,4)=='edge') {
      edges[i].setAttribute('class','edge');
    }
  }
}
]]></script>
        <defs>
                <circle id="rim" cx="0" cy="0" r="7"/>
                <circle id="rim2" cx="0" cy="0" r="3.5"/>
                <g id="zoomPlus">
                        <use xlink:href="#rim" fill="#404040">
                                <set attributeName="fill" to="#808080" begin="zoomplus.mouseover" end="zoomplus.mouseout"/>
                        </use>
                        <path d="M-4,0h8M0,-4v8" fill="none" stroke="white" stroke-width="1.5" pointer-events="none"/>
                </g>
                <g id="zoomMin">
                        <use xlink:href="#rim" fill="#404040">
                                <set attributeName="fill" to="#808080" begin="zoomminus.mouseover" end="zoomminus.mouseout"/>
                        </use>
                        <path d="M-4,0h8" fill="none" stroke="white" stroke-width="1.5" pointer-events="none"/>
                </g>
                <g id="dirArrow">
                        <path fill="none" stroke="white" stroke-width="1.5" d="M0,-3.0v7 M-2.5,-0.5L0,-3.0L2.5,-0.5"/>
                </g>
               <g id="resetDef">
                       <use xlink:href="#rim2" fill="#404040">
                               <set attributeName="fill" to="#808080" begin="reset.mouseover" end="reset.mouseout"/>
                       </use>
               </g>
        </defs>

<script type="text/javascript">
var viewWidth = 1877;
var viewHeight = 264;
var sectionId = 'dynsection-1';
</script>
<script xlink:href="../../svgpan.js"/>
<svg id="graph" class="graph">
<g id="viewport">
<title>src/parameter_server.h</title>
<polygon fill="white" stroke="none" points="-4,4 -4,-260 1873.12,-260 1873.12,4 -4,4"/>
<!-- Node1 -->
<g id="node1" class="node"><title>Node1</title>
<polygon fill="#bfbfbf" stroke="black" points="1073.62,-236.5 1073.62,-255.5 1190.62,-255.5 1190.62,-236.5 1073.62,-236.5"/>
<text text-anchor="middle" x="1132.12" y="-243.5" font-family="Helvetica,sans-Serif" font-size="10.00">src/parameter_server.h</text>
</g>
<!-- Node2 -->
<g id="node2" class="node"><title>Node2</title>
<g id="a_node2"><a xlink:href="../../d4/dd4/bagloader_8cpp.html" target="_top" xlink:title="src/bagloader.cpp">
<polygon fill="white" stroke="black" points="15.1156,-118.5 15.1156,-137.5 109.116,-137.5 109.116,-118.5 15.1156,-118.5"/>
<text text-anchor="middle" x="62.1156" y="-125.5" font-family="Helvetica,sans-Serif" font-size="10.00">src/bagloader.cpp</text>
</a>
</g>
</g>
<!-- Node1&#45;&gt;Node2 -->
<g id="edge1" class="edge"><title>Node1&#45;&gt;Node2</title>
<path fill="none" stroke="midnightblue" d="M1063.6,-244.603C852.922,-243.008 223.789,-235.31 139.116,-200 106.892,-186.563 79.6915,-153.344 68.105,-137.574"/>
<polygon fill="midnightblue" stroke="midnightblue" points="1063.58,-248.103 1073.61,-244.677 1063.64,-241.103 1063.58,-248.103"/>
</g>
<!-- Node3 -->
<g id="node3" class="node"><title>Node3</title>
<g id="a_node3"><a xlink:href="../../da/d71/bagloader_8h.html" target="_top" xlink:title="src/bagloader.h">
<polygon fill="white" stroke="black" points="148.616,-180.5 148.616,-199.5 231.616,-199.5 231.616,-180.5 148.616,-180.5"/>
<text text-anchor="middle" x="190.116" y="-187.5" font-family="Helvetica,sans-Serif" font-size="10.00">src/bagloader.h</text>
</a>
</g>
</g>
<!-- Node1&#45;&gt;Node3 -->
<g id="edge2" class="edge"><title>Node1&#45;&gt;Node3</title>
<path fill="none" stroke="midnightblue" d="M1063.08,-243.377C915.098,-239.475 556.45,-227.754 257.116,-200 248.935,-199.242 240.219,-198.225 231.872,-197.148"/>
<polygon fill="midnightblue" stroke="midnightblue" points="1063.28,-246.884 1073.37,-243.645 1063.46,-239.886 1063.28,-246.884"/>
</g>
<!-- Node4 -->
<g id="node4" class="node"><title>Node4</title>
<g id="a_node4"><a xlink:href="../../dd/d45/result-bag-viewer_8cpp.html" target="_top" xlink:title="src/result&#45;bag&#45;viewer.cpp">
<polygon fill="white" stroke="black" points="127.116,-118.5 127.116,-137.5 253.116,-137.5 253.116,-118.5 127.116,-118.5"/>
<text text-anchor="middle" x="190.116" y="-125.5" font-family="Helvetica,sans-Serif" font-size="10.00">src/result&#45;bag&#45;viewer.cpp</text>
</a>
</g>
</g>
<!-- Node1&#45;&gt;Node4 -->
<g id="edge50" class="edge"><title>Node1&#45;&gt;Node4</title>
<path fill="none" stroke="midnightblue" d="M1063.26,-245.382C892.079,-245.667 451,-242.155 311.116,-200 266.34,-186.507 220.665,-153.316 200.626,-137.564"/>
<polygon fill="midnightblue" stroke="midnightblue" points="1063.42,-248.881 1073.41,-245.36 1063.4,-241.881 1063.42,-248.881"/>
</g>
<!-- Node5 -->
<g id="node5" class="node"><title>Node5</title>
<g id="a_node5"><a xlink:href="../../d5/d82/ColorOctomapServer_8h.html" target="_top" xlink:title="src/ColorOctomapServer.h">
<polygon fill="white" stroke="black" points="910.616,-180.5 910.616,-199.5 1043.62,-199.5 1043.62,-180.5 910.616,-180.5"/>
<text text-anchor="middle" x="977.116" y="-187.5" font-family="Helvetica,sans-Serif" font-size="10.00">src/ColorOctomapServer.h</text>
</a>
</g>
</g>
<!-- Node1&#45;&gt;Node5 -->
<g id="edge5" class="edge"><title>Node1&#45;&gt;Node5</title>
<path fill="none" stroke="midnightblue" d="M1097.78,-233.039C1068.62,-222.879 1027.48,-208.546 1001.56,-199.516"/>
<polygon fill="midnightblue" stroke="midnightblue" points="1096.96,-236.459 1107.56,-236.444 1099.26,-229.848 1096.96,-236.459"/>
</g>
<!-- Node7 -->
<g id="node7" class="node"><title>Node7</title>
<g id="a_node7"><a xlink:href="../../de/d83/graph__manager_8h.html" target="_top" xlink:title="src/graph_manager.h">
<polygon fill="white" stroke="black" points="923.116,-118.5 923.116,-137.5 1031.12,-137.5 1031.12,-118.5 923.116,-118.5"/>
<text text-anchor="middle" x="977.116" y="-125.5" font-family="Helvetica,sans-Serif" font-size="10.00">src/graph_manager.h</text>
</a>
</g>
</g>
<!-- Node1&#45;&gt;Node7 -->
<g id="edge36" class="edge"><title>Node1&#45;&gt;Node7</title>
<path fill="none" stroke="midnightblue" d="M1114,-229.54C1098.01,-216.076 1073.92,-196.225 1052.12,-180 1031.02,-164.302 1005.53,-147.381 990.358,-137.514"/>
<polygon fill="midnightblue" stroke="midnightblue" points="1112.09,-232.509 1121.98,-236.3 1116.61,-227.167 1112.09,-232.509"/>
</g>
<!-- Node14 -->
<g id="node14" class="node"><title>Node14</title>
<g id="a_node14"><a xlink:href="../../df/d0a/main_8cpp.html" target="_top" xlink:title="src/main.cpp">
<polygon fill="white" stroke="black" points="416.616,-0.5 416.616,-19.5 489.616,-19.5 489.616,-0.5 416.616,-0.5"/>
<text text-anchor="middle" x="453.116" y="-7.5" font-family="Helvetica,sans-Serif" font-size="10.00">src/main.cpp</text>
</a>
</g>
</g>
<!-- Node1&#45;&gt;Node14 -->
<g id="edge42" class="edge"><title>Node1&#45;&gt;Node14</title>
<path fill="none" stroke="midnightblue" d="M1063.37,-243.868C848.049,-240.061 195.611,-226.453 104.116,-200 55.9242,-186.067 31.2948,-187.388 6.11558,-144 -1.02294,-131.699 -2.76395,-123.11 6.11558,-112 57.6513,-47.5206 319.316,-21.2128 416.612,-13.5589"/>
<polygon fill="midnightblue" stroke="midnightblue" points="1063.53,-247.371 1073.59,-244.047 1063.65,-240.372 1063.53,-247.371"/>
</g>
<!-- Node15 -->
<g id="node15" class="node"><title>Node15</title>
<g id="a_node15"><a xlink:href="../../db/d34/openni__listener_8cpp.html" target="_top" xlink:title="src/openni_listener.cpp">
<polygon fill="white" stroke="black" points="1272.62,-0.5 1272.62,-19.5 1389.62,-19.5 1389.62,-0.5 1272.62,-0.5"/>
<text text-anchor="middle" x="1331.12" y="-7.5" font-family="Helvetica,sans-Serif" font-size="10.00">src/openni_listener.cpp</text>
</a>
</g>
</g>
<!-- Node1&#45;&gt;Node15 -->
<g id="edge48" class="edge"><title>Node1&#45;&gt;Node15</title>
<path fill="none" stroke="midnightblue" d="M1138.08,-227.011C1148.37,-198.635 1172.08,-143.479 1210.12,-112 1246.83,-81.6146 1278.17,-110.429 1311.12,-76 1326.14,-60.305 1329.9,-33.5924 1330.82,-19.8081"/>
<polygon fill="midnightblue" stroke="midnightblue" points="1134.77,-225.875 1134.79,-236.47 1141.38,-228.173 1134.77,-225.875"/>
</g>
<!-- Node16 -->
<g id="node16" class="node"><title>Node16</title>
<g id="a_node16"><a xlink:href="../../d9/dcb/features_8cpp.html" target="_top" xlink:title="src/features.cpp">
<polygon fill="white" stroke="black" points="1435.62,-180.5 1435.62,-199.5 1522.62,-199.5 1522.62,-180.5 1435.62,-180.5"/>
<text text-anchor="middle" x="1479.12" y="-187.5" font-family="Helvetica,sans-Serif" font-size="10.00">src/features.cpp</text>
</a>
</g>
</g>
<!-- Node1&#45;&gt;Node16 -->
<g id="edge16" class="edge"><title>Node1&#45;&gt;Node16</title>
<path fill="none" stroke="midnightblue" d="M1197.08,-234.891C1266.69,-224.057 1375.27,-207.16 1435.38,-197.807"/>
<polygon fill="midnightblue" stroke="midnightblue" points="1196.44,-231.447 1187.1,-236.444 1197.52,-238.364 1196.44,-231.447"/>
</g>
<!-- Node17 -->
<g id="node17" class="node"><title>Node17</title>
<g id="a_node17"><a xlink:href="../../d3/d9d/glviewer_8h.html" target="_top" xlink:title="src/glviewer.h">
<polygon fill="white" stroke="black" points="635.616,-180.5 635.616,-199.5 712.616,-199.5 712.616,-180.5 635.616,-180.5"/>
<text text-anchor="middle" x="674.116" y="-187.5" font-family="Helvetica,sans-Serif" font-size="10.00">src/glviewer.h</text>
</a>
</g>
</g>
<!-- Node1&#45;&gt;Node17 -->
<g id="edge17" class="edge"><title>Node1&#45;&gt;Node17</title>
<path fill="none" stroke="midnightblue" d="M1063.11,-236.864C965.464,-225.351 790.243,-204.692 712.767,-195.557"/>
<polygon fill="midnightblue" stroke="midnightblue" points="1062.84,-240.356 1073.18,-238.051 1063.66,-233.404 1062.84,-240.356"/>
</g>
<!-- Node21 -->
<g id="node21" class="node"><title>Node21</title>
<g id="a_node21"><a xlink:href="../../de/dd9/misc2_8h.html" target="_top" xlink:title="src/misc2.h">
<polygon fill="white" stroke="black" points="1273.12,-180.5 1273.12,-199.5 1341.12,-199.5 1341.12,-180.5 1273.12,-180.5"/>
<text text-anchor="middle" x="1307.12" y="-187.5" font-family="Helvetica,sans-Serif" font-size="10.00">src/misc2.h</text>
</a>
</g>
</g>
<!-- Node1&#45;&gt;Node21 -->
<g id="edge22" class="edge"><title>Node1&#45;&gt;Node21</title>
<path fill="none" stroke="midnightblue" d="M1169.59,-233.436C1202.59,-223.255 1249.87,-208.664 1279.52,-199.516"/>
<polygon fill="midnightblue" stroke="midnightblue" points="1168.37,-230.151 1159.84,-236.444 1170.43,-236.839 1168.37,-230.151"/>
</g>
<!-- Node23 -->
<g id="node23" class="node"><title>Node23</title>
<g id="a_node23"><a xlink:href="../../d7/d5f/misc_8cpp.html" target="_top" xlink:title="src/misc.cpp">
<polygon fill="white" stroke="black" points="1723.62,-118.5 1723.62,-137.5 1796.62,-137.5 1796.62,-118.5 1723.62,-118.5"/>
<text text-anchor="middle" x="1760.12" y="-125.5" font-family="Helvetica,sans-Serif" font-size="10.00">src/misc.cpp</text>
</a>
</g>
</g>
<!-- Node1&#45;&gt;Node23 -->
<g id="edge47" class="edge"><title>Node1&#45;&gt;Node23</title>
<path fill="none" stroke="midnightblue" d="M1200.75,-237.849C1252.34,-231.268 1324.28,-219.503 1385.12,-200 1404.8,-193.689 1407.27,-185.805 1427.12,-180 1550.5,-143.905 1588.66,-172.054 1714.12,-144 1721.66,-142.314 1729.72,-139.902 1736.95,-137.504"/>
<polygon fill="midnightblue" stroke="midnightblue" points="1200.21,-234.389 1190.71,-239.096 1201.07,-241.336 1200.21,-234.389"/>
</g>
<!-- Node26 -->
<g id="node26" class="node"><title>Node26</title>
<g id="a_node26"><a xlink:href="../../d1/d77/node_8h.html" target="_top" xlink:title="src/node.h">
<polygon fill="white" stroke="black" points="1193.12,-180.5 1193.12,-199.5 1255.12,-199.5 1255.12,-180.5 1193.12,-180.5"/>
<text text-anchor="middle" x="1224.12" y="-187.5" font-family="Helvetica,sans-Serif" font-size="10.00">src/node.h</text>
</a>
</g>
</g>
<!-- Node1&#45;&gt;Node26 -->
<g id="edge28" class="edge"><title>Node1&#45;&gt;Node26</title>
<path fill="none" stroke="midnightblue" d="M1155.67,-231.177C1172.59,-221.241 1194.9,-208.149 1209.37,-199.655"/>
<polygon fill="midnightblue" stroke="midnightblue" points="1153.75,-228.243 1146.9,-236.324 1157.29,-234.28 1153.75,-228.243"/>
</g>
<!-- Node28 -->
<g id="node28" class="node"><title>Node28</title>
<g id="a_node28"><a xlink:href="../../d7/de3/transformation__estimation__euclidean_8cpp.html" target="_top" xlink:title="src/transformation\l_estimation_euclidean.cpp">
<polygon fill="white" stroke="black" points="1573.12,-113 1573.12,-143 1705.12,-143 1705.12,-113 1573.12,-113"/>
<text text-anchor="start" x="1581.12" y="-131" font-family="Helvetica,sans-Serif" font-size="10.00">src/transformation</text>
<text text-anchor="middle" x="1639.12" y="-120" font-family="Helvetica,sans-Serif" font-size="10.00">_estimation_euclidean.cpp</text>
</a>
</g>
</g>
<!-- Node1&#45;&gt;Node28 -->
<g id="edge52" class="edge"><title>Node1&#45;&gt;Node28</title>
<path fill="none" stroke="midnightblue" d="M1200.81,-235.018C1244.27,-227.68 1301.27,-216.157 1350.12,-200 1370.13,-193.381 1373.11,-186.628 1393.12,-180 1425.82,-169.165 1511.86,-152.277 1572.95,-140.936"/>
<polygon fill="midnightblue" stroke="midnightblue" points="1200.2,-231.571 1190.91,-236.657 1201.35,-238.477 1200.2,-231.571"/>
</g>
<!-- Node29 -->
<g id="node29" class="node"><title>Node29</title>
<g id="a_node29"><a xlink:href="../../d7/d7a/icp_8h.html" target="_top" xlink:title="src/icp.h">
<polygon fill="white" stroke="black" points="1541.12,-180.5 1541.12,-199.5 1595.12,-199.5 1595.12,-180.5 1541.12,-180.5"/>
<text text-anchor="middle" x="1568.12" y="-187.5" font-family="Helvetica,sans-Serif" font-size="10.00">src/icp.h</text>
</a>
</g>
</g>
<!-- Node1&#45;&gt;Node29 -->
<g id="edge37" class="edge"><title>Node1&#45;&gt;Node29</title>
<path fill="none" stroke="midnightblue" d="M1201.35,-239.862C1281.23,-233.317 1416.32,-220.351 1531.12,-200 1534.24,-199.446 1537.49,-198.783 1540.72,-198.072"/>
<polygon fill="midnightblue" stroke="midnightblue" points="1200.62,-236.41 1190.93,-240.705 1201.18,-243.387 1200.62,-236.41"/>
</g>
<!-- Node30 -->
<g id="node30" class="node"><title>Node30</title>
<g id="a_node30"><a xlink:href="../../d9/da2/qt__gui_8h.html" target="_top" xlink:title="src/qt_gui.h">
<polygon fill="white" stroke="black" points="453.116,-180.5 453.116,-199.5 521.116,-199.5 521.116,-180.5 453.116,-180.5"/>
<text text-anchor="middle" x="487.116" y="-187.5" font-family="Helvetica,sans-Serif" font-size="10.00">src/qt_gui.h</text>
</a>
</g>
</g>
<!-- Node1&#45;&gt;Node30 -->
<g id="edge38" class="edge"><title>Node1&#45;&gt;Node30</title>
<path fill="none" stroke="midnightblue" d="M1063.49,-239.254C926.492,-227.785 623.531,-202.421 521.455,-193.875"/>
<polygon fill="midnightblue" stroke="midnightblue" points="1063.2,-242.742 1073.45,-240.089 1063.78,-235.767 1063.2,-242.742"/>
</g>
<!-- Node31 -->
<g id="node31" class="node"><title>Node31</title>
<g id="a_node31"><a xlink:href="../../de/d7a/ros__service__ui_8h.html" target="_top" xlink:title="src/ros_service_ui.h">
<polygon fill="white" stroke="black" points="320.116,-180.5 320.116,-199.5 424.116,-199.5 424.116,-180.5 320.116,-180.5"/>
<text text-anchor="middle" x="372.116" y="-187.5" font-family="Helvetica,sans-Serif" font-size="10.00">src/ros_service_ui.h</text>
</a>
</g>
</g>
<!-- Node1&#45;&gt;Node31 -->
<g id="edge43" class="edge"><title>Node1&#45;&gt;Node31</title>
<path fill="none" stroke="midnightblue" d="M1063.48,-241.855C939.584,-235.879 670.417,-221.526 444.116,-200 437.72,-199.392 431.015,-198.668 424.378,-197.9"/>
<polygon fill="midnightblue" stroke="midnightblue" points="1063.42,-245.356 1073.58,-242.339 1063.76,-238.364 1063.42,-245.356"/>
</g>
<!-- Node33 -->
<g id="node33" class="node"><title>Node33</title>
<g id="a_node33"><a xlink:href="../../d4/dcc/parameter__server_8cpp.html" target="_top" xlink:title="src/parameter_server.cpp">
<polygon fill="white" stroke="black" points="1613.12,-180.5 1613.12,-199.5 1741.12,-199.5 1741.12,-180.5 1613.12,-180.5"/>
<text text-anchor="middle" x="1677.12" y="-187.5" font-family="Helvetica,sans-Serif" font-size="10.00">src/parameter_server.cpp</text>
</a>
</g>
</g>
<!-- Node1&#45;&gt;Node33 -->
<g id="edge49" class="edge"><title>Node1&#45;&gt;Node33</title>
<path fill="none" stroke="midnightblue" d="M1200.68,-239.062C1292.58,-230.964 1460.77,-215.667 1604.12,-200 1607.04,-199.681 1610.02,-199.347 1613.03,-199.002"/>
<polygon fill="midnightblue" stroke="midnightblue" points="1200.32,-235.579 1190.67,-239.941 1200.94,-242.552 1200.32,-235.579"/>
</g>
<!-- Node34 -->
<g id="node34" class="node"><title>Node34</title>
<g id="a_node34"><a xlink:href="../../d8/d36/scoped__timer_8cpp.html" target="_top" xlink:title="src/scoped_timer.cpp">
<polygon fill="white" stroke="black" points="1759.12,-180.5 1759.12,-199.5 1869.12,-199.5 1869.12,-180.5 1759.12,-180.5"/>
<text text-anchor="middle" x="1814.12" y="-187.5" font-family="Helvetica,sans-Serif" font-size="10.00">src/scoped_timer.cpp</text>
</a>
</g>
</g>
<!-- Node1&#45;&gt;Node34 -->
<g id="edge51" class="edge"><title>Node1&#45;&gt;Node34</title>
<path fill="none" stroke="midnightblue" d="M1201.04,-241.493C1315.35,-235.337 1551.27,-221.197 1750.12,-200 1753.02,-199.691 1755.99,-199.352 1758.99,-198.992"/>
<polygon fill="midnightblue" stroke="midnightblue" points="1200.83,-237.999 1191.03,-242.028 1201.2,-244.989 1200.83,-237.999"/>
</g>
<!-- Node3&#45;&gt;Node2 -->
<g id="edge3" class="edge"><title>Node3&#45;&gt;Node2</title>
<path fill="none" stroke="midnightblue" d="M162.524,-176.066C137.687,-164.424 101.887,-147.643 80.4208,-137.581"/>
<polygon fill="midnightblue" stroke="midnightblue" points="161.236,-179.328 171.776,-180.403 164.207,-172.99 161.236,-179.328"/>
</g>
<!-- Node3&#45;&gt;Node4 -->
<g id="edge4" class="edge"><title>Node3&#45;&gt;Node4</title>
<path fill="none" stroke="midnightblue" d="M190.116,-170.16C190.116,-159.248 190.116,-146.04 190.116,-137.581"/>
<polygon fill="midnightblue" stroke="midnightblue" points="186.616,-170.403 190.116,-180.403 193.616,-170.403 186.616,-170.403"/>
</g>
<!-- Node6 -->
<g id="node6" class="node"><title>Node6</title>
<g id="a_node6"><a xlink:href="../../de/dab/ColorOctomapServer_8cpp.html" target="_top" xlink:title="src/ColorOctomapServer.cpp">
<polygon fill="white" stroke="black" points="761.616,-118.5 761.616,-137.5 904.616,-137.5 904.616,-118.5 761.616,-118.5"/>
<text text-anchor="middle" x="833.116" y="-125.5" font-family="Helvetica,sans-Serif" font-size="10.00">src/ColorOctomapServer.cpp</text>
</a>
</g>
</g>
<!-- Node5&#45;&gt;Node6 -->
<g id="edge6" class="edge"><title>Node5&#45;&gt;Node6</title>
<path fill="none" stroke="midnightblue" d="M947.181,-176.527C919.205,-164.871 878.179,-147.776 853.709,-137.581"/>
<polygon fill="midnightblue" stroke="midnightblue" points="945.907,-179.788 956.484,-180.403 948.599,-173.326 945.907,-179.788"/>
</g>
<!-- Node5&#45;&gt;Node7 -->
<g id="edge7" class="edge"><title>Node5&#45;&gt;Node7</title>
<path fill="none" stroke="midnightblue" d="M977.116,-170.16C977.116,-159.248 977.116,-146.04 977.116,-137.581"/>
<polygon fill="midnightblue" stroke="midnightblue" points="973.616,-170.403 977.116,-180.403 980.616,-170.403 973.616,-170.403"/>
</g>
<!-- Node8 -->
<g id="node8" class="node"><title>Node8</title>
<g id="a_node8"><a xlink:href="../../d4/d1a/graph__manager_8cpp.html" target="_top" xlink:title="src/graph_manager.cpp">
<polygon fill="white" stroke="black" points="1183.62,-56.5 1183.62,-75.5 1302.62,-75.5 1302.62,-56.5 1183.62,-56.5"/>
<text text-anchor="middle" x="1243.12" y="-63.5" font-family="Helvetica,sans-Serif" font-size="10.00">src/graph_manager.cpp</text>
</a>
</g>
</g>
<!-- Node7&#45;&gt;Node8 -->
<g id="edge8" class="edge"><title>Node7&#45;&gt;Node8</title>
<path fill="none" stroke="midnightblue" d="M1022.34,-116.143C1028.31,-114.735 1034.36,-113.323 1040.12,-112 1096.93,-98.9394 1162.85,-84.4483 1203.78,-75.5296"/>
<polygon fill="midnightblue" stroke="midnightblue" points="1021.34,-112.783 1012.41,-118.494 1022.95,-119.595 1021.34,-112.783"/>
</g>
<!-- Node9 -->
<g id="node9" class="node"><title>Node9</title>
<g id="a_node9"><a xlink:href="../../de/d74/graph__manager2_8cpp.html" target="_top" xlink:title="src/graph_manager2.cpp">
<polygon fill="white" stroke="black" points="519.116,-56.5 519.116,-75.5 643.116,-75.5 643.116,-56.5 519.116,-56.5"/>
<text text-anchor="middle" x="581.116" y="-63.5" font-family="Helvetica,sans-Serif" font-size="10.00">src/graph_manager2.cpp</text>
</a>
</g>
</g>
<!-- Node7&#45;&gt;Node9 -->
<g id="edge9" class="edge"><title>Node7&#45;&gt;Node9</title>
<path fill="none" stroke="midnightblue" d="M933.553,-116.203C926.735,-114.683 919.751,-113.224 913.116,-112 887.232,-107.224 731.985,-86.7064 643.241,-75.0942"/>
<polygon fill="midnightblue" stroke="midnightblue" points="932.834,-119.629 943.364,-118.453 934.399,-112.806 932.834,-119.629"/>
</g>
<!-- Node10 -->
<g id="node10" class="node"><title>Node10</title>
<g id="a_node10"><a xlink:href="../../de/da7/graph__mgr__io_8cpp.html" target="_top" xlink:title="src/graph_mgr_io.cpp">
<polygon fill="white" stroke="black" points="661.116,-56.5 661.116,-75.5 771.116,-75.5 771.116,-56.5 661.116,-56.5"/>
<text text-anchor="middle" x="716.116" y="-63.5" font-family="Helvetica,sans-Serif" font-size="10.00">src/graph_mgr_io.cpp</text>
</a>
</g>
</g>
<!-- Node7&#45;&gt;Node10 -->
<g id="edge10" class="edge"><title>Node7&#45;&gt;Node10</title>
<path fill="none" stroke="midnightblue" d="M930.941,-116.145C924.945,-114.745 918.885,-113.335 913.116,-112 857.745,-99.1874 793.564,-84.5704 753.896,-75.5636"/>
<polygon fill="midnightblue" stroke="midnightblue" points="930.374,-119.607 940.908,-118.476 931.968,-112.791 930.374,-119.607"/>
</g>
<!-- Node11 -->
<g id="node11" class="node"><title>Node11</title>
<g id="a_node11"><a xlink:href="../../db/d8d/graph__mgr__odom_8cpp.html" target="_top" xlink:title="src/graph_mgr_odom.cpp">
<polygon fill="white" stroke="black" points="789.616,-56.5 789.616,-75.5 916.616,-75.5 916.616,-56.5 789.616,-56.5"/>
<text text-anchor="middle" x="853.116" y="-63.5" font-family="Helvetica,sans-Serif" font-size="10.00">src/graph_mgr_odom.cpp</text>
</a>
</g>
</g>
<!-- Node7&#45;&gt;Node11 -->
<g id="edge11" class="edge"><title>Node7&#45;&gt;Node11</title>
<path fill="none" stroke="midnightblue" d="M950.066,-113.912C926.018,-102.276 891.552,-85.5983 870.849,-75.5806"/>
<polygon fill="midnightblue" stroke="midnightblue" points="948.823,-117.198 959.349,-118.403 951.872,-110.897 948.823,-117.198"/>
</g>
<!-- Node12 -->
<g id="node12" class="node"><title>Node12</title>
<g id="a_node12"><a xlink:href="../../dc/d7b/loop__closing_8cpp.html" target="_top" xlink:title="src/loop_closing.cpp">
<polygon fill="white" stroke="black" points="1059.12,-56.5 1059.12,-75.5 1165.12,-75.5 1165.12,-56.5 1059.12,-56.5"/>
<text text-anchor="middle" x="1112.12" y="-63.5" font-family="Helvetica,sans-Serif" font-size="10.00">src/loop_closing.cpp</text>
</a>
</g>
</g>
<!-- Node7&#45;&gt;Node12 -->
<g id="edge12" class="edge"><title>Node7&#45;&gt;Node12</title>
<path fill="none" stroke="midnightblue" d="M1005.87,-114.221C1032.08,-102.573 1070.07,-85.6874 1092.81,-75.5806"/>
<polygon fill="midnightblue" stroke="midnightblue" points="1004.17,-111.144 996.458,-118.403 1007.02,-117.54 1004.17,-111.144"/>
</g>
<!-- Node13 -->
<g id="node13" class="node"><title>Node13</title>
<g id="a_node13"><a xlink:href="../../dd/d53/openni__listener_8h.html" target="_top" xlink:title="src/openni_listener.h">
<polygon fill="white" stroke="black" points="934.616,-56.5 934.616,-75.5 1041.62,-75.5 1041.62,-56.5 934.616,-56.5"/>
<text text-anchor="middle" x="988.116" y="-63.5" font-family="Helvetica,sans-Serif" font-size="10.00">src/openni_listener.h</text>
</a>
</g>
</g>
<!-- Node7&#45;&gt;Node13 -->
<g id="edge13" class="edge"><title>Node7&#45;&gt;Node13</title>
<path fill="none" stroke="midnightblue" d="M980.507,-108.503C982.519,-97.5268 984.975,-84.1291 986.542,-75.5806"/>
<polygon fill="midnightblue" stroke="midnightblue" points="977.052,-107.936 978.692,-118.403 983.938,-109.199 977.052,-107.936"/>
</g>
<!-- Node13&#45;&gt;Node14 -->
<g id="edge14" class="edge"><title>Node13&#45;&gt;Node14</title>
<path fill="none" stroke="midnightblue" d="M924.463,-55.9769C755.744,-36.0993 567.874,-20.2258 489.899,-13.9164"/>
<polygon fill="midnightblue" stroke="midnightblue" points="924.179,-59.4678 934.522,-57.1696 925.003,-52.5164 924.179,-59.4678"/>
</g>
<!-- Node13&#45;&gt;Node15 -->
<g id="edge15" class="edge"><title>Node13&#45;&gt;Node15</title>
<path fill="none" stroke="midnightblue" d="M1051.8,-54.9736C1116.6,-44.7714 1215.95,-29.1303 1277.05,-19.5118"/>
<polygon fill="midnightblue" stroke="midnightblue" points="1051.04,-51.5498 1041.71,-56.5625 1052.13,-58.4646 1051.04,-51.5498"/>
</g>
<!-- Node17&#45;&gt;Node14 -->
<g id="edge20" class="edge"><title>Node17&#45;&gt;Node14</title>
<path fill="none" stroke="midnightblue" d="M654.736,-174.269C633.71,-158.441 599.003,-132.764 568.116,-112 542.937,-95.0732 533.258,-95.6192 510.116,-76 489.279,-58.3357 469.26,-32.9348 459.427,-19.7258"/>
<polygon fill="midnightblue" stroke="midnightblue" points="652.77,-177.17 662.858,-180.406 656.989,-171.585 652.77,-177.17"/>
</g>
<!-- Node18 -->
<g id="node18" class="node"><title>Node18</title>
<g id="a_node18"><a xlink:href="../../df/dbf/glviewer_8cpp.html" target="_top" xlink:title="src/glviewer.cpp">
<polygon fill="white" stroke="black" points="1049.12,-118.5 1049.12,-137.5 1137.12,-137.5 1137.12,-118.5 1049.12,-118.5"/>
<text text-anchor="middle" x="1093.12" y="-125.5" font-family="Helvetica,sans-Serif" font-size="10.00">src/glviewer.cpp</text>
</a>
</g>
</g>
<!-- Node17&#45;&gt;Node18 -->
<g id="edge18" class="edge"><title>Node17&#45;&gt;Node18</title>
<path fill="none" stroke="midnightblue" d="M722.975,-185.392C793.513,-179.642 927.746,-166.67 1040.12,-144 1048.65,-142.279 1057.81,-139.886 1066.08,-137.517"/>
<polygon fill="midnightblue" stroke="midnightblue" points="722.316,-181.934 712.627,-186.221 722.875,-188.911 722.316,-181.934"/>
</g>
<!-- Node19 -->
<g id="node19" class="node"><title>Node19</title>
<g id="a_node19"><a xlink:href="../../d1/d5d/glviewer2_8cpp.html" target="_top" xlink:title="src/glviewer2.cpp">
<polygon fill="white" stroke="black" points="627.616,-118.5 627.616,-137.5 720.616,-137.5 720.616,-118.5 627.616,-118.5"/>
<text text-anchor="middle" x="674.116" y="-125.5" font-family="Helvetica,sans-Serif" font-size="10.00">src/glviewer2.cpp</text>
</a>
</g>
</g>
<!-- Node17&#45;&gt;Node19 -->
<g id="edge19" class="edge"><title>Node17&#45;&gt;Node19</title>
<path fill="none" stroke="midnightblue" d="M674.116,-170.16C674.116,-159.248 674.116,-146.04 674.116,-137.581"/>
<polygon fill="midnightblue" stroke="midnightblue" points="670.616,-170.403 674.116,-180.403 677.616,-170.403 670.616,-170.403"/>
</g>
<!-- Node20 -->
<g id="node20" class="node"><title>Node20</title>
<g id="a_node20"><a xlink:href="../../d7/d3f/qt__gui_8cpp.html" target="_top" xlink:title="src/qt_gui.cpp">
<polygon fill="white" stroke="black" points="481.116,-118.5 481.116,-137.5 559.116,-137.5 559.116,-118.5 481.116,-118.5"/>
<text text-anchor="middle" x="520.116" y="-125.5" font-family="Helvetica,sans-Serif" font-size="10.00">src/qt_gui.cpp</text>
</a>
</g>
</g>
<!-- Node17&#45;&gt;Node20 -->
<g id="edge21" class="edge"><title>Node17&#45;&gt;Node20</title>
<path fill="none" stroke="midnightblue" d="M642.494,-176.68C612.567,-165.02 568.423,-147.821 542.139,-137.581"/>
<polygon fill="midnightblue" stroke="midnightblue" points="641.463,-180.034 652.051,-180.403 644.004,-173.512 641.463,-180.034"/>
</g>
<!-- Node21&#45;&gt;Node18 -->
<g id="edge23" class="edge"><title>Node21&#45;&gt;Node18</title>
<path fill="none" stroke="midnightblue" d="M1266.65,-177.655C1225.07,-165.998 1161.28,-148.11 1123.72,-137.581"/>
<polygon fill="midnightblue" stroke="midnightblue" points="1265.88,-181.074 1276.45,-180.403 1267.77,-174.334 1265.88,-181.074"/>
</g>
<!-- Node22 -->
<g id="node22" class="node"><title>Node22</title>
<g id="a_node22"><a xlink:href="../../d8/d76/landmark_8cpp.html" target="_top" xlink:title="src/landmark.cpp">
<polygon fill="white" stroke="black" points="1453.12,-56.5 1453.12,-75.5 1545.12,-75.5 1545.12,-56.5 1453.12,-56.5"/>
<text text-anchor="middle" x="1499.12" y="-63.5" font-family="Helvetica,sans-Serif" font-size="10.00">src/landmark.cpp</text>
</a>
</g>
</g>
<!-- Node21&#45;&gt;Node22 -->
<g id="edge24" class="edge"><title>Node21&#45;&gt;Node22</title>
<path fill="none" stroke="midnightblue" d="M1351.65,-180.534C1414.61,-168.464 1522.36,-147.388 1525.12,-144 1542.05,-123.216 1519.52,-90.8683 1506.79,-75.5706"/>
<polygon fill="midnightblue" stroke="midnightblue" points="1350.74,-177.144 1341.58,-182.462 1352.06,-184.02 1350.74,-177.144"/>
</g>
<!-- Node21&#45;&gt;Node23 -->
<g id="edge25" class="edge"><title>Node21&#45;&gt;Node23</title>
<path fill="none" stroke="midnightblue" d="M1351.37,-184.353C1453.16,-173.632 1696.56,-147.79 1714.12,-144 1721.67,-142.369 1729.73,-139.973 1736.97,-137.572"/>
<polygon fill="midnightblue" stroke="midnightblue" points="1350.98,-180.875 1341.4,-185.403 1351.71,-187.837 1350.98,-180.875"/>
</g>
<!-- Node24 -->
<g id="node24" class="node"><title>Node24</title>
<g id="a_node24"><a xlink:href="../../d7/d70/node_8cpp.html" target="_top" xlink:title="src/node.cpp">
<polygon fill="white" stroke="black" points="1443.62,-118.5 1443.62,-137.5 1516.62,-137.5 1516.62,-118.5 1443.62,-118.5"/>
<text text-anchor="middle" x="1480.12" y="-125.5" font-family="Helvetica,sans-Serif" font-size="10.00">src/node.cpp</text>
</a>
</g>
</g>
<!-- Node21&#45;&gt;Node24 -->
<g id="edge26" class="edge"><title>Node21&#45;&gt;Node24</title>
<path fill="none" stroke="midnightblue" d="M1341.77,-176.983C1375.39,-165.32 1425.59,-147.91 1455.37,-137.581"/>
<polygon fill="midnightblue" stroke="midnightblue" points="1340.2,-173.82 1331.9,-180.403 1342.5,-180.433 1340.2,-173.82"/>
</g>
<!-- Node25 -->
<g id="node25" class="node"><title>Node25</title>
<g id="a_node25"><a xlink:href="../../db/de8/transformation__estimation_8cpp.html" target="_top" xlink:title="src/transformation\l_estimation.cpp">
<polygon fill="white" stroke="black" points="1330.62,-113 1330.62,-143 1425.62,-143 1425.62,-113 1330.62,-113"/>
<text text-anchor="start" x="1338.62" y="-131" font-family="Helvetica,sans-Serif" font-size="10.00">src/transformation</text>
<text text-anchor="middle" x="1378.12" y="-120" font-family="Helvetica,sans-Serif" font-size="10.00">_estimation.cpp</text>
</a>
</g>
</g>
<!-- Node21&#45;&gt;Node25 -->
<g id="edge27" class="edge"><title>Node21&#45;&gt;Node25</title>
<path fill="none" stroke="midnightblue" d="M1325.11,-173.795C1336.26,-164.374 1350.48,-152.356 1361.38,-143.141"/>
<polygon fill="midnightblue" stroke="midnightblue" points="1322.67,-171.276 1317.29,-180.403 1327.19,-176.622 1322.67,-171.276"/>
</g>
<!-- Node26&#45;&gt;Node7 -->
<g id="edge29" class="edge"><title>Node26&#45;&gt;Node7</title>
<path fill="none" stroke="midnightblue" d="M1182.82,-178.969C1135.01,-167.354 1057.08,-148.425 1012.12,-137.503"/>
<polygon fill="midnightblue" stroke="midnightblue" points="1182.29,-182.441 1192.83,-181.401 1183.94,-175.639 1182.29,-182.441"/>
</g>
<!-- Node26&#45;&gt;Node15 -->
<g id="edge33" class="edge"><title>Node26&#45;&gt;Node15</title>
<path fill="none" stroke="midnightblue" d="M1218.05,-170.532C1213.73,-153.598 1210.64,-128.689 1223.12,-112 1256.96,-66.7198 1311.27,-121.28 1345.12,-76 1357.69,-59.1729 1345.31,-33.4187 1337.1,-19.9356"/>
<polygon fill="midnightblue" stroke="midnightblue" points="1214.75,-171.726 1220.92,-180.342 1221.47,-169.761 1214.75,-171.726"/>
</g>
<!-- Node26&#45;&gt;Node24 -->
<g id="edge32" class="edge"><title>Node26&#45;&gt;Node24</title>
<path fill="none" stroke="midnightblue" d="M1265.19,-179.806C1341.3,-163.528 1362.58,-163.18 1434.12,-144 1441.09,-142.129 1448.57,-139.823 1455.43,-137.584"/>
<polygon fill="midnightblue" stroke="midnightblue" points="1264.15,-176.45 1255.12,-181.984 1265.63,-183.291 1264.15,-176.45"/>
</g>
<!-- Node26&#45;&gt;Node25 -->
<g id="edge34" class="edge"><title>Node26&#45;&gt;Node25</title>
<path fill="none" stroke="midnightblue" d="M1255.6,-176.732C1280.71,-166.95 1315.89,-153.242 1342.12,-143.025"/>
<polygon fill="midnightblue" stroke="midnightblue" points="1254.23,-173.512 1246.18,-180.403 1256.77,-180.034 1254.23,-173.512"/>
</g>
<!-- Node27 -->
<g id="node27" class="node"><title>Node27</title>
<g id="a_node27"><a xlink:href="../../d9/db7/landmark_8h.html" target="_top" xlink:title="src/landmark.h">
<polygon fill="white" stroke="black" points="1231.62,-118.5 1231.62,-137.5 1312.62,-137.5 1312.62,-118.5 1231.62,-118.5"/>
<text text-anchor="middle" x="1272.12" y="-125.5" font-family="Helvetica,sans-Serif" font-size="10.00">src/landmark.h</text>
</a>
</g>
</g>
<!-- Node26&#45;&gt;Node27 -->
<g id="edge30" class="edge"><title>Node26&#45;&gt;Node27</title>
<path fill="none" stroke="midnightblue" d="M1237.29,-172.531C1246.34,-161.22 1257.98,-146.663 1265.25,-137.581"/>
<polygon fill="midnightblue" stroke="midnightblue" points="1234.51,-170.408 1230.99,-180.403 1239.97,-174.781 1234.51,-170.408"/>
</g>
<!-- Node26&#45;&gt;Node28 -->
<g id="edge35" class="edge"><title>Node26&#45;&gt;Node28</title>
<path fill="none" stroke="midnightblue" d="M1265.6,-179.949C1318.67,-171.35 1480.59,-149.848 1573.06,-137.669"/>
<polygon fill="midnightblue" stroke="midnightblue" points="1264.78,-176.539 1255.51,-181.669 1265.95,-183.439 1264.78,-176.539"/>
</g>
<!-- Node27&#45;&gt;Node22 -->
<g id="edge31" class="edge"><title>Node27&#45;&gt;Node22</title>
<path fill="none" stroke="midnightblue" d="M1309.56,-115.58C1313.78,-114.346 1318.04,-113.129 1322.12,-112 1371.01,-98.4583 1427.92,-84.2656 1463.74,-75.5254"/>
<polygon fill="midnightblue" stroke="midnightblue" points="1308.42,-112.266 1299.82,-118.459 1310.41,-118.978 1308.42,-112.266"/>
</g>
<!-- Node30&#45;&gt;Node4 -->
<g id="edge41" class="edge"><title>Node30&#45;&gt;Node4</title>
<path fill="none" stroke="midnightblue" d="M442.98,-180.281C397.599,-171.291 324.891,-156.817 262.116,-144 251.982,-141.931 241.053,-139.67 230.847,-137.545"/>
<polygon fill="midnightblue" stroke="midnightblue" points="442.302,-183.715 452.791,-182.224 443.662,-176.848 442.302,-183.715"/>
</g>
<!-- Node30&#45;&gt;Node14 -->
<g id="edge39" class="edge"><title>Node30&#45;&gt;Node14</title>
<path fill="none" stroke="midnightblue" d="M480.171,-170.661C477.329,-162.582 474.22,-152.916 472.116,-144 461.183,-97.6905 455.609,-40.7305 453.796,-19.5012"/>
<polygon fill="midnightblue" stroke="midnightblue" points="476.927,-171.981 483.647,-180.172 483.501,-169.578 476.927,-171.981"/>
</g>
<!-- Node30&#45;&gt;Node20 -->
<g id="edge40" class="edge"><title>Node30&#45;&gt;Node20</title>
<path fill="none" stroke="midnightblue" d="M496.727,-171.525C502.863,-160.369 510.548,-146.396 515.396,-137.581"/>
<polygon fill="midnightblue" stroke="midnightblue" points="493.596,-169.955 491.844,-180.403 499.73,-173.328 493.596,-169.955"/>
</g>
<!-- Node31&#45;&gt;Node4 -->
<g id="edge45" class="edge"><title>Node31&#45;&gt;Node4</title>
<path fill="none" stroke="midnightblue" d="M336.119,-177.133C300.741,-165.47 247.611,-147.955 216.143,-137.581"/>
<polygon fill="midnightblue" stroke="midnightblue" points="335.446,-180.596 346.039,-180.403 337.638,-173.948 335.446,-180.596"/>
</g>
<!-- Node31&#45;&gt;Node14 -->
<g id="edge44" class="edge"><title>Node31&#45;&gt;Node14</title>
<path fill="none" stroke="midnightblue" d="M381.416,-171.422C385.706,-163.158 390.794,-153.134 395.116,-144 416.983,-97.7748 440.64,-41.2296 449.499,-19.7976"/>
<polygon fill="midnightblue" stroke="midnightblue" points="378.225,-169.969 376.683,-180.451 384.425,-173.219 378.225,-169.969"/>
</g>
<!-- Node32 -->
<g id="node32" class="node"><title>Node32</title>
<g id="a_node32"><a xlink:href="../../d1/d43/ros__service__ui_8cpp.html" target="_top" xlink:title="src/ros_service_ui.cpp">
<polygon fill="white" stroke="black" points="271.616,-118.5 271.616,-137.5 386.616,-137.5 386.616,-118.5 271.616,-118.5"/>
<text text-anchor="middle" x="329.116" y="-125.5" font-family="Helvetica,sans-Serif" font-size="10.00">src/ros_service_ui.cpp</text>
</a>
</g>
</g>
<!-- Node31&#45;&gt;Node32 -->
<g id="edge46" class="edge"><title>Node31&#45;&gt;Node32</title>
<path fill="none" stroke="midnightblue" d="M360.074,-172.198C352.003,-160.936 341.71,-146.574 335.265,-137.581"/>
<polygon fill="midnightblue" stroke="midnightblue" points="357.285,-174.314 365.955,-180.403 362.974,-170.236 357.285,-174.314"/>
</g>
</g>
</svg>
        <g id="navigator" transform="translate(0 0)" fill="#404254">
                <rect fill="#f2f5e9" fill-opacity="0.5" stroke="#606060" stroke-width=".5" x="0" y="0" width="60" height="60"/>
                <use id="zoomplus" xlink:href="#zoomPlus" x="17" y="9" onmousedown="handleZoom(evt,'in')"/>
                <use id="zoomminus" xlink:href="#zoomMin" x="42" y="9" onmousedown="handleZoom(evt,'out')"/>
                <use id="reset" xlink:href="#resetDef" x="30" y="36" onmousedown="handleReset()"/>
                <g id="arrowUp" xlink:href="#dirArrow" transform="translate(30 24)" onmousedown="handlePan(0,-1)">
                  <use xlink:href="#rim" fill="#404040">
                        <set attributeName="fill" to="#808080" begin="arrowUp.mouseover" end="arrowUp.mouseout"/>
                  </use>
                  <path fill="none" stroke="white" stroke-width="1.5" d="M0,-3.0v7 M-2.5,-0.5L0,-3.0L2.5,-0.5"/>
                </g>
                <g id="arrowRight" xlink:href="#dirArrow" transform="rotate(90) translate(36 -43)" onmousedown="handlePan(1,0)">
                  <use xlink:href="#rim" fill="#404040">
                        <set attributeName="fill" to="#808080" begin="arrowRight.mouseover" end="arrowRight.mouseout"/>
                  </use>
                  <path fill="none" stroke="white" stroke-width="1.5" d="M0,-3.0v7 M-2.5,-0.5L0,-3.0L2.5,-0.5"/>
                </g>
                <g id="arrowDown" xlink:href="#dirArrow" transform="rotate(180) translate(-30 -48)" onmousedown="handlePan(0,1)">
                  <use xlink:href="#rim" fill="#404040">
                        <set attributeName="fill" to="#808080" begin="arrowDown.mouseover" end="arrowDown.mouseout"/>
                  </use>
                  <path fill="none" stroke="white" stroke-width="1.5" d="M0,-3.0v7 M-2.5,-0.5L0,-3.0L2.5,-0.5"/>
                </g>
                <g id="arrowLeft" xlink:href="#dirArrow" transform="rotate(270) translate(-36 17)" onmousedown="handlePan(-1,0)">
                  <use xlink:href="#rim" fill="#404040">
                        <set attributeName="fill" to="#808080" begin="arrowLeft.mouseover" end="arrowLeft.mouseout"/>
                  </use>
                  <path fill="none" stroke="white" stroke-width="1.5" d="M0,-3.0v7 M-2.5,-0.5L0,-3.0L2.5,-0.5"/>
                </g>
        </g>
        <svg viewBox="0 0 15 15" width="100%" height="30px" preserveAspectRatio="xMaxYMin meet">
         <g id="arrow_out" transform="scale(0.3 0.3)">
          <a xlink:href="parameter__server_8h__dep__incl_org.svg" target="_base">
           <rect id="button" ry="5" rx="5" y="6" x="6" height="38" width="38"
                fill="#f2f5e9" fill-opacity="0.5" stroke="#606060" stroke-width="1.0"/>
           <path id="arrow"
             d="M 11.500037,31.436501 C 11.940474,20.09759 22.043105,11.32322 32.158766,21.979434 L 37.068811,17.246167 C 37.068811,17.246167 37.088388,32 37.088388,32 L 22.160133,31.978069 C 22.160133,31.978069 26.997745,27.140456 26.997745,27.140456 C 18.528582,18.264221 13.291696,25.230495 11.500037,31.436501 z"
             style="fill:#404040;"/>
          </a>
         </g>
        </svg>
</svg>
