<?xml version="1.0" encoding="UTF-8" standalone="no"?>
<!DOCTYPE svg PUBLIC "-//W3C//DTD SVG 1.1//EN"
 "http://www.w3.org/Graphics/SVG/1.1/DTD/svg11.dtd">
<!-- Generated by graphviz version 2.36.0 (20140111.2315)
 -->
<!-- Title: BasicTestWin::FitWindow Pages: 1 -->
<svg width="452pt" height="161pt"
 viewBox="0.00 0.00 452.00 161.00" xmlns="http://www.w3.org/2000/svg" xmlns:xlink="http://www.w3.org/1999/xlink">
<g id="graph0" class="graph" transform="scale(1 1) rotate(0) translate(4 157)">
<title>BasicTestWin::FitWindow</title>
<polygon fill="white" stroke="none" points="-4,4 -4,-157 448,-157 448,4 -4,4"/>
<!-- Node1 -->
<g id="node1" class="node"><title>Node1</title>
<polygon fill="#bfbfbf" stroke="black" points="0.5,-57.5 0.5,-76.5 131.5,-76.5 131.5,-57.5 0.5,-57.5"/>
<text text-anchor="middle" x="66" y="-64.5" font-family="Helvetica,sans-Serif" font-size="10.00">BasicTestWin::FitWindow</text>
</g>
<!-- Node2 -->
<g id="node2" class="node"><title>Node2</title>
<g id="a_node2"><a xlink:href="../../d9/d69/classSiftGPUEX.html#a5c48d2651d3281ac15eda13ecc01dca1" target="_top" xlink:title="SiftGPUEX::GetImageDimension">
<polygon fill="white" stroke="black" points="168,-114.5 168,-133.5 330,-133.5 330,-114.5 168,-114.5"/>
<text text-anchor="middle" x="249" y="-121.5" font-family="Helvetica,sans-Serif" font-size="10.00">SiftGPUEX::GetImageDimension</text>
</a>
</g>
</g>
<!-- Node1&#45;&gt;Node2 -->
<g id="edge1" class="edge"><title>Node1&#45;&gt;Node2</title>
<path fill="none" stroke="midnightblue" d="M89.9793,-76.5992C110.266,-84.843 140.766,-96.6793 168,-105 176.144,-107.488 184.837,-109.849 193.381,-112.006"/>
<polygon fill="midnightblue" stroke="midnightblue" points="192.754,-115.456 203.3,-114.44 194.422,-108.657 192.754,-115.456"/>
</g>
<!-- Node3 -->
<g id="node3" class="node"><title>Node3</title>
<g id="a_node3"><a xlink:href="../../d4/da2/classBasicTestWin.html#a36612db2570958711599a96e823e9c1a" target="_top" xlink:title="BasicTestWin::ReShape">
<polygon fill="white" stroke="black" points="186.5,-76.5 186.5,-95.5 311.5,-95.5 311.5,-76.5 186.5,-76.5"/>
<text text-anchor="middle" x="249" y="-83.5" font-family="Helvetica,sans-Serif" font-size="10.00">BasicTestWin::ReShape</text>
</a>
</g>
</g>
<!-- Node1&#45;&gt;Node3 -->
<g id="edge2" class="edge"><title>Node1&#45;&gt;Node3</title>
<path fill="none" stroke="midnightblue" d="M131.579,-73.779C146.097,-75.303 161.587,-76.929 176.373,-78.4812"/>
<polygon fill="midnightblue" stroke="midnightblue" points="176.166,-81.9786 186.477,-79.5418 176.897,-75.0168 176.166,-81.9786"/>
</g>
<!-- Node8 -->
<g id="node8" class="node"><title>Node8</title>
<g id="a_node8"><a xlink:href="../../d5/d6b/classGlTransform.html#ad24fb5f6bbaad96442bc528e6b62a641" target="_top" xlink:title="GlTransform::setcenter">
<polygon fill="white" stroke="black" points="190.5,-38.5 190.5,-57.5 307.5,-57.5 307.5,-38.5 190.5,-38.5"/>
<text text-anchor="middle" x="249" y="-45.5" font-family="Helvetica,sans-Serif" font-size="10.00">GlTransform::setcenter</text>
</a>
</g>
</g>
<!-- Node1&#45;&gt;Node8 -->
<g id="edge7" class="edge"><title>Node1&#45;&gt;Node8</title>
<path fill="none" stroke="midnightblue" d="M131.579,-60.221C147.319,-58.5687 164.202,-56.7965 180.092,-55.1285"/>
<polygon fill="midnightblue" stroke="midnightblue" points="180.789,-58.5747 190.369,-54.0497 180.058,-51.6129 180.789,-58.5747"/>
</g>
<!-- Node9 -->
<g id="node9" class="node"><title>Node9</title>
<g id="a_node9"><a xlink:href="../../d4/da2/classBasicTestWin.html#a0747929e4e7c4e91b3fafa6a271eaccd" target="_top" xlink:title="BasicTestWin::SetDisplaySize">
<polygon fill="white" stroke="black" points="173,-0.5 173,-19.5 325,-19.5 325,-0.5 173,-0.5"/>
<text text-anchor="middle" x="249" y="-7.5" font-family="Helvetica,sans-Serif" font-size="10.00">BasicTestWin::SetDisplaySize</text>
</a>
</g>
</g>
<!-- Node1&#45;&gt;Node9 -->
<g id="edge8" class="edge"><title>Node1&#45;&gt;Node9</title>
<path fill="none" stroke="midnightblue" d="M89.9793,-57.4008C110.266,-49.157 140.766,-37.3207 168,-29 176.144,-26.5117 184.837,-24.1513 193.381,-21.9944"/>
<polygon fill="midnightblue" stroke="midnightblue" points="194.422,-25.3428 203.3,-19.5603 192.754,-18.5445 194.422,-25.3428"/>
</g>
<!-- Node4 -->
<g id="node4" class="node"><title>Node4</title>
<g id="a_node4"><a xlink:href="../../da/d33/glew_8h.html#a8e93835e91933b7078c88f905dd8599c" target="_top" xlink:title="glViewport">
<polygon fill="white" stroke="black" points="374,-133.5 374,-152.5 436,-152.5 436,-133.5 374,-133.5"/>
<text text-anchor="middle" x="405" y="-140.5" font-family="Helvetica,sans-Serif" font-size="10.00">glViewport</text>
</a>
</g>
</g>
<!-- Node3&#45;&gt;Node4 -->
<g id="edge3" class="edge"><title>Node3&#45;&gt;Node4</title>
<path fill="none" stroke="midnightblue" d="M298.817,-95.5214C309.255,-98.1296 320.111,-101.285 330,-105 346.936,-111.363 349.908,-115.732 366,-124 369.112,-125.599 372.376,-127.258 375.628,-128.899"/>
<polygon fill="midnightblue" stroke="midnightblue" points="374.119,-132.058 384.627,-133.416 377.259,-125.802 374.119,-132.058"/>
</g>
<!-- Node5 -->
<g id="node5" class="node"><title>Node5</title>
<g id="a_node5"><a xlink:href="../../da/d33/glew_8h.html#af14e38e22806d0220680b52edbc3bcef" target="_top" xlink:title="glMatrixMode">
<polygon fill="white" stroke="black" points="367.5,-95.5 367.5,-114.5 442.5,-114.5 442.5,-95.5 367.5,-95.5"/>
<text text-anchor="middle" x="405" y="-102.5" font-family="Helvetica,sans-Serif" font-size="10.00">glMatrixMode</text>
</a>
</g>
</g>
<!-- Node3&#45;&gt;Node5 -->
<g id="edge4" class="edge"><title>Node3&#45;&gt;Node5</title>
<path fill="none" stroke="midnightblue" d="M311.75,-93.6185C326.834,-95.4795 342.73,-97.4407 356.998,-99.201"/>
<polygon fill="midnightblue" stroke="midnightblue" points="356.711,-102.692 367.064,-100.443 357.568,-95.7448 356.711,-102.692"/>
</g>
<!-- Node6 -->
<g id="node6" class="node"><title>Node6</title>
<g id="a_node6"><a xlink:href="../../da/d33/glew_8h.html#a6577472f85b23086331edadaf0311a49" target="_top" xlink:title="glLoadIdentity">
<polygon fill="white" stroke="black" points="366.5,-57.5 366.5,-76.5 443.5,-76.5 443.5,-57.5 366.5,-57.5"/>
<text text-anchor="middle" x="405" y="-64.5" font-family="Helvetica,sans-Serif" font-size="10.00">glLoadIdentity</text>
</a>
</g>
</g>
<!-- Node3&#45;&gt;Node6 -->
<g id="edge5" class="edge"><title>Node3&#45;&gt;Node6</title>
<path fill="none" stroke="midnightblue" d="M311.75,-78.3815C326.564,-76.5538 342.163,-74.6293 356.232,-72.8935"/>
<polygon fill="midnightblue" stroke="midnightblue" points="356.677,-76.3652 366.173,-71.6669 355.82,-69.4178 356.677,-76.3652"/>
</g>
<!-- Node7 -->
<g id="node7" class="node"><title>Node7</title>
<g id="a_node7"><a xlink:href="../../da/d33/glew_8h.html#a2d92120b1fad876057dfd00e2d942525" target="_top" xlink:title="glOrtho">
<polygon fill="white" stroke="black" points="381,-19.5 381,-38.5 429,-38.5 429,-19.5 381,-19.5"/>
<text text-anchor="middle" x="405" y="-26.5" font-family="Helvetica,sans-Serif" font-size="10.00">glOrtho</text>
</a>
</g>
</g>
<!-- Node3&#45;&gt;Node7 -->
<g id="edge6" class="edge"><title>Node3&#45;&gt;Node7</title>
<path fill="none" stroke="midnightblue" d="M298.817,-76.4786C309.255,-73.8704 320.111,-70.7154 330,-67 346.936,-60.6369 349.908,-56.2681 366,-48 369.112,-46.4009 372.376,-44.7421 375.628,-43.1005"/>
<polygon fill="midnightblue" stroke="midnightblue" points="377.259,-46.1978 384.627,-38.5839 374.119,-39.9415 377.259,-46.1978"/>
</g>
</g>
</svg>
