<?xml version="1.0" encoding="UTF-8" standalone="no"?>
<!DOCTYPE svg PUBLIC "-//W3C//DTD SVG 1.1//EN"
 "http://www.w3.org/Graphics/SVG/1.1/DTD/svg11.dtd">
<!-- Generated by graphviz version 2.36.0 (20140111.2315)
 -->
<!-- Title: BasicTestWin::OnIdle Pages: 1 -->
<svg width="802pt" height="420pt"
 viewBox="0.00 0.00 802.00 420.00" xmlns="http://www.w3.org/2000/svg" xmlns:xlink="http://www.w3.org/1999/xlink">
<g id="graph0" class="graph" transform="scale(1 1) rotate(0) translate(4 416)">
<title>BasicTestWin::OnIdle</title>
<polygon fill="white" stroke="none" points="-4,4 -4,-416 798,-416 798,4 -4,4"/>
<!-- Node1 -->
<g id="node1" class="node"><title>Node1</title>
<polygon fill="#bfbfbf" stroke="black" points="0.5,-171.5 0.5,-190.5 113.5,-190.5 113.5,-171.5 0.5,-171.5"/>
<text text-anchor="middle" x="57" y="-178.5" font-family="Helvetica,sans-Serif" font-size="10.00">BasicTestWin::OnIdle</text>
</g>
<!-- Node2 -->
<g id="node2" class="node"><title>Node2</title>
<g id="a_node2"><a xlink:href="../../d4/da2/classBasicTestWin.html#af460a2eb877b226a28f5e83b5f347533" target="_top" xlink:title="BasicTestWin::KeyInput">
<polygon fill="white" stroke="black" points="163.5,-190.5 163.5,-209.5 286.5,-209.5 286.5,-190.5 163.5,-190.5"/>
<text text-anchor="middle" x="225" y="-197.5" font-family="Helvetica,sans-Serif" font-size="10.00">BasicTestWin::KeyInput</text>
</a>
</g>
</g>
<!-- Node1&#45;&gt;Node2 -->
<g id="edge1" class="edge"><title>Node1&#45;&gt;Node2</title>
<path fill="none" stroke="midnightblue" d="M113.737,-187.38C126.422,-188.831 140.062,-190.393 153.278,-191.905"/>
<polygon fill="midnightblue" stroke="midnightblue" points="152.945,-195.39 163.278,-193.05 153.741,-188.435 152.945,-195.39"/>
</g>
<!-- Node25 -->
<g id="node25" class="node"><title>Node25</title>
<g id="a_node25"><a xlink:href="../../d4/da2/classBasicTestWin.html#a1c62f973b10f7c25992f9d14fca40458" target="_top" xlink:title="BasicTestWin::UpdateDisplay">
<polygon fill="white" stroke="black" points="150.5,-152.5 150.5,-171.5 299.5,-171.5 299.5,-152.5 150.5,-152.5"/>
<text text-anchor="middle" x="225" y="-159.5" font-family="Helvetica,sans-Serif" font-size="10.00">BasicTestWin::UpdateDisplay</text>
</a>
</g>
</g>
<!-- Node1&#45;&gt;Node25 -->
<g id="edge25" class="edge"><title>Node1&#45;&gt;Node25</title>
<path fill="none" stroke="midnightblue" d="M113.737,-174.62C122.292,-173.641 131.281,-172.612 140.281,-171.582"/>
<polygon fill="midnightblue" stroke="midnightblue" points="140.887,-175.036 150.424,-170.421 140.091,-168.081 140.887,-175.036"/>
</g>
<!-- Node3 -->
<g id="node3" class="node"><title>Node3</title>
<g id="a_node3"><a xlink:href="../../d5/d6b/classGlTransform.html#a1821ecad5323719150543f24a575bb51" target="_top" xlink:title="GlTransform::scaleup">
<polygon fill="white" stroke="black" points="354,-392.5 354,-411.5 464,-411.5 464,-392.5 354,-392.5"/>
<text text-anchor="middle" x="409" y="-399.5" font-family="Helvetica,sans-Serif" font-size="10.00">GlTransform::scaleup</text>
</a>
</g>
</g>
<!-- Node2&#45;&gt;Node3 -->
<g id="edge2" class="edge"><title>Node2&#45;&gt;Node3</title>
<path fill="none" stroke="midnightblue" d="M228.923,-209.743C238.635,-240.393 272.849,-335.608 336,-383 338.688,-385.018 341.573,-386.821 344.587,-388.434"/>
<polygon fill="midnightblue" stroke="midnightblue" points="343.399,-391.739 353.948,-392.72 346.313,-385.375 343.399,-391.739"/>
</g>
<!-- Node5 -->
<g id="node5" class="node"><title>Node5</title>
<g id="a_node5"><a xlink:href="../../d5/d6b/classGlTransform.html#acd0df49748f0420ca7443bfcfdc78ac5" target="_top" xlink:title="GlTransform::scaledown">
<polygon fill="white" stroke="black" points="347.5,-354.5 347.5,-373.5 470.5,-373.5 470.5,-354.5 347.5,-354.5"/>
<text text-anchor="middle" x="409" y="-361.5" font-family="Helvetica,sans-Serif" font-size="10.00">GlTransform::scaledown</text>
</a>
</g>
</g>
<!-- Node2&#45;&gt;Node5 -->
<g id="edge4" class="edge"><title>Node2&#45;&gt;Node5</title>
<path fill="none" stroke="midnightblue" d="M230.391,-209.525C242.902,-235.567 281.384,-308.439 336,-345 339.082,-347.063 342.377,-348.902 345.799,-350.542"/>
<polygon fill="midnightblue" stroke="midnightblue" points="344.519,-353.8 355.095,-354.433 347.222,-347.343 344.519,-353.8"/>
</g>
<!-- Node6 -->
<g id="node6" class="node"><title>Node6</title>
<g id="a_node6"><a xlink:href="../../d4/da2/classBasicTestWin.html#aeb27927a4bf63b9960c14a0d558ff50a" target="_top" xlink:title="BasicTestWin::SetView">
<polygon fill="white" stroke="black" points="348.5,-316.5 348.5,-335.5 469.5,-335.5 469.5,-316.5 348.5,-316.5"/>
<text text-anchor="middle" x="409" y="-323.5" font-family="Helvetica,sans-Serif" font-size="10.00">BasicTestWin::SetView</text>
</a>
</g>
</g>
<!-- Node2&#45;&gt;Node6 -->
<g id="edge6" class="edge"><title>Node2&#45;&gt;Node6</title>
<path fill="none" stroke="midnightblue" d="M233.068,-209.669C248.982,-230.72 289.854,-280.897 336,-307 339.968,-309.245 344.209,-311.231 348.573,-312.989"/>
<polygon fill="midnightblue" stroke="midnightblue" points="347.669,-316.383 358.264,-316.481 350.042,-309.798 347.669,-316.383"/>
</g>
<!-- Node9 -->
<g id="node9" class="node"><title>Node9</title>
<g id="a_node9"><a xlink:href="../../d5/d6b/classGlTransform.html#a1e723aeff75df63b14dd554d8c3329e7" target="_top" xlink:title="GlTransform::reset">
<polygon fill="white" stroke="black" points="360,-278.5 360,-297.5 458,-297.5 458,-278.5 360,-278.5"/>
<text text-anchor="middle" x="409" y="-285.5" font-family="Helvetica,sans-Serif" font-size="10.00">GlTransform::reset</text>
</a>
</g>
</g>
<!-- Node2&#45;&gt;Node9 -->
<g id="edge9" class="edge"><title>Node2&#45;&gt;Node9</title>
<path fill="none" stroke="midnightblue" d="M238.876,-209.656C258.759,-224.164 298.562,-251.625 336,-268 342.309,-270.759 349.097,-273.234 355.894,-275.424"/>
<polygon fill="midnightblue" stroke="midnightblue" points="355.219,-278.877 365.804,-278.428 357.25,-272.178 355.219,-278.877"/>
</g>
<!-- Node10 -->
<g id="node10" class="node"><title>Node10</title>
<g id="a_node10"><a xlink:href="../../d9/d69/classSiftGPUEX.html#a4be7f08b6ebb6bb77a830d8ee929fe94" target="_top" xlink:title="SiftGPUEX::ToggleDisplay\lDebug">
<polygon fill="white" stroke="black" points="341.5,-229 341.5,-259 476.5,-259 476.5,-229 341.5,-229"/>
<text text-anchor="start" x="349.5" y="-247" font-family="Helvetica,sans-Serif" font-size="10.00">SiftGPUEX::ToggleDisplay</text>
<text text-anchor="middle" x="409" y="-236" font-family="Helvetica,sans-Serif" font-size="10.00">Debug</text>
</a>
</g>
</g>
<!-- Node2&#45;&gt;Node10 -->
<g id="edge10" class="edge"><title>Node2&#45;&gt;Node10</title>
<path fill="none" stroke="midnightblue" d="M265.491,-209.547C286.074,-214.523 311.898,-220.767 335.89,-226.567"/>
<polygon fill="midnightblue" stroke="midnightblue" points="335.142,-229.987 345.684,-228.935 336.787,-223.183 335.142,-229.987"/>
</g>
<!-- Node11 -->
<g id="node11" class="node"><title>Node11</title>
<g id="a_node11"><a xlink:href="../../d4/dee/classSiftGPU.html#a7ecfea9c8fe68cbe0667a5754322222a" target="_top" xlink:title="SiftGPU::RunSIFT">
<polygon fill="white" stroke="black" points="359.5,-190.5 359.5,-209.5 458.5,-209.5 458.5,-190.5 359.5,-190.5"/>
<text text-anchor="middle" x="409" y="-197.5" font-family="Helvetica,sans-Serif" font-size="10.00">SiftGPU::RunSIFT</text>
</a>
</g>
</g>
<!-- Node2&#45;&gt;Node11 -->
<g id="edge11" class="edge"><title>Node2&#45;&gt;Node11</title>
<path fill="none" stroke="midnightblue" d="M286.603,-200C306.768,-200 329.183,-200 349.209,-200"/>
<polygon fill="midnightblue" stroke="midnightblue" points="349.438,-203.5 359.438,-200 349.438,-196.5 349.438,-203.5"/>
</g>
<!-- Node12 -->
<g id="node12" class="node"><title>Node12</title>
<g id="a_node12"><a xlink:href="../../d4/da2/classBasicTestWin.html#a30f22c3da432412539e40e7fa102ea6c" target="_top" xlink:title="BasicTestWin::FitWindow">
<polygon fill="white" stroke="black" points="343.5,-152.5 343.5,-171.5 474.5,-171.5 474.5,-152.5 343.5,-152.5"/>
<text text-anchor="middle" x="409" y="-159.5" font-family="Helvetica,sans-Serif" font-size="10.00">BasicTestWin::FitWindow</text>
</a>
</g>
</g>
<!-- Node2&#45;&gt;Node12 -->
<g id="edge12" class="edge"><title>Node2&#45;&gt;Node12</title>
<path fill="none" stroke="midnightblue" d="M271.926,-190.411C296.376,-185.306 326.633,-178.989 352.403,-173.608"/>
<polygon fill="midnightblue" stroke="midnightblue" points="353.33,-176.99 362.404,-171.52 351.9,-170.138 353.33,-176.99"/>
</g>
<!-- Node21 -->
<g id="node21" class="node"><title>Node21</title>
<g id="a_node21"><a xlink:href="../../d9/d69/classSiftGPUEX.html#a0af681709c2876158a93c62b37f94b4b" target="_top" xlink:title="SiftGPUEX::RandomizeColor">
<polygon fill="white" stroke="black" points="336,-114.5 336,-133.5 482,-133.5 482,-114.5 336,-114.5"/>
<text text-anchor="middle" x="409" y="-121.5" font-family="Helvetica,sans-Serif" font-size="10.00">SiftGPUEX::RandomizeColor</text>
</a>
</g>
</g>
<!-- Node2&#45;&gt;Node21 -->
<g id="edge21" class="edge"><title>Node2&#45;&gt;Node21</title>
<path fill="none" stroke="midnightblue" d="M278.427,-190.486C285.945,-188.01 293.37,-184.902 300,-181 320.051,-169.201 315.989,-154.865 336,-143 339.69,-140.812 343.634,-138.872 347.703,-137.152"/>
<polygon fill="midnightblue" stroke="midnightblue" points="349.233,-140.316 357.366,-133.527 346.774,-133.763 349.233,-140.316"/>
</g>
<!-- Node22 -->
<g id="node22" class="node"><title>Node22</title>
<g id="a_node22"><a xlink:href="../../d4/dee/classSiftGPU.html#a633d50e0393037aa8e9ba6af1d2f2431" target="_top" xlink:title="SiftGPU::SetVerbose">
<polygon fill="white" stroke="black" points="354,-76.5 354,-95.5 464,-95.5 464,-76.5 354,-76.5"/>
<text text-anchor="middle" x="409" y="-83.5" font-family="Helvetica,sans-Serif" font-size="10.00">SiftGPU::SetVerbose</text>
</a>
</g>
</g>
<!-- Node2&#45;&gt;Node22 -->
<g id="edge22" class="edge"><title>Node2&#45;&gt;Node22</title>
<path fill="none" stroke="midnightblue" d="M284.19,-190.459C289.89,-187.984 295.294,-184.883 300,-181 328.829,-157.213 307.251,-128.884 336,-105 338.718,-102.742 341.675,-100.75 344.791,-98.9927"/>
<polygon fill="midnightblue" stroke="midnightblue" points="346.405,-102.101 353.922,-94.6347 343.39,-95.7833 346.405,-102.101"/>
</g>
<!-- Node23 -->
<g id="node23" class="node"><title>Node23</title>
<g id="a_node23"><a xlink:href="../../d9/db8/glut_8h.html#a6f255d924f7a6bb2c4be0c8c2f2d9ce3" target="_top" xlink:title="exit">
<polygon fill="white" stroke="black" points="393,-38.5 393,-57.5 425,-57.5 425,-38.5 393,-38.5"/>
<text text-anchor="middle" x="409" y="-45.5" font-family="Helvetica,sans-Serif" font-size="10.00">exit</text>
</a>
</g>
</g>
<!-- Node2&#45;&gt;Node23 -->
<g id="edge23" class="edge"><title>Node2&#45;&gt;Node23</title>
<path fill="none" stroke="midnightblue" d="M286.198,-190.396C291.245,-187.915 295.955,-184.83 300,-181 338.581,-144.468 297.541,-103.661 336,-67 348.349,-55.2284 367.1,-50.5442 382.37,-48.7686"/>
<polygon fill="midnightblue" stroke="midnightblue" points="383.048,-52.2253 392.733,-47.9299 382.483,-45.2481 383.048,-52.2253"/>
</g>
<!-- Node24 -->
<g id="node24" class="node"><title>Node24</title>
<g id="a_node24"><a xlink:href="../../d4/da2/classBasicTestWin.html#ac6331db2bb925946fb49d4430ef551a3" target="_top" xlink:title="BasicTestWin::myclock">
<polygon fill="white" stroke="black" points="348.5,-0.5 348.5,-19.5 469.5,-19.5 469.5,-0.5 348.5,-0.5"/>
<text text-anchor="middle" x="409" y="-7.5" font-family="Helvetica,sans-Serif" font-size="10.00">BasicTestWin::myclock</text>
</a>
</g>
</g>
<!-- Node2&#45;&gt;Node24 -->
<g id="edge24" class="edge"><title>Node2&#45;&gt;Node24</title>
<path fill="none" stroke="midnightblue" d="M286.853,-190.519C291.704,-188.007 296.191,-184.881 300,-181 348.628,-131.451 287.538,-78.7112 336,-29 337.272,-27.6953 338.622,-26.4767 340.038,-25.3387"/>
<polygon fill="midnightblue" stroke="midnightblue" points="342.297,-28.0446 348.778,-19.663 338.485,-22.1738 342.297,-28.0446"/>
</g>
<!-- Node4 -->
<g id="node4" class="node"><title>Node4</title>
<g id="a_node4"><a xlink:href="../../d5/d6b/classGlTransform.html#a67f7f9688f879bbdc1efd6ef31534a4e" target="_top" xlink:title="GlTransform::scaleset">
<polygon fill="white" stroke="black" points="542.5,-382.5 542.5,-401.5 655.5,-401.5 655.5,-382.5 542.5,-382.5"/>
<text text-anchor="middle" x="599" y="-389.5" font-family="Helvetica,sans-Serif" font-size="10.00">GlTransform::scaleset</text>
</a>
</g>
</g>
<!-- Node3&#45;&gt;Node4 -->
<g id="edge3" class="edge"><title>Node3&#45;&gt;Node4</title>
<path fill="none" stroke="midnightblue" d="M464.125,-399.121C485.384,-397.99 509.984,-396.682 532.252,-395.497"/>
<polygon fill="midnightblue" stroke="midnightblue" points="532.498,-398.989 542.298,-394.963 532.127,-391.999 532.498,-398.989"/>
</g>
<!-- Node5&#45;&gt;Node4 -->
<g id="edge5" class="edge"><title>Node5&#45;&gt;Node4</title>
<path fill="none" stroke="midnightblue" d="M470.519,-373.014C490.262,-375.954 512.271,-379.232 532.371,-382.225"/>
<polygon fill="midnightblue" stroke="midnightblue" points="531.968,-385.704 542.375,-383.715 532.999,-378.78 531.968,-385.704"/>
</g>
<!-- Node7 -->
<g id="node7" class="node"><title>Node7</title>
<g id="a_node7"><a xlink:href="../../d9/d69/classSiftGPUEX.html#a205e940675cde16d4d9cfa54e27edc89" target="_top" xlink:title="SiftGPUEX::SetView">
<polygon fill="white" stroke="black" points="544,-325.5 544,-344.5 654,-344.5 654,-325.5 544,-325.5"/>
<text text-anchor="middle" x="599" y="-332.5" font-family="Helvetica,sans-Serif" font-size="10.00">SiftGPUEX::SetView</text>
</a>
</g>
</g>
<!-- Node6&#45;&gt;Node7 -->
<g id="edge7" class="edge"><title>Node6&#45;&gt;Node7</title>
<path fill="none" stroke="midnightblue" d="M469.743,-328.86C490.163,-329.838 513.081,-330.935 533.835,-331.928"/>
<polygon fill="midnightblue" stroke="midnightblue" points="533.673,-335.424 543.829,-332.407 534.008,-328.432 533.673,-335.424"/>
</g>
<!-- Node8 -->
<g id="node8" class="node"><title>Node8</title>
<g id="a_node8"><a xlink:href="../../d4/da2/classBasicTestWin.html#aa6c347d5e2c0745c4ded6936f4097c72" target="_top" xlink:title="BasicTestWin::SetWindowTitle">
<polygon fill="white" stroke="black" points="522.5,-287.5 522.5,-306.5 675.5,-306.5 675.5,-287.5 522.5,-287.5"/>
<text text-anchor="middle" x="599" y="-294.5" font-family="Helvetica,sans-Serif" font-size="10.00">BasicTestWin::SetWindowTitle</text>
</a>
</g>
</g>
<!-- Node6&#45;&gt;Node8 -->
<g id="edge8" class="edge"><title>Node6&#45;&gt;Node8</title>
<path fill="none" stroke="midnightblue" d="M469.743,-316.784C487.697,-314.015 507.583,-310.947 526.23,-308.071"/>
<polygon fill="midnightblue" stroke="midnightblue" points="526.797,-311.525 536.146,-306.541 525.73,-304.607 526.797,-311.525"/>
</g>
<!-- Node13 -->
<g id="node13" class="node"><title>Node13</title>
<g id="a_node13"><a xlink:href="../../d9/d69/classSiftGPUEX.html#a5c48d2651d3281ac15eda13ecc01dca1" target="_top" xlink:title="SiftGPUEX::GetImageDimension">
<polygon fill="white" stroke="black" points="518,-209.5 518,-228.5 680,-228.5 680,-209.5 518,-209.5"/>
<text text-anchor="middle" x="599" y="-216.5" font-family="Helvetica,sans-Serif" font-size="10.00">SiftGPUEX::GetImageDimension</text>
</a>
</g>
</g>
<!-- Node12&#45;&gt;Node13 -->
<g id="edge13" class="edge"><title>Node12&#45;&gt;Node13</title>
<path fill="none" stroke="midnightblue" d="M452.774,-171.573C462.517,-174.224 472.726,-177.383 482,-181 498.855,-187.573 501.064,-193.637 518,-200 524.799,-202.554 532.054,-204.844 539.317,-206.873"/>
<polygon fill="midnightblue" stroke="midnightblue" points="538.621,-210.309 549.183,-209.479 540.409,-203.541 538.621,-210.309"/>
</g>
<!-- Node14 -->
<g id="node14" class="node"><title>Node14</title>
<g id="a_node14"><a xlink:href="../../d4/da2/classBasicTestWin.html#a36612db2570958711599a96e823e9c1a" target="_top" xlink:title="BasicTestWin::ReShape">
<polygon fill="white" stroke="black" points="536.5,-171.5 536.5,-190.5 661.5,-190.5 661.5,-171.5 536.5,-171.5"/>
<text text-anchor="middle" x="599" y="-178.5" font-family="Helvetica,sans-Serif" font-size="10.00">BasicTestWin::ReShape</text>
</a>
</g>
</g>
<!-- Node12&#45;&gt;Node14 -->
<g id="edge14" class="edge"><title>Node12&#45;&gt;Node14</title>
<path fill="none" stroke="midnightblue" d="M474.699,-168.539C491.235,-170.21 509.116,-172.017 525.994,-173.723"/>
<polygon fill="midnightblue" stroke="midnightblue" points="526.051,-177.246 536.352,-174.77 526.755,-170.282 526.051,-177.246"/>
</g>
<!-- Node19 -->
<g id="node19" class="node"><title>Node19</title>
<g id="a_node19"><a xlink:href="../../d5/d6b/classGlTransform.html#ad24fb5f6bbaad96442bc528e6b62a641" target="_top" xlink:title="GlTransform::setcenter">
<polygon fill="white" stroke="black" points="540.5,-133.5 540.5,-152.5 657.5,-152.5 657.5,-133.5 540.5,-133.5"/>
<text text-anchor="middle" x="599" y="-140.5" font-family="Helvetica,sans-Serif" font-size="10.00">GlTransform::setcenter</text>
</a>
</g>
</g>
<!-- Node12&#45;&gt;Node19 -->
<g id="edge19" class="edge"><title>Node12&#45;&gt;Node19</title>
<path fill="none" stroke="midnightblue" d="M474.699,-155.461C492.629,-153.649 512.139,-151.677 530.238,-149.848"/>
<polygon fill="midnightblue" stroke="midnightblue" points="530.821,-153.307 540.418,-148.819 530.117,-146.343 530.821,-153.307"/>
</g>
<!-- Node20 -->
<g id="node20" class="node"><title>Node20</title>
<g id="a_node20"><a xlink:href="../../d4/da2/classBasicTestWin.html#a0747929e4e7c4e91b3fafa6a271eaccd" target="_top" xlink:title="BasicTestWin::SetDisplaySize">
<polygon fill="white" stroke="black" points="523,-95.5 523,-114.5 675,-114.5 675,-95.5 523,-95.5"/>
<text text-anchor="middle" x="599" y="-102.5" font-family="Helvetica,sans-Serif" font-size="10.00">BasicTestWin::SetDisplaySize</text>
</a>
</g>
</g>
<!-- Node12&#45;&gt;Node20 -->
<g id="edge20" class="edge"><title>Node12&#45;&gt;Node20</title>
<path fill="none" stroke="midnightblue" d="M452.774,-152.427C462.517,-149.776 472.726,-146.617 482,-143 498.855,-136.427 501.064,-130.363 518,-124 524.799,-121.446 532.054,-119.156 539.317,-117.127"/>
<polygon fill="midnightblue" stroke="midnightblue" points="540.409,-120.459 549.183,-114.521 538.621,-113.691 540.409,-120.459"/>
</g>
<!-- Node15 -->
<g id="node15" class="node"><title>Node15</title>
<g id="a_node15"><a xlink:href="../../da/d33/glew_8h.html#a8e93835e91933b7078c88f905dd8599c" target="_top" xlink:title="glViewport">
<polygon fill="white" stroke="black" points="724,-228.5 724,-247.5 786,-247.5 786,-228.5 724,-228.5"/>
<text text-anchor="middle" x="755" y="-235.5" font-family="Helvetica,sans-Serif" font-size="10.00">glViewport</text>
</a>
</g>
</g>
<!-- Node14&#45;&gt;Node15 -->
<g id="edge15" class="edge"><title>Node14&#45;&gt;Node15</title>
<path fill="none" stroke="midnightblue" d="M648.817,-190.521C659.255,-193.13 670.111,-196.285 680,-200 696.936,-206.363 699.908,-210.732 716,-219 719.112,-220.599 722.376,-222.258 725.628,-223.899"/>
<polygon fill="midnightblue" stroke="midnightblue" points="724.119,-227.058 734.627,-228.416 727.259,-220.802 724.119,-227.058"/>
</g>
<!-- Node16 -->
<g id="node16" class="node"><title>Node16</title>
<g id="a_node16"><a xlink:href="../../da/d33/glew_8h.html#af14e38e22806d0220680b52edbc3bcef" target="_top" xlink:title="glMatrixMode">
<polygon fill="white" stroke="black" points="717.5,-190.5 717.5,-209.5 792.5,-209.5 792.5,-190.5 717.5,-190.5"/>
<text text-anchor="middle" x="755" y="-197.5" font-family="Helvetica,sans-Serif" font-size="10.00">glMatrixMode</text>
</a>
</g>
</g>
<!-- Node14&#45;&gt;Node16 -->
<g id="edge16" class="edge"><title>Node14&#45;&gt;Node16</title>
<path fill="none" stroke="midnightblue" d="M661.75,-188.619C676.834,-190.479 692.73,-192.441 706.998,-194.201"/>
<polygon fill="midnightblue" stroke="midnightblue" points="706.711,-197.692 717.064,-195.443 707.568,-190.745 706.711,-197.692"/>
</g>
<!-- Node17 -->
<g id="node17" class="node"><title>Node17</title>
<g id="a_node17"><a xlink:href="../../da/d33/glew_8h.html#a6577472f85b23086331edadaf0311a49" target="_top" xlink:title="glLoadIdentity">
<polygon fill="white" stroke="black" points="716.5,-152.5 716.5,-171.5 793.5,-171.5 793.5,-152.5 716.5,-152.5"/>
<text text-anchor="middle" x="755" y="-159.5" font-family="Helvetica,sans-Serif" font-size="10.00">glLoadIdentity</text>
</a>
</g>
</g>
<!-- Node14&#45;&gt;Node17 -->
<g id="edge17" class="edge"><title>Node14&#45;&gt;Node17</title>
<path fill="none" stroke="midnightblue" d="M661.75,-173.381C676.564,-171.554 692.163,-169.629 706.232,-167.893"/>
<polygon fill="midnightblue" stroke="midnightblue" points="706.677,-171.365 716.173,-166.667 705.82,-164.418 706.677,-171.365"/>
</g>
<!-- Node18 -->
<g id="node18" class="node"><title>Node18</title>
<g id="a_node18"><a xlink:href="../../da/d33/glew_8h.html#a2d92120b1fad876057dfd00e2d942525" target="_top" xlink:title="glOrtho">
<polygon fill="white" stroke="black" points="731,-114.5 731,-133.5 779,-133.5 779,-114.5 731,-114.5"/>
<text text-anchor="middle" x="755" y="-121.5" font-family="Helvetica,sans-Serif" font-size="10.00">glOrtho</text>
</a>
</g>
</g>
<!-- Node14&#45;&gt;Node18 -->
<g id="edge18" class="edge"><title>Node14&#45;&gt;Node18</title>
<path fill="none" stroke="midnightblue" d="M648.817,-171.479C659.255,-168.87 670.111,-165.715 680,-162 696.936,-155.637 699.908,-151.268 716,-143 719.112,-141.401 722.376,-139.742 725.628,-138.101"/>
<polygon fill="midnightblue" stroke="midnightblue" points="727.259,-141.198 734.627,-133.584 724.119,-134.942 727.259,-141.198"/>
</g>
</g>
</svg>
