<?xml version="1.0" encoding="UTF-8" standalone="no"?>
<!DOCTYPE svg PUBLIC "-//W3C//DTD SVG 1.1//EN"
 "http://www.w3.org/Graphics/SVG/1.1/DTD/svg11.dtd">
<!-- Generated by graphviz version 2.36.0 (20140111.2315)
 -->
<!-- Title: external/SiftGPU/src/SiftGPU/ProgramGLSL.h Pages: 1 -->
<svg width="881pt" height="176pt"
 viewBox="0.00 0.00 881.00 176.00" xmlns="http://www.w3.org/2000/svg" xmlns:xlink="http://www.w3.org/1999/xlink">
<g id="graph0" class="graph" transform="scale(1 1) rotate(0) translate(4 172)">
<title>external/SiftGPU/src/SiftGPU/ProgramGLSL.h</title>
<polygon fill="white" stroke="none" points="-4,4 -4,-172 877,-172 877,4 -4,4"/>
<!-- Node1 -->
<g id="node1" class="node"><title>Node1</title>
<polygon fill="#bfbfbf" stroke="black" points="430.5,-137 430.5,-167 559.5,-167 559.5,-137 430.5,-137"/>
<text text-anchor="start" x="438.5" y="-155" font-family="Helvetica,sans-Serif" font-size="10.00">external/SiftGPU/src</text>
<text text-anchor="middle" x="495" y="-144" font-family="Helvetica,sans-Serif" font-size="10.00">/SiftGPU/ProgramGLSL.h</text>
</g>
<!-- Node2 -->
<g id="node2" class="node"><title>Node2</title>
<g id="a_node2"><a xlink:href="../../da/d8e/ShaderMan_8h.html" target="_top" xlink:title="external/SiftGPU/src\l/SiftGPU/ShaderMan.h">
<polygon fill="white" stroke="black" points="393.5,-69 393.5,-99 510.5,-99 510.5,-69 393.5,-69"/>
<text text-anchor="start" x="401.5" y="-87" font-family="Helvetica,sans-Serif" font-size="10.00">external/SiftGPU/src</text>
<text text-anchor="middle" x="452" y="-76" font-family="Helvetica,sans-Serif" font-size="10.00">/SiftGPU/ShaderMan.h</text>
</a>
</g>
</g>
<!-- Node1&#45;&gt;Node2 -->
<g id="edge1" class="edge"><title>Node1&#45;&gt;Node2</title>
<path fill="none" stroke="midnightblue" d="M480.027,-128.019C473.804,-118.467 466.774,-107.677 461.312,-99.2931"/>
<polygon fill="midnightblue" stroke="midnightblue" points="477.278,-130.211 485.67,-136.679 483.143,-126.39 477.278,-130.211"/>
</g>
<!-- Node4 -->
<g id="node4" class="node"><title>Node4</title>
<g id="a_node4"><a xlink:href="../../d4/d97/ProgramGLSL_8cpp.html" target="_top" xlink:title="external/SiftGPU/src\l/SiftGPU/ProgramGLSL.cpp">
<polygon fill="white" stroke="black" points="0,-1 0,-31 140,-31 140,-1 0,-1"/>
<text text-anchor="start" x="8" y="-19" font-family="Helvetica,sans-Serif" font-size="10.00">external/SiftGPU/src</text>
<text text-anchor="middle" x="70" y="-8" font-family="Helvetica,sans-Serif" font-size="10.00">/SiftGPU/ProgramGLSL.cpp</text>
</a>
</g>
</g>
<!-- Node1&#45;&gt;Node4 -->
<g id="edge8" class="edge"><title>Node1&#45;&gt;Node4</title>
<path fill="none" stroke="midnightblue" d="M435.312,-134.197C401.406,-124.504 358.223,-111.91 320,-100 245.993,-76.9397 160.39,-48.03 110.991,-31.1262"/>
<polygon fill="midnightblue" stroke="midnightblue" points="434.491,-137.602 445.068,-136.979 436.411,-130.871 434.491,-137.602"/>
</g>
<!-- Node5 -->
<g id="node5" class="node"><title>Node5</title>
<g id="a_node5"><a xlink:href="../../d7/d8c/ProgramGPU_8cpp.html" target="_top" xlink:title="external/SiftGPU/src\l/SiftGPU/ProgramGPU.cpp">
<polygon fill="white" stroke="black" points="158.5,-1 158.5,-31 295.5,-31 295.5,-1 158.5,-1"/>
<text text-anchor="start" x="166.5" y="-19" font-family="Helvetica,sans-Serif" font-size="10.00">external/SiftGPU/src</text>
<text text-anchor="middle" x="227" y="-8" font-family="Helvetica,sans-Serif" font-size="10.00">/SiftGPU/ProgramGPU.cpp</text>
</a>
</g>
</g>
<!-- Node1&#45;&gt;Node5 -->
<g id="edge9" class="edge"><title>Node1&#45;&gt;Node5</title>
<path fill="none" stroke="midnightblue" d="M453.908,-132.777C432.869,-123.281 406.923,-111.315 384,-100 337.138,-76.8697 283.505,-47.9827 252.61,-31.1022"/>
<polygon fill="midnightblue" stroke="midnightblue" points="452.645,-136.047 463.201,-136.955 455.516,-129.662 452.645,-136.047"/>
</g>
<!-- Node6 -->
<g id="node6" class="node"><title>Node6</title>
<g id="a_node6"><a xlink:href="../../d5/d65/PyramidGL_8cpp.html" target="_top" xlink:title="external/SiftGPU/src\l/SiftGPU/PyramidGL.cpp">
<polygon fill="white" stroke="black" points="599.5,-1 599.5,-31 726.5,-31 726.5,-1 599.5,-1"/>
<text text-anchor="start" x="607.5" y="-19" font-family="Helvetica,sans-Serif" font-size="10.00">external/SiftGPU/src</text>
<text text-anchor="middle" x="663" y="-8" font-family="Helvetica,sans-Serif" font-size="10.00">/SiftGPU/PyramidGL.cpp</text>
</a>
</g>
</g>
<!-- Node1&#45;&gt;Node6 -->
<g id="edge10" class="edge"><title>Node1&#45;&gt;Node6</title>
<path fill="none" stroke="midnightblue" d="M509.804,-128.132C522.334,-110.102 541.627,-85.2137 563,-68 582.124,-52.5976 606.648,-40.0022 626.623,-31.182"/>
<polygon fill="midnightblue" stroke="midnightblue" points="506.604,-126.615 503.894,-136.858 512.4,-130.541 506.604,-126.615"/>
</g>
<!-- Node7 -->
<g id="node7" class="node"><title>Node7</title>
<g id="a_node7"><a xlink:href="../../d7/d1f/ShaderMan_8cpp.html" target="_top" xlink:title="external/SiftGPU/src\l/SiftGPU/ShaderMan.cpp">
<polygon fill="white" stroke="black" points="745,-1 745,-31 873,-31 873,-1 745,-1"/>
<text text-anchor="start" x="753" y="-19" font-family="Helvetica,sans-Serif" font-size="10.00">external/SiftGPU/src</text>
<text text-anchor="middle" x="809" y="-8" font-family="Helvetica,sans-Serif" font-size="10.00">/SiftGPU/ShaderMan.cpp</text>
</a>
</g>
</g>
<!-- Node1&#45;&gt;Node7 -->
<g id="edge11" class="edge"><title>Node1&#45;&gt;Node7</title>
<path fill="none" stroke="midnightblue" d="M522.85,-130.82C535.09,-121.693 549.494,-110.595 562,-100 577.833,-86.5862 577.74,-77.8586 596,-68 609.195,-60.8757 687.008,-43.166 744.792,-30.6219"/>
<polygon fill="midnightblue" stroke="midnightblue" points="520.731,-128.034 514.771,-136.794 524.893,-133.662 520.731,-128.034"/>
</g>
<!-- Node9 -->
<g id="node9" class="node"><title>Node9</title>
<g id="a_node9"><a xlink:href="../../dd/d0c/SiftMatch_8cpp.html" target="_top" xlink:title="external/SiftGPU/src\l/SiftGPU/SiftMatch.cpp">
<polygon fill="white" stroke="black" points="605,-69 605,-99 725,-99 725,-69 605,-69"/>
<text text-anchor="start" x="613" y="-87" font-family="Helvetica,sans-Serif" font-size="10.00">external/SiftGPU/src</text>
<text text-anchor="middle" x="665" y="-76" font-family="Helvetica,sans-Serif" font-size="10.00">/SiftGPU/SiftMatch.cpp</text>
</a>
</g>
</g>
<!-- Node1&#45;&gt;Node9 -->
<g id="edge12" class="edge"><title>Node1&#45;&gt;Node9</title>
<path fill="none" stroke="midnightblue" d="M540.922,-133.171C568.55,-122.445 603.22,-108.985 628.883,-99.0218"/>
<polygon fill="midnightblue" stroke="midnightblue" points="539.525,-129.959 531.469,-136.841 542.058,-136.485 539.525,-129.959"/>
</g>
<!-- Node3 -->
<g id="node3" class="node"><title>Node3</title>
<g id="a_node3"><a xlink:href="../../db/dda/GLTexImage_8cpp.html" target="_top" xlink:title="external/SiftGPU/src\l/SiftGPU/GLTexImage.cpp">
<polygon fill="white" stroke="black" points="314,-1 314,-31 448,-31 448,-1 314,-1"/>
<text text-anchor="start" x="322" y="-19" font-family="Helvetica,sans-Serif" font-size="10.00">external/SiftGPU/src</text>
<text text-anchor="middle" x="381" y="-8" font-family="Helvetica,sans-Serif" font-size="10.00">/SiftGPU/GLTexImage.cpp</text>
</a>
</g>
</g>
<!-- Node2&#45;&gt;Node3 -->
<g id="edge2" class="edge"><title>Node2&#45;&gt;Node3</title>
<path fill="none" stroke="midnightblue" d="M429.168,-61.7762C418.448,-51.8105 405.953,-40.1956 396.376,-31.2931"/>
<polygon fill="midnightblue" stroke="midnightblue" points="426.887,-64.434 436.594,-68.679 431.653,-59.307 426.887,-64.434"/>
</g>
<!-- Node2&#45;&gt;Node4 -->
<g id="edge3" class="edge"><title>Node2&#45;&gt;Node4</title>
<path fill="none" stroke="midnightblue" d="M383.316,-71.8592C321.857,-61.7902 229.33,-46.3851 149,-32 146.114,-31.4832 143.17,-30.9503 140.197,-30.4074"/>
<polygon fill="midnightblue" stroke="midnightblue" points="382.85,-75.3294 393.284,-73.4901 383.98,-68.4212 382.85,-75.3294"/>
</g>
<!-- Node2&#45;&gt;Node5 -->
<g id="edge4" class="edge"><title>Node2&#45;&gt;Node5</title>
<path fill="none" stroke="midnightblue" d="M394.354,-66.0905C357.346,-55.2347 309.851,-41.303 274.918,-31.0561"/>
<polygon fill="midnightblue" stroke="midnightblue" points="393.427,-69.466 404.008,-68.9223 395.397,-62.749 393.427,-69.466"/>
</g>
<!-- Node2&#45;&gt;Node6 -->
<g id="edge5" class="edge"><title>Node2&#45;&gt;Node6</title>
<path fill="none" stroke="midnightblue" d="M506.947,-65.8127C541.522,-54.9979 585.583,-41.2157 618.063,-31.0561"/>
<polygon fill="midnightblue" stroke="midnightblue" points="505.505,-62.5965 497.006,-68.9223 507.595,-69.2773 505.505,-62.5965"/>
</g>
<!-- Node2&#45;&gt;Node7 -->
<g id="edge6" class="edge"><title>Node2&#45;&gt;Node7</title>
<path fill="none" stroke="midnightblue" d="M520.642,-71.0594C578.001,-60.9784 661.916,-45.9908 735,-32 738.219,-31.3838 741.514,-30.745 744.841,-30.0937"/>
<polygon fill="midnightblue" stroke="midnightblue" points="519.85,-67.6448 510.605,-72.8209 521.06,-74.5394 519.85,-67.6448"/>
</g>
<!-- Node8 -->
<g id="node8" class="node"><title>Node8</title>
<g id="a_node8"><a xlink:href="../../de/d03/SiftGPU_8cpp.html" target="_top" xlink:title="external/SiftGPU/src\l/SiftGPU/SiftGPU.cpp">
<polygon fill="white" stroke="black" points="466.5,-1 466.5,-31 581.5,-31 581.5,-1 466.5,-1"/>
<text text-anchor="start" x="474.5" y="-19" font-family="Helvetica,sans-Serif" font-size="10.00">external/SiftGPU/src</text>
<text text-anchor="middle" x="524" y="-8" font-family="Helvetica,sans-Serif" font-size="10.00">/SiftGPU/SiftGPU.cpp</text>
</a>
</g>
</g>
<!-- Node2&#45;&gt;Node8 -->
<g id="edge7" class="edge"><title>Node2&#45;&gt;Node8</title>
<path fill="none" stroke="midnightblue" d="M475.153,-61.7762C486.025,-51.8105 498.696,-40.1956 508.408,-31.2931"/>
<polygon fill="midnightblue" stroke="midnightblue" points="472.629,-59.3417 467.623,-68.679 477.36,-64.5018 472.629,-59.3417"/>
</g>
</g>
</svg>
