<?xml version="1.0" encoding="UTF-8" standalone="no"?>
<!DOCTYPE svg PUBLIC "-//W3C//DTD SVG 1.1//EN"
 "http://www.w3.org/Graphics/SVG/1.1/DTD/svg11.dtd">
<!-- Generated by graphviz version 2.36.0 (20140111.2315)
 -->
<!-- Title: main Pages: 1 -->
<svg width="380pt" height="408pt"
 viewBox="0.00 0.00 380.00 408.00" xmlns="http://www.w3.org/2000/svg" xmlns:xlink="http://www.w3.org/1999/xlink">
<g id="graph0" class="graph" transform="scale(1 1) rotate(0) translate(4 404)">
<title>main</title>
<polygon fill="white" stroke="none" points="-4,4 -4,-404 376,-404 376,4 -4,4"/>
<!-- Node1 -->
<g id="node1" class="node"><title>Node1</title>
<polygon fill="#bfbfbf" stroke="black" points="0,-209.5 0,-228.5 38,-228.5 38,-209.5 0,-209.5"/>
<text text-anchor="middle" x="19" y="-216.5" font-family="Helvetica,sans-Serif" font-size="10.00">main</text>
</g>
<!-- Node2 -->
<g id="node2" class="node"><title>Node2</title>
<g id="a_node2"><a xlink:href="../../d4/d89/openFABMAPcli_8cpp.html#a03418403841ff39e520854f4c830339f" target="_top" xlink:title="help">
<polygon fill="white" stroke="black" points="123.5,-380.5 123.5,-399.5 158.5,-399.5 158.5,-380.5 123.5,-380.5"/>
<text text-anchor="middle" x="141" y="-387.5" font-family="Helvetica,sans-Serif" font-size="10.00">help</text>
</a>
</g>
</g>
<!-- Node1&#45;&gt;Node2 -->
<g id="edge1" class="edge"><title>Node1&#45;&gt;Node2</title>
<path fill="none" stroke="midnightblue" d="M20.5087,-228.818C22.4415,-255.689 31.5731,-331.088 74,-371 84.5533,-380.928 99.9585,-385.712 113.232,-387.998"/>
<polygon fill="midnightblue" stroke="midnightblue" points="112.91,-391.486 123.286,-389.347 113.84,-384.548 112.91,-391.486"/>
</g>
<!-- Node3 -->
<g id="node3" class="node"><title>Node3</title>
<g id="a_node3"><a xlink:href="../../d4/d89/openFABMAPcli_8cpp.html#a9f2c562a904ed11d8de1534e75f063c7" target="_top" xlink:title="generateDetector">
<polygon fill="white" stroke="black" points="95,-342.5 95,-361.5 187,-361.5 187,-342.5 95,-342.5"/>
<text text-anchor="middle" x="141" y="-349.5" font-family="Helvetica,sans-Serif" font-size="10.00">generateDetector</text>
</a>
</g>
</g>
<!-- Node1&#45;&gt;Node3 -->
<g id="edge2" class="edge"><title>Node1&#45;&gt;Node3</title>
<path fill="none" stroke="midnightblue" d="M21.7617,-228.578C26.2975,-250.475 40.4567,-304.496 74,-333 77.4669,-335.946 81.3666,-338.436 85.493,-340.54"/>
<polygon fill="midnightblue" stroke="midnightblue" points="84.2401,-343.812 94.8085,-344.559 87.0126,-337.384 84.2401,-343.812"/>
</g>
<!-- Node4 -->
<g id="node4" class="node"><title>Node4</title>
<g id="a_node4"><a xlink:href="../../d4/d89/openFABMAPcli_8cpp.html#a78546c94fada87ae193c365e661e7dc0" target="_top" xlink:title="generateExtractor">
<polygon fill="white" stroke="black" points="94,-304.5 94,-323.5 188,-323.5 188,-304.5 94,-304.5"/>
<text text-anchor="middle" x="141" y="-311.5" font-family="Helvetica,sans-Serif" font-size="10.00">generateExtractor</text>
</a>
</g>
</g>
<!-- Node1&#45;&gt;Node4 -->
<g id="edge3" class="edge"><title>Node1&#45;&gt;Node4</title>
<path fill="none" stroke="midnightblue" d="M24.1514,-228.513C31.6893,-244.664 49.1753,-277.402 74,-295 77.245,-297.3 80.765,-299.324 84.4333,-301.104"/>
<polygon fill="midnightblue" stroke="midnightblue" points="83.2103,-304.386 93.7847,-305.044 85.9286,-297.936 83.2103,-304.386"/>
</g>
<!-- Node5 -->
<g id="node5" class="node"><title>Node5</title>
<g id="a_node5"><a xlink:href="../../d4/d89/openFABMAPcli_8cpp.html#afbd7115e4bdcdd1ea3ef4b9a5b4aaf4a" target="_top" xlink:title="showFeatures">
<polygon fill="white" stroke="black" points="102,-266.5 102,-285.5 180,-285.5 180,-266.5 102,-266.5"/>
<text text-anchor="middle" x="141" y="-273.5" font-family="Helvetica,sans-Serif" font-size="10.00">showFeatures</text>
</a>
</g>
</g>
<!-- Node1&#45;&gt;Node5 -->
<g id="edge4" class="edge"><title>Node1&#45;&gt;Node5</title>
<path fill="none" stroke="midnightblue" d="M31.304,-228.658C41.7713,-237.171 58.0787,-249.373 74,-257 79.7161,-259.738 85.904,-262.159 92.1213,-264.275"/>
<polygon fill="midnightblue" stroke="midnightblue" points="91.2621,-267.674 101.852,-267.352 93.3729,-261 91.2621,-267.674"/>
</g>
<!-- Node7 -->
<g id="node7" class="node"><title>Node7</title>
<g id="a_node7"><a xlink:href="../../d4/d89/openFABMAPcli_8cpp.html#a43191b12f765ebe7510c70d5f6e294e0" target="_top" xlink:title="generateVocabTrainData">
<polygon fill="white" stroke="black" points="78.5,-228.5 78.5,-247.5 203.5,-247.5 203.5,-228.5 78.5,-228.5"/>
<text text-anchor="middle" x="141" y="-235.5" font-family="Helvetica,sans-Serif" font-size="10.00">generateVocabTrainData</text>
</a>
</g>
</g>
<!-- Node1&#45;&gt;Node7 -->
<g id="edge6" class="edge"><title>Node1&#45;&gt;Node7</title>
<path fill="none" stroke="midnightblue" d="M38.2254,-221.886C47.0358,-223.281 58.2319,-225.053 69.9546,-226.909"/>
<polygon fill="midnightblue" stroke="midnightblue" points="69.4603,-230.375 79.8846,-228.482 70.5551,-223.461 69.4603,-230.375"/>
</g>
<!-- Node8 -->
<g id="node8" class="node"><title>Node8</title>
<g id="a_node8"><a xlink:href="../../d4/d89/openFABMAPcli_8cpp.html#a6457a4cbe9a35c79b390bc43577f9466" target="_top" xlink:title="trainVocabulary">
<polygon fill="white" stroke="black" points="99,-190.5 99,-209.5 183,-209.5 183,-190.5 99,-190.5"/>
<text text-anchor="middle" x="141" y="-197.5" font-family="Helvetica,sans-Serif" font-size="10.00">trainVocabulary</text>
</a>
</g>
</g>
<!-- Node1&#45;&gt;Node8 -->
<g id="edge8" class="edge"><title>Node1&#45;&gt;Node8</title>
<path fill="none" stroke="midnightblue" d="M38.2254,-216.114C51.7791,-213.968 70.9787,-210.928 89.0558,-208.066"/>
<polygon fill="midnightblue" stroke="midnightblue" points="89.6106,-211.522 98.9402,-206.501 88.5158,-204.608 89.6106,-211.522"/>
</g>
<!-- Node10 -->
<g id="node10" class="node"><title>Node10</title>
<g id="a_node10"><a xlink:href="../../d4/d89/openFABMAPcli_8cpp.html#a2b6cae967728fe55c75d9aeea9d38f2c" target="_top" xlink:title="generateBOWImageDescs">
<polygon fill="white" stroke="black" points="74,-152.5 74,-171.5 208,-171.5 208,-152.5 74,-152.5"/>
<text text-anchor="middle" x="141" y="-159.5" font-family="Helvetica,sans-Serif" font-size="10.00">generateBOWImageDescs</text>
</a>
</g>
</g>
<!-- Node1&#45;&gt;Node10 -->
<g id="edge10" class="edge"><title>Node1&#45;&gt;Node10</title>
<path fill="none" stroke="midnightblue" d="M31.304,-209.342C41.7713,-200.829 58.0787,-188.627 74,-181 78.7181,-178.74 83.7575,-176.696 88.8697,-174.861"/>
<polygon fill="midnightblue" stroke="midnightblue" points="90.3377,-178.062 98.7248,-171.588 88.1313,-171.419 90.3377,-178.062"/>
</g>
<!-- Node11 -->
<g id="node11" class="node"><title>Node11</title>
<g id="a_node11"><a xlink:href="../../d4/d89/openFABMAPcli_8cpp.html#aaa7a2c40edec05e56d7ad468212d6992" target="_top" xlink:title="trainChowLiuTree">
<polygon fill="white" stroke="black" points="94.5,-114.5 94.5,-133.5 187.5,-133.5 187.5,-114.5 94.5,-114.5"/>
<text text-anchor="middle" x="141" y="-121.5" font-family="Helvetica,sans-Serif" font-size="10.00">trainChowLiuTree</text>
</a>
</g>
</g>
<!-- Node1&#45;&gt;Node11 -->
<g id="edge11" class="edge"><title>Node1&#45;&gt;Node11</title>
<path fill="none" stroke="midnightblue" d="M24.1514,-209.487C31.6893,-193.336 49.1753,-160.598 74,-143 77.4472,-140.556 81.2047,-138.425 85.1205,-136.567"/>
<polygon fill="midnightblue" stroke="midnightblue" points="86.565,-139.757 94.4735,-132.707 83.8945,-133.286 86.565,-139.757"/>
</g>
<!-- Node14 -->
<g id="node14" class="node"><title>Node14</title>
<g id="a_node14"><a xlink:href="../../d4/d89/openFABMAPcli_8cpp.html#acd7106c14966811c1201c29ec4745753" target="_top" xlink:title="generateFABMAPInstance">
<polygon fill="white" stroke="black" points="74.5,-76.5 74.5,-95.5 207.5,-95.5 207.5,-76.5 74.5,-76.5"/>
<text text-anchor="middle" x="141" y="-83.5" font-family="Helvetica,sans-Serif" font-size="10.00">generateFABMAPInstance</text>
</a>
</g>
</g>
<!-- Node1&#45;&gt;Node14 -->
<g id="edge14" class="edge"><title>Node1&#45;&gt;Node14</title>
<path fill="none" stroke="midnightblue" d="M21.7617,-209.422C26.2975,-187.525 40.4567,-133.504 74,-105 75.9876,-103.311 78.1174,-101.772 80.3506,-100.369"/>
<polygon fill="midnightblue" stroke="midnightblue" points="82.1758,-103.364 89.3948,-95.6093 78.9155,-97.1697 82.1758,-103.364"/>
</g>
<!-- Node16 -->
<g id="node16" class="node"><title>Node16</title>
<g id="a_node16"><a xlink:href="../../d4/d89/openFABMAPcli_8cpp.html#ac73ff24cfdabf8cde833966f9140ecc3" target="_top" xlink:title="openFABMAP">
<polygon fill="white" stroke="black" points="101.5,-38.5 101.5,-57.5 180.5,-57.5 180.5,-38.5 101.5,-38.5"/>
<text text-anchor="middle" x="141" y="-45.5" font-family="Helvetica,sans-Serif" font-size="10.00">openFABMAP</text>
</a>
</g>
</g>
<!-- Node1&#45;&gt;Node16 -->
<g id="edge16" class="edge"><title>Node1&#45;&gt;Node16</title>
<path fill="none" stroke="midnightblue" d="M20.5087,-209.182C22.4415,-182.311 31.5731,-106.912 74,-67 79.0182,-62.2793 85.1333,-58.7216 91.5947,-56.0425"/>
<polygon fill="midnightblue" stroke="midnightblue" points="92.915,-59.2893 101.222,-52.7127 90.6268,-52.6738 92.915,-59.2893"/>
</g>
<!-- Node6 -->
<g id="node6" class="node"><title>Node6</title>
<g id="a_node6"><a xlink:href="../../d8/da0/namespacelsd__slam_1_1Util.html#aca4fa361644158d98d3f77cae377e883" target="_top" xlink:title="lsd_slam::Util::waitKey">
<polygon fill="white" stroke="black" points="249,-253.5 249,-272.5 367,-272.5 367,-253.5 249,-253.5"/>
<text text-anchor="middle" x="308" y="-260.5" font-family="Helvetica,sans-Serif" font-size="10.00">lsd_slam::Util::waitKey</text>
</a>
</g>
</g>
<!-- Node5&#45;&gt;Node6 -->
<g id="edge5" class="edge"><title>Node5&#45;&gt;Node6</title>
<path fill="none" stroke="midnightblue" d="M180.269,-272.985C197.697,-271.612 218.865,-269.944 238.869,-268.368"/>
<polygon fill="midnightblue" stroke="midnightblue" points="239.191,-271.853 248.885,-267.579 238.641,-264.875 239.191,-271.853"/>
</g>
<!-- Node7&#45;&gt;Node6 -->
<g id="edge7" class="edge"><title>Node7&#45;&gt;Node6</title>
<path fill="none" stroke="midnightblue" d="M203.909,-247.38C215.296,-249.105 227.242,-250.916 238.802,-252.667"/>
<polygon fill="midnightblue" stroke="midnightblue" points="238.426,-256.15 248.837,-254.187 239.474,-249.229 238.426,-256.15"/>
</g>
<!-- Node9 -->
<g id="node9" class="node"><title>Node9</title>
<g id="a_node9"><a xlink:href="../../da/dbb/classof2_1_1BOWMSCTrainer.html#a5c230c0e346533c0ac5d0a92a2a9d22d" target="_top" xlink:title="of2::BOWMSCTrainer\l::cluster">
<polygon fill="white" stroke="black" points="251.5,-191 251.5,-221 364.5,-221 364.5,-191 251.5,-191"/>
<text text-anchor="start" x="259.5" y="-209" font-family="Helvetica,sans-Serif" font-size="10.00">of2::BOWMSCTrainer</text>
<text text-anchor="middle" x="308" y="-198" font-family="Helvetica,sans-Serif" font-size="10.00">::cluster</text>
</a>
</g>
</g>
<!-- Node8&#45;&gt;Node9 -->
<g id="edge9" class="edge"><title>Node8&#45;&gt;Node9</title>
<path fill="none" stroke="midnightblue" d="M183.211,-201.499C200.768,-202.137 221.687,-202.898 241.286,-203.61"/>
<polygon fill="midnightblue" stroke="midnightblue" points="241.269,-207.112 251.39,-203.978 241.524,-200.117 241.269,-207.112"/>
</g>
<!-- Node12 -->
<g id="node12" class="node"><title>Node12</title>
<g id="a_node12"><a xlink:href="../../d0/d65/classof2_1_1ChowLiuTree.html#a35cc2db555fe6e039fb0e9dbf1700c6b" target="_top" xlink:title="of2::ChowLiuTree::add">
<polygon fill="white" stroke="black" points="250,-152.5 250,-171.5 366,-171.5 366,-152.5 250,-152.5"/>
<text text-anchor="middle" x="308" y="-159.5" font-family="Helvetica,sans-Serif" font-size="10.00">of2::ChowLiuTree::add</text>
</a>
</g>
</g>
<!-- Node11&#45;&gt;Node12 -->
<g id="edge12" class="edge"><title>Node11&#45;&gt;Node12</title>
<path fill="none" stroke="midnightblue" d="M183.636,-133.589C205.508,-138.626 232.506,-144.844 255.664,-150.177"/>
<polygon fill="midnightblue" stroke="midnightblue" points="255.133,-153.646 265.663,-152.48 256.704,-146.825 255.133,-153.646"/>
</g>
<!-- Node13 -->
<g id="node13" class="node"><title>Node13</title>
<g id="a_node13"><a xlink:href="../../d0/d65/classof2_1_1ChowLiuTree.html#a72102f89e7b7d17e482c41ac3ca0c419" target="_top" xlink:title="of2::ChowLiuTree::make">
<polygon fill="white" stroke="black" points="246,-114.5 246,-133.5 370,-133.5 370,-114.5 246,-114.5"/>
<text text-anchor="middle" x="308" y="-121.5" font-family="Helvetica,sans-Serif" font-size="10.00">of2::ChowLiuTree::make</text>
</a>
</g>
</g>
<!-- Node11&#45;&gt;Node13 -->
<g id="edge13" class="edge"><title>Node11&#45;&gt;Node13</title>
<path fill="none" stroke="midnightblue" d="M187.524,-124C202.454,-124 219.42,-124 235.784,-124"/>
<polygon fill="midnightblue" stroke="midnightblue" points="235.871,-127.5 245.871,-124 235.871,-120.5 235.871,-127.5"/>
</g>
<!-- Node15 -->
<g id="node15" class="node"><title>Node15</title>
<g id="a_node15"><a xlink:href="../../d5/d90/classof2_1_1FabMap.html#ae7c147b677d720d157dfbdc67d6ef65e" target="_top" xlink:title="of2::FabMap::addTraining">
<polygon fill="white" stroke="black" points="244,-76.5 244,-95.5 372,-95.5 372,-76.5 244,-76.5"/>
<text text-anchor="middle" x="308" y="-83.5" font-family="Helvetica,sans-Serif" font-size="10.00">of2::FabMap::addTraining</text>
</a>
</g>
</g>
<!-- Node14&#45;&gt;Node15 -->
<g id="edge15" class="edge"><title>Node14&#45;&gt;Node15</title>
<path fill="none" stroke="midnightblue" d="M207.686,-86C216.277,-86 225.122,-86 233.827,-86"/>
<polygon fill="midnightblue" stroke="midnightblue" points="233.958,-89.5001 243.958,-86 233.958,-82.5001 233.958,-89.5001"/>
</g>
<!-- Node17 -->
<g id="node17" class="node"><title>Node17</title>
<g id="a_node17"><a xlink:href="../../d5/d90/classof2_1_1FabMap.html#a28ce7f775d11ea389874889406ad031e" target="_top" xlink:title="of2::FabMap::compare">
<polygon fill="white" stroke="black" points="250.5,-38.5 250.5,-57.5 365.5,-57.5 365.5,-38.5 250.5,-38.5"/>
<text text-anchor="middle" x="308" y="-45.5" font-family="Helvetica,sans-Serif" font-size="10.00">of2::FabMap::compare</text>
</a>
</g>
</g>
<!-- Node16&#45;&gt;Node17 -->
<g id="edge17" class="edge"><title>Node16&#45;&gt;Node17</title>
<path fill="none" stroke="midnightblue" d="M180.685,-48C198.449,-48 220.031,-48 240.292,-48"/>
<polygon fill="midnightblue" stroke="midnightblue" points="240.424,-51.5001 250.424,-48 240.424,-44.5001 240.424,-51.5001"/>
</g>
<!-- Node18 -->
<g id="node18" class="node"><title>Node18</title>
<g id="a_node18"><a xlink:href="../../d5/d90/classof2_1_1FabMap.html#a3883e92f51f3bfc269f829baf4133d71" target="_top" xlink:title="of2::FabMap::add">
<polygon fill="white" stroke="black" points="261.5,-0.5 261.5,-19.5 354.5,-19.5 354.5,-0.5 261.5,-0.5"/>
<text text-anchor="middle" x="308" y="-7.5" font-family="Helvetica,sans-Serif" font-size="10.00">of2::FabMap::add</text>
</a>
</g>
</g>
<!-- Node16&#45;&gt;Node18 -->
<g id="edge18" class="edge"><title>Node16&#45;&gt;Node18</title>
<path fill="none" stroke="midnightblue" d="M180.685,-39.0907C203.121,-33.9235 231.648,-27.3537 255.913,-21.7654"/>
<polygon fill="midnightblue" stroke="midnightblue" points="256.714,-25.1728 265.673,-19.5178 255.142,-18.3514 256.714,-25.1728"/>
</g>
</g>
</svg>
