<?xml version="1.0" encoding="UTF-8" standalone="no"?>
<!DOCTYPE svg PUBLIC "-//W3C//DTD SVG 1.1//EN"
 "http://www.w3.org/Graphics/SVG/1.1/DTD/svg11.dtd">
<!-- Generated by graphviz version 2.36.0 (20140111.2315)
 -->
<!-- Title: GLTexImage::FitRealTexViewPort Pages: 1 -->
<svg width="442pt" height="180pt"
 viewBox="0.00 0.00 442.00 180.00" xmlns="http://www.w3.org/2000/svg" xmlns:xlink="http://www.w3.org/1999/xlink">
<g id="graph0" class="graph" transform="scale(1 1) rotate(0) translate(4 176)">
<title>GLTexImage::FitRealTexViewPort</title>
<polygon fill="white" stroke="none" points="-4,4 -4,-176 438,-176 438,4 -4,4"/>
<!-- Node1 -->
<g id="node1" class="node"><title>Node1</title>
<polygon fill="#bfbfbf" stroke="black" points="0.5,-76.5 0.5,-95.5 167.5,-95.5 167.5,-76.5 0.5,-76.5"/>
<text text-anchor="middle" x="84" y="-83.5" font-family="Helvetica,sans-Serif" font-size="10.00">GLTexImage::FitRealTexViewPort</text>
</g>
<!-- Node2 -->
<g id="node2" class="node"><title>Node2</title>
<g id="a_node2"><a xlink:href="../../d2/d55/classGlobalUtil.html#a30830c22f7574d8d6f5a5b0a0b31ad50" target="_top" xlink:title="GlobalUtil::FitViewPort">
<polygon fill="white" stroke="black" points="204,-76.5 204,-95.5 320,-95.5 320,-76.5 204,-76.5"/>
<text text-anchor="middle" x="262" y="-83.5" font-family="Helvetica,sans-Serif" font-size="10.00">GlobalUtil::FitViewPort</text>
</a>
</g>
</g>
<!-- Node1&#45;&gt;Node2 -->
<g id="edge1" class="edge"><title>Node1&#45;&gt;Node2</title>
<path fill="none" stroke="midnightblue" d="M167.589,-86C176.288,-86 185.057,-86 193.556,-86"/>
<polygon fill="midnightblue" stroke="midnightblue" points="193.765,-89.5001 203.765,-86 193.765,-82.5001 193.765,-89.5001"/>
</g>
<!-- Node3 -->
<g id="node3" class="node"><title>Node3</title>
<g id="a_node3"><a xlink:href="../../da/d33/glew_8h.html#ae9ebc290561b3321b629610807155a35" target="_top" xlink:title="glGetIntegerv">
<polygon fill="white" stroke="black" points="357.5,-152.5 357.5,-171.5 432.5,-171.5 432.5,-152.5 357.5,-152.5"/>
<text text-anchor="middle" x="395" y="-159.5" font-family="Helvetica,sans-Serif" font-size="10.00">glGetIntegerv</text>
</a>
</g>
</g>
<!-- Node2&#45;&gt;Node3 -->
<g id="edge2" class="edge"><title>Node2&#45;&gt;Node3</title>
<path fill="none" stroke="midnightblue" d="M277.905,-95.6862C296.077,-107.366 327.853,-127.375 356,-143 358.902,-144.611 361.958,-146.243 365.024,-147.838"/>
<polygon fill="midnightblue" stroke="midnightblue" points="363.609,-151.045 374.109,-152.458 366.782,-144.805 363.609,-151.045"/>
</g>
<!-- Node4 -->
<g id="node4" class="node"><title>Node4</title>
<g id="a_node4"><a xlink:href="../../da/d33/glew_8h.html#a8e93835e91933b7078c88f905dd8599c" target="_top" xlink:title="glViewport">
<polygon fill="white" stroke="black" points="364,-114.5 364,-133.5 426,-133.5 426,-114.5 364,-114.5"/>
<text text-anchor="middle" x="395" y="-121.5" font-family="Helvetica,sans-Serif" font-size="10.00">glViewport</text>
</a>
</g>
</g>
<!-- Node2&#45;&gt;Node4 -->
<g id="edge3" class="edge"><title>Node2&#45;&gt;Node4</title>
<path fill="none" stroke="midnightblue" d="M296.057,-95.589C313.661,-100.696 335.448,-107.016 354.001,-112.397"/>
<polygon fill="midnightblue" stroke="midnightblue" points="353.068,-115.771 363.648,-115.195 355.019,-109.048 353.068,-115.771"/>
</g>
<!-- Node5 -->
<g id="node5" class="node"><title>Node5</title>
<g id="a_node5"><a xlink:href="../../da/d33/glew_8h.html#af14e38e22806d0220680b52edbc3bcef" target="_top" xlink:title="glMatrixMode">
<polygon fill="white" stroke="black" points="357.5,-76.5 357.5,-95.5 432.5,-95.5 432.5,-76.5 357.5,-76.5"/>
<text text-anchor="middle" x="395" y="-83.5" font-family="Helvetica,sans-Serif" font-size="10.00">glMatrixMode</text>
</a>
</g>
</g>
<!-- Node2&#45;&gt;Node5 -->
<g id="edge4" class="edge"><title>Node2&#45;&gt;Node5</title>
<path fill="none" stroke="midnightblue" d="M320.077,-86C329.196,-86 338.536,-86 347.374,-86"/>
<polygon fill="midnightblue" stroke="midnightblue" points="347.477,-89.5001 357.477,-86 347.477,-82.5001 347.477,-89.5001"/>
</g>
<!-- Node6 -->
<g id="node6" class="node"><title>Node6</title>
<g id="a_node6"><a xlink:href="../../da/d33/glew_8h.html#a6577472f85b23086331edadaf0311a49" target="_top" xlink:title="glLoadIdentity">
<polygon fill="white" stroke="black" points="356.5,-38.5 356.5,-57.5 433.5,-57.5 433.5,-38.5 356.5,-38.5"/>
<text text-anchor="middle" x="395" y="-45.5" font-family="Helvetica,sans-Serif" font-size="10.00">glLoadIdentity</text>
</a>
</g>
</g>
<!-- Node2&#45;&gt;Node6 -->
<g id="edge5" class="edge"><title>Node2&#45;&gt;Node6</title>
<path fill="none" stroke="midnightblue" d="M296.057,-76.411C312.813,-71.5506 333.358,-65.5909 351.297,-60.3873"/>
<polygon fill="midnightblue" stroke="midnightblue" points="352.325,-63.7334 360.954,-57.5859 350.375,-57.0105 352.325,-63.7334"/>
</g>
<!-- Node7 -->
<g id="node7" class="node"><title>Node7</title>
<g id="a_node7"><a xlink:href="../../da/d33/glew_8h.html#a2d92120b1fad876057dfd00e2d942525" target="_top" xlink:title="glOrtho">
<polygon fill="white" stroke="black" points="371,-0.5 371,-19.5 419,-19.5 419,-0.5 371,-0.5"/>
<text text-anchor="middle" x="395" y="-7.5" font-family="Helvetica,sans-Serif" font-size="10.00">glOrtho</text>
</a>
</g>
</g>
<!-- Node2&#45;&gt;Node7 -->
<g id="edge6" class="edge"><title>Node2&#45;&gt;Node7</title>
<path fill="none" stroke="midnightblue" d="M277.905,-76.3138C296.077,-64.6336 327.853,-44.6246 356,-29 358.902,-27.3891 361.958,-25.7574 365.024,-24.1621"/>
<polygon fill="midnightblue" stroke="midnightblue" points="366.782,-27.1948 374.109,-19.5421 363.609,-20.9553 366.782,-27.1948"/>
</g>
</g>
</svg>
