<?xml version="1.0" encoding="UTF-8" standalone="no"?>
<!DOCTYPE svg PUBLIC "-//W3C//DTD SVG 1.1//EN"
 "http://www.w3.org/Graphics/SVG/1.1/DTD/svg11.dtd">
<!-- Generated by graphviz version 2.36.0 (20140111.2315)
 -->
<!-- Title: GLTexImage::ZeroHistoMargin Pages: 1 -->
<!--zoomable 389 -->
<svg id="main" version="1.1" xmlns="http://www.w3.org/2000/svg" xmlns:xlink="http://www.w3.org/1999/xlink" xml:space="preserve" onload="init(evt)">
<style type="text/css"><![CDATA[
.edge:hover path { stroke: red; }
.edge:hover polygon { stroke: red; fill: red; }
]]></style>
<script type="text/javascript"><![CDATA[
var edges = document.getElementsByTagName('g');
if (edges && edges.length) {
  for (var i=0;i<edges.length;i++) {
    if (edges[i].id.substr(0,4)=='edge') {
      edges[i].setAttribute('class','edge');
    }
  }
}
]]></script>
        <defs>
                <circle id="rim" cx="0" cy="0" r="7"/>
                <circle id="rim2" cx="0" cy="0" r="3.5"/>
                <g id="zoomPlus">
                        <use xlink:href="#rim" fill="#404040">
                                <set attributeName="fill" to="#808080" begin="zoomplus.mouseover" end="zoomplus.mouseout"/>
                        </use>
                        <path d="M-4,0h8M0,-4v8" fill="none" stroke="white" stroke-width="1.5" pointer-events="none"/>
                </g>
                <g id="zoomMin">
                        <use xlink:href="#rim" fill="#404040">
                                <set attributeName="fill" to="#808080" begin="zoomminus.mouseover" end="zoomminus.mouseout"/>
                        </use>
                        <path d="M-4,0h8" fill="none" stroke="white" stroke-width="1.5" pointer-events="none"/>
                </g>
                <g id="dirArrow">
                        <path fill="none" stroke="white" stroke-width="1.5" d="M0,-3.0v7 M-2.5,-0.5L0,-3.0L2.5,-0.5"/>
                </g>
               <g id="resetDef">
                       <use xlink:href="#rim2" fill="#404040">
                               <set attributeName="fill" to="#808080" begin="reset.mouseover" end="reset.mouseout"/>
                       </use>
               </g>
        </defs>

<script type="text/javascript">
var viewWidth = 532;
var viewHeight = 389;
var sectionId = 'dynsection-24';
</script>
<script xlink:href="../../svgpan.js"/>
<svg id="graph" class="graph">
<g id="viewport">
<title>GLTexImage::ZeroHistoMargin</title>
<polygon fill="white" stroke="none" points="-4,4 -4,-385 528,-385 528,4 -4,4"/>
<!-- Node1 -->
<g id="node1" class="node"><title>Node1</title>
<polygon fill="#bfbfbf" stroke="black" points="0.5,-114.5 0.5,-133.5 151.5,-133.5 151.5,-114.5 0.5,-114.5"/>
<text text-anchor="middle" x="76" y="-121.5" font-family="Helvetica,sans-Serif" font-size="10.00">GLTexImage::ZeroHistoMargin</text>
</g>
<!-- Node2 -->
<g id="node2" class="node"><title>Node2</title>
<g id="a_node2"><a xlink:href="../../d2/d55/classGlobalUtil.html#a30830c22f7574d8d6f5a5b0a0b31ad50" target="_top" xlink:title="GlobalUtil::FitViewPort">
<polygon fill="white" stroke="black" points="212,-266.5 212,-285.5 328,-285.5 328,-266.5 212,-266.5"/>
<text text-anchor="middle" x="270" y="-273.5" font-family="Helvetica,sans-Serif" font-size="10.00">GlobalUtil::FitViewPort</text>
</a>
</g>
</g>
<!-- Node1&#45;&gt;Node2 -->
<g id="edge1" class="edge"><title>Node1&#45;&gt;Node2</title>
<path fill="none" stroke="midnightblue" d="M87.435,-133.514C106.784,-151.023 149.743,-189.275 188,-219 207.018,-233.777 229.473,-249.447 245.91,-260.609"/>
<polygon fill="midnightblue" stroke="midnightblue" points="244.116,-263.621 254.363,-266.312 248.031,-257.818 244.116,-263.621"/>
</g>
<!-- Node8 -->
<g id="node8" class="node"><title>Node8</title>
<g id="a_node8"><a xlink:href="../../d4/d24/classShaderMan.html#a1cb28dadb77f568d0b23300ac82f1fb6" target="_top" xlink:title="ShaderMan::UseShaderZeroPass">
<polygon fill="white" stroke="black" points="188.5,-190.5 188.5,-209.5 351.5,-209.5 351.5,-190.5 188.5,-190.5"/>
<text text-anchor="middle" x="270" y="-197.5" font-family="Helvetica,sans-Serif" font-size="10.00">ShaderMan::UseShaderZeroPass</text>
</a>
</g>
</g>
<!-- Node1&#45;&gt;Node8 -->
<g id="edge7" class="edge"><title>Node1&#45;&gt;Node8</title>
<path fill="none" stroke="midnightblue" d="M92.6192,-133.578C113.614,-146.084 152.419,-167.915 188,-181 194.975,-183.565 202.419,-185.867 209.86,-187.907"/>
<polygon fill="midnightblue" stroke="midnightblue" points="209.044,-191.311 219.603,-190.439 210.805,-184.536 209.044,-191.311"/>
</g>
<!-- Node10 -->
<g id="node10" class="node"><title>Node10</title>
<g id="a_node10"><a xlink:href="../../da/d33/glew_8h.html#a98964453975519f92d6cc59ef77f7436" target="_top" xlink:title="glBegin">
<polygon fill="white" stroke="black" points="245.5,-152.5 245.5,-171.5 294.5,-171.5 294.5,-152.5 245.5,-152.5"/>
<text text-anchor="middle" x="270" y="-159.5" font-family="Helvetica,sans-Serif" font-size="10.00">glBegin</text>
</a>
</g>
</g>
<!-- Node1&#45;&gt;Node10 -->
<g id="edge9" class="edge"><title>Node1&#45;&gt;Node10</title>
<path fill="none" stroke="midnightblue" d="M125.45,-133.589C159.734,-140.374 204.842,-149.302 235.27,-155.324"/>
<polygon fill="midnightblue" stroke="midnightblue" points="234.89,-158.817 245.379,-157.325 236.249,-151.95 234.89,-158.817"/>
</g>
<!-- Node11 -->
<g id="node11" class="node"><title>Node11</title>
<g id="a_node11"><a xlink:href="../../da/d33/glew_8h.html#a3a21de74d8799ed05076a96998429d7b" target="_top" xlink:title="glTexCoord2i">
<polygon fill="white" stroke="black" points="233,-114.5 233,-133.5 307,-133.5 307,-114.5 233,-114.5"/>
<text text-anchor="middle" x="270" y="-121.5" font-family="Helvetica,sans-Serif" font-size="10.00">glTexCoord2i</text>
</a>
</g>
</g>
<!-- Node1&#45;&gt;Node11 -->
<g id="edge10" class="edge"><title>Node1&#45;&gt;Node11</title>
<path fill="none" stroke="midnightblue" d="M151.507,-124C175.512,-124 201.408,-124 222.763,-124"/>
<polygon fill="midnightblue" stroke="midnightblue" points="222.853,-127.5 232.853,-124 222.853,-120.5 222.853,-127.5"/>
</g>
<!-- Node12 -->
<g id="node12" class="node"><title>Node12</title>
<g id="a_node12"><a xlink:href="../../da/d33/glew_8h.html#a43e94a9a0586067872b96a8a790e60bc" target="_top" xlink:title="glVertex2i">
<polygon fill="white" stroke="black" points="240,-76.5 240,-95.5 300,-95.5 300,-76.5 240,-76.5"/>
<text text-anchor="middle" x="270" y="-83.5" font-family="Helvetica,sans-Serif" font-size="10.00">glVertex2i</text>
</a>
</g>
</g>
<!-- Node1&#45;&gt;Node12 -->
<g id="edge11" class="edge"><title>Node1&#45;&gt;Node12</title>
<path fill="none" stroke="midnightblue" d="M125.45,-114.411C157.746,-108.019 199.649,-99.7258 229.835,-93.7513"/>
<polygon fill="midnightblue" stroke="midnightblue" points="230.859,-97.1167 239.989,-91.7417 229.5,-90.2499 230.859,-97.1167"/>
</g>
<!-- Node13 -->
<g id="node13" class="node"><title>Node13</title>
<g id="a_node13"><a xlink:href="../../da/d33/glew_8h.html#abbff207d1fa71b296ff35b149cef7238" target="_top" xlink:title="glEnd">
<polygon fill="white" stroke="black" points="249.5,-38.5 249.5,-57.5 290.5,-57.5 290.5,-38.5 249.5,-38.5"/>
<text text-anchor="middle" x="270" y="-45.5" font-family="Helvetica,sans-Serif" font-size="10.00">glEnd</text>
</a>
</g>
</g>
<!-- Node1&#45;&gt;Node13 -->
<g id="edge12" class="edge"><title>Node1&#45;&gt;Node13</title>
<path fill="none" stroke="midnightblue" d="M92.6192,-114.422C113.614,-101.916 152.419,-80.0849 188,-67 204.522,-60.924 223.671,-56.327 239.201,-53.1778"/>
<polygon fill="midnightblue" stroke="midnightblue" points="240.142,-56.5608 249.298,-51.2286 238.815,-49.6877 240.142,-56.5608"/>
</g>
<!-- Node14 -->
<g id="node14" class="node"><title>Node14</title>
<g id="a_node14"><a xlink:href="../../da/d33/glew_8h.html#afb3e087fc26a916a909d46ead9cfc44a" target="_top" xlink:title="glFlush">
<polygon fill="white" stroke="black" points="246,-0.5 246,-19.5 294,-19.5 294,-0.5 246,-0.5"/>
<text text-anchor="middle" x="270" y="-7.5" font-family="Helvetica,sans-Serif" font-size="10.00">glFlush</text>
</a>
</g>
</g>
<!-- Node1&#45;&gt;Node14 -->
<g id="edge13" class="edge"><title>Node1&#45;&gt;Node14</title>
<path fill="none" stroke="midnightblue" d="M85.1264,-114.495C102.148,-95.2236 143.656,-51.4775 188,-29 202.76,-21.5184 220.531,-16.928 235.662,-14.1393"/>
<polygon fill="midnightblue" stroke="midnightblue" points="236.354,-17.5725 245.646,-12.4832 235.208,-10.6669 236.354,-17.5725"/>
</g>
<!-- Node3 -->
<g id="node3" class="node"><title>Node3</title>
<g id="a_node3"><a xlink:href="../../da/d33/glew_8h.html#ae9ebc290561b3321b629610807155a35" target="_top" xlink:title="glGetIntegerv">
<polygon fill="white" stroke="black" points="418.5,-361.5 418.5,-380.5 493.5,-380.5 493.5,-361.5 418.5,-361.5"/>
<text text-anchor="middle" x="456" y="-368.5" font-family="Helvetica,sans-Serif" font-size="10.00">glGetIntegerv</text>
</a>
</g>
</g>
<!-- Node2&#45;&gt;Node3 -->
<g id="edge2" class="edge"><title>Node2&#45;&gt;Node3</title>
<path fill="none" stroke="midnightblue" d="M282.929,-285.506C303.338,-301.353 346.757,-333.275 388,-352 394.585,-354.99 401.75,-357.62 408.865,-359.894"/>
<polygon fill="midnightblue" stroke="midnightblue" points="407.893,-363.257 418.477,-362.777 409.904,-356.552 407.893,-363.257"/>
</g>
<!-- Node4 -->
<g id="node4" class="node"><title>Node4</title>
<g id="a_node4"><a xlink:href="../../da/d33/glew_8h.html#a8e93835e91933b7078c88f905dd8599c" target="_top" xlink:title="glViewport">
<polygon fill="white" stroke="black" points="425,-323.5 425,-342.5 487,-342.5 487,-323.5 425,-323.5"/>
<text text-anchor="middle" x="456" y="-330.5" font-family="Helvetica,sans-Serif" font-size="10.00">glViewport</text>
</a>
</g>
</g>
<!-- Node2&#45;&gt;Node4 -->
<g id="edge3" class="edge"><title>Node2&#45;&gt;Node4</title>
<path fill="none" stroke="midnightblue" d="M299.276,-285.514C322.914,-293.388 357.554,-304.743 388,-314 396.741,-316.658 406.159,-319.402 415.093,-321.95"/>
<polygon fill="midnightblue" stroke="midnightblue" points="414.337,-325.373 424.912,-324.728 416.243,-318.638 414.337,-325.373"/>
</g>
<!-- Node5 -->
<g id="node5" class="node"><title>Node5</title>
<g id="a_node5"><a xlink:href="../../da/d33/glew_8h.html#af14e38e22806d0220680b52edbc3bcef" target="_top" xlink:title="glMatrixMode">
<polygon fill="white" stroke="black" points="418.5,-285.5 418.5,-304.5 493.5,-304.5 493.5,-285.5 418.5,-285.5"/>
<text text-anchor="middle" x="456" y="-292.5" font-family="Helvetica,sans-Serif" font-size="10.00">glMatrixMode</text>
</a>
</g>
</g>
<!-- Node2&#45;&gt;Node5 -->
<g id="edge4" class="edge"><title>Node2&#45;&gt;Node5</title>
<path fill="none" stroke="midnightblue" d="M328.21,-281.908C353.964,-284.567 383.984,-287.667 408.346,-290.182"/>
<polygon fill="midnightblue" stroke="midnightblue" points="408.105,-293.676 418.412,-291.222 408.824,-286.713 408.105,-293.676"/>
</g>
<!-- Node6 -->
<g id="node6" class="node"><title>Node6</title>
<g id="a_node6"><a xlink:href="../../da/d33/glew_8h.html#a6577472f85b23086331edadaf0311a49" target="_top" xlink:title="glLoadIdentity">
<polygon fill="white" stroke="black" points="417.5,-247.5 417.5,-266.5 494.5,-266.5 494.5,-247.5 417.5,-247.5"/>
<text text-anchor="middle" x="456" y="-254.5" font-family="Helvetica,sans-Serif" font-size="10.00">glLoadIdentity</text>
</a>
</g>
</g>
<!-- Node2&#45;&gt;Node6 -->
<g id="edge5" class="edge"><title>Node2&#45;&gt;Node6</title>
<path fill="none" stroke="midnightblue" d="M328.21,-270.092C353.595,-267.471 383.124,-264.422 407.295,-261.926"/>
<polygon fill="midnightblue" stroke="midnightblue" points="407.711,-265.402 417.298,-260.893 406.992,-258.439 407.711,-265.402"/>
</g>
<!-- Node7 -->
<g id="node7" class="node"><title>Node7</title>
<g id="a_node7"><a xlink:href="../../da/d33/glew_8h.html#a2d92120b1fad876057dfd00e2d942525" target="_top" xlink:title="glOrtho">
<polygon fill="white" stroke="black" points="432,-209.5 432,-228.5 480,-228.5 480,-209.5 432,-209.5"/>
<text text-anchor="middle" x="456" y="-216.5" font-family="Helvetica,sans-Serif" font-size="10.00">glOrtho</text>
</a>
</g>
</g>
<!-- Node2&#45;&gt;Node7 -->
<g id="edge6" class="edge"><title>Node2&#45;&gt;Node7</title>
<path fill="none" stroke="midnightblue" d="M299.276,-266.486C322.914,-258.612 357.554,-247.257 388,-238 399.045,-234.641 411.172,-231.145 422.037,-228.081"/>
<polygon fill="midnightblue" stroke="midnightblue" points="423.305,-231.361 431.991,-225.294 421.417,-224.62 423.305,-231.361"/>
</g>
<!-- Node9 -->
<g id="node9" class="node"><title>Node9</title>
<g id="a_node9"><a xlink:href="../../d9/d26/classProgramGPU.html#acd625b26fa073fc83ec0be9badb29635" target="_top" xlink:title="ProgramGPU::UseProgram">
<polygon fill="white" stroke="black" points="388,-171.5 388,-190.5 524,-190.5 524,-171.5 388,-171.5"/>
<text text-anchor="middle" x="456" y="-178.5" font-family="Helvetica,sans-Serif" font-size="10.00">ProgramGPU::UseProgram</text>
</a>
</g>
</g>
<!-- Node8&#45;&gt;Node9 -->
<g id="edge8" class="edge"><title>Node8&#45;&gt;Node9</title>
<path fill="none" stroke="midnightblue" d="M351.705,-191.666C360.38,-190.771 369.192,-189.861 377.824,-188.969"/>
<polygon fill="midnightblue" stroke="midnightblue" points="378.269,-192.442 387.857,-187.933 377.55,-185.479 378.269,-192.442"/>
</g>
</g>
</svg>
        <g id="navigator" transform="translate(0 0)" fill="#404254">
                <rect fill="#f2f5e9" fill-opacity="0.5" stroke="#606060" stroke-width=".5" x="0" y="0" width="60" height="60"/>
                <use id="zoomplus" xlink:href="#zoomPlus" x="17" y="9" onmousedown="handleZoom(evt,'in')"/>
                <use id="zoomminus" xlink:href="#zoomMin" x="42" y="9" onmousedown="handleZoom(evt,'out')"/>
                <use id="reset" xlink:href="#resetDef" x="30" y="36" onmousedown="handleReset()"/>
                <g id="arrowUp" xlink:href="#dirArrow" transform="translate(30 24)" onmousedown="handlePan(0,-1)">
                  <use xlink:href="#rim" fill="#404040">
                        <set attributeName="fill" to="#808080" begin="arrowUp.mouseover" end="arrowUp.mouseout"/>
                  </use>
                  <path fill="none" stroke="white" stroke-width="1.5" d="M0,-3.0v7 M-2.5,-0.5L0,-3.0L2.5,-0.5"/>
                </g>
                <g id="arrowRight" xlink:href="#dirArrow" transform="rotate(90) translate(36 -43)" onmousedown="handlePan(1,0)">
                  <use xlink:href="#rim" fill="#404040">
                        <set attributeName="fill" to="#808080" begin="arrowRight.mouseover" end="arrowRight.mouseout"/>
                  </use>
                  <path fill="none" stroke="white" stroke-width="1.5" d="M0,-3.0v7 M-2.5,-0.5L0,-3.0L2.5,-0.5"/>
                </g>
                <g id="arrowDown" xlink:href="#dirArrow" transform="rotate(180) translate(-30 -48)" onmousedown="handlePan(0,1)">
                  <use xlink:href="#rim" fill="#404040">
                        <set attributeName="fill" to="#808080" begin="arrowDown.mouseover" end="arrowDown.mouseout"/>
                  </use>
                  <path fill="none" stroke="white" stroke-width="1.5" d="M0,-3.0v7 M-2.5,-0.5L0,-3.0L2.5,-0.5"/>
                </g>
                <g id="arrowLeft" xlink:href="#dirArrow" transform="rotate(270) translate(-36 17)" onmousedown="handlePan(-1,0)">
                  <use xlink:href="#rim" fill="#404040">
                        <set attributeName="fill" to="#808080" begin="arrowLeft.mouseover" end="arrowLeft.mouseout"/>
                  </use>
                  <path fill="none" stroke="white" stroke-width="1.5" d="M0,-3.0v7 M-2.5,-0.5L0,-3.0L2.5,-0.5"/>
                </g>
        </g>
        <svg viewBox="0 0 15 15" width="100%" height="30px" preserveAspectRatio="xMaxYMin meet">
         <g id="arrow_out" transform="scale(0.3 0.3)">
          <a xlink:href="classGLTexImage_a226b3a7d373d82abc2c33e0ca4f1af76_cgraph_org.svg" target="_base">
           <rect id="button" ry="5" rx="5" y="6" x="6" height="38" width="38"
                fill="#f2f5e9" fill-opacity="0.5" stroke="#606060" stroke-width="1.0"/>
           <path id="arrow"
             d="M 11.500037,31.436501 C 11.940474,20.09759 22.043105,11.32322 32.158766,21.979434 L 37.068811,17.246167 C 37.068811,17.246167 37.088388,32 37.088388,32 L 22.160133,31.978069 C 22.160133,31.978069 26.997745,27.140456 26.997745,27.140456 C 18.528582,18.264221 13.291696,25.230495 11.500037,31.436501 z"
             style="fill:#404040;"/>
          </a>
         </g>
        </svg>
</svg>
