<?xml version="1.0" encoding="UTF-8" standalone="no"?>
<!DOCTYPE svg PUBLIC "-//W3C//DTD SVG 1.1//EN"
 "http://www.w3.org/Graphics/SVG/1.1/DTD/svg11.dtd">
<!-- Generated by graphviz version 2.36.0 (20140111.2315)
 -->
<!-- Title: GLTexImage::CopyFromPBO Pages: 1 -->
<svg width="324pt" height="66pt"
 viewBox="0.00 0.00 324.00 66.00" xmlns="http://www.w3.org/2000/svg" xmlns:xlink="http://www.w3.org/1999/xlink">
<g id="graph0" class="graph" transform="scale(1 1) rotate(0) translate(4 62)">
<title>GLTexImage::CopyFromPBO</title>
<polygon fill="white" stroke="none" points="-4,4 -4,-62 320,-62 320,4 -4,4"/>
<!-- Node1 -->
<g id="node1" class="node"><title>Node1</title>
<polygon fill="#bfbfbf" stroke="black" points="0,-19.5 0,-38.5 146,-38.5 146,-19.5 0,-19.5"/>
<text text-anchor="middle" x="73" y="-26.5" font-family="Helvetica,sans-Serif" font-size="10.00">GLTexImage::CopyFromPBO</text>
</g>
<!-- Node2 -->
<g id="node2" class="node"><title>Node2</title>
<g id="a_node2"><a xlink:href="../../da/d33/glew_8h.html#a83b997226c74c32cab88fef3fe9d2105" target="_top" xlink:title="glTexSubImage2D">
<polygon fill="white" stroke="black" points="200,-38.5 200,-57.5 298,-57.5 298,-38.5 200,-38.5"/>
<text text-anchor="middle" x="249" y="-45.5" font-family="Helvetica,sans-Serif" font-size="10.00">glTexSubImage2D</text>
</a>
</g>
</g>
<!-- Node1&#45;&gt;Node2 -->
<g id="edge1" class="edge"><title>Node1&#45;&gt;Node2</title>
<path fill="none" stroke="midnightblue" d="M146.028,-36.8652C160.624,-38.4589 175.798,-40.1159 189.842,-41.6495"/>
<polygon fill="midnightblue" stroke="midnightblue" points="189.524,-45.1354 199.844,-42.7416 190.283,-38.1767 189.524,-45.1354"/>
</g>
<!-- Node3 -->
<g id="node3" class="node"><title>Node3</title>
<g id="a_node3"><a xlink:href="../../d2/d55/classGlobalUtil.html#a06a72fe38986ca5861bf5404de35b3d2" target="_top" xlink:title="GlobalUtil::CheckErrorsGL">
<polygon fill="white" stroke="black" points="182.5,-0.5 182.5,-19.5 315.5,-19.5 315.5,-0.5 182.5,-0.5"/>
<text text-anchor="middle" x="249" y="-7.5" font-family="Helvetica,sans-Serif" font-size="10.00">GlobalUtil::CheckErrorsGL</text>
</a>
</g>
</g>
<!-- Node1&#45;&gt;Node3 -->
<g id="edge2" class="edge"><title>Node1&#45;&gt;Node3</title>
<path fill="none" stroke="midnightblue" d="M146.028,-21.1348C154.697,-20.1883 163.57,-19.2194 172.289,-18.2673"/>
<polygon fill="midnightblue" stroke="midnightblue" points="172.872,-21.7246 182.433,-17.1597 172.112,-14.7659 172.872,-21.7246"/>
</g>
</g>
</svg>
