<?xml version="1.0" encoding="UTF-8" standalone="no"?>
<!DOCTYPE svg PUBLIC "-//W3C//DTD SVG 1.1//EN"
 "http://www.w3.org/Graphics/SVG/1.1/DTD/svg11.dtd">
<!-- Generated by graphviz version 2.36.0 (20140111.2315)
 -->
<!-- Title: GLTexImage::DrawQuadReduction Pages: 1 -->
<svg width="274pt" height="142pt"
 viewBox="0.00 0.00 274.00 142.00" xmlns="http://www.w3.org/2000/svg" xmlns:xlink="http://www.w3.org/1999/xlink">
<g id="graph0" class="graph" transform="scale(1 1) rotate(0) translate(4 138)">
<title>GLTexImage::DrawQuadReduction</title>
<polygon fill="white" stroke="none" points="-4,4 -4,-138 270,-138 270,4 -4,4"/>
<!-- Node1 -->
<g id="node1" class="node"><title>Node1</title>
<polygon fill="#bfbfbf" stroke="black" points="0,-57.5 0,-76.5 170,-76.5 170,-57.5 0,-57.5"/>
<text text-anchor="middle" x="85" y="-64.5" font-family="Helvetica,sans-Serif" font-size="10.00">GLTexImage::DrawQuadReduction</text>
</g>
<!-- Node2 -->
<g id="node2" class="node"><title>Node2</title>
<g id="a_node2"><a xlink:href="../../da/d33/glew_8h.html#a98964453975519f92d6cc59ef77f7436" target="_top" xlink:title="glBegin">
<polygon fill="white" stroke="black" points="211.5,-114.5 211.5,-133.5 260.5,-133.5 260.5,-114.5 211.5,-114.5"/>
<text text-anchor="middle" x="236" y="-121.5" font-family="Helvetica,sans-Serif" font-size="10.00">glBegin</text>
</a>
</g>
</g>
<!-- Node1&#45;&gt;Node2 -->
<g id="edge1" class="edge"><title>Node1&#45;&gt;Node2</title>
<path fill="none" stroke="midnightblue" d="M110.939,-76.5405C135.878,-86.0809 174.378,-100.809 201.871,-111.326"/>
<polygon fill="midnightblue" stroke="midnightblue" points="200.866,-114.689 211.456,-114.993 203.367,-108.151 200.866,-114.689"/>
</g>
<!-- Node3 -->
<g id="node3" class="node"><title>Node3</title>
<g id="a_node3"><a xlink:href="../../da/d33/glew_8h.html#a43e94a9a0586067872b96a8a790e60bc" target="_top" xlink:title="glVertex2i">
<polygon fill="white" stroke="black" points="206,-76.5 206,-95.5 266,-95.5 266,-76.5 206,-76.5"/>
<text text-anchor="middle" x="236" y="-83.5" font-family="Helvetica,sans-Serif" font-size="10.00">glVertex2i</text>
</a>
</g>
</g>
<!-- Node1&#45;&gt;Node3 -->
<g id="edge2" class="edge"><title>Node1&#45;&gt;Node3</title>
<path fill="none" stroke="midnightblue" d="M160.937,-76.5557C172.894,-78.0804 184.836,-79.6033 195.531,-80.9671"/>
<polygon fill="midnightblue" stroke="midnightblue" points="195.403,-84.4789 205.765,-82.2721 196.288,-77.5352 195.403,-84.4789"/>
</g>
<!-- Node4 -->
<g id="node4" class="node"><title>Node4</title>
<g id="a_node4"><a xlink:href="../../da/d33/glew_8h.html#abbff207d1fa71b296ff35b149cef7238" target="_top" xlink:title="glEnd">
<polygon fill="white" stroke="black" points="215.5,-38.5 215.5,-57.5 256.5,-57.5 256.5,-38.5 215.5,-38.5"/>
<text text-anchor="middle" x="236" y="-45.5" font-family="Helvetica,sans-Serif" font-size="10.00">glEnd</text>
</a>
</g>
</g>
<!-- Node1&#45;&gt;Node4 -->
<g id="edge3" class="edge"><title>Node1&#45;&gt;Node4</title>
<path fill="none" stroke="midnightblue" d="M160.937,-57.4443C176.676,-55.4373 192.389,-53.4336 205.266,-51.7915"/>
<polygon fill="midnightblue" stroke="midnightblue" points="205.878,-55.242 215.354,-50.5051 204.992,-48.2983 205.878,-55.242"/>
</g>
<!-- Node5 -->
<g id="node5" class="node"><title>Node5</title>
<g id="a_node5"><a xlink:href="../../da/d33/glew_8h.html#afb3e087fc26a916a909d46ead9cfc44a" target="_top" xlink:title="glFlush">
<polygon fill="white" stroke="black" points="212,-0.5 212,-19.5 260,-19.5 260,-0.5 212,-0.5"/>
<text text-anchor="middle" x="236" y="-7.5" font-family="Helvetica,sans-Serif" font-size="10.00">glFlush</text>
</a>
</g>
</g>
<!-- Node1&#45;&gt;Node5 -->
<g id="edge4" class="edge"><title>Node1&#45;&gt;Node5</title>
<path fill="none" stroke="midnightblue" d="M110.939,-57.4595C136.026,-47.8626 174.834,-33.0167 202.357,-22.4874"/>
<polygon fill="midnightblue" stroke="midnightblue" points="203.852,-25.6633 211.941,-18.8213 201.35,-19.1254 203.852,-25.6633"/>
</g>
</g>
</svg>
