<?xml version="1.0" encoding="UTF-8" standalone="no"?>
<!DOCTYPE svg PUBLIC "-//W3C//DTD SVG 1.1//EN"
 "http://www.w3.org/Graphics/SVG/1.1/DTD/svg11.dtd">
<!-- Generated by graphviz version 2.36.0 (20140111.2315)
 -->
<!-- Title: GLTexImage::FitTexViewPort Pages: 1 -->
<svg width="420pt" height="180pt"
 viewBox="0.00 0.00 420.00 180.00" xmlns="http://www.w3.org/2000/svg" xmlns:xlink="http://www.w3.org/1999/xlink">
<g id="graph0" class="graph" transform="scale(1 1) rotate(0) translate(4 176)">
<title>GLTexImage::FitTexViewPort</title>
<polygon fill="white" stroke="none" points="-4,4 -4,-176 416,-176 416,4 -4,4"/>
<!-- Node1 -->
<g id="node1" class="node"><title>Node1</title>
<polygon fill="#bfbfbf" stroke="black" points="0,-76.5 0,-95.5 146,-95.5 146,-76.5 0,-76.5"/>
<text text-anchor="middle" x="73" y="-83.5" font-family="Helvetica,sans-Serif" font-size="10.00">GLTexImage::FitTexViewPort</text>
</g>
<!-- Node2 -->
<g id="node2" class="node"><title>Node2</title>
<g id="a_node2"><a xlink:href="../../d2/d55/classGlobalUtil.html#a30830c22f7574d8d6f5a5b0a0b31ad50" target="_top" xlink:title="GlobalUtil::FitViewPort">
<polygon fill="white" stroke="black" points="182,-76.5 182,-95.5 298,-95.5 298,-76.5 182,-76.5"/>
<text text-anchor="middle" x="240" y="-83.5" font-family="Helvetica,sans-Serif" font-size="10.00">GlobalUtil::FitViewPort</text>
</a>
</g>
</g>
<!-- Node1&#45;&gt;Node2 -->
<g id="edge1" class="edge"><title>Node1&#45;&gt;Node2</title>
<path fill="none" stroke="midnightblue" d="M146.371,-86C154.651,-86 163.07,-86 171.286,-86"/>
<polygon fill="midnightblue" stroke="midnightblue" points="171.559,-89.5001 181.559,-86 171.559,-82.5001 171.559,-89.5001"/>
</g>
<!-- Node3 -->
<g id="node3" class="node"><title>Node3</title>
<g id="a_node3"><a xlink:href="../../da/d33/glew_8h.html#ae9ebc290561b3321b629610807155a35" target="_top" xlink:title="glGetIntegerv">
<polygon fill="white" stroke="black" points="335.5,-152.5 335.5,-171.5 410.5,-171.5 410.5,-152.5 335.5,-152.5"/>
<text text-anchor="middle" x="373" y="-159.5" font-family="Helvetica,sans-Serif" font-size="10.00">glGetIntegerv</text>
</a>
</g>
</g>
<!-- Node2&#45;&gt;Node3 -->
<g id="edge2" class="edge"><title>Node2&#45;&gt;Node3</title>
<path fill="none" stroke="midnightblue" d="M255.905,-95.6862C274.077,-107.366 305.853,-127.375 334,-143 336.902,-144.611 339.958,-146.243 343.024,-147.838"/>
<polygon fill="midnightblue" stroke="midnightblue" points="341.609,-151.045 352.109,-152.458 344.782,-144.805 341.609,-151.045"/>
</g>
<!-- Node4 -->
<g id="node4" class="node"><title>Node4</title>
<g id="a_node4"><a xlink:href="../../da/d33/glew_8h.html#a8e93835e91933b7078c88f905dd8599c" target="_top" xlink:title="glViewport">
<polygon fill="white" stroke="black" points="342,-114.5 342,-133.5 404,-133.5 404,-114.5 342,-114.5"/>
<text text-anchor="middle" x="373" y="-121.5" font-family="Helvetica,sans-Serif" font-size="10.00">glViewport</text>
</a>
</g>
</g>
<!-- Node2&#45;&gt;Node4 -->
<g id="edge3" class="edge"><title>Node2&#45;&gt;Node4</title>
<path fill="none" stroke="midnightblue" d="M274.057,-95.589C291.661,-100.696 313.448,-107.016 332.001,-112.397"/>
<polygon fill="midnightblue" stroke="midnightblue" points="331.068,-115.771 341.648,-115.195 333.019,-109.048 331.068,-115.771"/>
</g>
<!-- Node5 -->
<g id="node5" class="node"><title>Node5</title>
<g id="a_node5"><a xlink:href="../../da/d33/glew_8h.html#af14e38e22806d0220680b52edbc3bcef" target="_top" xlink:title="glMatrixMode">
<polygon fill="white" stroke="black" points="335.5,-76.5 335.5,-95.5 410.5,-95.5 410.5,-76.5 335.5,-76.5"/>
<text text-anchor="middle" x="373" y="-83.5" font-family="Helvetica,sans-Serif" font-size="10.00">glMatrixMode</text>
</a>
</g>
</g>
<!-- Node2&#45;&gt;Node5 -->
<g id="edge4" class="edge"><title>Node2&#45;&gt;Node5</title>
<path fill="none" stroke="midnightblue" d="M298.077,-86C307.196,-86 316.536,-86 325.374,-86"/>
<polygon fill="midnightblue" stroke="midnightblue" points="325.477,-89.5001 335.477,-86 325.477,-82.5001 325.477,-89.5001"/>
</g>
<!-- Node6 -->
<g id="node6" class="node"><title>Node6</title>
<g id="a_node6"><a xlink:href="../../da/d33/glew_8h.html#a6577472f85b23086331edadaf0311a49" target="_top" xlink:title="glLoadIdentity">
<polygon fill="white" stroke="black" points="334.5,-38.5 334.5,-57.5 411.5,-57.5 411.5,-38.5 334.5,-38.5"/>
<text text-anchor="middle" x="373" y="-45.5" font-family="Helvetica,sans-Serif" font-size="10.00">glLoadIdentity</text>
</a>
</g>
</g>
<!-- Node2&#45;&gt;Node6 -->
<g id="edge5" class="edge"><title>Node2&#45;&gt;Node6</title>
<path fill="none" stroke="midnightblue" d="M274.057,-76.411C290.813,-71.5506 311.358,-65.5909 329.297,-60.3873"/>
<polygon fill="midnightblue" stroke="midnightblue" points="330.325,-63.7334 338.954,-57.5859 328.375,-57.0105 330.325,-63.7334"/>
</g>
<!-- Node7 -->
<g id="node7" class="node"><title>Node7</title>
<g id="a_node7"><a xlink:href="../../da/d33/glew_8h.html#a2d92120b1fad876057dfd00e2d942525" target="_top" xlink:title="glOrtho">
<polygon fill="white" stroke="black" points="349,-0.5 349,-19.5 397,-19.5 397,-0.5 349,-0.5"/>
<text text-anchor="middle" x="373" y="-7.5" font-family="Helvetica,sans-Serif" font-size="10.00">glOrtho</text>
</a>
</g>
</g>
<!-- Node2&#45;&gt;Node7 -->
<g id="edge6" class="edge"><title>Node2&#45;&gt;Node7</title>
<path fill="none" stroke="midnightblue" d="M255.905,-76.3138C274.077,-64.6336 305.853,-44.6246 334,-29 336.902,-27.3891 339.958,-25.7574 343.024,-24.1621"/>
<polygon fill="midnightblue" stroke="midnightblue" points="344.782,-27.1948 352.109,-19.5421 341.609,-20.9553 344.782,-27.1948"/>
</g>
</g>
</svg>
