<?xml version="1.0" encoding="UTF-8" standalone="no"?>
<!DOCTYPE svg PUBLIC "-//W3C//DTD SVG 1.1//EN"
 "http://www.w3.org/Graphics/SVG/1.1/DTD/svg11.dtd">
<!-- Generated by graphviz version 2.36.0 (20140111.2315)
 -->
<!-- Title: GLTexImage::TexConvertRGB Pages: 1 -->
<svg width="540pt" height="104pt"
 viewBox="0.00 0.00 540.00 104.00" xmlns="http://www.w3.org/2000/svg" xmlns:xlink="http://www.w3.org/1999/xlink">
<g id="graph0" class="graph" transform="scale(1 1) rotate(0) translate(4 100)">
<title>GLTexImage::TexConvertRGB</title>
<polygon fill="white" stroke="none" points="-4,4 -4,-100 536,-100 536,4 -4,4"/>
<!-- Node1 -->
<g id="node1" class="node"><title>Node1</title>
<polygon fill="#bfbfbf" stroke="black" points="0,-38.5 0,-57.5 152,-57.5 152,-38.5 0,-38.5"/>
<text text-anchor="middle" x="76" y="-45.5" font-family="Helvetica,sans-Serif" font-size="10.00">GLTexImage::TexConvertRGB</text>
</g>
<!-- Node2 -->
<g id="node2" class="node"><title>Node2</title>
<g id="a_node2"><a xlink:href="../../d4/d24/classShaderMan.html#a3db8e7e25049e43d44256326cffe1384" target="_top" xlink:title="ShaderMan::UseShaderRGB2Gray">
<polygon fill="white" stroke="black" points="188.5,-76.5 188.5,-95.5 357.5,-95.5 357.5,-76.5 188.5,-76.5"/>
<text text-anchor="middle" x="273" y="-83.5" font-family="Helvetica,sans-Serif" font-size="10.00">ShaderMan::UseShaderRGB2Gray</text>
</a>
</g>
</g>
<!-- Node1&#45;&gt;Node2 -->
<g id="edge1" class="edge"><title>Node1&#45;&gt;Node2</title>
<path fill="none" stroke="midnightblue" d="M125.955,-57.54C152.381,-62.6896 185.194,-69.084 213.02,-74.5065"/>
<polygon fill="midnightblue" stroke="midnightblue" points="212.54,-77.9787 223.025,-76.4561 213.879,-71.1079 212.54,-77.9787"/>
</g>
<!-- Node4 -->
<g id="node4" class="node"><title>Node4</title>
<g id="a_node4"><a xlink:href="../../da/d33/glew_8h.html#a170c1426633472880793e711b06ef0df" target="_top" xlink:title="glDrawBuffer">
<polygon fill="white" stroke="black" points="236,-38.5 236,-57.5 310,-57.5 310,-38.5 236,-38.5"/>
<text text-anchor="middle" x="273" y="-45.5" font-family="Helvetica,sans-Serif" font-size="10.00">glDrawBuffer</text>
</a>
</g>
</g>
<!-- Node1&#45;&gt;Node4 -->
<g id="edge3" class="edge"><title>Node1&#45;&gt;Node4</title>
<path fill="none" stroke="midnightblue" d="M152.113,-48C176.936,-48 203.805,-48 225.802,-48"/>
<polygon fill="midnightblue" stroke="midnightblue" points="225.859,-51.5001 235.859,-48 225.859,-44.5001 225.859,-51.5001"/>
</g>
<!-- Node5 -->
<g id="node5" class="node"><title>Node5</title>
<g id="a_node5"><a xlink:href="../../d4/d24/classShaderMan.html#a9e0bda881ceb8f67650029155d23c4aa" target="_top" xlink:title="ShaderMan::UnloadProgram">
<polygon fill="white" stroke="black" points="203,-0.5 203,-19.5 343,-19.5 343,-0.5 203,-0.5"/>
<text text-anchor="middle" x="273" y="-7.5" font-family="Helvetica,sans-Serif" font-size="10.00">ShaderMan::UnloadProgram</text>
</a>
</g>
</g>
<!-- Node1&#45;&gt;Node5 -->
<g id="edge4" class="edge"><title>Node1&#45;&gt;Node5</title>
<path fill="none" stroke="midnightblue" d="M125.955,-38.46C152.381,-33.3104 185.194,-26.916 213.02,-21.4935"/>
<polygon fill="midnightblue" stroke="midnightblue" points="213.879,-24.8921 223.025,-19.5439 212.54,-18.0213 213.879,-24.8921"/>
</g>
<!-- Node3 -->
<g id="node3" class="node"><title>Node3</title>
<g id="a_node3"><a xlink:href="../../d9/d26/classProgramGPU.html#acd625b26fa073fc83ec0be9badb29635" target="_top" xlink:title="ProgramGPU::UseProgram">
<polygon fill="white" stroke="black" points="395,-76.5 395,-95.5 531,-95.5 531,-76.5 395,-76.5"/>
<text text-anchor="middle" x="463" y="-83.5" font-family="Helvetica,sans-Serif" font-size="10.00">ProgramGPU::UseProgram</text>
</a>
</g>
</g>
<!-- Node2&#45;&gt;Node3 -->
<g id="edge2" class="edge"><title>Node2&#45;&gt;Node3</title>
<path fill="none" stroke="midnightblue" d="M357.554,-86C366.603,-86 375.783,-86 384.752,-86"/>
<polygon fill="midnightblue" stroke="midnightblue" points="384.772,-89.5001 394.772,-86 384.772,-82.5001 384.772,-89.5001"/>
</g>
<!-- Node6 -->
<g id="node6" class="node"><title>Node6</title>
<g id="a_node6"><a xlink:href="../../d9/d4e/classShaderBag.html#aacdddcf6984572013aec63a1d97b24b2" target="_top" xlink:title="ShaderBag::UnloadProgram">
<polygon fill="white" stroke="black" points="394,-0.5 394,-19.5 532,-19.5 532,-0.5 394,-0.5"/>
<text text-anchor="middle" x="463" y="-7.5" font-family="Helvetica,sans-Serif" font-size="10.00">ShaderBag::UnloadProgram</text>
</a>
</g>
</g>
<!-- Node5&#45;&gt;Node6 -->
<g id="edge5" class="edge"><title>Node5&#45;&gt;Node6</title>
<path fill="none" stroke="midnightblue" d="M343.203,-10C356.385,-10 370.268,-10 383.71,-10"/>
<polygon fill="midnightblue" stroke="midnightblue" points="383.884,-13.5001 393.884,-10 383.884,-6.5001 383.884,-13.5001"/>
</g>
</g>
</svg>
