<?xml version="1.0" encoding="UTF-8" standalone="no"?>
<!DOCTYPE svg PUBLIC "-//W3C//DTD SVG 1.1//EN"
 "http://www.w3.org/Graphics/SVG/1.1/DTD/svg11.dtd">
<!-- Generated by graphviz version 2.36.0 (20140111.2315)
 -->
<!-- Title: GLTexImage::DrawQuad Pages: 1 -->
<svg width="246pt" height="180pt"
 viewBox="0.00 0.00 246.00 180.00" xmlns="http://www.w3.org/2000/svg" xmlns:xlink="http://www.w3.org/1999/xlink">
<g id="graph0" class="graph" transform="scale(1 1) rotate(0) translate(4 176)">
<title>GLTexImage::DrawQuad</title>
<polygon fill="white" stroke="none" points="-4,4 -4,-176 242,-176 242,4 -4,4"/>
<!-- Node1 -->
<g id="node1" class="node"><title>Node1</title>
<polygon fill="#bfbfbf" stroke="black" points="0.5,-76.5 0.5,-95.5 125.5,-95.5 125.5,-76.5 0.5,-76.5"/>
<text text-anchor="middle" x="63" y="-83.5" font-family="Helvetica,sans-Serif" font-size="10.00">GLTexImage::DrawQuad</text>
</g>
<!-- Node2 -->
<g id="node2" class="node"><title>Node2</title>
<g id="a_node2"><a xlink:href="../../da/d33/glew_8h.html#a98964453975519f92d6cc59ef77f7436" target="_top" xlink:title="glBegin">
<polygon fill="white" stroke="black" points="175.5,-152.5 175.5,-171.5 224.5,-171.5 224.5,-152.5 175.5,-152.5"/>
<text text-anchor="middle" x="200" y="-159.5" font-family="Helvetica,sans-Serif" font-size="10.00">glBegin</text>
</a>
</g>
</g>
<!-- Node1&#45;&gt;Node2 -->
<g id="edge1" class="edge"><title>Node1&#45;&gt;Node2</title>
<path fill="none" stroke="midnightblue" d="M79.8101,-95.539C99.0615,-107.074 132.646,-126.941 162,-143 164.762,-144.511 167.656,-146.058 170.557,-147.586"/>
<polygon fill="midnightblue" stroke="midnightblue" points="169.208,-150.829 179.696,-152.328 172.432,-144.615 169.208,-150.829"/>
</g>
<!-- Node3 -->
<g id="node3" class="node"><title>Node3</title>
<g id="a_node3"><a xlink:href="../../da/d33/glew_8h.html#a09db6f9fa0d39ef7e3919e6212296ece" target="_top" xlink:title="glTexCoord2f">
<polygon fill="white" stroke="black" points="162.5,-114.5 162.5,-133.5 237.5,-133.5 237.5,-114.5 162.5,-114.5"/>
<text text-anchor="middle" x="200" y="-121.5" font-family="Helvetica,sans-Serif" font-size="10.00">glTexCoord2f</text>
</a>
</g>
</g>
<!-- Node1&#45;&gt;Node3 -->
<g id="edge2" class="edge"><title>Node1&#45;&gt;Node3</title>
<path fill="none" stroke="midnightblue" d="M98.0662,-95.589C115.413,-100.472 136.702,-106.464 155.249,-111.685"/>
<polygon fill="midnightblue" stroke="midnightblue" points="154.37,-115.074 164.945,-114.414 156.267,-108.335 154.37,-115.074"/>
</g>
<!-- Node4 -->
<g id="node4" class="node"><title>Node4</title>
<g id="a_node4"><a xlink:href="../../da/d33/glew_8h.html#a474f4498ace02f86e7f299eb8bf27da3" target="_top" xlink:title="glVertex2f">
<polygon fill="white" stroke="black" points="169.5,-76.5 169.5,-95.5 230.5,-95.5 230.5,-76.5 169.5,-76.5"/>
<text text-anchor="middle" x="200" y="-83.5" font-family="Helvetica,sans-Serif" font-size="10.00">glVertex2f</text>
</a>
</g>
</g>
<!-- Node1&#45;&gt;Node4 -->
<g id="edge3" class="edge"><title>Node1&#45;&gt;Node4</title>
<path fill="none" stroke="midnightblue" d="M125.574,-86C136.944,-86 148.54,-86 159.058,-86"/>
<polygon fill="midnightblue" stroke="midnightblue" points="159.169,-89.5001 169.169,-86 159.169,-82.5001 159.169,-89.5001"/>
</g>
<!-- Node5 -->
<g id="node5" class="node"><title>Node5</title>
<g id="a_node5"><a xlink:href="../../da/d33/glew_8h.html#abbff207d1fa71b296ff35b149cef7238" target="_top" xlink:title="glEnd">
<polygon fill="white" stroke="black" points="179.5,-38.5 179.5,-57.5 220.5,-57.5 220.5,-38.5 179.5,-38.5"/>
<text text-anchor="middle" x="200" y="-45.5" font-family="Helvetica,sans-Serif" font-size="10.00">glEnd</text>
</a>
</g>
</g>
<!-- Node1&#45;&gt;Node5 -->
<g id="edge4" class="edge"><title>Node1&#45;&gt;Node5</title>
<path fill="none" stroke="midnightblue" d="M98.0662,-76.411C120.084,-70.2135 148.45,-62.2288 169.502,-56.3031"/>
<polygon fill="midnightblue" stroke="midnightblue" points="170.511,-59.6551 179.189,-53.5764 168.615,-52.9169 170.511,-59.6551"/>
</g>
<!-- Node6 -->
<g id="node6" class="node"><title>Node6</title>
<g id="a_node6"><a xlink:href="../../da/d33/glew_8h.html#afb3e087fc26a916a909d46ead9cfc44a" target="_top" xlink:title="glFlush">
<polygon fill="white" stroke="black" points="176,-0.5 176,-19.5 224,-19.5 224,-0.5 176,-0.5"/>
<text text-anchor="middle" x="200" y="-7.5" font-family="Helvetica,sans-Serif" font-size="10.00">glFlush</text>
</a>
</g>
</g>
<!-- Node1&#45;&gt;Node6 -->
<g id="edge5" class="edge"><title>Node1&#45;&gt;Node6</title>
<path fill="none" stroke="midnightblue" d="M79.8101,-76.461C99.0615,-64.9257 132.646,-45.0594 162,-29 164.762,-27.4891 167.656,-25.9419 170.557,-24.4144"/>
<polygon fill="midnightblue" stroke="midnightblue" points="172.432,-27.3846 179.696,-19.6716 169.208,-21.1715 172.432,-27.3846"/>
</g>
</g>
</svg>
