<?xml version="1.0" encoding="UTF-8" standalone="no"?>
<!DOCTYPE svg PUBLIC "-//W3C//DTD SVG 1.1//EN"
 "http://www.w3.org/Graphics/SVG/1.1/DTD/svg11.dtd">
<!-- Generated by graphviz version 2.36.0 (20140111.2315)
 -->
<!-- Title: GLTexImage::DrawScaledQuad Pages: 1 -->
<svg width="276pt" height="180pt"
 viewBox="0.00 0.00 276.00 180.00" xmlns="http://www.w3.org/2000/svg" xmlns:xlink="http://www.w3.org/1999/xlink">
<g id="graph0" class="graph" transform="scale(1 1) rotate(0) translate(4 176)">
<title>GLTexImage::DrawScaledQuad</title>
<polygon fill="white" stroke="none" points="-4,4 -4,-176 272,-176 272,4 -4,4"/>
<!-- Node1 -->
<g id="node1" class="node"><title>Node1</title>
<polygon fill="#bfbfbf" stroke="black" points="0.5,-76.5 0.5,-95.5 155.5,-95.5 155.5,-76.5 0.5,-76.5"/>
<text text-anchor="middle" x="78" y="-83.5" font-family="Helvetica,sans-Serif" font-size="10.00">GLTexImage::DrawScaledQuad</text>
</g>
<!-- Node2 -->
<g id="node2" class="node"><title>Node2</title>
<g id="a_node2"><a xlink:href="../../da/d33/glew_8h.html#a98964453975519f92d6cc59ef77f7436" target="_top" xlink:title="glBegin">
<polygon fill="white" stroke="black" points="205.5,-152.5 205.5,-171.5 254.5,-171.5 254.5,-152.5 205.5,-152.5"/>
<text text-anchor="middle" x="230" y="-159.5" font-family="Helvetica,sans-Serif" font-size="10.00">glBegin</text>
</a>
</g>
</g>
<!-- Node1&#45;&gt;Node2 -->
<g id="edge1" class="edge"><title>Node1&#45;&gt;Node2</title>
<path fill="none" stroke="midnightblue" d="M97.9976,-95.6255C124.033,-108.817 170.987,-132.607 201.041,-147.834"/>
<polygon fill="midnightblue" stroke="midnightblue" points="199.654,-151.055 210.157,-152.453 202.818,-144.811 199.654,-151.055"/>
</g>
<!-- Node3 -->
<g id="node3" class="node"><title>Node3</title>
<g id="a_node3"><a xlink:href="../../da/d33/glew_8h.html#a09db6f9fa0d39ef7e3919e6212296ece" target="_top" xlink:title="glTexCoord2f">
<polygon fill="white" stroke="black" points="192.5,-114.5 192.5,-133.5 267.5,-133.5 267.5,-114.5 192.5,-114.5"/>
<text text-anchor="middle" x="230" y="-121.5" font-family="Helvetica,sans-Serif" font-size="10.00">glTexCoord2f</text>
</a>
</g>
</g>
<!-- Node1&#45;&gt;Node3 -->
<g id="edge2" class="edge"><title>Node1&#45;&gt;Node3</title>
<path fill="none" stroke="midnightblue" d="M116.851,-95.589C136.856,-100.657 161.578,-106.92 182.716,-112.275"/>
<polygon fill="midnightblue" stroke="midnightblue" points="181.902,-115.679 192.456,-114.742 183.622,-108.893 181.902,-115.679"/>
</g>
<!-- Node4 -->
<g id="node4" class="node"><title>Node4</title>
<g id="a_node4"><a xlink:href="../../da/d33/glew_8h.html#a43e94a9a0586067872b96a8a790e60bc" target="_top" xlink:title="glVertex2i">
<polygon fill="white" stroke="black" points="200,-76.5 200,-95.5 260,-95.5 260,-76.5 200,-76.5"/>
<text text-anchor="middle" x="230" y="-83.5" font-family="Helvetica,sans-Serif" font-size="10.00">glVertex2i</text>
</a>
</g>
</g>
<!-- Node1&#45;&gt;Node4 -->
<g id="edge3" class="edge"><title>Node1&#45;&gt;Node4</title>
<path fill="none" stroke="midnightblue" d="M155.758,-86C167.543,-86 179.27,-86 189.774,-86"/>
<polygon fill="midnightblue" stroke="midnightblue" points="189.828,-89.5001 199.828,-86 189.828,-82.5001 189.828,-89.5001"/>
</g>
<!-- Node5 -->
<g id="node5" class="node"><title>Node5</title>
<g id="a_node5"><a xlink:href="../../da/d33/glew_8h.html#abbff207d1fa71b296ff35b149cef7238" target="_top" xlink:title="glEnd">
<polygon fill="white" stroke="black" points="209.5,-38.5 209.5,-57.5 250.5,-57.5 250.5,-38.5 209.5,-38.5"/>
<text text-anchor="middle" x="230" y="-45.5" font-family="Helvetica,sans-Serif" font-size="10.00">glEnd</text>
</a>
</g>
</g>
<!-- Node1&#45;&gt;Node5 -->
<g id="edge4" class="edge"><title>Node1&#45;&gt;Node5</title>
<path fill="none" stroke="midnightblue" d="M116.851,-76.411C142.405,-69.9375 175.655,-61.514 199.3,-55.5239"/>
<polygon fill="midnightblue" stroke="midnightblue" points="200.276,-58.8874 209.11,-53.0387 198.557,-52.1018 200.276,-58.8874"/>
</g>
<!-- Node6 -->
<g id="node6" class="node"><title>Node6</title>
<g id="a_node6"><a xlink:href="../../da/d33/glew_8h.html#afb3e087fc26a916a909d46ead9cfc44a" target="_top" xlink:title="glFlush">
<polygon fill="white" stroke="black" points="206,-0.5 206,-19.5 254,-19.5 254,-0.5 206,-0.5"/>
<text text-anchor="middle" x="230" y="-7.5" font-family="Helvetica,sans-Serif" font-size="10.00">glFlush</text>
</a>
</g>
</g>
<!-- Node1&#45;&gt;Node6 -->
<g id="edge5" class="edge"><title>Node1&#45;&gt;Node6</title>
<path fill="none" stroke="midnightblue" d="M97.9976,-76.3745C124.033,-63.1832 170.987,-39.3932 201.041,-24.166"/>
<polygon fill="midnightblue" stroke="midnightblue" points="202.818,-27.1891 210.157,-19.5473 199.654,-20.9449 202.818,-27.1891"/>
</g>
</g>
</svg>
