<?xml version="1.0" encoding="UTF-8" standalone="no"?>
<!DOCTYPE svg PUBLIC "-//W3C//DTD SVG 1.1//EN"
 "http://www.w3.org/Graphics/SVG/1.1/DTD/svg11.dtd">
<!-- Generated by graphviz version 2.36.0 (20140111.2315)
 -->
<!-- Title: lsd_slam::DepthMap Pages: 1 -->
<svg width="341pt" height="490pt"
 viewBox="0.00 0.00 341.00 490.00" xmlns="http://www.w3.org/2000/svg" xmlns:xlink="http://www.w3.org/1999/xlink">
<g id="graph0" class="graph" transform="scale(1 1) rotate(0) translate(4 486)">
<title>lsd_slam::DepthMap</title>
<polygon fill="white" stroke="none" points="-4,4 -4,-486 337,-486 337,4 -4,4"/>
<!-- Node1 -->
<g id="node1" class="node"><title>Node1</title>
<polygon fill="#bfbfbf" stroke="black" points="63.5,-0.5 63.5,-321.5 192.5,-321.5 192.5,-0.5 63.5,-0.5"/>
<text text-anchor="middle" x="128" y="-309.5" font-family="Helvetica,sans-Serif" font-size="10.00">lsd_slam::DepthMap</text>
<polyline fill="none" stroke="black" points="63.5,-302.5 192.5,-302.5 "/>
<text text-anchor="start" x="71.5" y="-290.5" font-family="Helvetica,sans-Serif" font-size="10.00">+ msUpdate</text>
<text text-anchor="start" x="71.5" y="-279.5" font-family="Helvetica,sans-Serif" font-size="10.00">+ msCreate</text>
<text text-anchor="start" x="71.5" y="-268.5" font-family="Helvetica,sans-Serif" font-size="10.00">+ msFinalize</text>
<text text-anchor="start" x="71.5" y="-257.5" font-family="Helvetica,sans-Serif" font-size="10.00">+ msObserve</text>
<text text-anchor="start" x="71.5" y="-246.5" font-family="Helvetica,sans-Serif" font-size="10.00">+ msRegularize</text>
<text text-anchor="start" x="71.5" y="-235.5" font-family="Helvetica,sans-Serif" font-size="10.00">+ msPropagate</text>
<text text-anchor="start" x="71.5" y="-224.5" font-family="Helvetica,sans-Serif" font-size="10.00">+ msFillHoles</text>
<text text-anchor="start" x="71.5" y="-213.5" font-family="Helvetica,sans-Serif" font-size="10.00">+ msSetDepth</text>
<text text-anchor="start" x="71.5" y="-202.5" font-family="Helvetica,sans-Serif" font-size="10.00">+ nUpdate</text>
<text text-anchor="start" x="71.5" y="-191.5" font-family="Helvetica,sans-Serif" font-size="10.00">+ nCreate</text>
<text text-anchor="start" x="71.5" y="-180.5" font-family="Helvetica,sans-Serif" font-size="10.00">and 15 more...</text>
<polyline fill="none" stroke="black" points="63.5,-173.5 192.5,-173.5 "/>
<text text-anchor="start" x="71.5" y="-161.5" font-family="Helvetica,sans-Serif" font-size="10.00">+ DepthMap()</text>
<text text-anchor="start" x="71.5" y="-150.5" font-family="Helvetica,sans-Serif" font-size="10.00">+ DepthMap()</text>
<text text-anchor="start" x="71.5" y="-139.5" font-family="Helvetica,sans-Serif" font-size="10.00">+ operator=()</text>
<text text-anchor="start" x="71.5" y="-128.5" font-family="Helvetica,sans-Serif" font-size="10.00">+ ~DepthMap()</text>
<text text-anchor="start" x="71.5" y="-117.5" font-family="Helvetica,sans-Serif" font-size="10.00">+ reset()</text>
<text text-anchor="start" x="71.5" y="-106.5" font-family="Helvetica,sans-Serif" font-size="10.00">+ updateKeyframe()</text>
<text text-anchor="start" x="71.5" y="-95.5" font-family="Helvetica,sans-Serif" font-size="10.00">+ createKeyFrame()</text>
<text text-anchor="start" x="71.5" y="-84.5" font-family="Helvetica,sans-Serif" font-size="10.00">+ finalizeKeyFrame()</text>
<text text-anchor="start" x="71.5" y="-73.5" font-family="Helvetica,sans-Serif" font-size="10.00">+ invalidate()</text>
<text text-anchor="start" x="71.5" y="-62.5" font-family="Helvetica,sans-Serif" font-size="10.00">+ isValid()</text>
<text text-anchor="start" x="71.5" y="-51.5" font-family="Helvetica,sans-Serif" font-size="10.00">+ debugPlotDepthMap()</text>
<text text-anchor="start" x="71.5" y="-40.5" font-family="Helvetica,sans-Serif" font-size="10.00">+ initializeFromGTDepth()</text>
<text text-anchor="start" x="71.5" y="-29.5" font-family="Helvetica,sans-Serif" font-size="10.00">+ initializeRandomly()</text>
<text text-anchor="start" x="71.5" y="-18.5" font-family="Helvetica,sans-Serif" font-size="10.00">+ setFromExistingKF()</text>
<text text-anchor="start" x="71.5" y="-7.5" font-family="Helvetica,sans-Serif" font-size="10.00">+ addTimingSample()</text>
</g>
<!-- Node2 -->
<g id="node2" class="node"><title>Node2</title>
<g id="a_node2"><a xlink:href="../../de/d11/classlsd__slam_1_1IndexThreadReduce.html" target="_top" xlink:title="{lsd_slam::IndexThreadReduce\n||+ IndexThreadReduce()\l+ ~IndexThreadReduce()\l+ reduce()\l}">
<polygon fill="white" stroke="black" points="-0.5,-402.5 -0.5,-481.5 148.5,-481.5 148.5,-402.5 -0.5,-402.5"/>
<text text-anchor="middle" x="74" y="-469.5" font-family="Helvetica,sans-Serif" font-size="10.00">lsd_slam::IndexThreadReduce</text>
<polyline fill="none" stroke="black" points="-0.5,-462.5 148.5,-462.5 "/>
<text text-anchor="middle" x="74" y="-450.5" font-family="Helvetica,sans-Serif" font-size="10.00"> </text>
<polyline fill="none" stroke="black" points="-0.5,-443.5 148.5,-443.5 "/>
<text text-anchor="start" x="7.5" y="-431.5" font-family="Helvetica,sans-Serif" font-size="10.00">+ IndexThreadReduce()</text>
<text text-anchor="start" x="7.5" y="-420.5" font-family="Helvetica,sans-Serif" font-size="10.00">+ ~IndexThreadReduce()</text>
<text text-anchor="start" x="7.5" y="-409.5" font-family="Helvetica,sans-Serif" font-size="10.00">+ reduce()</text>
</a>
</g>
</g>
<!-- Node2&#45;&gt;Node1 -->
<g id="edge1" class="edge"><title>Node2&#45;&gt;Node1</title>
<path fill="none" stroke="#404040" d="M78.6315,-402.031C81.0625,-383.227 84.3044,-360.379 88,-340 88.3691,-337.965 88.7454,-335.917 89.1283,-333.86"/>
<polygon fill="none" stroke="#404040" points="89.1458,-333.767 86.338,-327.125 91.3892,-321.979 94.197,-328.621 89.1458,-333.767"/>
<text text-anchor="middle" x="124.5" y="-359.5" font-family="Helvetica,sans-Serif" font-size="10.00"> +threadReducer</text>
</g>
<!-- Node3 -->
<g id="node3" class="node"><title>Node3</title>
<polygon fill="white" stroke="#bfbfbf" points="166.5,-413.5 166.5,-470.5 199.5,-470.5 199.5,-413.5 166.5,-413.5"/>
<text text-anchor="middle" x="183" y="-458.5" font-family="Helvetica,sans-Serif" font-size="10.00">Mat</text>
<polyline fill="none" stroke="#bfbfbf" points="166.5,-451.5 199.5,-451.5 "/>
<text text-anchor="middle" x="183" y="-439.5" font-family="Helvetica,sans-Serif" font-size="10.00"> </text>
<polyline fill="none" stroke="#bfbfbf" points="166.5,-432.5 199.5,-432.5 "/>
<text text-anchor="middle" x="183" y="-420.5" font-family="Helvetica,sans-Serif" font-size="10.00"> </text>
</g>
<!-- Node3&#45;&gt;Node1 -->
<g id="edge2" class="edge"><title>Node3&#45;&gt;Node1</title>
<path fill="none" stroke="#404040" d="M177.576,-413.485C173.647,-393.554 167.968,-364.746 161.845,-333.687"/>
<polygon fill="none" stroke="#404040" points="161.8,-333.46 156.715,-328.347 159.479,-321.687 164.564,-326.8 161.8,-333.46"/>
<text text-anchor="middle" x="252.5" y="-376" font-family="Helvetica,sans-Serif" font-size="10.00"> +debugImageDepth</text>
<text text-anchor="middle" x="252.5" y="-365" font-family="Helvetica,sans-Serif" font-size="10.00">+debugImageHypothesisPropagation</text>
<text text-anchor="middle" x="252.5" y="-354" font-family="Helvetica,sans-Serif" font-size="10.00">+debugImageStereoLines</text>
<text text-anchor="middle" x="252.5" y="-343" font-family="Helvetica,sans-Serif" font-size="10.00">+debugImageHypothesisHandling</text>
</g>
</g>
</svg>
