<?xml version="1.0" encoding="UTF-8" standalone="no"?>
<!DOCTYPE svg PUBLIC "-//W3C//DTD SVG 1.1//EN"
 "http://www.w3.org/Graphics/SVG/1.1/DTD/svg11.dtd">
<!-- Generated by graphviz version 2.36.0 (20140111.2315)
 -->
<!-- Title: src/matching_result.h Pages: 1 -->
<svg width="940pt" height="264pt"
 viewBox="0.00 0.00 940.00 264.00" xmlns="http://www.w3.org/2000/svg" xmlns:xlink="http://www.w3.org/1999/xlink">
<g id="graph0" class="graph" transform="scale(1 1) rotate(0) translate(4 260)">
<title>src/matching_result.h</title>
<polygon fill="white" stroke="none" points="-4,4 -4,-260 936,-260 936,4 -4,4"/>
<!-- Node1 -->
<g id="node1" class="node"><title>Node1</title>
<polygon fill="#bfbfbf" stroke="black" points="130,-236.5 130,-255.5 240,-255.5 240,-236.5 130,-236.5"/>
<text text-anchor="middle" x="185" y="-243.5" font-family="Helvetica,sans-Serif" font-size="10.00">src/matching_result.h</text>
</g>
<!-- Node2 -->
<g id="node2" class="node"><title>Node2</title>
<g id="a_node2"><a xlink:href="../../d1/d77/node_8h.html" target="_top" xlink:title="src/node.h">
<polygon fill="white" stroke="black" points="154,-180.5 154,-199.5 216,-199.5 216,-180.5 154,-180.5"/>
<text text-anchor="middle" x="185" y="-187.5" font-family="Helvetica,sans-Serif" font-size="10.00">src/node.h</text>
</a>
</g>
</g>
<!-- Node1&#45;&gt;Node2 -->
<g id="edge1" class="edge"><title>Node1&#45;&gt;Node2</title>
<path fill="none" stroke="midnightblue" d="M185,-225.805C185,-216.91 185,-206.78 185,-199.751"/>
<polygon fill="midnightblue" stroke="midnightblue" points="181.5,-226.083 185,-236.083 188.5,-226.083 181.5,-226.083"/>
</g>
<!-- Node12 -->
<g id="node12" class="node"><title>Node12</title>
<g id="a_node12"><a xlink:href="../../d9/db7/landmark_8h.html" target="_top" xlink:title="src/landmark.h">
<polygon fill="white" stroke="black" points="10.5,-118.5 10.5,-137.5 91.5,-137.5 91.5,-118.5 10.5,-118.5"/>
<text text-anchor="middle" x="51" y="-125.5" font-family="Helvetica,sans-Serif" font-size="10.00">src/landmark.h</text>
</a>
</g>
</g>
<!-- Node1&#45;&gt;Node12 -->
<g id="edge17" class="edge"><title>Node1&#45;&gt;Node12</title>
<path fill="none" stroke="midnightblue" d="M167.303,-229.68C138.712,-204.93 83.2978,-156.959 60.8245,-137.505"/>
<polygon fill="midnightblue" stroke="midnightblue" points="165.077,-232.382 174.928,-236.281 169.658,-227.09 165.077,-232.382"/>
</g>
<!-- Node17 -->
<g id="node17" class="node"><title>Node17</title>
<g id="a_node17"><a xlink:href="../../d2/d4f/matching__result_8cpp.html" target="_top" xlink:title="src/matching_result.cpp">
<polygon fill="white" stroke="black" points="233.5,-180.5 233.5,-199.5 354.5,-199.5 354.5,-180.5 233.5,-180.5"/>
<text text-anchor="middle" x="294" y="-187.5" font-family="Helvetica,sans-Serif" font-size="10.00">src/matching_result.cpp</text>
</a>
</g>
</g>
<!-- Node1&#45;&gt;Node17 -->
<g id="edge18" class="edge"><title>Node1&#45;&gt;Node17</title>
<path fill="none" stroke="midnightblue" d="M211.519,-231.862C231.73,-221.849 258.987,-208.346 276.531,-199.655"/>
<polygon fill="midnightblue" stroke="midnightblue" points="209.92,-228.748 202.513,-236.324 213.027,-235.021 209.92,-228.748"/>
</g>
<!-- Node3 -->
<g id="node3" class="node"><title>Node3</title>
<g id="a_node3"><a xlink:href="../../de/d83/graph__manager_8h.html" target="_top" xlink:title="src/graph_manager.h">
<polygon fill="white" stroke="black" points="503,-118.5 503,-137.5 611,-137.5 611,-118.5 503,-118.5"/>
<text text-anchor="middle" x="557" y="-125.5" font-family="Helvetica,sans-Serif" font-size="10.00">src/graph_manager.h</text>
</a>
</g>
</g>
<!-- Node2&#45;&gt;Node3 -->
<g id="edge2" class="edge"><title>Node2&#45;&gt;Node3</title>
<path fill="none" stroke="midnightblue" d="M225.883,-179.791C344.853,-158.75 378.101,-165.467 494,-144 503.729,-142.198 514.213,-139.862 523.784,-137.573"/>
<polygon fill="midnightblue" stroke="midnightblue" points="225.248,-176.349 216.025,-181.563 226.487,-183.238 225.248,-176.349"/>
</g>
<!-- Node11 -->
<g id="node11" class="node"><title>Node11</title>
<g id="a_node11"><a xlink:href="../../db/d34/openni__listener_8cpp.html" target="_top" xlink:title="src/openni_listener.cpp">
<polygon fill="white" stroke="black" points="244.5,-0.5 244.5,-19.5 361.5,-19.5 361.5,-0.5 244.5,-0.5"/>
<text text-anchor="middle" x="303" y="-7.5" font-family="Helvetica,sans-Serif" font-size="10.00">src/openni_listener.cpp</text>
</a>
</g>
</g>
<!-- Node2&#45;&gt;Node11 -->
<g id="edge14" class="edge"><title>Node2&#45;&gt;Node11</title>
<path fill="none" stroke="midnightblue" d="M163.287,-174.066C153.944,-166.308 144.026,-155.947 139,-144 123.835,-107.949 115.284,-87.1002 139,-56 151.935,-39.0377 202.519,-26.8869 244.129,-19.5202"/>
<polygon fill="midnightblue" stroke="midnightblue" points="161.16,-176.845 171.213,-180.189 165.439,-171.306 161.16,-176.845"/>
</g>
<!-- Node2&#45;&gt;Node12 -->
<g id="edge11" class="edge"><title>Node2&#45;&gt;Node12</title>
<path fill="none" stroke="midnightblue" d="M156.46,-176.221C130.445,-164.573 92.7351,-147.687 70.1633,-137.581"/>
<polygon fill="midnightblue" stroke="midnightblue" points="155.244,-179.511 165.801,-180.403 158.105,-173.122 155.244,-179.511"/>
</g>
<!-- Node14 -->
<g id="node14" class="node"><title>Node14</title>
<g id="a_node14"><a xlink:href="../../d7/d70/node_8cpp.html" target="_top" xlink:title="src/node.cpp">
<polygon fill="white" stroke="black" points="148.5,-118.5 148.5,-137.5 221.5,-137.5 221.5,-118.5 148.5,-118.5"/>
<text text-anchor="middle" x="185" y="-125.5" font-family="Helvetica,sans-Serif" font-size="10.00">src/node.cpp</text>
</a>
</g>
</g>
<!-- Node2&#45;&gt;Node14 -->
<g id="edge13" class="edge"><title>Node2&#45;&gt;Node14</title>
<path fill="none" stroke="midnightblue" d="M185,-170.16C185,-159.248 185,-146.04 185,-137.581"/>
<polygon fill="midnightblue" stroke="midnightblue" points="181.5,-170.403 185,-180.403 188.5,-170.403 181.5,-170.403"/>
</g>
<!-- Node15 -->
<g id="node15" class="node"><title>Node15</title>
<g id="a_node15"><a xlink:href="../../db/de8/transformation__estimation_8cpp.html" target="_top" xlink:title="src/transformation\l_estimation.cpp">
<polygon fill="white" stroke="black" points="239.5,-113 239.5,-143 334.5,-143 334.5,-113 239.5,-113"/>
<text text-anchor="start" x="247.5" y="-131" font-family="Helvetica,sans-Serif" font-size="10.00">src/transformation</text>
<text text-anchor="middle" x="287" y="-120" font-family="Helvetica,sans-Serif" font-size="10.00">_estimation.cpp</text>
</a>
</g>
</g>
<!-- Node2&#45;&gt;Node15 -->
<g id="edge15" class="edge"><title>Node2&#45;&gt;Node15</title>
<path fill="none" stroke="midnightblue" d="M208.527,-175.161C224.85,-165.559 246.526,-152.808 262.961,-143.141"/>
<polygon fill="midnightblue" stroke="midnightblue" points="206.459,-172.316 199.614,-180.403 210.008,-178.35 206.459,-172.316"/>
</g>
<!-- Node16 -->
<g id="node16" class="node"><title>Node16</title>
<g id="a_node16"><a xlink:href="../../d7/de3/transformation__estimation__euclidean_8cpp.html" target="_top" xlink:title="src/transformation\l_estimation_euclidean.cpp">
<polygon fill="white" stroke="black" points="353,-113 353,-143 485,-143 485,-113 353,-113"/>
<text text-anchor="start" x="361" y="-131" font-family="Helvetica,sans-Serif" font-size="10.00">src/transformation</text>
<text text-anchor="middle" x="419" y="-120" font-family="Helvetica,sans-Serif" font-size="10.00">_estimation_euclidean.cpp</text>
</a>
</g>
</g>
<!-- Node2&#45;&gt;Node16 -->
<g id="edge16" class="edge"><title>Node2&#45;&gt;Node16</title>
<path fill="none" stroke="midnightblue" d="M225.854,-178.525C264.147,-168.706 321.678,-153.954 363.995,-143.104"/>
<polygon fill="midnightblue" stroke="midnightblue" points="224.891,-175.158 216.073,-181.032 226.629,-181.939 224.891,-175.158"/>
</g>
<!-- Node4 -->
<g id="node4" class="node"><title>Node4</title>
<g id="a_node4"><a xlink:href="../../d4/d1a/graph__manager_8cpp.html" target="_top" xlink:title="src/graph_manager.cpp">
<polygon fill="white" stroke="black" points="670.5,-56.5 670.5,-75.5 789.5,-75.5 789.5,-56.5 670.5,-56.5"/>
<text text-anchor="middle" x="730" y="-63.5" font-family="Helvetica,sans-Serif" font-size="10.00">src/graph_manager.cpp</text>
</a>
</g>
</g>
<!-- Node3&#45;&gt;Node4 -->
<g id="edge3" class="edge"><title>Node3&#45;&gt;Node4</title>
<path fill="none" stroke="midnightblue" d="M591.65,-114.983C625.278,-103.32 675.476,-85.91 705.259,-75.5806"/>
<polygon fill="midnightblue" stroke="midnightblue" points="590.088,-111.82 581.787,-118.403 592.381,-118.433 590.088,-111.82"/>
</g>
<!-- Node5 -->
<g id="node5" class="node"><title>Node5</title>
<g id="a_node5"><a xlink:href="../../de/d74/graph__manager2_8cpp.html" target="_top" xlink:title="src/graph_manager2.cpp">
<polygon fill="white" stroke="black" points="808,-56.5 808,-75.5 932,-75.5 932,-56.5 808,-56.5"/>
<text text-anchor="middle" x="870" y="-63.5" font-family="Helvetica,sans-Serif" font-size="10.00">src/graph_manager2.cpp</text>
</a>
</g>
</g>
<!-- Node3&#45;&gt;Node5 -->
<g id="edge4" class="edge"><title>Node3&#45;&gt;Node5</title>
<path fill="none" stroke="midnightblue" d="M611.681,-116.518C672.445,-104.87 769.395,-86.2854 825.641,-75.5034"/>
<polygon fill="midnightblue" stroke="midnightblue" points="610.675,-113.147 601.513,-118.467 611.993,-120.022 610.675,-113.147"/>
</g>
<!-- Node6 -->
<g id="node6" class="node"><title>Node6</title>
<g id="a_node6"><a xlink:href="../../de/da7/graph__mgr__io_8cpp.html" target="_top" xlink:title="src/graph_mgr_io.cpp">
<polygon fill="white" stroke="black" points="148,-56.5 148,-75.5 258,-75.5 258,-56.5 148,-56.5"/>
<text text-anchor="middle" x="203" y="-63.5" font-family="Helvetica,sans-Serif" font-size="10.00">src/graph_mgr_io.cpp</text>
</a>
</g>
</g>
<!-- Node3&#45;&gt;Node6 -->
<g id="edge5" class="edge"><title>Node3&#45;&gt;Node6</title>
<path fill="none" stroke="midnightblue" d="M513.411,-116.142C506.922,-114.665 500.299,-113.235 494,-112 449.979,-103.37 329.552,-85.4238 258.168,-74.9905"/>
<polygon fill="midnightblue" stroke="midnightblue" points="512.899,-119.616 523.433,-118.48 514.489,-112.799 512.899,-119.616"/>
</g>
<!-- Node7 -->
<g id="node7" class="node"><title>Node7</title>
<g id="a_node7"><a xlink:href="../../db/d8d/graph__mgr__odom_8cpp.html" target="_top" xlink:title="src/graph_mgr_odom.cpp">
<polygon fill="white" stroke="black" points="276.5,-56.5 276.5,-75.5 403.5,-75.5 403.5,-56.5 276.5,-56.5"/>
<text text-anchor="middle" x="340" y="-63.5" font-family="Helvetica,sans-Serif" font-size="10.00">src/graph_mgr_odom.cpp</text>
</a>
</g>
</g>
<!-- Node3&#45;&gt;Node7 -->
<g id="edge6" class="edge"><title>Node3&#45;&gt;Node7</title>
<path fill="none" stroke="midnightblue" d="M516.235,-115.729C474.082,-104.073 409.196,-86.1326 371.033,-75.5806"/>
<polygon fill="midnightblue" stroke="midnightblue" points="515.338,-119.112 525.909,-118.403 517.204,-112.365 515.338,-119.112"/>
</g>
<!-- Node8 -->
<g id="node8" class="node"><title>Node8</title>
<g id="a_node8"><a xlink:href="../../dc/d7b/loop__closing_8cpp.html" target="_top" xlink:title="src/loop_closing.cpp">
<polygon fill="white" stroke="black" points="422,-56.5 422,-75.5 528,-75.5 528,-56.5 422,-56.5"/>
<text text-anchor="middle" x="475" y="-63.5" font-family="Helvetica,sans-Serif" font-size="10.00">src/loop_closing.cpp</text>
</a>
</g>
</g>
<!-- Node3&#45;&gt;Node8 -->
<g id="edge7" class="edge"><title>Node3&#45;&gt;Node8</title>
<path fill="none" stroke="midnightblue" d="M537.172,-112.492C521.401,-100.952 499.87,-85.1976 486.727,-75.5806"/>
<polygon fill="midnightblue" stroke="midnightblue" points="535.114,-115.323 545.251,-118.403 539.248,-109.674 535.114,-115.323"/>
</g>
<!-- Node9 -->
<g id="node9" class="node"><title>Node9</title>
<g id="a_node9"><a xlink:href="../../dd/d53/openni__listener_8h.html" target="_top" xlink:title="src/openni_listener.h">
<polygon fill="white" stroke="black" points="545.5,-56.5 545.5,-75.5 652.5,-75.5 652.5,-56.5 545.5,-56.5"/>
<text text-anchor="middle" x="599" y="-63.5" font-family="Helvetica,sans-Serif" font-size="10.00">src/openni_listener.h</text>
</a>
</g>
</g>
<!-- Node3&#45;&gt;Node9 -->
<g id="edge8" class="edge"><title>Node3&#45;&gt;Node9</title>
<path fill="none" stroke="midnightblue" d="M568.762,-110.198C576.645,-98.9356 586.698,-84.5743 592.994,-75.5806"/>
<polygon fill="midnightblue" stroke="midnightblue" points="565.885,-108.204 563.018,-118.403 571.62,-112.218 565.885,-108.204"/>
</g>
<!-- Node10 -->
<g id="node10" class="node"><title>Node10</title>
<g id="a_node10"><a xlink:href="../../df/d0a/main_8cpp.html" target="_top" xlink:title="src/main.cpp">
<polygon fill="white" stroke="black" points="562.5,-0.5 562.5,-19.5 635.5,-19.5 635.5,-0.5 562.5,-0.5"/>
<text text-anchor="middle" x="599" y="-7.5" font-family="Helvetica,sans-Serif" font-size="10.00">src/main.cpp</text>
</a>
</g>
</g>
<!-- Node9&#45;&gt;Node10 -->
<g id="edge9" class="edge"><title>Node9&#45;&gt;Node10</title>
<path fill="none" stroke="midnightblue" d="M599,-45.8045C599,-36.9102 599,-26.7798 599,-19.7511"/>
<polygon fill="midnightblue" stroke="midnightblue" points="595.5,-46.083 599,-56.083 602.5,-46.083 595.5,-46.083"/>
</g>
<!-- Node9&#45;&gt;Node11 -->
<g id="edge10" class="edge"><title>Node9&#45;&gt;Node11</title>
<path fill="none" stroke="midnightblue" d="M541.997,-54.6007C486.056,-44.3953 401.77,-29.0189 349.683,-19.5164"/>
<polygon fill="midnightblue" stroke="midnightblue" points="541.632,-58.0919 552.098,-56.4435 542.888,-51.2056 541.632,-58.0919"/>
</g>
<!-- Node13 -->
<g id="node13" class="node"><title>Node13</title>
<g id="a_node13"><a xlink:href="../../d8/d76/landmark_8cpp.html" target="_top" xlink:title="src/landmark.cpp">
<polygon fill="white" stroke="black" points="0,-56.5 0,-75.5 92,-75.5 92,-56.5 0,-56.5"/>
<text text-anchor="middle" x="46" y="-63.5" font-family="Helvetica,sans-Serif" font-size="10.00">src/landmark.cpp</text>
</a>
</g>
</g>
<!-- Node12&#45;&gt;Node13 -->
<g id="edge12" class="edge"><title>Node12&#45;&gt;Node13</title>
<path fill="none" stroke="midnightblue" d="M49.43,-108.16C48.5207,-97.2482 47.42,-84.04 46.715,-75.5806"/>
<polygon fill="midnightblue" stroke="midnightblue" points="45.9652,-108.729 50.2836,-118.403 52.941,-108.147 45.9652,-108.729"/>
</g>
</g>
</svg>
