<?xml version="1.0" encoding="UTF-8" standalone="no"?>
<!DOCTYPE svg PUBLIC "-//W3C//DTD SVG 1.1//EN"
 "http://www.w3.org/Graphics/SVG/1.1/DTD/svg11.dtd">
<!-- Generated by graphviz version 2.36.0 (20140111.2315)
 -->
<!-- Title: external/gicp/optimize.cpp Pages: 1 -->
<svg width="1012pt" height="252pt"
 viewBox="0.00 0.00 1012.00 252.00" xmlns="http://www.w3.org/2000/svg" xmlns:xlink="http://www.w3.org/1999/xlink">
<g id="graph0" class="graph" transform="scale(1 1) rotate(0) translate(4 248)">
<title>external/gicp/optimize.cpp</title>
<polygon fill="white" stroke="none" points="-4,4 -4,-248 1008,-248 1008,4 -4,4"/>
<!-- Node1 -->
<g id="node1" class="node"><title>Node1</title>
<polygon fill="#bfbfbf" stroke="black" points="774.5,-224.5 774.5,-243.5 905.5,-243.5 905.5,-224.5 774.5,-224.5"/>
<text text-anchor="middle" x="840" y="-231.5" font-family="Helvetica,sans-Serif" font-size="10.00">external/gicp/optimize.cpp</text>
</g>
<!-- Node2 -->
<g id="node2" class="node"><title>Node2</title>
<g id="a_node2"><a xlink:href="../../d9/d39/optimize_8h.html" target="_top" xlink:title="optimize.h">
<polygon fill="white" stroke="black" points="400,-168.5 400,-187.5 462,-187.5 462,-168.5 400,-168.5"/>
<text text-anchor="middle" x="431" y="-175.5" font-family="Helvetica,sans-Serif" font-size="10.00">optimize.h</text>
</a>
</g>
</g>
<!-- Node1&#45;&gt;Node2 -->
<g id="edge1" class="edge"><title>Node1&#45;&gt;Node2</title>
<path fill="none" stroke="midnightblue" d="M775.193,-224.444C690.176,-213.219 543.457,-193.848 472.209,-184.441"/>
<polygon fill="midnightblue" stroke="midnightblue" points="472.634,-180.967 462.261,-183.127 471.717,-187.906 472.634,-180.967"/>
</g>
<!-- Node6 -->
<g id="node6" class="node"><title>Node6</title>
<polygon fill="white" stroke="#bfbfbf" points="312,-0.5 312,-19.5 366,-19.5 366,-0.5 312,-0.5"/>
<text text-anchor="middle" x="339" y="-7.5" font-family="Helvetica,sans-Serif" font-size="10.00">iostream</text>
</g>
<!-- Node1&#45;&gt;Node6 -->
<g id="edge20" class="edge"><title>Node1&#45;&gt;Node6</title>
<path fill="none" stroke="midnightblue" d="M832.488,-224.414C825.004,-215.626 813.443,-201.397 805,-188 784.865,-156.051 796.614,-135.435 767,-112 705.678,-63.4731 468.431,-27.9354 376.081,-15.6725"/>
<polygon fill="midnightblue" stroke="midnightblue" points="376.438,-12.1894 366.068,-14.3589 375.527,-19.1299 376.438,-12.1894"/>
</g>
<!-- Node18 -->
<g id="node18" class="node"><title>Node18</title>
<polygon fill="white" stroke="#bfbfbf" points="814,-168.5 814,-187.5 866,-187.5 866,-168.5 814,-168.5"/>
<text text-anchor="middle" x="840" y="-175.5" font-family="Helvetica,sans-Serif" font-size="10.00">assert.h</text>
</g>
<!-- Node1&#45;&gt;Node18 -->
<g id="edge21" class="edge"><title>Node1&#45;&gt;Node18</title>
<path fill="none" stroke="midnightblue" d="M840,-224.083C840,-217.006 840,-206.861 840,-197.986"/>
<polygon fill="midnightblue" stroke="midnightblue" points="843.5,-197.751 840,-187.751 836.5,-197.751 843.5,-197.751"/>
</g>
<!-- Node19 -->
<g id="node19" class="node"><title>Node19</title>
<polygon fill="white" stroke="#bfbfbf" points="884,-168.5 884,-187.5 934,-187.5 934,-168.5 884,-168.5"/>
<text text-anchor="middle" x="909" y="-175.5" font-family="Helvetica,sans-Serif" font-size="10.00">fstream</text>
</g>
<!-- Node1&#45;&gt;Node19 -->
<g id="edge22" class="edge"><title>Node1&#45;&gt;Node19</title>
<path fill="none" stroke="midnightblue" d="M851.086,-224.324C861.486,-216.185 877.261,-203.839 889.722,-194.087"/>
<polygon fill="midnightblue" stroke="midnightblue" points="891.994,-196.753 897.712,-187.834 887.68,-191.241 891.994,-196.753"/>
</g>
<!-- Node20 -->
<g id="node20" class="node"><title>Node20</title>
<polygon fill="white" stroke="#bfbfbf" points="952,-168.5 952,-187.5 1004,-187.5 1004,-168.5 952,-168.5"/>
<text text-anchor="middle" x="978" y="-175.5" font-family="Helvetica,sans-Serif" font-size="10.00">sstream</text>
</g>
<!-- Node1&#45;&gt;Node20 -->
<g id="edge23" class="edge"><title>Node1&#45;&gt;Node20</title>
<path fill="none" stroke="midnightblue" d="M861.867,-224.444C884.779,-215.478 920.975,-201.314 946.866,-191.183"/>
<polygon fill="midnightblue" stroke="midnightblue" points="948.199,-194.42 956.236,-187.516 945.648,-187.901 948.199,-194.42"/>
</g>
<!-- Node3 -->
<g id="node3" class="node"><title>Node3</title>
<g id="a_node3"><a xlink:href="../../d8/da9/ANN_8h.html" target="_top" xlink:title="ANN.h">
<polygon fill="white" stroke="black" points="156.5,-56.5 156.5,-75.5 203.5,-75.5 203.5,-56.5 156.5,-56.5"/>
<text text-anchor="middle" x="180" y="-63.5" font-family="Helvetica,sans-Serif" font-size="10.00">ANN.h</text>
</a>
</g>
</g>
<!-- Node2&#45;&gt;Node3 -->
<g id="edge2" class="edge"><title>Node2&#45;&gt;Node3</title>
<path fill="none" stroke="midnightblue" d="M399.823,-176.101C358.702,-173.603 285.427,-164.513 233,-132 214.12,-120.291 198.918,-99.4498 189.717,-84.5213"/>
<polygon fill="midnightblue" stroke="midnightblue" points="192.635,-82.5779 184.558,-75.7204 186.596,-86.1175 192.635,-82.5779"/>
</g>
<!-- Node10 -->
<g id="node10" class="node"><title>Node10</title>
<g id="a_node10"><a xlink:href="../../d6/d03/gicp_8h.html" target="_top" xlink:title="gicp.h">
<polygon fill="white" stroke="black" points="242.5,-112.5 242.5,-131.5 285.5,-131.5 285.5,-112.5 242.5,-112.5"/>
<text text-anchor="middle" x="264" y="-119.5" font-family="Helvetica,sans-Serif" font-size="10.00">gicp.h</text>
</a>
</g>
</g>
<!-- Node2&#45;&gt;Node10 -->
<g id="edge9" class="edge"><title>Node2&#45;&gt;Node10</title>
<path fill="none" stroke="midnightblue" d="M404.538,-168.444C374.828,-158.837 326.663,-143.262 295.157,-133.075"/>
<polygon fill="midnightblue" stroke="midnightblue" points="296.15,-129.718 285.558,-129.971 293.996,-136.378 296.15,-129.718"/>
</g>
<!-- Node11 -->
<g id="node11" class="node"><title>Node11</title>
<polygon fill="white" stroke="#bfbfbf" points="436,-56.5 436,-75.5 480,-75.5 480,-56.5 436,-56.5"/>
<text text-anchor="middle" x="458" y="-63.5" font-family="Helvetica,sans-Serif" font-size="10.00">vector</text>
</g>
<!-- Node2&#45;&gt;Node11 -->
<g id="edge15" class="edge"><title>Node2&#45;&gt;Node11</title>
<path fill="none" stroke="midnightblue" d="M399.748,-169.877C363.988,-160.196 312.808,-140.73 333,-112 338.583,-104.057 390.898,-87.095 426.055,-76.4147"/>
<polygon fill="midnightblue" stroke="midnightblue" points="427.337,-79.6841 435.904,-73.4502 425.319,-72.9812 427.337,-79.6841"/>
</g>
<!-- Node14 -->
<g id="node14" class="node"><title>Node14</title>
<polygon fill="white" stroke="#bfbfbf" points="342.5,-112.5 342.5,-131.5 423.5,-131.5 423.5,-112.5 342.5,-112.5"/>
<text text-anchor="middle" x="383" y="-119.5" font-family="Helvetica,sans-Serif" font-size="10.00">gsl/gsl_linalg.h</text>
</g>
<!-- Node2&#45;&gt;Node14 -->
<g id="edge16" class="edge"><title>Node2&#45;&gt;Node14</title>
<path fill="none" stroke="midnightblue" d="M423.074,-168.083C416.154,-160.298 405.935,-148.801 397.548,-139.367"/>
<polygon fill="midnightblue" stroke="midnightblue" points="400.038,-136.9 390.779,-131.751 394.806,-141.55 400.038,-136.9"/>
</g>
<!-- Node15 -->
<g id="node15" class="node"><title>Node15</title>
<polygon fill="white" stroke="#bfbfbf" points="441.5,-112.5 441.5,-131.5 518.5,-131.5 518.5,-112.5 441.5,-112.5"/>
<text text-anchor="middle" x="480" y="-119.5" font-family="Helvetica,sans-Serif" font-size="10.00">gsl/gsl_blas.h</text>
</g>
<!-- Node2&#45;&gt;Node15 -->
<g id="edge17" class="edge"><title>Node2&#45;&gt;Node15</title>
<path fill="none" stroke="midnightblue" d="M439.091,-168.083C446.155,-160.298 456.588,-148.801 465.149,-139.367"/>
<polygon fill="midnightblue" stroke="midnightblue" points="467.931,-141.509 472.059,-131.751 462.747,-136.805 467.931,-141.509"/>
</g>
<!-- Node16 -->
<g id="node16" class="node"><title>Node16</title>
<polygon fill="white" stroke="#bfbfbf" points="536.5,-112.5 536.5,-131.5 631.5,-131.5 631.5,-112.5 536.5,-112.5"/>
<text text-anchor="middle" x="584" y="-119.5" font-family="Helvetica,sans-Serif" font-size="10.00">gsl/gsl_multimin.h</text>
</g>
<!-- Node2&#45;&gt;Node16 -->
<g id="edge18" class="edge"><title>Node2&#45;&gt;Node16</title>
<path fill="none" stroke="midnightblue" d="M455.243,-168.444C480.871,-159.399 521.485,-145.064 550.238,-134.916"/>
<polygon fill="midnightblue" stroke="midnightblue" points="551.605,-138.145 559.87,-131.516 549.275,-131.544 551.605,-138.145"/>
</g>
<!-- Node17 -->
<g id="node17" class="node"><title>Node17</title>
<polygon fill="white" stroke="#bfbfbf" points="650,-112.5 650,-131.5 758,-131.5 758,-112.5 650,-112.5"/>
<text text-anchor="middle" x="704" y="-119.5" font-family="Helvetica,sans-Serif" font-size="10.00">gsl/gsl_multifit_nlin.h</text>
</g>
<!-- Node2&#45;&gt;Node17 -->
<g id="edge19" class="edge"><title>Node2&#45;&gt;Node17</title>
<path fill="none" stroke="midnightblue" d="M462.051,-170.858C507.966,-161.776 594.584,-144.643 650.759,-133.531"/>
<polygon fill="midnightblue" stroke="midnightblue" points="651.746,-136.904 660.877,-131.53 650.388,-130.037 651.746,-136.904"/>
</g>
<!-- Node4 -->
<g id="node4" class="node"><title>Node4</title>
<polygon fill="white" stroke="#bfbfbf" points="-0.5,-0.5 -0.5,-19.5 44.5,-19.5 44.5,-0.5 -0.5,-0.5"/>
<text text-anchor="middle" x="22" y="-7.5" font-family="Helvetica,sans-Serif" font-size="10.00">cstdlib</text>
</g>
<!-- Node3&#45;&gt;Node4 -->
<g id="edge3" class="edge"><title>Node3&#45;&gt;Node4</title>
<path fill="none" stroke="midnightblue" d="M156.346,-56.9157C129.198,-47.6373 84.5268,-32.3699 54.2169,-22.0109"/>
<polygon fill="midnightblue" stroke="midnightblue" points="55.1291,-18.6239 44.5346,-18.7017 52.8653,-25.2477 55.1291,-18.6239"/>
</g>
<!-- Node5 -->
<g id="node5" class="node"><title>Node5</title>
<polygon fill="white" stroke="#bfbfbf" points="63,-0.5 63,-19.5 107,-19.5 107,-0.5 63,-0.5"/>
<text text-anchor="middle" x="85" y="-7.5" font-family="Helvetica,sans-Serif" font-size="10.00">cmath</text>
</g>
<!-- Node3&#45;&gt;Node5 -->
<g id="edge4" class="edge"><title>Node3&#45;&gt;Node5</title>
<path fill="none" stroke="midnightblue" d="M164.737,-56.324C149.779,-47.8215 126.745,-34.7288 109.273,-24.7975"/>
<polygon fill="midnightblue" stroke="midnightblue" points="110.649,-21.5534 100.226,-19.6545 107.19,-27.639 110.649,-21.5534"/>
</g>
<!-- Node3&#45;&gt;Node6 -->
<g id="edge5" class="edge"><title>Node3&#45;&gt;Node6</title>
<path fill="none" stroke="midnightblue" d="M203.804,-56.9157C230.345,-47.9016 273.53,-33.235 303.938,-22.9079"/>
<polygon fill="midnightblue" stroke="midnightblue" points="305.374,-26.1165 313.717,-19.5865 303.123,-19.4883 305.374,-26.1165"/>
</g>
<!-- Node7 -->
<g id="node7" class="node"><title>Node7</title>
<polygon fill="white" stroke="#bfbfbf" points="125,-0.5 125,-19.5 171,-19.5 171,-0.5 125,-0.5"/>
<text text-anchor="middle" x="148" y="-7.5" font-family="Helvetica,sans-Serif" font-size="10.00">cstring</text>
</g>
<!-- Node3&#45;&gt;Node7 -->
<g id="edge6" class="edge"><title>Node3&#45;&gt;Node7</title>
<path fill="none" stroke="midnightblue" d="M174.716,-56.083C170.289,-48.6127 163.837,-37.7244 158.382,-28.5199"/>
<polygon fill="midnightblue" stroke="midnightblue" points="161.295,-26.5697 153.186,-19.7511 155.273,-30.1383 161.295,-26.5697"/>
</g>
<!-- Node8 -->
<g id="node8" class="node"><title>Node8</title>
<polygon fill="white" stroke="#bfbfbf" points="189.5,-0.5 189.5,-19.5 234.5,-19.5 234.5,-0.5 189.5,-0.5"/>
<text text-anchor="middle" x="212" y="-7.5" font-family="Helvetica,sans-Serif" font-size="10.00">climits</text>
</g>
<!-- Node3&#45;&gt;Node8 -->
<g id="edge7" class="edge"><title>Node3&#45;&gt;Node8</title>
<path fill="none" stroke="midnightblue" d="M185.284,-56.083C189.711,-48.6127 196.163,-37.7244 201.618,-28.5199"/>
<polygon fill="midnightblue" stroke="midnightblue" points="204.727,-30.1383 206.814,-19.7511 198.705,-26.5697 204.727,-30.1383"/>
</g>
<!-- Node9 -->
<g id="node9" class="node"><title>Node9</title>
<polygon fill="white" stroke="#bfbfbf" points="252.5,-0.5 252.5,-19.5 293.5,-19.5 293.5,-0.5 252.5,-0.5"/>
<text text-anchor="middle" x="273" y="-7.5" font-family="Helvetica,sans-Serif" font-size="10.00">cfloat</text>
</g>
<!-- Node3&#45;&gt;Node9 -->
<g id="edge8" class="edge"><title>Node3&#45;&gt;Node9</title>
<path fill="none" stroke="midnightblue" d="M194.942,-56.324C209.585,-47.8215 232.134,-34.7288 249.238,-24.7975"/>
<polygon fill="midnightblue" stroke="midnightblue" points="251.205,-27.7027 258.095,-19.6545 247.69,-21.6491 251.205,-27.7027"/>
</g>
<!-- Node10&#45;&gt;Node3 -->
<g id="edge10" class="edge"><title>Node10&#45;&gt;Node3</title>
<path fill="none" stroke="midnightblue" d="M250.504,-112.324C237.4,-103.9 217.288,-90.9709 201.893,-81.0741"/>
<polygon fill="midnightblue" stroke="midnightblue" points="203.767,-78.118 193.463,-75.6545 199.982,-84.0063 203.767,-78.118"/>
</g>
<!-- Node10&#45;&gt;Node6 -->
<g id="edge12" class="edge"><title>Node10&#45;&gt;Node6</title>
<path fill="none" stroke="midnightblue" d="M258.629,-112.325C251.251,-99.1821 240.069,-73.8665 251,-56 262.21,-37.677 283.498,-26.5136 302.328,-19.889"/>
<polygon fill="midnightblue" stroke="midnightblue" points="303.431,-23.2111 311.884,-16.8247 301.293,-16.5454 303.431,-23.2111"/>
</g>
<!-- Node10&#45;&gt;Node11 -->
<g id="edge11" class="edge"><title>Node10&#45;&gt;Node11</title>
<path fill="none" stroke="midnightblue" d="M285.646,-115.122C315.184,-107.079 370.011,-92.0772 426.229,-76.192"/>
<polygon fill="midnightblue" stroke="midnightblue" points="427.326,-79.5189 435.995,-73.4274 425.42,-72.7836 427.326,-79.5189"/>
</g>
<!-- Node12 -->
<g id="node12" class="node"><title>Node12</title>
<polygon fill="white" stroke="#bfbfbf" points="260.5,-56.5 260.5,-75.5 333.5,-75.5 333.5,-56.5 260.5,-56.5"/>
<text text-anchor="middle" x="297" y="-63.5" font-family="Helvetica,sans-Serif" font-size="10.00">semaphore.h</text>
</g>
<!-- Node10&#45;&gt;Node12 -->
<g id="edge13" class="edge"><title>Node10&#45;&gt;Node12</title>
<path fill="none" stroke="midnightblue" d="M269.449,-112.083C274.014,-104.613 280.668,-93.7244 286.293,-84.5199"/>
<polygon fill="midnightblue" stroke="midnightblue" points="289.424,-86.109 291.652,-75.7511 283.451,-82.4588 289.424,-86.109"/>
</g>
<!-- Node13 -->
<g id="node13" class="node"><title>Node13</title>
<g id="a_node13"><a xlink:href="../../d2/d80/transform_8h.html" target="_top" xlink:title="transform.h">
<polygon fill="white" stroke="black" points="352,-56.5 352,-75.5 418,-75.5 418,-56.5 352,-56.5"/>
<text text-anchor="middle" x="385" y="-63.5" font-family="Helvetica,sans-Serif" font-size="10.00">transform.h</text>
</a>
</g>
</g>
<!-- Node10&#45;&gt;Node13 -->
<g id="edge14" class="edge"><title>Node10&#45;&gt;Node13</title>
<path fill="none" stroke="midnightblue" d="M283.173,-112.444C302.909,-103.636 333.885,-89.8116 356.493,-79.722"/>
<polygon fill="midnightblue" stroke="midnightblue" points="358.211,-82.788 365.917,-75.5164 355.359,-76.3957 358.211,-82.788"/>
</g>
</g>
</svg>
