<?xml version="1.0" encoding="UTF-8" standalone="no"?>
<!DOCTYPE svg PUBLIC "-//W3C//DTD SVG 1.1//EN"
 "http://www.w3.org/Graphics/SVG/1.1/DTD/svg11.dtd">
<!-- Generated by graphviz version 2.36.0 (20140111.2315)
 -->
<!-- Title: PyramidPacked::GenerateFeatureList Pages: 1 -->
<!--zoomable 243 -->
<svg id="main" version="1.1" xmlns="http://www.w3.org/2000/svg" xmlns:xlink="http://www.w3.org/1999/xlink" xml:space="preserve" onload="init(evt)">
<style type="text/css"><![CDATA[
.edge:hover path { stroke: red; }
.edge:hover polygon { stroke: red; fill: red; }
]]></style>
<script type="text/javascript"><![CDATA[
var edges = document.getElementsByTagName('g');
if (edges && edges.length) {
  for (var i=0;i<edges.length;i++) {
    if (edges[i].id.substr(0,4)=='edge') {
      edges[i].setAttribute('class','edge');
    }
  }
}
]]></script>
        <defs>
                <circle id="rim" cx="0" cy="0" r="7"/>
                <circle id="rim2" cx="0" cy="0" r="3.5"/>
                <g id="zoomPlus">
                        <use xlink:href="#rim" fill="#404040">
                                <set attributeName="fill" to="#808080" begin="zoomplus.mouseover" end="zoomplus.mouseout"/>
                        </use>
                        <path d="M-4,0h8M0,-4v8" fill="none" stroke="white" stroke-width="1.5" pointer-events="none"/>
                </g>
                <g id="zoomMin">
                        <use xlink:href="#rim" fill="#404040">
                                <set attributeName="fill" to="#808080" begin="zoomminus.mouseover" end="zoomminus.mouseout"/>
                        </use>
                        <path d="M-4,0h8" fill="none" stroke="white" stroke-width="1.5" pointer-events="none"/>
                </g>
                <g id="dirArrow">
                        <path fill="none" stroke="white" stroke-width="1.5" d="M0,-3.0v7 M-2.5,-0.5L0,-3.0L2.5,-0.5"/>
                </g>
               <g id="resetDef">
                       <use xlink:href="#rim2" fill="#404040">
                               <set attributeName="fill" to="#808080" begin="reset.mouseover" end="reset.mouseout"/>
                       </use>
               </g>
        </defs>

<script type="text/javascript">
var viewWidth = 712;
var viewHeight = 243;
var sectionId = 'dynsection-8';
</script>
<script xlink:href="../../svgpan.js"/>
<svg id="graph" class="graph">
<g id="viewport">
<title>PyramidPacked::GenerateFeatureList</title>
<polygon fill="white" stroke="none" points="-4,4 -4,-239 708,-239 708,4 -4,4"/>
<!-- Node1 -->
<g id="node1" class="node"><title>Node1</title>
<polygon fill="#bfbfbf" stroke="black" points="0,-98.5 0,-117.5 180,-117.5 180,-98.5 0,-98.5"/>
<text text-anchor="middle" x="90" y="-105.5" font-family="Helvetica,sans-Serif" font-size="10.00">PyramidPacked::GenerateFeatureList</text>
</g>
<!-- Node2 -->
<g id="node2" class="node"><title>Node2</title>
<g id="a_node2"><a xlink:href="../../da/d33/glew_8h.html#aea1d47483e7a506d5d7c437309a74fbb" target="_top" xlink:title="glReadBuffer">
<polygon fill="white" stroke="black" points="253,-202.5 253,-221.5 327,-221.5 327,-202.5 253,-202.5"/>
<text text-anchor="middle" x="290" y="-209.5" font-family="Helvetica,sans-Serif" font-size="10.00">glReadBuffer</text>
</a>
</g>
</g>
<!-- Node1&#45;&gt;Node2 -->
<g id="edge1" class="edge"><title>Node1&#45;&gt;Node2</title>
<path fill="none" stroke="midnightblue" d="M102.255,-117.652C123.238,-135.168 170.353,-172.291 216,-193 224.495,-196.854 233.915,-200.034 243.087,-202.618"/>
<polygon fill="midnightblue" stroke="midnightblue" points="242.326,-206.036 252.887,-205.19 244.103,-199.266 242.326,-206.036"/>
</g>
<!-- Node3 -->
<g id="node3" class="node"><title>Node3</title>
<g id="a_node3"><a xlink:href="../../da/d33/glew_8h.html#a170c1426633472880793e711b06ef0df" target="_top" xlink:title="glDrawBuffer">
<polygon fill="white" stroke="black" points="253,-164.5 253,-183.5 327,-183.5 327,-164.5 253,-164.5"/>
<text text-anchor="middle" x="290" y="-171.5" font-family="Helvetica,sans-Serif" font-size="10.00">glDrawBuffer</text>
</a>
</g>
</g>
<!-- Node1&#45;&gt;Node3 -->
<g id="edge2" class="edge"><title>Node1&#45;&gt;Node3</title>
<path fill="none" stroke="midnightblue" d="M115.218,-117.61C140.245,-127.376 180.545,-142.642 216,-154 224.638,-156.767 233.924,-159.496 242.882,-162.006"/>
<polygon fill="midnightblue" stroke="midnightblue" points="242.234,-165.458 252.804,-164.737 244.092,-158.709 242.234,-165.458"/>
</g>
<!-- Node4 -->
<g id="node4" class="node"><title>Node4</title>
<g id="a_node4"><a xlink:href="../../d0/dbc/classPyramidPacked.html#ab03e0e060bbdcd9b98b8c3db1ea05107" target="_top" xlink:title="PyramidPacked::FitHistogram\lPyramid">
<polygon fill="white" stroke="black" points="216,-115 216,-145 364,-145 364,-115 216,-115"/>
<text text-anchor="start" x="224" y="-133" font-family="Helvetica,sans-Serif" font-size="10.00">PyramidPacked::FitHistogram</text>
<text text-anchor="middle" x="290" y="-122" font-family="Helvetica,sans-Serif" font-size="10.00">Pyramid</text>
</a>
</g>
</g>
<!-- Node1&#45;&gt;Node4 -->
<g id="edge3" class="edge"><title>Node1&#45;&gt;Node4</title>
<path fill="none" stroke="midnightblue" d="M176.694,-117.522C186.39,-118.599 196.26,-119.696 205.922,-120.769"/>
<polygon fill="midnightblue" stroke="midnightblue" points="205.574,-124.252 215.899,-121.878 206.347,-117.295 205.574,-124.252"/>
</g>
<!-- Node10 -->
<g id="node10" class="node"><title>Node10</title>
<g id="a_node10"><a xlink:href="../../d2/d55/classGlobalUtil.html#aaa832fefc0cc9747ccd515d3d5b29f0d" target="_top" xlink:title="GlobalUtil::CLOCK">
<polygon fill="white" stroke="black" points="240,-76.5 240,-95.5 340,-95.5 340,-76.5 240,-76.5"/>
<text text-anchor="middle" x="290" y="-83.5" font-family="Helvetica,sans-Serif" font-size="10.00">GlobalUtil::CLOCK</text>
</a>
</g>
</g>
<!-- Node1&#45;&gt;Node10 -->
<g id="edge9" class="edge"><title>Node1&#45;&gt;Node10</title>
<path fill="none" stroke="midnightblue" d="M176.694,-98.4784C194.61,-96.4877 213.119,-94.4313 229.814,-92.5762"/>
<polygon fill="midnightblue" stroke="midnightblue" points="230.402,-96.0326 239.954,-91.4496 229.628,-89.0754 230.402,-96.0326"/>
</g>
<!-- Node13 -->
<g id="node13" class="node"><title>Node13</title>
<g id="a_node13"><a xlink:href="../../db/d82/wglew_8h.html#a500a82aecba06f4550f6849b8099ca21" target="_top" xlink:title="int">
<polygon fill="white" stroke="black" points="275.5,-38.5 275.5,-57.5 304.5,-57.5 304.5,-38.5 275.5,-38.5"/>
<text text-anchor="middle" x="290" y="-45.5" font-family="Helvetica,sans-Serif" font-size="10.00">int</text>
</a>
</g>
</g>
<!-- Node1&#45;&gt;Node13 -->
<g id="edge12" class="edge"><title>Node1&#45;&gt;Node13</title>
<path fill="none" stroke="midnightblue" d="M118.647,-98.3824C143.874,-89.7382 182.255,-76.9153 216,-67 232.42,-62.1752 251.1,-57.325 265.453,-53.7326"/>
<polygon fill="midnightblue" stroke="midnightblue" points="266.61,-57.052 275.476,-51.252 264.928,-50.257 266.61,-57.052"/>
</g>
<!-- Node14 -->
<g id="node14" class="node"><title>Node14</title>
<g id="a_node14"><a xlink:href="../../da/d33/glew_8h.html#a32df7ba224618f3a64723debf23835dd" target="_top" xlink:title="glFinish">
<polygon fill="white" stroke="black" points="265,-0.5 265,-19.5 315,-19.5 315,-0.5 265,-0.5"/>
<text text-anchor="middle" x="290" y="-7.5" font-family="Helvetica,sans-Serif" font-size="10.00">glFinish</text>
</a>
</g>
</g>
<!-- Node1&#45;&gt;Node14 -->
<g id="edge13" class="edge"><title>Node1&#45;&gt;Node14</title>
<path fill="none" stroke="midnightblue" d="M103.4,-98.3032C125.063,-81.8049 171.72,-48.1994 216,-29 228.203,-23.709 242.213,-19.6257 254.676,-16.6247"/>
<polygon fill="midnightblue" stroke="midnightblue" points="255.726,-19.9757 264.707,-14.3555 254.181,-13.1482 255.726,-19.9757"/>
</g>
<!-- Node5 -->
<g id="node5" class="node"><title>Node5</title>
<g id="a_node5"><a xlink:href="../../d0/dbc/classPyramidPacked.html#ad1fe8f1ea73c50591739180e581b0c8e" target="_top" xlink:title="PyramidPacked::GetBaseLevel">
<polygon fill="white" stroke="black" points="400.5,-215.5 400.5,-234.5 553.5,-234.5 553.5,-215.5 400.5,-215.5"/>
<text text-anchor="middle" x="477" y="-222.5" font-family="Helvetica,sans-Serif" font-size="10.00">PyramidPacked::GetBaseLevel</text>
</a>
</g>
</g>
<!-- Node4&#45;&gt;Node5 -->
<g id="edge4" class="edge"><title>Node4&#45;&gt;Node5</title>
<path fill="none" stroke="midnightblue" d="M347.072,-145.057C353.071,-147.856 358.854,-151.144 364,-155 386.204,-171.637 377.11,-190.321 400,-206 402.893,-207.981 405.974,-209.757 409.176,-211.347"/>
<polygon fill="midnightblue" stroke="midnightblue" points="407.895,-214.606 418.464,-215.356 410.67,-208.179 407.895,-214.606"/>
</g>
<!-- Node6 -->
<g id="node6" class="node"><title>Node6</title>
<g id="a_node6"><a xlink:href="../../df/da6/classGLTexImage.html#acfe4c5231e3e4e64a914bf947498caf2" target="_top" xlink:title="GLTexImage::GetImgWidth">
<polygon fill="white" stroke="black" points="408.5,-177.5 408.5,-196.5 545.5,-196.5 545.5,-177.5 408.5,-177.5"/>
<text text-anchor="middle" x="477" y="-184.5" font-family="Helvetica,sans-Serif" font-size="10.00">GLTexImage::GetImgWidth</text>
</a>
</g>
</g>
<!-- Node4&#45;&gt;Node6 -->
<g id="edge5" class="edge"><title>Node4&#45;&gt;Node6</title>
<path fill="none" stroke="midnightblue" d="M335.435,-145.086C344.875,-148.328 354.775,-151.755 364,-155 380.047,-160.645 383.727,-163.042 400,-168 407.862,-170.395 416.247,-172.719 424.47,-174.87"/>
<polygon fill="midnightblue" stroke="midnightblue" points="423.819,-178.316 434.374,-177.403 425.553,-171.535 423.819,-178.316"/>
</g>
<!-- Node7 -->
<g id="node7" class="node"><title>Node7</title>
<g id="a_node7"><a xlink:href="../../df/da6/classGLTexImage.html#a0a5bef9bbb86e30e0fac7baa6e7380a0" target="_top" xlink:title="GLTexImage::GetImgHeight">
<polygon fill="white" stroke="black" points="407,-139.5 407,-158.5 547,-158.5 547,-139.5 407,-139.5"/>
<text text-anchor="middle" x="477" y="-146.5" font-family="Helvetica,sans-Serif" font-size="10.00">GLTexImage::GetImgHeight</text>
</a>
</g>
</g>
<!-- Node4&#45;&gt;Node7 -->
<g id="edge6" class="edge"><title>Node4&#45;&gt;Node7</title>
<path fill="none" stroke="midnightblue" d="M364.117,-137.509C374.756,-138.602 385.752,-139.731 396.51,-140.836"/>
<polygon fill="midnightblue" stroke="midnightblue" points="396.425,-144.346 406.73,-141.886 397.14,-137.382 396.425,-144.346"/>
</g>
<!-- Node8 -->
<g id="node8" class="node"><title>Node8</title>
<g id="a_node8"><a xlink:href="../../df/da6/classGLTexImage.html#a57d1a67486a2d19508b4b4bb65cb0e88" target="_top" xlink:title="GLTexImage::SetImageSize">
<polygon fill="white" stroke="black" points="407,-101.5 407,-120.5 547,-120.5 547,-101.5 407,-101.5"/>
<text text-anchor="middle" x="477" y="-108.5" font-family="Helvetica,sans-Serif" font-size="10.00">GLTexImage::SetImageSize</text>
</a>
</g>
</g>
<!-- Node4&#45;&gt;Node8 -->
<g id="edge7" class="edge"><title>Node4&#45;&gt;Node8</title>
<path fill="none" stroke="midnightblue" d="M364.117,-122.491C374.756,-121.398 385.752,-120.269 396.51,-119.164"/>
<polygon fill="midnightblue" stroke="midnightblue" points="397.14,-122.618 406.73,-118.114 396.425,-115.654 397.14,-122.618"/>
</g>
<!-- Node9 -->
<g id="node9" class="node"><title>Node9</title>
<g id="a_node9"><a xlink:href="../../df/da6/classGLTexImage.html#ac3e3d4ecb428287ae07ffca97473a849" target="_top" xlink:title="GLTexImage::ZeroHistoMargin">
<polygon fill="white" stroke="black" points="401.5,-63.5 401.5,-82.5 552.5,-82.5 552.5,-63.5 401.5,-63.5"/>
<text text-anchor="middle" x="477" y="-70.5" font-family="Helvetica,sans-Serif" font-size="10.00">GLTexImage::ZeroHistoMargin</text>
</a>
</g>
</g>
<!-- Node4&#45;&gt;Node9 -->
<g id="edge8" class="edge"><title>Node4&#45;&gt;Node9</title>
<path fill="none" stroke="midnightblue" d="M335.435,-114.914C344.875,-111.672 354.775,-108.245 364,-105 380.047,-99.3552 383.727,-96.9582 400,-92 407.862,-89.6045 416.247,-87.2813 424.47,-85.1296"/>
<polygon fill="midnightblue" stroke="midnightblue" points="425.553,-88.4653 434.374,-82.5968 423.819,-81.6836 425.553,-88.4653"/>
</g>
<!-- Node11 -->
<g id="node11" class="node"><title>Node11</title>
<g id="a_node11"><a xlink:href="../../d9/d98/classClockTimer.html#a20e0c3f7fcb4f981933e423e36edba23" target="_top" xlink:title="ClockTimer::CLOCK">
<polygon fill="white" stroke="black" points="423.5,-25.5 423.5,-44.5 530.5,-44.5 530.5,-25.5 423.5,-25.5"/>
<text text-anchor="middle" x="477" y="-32.5" font-family="Helvetica,sans-Serif" font-size="10.00">ClockTimer::CLOCK</text>
</a>
</g>
</g>
<!-- Node10&#45;&gt;Node11 -->
<g id="edge10" class="edge"><title>Node10&#45;&gt;Node11</title>
<path fill="none" stroke="midnightblue" d="M330.589,-76.4034C341.474,-73.5729 353.243,-70.3345 364,-67 380.249,-61.9634 383.727,-58.9582 400,-54 407.862,-51.6045 416.247,-49.2813 424.47,-47.1296"/>
<polygon fill="midnightblue" stroke="midnightblue" points="425.553,-50.4653 434.374,-44.5968 423.819,-43.6836 425.553,-50.4653"/>
</g>
<!-- Node12 -->
<g id="node12" class="node"><title>Node12</title>
<g id="a_node12"><a xlink:href="../../d9/d98/classClockTimer.html#a23cf363d1025bb1a93951d9ccdabc639" target="_top" xlink:title="ClockTimer::ClockMS">
<polygon fill="white" stroke="black" points="590.5,-25.5 590.5,-44.5 703.5,-44.5 703.5,-25.5 590.5,-25.5"/>
<text text-anchor="middle" x="647" y="-32.5" font-family="Helvetica,sans-Serif" font-size="10.00">ClockTimer::ClockMS</text>
</a>
</g>
</g>
<!-- Node11&#45;&gt;Node12 -->
<g id="edge11" class="edge"><title>Node11&#45;&gt;Node12</title>
<path fill="none" stroke="midnightblue" d="M530.695,-35C546.394,-35 563.795,-35 580.22,-35"/>
<polygon fill="midnightblue" stroke="midnightblue" points="580.296,-38.5001 590.296,-35 580.296,-31.5001 580.296,-38.5001"/>
</g>
</g>
</svg>
        <g id="navigator" transform="translate(0 0)" fill="#404254">
                <rect fill="#f2f5e9" fill-opacity="0.5" stroke="#606060" stroke-width=".5" x="0" y="0" width="60" height="60"/>
                <use id="zoomplus" xlink:href="#zoomPlus" x="17" y="9" onmousedown="handleZoom(evt,'in')"/>
                <use id="zoomminus" xlink:href="#zoomMin" x="42" y="9" onmousedown="handleZoom(evt,'out')"/>
                <use id="reset" xlink:href="#resetDef" x="30" y="36" onmousedown="handleReset()"/>
                <g id="arrowUp" xlink:href="#dirArrow" transform="translate(30 24)" onmousedown="handlePan(0,-1)">
                  <use xlink:href="#rim" fill="#404040">
                        <set attributeName="fill" to="#808080" begin="arrowUp.mouseover" end="arrowUp.mouseout"/>
                  </use>
                  <path fill="none" stroke="white" stroke-width="1.5" d="M0,-3.0v7 M-2.5,-0.5L0,-3.0L2.5,-0.5"/>
                </g>
                <g id="arrowRight" xlink:href="#dirArrow" transform="rotate(90) translate(36 -43)" onmousedown="handlePan(1,0)">
                  <use xlink:href="#rim" fill="#404040">
                        <set attributeName="fill" to="#808080" begin="arrowRight.mouseover" end="arrowRight.mouseout"/>
                  </use>
                  <path fill="none" stroke="white" stroke-width="1.5" d="M0,-3.0v7 M-2.5,-0.5L0,-3.0L2.5,-0.5"/>
                </g>
                <g id="arrowDown" xlink:href="#dirArrow" transform="rotate(180) translate(-30 -48)" onmousedown="handlePan(0,1)">
                  <use xlink:href="#rim" fill="#404040">
                        <set attributeName="fill" to="#808080" begin="arrowDown.mouseover" end="arrowDown.mouseout"/>
                  </use>
                  <path fill="none" stroke="white" stroke-width="1.5" d="M0,-3.0v7 M-2.5,-0.5L0,-3.0L2.5,-0.5"/>
                </g>
                <g id="arrowLeft" xlink:href="#dirArrow" transform="rotate(270) translate(-36 17)" onmousedown="handlePan(-1,0)">
                  <use xlink:href="#rim" fill="#404040">
                        <set attributeName="fill" to="#808080" begin="arrowLeft.mouseover" end="arrowLeft.mouseout"/>
                  </use>
                  <path fill="none" stroke="white" stroke-width="1.5" d="M0,-3.0v7 M-2.5,-0.5L0,-3.0L2.5,-0.5"/>
                </g>
        </g>
        <svg viewBox="0 0 15 15" width="100%" height="30px" preserveAspectRatio="xMaxYMin meet">
         <g id="arrow_out" transform="scale(0.3 0.3)">
          <a xlink:href="classPyramidPacked_ac29a5d5c2833363781696aa3e8435e64_cgraph_org.svg" target="_base">
           <rect id="button" ry="5" rx="5" y="6" x="6" height="38" width="38"
                fill="#f2f5e9" fill-opacity="0.5" stroke="#606060" stroke-width="1.0"/>
           <path id="arrow"
             d="M 11.500037,31.436501 C 11.940474,20.09759 22.043105,11.32322 32.158766,21.979434 L 37.068811,17.246167 C 37.068811,17.246167 37.088388,32 37.088388,32 L 22.160133,31.978069 C 22.160133,31.978069 26.997745,27.140456 26.997745,27.140456 C 18.528582,18.264221 13.291696,25.230495 11.500037,31.436501 z"
             style="fill:#404040;"/>
          </a>
         </g>
        </svg>
</svg>
