<?xml version="1.0" encoding="UTF-8" standalone="no"?>
<!DOCTYPE svg PUBLIC "-//W3C//DTD SVG 1.1//EN"
 "http://www.w3.org/Graphics/SVG/1.1/DTD/svg11.dtd">
<!-- Generated by graphviz version 2.36.0 (20140111.2315)
 -->
<!-- Title: PyramidPacked::DetectKeypointsEX Pages: 1 -->
<svg width="746pt" height="636pt"
 viewBox="0.00 0.00 746.00 636.00" xmlns="http://www.w3.org/2000/svg" xmlns:xlink="http://www.w3.org/1999/xlink">
<g id="graph0" class="graph" transform="scale(1 1) rotate(0) translate(4 632)">
<title>PyramidPacked::DetectKeypointsEX</title>
<polygon fill="white" stroke="none" points="-4,4 -4,-632 742,-632 742,4 -4,4"/>
<!-- Node1 -->
<g id="node1" class="node"><title>Node1</title>
<polygon fill="#bfbfbf" stroke="black" points="0,-296.5 0,-315.5 178,-315.5 178,-296.5 0,-296.5"/>
<text text-anchor="middle" x="89" y="-303.5" font-family="Helvetica,sans-Serif" font-size="10.00">PyramidPacked::DetectKeypointsEX</text>
</g>
<!-- Node2 -->
<g id="node2" class="node"><title>Node2</title>
<g id="a_node2"><a xlink:href="../../d2/d55/classGlobalUtil.html#aaa832fefc0cc9747ccd515d3d5b29f0d" target="_top" xlink:title="GlobalUtil::CLOCK">
<polygon fill="white" stroke="black" points="254,-600.5 254,-619.5 354,-619.5 354,-600.5 254,-600.5"/>
<text text-anchor="middle" x="304" y="-607.5" font-family="Helvetica,sans-Serif" font-size="10.00">GlobalUtil::CLOCK</text>
</a>
</g>
</g>
<!-- Node1&#45;&gt;Node2 -->
<g id="edge1" class="edge"><title>Node1&#45;&gt;Node2</title>
<path fill="none" stroke="midnightblue" d="M91.8882,-315.676C99.769,-353.627 133.453,-494.043 214,-572 225.488,-583.118 240.732,-591.221 255.353,-597.015"/>
<polygon fill="midnightblue" stroke="midnightblue" points="254.232,-600.331 264.825,-600.497 256.647,-593.761 254.232,-600.331"/>
</g>
<!-- Node5 -->
<g id="node5" class="node"><title>Node5</title>
<g id="a_node5"><a xlink:href="../../d0/dbc/classPyramidPacked.html#ad1fe8f1ea73c50591739180e581b0c8e" target="_top" xlink:title="PyramidPacked::GetBaseLevel">
<polygon fill="white" stroke="black" points="227.5,-543.5 227.5,-562.5 380.5,-562.5 380.5,-543.5 227.5,-543.5"/>
<text text-anchor="middle" x="304" y="-550.5" font-family="Helvetica,sans-Serif" font-size="10.00">PyramidPacked::GetBaseLevel</text>
</a>
</g>
</g>
<!-- Node1&#45;&gt;Node5 -->
<g id="edge4" class="edge"><title>Node1&#45;&gt;Node5</title>
<path fill="none" stroke="midnightblue" d="M92.1833,-315.694C100.716,-351.214 135.3,-475.22 214,-534 216.373,-535.773 218.877,-537.388 221.478,-538.858"/>
<polygon fill="midnightblue" stroke="midnightblue" points="220.13,-542.095 230.654,-543.324 223.193,-535.801 220.13,-542.095"/>
</g>
<!-- Node6 -->
<g id="node6" class="node"><title>Node6</title>
<g id="a_node6"><a xlink:href="../../df/da6/classGLTexImage.html#a1829045508d6dac9fa58842bdc7d5fc9" target="_top" xlink:title="GLTexImage::FitTexViewPort">
<polygon fill="white" stroke="black" points="231,-505.5 231,-524.5 377,-524.5 377,-505.5 231,-505.5"/>
<text text-anchor="middle" x="304" y="-512.5" font-family="Helvetica,sans-Serif" font-size="10.00">GLTexImage::FitTexViewPort</text>
</a>
</g>
</g>
<!-- Node1&#45;&gt;Node6 -->
<g id="edge5" class="edge"><title>Node1&#45;&gt;Node6</title>
<path fill="none" stroke="midnightblue" d="M93.3056,-315.813C104.545,-347.579 144.499,-448.304 214,-496 216.888,-497.982 219.944,-499.764 223.116,-501.364"/>
<polygon fill="midnightblue" stroke="midnightblue" points="221.76,-504.591 232.323,-505.412 224.577,-498.183 221.76,-504.591"/>
</g>
<!-- Node13 -->
<g id="node13" class="node"><title>Node13</title>
<g id="a_node13"><a xlink:href="../../df/da6/classGLTexImage.html#a6df86f3c5a5bf3485c25236e317b4013" target="_top" xlink:title="GLTexImage::BindTex">
<polygon fill="white" stroke="black" points="246.5,-467.5 246.5,-486.5 361.5,-486.5 361.5,-467.5 246.5,-467.5"/>
<text text-anchor="middle" x="304" y="-474.5" font-family="Helvetica,sans-Serif" font-size="10.00">GLTexImage::BindTex</text>
</a>
</g>
</g>
<!-- Node1&#45;&gt;Node13 -->
<g id="edge12" class="edge"><title>Node1&#45;&gt;Node13</title>
<path fill="none" stroke="midnightblue" d="M94.8622,-315.737C109.049,-343.064 153.261,-420.893 214,-458 220.901,-462.216 228.601,-465.506 236.504,-468.071"/>
<polygon fill="midnightblue" stroke="midnightblue" points="235.627,-471.461 246.205,-470.855 237.558,-464.732 235.627,-471.461"/>
</g>
<!-- Node15 -->
<g id="node15" class="node"><title>Node15</title>
<g id="a_node15"><a xlink:href="../../df/da6/classGLTexImage.html#aeb3373705e8eae0feac654a24ac80321" target="_top" xlink:title="GLTexImage::AttachToFBO">
<polygon fill="white" stroke="black" points="234.5,-391.5 234.5,-410.5 373.5,-410.5 373.5,-391.5 234.5,-391.5"/>
<text text-anchor="middle" x="304" y="-398.5" font-family="Helvetica,sans-Serif" font-size="10.00">GLTexImage::AttachToFBO</text>
</a>
</g>
</g>
<!-- Node1&#45;&gt;Node15 -->
<g id="edge14" class="edge"><title>Node1&#45;&gt;Node15</title>
<path fill="none" stroke="midnightblue" d="M102.268,-315.51C123.708,-331.657 169.919,-364.389 214,-382 220.408,-384.56 227.219,-386.799 234.11,-388.753"/>
<polygon fill="midnightblue" stroke="midnightblue" points="233.664,-392.255 244.226,-391.415 235.446,-385.485 233.664,-392.255"/>
</g>
<!-- Node16 -->
<g id="node16" class="node"><title>Node16</title>
<g id="a_node16"><a xlink:href="../../d4/d24/classShaderMan.html#ad91472c79654780c97108b57408b7cf9" target="_top" xlink:title="ShaderMan::UseShaderGradientPass">
<polygon fill="white" stroke="black" points="214,-315.5 214,-334.5 394,-334.5 394,-315.5 214,-315.5"/>
<text text-anchor="middle" x="304" y="-322.5" font-family="Helvetica,sans-Serif" font-size="10.00">ShaderMan::UseShaderGradientPass</text>
</a>
</g>
</g>
<!-- Node1&#45;&gt;Node16 -->
<g id="edge15" class="edge"><title>Node1&#45;&gt;Node16</title>
<path fill="none" stroke="midnightblue" d="M178.173,-313.865C186.646,-314.621 195.278,-315.391 203.846,-316.155"/>
<polygon fill="midnightblue" stroke="midnightblue" points="203.591,-319.646 213.863,-317.049 204.213,-312.674 203.591,-319.646"/>
</g>
<!-- Node19 -->
<g id="node19" class="node"><title>Node19</title>
<g id="a_node19"><a xlink:href="../../df/da6/classGLTexImage.html#a78b7bcd6ce9ec3c296f54797dde354f0" target="_top" xlink:title="GLTexImage::DrawQuadMT4">
<polygon fill="white" stroke="black" points="231.5,-277.5 231.5,-296.5 376.5,-296.5 376.5,-277.5 231.5,-277.5"/>
<text text-anchor="middle" x="304" y="-284.5" font-family="Helvetica,sans-Serif" font-size="10.00">GLTexImage::DrawQuadMT4</text>
</a>
</g>
</g>
<!-- Node1&#45;&gt;Node19 -->
<g id="edge18" class="edge"><title>Node1&#45;&gt;Node19</title>
<path fill="none" stroke="midnightblue" d="M178.173,-298.135C192.448,-296.861 207.175,-295.548 221.288,-294.289"/>
<polygon fill="midnightblue" stroke="midnightblue" points="221.791,-297.758 231.44,-293.383 221.169,-290.786 221.791,-297.758"/>
</g>
<!-- Node24 -->
<g id="node24" class="node"><title>Node24</title>
<g id="a_node24"><a xlink:href="../../da/d33/glew_8h.html#a32df7ba224618f3a64723debf23835dd" target="_top" xlink:title="glFinish">
<polygon fill="white" stroke="black" points="279,-201.5 279,-220.5 329,-220.5 329,-201.5 279,-201.5"/>
<text text-anchor="middle" x="304" y="-208.5" font-family="Helvetica,sans-Serif" font-size="10.00">glFinish</text>
</a>
</g>
</g>
<!-- Node1&#45;&gt;Node24 -->
<g id="edge23" class="edge"><title>Node1&#45;&gt;Node24</title>
<path fill="none" stroke="midnightblue" d="M102.268,-296.49C123.708,-280.343 169.919,-247.611 214,-230 231.496,-223.01 252.004,-218.409 268.922,-215.489"/>
<polygon fill="midnightblue" stroke="midnightblue" points="269.614,-218.923 278.932,-213.881 268.504,-212.011 269.614,-218.923"/>
</g>
<!-- Node25 -->
<g id="node25" class="node"><title>Node25</title>
<g id="a_node25"><a xlink:href="../../df/da6/classGLTexImage.html#a70131f7165604c4245edab05dce9579b" target="_top" xlink:title="GLTexImage::DetachFBO">
<polygon fill="white" stroke="black" points="238.5,-163.5 238.5,-182.5 369.5,-182.5 369.5,-163.5 238.5,-163.5"/>
<text text-anchor="middle" x="304" y="-170.5" font-family="Helvetica,sans-Serif" font-size="10.00">GLTexImage::DetachFBO</text>
</a>
</g>
</g>
<!-- Node1&#45;&gt;Node25 -->
<g id="edge24" class="edge"><title>Node1&#45;&gt;Node25</title>
<path fill="none" stroke="midnightblue" d="M97.4801,-296.211C115.119,-273.87 161.779,-218.979 214,-192 218.619,-189.614 223.521,-187.527 228.557,-185.702"/>
<polygon fill="midnightblue" stroke="midnightblue" points="229.944,-188.931 238.368,-182.506 227.775,-182.276 229.944,-188.931"/>
</g>
<!-- Node26 -->
<g id="node26" class="node"><title>Node26</title>
<g id="a_node26"><a xlink:href="../../da/d33/glew_8h.html#a170c1426633472880793e711b06ef0df" target="_top" xlink:title="glDrawBuffer">
<polygon fill="white" stroke="black" points="267,-125.5 267,-144.5 341,-144.5 341,-125.5 267,-125.5"/>
<text text-anchor="middle" x="304" y="-132.5" font-family="Helvetica,sans-Serif" font-size="10.00">glDrawBuffer</text>
</a>
</g>
</g>
<!-- Node1&#45;&gt;Node26 -->
<g id="edge25" class="edge"><title>Node1&#45;&gt;Node26</title>
<path fill="none" stroke="midnightblue" d="M94.8622,-296.263C109.049,-268.936 153.261,-191.107 214,-154 226.694,-146.245 242.088,-141.624 256.48,-138.881"/>
<polygon fill="midnightblue" stroke="midnightblue" points="257.429,-142.273 266.73,-137.198 256.295,-135.365 257.429,-142.273"/>
</g>
<!-- Node27 -->
<g id="node27" class="node"><title>Node27</title>
<g id="a_node27"><a xlink:href="../../d2/d55/classGlobalUtil.html#a06a72fe38986ca5861bf5404de35b3d2" target="_top" xlink:title="GlobalUtil::CheckErrorsGL">
<polygon fill="white" stroke="black" points="237.5,-87.5 237.5,-106.5 370.5,-106.5 370.5,-87.5 237.5,-87.5"/>
<text text-anchor="middle" x="304" y="-94.5" font-family="Helvetica,sans-Serif" font-size="10.00">GlobalUtil::CheckErrorsGL</text>
</a>
</g>
</g>
<!-- Node1&#45;&gt;Node27 -->
<g id="edge26" class="edge"><title>Node1&#45;&gt;Node27</title>
<path fill="none" stroke="midnightblue" d="M93.3056,-296.187C104.545,-264.421 144.499,-163.696 214,-116 218.287,-113.058 222.942,-110.559 227.8,-108.436"/>
<polygon fill="midnightblue" stroke="midnightblue" points="229.247,-111.631 237.349,-104.803 226.758,-105.088 229.247,-111.631"/>
</g>
<!-- Node28 -->
<g id="node28" class="node"><title>Node28</title>
<g id="a_node28"><a xlink:href="../../d4/d24/classShaderMan.html#aaaa9b13e7fe401af1cd6d07d06cc6441" target="_top" xlink:title="ShaderMan::UseShaderKeypoint">
<polygon fill="white" stroke="black" points="224.5,-353.5 224.5,-372.5 383.5,-372.5 383.5,-353.5 224.5,-353.5"/>
<text text-anchor="middle" x="304" y="-360.5" font-family="Helvetica,sans-Serif" font-size="10.00">ShaderMan::UseShaderKeypoint</text>
</a>
</g>
</g>
<!-- Node1&#45;&gt;Node28 -->
<g id="edge27" class="edge"><title>Node1&#45;&gt;Node28</title>
<path fill="none" stroke="midnightblue" d="M118.86,-315.625C143.862,-323.775 181.09,-335.462 214,-344 223.749,-346.529 234.162,-348.977 244.304,-351.227"/>
<polygon fill="midnightblue" stroke="midnightblue" points="243.804,-354.701 254.32,-353.407 245.293,-347.861 243.804,-354.701"/>
</g>
<!-- Node30 -->
<g id="node30" class="node"><title>Node30</title>
<g id="a_node30"><a xlink:href="../../df/da6/classGLTexImage.html#a5cb02ca2c9580c4b0b1ab0fdd0e0938e" target="_top" xlink:title="GLTexImage::DrawQuadMT8">
<polygon fill="white" stroke="black" points="231.5,-239.5 231.5,-258.5 376.5,-258.5 376.5,-239.5 231.5,-239.5"/>
<text text-anchor="middle" x="304" y="-246.5" font-family="Helvetica,sans-Serif" font-size="10.00">GLTexImage::DrawQuadMT8</text>
</a>
</g>
</g>
<!-- Node1&#45;&gt;Node30 -->
<g id="edge30" class="edge"><title>Node1&#45;&gt;Node30</title>
<path fill="none" stroke="midnightblue" d="M118.86,-296.375C143.862,-288.225 181.09,-276.538 214,-268 223.749,-265.471 234.162,-263.023 244.304,-260.773"/>
<polygon fill="midnightblue" stroke="midnightblue" points="245.293,-264.139 254.32,-258.593 243.804,-257.299 245.293,-264.139"/>
</g>
<!-- Node31 -->
<g id="node31" class="node"><title>Node31</title>
<g id="a_node31"><a xlink:href="../../d4/d24/classShaderMan.html#a9e0bda881ceb8f67650029155d23c4aa" target="_top" xlink:title="ShaderMan::UnloadProgram">
<polygon fill="white" stroke="black" points="234,-49.5 234,-68.5 374,-68.5 374,-49.5 234,-49.5"/>
<text text-anchor="middle" x="304" y="-56.5" font-family="Helvetica,sans-Serif" font-size="10.00">ShaderMan::UnloadProgram</text>
</a>
</g>
</g>
<!-- Node1&#45;&gt;Node31 -->
<g id="edge35" class="edge"><title>Node1&#45;&gt;Node31</title>
<path fill="none" stroke="midnightblue" d="M92.1833,-296.306C100.716,-260.786 135.3,-136.78 214,-78 217.254,-75.5699 220.751,-73.4363 224.411,-71.564"/>
<polygon fill="midnightblue" stroke="midnightblue" points="226.055,-74.6642 233.795,-67.4286 223.232,-68.2586 226.055,-74.6642"/>
</g>
<!-- Node33 -->
<g id="node33" class="node"><title>Node33</title>
<g id="a_node33"><a xlink:href="../../df/da6/classGLTexImage.html#af3929f0108cc3c43983c0fc952199869" target="_top" xlink:title="GLTexImage::UnbindMultiTex">
<polygon fill="white" stroke="black" points="230.5,-429.5 230.5,-448.5 377.5,-448.5 377.5,-429.5 230.5,-429.5"/>
<text text-anchor="middle" x="304" y="-436.5" font-family="Helvetica,sans-Serif" font-size="10.00">GLTexImage::UnbindMultiTex</text>
</a>
</g>
</g>
<!-- Node1&#45;&gt;Node33 -->
<g id="edge37" class="edge"><title>Node1&#45;&gt;Node33</title>
<path fill="none" stroke="midnightblue" d="M97.4801,-315.789C115.119,-338.13 161.779,-393.021 214,-420 218.619,-422.386 223.521,-424.473 228.557,-426.298"/>
<polygon fill="midnightblue" stroke="midnightblue" points="227.775,-429.724 238.368,-429.494 229.944,-423.069 227.775,-429.724"/>
</g>
<!-- Node34 -->
<g id="node34" class="node"><title>Node34</title>
<g id="a_node34"><a xlink:href="../../d3/d06/classFrameBufferObject.html#ae5f040f93ccb4040004e7052ec463e6f" target="_top" xlink:title="FrameBufferObject::\lUnattachTex">
<polygon fill="white" stroke="black" points="251.5,-0 251.5,-30 356.5,-30 356.5,-0 251.5,-0"/>
<text text-anchor="start" x="259.5" y="-18" font-family="Helvetica,sans-Serif" font-size="10.00">FrameBufferObject::</text>
<text text-anchor="middle" x="304" y="-7" font-family="Helvetica,sans-Serif" font-size="10.00">UnattachTex</text>
</a>
</g>
</g>
<!-- Node1&#45;&gt;Node34 -->
<g id="edge39" class="edge"><title>Node1&#45;&gt;Node34</title>
<path fill="none" stroke="midnightblue" d="M91.5526,-296.269C98.259,-257.515 128.376,-112.738 214,-40 221.972,-33.228 231.652,-28.2838 241.656,-24.6756"/>
<polygon fill="midnightblue" stroke="midnightblue" points="242.83,-27.9749 251.3,-21.6095 240.709,-21.3039 242.83,-27.9749"/>
</g>
<!-- Node3 -->
<g id="node3" class="node"><title>Node3</title>
<g id="a_node3"><a xlink:href="../../d9/d98/classClockTimer.html#a20e0c3f7fcb4f981933e423e36edba23" target="_top" xlink:title="ClockTimer::CLOCK">
<polygon fill="white" stroke="black" points="455.5,-605.5 455.5,-624.5 562.5,-624.5 562.5,-605.5 455.5,-605.5"/>
<text text-anchor="middle" x="509" y="-612.5" font-family="Helvetica,sans-Serif" font-size="10.00">ClockTimer::CLOCK</text>
</a>
</g>
</g>
<!-- Node2&#45;&gt;Node3 -->
<g id="edge2" class="edge"><title>Node2&#45;&gt;Node3</title>
<path fill="none" stroke="midnightblue" d="M354.141,-611.21C381.536,-611.885 415.94,-612.733 445.264,-613.455"/>
<polygon fill="midnightblue" stroke="midnightblue" points="445.322,-616.957 455.405,-613.705 445.494,-609.959 445.322,-616.957"/>
</g>
<!-- Node4 -->
<g id="node4" class="node"><title>Node4</title>
<g id="a_node4"><a xlink:href="../../d9/d98/classClockTimer.html#a23cf363d1025bb1a93951d9ccdabc639" target="_top" xlink:title="ClockTimer::ClockMS">
<polygon fill="white" stroke="black" points="624.5,-608.5 624.5,-627.5 737.5,-627.5 737.5,-608.5 624.5,-608.5"/>
<text text-anchor="middle" x="681" y="-615.5" font-family="Helvetica,sans-Serif" font-size="10.00">ClockTimer::ClockMS</text>
</a>
</g>
</g>
<!-- Node3&#45;&gt;Node4 -->
<g id="edge3" class="edge"><title>Node3&#45;&gt;Node4</title>
<path fill="none" stroke="midnightblue" d="M562.857,-615.933C579,-616.218 596.958,-616.535 613.866,-616.833"/>
<polygon fill="midnightblue" stroke="midnightblue" points="614.172,-620.339 624.233,-617.016 614.296,-613.34 614.172,-620.339"/>
</g>
<!-- Node7 -->
<g id="node7" class="node"><title>Node7</title>
<g id="a_node7"><a xlink:href="../../d2/d55/classGlobalUtil.html#a30830c22f7574d8d6f5a5b0a0b31ad50" target="_top" xlink:title="GlobalUtil::FitViewPort">
<polygon fill="white" stroke="black" points="451,-496.5 451,-515.5 567,-515.5 567,-496.5 451,-496.5"/>
<text text-anchor="middle" x="509" y="-503.5" font-family="Helvetica,sans-Serif" font-size="10.00">GlobalUtil::FitViewPort</text>
</a>
</g>
</g>
<!-- Node6&#45;&gt;Node7 -->
<g id="edge6" class="edge"><title>Node6&#45;&gt;Node7</title>
<path fill="none" stroke="midnightblue" d="M377.142,-511.802C397.81,-510.885 420.255,-509.89 440.624,-508.987"/>
<polygon fill="midnightblue" stroke="midnightblue" points="440.917,-512.478 450.752,-508.538 440.607,-505.485 440.917,-512.478"/>
</g>
<!-- Node8 -->
<g id="node8" class="node"><title>Node8</title>
<g id="a_node8"><a xlink:href="../../da/d33/glew_8h.html#ae9ebc290561b3321b629610807155a35" target="_top" xlink:title="glGetIntegerv">
<polygon fill="white" stroke="black" points="643.5,-456.5 643.5,-475.5 718.5,-475.5 718.5,-456.5 643.5,-456.5"/>
<text text-anchor="middle" x="681" y="-463.5" font-family="Helvetica,sans-Serif" font-size="10.00">glGetIntegerv</text>
</a>
</g>
</g>
<!-- Node7&#45;&gt;Node8 -->
<g id="edge7" class="edge"><title>Node7&#45;&gt;Node8</title>
<path fill="none" stroke="midnightblue" d="M550.719,-496.419C575.607,-490.563 607.522,-483.054 633.414,-476.961"/>
<polygon fill="midnightblue" stroke="midnightblue" points="634.444,-480.315 643.377,-474.617 632.841,-473.501 634.444,-480.315"/>
</g>
<!-- Node9 -->
<g id="node9" class="node"><title>Node9</title>
<g id="a_node9"><a xlink:href="../../da/d33/glew_8h.html#a8e93835e91933b7078c88f905dd8599c" target="_top" xlink:title="glViewport">
<polygon fill="white" stroke="black" points="650,-418.5 650,-437.5 712,-437.5 712,-418.5 650,-418.5"/>
<text text-anchor="middle" x="681" y="-425.5" font-family="Helvetica,sans-Serif" font-size="10.00">glViewport</text>
</a>
</g>
</g>
<!-- Node7&#45;&gt;Node9 -->
<g id="edge8" class="edge"><title>Node7&#45;&gt;Node9</title>
<path fill="none" stroke="midnightblue" d="M536.7,-496.426C552.101,-490.485 571.601,-482.235 588,-473 605.197,-463.316 606.46,-456.049 624,-447 629.202,-444.316 634.865,-441.885 640.525,-439.728"/>
<polygon fill="midnightblue" stroke="midnightblue" points="641.724,-443.016 649.966,-436.359 639.371,-436.424 641.724,-443.016"/>
</g>
<!-- Node10 -->
<g id="node10" class="node"><title>Node10</title>
<g id="a_node10"><a xlink:href="../../da/d33/glew_8h.html#af14e38e22806d0220680b52edbc3bcef" target="_top" xlink:title="glMatrixMode">
<polygon fill="white" stroke="black" points="643.5,-570.5 643.5,-589.5 718.5,-589.5 718.5,-570.5 643.5,-570.5"/>
<text text-anchor="middle" x="681" y="-577.5" font-family="Helvetica,sans-Serif" font-size="10.00">glMatrixMode</text>
</a>
</g>
</g>
<!-- Node7&#45;&gt;Node10 -->
<g id="edge9" class="edge"><title>Node7&#45;&gt;Node10</title>
<path fill="none" stroke="midnightblue" d="M528.246,-515.662C550.498,-527.243 589.424,-546.856 624,-561 629.107,-563.089 634.539,-565.139 639.933,-567.073"/>
<polygon fill="midnightblue" stroke="midnightblue" points="638.929,-570.43 649.524,-570.415 641.232,-563.82 638.929,-570.43"/>
</g>
<!-- Node11 -->
<g id="node11" class="node"><title>Node11</title>
<g id="a_node11"><a xlink:href="../../da/d33/glew_8h.html#a6577472f85b23086331edadaf0311a49" target="_top" xlink:title="glLoadIdentity">
<polygon fill="white" stroke="black" points="642.5,-532.5 642.5,-551.5 719.5,-551.5 719.5,-532.5 642.5,-532.5"/>
<text text-anchor="middle" x="681" y="-539.5" font-family="Helvetica,sans-Serif" font-size="10.00">glLoadIdentity</text>
</a>
</g>
</g>
<!-- Node7&#45;&gt;Node11 -->
<g id="edge10" class="edge"><title>Node7&#45;&gt;Node11</title>
<path fill="none" stroke="midnightblue" d="M555.111,-515.553C578.952,-520.602 608.208,-526.797 632.41,-531.922"/>
<polygon fill="midnightblue" stroke="midnightblue" points="631.934,-535.399 642.442,-534.047 633.384,-528.551 631.934,-535.399"/>
</g>
<!-- Node12 -->
<g id="node12" class="node"><title>Node12</title>
<g id="a_node12"><a xlink:href="../../da/d33/glew_8h.html#a2d92120b1fad876057dfd00e2d942525" target="_top" xlink:title="glOrtho">
<polygon fill="white" stroke="black" points="657,-494.5 657,-513.5 705,-513.5 705,-494.5 657,-494.5"/>
<text text-anchor="middle" x="681" y="-501.5" font-family="Helvetica,sans-Serif" font-size="10.00">glOrtho</text>
</a>
</g>
</g>
<!-- Node7&#45;&gt;Node12 -->
<g id="edge11" class="edge"><title>Node7&#45;&gt;Node12</title>
<path fill="none" stroke="midnightblue" d="M567.08,-505.328C593.561,-505.017 624.108,-504.658 646.747,-504.391"/>
<polygon fill="midnightblue" stroke="midnightblue" points="646.903,-507.89 656.862,-504.272 646.821,-500.89 646.903,-507.89"/>
</g>
<!-- Node14 -->
<g id="node14" class="node"><title>Node14</title>
<g id="a_node14"><a xlink:href="../../da/d33/glew_8h.html#a940f58f3728713267a58e2d09ff602b2" target="_top" xlink:title="glBindTexture">
<polygon fill="white" stroke="black" points="470.5,-444.5 470.5,-463.5 547.5,-463.5 547.5,-444.5 470.5,-444.5"/>
<text text-anchor="middle" x="509" y="-451.5" font-family="Helvetica,sans-Serif" font-size="10.00">glBindTexture</text>
</a>
</g>
</g>
<!-- Node13&#45;&gt;Node14 -->
<g id="edge13" class="edge"><title>Node13&#45;&gt;Node14</title>
<path fill="none" stroke="midnightblue" d="M361.547,-470.593C392.61,-467.074 430.713,-462.757 460.266,-459.408"/>
<polygon fill="midnightblue" stroke="midnightblue" points="460.795,-462.871 470.338,-458.267 460.007,-455.915 460.795,-462.871"/>
</g>
<!-- Node17 -->
<g id="node17" class="node"><title>Node17</title>
<g id="a_node17"><a xlink:href="../../d9/d26/classProgramGPU.html#acd625b26fa073fc83ec0be9badb29635" target="_top" xlink:title="ProgramGPU::UseProgram">
<polygon fill="white" stroke="black" points="441,-353.5 441,-372.5 577,-372.5 577,-353.5 441,-353.5"/>
<text text-anchor="middle" x="509" y="-360.5" font-family="Helvetica,sans-Serif" font-size="10.00">ProgramGPU::UseProgram</text>
</a>
</g>
</g>
<!-- Node16&#45;&gt;Node17 -->
<g id="edge16" class="edge"><title>Node16&#45;&gt;Node17</title>
<path fill="none" stroke="midnightblue" d="M355.963,-334.54C383.594,-339.712 417.933,-346.14 446.981,-351.578"/>
<polygon fill="midnightblue" stroke="midnightblue" points="446.542,-355.056 457.016,-353.456 447.83,-348.176 446.542,-355.056"/>
</g>
<!-- Node18 -->
<g id="node18" class="node"><title>Node18</title>
<g id="a_node18"><a xlink:href="../../d9/d4e/classShaderBag.html#a713b08170878a3c674a3f4ca23f2998f" target="_top" xlink:title="ShaderBag::SetGradPassParam">
<polygon fill="white" stroke="black" points="430,-315.5 430,-334.5 588,-334.5 588,-315.5 430,-315.5"/>
<text text-anchor="middle" x="509" y="-322.5" font-family="Helvetica,sans-Serif" font-size="10.00">ShaderBag::SetGradPassParam</text>
</a>
</g>
</g>
<!-- Node16&#45;&gt;Node18 -->
<g id="edge17" class="edge"><title>Node16&#45;&gt;Node18</title>
<path fill="none" stroke="midnightblue" d="M394.039,-325C402.521,-325 411.122,-325 419.598,-325"/>
<polygon fill="midnightblue" stroke="midnightblue" points="419.86,-328.5 429.86,-325 419.86,-321.5 419.86,-328.5"/>
</g>
<!-- Node20 -->
<g id="node20" class="node"><title>Node20</title>
<g id="a_node20"><a xlink:href="../../da/d33/glew_8h.html#a98964453975519f92d6cc59ef77f7436" target="_top" xlink:title="glBegin">
<polygon fill="white" stroke="black" points="484.5,-163.5 484.5,-182.5 533.5,-182.5 533.5,-163.5 484.5,-163.5"/>
<text text-anchor="middle" x="509" y="-170.5" font-family="Helvetica,sans-Serif" font-size="10.00">glBegin</text>
</a>
</g>
</g>
<!-- Node19&#45;&gt;Node20 -->
<g id="edge19" class="edge"><title>Node19&#45;&gt;Node20</title>
<path fill="none" stroke="midnightblue" d="M376.69,-277.998C382.904,-275.395 388.796,-272.117 394,-268 423.31,-244.809 401.024,-215.608 430,-192 442.379,-181.914 459.299,-177.05 474.217,-174.755"/>
<polygon fill="midnightblue" stroke="midnightblue" points="474.642,-178.229 484.144,-173.543 473.794,-171.28 474.642,-178.229"/>
</g>
<!-- Node21 -->
<g id="node21" class="node"><title>Node21</title>
<g id="a_node21"><a xlink:href="../../da/d33/glew_8h.html#a43e94a9a0586067872b96a8a790e60bc" target="_top" xlink:title="glVertex2i">
<polygon fill="white" stroke="black" points="479,-277.5 479,-296.5 539,-296.5 539,-277.5 479,-277.5"/>
<text text-anchor="middle" x="509" y="-284.5" font-family="Helvetica,sans-Serif" font-size="10.00">glVertex2i</text>
</a>
</g>
</g>
<!-- Node19&#45;&gt;Node21 -->
<g id="edge20" class="edge"><title>Node19&#45;&gt;Node21</title>
<path fill="none" stroke="midnightblue" d="M376.57,-287C407.471,-287 442.436,-287 468.53,-287"/>
<polygon fill="midnightblue" stroke="midnightblue" points="468.777,-290.5 478.777,-287 468.777,-283.5 468.777,-290.5"/>
</g>
<!-- Node22 -->
<g id="node22" class="node"><title>Node22</title>
<g id="a_node22"><a xlink:href="../../da/d33/glew_8h.html#abbff207d1fa71b296ff35b149cef7238" target="_top" xlink:title="glEnd">
<polygon fill="white" stroke="black" points="488.5,-239.5 488.5,-258.5 529.5,-258.5 529.5,-239.5 488.5,-239.5"/>
<text text-anchor="middle" x="509" y="-246.5" font-family="Helvetica,sans-Serif" font-size="10.00">glEnd</text>
</a>
</g>
</g>
<!-- Node19&#45;&gt;Node22 -->
<g id="edge21" class="edge"><title>Node19&#45;&gt;Node22</title>
<path fill="none" stroke="midnightblue" d="M355.963,-277.46C394.583,-270.231 446.308,-260.548 478.375,-254.546"/>
<polygon fill="midnightblue" stroke="midnightblue" points="479.263,-257.94 488.448,-252.66 477.975,-251.06 479.263,-257.94"/>
</g>
<!-- Node23 -->
<g id="node23" class="node"><title>Node23</title>
<g id="a_node23"><a xlink:href="../../da/d33/glew_8h.html#afb3e087fc26a916a909d46ead9cfc44a" target="_top" xlink:title="glFlush">
<polygon fill="white" stroke="black" points="485,-201.5 485,-220.5 533,-220.5 533,-201.5 485,-201.5"/>
<text text-anchor="middle" x="509" y="-208.5" font-family="Helvetica,sans-Serif" font-size="10.00">glFlush</text>
</a>
</g>
</g>
<!-- Node19&#45;&gt;Node23 -->
<g id="edge22" class="edge"><title>Node19&#45;&gt;Node23</title>
<path fill="none" stroke="midnightblue" d="M371.758,-277.401C379.518,-274.947 387.111,-271.866 394,-268 414.288,-256.615 409.877,-241.674 430,-230 443.582,-222.121 460.315,-217.497 474.796,-214.789"/>
<polygon fill="midnightblue" stroke="midnightblue" points="475.563,-218.21 484.865,-213.137 474.43,-211.302 475.563,-218.21"/>
</g>
<!-- Node28&#45;&gt;Node17 -->
<g id="edge28" class="edge"><title>Node28&#45;&gt;Node17</title>
<path fill="none" stroke="midnightblue" d="M383.776,-363C399.079,-363 415.109,-363 430.375,-363"/>
<polygon fill="midnightblue" stroke="midnightblue" points="430.803,-366.5 440.803,-363 430.803,-359.5 430.803,-366.5"/>
</g>
<!-- Node29 -->
<g id="node29" class="node"><title>Node29</title>
<g id="a_node29"><a xlink:href="../../d9/d4e/classShaderBag.html#a9387acfc775cffe792f10f83cd7f4806" target="_top" xlink:title="ShaderBag::SetDogTexParam">
<polygon fill="white" stroke="black" points="434.5,-391.5 434.5,-410.5 583.5,-410.5 583.5,-391.5 434.5,-391.5"/>
<text text-anchor="middle" x="509" y="-398.5" font-family="Helvetica,sans-Serif" font-size="10.00">ShaderBag::SetDogTexParam</text>
</a>
</g>
</g>
<!-- Node28&#45;&gt;Node29 -->
<g id="edge29" class="edge"><title>Node28&#45;&gt;Node29</title>
<path fill="none" stroke="midnightblue" d="M355.963,-372.54C383.594,-377.712 417.933,-384.14 446.981,-389.578"/>
<polygon fill="midnightblue" stroke="midnightblue" points="446.542,-393.056 457.016,-391.456 447.83,-386.176 446.542,-393.056"/>
</g>
<!-- Node30&#45;&gt;Node20 -->
<g id="edge31" class="edge"><title>Node30&#45;&gt;Node20</title>
<path fill="none" stroke="midnightblue" d="M371.758,-239.401C379.518,-236.947 387.111,-233.866 394,-230 414.288,-218.615 409.877,-203.674 430,-192 443.388,-184.234 459.837,-179.63 474.174,-176.906"/>
<polygon fill="midnightblue" stroke="midnightblue" points="474.879,-180.337 484.165,-175.237 473.725,-173.433 474.879,-180.337"/>
</g>
<!-- Node30&#45;&gt;Node21 -->
<g id="edge32" class="edge"><title>Node30&#45;&gt;Node21</title>
<path fill="none" stroke="midnightblue" d="M355.963,-258.54C390.936,-265.087 436.655,-273.645 468.791,-279.66"/>
<polygon fill="midnightblue" stroke="midnightblue" points="468.243,-283.119 478.717,-281.518 469.531,-276.238 468.243,-283.119"/>
</g>
<!-- Node30&#45;&gt;Node22 -->
<g id="edge33" class="edge"><title>Node30&#45;&gt;Node22</title>
<path fill="none" stroke="midnightblue" d="M376.57,-249C411.484,-249 451.587,-249 478.219,-249"/>
<polygon fill="midnightblue" stroke="midnightblue" points="478.412,-252.5 488.412,-249 478.412,-245.5 478.412,-252.5"/>
</g>
<!-- Node30&#45;&gt;Node23 -->
<g id="edge34" class="edge"><title>Node30&#45;&gt;Node23</title>
<path fill="none" stroke="midnightblue" d="M355.963,-239.46C393.106,-232.507 442.37,-223.285 474.61,-217.25"/>
<polygon fill="midnightblue" stroke="midnightblue" points="475.664,-220.614 484.849,-215.334 474.376,-213.733 475.664,-220.614"/>
</g>
<!-- Node32 -->
<g id="node32" class="node"><title>Node32</title>
<g id="a_node32"><a xlink:href="../../d9/d4e/classShaderBag.html#aacdddcf6984572013aec63a1d97b24b2" target="_top" xlink:title="ShaderBag::UnloadProgram">
<polygon fill="white" stroke="black" points="440,-49.5 440,-68.5 578,-68.5 578,-49.5 440,-49.5"/>
<text text-anchor="middle" x="509" y="-56.5" font-family="Helvetica,sans-Serif" font-size="10.00">ShaderBag::UnloadProgram</text>
</a>
</g>
</g>
<!-- Node31&#45;&gt;Node32 -->
<g id="edge36" class="edge"><title>Node31&#45;&gt;Node32</title>
<path fill="none" stroke="midnightblue" d="M374.01,-59C391.951,-59 411.407,-59 429.786,-59"/>
<polygon fill="midnightblue" stroke="midnightblue" points="429.87,-62.5001 439.87,-59 429.87,-55.5001 429.87,-62.5001"/>
</g>
<!-- Node33&#45;&gt;Node14 -->
<g id="edge38" class="edge"><title>Node33&#45;&gt;Node14</title>
<path fill="none" stroke="midnightblue" d="M377.714,-444.373C405.189,-446.403 435.731,-448.66 460.335,-450.478"/>
<polygon fill="midnightblue" stroke="midnightblue" points="460.259,-453.982 470.489,-451.228 460.775,-447.001 460.259,-453.982"/>
</g>
</g>
</svg>
