<?xml version="1.0" encoding="UTF-8" standalone="no"?>
<!DOCTYPE svg PUBLIC "-//W3C//DTD SVG 1.1//EN"
 "http://www.w3.org/Graphics/SVG/1.1/DTD/svg11.dtd">
<!-- Generated by graphviz version 2.36.0 (20140111.2315)
 -->
<!-- Title: PyramidPacked::GetSimplifiedOrientation Pages: 1 -->
<svg width="548pt" height="192pt"
 viewBox="0.00 0.00 548.00 192.00" xmlns="http://www.w3.org/2000/svg" xmlns:xlink="http://www.w3.org/1999/xlink">
<g id="graph0" class="graph" transform="scale(1 1) rotate(0) translate(4 188)">
<title>PyramidPacked::GetSimplifiedOrientation</title>
<polygon fill="white" stroke="none" points="-4,4 -4,-188 544,-188 544,4 -4,4"/>
<!-- Node1 -->
<g id="node1" class="node"><title>Node1</title>
<polygon fill="#bfbfbf" stroke="black" points="0,-83 0,-113 150,-113 150,-83 0,-83"/>
<text text-anchor="start" x="8" y="-101" font-family="Helvetica,sans-Serif" font-size="10.00">PyramidPacked::GetSimplified</text>
<text text-anchor="middle" x="75" y="-90" font-family="Helvetica,sans-Serif" font-size="10.00">Orientation</text>
</g>
<!-- Node2 -->
<g id="node2" class="node"><title>Node2</title>
<g id="a_node2"><a xlink:href="../../da/d33/glew_8h.html#a170c1426633472880793e711b06ef0df" target="_top" xlink:title="glDrawBuffer">
<polygon fill="white" stroke="black" points="226,-164.5 226,-183.5 300,-183.5 300,-164.5 226,-164.5"/>
<text text-anchor="middle" x="263" y="-171.5" font-family="Helvetica,sans-Serif" font-size="10.00">glDrawBuffer</text>
</a>
</g>
</g>
<!-- Node1&#45;&gt;Node2 -->
<g id="edge1" class="edge"><title>Node1&#45;&gt;Node2</title>
<path fill="none" stroke="midnightblue" d="M101.004,-113.103C122.809,-125.745 155.621,-143.512 186,-155 195.541,-158.608 206.015,-161.733 216.056,-164.348"/>
<polygon fill="midnightblue" stroke="midnightblue" points="215.353,-167.779 225.902,-166.792 217.04,-160.986 215.353,-167.779"/>
</g>
<!-- Node3 -->
<g id="node3" class="node"><title>Node3</title>
<g id="a_node3"><a xlink:href="../../d0/dbc/classPyramidPacked.html#ad1fe8f1ea73c50591739180e581b0c8e" target="_top" xlink:title="PyramidPacked::GetBaseLevel">
<polygon fill="white" stroke="black" points="186.5,-126.5 186.5,-145.5 339.5,-145.5 339.5,-126.5 186.5,-126.5"/>
<text text-anchor="middle" x="263" y="-133.5" font-family="Helvetica,sans-Serif" font-size="10.00">PyramidPacked::GetBaseLevel</text>
</a>
</g>
</g>
<!-- Node1&#45;&gt;Node3 -->
<g id="edge2" class="edge"><title>Node1&#45;&gt;Node3</title>
<path fill="none" stroke="midnightblue" d="M149.512,-113.019C168.102,-116.816 187.779,-120.837 205.389,-124.434"/>
<polygon fill="midnightblue" stroke="midnightblue" points="204.997,-127.927 215.495,-126.499 206.398,-121.068 204.997,-127.927"/>
</g>
<!-- Node4 -->
<g id="node4" class="node"><title>Node4</title>
<g id="a_node4"><a xlink:href="../../df/da6/classGLTexImage.html#aeb3373705e8eae0feac654a24ac80321" target="_top" xlink:title="GLTexImage::AttachToFBO">
<polygon fill="white" stroke="black" points="193.5,-88.5 193.5,-107.5 332.5,-107.5 332.5,-88.5 193.5,-88.5"/>
<text text-anchor="middle" x="263" y="-95.5" font-family="Helvetica,sans-Serif" font-size="10.00">GLTexImage::AttachToFBO</text>
</a>
</g>
</g>
<!-- Node1&#45;&gt;Node4 -->
<g id="edge3" class="edge"><title>Node1&#45;&gt;Node4</title>
<path fill="none" stroke="midnightblue" d="M150.047,-98C160.983,-98 172.285,-98 183.311,-98"/>
<polygon fill="midnightblue" stroke="midnightblue" points="183.342,-101.5 193.342,-98 183.342,-94.5001 183.342,-101.5"/>
</g>
<!-- Node5 -->
<g id="node5" class="node"><title>Node5</title>
<g id="a_node5"><a xlink:href="../../d4/d24/classShaderMan.html#aef8f00aa7551450b7be004d633963c2a" target="_top" xlink:title="ShaderMan::UseShaderSimple\lOrientation">
<polygon fill="white" stroke="black" points="187.5,-39 187.5,-69 338.5,-69 338.5,-39 187.5,-39"/>
<text text-anchor="start" x="195.5" y="-57" font-family="Helvetica,sans-Serif" font-size="10.00">ShaderMan::UseShaderSimple</text>
<text text-anchor="middle" x="263" y="-46" font-family="Helvetica,sans-Serif" font-size="10.00">Orientation</text>
</a>
</g>
</g>
<!-- Node1&#45;&gt;Node5 -->
<g id="edge4" class="edge"><title>Node1&#45;&gt;Node5</title>
<path fill="none" stroke="midnightblue" d="M139.49,-82.9808C155.265,-79.2492 172.303,-75.2186 188.513,-71.384"/>
<polygon fill="midnightblue" stroke="midnightblue" points="189.554,-74.7343 198.48,-69.0262 187.943,-67.9223 189.554,-74.7343"/>
</g>
<!-- Node8 -->
<g id="node8" class="node"><title>Node8</title>
<g id="a_node8"><a xlink:href="../../df/da6/classGLTexImage.html#af3929f0108cc3c43983c0fc952199869" target="_top" xlink:title="GLTexImage::UnbindMultiTex">
<polygon fill="white" stroke="black" points="189.5,-0.5 189.5,-19.5 336.5,-19.5 336.5,-0.5 189.5,-0.5"/>
<text text-anchor="middle" x="263" y="-7.5" font-family="Helvetica,sans-Serif" font-size="10.00">GLTexImage::UnbindMultiTex</text>
</a>
</g>
</g>
<!-- Node1&#45;&gt;Node8 -->
<g id="edge7" class="edge"><title>Node1&#45;&gt;Node8</title>
<path fill="none" stroke="midnightblue" d="M95.6185,-82.998C116.841,-67.4341 152.192,-43.3976 186,-29 191.748,-26.552 197.881,-24.3708 204.074,-22.4394"/>
<polygon fill="midnightblue" stroke="midnightblue" points="205.187,-25.761 213.811,-19.6076 203.232,-19.0395 205.187,-25.761"/>
</g>
<!-- Node6 -->
<g id="node6" class="node"><title>Node6</title>
<g id="a_node6"><a xlink:href="../../d9/d26/classProgramGPU.html#acd625b26fa073fc83ec0be9badb29635" target="_top" xlink:title="ProgramGPU::UseProgram">
<polygon fill="white" stroke="black" points="390,-88.5 390,-107.5 526,-107.5 526,-88.5 390,-88.5"/>
<text text-anchor="middle" x="458" y="-95.5" font-family="Helvetica,sans-Serif" font-size="10.00">ProgramGPU::UseProgram</text>
</a>
</g>
</g>
<!-- Node5&#45;&gt;Node6 -->
<g id="edge5" class="edge"><title>Node5&#45;&gt;Node6</title>
<path fill="none" stroke="midnightblue" d="M329.88,-69.0192C354.517,-74.636 382.125,-80.93 405.301,-86.2137"/>
<polygon fill="midnightblue" stroke="midnightblue" points="404.747,-89.6772 415.275,-88.4876 406.303,-82.8523 404.747,-89.6772"/>
</g>
<!-- Node7 -->
<g id="node7" class="node"><title>Node7</title>
<g id="a_node7"><a xlink:href="../../d9/d4e/classShaderBag.html#a3e6d6e0c7217d4e38329695d1cc8839f" target="_top" xlink:title="ShaderBag::SetSimpleOrientation\lInput">
<polygon fill="white" stroke="black" points="376.5,-39 376.5,-69 539.5,-69 539.5,-39 376.5,-39"/>
<text text-anchor="start" x="384.5" y="-57" font-family="Helvetica,sans-Serif" font-size="10.00">ShaderBag::SetSimpleOrientation</text>
<text text-anchor="middle" x="458" y="-46" font-family="Helvetica,sans-Serif" font-size="10.00">Input</text>
</a>
</g>
</g>
<!-- Node5&#45;&gt;Node7 -->
<g id="edge6" class="edge"><title>Node5&#45;&gt;Node7</title>
<path fill="none" stroke="midnightblue" d="M338.619,-54C347.733,-54 357.122,-54 366.437,-54"/>
<polygon fill="midnightblue" stroke="midnightblue" points="366.499,-57.5001 376.499,-54 366.499,-50.5001 366.499,-57.5001"/>
</g>
<!-- Node9 -->
<g id="node9" class="node"><title>Node9</title>
<g id="a_node9"><a xlink:href="../../da/d33/glew_8h.html#a940f58f3728713267a58e2d09ff602b2" target="_top" xlink:title="glBindTexture">
<polygon fill="white" stroke="black" points="419.5,-0.5 419.5,-19.5 496.5,-19.5 496.5,-0.5 419.5,-0.5"/>
<text text-anchor="middle" x="458" y="-7.5" font-family="Helvetica,sans-Serif" font-size="10.00">glBindTexture</text>
</a>
</g>
</g>
<!-- Node8&#45;&gt;Node9 -->
<g id="edge8" class="edge"><title>Node8&#45;&gt;Node9</title>
<path fill="none" stroke="midnightblue" d="M336.69,-10C360.951,-10 387.353,-10 409.227,-10"/>
<polygon fill="midnightblue" stroke="midnightblue" points="409.252,-13.5001 419.252,-10 409.252,-6.5001 409.252,-13.5001"/>
</g>
</g>
</svg>
