<?xml version="1.0" encoding="UTF-8" standalone="no"?>
<!DOCTYPE svg PUBLIC "-//W3C//DTD SVG 1.1//EN"
 "http://www.w3.org/Graphics/SVG/1.1/DTD/svg11.dtd">
<!-- Generated by graphviz version 2.36.0 (20140111.2315)
 -->
<!-- Title: PyramidPacked::ComputeGradient Pages: 1 -->
<svg width="736pt" height="408pt"
 viewBox="0.00 0.00 736.00 408.00" xmlns="http://www.w3.org/2000/svg" xmlns:xlink="http://www.w3.org/1999/xlink">
<g id="graph0" class="graph" transform="scale(1 1) rotate(0) translate(4 404)">
<title>PyramidPacked::ComputeGradient</title>
<polygon fill="white" stroke="none" points="-4,4 -4,-404 732,-404 732,4 -4,4"/>
<!-- Node1 -->
<g id="node1" class="node"><title>Node1</title>
<polygon fill="#bfbfbf" stroke="black" points="0,-182.5 0,-201.5 168,-201.5 168,-182.5 0,-182.5"/>
<text text-anchor="middle" x="84" y="-189.5" font-family="Helvetica,sans-Serif" font-size="10.00">PyramidPacked::ComputeGradient</text>
</g>
<!-- Node2 -->
<g id="node2" class="node"><title>Node2</title>
<g id="a_node2"><a xlink:href="../../d2/d55/classGlobalUtil.html#aaa832fefc0cc9747ccd515d3d5b29f0d" target="_top" xlink:title="GlobalUtil::CLOCK">
<polygon fill="white" stroke="black" points="244,-372.5 244,-391.5 344,-391.5 344,-372.5 244,-372.5"/>
<text text-anchor="middle" x="294" y="-379.5" font-family="Helvetica,sans-Serif" font-size="10.00">GlobalUtil::CLOCK</text>
</a>
</g>
</g>
<!-- Node1&#45;&gt;Node2 -->
<g id="edge1" class="edge"><title>Node1&#45;&gt;Node2</title>
<path fill="none" stroke="midnightblue" d="M90.1516,-201.548C104.711,-227.731 148.719,-301.533 204,-344 217.792,-354.595 234.982,-362.835 250.567,-368.892"/>
<polygon fill="midnightblue" stroke="midnightblue" points="249.426,-372.201 260.019,-372.383 251.851,-365.635 249.426,-372.201"/>
</g>
<!-- Node5 -->
<g id="node5" class="node"><title>Node5</title>
<g id="a_node5"><a xlink:href="../../d0/dbc/classPyramidPacked.html#ad1fe8f1ea73c50591739180e581b0c8e" target="_top" xlink:title="PyramidPacked::GetBaseLevel">
<polygon fill="white" stroke="black" points="217.5,-315.5 217.5,-334.5 370.5,-334.5 370.5,-315.5 217.5,-315.5"/>
<text text-anchor="middle" x="294" y="-322.5" font-family="Helvetica,sans-Serif" font-size="10.00">PyramidPacked::GetBaseLevel</text>
</a>
</g>
</g>
<!-- Node1&#45;&gt;Node5 -->
<g id="edge4" class="edge"><title>Node1&#45;&gt;Node5</title>
<path fill="none" stroke="midnightblue" d="M92.0814,-201.797C108.805,-224.156 153.183,-279.082 204,-306 208.311,-308.283 212.876,-310.292 217.572,-312.06"/>
<polygon fill="midnightblue" stroke="midnightblue" points="216.761,-315.48 227.355,-315.36 218.998,-308.847 216.761,-315.48"/>
</g>
<!-- Node6 -->
<g id="node6" class="node"><title>Node6</title>
<g id="a_node6"><a xlink:href="../../df/da6/classGLTexImage.html#a1829045508d6dac9fa58842bdc7d5fc9" target="_top" xlink:title="GLTexImage::FitTexViewPort">
<polygon fill="white" stroke="black" points="221,-277.5 221,-296.5 367,-296.5 367,-277.5 221,-277.5"/>
<text text-anchor="middle" x="294" y="-284.5" font-family="Helvetica,sans-Serif" font-size="10.00">GLTexImage::FitTexViewPort</text>
</a>
</g>
</g>
<!-- Node1&#45;&gt;Node6 -->
<g id="edge5" class="edge"><title>Node1&#45;&gt;Node6</title>
<path fill="none" stroke="midnightblue" d="M96.7034,-201.535C117.172,-217.719 161.363,-250.507 204,-268 210.285,-270.579 216.97,-272.827 223.743,-274.784"/>
<polygon fill="midnightblue" stroke="midnightblue" points="223.128,-278.242 233.693,-277.446 224.937,-271.48 223.128,-278.242"/>
</g>
<!-- Node13 -->
<g id="node13" class="node"><title>Node13</title>
<g id="a_node13"><a xlink:href="../../df/da6/classGLTexImage.html#aeb3373705e8eae0feac654a24ac80321" target="_top" xlink:title="GLTexImage::AttachToFBO">
<polygon fill="white" stroke="black" points="224.5,-239.5 224.5,-258.5 363.5,-258.5 363.5,-239.5 224.5,-239.5"/>
<text text-anchor="middle" x="294" y="-246.5" font-family="Helvetica,sans-Serif" font-size="10.00">GLTexImage::AttachToFBO</text>
</a>
</g>
</g>
<!-- Node1&#45;&gt;Node13 -->
<g id="edge12" class="edge"><title>Node1&#45;&gt;Node13</title>
<path fill="none" stroke="midnightblue" d="M112.188,-201.528C136.162,-209.725 172.14,-221.535 204,-230 213.62,-232.556 223.895,-235.005 233.92,-237.244"/>
<polygon fill="midnightblue" stroke="midnightblue" points="233.312,-240.694 243.829,-239.41 234.807,-233.855 233.312,-240.694"/>
</g>
<!-- Node14 -->
<g id="node14" class="node"><title>Node14</title>
<g id="a_node14"><a xlink:href="../../d4/d24/classShaderMan.html#ad91472c79654780c97108b57408b7cf9" target="_top" xlink:title="ShaderMan::UseShaderGradientPass">
<polygon fill="white" stroke="black" points="204,-201.5 204,-220.5 384,-220.5 384,-201.5 204,-201.5"/>
<text text-anchor="middle" x="294" y="-208.5" font-family="Helvetica,sans-Serif" font-size="10.00">ShaderMan::UseShaderGradientPass</text>
</a>
</g>
</g>
<!-- Node1&#45;&gt;Node14 -->
<g id="edge13" class="edge"><title>Node1&#45;&gt;Node14</title>
<path fill="none" stroke="midnightblue" d="M168.104,-199.591C176.562,-200.364 185.213,-201.154 193.82,-201.94"/>
<polygon fill="midnightblue" stroke="midnightblue" points="193.612,-205.436 203.889,-202.86 194.249,-198.465 193.612,-205.436"/>
</g>
<!-- Node17 -->
<g id="node17" class="node"><title>Node17</title>
<g id="a_node17"><a xlink:href="../../da/d33/glew_8h.html#a32df7ba224618f3a64723debf23835dd" target="_top" xlink:title="glFinish">
<polygon fill="white" stroke="black" points="269,-163.5 269,-182.5 319,-182.5 319,-163.5 269,-163.5"/>
<text text-anchor="middle" x="294" y="-170.5" font-family="Helvetica,sans-Serif" font-size="10.00">glFinish</text>
</a>
</g>
</g>
<!-- Node1&#45;&gt;Node17 -->
<g id="edge16" class="edge"><title>Node1&#45;&gt;Node17</title>
<path fill="none" stroke="midnightblue" d="M168.104,-184.409C199.646,-181.528 233.863,-178.402 258.493,-176.152"/>
<polygon fill="midnightblue" stroke="midnightblue" points="259.118,-179.61 268.758,-175.214 258.481,-172.639 259.118,-179.61"/>
</g>
<!-- Node18 -->
<g id="node18" class="node"><title>Node18</title>
<g id="a_node18"><a xlink:href="../../df/da6/classGLTexImage.html#a70131f7165604c4245edab05dce9579b" target="_top" xlink:title="GLTexImage::DetachFBO">
<polygon fill="white" stroke="black" points="228.5,-125.5 228.5,-144.5 359.5,-144.5 359.5,-125.5 228.5,-125.5"/>
<text text-anchor="middle" x="294" y="-132.5" font-family="Helvetica,sans-Serif" font-size="10.00">GLTexImage::DetachFBO</text>
</a>
</g>
</g>
<!-- Node1&#45;&gt;Node18 -->
<g id="edge17" class="edge"><title>Node1&#45;&gt;Node18</title>
<path fill="none" stroke="midnightblue" d="M112.188,-182.472C136.162,-174.275 172.14,-162.465 204,-154 213.62,-151.444 223.895,-148.995 233.92,-146.756"/>
<polygon fill="midnightblue" stroke="midnightblue" points="234.807,-150.145 243.829,-144.59 233.312,-143.306 234.807,-150.145"/>
</g>
<!-- Node19 -->
<g id="node19" class="node"><title>Node19</title>
<g id="a_node19"><a xlink:href="../../d4/d24/classShaderMan.html#a9e0bda881ceb8f67650029155d23c4aa" target="_top" xlink:title="ShaderMan::UnloadProgram">
<polygon fill="white" stroke="black" points="224,-87.5 224,-106.5 364,-106.5 364,-87.5 224,-87.5"/>
<text text-anchor="middle" x="294" y="-94.5" font-family="Helvetica,sans-Serif" font-size="10.00">ShaderMan::UnloadProgram</text>
</a>
</g>
</g>
<!-- Node1&#45;&gt;Node19 -->
<g id="edge18" class="edge"><title>Node1&#45;&gt;Node19</title>
<path fill="none" stroke="midnightblue" d="M96.7034,-182.465C117.172,-166.281 161.363,-133.493 204,-116 210.285,-113.421 216.97,-111.173 223.743,-109.216"/>
<polygon fill="midnightblue" stroke="midnightblue" points="224.937,-112.52 233.693,-106.554 223.128,-105.758 224.937,-112.52"/>
</g>
<!-- Node21 -->
<g id="node21" class="node"><title>Node21</title>
<g id="a_node21"><a xlink:href="../../df/da6/classGLTexImage.html#af3929f0108cc3c43983c0fc952199869" target="_top" xlink:title="GLTexImage::UnbindMultiTex">
<polygon fill="white" stroke="black" points="220.5,-49.5 220.5,-68.5 367.5,-68.5 367.5,-49.5 220.5,-49.5"/>
<text text-anchor="middle" x="294" y="-56.5" font-family="Helvetica,sans-Serif" font-size="10.00">GLTexImage::UnbindMultiTex</text>
</a>
</g>
</g>
<!-- Node1&#45;&gt;Node21 -->
<g id="edge20" class="edge"><title>Node1&#45;&gt;Node21</title>
<path fill="none" stroke="midnightblue" d="M92.0814,-182.203C108.805,-159.844 153.183,-104.918 204,-78 208.311,-75.7166 212.876,-73.7076 217.572,-71.94"/>
<polygon fill="midnightblue" stroke="midnightblue" points="218.998,-75.1528 227.355,-68.6404 216.761,-68.5199 218.998,-75.1528"/>
</g>
<!-- Node23 -->
<g id="node23" class="node"><title>Node23</title>
<g id="a_node23"><a xlink:href="../../d3/d06/classFrameBufferObject.html#ae5f040f93ccb4040004e7052ec463e6f" target="_top" xlink:title="FrameBufferObject::\lUnattachTex">
<polygon fill="white" stroke="black" points="241.5,-0 241.5,-30 346.5,-30 346.5,-0 241.5,-0"/>
<text text-anchor="start" x="249.5" y="-18" font-family="Helvetica,sans-Serif" font-size="10.00">FrameBufferObject::</text>
<text text-anchor="middle" x="294" y="-7" font-family="Helvetica,sans-Serif" font-size="10.00">UnattachTex</text>
</a>
</g>
</g>
<!-- Node1&#45;&gt;Node23 -->
<g id="edge22" class="edge"><title>Node1&#45;&gt;Node23</title>
<path fill="none" stroke="midnightblue" d="M89.6758,-182.453C103.316,-155.625 145.805,-78.9821 204,-40 212.301,-34.4398 221.827,-30.1055 231.492,-26.7296"/>
<polygon fill="midnightblue" stroke="midnightblue" points="232.688,-30.022 241.163,-23.6633 230.573,-23.3494 232.688,-30.022"/>
</g>
<!-- Node3 -->
<g id="node3" class="node"><title>Node3</title>
<g id="a_node3"><a xlink:href="../../d9/d98/classClockTimer.html#a20e0c3f7fcb4f981933e423e36edba23" target="_top" xlink:title="ClockTimer::CLOCK">
<polygon fill="white" stroke="black" points="445.5,-377.5 445.5,-396.5 552.5,-396.5 552.5,-377.5 445.5,-377.5"/>
<text text-anchor="middle" x="499" y="-384.5" font-family="Helvetica,sans-Serif" font-size="10.00">ClockTimer::CLOCK</text>
</a>
</g>
</g>
<!-- Node2&#45;&gt;Node3 -->
<g id="edge2" class="edge"><title>Node2&#45;&gt;Node3</title>
<path fill="none" stroke="midnightblue" d="M344.141,-383.21C371.536,-383.885 405.94,-384.733 435.264,-385.455"/>
<polygon fill="midnightblue" stroke="midnightblue" points="435.322,-388.957 445.405,-385.705 435.494,-381.959 435.322,-388.957"/>
</g>
<!-- Node4 -->
<g id="node4" class="node"><title>Node4</title>
<g id="a_node4"><a xlink:href="../../d9/d98/classClockTimer.html#a23cf363d1025bb1a93951d9ccdabc639" target="_top" xlink:title="ClockTimer::ClockMS">
<polygon fill="white" stroke="black" points="614.5,-380.5 614.5,-399.5 727.5,-399.5 727.5,-380.5 614.5,-380.5"/>
<text text-anchor="middle" x="671" y="-387.5" font-family="Helvetica,sans-Serif" font-size="10.00">ClockTimer::ClockMS</text>
</a>
</g>
</g>
<!-- Node3&#45;&gt;Node4 -->
<g id="edge3" class="edge"><title>Node3&#45;&gt;Node4</title>
<path fill="none" stroke="midnightblue" d="M552.857,-387.933C569,-388.218 586.958,-388.535 603.866,-388.833"/>
<polygon fill="midnightblue" stroke="midnightblue" points="604.172,-392.339 614.233,-389.016 604.296,-385.34 604.172,-392.339"/>
</g>
<!-- Node7 -->
<g id="node7" class="node"><title>Node7</title>
<g id="a_node7"><a xlink:href="../../d2/d55/classGlobalUtil.html#a30830c22f7574d8d6f5a5b0a0b31ad50" target="_top" xlink:title="GlobalUtil::FitViewPort">
<polygon fill="white" stroke="black" points="441,-268.5 441,-287.5 557,-287.5 557,-268.5 441,-268.5"/>
<text text-anchor="middle" x="499" y="-275.5" font-family="Helvetica,sans-Serif" font-size="10.00">GlobalUtil::FitViewPort</text>
</a>
</g>
</g>
<!-- Node6&#45;&gt;Node7 -->
<g id="edge6" class="edge"><title>Node6&#45;&gt;Node7</title>
<path fill="none" stroke="midnightblue" d="M367.142,-283.802C387.81,-282.885 410.255,-281.89 430.624,-280.987"/>
<polygon fill="midnightblue" stroke="midnightblue" points="430.917,-284.478 440.752,-280.538 430.607,-277.485 430.917,-284.478"/>
</g>
<!-- Node8 -->
<g id="node8" class="node"><title>Node8</title>
<g id="a_node8"><a xlink:href="../../da/d33/glew_8h.html#ae9ebc290561b3321b629610807155a35" target="_top" xlink:title="glGetIntegerv">
<polygon fill="white" stroke="black" points="633.5,-342.5 633.5,-361.5 708.5,-361.5 708.5,-342.5 633.5,-342.5"/>
<text text-anchor="middle" x="671" y="-349.5" font-family="Helvetica,sans-Serif" font-size="10.00">glGetIntegerv</text>
</a>
</g>
</g>
<!-- Node7&#45;&gt;Node8 -->
<g id="edge7" class="edge"><title>Node7&#45;&gt;Node8</title>
<path fill="none" stroke="midnightblue" d="M518.246,-287.662C540.498,-299.243 579.424,-318.856 614,-333 619.107,-335.089 624.539,-337.139 629.933,-339.073"/>
<polygon fill="midnightblue" stroke="midnightblue" points="628.929,-342.43 639.524,-342.415 631.232,-335.82 628.929,-342.43"/>
</g>
<!-- Node9 -->
<g id="node9" class="node"><title>Node9</title>
<g id="a_node9"><a xlink:href="../../da/d33/glew_8h.html#a8e93835e91933b7078c88f905dd8599c" target="_top" xlink:title="glViewport">
<polygon fill="white" stroke="black" points="640,-304.5 640,-323.5 702,-323.5 702,-304.5 640,-304.5"/>
<text text-anchor="middle" x="671" y="-311.5" font-family="Helvetica,sans-Serif" font-size="10.00">glViewport</text>
</a>
</g>
</g>
<!-- Node7&#45;&gt;Node9 -->
<g id="edge8" class="edge"><title>Node7&#45;&gt;Node9</title>
<path fill="none" stroke="midnightblue" d="M545.111,-287.553C571.479,-293.137 604.471,-300.123 629.923,-305.513"/>
<polygon fill="midnightblue" stroke="midnightblue" points="629.468,-308.994 639.977,-307.642 630.919,-302.146 629.468,-308.994"/>
</g>
<!-- Node10 -->
<g id="node10" class="node"><title>Node10</title>
<g id="a_node10"><a xlink:href="../../da/d33/glew_8h.html#af14e38e22806d0220680b52edbc3bcef" target="_top" xlink:title="glMatrixMode">
<polygon fill="white" stroke="black" points="633.5,-266.5 633.5,-285.5 708.5,-285.5 708.5,-266.5 633.5,-266.5"/>
<text text-anchor="middle" x="671" y="-273.5" font-family="Helvetica,sans-Serif" font-size="10.00">glMatrixMode</text>
</a>
</g>
</g>
<!-- Node7&#45;&gt;Node10 -->
<g id="edge9" class="edge"><title>Node7&#45;&gt;Node10</title>
<path fill="none" stroke="midnightblue" d="M557.08,-277.328C578.617,-277.075 602.845,-276.79 623.32,-276.549"/>
<polygon fill="midnightblue" stroke="midnightblue" points="623.387,-280.049 633.346,-276.431 623.305,-273.049 623.387,-280.049"/>
</g>
<!-- Node11 -->
<g id="node11" class="node"><title>Node11</title>
<g id="a_node11"><a xlink:href="../../da/d33/glew_8h.html#a6577472f85b23086331edadaf0311a49" target="_top" xlink:title="glLoadIdentity">
<polygon fill="white" stroke="black" points="632.5,-228.5 632.5,-247.5 709.5,-247.5 709.5,-228.5 632.5,-228.5"/>
<text text-anchor="middle" x="671" y="-235.5" font-family="Helvetica,sans-Serif" font-size="10.00">glLoadIdentity</text>
</a>
</g>
</g>
<!-- Node7&#45;&gt;Node11 -->
<g id="edge10" class="edge"><title>Node7&#45;&gt;Node11</title>
<path fill="none" stroke="midnightblue" d="M540.719,-268.419C565.26,-262.645 596.634,-255.263 622.328,-249.217"/>
<polygon fill="midnightblue" stroke="midnightblue" points="623.299,-252.584 632.231,-246.887 621.695,-245.77 623.299,-252.584"/>
</g>
<!-- Node12 -->
<g id="node12" class="node"><title>Node12</title>
<g id="a_node12"><a xlink:href="../../da/d33/glew_8h.html#a2d92120b1fad876057dfd00e2d942525" target="_top" xlink:title="glOrtho">
<polygon fill="white" stroke="black" points="647,-190.5 647,-209.5 695,-209.5 695,-190.5 647,-190.5"/>
<text text-anchor="middle" x="671" y="-197.5" font-family="Helvetica,sans-Serif" font-size="10.00">glOrtho</text>
</a>
</g>
</g>
<!-- Node7&#45;&gt;Node12 -->
<g id="edge11" class="edge"><title>Node7&#45;&gt;Node12</title>
<path fill="none" stroke="midnightblue" d="M525.188,-268.485C540.767,-262.245 560.973,-253.503 578,-244 595.01,-234.507 596.607,-227.771 614,-219 621.284,-215.327 629.44,-212.104 637.226,-209.405"/>
<polygon fill="midnightblue" stroke="midnightblue" points="638.382,-212.71 646.797,-206.273 636.205,-206.057 638.382,-212.71"/>
</g>
<!-- Node15 -->
<g id="node15" class="node"><title>Node15</title>
<g id="a_node15"><a xlink:href="../../d9/d26/classProgramGPU.html#acd625b26fa073fc83ec0be9badb29635" target="_top" xlink:title="ProgramGPU::UseProgram">
<polygon fill="white" stroke="black" points="431,-215.5 431,-234.5 567,-234.5 567,-215.5 431,-215.5"/>
<text text-anchor="middle" x="499" y="-222.5" font-family="Helvetica,sans-Serif" font-size="10.00">ProgramGPU::UseProgram</text>
</a>
</g>
</g>
<!-- Node14&#45;&gt;Node15 -->
<g id="edge14" class="edge"><title>Node14&#45;&gt;Node15</title>
<path fill="none" stroke="midnightblue" d="M384.039,-217.141C396.151,-217.976 408.503,-218.828 420.392,-219.648"/>
<polygon fill="midnightblue" stroke="midnightblue" points="420.485,-223.162 430.702,-220.359 420.967,-216.179 420.485,-223.162"/>
</g>
<!-- Node16 -->
<g id="node16" class="node"><title>Node16</title>
<g id="a_node16"><a xlink:href="../../d9/d4e/classShaderBag.html#a713b08170878a3c674a3f4ca23f2998f" target="_top" xlink:title="ShaderBag::SetGradPassParam">
<polygon fill="white" stroke="black" points="420,-177.5 420,-196.5 578,-196.5 578,-177.5 420,-177.5"/>
<text text-anchor="middle" x="499" y="-184.5" font-family="Helvetica,sans-Serif" font-size="10.00">ShaderBag::SetGradPassParam</text>
</a>
</g>
</g>
<!-- Node14&#45;&gt;Node16 -->
<g id="edge15" class="edge"><title>Node14&#45;&gt;Node16</title>
<path fill="none" stroke="midnightblue" d="M375.523,-201.48C386.824,-200.144 398.488,-198.765 409.921,-197.413"/>
<polygon fill="midnightblue" stroke="midnightblue" points="410.374,-200.884 419.894,-196.234 409.552,-193.933 410.374,-200.884"/>
</g>
<!-- Node20 -->
<g id="node20" class="node"><title>Node20</title>
<g id="a_node20"><a xlink:href="../../d9/d4e/classShaderBag.html#aacdddcf6984572013aec63a1d97b24b2" target="_top" xlink:title="ShaderBag::UnloadProgram">
<polygon fill="white" stroke="black" points="430,-87.5 430,-106.5 568,-106.5 568,-87.5 430,-87.5"/>
<text text-anchor="middle" x="499" y="-94.5" font-family="Helvetica,sans-Serif" font-size="10.00">ShaderBag::UnloadProgram</text>
</a>
</g>
</g>
<!-- Node19&#45;&gt;Node20 -->
<g id="edge19" class="edge"><title>Node19&#45;&gt;Node20</title>
<path fill="none" stroke="midnightblue" d="M364.01,-97C381.951,-97 401.407,-97 419.786,-97"/>
<polygon fill="midnightblue" stroke="midnightblue" points="419.87,-100.5 429.87,-97 419.87,-93.5001 419.87,-100.5"/>
</g>
<!-- Node22 -->
<g id="node22" class="node"><title>Node22</title>
<g id="a_node22"><a xlink:href="../../da/d33/glew_8h.html#a940f58f3728713267a58e2d09ff602b2" target="_top" xlink:title="glBindTexture">
<polygon fill="white" stroke="black" points="460.5,-49.5 460.5,-68.5 537.5,-68.5 537.5,-49.5 460.5,-49.5"/>
<text text-anchor="middle" x="499" y="-56.5" font-family="Helvetica,sans-Serif" font-size="10.00">glBindTexture</text>
</a>
</g>
</g>
<!-- Node21&#45;&gt;Node22 -->
<g id="edge21" class="edge"><title>Node21&#45;&gt;Node22</title>
<path fill="none" stroke="midnightblue" d="M367.714,-59C395.189,-59 425.731,-59 450.335,-59"/>
<polygon fill="midnightblue" stroke="midnightblue" points="450.489,-62.5001 460.489,-59 450.489,-55.5001 450.489,-62.5001"/>
</g>
</g>
</svg>
