<?xml version="1.0" encoding="UTF-8" standalone="no"?>
<!DOCTYPE svg PUBLIC "-//W3C//DTD SVG 1.1//EN"
 "http://www.w3.org/Graphics/SVG/1.1/DTD/svg11.dtd">
<!-- Generated by graphviz version 2.36.0 (20140111.2315)
 -->
<!-- Title: PyramidPacked::InitPyramid Pages: 1 -->
<!--zoomable 609 -->
<svg id="main" version="1.1" xmlns="http://www.w3.org/2000/svg" xmlns:xlink="http://www.w3.org/1999/xlink" xml:space="preserve" onload="init(evt)">
<style type="text/css"><![CDATA[
.edge:hover path { stroke: red; }
.edge:hover polygon { stroke: red; fill: red; }
]]></style>
<script type="text/javascript"><![CDATA[
var edges = document.getElementsByTagName('g');
if (edges && edges.length) {
  for (var i=0;i<edges.length;i++) {
    if (edges[i].id.substr(0,4)=='edge') {
      edges[i].setAttribute('class','edge');
    }
  }
}
]]></script>
        <defs>
                <circle id="rim" cx="0" cy="0" r="7"/>
                <circle id="rim2" cx="0" cy="0" r="3.5"/>
                <g id="zoomPlus">
                        <use xlink:href="#rim" fill="#404040">
                                <set attributeName="fill" to="#808080" begin="zoomplus.mouseover" end="zoomplus.mouseout"/>
                        </use>
                        <path d="M-4,0h8M0,-4v8" fill="none" stroke="white" stroke-width="1.5" pointer-events="none"/>
                </g>
                <g id="zoomMin">
                        <use xlink:href="#rim" fill="#404040">
                                <set attributeName="fill" to="#808080" begin="zoomminus.mouseover" end="zoomminus.mouseout"/>
                        </use>
                        <path d="M-4,0h8" fill="none" stroke="white" stroke-width="1.5" pointer-events="none"/>
                </g>
                <g id="dirArrow">
                        <path fill="none" stroke="white" stroke-width="1.5" d="M0,-3.0v7 M-2.5,-0.5L0,-3.0L2.5,-0.5"/>
                </g>
               <g id="resetDef">
                       <use xlink:href="#rim2" fill="#404040">
                               <set attributeName="fill" to="#808080" begin="reset.mouseover" end="reset.mouseout"/>
                       </use>
               </g>
        </defs>

<script type="text/javascript">
var viewWidth = 898;
var viewHeight = 609;
var sectionId = 'dynsection-12';
</script>
<script xlink:href="../../svgpan.js"/>
<svg id="graph" class="graph">
<g id="viewport">
<title>PyramidPacked::InitPyramid</title>
<polygon fill="white" stroke="none" points="-4,4 -4,-605 894,-605 894,4 -4,4"/>
<!-- Node1 -->
<g id="node1" class="node"><title>Node1</title>
<polygon fill="#bfbfbf" stroke="black" points="0.5,-126.5 0.5,-145.5 141.5,-145.5 141.5,-126.5 0.5,-126.5"/>
<text text-anchor="middle" x="71" y="-133.5" font-family="Helvetica,sans-Serif" font-size="10.00">PyramidPacked::InitPyramid</text>
</g>
<!-- Node2 -->
<g id="node2" class="node"><title>Node2</title>
<g id="a_node2"><a xlink:href="../../d0/dbc/classPyramidPacked.html#a084e12f6b63708537c0a7afa2513c0e2" target="_top" xlink:title="PyramidPacked::FitPyramid">
<polygon fill="white" stroke="black" points="187.5,-126.5 187.5,-145.5 326.5,-145.5 326.5,-126.5 187.5,-126.5"/>
<text text-anchor="middle" x="257" y="-133.5" font-family="Helvetica,sans-Serif" font-size="10.00">PyramidPacked::FitPyramid</text>
</a>
</g>
</g>
<!-- Node1&#45;&gt;Node2 -->
<g id="edge1" class="edge"><title>Node1&#45;&gt;Node2</title>
<path fill="none" stroke="midnightblue" d="M141.563,-136C153.133,-136 165.208,-136 176.993,-136"/>
<polygon fill="midnightblue" stroke="midnightblue" points="177.254,-139.5 187.254,-136 177.254,-132.5 177.254,-139.5"/>
</g>
<!-- Node7 -->
<g id="node7" class="node"><title>Node7</title>
<g id="a_node7"><a xlink:href="../../d0/dbc/classPyramidPacked.html#ac4fa24e13e4231813c275b73eca1f6eb" target="_top" xlink:title="PyramidPacked::ResizePyramid">
<polygon fill="white" stroke="black" points="178,-233.5 178,-252.5 336,-252.5 336,-233.5 178,-233.5"/>
<text text-anchor="middle" x="257" y="-240.5" font-family="Helvetica,sans-Serif" font-size="10.00">PyramidPacked::ResizePyramid</text>
</a>
</g>
</g>
<!-- Node1&#45;&gt;Node7 -->
<g id="edge6" class="edge"><title>Node1&#45;&gt;Node7</title>
<path fill="none" stroke="midnightblue" d="M88.6533,-145.684C120.948,-164.464 192.267,-205.938 230.542,-228.195"/>
<polygon fill="midnightblue" stroke="midnightblue" points="229.113,-231.413 239.517,-233.415 232.632,-225.362 229.113,-231.413"/>
</g>
<!-- Node27 -->
<g id="node27" class="node"><title>Node27</title>
<g id="a_node27"><a xlink:href="../../d4/d24/classShaderMan.html#ab8414181551067e6b23a96567808c812" target="_top" xlink:title="ShaderMan::SelectInitial\lSmoothingFilter">
<polygon fill="white" stroke="black" points="195.5,-53 195.5,-83 318.5,-83 318.5,-53 195.5,-53"/>
<text text-anchor="start" x="203.5" y="-71" font-family="Helvetica,sans-Serif" font-size="10.00">ShaderMan::SelectInitial</text>
<text text-anchor="middle" x="257" y="-60" font-family="Helvetica,sans-Serif" font-size="10.00">SmoothingFilter</text>
</a>
</g>
</g>
<!-- Node1&#45;&gt;Node27 -->
<g id="edge36" class="edge"><title>Node1&#45;&gt;Node27</title>
<path fill="none" stroke="midnightblue" d="M97.9725,-126.401C125.861,-116.095 170.86,-99.4648 205.72,-86.5817"/>
<polygon fill="midnightblue" stroke="midnightblue" points="207.094,-89.8054 215.261,-83.0558 204.668,-83.2394 207.094,-89.8054"/>
</g>
<!-- Node3 -->
<g id="node3" class="node"><title>Node3</title>
<g id="a_node3"><a xlink:href="../../dd/dce/classSiftPyramid.html#a8ed85e9e72c573c1ae35b20bfd2423eb" target="_top" xlink:title="SiftPyramid::GetRequired\lOctaveNum">
<polygon fill="white" stroke="black" points="400,-165 400,-195 528,-195 528,-165 400,-165"/>
<text text-anchor="start" x="408" y="-183" font-family="Helvetica,sans-Serif" font-size="10.00">SiftPyramid::GetRequired</text>
<text text-anchor="middle" x="464" y="-172" font-family="Helvetica,sans-Serif" font-size="10.00">OctaveNum</text>
</a>
</g>
</g>
<!-- Node2&#45;&gt;Node3 -->
<g id="edge2" class="edge"><title>Node2&#45;&gt;Node3</title>
<path fill="none" stroke="midnightblue" d="M302.482,-145.547C327.974,-151.019 360.604,-158.022 389.78,-164.285"/>
<polygon fill="midnightblue" stroke="midnightblue" points="389.427,-167.788 399.938,-166.465 390.896,-160.944 389.427,-167.788"/>
</g>
<!-- Node5 -->
<g id="node5" class="node"><title>Node5</title>
<g id="a_node5"><a xlink:href="../../d0/dbc/classPyramidPacked.html#ad1fe8f1ea73c50591739180e581b0c8e" target="_top" xlink:title="PyramidPacked::GetBaseLevel">
<polygon fill="white" stroke="black" points="387.5,-126.5 387.5,-145.5 540.5,-145.5 540.5,-126.5 387.5,-126.5"/>
<text text-anchor="middle" x="464" y="-133.5" font-family="Helvetica,sans-Serif" font-size="10.00">PyramidPacked::GetBaseLevel</text>
</a>
</g>
</g>
<!-- Node2&#45;&gt;Node5 -->
<g id="edge4" class="edge"><title>Node2&#45;&gt;Node5</title>
<path fill="none" stroke="midnightblue" d="M326.547,-136C342.741,-136 360.209,-136 377.064,-136"/>
<polygon fill="midnightblue" stroke="midnightblue" points="377.462,-139.5 387.462,-136 377.462,-132.5 377.462,-139.5"/>
</g>
<!-- Node6 -->
<g id="node6" class="node"><title>Node6</title>
<g id="a_node6"><a xlink:href="../../df/da6/classGLTexImage.html#a57d1a67486a2d19508b4b4bb65cb0e88" target="_top" xlink:title="GLTexImage::SetImageSize">
<polygon fill="white" stroke="black" points="394,-88.5 394,-107.5 534,-107.5 534,-88.5 394,-88.5"/>
<text text-anchor="middle" x="464" y="-95.5" font-family="Helvetica,sans-Serif" font-size="10.00">GLTexImage::SetImageSize</text>
</a>
</g>
</g>
<!-- Node2&#45;&gt;Node6 -->
<g id="edge5" class="edge"><title>Node2&#45;&gt;Node6</title>
<path fill="none" stroke="midnightblue" d="M309.466,-126.46C337.368,-121.288 372.045,-114.86 401.38,-109.422"/>
<polygon fill="midnightblue" stroke="midnightblue" points="402.319,-112.808 411.513,-107.544 401.043,-105.925 402.319,-112.808"/>
</g>
<!-- Node4 -->
<g id="node4" class="node"><title>Node4</title>
<g id="a_node4"><a xlink:href="../../db/d82/wglew_8h.html#a500a82aecba06f4550f6849b8099ca21" target="_top" xlink:title="int">
<polygon fill="white" stroke="black" points="831.5,-144.5 831.5,-163.5 860.5,-163.5 860.5,-144.5 831.5,-144.5"/>
<text text-anchor="middle" x="846" y="-151.5" font-family="Helvetica,sans-Serif" font-size="10.00">int</text>
</a>
</g>
</g>
<!-- Node3&#45;&gt;Node4 -->
<g id="edge3" class="edge"><title>Node3&#45;&gt;Node4</title>
<path fill="none" stroke="midnightblue" d="M528.108,-170.137C538.158,-166.546 547.897,-161.655 556,-155 583.647,-132.292 561.566,-101.809 592,-83 657.784,-42.3435 693.79,-55.3195 766,-83 793.566,-93.567 817.55,-118.684 831.651,-136.021"/>
<polygon fill="midnightblue" stroke="midnightblue" points="829.175,-138.536 838.091,-144.259 834.69,-134.225 829.175,-138.536"/>
</g>
<!-- Node7&#45;&gt;Node3 -->
<g id="edge7" class="edge"><title>Node7&#45;&gt;Node3</title>
<path fill="none" stroke="midnightblue" d="M285.511,-233.369C308.518,-225.426 342.257,-214.036 372,-205 380,-202.57 388.426,-200.115 396.792,-197.742"/>
<polygon fill="midnightblue" stroke="midnightblue" points="397.873,-201.074 406.554,-195 395.98,-194.334 397.873,-201.074"/>
</g>
<!-- Node7&#45;&gt;Node5 -->
<g id="edge10" class="edge"><title>Node7&#45;&gt;Node5</title>
<path fill="none" stroke="midnightblue" d="M267.351,-233.302C285.633,-214.953 328.171,-175.187 372,-155 377.353,-152.535 383.03,-150.386 388.83,-148.514"/>
<polygon fill="midnightblue" stroke="midnightblue" points="390.067,-151.798 398.672,-145.617 388.091,-145.083 390.067,-151.798"/>
</g>
<!-- Node8 -->
<g id="node8" class="node"><title>Node8</title>
<g id="a_node8"><a xlink:href="../../d1/d75/classPyramidGL.html#a92b4b4dab4de07ae7f02c1d0959b19ae" target="_top" xlink:title="PyramidGL::DestroyPerLevelData">
<polygon fill="white" stroke="black" points="381.5,-252.5 381.5,-271.5 546.5,-271.5 546.5,-252.5 381.5,-252.5"/>
<text text-anchor="middle" x="464" y="-259.5" font-family="Helvetica,sans-Serif" font-size="10.00">PyramidGL::DestroyPerLevelData</text>
</a>
</g>
</g>
<!-- Node7&#45;&gt;Node8 -->
<g id="edge8" class="edge"><title>Node7&#45;&gt;Node8</title>
<path fill="none" stroke="midnightblue" d="M336.087,-250.237C347.551,-251.3 359.448,-252.402 371.157,-253.488"/>
<polygon fill="midnightblue" stroke="midnightblue" points="371.103,-256.998 381.384,-254.436 371.749,-250.028 371.103,-256.998"/>
</g>
<!-- Node9 -->
<g id="node9" class="node"><title>Node9</title>
<g id="a_node9"><a xlink:href="../../d0/dbc/classPyramidPacked.html#a61b207c67aa2dbfec549afbdacead2f3" target="_top" xlink:title="PyramidPacked::DestroyPyramidData">
<polygon fill="white" stroke="black" points="372.5,-214.5 372.5,-233.5 555.5,-233.5 555.5,-214.5 372.5,-214.5"/>
<text text-anchor="middle" x="464" y="-221.5" font-family="Helvetica,sans-Serif" font-size="10.00">PyramidPacked::DestroyPyramidData</text>
</a>
</g>
</g>
<!-- Node7&#45;&gt;Node9 -->
<g id="edge9" class="edge"><title>Node7&#45;&gt;Node9</title>
<path fill="none" stroke="midnightblue" d="M336.087,-235.763C344.719,-234.963 353.596,-234.14 362.454,-233.319"/>
<polygon fill="midnightblue" stroke="midnightblue" points="362.798,-236.802 372.432,-232.394 362.152,-229.832 362.798,-236.802"/>
</g>
<!-- Node10 -->
<g id="node10" class="node"><title>Node10</title>
<g id="a_node10"><a xlink:href="../../df/da6/classGLTexImage.html#a0e8739a59cc418ee4b5b1146d13fae0a" target="_top" xlink:title="GLTexImage::InitTexture">
<polygon fill="white" stroke="black" points="616.5,-505.5 616.5,-524.5 741.5,-524.5 741.5,-505.5 616.5,-505.5"/>
<text text-anchor="middle" x="679" y="-512.5" font-family="Helvetica,sans-Serif" font-size="10.00">GLTexImage::InitTexture</text>
</a>
</g>
</g>
<!-- Node7&#45;&gt;Node10 -->
<g id="edge11" class="edge"><title>Node7&#45;&gt;Node10</title>
<path fill="none" stroke="midnightblue" d="M267.335,-252.628C304.456,-290.311 446.661,-429.006 592,-496 597.338,-498.46 603.011,-500.61 608.799,-502.487"/>
<polygon fill="midnightblue" stroke="midnightblue" points="608.027,-505.909 618.61,-505.396 610.017,-499.198 608.027,-505.909"/>
</g>
<!-- Node15 -->
<g id="node15" class="node"><title>Node15</title>
<g id="a_node15"><a xlink:href="../../d1/d1a/classGLTexPacked.html#aaa994b8624a5fc91eb6bcdd9bd42579d" target="_top" xlink:title="GLTexPacked::InitTexture">
<polygon fill="white" stroke="black" points="613.5,-543.5 613.5,-562.5 744.5,-562.5 744.5,-543.5 613.5,-543.5"/>
<text text-anchor="middle" x="679" y="-550.5" font-family="Helvetica,sans-Serif" font-size="10.00">GLTexPacked::InitTexture</text>
</a>
</g>
</g>
<!-- Node7&#45;&gt;Node15 -->
<g id="edge16" class="edge"><title>Node7&#45;&gt;Node15</title>
<path fill="none" stroke="midnightblue" d="M261.681,-252.77C273.402,-282.717 312.602,-374.44 372,-428 442.738,-491.786 550.381,-525.406 617.338,-541.163"/>
<polygon fill="midnightblue" stroke="midnightblue" points="616.789,-544.627 627.318,-543.45 618.353,-537.804 616.789,-544.627"/>
</g>
<!-- Node16 -->
<g id="node16" class="node"><title>Node16</title>
<g id="a_node16"><a xlink:href="../../d1/d75/classPyramidGL.html#a90bbd79da17d195d05b15b6439b6f693" target="_top" xlink:title="PyramidGL::ResizeFeature\lStorage">
<polygon fill="white" stroke="black" points="396.5,-291 396.5,-321 531.5,-321 531.5,-291 396.5,-291"/>
<text text-anchor="start" x="404.5" y="-309" font-family="Helvetica,sans-Serif" font-size="10.00">PyramidGL::ResizeFeature</text>
<text text-anchor="middle" x="464" y="-298" font-family="Helvetica,sans-Serif" font-size="10.00">Storage</text>
</a>
</g>
</g>
<!-- Node7&#45;&gt;Node16 -->
<g id="edge21" class="edge"><title>Node7&#45;&gt;Node16</title>
<path fill="none" stroke="midnightblue" d="M285.511,-252.631C308.518,-260.574 342.257,-271.964 372,-281 380,-283.43 388.426,-285.885 396.792,-288.258"/>
<polygon fill="midnightblue" stroke="midnightblue" points="395.98,-291.666 406.554,-291 397.873,-284.926 395.98,-291.666"/>
</g>
<!-- Node11 -->
<g id="node11" class="node"><title>Node11</title>
<g id="a_node11"><a xlink:href="../../da/d33/glew_8h.html#a99e77ebf136a8c511226cf705049a305" target="_top" xlink:title="glGenTextures">
<polygon fill="white" stroke="black" points="806,-467.5 806,-486.5 886,-486.5 886,-467.5 806,-467.5"/>
<text text-anchor="middle" x="846" y="-474.5" font-family="Helvetica,sans-Serif" font-size="10.00">glGenTextures</text>
</a>
</g>
</g>
<!-- Node10&#45;&gt;Node11 -->
<g id="edge12" class="edge"><title>Node10&#45;&gt;Node11</title>
<path fill="none" stroke="midnightblue" d="M723.786,-505.491C737.331,-502.505 752.293,-499.162 766,-496 775.794,-493.741 786.255,-491.267 796.254,-488.874"/>
<polygon fill="midnightblue" stroke="midnightblue" points="797.152,-492.258 806.057,-486.518 795.516,-485.452 797.152,-492.258"/>
</g>
<!-- Node12 -->
<g id="node12" class="node"><title>Node12</title>
<g id="a_node12"><a xlink:href="../../da/d33/glew_8h.html#ac8dbabff536e520bc700960dadd8d787" target="_top" xlink:title="glTexParameteri">
<polygon fill="white" stroke="black" points="802,-581.5 802,-600.5 890,-600.5 890,-581.5 802,-581.5"/>
<text text-anchor="middle" x="846" y="-588.5" font-family="Helvetica,sans-Serif" font-size="10.00">glTexParameteri</text>
</a>
</g>
</g>
<!-- Node10&#45;&gt;Node12 -->
<g id="edge13" class="edge"><title>Node10&#45;&gt;Node12</title>
<path fill="none" stroke="midnightblue" d="M741.809,-523.949C750.24,-526.502 758.548,-529.783 766,-534 786.248,-545.457 782.988,-558.592 802,-572 804.376,-573.676 806.924,-575.253 809.549,-576.727"/>
<polygon fill="midnightblue" stroke="midnightblue" points="808.135,-579.934 818.637,-581.332 811.299,-573.69 808.135,-579.934"/>
</g>
<!-- Node13 -->
<g id="node13" class="node"><title>Node13</title>
<g id="a_node13"><a xlink:href="../../da/d33/glew_8h.html#a414668e7628d609ce501994bd609bfdf" target="_top" xlink:title="glTexEnvi">
<polygon fill="white" stroke="black" points="816,-543.5 816,-562.5 876,-562.5 876,-543.5 816,-543.5"/>
<text text-anchor="middle" x="846" y="-550.5" font-family="Helvetica,sans-Serif" font-size="10.00">glTexEnvi</text>
</a>
</g>
</g>
<!-- Node10&#45;&gt;Node13 -->
<g id="edge14" class="edge"><title>Node10&#45;&gt;Node13</title>
<path fill="none" stroke="midnightblue" d="M723.786,-524.509C737.331,-527.495 752.293,-530.838 766,-534 779.015,-537.003 793.21,-540.383 805.931,-543.452"/>
<polygon fill="midnightblue" stroke="midnightblue" points="805.224,-546.882 815.767,-545.832 806.871,-540.078 805.224,-546.882"/>
</g>
<!-- Node14 -->
<g id="node14" class="node"><title>Node14</title>
<g id="a_node14"><a xlink:href="../../da/d33/glew_8h.html#aa95edbecc15f2cb8072b81af66d60f5b" target="_top" xlink:title="glTexImage2D">
<polygon fill="white" stroke="black" points="806,-505.5 806,-524.5 886,-524.5 886,-505.5 806,-505.5"/>
<text text-anchor="middle" x="846" y="-512.5" font-family="Helvetica,sans-Serif" font-size="10.00">glTexImage2D</text>
</a>
</g>
</g>
<!-- Node10&#45;&gt;Node14 -->
<g id="edge15" class="edge"><title>Node10&#45;&gt;Node14</title>
<path fill="none" stroke="midnightblue" d="M741.909,-515C759.63,-515 778.704,-515 795.568,-515"/>
<polygon fill="midnightblue" stroke="midnightblue" points="795.752,-518.5 805.752,-515 795.752,-511.5 795.752,-518.5"/>
</g>
<!-- Node15&#45;&gt;Node11 -->
<g id="edge17" class="edge"><title>Node15&#45;&gt;Node11</title>
<path fill="none" stroke="midnightblue" d="M743.614,-543.493C751.423,-541.025 759.08,-537.916 766,-534 786.248,-522.543 782.988,-509.408 802,-496 804.376,-494.324 806.924,-492.747 809.549,-491.273"/>
<polygon fill="midnightblue" stroke="midnightblue" points="811.299,-494.31 818.637,-486.668 808.135,-488.066 811.299,-494.31"/>
</g>
<!-- Node15&#45;&gt;Node12 -->
<g id="edge18" class="edge"><title>Node15&#45;&gt;Node12</title>
<path fill="none" stroke="midnightblue" d="M721.636,-562.589C743.508,-567.626 770.506,-573.844 793.664,-579.177"/>
<polygon fill="midnightblue" stroke="midnightblue" points="793.133,-582.646 803.663,-581.48 794.704,-575.825 793.133,-582.646"/>
</g>
<!-- Node15&#45;&gt;Node13 -->
<g id="edge19" class="edge"><title>Node15&#45;&gt;Node13</title>
<path fill="none" stroke="midnightblue" d="M744.739,-553C765.267,-553 787.336,-553 805.528,-553"/>
<polygon fill="midnightblue" stroke="midnightblue" points="805.751,-556.5 815.751,-553 805.751,-549.5 805.751,-556.5"/>
</g>
<!-- Node15&#45;&gt;Node14 -->
<g id="edge20" class="edge"><title>Node15&#45;&gt;Node14</title>
<path fill="none" stroke="midnightblue" d="M723.786,-543.491C737.331,-540.505 752.293,-537.162 766,-534 775.794,-531.741 786.255,-529.267 796.254,-526.874"/>
<polygon fill="midnightblue" stroke="midnightblue" points="797.152,-530.258 806.057,-524.518 795.516,-523.452 797.152,-530.258"/>
</g>
<!-- Node16&#45;&gt;Node4 -->
<g id="edge25" class="edge"><title>Node16&#45;&gt;Node4</title>
<path fill="none" stroke="midnightblue" d="M531.912,-296.834C540.931,-293.124 549.349,-288.015 556,-281 607.641,-226.53 533.542,-163.079 592,-116 660.448,-60.8755 774.231,-113.666 822.376,-140.484"/>
<polygon fill="midnightblue" stroke="midnightblue" points="820.937,-143.693 831.356,-145.613 824.408,-137.614 820.937,-143.693"/>
</g>
<!-- Node16&#45;&gt;Node10 -->
<g id="edge26" class="edge"><title>Node16&#45;&gt;Node10</title>
<path fill="none" stroke="midnightblue" d="M477.577,-321.244C495.917,-343.817 530.579,-387.801 556,-428 574.277,-456.902 564.791,-475.287 592,-496 596.486,-499.415 601.465,-502.241 606.7,-504.576"/>
<polygon fill="midnightblue" stroke="midnightblue" points="605.76,-507.964 616.351,-508.27 608.263,-501.426 605.76,-507.964"/>
</g>
<!-- Node17 -->
<g id="node17" class="node"><title>Node17</title>
<g id="a_node17"><a xlink:href="../../d1/d75/classPyramidGL.html#a26c4ddce33dbce36f2cd9b8030cde568" target="_top" xlink:title="PyramidGL::GetBaseLevel">
<polygon fill="white" stroke="black" points="612.5,-277.5 612.5,-296.5 745.5,-296.5 745.5,-277.5 612.5,-277.5"/>
<text text-anchor="middle" x="679" y="-284.5" font-family="Helvetica,sans-Serif" font-size="10.00">PyramidGL::GetBaseLevel</text>
</a>
</g>
</g>
<!-- Node16&#45;&gt;Node17 -->
<g id="edge22" class="edge"><title>Node16&#45;&gt;Node17</title>
<path fill="none" stroke="midnightblue" d="M531.518,-300.066C553.954,-298.065 579.158,-295.817 602.253,-293.757"/>
<polygon fill="midnightblue" stroke="midnightblue" points="602.702,-297.231 612.351,-292.856 602.08,-290.258 602.702,-297.231"/>
</g>
<!-- Node18 -->
<g id="node18" class="node"><title>Node18</title>
<g id="a_node18"><a xlink:href="../../df/da6/classGLTexImage.html#ac3a15a06aac93511997c876cf4a2e175" target="_top" xlink:title="GLTexImage::GetDrawWidth">
<polygon fill="white" stroke="black" points="607.5,-239.5 607.5,-258.5 750.5,-258.5 750.5,-239.5 607.5,-239.5"/>
<text text-anchor="middle" x="679" y="-246.5" font-family="Helvetica,sans-Serif" font-size="10.00">GLTexImage::GetDrawWidth</text>
</a>
</g>
</g>
<!-- Node16&#45;&gt;Node18 -->
<g id="edge23" class="edge"><title>Node16&#45;&gt;Node18</title>
<path fill="none" stroke="midnightblue" d="M522.482,-290.944C533.647,-287.812 545.225,-284.42 556,-281 572.214,-275.854 575.661,-272.734 592,-268 600.844,-265.438 610.286,-263.03 619.555,-260.845"/>
<polygon fill="midnightblue" stroke="midnightblue" points="620.543,-264.209 629.509,-258.565 618.98,-257.386 620.543,-264.209"/>
</g>
<!-- Node19 -->
<g id="node19" class="node"><title>Node19</title>
<g id="a_node19"><a xlink:href="../../df/da6/classGLTexImage.html#a14d04508d48392c4f705a44bec04fa05" target="_top" xlink:title="GLTexImage::GetDrawHeight">
<polygon fill="white" stroke="black" points="606,-163.5 606,-182.5 752,-182.5 752,-163.5 606,-163.5"/>
<text text-anchor="middle" x="679" y="-170.5" font-family="Helvetica,sans-Serif" font-size="10.00">GLTexImage::GetDrawHeight</text>
</a>
</g>
</g>
<!-- Node16&#45;&gt;Node19 -->
<g id="edge24" class="edge"><title>Node16&#45;&gt;Node19</title>
<path fill="none" stroke="midnightblue" d="M531.829,-295.421C540.643,-291.892 549.024,-287.209 556,-281 587.874,-252.632 559.418,-219.551 592,-192 593.992,-190.315 596.101,-188.771 598.302,-187.356"/>
<polygon fill="midnightblue" stroke="midnightblue" points="600.087,-190.368 607.195,-182.512 596.739,-184.221 600.087,-190.368"/>
</g>
<!-- Node20 -->
<g id="node20" class="node"><title>Node20</title>
<g id="a_node20"><a xlink:href="../../df/da6/classGLTexImage.html#aeb3373705e8eae0feac654a24ac80321" target="_top" xlink:title="GLTexImage::AttachToFBO">
<polygon fill="white" stroke="black" points="609.5,-125.5 609.5,-144.5 748.5,-144.5 748.5,-125.5 609.5,-125.5"/>
<text text-anchor="middle" x="679" y="-132.5" font-family="Helvetica,sans-Serif" font-size="10.00">GLTexImage::AttachToFBO</text>
</a>
</g>
</g>
<!-- Node16&#45;&gt;Node20 -->
<g id="edge27" class="edge"><title>Node16&#45;&gt;Node20</title>
<path fill="none" stroke="midnightblue" d="M531.535,-296.465C540.604,-292.805 549.137,-287.808 556,-281 597.653,-239.684 549.314,-194.248 592,-154 594.581,-151.566 597.401,-149.417 600.395,-147.522"/>
<polygon fill="midnightblue" stroke="midnightblue" points="602.05,-150.606 609.241,-142.825 598.767,-144.424 602.05,-150.606"/>
</g>
<!-- Node21 -->
<g id="node21" class="node"><title>Node21</title>
<g id="a_node21"><a xlink:href="../../df/da6/classGLTexImage.html#acfe4c5231e3e4e64a914bf947498caf2" target="_top" xlink:title="GLTexImage::GetImgWidth">
<polygon fill="white" stroke="black" points="610.5,-467.5 610.5,-486.5 747.5,-486.5 747.5,-467.5 610.5,-467.5"/>
<text text-anchor="middle" x="679" y="-474.5" font-family="Helvetica,sans-Serif" font-size="10.00">GLTexImage::GetImgWidth</text>
</a>
</g>
</g>
<!-- Node16&#45;&gt;Node21 -->
<g id="edge28" class="edge"><title>Node16&#45;&gt;Node21</title>
<path fill="none" stroke="midnightblue" d="M475.607,-321.029C500.406,-355.752 562.32,-439.962 592,-458 595.602,-460.189 599.424,-462.127 603.379,-463.842"/>
<polygon fill="midnightblue" stroke="midnightblue" points="602.214,-467.144 612.805,-467.454 604.72,-460.607 602.214,-467.144"/>
</g>
<!-- Node22 -->
<g id="node22" class="node"><title>Node22</title>
<g id="a_node22"><a xlink:href="../../df/da6/classGLTexImage.html#a0a5bef9bbb86e30e0fac7baa6e7380a0" target="_top" xlink:title="GLTexImage::GetImgHeight">
<polygon fill="white" stroke="black" points="609,-429.5 609,-448.5 749,-448.5 749,-429.5 609,-429.5"/>
<text text-anchor="middle" x="679" y="-436.5" font-family="Helvetica,sans-Serif" font-size="10.00">GLTexImage::GetImgHeight</text>
</a>
</g>
</g>
<!-- Node16&#45;&gt;Node22 -->
<g id="edge29" class="edge"><title>Node16&#45;&gt;Node22</title>
<path fill="none" stroke="midnightblue" d="M477.298,-321.262C498.149,-346.051 542.979,-394.822 592,-420 596.642,-422.384 601.574,-424.47 606.637,-426.295"/>
<polygon fill="midnightblue" stroke="midnightblue" points="605.9,-429.736 616.492,-429.493 608.061,-423.077 605.9,-429.736"/>
</g>
<!-- Node23 -->
<g id="node23" class="node"><title>Node23</title>
<g id="a_node23"><a xlink:href="../../d1/d75/classPyramidGL.html#adc9f9256e92f0d2fccb5e992b0775ba6" target="_top" xlink:title="PyramidGL::GetTextureStorageSize">
<polygon fill="white" stroke="black" points="592.5,-353.5 592.5,-372.5 765.5,-372.5 765.5,-353.5 592.5,-353.5"/>
<text text-anchor="middle" x="679" y="-360.5" font-family="Helvetica,sans-Serif" font-size="10.00">PyramidGL::GetTextureStorageSize</text>
</a>
</g>
</g>
<!-- Node16&#45;&gt;Node23 -->
<g id="edge30" class="edge"><title>Node16&#45;&gt;Node23</title>
<path fill="none" stroke="midnightblue" d="M512.411,-321.086C536.186,-328.421 565.492,-337.116 592,-344 601.657,-346.508 611.978,-348.972 621.997,-351.251"/>
<polygon fill="midnightblue" stroke="midnightblue" points="621.357,-354.694 631.88,-353.463 622.887,-347.863 621.357,-354.694"/>
</g>
<!-- Node24 -->
<g id="node24" class="node"><title>Node24</title>
<g id="a_node24"><a xlink:href="../../d1/d75/classPyramidGL.html#ab3096e88d1558cb4ad876a19597fa0f7" target="_top" xlink:title="PyramidGL::GetAlignedStorageSize">
<polygon fill="white" stroke="black" points="592.5,-201.5 592.5,-220.5 765.5,-220.5 765.5,-201.5 592.5,-201.5"/>
<text text-anchor="middle" x="679" y="-208.5" font-family="Helvetica,sans-Serif" font-size="10.00">PyramidGL::GetAlignedStorageSize</text>
</a>
</g>
</g>
<!-- Node16&#45;&gt;Node24 -->
<g id="edge32" class="edge"><title>Node16&#45;&gt;Node24</title>
<path fill="none" stroke="midnightblue" d="M531.564,-293.542C540.219,-290.285 548.625,-286.178 556,-281 578.707,-265.058 568.896,-245.362 592,-230 595.112,-227.931 598.413,-226.084 601.839,-224.435"/>
<polygon fill="midnightblue" stroke="midnightblue" points="603.294,-227.62 611.156,-220.518 600.581,-221.167 603.294,-227.62"/>
</g>
<!-- Node25 -->
<g id="node25" class="node"><title>Node25</title>
<g id="a_node25"><a xlink:href="../../df/da6/classGLTexImage.html#a2d2fb8f7b78e537c8afef1f4615fa9b2" target="_top" xlink:title="GLTexImage::GetTexWidth">
<polygon fill="white" stroke="black" points="610.5,-391.5 610.5,-410.5 747.5,-410.5 747.5,-391.5 610.5,-391.5"/>
<text text-anchor="middle" x="679" y="-398.5" font-family="Helvetica,sans-Serif" font-size="10.00">GLTexImage::GetTexWidth</text>
</a>
</g>
</g>
<!-- Node16&#45;&gt;Node25 -->
<g id="edge34" class="edge"><title>Node16&#45;&gt;Node25</title>
<path fill="none" stroke="midnightblue" d="M485.483,-321.115C509.727,-338.307 551.885,-366.054 592,-382 598.396,-384.543 605.202,-386.778 612.076,-388.737"/>
<polygon fill="midnightblue" stroke="midnightblue" points="611.593,-392.23 622.156,-391.411 613.388,-385.464 611.593,-392.23"/>
</g>
<!-- Node26 -->
<g id="node26" class="node"><title>Node26</title>
<g id="a_node26"><a xlink:href="../../df/da6/classGLTexImage.html#acf5811dc18277b8f6284867198b7d87a" target="_top" xlink:title="GLTexImage::GetTexHeight">
<polygon fill="white" stroke="black" points="609,-315.5 609,-334.5 749,-334.5 749,-315.5 609,-315.5"/>
<text text-anchor="middle" x="679" y="-322.5" font-family="Helvetica,sans-Serif" font-size="10.00">GLTexImage::GetTexHeight</text>
</a>
</g>
</g>
<!-- Node16&#45;&gt;Node26 -->
<g id="edge35" class="edge"><title>Node16&#45;&gt;Node26</title>
<path fill="none" stroke="midnightblue" d="M531.518,-311.934C552.795,-313.831 576.561,-315.951 598.657,-317.922"/>
<polygon fill="midnightblue" stroke="midnightblue" points="598.405,-321.414 608.677,-318.816 599.027,-314.441 598.405,-321.414"/>
</g>
<!-- Node23&#45;&gt;Node4 -->
<g id="edge31" class="edge"><title>Node23&#45;&gt;Node4</title>
<path fill="none" stroke="midnightblue" d="M750.765,-353.441C756.253,-350.931 761.428,-347.828 766,-344 819.348,-299.33 837.249,-212.648 842.76,-173.74"/>
<polygon fill="midnightblue" stroke="midnightblue" points="846.246,-174.066 844.052,-163.701 839.304,-173.173 846.246,-174.066"/>
</g>
<!-- Node24&#45;&gt;Node4 -->
<g id="edge33" class="edge"><title>Node24&#45;&gt;Node4</title>
<path fill="none" stroke="midnightblue" d="M732.382,-201.451C743.609,-198.845 755.306,-195.697 766,-192 785.773,-185.163 807.091,-174.711 822.592,-166.499"/>
<polygon fill="midnightblue" stroke="midnightblue" points="824.292,-169.559 831.427,-161.726 820.965,-163.4 824.292,-169.559"/>
</g>
<!-- Node28 -->
<g id="node28" class="node"><title>Node28</title>
<g id="a_node28"><a xlink:href="../../d9/d4e/classShaderBag.html#ac8fe5f71119754e2dc994a4dc0b8b3d6" target="_top" xlink:title="ShaderBag::SelectInitial\lSmoothingFilter">
<polygon fill="white" stroke="black" points="403,-29 403,-59 525,-59 525,-29 403,-29"/>
<text text-anchor="start" x="411" y="-47" font-family="Helvetica,sans-Serif" font-size="10.00">ShaderBag::SelectInitial</text>
<text text-anchor="middle" x="464" y="-36" font-family="Helvetica,sans-Serif" font-size="10.00">SmoothingFilter</text>
</a>
</g>
</g>
<!-- Node27&#45;&gt;Node28 -->
<g id="edge37" class="edge"><title>Node27&#45;&gt;Node28</title>
<path fill="none" stroke="midnightblue" d="M318.675,-60.8966C341.919,-58.1754 368.627,-55.0486 392.698,-52.2305"/>
<polygon fill="midnightblue" stroke="midnightblue" points="393.31,-55.6829 402.835,-51.0437 392.496,-48.7304 393.31,-55.6829"/>
</g>
<!-- Node29 -->
<g id="node29" class="node"><title>Node29</title>
<g id="a_node29"><a xlink:href="../../dc/d5a/classSiftParam.html#a27547510363d25d5586a1d0f45521fe3" target="_top" xlink:title="SiftParam::GetInitialSmooth\lSigma">
<polygon fill="white" stroke="black" points="609.5,-0 609.5,-30 748.5,-30 748.5,-0 609.5,-0"/>
<text text-anchor="start" x="617.5" y="-18" font-family="Helvetica,sans-Serif" font-size="10.00">SiftParam::GetInitialSmooth</text>
<text text-anchor="middle" x="679" y="-7" font-family="Helvetica,sans-Serif" font-size="10.00">Sigma</text>
</a>
</g>
</g>
<!-- Node28&#45;&gt;Node29 -->
<g id="edge38" class="edge"><title>Node28&#45;&gt;Node29</title>
<path fill="none" stroke="midnightblue" d="M525.183,-35.806C548.213,-32.6705 574.833,-29.0463 599.337,-25.71"/>
<polygon fill="midnightblue" stroke="midnightblue" points="599.894,-29.1665 609.33,-24.3494 598.95,-22.2305 599.894,-29.1665"/>
</g>
</g>
</svg>
        <g id="navigator" transform="translate(0 0)" fill="#404254">
                <rect fill="#f2f5e9" fill-opacity="0.5" stroke="#606060" stroke-width=".5" x="0" y="0" width="60" height="60"/>
                <use id="zoomplus" xlink:href="#zoomPlus" x="17" y="9" onmousedown="handleZoom(evt,'in')"/>
                <use id="zoomminus" xlink:href="#zoomMin" x="42" y="9" onmousedown="handleZoom(evt,'out')"/>
                <use id="reset" xlink:href="#resetDef" x="30" y="36" onmousedown="handleReset()"/>
                <g id="arrowUp" xlink:href="#dirArrow" transform="translate(30 24)" onmousedown="handlePan(0,-1)">
                  <use xlink:href="#rim" fill="#404040">
                        <set attributeName="fill" to="#808080" begin="arrowUp.mouseover" end="arrowUp.mouseout"/>
                  </use>
                  <path fill="none" stroke="white" stroke-width="1.5" d="M0,-3.0v7 M-2.5,-0.5L0,-3.0L2.5,-0.5"/>
                </g>
                <g id="arrowRight" xlink:href="#dirArrow" transform="rotate(90) translate(36 -43)" onmousedown="handlePan(1,0)">
                  <use xlink:href="#rim" fill="#404040">
                        <set attributeName="fill" to="#808080" begin="arrowRight.mouseover" end="arrowRight.mouseout"/>
                  </use>
                  <path fill="none" stroke="white" stroke-width="1.5" d="M0,-3.0v7 M-2.5,-0.5L0,-3.0L2.5,-0.5"/>
                </g>
                <g id="arrowDown" xlink:href="#dirArrow" transform="rotate(180) translate(-30 -48)" onmousedown="handlePan(0,1)">
                  <use xlink:href="#rim" fill="#404040">
                        <set attributeName="fill" to="#808080" begin="arrowDown.mouseover" end="arrowDown.mouseout"/>
                  </use>
                  <path fill="none" stroke="white" stroke-width="1.5" d="M0,-3.0v7 M-2.5,-0.5L0,-3.0L2.5,-0.5"/>
                </g>
                <g id="arrowLeft" xlink:href="#dirArrow" transform="rotate(270) translate(-36 17)" onmousedown="handlePan(-1,0)">
                  <use xlink:href="#rim" fill="#404040">
                        <set attributeName="fill" to="#808080" begin="arrowLeft.mouseover" end="arrowLeft.mouseout"/>
                  </use>
                  <path fill="none" stroke="white" stroke-width="1.5" d="M0,-3.0v7 M-2.5,-0.5L0,-3.0L2.5,-0.5"/>
                </g>
        </g>
        <svg viewBox="0 0 15 15" width="100%" height="30px" preserveAspectRatio="xMaxYMin meet">
         <g id="arrow_out" transform="scale(0.3 0.3)">
          <a xlink:href="classPyramidPacked_ae6e2585b787f86a0da50a33e9e218c3e_cgraph_org.svg" target="_base">
           <rect id="button" ry="5" rx="5" y="6" x="6" height="38" width="38"
                fill="#f2f5e9" fill-opacity="0.5" stroke="#606060" stroke-width="1.0"/>
           <path id="arrow"
             d="M 11.500037,31.436501 C 11.940474,20.09759 22.043105,11.32322 32.158766,21.979434 L 37.068811,17.246167 C 37.068811,17.246167 37.088388,32 37.088388,32 L 22.160133,31.978069 C 22.160133,31.978069 26.997745,27.140456 26.997745,27.140456 C 18.528582,18.264221 13.291696,25.230495 11.500037,31.436501 z"
             style="fill:#404040;"/>
          </a>
         </g>
        </svg>
</svg>
