<?xml version="1.0" encoding="UTF-8" standalone="no"?>
<!DOCTYPE svg PUBLIC "-//W3C//DTD SVG 1.1//EN"
 "http://www.w3.org/Graphics/SVG/1.1/DTD/svg11.dtd">
<!-- Generated by graphviz version 2.36.0 (20140111.2315)
 -->
<!-- Title: PyramidPacked::FitHistogramPyramid Pages: 1 -->
<svg width="346pt" height="180pt"
 viewBox="0.00 0.00 346.00 180.00" xmlns="http://www.w3.org/2000/svg" xmlns:xlink="http://www.w3.org/1999/xlink">
<g id="graph0" class="graph" transform="scale(1 1) rotate(0) translate(4 176)">
<title>PyramidPacked::FitHistogramPyramid</title>
<polygon fill="white" stroke="none" points="-4,4 -4,-176 342,-176 342,4 -4,4"/>
<!-- Node1 -->
<g id="node1" class="node"><title>Node1</title>
<polygon fill="#bfbfbf" stroke="black" points="0,-71 0,-101 148,-101 148,-71 0,-71"/>
<text text-anchor="start" x="8" y="-89" font-family="Helvetica,sans-Serif" font-size="10.00">PyramidPacked::FitHistogram</text>
<text text-anchor="middle" x="74" y="-78" font-family="Helvetica,sans-Serif" font-size="10.00">Pyramid</text>
</g>
<!-- Node2 -->
<g id="node2" class="node"><title>Node2</title>
<g id="a_node2"><a xlink:href="../../d0/dbc/classPyramidPacked.html#ad1fe8f1ea73c50591739180e581b0c8e" target="_top" xlink:title="PyramidPacked::GetBaseLevel">
<polygon fill="white" stroke="black" points="184.5,-152.5 184.5,-171.5 337.5,-171.5 337.5,-152.5 184.5,-152.5"/>
<text text-anchor="middle" x="261" y="-159.5" font-family="Helvetica,sans-Serif" font-size="10.00">PyramidPacked::GetBaseLevel</text>
</a>
</g>
</g>
<!-- Node1&#45;&gt;Node2 -->
<g id="edge1" class="edge"><title>Node1&#45;&gt;Node2</title>
<path fill="none" stroke="midnightblue" d="M99.7575,-101.116C121.353,-113.766 153.86,-131.538 184,-143 190.491,-145.469 197.417,-147.708 204.345,-149.712"/>
<polygon fill="midnightblue" stroke="midnightblue" points="203.878,-153.213 214.447,-152.479 205.727,-146.462 203.878,-153.213"/>
</g>
<!-- Node3 -->
<g id="node3" class="node"><title>Node3</title>
<g id="a_node3"><a xlink:href="../../df/da6/classGLTexImage.html#acfe4c5231e3e4e64a914bf947498caf2" target="_top" xlink:title="GLTexImage::GetImgWidth">
<polygon fill="white" stroke="black" points="192.5,-114.5 192.5,-133.5 329.5,-133.5 329.5,-114.5 192.5,-114.5"/>
<text text-anchor="middle" x="261" y="-121.5" font-family="Helvetica,sans-Serif" font-size="10.00">GLTexImage::GetImgWidth</text>
</a>
</g>
</g>
<!-- Node1&#45;&gt;Node3 -->
<g id="edge2" class="edge"><title>Node1&#45;&gt;Node3</title>
<path fill="none" stroke="midnightblue" d="M148.117,-101.019C166.607,-104.816 186.178,-108.837 203.694,-112.434"/>
<polygon fill="midnightblue" stroke="midnightblue" points="203.246,-115.915 213.746,-114.499 204.654,-109.059 203.246,-115.915"/>
</g>
<!-- Node4 -->
<g id="node4" class="node"><title>Node4</title>
<g id="a_node4"><a xlink:href="../../df/da6/classGLTexImage.html#a0a5bef9bbb86e30e0fac7baa6e7380a0" target="_top" xlink:title="GLTexImage::GetImgHeight">
<polygon fill="white" stroke="black" points="191,-76.5 191,-95.5 331,-95.5 331,-76.5 191,-76.5"/>
<text text-anchor="middle" x="261" y="-83.5" font-family="Helvetica,sans-Serif" font-size="10.00">GLTexImage::GetImgHeight</text>
</a>
</g>
</g>
<!-- Node1&#45;&gt;Node4 -->
<g id="edge3" class="edge"><title>Node1&#45;&gt;Node4</title>
<path fill="none" stroke="midnightblue" d="M148.117,-86C158.756,-86 169.752,-86 180.51,-86"/>
<polygon fill="midnightblue" stroke="midnightblue" points="180.731,-89.5001 190.73,-86 180.73,-82.5001 180.731,-89.5001"/>
</g>
<!-- Node5 -->
<g id="node5" class="node"><title>Node5</title>
<g id="a_node5"><a xlink:href="../../df/da6/classGLTexImage.html#a57d1a67486a2d19508b4b4bb65cb0e88" target="_top" xlink:title="GLTexImage::SetImageSize">
<polygon fill="white" stroke="black" points="191,-38.5 191,-57.5 331,-57.5 331,-38.5 191,-38.5"/>
<text text-anchor="middle" x="261" y="-45.5" font-family="Helvetica,sans-Serif" font-size="10.00">GLTexImage::SetImageSize</text>
</a>
</g>
</g>
<!-- Node1&#45;&gt;Node5 -->
<g id="edge4" class="edge"><title>Node1&#45;&gt;Node5</title>
<path fill="none" stroke="midnightblue" d="M148.117,-70.9814C166.607,-67.1835 186.178,-63.1634 203.694,-59.5656"/>
<polygon fill="midnightblue" stroke="midnightblue" points="204.654,-62.9415 213.746,-57.5009 203.246,-56.0846 204.654,-62.9415"/>
</g>
<!-- Node6 -->
<g id="node6" class="node"><title>Node6</title>
<g id="a_node6"><a xlink:href="../../df/da6/classGLTexImage.html#ac3e3d4ecb428287ae07ffca97473a849" target="_top" xlink:title="GLTexImage::ZeroHistoMargin">
<polygon fill="white" stroke="black" points="185.5,-0.5 185.5,-19.5 336.5,-19.5 336.5,-0.5 185.5,-0.5"/>
<text text-anchor="middle" x="261" y="-7.5" font-family="Helvetica,sans-Serif" font-size="10.00">GLTexImage::ZeroHistoMargin</text>
</a>
</g>
</g>
<!-- Node1&#45;&gt;Node6 -->
<g id="edge5" class="edge"><title>Node1&#45;&gt;Node6</title>
<path fill="none" stroke="midnightblue" d="M99.7575,-70.8837C121.353,-58.2336 153.86,-40.462 184,-29 190.491,-26.5314 197.417,-24.2917 204.345,-22.2878"/>
<polygon fill="midnightblue" stroke="midnightblue" points="205.727,-25.5383 214.447,-19.5213 203.878,-18.7869 205.727,-25.5383"/>
</g>
</g>
</svg>
