<?xml version="1.0" encoding="UTF-8" standalone="no"?>
<!DOCTYPE svg PUBLIC "-//W3C//DTD SVG 1.1//EN"
 "http://www.w3.org/Graphics/SVG/1.1/DTD/svg11.dtd">
<!-- Generated by graphviz version 2.36.0 (20140111.2315)
 -->
<!-- Title: lsd_slam::DepthMap::initializeRandomly Pages: 1 -->
<svg width="664pt" height="151pt"
 viewBox="0.00 0.00 664.00 150.68" xmlns="http://www.w3.org/2000/svg" xmlns:xlink="http://www.w3.org/1999/xlink">
<g id="graph0" class="graph" transform="scale(1 1) rotate(0) translate(4 146.682)">
<title>lsd_slam::DepthMap::initializeRandomly</title>
<polygon fill="white" stroke="none" points="-4,4 -4,-146.682 660,-146.682 660,4 -4,4"/>
<!-- Node1 -->
<g id="node1" class="node"><title>Node1</title>
<polygon fill="#bfbfbf" stroke="black" points="0.5,-81 0.5,-111 107.5,-111 107.5,-81 0.5,-81"/>
<text text-anchor="start" x="8.5" y="-99" font-family="Helvetica,sans-Serif" font-size="10.00">lsd_slam::DepthMap</text>
<text text-anchor="middle" x="54" y="-88" font-family="Helvetica,sans-Serif" font-size="10.00">::initializeRandomly</text>
</g>
<!-- Node2 -->
<g id="node2" class="node"><title>Node2</title>
<g id="a_node2"><a xlink:href="../../dd/d08/classlsd__slam_1_1Frame.html#af73ccb75e1e449d9a8f2044246ee3530" target="_top" xlink:title="lsd_slam::Frame::getActiveLock">
<polygon fill="white" stroke="black" points="336,-96.5 336,-115.5 494,-115.5 494,-96.5 336,-96.5"/>
<text text-anchor="middle" x="415" y="-103.5" font-family="Helvetica,sans-Serif" font-size="10.00">lsd_slam::Frame::getActiveLock</text>
</a>
</g>
</g>
<!-- Node1&#45;&gt;Node2 -->
<g id="edge1" class="edge"><title>Node1&#45;&gt;Node2</title>
<path fill="none" stroke="midnightblue" d="M82.513,-111.177C99.6375,-119.742 122.437,-129.589 144,-134 211.927,-147.894 231.169,-142.329 300,-134 324.977,-130.978 352.374,-124.359 374.05,-118.315"/>
<polygon fill="midnightblue" stroke="midnightblue" points="375.232,-121.618 383.885,-115.504 373.308,-114.887 375.232,-121.618"/>
</g>
<!-- Node5 -->
<g id="node5" class="node"><title>Node5</title>
<g id="a_node5"><a xlink:href="../../dd/d08/classlsd__slam_1_1Frame.html#a9306307027bbe62b973c0b138216b456" target="_top" xlink:title="lsd_slam::Frame::image">
<polygon fill="white" stroke="black" points="161,-105.5 161,-124.5 283,-124.5 283,-105.5 161,-105.5"/>
<text text-anchor="middle" x="222" y="-112.5" font-family="Helvetica,sans-Serif" font-size="10.00">lsd_slam::Frame::image</text>
</a>
</g>
</g>
<!-- Node1&#45;&gt;Node5 -->
<g id="edge4" class="edge"><title>Node1&#45;&gt;Node5</title>
<path fill="none" stroke="midnightblue" d="M107.523,-102.012C121.129,-103.569 136.003,-105.271 150.371,-106.916"/>
<polygon fill="midnightblue" stroke="midnightblue" points="150.385,-110.44 160.718,-108.1 151.181,-103.486 150.385,-110.44"/>
</g>
<!-- Node6 -->
<g id="node6" class="node"><title>Node6</title>
<g id="a_node6"><a xlink:href="../../dd/d08/classlsd__slam_1_1Frame.html#a0b26845d846249e909e6ab0adc022ebf" target="_top" xlink:title="lsd_slam::Frame::maxGradients">
<polygon fill="white" stroke="black" points="144,-67.5 144,-86.5 300,-86.5 300,-67.5 144,-67.5"/>
<text text-anchor="middle" x="222" y="-74.5" font-family="Helvetica,sans-Serif" font-size="10.00">lsd_slam::Frame::maxGradients</text>
</a>
</g>
</g>
<!-- Node1&#45;&gt;Node6 -->
<g id="edge5" class="edge"><title>Node1&#45;&gt;Node6</title>
<path fill="none" stroke="midnightblue" d="M107.523,-89.9883C115.943,-89.0246 124.849,-88.0053 133.819,-86.9785"/>
<polygon fill="midnightblue" stroke="midnightblue" points="134.416,-90.4332 143.953,-85.8186 133.62,-83.4786 134.416,-90.4332"/>
</g>
<!-- Node7 -->
<g id="node7" class="node"><title>Node7</title>
<g id="a_node7"><a xlink:href="../../dd/d08/classlsd__slam_1_1Frame.html#aa869fc645781090678dc61399ef26f73" target="_top" xlink:title="lsd_slam::Frame::setDepth">
<polygon fill="white" stroke="black" points="154.5,-29.5 154.5,-48.5 289.5,-48.5 289.5,-29.5 154.5,-29.5"/>
<text text-anchor="middle" x="222" y="-36.5" font-family="Helvetica,sans-Serif" font-size="10.00">lsd_slam::Frame::setDepth</text>
</a>
</g>
</g>
<!-- Node1&#45;&gt;Node7 -->
<g id="edge6" class="edge"><title>Node1&#45;&gt;Node7</title>
<path fill="none" stroke="midnightblue" d="M87.0623,-80.8219C103.783,-73.2894 124.72,-64.4474 144,-58 151.437,-55.5129 159.376,-53.192 167.226,-51.0866"/>
<polygon fill="midnightblue" stroke="midnightblue" points="168.271,-54.4314 177.076,-48.5385 166.518,-47.6544 168.271,-54.4314"/>
</g>
<!-- Node3 -->
<g id="node3" class="node"><title>Node3</title>
<g id="a_node3"><a xlink:href="../../d1/d95/classlsd__slam_1_1FrameMemory.html#adf4afed8c58a420b38e4b117628ac32d" target="_top" xlink:title="lsd_slam::FrameMemory\l::getInstance">
<polygon fill="white" stroke="black" points="530.5,-49 530.5,-79 655.5,-79 655.5,-49 530.5,-49"/>
<text text-anchor="start" x="538.5" y="-67" font-family="Helvetica,sans-Serif" font-size="10.00">lsd_slam::FrameMemory</text>
<text text-anchor="middle" x="593" y="-56" font-family="Helvetica,sans-Serif" font-size="10.00">::getInstance</text>
</a>
</g>
</g>
<!-- Node2&#45;&gt;Node3 -->
<g id="edge2" class="edge"><title>Node2&#45;&gt;Node3</title>
<path fill="none" stroke="midnightblue" d="M455.937,-96.4695C475.022,-91.9151 498.459,-86.3224 520.469,-81.0699"/>
<polygon fill="midnightblue" stroke="midnightblue" points="521.547,-84.4111 530.461,-78.6854 519.922,-77.6023 521.547,-84.4111"/>
</g>
<!-- Node4 -->
<g id="node4" class="node"><title>Node4</title>
<g id="a_node4"><a xlink:href="../../d1/d95/classlsd__slam_1_1FrameMemory.html#a6835f2a14358dee3518d9f9bff8526e3" target="_top" xlink:title="lsd_slam::FrameMemory\l::activateFrame">
<polygon fill="white" stroke="black" points="530.5,-98 530.5,-128 655.5,-128 655.5,-98 530.5,-98"/>
<text text-anchor="start" x="538.5" y="-116" font-family="Helvetica,sans-Serif" font-size="10.00">lsd_slam::FrameMemory</text>
<text text-anchor="middle" x="593" y="-105" font-family="Helvetica,sans-Serif" font-size="10.00">::activateFrame</text>
</a>
</g>
</g>
<!-- Node2&#45;&gt;Node4 -->
<g id="edge3" class="edge"><title>Node2&#45;&gt;Node4</title>
<path fill="none" stroke="midnightblue" d="M494.221,-109.111C502.931,-109.457 511.771,-109.809 520.393,-110.152"/>
<polygon fill="midnightblue" stroke="midnightblue" points="520.262,-113.649 530.394,-110.55 520.541,-106.655 520.262,-113.649"/>
</g>
<!-- Node7&#45;&gt;Node2 -->
<g id="edge7" class="edge"><title>Node7&#45;&gt;Node2</title>
<path fill="none" stroke="midnightblue" d="M268.699,-48.5044C279.121,-51.1584 290.051,-54.3368 300,-58 316.787,-64.1807 319.633,-68.7808 336,-76 349.434,-81.9257 364.437,-87.8547 377.668,-92.8583"/>
<polygon fill="midnightblue" stroke="midnightblue" points="376.793,-96.2676 387.386,-96.4888 379.243,-89.7103 376.793,-96.2676"/>
</g>
<!-- Node7&#45;&gt;Node3 -->
<g id="edge8" class="edge"><title>Node7&#45;&gt;Node3</title>
<path fill="none" stroke="midnightblue" d="M289.823,-43.5273C354.914,-47.9373 453.544,-54.6195 520.262,-59.1397"/>
<polygon fill="midnightblue" stroke="midnightblue" points="520.062,-62.6341 530.276,-59.8181 520.535,-55.6501 520.062,-62.6341"/>
</g>
<!-- Node8 -->
<g id="node8" class="node"><title>Node8</title>
<g id="a_node8"><a xlink:href="../../d1/d95/classlsd__slam_1_1FrameMemory.html#a5a2a621821958fe136a2ddc9707a1f72" target="_top" xlink:title="lsd_slam::FrameMemory\l::getFloatBuffer">
<polygon fill="white" stroke="black" points="352.5,-2 352.5,-32 477.5,-32 477.5,-2 352.5,-2"/>
<text text-anchor="start" x="360.5" y="-20" font-family="Helvetica,sans-Serif" font-size="10.00">lsd_slam::FrameMemory</text>
<text text-anchor="middle" x="415" y="-9" font-family="Helvetica,sans-Serif" font-size="10.00">::getFloatBuffer</text>
</a>
</g>
</g>
<!-- Node7&#45;&gt;Node8 -->
<g id="edge9" class="edge"><title>Node7&#45;&gt;Node8</title>
<path fill="none" stroke="midnightblue" d="M289.534,-31.3364C306.544,-29.3771 324.908,-27.2619 342.17,-25.2736"/>
<polygon fill="midnightblue" stroke="midnightblue" points="342.654,-28.741 352.188,-24.1197 341.853,-21.787 342.654,-28.741"/>
</g>
<!-- Node9 -->
<g id="node9" class="node"><title>Node9</title>
<g id="a_node9"><a xlink:href="../../d1/d95/classlsd__slam_1_1FrameMemory.html#abd3eb8d2623e977f3da91416d66d01e3" target="_top" xlink:title="lsd_slam::FrameMemory\l::getBuffer">
<polygon fill="white" stroke="black" points="530.5,-0 530.5,-30 655.5,-30 655.5,-0 530.5,-0"/>
<text text-anchor="start" x="538.5" y="-18" font-family="Helvetica,sans-Serif" font-size="10.00">lsd_slam::FrameMemory</text>
<text text-anchor="middle" x="593" y="-7" font-family="Helvetica,sans-Serif" font-size="10.00">::getBuffer</text>
</a>
</g>
</g>
<!-- Node8&#45;&gt;Node9 -->
<g id="edge10" class="edge"><title>Node8&#45;&gt;Node9</title>
<path fill="none" stroke="midnightblue" d="M477.556,-16.3005C491.356,-16.1437 506.112,-15.976 520.284,-15.815"/>
<polygon fill="midnightblue" stroke="midnightblue" points="520.519,-19.3126 530.478,-15.6991 520.439,-12.3131 520.519,-19.3126"/>
</g>
</g>
</svg>
