<?xml version="1.0" encoding="UTF-8" standalone="no"?>
<!DOCTYPE svg PUBLIC "-//W3C//DTD SVG 1.1//EN"
 "http://www.w3.org/Graphics/SVG/1.1/DTD/svg11.dtd">
<!-- Generated by graphviz version 2.36.0 (20140111.2315)
 -->
<!-- Title: lsd_slam::DepthMap::createKeyFrame Pages: 1 -->
<svg width="658pt" height="458pt"
 viewBox="0.00 0.00 658.00 458.00" xmlns="http://www.w3.org/2000/svg" xmlns:xlink="http://www.w3.org/1999/xlink">
<g id="graph0" class="graph" transform="scale(1 1) rotate(0) translate(4 454)">
<title>lsd_slam::DepthMap::createKeyFrame</title>
<polygon fill="white" stroke="none" points="-4,4 -4,-454 654,-454 654,4 -4,4"/>
<!-- Node1 -->
<g id="node1" class="node"><title>Node1</title>
<polygon fill="#bfbfbf" stroke="black" points="0.5,-213 0.5,-243 107.5,-243 107.5,-213 0.5,-213"/>
<text text-anchor="start" x="8.5" y="-231" font-family="Helvetica,sans-Serif" font-size="10.00">lsd_slam::DepthMap</text>
<text text-anchor="middle" x="54" y="-220" font-family="Helvetica,sans-Serif" font-size="10.00">::createKeyFrame</text>
</g>
<!-- Node2 -->
<g id="node2" class="node"><title>Node2</title>
<g id="a_node2"><a xlink:href="../../db/dea/classlsd__slam_1_1DepthMap.html#a77ffa8175ac0ff7e3d9a6bbe72d7fe93" target="_top" xlink:title="lsd_slam::DepthMap\l::isValid">
<polygon fill="white" stroke="black" points="165.5,-420 165.5,-450 272.5,-450 272.5,-420 165.5,-420"/>
<text text-anchor="start" x="173.5" y="-438" font-family="Helvetica,sans-Serif" font-size="10.00">lsd_slam::DepthMap</text>
<text text-anchor="middle" x="219" y="-427" font-family="Helvetica,sans-Serif" font-size="10.00">::isValid</text>
</a>
</g>
</g>
<!-- Node1&#45;&gt;Node2 -->
<g id="edge1" class="edge"><title>Node1&#45;&gt;Node2</title>
<path fill="none" stroke="midnightblue" d="M58.2047,-243.131C66.3137,-277.751 90.8907,-363.336 144,-410 147.69,-413.242 151.816,-416.067 156.183,-418.528"/>
<polygon fill="midnightblue" stroke="midnightblue" points="154.902,-421.799 165.419,-423.086 158,-415.522 154.902,-421.799"/>
</g>
<!-- Node3 -->
<g id="node3" class="node"><title>Node3</title>
<g id="a_node3"><a xlink:href="../../dd/d08/classlsd__slam_1_1Frame.html#a013921be6869702deac98090a8c9033c" target="_top" xlink:title="lsd_slam::Frame::hasTracking\lParent">
<polygon fill="white" stroke="black" points="144.5,-371 144.5,-401 293.5,-401 293.5,-371 144.5,-371"/>
<text text-anchor="start" x="152.5" y="-389" font-family="Helvetica,sans-Serif" font-size="10.00">lsd_slam::Frame::hasTracking</text>
<text text-anchor="middle" x="219" y="-378" font-family="Helvetica,sans-Serif" font-size="10.00">Parent</text>
</a>
</g>
</g>
<!-- Node1&#45;&gt;Node3 -->
<g id="edge2" class="edge"><title>Node1&#45;&gt;Node3</title>
<path fill="none" stroke="midnightblue" d="M61.8857,-243.151C74.5717,-269.517 104.037,-324.066 144,-356 148.904,-359.919 154.388,-363.39 160.094,-366.449"/>
<polygon fill="midnightblue" stroke="midnightblue" points="158.673,-369.65 169.191,-370.922 161.762,-363.369 158.673,-369.65"/>
</g>
<!-- Node4 -->
<g id="node4" class="node"><title>Node4</title>
<g id="a_node4"><a xlink:href="../../dd/d08/classlsd__slam_1_1Frame.html#af73ccb75e1e449d9a8f2044246ee3530" target="_top" xlink:title="lsd_slam::Frame::getActiveLock">
<polygon fill="white" stroke="black" points="330,-332.5 330,-351.5 488,-351.5 488,-332.5 330,-332.5"/>
<text text-anchor="middle" x="409" y="-339.5" font-family="Helvetica,sans-Serif" font-size="10.00">lsd_slam::Frame::getActiveLock</text>
</a>
</g>
</g>
<!-- Node1&#45;&gt;Node4 -->
<g id="edge3" class="edge"><title>Node1&#45;&gt;Node4</title>
<path fill="none" stroke="midnightblue" d="M63.9333,-243.151C77.8745,-265.194 107.076,-305.395 144,-323 198.456,-348.965 266.492,-353.295 319.856,-351.352"/>
<polygon fill="midnightblue" stroke="midnightblue" points="320.149,-354.843 329.984,-350.902 319.838,-347.849 320.149,-354.843"/>
</g>
<!-- Node7 -->
<g id="node7" class="node"><title>Node7</title>
<g id="a_node7"><a xlink:href="../../dd/d08/classlsd__slam_1_1Frame.html#a014d19bf6ffba0f0c0b8b684f9afb0b0" target="_top" xlink:title="lsd_slam::Frame::height">
<polygon fill="white" stroke="black" points="158,-256.5 158,-275.5 280,-275.5 280,-256.5 158,-256.5"/>
<text text-anchor="middle" x="219" y="-263.5" font-family="Helvetica,sans-Serif" font-size="10.00">lsd_slam::Frame::height</text>
</a>
</g>
</g>
<!-- Node1&#45;&gt;Node7 -->
<g id="edge6" class="edge"><title>Node1&#45;&gt;Node7</title>
<path fill="none" stroke="midnightblue" d="M107.921,-240.338C126.99,-244.783 148.449,-249.786 167.322,-254.185"/>
<polygon fill="midnightblue" stroke="midnightblue" points="166.685,-257.631 177.218,-256.493 168.274,-250.813 166.685,-257.631"/>
</g>
<!-- Node8 -->
<g id="node8" class="node"><title>Node8</title>
<g id="a_node8"><a xlink:href="../../dd/d08/classlsd__slam_1_1Frame.html#a3f14a1c43b6cb21d31274f880b0bf36b" target="_top" xlink:title="lsd_slam::Frame::width">
<polygon fill="white" stroke="black" points="159.5,-218.5 159.5,-237.5 278.5,-237.5 278.5,-218.5 159.5,-218.5"/>
<text text-anchor="middle" x="219" y="-225.5" font-family="Helvetica,sans-Serif" font-size="10.00">lsd_slam::Frame::width</text>
</a>
</g>
</g>
<!-- Node1&#45;&gt;Node8 -->
<g id="edge7" class="edge"><title>Node1&#45;&gt;Node8</title>
<path fill="none" stroke="midnightblue" d="M107.921,-228C121.033,-228 135.274,-228 149.028,-228"/>
<polygon fill="midnightblue" stroke="midnightblue" points="149.424,-231.5 159.424,-228 149.424,-224.5 149.424,-231.5"/>
</g>
<!-- Node9 -->
<g id="node9" class="node"><title>Node9</title>
<g id="a_node9"><a xlink:href="../../dd/d08/classlsd__slam_1_1Frame.html#a9306307027bbe62b973c0b138216b456" target="_top" xlink:title="lsd_slam::Frame::image">
<polygon fill="white" stroke="black" points="158,-180.5 158,-199.5 280,-199.5 280,-180.5 158,-180.5"/>
<text text-anchor="middle" x="219" y="-187.5" font-family="Helvetica,sans-Serif" font-size="10.00">lsd_slam::Frame::image</text>
</a>
</g>
</g>
<!-- Node1&#45;&gt;Node9 -->
<g id="edge8" class="edge"><title>Node1&#45;&gt;Node9</title>
<path fill="none" stroke="midnightblue" d="M107.921,-215.662C126.99,-211.217 148.449,-206.214 167.322,-201.815"/>
<polygon fill="midnightblue" stroke="midnightblue" points="168.274,-205.187 177.218,-199.507 166.685,-198.369 168.274,-205.187"/>
</g>
<!-- Node10 -->
<g id="node10" class="node"><title>Node10</title>
<g id="a_node10"><a xlink:href="../../dc/dca/namespacelsd__slam.html#a6ab8d718a8bf6c1c85541b8948bd5248" target="_top" xlink:title="lsd_slam::se3FromSim3">
<polygon fill="white" stroke="black" points="158,-142.5 158,-161.5 280,-161.5 280,-142.5 158,-142.5"/>
<text text-anchor="middle" x="219" y="-149.5" font-family="Helvetica,sans-Serif" font-size="10.00">lsd_slam::se3FromSim3</text>
</a>
</g>
</g>
<!-- Node1&#45;&gt;Node10 -->
<g id="edge9" class="edge"><title>Node1&#45;&gt;Node10</title>
<path fill="none" stroke="midnightblue" d="M74.4694,-212.932C91.8459,-200.137 118.427,-182.129 144,-171 149.667,-168.534 155.722,-166.336 161.837,-164.39"/>
<polygon fill="midnightblue" stroke="midnightblue" points="162.856,-167.739 171.447,-161.539 160.865,-161.028 162.856,-167.739"/>
</g>
<!-- Node13 -->
<g id="node13" class="node"><title>Node13</title>
<g id="a_node13"><a xlink:href="../../d0/d8c/classSophus_1_1SE3GroupBase.html#a1b47e7c7329fecdc289f95094248ccfe" target="_top" xlink:title="Sophus::SE3GroupBase\l::inverse">
<polygon fill="white" stroke="black" points="157.5,-93 157.5,-123 280.5,-123 280.5,-93 157.5,-93"/>
<text text-anchor="start" x="165.5" y="-111" font-family="Helvetica,sans-Serif" font-size="10.00">Sophus::SE3GroupBase</text>
<text text-anchor="middle" x="219" y="-100" font-family="Helvetica,sans-Serif" font-size="10.00">::inverse</text>
</a>
</g>
</g>
<!-- Node1&#45;&gt;Node13 -->
<g id="edge12" class="edge"><title>Node1&#45;&gt;Node13</title>
<path fill="none" stroke="midnightblue" d="M65.3311,-212.98C80.3588,-192.196 110.173,-154.773 144,-133 147.15,-130.973 150.482,-129.091 153.92,-127.349"/>
<polygon fill="midnightblue" stroke="midnightblue" points="155.605,-130.426 163.215,-123.054 152.669,-124.071 155.605,-130.426"/>
</g>
<!-- Node14 -->
<g id="node14" class="node"><title>Node14</title>
<g id="a_node14"><a xlink:href="../../dc/dca/namespacelsd__slam.html#a65aac68c7cecdc9c125ec8926b27e867" target="_top" xlink:title="lsd_slam::sim3FromSE3">
<polygon fill="white" stroke="black" points="157,-54.5 157,-73.5 281,-73.5 281,-54.5 157,-54.5"/>
<text text-anchor="middle" x="219" y="-61.5" font-family="Helvetica,sans-Serif" font-size="10.00">lsd_slam::sim3FromSE3</text>
</a>
</g>
</g>
<!-- Node1&#45;&gt;Node14 -->
<g id="edge13" class="edge"><title>Node1&#45;&gt;Node14</title>
<path fill="none" stroke="midnightblue" d="M60.0194,-212.592C70.557,-182.753 97.895,-117.028 144,-83 146.533,-81.1306 149.232,-79.4444 152.045,-77.9237"/>
<polygon fill="midnightblue" stroke="midnightblue" points="153.753,-80.99 161.353,-73.6079 150.808,-74.6395 153.753,-80.99"/>
</g>
<!-- Node18 -->
<g id="node18" class="node"><title>Node18</title>
<g id="a_node18"><a xlink:href="../../d9/d9e/classlsd__slam_1_1FramePoseStruct.html#ab9486b6fbedeb81e5e7d29f02f92c008" target="_top" xlink:title="lsd_slam::FramePoseStruct\l::invalidateCache">
<polygon fill="white" stroke="black" points="150,-5 150,-35 288,-35 288,-5 150,-5"/>
<text text-anchor="start" x="158" y="-23" font-family="Helvetica,sans-Serif" font-size="10.00">lsd_slam::FramePoseStruct</text>
<text text-anchor="middle" x="219" y="-12" font-family="Helvetica,sans-Serif" font-size="10.00">::invalidateCache</text>
</a>
</g>
</g>
<!-- Node1&#45;&gt;Node18 -->
<g id="edge17" class="edge"><title>Node1&#45;&gt;Node18</title>
<path fill="none" stroke="midnightblue" d="M58.1791,-212.787C66.2343,-177.979 90.7057,-91.9286 144,-45 145.915,-43.3141 147.947,-41.7409 150.071,-40.2731"/>
<polygon fill="midnightblue" stroke="midnightblue" points="151.882,-43.2683 158.651,-35.1178 148.276,-37.2681 151.882,-43.2683"/>
</g>
<!-- Node19 -->
<g id="node19" class="node"><title>Node19</title>
<g id="a_node19"><a xlink:href="../../dd/d08/classlsd__slam_1_1Frame.html#aa869fc645781090678dc61399ef26f73" target="_top" xlink:title="lsd_slam::Frame::setDepth">
<polygon fill="white" stroke="black" points="151.5,-294.5 151.5,-313.5 286.5,-313.5 286.5,-294.5 151.5,-294.5"/>
<text text-anchor="middle" x="219" y="-301.5" font-family="Helvetica,sans-Serif" font-size="10.00">lsd_slam::Frame::setDepth</text>
</a>
</g>
</g>
<!-- Node1&#45;&gt;Node19 -->
<g id="edge18" class="edge"><title>Node1&#45;&gt;Node19</title>
<path fill="none" stroke="midnightblue" d="M74.4694,-243.068C91.8459,-255.863 118.427,-273.871 144,-285 149.667,-287.466 155.722,-289.664 161.837,-291.61"/>
<polygon fill="midnightblue" stroke="midnightblue" points="160.865,-294.972 171.447,-294.461 162.856,-288.261 160.865,-294.972"/>
</g>
<!-- Node5 -->
<g id="node5" class="node"><title>Node5</title>
<g id="a_node5"><a xlink:href="../../d1/d95/classlsd__slam_1_1FrameMemory.html#adf4afed8c58a420b38e4b117628ac32d" target="_top" xlink:title="lsd_slam::FrameMemory\l::getInstance">
<polygon fill="white" stroke="black" points="524.5,-291 524.5,-321 649.5,-321 649.5,-291 524.5,-291"/>
<text text-anchor="start" x="532.5" y="-309" font-family="Helvetica,sans-Serif" font-size="10.00">lsd_slam::FrameMemory</text>
<text text-anchor="middle" x="587" y="-298" font-family="Helvetica,sans-Serif" font-size="10.00">::getInstance</text>
</a>
</g>
</g>
<!-- Node4&#45;&gt;Node5 -->
<g id="edge4" class="edge"><title>Node4&#45;&gt;Node5</title>
<path fill="none" stroke="midnightblue" d="M456.703,-332.447C474.394,-328.829 494.965,-324.621 514.425,-320.64"/>
<polygon fill="midnightblue" stroke="midnightblue" points="515.383,-324.017 524.478,-318.584 513.98,-317.159 515.383,-324.017"/>
</g>
<!-- Node6 -->
<g id="node6" class="node"><title>Node6</title>
<g id="a_node6"><a xlink:href="../../d1/d95/classlsd__slam_1_1FrameMemory.html#a6835f2a14358dee3518d9f9bff8526e3" target="_top" xlink:title="lsd_slam::FrameMemory\l::activateFrame">
<polygon fill="white" stroke="black" points="524.5,-340 524.5,-370 649.5,-370 649.5,-340 524.5,-340"/>
<text text-anchor="start" x="532.5" y="-358" font-family="Helvetica,sans-Serif" font-size="10.00">lsd_slam::FrameMemory</text>
<text text-anchor="middle" x="587" y="-347" font-family="Helvetica,sans-Serif" font-size="10.00">::activateFrame</text>
</a>
</g>
</g>
<!-- Node4&#45;&gt;Node6 -->
<g id="edge5" class="edge"><title>Node4&#45;&gt;Node6</title>
<path fill="none" stroke="midnightblue" d="M488.221,-347.778C496.931,-348.421 505.771,-349.074 514.393,-349.711"/>
<polygon fill="midnightblue" stroke="midnightblue" points="514.163,-353.203 524.394,-350.45 514.679,-346.222 514.163,-353.203"/>
</g>
<!-- Node11 -->
<g id="node11" class="node"><title>Node11</title>
<g id="a_node11"><a xlink:href="../../d6/db5/classSophus_1_1Sim3GroupBase.html#a3629f9f036df49823d478e3692d23e82" target="_top" xlink:title="Mutator of quaternion. ">
<polygon fill="white" stroke="black" points="345.5,-186 345.5,-216 472.5,-216 472.5,-186 345.5,-186"/>
<text text-anchor="start" x="353.5" y="-204" font-family="Helvetica,sans-Serif" font-size="10.00">Sophus::Sim3GroupBase</text>
<text text-anchor="middle" x="409" y="-193" font-family="Helvetica,sans-Serif" font-size="10.00">::quaternion</text>
</a>
</g>
</g>
<!-- Node10&#45;&gt;Node11 -->
<g id="edge10" class="edge"><title>Node10&#45;&gt;Node11</title>
<path fill="none" stroke="midnightblue" d="M257.277,-161.525C269.031,-164.54 282.061,-167.896 294,-171 309.273,-174.97 325.688,-179.271 341.172,-183.342"/>
<polygon fill="midnightblue" stroke="midnightblue" points="340.629,-186.818 351.191,-185.979 342.411,-180.049 340.629,-186.818"/>
</g>
<!-- Node12 -->
<g id="node12" class="node"><title>Node12</title>
<g id="a_node12"><a xlink:href="../../de/d0b/classSophus_1_1Sim3Group.html#ace8b98b369832930e647675b8c005d64" target="_top" xlink:title="Mutator of translation vector. ">
<polygon fill="white" stroke="black" points="354,-137 354,-167 464,-167 464,-137 354,-137"/>
<text text-anchor="start" x="362" y="-155" font-family="Helvetica,sans-Serif" font-size="10.00">Sophus::Sim3Group::</text>
<text text-anchor="middle" x="409" y="-144" font-family="Helvetica,sans-Serif" font-size="10.00">translation</text>
</a>
</g>
</g>
<!-- Node10&#45;&gt;Node12 -->
<g id="edge11" class="edge"><title>Node10&#45;&gt;Node12</title>
<path fill="none" stroke="midnightblue" d="M280.001,-152C300.317,-152 323.083,-152 343.718,-152"/>
<polygon fill="midnightblue" stroke="midnightblue" points="343.972,-155.5 353.972,-152 343.972,-148.5 343.972,-155.5"/>
</g>
<!-- Node15 -->
<g id="node15" class="node"><title>Node15</title>
<g id="a_node15"><a xlink:href="../../d0/d8c/classSophus_1_1SE3GroupBase.html#a4ca1572cb93cddcc95db981fc1f861b2" target="_top" xlink:title="Accessor of unit quaternion. ">
<polygon fill="white" stroke="black" points="347.5,-88 347.5,-118 470.5,-118 470.5,-88 347.5,-88"/>
<text text-anchor="start" x="355.5" y="-106" font-family="Helvetica,sans-Serif" font-size="10.00">Sophus::SE3GroupBase</text>
<text text-anchor="middle" x="409" y="-95" font-family="Helvetica,sans-Serif" font-size="10.00">::unit_quaternion</text>
</a>
</g>
</g>
<!-- Node14&#45;&gt;Node15 -->
<g id="edge14" class="edge"><title>Node14&#45;&gt;Node15</title>
<path fill="none" stroke="midnightblue" d="M265.99,-73.5405C287.391,-77.9801 313.331,-83.3613 337.155,-88.3035"/>
<polygon fill="midnightblue" stroke="midnightblue" points="336.714,-91.7864 347.216,-90.3906 338.136,-84.9323 336.714,-91.7864"/>
</g>
<!-- Node16 -->
<g id="node16" class="node"><title>Node16</title>
<g id="a_node16"><a xlink:href="../../dd/d3d/classSophus_1_1SE3Group.html#a1bfd300de4529a2f6ba0ff5baecea98e" target="_top" xlink:title="Mutator of translation vector. ">
<polygon fill="white" stroke="black" points="333,-49.5 333,-68.5 485,-68.5 485,-49.5 333,-49.5"/>
<text text-anchor="middle" x="409" y="-56.5" font-family="Helvetica,sans-Serif" font-size="10.00">Sophus::SE3Group::translation</text>
</a>
</g>
</g>
<!-- Node14&#45;&gt;Node16 -->
<g id="edge15" class="edge"><title>Node14&#45;&gt;Node16</title>
<path fill="none" stroke="midnightblue" d="M281.038,-62.3766C294.325,-62.0233 308.617,-61.6432 322.65,-61.2699"/>
<polygon fill="midnightblue" stroke="midnightblue" points="322.901,-64.7646 332.805,-60.9999 322.715,-57.7671 322.901,-64.7646"/>
</g>
<!-- Node17 -->
<g id="node17" class="node"><title>Node17</title>
<g id="a_node17"><a xlink:href="../../d6/db5/classSophus_1_1Sim3GroupBase.html#a04b97a30687ff11cd2c1192902b495e0" target="_top" xlink:title="Scale setter. ">
<polygon fill="white" stroke="black" points="345.5,-0 345.5,-30 472.5,-30 472.5,-0 345.5,-0"/>
<text text-anchor="start" x="353.5" y="-18" font-family="Helvetica,sans-Serif" font-size="10.00">Sophus::Sim3GroupBase</text>
<text text-anchor="middle" x="409" y="-7" font-family="Helvetica,sans-Serif" font-size="10.00">::setScale</text>
</a>
</g>
</g>
<!-- Node14&#45;&gt;Node17 -->
<g id="edge16" class="edge"><title>Node14&#45;&gt;Node17</title>
<path fill="none" stroke="midnightblue" d="M256.695,-54.436C280.496,-48.2324 312.224,-39.9629 340.477,-32.599"/>
<polygon fill="midnightblue" stroke="midnightblue" points="341.513,-35.946 350.307,-30.037 339.748,-29.1723 341.513,-35.946"/>
</g>
<!-- Node19&#45;&gt;Node4 -->
<g id="edge19" class="edge"><title>Node19&#45;&gt;Node4</title>
<path fill="none" stroke="midnightblue" d="M267.44,-313.589C292.808,-318.716 324.227,-325.067 350.923,-330.463"/>
<polygon fill="midnightblue" stroke="midnightblue" points="350.406,-333.929 360.901,-332.48 351.792,-327.068 350.406,-333.929"/>
</g>
<!-- Node19&#45;&gt;Node5 -->
<g id="edge20" class="edge"><title>Node19&#45;&gt;Node5</title>
<path fill="none" stroke="midnightblue" d="M286.704,-304.365C350.997,-304.716 447.989,-305.246 514.005,-305.607"/>
<polygon fill="midnightblue" stroke="midnightblue" points="514.305,-309.108 524.324,-305.663 514.343,-302.108 514.305,-309.108"/>
</g>
<!-- Node20 -->
<g id="node20" class="node"><title>Node20</title>
<g id="a_node20"><a xlink:href="../../d1/d95/classlsd__slam_1_1FrameMemory.html#a5a2a621821958fe136a2ddc9707a1f72" target="_top" xlink:title="lsd_slam::FrameMemory\l::getFloatBuffer">
<polygon fill="white" stroke="black" points="346.5,-243 346.5,-273 471.5,-273 471.5,-243 346.5,-243"/>
<text text-anchor="start" x="354.5" y="-261" font-family="Helvetica,sans-Serif" font-size="10.00">lsd_slam::FrameMemory</text>
<text text-anchor="middle" x="409" y="-250" font-family="Helvetica,sans-Serif" font-size="10.00">::getFloatBuffer</text>
</a>
</g>
</g>
<!-- Node19&#45;&gt;Node20 -->
<g id="edge21" class="edge"><title>Node19&#45;&gt;Node20</title>
<path fill="none" stroke="midnightblue" d="M258.954,-294.469C281.365,-288.985 310.222,-281.924 336.566,-275.478"/>
<polygon fill="midnightblue" stroke="midnightblue" points="337.639,-278.819 346.521,-273.043 335.976,-272.02 337.639,-278.819"/>
</g>
<!-- Node21 -->
<g id="node21" class="node"><title>Node21</title>
<g id="a_node21"><a xlink:href="../../d1/d95/classlsd__slam_1_1FrameMemory.html#abd3eb8d2623e977f3da91416d66d01e3" target="_top" xlink:title="lsd_slam::FrameMemory\l::getBuffer">
<polygon fill="white" stroke="black" points="524.5,-242 524.5,-272 649.5,-272 649.5,-242 524.5,-242"/>
<text text-anchor="start" x="532.5" y="-260" font-family="Helvetica,sans-Serif" font-size="10.00">lsd_slam::FrameMemory</text>
<text text-anchor="middle" x="587" y="-249" font-family="Helvetica,sans-Serif" font-size="10.00">::getBuffer</text>
</a>
</g>
</g>
<!-- Node20&#45;&gt;Node21 -->
<g id="edge22" class="edge"><title>Node20&#45;&gt;Node21</title>
<path fill="none" stroke="midnightblue" d="M471.556,-257.65C485.356,-257.572 500.112,-257.488 514.284,-257.407"/>
<polygon fill="midnightblue" stroke="midnightblue" points="514.499,-260.906 524.478,-257.35 514.459,-253.907 514.499,-260.906"/>
</g>
</g>
</svg>
