<?xml version="1.0" encoding="UTF-8" standalone="no"?>
<!DOCTYPE svg PUBLIC "-//W3C//DTD SVG 1.1//EN"
 "http://www.w3.org/Graphics/SVG/1.1/DTD/svg11.dtd">
<!-- Generated by graphviz version 2.36.0 (20140111.2315)
 -->
<!-- Title: lsd_slam::DepthMap::updateKeyframe Pages: 1 -->
<!--zoomable 404 -->
<svg id="main" version="1.1" xmlns="http://www.w3.org/2000/svg" xmlns:xlink="http://www.w3.org/1999/xlink" xml:space="preserve" onload="init(evt)">
<style type="text/css"><![CDATA[
.edge:hover path { stroke: red; }
.edge:hover polygon { stroke: red; fill: red; }
]]></style>
<script type="text/javascript"><![CDATA[
var edges = document.getElementsByTagName('g');
if (edges && edges.length) {
  for (var i=0;i<edges.length;i++) {
    if (edges[i].id.substr(0,4)=='edge') {
      edges[i].setAttribute('class','edge');
    }
  }
}
]]></script>
        <defs>
                <circle id="rim" cx="0" cy="0" r="7"/>
                <circle id="rim2" cx="0" cy="0" r="3.5"/>
                <g id="zoomPlus">
                        <use xlink:href="#rim" fill="#404040">
                                <set attributeName="fill" to="#808080" begin="zoomplus.mouseover" end="zoomplus.mouseout"/>
                        </use>
                        <path d="M-4,0h8M0,-4v8" fill="none" stroke="white" stroke-width="1.5" pointer-events="none"/>
                </g>
                <g id="zoomMin">
                        <use xlink:href="#rim" fill="#404040">
                                <set attributeName="fill" to="#808080" begin="zoomminus.mouseover" end="zoomminus.mouseout"/>
                        </use>
                        <path d="M-4,0h8" fill="none" stroke="white" stroke-width="1.5" pointer-events="none"/>
                </g>
                <g id="dirArrow">
                        <path fill="none" stroke="white" stroke-width="1.5" d="M0,-3.0v7 M-2.5,-0.5L0,-3.0L2.5,-0.5"/>
                </g>
               <g id="resetDef">
                       <use xlink:href="#rim2" fill="#404040">
                               <set attributeName="fill" to="#808080" begin="reset.mouseover" end="reset.mouseout"/>
                       </use>
               </g>
        </defs>

<script type="text/javascript">
var viewWidth = 686;
var viewHeight = 404;
var sectionId = 'dynsection-8';
</script>
<script xlink:href="../../svgpan.js"/>
<svg id="graph" class="graph">
<g id="viewport">
<title>lsd_slam::DepthMap::updateKeyframe</title>
<polygon fill="white" stroke="none" points="-4,4 -4,-400 682,-400 682,4 -4,4"/>
<!-- Node1 -->
<g id="node1" class="node"><title>Node1</title>
<polygon fill="#bfbfbf" stroke="black" points="0.5,-185 0.5,-215 107.5,-215 107.5,-185 0.5,-185"/>
<text text-anchor="start" x="8.5" y="-203" font-family="Helvetica,sans-Serif" font-size="10.00">lsd_slam::DepthMap</text>
<text text-anchor="middle" x="54" y="-192" font-family="Helvetica,sans-Serif" font-size="10.00">::updateKeyframe</text>
</g>
<!-- Node2 -->
<g id="node2" class="node"><title>Node2</title>
<g id="a_node2"><a xlink:href="../../db/dea/classlsd__slam_1_1DepthMap.html#a77ffa8175ac0ff7e3d9a6bbe72d7fe93" target="_top" xlink:title="lsd_slam::DepthMap\l::isValid">
<polygon fill="white" stroke="black" points="160.5,-366 160.5,-396 267.5,-396 267.5,-366 160.5,-366"/>
<text text-anchor="start" x="168.5" y="-384" font-family="Helvetica,sans-Serif" font-size="10.00">lsd_slam::DepthMap</text>
<text text-anchor="middle" x="214" y="-373" font-family="Helvetica,sans-Serif" font-size="10.00">::isValid</text>
</a>
</g>
</g>
<!-- Node1&#45;&gt;Node2 -->
<g id="edge1" class="edge"><title>Node1&#45;&gt;Node2</title>
<path fill="none" stroke="midnightblue" d="M59.6719,-215.203C69.9185,-246.101 97.2559,-316.63 144,-356 146.36,-357.988 148.891,-359.823 151.54,-361.517"/>
<polygon fill="midnightblue" stroke="midnightblue" points="149.901,-364.611 160.334,-366.461 153.332,-358.509 149.901,-364.611"/>
</g>
<!-- Node3 -->
<g id="node3" class="node"><title>Node3</title>
<g id="a_node3"><a xlink:href="../../dd/d08/classlsd__slam_1_1Frame.html#a6d38d40cd9a68d253bcb3cab2ddfa068" target="_top" xlink:title="lsd_slam::Frame::id">
<polygon fill="white" stroke="black" points="162.5,-327.5 162.5,-346.5 265.5,-346.5 265.5,-327.5 162.5,-327.5"/>
<text text-anchor="middle" x="214" y="-334.5" font-family="Helvetica,sans-Serif" font-size="10.00">lsd_slam::Frame::id</text>
</a>
</g>
</g>
<!-- Node1&#45;&gt;Node3 -->
<g id="edge2" class="edge"><title>Node1&#45;&gt;Node3</title>
<path fill="none" stroke="midnightblue" d="M62.3346,-215.033C75.2968,-240.016 104.646,-290.001 144,-317 147.686,-319.529 151.693,-321.742 155.858,-323.678"/>
<polygon fill="midnightblue" stroke="midnightblue" points="154.586,-326.939 165.167,-327.488 157.238,-320.461 154.586,-326.939"/>
</g>
<!-- Node4 -->
<g id="node4" class="node"><title>Node4</title>
<g id="a_node4"><a xlink:href="../../dd/d08/classlsd__slam_1_1Frame.html#a0f4a92d51569c280e4b37acbf562ea47" target="_top" xlink:title="lsd_slam::Frame::getScaled\lCamToWorld">
<polygon fill="white" stroke="black" points="144.5,-278 144.5,-308 283.5,-308 283.5,-278 144.5,-278"/>
<text text-anchor="start" x="152.5" y="-296" font-family="Helvetica,sans-Serif" font-size="10.00">lsd_slam::Frame::getScaled</text>
<text text-anchor="middle" x="214" y="-285" font-family="Helvetica,sans-Serif" font-size="10.00">CamToWorld</text>
</a>
</g>
</g>
<!-- Node1&#45;&gt;Node4 -->
<g id="edge3" class="edge"><title>Node1&#45;&gt;Node4</title>
<path fill="none" stroke="midnightblue" d="M71.6415,-215.223C88.7568,-230.25 116.697,-253.083 144,-268 147.879,-270.119 151.973,-272.123 156.153,-274.003"/>
<polygon fill="midnightblue" stroke="midnightblue" points="154.819,-277.239 165.392,-277.922 157.552,-270.795 154.819,-277.239"/>
</g>
<!-- Node6 -->
<g id="node6" class="node"><title>Node6</title>
<g id="a_node6"><a xlink:href="../../d6/db5/classSophus_1_1Sim3GroupBase.html#a21debb906ffbeda23394fbddea8f3acd" target="_top" xlink:title="Sophus::Sim3GroupBase\l::inverse">
<polygon fill="white" stroke="black" points="150.5,-229 150.5,-259 277.5,-259 277.5,-229 150.5,-229"/>
<text text-anchor="start" x="158.5" y="-247" font-family="Helvetica,sans-Serif" font-size="10.00">Sophus::Sim3GroupBase</text>
<text text-anchor="middle" x="214" y="-236" font-family="Helvetica,sans-Serif" font-size="10.00">::inverse</text>
</a>
</g>
</g>
<!-- Node1&#45;&gt;Node6 -->
<g id="edge6" class="edge"><title>Node1&#45;&gt;Node6</title>
<path fill="none" stroke="midnightblue" d="M107.612,-214.651C120.903,-218.353 135.321,-222.368 149.102,-226.205"/>
<polygon fill="midnightblue" stroke="midnightblue" points="148.426,-229.65 158.998,-228.962 150.304,-222.907 148.426,-229.65"/>
</g>
<!-- Node7 -->
<g id="node7" class="node"><title>Node7</title>
<g id="a_node7"><a xlink:href="../../dd/d08/classlsd__slam_1_1Frame.html#a014d19bf6ffba0f0c0b8b684f9afb0b0" target="_top" xlink:title="lsd_slam::Frame::height">
<polygon fill="white" stroke="black" points="153,-190.5 153,-209.5 275,-209.5 275,-190.5 153,-190.5"/>
<text text-anchor="middle" x="214" y="-197.5" font-family="Helvetica,sans-Serif" font-size="10.00">lsd_slam::Frame::height</text>
</a>
</g>
</g>
<!-- Node1&#45;&gt;Node7 -->
<g id="edge7" class="edge"><title>Node1&#45;&gt;Node7</title>
<path fill="none" stroke="midnightblue" d="M107.612,-200C118.86,-200 130.914,-200 142.706,-200"/>
<polygon fill="midnightblue" stroke="midnightblue" points="142.975,-203.5 152.975,-200 142.975,-196.5 142.975,-203.5"/>
</g>
<!-- Node8 -->
<g id="node8" class="node"><title>Node8</title>
<g id="a_node8"><a xlink:href="../../dd/d08/classlsd__slam_1_1Frame.html#a3f14a1c43b6cb21d31274f880b0bf36b" target="_top" xlink:title="lsd_slam::Frame::width">
<polygon fill="white" stroke="black" points="154.5,-152.5 154.5,-171.5 273.5,-171.5 273.5,-152.5 154.5,-152.5"/>
<text text-anchor="middle" x="214" y="-159.5" font-family="Helvetica,sans-Serif" font-size="10.00">lsd_slam::Frame::width</text>
</a>
</g>
</g>
<!-- Node1&#45;&gt;Node8 -->
<g id="edge8" class="edge"><title>Node1&#45;&gt;Node8</title>
<path fill="none" stroke="midnightblue" d="M107.612,-187.347C125.547,-183.033 145.532,-178.226 163.236,-173.968"/>
<polygon fill="midnightblue" stroke="midnightblue" points="164.46,-177.274 173.364,-171.533 162.823,-170.468 164.46,-177.274"/>
</g>
<!-- Node9 -->
<g id="node9" class="node"><title>Node9</title>
<g id="a_node9"><a xlink:href="../../dd/d08/classlsd__slam_1_1Frame.html#a9306307027bbe62b973c0b138216b456" target="_top" xlink:title="lsd_slam::Frame::image">
<polygon fill="white" stroke="black" points="153,-114.5 153,-133.5 275,-133.5 275,-114.5 153,-114.5"/>
<text text-anchor="middle" x="214" y="-121.5" font-family="Helvetica,sans-Serif" font-size="10.00">lsd_slam::Frame::image</text>
</a>
</g>
</g>
<!-- Node1&#45;&gt;Node9 -->
<g id="edge9" class="edge"><title>Node1&#45;&gt;Node9</title>
<path fill="none" stroke="midnightblue" d="M74.8625,-184.79C92.2752,-172.081 118.692,-154.277 144,-143 149.308,-140.635 154.979,-138.5 160.703,-136.59"/>
<polygon fill="midnightblue" stroke="midnightblue" points="161.829,-139.905 170.333,-133.587 159.745,-133.223 161.829,-139.905"/>
</g>
<!-- Node10 -->
<g id="node10" class="node"><title>Node10</title>
<g id="a_node10"><a xlink:href="../../dd/d08/classlsd__slam_1_1Frame.html#aa869fc645781090678dc61399ef26f73" target="_top" xlink:title="lsd_slam::Frame::setDepth">
<polygon fill="white" stroke="black" points="146.5,-76.5 146.5,-95.5 281.5,-95.5 281.5,-76.5 146.5,-76.5"/>
<text text-anchor="middle" x="214" y="-83.5" font-family="Helvetica,sans-Serif" font-size="10.00">lsd_slam::Frame::setDepth</text>
</a>
</g>
</g>
<!-- Node1&#45;&gt;Node10 -->
<g id="edge10" class="edge"><title>Node1&#45;&gt;Node10</title>
<path fill="none" stroke="midnightblue" d="M65.1618,-184.709C79.9885,-163.603 109.565,-125.798 144,-105 147.59,-102.832 151.432,-100.905 155.398,-99.1942"/>
<polygon fill="midnightblue" stroke="midnightblue" points="156.734,-102.43 164.816,-95.5802 154.226,-95.8951 156.734,-102.43"/>
</g>
<!-- Node16 -->
<g id="node16" class="node"><title>Node16</title>
<g id="a_node16"><a xlink:href="../../d8/da0/namespacelsd__slam_1_1Util.html#a0aefaadcc7a2728f8248cacce2cc352a" target="_top" xlink:title="lsd_slam::Util::displayImage">
<polygon fill="white" stroke="black" points="144,-33.5 144,-52.5 284,-52.5 284,-33.5 144,-33.5"/>
<text text-anchor="middle" x="214" y="-40.5" font-family="Helvetica,sans-Serif" font-size="10.00">lsd_slam::Util::displayImage</text>
</a>
</g>
</g>
<!-- Node1&#45;&gt;Node16 -->
<g id="edge17" class="edge"><title>Node1&#45;&gt;Node16</title>
<path fill="none" stroke="midnightblue" d="M61.1783,-184.907C73.1346,-157.512 102.01,-99.4474 144,-67 149.462,-62.7795 155.72,-59.2688 162.188,-56.3569"/>
<polygon fill="midnightblue" stroke="midnightblue" points="163.78,-59.489 171.748,-52.506 161.165,-52.9959 163.78,-59.489"/>
</g>
<!-- Node5 -->
<g id="node5" class="node"><title>Node5</title>
<g id="a_node5"><a xlink:href="../../d9/d9e/classlsd__slam_1_1FramePoseStruct.html#ae2e711db13b9732374fd5e04f960f914" target="_top" xlink:title="lsd_slam::FramePoseStruct\l::getCamToWorld">
<polygon fill="white" stroke="black" points="330,-278 330,-308 468,-308 468,-278 330,-278"/>
<text text-anchor="start" x="338" y="-296" font-family="Helvetica,sans-Serif" font-size="10.00">lsd_slam::FramePoseStruct</text>
<text text-anchor="middle" x="399" y="-285" font-family="Helvetica,sans-Serif" font-size="10.00">::getCamToWorld</text>
</a>
</g>
</g>
<!-- Node4&#45;&gt;Node5 -->
<g id="edge4" class="edge"><title>Node4&#45;&gt;Node5</title>
<path fill="none" stroke="midnightblue" d="M283.663,-293C295.469,-293 307.817,-293 319.85,-293"/>
<polygon fill="midnightblue" stroke="midnightblue" points="319.865,-296.5 329.865,-293 319.865,-289.5 319.865,-296.5"/>
</g>
<!-- Node5&#45;&gt;Node5 -->
<g id="edge5" class="edge"><title>Node5&#45;&gt;Node5</title>
<path fill="none" stroke="midnightblue" d="M366.656,-308.275C359.469,-317.406 370.25,-326 399,-326 416.07,-326 426.806,-322.97 431.207,-318.598"/>
<polygon fill="midnightblue" stroke="midnightblue" points="434.711,-318.321 431.344,-308.275 427.711,-318.228 434.711,-318.321"/>
</g>
<!-- Node11 -->
<g id="node11" class="node"><title>Node11</title>
<g id="a_node11"><a xlink:href="../../dd/d08/classlsd__slam_1_1Frame.html#af73ccb75e1e449d9a8f2044246ee3530" target="_top" xlink:title="lsd_slam::Frame::getActiveLock">
<polygon fill="white" stroke="black" points="320,-98.5 320,-117.5 478,-117.5 478,-98.5 320,-98.5"/>
<text text-anchor="middle" x="399" y="-105.5" font-family="Helvetica,sans-Serif" font-size="10.00">lsd_slam::Frame::getActiveLock</text>
</a>
</g>
</g>
<!-- Node10&#45;&gt;Node11 -->
<g id="edge11" class="edge"><title>Node10&#45;&gt;Node11</title>
<path fill="none" stroke="midnightblue" d="M281.585,-94.0047C290.838,-95.1172 300.46,-96.2739 310.03,-97.4244"/>
<polygon fill="midnightblue" stroke="midnightblue" points="309.62,-100.9 319.966,-98.6189 310.456,-93.9503 309.62,-100.9"/>
</g>
<!-- Node12 -->
<g id="node12" class="node"><title>Node12</title>
<g id="a_node12"><a xlink:href="../../d1/d95/classlsd__slam_1_1FrameMemory.html#adf4afed8c58a420b38e4b117628ac32d" target="_top" xlink:title="lsd_slam::FrameMemory\l::getInstance">
<polygon fill="white" stroke="black" points="533.5,-142 533.5,-172 658.5,-172 658.5,-142 533.5,-142"/>
<text text-anchor="start" x="541.5" y="-160" font-family="Helvetica,sans-Serif" font-size="10.00">lsd_slam::FrameMemory</text>
<text text-anchor="middle" x="596" y="-149" font-family="Helvetica,sans-Serif" font-size="10.00">::getInstance</text>
</a>
</g>
</g>
<!-- Node10&#45;&gt;Node12 -->
<g id="edge14" class="edge"><title>Node10&#45;&gt;Node12</title>
<path fill="none" stroke="midnightblue" d="M256.879,-95.5102C265.985,-98.1332 275.448,-101.297 284,-105 301.207,-112.451 302.252,-120.949 320,-127 386.329,-149.616 466.389,-156.197 522.977,-157.675"/>
<polygon fill="midnightblue" stroke="midnightblue" points="523.189,-161.18 533.262,-157.894 523.339,-154.182 523.189,-161.18"/>
</g>
<!-- Node14 -->
<g id="node14" class="node"><title>Node14</title>
<g id="a_node14"><a xlink:href="../../d1/d95/classlsd__slam_1_1FrameMemory.html#a5a2a621821958fe136a2ddc9707a1f72" target="_top" xlink:title="lsd_slam::FrameMemory\l::getFloatBuffer">
<polygon fill="white" stroke="black" points="336.5,-49 336.5,-79 461.5,-79 461.5,-49 336.5,-49"/>
<text text-anchor="start" x="344.5" y="-67" font-family="Helvetica,sans-Serif" font-size="10.00">lsd_slam::FrameMemory</text>
<text text-anchor="middle" x="399" y="-56" font-family="Helvetica,sans-Serif" font-size="10.00">::getFloatBuffer</text>
</a>
</g>
</g>
<!-- Node10&#45;&gt;Node14 -->
<g id="edge15" class="edge"><title>Node10&#45;&gt;Node14</title>
<path fill="none" stroke="midnightblue" d="M281.585,-77.9953C296.116,-76.2484 311.554,-74.3924 326.275,-72.6226"/>
<polygon fill="midnightblue" stroke="midnightblue" points="326.822,-76.0822 336.333,-71.4136 325.986,-69.1323 326.822,-76.0822"/>
</g>
<!-- Node11&#45;&gt;Node12 -->
<g id="edge12" class="edge"><title>Node11&#45;&gt;Node12</title>
<path fill="none" stroke="midnightblue" d="M438.061,-117.564C462.856,-123.795 495.945,-132.109 525.347,-139.497"/>
<polygon fill="midnightblue" stroke="midnightblue" points="524.608,-142.92 535.159,-141.963 526.314,-136.131 524.608,-142.92"/>
</g>
<!-- Node13 -->
<g id="node13" class="node"><title>Node13</title>
<g id="a_node13"><a xlink:href="../../d1/d95/classlsd__slam_1_1FrameMemory.html#a6835f2a14358dee3518d9f9bff8526e3" target="_top" xlink:title="lsd_slam::FrameMemory\l::activateFrame">
<polygon fill="white" stroke="black" points="533.5,-93 533.5,-123 658.5,-123 658.5,-93 533.5,-93"/>
<text text-anchor="start" x="541.5" y="-111" font-family="Helvetica,sans-Serif" font-size="10.00">lsd_slam::FrameMemory</text>
<text text-anchor="middle" x="596" y="-100" font-family="Helvetica,sans-Serif" font-size="10.00">::activateFrame</text>
</a>
</g>
</g>
<!-- Node11&#45;&gt;Node13 -->
<g id="edge13" class="edge"><title>Node11&#45;&gt;Node13</title>
<path fill="none" stroke="midnightblue" d="M478.19,-108C493.084,-108 508.604,-108 523.284,-108"/>
<polygon fill="midnightblue" stroke="midnightblue" points="523.295,-111.5 533.295,-108 523.294,-104.5 523.295,-111.5"/>
</g>
<!-- Node15 -->
<g id="node15" class="node"><title>Node15</title>
<g id="a_node15"><a xlink:href="../../d1/d95/classlsd__slam_1_1FrameMemory.html#abd3eb8d2623e977f3da91416d66d01e3" target="_top" xlink:title="lsd_slam::FrameMemory\l::getBuffer">
<polygon fill="white" stroke="black" points="533.5,-44 533.5,-74 658.5,-74 658.5,-44 533.5,-44"/>
<text text-anchor="start" x="541.5" y="-62" font-family="Helvetica,sans-Serif" font-size="10.00">lsd_slam::FrameMemory</text>
<text text-anchor="middle" x="596" y="-51" font-family="Helvetica,sans-Serif" font-size="10.00">::getBuffer</text>
</a>
</g>
</g>
<!-- Node14&#45;&gt;Node15 -->
<g id="edge16" class="edge"><title>Node14&#45;&gt;Node15</title>
<path fill="none" stroke="midnightblue" d="M461.699,-62.418C481.267,-61.9162 503.069,-61.3572 523.279,-60.839"/>
<polygon fill="midnightblue" stroke="midnightblue" points="523.461,-64.3356 533.368,-60.5803 523.281,-57.3379 523.461,-64.3356"/>
</g>
<!-- Node17 -->
<g id="node17" class="node"><title>Node17</title>
<g id="a_node17"><a xlink:href="../../d8/da0/namespacelsd__slam_1_1Util.html#a9c01e8272d0a6cf22714ff45227e86fe" target="_top" xlink:title="lsd_slam::Util::makeDisplay\lThread">
<polygon fill="white" stroke="black" points="329,-0 329,-30 469,-30 469,-0 329,-0"/>
<text text-anchor="start" x="337" y="-18" font-family="Helvetica,sans-Serif" font-size="10.00">lsd_slam::Util::makeDisplay</text>
<text text-anchor="middle" x="399" y="-7" font-family="Helvetica,sans-Serif" font-size="10.00">Thread</text>
</a>
</g>
</g>
<!-- Node16&#45;&gt;Node17 -->
<g id="edge18" class="edge"><title>Node16&#45;&gt;Node17</title>
<path fill="none" stroke="midnightblue" d="M277.211,-33.4814C290.552,-31.4402 304.821,-29.2569 318.708,-27.1321"/>
<polygon fill="midnightblue" stroke="midnightblue" points="319.378,-30.5703 328.734,-25.5981 318.32,-23.6509 319.378,-30.5703"/>
</g>
<!-- Node18 -->
<g id="node18" class="node"><title>Node18</title>
<g id="a_node18"><a xlink:href="../../d8/da0/namespacelsd__slam_1_1Util.html#a1749bf769ea1a0301816614ba5bf0dc5" target="_top" xlink:title="lsd_slam::Util::displayThreadLoop">
<polygon fill="white" stroke="black" points="514,-5.5 514,-24.5 678,-24.5 678,-5.5 514,-5.5"/>
<text text-anchor="middle" x="596" y="-12.5" font-family="Helvetica,sans-Serif" font-size="10.00">lsd_slam::Util::displayThreadLoop</text>
</a>
</g>
</g>
<!-- Node17&#45;&gt;Node18 -->
<g id="edge19" class="edge"><title>Node17&#45;&gt;Node18</title>
<path fill="none" stroke="midnightblue" d="M469.024,-15C480.21,-15 491.943,-15 503.562,-15"/>
<polygon fill="midnightblue" stroke="midnightblue" points="503.726,-18.5001 513.725,-15 503.725,-11.5001 503.726,-18.5001"/>
</g>
</g>
</svg>
        <g id="navigator" transform="translate(0 0)" fill="#404254">
                <rect fill="#f2f5e9" fill-opacity="0.5" stroke="#606060" stroke-width=".5" x="0" y="0" width="60" height="60"/>
                <use id="zoomplus" xlink:href="#zoomPlus" x="17" y="9" onmousedown="handleZoom(evt,'in')"/>
                <use id="zoomminus" xlink:href="#zoomMin" x="42" y="9" onmousedown="handleZoom(evt,'out')"/>
                <use id="reset" xlink:href="#resetDef" x="30" y="36" onmousedown="handleReset()"/>
                <g id="arrowUp" xlink:href="#dirArrow" transform="translate(30 24)" onmousedown="handlePan(0,-1)">
                  <use xlink:href="#rim" fill="#404040">
                        <set attributeName="fill" to="#808080" begin="arrowUp.mouseover" end="arrowUp.mouseout"/>
                  </use>
                  <path fill="none" stroke="white" stroke-width="1.5" d="M0,-3.0v7 M-2.5,-0.5L0,-3.0L2.5,-0.5"/>
                </g>
                <g id="arrowRight" xlink:href="#dirArrow" transform="rotate(90) translate(36 -43)" onmousedown="handlePan(1,0)">
                  <use xlink:href="#rim" fill="#404040">
                        <set attributeName="fill" to="#808080" begin="arrowRight.mouseover" end="arrowRight.mouseout"/>
                  </use>
                  <path fill="none" stroke="white" stroke-width="1.5" d="M0,-3.0v7 M-2.5,-0.5L0,-3.0L2.5,-0.5"/>
                </g>
                <g id="arrowDown" xlink:href="#dirArrow" transform="rotate(180) translate(-30 -48)" onmousedown="handlePan(0,1)">
                  <use xlink:href="#rim" fill="#404040">
                        <set attributeName="fill" to="#808080" begin="arrowDown.mouseover" end="arrowDown.mouseout"/>
                  </use>
                  <path fill="none" stroke="white" stroke-width="1.5" d="M0,-3.0v7 M-2.5,-0.5L0,-3.0L2.5,-0.5"/>
                </g>
                <g id="arrowLeft" xlink:href="#dirArrow" transform="rotate(270) translate(-36 17)" onmousedown="handlePan(-1,0)">
                  <use xlink:href="#rim" fill="#404040">
                        <set attributeName="fill" to="#808080" begin="arrowLeft.mouseover" end="arrowLeft.mouseout"/>
                  </use>
                  <path fill="none" stroke="white" stroke-width="1.5" d="M0,-3.0v7 M-2.5,-0.5L0,-3.0L2.5,-0.5"/>
                </g>
        </g>
        <svg viewBox="0 0 15 15" width="100%" height="30px" preserveAspectRatio="xMaxYMin meet">
         <g id="arrow_out" transform="scale(0.3 0.3)">
          <a xlink:href="classlsd__slam_1_1DepthMap_a80d89c896825d97dd61021ea8dc904eb_cgraph_org.svg" target="_base">
           <rect id="button" ry="5" rx="5" y="6" x="6" height="38" width="38"
                fill="#f2f5e9" fill-opacity="0.5" stroke="#606060" stroke-width="1.0"/>
           <path id="arrow"
             d="M 11.500037,31.436501 C 11.940474,20.09759 22.043105,11.32322 32.158766,21.979434 L 37.068811,17.246167 C 37.068811,17.246167 37.088388,32 37.088388,32 L 22.160133,31.978069 C 22.160133,31.978069 26.997745,27.140456 26.997745,27.140456 C 18.528582,18.264221 13.291696,25.230495 11.500037,31.436501 z"
             style="fill:#404040;"/>
          </a>
         </g>
        </svg>
</svg>
