<?xml version="1.0" encoding="UTF-8" standalone="no"?>
<!DOCTYPE svg PUBLIC "-//W3C//DTD SVG 1.1//EN"
 "http://www.w3.org/Graphics/SVG/1.1/DTD/svg11.dtd">
<!-- Generated by graphviz version 2.36.0 (20140111.2315)
 -->
<!-- Title: ComboSiftGPU Pages: 1 -->
<svg width="638pt" height="1522pt"
 viewBox="0.00 0.00 638.00 1522.00" xmlns="http://www.w3.org/2000/svg" xmlns:xlink="http://www.w3.org/1999/xlink">
<g id="graph0" class="graph" transform="scale(1 1) rotate(0) translate(4 1518)">
<title>ComboSiftGPU</title>
<polygon fill="white" stroke="none" points="-4,4 -4,-1518 634,-1518 634,4 -4,4"/>
<!-- Node1 -->
<g id="node1" class="node"><title>Node1</title>
<polygon fill="#bfbfbf" stroke="black" points="270,-0.5 270,-57.5 358,-57.5 358,-0.5 270,-0.5"/>
<text text-anchor="middle" x="314" y="-45.5" font-family="Helvetica,sans-Serif" font-size="10.00">ComboSiftGPU</text>
<polyline fill="none" stroke="black" points="270,-38.5 358,-38.5 "/>
<text text-anchor="middle" x="314" y="-26.5" font-family="Helvetica,sans-Serif" font-size="10.00"> </text>
<polyline fill="none" stroke="black" points="270,-19.5 358,-19.5 "/>
<text text-anchor="start" x="278" y="-7.5" font-family="Helvetica,sans-Serif" font-size="10.00">+ operator new()</text>
</g>
<!-- Node2 -->
<g id="node2" class="node"><title>Node2</title>
<g id="a_node2"><a xlink:href="../../d4/dee/classSiftGPU.html" target="_top" xlink:title="{SiftGPU\n|+ _timing\l# _current\l# _initialized\l# _image_loaded\l# _imgpath\l# _outpath\l|+ GetCurrentImagePath()\l+ SetImageList()\l+ GetFeatureNum()\l+ SaveSIFT()\l+ GetFeatureVector()\l+ SetKeypointList()\l+ CreateContextGL()\l+ VerifyContextGL()\l+ IsFullSupported()\l+ SetVerbose()\land 15 more...\l# InitSiftGPU()\l# LoadImageList()\l# PrintUsage()\l}">
<polygon fill="white" stroke="black" points="144.5,-96.5 144.5,-351.5 271.5,-351.5 271.5,-96.5 144.5,-96.5"/>
<text text-anchor="middle" x="208" y="-339.5" font-family="Helvetica,sans-Serif" font-size="10.00">SiftGPU</text>
<polyline fill="none" stroke="black" points="144.5,-332.5 271.5,-332.5 "/>
<text text-anchor="start" x="152.5" y="-320.5" font-family="Helvetica,sans-Serif" font-size="10.00">+ _timing</text>
<text text-anchor="start" x="152.5" y="-309.5" font-family="Helvetica,sans-Serif" font-size="10.00"># _current</text>
<text text-anchor="start" x="152.5" y="-298.5" font-family="Helvetica,sans-Serif" font-size="10.00"># _initialized</text>
<text text-anchor="start" x="152.5" y="-287.5" font-family="Helvetica,sans-Serif" font-size="10.00"># _image_loaded</text>
<text text-anchor="start" x="152.5" y="-276.5" font-family="Helvetica,sans-Serif" font-size="10.00"># _imgpath</text>
<text text-anchor="start" x="152.5" y="-265.5" font-family="Helvetica,sans-Serif" font-size="10.00"># _outpath</text>
<polyline fill="none" stroke="black" points="144.5,-258.5 271.5,-258.5 "/>
<text text-anchor="start" x="152.5" y="-246.5" font-family="Helvetica,sans-Serif" font-size="10.00">+ GetCurrentImagePath()</text>
<text text-anchor="start" x="152.5" y="-235.5" font-family="Helvetica,sans-Serif" font-size="10.00">+ SetImageList()</text>
<text text-anchor="start" x="152.5" y="-224.5" font-family="Helvetica,sans-Serif" font-size="10.00">+ GetFeatureNum()</text>
<text text-anchor="start" x="152.5" y="-213.5" font-family="Helvetica,sans-Serif" font-size="10.00">+ SaveSIFT()</text>
<text text-anchor="start" x="152.5" y="-202.5" font-family="Helvetica,sans-Serif" font-size="10.00">+ GetFeatureVector()</text>
<text text-anchor="start" x="152.5" y="-191.5" font-family="Helvetica,sans-Serif" font-size="10.00">+ SetKeypointList()</text>
<text text-anchor="start" x="152.5" y="-180.5" font-family="Helvetica,sans-Serif" font-size="10.00">+ CreateContextGL()</text>
<text text-anchor="start" x="152.5" y="-169.5" font-family="Helvetica,sans-Serif" font-size="10.00">+ VerifyContextGL()</text>
<text text-anchor="start" x="152.5" y="-158.5" font-family="Helvetica,sans-Serif" font-size="10.00">+ IsFullSupported()</text>
<text text-anchor="start" x="152.5" y="-147.5" font-family="Helvetica,sans-Serif" font-size="10.00">+ SetVerbose()</text>
<text text-anchor="start" x="152.5" y="-136.5" font-family="Helvetica,sans-Serif" font-size="10.00">and 15 more...</text>
<text text-anchor="start" x="152.5" y="-125.5" font-family="Helvetica,sans-Serif" font-size="10.00"># InitSiftGPU()</text>
<text text-anchor="start" x="152.5" y="-114.5" font-family="Helvetica,sans-Serif" font-size="10.00"># LoadImageList()</text>
<text text-anchor="start" x="152.5" y="-103.5" font-family="Helvetica,sans-Serif" font-size="10.00"># PrintUsage()</text>
</a>
</g>
</g>
<!-- Node2&#45;&gt;Node1 -->
<g id="edge1" class="edge"><title>Node2&#45;&gt;Node1</title>
<path fill="none" stroke="midnightblue" d="M276.576,-98.1399C284.847,-83.0808 292.562,-69.033 298.813,-57.6514"/>
<polygon fill="none" stroke="midnightblue" points="273.395,-96.6608 271.649,-107.111 279.531,-100.031 273.395,-96.6608"/>
</g>
<!-- Node3 -->
<g id="node3" class="node"><title>Node3</title>
<g id="a_node3"><a xlink:href="../../dc/d5a/classSiftParam.html" target="_top" xlink:title="{SiftParam\n|+ _sigma\l+ _sigma_skip0\l+ _sigma_skip1\l+ _sigma0\l+ _sigman\l+ _sigma_num\l+ _dog_level_num\l+ _level_num\l+ _level_min\l+ _level_max\l+ _level_ds\l+ _dog_threshold\l+ _edge_threshold\l|+ ParseSiftParam()\l+ GetLevelSigma()\l+ GetInitialSmoothSigma()\l+ SiftParam()\l}">
<polygon fill="white" stroke="black" points="127,-852 127,-1074 259,-1074 259,-852 127,-852"/>
<text text-anchor="middle" x="193" y="-1062" font-family="Helvetica,sans-Serif" font-size="10.00">SiftParam</text>
<polyline fill="none" stroke="black" points="127,-1055 259,-1055 "/>
<text text-anchor="start" x="135" y="-1043" font-family="Helvetica,sans-Serif" font-size="10.00">+ _sigma</text>
<text text-anchor="start" x="135" y="-1032" font-family="Helvetica,sans-Serif" font-size="10.00">+ _sigma_skip0</text>
<text text-anchor="start" x="135" y="-1021" font-family="Helvetica,sans-Serif" font-size="10.00">+ _sigma_skip1</text>
<text text-anchor="start" x="135" y="-1010" font-family="Helvetica,sans-Serif" font-size="10.00">+ _sigma0</text>
<text text-anchor="start" x="135" y="-999" font-family="Helvetica,sans-Serif" font-size="10.00">+ _sigman</text>
<text text-anchor="start" x="135" y="-988" font-family="Helvetica,sans-Serif" font-size="10.00">+ _sigma_num</text>
<text text-anchor="start" x="135" y="-977" font-family="Helvetica,sans-Serif" font-size="10.00">+ _dog_level_num</text>
<text text-anchor="start" x="135" y="-966" font-family="Helvetica,sans-Serif" font-size="10.00">+ _level_num</text>
<text text-anchor="start" x="135" y="-955" font-family="Helvetica,sans-Serif" font-size="10.00">+ _level_min</text>
<text text-anchor="start" x="135" y="-944" font-family="Helvetica,sans-Serif" font-size="10.00">+ _level_max</text>
<text text-anchor="start" x="135" y="-933" font-family="Helvetica,sans-Serif" font-size="10.00">+ _level_ds</text>
<text text-anchor="start" x="135" y="-922" font-family="Helvetica,sans-Serif" font-size="10.00">+ _dog_threshold</text>
<text text-anchor="start" x="135" y="-911" font-family="Helvetica,sans-Serif" font-size="10.00">+ _edge_threshold</text>
<polyline fill="none" stroke="black" points="127,-904 259,-904 "/>
<text text-anchor="start" x="135" y="-892" font-family="Helvetica,sans-Serif" font-size="10.00">+ ParseSiftParam()</text>
<text text-anchor="start" x="135" y="-881" font-family="Helvetica,sans-Serif" font-size="10.00">+ GetLevelSigma()</text>
<text text-anchor="start" x="135" y="-870" font-family="Helvetica,sans-Serif" font-size="10.00">+ GetInitialSmoothSigma()</text>
<text text-anchor="start" x="135" y="-859" font-family="Helvetica,sans-Serif" font-size="10.00">+ SiftParam()</text>
</a>
</g>
</g>
<!-- Node3&#45;&gt;Node2 -->
<g id="edge2" class="edge"><title>Node3&#45;&gt;Node2</title>
<path fill="none" stroke="midnightblue" d="M195.457,-841.289C198.203,-706.355 202.63,-488.829 205.424,-351.562"/>
<polygon fill="none" stroke="midnightblue" points="191.95,-841.594 195.246,-851.664 198.949,-841.737 191.95,-841.594"/>
</g>
<!-- Node4 -->
<g id="node4" class="node"><title>Node4</title>
<g id="a_node4"><a xlink:href="../../dd/dce/classSiftPyramid.html" target="_top" xlink:title="{SiftPyramid\n|+ _timing\l+ _octave_min\l+ _octave_num\l+ _pyramid_octave_num\l+ _pyramid_octave_first\l+ _pyramid_width\l+ _pyramid_height\l+ _down_sample_factor\l+ _allocated\l+ _alignment\l+ _siftgpu_failed\l# _hpLevelNum\l# _levelFeatureNum\l# _featureNum\l# _histo_buffer\l# _existing_keypoints\l# _featureDisplayVBO\l# _featurePointVBO\l|+ RunSIFT()\l+ SaveSIFT()\l+ CopyFeatureVector()\l+ SetKeypointList()\l+ GetFeatureDescriptors()\l+ GenerateFeatureListTex()\l+ ReshapeFeatureListCPU()\l+ GenerateFeatureDisplayVBO()\l+ DownloadKeypoints()\l+ GenerateFeatureListCPU()\land 23 more...\l+ GetRequiredOctaveNum()\l}">
<polygon fill="white" stroke="black" points="220,-400.5 220,-765.5 378,-765.5 378,-400.5 220,-400.5"/>
<text text-anchor="middle" x="299" y="-753.5" font-family="Helvetica,sans-Serif" font-size="10.00">SiftPyramid</text>
<polyline fill="none" stroke="black" points="220,-746.5 378,-746.5 "/>
<text text-anchor="start" x="228" y="-734.5" font-family="Helvetica,sans-Serif" font-size="10.00">+ _timing</text>
<text text-anchor="start" x="228" y="-723.5" font-family="Helvetica,sans-Serif" font-size="10.00">+ _octave_min</text>
<text text-anchor="start" x="228" y="-712.5" font-family="Helvetica,sans-Serif" font-size="10.00">+ _octave_num</text>
<text text-anchor="start" x="228" y="-701.5" font-family="Helvetica,sans-Serif" font-size="10.00">+ _pyramid_octave_num</text>
<text text-anchor="start" x="228" y="-690.5" font-family="Helvetica,sans-Serif" font-size="10.00">+ _pyramid_octave_first</text>
<text text-anchor="start" x="228" y="-679.5" font-family="Helvetica,sans-Serif" font-size="10.00">+ _pyramid_width</text>
<text text-anchor="start" x="228" y="-668.5" font-family="Helvetica,sans-Serif" font-size="10.00">+ _pyramid_height</text>
<text text-anchor="start" x="228" y="-657.5" font-family="Helvetica,sans-Serif" font-size="10.00">+ _down_sample_factor</text>
<text text-anchor="start" x="228" y="-646.5" font-family="Helvetica,sans-Serif" font-size="10.00">+ _allocated</text>
<text text-anchor="start" x="228" y="-635.5" font-family="Helvetica,sans-Serif" font-size="10.00">+ _alignment</text>
<text text-anchor="start" x="228" y="-624.5" font-family="Helvetica,sans-Serif" font-size="10.00">+ _siftgpu_failed</text>
<text text-anchor="start" x="228" y="-613.5" font-family="Helvetica,sans-Serif" font-size="10.00"># _hpLevelNum</text>
<text text-anchor="start" x="228" y="-602.5" font-family="Helvetica,sans-Serif" font-size="10.00"># _levelFeatureNum</text>
<text text-anchor="start" x="228" y="-591.5" font-family="Helvetica,sans-Serif" font-size="10.00"># _featureNum</text>
<text text-anchor="start" x="228" y="-580.5" font-family="Helvetica,sans-Serif" font-size="10.00"># _histo_buffer</text>
<text text-anchor="start" x="228" y="-569.5" font-family="Helvetica,sans-Serif" font-size="10.00"># _existing_keypoints</text>
<text text-anchor="start" x="228" y="-558.5" font-family="Helvetica,sans-Serif" font-size="10.00"># _featureDisplayVBO</text>
<text text-anchor="start" x="228" y="-547.5" font-family="Helvetica,sans-Serif" font-size="10.00"># _featurePointVBO</text>
<polyline fill="none" stroke="black" points="220,-540.5 378,-540.5 "/>
<text text-anchor="start" x="228" y="-528.5" font-family="Helvetica,sans-Serif" font-size="10.00">+ RunSIFT()</text>
<text text-anchor="start" x="228" y="-517.5" font-family="Helvetica,sans-Serif" font-size="10.00">+ SaveSIFT()</text>
<text text-anchor="start" x="228" y="-506.5" font-family="Helvetica,sans-Serif" font-size="10.00">+ CopyFeatureVector()</text>
<text text-anchor="start" x="228" y="-495.5" font-family="Helvetica,sans-Serif" font-size="10.00">+ SetKeypointList()</text>
<text text-anchor="start" x="228" y="-484.5" font-family="Helvetica,sans-Serif" font-size="10.00">+ GetFeatureDescriptors()</text>
<text text-anchor="start" x="228" y="-473.5" font-family="Helvetica,sans-Serif" font-size="10.00">+ GenerateFeatureListTex()</text>
<text text-anchor="start" x="228" y="-462.5" font-family="Helvetica,sans-Serif" font-size="10.00">+ ReshapeFeatureListCPU()</text>
<text text-anchor="start" x="228" y="-451.5" font-family="Helvetica,sans-Serif" font-size="10.00">+ GenerateFeatureDisplayVBO()</text>
<text text-anchor="start" x="228" y="-440.5" font-family="Helvetica,sans-Serif" font-size="10.00">+ DownloadKeypoints()</text>
<text text-anchor="start" x="228" y="-429.5" font-family="Helvetica,sans-Serif" font-size="10.00">+ GenerateFeatureListCPU()</text>
<text text-anchor="start" x="228" y="-418.5" font-family="Helvetica,sans-Serif" font-size="10.00">and 23 more...</text>
<text text-anchor="start" x="228" y="-407.5" font-family="Helvetica,sans-Serif" font-size="10.00">+ GetRequiredOctaveNum()</text>
</a>
</g>
</g>
<!-- Node3&#45;&gt;Node4 -->
<g id="edge6" class="edge"><title>Node3&#45;&gt;Node4</title>
<path fill="none" stroke="#404040" d="M223.873,-851.905C230.445,-828.469 237.571,-803.06 244.727,-777.54"/>
<polygon fill="none" stroke="#404040" points="244.775,-777.368 242.544,-770.511 248.015,-765.814 250.246,-772.671 244.775,-777.368"/>
<text text-anchor="middle" x="261" y="-792.5" font-family="Helvetica,sans-Serif" font-size="10.00"> #param</text>
</g>
<!-- Node4&#45;&gt;Node2 -->
<g id="edge3" class="edge"><title>Node4&#45;&gt;Node2</title>
<path fill="none" stroke="#404040" d="M252.7,-400.362C249.572,-388.09 246.449,-375.837 243.389,-363.836"/>
<polygon fill="none" stroke="#404040" points="243.318,-363.555 237.96,-358.729 240.354,-351.927 245.712,-356.753 243.318,-363.555"/>
<text text-anchor="middle" x="270.5" y="-373.5" font-family="Helvetica,sans-Serif" font-size="10.00"> #_pyramid</text>
</g>
<!-- Node5 -->
<g id="node5" class="node"><title>Node5</title>
<g id="a_node5"><a xlink:href="../../d2/d55/classGlobalUtil.html" target="_top" xlink:title="{GlobalUtil\n||+ CLOCK()\l+ StopTimer()\l+ StartTimer()\l+ GetElapsedTime()\l+ FitViewPort()\l+ SetTextureParameter()\l+ SetTextureParameterUS()\l+ CheckErrorsGL()\l+ CheckFramebufferStatus()\l+ SelectDisplay()\land 6 more...\l}">
<polygon fill="white" stroke="black" points="220.5,-1140.5 220.5,-1307.5 361.5,-1307.5 361.5,-1140.5 220.5,-1140.5"/>
<text text-anchor="middle" x="291" y="-1295.5" font-family="Helvetica,sans-Serif" font-size="10.00">GlobalUtil</text>
<polyline fill="none" stroke="black" points="220.5,-1288.5 361.5,-1288.5 "/>
<text text-anchor="middle" x="291" y="-1276.5" font-family="Helvetica,sans-Serif" font-size="10.00"> </text>
<polyline fill="none" stroke="black" points="220.5,-1269.5 361.5,-1269.5 "/>
<text text-anchor="start" x="228.5" y="-1257.5" font-family="Helvetica,sans-Serif" font-size="10.00">+ CLOCK()</text>
<text text-anchor="start" x="228.5" y="-1246.5" font-family="Helvetica,sans-Serif" font-size="10.00">+ StopTimer()</text>
<text text-anchor="start" x="228.5" y="-1235.5" font-family="Helvetica,sans-Serif" font-size="10.00">+ StartTimer()</text>
<text text-anchor="start" x="228.5" y="-1224.5" font-family="Helvetica,sans-Serif" font-size="10.00">+ GetElapsedTime()</text>
<text text-anchor="start" x="228.5" y="-1213.5" font-family="Helvetica,sans-Serif" font-size="10.00">+ FitViewPort()</text>
<text text-anchor="start" x="228.5" y="-1202.5" font-family="Helvetica,sans-Serif" font-size="10.00">+ SetTextureParameter()</text>
<text text-anchor="start" x="228.5" y="-1191.5" font-family="Helvetica,sans-Serif" font-size="10.00">+ SetTextureParameterUS()</text>
<text text-anchor="start" x="228.5" y="-1180.5" font-family="Helvetica,sans-Serif" font-size="10.00">+ CheckErrorsGL()</text>
<text text-anchor="start" x="228.5" y="-1169.5" font-family="Helvetica,sans-Serif" font-size="10.00">+ CheckFramebufferStatus()</text>
<text text-anchor="start" x="228.5" y="-1158.5" font-family="Helvetica,sans-Serif" font-size="10.00">+ SelectDisplay()</text>
<text text-anchor="start" x="228.5" y="-1147.5" font-family="Helvetica,sans-Serif" font-size="10.00">and 6 more...</text>
</a>
</g>
</g>
<!-- Node5&#45;&gt;Node4 -->
<g id="edge4" class="edge"><title>Node5&#45;&gt;Node4</title>
<path fill="none" stroke="midnightblue" d="M347.668,-1131.16C351.803,-1121.57 355.375,-1111.75 358,-1102 394.748,-965.502 386.118,-923.617 364,-784 363.043,-777.96 361.933,-771.854 360.694,-765.717"/>
<polygon fill="none" stroke="midnightblue" points="344.476,-1129.72 343.543,-1140.28 350.853,-1132.61 344.476,-1129.72"/>
</g>
<!-- Node10 -->
<g id="node10" class="node"><title>Node10</title>
<g id="a_node10"><a xlink:href="../../df/da6/classGLTexImage.html" target="_top" xlink:title="{GLTexImage\n|# _texID\l# _imgWidth\l# _imgHeight\l# _texWidth\l# _texHeight\l# _drawWidth\l# _drawHeight\l|+ DrawQuadUS()\l+ DrawQuadDS()\l+ DrawImage()\l+ TexConvertRGB()\l+ ZeroHistoMargin()\l+ SetImageSize()\l+ InitTexture()\l+ InitTexture()\l+ FillMargin()\l+ DrawScaledQuad()\land 28 more...\l+ DetachFBO()\l+ UnbindTex()\l+ UnbindMultiTex()\l+ DrawQuad()\l}">
<polygon fill="white" stroke="black" points="1,-824.5 1,-1101.5 109,-1101.5 109,-824.5 1,-824.5"/>
<text text-anchor="middle" x="55" y="-1089.5" font-family="Helvetica,sans-Serif" font-size="10.00">GLTexImage</text>
<polyline fill="none" stroke="black" points="1,-1082.5 109,-1082.5 "/>
<text text-anchor="start" x="9" y="-1070.5" font-family="Helvetica,sans-Serif" font-size="10.00"># _texID</text>
<text text-anchor="start" x="9" y="-1059.5" font-family="Helvetica,sans-Serif" font-size="10.00"># _imgWidth</text>
<text text-anchor="start" x="9" y="-1048.5" font-family="Helvetica,sans-Serif" font-size="10.00"># _imgHeight</text>
<text text-anchor="start" x="9" y="-1037.5" font-family="Helvetica,sans-Serif" font-size="10.00"># _texWidth</text>
<text text-anchor="start" x="9" y="-1026.5" font-family="Helvetica,sans-Serif" font-size="10.00"># _texHeight</text>
<text text-anchor="start" x="9" y="-1015.5" font-family="Helvetica,sans-Serif" font-size="10.00"># _drawWidth</text>
<text text-anchor="start" x="9" y="-1004.5" font-family="Helvetica,sans-Serif" font-size="10.00"># _drawHeight</text>
<polyline fill="none" stroke="black" points="1,-997.5 109,-997.5 "/>
<text text-anchor="start" x="9" y="-985.5" font-family="Helvetica,sans-Serif" font-size="10.00">+ DrawQuadUS()</text>
<text text-anchor="start" x="9" y="-974.5" font-family="Helvetica,sans-Serif" font-size="10.00">+ DrawQuadDS()</text>
<text text-anchor="start" x="9" y="-963.5" font-family="Helvetica,sans-Serif" font-size="10.00">+ DrawImage()</text>
<text text-anchor="start" x="9" y="-952.5" font-family="Helvetica,sans-Serif" font-size="10.00">+ TexConvertRGB()</text>
<text text-anchor="start" x="9" y="-941.5" font-family="Helvetica,sans-Serif" font-size="10.00">+ ZeroHistoMargin()</text>
<text text-anchor="start" x="9" y="-930.5" font-family="Helvetica,sans-Serif" font-size="10.00">+ SetImageSize()</text>
<text text-anchor="start" x="9" y="-919.5" font-family="Helvetica,sans-Serif" font-size="10.00">+ InitTexture()</text>
<text text-anchor="start" x="9" y="-908.5" font-family="Helvetica,sans-Serif" font-size="10.00">+ InitTexture()</text>
<text text-anchor="start" x="9" y="-897.5" font-family="Helvetica,sans-Serif" font-size="10.00">+ FillMargin()</text>
<text text-anchor="start" x="9" y="-886.5" font-family="Helvetica,sans-Serif" font-size="10.00">+ DrawScaledQuad()</text>
<text text-anchor="start" x="9" y="-875.5" font-family="Helvetica,sans-Serif" font-size="10.00">and 28 more...</text>
<text text-anchor="start" x="9" y="-864.5" font-family="Helvetica,sans-Serif" font-size="10.00">+ DetachFBO()</text>
<text text-anchor="start" x="9" y="-853.5" font-family="Helvetica,sans-Serif" font-size="10.00">+ UnbindTex()</text>
<text text-anchor="start" x="9" y="-842.5" font-family="Helvetica,sans-Serif" font-size="10.00">+ UnbindMultiTex()</text>
<text text-anchor="start" x="9" y="-831.5" font-family="Helvetica,sans-Serif" font-size="10.00">+ DrawQuad()</text>
</a>
</g>
</g>
<!-- Node5&#45;&gt;Node10 -->
<g id="edge11" class="edge"><title>Node5&#45;&gt;Node10</title>
<path fill="none" stroke="midnightblue" d="M211.685,-1180.14C179.469,-1159.76 143.835,-1133.03 118,-1102 114.882,-1098.26 111.886,-1094.33 109.01,-1090.27"/>
<polygon fill="none" stroke="midnightblue" points="209.89,-1183.15 220.23,-1185.45 213.585,-1177.2 209.89,-1183.15"/>
</g>
<!-- Node6 -->
<g id="node6" class="node"><title>Node6</title>
<g id="a_node6"><a xlink:href="../../db/d04/classGlobalParam.html" target="_top" xlink:title="{GlobalParam\n|+ _texTarget\l+ _iTexFormat\l+ _texMaxDim\l+ _texMaxDimGL\l+ _texMinDim\l+ _MemCapGPU\l+ _FitMemoryCap\l+ _verbose\l+ _timingS\l+ _timingO\land 53 more...\l|}">
<polygon fill="white" stroke="black" points="243.5,-1346.5 243.5,-1513.5 338.5,-1513.5 338.5,-1346.5 243.5,-1346.5"/>
<text text-anchor="middle" x="291" y="-1501.5" font-family="Helvetica,sans-Serif" font-size="10.00">GlobalParam</text>
<polyline fill="none" stroke="black" points="243.5,-1494.5 338.5,-1494.5 "/>
<text text-anchor="start" x="251.5" y="-1482.5" font-family="Helvetica,sans-Serif" font-size="10.00">+ _texTarget</text>
<text text-anchor="start" x="251.5" y="-1471.5" font-family="Helvetica,sans-Serif" font-size="10.00">+ _iTexFormat</text>
<text text-anchor="start" x="251.5" y="-1460.5" font-family="Helvetica,sans-Serif" font-size="10.00">+ _texMaxDim</text>
<text text-anchor="start" x="251.5" y="-1449.5" font-family="Helvetica,sans-Serif" font-size="10.00">+ _texMaxDimGL</text>
<text text-anchor="start" x="251.5" y="-1438.5" font-family="Helvetica,sans-Serif" font-size="10.00">+ _texMinDim</text>
<text text-anchor="start" x="251.5" y="-1427.5" font-family="Helvetica,sans-Serif" font-size="10.00">+ _MemCapGPU</text>
<text text-anchor="start" x="251.5" y="-1416.5" font-family="Helvetica,sans-Serif" font-size="10.00">+ _FitMemoryCap</text>
<text text-anchor="start" x="251.5" y="-1405.5" font-family="Helvetica,sans-Serif" font-size="10.00">+ _verbose</text>
<text text-anchor="start" x="251.5" y="-1394.5" font-family="Helvetica,sans-Serif" font-size="10.00">+ _timingS</text>
<text text-anchor="start" x="251.5" y="-1383.5" font-family="Helvetica,sans-Serif" font-size="10.00">+ _timingO</text>
<text text-anchor="start" x="251.5" y="-1372.5" font-family="Helvetica,sans-Serif" font-size="10.00">and 53 more...</text>
<polyline fill="none" stroke="black" points="243.5,-1365.5 338.5,-1365.5 "/>
<text text-anchor="middle" x="291" y="-1353.5" font-family="Helvetica,sans-Serif" font-size="10.00"> </text>
</a>
</g>
</g>
<!-- Node6&#45;&gt;Node5 -->
<g id="edge5" class="edge"><title>Node6&#45;&gt;Node5</title>
<path fill="none" stroke="midnightblue" d="M291,-1336.13C291,-1326.68 291,-1317.13 291,-1307.8"/>
<polygon fill="none" stroke="midnightblue" points="287.5,-1336.32 291,-1346.32 294.5,-1336.32 287.5,-1336.32"/>
</g>
<!-- Node7 -->
<g id="node7" class="node"><title>Node7</title>
<polygon fill="white" stroke="#bfbfbf" points="406,-934.5 406,-991.5 486,-991.5 486,-934.5 406,-934.5"/>
<text text-anchor="middle" x="446" y="-979.5" font-family="Helvetica,sans-Serif" font-size="10.00">vector&lt; float &gt;</text>
<polyline fill="none" stroke="#bfbfbf" points="406,-972.5 486,-972.5 "/>
<text text-anchor="middle" x="446" y="-960.5" font-family="Helvetica,sans-Serif" font-size="10.00"> </text>
<polyline fill="none" stroke="#bfbfbf" points="406,-953.5 486,-953.5 "/>
<text text-anchor="middle" x="446" y="-941.5" font-family="Helvetica,sans-Serif" font-size="10.00"> </text>
</g>
<!-- Node7&#45;&gt;Node4 -->
<g id="edge7" class="edge"><title>Node7&#45;&gt;Node4</title>
<path fill="none" stroke="#404040" d="M438.939,-934.458C429.589,-899.131 411.937,-836.189 392,-784 389.051,-776.281 385.938,-768.441 382.711,-760.557"/>
<polygon fill="none" stroke="#404040" points="382.676,-760.473 376.681,-756.464 378.076,-749.389 384.07,-753.398 382.676,-760.473"/>
<text text-anchor="middle" x="443" y="-798" font-family="Helvetica,sans-Serif" font-size="10.00"> +_descriptor_buffer</text>
<text text-anchor="middle" x="443" y="-787" font-family="Helvetica,sans-Serif" font-size="10.00">+_keypoint_buffer</text>
</g>
<!-- Node8 -->
<g id="node8" class="node"><title>Node8</title>
<polygon fill="white" stroke="#bfbfbf" points="277,-934.5 277,-991.5 349,-991.5 349,-934.5 277,-934.5"/>
<text text-anchor="middle" x="313" y="-979.5" font-family="Helvetica,sans-Serif" font-size="10.00">vector&lt; int &gt;</text>
<polyline fill="none" stroke="#bfbfbf" points="277,-972.5 349,-972.5 "/>
<text text-anchor="middle" x="313" y="-960.5" font-family="Helvetica,sans-Serif" font-size="10.00"> </text>
<polyline fill="none" stroke="#bfbfbf" points="277,-953.5 349,-953.5 "/>
<text text-anchor="middle" x="313" y="-941.5" font-family="Helvetica,sans-Serif" font-size="10.00"> </text>
</g>
<!-- Node8&#45;&gt;Node4 -->
<g id="edge8" class="edge"><title>Node8&#45;&gt;Node4</title>
<path fill="none" stroke="#404040" d="M306.49,-934.303C299.558,-903.27 289.038,-851.36 285,-806 284.181,-796.804 283.638,-787.39 283.325,-777.878"/>
<polygon fill="none" stroke="#404040" points="283.323,-777.784 279.186,-771.877 283.048,-765.787 287.184,-771.694 283.323,-777.784"/>
<text text-anchor="middle" x="324.5" y="-792.5" font-family="Helvetica,sans-Serif" font-size="10.00"> #_keypoint_index</text>
</g>
<!-- Node9 -->
<g id="node9" class="node"><title>Node9</title>
<g id="a_node9"><a xlink:href="../../d0/d3c/classGLTexInput.html" target="_top" xlink:title="{GLTexInput\n|+ _down_sampled\l+ _rgb_converted\l+ _data_modified\l+ _converted_data\l+ _pixel_data\l|+ GLTexInput()\l+ SetImageData()\l+ LoadImageFile()\l+ VerifyTexture()\l+ ~GLTexInput()\l+ IsSimpleGlFormat()\l+ DownSamplePixelDataI()\l+ DownSamplePixelDataI2F()\l+ DownSamplePixelDataF()\l+ TruncateWidthCU()\l}">
<polygon fill="white" stroke="black" points="-0.5,-483 -0.5,-683 146.5,-683 146.5,-483 -0.5,-483"/>
<text text-anchor="middle" x="73" y="-671" font-family="Helvetica,sans-Serif" font-size="10.00">GLTexInput</text>
<polyline fill="none" stroke="black" points="-0.5,-664 146.5,-664 "/>
<text text-anchor="start" x="7.5" y="-652" font-family="Helvetica,sans-Serif" font-size="10.00">+ _down_sampled</text>
<text text-anchor="start" x="7.5" y="-641" font-family="Helvetica,sans-Serif" font-size="10.00">+ _rgb_converted</text>
<text text-anchor="start" x="7.5" y="-630" font-family="Helvetica,sans-Serif" font-size="10.00">+ _data_modified</text>
<text text-anchor="start" x="7.5" y="-619" font-family="Helvetica,sans-Serif" font-size="10.00">+ _converted_data</text>
<text text-anchor="start" x="7.5" y="-608" font-family="Helvetica,sans-Serif" font-size="10.00">+ _pixel_data</text>
<polyline fill="none" stroke="black" points="-0.5,-601 146.5,-601 "/>
<text text-anchor="start" x="7.5" y="-589" font-family="Helvetica,sans-Serif" font-size="10.00">+ GLTexInput()</text>
<text text-anchor="start" x="7.5" y="-578" font-family="Helvetica,sans-Serif" font-size="10.00">+ SetImageData()</text>
<text text-anchor="start" x="7.5" y="-567" font-family="Helvetica,sans-Serif" font-size="10.00">+ LoadImageFile()</text>
<text text-anchor="start" x="7.5" y="-556" font-family="Helvetica,sans-Serif" font-size="10.00">+ VerifyTexture()</text>
<text text-anchor="start" x="7.5" y="-545" font-family="Helvetica,sans-Serif" font-size="10.00">+ ~GLTexInput()</text>
<text text-anchor="start" x="7.5" y="-534" font-family="Helvetica,sans-Serif" font-size="10.00">+ IsSimpleGlFormat()</text>
<text text-anchor="start" x="7.5" y="-523" font-family="Helvetica,sans-Serif" font-size="10.00">+ DownSamplePixelDataI()</text>
<text text-anchor="start" x="7.5" y="-512" font-family="Helvetica,sans-Serif" font-size="10.00">+ DownSamplePixelDataI2F()</text>
<text text-anchor="start" x="7.5" y="-501" font-family="Helvetica,sans-Serif" font-size="10.00">+ DownSamplePixelDataF()</text>
<text text-anchor="start" x="7.5" y="-490" font-family="Helvetica,sans-Serif" font-size="10.00">+ TruncateWidthCU()</text>
</a>
</g>
</g>
<!-- Node9&#45;&gt;Node2 -->
<g id="edge9" class="edge"><title>Node9&#45;&gt;Node2</title>
<path fill="none" stroke="#404040" d="M90.0025,-482.754C97.863,-446.535 108.695,-405.719 123,-370 127.563,-358.607 132.92,-347.044 138.689,-335.674"/>
<polygon fill="none" stroke="#404040" points="138.787,-335.485 138.013,-328.316 144.333,-324.843 145.107,-332.013 138.787,-335.485"/>
<text text-anchor="middle" x="150.5" y="-373.5" font-family="Helvetica,sans-Serif" font-size="10.00"> #_texImage</text>
</g>
<!-- Node10&#45;&gt;Node9 -->
<g id="edge10" class="edge"><title>Node10&#45;&gt;Node9</title>
<path fill="none" stroke="midnightblue" d="M62.0352,-814.261C64.1269,-770.334 66.3675,-723.281 68.2746,-683.233"/>
<polygon fill="none" stroke="midnightblue" points="58.529,-814.309 61.5493,-824.464 65.5211,-814.642 58.529,-814.309"/>
</g>
<!-- Node11 -->
<g id="node11" class="node"><title>Node11</title>
<g id="a_node11"><a xlink:href="../../db/dc3/classImageList.html" target="_top" xlink:title="{ImageList\n||}">
<polygon fill="white" stroke="black" points="466.5,-554.5 466.5,-611.5 525.5,-611.5 525.5,-554.5 466.5,-554.5"/>
<text text-anchor="middle" x="496" y="-599.5" font-family="Helvetica,sans-Serif" font-size="10.00">ImageList</text>
<polyline fill="none" stroke="black" points="466.5,-592.5 525.5,-592.5 "/>
<text text-anchor="middle" x="496" y="-580.5" font-family="Helvetica,sans-Serif" font-size="10.00"> </text>
<polyline fill="none" stroke="black" points="466.5,-573.5 525.5,-573.5 "/>
<text text-anchor="middle" x="496" y="-561.5" font-family="Helvetica,sans-Serif" font-size="10.00"> </text>
</a>
</g>
</g>
<!-- Node11&#45;&gt;Node2 -->
<g id="edge12" class="edge"><title>Node11&#45;&gt;Node2</title>
<path fill="none" stroke="#404040" d="M485.522,-554.443C469.458,-515.432 435.336,-443.971 386,-400 347.694,-365.86 318.929,-386.559 281,-352 280.8,-351.818 280.601,-351.635 280.402,-351.452"/>
<polygon fill="none" stroke="#404040" points="280.211,-351.261 273.139,-349.851 271.721,-342.78 278.793,-344.191 280.211,-351.261"/>
<text text-anchor="middle" x="369.5" y="-373.5" font-family="Helvetica,sans-Serif" font-size="10.00"> #_list</text>
</g>
<!-- Node12 -->
<g id="node12" class="node"><title>Node12</title>
<polygon fill="white" stroke="#bfbfbf" points="504.5,-934.5 504.5,-991.5 629.5,-991.5 629.5,-934.5 504.5,-934.5"/>
<text text-anchor="middle" x="567" y="-979.5" font-family="Helvetica,sans-Serif" font-size="10.00">std::vector&lt; std::string &gt;</text>
<polyline fill="none" stroke="#bfbfbf" points="504.5,-972.5 629.5,-972.5 "/>
<text text-anchor="middle" x="567" y="-960.5" font-family="Helvetica,sans-Serif" font-size="10.00"> </text>
<polyline fill="none" stroke="#bfbfbf" points="504.5,-953.5 629.5,-953.5 "/>
<text text-anchor="middle" x="567" y="-941.5" font-family="Helvetica,sans-Serif" font-size="10.00"> </text>
</g>
<!-- Node12&#45;&gt;Node11 -->
<g id="edge13" class="edge"><title>Node12&#45;&gt;Node11</title>
<path fill="none" stroke="midnightblue" d="M561.384,-924.411C555.873,-888.326 547.006,-832.326 538,-784 526.495,-722.264 510.821,-650.289 502.244,-611.746"/>
<polygon fill="none" stroke="midnightblue" points="557.953,-925.128 562.915,-934.489 564.873,-924.076 557.953,-925.128"/>
</g>
<!-- Node13 -->
<g id="node13" class="node"><title>Node13</title>
<g id="a_node13"><a xlink:href="../../db/df0/classSiftMatchGPU.html" target="_top" xlink:title="matcher export ">
<polygon fill="white" stroke="black" points="290,-113 290,-335 410,-335 410,-113 290,-113"/>
<text text-anchor="middle" x="350" y="-323" font-family="Helvetica,sans-Serif" font-size="10.00">SiftMatchGPU</text>
<polyline fill="none" stroke="black" points="290,-316 410,-316 "/>
<text text-anchor="middle" x="350" y="-304" font-family="Helvetica,sans-Serif" font-size="10.00"> </text>
<polyline fill="none" stroke="black" points="290,-297 410,-297 "/>
<text text-anchor="start" x="298" y="-285" font-family="Helvetica,sans-Serif" font-size="10.00">+ CreateContextGL()</text>
<text text-anchor="start" x="298" y="-274" font-family="Helvetica,sans-Serif" font-size="10.00">+ VerifyContextGL()</text>
<text text-anchor="start" x="298" y="-263" font-family="Helvetica,sans-Serif" font-size="10.00">+ SiftMatchGPU()</text>
<text text-anchor="start" x="298" y="-252" font-family="Helvetica,sans-Serif" font-size="10.00">+ SetLanguage()</text>
<text text-anchor="start" x="298" y="-241" font-family="Helvetica,sans-Serif" font-size="10.00">+ SetDeviceParam()</text>
<text text-anchor="start" x="298" y="-230" font-family="Helvetica,sans-Serif" font-size="10.00">+ SetMaxSift()</text>
<text text-anchor="start" x="298" y="-219" font-family="Helvetica,sans-Serif" font-size="10.00">+ ~SiftMatchGPU()</text>
<text text-anchor="start" x="298" y="-208" font-family="Helvetica,sans-Serif" font-size="10.00">+ SetDescriptors()</text>
<text text-anchor="start" x="298" y="-197" font-family="Helvetica,sans-Serif" font-size="10.00">+ SetDescriptors()</text>
<text text-anchor="start" x="298" y="-186" font-family="Helvetica,sans-Serif" font-size="10.00">+ GetSiftMatch()</text>
<text text-anchor="start" x="298" y="-175" font-family="Helvetica,sans-Serif" font-size="10.00">+ SetFeautreLocation()</text>
<text text-anchor="start" x="298" y="-164" font-family="Helvetica,sans-Serif" font-size="10.00">+ SetFeatureLocation()</text>
<text text-anchor="start" x="298" y="-153" font-family="Helvetica,sans-Serif" font-size="10.00">+ GetGuidedSiftMatch()</text>
<text text-anchor="start" x="298" y="-142" font-family="Helvetica,sans-Serif" font-size="10.00">+ operator new()</text>
<text text-anchor="start" x="298" y="-131" font-family="Helvetica,sans-Serif" font-size="10.00"># _CreateContextGL()</text>
<text text-anchor="start" x="298" y="-120" font-family="Helvetica,sans-Serif" font-size="10.00"># _VerifyContextGL()</text>
</a>
</g>
</g>
<!-- Node13&#45;&gt;Node1 -->
<g id="edge14" class="edge"><title>Node13&#45;&gt;Node1</title>
<path fill="none" stroke="midnightblue" d="M327.611,-102.97C324.475,-86.1582 321.528,-70.3609 319.184,-57.7934"/>
<polygon fill="none" stroke="midnightblue" points="324.202,-103.781 329.476,-112.969 331.083,-102.497 324.202,-103.781"/>
</g>
</g>
</svg>
