<?xml version="1.0" encoding="UTF-8" standalone="no"?>
<!DOCTYPE svg PUBLIC "-//W3C//DTD SVG 1.1//EN"
 "http://www.w3.org/Graphics/SVG/1.1/DTD/svg11.dtd">
<!-- Generated by graphviz version 2.36.0 (20140111.2315)
 -->
<!-- Title: src/main.cpp Pages: 1 -->
<svg width="2975pt" height="410pt"
 viewBox="0.00 0.00 2975.00 410.00" xmlns="http://www.w3.org/2000/svg" xmlns:xlink="http://www.w3.org/1999/xlink">
<g id="graph0" class="graph" transform="scale(1 1) rotate(0) translate(4 406)">
<title>src/main.cpp</title>
<polygon fill="white" stroke="none" points="-4,4 -4,-406 2971,-406 2971,4 -4,4"/>
<!-- Node1 -->
<g id="node1" class="node"><title>Node1</title>
<polygon fill="#bfbfbf" stroke="black" points="1784.5,-382.5 1784.5,-401.5 1857.5,-401.5 1857.5,-382.5 1784.5,-382.5"/>
<text text-anchor="middle" x="1821" y="-389.5" font-family="Helvetica,sans-Serif" font-size="10.00">src/main.cpp</text>
</g>
<!-- Node2 -->
<g id="node2" class="node"><title>Node2</title>
<g id="a_node2"><a xlink:href="../../dd/d53/openni__listener_8h.html" target="_top" xlink:title="openni_listener.h">
<polygon fill="white" stroke="black" points="487,-326.5 487,-345.5 577,-345.5 577,-326.5 487,-326.5"/>
<text text-anchor="middle" x="532" y="-333.5" font-family="Helvetica,sans-Serif" font-size="10.00">openni_listener.h</text>
</a>
</g>
</g>
<!-- Node1&#45;&gt;Node2 -->
<g id="edge1" class="edge"><title>Node1&#45;&gt;Node2</title>
<path fill="none" stroke="midnightblue" d="M1784.5,-389.471C1603.91,-381.905 805.969,-348.477 587.478,-339.324"/>
<polygon fill="midnightblue" stroke="midnightblue" points="587.352,-335.816 577.215,-338.894 587.059,-342.81 587.352,-335.816"/>
</g>
<!-- Node16 -->
<g id="node16" class="node"><title>Node16</title>
<polygon fill="white" stroke="#bfbfbf" points="808.5,-118.5 808.5,-137.5 873.5,-137.5 873.5,-118.5 808.5,-118.5"/>
<text text-anchor="middle" x="841" y="-125.5" font-family="Helvetica,sans-Serif" font-size="10.00">Eigen/Core</text>
</g>
<!-- Node1&#45;&gt;Node16 -->
<g id="edge71" class="edge"><title>Node1&#45;&gt;Node16</title>
<path fill="none" stroke="midnightblue" d="M1798.38,-382.473C1703.09,-346.66 1333.74,-208.927 1213,-180 1095.72,-151.903 953.672,-137.781 883.904,-132.109"/>
<polygon fill="midnightblue" stroke="midnightblue" points="883.99,-128.605 873.744,-131.301 883.435,-135.583 883.99,-128.605"/>
</g>
<!-- Node17 -->
<g id="node17" class="node"><title>Node17</title>
<g id="a_node17"><a xlink:href="../../d2/de7/parameter__server_8h.html" target="_top" xlink:title="parameter_server.h">
<polygon fill="white" stroke="black" points="1605.5,-118.5 1605.5,-137.5 1706.5,-137.5 1706.5,-118.5 1605.5,-118.5"/>
<text text-anchor="middle" x="1656" y="-125.5" font-family="Helvetica,sans-Serif" font-size="10.00">parameter_server.h</text>
</a>
</g>
</g>
<!-- Node1&#45;&gt;Node17 -->
<g id="edge72" class="edge"><title>Node1&#45;&gt;Node17</title>
<path fill="none" stroke="midnightblue" d="M1823.17,-382.181C1830.35,-350.774 1850.18,-242.905 1801,-180 1780.84,-154.218 1746.72,-141.434 1716.64,-135.111"/>
<polygon fill="midnightblue" stroke="midnightblue" points="1717.1,-131.635 1706.62,-133.205 1715.79,-138.512 1717.1,-131.635"/>
</g>
<!-- Node29 -->
<g id="node29" class="node"><title>Node29</title>
<polygon fill="white" stroke="#bfbfbf" points="1739.5,-186.5 1739.5,-205.5 1792.5,-205.5 1792.5,-186.5 1739.5,-186.5"/>
<text text-anchor="middle" x="1766" y="-193.5" font-family="Helvetica,sans-Serif" font-size="10.00">QObject</text>
</g>
<!-- Node1&#45;&gt;Node29 -->
<g id="edge57" class="edge"><title>Node1&#45;&gt;Node29</title>
<path fill="none" stroke="midnightblue" d="M1818.23,-382.399C1815.34,-373.361 1810.73,-358.72 1807,-346 1793.28,-299.177 1778.36,-243.686 1770.87,-215.472"/>
<polygon fill="midnightblue" stroke="midnightblue" points="1774.24,-214.533 1768.3,-205.762 1767.48,-216.324 1774.24,-214.533"/>
</g>
<!-- Node37 -->
<g id="node37" class="node"><title>Node37</title>
<g id="a_node37"><a xlink:href="../../dd/db1/qtros_8h.html" target="_top" xlink:title="qtros.h">
<polygon fill="white" stroke="black" points="1681.5,-259.5 1681.5,-278.5 1728.5,-278.5 1728.5,-259.5 1681.5,-259.5"/>
<text text-anchor="middle" x="1705" y="-266.5" font-family="Helvetica,sans-Serif" font-size="10.00">qtros.h</text>
</a>
</g>
</g>
<!-- Node1&#45;&gt;Node37 -->
<g id="edge52" class="edge"><title>Node1&#45;&gt;Node37</title>
<path fill="none" stroke="midnightblue" d="M1807.23,-382.368C1794.45,-373.979 1775.3,-360.424 1761,-346 1743.03,-327.881 1726.21,-303.692 1715.78,-287.517"/>
<polygon fill="midnightblue" stroke="midnightblue" points="1718.46,-285.198 1710.16,-278.607 1712.54,-288.932 1718.46,-285.198"/>
</g>
<!-- Node39 -->
<g id="node39" class="node"><title>Node39</title>
<polygon fill="white" stroke="#bfbfbf" points="1849,-326.5 1849,-345.5 1921,-345.5 1921,-326.5 1849,-326.5"/>
<text text-anchor="middle" x="1885" y="-333.5" font-family="Helvetica,sans-Serif" font-size="10.00">QApplication</text>
</g>
<!-- Node1&#45;&gt;Node39 -->
<g id="edge56" class="edge"><title>Node1&#45;&gt;Node39</title>
<path fill="none" stroke="midnightblue" d="M1831.28,-382.324C1840.84,-374.263 1855.28,-362.077 1866.78,-352.369"/>
<polygon fill="midnightblue" stroke="midnightblue" points="1869.14,-354.958 1874.53,-345.834 1864.63,-349.608 1869.14,-354.958"/>
</g>
<!-- Node40 -->
<g id="node40" class="node"><title>Node40</title>
<g id="a_node40"><a xlink:href="../../d9/da2/qt__gui_8h.html" target="_top" xlink:title="qt_gui.h">
<polygon fill="white" stroke="black" points="2068.5,-259.5 2068.5,-278.5 2119.5,-278.5 2119.5,-259.5 2068.5,-259.5"/>
<text text-anchor="middle" x="2094" y="-266.5" font-family="Helvetica,sans-Serif" font-size="10.00">qt_gui.h</text>
</a>
</g>
</g>
<!-- Node1&#45;&gt;Node40 -->
<g id="edge58" class="edge"><title>Node1&#45;&gt;Node40</title>
<path fill="none" stroke="midnightblue" d="M1849.4,-382.447C1875.85,-374.163 1916.18,-360.723 1950,-346 1994.01,-326.839 2042.99,-299.659 2070.99,-283.529"/>
<polygon fill="midnightblue" stroke="midnightblue" points="2072.74,-286.555 2079.64,-278.51 2069.23,-280.5 2072.74,-286.555"/>
</g>
<!-- Node43 -->
<g id="node43" class="node"><title>Node43</title>
<g id="a_node43"><a xlink:href="../../d3/d9d/glviewer_8h.html" target="_top" xlink:title="glviewer.h">
<polygon fill="white" stroke="black" points="1918.5,-259.5 1918.5,-278.5 1979.5,-278.5 1979.5,-259.5 1918.5,-259.5"/>
<text text-anchor="middle" x="1949" y="-266.5" font-family="Helvetica,sans-Serif" font-size="10.00">glviewer.h</text>
</a>
</g>
</g>
<!-- Node1&#45;&gt;Node43 -->
<g id="edge64" class="edge"><title>Node1&#45;&gt;Node43</title>
<path fill="none" stroke="midnightblue" d="M1857.62,-384.698C1881.53,-378.709 1911.61,-367.309 1930,-346 1943.72,-330.107 1947.8,-305.745 1948.88,-288.907"/>
<polygon fill="midnightblue" stroke="midnightblue" points="1952.39,-288.763 1949.23,-278.649 1945.39,-288.525 1952.39,-288.763"/>
</g>
<!-- Node46 -->
<g id="node46" class="node"><title>Node46</title>
<g id="a_node46"><a xlink:href="../../de/d7a/ros__service__ui_8h.html" target="_top" xlink:title="ros_service_ui.h">
<polygon fill="white" stroke="black" points="2348,-259.5 2348,-278.5 2436,-278.5 2436,-259.5 2348,-259.5"/>
<text text-anchor="middle" x="2392" y="-266.5" font-family="Helvetica,sans-Serif" font-size="10.00">ros_service_ui.h</text>
</a>
</g>
</g>
<!-- Node1&#45;&gt;Node46 -->
<g id="edge73" class="edge"><title>Node1&#45;&gt;Node46</title>
<path fill="none" stroke="midnightblue" d="M1857.59,-383.247C1956.39,-362.311 2228.72,-304.6 2341.78,-280.642"/>
<polygon fill="midnightblue" stroke="midnightblue" points="2342.52,-284.064 2351.57,-278.567 2341.07,-277.216 2342.52,-284.064"/>
</g>
<!-- Node3 -->
<g id="node3" class="node"><title>Node3</title>
<polygon fill="white" stroke="#bfbfbf" points="752.5,-56.5 752.5,-75.5 807.5,-75.5 807.5,-56.5 752.5,-56.5"/>
<text text-anchor="middle" x="780" y="-63.5" font-family="Helvetica,sans-Serif" font-size="10.00">ros/ros.h</text>
</g>
<!-- Node2&#45;&gt;Node3 -->
<g id="edge2" class="edge"><title>Node2&#45;&gt;Node3</title>
<path fill="none" stroke="midnightblue" d="M486.84,-334.707C414.053,-333.174 275.816,-325.529 245,-290 193.161,-230.233 189.443,-170.233 243,-112 276.701,-75.3566 625.606,-68.5386 742.254,-67.2812"/>
<polygon fill="midnightblue" stroke="midnightblue" points="742.519,-70.7789 752.483,-67.179 742.449,-63.7792 742.519,-70.7789"/>
</g>
<!-- Node4 -->
<g id="node4" class="node"><title>Node4</title>
<polygon fill="white" stroke="#bfbfbf" points="592,-259.5 592,-278.5 734,-278.5 734,-259.5 592,-259.5"/>
<text text-anchor="middle" x="663" y="-266.5" font-family="Helvetica,sans-Serif" font-size="10.00">message_filters/subscriber.h</text>
</g>
<!-- Node2&#45;&gt;Node4 -->
<g id="edge3" class="edge"><title>Node2&#45;&gt;Node4</title>
<path fill="none" stroke="midnightblue" d="M549.396,-326.369C571.613,-315.345 610.287,-296.155 636.26,-283.268"/>
<polygon fill="midnightblue" stroke="midnightblue" points="638.13,-286.247 645.532,-278.667 635.019,-279.977 638.13,-286.247"/>
</g>
<!-- Node5 -->
<g id="node5" class="node"><title>Node5</title>
<polygon fill="white" stroke="#bfbfbf" points="752,-259.5 752,-278.5 904,-278.5 904,-259.5 752,-259.5"/>
<text text-anchor="middle" x="828" y="-266.5" font-family="Helvetica,sans-Serif" font-size="10.00">message_filters/synchronizer.h</text>
</g>
<!-- Node2&#45;&gt;Node5 -->
<g id="edge4" class="edge"><title>Node2&#45;&gt;Node5</title>
<path fill="none" stroke="midnightblue" d="M573.295,-326.46C615.873,-317.592 684.158,-303.196 743,-290 755.839,-287.121 769.744,-283.895 782.515,-280.888"/>
<polygon fill="midnightblue" stroke="midnightblue" points="783.545,-284.241 792.472,-278.535 781.935,-277.429 783.545,-284.241"/>
</g>
<!-- Node6 -->
<g id="node6" class="node"><title>Node6</title>
<polygon fill="white" stroke="#bfbfbf" points="922.5,-248.5 922.5,-289.5 1033.5,-289.5 1033.5,-248.5 922.5,-248.5"/>
<text text-anchor="start" x="930.5" y="-277.5" font-family="Helvetica,sans-Serif" font-size="10.00">message_filters/sync</text>
<text text-anchor="start" x="930.5" y="-266.5" font-family="Helvetica,sans-Serif" font-size="10.00">_policies/approximate</text>
<text text-anchor="middle" x="978" y="-255.5" font-family="Helvetica,sans-Serif" font-size="10.00">_time.h</text>
</g>
<!-- Node2&#45;&gt;Node6 -->
<g id="edge5" class="edge"><title>Node2&#45;&gt;Node6</title>
<path fill="none" stroke="midnightblue" d="M577.005,-332.33C646.903,-327.608 785.804,-315.925 912.29,-289.947"/>
<polygon fill="midnightblue" stroke="midnightblue" points="913.076,-293.359 922.149,-287.888 911.644,-286.507 913.076,-293.359"/>
</g>
<!-- Node7 -->
<g id="node7" class="node"><title>Node7</title>
<polygon fill="white" stroke="#bfbfbf" points="1051.5,-259.5 1051.5,-278.5 1164.5,-278.5 1164.5,-259.5 1051.5,-259.5"/>
<text text-anchor="middle" x="1108" y="-266.5" font-family="Helvetica,sans-Serif" font-size="10.00">sensor_msgs/Image.h</text>
</g>
<!-- Node2&#45;&gt;Node7 -->
<g id="edge6" class="edge"><title>Node2&#45;&gt;Node7</title>
<path fill="none" stroke="midnightblue" d="M577.116,-334.133C666.583,-331.732 872.483,-322.798 1042,-290 1052.67,-287.936 1064.07,-284.822 1074.34,-281.662"/>
<polygon fill="midnightblue" stroke="midnightblue" points="1075.7,-284.9 1084.16,-278.524 1073.57,-278.232 1075.7,-284.9"/>
</g>
<!-- Node8 -->
<g id="node8" class="node"><title>Node8</title>
<polygon fill="white" stroke="#bfbfbf" points="506.5,-118.5 506.5,-137.5 643.5,-137.5 643.5,-118.5 506.5,-118.5"/>
<text text-anchor="middle" x="575" y="-125.5" font-family="Helvetica,sans-Serif" font-size="10.00">sensor_msgs/CameraInfo.h</text>
</g>
<!-- Node2&#45;&gt;Node8 -->
<g id="edge7" class="edge"><title>Node2&#45;&gt;Node8</title>
<path fill="none" stroke="midnightblue" d="M534.481,-326.418C537.045,-317.396 541.072,-302.767 544,-290 555.734,-238.828 566.651,-177.822 571.838,-147.713"/>
<polygon fill="midnightblue" stroke="midnightblue" points="575.302,-148.218 573.535,-137.771 568.402,-147.04 575.302,-148.218"/>
</g>
<!-- Node9 -->
<g id="node9" class="node"><title>Node9</title>
<polygon fill="white" stroke="#bfbfbf" points="0,-118.5 0,-137.5 140,-137.5 140,-118.5 0,-118.5"/>
<text text-anchor="middle" x="70" y="-125.5" font-family="Helvetica,sans-Serif" font-size="10.00">sensor_msgs/PointCloud2.h</text>
</g>
<!-- Node2&#45;&gt;Node9 -->
<g id="edge8" class="edge"><title>Node2&#45;&gt;Node9</title>
<path fill="none" stroke="midnightblue" d="M486.713,-334.149C372.726,-331.541 80.952,-321.793 52,-290 15.6176,-250.047 43.9825,-179.382 60.4023,-146.606"/>
<polygon fill="midnightblue" stroke="midnightblue" points="63.5121,-148.212 65.0297,-137.726 57.3044,-144.977 63.5121,-148.212"/>
</g>
<!-- Node10 -->
<g id="node10" class="node"><title>Node10</title>
<polygon fill="white" stroke="#bfbfbf" points="61,-259.5 61,-278.5 177,-278.5 177,-259.5 61,-259.5"/>
<text text-anchor="middle" x="119" y="-266.5" font-family="Helvetica,sans-Serif" font-size="10.00">nav_msgs/Odometry.h</text>
</g>
<!-- Node2&#45;&gt;Node10 -->
<g id="edge9" class="edge"><title>Node2&#45;&gt;Node10</title>
<path fill="none" stroke="midnightblue" d="M486.983,-331.081C421.421,-324.919 296.028,-311.408 191,-290 179.516,-287.659 167.17,-284.48 156.001,-281.345"/>
<polygon fill="midnightblue" stroke="midnightblue" points="156.712,-277.907 146.134,-278.504 154.775,-284.634 156.712,-277.907"/>
</g>
<!-- Node11 -->
<g id="node11" class="node"><title>Node11</title>
<polygon fill="white" stroke="#bfbfbf" points="252,-118.5 252,-137.5 368,-137.5 368,-118.5 252,-118.5"/>
<text text-anchor="middle" x="310" y="-125.5" font-family="Helvetica,sans-Serif" font-size="10.00">opencv2/core/core.hpp</text>
</g>
<!-- Node2&#45;&gt;Node11 -->
<g id="edge10" class="edge"><title>Node2&#45;&gt;Node11</title>
<path fill="none" stroke="midnightblue" d="M486.929,-334.249C417.724,-332.035 290.298,-323.404 262,-290 225.639,-247.077 271.31,-177.447 296.048,-145.714"/>
<polygon fill="midnightblue" stroke="midnightblue" points="298.853,-147.811 302.384,-137.822 293.394,-143.429 298.853,-147.811"/>
</g>
<!-- Node12 -->
<g id="node12" class="node"><title>Node12</title>
<polygon fill="white" stroke="#bfbfbf" points="386,-113 386,-143 488,-143 488,-113 386,-113"/>
<text text-anchor="start" x="394" y="-131" font-family="Helvetica,sans-Serif" font-size="10.00">opencv2/features2d</text>
<text text-anchor="middle" x="437" y="-120" font-family="Helvetica,sans-Serif" font-size="10.00">/features2d.hpp</text>
</g>
<!-- Node2&#45;&gt;Node12 -->
<g id="edge11" class="edge"><title>Node2&#45;&gt;Node12</title>
<path fill="none" stroke="midnightblue" d="M503.906,-326.474C486.258,-319.578 464.693,-308.003 453,-290 425.92,-248.307 428.637,-187.307 432.893,-153.626"/>
<polygon fill="midnightblue" stroke="midnightblue" points="436.416,-153.711 434.355,-143.319 429.485,-152.728 436.416,-153.711"/>
</g>
<!-- Node13 -->
<g id="node13" class="node"><title>Node13</title>
<g id="a_node13"><a xlink:href="../../de/d83/graph__manager_8h.html" target="_top" xlink:title="graph_manager.h">
<polygon fill="white" stroke="red" points="1183,-259.5 1183,-278.5 1275,-278.5 1275,-259.5 1183,-259.5"/>
<text text-anchor="middle" x="1229" y="-266.5" font-family="Helvetica,sans-Serif" font-size="10.00">graph_manager.h</text>
</a>
</g>
</g>
<!-- Node2&#45;&gt;Node13 -->
<g id="edge12" class="edge"><title>Node2&#45;&gt;Node13</title>
<path fill="none" stroke="midnightblue" d="M577.347,-333.424C703.865,-328.773 1058.9,-313.909 1173,-290 1181.86,-288.143 1191.22,-285.212 1199.7,-282.16"/>
<polygon fill="midnightblue" stroke="midnightblue" points="1201.05,-285.391 1209.17,-278.579 1198.57,-278.844 1201.05,-285.391"/>
</g>
<!-- Node25 -->
<g id="node25" class="node"><title>Node25</title>
<polygon fill="white" stroke="#bfbfbf" points="1324,-118.5 1324,-137.5 1416,-137.5 1416,-118.5 1324,-118.5"/>
<text text-anchor="middle" x="1370" y="-125.5" font-family="Helvetica,sans-Serif" font-size="10.00">qtconcurrentrun.h</text>
</g>
<!-- Node2&#45;&gt;Node25 -->
<g id="edge48" class="edge"><title>Node2&#45;&gt;Node25</title>
<path fill="none" stroke="midnightblue" d="M577.146,-335.074C730.743,-334.95 1226.73,-331.325 1284,-290 1326.7,-259.19 1301.17,-225.305 1328,-180 1335.41,-167.482 1345.79,-154.848 1354.38,-145.286"/>
<polygon fill="midnightblue" stroke="midnightblue" points="1357.12,-147.474 1361.34,-137.755 1351.98,-142.722 1357.12,-147.474"/>
</g>
<!-- Node34 -->
<g id="node34" class="node"><title>Node34</title>
<polygon fill="white" stroke="#bfbfbf" points="271.5,-259.5 271.5,-278.5 322.5,-278.5 322.5,-259.5 271.5,-259.5"/>
<text text-anchor="middle" x="297" y="-266.5" font-family="Helvetica,sans-Serif" font-size="10.00">QImage</text>
</g>
<!-- Node2&#45;&gt;Node34 -->
<g id="edge49" class="edge"><title>Node2&#45;&gt;Node34</title>
<path fill="none" stroke="midnightblue" d="M486.902,-329.017C445.366,-322.556 382.556,-310.352 331,-290 326.655,-288.285 322.211,-286.063 318.029,-283.727"/>
<polygon fill="midnightblue" stroke="midnightblue" points="319.813,-280.716 309.436,-278.583 316.218,-286.722 319.813,-280.716"/>
</g>
<!-- Node35 -->
<g id="node35" class="node"><title>Node35</title>
<polygon fill="white" stroke="#bfbfbf" points="340.5,-259.5 340.5,-278.5 405.5,-278.5 405.5,-259.5 340.5,-259.5"/>
<text text-anchor="middle" x="373" y="-266.5" font-family="Helvetica,sans-Serif" font-size="10.00">QStringList</text>
</g>
<!-- Node2&#45;&gt;Node35 -->
<g id="edge50" class="edge"><title>Node2&#45;&gt;Node35</title>
<path fill="none" stroke="midnightblue" d="M510.056,-326.336C487.437,-317.369 451.176,-302.895 420,-290 414.33,-287.655 408.292,-285.117 402.499,-282.661"/>
<polygon fill="midnightblue" stroke="midnightblue" points="403.661,-279.352 393.089,-278.654 400.919,-285.792 403.661,-279.352"/>
</g>
<!-- Node36 -->
<g id="node36" class="node"><title>Node36</title>
<polygon fill="white" stroke="#bfbfbf" points="462.5,-259.5 462.5,-278.5 535.5,-278.5 535.5,-259.5 462.5,-259.5"/>
<text text-anchor="middle" x="499" y="-266.5" font-family="Helvetica,sans-Serif" font-size="10.00">rosbag/bag.h</text>
</g>
<!-- Node2&#45;&gt;Node36 -->
<g id="edge51" class="edge"><title>Node2&#45;&gt;Node36</title>
<path fill="none" stroke="midnightblue" d="M527.549,-326.234C522.552,-316.39 514.312,-300.16 507.966,-287.659"/>
<polygon fill="midnightblue" stroke="midnightblue" points="511.028,-285.96 503.38,-278.627 504.786,-289.128 511.028,-285.96"/>
</g>
<!-- Node13&#45;&gt;Node3 -->
<g id="edge13" class="edge"><title>Node13&#45;&gt;Node3</title>
<path fill="none" stroke="midnightblue" d="M1208.87,-259.483C1198.36,-255.379 1185.18,-250.76 1173,-248 1096.74,-230.726 884.431,-260.37 823,-212 784.232,-181.475 779.21,-117.63 779.281,-85.8328"/>
<polygon fill="midnightblue" stroke="midnightblue" points="782.783,-85.757 779.484,-75.6889 775.784,-85.6167 782.783,-85.757"/>
</g>
<!-- Node13&#45;&gt;Node11 -->
<g id="edge37" class="edge"><title>Node13&#45;&gt;Node11</title>
<path fill="none" stroke="midnightblue" d="M1209.43,-259.495C1198.85,-255.287 1185.44,-250.57 1173,-248 930.061,-197.796 860.715,-252.674 616,-212 515.809,-195.347 401.079,-159.581 344.817,-140.905"/>
<polygon fill="midnightblue" stroke="midnightblue" points="345.603,-137.478 335.009,-137.626 343.383,-144.116 345.603,-137.478"/>
</g>
<!-- Node13&#45;&gt;Node12 -->
<g id="edge38" class="edge"><title>Node13&#45;&gt;Node12</title>
<path fill="none" stroke="midnightblue" d="M1209.17,-259.42C1198.62,-255.245 1185.33,-250.582 1173,-248 948.86,-201.052 873.737,-291.567 659,-212 636.662,-203.723 637.36,-190.547 616,-180 605.146,-174.641 545.673,-158.083 498.215,-145.272"/>
<polygon fill="midnightblue" stroke="midnightblue" points="498.858,-141.82 488.292,-142.6 497.038,-148.58 498.858,-141.82"/>
</g>
<!-- Node14 -->
<g id="node14" class="node"><title>Node14</title>
<polygon fill="white" stroke="#bfbfbf" points="968.5,-186.5 968.5,-205.5 1099.5,-205.5 1099.5,-186.5 968.5,-186.5"/>
<text text-anchor="middle" x="1034" y="-193.5" font-family="Helvetica,sans-Serif" font-size="10.00">tf/transform_broadcaster.h</text>
</g>
<!-- Node13&#45;&gt;Node14 -->
<g id="edge14" class="edge"><title>Node13&#45;&gt;Node14</title>
<path fill="none" stroke="midnightblue" d="M1205.48,-259.436C1170.93,-246.855 1106.31,-223.327 1067.01,-209.021"/>
<polygon fill="midnightblue" stroke="midnightblue" points="1068.2,-205.727 1057.6,-205.595 1065.8,-212.305 1068.2,-205.727"/>
</g>
<!-- Node15 -->
<g id="node15" class="node"><title>Node15</title>
<g id="a_node15"><a xlink:href="../../d1/d77/node_8h.html" target="_top" xlink:title="node.h">
<polygon fill="white" stroke="red" points="668,-186.5 668,-205.5 714,-205.5 714,-186.5 668,-186.5"/>
<text text-anchor="middle" x="691" y="-193.5" font-family="Helvetica,sans-Serif" font-size="10.00">node.h</text>
</a>
</g>
</g>
<!-- Node13&#45;&gt;Node15 -->
<g id="edge15" class="edge"><title>Node13&#45;&gt;Node15</title>
<path fill="none" stroke="midnightblue" d="M1209.15,-259.474C1198.61,-255.315 1185.31,-250.649 1173,-248 979.013,-206.273 921.065,-257.804 728,-212 724.929,-211.271 721.78,-210.328 718.678,-209.268"/>
<polygon fill="midnightblue" stroke="midnightblue" points="719.673,-205.901 709.082,-205.611 717.18,-212.443 719.673,-205.901"/>
</g>
<!-- Node13&#45;&gt;Node16 -->
<g id="edge35" class="edge"><title>Node13&#45;&gt;Node16</title>
<path fill="none" stroke="midnightblue" d="M1208.6,-259.403C1198.14,-255.33 1185.08,-250.762 1173,-248 1099.8,-231.255 887.191,-267.856 837,-212 821.29,-194.517 827.197,-165.668 833.569,-147.002"/>
<polygon fill="midnightblue" stroke="midnightblue" points="836.867,-148.176 837.118,-137.584 830.317,-145.707 836.867,-148.176"/>
</g>
<!-- Node13&#45;&gt;Node17 -->
<g id="edge47" class="edge"><title>Node13&#45;&gt;Node17</title>
<path fill="none" stroke="midnightblue" d="M1275.12,-263.056C1323.49,-256.486 1400.73,-242.011 1461,-212 1481.07,-202.006 1480.34,-190.78 1500,-180 1533.7,-161.519 1575.21,-148.354 1606.93,-140.034"/>
<polygon fill="midnightblue" stroke="midnightblue" points="1608.04,-143.363 1616.86,-137.502 1606.31,-136.58 1608.04,-143.363"/>
</g>
<!-- Node18 -->
<g id="node18" class="node"><title>Node18</title>
<polygon fill="white" stroke="#bfbfbf" points="1385.5,-56.5 1385.5,-75.5 1426.5,-75.5 1426.5,-56.5 1385.5,-56.5"/>
<text text-anchor="middle" x="1406" y="-63.5" font-family="Helvetica,sans-Serif" font-size="10.00">string</text>
</g>
<!-- Node13&#45;&gt;Node18 -->
<g id="edge46" class="edge"><title>Node13&#45;&gt;Node18</title>
<path fill="none" stroke="midnightblue" d="M1231.67,-259.415C1240,-233.833 1267.84,-157.102 1315,-112 1332.25,-95.5062 1356.71,-83.8715 1375.92,-76.5698"/>
<polygon fill="midnightblue" stroke="midnightblue" points="1377.21,-79.827 1385.43,-73.1436 1374.83,-73.2417 1377.21,-79.827"/>
</g>
<!-- Node23 -->
<g id="node23" class="node"><title>Node23</title>
<polygon fill="white" stroke="#bfbfbf" points="700.5,-118.5 700.5,-137.5 751.5,-137.5 751.5,-118.5 700.5,-118.5"/>
<text text-anchor="middle" x="726" y="-125.5" font-family="Helvetica,sans-Serif" font-size="10.00">QMutex</text>
</g>
<!-- Node13&#45;&gt;Node23 -->
<g id="edge45" class="edge"><title>Node13&#45;&gt;Node23</title>
<path fill="none" stroke="midnightblue" d="M1208.89,-259.41C1198.38,-255.287 1185.2,-250.673 1173,-248 1084.31,-228.573 840.683,-263.64 766,-212 744.343,-197.025 733.999,-166.991 729.373,-147.456"/>
<polygon fill="midnightblue" stroke="midnightblue" points="732.786,-146.674 727.312,-137.602 725.934,-148.107 732.786,-146.674"/>
</g>
<!-- Node24 -->
<g id="node24" class="node"><title>Node24</title>
<g id="a_node24"><a xlink:href="../../d5/d82/ColorOctomapServer_8h.html" target="_top" xlink:title="ColorOctomapServer.h">
<polygon fill="white" stroke="red" points="1337,-186.5 1337,-205.5 1453,-205.5 1453,-186.5 1337,-186.5"/>
<text text-anchor="middle" x="1395" y="-193.5" font-family="Helvetica,sans-Serif" font-size="10.00">ColorOctomapServer.h</text>
</a>
</g>
</g>
<!-- Node13&#45;&gt;Node24 -->
<g id="edge31" class="edge"><title>Node13&#45;&gt;Node24</title>
<path fill="none" stroke="midnightblue" d="M1249.02,-259.436C1278.06,-247.015 1332.05,-223.923 1365.61,-209.571"/>
<polygon fill="midnightblue" stroke="midnightblue" points="1367.09,-212.745 1374.91,-205.595 1364.33,-206.309 1367.09,-212.745"/>
</g>
<!-- Node27 -->
<g id="node27" class="node"><title>Node27</title>
<polygon fill="white" stroke="#bfbfbf" points="1117.5,-186.5 1117.5,-205.5 1204.5,-205.5 1204.5,-186.5 1117.5,-186.5"/>
<text text-anchor="middle" x="1161" y="-193.5" font-family="Helvetica,sans-Serif" font-size="10.00">Eigen/Geometry</text>
</g>
<!-- Node13&#45;&gt;Node27 -->
<g id="edge36" class="edge"><title>Node13&#45;&gt;Node27</title>
<path fill="none" stroke="midnightblue" d="M1220.66,-259.294C1209.65,-247.796 1190.05,-227.334 1176.33,-213.008"/>
<polygon fill="midnightblue" stroke="midnightblue" points="1178.85,-210.578 1169.41,-205.777 1173.8,-215.42 1178.85,-210.578"/>
</g>
<!-- Node28 -->
<g id="node28" class="node"><title>Node28</title>
<polygon fill="white" stroke="#bfbfbf" points="846.5,-186.5 846.5,-205.5 881.5,-205.5 881.5,-186.5 846.5,-186.5"/>
<text text-anchor="middle" x="864" y="-193.5" font-family="Helvetica,sans-Serif" font-size="10.00">map</text>
</g>
<!-- Node13&#45;&gt;Node28 -->
<g id="edge39" class="edge"><title>Node13&#45;&gt;Node28</title>
<path fill="none" stroke="midnightblue" d="M1208.32,-259.405C1197.89,-255.383 1184.95,-250.86 1173,-248 1050.12,-218.58 1011.05,-251.39 891,-212 889.354,-211.46 887.693,-210.817 886.047,-210.106"/>
<polygon fill="midnightblue" stroke="midnightblue" points="887.502,-206.92 876.999,-205.53 884.343,-213.166 887.502,-206.92"/>
</g>
<!-- Node13&#45;&gt;Node29 -->
<g id="edge40" class="edge"><title>Node13&#45;&gt;Node29</title>
<path fill="none" stroke="midnightblue" d="M1275.03,-267.188C1364.23,-264.67 1566.25,-254.345 1730,-212 1732.98,-211.228 1736.05,-210.256 1739.06,-209.18"/>
<polygon fill="midnightblue" stroke="midnightblue" points="1740.38,-212.424 1748.4,-205.504 1737.81,-205.911 1740.38,-212.424"/>
</g>
<!-- Node30 -->
<g id="node30" class="node"><title>Node30</title>
<polygon fill="white" stroke="#bfbfbf" points="900,-186.5 900,-205.5 950,-205.5 950,-186.5 900,-186.5"/>
<text text-anchor="middle" x="925" y="-193.5" font-family="Helvetica,sans-Serif" font-size="10.00">QString</text>
</g>
<!-- Node13&#45;&gt;Node30 -->
<g id="edge41" class="edge"><title>Node13&#45;&gt;Node30</title>
<path fill="none" stroke="midnightblue" d="M1207.74,-259.407C1197.39,-255.484 1184.69,-251.045 1173,-248 1079.67,-223.686 1051.39,-239.679 959,-212 956.567,-211.271 954.077,-210.411 951.607,-209.479"/>
<polygon fill="midnightblue" stroke="midnightblue" points="952.91,-206.23 942.332,-205.64 950.233,-212.698 952.91,-206.23"/>
</g>
<!-- Node31 -->
<g id="node31" class="node"><title>Node31</title>
<polygon fill="white" stroke="#bfbfbf" points="1973.5,-186.5 1973.5,-205.5 2040.5,-205.5 2040.5,-186.5 1973.5,-186.5"/>
<text text-anchor="middle" x="2007" y="-193.5" font-family="Helvetica,sans-Serif" font-size="10.00">QMatrix4x4</text>
</g>
<!-- Node13&#45;&gt;Node31 -->
<g id="edge42" class="edge"><title>Node13&#45;&gt;Node31</title>
<path fill="none" stroke="midnightblue" d="M1275.4,-266.041C1415.28,-259.887 1831.37,-239.693 1964,-212 1967.98,-211.169 1972.09,-210.067 1976.13,-208.837"/>
<polygon fill="midnightblue" stroke="midnightblue" points="1977.49,-212.072 1985.88,-205.593 1975.28,-205.43 1977.49,-212.072"/>
</g>
<!-- Node32 -->
<g id="node32" class="node"><title>Node32</title>
<polygon fill="white" stroke="#bfbfbf" points="1509,-186.5 1509,-205.5 1549,-205.5 1549,-186.5 1509,-186.5"/>
<text text-anchor="middle" x="1529" y="-193.5" font-family="Helvetica,sans-Serif" font-size="10.00">QList</text>
</g>
<!-- Node13&#45;&gt;Node32 -->
<g id="edge43" class="edge"><title>Node13&#45;&gt;Node32</title>
<path fill="none" stroke="midnightblue" d="M1275.41,-261.236C1329.1,-252.724 1419.76,-236.227 1495,-212 1497.28,-211.266 1499.61,-210.429 1501.94,-209.535"/>
<polygon fill="midnightblue" stroke="midnightblue" points="1503.38,-212.725 1511.27,-205.653 1500.7,-206.261 1503.38,-212.725"/>
</g>
<!-- Node33 -->
<g id="node33" class="node"><title>Node33</title>
<polygon fill="white" stroke="#bfbfbf" points="1605.5,-186.5 1605.5,-205.5 1648.5,-205.5 1648.5,-186.5 1605.5,-186.5"/>
<text text-anchor="middle" x="1627" y="-193.5" font-family="Helvetica,sans-Serif" font-size="10.00">QMap</text>
</g>
<!-- Node13&#45;&gt;Node33 -->
<g id="edge44" class="edge"><title>Node13&#45;&gt;Node33</title>
<path fill="none" stroke="midnightblue" d="M1275.16,-260.822C1338.92,-250.752 1457.46,-231.474 1558,-212 1570.29,-209.62 1583.75,-206.753 1595.49,-204.165"/>
<polygon fill="midnightblue" stroke="midnightblue" points="1596.3,-207.572 1605.3,-201.983 1594.78,-200.739 1596.3,-207.572"/>
</g>
<!-- Node15&#45;&gt;Node3 -->
<g id="edge16" class="edge"><title>Node15&#45;&gt;Node3</title>
<path fill="none" stroke="midnightblue" d="M688.283,-186.45C683.754,-170.471 676.508,-135.567 691,-112 702.276,-93.6632 723.591,-82.5234 742.535,-75.915"/>
<polygon fill="midnightblue" stroke="midnightblue" points="743.688,-79.2211 752.159,-72.8581 741.569,-72.5495 743.688,-79.2211"/>
</g>
<!-- Node15&#45;&gt;Node8 -->
<g id="edge21" class="edge"><title>Node15&#45;&gt;Node8</title>
<path fill="none" stroke="midnightblue" d="M675.835,-186.372C656.296,-175.254 622.102,-155.8 599.013,-142.662"/>
<polygon fill="midnightblue" stroke="midnightblue" points="600.591,-139.534 590.169,-137.63 597.129,-145.618 600.591,-139.534"/>
</g>
<!-- Node15&#45;&gt;Node9 -->
<g id="edge20" class="edge"><title>Node15&#45;&gt;Node9</title>
<path fill="none" stroke="midnightblue" d="M667.789,-192.533C583.767,-183.603 292.936,-152.694 150.235,-137.527"/>
<polygon fill="midnightblue" stroke="midnightblue" points="150.535,-134.04 140.221,-136.463 149.795,-141 150.535,-134.04"/>
</g>
<!-- Node15&#45;&gt;Node11 -->
<g id="edge17" class="edge"><title>Node15&#45;&gt;Node11</title>
<path fill="none" stroke="midnightblue" d="M667.744,-190.05C652.96,-186.978 633.396,-183.048 616,-180 510.191,-161.461 482.59,-163.747 377,-144 370.23,-142.734 363.103,-141.275 356.124,-139.775"/>
<polygon fill="midnightblue" stroke="midnightblue" points="356.584,-136.293 346.066,-137.566 355.082,-143.13 356.584,-136.293"/>
</g>
<!-- Node15&#45;&gt;Node12 -->
<g id="edge18" class="edge"><title>Node15&#45;&gt;Node12</title>
<path fill="none" stroke="midnightblue" d="M671.627,-186.467C666.008,-184.179 659.818,-181.833 654,-180 588.655,-159.408 568.35,-160.537 497.854,-144.15"/>
<polygon fill="midnightblue" stroke="midnightblue" points="498.583,-140.726 488.046,-141.834 496.974,-147.539 498.583,-140.726"/>
</g>
<!-- Node15&#45;&gt;Node16 -->
<g id="edge19" class="edge"><title>Node15&#45;&gt;Node16</title>
<path fill="none" stroke="midnightblue" d="M710.61,-186.372C736.438,-175.007 782.066,-154.931 811.918,-141.796"/>
<polygon fill="midnightblue" stroke="midnightblue" points="813.642,-144.862 821.385,-137.63 810.823,-138.454 813.642,-144.862"/>
</g>
<!-- Node15&#45;&gt;Node17 -->
<g id="edge22" class="edge"><title>Node15&#45;&gt;Node17</title>
<path fill="none" stroke="midnightblue" d="M714.231,-192.244C743.008,-188.916 793.557,-183.348 837,-180 1147.16,-156.096 1226.12,-171.31 1536,-144 1555.32,-142.297 1576.33,-139.869 1595.29,-137.462"/>
<polygon fill="midnightblue" stroke="midnightblue" points="1595.82,-140.922 1605.29,-136.17 1594.92,-133.98 1595.82,-140.922"/>
</g>
<!-- Node15&#45;&gt;Node23 -->
<g id="edge30" class="edge"><title>Node15&#45;&gt;Node23</title>
<path fill="none" stroke="midnightblue" d="M695.576,-186.372C700.891,-176.348 709.802,-159.546 716.61,-146.708"/>
<polygon fill="midnightblue" stroke="midnightblue" points="719.719,-148.316 721.312,-137.841 713.534,-145.036 719.719,-148.316"/>
</g>
<!-- Node17&#45;&gt;Node3 -->
<g id="edge24" class="edge"><title>Node17&#45;&gt;Node3</title>
<path fill="none" stroke="midnightblue" d="M1623.8,-118.421C1613.4,-115.96 1601.78,-113.531 1591,-112 1295.52,-70.0242 934.3,-66.697 817.994,-66.8042"/>
<polygon fill="midnightblue" stroke="midnightblue" points="817.82,-63.3044 807.827,-66.8232 817.833,-70.3044 817.82,-63.3044"/>
</g>
<!-- Node17&#45;&gt;Node18 -->
<g id="edge23" class="edge"><title>Node17&#45;&gt;Node18</title>
<path fill="none" stroke="midnightblue" d="M1620.45,-118.467C1571.19,-106.646 1483.03,-85.4874 1436.57,-74.3375"/>
<polygon fill="midnightblue" stroke="midnightblue" points="1437.32,-70.9183 1426.78,-71.9878 1435.69,-77.725 1437.32,-70.9183"/>
</g>
<!-- Node19 -->
<g id="node19" class="node"><title>Node19</title>
<polygon fill="white" stroke="#bfbfbf" points="1664,-56.5 1664,-75.5 1742,-75.5 1742,-56.5 1664,-56.5"/>
<text text-anchor="middle" x="1703" y="-63.5" font-family="Helvetica,sans-Serif" font-size="10.00">boost/any.hpp</text>
</g>
<!-- Node17&#45;&gt;Node19 -->
<g id="edge25" class="edge"><title>Node17&#45;&gt;Node19</title>
<path fill="none" stroke="midnightblue" d="M1662.73,-118.403C1669.78,-109.403 1681.03,-95.0408 1689.85,-83.7824"/>
<polygon fill="midnightblue" stroke="midnightblue" points="1692.87,-85.6112 1696.28,-75.5806 1687.36,-81.2946 1692.87,-85.6112"/>
</g>
<!-- Node20 -->
<g id="node20" class="node"><title>Node20</title>
<polygon fill="white" stroke="#bfbfbf" points="1760.5,-56.5 1760.5,-75.5 1869.5,-75.5 1869.5,-56.5 1760.5,-56.5"/>
<text text-anchor="middle" x="1815" y="-63.5" font-family="Helvetica,sans-Serif" font-size="10.00">pcl_ros/point_cloud.h</text>
</g>
<!-- Node17&#45;&gt;Node20 -->
<g id="edge26" class="edge"><title>Node17&#45;&gt;Node20</title>
<path fill="none" stroke="midnightblue" d="M1678.78,-118.403C1706.05,-108.111 1751.91,-90.8064 1782.8,-79.1504"/>
<polygon fill="midnightblue" stroke="midnightblue" points="1784.14,-82.3858 1792.26,-75.5806 1781.67,-75.8366 1784.14,-82.3858"/>
</g>
<!-- Node21 -->
<g id="node21" class="node"><title>Node21</title>
<polygon fill="white" stroke="#bfbfbf" points="1529.5,-0.5 1529.5,-19.5 1620.5,-19.5 1620.5,-0.5 1529.5,-0.5"/>
<text text-anchor="middle" x="1575" y="-7.5" font-family="Helvetica,sans-Serif" font-size="10.00">pcl/point_types.h</text>
</g>
<!-- Node17&#45;&gt;Node21 -->
<g id="edge27" class="edge"><title>Node17&#45;&gt;Node21</title>
<path fill="none" stroke="midnightblue" d="M1622.04,-118.452C1600.45,-111.067 1574.16,-98.0089 1561,-76 1552.32,-61.4915 1558.15,-42.31 1564.74,-28.5506"/>
<polygon fill="midnightblue" stroke="midnightblue" points="1567.87,-30.1087 1569.46,-19.6341 1561.69,-26.8296 1567.87,-30.1087"/>
</g>
<!-- Node22 -->
<g id="node22" class="node"><title>Node22</title>
<g id="a_node22"><a xlink:href="../../d1/d45/point__types_8h.html" target="_top" xlink:title="point_types.h">
<polygon fill="white" stroke="black" points="1570.5,-56.5 1570.5,-75.5 1645.5,-75.5 1645.5,-56.5 1570.5,-56.5"/>
<text text-anchor="middle" x="1608" y="-63.5" font-family="Helvetica,sans-Serif" font-size="10.00">point_types.h</text>
</a>
</g>
</g>
<!-- Node17&#45;&gt;Node22 -->
<g id="edge28" class="edge"><title>Node17&#45;&gt;Node22</title>
<path fill="none" stroke="midnightblue" d="M1649.12,-118.403C1641.85,-109.314 1630.2,-94.7559 1621.16,-83.4489"/>
<polygon fill="midnightblue" stroke="midnightblue" points="1623.84,-81.2029 1614.86,-75.5806 1618.38,-85.5757 1623.84,-81.2029"/>
</g>
<!-- Node22&#45;&gt;Node21 -->
<g id="edge29" class="edge"><title>Node22&#45;&gt;Node21</title>
<path fill="none" stroke="midnightblue" d="M1602.55,-56.083C1597.99,-48.6127 1591.33,-37.7244 1585.71,-28.5199"/>
<polygon fill="midnightblue" stroke="midnightblue" points="1588.55,-26.4588 1580.35,-19.7511 1582.58,-30.109 1588.55,-26.4588"/>
</g>
<!-- Node24&#45;&gt;Node17 -->
<g id="edge32" class="edge"><title>Node24&#45;&gt;Node17</title>
<path fill="none" stroke="midnightblue" d="M1428.85,-186.439C1475.79,-174.57 1560.68,-153.103 1612.34,-140.041"/>
<polygon fill="midnightblue" stroke="midnightblue" points="1613.37,-143.39 1622.21,-137.546 1611.65,-136.604 1613.37,-143.39"/>
</g>
<!-- Node24&#45;&gt;Node25 -->
<g id="edge33" class="edge"><title>Node24&#45;&gt;Node25</title>
<path fill="none" stroke="midnightblue" d="M1391.73,-186.372C1388.01,-176.544 1381.82,-160.202 1377,-147.467"/>
<polygon fill="midnightblue" stroke="midnightblue" points="1380.16,-145.953 1373.35,-137.841 1373.62,-148.433 1380.16,-145.953"/>
</g>
<!-- Node26 -->
<g id="node26" class="node"><title>Node26</title>
<g id="a_node26"><a xlink:href="../../de/d31/renderable_8h.html" target="_top" xlink:title="renderable.h">
<polygon fill="white" stroke="black" points="1457,-118.5 1457,-137.5 1527,-137.5 1527,-118.5 1457,-118.5"/>
<text text-anchor="middle" x="1492" y="-125.5" font-family="Helvetica,sans-Serif" font-size="10.00">renderable.h</text>
</a>
</g>
</g>
<!-- Node24&#45;&gt;Node26 -->
<g id="edge34" class="edge"><title>Node24&#45;&gt;Node26</title>
<path fill="none" stroke="midnightblue" d="M1407.68,-186.372C1423.73,-175.452 1451.6,-156.489 1470.88,-143.369"/>
<polygon fill="midnightblue" stroke="midnightblue" points="1473.02,-146.15 1479.32,-137.63 1469.08,-140.362 1473.02,-146.15"/>
</g>
<!-- Node37&#45;&gt;Node3 -->
<g id="edge53" class="edge"><title>Node37&#45;&gt;Node3</title>
<path fill="none" stroke="midnightblue" d="M1681.44,-260.26C1657.67,-251.524 1621,-235.41 1596,-212 1558.16,-176.576 1580.32,-138.866 1536,-112 1474.3,-74.5997 962.583,-68.2523 817.946,-67.2026"/>
<polygon fill="midnightblue" stroke="midnightblue" points="817.814,-63.7017 807.79,-67.1333 817.766,-70.7015 817.814,-63.7017"/>
</g>
<!-- Node37&#45;&gt;Node29 -->
<g id="edge55" class="edge"><title>Node37&#45;&gt;Node29</title>
<path fill="none" stroke="midnightblue" d="M1712.48,-259.294C1722.27,-247.903 1739.61,-227.712 1751.9,-213.408"/>
<polygon fill="midnightblue" stroke="midnightblue" points="1754.6,-215.643 1758.46,-205.777 1749.29,-211.081 1754.6,-215.643"/>
</g>
<!-- Node38 -->
<g id="node38" class="node"><title>Node38</title>
<polygon fill="white" stroke="#bfbfbf" points="1667,-186.5 1667,-205.5 1721,-205.5 1721,-186.5 1667,-186.5"/>
<text text-anchor="middle" x="1694" y="-193.5" font-family="Helvetica,sans-Serif" font-size="10.00">QThread</text>
</g>
<!-- Node37&#45;&gt;Node38 -->
<g id="edge54" class="edge"><title>Node37&#45;&gt;Node38</title>
<path fill="none" stroke="midnightblue" d="M1703.65,-259.294C1701.99,-248.542 1699.1,-229.949 1696.92,-215.867"/>
<polygon fill="midnightblue" stroke="midnightblue" points="1700.35,-215.123 1695.36,-205.777 1693.43,-216.195 1700.35,-215.123"/>
</g>
<!-- Node40&#45;&gt;Node17 -->
<g id="edge61" class="edge"><title>Node40&#45;&gt;Node17</title>
<path fill="none" stroke="midnightblue" d="M2102.19,-259.411C2117.52,-242.303 2147.17,-203.594 2126,-180 2099.13,-150.062 1837.81,-136.069 1716.86,-131.156"/>
<polygon fill="midnightblue" stroke="midnightblue" points="1716.78,-127.65 1706.65,-130.749 1716.5,-134.645 1716.78,-127.65"/>
</g>
<!-- Node40&#45;&gt;Node31 -->
<g id="edge62" class="edge"><title>Node40&#45;&gt;Node31</title>
<path fill="none" stroke="midnightblue" d="M2083.33,-259.294C2068.9,-247.52 2042.96,-226.344 2025.36,-211.986"/>
<polygon fill="midnightblue" stroke="midnightblue" points="2027.44,-209.167 2017.48,-205.555 2023.02,-214.59 2027.44,-209.167"/>
</g>
<!-- Node40&#45;&gt;Node33 -->
<g id="edge63" class="edge"><title>Node40&#45;&gt;Node33</title>
<path fill="none" stroke="midnightblue" d="M2068.39,-262.589C2046.98,-258.205 2015.6,-252.103 1988,-248 1842.07,-226.306 1799.8,-252.725 1658,-212 1655.81,-211.37 1653.58,-210.594 1651.37,-209.73"/>
<polygon fill="midnightblue" stroke="midnightblue" points="1652.6,-206.445 1642.04,-205.554 1649.74,-212.834 1652.6,-206.445"/>
</g>
<!-- Node41 -->
<g id="node41" class="node"><title>Node41</title>
<polygon fill="white" stroke="#bfbfbf" points="2284,-186.5 2284,-205.5 2364,-205.5 2364,-186.5 2284,-186.5"/>
<text text-anchor="middle" x="2324" y="-193.5" font-family="Helvetica,sans-Serif" font-size="10.00">QMainWindow</text>
</g>
<!-- Node40&#45;&gt;Node41 -->
<g id="edge59" class="edge"><title>Node40&#45;&gt;Node41</title>
<path fill="none" stroke="midnightblue" d="M2119.94,-259.993C2160.65,-247.425 2239.75,-223.009 2286.61,-208.543"/>
<polygon fill="midnightblue" stroke="midnightblue" points="2287.85,-211.822 2296.37,-205.528 2285.79,-205.133 2287.85,-211.822"/>
</g>
<!-- Node42 -->
<g id="node42" class="node"><title>Node42</title>
<polygon fill="white" stroke="#bfbfbf" points="2194.5,-186.5 2194.5,-205.5 2265.5,-205.5 2265.5,-186.5 2194.5,-186.5"/>
<text text-anchor="middle" x="2230" y="-193.5" font-family="Helvetica,sans-Serif" font-size="10.00">QGridLayout</text>
</g>
<!-- Node40&#45;&gt;Node42 -->
<g id="edge60" class="edge"><title>Node40&#45;&gt;Node42</title>
<path fill="none" stroke="midnightblue" d="M2110.4,-259.436C2133.79,-247.229 2176.92,-224.713 2204.49,-210.318"/>
<polygon fill="midnightblue" stroke="midnightblue" points="2206.29,-213.325 2213.54,-205.595 2203.05,-207.12 2206.29,-213.325"/>
</g>
<!-- Node43&#45;&gt;Node17 -->
<g id="edge69" class="edge"><title>Node43&#45;&gt;Node17</title>
<path fill="none" stroke="midnightblue" d="M1979.64,-263.047C2036.44,-252.644 2148.78,-225.642 2108,-180 2082.4,-151.347 1834.47,-136.784 1717.07,-131.448"/>
<polygon fill="midnightblue" stroke="midnightblue" points="1716.95,-127.939 1706.8,-130.99 1716.64,-134.932 1716.95,-127.939"/>
</g>
<!-- Node43&#45;&gt;Node26 -->
<g id="edge70" class="edge"><title>Node43&#45;&gt;Node26</title>
<path fill="none" stroke="midnightblue" d="M1937.86,-259.35C1914.14,-241.42 1856.32,-200.194 1801,-180 1776.65,-171.112 1617.13,-147.168 1537.32,-135.529"/>
<polygon fill="midnightblue" stroke="midnightblue" points="1537.47,-132.014 1527.07,-134.038 1536.46,-138.942 1537.47,-132.014"/>
</g>
<!-- Node43&#45;&gt;Node31 -->
<g id="edge68" class="edge"><title>Node43&#45;&gt;Node31</title>
<path fill="none" stroke="midnightblue" d="M1956.11,-259.294C1965.33,-248.009 1981.6,-228.089 1993.27,-213.811"/>
<polygon fill="midnightblue" stroke="midnightblue" points="1996.21,-215.736 1999.83,-205.777 1990.79,-211.307 1996.21,-215.736"/>
</g>
<!-- Node43&#45;&gt;Node32 -->
<g id="edge66" class="edge"><title>Node43&#45;&gt;Node32</title>
<path fill="none" stroke="midnightblue" d="M1918.2,-263.779C1856.72,-255.208 1714.55,-234.65 1596,-212 1583.9,-209.688 1570.65,-206.798 1559.15,-204.173"/>
<polygon fill="midnightblue" stroke="midnightblue" points="1559.69,-200.707 1549.16,-201.861 1558.11,-207.526 1559.69,-200.707"/>
</g>
<!-- Node44 -->
<g id="node44" class="node"><title>Node44</title>
<polygon fill="white" stroke="#bfbfbf" points="1887,-186.5 1887,-205.5 1955,-205.5 1955,-186.5 1887,-186.5"/>
<text text-anchor="middle" x="1921" y="-193.5" font-family="Helvetica,sans-Serif" font-size="10.00">QGLWidget</text>
</g>
<!-- Node43&#45;&gt;Node44 -->
<g id="edge65" class="edge"><title>Node43&#45;&gt;Node44</title>
<path fill="none" stroke="midnightblue" d="M1945.57,-259.294C1941.28,-248.435 1933.85,-229.58 1928.28,-215.45"/>
<polygon fill="midnightblue" stroke="midnightblue" points="1931.39,-213.796 1924.46,-205.777 1924.87,-216.364 1931.39,-213.796"/>
</g>
<!-- Node45 -->
<g id="node45" class="node"><title>Node45</title>
<polygon fill="white" stroke="#bfbfbf" points="2058.5,-186.5 2058.5,-205.5 2099.5,-205.5 2099.5,-186.5 2058.5,-186.5"/>
<text text-anchor="middle" x="2079" y="-193.5" font-family="Helvetica,sans-Serif" font-size="10.00">QPair</text>
</g>
<!-- Node43&#45;&gt;Node45 -->
<g id="edge67" class="edge"><title>Node43&#45;&gt;Node45</title>
<path fill="none" stroke="midnightblue" d="M1964.68,-259.436C1986.93,-247.282 2027.9,-224.909 2054.27,-210.507"/>
<polygon fill="midnightblue" stroke="midnightblue" points="2056.16,-213.46 2063.26,-205.595 2052.81,-207.316 2056.16,-213.46"/>
</g>
<!-- Node46&#45;&gt;Node17 -->
<g id="edge76" class="edge"><title>Node46&#45;&gt;Node17</title>
<path fill="none" stroke="midnightblue" d="M2393.14,-259.347C2394.97,-241.412 2396.26,-200.177 2373,-180 2324,-137.489 1881.56,-130.39 1717.15,-129.223"/>
<polygon fill="midnightblue" stroke="midnightblue" points="1716.76,-125.72 1706.73,-129.154 1716.71,-132.72 1716.76,-125.72"/>
</g>
<!-- Node46&#45;&gt;Node29 -->
<g id="edge77" class="edge"><title>Node46&#45;&gt;Node29</title>
<path fill="none" stroke="midnightblue" d="M2347.95,-263.57C2259.04,-254.547 2051.76,-233.098 1878,-212 1852.9,-208.952 1824.68,-205.17 1802.84,-202.166"/>
<polygon fill="midnightblue" stroke="midnightblue" points="1803.06,-198.664 1792.68,-200.761 1802.11,-205.598 1803.06,-198.664"/>
</g>
<!-- Node46&#45;&gt;Node41 -->
<g id="edge74" class="edge"><title>Node46&#45;&gt;Node41</title>
<path fill="none" stroke="midnightblue" d="M2383.66,-259.294C2372.65,-247.796 2353.05,-227.334 2339.33,-213.008"/>
<polygon fill="midnightblue" stroke="midnightblue" points="2341.85,-210.578 2332.41,-205.777 2336.8,-215.42 2341.85,-210.578"/>
</g>
<!-- Node46&#45;&gt;Node42 -->
<g id="edge75" class="edge"><title>Node46&#45;&gt;Node42</title>
<path fill="none" stroke="midnightblue" d="M2372.46,-259.436C2344.24,-247.069 2291.88,-224.121 2259.11,-209.756"/>
<polygon fill="midnightblue" stroke="midnightblue" points="2260.17,-206.403 2249.61,-205.595 2257.36,-212.814 2260.17,-206.403"/>
</g>
<!-- Node47 -->
<g id="node47" class="node"><title>Node47</title>
<polygon fill="white" stroke="#bfbfbf" points="2828.5,-186.5 2828.5,-205.5 2967.5,-205.5 2967.5,-186.5 2828.5,-186.5"/>
<text text-anchor="middle" x="2898" y="-193.5" font-family="Helvetica,sans-Serif" font-size="10.00">rgbdslam/rgbdslam_ros_ui.h</text>
</g>
<!-- Node46&#45;&gt;Node47 -->
<g id="edge78" class="edge"><title>Node46&#45;&gt;Node47</title>
<path fill="none" stroke="midnightblue" d="M2436.07,-263.063C2513.67,-254.184 2679.66,-234.347 2819,-212 2827.61,-210.619 2836.73,-209.018 2845.59,-207.387"/>
<polygon fill="midnightblue" stroke="midnightblue" points="2846.25,-210.824 2855.44,-205.544 2844.97,-203.943 2846.25,-210.824"/>
</g>
<!-- Node48 -->
<g id="node48" class="node"><title>Node48</title>
<polygon fill="white" stroke="#bfbfbf" points="2420,-181 2420,-211 2538,-211 2538,-181 2420,-181"/>
<text text-anchor="start" x="2428" y="-199" font-family="Helvetica,sans-Serif" font-size="10.00">rgbdslam/rgbdslam_ros</text>
<text text-anchor="middle" x="2479" y="-188" font-family="Helvetica,sans-Serif" font-size="10.00">_ui_b.h</text>
</g>
<!-- Node46&#45;&gt;Node48 -->
<g id="edge79" class="edge"><title>Node46&#45;&gt;Node48</title>
<path fill="none" stroke="midnightblue" d="M2402.67,-259.294C2415.3,-248.984 2436.77,-231.464 2453.73,-217.626"/>
<polygon fill="midnightblue" stroke="midnightblue" points="2456.09,-220.21 2461.63,-211.176 2451.67,-214.787 2456.09,-220.21"/>
</g>
<!-- Node49 -->
<g id="node49" class="node"><title>Node49</title>
<polygon fill="white" stroke="#bfbfbf" points="2556,-181 2556,-211 2674,-211 2674,-181 2556,-181"/>
<text text-anchor="start" x="2564" y="-199" font-family="Helvetica,sans-Serif" font-size="10.00">rgbdslam/rgbdslam_ros</text>
<text text-anchor="middle" x="2615" y="-188" font-family="Helvetica,sans-Serif" font-size="10.00">_ui_f.h</text>
</g>
<!-- Node46&#45;&gt;Node49 -->
<g id="edge80" class="edge"><title>Node46&#45;&gt;Node49</title>
<path fill="none" stroke="midnightblue" d="M2418.9,-259.436C2453.97,-248.268 2516.15,-228.474 2561.1,-214.162"/>
<polygon fill="midnightblue" stroke="midnightblue" points="2562.23,-217.474 2570.7,-211.105 2560.11,-210.804 2562.23,-217.474"/>
</g>
<!-- Node50 -->
<g id="node50" class="node"><title>Node50</title>
<polygon fill="white" stroke="#bfbfbf" points="2692,-181 2692,-211 2810,-211 2810,-181 2692,-181"/>
<text text-anchor="start" x="2700" y="-199" font-family="Helvetica,sans-Serif" font-size="10.00">rgbdslam/rgbdslam_ros</text>
<text text-anchor="middle" x="2751" y="-188" font-family="Helvetica,sans-Serif" font-size="10.00">_ui_s.h</text>
</g>
<!-- Node46&#45;&gt;Node50 -->
<g id="edge81" class="edge"><title>Node46&#45;&gt;Node50</title>
<path fill="none" stroke="midnightblue" d="M2436.44,-259.833C2491.63,-249.606 2588.9,-231.303 2681.83,-212.213"/>
<polygon fill="midnightblue" stroke="midnightblue" points="2682.59,-215.63 2691.68,-210.184 2681.18,-208.774 2682.59,-215.63"/>
</g>
</g>
</svg>
