<?xml version="1.0" encoding="UTF-8" standalone="no"?>
<!DOCTYPE svg PUBLIC "-//W3C//DTD SVG 1.1//EN"
 "http://www.w3.org/Graphics/SVG/1.1/DTD/svg11.dtd">
<!-- Generated by graphviz version 2.36.0 (20140111.2315)
 -->
<!-- Title: SiftPyramid::RunSIFT Pages: 1 -->
<svg width="626pt" height="104pt"
 viewBox="0.00 0.00 626.00 104.00" xmlns="http://www.w3.org/2000/svg" xmlns:xlink="http://www.w3.org/1999/xlink">
<g id="graph0" class="graph" transform="scale(1 1) rotate(0) translate(4 100)">
<title>SiftPyramid::RunSIFT</title>
<polygon fill="white" stroke="none" points="-4,4 -4,-100 622,-100 622,4 -4,4"/>
<!-- Node1 -->
<g id="node1" class="node"><title>Node1</title>
<polygon fill="#bfbfbf" stroke="black" points="0.5,-38.5 0.5,-57.5 113.5,-57.5 113.5,-38.5 0.5,-38.5"/>
<text text-anchor="middle" x="57" y="-45.5" font-family="Helvetica,sans-Serif" font-size="10.00">SiftPyramid::RunSIFT</text>
</g>
<!-- Node2 -->
<g id="node2" class="node"><title>Node2</title>
<g id="a_node2"><a xlink:href="../../d2/d55/classGlobalUtil.html#aaa5ebd526dfe13eb5eb61fee67c75a10" target="_top" xlink:title="GlobalUtil::StartTimer">
<polygon fill="white" stroke="black" points="150.5,-76.5 150.5,-95.5 261.5,-95.5 261.5,-76.5 150.5,-76.5"/>
<text text-anchor="middle" x="206" y="-83.5" font-family="Helvetica,sans-Serif" font-size="10.00">GlobalUtil::StartTimer</text>
</a>
</g>
</g>
<!-- Node1&#45;&gt;Node2 -->
<g id="edge1" class="edge"><title>Node1&#45;&gt;Node2</title>
<path fill="none" stroke="midnightblue" d="M95.0943,-57.589C114.318,-62.5583 137.986,-68.6767 158.429,-73.9613"/>
<polygon fill="midnightblue" stroke="midnightblue" points="157.615,-77.3657 168.172,-76.4799 159.367,-70.5885 157.615,-77.3657"/>
</g>
<!-- Node5 -->
<g id="node5" class="node"><title>Node5</title>
<g id="a_node5"><a xlink:href="../../d2/d55/classGlobalUtil.html#a6b0bb7a6fc3b0dcfcf22a3a00bb05a65" target="_top" xlink:title="GlobalUtil::StopTimer">
<polygon fill="white" stroke="black" points="151,-38.5 151,-57.5 261,-57.5 261,-38.5 151,-38.5"/>
<text text-anchor="middle" x="206" y="-45.5" font-family="Helvetica,sans-Serif" font-size="10.00">GlobalUtil::StopTimer</text>
</a>
</g>
</g>
<!-- Node1&#45;&gt;Node5 -->
<g id="edge4" class="edge"><title>Node1&#45;&gt;Node5</title>
<path fill="none" stroke="midnightblue" d="M113.574,-48C122.435,-48 131.666,-48 140.709,-48"/>
<polygon fill="midnightblue" stroke="midnightblue" points="140.807,-51.5001 150.807,-48 140.807,-44.5001 140.807,-51.5001"/>
</g>
<!-- Node8 -->
<g id="node8" class="node"><title>Node8</title>
<g id="a_node8"><a xlink:href="../../d2/d55/classGlobalUtil.html#a4d0d910aba3a7cffc91c07ee8377f012" target="_top" xlink:title="GlobalUtil::GetElapsedTime">
<polygon fill="white" stroke="black" points="298,-0.5 298,-19.5 436,-19.5 436,-0.5 298,-0.5"/>
<text text-anchor="middle" x="367" y="-7.5" font-family="Helvetica,sans-Serif" font-size="10.00">GlobalUtil::GetElapsedTime</text>
</a>
</g>
</g>
<!-- Node1&#45;&gt;Node8 -->
<g id="edge8" class="edge"><title>Node1&#45;&gt;Node8</title>
<path fill="none" stroke="midnightblue" d="M99.037,-38.4639C114.888,-35.06 133.218,-31.4625 150,-29 195.324,-22.3493 246.364,-17.7283 287.445,-14.7101"/>
<polygon fill="midnightblue" stroke="midnightblue" points="287.942,-18.1835 297.666,-13.977 287.441,-11.2015 287.942,-18.1835"/>
</g>
<!-- Node3 -->
<g id="node3" class="node"><title>Node3</title>
<g id="a_node3"><a xlink:href="../../d9/d98/classClockTimer.html#a21afd83f68d30c08892743115f6ea9cd" target="_top" xlink:title="ClockTimer::StartTimer">
<polygon fill="white" stroke="black" points="307.5,-76.5 307.5,-95.5 426.5,-95.5 426.5,-76.5 307.5,-76.5"/>
<text text-anchor="middle" x="367" y="-83.5" font-family="Helvetica,sans-Serif" font-size="10.00">ClockTimer::StartTimer</text>
</a>
</g>
</g>
<!-- Node2&#45;&gt;Node3 -->
<g id="edge2" class="edge"><title>Node2&#45;&gt;Node3</title>
<path fill="none" stroke="midnightblue" d="M261.719,-86C273.113,-86 285.262,-86 297.093,-86"/>
<polygon fill="midnightblue" stroke="midnightblue" points="297.38,-89.5001 307.38,-86 297.38,-82.5001 297.38,-89.5001"/>
</g>
<!-- Node4 -->
<g id="node4" class="node"><title>Node4</title>
<g id="a_node4"><a xlink:href="../../d9/d98/classClockTimer.html#a23cf363d1025bb1a93951d9ccdabc639" target="_top" xlink:title="ClockTimer::ClockMS">
<polygon fill="white" stroke="black" points="488.5,-57.5 488.5,-76.5 601.5,-76.5 601.5,-57.5 488.5,-57.5"/>
<text text-anchor="middle" x="545" y="-64.5" font-family="Helvetica,sans-Serif" font-size="10.00">ClockTimer::ClockMS</text>
</a>
</g>
</g>
<!-- Node3&#45;&gt;Node4 -->
<g id="edge3" class="edge"><title>Node3&#45;&gt;Node4</title>
<path fill="none" stroke="midnightblue" d="M426.605,-79.6733C443.085,-77.8943 461.118,-75.9475 477.997,-74.1253"/>
<polygon fill="midnightblue" stroke="midnightblue" points="478.767,-77.5627 488.333,-73.0095 478.015,-70.6031 478.767,-77.5627"/>
</g>
<!-- Node6 -->
<g id="node6" class="node"><title>Node6</title>
<g id="a_node6"><a xlink:href="../../d9/d98/classClockTimer.html#a7506d8fad1473bf4f3bdfb9e8590a6c3" target="_top" xlink:title="ClockTimer::StopTimer">
<polygon fill="white" stroke="black" points="308,-38.5 308,-57.5 426,-57.5 426,-38.5 308,-38.5"/>
<text text-anchor="middle" x="367" y="-45.5" font-family="Helvetica,sans-Serif" font-size="10.00">ClockTimer::StopTimer</text>
</a>
</g>
</g>
<!-- Node5&#45;&gt;Node6 -->
<g id="edge5" class="edge"><title>Node5&#45;&gt;Node6</title>
<path fill="none" stroke="midnightblue" d="M261.274,-48C273.011,-48 285.567,-48 297.762,-48"/>
<polygon fill="midnightblue" stroke="midnightblue" points="297.895,-51.5001 307.895,-48 297.895,-44.5001 297.895,-51.5001"/>
</g>
<!-- Node6&#45;&gt;Node4 -->
<g id="edge6" class="edge"><title>Node6&#45;&gt;Node4</title>
<path fill="none" stroke="midnightblue" d="M426.117,-54.274C442.7,-56.0642 460.89,-58.0279 477.912,-59.8655"/>
<polygon fill="midnightblue" stroke="midnightblue" points="478.017,-63.3971 488.335,-60.9907 478.769,-56.4376 478.017,-63.3971"/>
</g>
<!-- Node7 -->
<g id="node7" class="node"><title>Node7</title>
<g id="a_node7"><a xlink:href="../../d9/d98/classClockTimer.html#a5a6919057a81f4843619032cab692091" target="_top" xlink:title="ClockTimer::GetElapsedTime">
<polygon fill="white" stroke="black" points="472,-19.5 472,-38.5 618,-38.5 618,-19.5 472,-19.5"/>
<text text-anchor="middle" x="545" y="-26.5" font-family="Helvetica,sans-Serif" font-size="10.00">ClockTimer::GetElapsedTime</text>
</a>
</g>
</g>
<!-- Node6&#45;&gt;Node7 -->
<g id="edge7" class="edge"><title>Node6&#45;&gt;Node7</title>
<path fill="none" stroke="midnightblue" d="M426.117,-41.726C437.537,-40.4931 449.72,-39.1779 461.759,-37.8783"/>
<polygon fill="midnightblue" stroke="midnightblue" points="462.25,-41.3457 471.817,-36.7925 461.499,-34.3861 462.25,-41.3457"/>
</g>
<!-- Node8&#45;&gt;Node7 -->
<g id="edge9" class="edge"><title>Node8&#45;&gt;Node7</title>
<path fill="none" stroke="midnightblue" d="M436.046,-17.3459C444.459,-18.2541 453.128,-19.19 461.724,-20.118"/>
<polygon fill="midnightblue" stroke="midnightblue" points="461.444,-23.608 471.762,-21.2016 462.196,-16.6484 461.444,-23.608"/>
</g>
</g>
</svg>
