<?xml version="1.0" encoding="UTF-8" standalone="no"?>
<!DOCTYPE svg PUBLIC "-//W3C//DTD SVG 1.1//EN"
 "http://www.w3.org/Graphics/SVG/1.1/DTD/svg11.dtd">
<!-- Generated by graphviz version 2.36.0 (20140111.2315)
 -->
<!-- Title: ANNkd_tree::annkSearch Pages: 1 -->
<svg width="384pt" height="180pt"
 viewBox="0.00 0.00 384.00 180.00" xmlns="http://www.w3.org/2000/svg" xmlns:xlink="http://www.w3.org/1999/xlink">
<g id="graph0" class="graph" transform="scale(1 1) rotate(0) translate(4 176)">
<title>ANNkd_tree::annkSearch</title>
<polygon fill="white" stroke="none" points="-4,4 -4,-176 380,-176 380,4 -4,4"/>
<!-- Node1 -->
<g id="node1" class="node"><title>Node1</title>
<polygon fill="#bfbfbf" stroke="black" points="0,-76.5 0,-95.5 128,-95.5 128,-76.5 0,-76.5"/>
<text text-anchor="middle" x="64" y="-83.5" font-family="Helvetica,sans-Serif" font-size="10.00">ANNkd_tree::annkSearch</text>
</g>
<!-- Node2 -->
<g id="node2" class="node"><title>Node2</title>
<g id="a_node2"><a xlink:href="../../d5/d32/ANNx_8h.html#a9c45d5ab29fad7c514d22008daf15534" target="_top" xlink:title="annError">
<polygon fill="white" stroke="black" points="209.5,-152.5 209.5,-171.5 262.5,-171.5 262.5,-152.5 209.5,-152.5"/>
<text text-anchor="middle" x="236" y="-159.5" font-family="Helvetica,sans-Serif" font-size="10.00">annError</text>
</a>
</g>
</g>
<!-- Node1&#45;&gt;Node2 -->
<g id="edge1" class="edge"><title>Node1&#45;&gt;Node2</title>
<path fill="none" stroke="midnightblue" d="M78.8281,-95.5264C97.4395,-107.974 131.925,-129.742 164,-143 175.31,-147.675 188.11,-151.513 199.697,-154.486"/>
<polygon fill="midnightblue" stroke="midnightblue" points="198.955,-157.908 209.5,-156.876 200.613,-151.107 198.955,-157.908"/>
</g>
<!-- Node4 -->
<g id="node4" class="node"><title>Node4</title>
<g id="a_node4"><a xlink:href="../../dc/d39/classANNkd__node.html#a54c5e89ee9037207e715d66b5554b47a" target="_top" xlink:title="ANNkd_node::ann_search">
<polygon fill="white" stroke="black" points="170.5,-114.5 170.5,-133.5 301.5,-133.5 301.5,-114.5 170.5,-114.5"/>
<text text-anchor="middle" x="236" y="-121.5" font-family="Helvetica,sans-Serif" font-size="10.00">ANNkd_node::ann_search</text>
</a>
</g>
</g>
<!-- Node1&#45;&gt;Node4 -->
<g id="edge3" class="edge"><title>Node1&#45;&gt;Node4</title>
<path fill="none" stroke="midnightblue" d="M107.898,-95.589C130.534,-100.649 158.498,-106.9 182.429,-112.249"/>
<polygon fill="midnightblue" stroke="midnightblue" points="181.888,-115.714 192.41,-114.48 183.415,-108.883 181.888,-115.714"/>
</g>
<!-- Node5 -->
<g id="node5" class="node"><title>Node5</title>
<g id="a_node5"><a xlink:href="../../d9/d87/kd__util_8cpp.html#a38361018b8237d050c438634bdd7378e" target="_top" xlink:title="annBoxDistance">
<polygon fill="white" stroke="black" points="191.5,-76.5 191.5,-95.5 280.5,-95.5 280.5,-76.5 191.5,-76.5"/>
<text text-anchor="middle" x="236" y="-83.5" font-family="Helvetica,sans-Serif" font-size="10.00">annBoxDistance</text>
</a>
</g>
</g>
<!-- Node1&#45;&gt;Node5 -->
<g id="edge4" class="edge"><title>Node1&#45;&gt;Node5</title>
<path fill="none" stroke="midnightblue" d="M128.302,-86C145.657,-86 164.305,-86 181.081,-86"/>
<polygon fill="midnightblue" stroke="midnightblue" points="181.255,-89.5001 191.255,-86 181.255,-82.5001 181.255,-89.5001"/>
</g>
<!-- Node6 -->
<g id="node6" class="node"><title>Node6</title>
<g id="a_node6"><a xlink:href="../../df/d1b/classANNmin__k.html#afef9c9c95a7563b33d1c98bbcf359700" target="_top" xlink:title="ANNmin_k::ith_smallest_key">
<polygon fill="white" stroke="black" points="164,-38.5 164,-57.5 308,-57.5 308,-38.5 164,-38.5"/>
<text text-anchor="middle" x="236" y="-45.5" font-family="Helvetica,sans-Serif" font-size="10.00">ANNmin_k::ith_smallest_key</text>
</a>
</g>
</g>
<!-- Node1&#45;&gt;Node6 -->
<g id="edge5" class="edge"><title>Node1&#45;&gt;Node6</title>
<path fill="none" stroke="midnightblue" d="M107.898,-76.411C130.534,-71.3513 158.498,-65.1004 182.429,-59.7512"/>
<polygon fill="midnightblue" stroke="midnightblue" points="183.415,-63.1173 192.41,-57.5201 181.888,-56.2859 183.415,-63.1173"/>
</g>
<!-- Node7 -->
<g id="node7" class="node"><title>Node7</title>
<g id="a_node7"><a xlink:href="../../df/d1b/classANNmin__k.html#a5afb7172ba783e16ff52a31b78000890" target="_top" xlink:title="ANNmin_k::ith_smallest_info">
<polygon fill="white" stroke="black" points="164,-0.5 164,-19.5 308,-19.5 308,-0.5 164,-0.5"/>
<text text-anchor="middle" x="236" y="-7.5" font-family="Helvetica,sans-Serif" font-size="10.00">ANNmin_k::ith_smallest_info</text>
</a>
</g>
</g>
<!-- Node1&#45;&gt;Node7 -->
<g id="edge6" class="edge"><title>Node1&#45;&gt;Node7</title>
<path fill="none" stroke="midnightblue" d="M78.8281,-76.4736C97.4395,-64.0257 131.925,-42.2576 164,-29 169.804,-26.601 176.001,-24.4222 182.225,-22.4675"/>
<polygon fill="midnightblue" stroke="midnightblue" points="183.38,-25.7757 191.975,-19.5809 181.393,-19.0637 183.38,-25.7757"/>
</g>
<!-- Node3 -->
<g id="node3" class="node"><title>Node3</title>
<g id="a_node3"><a xlink:href="../../d9/db8/glut_8h.html#a6f255d924f7a6bb2c4be0c8c2f2d9ce3" target="_top" xlink:title="exit">
<polygon fill="white" stroke="black" points="344,-152.5 344,-171.5 376,-171.5 376,-152.5 344,-152.5"/>
<text text-anchor="middle" x="360" y="-159.5" font-family="Helvetica,sans-Serif" font-size="10.00">exit</text>
</a>
</g>
</g>
<!-- Node2&#45;&gt;Node3 -->
<g id="edge2" class="edge"><title>Node2&#45;&gt;Node3</title>
<path fill="none" stroke="midnightblue" d="M262.575,-162C283.519,-162 312.99,-162 333.824,-162"/>
<polygon fill="midnightblue" stroke="midnightblue" points="333.841,-165.5 343.841,-162 333.841,-158.5 333.841,-165.5"/>
</g>
</g>
</svg>
