<?xml version="1.0" encoding="UTF-8" standalone="no"?>
<!DOCTYPE svg PUBLIC "-//W3C//DTD SVG 1.1//EN"
 "http://www.w3.org/Graphics/SVG/1.1/DTD/svg11.dtd">
<!-- Generated by graphviz version 2.36.0 (20140111.2315)
 -->
<!-- Title: ANNkd_tree::getStats Pages: 1 -->
<svg width="276pt" height="66pt"
 viewBox="0.00 0.00 276.00 66.00" xmlns="http://www.w3.org/2000/svg" xmlns:xlink="http://www.w3.org/1999/xlink">
<g id="graph0" class="graph" transform="scale(1 1) rotate(0) translate(4 62)">
<title>ANNkd_tree::getStats</title>
<polygon fill="white" stroke="none" points="-4,4 -4,-62 272,-62 272,4 -4,4"/>
<!-- Node1 -->
<g id="node1" class="node"><title>Node1</title>
<polygon fill="#bfbfbf" stroke="black" points="0.5,-19.5 0.5,-38.5 113.5,-38.5 113.5,-19.5 0.5,-19.5"/>
<text text-anchor="middle" x="57" y="-26.5" font-family="Helvetica,sans-Serif" font-size="10.00">ANNkd_tree::getStats</text>
</g>
<!-- Node2 -->
<g id="node2" class="node"><title>Node2</title>
<g id="a_node2"><a xlink:href="../../d4/d61/classANNkdStats.html#a7ebff910ff7fa893e8528989b0091b11" target="_top" xlink:title="ANNkdStats::reset">
<polygon fill="white" stroke="black" points="159,-38.5 159,-57.5 259,-57.5 259,-38.5 159,-38.5"/>
<text text-anchor="middle" x="209" y="-45.5" font-family="Helvetica,sans-Serif" font-size="10.00">ANNkdStats::reset</text>
</a>
</g>
</g>
<!-- Node1&#45;&gt;Node2 -->
<g id="edge1" class="edge"><title>Node1&#45;&gt;Node2</title>
<path fill="none" stroke="midnightblue" d="M113.854,-36.0749C125.078,-37.4966 136.916,-38.996 148.266,-40.4336"/>
<polygon fill="midnightblue" stroke="midnightblue" points="148.16,-43.9482 158.521,-41.7326 149.04,-37.0037 148.16,-43.9482"/>
</g>
<!-- Node3 -->
<g id="node3" class="node"><title>Node3</title>
<g id="a_node3"><a xlink:href="../../dc/d39/classANNkd__node.html#a8e18026bd3a10d3b2fed0f8dbbfd1bcf" target="_top" xlink:title="ANNkd_node::getStats">
<polygon fill="white" stroke="black" points="150,-0.5 150,-19.5 268,-19.5 268,-0.5 150,-0.5"/>
<text text-anchor="middle" x="209" y="-7.5" font-family="Helvetica,sans-Serif" font-size="10.00">ANNkd_node::getStats</text>
</a>
</g>
</g>
<!-- Node1&#45;&gt;Node3 -->
<g id="edge2" class="edge"><title>Node1&#45;&gt;Node3</title>
<path fill="none" stroke="midnightblue" d="M113.854,-21.9251C122.296,-20.8559 131.084,-19.7427 139.751,-18.6449"/>
<polygon fill="midnightblue" stroke="midnightblue" points="140.361,-22.0957 149.842,-17.3667 139.481,-15.1512 140.361,-22.0957"/>
</g>
</g>
</svg>
