<?xml version="1.0" encoding="UTF-8" standalone="no"?>
<!DOCTYPE svg PUBLIC "-//W3C//DTD SVG 1.1//EN"
 "http://www.w3.org/Graphics/SVG/1.1/DTD/svg11.dtd">
<!-- Generated by graphviz version 2.36.0 (20140111.2315)
 -->
<!-- Title: ANNkd_tree::annkFRSearch Pages: 1 -->
<svg width="330pt" height="153pt"
 viewBox="0.00 0.00 330.00 153.00" xmlns="http://www.w3.org/2000/svg" xmlns:xlink="http://www.w3.org/1999/xlink">
<g id="graph0" class="graph" transform="scale(1 1) rotate(0) translate(4 149)">
<title>ANNkd_tree::annkFRSearch</title>
<polygon fill="white" stroke="none" points="-4,4 -4,-149 326,-149 326,4 -4,4"/>
<!-- Node1 -->
<g id="node1" class="node"><title>Node1</title>
<polygon fill="#bfbfbf" stroke="black" points="0,-57.5 0,-76.5 142,-76.5 142,-57.5 0,-57.5"/>
<text text-anchor="middle" x="71" y="-64.5" font-family="Helvetica,sans-Serif" font-size="10.00">ANNkd_tree::annkFRSearch</text>
</g>
<!-- Node2 -->
<g id="node2" class="node"><title>Node2</title>
<g id="a_node2"><a xlink:href="../../dc/d39/classANNkd__node.html#a11fe71e8339a86a149ab556586777f86" target="_top" xlink:title="ANNkd_node::ann_FR\l_search">
<polygon fill="white" stroke="black" points="192,-115 192,-145 308,-145 308,-115 192,-115"/>
<text text-anchor="start" x="200" y="-133" font-family="Helvetica,sans-Serif" font-size="10.00">ANNkd_node::ann_FR</text>
<text text-anchor="middle" x="250" y="-122" font-family="Helvetica,sans-Serif" font-size="10.00">_search</text>
</a>
</g>
</g>
<!-- Node1&#45;&gt;Node2 -->
<g id="edge1" class="edge"><title>Node1&#45;&gt;Node2</title>
<path fill="none" stroke="midnightblue" d="M98.5582,-76.5679C119.989,-84.2772 150.921,-95.3787 178,-105 183.98,-107.125 190.246,-109.343 196.475,-111.543"/>
<polygon fill="midnightblue" stroke="midnightblue" points="195.59,-114.942 206.185,-114.968 197.919,-108.341 195.59,-114.942"/>
</g>
<!-- Node3 -->
<g id="node3" class="node"><title>Node3</title>
<g id="a_node3"><a xlink:href="../../d9/d87/kd__util_8cpp.html#a38361018b8237d050c438634bdd7378e" target="_top" xlink:title="annBoxDistance">
<polygon fill="white" stroke="black" points="205.5,-76.5 205.5,-95.5 294.5,-95.5 294.5,-76.5 205.5,-76.5"/>
<text text-anchor="middle" x="250" y="-83.5" font-family="Helvetica,sans-Serif" font-size="10.00">annBoxDistance</text>
</a>
</g>
</g>
<!-- Node1&#45;&gt;Node3 -->
<g id="edge2" class="edge"><title>Node1&#45;&gt;Node3</title>
<path fill="none" stroke="midnightblue" d="M142.209,-74.5366C159.874,-76.4328 178.555,-78.4381 195.268,-80.2322"/>
<polygon fill="midnightblue" stroke="midnightblue" points="195.078,-83.7317 205.394,-81.3191 195.825,-76.7717 195.078,-83.7317"/>
</g>
<!-- Node4 -->
<g id="node4" class="node"><title>Node4</title>
<g id="a_node4"><a xlink:href="../../df/d1b/classANNmin__k.html#afef9c9c95a7563b33d1c98bbcf359700" target="_top" xlink:title="ANNmin_k::ith_smallest_key">
<polygon fill="white" stroke="black" points="178,-38.5 178,-57.5 322,-57.5 322,-38.5 178,-38.5"/>
<text text-anchor="middle" x="250" y="-45.5" font-family="Helvetica,sans-Serif" font-size="10.00">ANNmin_k::ith_smallest_key</text>
</a>
</g>
</g>
<!-- Node1&#45;&gt;Node4 -->
<g id="edge3" class="edge"><title>Node1&#45;&gt;Node4</title>
<path fill="none" stroke="midnightblue" d="M142.209,-59.4634C150.603,-58.5623 159.227,-57.6367 167.76,-56.7207"/>
<polygon fill="midnightblue" stroke="midnightblue" points="168.147,-60.1993 177.716,-55.6519 167.4,-53.2393 168.147,-60.1993"/>
</g>
<!-- Node5 -->
<g id="node5" class="node"><title>Node5</title>
<g id="a_node5"><a xlink:href="../../df/d1b/classANNmin__k.html#a5afb7172ba783e16ff52a31b78000890" target="_top" xlink:title="ANNmin_k::ith_smallest_info">
<polygon fill="white" stroke="black" points="178,-0.5 178,-19.5 322,-19.5 322,-0.5 178,-0.5"/>
<text text-anchor="middle" x="250" y="-7.5" font-family="Helvetica,sans-Serif" font-size="10.00">ANNmin_k::ith_smallest_info</text>
</a>
</g>
</g>
<!-- Node1&#45;&gt;Node5 -->
<g id="edge4" class="edge"><title>Node1&#45;&gt;Node5</title>
<path fill="none" stroke="midnightblue" d="M97.0741,-57.3485C118.429,-49.2888 150.01,-37.7457 178,-29 185.45,-26.6721 193.394,-24.3718 201.17,-22.2189"/>
<polygon fill="midnightblue" stroke="midnightblue" points="202.148,-25.5801 210.88,-19.5797 200.312,-18.8251 202.148,-25.5801"/>
</g>
</g>
</svg>
