<?xml version="1.0" encoding="UTF-8" standalone="no"?>
<!DOCTYPE svg PUBLIC "-//W3C//DTD SVG 1.1//EN"
 "http://www.w3.org/Graphics/SVG/1.1/DTD/svg11.dtd">
<!-- Generated by graphviz version 2.36.0 (20140111.2315)
 -->
<!-- Title: ANNkd_tree::ANNkd_tree Pages: 1 -->
<svg width="534pt" height="464pt"
 viewBox="0.00 0.00 534.00 464.00" xmlns="http://www.w3.org/2000/svg" xmlns:xlink="http://www.w3.org/1999/xlink">
<g id="graph0" class="graph" transform="scale(1 1) rotate(0) translate(4 460)">
<title>ANNkd_tree::ANNkd_tree</title>
<polygon fill="white" stroke="none" points="-4,4 -4,-460 530,-460 530,4 -4,4"/>
<!-- Node1 -->
<g id="node1" class="node"><title>Node1</title>
<polygon fill="#bfbfbf" stroke="black" points="0.5,-247.5 0.5,-266.5 131.5,-266.5 131.5,-247.5 0.5,-247.5"/>
<text text-anchor="middle" x="66" y="-254.5" font-family="Helvetica,sans-Serif" font-size="10.00">ANNkd_tree::ANNkd_tree</text>
</g>
<!-- Node2 -->
<g id="node2" class="node"><title>Node2</title>
<g id="a_node2"><a xlink:href="../../d2/d8c/classANNkd__tree.html#af531a6a84d19b64a74fabb718e9c12f0" target="_top" xlink:title="ANNkd_tree::SkeletonTree">
<polygon fill="white" stroke="black" points="168,-436.5 168,-455.5 302,-455.5 302,-436.5 168,-436.5"/>
<text text-anchor="middle" x="235" y="-443.5" font-family="Helvetica,sans-Serif" font-size="10.00">ANNkd_tree::SkeletonTree</text>
</a>
</g>
</g>
<!-- Node1&#45;&gt;Node2 -->
<g id="edge1" class="edge"><title>Node1&#45;&gt;Node2</title>
<path fill="none" stroke="midnightblue" d="M69.9505,-266.808C79.2304,-295.95 110.666,-382.731 168,-427 170.345,-428.81 172.856,-430.448 175.479,-431.93"/>
<polygon fill="midnightblue" stroke="midnightblue" points="174.222,-435.21 184.751,-436.392 177.258,-428.902 174.222,-435.21"/>
</g>
<!-- Node3 -->
<g id="node3" class="node"><title>Node3</title>
<g id="a_node3"><a xlink:href="../../d9/d87/kd__util_8cpp.html#a6ed5406b7e20d7f1b0a15c0d21354f77" target="_top" xlink:title="annEnclRect">
<polygon fill="white" stroke="black" points="198.5,-398.5 198.5,-417.5 271.5,-417.5 271.5,-398.5 198.5,-398.5"/>
<text text-anchor="middle" x="235" y="-405.5" font-family="Helvetica,sans-Serif" font-size="10.00">annEnclRect</text>
</a>
</g>
</g>
<!-- Node1&#45;&gt;Node3 -->
<g id="edge2" class="edge"><title>Node1&#45;&gt;Node3</title>
<path fill="none" stroke="midnightblue" d="M71.6114,-266.658C83.7678,-291.067 119.144,-355.649 168,-389 174.161,-393.206 181.253,-396.491 188.452,-399.054"/>
<polygon fill="midnightblue" stroke="midnightblue" points="187.67,-402.476 198.258,-402.12 189.758,-395.795 187.67,-402.476"/>
</g>
<!-- Node4 -->
<g id="node4" class="node"><title>Node4</title>
<g id="a_node4"><a xlink:href="../../d8/da9/ANN_8h.html#a4d699aa9bd46a0c0bf91c25252da80e0" target="_top" xlink:title="annCopyPt">
<polygon fill="white" stroke="black" points="202.5,-360.5 202.5,-379.5 267.5,-379.5 267.5,-360.5 202.5,-360.5"/>
<text text-anchor="middle" x="235" y="-367.5" font-family="Helvetica,sans-Serif" font-size="10.00">annCopyPt</text>
</a>
</g>
</g>
<!-- Node1&#45;&gt;Node4 -->
<g id="edge3" class="edge"><title>Node1&#45;&gt;Node4</title>
<path fill="none" stroke="midnightblue" d="M74.5461,-266.55C90.0242,-285.498 127.346,-327.997 168,-351 175.534,-355.263 184.102,-358.636 192.512,-361.281"/>
<polygon fill="midnightblue" stroke="midnightblue" points="191.664,-364.678 202.241,-364.061 193.587,-357.948 191.664,-364.678"/>
</g>
<!-- Node5 -->
<g id="node5" class="node"><title>Node5</title>
<g id="a_node5"><a xlink:href="../../d6/d35/kd__tree_8cpp.html#a98c8c4e8b5a0301bdc0e71e9726b3fdf" target="_top" xlink:title="rkd_tree">
<polygon fill="white" stroke="black" points="209,-304.5 209,-323.5 261,-323.5 261,-304.5 209,-304.5"/>
<text text-anchor="middle" x="235" y="-311.5" font-family="Helvetica,sans-Serif" font-size="10.00">rkd_tree</text>
</a>
</g>
</g>
<!-- Node1&#45;&gt;Node5 -->
<g id="edge4" class="edge"><title>Node1&#45;&gt;Node5</title>
<path fill="none" stroke="midnightblue" d="M90.8887,-266.602C111.234,-274.631 141.325,-286.158 168,-295 178.017,-298.32 188.995,-301.616 199.074,-304.506"/>
<polygon fill="midnightblue" stroke="midnightblue" points="198.209,-307.899 208.783,-307.248 200.111,-301.162 198.209,-307.899"/>
</g>
<!-- Node6 -->
<g id="node6" class="node"><title>Node6</title>
<g id="a_node6"><a xlink:href="../../da/d3e/kd__split_8cpp.html#a40f559e8137bf18a6f072d33d40fabb6" target="_top" xlink:title="kd_split">
<polygon fill="white" stroke="black" points="210,-266.5 210,-285.5 260,-285.5 260,-266.5 210,-266.5"/>
<text text-anchor="middle" x="235" y="-273.5" font-family="Helvetica,sans-Serif" font-size="10.00">kd_split</text>
</a>
</g>
</g>
<!-- Node1&#45;&gt;Node6 -->
<g id="edge6" class="edge"><title>Node1&#45;&gt;Node6</title>
<path fill="none" stroke="midnightblue" d="M131.567,-264.346C154.752,-266.984 179.992,-269.855 199.617,-272.088"/>
<polygon fill="midnightblue" stroke="midnightblue" points="199.278,-275.572 209.609,-273.225 200.069,-268.617 199.278,-275.572"/>
</g>
<!-- Node10 -->
<g id="node10" class="node"><title>Node10</title>
<g id="a_node10"><a xlink:href="../../da/d3e/kd__split_8cpp.html#a7709666b3446757acd5589b4aaa14784" target="_top" xlink:title="midpt_split">
<polygon fill="white" stroke="black" points="203,-228.5 203,-247.5 267,-247.5 267,-228.5 203,-228.5"/>
<text text-anchor="middle" x="235" y="-235.5" font-family="Helvetica,sans-Serif" font-size="10.00">midpt_split</text>
</a>
</g>
</g>
<!-- Node1&#45;&gt;Node10 -->
<g id="edge10" class="edge"><title>Node1&#45;&gt;Node10</title>
<path fill="none" stroke="midnightblue" d="M131.567,-249.654C152.071,-247.321 174.184,-244.805 192.597,-242.71"/>
<polygon fill="midnightblue" stroke="midnightblue" points="193.151,-246.17 202.691,-241.562 192.36,-239.215 193.151,-246.17"/>
</g>
<!-- Node12 -->
<g id="node12" class="node"><title>Node12</title>
<g id="a_node12"><a xlink:href="../../da/d3e/kd__split_8cpp.html#ab6167ffd4cda270c15d2eca1bbce4e9d" target="_top" xlink:title="fair_split">
<polygon fill="white" stroke="black" points="208.5,-190.5 208.5,-209.5 261.5,-209.5 261.5,-190.5 208.5,-190.5"/>
<text text-anchor="middle" x="235" y="-197.5" font-family="Helvetica,sans-Serif" font-size="10.00">fair_split</text>
</a>
</g>
</g>
<!-- Node1&#45;&gt;Node12 -->
<g id="edge13" class="edge"><title>Node1&#45;&gt;Node12</title>
<path fill="none" stroke="midnightblue" d="M90.8887,-247.398C111.234,-239.369 141.325,-227.842 168,-219 177.932,-215.708 188.809,-212.44 198.817,-209.567"/>
<polygon fill="midnightblue" stroke="midnightblue" points="199.798,-212.927 208.469,-206.839 197.894,-206.191 199.798,-212.927"/>
</g>
<!-- Node14 -->
<g id="node14" class="node"><title>Node14</title>
<g id="a_node14"><a xlink:href="../../da/d3e/kd__split_8cpp.html#a6d5f8c8dc552d75ade33052dc7f20ab7" target="_top" xlink:title="sl_midpt_split">
<polygon fill="white" stroke="black" points="196.5,-95.5 196.5,-114.5 273.5,-114.5 273.5,-95.5 196.5,-95.5"/>
<text text-anchor="middle" x="235" y="-102.5" font-family="Helvetica,sans-Serif" font-size="10.00">sl_midpt_split</text>
</a>
</g>
</g>
<!-- Node1&#45;&gt;Node14 -->
<g id="edge18" class="edge"><title>Node1&#45;&gt;Node14</title>
<path fill="none" stroke="midnightblue" d="M73.9558,-247.192C89.1958,-226.188 127.425,-176.087 168,-143 179.077,-133.967 192.568,-125.787 204.458,-119.35"/>
<polygon fill="midnightblue" stroke="midnightblue" points="206.338,-122.317 213.575,-114.579 203.092,-116.115 206.338,-122.317"/>
</g>
<!-- Node16 -->
<g id="node16" class="node"><title>Node16</title>
<g id="a_node16"><a xlink:href="../../da/d3e/kd__split_8cpp.html#ae4399675d75267ad56169a2072c7a2ba" target="_top" xlink:title="sl_fair_split">
<polygon fill="white" stroke="black" points="202,-152.5 202,-171.5 268,-171.5 268,-152.5 202,-152.5"/>
<text text-anchor="middle" x="235" y="-159.5" font-family="Helvetica,sans-Serif" font-size="10.00">sl_fair_split</text>
</a>
</g>
</g>
<!-- Node1&#45;&gt;Node16 -->
<g id="edge22" class="edge"><title>Node1&#45;&gt;Node16</title>
<path fill="none" stroke="midnightblue" d="M77.0537,-247.405C94.3128,-231.426 131.279,-199.317 168,-181 175.51,-177.254 183.879,-174.132 192.068,-171.573"/>
<polygon fill="midnightblue" stroke="midnightblue" points="193.264,-174.871 201.896,-168.728 191.317,-168.147 193.264,-174.871"/>
</g>
<!-- Node17 -->
<g id="node17" class="node"><title>Node17</title>
<g id="a_node17"><a xlink:href="../../d5/d32/ANNx_8h.html#a9c45d5ab29fad7c514d22008daf15534" target="_top" xlink:title="annError">
<polygon fill="white" stroke="black" points="208.5,-19.5 208.5,-38.5 261.5,-38.5 261.5,-19.5 208.5,-19.5"/>
<text text-anchor="middle" x="235" y="-26.5" font-family="Helvetica,sans-Serif" font-size="10.00">annError</text>
</a>
</g>
</g>
<!-- Node1&#45;&gt;Node17 -->
<g id="edge28" class="edge"><title>Node1&#45;&gt;Node17</title>
<path fill="none" stroke="midnightblue" d="M71.2912,-247.417C83.7171,-220.281 121.799,-141.302 168,-86 181.103,-70.3163 198.737,-55.3245 212.482,-44.6555"/>
<polygon fill="midnightblue" stroke="midnightblue" points="214.609,-47.4351 220.462,-38.6036 210.379,-41.8576 214.609,-47.4351"/>
</g>
<!-- Node5&#45;&gt;Node5 -->
<g id="edge5" class="edge"><title>Node5&#45;&gt;Node5</title>
<path fill="none" stroke="midnightblue" d="M212.497,-323.757C201.55,-332.565 209.051,-342 235,-342 252.029,-342 261.113,-337.937 262.253,-332.654"/>
<polygon fill="midnightblue" stroke="midnightblue" points="265.3,-330.93 257.503,-323.757 259.125,-334.227 265.3,-330.93"/>
</g>
<!-- Node7 -->
<g id="node7" class="node"><title>Node7</title>
<g id="a_node7"><a xlink:href="../../d9/d87/kd__util_8cpp.html#a35245541753c73940727828771b08f0d" target="_top" xlink:title="annMaxSpread">
<polygon fill="white" stroke="black" points="341,-342.5 341,-361.5 423,-361.5 423,-342.5 341,-342.5"/>
<text text-anchor="middle" x="382" y="-349.5" font-family="Helvetica,sans-Serif" font-size="10.00">annMaxSpread</text>
</a>
</g>
</g>
<!-- Node6&#45;&gt;Node7 -->
<g id="edge7" class="edge"><title>Node6&#45;&gt;Node7</title>
<path fill="none" stroke="midnightblue" d="M260.261,-280.177C273.216,-283.084 289.104,-287.768 302,-295 320.931,-305.617 320.404,-315.291 338,-328 342.592,-331.316 347.686,-334.523 352.717,-337.456"/>
<polygon fill="midnightblue" stroke="midnightblue" points="351.14,-340.584 361.578,-342.402 354.552,-334.472 351.14,-340.584"/>
</g>
<!-- Node9 -->
<g id="node9" class="node"><title>Node9</title>
<g id="a_node9"><a xlink:href="../../d9/d87/kd__util_8cpp.html#ada35176903dab27160ac24f82b17c8dd" target="_top" xlink:title="annMedianSplit">
<polygon fill="white" stroke="black" points="340.5,-228.5 340.5,-247.5 423.5,-247.5 423.5,-228.5 340.5,-228.5"/>
<text text-anchor="middle" x="382" y="-235.5" font-family="Helvetica,sans-Serif" font-size="10.00">annMedianSplit</text>
</a>
</g>
</g>
<!-- Node6&#45;&gt;Node9 -->
<g id="edge9" class="edge"><title>Node6&#45;&gt;Node9</title>
<path fill="none" stroke="midnightblue" d="M260.27,-269.64C280.535,-264.329 310.002,-256.606 334.751,-250.121"/>
<polygon fill="midnightblue" stroke="midnightblue" points="335.889,-253.44 344.675,-247.52 334.114,-246.669 335.889,-253.44"/>
</g>
<!-- Node8 -->
<g id="node8" class="node"><title>Node8</title>
<g id="a_node8"><a xlink:href="../../d9/d87/kd__util_8cpp.html#a8de10b7ed69bdf2b2db334bf5be7e015" target="_top" xlink:title="annSpread">
<polygon fill="white" stroke="black" points="462.5,-266.5 462.5,-285.5 525.5,-285.5 525.5,-266.5 462.5,-266.5"/>
<text text-anchor="middle" x="494" y="-273.5" font-family="Helvetica,sans-Serif" font-size="10.00">annSpread</text>
</a>
</g>
</g>
<!-- Node7&#45;&gt;Node8 -->
<g id="edge8" class="edge"><title>Node7&#45;&gt;Node8</title>
<path fill="none" stroke="midnightblue" d="M401.777,-342.319C409.443,-338.163 418.3,-333.095 426,-328 442.721,-316.936 460.611,-302.929 473.694,-292.241"/>
<polygon fill="midnightblue" stroke="midnightblue" points="476.058,-294.829 481.538,-285.761 471.599,-289.432 476.058,-294.829"/>
</g>
<!-- Node10&#45;&gt;Node8 -->
<g id="edge11" class="edge"><title>Node10&#45;&gt;Node8</title>
<path fill="none" stroke="midnightblue" d="M267.067,-243.81C278.512,-246.743 291.288,-250.992 302,-257 320.931,-267.617 317.771,-282.131 338,-290 376.287,-304.893 423.77,-297.157 456.021,-288.418"/>
<polygon fill="midnightblue" stroke="midnightblue" points="457.281,-291.698 465.926,-285.573 455.348,-284.97 457.281,-291.698"/>
</g>
<!-- Node11 -->
<g id="node11" class="node"><title>Node11</title>
<g id="a_node11"><a xlink:href="../../d9/d87/kd__util_8cpp.html#a204cfb519eaf094b1310c8cd3470154f" target="_top" xlink:title="annPlaneSplit">
<polygon fill="white" stroke="black" points="343.5,-190.5 343.5,-209.5 420.5,-209.5 420.5,-190.5 343.5,-190.5"/>
<text text-anchor="middle" x="382" y="-197.5" font-family="Helvetica,sans-Serif" font-size="10.00">annPlaneSplit</text>
</a>
</g>
</g>
<!-- Node10&#45;&gt;Node11 -->
<g id="edge12" class="edge"><title>Node10&#45;&gt;Node11</title>
<path fill="none" stroke="midnightblue" d="M267.106,-229.848C286.806,-224.685 312.639,-217.915 334.721,-212.128"/>
<polygon fill="midnightblue" stroke="midnightblue" points="335.782,-215.469 344.568,-209.548 334.007,-208.697 335.782,-215.469"/>
</g>
<!-- Node12&#45;&gt;Node8 -->
<g id="edge14" class="edge"><title>Node12&#45;&gt;Node8</title>
<path fill="none" stroke="midnightblue" d="M261.739,-204.095C274.509,-206.926 289.775,-211.566 302,-219 321.878,-231.088 317.229,-246.522 338,-257 373.712,-275.014 419.741,-278.576 452.335,-278.36"/>
<polygon fill="midnightblue" stroke="midnightblue" points="452.483,-281.858 462.416,-278.17 452.352,-274.859 452.483,-281.858"/>
</g>
<!-- Node12&#45;&gt;Node9 -->
<g id="edge17" class="edge"><title>Node12&#45;&gt;Node9</title>
<path fill="none" stroke="midnightblue" d="M261.589,-206.706C281.812,-212.006 310.567,-219.542 334.793,-225.89"/>
<polygon fill="midnightblue" stroke="midnightblue" points="333.953,-229.289 344.513,-228.438 335.727,-222.517 333.953,-229.289"/>
</g>
<!-- Node12&#45;&gt;Node11 -->
<g id="edge16" class="edge"><title>Node12&#45;&gt;Node11</title>
<path fill="none" stroke="midnightblue" d="M261.589,-200C281.349,-200 309.255,-200 333.121,-200"/>
<polygon fill="midnightblue" stroke="midnightblue" points="333.412,-203.5 343.412,-200 333.412,-196.5 333.412,-203.5"/>
</g>
<!-- Node13 -->
<g id="node13" class="node"><title>Node13</title>
<g id="a_node13"><a xlink:href="../../d9/d87/kd__util_8cpp.html#a3b25673b846dead901bb0d9fc4942ac5" target="_top" xlink:title="annSplitBalance">
<polygon fill="white" stroke="black" points="338.5,-152.5 338.5,-171.5 425.5,-171.5 425.5,-152.5 338.5,-152.5"/>
<text text-anchor="middle" x="382" y="-159.5" font-family="Helvetica,sans-Serif" font-size="10.00">annSplitBalance</text>
</a>
</g>
</g>
<!-- Node12&#45;&gt;Node13 -->
<g id="edge15" class="edge"><title>Node12&#45;&gt;Node13</title>
<path fill="none" stroke="midnightblue" d="M261.589,-193.294C281.812,-187.994 310.567,-180.458 334.793,-174.11"/>
<polygon fill="midnightblue" stroke="midnightblue" points="335.727,-177.483 344.513,-171.562 333.953,-170.711 335.727,-177.483"/>
</g>
<!-- Node14&#45;&gt;Node8 -->
<g id="edge19" class="edge"><title>Node14&#45;&gt;Node8</title>
<path fill="none" stroke="midnightblue" d="M250.216,-95.4544C284.115,-73.9962 370.969,-26.8519 426,-67 487.318,-111.735 493.777,-213.395 493.625,-256.306"/>
<polygon fill="midnightblue" stroke="midnightblue" points="490.125,-256.263 493.46,-266.319 497.124,-256.378 490.125,-256.263"/>
</g>
<!-- Node14&#45;&gt;Node11 -->
<g id="edge21" class="edge"><title>Node14&#45;&gt;Node11</title>
<path fill="none" stroke="midnightblue" d="M256.006,-114.58C269.61,-121.546 287.669,-131.706 302,-143 320.273,-157.4 318.988,-167.592 338,-181 340.376,-182.676 342.924,-184.253 345.549,-185.727"/>
<polygon fill="midnightblue" stroke="midnightblue" points="344.135,-188.934 354.637,-190.332 347.299,-182.69 344.135,-188.934"/>
</g>
<!-- Node15 -->
<g id="node15" class="node"><title>Node15</title>
<g id="a_node15"><a xlink:href="../../d9/d87/kd__util_8cpp.html#a79e0b5d9056cd12db02b51f8b69c464a" target="_top" xlink:title="annMinMax">
<polygon fill="white" stroke="black" points="348.5,-76.5 348.5,-95.5 415.5,-95.5 415.5,-76.5 348.5,-76.5"/>
<text text-anchor="middle" x="382" y="-83.5" font-family="Helvetica,sans-Serif" font-size="10.00">annMinMax</text>
</a>
</g>
</g>
<!-- Node14&#45;&gt;Node15 -->
<g id="edge20" class="edge"><title>Node14&#45;&gt;Node15</title>
<path fill="none" stroke="midnightblue" d="M273.719,-100.058C293.531,-97.4615 317.885,-94.2703 338.378,-91.5849"/>
<polygon fill="midnightblue" stroke="midnightblue" points="338.934,-95.0421 348.394,-90.2725 338.024,-88.1015 338.934,-95.0421"/>
</g>
<!-- Node16&#45;&gt;Node8 -->
<g id="edge23" class="edge"><title>Node16&#45;&gt;Node8</title>
<path fill="none" stroke="midnightblue" d="M256.39,-152.4C293.273,-136.573 372.23,-109.88 426,-143 466.584,-167.998 483.462,-225.968 489.731,-256.456"/>
<polygon fill="midnightblue" stroke="midnightblue" points="486.3,-257.15 491.584,-266.332 493.18,-255.858 486.3,-257.15"/>
</g>
<!-- Node16&#45;&gt;Node9 -->
<g id="edge27" class="edge"><title>Node16&#45;&gt;Node9</title>
<path fill="none" stroke="midnightblue" d="M268.306,-167.666C279.513,-170.55 291.812,-174.805 302,-181 321.878,-193.088 318.988,-205.592 338,-219 340.376,-220.676 342.924,-222.253 345.549,-223.727"/>
<polygon fill="midnightblue" stroke="midnightblue" points="344.135,-226.934 354.637,-228.332 347.299,-220.69 344.135,-226.934"/>
</g>
<!-- Node16&#45;&gt;Node11 -->
<g id="edge26" class="edge"><title>Node16&#45;&gt;Node11</title>
<path fill="none" stroke="midnightblue" d="M268.18,-170.433C287.788,-175.572 313.165,-182.222 334.884,-187.914"/>
<polygon fill="midnightblue" stroke="midnightblue" points="334.011,-191.304 344.571,-190.453 335.785,-184.532 334.011,-191.304"/>
</g>
<!-- Node16&#45;&gt;Node13 -->
<g id="edge25" class="edge"><title>Node16&#45;&gt;Node13</title>
<path fill="none" stroke="midnightblue" d="M268.18,-162C285.8,-162 308.08,-162 328.176,-162"/>
<polygon fill="midnightblue" stroke="midnightblue" points="328.451,-165.5 338.451,-162 328.45,-158.5 328.451,-165.5"/>
</g>
<!-- Node16&#45;&gt;Node15 -->
<g id="edge24" class="edge"><title>Node16&#45;&gt;Node15</title>
<path fill="none" stroke="midnightblue" d="M254.364,-152.375C279.423,-139.24 324.528,-115.599 353.595,-100.364"/>
<polygon fill="midnightblue" stroke="midnightblue" points="355.552,-103.29 362.785,-95.5473 352.303,-97.0897 355.552,-103.29"/>
</g>
<!-- Node18 -->
<g id="node18" class="node"><title>Node18</title>
<g id="a_node18"><a xlink:href="../../d9/db8/glut_8h.html#a6f255d924f7a6bb2c4be0c8c2f2d9ce3" target="_top" xlink:title="exit">
<polygon fill="white" stroke="black" points="366,-0.5 366,-19.5 398,-19.5 398,-0.5 366,-0.5"/>
<text text-anchor="middle" x="382" y="-7.5" font-family="Helvetica,sans-Serif" font-size="10.00">exit</text>
</a>
</g>
</g>
<!-- Node17&#45;&gt;Node18 -->
<g id="edge29" class="edge"><title>Node17&#45;&gt;Node18</title>
<path fill="none" stroke="midnightblue" d="M261.589,-25.6469C288.171,-22.1638 329.498,-16.7486 355.898,-13.2893"/>
<polygon fill="midnightblue" stroke="midnightblue" points="356.422,-16.7506 365.882,-11.981 355.512,-9.80995 356.422,-16.7506"/>
</g>
</g>
</svg>
