<?xml version="1.0" encoding="UTF-8" standalone="no"?>
<!DOCTYPE svg PUBLIC "-//W3C//DTD SVG 1.1//EN"
 "http://www.w3.org/Graphics/SVG/1.1/DTD/svg11.dtd">
<!-- Generated by graphviz version 2.36.0 (20140111.2315)
 -->
<!-- Title: src/aorb.h Pages: 1 -->
<svg width="415pt" height="84pt"
 viewBox="0.00 0.00 415.00 84.00" xmlns="http://www.w3.org/2000/svg" xmlns:xlink="http://www.w3.org/1999/xlink">
<g id="graph0" class="graph" transform="scale(1 1) rotate(0) translate(4 80)">
<title>src/aorb.h</title>
<polygon fill="white" stroke="none" points="-4,4 -4,-80 411,-80 411,4 -4,4"/>
<!-- Node1 -->
<g id="node1" class="node"><title>Node1</title>
<polygon fill="#bfbfbf" stroke="black" points="181,-56.5 181,-75.5 241,-75.5 241,-56.5 181,-56.5"/>
<text text-anchor="middle" x="211" y="-63.5" font-family="Helvetica,sans-Serif" font-size="10.00">src/aorb.h</text>
</g>
<!-- Node2 -->
<g id="node2" class="node"><title>Node2</title>
<g id="a_node2"><a xlink:href="../../d2/d68/aorb_8cpp.html" target="_top" xlink:title="src/aorb.cpp">
<polygon fill="white" stroke="black" points="-0.5,-0.5 -0.5,-19.5 70.5,-19.5 70.5,-0.5 -0.5,-0.5"/>
<text text-anchor="middle" x="35" y="-7.5" font-family="Helvetica,sans-Serif" font-size="10.00">src/aorb.cpp</text>
</a>
</g>
</g>
<!-- Node1&#45;&gt;Node2 -->
<g id="edge1" class="edge"><title>Node1&#45;&gt;Node2</title>
<path fill="none" stroke="midnightblue" d="M173.311,-53.4363C140.128,-43.2551 92.5716,-28.664 62.7572,-19.5164"/>
<polygon fill="midnightblue" stroke="midnightblue" points="172.525,-56.8563 183.112,-56.4435 174.579,-50.1642 172.525,-56.8563"/>
</g>
<!-- Node3 -->
<g id="node3" class="node"><title>Node3</title>
<g id="a_node3"><a xlink:href="../../db/d71/feature__adjuster_8cpp.html" target="_top" xlink:title="src/feature_adjuster.cpp">
<polygon fill="white" stroke="black" points="89,-0.5 89,-19.5 211,-19.5 211,-0.5 89,-0.5"/>
<text text-anchor="middle" x="150" y="-7.5" font-family="Helvetica,sans-Serif" font-size="10.00">src/feature_adjuster.cpp</text>
</a>
</g>
</g>
<!-- Node1&#45;&gt;Node3 -->
<g id="edge2" class="edge"><title>Node1&#45;&gt;Node3</title>
<path fill="none" stroke="midnightblue" d="M193.533,-49.5372C182.656,-39.9087 169.056,-27.8694 159.979,-19.8339"/>
<polygon fill="midnightblue" stroke="midnightblue" points="191.392,-52.3162 201.199,-56.324 196.032,-47.0749 191.392,-52.3162"/>
</g>
<!-- Node4 -->
<g id="node4" class="node"><title>Node4</title>
<g id="a_node4"><a xlink:href="../../d9/dcb/features_8cpp.html" target="_top" xlink:title="src/features.cpp">
<polygon fill="white" stroke="black" points="229.5,-0.5 229.5,-19.5 316.5,-19.5 316.5,-0.5 229.5,-0.5"/>
<text text-anchor="middle" x="273" y="-7.5" font-family="Helvetica,sans-Serif" font-size="10.00">src/features.cpp</text>
</a>
</g>
</g>
<!-- Node1&#45;&gt;Node4 -->
<g id="edge3" class="edge"><title>Node1&#45;&gt;Node4</title>
<path fill="none" stroke="midnightblue" d="M228.754,-49.5372C239.808,-39.9087 253.631,-27.8694 262.857,-19.8339"/>
<polygon fill="midnightblue" stroke="midnightblue" points="226.203,-47.1168 220.961,-56.324 230.801,-52.3954 226.203,-47.1168"/>
</g>
<!-- Node5 -->
<g id="node5" class="node"><title>Node5</title>
<g id="a_node5"><a xlink:href="../../d7/d5f/misc_8cpp.html" target="_top" xlink:title="src/misc.cpp">
<polygon fill="white" stroke="black" points="334.5,-0.5 334.5,-19.5 407.5,-19.5 407.5,-0.5 334.5,-0.5"/>
<text text-anchor="middle" x="371" y="-7.5" font-family="Helvetica,sans-Serif" font-size="10.00">src/misc.cpp</text>
</a>
</g>
</g>
<!-- Node1&#45;&gt;Node5 -->
<g id="edge4" class="edge"><title>Node1&#45;&gt;Node5</title>
<path fill="none" stroke="midnightblue" d="M246.046,-53.172C276.174,-43.0039 318.896,-28.5852 345.766,-19.5164"/>
<polygon fill="midnightblue" stroke="midnightblue" points="244.708,-49.9295 236.352,-56.4435 246.947,-56.5619 244.708,-49.9295"/>
</g>
</g>
</svg>
