<?xml version="1.0" encoding="UTF-8" standalone="no"?>
<!DOCTYPE svg PUBLIC "-//W3C//DTD SVG 1.1//EN"
 "http://www.w3.org/Graphics/SVG/1.1/DTD/svg11.dtd">
<!-- Generated by graphviz version 2.36.0 (20140111.2315)
 -->
<!-- Title: src/SlamSystem.h Pages: 1 -->
<!--zoomable 432 -->
<svg id="main" version="1.1" xmlns="http://www.w3.org/2000/svg" xmlns:xlink="http://www.w3.org/1999/xlink" xml:space="preserve" onload="init(evt)">
<style type="text/css"><![CDATA[
.edge:hover path { stroke: red; }
.edge:hover polygon { stroke: red; fill: red; }
]]></style>
<script type="text/javascript"><![CDATA[
var edges = document.getElementsByTagName('g');
if (edges && edges.length) {
  for (var i=0;i<edges.length;i++) {
    if (edges[i].id.substr(0,4)=='edge') {
      edges[i].setAttribute('class','edge');
    }
  }
}
]]></script>
        <defs>
                <circle id="rim" cx="0" cy="0" r="7"/>
                <circle id="rim2" cx="0" cy="0" r="3.5"/>
                <g id="zoomPlus">
                        <use xlink:href="#rim" fill="#404040">
                                <set attributeName="fill" to="#808080" begin="zoomplus.mouseover" end="zoomplus.mouseout"/>
                        </use>
                        <path d="M-4,0h8M0,-4v8" fill="none" stroke="white" stroke-width="1.5" pointer-events="none"/>
                </g>
                <g id="zoomMin">
                        <use xlink:href="#rim" fill="#404040">
                                <set attributeName="fill" to="#808080" begin="zoomminus.mouseover" end="zoomminus.mouseout"/>
                        </use>
                        <path d="M-4,0h8" fill="none" stroke="white" stroke-width="1.5" pointer-events="none"/>
                </g>
                <g id="dirArrow">
                        <path fill="none" stroke="white" stroke-width="1.5" d="M0,-3.0v7 M-2.5,-0.5L0,-3.0L2.5,-0.5"/>
                </g>
               <g id="resetDef">
                       <use xlink:href="#rim2" fill="#404040">
                               <set attributeName="fill" to="#808080" begin="reset.mouseover" end="reset.mouseout"/>
                       </use>
               </g>
        </defs>

<script type="text/javascript">
var viewWidth = 1074;
var viewHeight = 432;
var sectionId = 'dynsection-0';
</script>
<script xlink:href="../../svgpan.js"/>
<svg id="graph" class="graph">
<g id="viewport">
<title>src/SlamSystem.h</title>
<polygon fill="white" stroke="none" points="-4,4 -4,-428 1070,-428 1070,4 -4,4"/>
<!-- Node1 -->
<g id="node1" class="node"><title>Node1</title>
<polygon fill="#bfbfbf" stroke="black" points="509,-404.5 509,-423.5 607,-423.5 607,-404.5 509,-404.5"/>
<text text-anchor="middle" x="558" y="-411.5" font-family="Helvetica,sans-Serif" font-size="10.00">src/SlamSystem.h</text>
</g>
<!-- Node2 -->
<g id="node2" class="node"><title>Node2</title>
<polygon fill="white" stroke="#bfbfbf" points="0,-342.5 0,-361.5 44,-361.5 44,-342.5 0,-342.5"/>
<text text-anchor="middle" x="22" y="-349.5" font-family="Helvetica,sans-Serif" font-size="10.00">vector</text>
</g>
<!-- Node1&#45;&gt;Node2 -->
<g id="edge1" class="edge"><title>Node1&#45;&gt;Node2</title>
<path fill="none" stroke="midnightblue" d="M508.667,-410.869C398.996,-405.764 137.944,-391.488 53,-368 50.7994,-367.392 48.5655,-366.631 46.3573,-365.777"/>
<polygon fill="midnightblue" stroke="midnightblue" points="47.5818,-362.491 37.0229,-361.619 44.7333,-368.885 47.5818,-362.491"/>
</g>
<!-- Node3 -->
<g id="node3" class="node"><title>Node3</title>
<polygon fill="white" stroke="#bfbfbf" points="556.5,-280.5 556.5,-299.5 645.5,-299.5 645.5,-280.5 556.5,-280.5"/>
<text text-anchor="middle" x="601" y="-287.5" font-family="Helvetica,sans-Serif" font-size="10.00">boost/thread.hpp</text>
</g>
<!-- Node1&#45;&gt;Node3 -->
<g id="edge2" class="edge"><title>Node1&#45;&gt;Node3</title>
<path fill="none" stroke="midnightblue" d="M563.173,-404.297C568.274,-395.419 576.011,-381.122 581,-368 588.346,-348.677 593.939,-325.628 597.317,-309.816"/>
<polygon fill="midnightblue" stroke="midnightblue" points="600.804,-310.235 599.379,-299.737 593.946,-308.832 600.804,-310.235"/>
</g>
<!-- Node4 -->
<g id="node4" class="node"><title>Node4</title>
<polygon fill="white" stroke="#bfbfbf" points="204.5,-337 204.5,-367 307.5,-367 307.5,-337 204.5,-337"/>
<text text-anchor="start" x="212.5" y="-355" font-family="Helvetica,sans-Serif" font-size="10.00">boost/thread/shared</text>
<text text-anchor="middle" x="256" y="-344" font-family="Helvetica,sans-Serif" font-size="10.00">_mutex.hpp</text>
</g>
<!-- Node1&#45;&gt;Node4 -->
<g id="edge3" class="edge"><title>Node1&#45;&gt;Node4</title>
<path fill="none" stroke="midnightblue" d="M508.693,-404.741C461.868,-396.694 389.277,-383.692 317.747,-368.314"/>
<polygon fill="midnightblue" stroke="midnightblue" points="318.178,-364.826 307.664,-366.129 316.695,-371.668 318.178,-364.826"/>
</g>
<!-- Node5 -->
<g id="node5" class="node"><title>Node5</title>
<polygon fill="white" stroke="#bfbfbf" points="325.5,-337 325.5,-367 438.5,-367 438.5,-337 325.5,-337"/>
<text text-anchor="start" x="333.5" y="-355" font-family="Helvetica,sans-Serif" font-size="10.00">boost/thread/condition</text>
<text text-anchor="middle" x="382" y="-344" font-family="Helvetica,sans-Serif" font-size="10.00">_variable.hpp</text>
</g>
<!-- Node1&#45;&gt;Node5 -->
<g id="edge4" class="edge"><title>Node1&#45;&gt;Node5</title>
<path fill="none" stroke="midnightblue" d="M532.783,-404.403C506.856,-395.564 465.755,-381.553 433.009,-370.39"/>
<polygon fill="midnightblue" stroke="midnightblue" points="433.735,-366.939 423.141,-367.025 431.477,-373.565 433.735,-366.939"/>
</g>
<!-- Node6 -->
<g id="node6" class="node"><title>Node6</title>
<polygon fill="white" stroke="#bfbfbf" points="457,-342.5 457,-361.5 573,-361.5 573,-342.5 457,-342.5"/>
<text text-anchor="middle" x="515" y="-349.5" font-family="Helvetica,sans-Serif" font-size="10.00">boost/thread/locks.hpp</text>
</g>
<!-- Node1&#45;&gt;Node6 -->
<g id="edge5" class="edge"><title>Node1&#45;&gt;Node6</title>
<path fill="none" stroke="midnightblue" d="M551.839,-404.403C545.389,-395.403 535.096,-381.041 527.027,-369.782"/>
<polygon fill="midnightblue" stroke="midnightblue" points="529.82,-367.67 521.149,-361.581 524.13,-371.748 529.82,-367.67"/>
</g>
<!-- Node7 -->
<g id="node7" class="node"><title>Node7</title>
<g id="a_node7"><a xlink:href="../../de/d60/settings_8h.html" target="_top" xlink:title="util/settings.h">
<polygon fill="white" stroke="black" points="663.5,-280.5 663.5,-299.5 738.5,-299.5 738.5,-280.5 663.5,-280.5"/>
<text text-anchor="middle" x="701" y="-287.5" font-family="Helvetica,sans-Serif" font-size="10.00">util/settings.h</text>
</a>
</g>
</g>
<!-- Node1&#45;&gt;Node7 -->
<g id="edge6" class="edge"><title>Node1&#45;&gt;Node7</title>
<path fill="none" stroke="midnightblue" d="M568.284,-404.226C592.401,-383.651 652.841,-332.086 683.123,-306.252"/>
<polygon fill="midnightblue" stroke="midnightblue" points="685.473,-308.848 690.809,-299.694 680.93,-303.522 685.473,-308.848"/>
</g>
<!-- Node10 -->
<g id="node10" class="node"><title>Node10</title>
<g id="a_node10"><a xlink:href="../../d7/d66/Timestamp_8h.html" target="_top" xlink:title="IOWrapper/Timestamp.h">
<polygon fill="white" stroke="black" points="62,-342.5 62,-361.5 186,-361.5 186,-342.5 62,-342.5"/>
<text text-anchor="middle" x="124" y="-349.5" font-family="Helvetica,sans-Serif" font-size="10.00">IOWrapper/Timestamp.h</text>
</a>
</g>
</g>
<!-- Node1&#45;&gt;Node10 -->
<g id="edge9" class="edge"><title>Node1&#45;&gt;Node10</title>
<path fill="none" stroke="midnightblue" d="M508.783,-408.238C438.803,-401.163 306.643,-386.679 195,-368 187.312,-366.714 179.192,-365.173 171.299,-363.576"/>
<polygon fill="midnightblue" stroke="midnightblue" points="171.974,-360.141 161.471,-361.538 170.552,-366.995 171.974,-360.141"/>
</g>
<!-- Node13 -->
<g id="node13" class="node"><title>Node13</title>
<polygon fill="white" stroke="#bfbfbf" points="667,-342.5 667,-361.5 783,-361.5 783,-342.5 667,-342.5"/>
<text text-anchor="middle" x="725" y="-349.5" font-family="Helvetica,sans-Serif" font-size="10.00">opencv2/core/core.hpp</text>
</g>
<!-- Node1&#45;&gt;Node13 -->
<g id="edge13" class="edge"><title>Node1&#45;&gt;Node13</title>
<path fill="none" stroke="midnightblue" d="M581.927,-404.403C610.697,-394.067 659.156,-376.656 691.602,-364.999"/>
<polygon fill="midnightblue" stroke="midnightblue" points="692.89,-368.256 701.117,-361.581 690.523,-361.668 692.89,-368.256"/>
</g>
<!-- Node14 -->
<g id="node14" class="node"><title>Node14</title>
<g id="a_node14"><a xlink:href="../../d2/d13/SophusUtil_8h.html" target="_top" xlink:title="util/SophusUtil.h">
<polygon fill="white" stroke="black" points="901.5,-280.5 901.5,-299.5 990.5,-299.5 990.5,-280.5 901.5,-280.5"/>
<text text-anchor="middle" x="946" y="-287.5" font-family="Helvetica,sans-Serif" font-size="10.00">util/SophusUtil.h</text>
</a>
</g>
</g>
<!-- Node1&#45;&gt;Node14 -->
<g id="edge14" class="edge"><title>Node1&#45;&gt;Node14</title>
<path fill="none" stroke="midnightblue" d="M607.121,-413.456C695.719,-413.255 877.41,-407.837 924,-368 940.722,-353.702 945.177,-327.657 946.141,-309.852"/>
<polygon fill="midnightblue" stroke="midnightblue" points="949.642,-309.854 946.367,-299.779 942.643,-309.698 949.642,-309.854"/>
</g>
<!-- Node23 -->
<g id="node23" class="node"><title>Node23</title>
<g id="a_node23"><a xlink:href="../../df/d5d/Relocalizer_8h.html" target="_top" xlink:title="Tracking/Relocalizer.h">
<polygon fill="white" stroke="black" points="801,-342.5 801,-361.5 915,-361.5 915,-342.5 801,-342.5"/>
<text text-anchor="middle" x="858" y="-349.5" font-family="Helvetica,sans-Serif" font-size="10.00">Tracking/Relocalizer.h</text>
</a>
</g>
</g>
<!-- Node1&#45;&gt;Node23 -->
<g id="edge25" class="edge"><title>Node1&#45;&gt;Node23</title>
<path fill="none" stroke="midnightblue" d="M604.499,-404.437C651.586,-395.667 726.469,-381.452 791,-368 797.356,-366.675 804.04,-365.235 810.626,-363.788"/>
<polygon fill="midnightblue" stroke="midnightblue" points="811.826,-367.107 820.831,-361.526 810.311,-360.273 811.826,-367.107"/>
</g>
<!-- Node8 -->
<g id="node8" class="node"><title>Node8</title>
<polygon fill="white" stroke="#bfbfbf" points="676.5,-224.5 676.5,-243.5 725.5,-243.5 725.5,-224.5 676.5,-224.5"/>
<text text-anchor="middle" x="701" y="-231.5" font-family="Helvetica,sans-Serif" font-size="10.00">string.h</text>
</g>
<!-- Node7&#45;&gt;Node8 -->
<g id="edge7" class="edge"><title>Node7&#45;&gt;Node8</title>
<path fill="none" stroke="midnightblue" d="M701,-280.083C701,-273.006 701,-262.861 701,-253.986"/>
<polygon fill="midnightblue" stroke="midnightblue" points="704.5,-253.751 701,-243.751 697.5,-253.751 704.5,-253.751"/>
</g>
<!-- Node9 -->
<g id="node9" class="node"><title>Node9</title>
<polygon fill="white" stroke="#bfbfbf" points="404.5,-224.5 404.5,-243.5 445.5,-243.5 445.5,-224.5 404.5,-224.5"/>
<text text-anchor="middle" x="425" y="-231.5" font-family="Helvetica,sans-Serif" font-size="10.00">string</text>
</g>
<!-- Node7&#45;&gt;Node9 -->
<g id="edge8" class="edge"><title>Node7&#45;&gt;Node9</title>
<path fill="none" stroke="midnightblue" d="M663.49,-281.661C608.449,-270.892 506.827,-251.01 455.854,-241.037"/>
<polygon fill="midnightblue" stroke="midnightblue" points="456.266,-237.551 445.78,-239.066 454.922,-244.421 456.266,-237.551"/>
</g>
<!-- Node10&#45;&gt;Node9 -->
<g id="edge10" class="edge"><title>Node10&#45;&gt;Node9</title>
<path fill="none" stroke="midnightblue" d="M128.972,-342.356C138.254,-327.075 159.765,-295.447 187,-280 253.85,-242.083 346.553,-235.37 394.123,-234.632"/>
<polygon fill="midnightblue" stroke="midnightblue" points="394.411,-238.13 404.384,-234.556 394.359,-231.13 394.411,-238.13"/>
</g>
<!-- Node11 -->
<g id="node11" class="node"><title>Node11</title>
<polygon fill="white" stroke="#bfbfbf" points="196,-280.5 196,-299.5 242,-299.5 242,-280.5 196,-280.5"/>
<text text-anchor="middle" x="219" y="-287.5" font-family="Helvetica,sans-Serif" font-size="10.00">chrono</text>
</g>
<!-- Node10&#45;&gt;Node11 -->
<g id="edge11" class="edge"><title>Node10&#45;&gt;Node11</title>
<path fill="none" stroke="midnightblue" d="M137.611,-342.403C153.061,-332.646 178.49,-316.585 196.816,-305.011"/>
<polygon fill="midnightblue" stroke="midnightblue" points="198.828,-307.88 205.414,-299.581 195.09,-301.961 198.828,-307.88"/>
</g>
<!-- Node12 -->
<g id="node12" class="node"><title>Node12</title>
<polygon fill="white" stroke="#bfbfbf" points="20.5,-280.5 20.5,-299.5 139.5,-299.5 139.5,-280.5 20.5,-280.5"/>
<text text-anchor="middle" x="80" y="-287.5" font-family="Helvetica,sans-Serif" font-size="10.00">boost/thread/mutex.hpp</text>
</g>
<!-- Node10&#45;&gt;Node12 -->
<g id="edge12" class="edge"><title>Node10&#45;&gt;Node12</title>
<path fill="none" stroke="midnightblue" d="M117.696,-342.403C111.096,-333.403 100.563,-319.041 92.3071,-307.782"/>
<polygon fill="midnightblue" stroke="midnightblue" points="95.0285,-305.575 86.2924,-299.581 89.3837,-309.714 95.0285,-305.575"/>
</g>
<!-- Node15 -->
<g id="node15" class="node"><title>Node15</title>
<g id="a_node15"><a xlink:href="../../dc/d5c/sim3_8hpp.html" target="_top" xlink:title="sophus/sim3.hpp">
<polygon fill="white" stroke="black" points="859.5,-224.5 859.5,-243.5 950.5,-243.5 950.5,-224.5 859.5,-224.5"/>
<text text-anchor="middle" x="905" y="-231.5" font-family="Helvetica,sans-Serif" font-size="10.00">sophus/sim3.hpp</text>
</a>
</g>
</g>
<!-- Node14&#45;&gt;Node15 -->
<g id="edge15" class="edge"><title>Node14&#45;&gt;Node15</title>
<path fill="none" stroke="midnightblue" d="M939.23,-280.083C933.438,-272.455 924.942,-261.264 917.862,-251.941"/>
<polygon fill="midnightblue" stroke="midnightblue" points="920.479,-249.599 911.644,-243.751 914.904,-253.832 920.479,-249.599"/>
</g>
<!-- Node22 -->
<g id="node22" class="node"><title>Node22</title>
<g id="a_node22"><a xlink:href="../../d4/d4b/se3_8hpp.html" target="_top" xlink:title="sophus/se3.hpp">
<polygon fill="white" stroke="black" points="948,-168.5 948,-187.5 1034,-187.5 1034,-168.5 948,-168.5"/>
<text text-anchor="middle" x="991" y="-175.5" font-family="Helvetica,sans-Serif" font-size="10.00">sophus/se3.hpp</text>
</a>
</g>
</g>
<!-- Node14&#45;&gt;Node22 -->
<g id="edge23" class="edge"><title>Node14&#45;&gt;Node22</title>
<path fill="none" stroke="midnightblue" d="M949.531,-280.368C956.859,-262.456 973.85,-220.923 983.658,-196.948"/>
<polygon fill="midnightblue" stroke="midnightblue" points="986.938,-198.172 987.485,-187.591 980.46,-195.522 986.938,-198.172"/>
</g>
<!-- Node16 -->
<g id="node16" class="node"><title>Node16</title>
<g id="a_node16"><a xlink:href="../../d7/d6a/rxso3_8hpp.html" target="_top" xlink:title="rxso3.hpp">
<polygon fill="white" stroke="black" points="870.5,-168.5 870.5,-187.5 929.5,-187.5 929.5,-168.5 870.5,-168.5"/>
<text text-anchor="middle" x="900" y="-175.5" font-family="Helvetica,sans-Serif" font-size="10.00">rxso3.hpp</text>
</a>
</g>
</g>
<!-- Node15&#45;&gt;Node16 -->
<g id="edge16" class="edge"><title>Node15&#45;&gt;Node16</title>
<path fill="none" stroke="midnightblue" d="M904.174,-224.083C903.519,-217.006 902.58,-206.861 901.758,-197.986"/>
<polygon fill="midnightblue" stroke="midnightblue" points="905.217,-197.386 900.81,-187.751 898.247,-198.031 905.217,-197.386"/>
</g>
<!-- Node17 -->
<g id="node17" class="node"><title>Node17</title>
<g id="a_node17"><a xlink:href="../../d7/dc1/sophus_8hpp.html" target="_top" xlink:title="sophus.hpp">
<polygon fill="white" stroke="black" points="893.5,-56.5 893.5,-75.5 960.5,-75.5 960.5,-56.5 893.5,-56.5"/>
<text text-anchor="middle" x="927" y="-63.5" font-family="Helvetica,sans-Serif" font-size="10.00">sophus.hpp</text>
</a>
</g>
</g>
<!-- Node16&#45;&gt;Node17 -->
<g id="edge17" class="edge"><title>Node16&#45;&gt;Node17</title>
<path fill="none" stroke="midnightblue" d="M902.119,-168.368C906.476,-150.617 916.527,-109.666 922.435,-85.5974"/>
<polygon fill="midnightblue" stroke="midnightblue" points="925.906,-86.1375 924.891,-75.5914 919.108,-84.4688 925.906,-86.1375"/>
</g>
<!-- Node21 -->
<g id="node21" class="node"><title>Node21</title>
<g id="a_node21"><a xlink:href="../../de/de9/so3_8hpp.html" target="_top" xlink:title="so3.hpp">
<polygon fill="white" stroke="black" points="928.5,-112.5 928.5,-131.5 979.5,-131.5 979.5,-112.5 928.5,-112.5"/>
<text text-anchor="middle" x="954" y="-119.5" font-family="Helvetica,sans-Serif" font-size="10.00">so3.hpp</text>
</a>
</g>
</g>
<!-- Node16&#45;&gt;Node21 -->
<g id="edge21" class="edge"><title>Node16&#45;&gt;Node21</title>
<path fill="none" stroke="midnightblue" d="M908.917,-168.083C916.78,-160.22 928.431,-148.569 937.919,-139.081"/>
<polygon fill="midnightblue" stroke="midnightblue" points="940.653,-141.297 945.249,-131.751 935.703,-136.347 940.653,-141.297"/>
</g>
<!-- Node18 -->
<g id="node18" class="node"><title>Node18</title>
<polygon fill="white" stroke="#bfbfbf" points="815.5,-0.5 815.5,-19.5 874.5,-19.5 874.5,-0.5 815.5,-0.5"/>
<text text-anchor="middle" x="845" y="-7.5" font-family="Helvetica,sans-Serif" font-size="10.00">stdexcept</text>
</g>
<!-- Node17&#45;&gt;Node18 -->
<g id="edge18" class="edge"><title>Node17&#45;&gt;Node18</title>
<path fill="none" stroke="midnightblue" d="M913.825,-56.324C901.153,-47.979 881.767,-35.2122 866.794,-25.3524"/>
<polygon fill="midnightblue" stroke="midnightblue" points="868.419,-22.2313 858.142,-19.6545 864.569,-28.0776 868.419,-22.2313"/>
</g>
<!-- Node19 -->
<g id="node19" class="node"><title>Node19</title>
<polygon fill="white" stroke="#bfbfbf" points="892.5,-0.5 892.5,-19.5 961.5,-19.5 961.5,-0.5 892.5,-0.5"/>
<text text-anchor="middle" x="927" y="-7.5" font-family="Helvetica,sans-Serif" font-size="10.00">Eigen/Eigen</text>
</g>
<!-- Node17&#45;&gt;Node19 -->
<g id="edge19" class="edge"><title>Node17&#45;&gt;Node19</title>
<path fill="none" stroke="midnightblue" d="M927,-56.083C927,-49.0059 927,-38.8611 927,-29.9865"/>
<polygon fill="midnightblue" stroke="midnightblue" points="930.5,-29.751 927,-19.7511 923.5,-29.7511 930.5,-29.751"/>
</g>
<!-- Node20 -->
<g id="node20" class="node"><title>Node20</title>
<polygon fill="white" stroke="#bfbfbf" points="979.5,-0.5 979.5,-19.5 1066.5,-19.5 1066.5,-0.5 979.5,-0.5"/>
<text text-anchor="middle" x="1023" y="-7.5" font-family="Helvetica,sans-Serif" font-size="10.00">Eigen/Geometry</text>
</g>
<!-- Node17&#45;&gt;Node20 -->
<g id="edge20" class="edge"><title>Node17&#45;&gt;Node20</title>
<path fill="none" stroke="midnightblue" d="M942.424,-56.324C957.54,-47.8215 980.815,-34.7288 998.471,-24.7975"/>
<polygon fill="midnightblue" stroke="midnightblue" points="1000.61,-27.6077 1007.61,-19.6545 997.183,-21.5066 1000.61,-27.6077"/>
</g>
<!-- Node21&#45;&gt;Node17 -->
<g id="edge22" class="edge"><title>Node21&#45;&gt;Node17</title>
<path fill="none" stroke="midnightblue" d="M949.541,-112.083C945.846,-104.691 940.477,-93.9533 935.906,-84.8111"/>
<polygon fill="midnightblue" stroke="midnightblue" points="938.978,-83.1301 931.376,-75.7511 932.717,-86.2606 938.978,-83.1301"/>
</g>
<!-- Node22&#45;&gt;Node21 -->
<g id="edge24" class="edge"><title>Node22&#45;&gt;Node21</title>
<path fill="none" stroke="midnightblue" d="M984.89,-168.083C979.718,-160.534 972.154,-149.495 965.806,-140.23"/>
<polygon fill="midnightblue" stroke="midnightblue" points="968.536,-138.022 959.996,-131.751 962.761,-141.979 968.536,-138.022"/>
</g>
<!-- Node23&#45;&gt;Node3 -->
<g id="edge27" class="edge"><title>Node23&#45;&gt;Node3</title>
<path fill="none" stroke="midnightblue" d="M821.451,-342.467C775.685,-331.783 697.241,-313.469 647.315,-301.813"/>
<polygon fill="midnightblue" stroke="midnightblue" points="647.957,-298.369 637.423,-299.503 646.365,-305.185 647.957,-298.369"/>
</g>
<!-- Node23&#45;&gt;Node7 -->
<g id="edge26" class="edge"><title>Node23&#45;&gt;Node7</title>
<path fill="none" stroke="midnightblue" d="M835.506,-342.403C808.691,-332.156 763.685,-314.956 733.191,-303.302"/>
<polygon fill="midnightblue" stroke="midnightblue" points="734.043,-299.881 723.453,-299.581 731.544,-306.42 734.043,-299.881"/>
</g>
<!-- Node23&#45;&gt;Node14 -->
<g id="edge30" class="edge"><title>Node23&#45;&gt;Node14</title>
<path fill="none" stroke="midnightblue" d="M870.608,-342.403C884.723,-332.78 907.831,-317.024 924.749,-305.489"/>
<polygon fill="midnightblue" stroke="midnightblue" points="927.125,-308.106 933.415,-299.581 923.181,-302.322 927.125,-308.106"/>
</g>
<!-- Node24 -->
<g id="node24" class="node"><title>Node24</title>
<polygon fill="white" stroke="#bfbfbf" points="765,-280.5 765,-299.5 811,-299.5 811,-280.5 765,-280.5"/>
<text text-anchor="middle" x="788" y="-287.5" font-family="Helvetica,sans-Serif" font-size="10.00">stdio.h</text>
</g>
<!-- Node23&#45;&gt;Node24 -->
<g id="edge28" class="edge"><title>Node23&#45;&gt;Node24</title>
<path fill="none" stroke="midnightblue" d="M847.971,-342.403C836.951,-332.958 819.04,-317.606 805.657,-306.134"/>
<polygon fill="midnightblue" stroke="midnightblue" points="807.881,-303.431 798.011,-299.581 803.325,-308.746 807.881,-303.431"/>
</g>
<!-- Node25 -->
<g id="node25" class="node"><title>Node25</title>
<polygon fill="white" stroke="#bfbfbf" points="829,-280.5 829,-299.5 883,-299.5 883,-280.5 829,-280.5"/>
<text text-anchor="middle" x="856" y="-287.5" font-family="Helvetica,sans-Serif" font-size="10.00">iostream</text>
</g>
<!-- Node23&#45;&gt;Node25 -->
<g id="edge29" class="edge"><title>Node23&#45;&gt;Node25</title>
<path fill="none" stroke="midnightblue" d="M857.713,-342.403C857.431,-333.938 856.991,-320.728 856.627,-309.82"/>
<polygon fill="midnightblue" stroke="midnightblue" points="860.117,-309.458 856.286,-299.581 853.121,-309.692 860.117,-309.458"/>
</g>
</g>
</svg>
        <g id="navigator" transform="translate(0 0)" fill="#404254">
                <rect fill="#f2f5e9" fill-opacity="0.5" stroke="#606060" stroke-width=".5" x="0" y="0" width="60" height="60"/>
                <use id="zoomplus" xlink:href="#zoomPlus" x="17" y="9" onmousedown="handleZoom(evt,'in')"/>
                <use id="zoomminus" xlink:href="#zoomMin" x="42" y="9" onmousedown="handleZoom(evt,'out')"/>
                <use id="reset" xlink:href="#resetDef" x="30" y="36" onmousedown="handleReset()"/>
                <g id="arrowUp" xlink:href="#dirArrow" transform="translate(30 24)" onmousedown="handlePan(0,-1)">
                  <use xlink:href="#rim" fill="#404040">
                        <set attributeName="fill" to="#808080" begin="arrowUp.mouseover" end="arrowUp.mouseout"/>
                  </use>
                  <path fill="none" stroke="white" stroke-width="1.5" d="M0,-3.0v7 M-2.5,-0.5L0,-3.0L2.5,-0.5"/>
                </g>
                <g id="arrowRight" xlink:href="#dirArrow" transform="rotate(90) translate(36 -43)" onmousedown="handlePan(1,0)">
                  <use xlink:href="#rim" fill="#404040">
                        <set attributeName="fill" to="#808080" begin="arrowRight.mouseover" end="arrowRight.mouseout"/>
                  </use>
                  <path fill="none" stroke="white" stroke-width="1.5" d="M0,-3.0v7 M-2.5,-0.5L0,-3.0L2.5,-0.5"/>
                </g>
                <g id="arrowDown" xlink:href="#dirArrow" transform="rotate(180) translate(-30 -48)" onmousedown="handlePan(0,1)">
                  <use xlink:href="#rim" fill="#404040">
                        <set attributeName="fill" to="#808080" begin="arrowDown.mouseover" end="arrowDown.mouseout"/>
                  </use>
                  <path fill="none" stroke="white" stroke-width="1.5" d="M0,-3.0v7 M-2.5,-0.5L0,-3.0L2.5,-0.5"/>
                </g>
                <g id="arrowLeft" xlink:href="#dirArrow" transform="rotate(270) translate(-36 17)" onmousedown="handlePan(-1,0)">
                  <use xlink:href="#rim" fill="#404040">
                        <set attributeName="fill" to="#808080" begin="arrowLeft.mouseover" end="arrowLeft.mouseout"/>
                  </use>
                  <path fill="none" stroke="white" stroke-width="1.5" d="M0,-3.0v7 M-2.5,-0.5L0,-3.0L2.5,-0.5"/>
                </g>
        </g>
        <svg viewBox="0 0 15 15" width="100%" height="30px" preserveAspectRatio="xMaxYMin meet">
         <g id="arrow_out" transform="scale(0.3 0.3)">
          <a xlink:href="SlamSystem_8h__incl_org.svg" target="_base">
           <rect id="button" ry="5" rx="5" y="6" x="6" height="38" width="38"
                fill="#f2f5e9" fill-opacity="0.5" stroke="#606060" stroke-width="1.0"/>
           <path id="arrow"
             d="M 11.500037,31.436501 C 11.940474,20.09759 22.043105,11.32322 32.158766,21.979434 L 37.068811,17.246167 C 37.068811,17.246167 37.088388,32 37.088388,32 L 22.160133,31.978069 C 22.160133,31.978069 26.997745,27.140456 26.997745,27.140456 C 18.528582,18.264221 13.291696,25.230495 11.500037,31.436501 z"
             style="fill:#404040;"/>
          </a>
         </g>
        </svg>
</svg>
