<?xml version="1.0" encoding="UTF-8" standalone="no"?>
<!DOCTYPE svg PUBLIC "-//W3C//DTD SVG 1.1//EN"
 "http://www.w3.org/Graphics/SVG/1.1/DTD/svg11.dtd">
<!-- Generated by graphviz version 2.36.0 (20140111.2315)
 -->
<!-- Title: src/header.cpp Pages: 1 -->
<svg width="264pt" height="152pt"
 viewBox="0.00 0.00 264.00 152.00" xmlns="http://www.w3.org/2000/svg" xmlns:xlink="http://www.w3.org/1999/xlink">
<g id="graph0" class="graph" transform="scale(1 1) rotate(0) translate(4 148)">
<title>src/header.cpp</title>
<polygon fill="white" stroke="none" points="-4,4 -4,-148 260,-148 260,4 -4,4"/>
<!-- Node1 -->
<g id="node1" class="node"><title>Node1</title>
<polygon fill="#bfbfbf" stroke="black" points="115.5,-124.5 115.5,-143.5 196.5,-143.5 196.5,-124.5 115.5,-124.5"/>
<text text-anchor="middle" x="156" y="-131.5" font-family="Helvetica,sans-Serif" font-size="10.00">src/header.cpp</text>
</g>
<!-- Node2 -->
<g id="node2" class="node"><title>Node2</title>
<g id="a_node2"><a xlink:href="../../df/dcb/header_8h.html" target="_top" xlink:title="header.h">
<polygon fill="white" stroke="black" points="81,-62.5 81,-81.5 135,-81.5 135,-62.5 81,-62.5"/>
<text text-anchor="middle" x="108" y="-69.5" font-family="Helvetica,sans-Serif" font-size="10.00">header.h</text>
</a>
</g>
</g>
<!-- Node1&#45;&gt;Node2 -->
<g id="edge1" class="edge"><title>Node1&#45;&gt;Node2</title>
<path fill="none" stroke="midnightblue" d="M149.123,-124.403C141.851,-115.314 130.205,-100.756 121.159,-89.4489"/>
<polygon fill="midnightblue" stroke="midnightblue" points="123.845,-87.2029 114.864,-81.5806 118.378,-91.5757 123.845,-87.2029"/>
</g>
<!-- Node5 -->
<g id="node5" class="node"><title>Node5</title>
<polygon fill="white" stroke="#bfbfbf" points="153.5,-57 153.5,-87 256.5,-87 256.5,-57 153.5,-57"/>
<text text-anchor="start" x="161.5" y="-75" font-family="Helvetica,sans-Serif" font-size="10.00">pcl_conversions/pcl</text>
<text text-anchor="middle" x="205" y="-64" font-family="Helvetica,sans-Serif" font-size="10.00">_conversions.h</text>
</g>
<!-- Node1&#45;&gt;Node5 -->
<g id="edge4" class="edge"><title>Node1&#45;&gt;Node5</title>
<path fill="none" stroke="midnightblue" d="M163.021,-124.403C169.285,-116.733 178.73,-105.167 187.076,-94.9478"/>
<polygon fill="midnightblue" stroke="midnightblue" points="189.837,-97.1 193.452,-87.1408 184.415,-92.6723 189.837,-97.1"/>
</g>
<!-- Node3 -->
<g id="node3" class="node"><title>Node3</title>
<polygon fill="white" stroke="#bfbfbf" points="0,-0.5 0,-19.5 102,-19.5 102,-0.5 0,-0.5"/>
<text text-anchor="middle" x="51" y="-7.5" font-family="Helvetica,sans-Serif" font-size="10.00">std_msgs/Header.h</text>
</g>
<!-- Node2&#45;&gt;Node3 -->
<g id="edge2" class="edge"><title>Node2&#45;&gt;Node3</title>
<path fill="none" stroke="midnightblue" d="M99.8333,-62.4035C91.1139,-53.2252 77.0964,-38.4699 66.3114,-27.1173"/>
<polygon fill="midnightblue" stroke="midnightblue" points="68.5766,-24.42 59.1516,-19.5806 63.5016,-29.2412 68.5766,-24.42"/>
</g>
<!-- Node4 -->
<g id="node4" class="node"><title>Node4</title>
<polygon fill="white" stroke="#bfbfbf" points="120,-0.5 120,-19.5 212,-19.5 212,-0.5 120,-0.5"/>
<text text-anchor="middle" x="166" y="-7.5" font-family="Helvetica,sans-Serif" font-size="10.00">pcl/PCLHeader.h</text>
</g>
<!-- Node2&#45;&gt;Node4 -->
<g id="edge3" class="edge"><title>Node2&#45;&gt;Node4</title>
<path fill="none" stroke="midnightblue" d="M116.31,-62.4035C125.268,-53.1361 139.723,-38.1828 150.739,-26.7876"/>
<polygon fill="midnightblue" stroke="midnightblue" points="153.272,-29.2031 157.705,-19.5806 148.239,-24.3379 153.272,-29.2031"/>
</g>
</g>
</svg>
