<?xml version="1.0" encoding="UTF-8" standalone="no"?>
<!DOCTYPE svg PUBLIC "-//W3C//DTD SVG 1.1//EN"
 "http://www.w3.org/Graphics/SVG/1.1/DTD/svg11.dtd">
<!-- Generated by graphviz version 2.36.0 (20140111.2315)
 -->
<!-- Title: external/gicp/ann_1.1.2/src/kd_pr_search.cpp Pages: 1 -->
<svg width="385pt" height="376pt"
 viewBox="0.00 0.00 384.89 376.00" xmlns="http://www.w3.org/2000/svg" xmlns:xlink="http://www.w3.org/1999/xlink">
<g id="graph0" class="graph" transform="scale(1 1) rotate(0) translate(4 372)">
<title>external/gicp/ann_1.1.2/src/kd_pr_search.cpp</title>
<polygon fill="white" stroke="none" points="-4,4 -4,-372 380.891,-372 380.891,4 -4,4"/>
<!-- Node1 -->
<g id="node1" class="node"><title>Node1</title>
<polygon fill="#bfbfbf" stroke="black" points="57.8907,-337 57.8907,-367 175.891,-367 175.891,-337 57.8907,-337"/>
<text text-anchor="start" x="65.8907" y="-355" font-family="Helvetica,sans-Serif" font-size="10.00">external/gicp/ann_1.1.2</text>
<text text-anchor="middle" x="116.891" y="-344" font-family="Helvetica,sans-Serif" font-size="10.00">/src/kd_pr_search.cpp</text>
</g>
<!-- Node2 -->
<g id="node2" class="node"><title>Node2</title>
<g id="a_node2"><a xlink:href="../../d5/d23/kd__pr__search_8h.html" target="_top" xlink:title="kd_pr_search.h">
<polygon fill="white" stroke="black" points="75.3907,-280.5 75.3907,-299.5 158.391,-299.5 158.391,-280.5 75.3907,-280.5"/>
<text text-anchor="middle" x="116.891" y="-287.5" font-family="Helvetica,sans-Serif" font-size="10.00">kd_pr_search.h</text>
</a>
</g>
</g>
<!-- Node1&#45;&gt;Node2 -->
<g id="edge1" class="edge"><title>Node1&#45;&gt;Node2</title>
<path fill="none" stroke="midnightblue" d="M116.891,-336.781C116.891,-328.781 116.891,-318.689 116.891,-310.017"/>
<polygon fill="midnightblue" stroke="midnightblue" points="120.391,-309.73 116.891,-299.731 113.391,-309.731 120.391,-309.73"/>
</g>
<!-- Node3 -->
<g id="node3" class="node"><title>Node3</title>
<g id="a_node3"><a xlink:href="../../da/dd0/kd__tree_8h.html" target="_top" xlink:title="kd_tree.h">
<polygon fill="white" stroke="black" points="11.3907,-168.5 11.3907,-187.5 68.3907,-187.5 68.3907,-168.5 11.3907,-168.5"/>
<text text-anchor="middle" x="39.8907" y="-175.5" font-family="Helvetica,sans-Serif" font-size="10.00">kd_tree.h</text>
</a>
</g>
</g>
<!-- Node2&#45;&gt;Node3 -->
<g id="edge2" class="edge"><title>Node2&#45;&gt;Node3</title>
<path fill="none" stroke="midnightblue" d="M75.181,-284.037C49.9882,-278.651 19.7721,-267.419 3.89068,-244 -7.10539,-227.785 7.61618,-207.932 21.411,-194.465"/>
<polygon fill="midnightblue" stroke="midnightblue" points="23.789,-197.033 28.8102,-187.704 19.067,-191.866 23.789,-197.033"/>
</g>
<!-- Node13 -->
<g id="node13" class="node"><title>Node13</title>
<g id="a_node13"><a xlink:href="../../d7/de2/kd__util_8h.html" target="_top" xlink:title="kd_util.h">
<polygon fill="white" stroke="black" points="13.3907,-224.5 13.3907,-243.5 66.3907,-243.5 66.3907,-224.5 13.3907,-224.5"/>
<text text-anchor="middle" x="39.8907" y="-231.5" font-family="Helvetica,sans-Serif" font-size="10.00">kd_util.h</text>
</a>
</g>
</g>
<!-- Node2&#45;&gt;Node13 -->
<g id="edge12" class="edge"><title>Node2&#45;&gt;Node13</title>
<path fill="none" stroke="midnightblue" d="M104.519,-280.324C92.7322,-272.058 74.7584,-259.453 60.7552,-249.632"/>
<polygon fill="midnightblue" stroke="midnightblue" points="62.4283,-246.531 52.2314,-243.655 58.4091,-252.262 62.4283,-246.531"/>
</g>
<!-- Node14 -->
<g id="node14" class="node"><title>Node14</title>
<g id="a_node14"><a xlink:href="../../d7/da1/pr__queue_8h.html" target="_top" xlink:title="pr_queue.h">
<polygon fill="white" stroke="black" points="84.3907,-224.5 84.3907,-243.5 149.391,-243.5 149.391,-224.5 84.3907,-224.5"/>
<text text-anchor="middle" x="116.891" y="-231.5" font-family="Helvetica,sans-Serif" font-size="10.00">pr_queue.h</text>
</a>
</g>
</g>
<!-- Node2&#45;&gt;Node14 -->
<g id="edge14" class="edge"><title>Node2&#45;&gt;Node14</title>
<path fill="none" stroke="midnightblue" d="M116.891,-280.083C116.891,-273.006 116.891,-262.861 116.891,-253.986"/>
<polygon fill="midnightblue" stroke="midnightblue" points="120.391,-253.751 116.891,-243.751 113.391,-253.751 120.391,-253.751"/>
</g>
<!-- Node15 -->
<g id="node15" class="node"><title>Node15</title>
<g id="a_node15"><a xlink:href="../../da/d50/ANNperf_8h.html" target="_top" xlink:title="ANN/ANNperf.h">
<polygon fill="white" stroke="black" points="172.891,-168.5 172.891,-187.5 260.891,-187.5 260.891,-168.5 172.891,-168.5"/>
<text text-anchor="middle" x="216.891" y="-175.5" font-family="Helvetica,sans-Serif" font-size="10.00">ANN/ANNperf.h</text>
</a>
</g>
</g>
<!-- Node2&#45;&gt;Node15 -->
<g id="edge21" class="edge"><title>Node2&#45;&gt;Node15</title>
<path fill="none" stroke="midnightblue" d="M158.585,-287.289C189.609,-283.563 230.045,-272.99 250.891,-244 262.078,-228.442 248.368,-208.717 235.164,-195.099"/>
<polygon fill="midnightblue" stroke="midnightblue" points="237.274,-192.272 227.64,-187.864 232.422,-197.318 237.274,-192.272"/>
</g>
<!-- Node16 -->
<g id="node16" class="node"><title>Node16</title>
<g id="a_node16"><a xlink:href="../../d4/d04/pr__queue__k_8h.html" target="_top" xlink:title="pr_queue_k.h">
<polygon fill="white" stroke="black" points="167.391,-224.5 167.391,-243.5 242.391,-243.5 242.391,-224.5 167.391,-224.5"/>
<text text-anchor="middle" x="204.891" y="-231.5" font-family="Helvetica,sans-Serif" font-size="10.00">pr_queue_k.h</text>
</a>
</g>
</g>
<!-- Node2&#45;&gt;Node16 -->
<g id="edge18" class="edge"><title>Node2&#45;&gt;Node16</title>
<path fill="none" stroke="midnightblue" d="M131.029,-280.324C144.757,-271.9 165.827,-258.971 181.955,-249.074"/>
<polygon fill="midnightblue" stroke="midnightblue" points="184.094,-251.868 190.787,-243.655 180.433,-245.902 184.094,-251.868"/>
</g>
<!-- Node4 -->
<g id="node4" class="node"><title>Node4</title>
<g id="a_node4"><a xlink:href="../../d5/d32/ANNx_8h.html" target="_top" xlink:title="ANN/ANNx.h">
<polygon fill="white" stroke="black" points="72.3907,-112.5 72.3907,-131.5 149.391,-131.5 149.391,-112.5 72.3907,-112.5"/>
<text text-anchor="middle" x="110.891" y="-119.5" font-family="Helvetica,sans-Serif" font-size="10.00">ANN/ANNx.h</text>
</a>
</g>
</g>
<!-- Node3&#45;&gt;Node4 -->
<g id="edge3" class="edge"><title>Node3&#45;&gt;Node4</title>
<path fill="none" stroke="midnightblue" d="M51.2981,-168.324C61.9995,-160.185 78.2313,-147.839 91.0535,-138.087"/>
<polygon fill="midnightblue" stroke="midnightblue" points="93.4351,-140.673 99.2757,-131.834 89.1975,-135.102 93.4351,-140.673"/>
</g>
<!-- Node5 -->
<g id="node5" class="node"><title>Node5</title>
<polygon fill="white" stroke="#bfbfbf" points="85.8907,-56.5 85.8907,-75.5 135.891,-75.5 135.891,-56.5 85.8907,-56.5"/>
<text text-anchor="middle" x="110.891" y="-63.5" font-family="Helvetica,sans-Serif" font-size="10.00">iomanip</text>
</g>
<!-- Node4&#45;&gt;Node5 -->
<g id="edge4" class="edge"><title>Node4&#45;&gt;Node5</title>
<path fill="none" stroke="midnightblue" d="M110.891,-112.083C110.891,-105.006 110.891,-94.8611 110.891,-85.9865"/>
<polygon fill="midnightblue" stroke="midnightblue" points="114.391,-85.751 110.891,-75.7511 107.391,-85.7511 114.391,-85.751"/>
</g>
<!-- Node6 -->
<g id="node6" class="node"><title>Node6</title>
<g id="a_node6"><a xlink:href="../../d8/da9/ANN_8h.html" target="_top" xlink:title="ANN/ANN.h">
<polygon fill="white" stroke="black" points="162.391,-56.5 162.391,-75.5 233.391,-75.5 233.391,-56.5 162.391,-56.5"/>
<text text-anchor="middle" x="197.891" y="-63.5" font-family="Helvetica,sans-Serif" font-size="10.00">ANN/ANN.h</text>
</a>
</g>
</g>
<!-- Node4&#45;&gt;Node6 -->
<g id="edge5" class="edge"><title>Node4&#45;&gt;Node6</title>
<path fill="none" stroke="midnightblue" d="M124.869,-112.324C138.44,-103.9 159.271,-90.9709 175.216,-81.0741"/>
<polygon fill="midnightblue" stroke="midnightblue" points="177.297,-83.9019 183.947,-75.6545 173.605,-77.9544 177.297,-83.9019"/>
</g>
<!-- Node7 -->
<g id="node7" class="node"><title>Node7</title>
<polygon fill="white" stroke="#bfbfbf" points="11.3907,-0.5 11.3907,-19.5 56.3907,-19.5 56.3907,-0.5 11.3907,-0.5"/>
<text text-anchor="middle" x="33.8907" y="-7.5" font-family="Helvetica,sans-Serif" font-size="10.00">cstdlib</text>
</g>
<!-- Node6&#45;&gt;Node7 -->
<g id="edge6" class="edge"><title>Node6&#45;&gt;Node7</title>
<path fill="none" stroke="midnightblue" d="M171.904,-56.4435C143.341,-47.0385 97.4079,-31.9142 66.4605,-21.7242"/>
<polygon fill="midnightblue" stroke="midnightblue" points="67.1795,-18.2762 56.5865,-18.473 64.9902,-24.925 67.1795,-18.2762"/>
</g>
<!-- Node8 -->
<g id="node8" class="node"><title>Node8</title>
<polygon fill="white" stroke="#bfbfbf" points="74.8907,-0.5 74.8907,-19.5 118.891,-19.5 118.891,-0.5 74.8907,-0.5"/>
<text text-anchor="middle" x="96.8907" y="-7.5" font-family="Helvetica,sans-Serif" font-size="10.00">cmath</text>
</g>
<!-- Node6&#45;&gt;Node8 -->
<g id="edge7" class="edge"><title>Node6&#45;&gt;Node8</title>
<path fill="none" stroke="midnightblue" d="M181.663,-56.324C165.54,-47.7034 140.591,-34.3643 121.927,-24.3855"/>
<polygon fill="midnightblue" stroke="midnightblue" points="123.547,-21.283 113.078,-19.6545 120.246,-27.456 123.547,-21.283"/>
</g>
<!-- Node9 -->
<g id="node9" class="node"><title>Node9</title>
<polygon fill="white" stroke="#bfbfbf" points="136.891,-0.5 136.891,-19.5 190.891,-19.5 190.891,-0.5 136.891,-0.5"/>
<text text-anchor="middle" x="163.891" y="-7.5" font-family="Helvetica,sans-Serif" font-size="10.00">iostream</text>
</g>
<!-- Node6&#45;&gt;Node9 -->
<g id="edge8" class="edge"><title>Node6&#45;&gt;Node9</title>
<path fill="none" stroke="midnightblue" d="M192.276,-56.083C187.523,-48.5341 180.573,-37.4948 174.739,-28.2298"/>
<polygon fill="midnightblue" stroke="midnightblue" points="177.691,-26.3486 169.401,-19.7511 171.767,-30.0783 177.691,-26.3486"/>
</g>
<!-- Node10 -->
<g id="node10" class="node"><title>Node10</title>
<polygon fill="white" stroke="#bfbfbf" points="208.891,-0.5 208.891,-19.5 254.891,-19.5 254.891,-0.5 208.891,-0.5"/>
<text text-anchor="middle" x="231.891" y="-7.5" font-family="Helvetica,sans-Serif" font-size="10.00">cstring</text>
</g>
<!-- Node6&#45;&gt;Node10 -->
<g id="edge9" class="edge"><title>Node6&#45;&gt;Node10</title>
<path fill="none" stroke="midnightblue" d="M203.505,-56.083C208.258,-48.5341 215.209,-37.4948 221.042,-28.2298"/>
<polygon fill="midnightblue" stroke="midnightblue" points="224.014,-30.0783 226.381,-19.7511 218.091,-26.3486 224.014,-30.0783"/>
</g>
<!-- Node11 -->
<g id="node11" class="node"><title>Node11</title>
<polygon fill="white" stroke="#bfbfbf" points="273.391,-0.5 273.391,-19.5 318.391,-19.5 318.391,-0.5 273.391,-0.5"/>
<text text-anchor="middle" x="295.891" y="-7.5" font-family="Helvetica,sans-Serif" font-size="10.00">climits</text>
</g>
<!-- Node6&#45;&gt;Node11 -->
<g id="edge10" class="edge"><title>Node6&#45;&gt;Node11</title>
<path fill="none" stroke="midnightblue" d="M213.636,-56.324C229.209,-47.7428 253.268,-34.486 271.35,-24.5224"/>
<polygon fill="midnightblue" stroke="midnightblue" points="273.115,-27.546 280.184,-19.6545 269.737,-21.4152 273.115,-27.546"/>
</g>
<!-- Node12 -->
<g id="node12" class="node"><title>Node12</title>
<polygon fill="white" stroke="#bfbfbf" points="336.391,-0.5 336.391,-19.5 377.391,-19.5 377.391,-0.5 336.391,-0.5"/>
<text text-anchor="middle" x="356.891" y="-7.5" font-family="Helvetica,sans-Serif" font-size="10.00">cfloat</text>
</g>
<!-- Node6&#45;&gt;Node12 -->
<g id="edge11" class="edge"><title>Node6&#45;&gt;Node12</title>
<path fill="none" stroke="midnightblue" d="M223.085,-56.4435C251.249,-46.8782 296.833,-31.3969 326.835,-21.2075"/>
<polygon fill="midnightblue" stroke="midnightblue" points="328.022,-24.501 336.365,-17.971 325.771,-17.8728 328.022,-24.501"/>
</g>
<!-- Node13&#45;&gt;Node3 -->
<g id="edge13" class="edge"><title>Node13&#45;&gt;Node3</title>
<path fill="none" stroke="midnightblue" d="M39.8907,-224.083C39.8907,-217.006 39.8907,-206.861 39.8907,-197.986"/>
<polygon fill="midnightblue" stroke="midnightblue" points="43.3908,-197.751 39.8907,-187.751 36.3908,-197.751 43.3908,-197.751"/>
</g>
<!-- Node14&#45;&gt;Node4 -->
<g id="edge15" class="edge"><title>Node14&#45;&gt;Node4</title>
<path fill="none" stroke="midnightblue" d="M116.42,-224.368C115.452,-206.617 113.218,-165.666 111.905,-141.597"/>
<polygon fill="midnightblue" stroke="midnightblue" points="115.399,-141.386 111.359,-131.591 108.409,-141.767 115.399,-141.386"/>
</g>
<!-- Node14&#45;&gt;Node15 -->
<g id="edge16" class="edge"><title>Node14&#45;&gt;Node15</title>
<path fill="none" stroke="midnightblue" d="M132.957,-224.324C148.848,-215.743 173.398,-202.486 191.849,-192.522"/>
<polygon fill="midnightblue" stroke="midnightblue" points="193.728,-195.486 200.864,-187.655 190.402,-189.326 193.728,-195.486"/>
</g>
<!-- Node15&#45;&gt;Node6 -->
<g id="edge17" class="edge"><title>Node15&#45;&gt;Node6</title>
<path fill="none" stroke="midnightblue" d="M215.4,-168.368C212.334,-150.617 205.26,-109.666 201.103,-85.5974"/>
<polygon fill="midnightblue" stroke="midnightblue" points="204.526,-84.8498 199.375,-75.5914 197.628,-86.0413 204.526,-84.8498"/>
</g>
<!-- Node16&#45;&gt;Node4 -->
<g id="edge19" class="edge"><title>Node16&#45;&gt;Node4</title>
<path fill="none" stroke="midnightblue" d="M196.889,-224.499C188.519,-215.544 175.07,-200.968 163.891,-188 149.986,-171.871 134.671,-152.957 124.095,-139.703"/>
<polygon fill="midnightblue" stroke="midnightblue" points="126.567,-137.189 117.606,-131.536 121.086,-141.543 126.567,-137.189"/>
</g>
<!-- Node16&#45;&gt;Node15 -->
<g id="edge20" class="edge"><title>Node16&#45;&gt;Node15</title>
<path fill="none" stroke="midnightblue" d="M206.872,-224.083C208.462,-216.927 210.75,-206.635 212.737,-197.691"/>
<polygon fill="midnightblue" stroke="midnightblue" points="216.193,-198.272 214.946,-187.751 209.36,-196.754 216.193,-198.272"/>
</g>
</g>
</svg>
