<?xml version="1.0" encoding="UTF-8" standalone="no"?>
<!DOCTYPE svg PUBLIC "-//W3C//DTD SVG 1.1//EN"
 "http://www.w3.org/Graphics/SVG/1.1/DTD/svg11.dtd">
<!-- Generated by graphviz version 2.36.0 (20140111.2315)
 -->
<!-- Title: src/ColorOctomapServer.h Pages: 1 -->
<svg width="852pt" height="196pt"
 viewBox="0.00 0.00 852.00 196.00" xmlns="http://www.w3.org/2000/svg" xmlns:xlink="http://www.w3.org/1999/xlink">
<g id="graph0" class="graph" transform="scale(1 1) rotate(0) translate(4 192)">
<title>src/ColorOctomapServer.h</title>
<polygon fill="white" stroke="none" points="-4,4 -4,-192 848,-192 848,4 -4,4"/>
<!-- Node1 -->
<g id="node1" class="node"><title>Node1</title>
<polygon fill="#bfbfbf" stroke="black" points="264.5,-168.5 264.5,-187.5 397.5,-187.5 397.5,-168.5 264.5,-168.5"/>
<text text-anchor="middle" x="331" y="-175.5" font-family="Helvetica,sans-Serif" font-size="10.00">src/ColorOctomapServer.h</text>
</g>
<!-- Node2 -->
<g id="node2" class="node"><title>Node2</title>
<g id="a_node2"><a xlink:href="../../de/dab/ColorOctomapServer_8cpp.html" target="_top" xlink:title="src/ColorOctomapServer.cpp">
<polygon fill="white" stroke="black" points="187.5,-112.5 187.5,-131.5 330.5,-131.5 330.5,-112.5 187.5,-112.5"/>
<text text-anchor="middle" x="259" y="-119.5" font-family="Helvetica,sans-Serif" font-size="10.00">src/ColorOctomapServer.cpp</text>
</a>
</g>
</g>
<!-- Node1&#45;&gt;Node2 -->
<g id="edge1" class="edge"><title>Node1&#45;&gt;Node2</title>
<path fill="none" stroke="midnightblue" d="M311.134,-162.101C298.177,-152.382 281.703,-140.027 270.779,-131.834"/>
<polygon fill="midnightblue" stroke="midnightblue" points="309.332,-165.124 319.432,-168.324 313.532,-159.524 309.332,-165.124"/>
</g>
<!-- Node3 -->
<g id="node3" class="node"><title>Node3</title>
<g id="a_node3"><a xlink:href="../../de/d83/graph__manager_8h.html" target="_top" xlink:title="src/graph_manager.h">
<polygon fill="white" stroke="black" points="349,-112.5 349,-131.5 457,-131.5 457,-112.5 349,-112.5"/>
<text text-anchor="middle" x="403" y="-119.5" font-family="Helvetica,sans-Serif" font-size="10.00">src/graph_manager.h</text>
</a>
</g>
</g>
<!-- Node1&#45;&gt;Node3 -->
<g id="edge2" class="edge"><title>Node1&#45;&gt;Node3</title>
<path fill="none" stroke="midnightblue" d="M350.866,-162.101C363.823,-152.382 380.297,-140.027 391.221,-131.834"/>
<polygon fill="midnightblue" stroke="midnightblue" points="348.468,-159.524 342.568,-168.324 352.668,-165.124 348.468,-159.524"/>
</g>
<!-- Node4 -->
<g id="node4" class="node"><title>Node4</title>
<g id="a_node4"><a xlink:href="../../d4/d1a/graph__manager_8cpp.html" target="_top" xlink:title="src/graph_manager.cpp">
<polygon fill="white" stroke="black" points="-0.5,-56.5 -0.5,-75.5 118.5,-75.5 118.5,-56.5 -0.5,-56.5"/>
<text text-anchor="middle" x="59" y="-63.5" font-family="Helvetica,sans-Serif" font-size="10.00">src/graph_manager.cpp</text>
</a>
</g>
</g>
<!-- Node3&#45;&gt;Node4 -->
<g id="edge3" class="edge"><title>Node3&#45;&gt;Node4</title>
<path fill="none" stroke="midnightblue" d="M338.754,-110.915C273.811,-100.72 174.549,-85.1386 113.38,-75.5364"/>
<polygon fill="midnightblue" stroke="midnightblue" points="338.45,-114.41 348.872,-112.503 339.535,-107.495 338.45,-114.41"/>
</g>
<!-- Node5 -->
<g id="node5" class="node"><title>Node5</title>
<g id="a_node5"><a xlink:href="../../de/d74/graph__manager2_8cpp.html" target="_top" xlink:title="src/graph_manager2.cpp">
<polygon fill="white" stroke="black" points="137,-56.5 137,-75.5 261,-75.5 261,-56.5 137,-56.5"/>
<text text-anchor="middle" x="199" y="-63.5" font-family="Helvetica,sans-Serif" font-size="10.00">src/graph_manager2.cpp</text>
</a>
</g>
</g>
<!-- Node3&#45;&gt;Node5 -->
<g id="edge4" class="edge"><title>Node3&#45;&gt;Node5</title>
<path fill="none" stroke="midnightblue" d="M360.799,-109.829C322.282,-99.6333 266.178,-84.7823 231.173,-75.5164"/>
<polygon fill="midnightblue" stroke="midnightblue" points="360.113,-113.268 370.676,-112.444 361.904,-106.501 360.113,-113.268"/>
</g>
<!-- Node6 -->
<g id="node6" class="node"><title>Node6</title>
<g id="a_node6"><a xlink:href="../../de/da7/graph__mgr__io_8cpp.html" target="_top" xlink:title="src/graph_mgr_io.cpp">
<polygon fill="white" stroke="black" points="279,-56.5 279,-75.5 389,-75.5 389,-56.5 279,-56.5"/>
<text text-anchor="middle" x="334" y="-63.5" font-family="Helvetica,sans-Serif" font-size="10.00">src/graph_mgr_io.cpp</text>
</a>
</g>
</g>
<!-- Node3&#45;&gt;Node6 -->
<g id="edge5" class="edge"><title>Node3&#45;&gt;Node6</title>
<path fill="none" stroke="midnightblue" d="M383.962,-106.101C371.544,-96.3824 355.757,-84.0269 345.288,-75.8339"/>
<polygon fill="midnightblue" stroke="midnightblue" points="381.882,-108.917 391.914,-112.324 386.196,-103.405 381.882,-108.917"/>
</g>
<!-- Node7 -->
<g id="node7" class="node"><title>Node7</title>
<g id="a_node7"><a xlink:href="../../db/d8d/graph__mgr__odom_8cpp.html" target="_top" xlink:title="src/graph_mgr_odom.cpp">
<polygon fill="white" stroke="black" points="407.5,-56.5 407.5,-75.5 534.5,-75.5 534.5,-56.5 407.5,-56.5"/>
<text text-anchor="middle" x="471" y="-63.5" font-family="Helvetica,sans-Serif" font-size="10.00">src/graph_mgr_odom.cpp</text>
</a>
</g>
</g>
<!-- Node3&#45;&gt;Node7 -->
<g id="edge6" class="edge"><title>Node3&#45;&gt;Node7</title>
<path fill="none" stroke="midnightblue" d="M421.762,-106.101C434,-96.3824 449.559,-84.0269 459.876,-75.8339"/>
<polygon fill="midnightblue" stroke="midnightblue" points="419.58,-103.364 413.925,-112.324 423.933,-108.846 419.58,-103.364"/>
</g>
<!-- Node8 -->
<g id="node8" class="node"><title>Node8</title>
<g id="a_node8"><a xlink:href="../../dc/d7b/loop__closing_8cpp.html" target="_top" xlink:title="src/loop_closing.cpp">
<polygon fill="white" stroke="black" points="553,-56.5 553,-75.5 659,-75.5 659,-56.5 553,-56.5"/>
<text text-anchor="middle" x="606" y="-63.5" font-family="Helvetica,sans-Serif" font-size="10.00">src/loop_closing.cpp</text>
</a>
</g>
</g>
<!-- Node3&#45;&gt;Node8 -->
<g id="edge7" class="edge"><title>Node3&#45;&gt;Node8</title>
<path fill="none" stroke="midnightblue" d="M444.994,-109.829C483.323,-99.6333 539.152,-84.7823 573.985,-75.5164"/>
<polygon fill="midnightblue" stroke="midnightblue" points="443.93,-106.49 435.166,-112.444 445.73,-113.255 443.93,-106.49"/>
</g>
<!-- Node9 -->
<g id="node9" class="node"><title>Node9</title>
<g id="a_node9"><a xlink:href="../../dd/d53/openni__listener_8h.html" target="_top" xlink:title="src/openni_listener.h">
<polygon fill="white" stroke="black" points="676.5,-56.5 676.5,-75.5 783.5,-75.5 783.5,-56.5 676.5,-56.5"/>
<text text-anchor="middle" x="730" y="-63.5" font-family="Helvetica,sans-Serif" font-size="10.00">src/openni_listener.h</text>
</a>
</g>
</g>
<!-- Node3&#45;&gt;Node9 -->
<g id="edge8" class="edge"><title>Node3&#45;&gt;Node9</title>
<path fill="none" stroke="midnightblue" d="M464.823,-110.791C526.612,-100.587 620.528,-85.078 678.428,-75.5164"/>
<polygon fill="midnightblue" stroke="midnightblue" points="464.11,-107.361 454.814,-112.444 465.251,-114.267 464.11,-107.361"/>
</g>
<!-- Node10 -->
<g id="node10" class="node"><title>Node10</title>
<g id="a_node10"><a xlink:href="../../df/d0a/main_8cpp.html" target="_top" xlink:title="src/main.cpp">
<polygon fill="white" stroke="black" points="636.5,-0.5 636.5,-19.5 709.5,-19.5 709.5,-0.5 636.5,-0.5"/>
<text text-anchor="middle" x="673" y="-7.5" font-family="Helvetica,sans-Serif" font-size="10.00">src/main.cpp</text>
</a>
</g>
</g>
<!-- Node9&#45;&gt;Node10 -->
<g id="edge9" class="edge"><title>Node9&#45;&gt;Node10</title>
<path fill="none" stroke="midnightblue" d="M713.379,-49.2533C703.266,-39.6731 690.723,-27.7906 682.325,-19.8339"/>
<polygon fill="midnightblue" stroke="midnightblue" points="711.175,-51.9873 720.842,-56.324 715.99,-46.9056 711.175,-51.9873"/>
</g>
<!-- Node11 -->
<g id="node11" class="node"><title>Node11</title>
<g id="a_node11"><a xlink:href="../../db/d34/openni__listener_8cpp.html" target="_top" xlink:title="src/openni_listener.cpp">
<polygon fill="white" stroke="black" points="727.5,-0.5 727.5,-19.5 844.5,-19.5 844.5,-0.5 727.5,-0.5"/>
<text text-anchor="middle" x="786" y="-7.5" font-family="Helvetica,sans-Serif" font-size="10.00">src/openni_listener.cpp</text>
</a>
</g>
</g>
<!-- Node9&#45;&gt;Node11 -->
<g id="edge10" class="edge"><title>Node9&#45;&gt;Node11</title>
<path fill="none" stroke="midnightblue" d="M746.33,-49.2533C756.265,-39.6731 768.588,-27.7906 776.839,-19.8339"/>
<polygon fill="midnightblue" stroke="midnightblue" points="743.766,-46.8631 738.997,-56.324 748.625,-51.902 743.766,-46.8631"/>
</g>
</g>
</svg>
