<?xml version="1.0" encoding="UTF-8" standalone="no"?>
<!DOCTYPE svg PUBLIC "-//W3C//DTD SVG 1.1//EN"
 "http://www.w3.org/Graphics/SVG/1.1/DTD/svg11.dtd">
<!-- Generated by graphviz version 2.36.0 (20140111.2315)
 -->
<!-- Title: src/util/IndexThreadReduce.h Pages: 1 -->
<svg width="344pt" height="140pt"
 viewBox="0.00 0.00 344.00 140.00" xmlns="http://www.w3.org/2000/svg" xmlns:xlink="http://www.w3.org/1999/xlink">
<g id="graph0" class="graph" transform="scale(1 1) rotate(0) translate(4 136)">
<title>src/util/IndexThreadReduce.h</title>
<polygon fill="white" stroke="none" points="-4,4 -4,-136 340,-136 340,4 -4,4"/>
<!-- Node1 -->
<g id="node1" class="node"><title>Node1</title>
<polygon fill="#bfbfbf" stroke="black" points="125.5,-112.5 125.5,-131.5 270.5,-131.5 270.5,-112.5 125.5,-112.5"/>
<text text-anchor="middle" x="198" y="-119.5" font-family="Helvetica,sans-Serif" font-size="10.00">src/util/IndexThreadReduce.h</text>
</g>
<!-- Node2 -->
<g id="node2" class="node"><title>Node2</title>
<g id="a_node2"><a xlink:href="../../de/d60/settings_8h.html" target="_top" xlink:title="util/settings.h">
<polygon fill="white" stroke="black" points="17.5,-56.5 17.5,-75.5 92.5,-75.5 92.5,-56.5 17.5,-56.5"/>
<text text-anchor="middle" x="55" y="-63.5" font-family="Helvetica,sans-Serif" font-size="10.00">util/settings.h</text>
</a>
</g>
</g>
<!-- Node1&#45;&gt;Node2 -->
<g id="edge1" class="edge"><title>Node1&#45;&gt;Node2</title>
<path fill="none" stroke="midnightblue" d="M175.341,-112.444C151.598,-103.478 114.091,-89.314 87.2616,-79.1827"/>
<polygon fill="midnightblue" stroke="midnightblue" points="88.1445,-75.7749 77.5528,-75.5164 85.6715,-82.3235 88.1445,-75.7749"/>
</g>
<!-- Node5 -->
<g id="node5" class="node"><title>Node5</title>
<polygon fill="white" stroke="#bfbfbf" points="110.5,-56.5 110.5,-75.5 199.5,-75.5 199.5,-56.5 110.5,-56.5"/>
<text text-anchor="middle" x="155" y="-63.5" font-family="Helvetica,sans-Serif" font-size="10.00">boost/thread.hpp</text>
</g>
<!-- Node1&#45;&gt;Node5 -->
<g id="edge4" class="edge"><title>Node1&#45;&gt;Node5</title>
<path fill="none" stroke="midnightblue" d="M190.899,-112.083C184.763,-104.377 175.73,-93.0333 168.261,-83.6531"/>
<polygon fill="midnightblue" stroke="midnightblue" points="170.936,-81.3936 161.968,-75.7511 165.46,-85.7542 170.936,-81.3936"/>
</g>
<!-- Node6 -->
<g id="node6" class="node"><title>Node6</title>
<polygon fill="white" stroke="#bfbfbf" points="218,-56.5 218,-75.5 264,-75.5 264,-56.5 218,-56.5"/>
<text text-anchor="middle" x="241" y="-63.5" font-family="Helvetica,sans-Serif" font-size="10.00">stdio.h</text>
</g>
<!-- Node1&#45;&gt;Node6 -->
<g id="edge5" class="edge"><title>Node1&#45;&gt;Node6</title>
<path fill="none" stroke="midnightblue" d="M205.101,-112.083C211.237,-104.377 220.27,-93.0333 227.739,-83.6531"/>
<polygon fill="midnightblue" stroke="midnightblue" points="230.54,-85.7542 234.032,-75.7511 225.064,-81.3936 230.54,-85.7542"/>
</g>
<!-- Node7 -->
<g id="node7" class="node"><title>Node7</title>
<polygon fill="white" stroke="#bfbfbf" points="282,-56.5 282,-75.5 336,-75.5 336,-56.5 282,-56.5"/>
<text text-anchor="middle" x="309" y="-63.5" font-family="Helvetica,sans-Serif" font-size="10.00">iostream</text>
</g>
<!-- Node1&#45;&gt;Node7 -->
<g id="edge6" class="edge"><title>Node1&#45;&gt;Node7</title>
<path fill="none" stroke="midnightblue" d="M215.834,-112.324C233.716,-103.625 261.475,-90.1202 282.046,-80.113"/>
<polygon fill="midnightblue" stroke="midnightblue" points="283.749,-83.1765 291.21,-75.6545 280.687,-76.8819 283.749,-83.1765"/>
</g>
<!-- Node3 -->
<g id="node3" class="node"><title>Node3</title>
<polygon fill="white" stroke="#bfbfbf" points="-0.5,-0.5 -0.5,-19.5 48.5,-19.5 48.5,-0.5 -0.5,-0.5"/>
<text text-anchor="middle" x="24" y="-7.5" font-family="Helvetica,sans-Serif" font-size="10.00">string.h</text>
</g>
<!-- Node2&#45;&gt;Node3 -->
<g id="edge2" class="edge"><title>Node2&#45;&gt;Node3</title>
<path fill="none" stroke="midnightblue" d="M49.881,-56.083C45.5925,-48.6127 39.3418,-37.7244 34.0577,-28.5199"/>
<polygon fill="midnightblue" stroke="midnightblue" points="37.0379,-26.6811 29.0238,-19.7511 30.9671,-30.1662 37.0379,-26.6811"/>
</g>
<!-- Node4 -->
<g id="node4" class="node"><title>Node4</title>
<polygon fill="white" stroke="#bfbfbf" points="66.5,-0.5 66.5,-19.5 107.5,-19.5 107.5,-0.5 66.5,-0.5"/>
<text text-anchor="middle" x="87" y="-7.5" font-family="Helvetica,sans-Serif" font-size="10.00">string</text>
</g>
<!-- Node2&#45;&gt;Node4 -->
<g id="edge3" class="edge"><title>Node2&#45;&gt;Node4</title>
<path fill="none" stroke="midnightblue" d="M60.2841,-56.083C64.711,-48.6127 71.1633,-37.7244 76.6179,-28.5199"/>
<polygon fill="midnightblue" stroke="midnightblue" points="79.7271,-30.1383 81.8142,-19.7511 73.7051,-26.5697 79.7271,-30.1383"/>
</g>
</g>
</svg>
