<?xml version="1.0" encoding="UTF-8" standalone="no"?>
<!DOCTYPE svg PUBLIC "-//W3C//DTD SVG 1.1//EN"
 "http://www.w3.org/Graphics/SVG/1.1/DTD/svg11.dtd">
<!-- Generated by graphviz version 2.36.0 (20140111.2315)
 -->
<!-- Title: src/node.h Pages: 1 -->
<!--zoomable 208 -->
<svg id="main" version="1.1" xmlns="http://www.w3.org/2000/svg" xmlns:xlink="http://www.w3.org/1999/xlink" xml:space="preserve" onload="init(evt)">
<style type="text/css"><![CDATA[
.edge:hover path { stroke: red; }
.edge:hover polygon { stroke: red; fill: red; }
]]></style>
<script type="text/javascript"><![CDATA[
var edges = document.getElementsByTagName('g');
if (edges && edges.length) {
  for (var i=0;i<edges.length;i++) {
    if (edges[i].id.substr(0,4)=='edge') {
      edges[i].setAttribute('class','edge');
    }
  }
}
]]></script>
        <defs>
                <circle id="rim" cx="0" cy="0" r="7"/>
                <circle id="rim2" cx="0" cy="0" r="3.5"/>
                <g id="zoomPlus">
                        <use xlink:href="#rim" fill="#404040">
                                <set attributeName="fill" to="#808080" begin="zoomplus.mouseover" end="zoomplus.mouseout"/>
                        </use>
                        <path d="M-4,0h8M0,-4v8" fill="none" stroke="white" stroke-width="1.5" pointer-events="none"/>
                </g>
                <g id="zoomMin">
                        <use xlink:href="#rim" fill="#404040">
                                <set attributeName="fill" to="#808080" begin="zoomminus.mouseover" end="zoomminus.mouseout"/>
                        </use>
                        <path d="M-4,0h8" fill="none" stroke="white" stroke-width="1.5" pointer-events="none"/>
                </g>
                <g id="dirArrow">
                        <path fill="none" stroke="white" stroke-width="1.5" d="M0,-3.0v7 M-2.5,-0.5L0,-3.0L2.5,-0.5"/>
                </g>
               <g id="resetDef">
                       <use xlink:href="#rim2" fill="#404040">
                               <set attributeName="fill" to="#808080" begin="reset.mouseover" end="reset.mouseout"/>
                       </use>
               </g>
        </defs>

<script type="text/javascript">
var viewWidth = 1442;
var viewHeight = 208;
var sectionId = 'dynsection-0';
</script>
<script xlink:href="../../svgpan.js"/>
<svg id="graph" class="graph">
<g id="viewport">
<title>src/node.h</title>
<polygon fill="white" stroke="none" points="-4,4 -4,-204 1438,-204 1438,4 -4,4"/>
<!-- Node1 -->
<g id="node1" class="node"><title>Node1</title>
<polygon fill="#bfbfbf" stroke="black" points="579,-180.5 579,-199.5 641,-199.5 641,-180.5 579,-180.5"/>
<text text-anchor="middle" x="610" y="-187.5" font-family="Helvetica,sans-Serif" font-size="10.00">src/node.h</text>
</g>
<!-- Node2 -->
<g id="node2" class="node"><title>Node2</title>
<polygon fill="white" stroke="#bfbfbf" points="-0.5,-62.5 -0.5,-81.5 54.5,-81.5 54.5,-62.5 -0.5,-62.5"/>
<text text-anchor="middle" x="27" y="-69.5" font-family="Helvetica,sans-Serif" font-size="10.00">ros/ros.h</text>
</g>
<!-- Node1&#45;&gt;Node2 -->
<g id="edge1" class="edge"><title>Node1&#45;&gt;Node2</title>
<path fill="none" stroke="midnightblue" d="M578.788,-187.419C490.517,-182.704 240.413,-167.582 162,-144 118.862,-131.026 73.4445,-103.945 47.8246,-87.2326"/>
<polygon fill="midnightblue" stroke="midnightblue" points="49.5898,-84.2034 39.3223,-81.59 45.719,-90.0359 49.5898,-84.2034"/>
</g>
<!-- Node3 -->
<g id="node3" class="node"><title>Node3</title>
<polygon fill="white" stroke="#bfbfbf" points="291,-124.5 291,-143.5 335,-143.5 335,-124.5 291,-124.5"/>
<text text-anchor="middle" x="313" y="-131.5" font-family="Helvetica,sans-Serif" font-size="10.00">vector</text>
</g>
<!-- Node1&#45;&gt;Node3 -->
<g id="edge2" class="edge"><title>Node1&#45;&gt;Node3</title>
<path fill="none" stroke="midnightblue" d="M578.648,-184.888C530.426,-178.306 435.021,-164.266 345.078,-144.034"/>
<polygon fill="midnightblue" stroke="midnightblue" points="345.799,-140.609 335.271,-141.798 344.243,-147.433 345.799,-140.609"/>
</g>
<!-- Node4 -->
<g id="node4" class="node"><title>Node4</title>
<polygon fill="white" stroke="#bfbfbf" points="353,-124.5 353,-143.5 469,-143.5 469,-124.5 353,-124.5"/>
<text text-anchor="middle" x="411" y="-131.5" font-family="Helvetica,sans-Serif" font-size="10.00">opencv2/core/core.hpp</text>
</g>
<!-- Node1&#45;&gt;Node4 -->
<g id="edge3" class="edge"><title>Node1&#45;&gt;Node4</title>
<path fill="none" stroke="midnightblue" d="M578.906,-180.562C544.788,-171.304 489.873,-156.403 452.193,-146.178"/>
<polygon fill="midnightblue" stroke="midnightblue" points="453.1,-142.798 442.532,-143.556 451.267,-149.553 453.1,-142.798"/>
</g>
<!-- Node5 -->
<g id="node5" class="node"><title>Node5</title>
<polygon fill="white" stroke="#bfbfbf" points="525,-57 525,-87 627,-87 627,-57 525,-57"/>
<text text-anchor="start" x="533" y="-75" font-family="Helvetica,sans-Serif" font-size="10.00">opencv2/features2d</text>
<text text-anchor="middle" x="576" y="-64" font-family="Helvetica,sans-Serif" font-size="10.00">/features2d.hpp</text>
</g>
<!-- Node1&#45;&gt;Node5 -->
<g id="edge4" class="edge"><title>Node1&#45;&gt;Node5</title>
<path fill="none" stroke="midnightblue" d="M592.498,-180.465C579.213,-172.917 561.924,-160.533 554,-144 546.588,-128.536 552.8,-109.994 560.488,-95.7374"/>
<polygon fill="midnightblue" stroke="midnightblue" points="563.541,-97.4507 565.625,-87.0629 557.518,-93.8838 563.541,-97.4507"/>
</g>
<!-- Node6 -->
<g id="node6" class="node"><title>Node6</title>
<polygon fill="white" stroke="#bfbfbf" points="508.5,-0.5 508.5,-19.5 573.5,-19.5 573.5,-0.5 508.5,-0.5"/>
<text text-anchor="middle" x="541" y="-7.5" font-family="Helvetica,sans-Serif" font-size="10.00">Eigen/Core</text>
</g>
<!-- Node1&#45;&gt;Node6 -->
<g id="edge5" class="edge"><title>Node1&#45;&gt;Node6</title>
<path fill="none" stroke="midnightblue" d="M594.257,-180.463C580.515,-172.426 560.684,-159.351 547,-144 528.07,-122.765 523.115,-115.544 516,-88 512.443,-74.2298 512.432,-69.7675 516,-56 518.546,-46.1752 523.753,-36.2118 528.759,-28.166"/>
<polygon fill="midnightblue" stroke="midnightblue" points="531.749,-29.9903 534.371,-19.7252 525.92,-26.1143 531.749,-29.9903"/>
</g>
<!-- Node7 -->
<g id="node7" class="node"><title>Node7</title>
<polygon fill="white" stroke="#bfbfbf" points="675,-124.5 675,-143.5 815,-143.5 815,-124.5 675,-124.5"/>
<text text-anchor="middle" x="745" y="-131.5" font-family="Helvetica,sans-Serif" font-size="10.00">sensor_msgs/PointCloud2.h</text>
</g>
<!-- Node1&#45;&gt;Node7 -->
<g id="edge6" class="edge"><title>Node1&#45;&gt;Node7</title>
<path fill="none" stroke="midnightblue" d="M631.391,-180.444C653.707,-171.517 688.903,-157.439 714.208,-147.317"/>
<polygon fill="midnightblue" stroke="midnightblue" points="715.724,-150.48 723.709,-143.516 713.124,-143.981 715.724,-150.48"/>
</g>
<!-- Node8 -->
<g id="node8" class="node"><title>Node8</title>
<polygon fill="white" stroke="#bfbfbf" points="833.5,-124.5 833.5,-143.5 970.5,-143.5 970.5,-124.5 833.5,-124.5"/>
<text text-anchor="middle" x="902" y="-131.5" font-family="Helvetica,sans-Serif" font-size="10.00">sensor_msgs/CameraInfo.h</text>
</g>
<!-- Node1&#45;&gt;Node8 -->
<g id="edge7" class="edge"><title>Node1&#45;&gt;Node8</title>
<path fill="none" stroke="midnightblue" d="M641.249,-183.221C689.996,-174.206 784.849,-156.665 845.72,-145.408"/>
<polygon fill="midnightblue" stroke="midnightblue" points="846.731,-148.78 855.928,-143.52 845.458,-141.897 846.731,-148.78"/>
</g>
<!-- Node9 -->
<g id="node9" class="node"><title>Node9</title>
<g id="a_node9"><a xlink:href="../../d2/de7/parameter__server_8h.html" target="_top" xlink:title="parameter_server.h">
<polygon fill="white" stroke="black" points="171.5,-124.5 171.5,-143.5 272.5,-143.5 272.5,-124.5 171.5,-124.5"/>
<text text-anchor="middle" x="222" y="-131.5" font-family="Helvetica,sans-Serif" font-size="10.00">parameter_server.h</text>
</a>
</g>
</g>
<!-- Node1&#45;&gt;Node9 -->
<g id="edge8" class="edge"><title>Node1&#45;&gt;Node9</title>
<path fill="none" stroke="midnightblue" d="M578.776,-184.849C522.094,-177.285 398.23,-160.624 282.802,-144.1"/>
<polygon fill="midnightblue" stroke="midnightblue" points="283.128,-140.611 272.732,-142.656 282.134,-147.54 283.128,-140.611"/>
</g>
<!-- Node15 -->
<g id="node15" class="node"><title>Node15</title>
<polygon fill="white" stroke="#bfbfbf" points="988.5,-124.5 988.5,-143.5 1111.5,-143.5 1111.5,-124.5 988.5,-124.5"/>
<text text-anchor="middle" x="1050" y="-131.5" font-family="Helvetica,sans-Serif" font-size="10.00">tf/transform_datatypes.h</text>
</g>
<!-- Node1&#45;&gt;Node15 -->
<g id="edge16" class="edge"><title>Node1&#45;&gt;Node15</title>
<path fill="none" stroke="midnightblue" d="M641.107,-185.257C703.009,-177.797 846.274,-160.479 978.147,-144.101"/>
<polygon fill="midnightblue" stroke="midnightblue" points="978.937,-147.53 988.429,-142.823 978.073,-140.583 978.937,-147.53"/>
</g>
<!-- Node16 -->
<g id="node16" class="node"><title>Node16</title>
<polygon fill="white" stroke="#bfbfbf" points="1129.5,-124.5 1129.5,-143.5 1180.5,-143.5 1180.5,-124.5 1129.5,-124.5"/>
<text text-anchor="middle" x="1155" y="-131.5" font-family="Helvetica,sans-Serif" font-size="10.00">QMutex</text>
</g>
<!-- Node1&#45;&gt;Node16 -->
<g id="edge17" class="edge"><title>Node1&#45;&gt;Node16</title>
<path fill="none" stroke="midnightblue" d="M641.275,-188.021C719.997,-185.179 932.75,-175.161 1119.49,-143.779"/>
<polygon fill="midnightblue" stroke="midnightblue" points="1120.22,-147.206 1129.49,-142.074 1119.04,-140.305 1120.22,-147.206"/>
</g>
<!-- Node17 -->
<g id="node17" class="node"><title>Node17</title>
<g id="a_node17"><a xlink:href="../../d4/d2a/matching__result_8h.html" target="_top" xlink:title="matching_result.h">
<polygon fill="white" stroke="black" points="563,-124.5 563,-143.5 657,-143.5 657,-124.5 563,-124.5"/>
<text text-anchor="middle" x="610" y="-131.5" font-family="Helvetica,sans-Serif" font-size="10.00">matching_result.h</text>
</a>
</g>
</g>
<!-- Node1&#45;&gt;Node17 -->
<g id="edge18" class="edge"><title>Node1&#45;&gt;Node17</title>
<path fill="none" stroke="midnightblue" d="M610,-180.083C610,-173.006 610,-162.861 610,-153.986"/>
<polygon fill="midnightblue" stroke="midnightblue" points="613.5,-153.751 610,-143.751 606.5,-153.751 613.5,-153.751"/>
</g>
<!-- Node22 -->
<g id="node22" class="node"><title>Node22</title>
<polygon fill="white" stroke="#bfbfbf" points="1198,-124.5 1198,-143.5 1286,-143.5 1286,-124.5 1198,-124.5"/>
<text text-anchor="middle" x="1242" y="-131.5" font-family="Helvetica,sans-Serif" font-size="10.00">Eigen/StdVector</text>
</g>
<!-- Node1&#45;&gt;Node22 -->
<g id="edge26" class="edge"><title>Node1&#45;&gt;Node22</title>
<path fill="none" stroke="midnightblue" d="M641.168,-187.573C726.755,-183.445 972.767,-170.161 1187.59,-144.066"/>
<polygon fill="midnightblue" stroke="midnightblue" points="1188.3,-147.506 1197.8,-142.814 1187.45,-140.558 1188.3,-147.506"/>
</g>
<!-- Node23 -->
<g id="node23" class="node"><title>Node23</title>
<g id="a_node23"><a xlink:href="../../df/dcb/header_8h.html" target="_top" xlink:title="header.h">
<polygon fill="white" stroke="black" points="1304,-124.5 1304,-143.5 1358,-143.5 1358,-124.5 1304,-124.5"/>
<text text-anchor="middle" x="1331" y="-131.5" font-family="Helvetica,sans-Serif" font-size="10.00">header.h</text>
</a>
</g>
</g>
<!-- Node1&#45;&gt;Node23 -->
<g id="edge27" class="edge"><title>Node1&#45;&gt;Node23</title>
<path fill="none" stroke="midnightblue" d="M641.227,-188.861C737.24,-188.03 1036.59,-182.429 1293.73,-143.726"/>
<polygon fill="midnightblue" stroke="midnightblue" points="1294.27,-147.185 1303.63,-142.217 1293.21,-140.265 1294.27,-147.185"/>
</g>
<!-- Node9&#45;&gt;Node2 -->
<g id="edge10" class="edge"><title>Node9&#45;&gt;Node2</title>
<path fill="none" stroke="midnightblue" d="M187.203,-124.426C154.741,-116.129 105.126,-102.679 63,-88 60.5943,-87.1617 58.1182,-86.2459 55.6442,-85.2933"/>
<polygon fill="midnightblue" stroke="midnightblue" points="56.8509,-82.0062 46.2671,-81.5241 54.2402,-88.5012 56.8509,-82.0062"/>
</g>
<!-- Node10 -->
<g id="node10" class="node"><title>Node10</title>
<polygon fill="white" stroke="#bfbfbf" points="331.5,-62.5 331.5,-81.5 372.5,-81.5 372.5,-62.5 331.5,-62.5"/>
<text text-anchor="middle" x="352" y="-69.5" font-family="Helvetica,sans-Serif" font-size="10.00">string</text>
</g>
<!-- Node9&#45;&gt;Node10 -->
<g id="edge9" class="edge"><title>Node9&#45;&gt;Node10</title>
<path fill="none" stroke="midnightblue" d="M241.653,-124.439C261.897,-115.555 294.311,-101.146 322,-88 323.348,-87.36 324.727,-86.6979 326.116,-86.0244"/>
<polygon fill="midnightblue" stroke="midnightblue" points="327.816,-89.089 335.24,-81.5307 324.723,-82.8093 327.816,-89.089"/>
</g>
<!-- Node11 -->
<g id="node11" class="node"><title>Node11</title>
<polygon fill="white" stroke="#bfbfbf" points="391,-62.5 391,-81.5 469,-81.5 469,-62.5 391,-62.5"/>
<text text-anchor="middle" x="430" y="-69.5" font-family="Helvetica,sans-Serif" font-size="10.00">boost/any.hpp</text>
</g>
<!-- Node9&#45;&gt;Node11 -->
<g id="edge11" class="edge"><title>Node9&#45;&gt;Node11</title>
<path fill="none" stroke="midnightblue" d="M252.834,-124.483C284.908,-115.574 336.556,-101.09 381,-88 384.827,-86.8728 388.817,-85.6802 392.795,-84.4798"/>
<polygon fill="midnightblue" stroke="midnightblue" points="394.01,-87.7687 402.56,-81.5123 391.975,-81.0711 394.01,-87.7687"/>
</g>
<!-- Node12 -->
<g id="node12" class="node"><title>Node12</title>
<polygon fill="white" stroke="#bfbfbf" points="72.5,-62.5 72.5,-81.5 181.5,-81.5 181.5,-62.5 72.5,-62.5"/>
<text text-anchor="middle" x="127" y="-69.5" font-family="Helvetica,sans-Serif" font-size="10.00">pcl_ros/point_cloud.h</text>
</g>
<!-- Node9&#45;&gt;Node12 -->
<g id="edge12" class="edge"><title>Node9&#45;&gt;Node12</title>
<path fill="none" stroke="midnightblue" d="M208.389,-124.403C192.939,-114.646 167.51,-98.5854 149.184,-87.0109"/>
<polygon fill="midnightblue" stroke="midnightblue" points="150.91,-83.9613 140.586,-81.5806 147.172,-89.8798 150.91,-83.9613"/>
</g>
<!-- Node13 -->
<g id="node13" class="node"><title>Node13</title>
<polygon fill="white" stroke="#bfbfbf" points="197.5,-0.5 197.5,-19.5 288.5,-19.5 288.5,-0.5 197.5,-0.5"/>
<text text-anchor="middle" x="243" y="-7.5" font-family="Helvetica,sans-Serif" font-size="10.00">pcl/point_types.h</text>
</g>
<!-- Node9&#45;&gt;Node13 -->
<g id="edge13" class="edge"><title>Node9&#45;&gt;Node13</title>
<path fill="none" stroke="midnightblue" d="M222.193,-124.37C222.644,-110.04 224.134,-80.4884 229,-56 230.774,-47.0722 233.65,-37.4056 236.335,-29.3284"/>
<polygon fill="midnightblue" stroke="midnightblue" points="239.662,-30.4162 239.647,-19.8214 233.052,-28.1137 239.662,-30.4162"/>
</g>
<!-- Node14 -->
<g id="node14" class="node"><title>Node14</title>
<g id="a_node14"><a xlink:href="../../d1/d45/point__types_8h.html" target="_top" xlink:title="point_types.h">
<polygon fill="white" stroke="black" points="238.5,-62.5 238.5,-81.5 313.5,-81.5 313.5,-62.5 238.5,-62.5"/>
<text text-anchor="middle" x="276" y="-69.5" font-family="Helvetica,sans-Serif" font-size="10.00">point_types.h</text>
</a>
</g>
</g>
<!-- Node9&#45;&gt;Node14 -->
<g id="edge14" class="edge"><title>Node9&#45;&gt;Node14</title>
<path fill="none" stroke="midnightblue" d="M229.737,-124.403C237.997,-115.225 251.277,-100.47 261.494,-89.1173"/>
<polygon fill="midnightblue" stroke="midnightblue" points="264.189,-91.3549 268.277,-81.5806 258.986,-86.6722 264.189,-91.3549"/>
</g>
<!-- Node14&#45;&gt;Node13 -->
<g id="edge15" class="edge"><title>Node14&#45;&gt;Node13</title>
<path fill="none" stroke="midnightblue" d="M271.272,-62.4035C266.42,-53.5816 258.734,-39.6075 252.6,-28.4548"/>
<polygon fill="midnightblue" stroke="midnightblue" points="255.605,-26.656 247.719,-19.5806 249.472,-30.0295 255.605,-26.656"/>
</g>
<!-- Node17&#45;&gt;Node5 -->
<g id="edge19" class="edge"><title>Node17&#45;&gt;Node5</title>
<path fill="none" stroke="midnightblue" d="M605.129,-124.403C600.911,-116.961 594.616,-105.851 588.955,-95.8619"/>
<polygon fill="midnightblue" stroke="midnightblue" points="591.988,-94.1155 584.013,-87.1408 585.898,-97.5666 591.988,-94.1155"/>
</g>
<!-- Node17&#45;&gt;Node6 -->
<g id="edge20" class="edge"><title>Node17&#45;&gt;Node6</title>
<path fill="none" stroke="midnightblue" d="M617.336,-124.32C628.999,-109.404 649.084,-78.357 635,-56 623.532,-37.7964 602.437,-26.7948 583.133,-20.2321"/>
<polygon fill="midnightblue" stroke="midnightblue" points="584.144,-16.8814 573.556,-17.2726 582.077,-23.5693 584.144,-16.8814"/>
</g>
<!-- Node18 -->
<g id="node18" class="node"><title>Node18</title>
<g id="a_node18"><a xlink:href="../../db/dc3/edge_8h.html" target="_top" xlink:title="edge.h">
<polygon fill="white" stroke="black" points="683,-62.5 683,-81.5 729,-81.5 729,-62.5 683,-62.5"/>
<text text-anchor="middle" x="706" y="-69.5" font-family="Helvetica,sans-Serif" font-size="10.00">edge.h</text>
</a>
</g>
</g>
<!-- Node17&#45;&gt;Node18 -->
<g id="edge21" class="edge"><title>Node17&#45;&gt;Node18</title>
<path fill="none" stroke="midnightblue" d="M623.754,-124.403C639.366,-114.646 665.063,-98.5854 683.583,-87.0109"/>
<polygon fill="midnightblue" stroke="midnightblue" points="685.646,-89.8486 692.271,-81.5806 681.936,-83.9126 685.646,-89.8486"/>
</g>
<!-- Node18&#45;&gt;Node6 -->
<g id="edge25" class="edge"><title>Node18&#45;&gt;Node6</title>
<path fill="none" stroke="midnightblue" d="M685.324,-62.4179C680.023,-60.2724 674.316,-58.0108 669,-56 637.88,-44.2289 602.133,-31.7477 576.34,-22.9236"/>
<polygon fill="midnightblue" stroke="midnightblue" points="577.223,-19.5269 566.628,-19.6132 574.964,-26.1526 577.223,-19.5269"/>
</g>
<!-- Node19 -->
<g id="node19" class="node"><title>Node19</title>
<polygon fill="white" stroke="#bfbfbf" points="750,-0.5 750,-19.5 780,-19.5 780,-0.5 750,-0.5"/>
<text text-anchor="middle" x="765" y="-7.5" font-family="Helvetica,sans-Serif" font-size="10.00">set</text>
</g>
<!-- Node18&#45;&gt;Node19 -->
<g id="edge22" class="edge"><title>Node18&#45;&gt;Node19</title>
<path fill="none" stroke="midnightblue" d="M714.453,-62.4035C723.566,-53.1361 738.27,-38.1828 749.476,-26.7876"/>
<polygon fill="midnightblue" stroke="midnightblue" points="752.047,-29.1649 756.562,-19.5806 747.055,-24.2569 752.047,-29.1649"/>
</g>
<!-- Node20 -->
<g id="node20" class="node"><title>Node20</title>
<polygon fill="white" stroke="#bfbfbf" points="798,-0.5 798,-19.5 852,-19.5 852,-0.5 798,-0.5"/>
<text text-anchor="middle" x="825" y="-7.5" font-family="Helvetica,sans-Serif" font-size="10.00">iostream</text>
</g>
<!-- Node18&#45;&gt;Node20 -->
<g id="edge23" class="edge"><title>Node18&#45;&gt;Node20</title>
<path fill="none" stroke="midnightblue" d="M723.05,-62.4035C742.844,-52.4232 775.717,-35.8487 798.77,-24.2253"/>
<polygon fill="midnightblue" stroke="midnightblue" points="800.628,-27.208 807.982,-19.5806 797.477,-20.9575 800.628,-27.208"/>
</g>
<!-- Node21 -->
<g id="node21" class="node"><title>Node21</title>
<polygon fill="white" stroke="#bfbfbf" points="592,-0.5 592,-19.5 732,-19.5 732,-0.5 592,-0.5"/>
<text text-anchor="middle" x="662" y="-7.5" font-family="Helvetica,sans-Serif" font-size="10.00">g2o/types/slam3d/se3quat.h</text>
</g>
<!-- Node18&#45;&gt;Node21 -->
<g id="edge24" class="edge"><title>Node18&#45;&gt;Node21</title>
<path fill="none" stroke="midnightblue" d="M699.696,-62.4035C693.096,-53.4034 682.563,-39.0408 674.307,-27.7824"/>
<polygon fill="midnightblue" stroke="midnightblue" points="677.029,-25.5749 668.292,-19.5806 671.384,-29.7144 677.029,-25.5749"/>
</g>
<!-- Node24 -->
<g id="node24" class="node"><title>Node24</title>
<polygon fill="white" stroke="#bfbfbf" points="1222,-62.5 1222,-81.5 1324,-81.5 1324,-62.5 1222,-62.5"/>
<text text-anchor="middle" x="1273" y="-69.5" font-family="Helvetica,sans-Serif" font-size="10.00">std_msgs/Header.h</text>
</g>
<!-- Node23&#45;&gt;Node24 -->
<g id="edge28" class="edge"><title>Node23&#45;&gt;Node24</title>
<path fill="none" stroke="midnightblue" d="M1322.69,-124.403C1313.73,-115.136 1299.28,-100.183 1288.26,-88.7876"/>
<polygon fill="midnightblue" stroke="midnightblue" points="1290.76,-86.3379 1281.29,-81.5806 1285.73,-91.2031 1290.76,-86.3379"/>
</g>
<!-- Node25 -->
<g id="node25" class="node"><title>Node25</title>
<polygon fill="white" stroke="#bfbfbf" points="1342,-62.5 1342,-81.5 1434,-81.5 1434,-62.5 1342,-62.5"/>
<text text-anchor="middle" x="1388" y="-69.5" font-family="Helvetica,sans-Serif" font-size="10.00">pcl/PCLHeader.h</text>
</g>
<!-- Node23&#45;&gt;Node25 -->
<g id="edge29" class="edge"><title>Node23&#45;&gt;Node25</title>
<path fill="none" stroke="midnightblue" d="M1339.17,-124.403C1347.89,-115.225 1361.9,-100.47 1372.69,-89.1173"/>
<polygon fill="midnightblue" stroke="midnightblue" points="1375.5,-91.2412 1379.85,-81.5806 1370.42,-86.42 1375.5,-91.2412"/>
</g>
</g>
</svg>
        <g id="navigator" transform="translate(0 0)" fill="#404254">
                <rect fill="#f2f5e9" fill-opacity="0.5" stroke="#606060" stroke-width=".5" x="0" y="0" width="60" height="60"/>
                <use id="zoomplus" xlink:href="#zoomPlus" x="17" y="9" onmousedown="handleZoom(evt,'in')"/>
                <use id="zoomminus" xlink:href="#zoomMin" x="42" y="9" onmousedown="handleZoom(evt,'out')"/>
                <use id="reset" xlink:href="#resetDef" x="30" y="36" onmousedown="handleReset()"/>
                <g id="arrowUp" xlink:href="#dirArrow" transform="translate(30 24)" onmousedown="handlePan(0,-1)">
                  <use xlink:href="#rim" fill="#404040">
                        <set attributeName="fill" to="#808080" begin="arrowUp.mouseover" end="arrowUp.mouseout"/>
                  </use>
                  <path fill="none" stroke="white" stroke-width="1.5" d="M0,-3.0v7 M-2.5,-0.5L0,-3.0L2.5,-0.5"/>
                </g>
                <g id="arrowRight" xlink:href="#dirArrow" transform="rotate(90) translate(36 -43)" onmousedown="handlePan(1,0)">
                  <use xlink:href="#rim" fill="#404040">
                        <set attributeName="fill" to="#808080" begin="arrowRight.mouseover" end="arrowRight.mouseout"/>
                  </use>
                  <path fill="none" stroke="white" stroke-width="1.5" d="M0,-3.0v7 M-2.5,-0.5L0,-3.0L2.5,-0.5"/>
                </g>
                <g id="arrowDown" xlink:href="#dirArrow" transform="rotate(180) translate(-30 -48)" onmousedown="handlePan(0,1)">
                  <use xlink:href="#rim" fill="#404040">
                        <set attributeName="fill" to="#808080" begin="arrowDown.mouseover" end="arrowDown.mouseout"/>
                  </use>
                  <path fill="none" stroke="white" stroke-width="1.5" d="M0,-3.0v7 M-2.5,-0.5L0,-3.0L2.5,-0.5"/>
                </g>
                <g id="arrowLeft" xlink:href="#dirArrow" transform="rotate(270) translate(-36 17)" onmousedown="handlePan(-1,0)">
                  <use xlink:href="#rim" fill="#404040">
                        <set attributeName="fill" to="#808080" begin="arrowLeft.mouseover" end="arrowLeft.mouseout"/>
                  </use>
                  <path fill="none" stroke="white" stroke-width="1.5" d="M0,-3.0v7 M-2.5,-0.5L0,-3.0L2.5,-0.5"/>
                </g>
        </g>
        <svg viewBox="0 0 15 15" width="100%" height="30px" preserveAspectRatio="xMaxYMin meet">
         <g id="arrow_out" transform="scale(0.3 0.3)">
          <a xlink:href="node_8h__incl_org.svg" target="_base">
           <rect id="button" ry="5" rx="5" y="6" x="6" height="38" width="38"
                fill="#f2f5e9" fill-opacity="0.5" stroke="#606060" stroke-width="1.0"/>
           <path id="arrow"
             d="M 11.500037,31.436501 C 11.940474,20.09759 22.043105,11.32322 32.158766,21.979434 L 37.068811,17.246167 C 37.068811,17.246167 37.088388,32 37.088388,32 L 22.160133,31.978069 C 22.160133,31.978069 26.997745,27.140456 26.997745,27.140456 C 18.528582,18.264221 13.291696,25.230495 11.500037,31.436501 z"
             style="fill:#404040;"/>
          </a>
         </g>
        </svg>
</svg>
