<?xml version="1.0" encoding="UTF-8" standalone="no"?>
<!DOCTYPE svg PUBLIC "-//W3C//DTD SVG 1.1//EN"
 "http://www.w3.org/Graphics/SVG/1.1/DTD/svg11.dtd">
<!-- Generated by graphviz version 2.36.0 (20140111.2315)
 -->
<!-- Title: readANN Pages: 1 -->
<svg width="610pt" height="294pt"
 viewBox="0.00 0.00 610.00 294.00" xmlns="http://www.w3.org/2000/svg" xmlns:xlink="http://www.w3.org/1999/xlink">
<g id="graph0" class="graph" transform="scale(1 1) rotate(0) translate(4 290)">
<title>readANN</title>
<polygon fill="white" stroke="none" points="-4,4 -4,-290 606,-290 606,4 -4,4"/>
<!-- Node1 -->
<g id="node1" class="node"><title>Node1</title>
<polygon fill="#bfbfbf" stroke="black" points="0.5,-152.5 0.5,-171.5 57.5,-171.5 57.5,-152.5 0.5,-152.5"/>
<text text-anchor="middle" x="29" y="-159.5" font-family="Helvetica,sans-Serif" font-size="10.00">readANN</text>
</g>
<!-- Node2 -->
<g id="node2" class="node"><title>Node2</title>
<g id="a_node2"><a xlink:href="../../d3/da8/ann2fig_8cpp.html#abd279ad6ac37fcf85881e690e8875616" target="_top" xlink:title="Error">
<polygon fill="white" stroke="black" points="359,-266.5 359,-285.5 397,-285.5 397,-266.5 359,-266.5"/>
<text text-anchor="middle" x="378" y="-273.5" font-family="Helvetica,sans-Serif" font-size="10.00">Error</text>
</a>
</g>
</g>
<!-- Node1&#45;&gt;Node2 -->
<g id="edge1" class="edge"><title>Node1&#45;&gt;Node2</title>
<path fill="none" stroke="midnightblue" d="M56.8809,-171.629C106.597,-189.323 216.383,-227.865 310,-257 322.679,-260.946 336.811,-265.003 348.815,-268.35"/>
<polygon fill="midnightblue" stroke="midnightblue" points="348.156,-271.799 358.727,-271.087 350.019,-265.051 348.156,-271.799"/>
</g>
<!-- Node4 -->
<g id="node4" class="node"><title>Node4</title>
<g id="a_node4"><a xlink:href="../../d8/da9/ANN_8h.html#a7d801c6084e348aefc8d675d5b8f2f9a" target="_top" xlink:title="annAllocPts">
<polygon fill="white" stroke="black" points="94.5,-152.5 94.5,-171.5 163.5,-171.5 163.5,-152.5 94.5,-152.5"/>
<text text-anchor="middle" x="129" y="-159.5" font-family="Helvetica,sans-Serif" font-size="10.00">annAllocPts</text>
</a>
</g>
</g>
<!-- Node1&#45;&gt;Node4 -->
<g id="edge3" class="edge"><title>Node1&#45;&gt;Node4</title>
<path fill="none" stroke="midnightblue" d="M57.5593,-162C65.8681,-162 75.2016,-162 84.2894,-162"/>
<polygon fill="midnightblue" stroke="midnightblue" points="84.3779,-165.5 94.3779,-162 84.3778,-158.5 84.3779,-165.5"/>
</g>
<!-- Node5 -->
<g id="node5" class="node"><title>Node5</title>
<g id="a_node5"><a xlink:href="../../d3/da8/ann2fig_8cpp.html#a180fee6b105f7d14eb56b8f828d440e7" target="_top" xlink:title="readTree">
<polygon fill="white" stroke="black" points="101.5,-76.5 101.5,-95.5 156.5,-95.5 156.5,-76.5 101.5,-76.5"/>
<text text-anchor="middle" x="129" y="-83.5" font-family="Helvetica,sans-Serif" font-size="10.00">readTree</text>
</a>
</g>
</g>
<!-- Node1&#45;&gt;Node5 -->
<g id="edge4" class="edge"><title>Node1&#45;&gt;Node5</title>
<path fill="none" stroke="midnightblue" d="M42.4118,-152.375C58.8325,-139.64 87.9899,-117.028 107.655,-101.778"/>
<polygon fill="midnightblue" stroke="midnightblue" points="109.932,-104.441 115.689,-95.5473 105.642,-98.9098 109.932,-104.441"/>
</g>
<!-- Node3 -->
<g id="node3" class="node"><title>Node3</title>
<g id="a_node3"><a xlink:href="../../d9/db8/glut_8h.html#a6f255d924f7a6bb2c4be0c8c2f2d9ce3" target="_top" xlink:title="exit">
<polygon fill="white" stroke="black" points="526,-266.5 526,-285.5 558,-285.5 558,-266.5 526,-266.5"/>
<text text-anchor="middle" x="542" y="-273.5" font-family="Helvetica,sans-Serif" font-size="10.00">exit</text>
</a>
</g>
</g>
<!-- Node2&#45;&gt;Node3 -->
<g id="edge2" class="edge"><title>Node2&#45;&gt;Node3</title>
<path fill="none" stroke="midnightblue" d="M397.269,-276C426.263,-276 482.888,-276 515.746,-276"/>
<polygon fill="midnightblue" stroke="midnightblue" points="515.904,-279.5 525.904,-276 515.904,-272.5 515.904,-279.5"/>
</g>
<!-- Node6 -->
<g id="node6" class="node"><title>Node6</title>
<g id="a_node6"><a xlink:href="../../d3/da8/ann2fig_8cpp.html#a2e19c2ee025cf0d8494654f6baa42176" target="_top" xlink:title="writeHeader">
<polygon fill="white" stroke="black" points="202.5,-38.5 202.5,-57.5 271.5,-57.5 271.5,-38.5 202.5,-38.5"/>
<text text-anchor="middle" x="237" y="-45.5" font-family="Helvetica,sans-Serif" font-size="10.00">writeHeader</text>
</a>
</g>
</g>
<!-- Node5&#45;&gt;Node6 -->
<g id="edge5" class="edge"><title>Node5&#45;&gt;Node6</title>
<path fill="none" stroke="midnightblue" d="M156.748,-76.411C169.804,-71.7306 185.703,-66.0308 199.825,-60.9685"/>
<polygon fill="midnightblue" stroke="midnightblue" points="201.028,-64.2553 209.26,-57.5859 198.666,-57.6659 201.028,-64.2553"/>
</g>
<!-- Node8 -->
<g id="node8" class="node"><title>Node8</title>
<g id="a_node8"><a xlink:href="../../d3/da8/ann2fig_8cpp.html#a43265c93b3e1b477627e253b5196df41" target="_top" xlink:title="writeBox">
<polygon fill="white" stroke="black" points="350.5,-76.5 350.5,-95.5 405.5,-95.5 405.5,-76.5 350.5,-76.5"/>
<text text-anchor="middle" x="378" y="-83.5" font-family="Helvetica,sans-Serif" font-size="10.00">writeBox</text>
</a>
</g>
</g>
<!-- Node5&#45;&gt;Node8 -->
<g id="edge7" class="edge"><title>Node5&#45;&gt;Node8</title>
<path fill="none" stroke="midnightblue" d="M156.904,-86C201.261,-86 289.819,-86 340.027,-86"/>
<polygon fill="midnightblue" stroke="midnightblue" points="340.13,-89.5001 350.13,-86 340.13,-82.5001 340.13,-89.5001"/>
</g>
<!-- Node9 -->
<g id="node9" class="node"><title>Node9</title>
<g id="a_node9"><a xlink:href="../../d3/da8/ann2fig_8cpp.html#a6df8fccb629d8f4b854244844a18b8b3" target="_top" xlink:title="writeCaption">
<polygon fill="white" stroke="black" points="201.5,-0.5 201.5,-19.5 272.5,-19.5 272.5,-0.5 201.5,-0.5"/>
<text text-anchor="middle" x="237" y="-7.5" font-family="Helvetica,sans-Serif" font-size="10.00">writeCaption</text>
</a>
</g>
</g>
<!-- Node5&#45;&gt;Node9 -->
<g id="edge9" class="edge"><title>Node5&#45;&gt;Node9</title>
<path fill="none" stroke="midnightblue" d="M140.403,-76.4208C153.648,-64.4918 177.519,-43.8741 200,-29 202.297,-27.4804 204.728,-25.9832 207.201,-24.5367"/>
<polygon fill="midnightblue" stroke="midnightblue" points="209.113,-27.4788 216.164,-19.5714 205.721,-21.3556 209.113,-27.4788"/>
</g>
<!-- Node10 -->
<g id="node10" class="node"><title>Node10</title>
<g id="a_node10"><a xlink:href="../../d3/da8/ann2fig_8cpp.html#a0b4361cb538ad26d66f8eff36d795b31" target="_top" xlink:title="recReadTree">
<polygon fill="white" stroke="black" points="200.5,-152.5 200.5,-171.5 273.5,-171.5 273.5,-152.5 200.5,-152.5"/>
<text text-anchor="middle" x="237" y="-159.5" font-family="Helvetica,sans-Serif" font-size="10.00">recReadTree</text>
</a>
</g>
</g>
<!-- Node5&#45;&gt;Node10 -->
<g id="edge11" class="edge"><title>Node5&#45;&gt;Node10</title>
<path fill="none" stroke="midnightblue" d="M143.425,-95.6255C161.266,-108.417 193.007,-131.175 214.279,-146.427"/>
<polygon fill="midnightblue" stroke="midnightblue" points="212.518,-149.47 222.684,-152.453 216.596,-143.781 212.518,-149.47"/>
</g>
<!-- Node7 -->
<g id="node7" class="node"><title>Node7</title>
<g id="a_node7"><a xlink:href="../../db/d82/wglew_8h.html#a500a82aecba06f4550f6849b8099ca21" target="_top" xlink:title="int">
<polygon fill="white" stroke="black" points="527.5,-76.5 527.5,-95.5 556.5,-95.5 556.5,-76.5 527.5,-76.5"/>
<text text-anchor="middle" x="542" y="-83.5" font-family="Helvetica,sans-Serif" font-size="10.00">int</text>
</a>
</g>
</g>
<!-- Node6&#45;&gt;Node7 -->
<g id="edge6" class="edge"><title>Node6&#45;&gt;Node7</title>
<path fill="none" stroke="midnightblue" d="M271.632,-49.9685C312.867,-52.6357 384.816,-58.1129 446,-67 470.464,-70.5534 498.15,-76.2892 517.295,-80.5303"/>
<polygon fill="midnightblue" stroke="midnightblue" points="516.71,-83.9861 527.235,-82.768 518.248,-77.157 516.71,-83.9861"/>
</g>
<!-- Node8&#45;&gt;Node7 -->
<g id="edge8" class="edge"><title>Node8&#45;&gt;Node7</title>
<path fill="none" stroke="midnightblue" d="M405.751,-86C436.67,-86 487.106,-86 516.869,-86"/>
<polygon fill="midnightblue" stroke="midnightblue" points="517.179,-89.5001 527.179,-86 517.179,-82.5001 517.179,-89.5001"/>
</g>
<!-- Node9&#45;&gt;Node7 -->
<g id="edge10" class="edge"><title>Node9&#45;&gt;Node7</title>
<path fill="none" stroke="midnightblue" d="M272.685,-14.4876C314.351,-20.3384 386.122,-31.8873 446,-49 471.245,-56.2149 499.131,-67.4917 518.121,-75.7006"/>
<polygon fill="midnightblue" stroke="midnightblue" points="516.868,-78.9726 527.431,-79.7879 519.682,-72.5631 516.868,-78.9726"/>
</g>
<!-- Node10&#45;&gt;Node2 -->
<g id="edge15" class="edge"><title>Node10&#45;&gt;Node2</title>
<path fill="none" stroke="midnightblue" d="M242.64,-171.734C252.344,-191.032 276.678,-234.238 310,-257 321.466,-264.832 336.128,-269.461 348.811,-272.184"/>
<polygon fill="midnightblue" stroke="midnightblue" points="348.415,-275.67 358.886,-274.052 349.692,-268.788 348.415,-275.67"/>
</g>
<!-- Node10&#45;&gt;Node8 -->
<g id="edge20" class="edge"><title>Node10&#45;&gt;Node8</title>
<path fill="none" stroke="midnightblue" d="M247.828,-152.092C260.917,-139.428 285.305,-117.637 310,-105 319.445,-100.167 330.287,-96.4147 340.458,-93.5703"/>
<polygon fill="midnightblue" stroke="midnightblue" points="341.522,-96.9105 350.33,-91.0221 339.773,-90.1327 341.522,-96.9105"/>
</g>
<!-- Node11 -->
<g id="node11" class="node"><title>Node11</title>
<g id="a_node11"><a xlink:href="../../d3/da8/ann2fig_8cpp.html#a8f0302d4cc5b5cb00cf1c15f446bda8d" target="_top" xlink:title="overlap">
<polygon fill="white" stroke="black" points="354,-228.5 354,-247.5 402,-247.5 402,-228.5 354,-228.5"/>
<text text-anchor="middle" x="378" y="-235.5" font-family="Helvetica,sans-Serif" font-size="10.00">overlap</text>
</a>
</g>
</g>
<!-- Node10&#45;&gt;Node11 -->
<g id="edge12" class="edge"><title>Node10&#45;&gt;Node11</title>
<path fill="none" stroke="midnightblue" d="M247.828,-171.908C260.917,-184.572 285.305,-206.363 310,-219 320.548,-224.398 332.839,-228.447 343.992,-231.39"/>
<polygon fill="midnightblue" stroke="midnightblue" points="343.288,-234.82 353.833,-233.787 344.946,-228.019 343.288,-234.82"/>
</g>
<!-- Node12 -->
<g id="node12" class="node"><title>Node12</title>
<g id="a_node12"><a xlink:href="../../d3/da8/ann2fig_8cpp.html#ac74894175c568ccdd162865b40ae1ee4" target="_top" xlink:title="writePoint">
<polygon fill="white" stroke="black" points="348,-152.5 348,-171.5 408,-171.5 408,-152.5 348,-152.5"/>
<text text-anchor="middle" x="378" y="-159.5" font-family="Helvetica,sans-Serif" font-size="10.00">writePoint</text>
</a>
</g>
</g>
<!-- Node10&#45;&gt;Node12 -->
<g id="edge13" class="edge"><title>Node10&#45;&gt;Node12</title>
<path fill="none" stroke="midnightblue" d="M273.796,-162C293.387,-162 317.691,-162 337.793,-162"/>
<polygon fill="midnightblue" stroke="midnightblue" points="337.874,-165.5 347.874,-162 337.874,-158.5 337.874,-165.5"/>
</g>
<!-- Node13 -->
<g id="node13" class="node"><title>Node13</title>
<g id="a_node13"><a xlink:href="../../d3/da8/ann2fig_8cpp.html#a09046b3c19c279ebbe377f7067653659" target="_top" xlink:title="writeLine">
<polygon fill="white" stroke="black" points="350,-114.5 350,-133.5 406,-133.5 406,-114.5 350,-114.5"/>
<text text-anchor="middle" x="378" y="-121.5" font-family="Helvetica,sans-Serif" font-size="10.00">writeLine</text>
</a>
</g>
</g>
<!-- Node10&#45;&gt;Node13 -->
<g id="edge16" class="edge"><title>Node10&#45;&gt;Node13</title>
<path fill="none" stroke="midnightblue" d="M273.076,-152.411C293.534,-146.818 319.316,-139.77 340.082,-134.093"/>
<polygon fill="midnightblue" stroke="midnightblue" points="341.105,-137.442 349.828,-131.428 339.259,-130.689 341.105,-137.442"/>
</g>
<!-- Node14 -->
<g id="node14" class="node"><title>Node14</title>
<g id="a_node14"><a xlink:href="../../df/dd5/classANNorthHalfSpace.html#abd63063b5627aeb80428942438c653bc" target="_top" xlink:title="ANNorthHalfSpace::project">
<polygon fill="white" stroke="black" points="310,-190.5 310,-209.5 446,-209.5 446,-190.5 310,-190.5"/>
<text text-anchor="middle" x="378" y="-197.5" font-family="Helvetica,sans-Serif" font-size="10.00">ANNorthHalfSpace::project</text>
</a>
</g>
</g>
<!-- Node10&#45;&gt;Node14 -->
<g id="edge18" class="edge"><title>Node10&#45;&gt;Node14</title>
<path fill="none" stroke="midnightblue" d="M273.076,-171.589C291.019,-176.494 313.058,-182.52 332.217,-187.757"/>
<polygon fill="midnightblue" stroke="midnightblue" points="331.367,-191.153 341.936,-190.414 333.213,-184.401 331.367,-191.153"/>
</g>
<!-- Node12&#45;&gt;Node7 -->
<g id="edge14" class="edge"><title>Node12&#45;&gt;Node7</title>
<path fill="none" stroke="midnightblue" d="M408.271,-155.491C420.219,-152.377 434.016,-148.185 446,-143 472.396,-131.579 500.368,-114.053 519.069,-101.45"/>
<polygon fill="midnightblue" stroke="midnightblue" points="521.183,-104.245 527.457,-95.7073 517.229,-98.4685 521.183,-104.245"/>
</g>
<!-- Node13&#45;&gt;Node7 -->
<g id="edge17" class="edge"><title>Node13&#45;&gt;Node7</title>
<path fill="none" stroke="midnightblue" d="M406.115,-117.64C437.241,-110.339 487.795,-98.4802 517.374,-91.542"/>
<polygon fill="midnightblue" stroke="midnightblue" points="518.311,-94.9173 527.247,-89.226 516.712,-88.1023 518.311,-94.9173"/>
</g>
<!-- Node15 -->
<g id="node15" class="node"><title>Node15</title>
<g id="a_node15"><a xlink:href="../../df/dd5/classANNorthHalfSpace.html#a43889114febbc41859d5c44f2f220f7e" target="_top" xlink:title="ANNorthHalfSpace::out">
<polygon fill="white" stroke="black" points="482,-190.5 482,-209.5 602,-209.5 602,-190.5 482,-190.5"/>
<text text-anchor="middle" x="542" y="-197.5" font-family="Helvetica,sans-Serif" font-size="10.00">ANNorthHalfSpace::out</text>
</a>
</g>
</g>
<!-- Node14&#45;&gt;Node15 -->
<g id="edge19" class="edge"><title>Node14&#45;&gt;Node15</title>
<path fill="none" stroke="midnightblue" d="M446.295,-200C454.7,-200 463.308,-200 471.743,-200"/>
<polygon fill="midnightblue" stroke="midnightblue" points="471.92,-203.5 481.92,-200 471.92,-196.5 471.92,-203.5"/>
</g>
</g>
</svg>
