<?xml version="1.0" encoding="UTF-8" standalone="no"?>
<!DOCTYPE svg PUBLIC "-//W3C//DTD SVG 1.1//EN"
 "http://www.w3.org/Graphics/SVG/1.1/DTD/svg11.dtd">
<!-- Generated by graphviz version 2.36.0 (20140111.2315)
 -->
<!-- Title: main Pages: 1 -->
<!--zoomable 370 -->
<svg id="main" version="1.1" xmlns="http://www.w3.org/2000/svg" xmlns:xlink="http://www.w3.org/1999/xlink" xml:space="preserve" onload="init(evt)">
<style type="text/css"><![CDATA[
.edge:hover path { stroke: red; }
.edge:hover polygon { stroke: red; fill: red; }
]]></style>
<script type="text/javascript"><![CDATA[
var edges = document.getElementsByTagName('g');
if (edges && edges.length) {
  for (var i=0;i<edges.length;i++) {
    if (edges[i].id.substr(0,4)=='edge') {
      edges[i].setAttribute('class','edge');
    }
  }
}
]]></script>
        <defs>
                <circle id="rim" cx="0" cy="0" r="7"/>
                <circle id="rim2" cx="0" cy="0" r="3.5"/>
                <g id="zoomPlus">
                        <use xlink:href="#rim" fill="#404040">
                                <set attributeName="fill" to="#808080" begin="zoomplus.mouseover" end="zoomplus.mouseout"/>
                        </use>
                        <path d="M-4,0h8M0,-4v8" fill="none" stroke="white" stroke-width="1.5" pointer-events="none"/>
                </g>
                <g id="zoomMin">
                        <use xlink:href="#rim" fill="#404040">
                                <set attributeName="fill" to="#808080" begin="zoomminus.mouseover" end="zoomminus.mouseout"/>
                        </use>
                        <path d="M-4,0h8" fill="none" stroke="white" stroke-width="1.5" pointer-events="none"/>
                </g>
                <g id="dirArrow">
                        <path fill="none" stroke="white" stroke-width="1.5" d="M0,-3.0v7 M-2.5,-0.5L0,-3.0L2.5,-0.5"/>
                </g>
               <g id="resetDef">
                       <use xlink:href="#rim2" fill="#404040">
                               <set attributeName="fill" to="#808080" begin="reset.mouseover" end="reset.mouseout"/>
                       </use>
               </g>
        </defs>

<script type="text/javascript">
var viewWidth = 684;
var viewHeight = 370;
var sectionId = 'dynsection-3';
</script>
<script xlink:href="../../svgpan.js"/>
<svg id="graph" class="graph">
<g id="viewport">
<title>main</title>
<polygon fill="white" stroke="none" points="-4,4 -4,-366 680,-366 680,4 -4,4"/>
<!-- Node1 -->
<g id="node1" class="node"><title>Node1</title>
<polygon fill="#bfbfbf" stroke="black" points="0,-285.5 0,-304.5 38,-304.5 38,-285.5 0,-285.5"/>
<text text-anchor="middle" x="19" y="-292.5" font-family="Helvetica,sans-Serif" font-size="10.00">main</text>
</g>
<!-- Node2 -->
<g id="node2" class="node"><title>Node2</title>
<g id="a_node2"><a xlink:href="../../d3/da8/ann2fig_8cpp.html#a121108f1337a0a9a98c92a1c2faeb8c5" target="_top" xlink:title="getArgs">
<polygon fill="white" stroke="black" points="286,-304.5 286,-323.5 336,-323.5 336,-304.5 286,-304.5"/>
<text text-anchor="middle" x="311" y="-311.5" font-family="Helvetica,sans-Serif" font-size="10.00">getArgs</text>
</a>
</g>
</g>
<!-- Node1&#45;&gt;Node2 -->
<g id="edge1" class="edge"><title>Node1&#45;&gt;Node2</title>
<path fill="none" stroke="midnightblue" d="M38.1408,-296.189C85.6145,-299.299 214.098,-307.717 275.896,-311.766"/>
<polygon fill="midnightblue" stroke="midnightblue" points="275.715,-315.261 285.923,-312.423 276.173,-308.276 275.715,-315.261"/>
</g>
<!-- Node6 -->
<g id="node6" class="node"><title>Node6</title>
<g id="a_node6"><a xlink:href="../../d3/da8/ann2fig_8cpp.html#ad43e1c2a0c3323926f7d11e6457f6c67" target="_top" xlink:title="readANN">
<polygon fill="white" stroke="black" points="74.5,-247.5 74.5,-266.5 131.5,-266.5 131.5,-247.5 74.5,-247.5"/>
<text text-anchor="middle" x="103" y="-254.5" font-family="Helvetica,sans-Serif" font-size="10.00">readANN</text>
</a>
</g>
</g>
<!-- Node1&#45;&gt;Node6 -->
<g id="edge6" class="edge"><title>Node1&#45;&gt;Node6</title>
<path fill="none" stroke="midnightblue" d="M38.1985,-286.567C48.1512,-281.954 60.7324,-276.124 72.0869,-270.862"/>
<polygon fill="midnightblue" stroke="midnightblue" points="73.6502,-273.995 81.2516,-266.615 70.7069,-267.644 73.6502,-273.995"/>
</g>
<!-- Node3 -->
<g id="node3" class="node"><title>Node3</title>
<g id="a_node3"><a xlink:href="../../d3/da8/ann2fig_8cpp.html#a24326826753a88b433f214353b94e7fb" target="_top" xlink:title="set_slice_val">
<polygon fill="white" stroke="black" points="415,-342.5 415,-361.5 489,-361.5 489,-342.5 415,-342.5"/>
<text text-anchor="middle" x="452" y="-349.5" font-family="Helvetica,sans-Serif" font-size="10.00">set_slice_val</text>
</a>
</g>
</g>
<!-- Node2&#45;&gt;Node3 -->
<g id="edge2" class="edge"><title>Node2&#45;&gt;Node3</title>
<path fill="none" stroke="midnightblue" d="M336.212,-320.619C355.541,-325.903 383.147,-333.45 406.443,-339.819"/>
<polygon fill="midnightblue" stroke="midnightblue" points="405.557,-343.205 416.126,-342.466 407.403,-336.453 405.557,-343.205"/>
</g>
<!-- Node4 -->
<g id="node4" class="node"><title>Node4</title>
<g id="a_node4"><a xlink:href="../../d9/db8/glut_8h.html#a6f255d924f7a6bb2c4be0c8c2f2d9ce3" target="_top" xlink:title="exit">
<polygon fill="white" stroke="black" points="600,-285.5 600,-304.5 632,-304.5 632,-285.5 600,-285.5"/>
<text text-anchor="middle" x="616" y="-292.5" font-family="Helvetica,sans-Serif" font-size="10.00">exit</text>
</a>
</g>
</g>
<!-- Node2&#45;&gt;Node4 -->
<g id="edge3" class="edge"><title>Node2&#45;&gt;Node4</title>
<path fill="none" stroke="midnightblue" d="M336.029,-312.493C392.31,-308.964 532.244,-300.189 589.732,-296.584"/>
<polygon fill="midnightblue" stroke="midnightblue" points="590.013,-300.074 599.775,-295.955 589.575,-293.088 590.013,-300.074"/>
</g>
<!-- Node5 -->
<g id="node5" class="node"><title>Node5</title>
<g id="a_node5"><a xlink:href="../../d3/da8/ann2fig_8cpp.html#abd279ad6ac37fcf85881e690e8875616" target="_top" xlink:title="Error">
<polygon fill="white" stroke="black" points="433,-266.5 433,-285.5 471,-285.5 471,-266.5 433,-266.5"/>
<text text-anchor="middle" x="452" y="-273.5" font-family="Helvetica,sans-Serif" font-size="10.00">Error</text>
</a>
</g>
</g>
<!-- Node2&#45;&gt;Node5 -->
<g id="edge4" class="edge"><title>Node2&#45;&gt;Node5</title>
<path fill="none" stroke="midnightblue" d="M336.212,-307.381C360.413,-300.765 397.589,-290.602 423.035,-283.645"/>
<polygon fill="midnightblue" stroke="midnightblue" points="424.096,-286.984 432.819,-280.97 422.25,-280.231 424.096,-286.984"/>
</g>
<!-- Node5&#45;&gt;Node4 -->
<g id="edge5" class="edge"><title>Node5&#45;&gt;Node4</title>
<path fill="none" stroke="midnightblue" d="M471.269,-278.143C500.263,-281.543 556.888,-288.184 589.746,-292.038"/>
<polygon fill="midnightblue" stroke="midnightblue" points="589.564,-295.541 599.904,-293.229 590.38,-288.588 589.564,-295.541"/>
</g>
<!-- Node6&#45;&gt;Node5 -->
<g id="edge7" class="edge"><title>Node6&#45;&gt;Node5</title>
<path fill="none" stroke="midnightblue" d="M131.733,-256.281C158.842,-255.749 201.279,-255.365 238,-257 304.391,-259.955 382.078,-268.067 422.804,-272.68"/>
<polygon fill="midnightblue" stroke="midnightblue" points="422.468,-276.164 432.802,-273.826 423.265,-269.21 422.468,-276.164"/>
</g>
<!-- Node7 -->
<g id="node7" class="node"><title>Node7</title>
<g id="a_node7"><a xlink:href="../../d8/da9/ANN_8h.html#a7d801c6084e348aefc8d675d5b8f2f9a" target="_top" xlink:title="annAllocPts">
<polygon fill="white" stroke="black" points="168.5,-266.5 168.5,-285.5 237.5,-285.5 237.5,-266.5 168.5,-266.5"/>
<text text-anchor="middle" x="203" y="-273.5" font-family="Helvetica,sans-Serif" font-size="10.00">annAllocPts</text>
</a>
</g>
</g>
<!-- Node6&#45;&gt;Node7 -->
<g id="edge8" class="edge"><title>Node6&#45;&gt;Node7</title>
<path fill="none" stroke="midnightblue" d="M131.559,-262.343C139.868,-263.954 149.202,-265.764 158.289,-267.525"/>
<polygon fill="midnightblue" stroke="midnightblue" points="157.894,-271.014 168.378,-269.481 159.227,-264.142 157.894,-271.014"/>
</g>
<!-- Node8 -->
<g id="node8" class="node"><title>Node8</title>
<g id="a_node8"><a xlink:href="../../d3/da8/ann2fig_8cpp.html#a180fee6b105f7d14eb56b8f828d440e7" target="_top" xlink:title="readTree">
<polygon fill="white" stroke="black" points="175.5,-76.5 175.5,-95.5 230.5,-95.5 230.5,-76.5 175.5,-76.5"/>
<text text-anchor="middle" x="203" y="-83.5" font-family="Helvetica,sans-Serif" font-size="10.00">readTree</text>
</a>
</g>
</g>
<!-- Node6&#45;&gt;Node8 -->
<g id="edge9" class="edge"><title>Node6&#45;&gt;Node8</title>
<path fill="none" stroke="midnightblue" d="M109.55,-247.316C125.316,-219.805 170.575,-140.834 191.347,-104.589"/>
<polygon fill="midnightblue" stroke="midnightblue" points="194.575,-105.994 196.511,-95.5774 188.502,-102.513 194.575,-105.994"/>
</g>
<!-- Node9 -->
<g id="node9" class="node"><title>Node9</title>
<g id="a_node9"><a xlink:href="../../d3/da8/ann2fig_8cpp.html#a2e19c2ee025cf0d8494654f6baa42176" target="_top" xlink:title="writeHeader">
<polygon fill="white" stroke="black" points="276.5,-0.5 276.5,-19.5 345.5,-19.5 345.5,-0.5 276.5,-0.5"/>
<text text-anchor="middle" x="311" y="-7.5" font-family="Helvetica,sans-Serif" font-size="10.00">writeHeader</text>
</a>
</g>
</g>
<!-- Node8&#45;&gt;Node9 -->
<g id="edge10" class="edge"><title>Node8&#45;&gt;Node9</title>
<path fill="none" stroke="midnightblue" d="M214.403,-76.4208C227.648,-64.4918 251.519,-43.8741 274,-29 276.297,-27.4804 278.728,-25.9832 281.201,-24.5367"/>
<polygon fill="midnightblue" stroke="midnightblue" points="283.113,-27.4788 290.164,-19.5714 279.721,-21.3556 283.113,-27.4788"/>
</g>
<!-- Node11 -->
<g id="node11" class="node"><title>Node11</title>
<g id="a_node11"><a xlink:href="../../d3/da8/ann2fig_8cpp.html#a43265c93b3e1b477627e253b5196df41" target="_top" xlink:title="writeBox">
<polygon fill="white" stroke="black" points="424.5,-76.5 424.5,-95.5 479.5,-95.5 479.5,-76.5 424.5,-76.5"/>
<text text-anchor="middle" x="452" y="-83.5" font-family="Helvetica,sans-Serif" font-size="10.00">writeBox</text>
</a>
</g>
</g>
<!-- Node8&#45;&gt;Node11 -->
<g id="edge12" class="edge"><title>Node8&#45;&gt;Node11</title>
<path fill="none" stroke="midnightblue" d="M230.904,-86C275.261,-86 363.819,-86 414.027,-86"/>
<polygon fill="midnightblue" stroke="midnightblue" points="414.13,-89.5001 424.13,-86 414.13,-82.5001 414.13,-89.5001"/>
</g>
<!-- Node12 -->
<g id="node12" class="node"><title>Node12</title>
<g id="a_node12"><a xlink:href="../../d3/da8/ann2fig_8cpp.html#a6df8fccb629d8f4b854244844a18b8b3" target="_top" xlink:title="writeCaption">
<polygon fill="white" stroke="black" points="275.5,-38.5 275.5,-57.5 346.5,-57.5 346.5,-38.5 275.5,-38.5"/>
<text text-anchor="middle" x="311" y="-45.5" font-family="Helvetica,sans-Serif" font-size="10.00">writeCaption</text>
</a>
</g>
</g>
<!-- Node8&#45;&gt;Node12 -->
<g id="edge14" class="edge"><title>Node8&#45;&gt;Node12</title>
<path fill="none" stroke="midnightblue" d="M230.748,-76.411C243.804,-71.7306 259.703,-66.0308 273.825,-60.9685"/>
<polygon fill="midnightblue" stroke="midnightblue" points="275.028,-64.2553 283.26,-57.5859 272.666,-57.6659 275.028,-64.2553"/>
</g>
<!-- Node13 -->
<g id="node13" class="node"><title>Node13</title>
<g id="a_node13"><a xlink:href="../../d3/da8/ann2fig_8cpp.html#a0b4361cb538ad26d66f8eff36d795b31" target="_top" xlink:title="recReadTree">
<polygon fill="white" stroke="black" points="274.5,-152.5 274.5,-171.5 347.5,-171.5 347.5,-152.5 274.5,-152.5"/>
<text text-anchor="middle" x="311" y="-159.5" font-family="Helvetica,sans-Serif" font-size="10.00">recReadTree</text>
</a>
</g>
</g>
<!-- Node8&#45;&gt;Node13 -->
<g id="edge16" class="edge"><title>Node8&#45;&gt;Node13</title>
<path fill="none" stroke="midnightblue" d="M217.425,-95.6255C235.266,-108.417 267.007,-131.175 288.279,-146.427"/>
<polygon fill="midnightblue" stroke="midnightblue" points="286.518,-149.47 296.684,-152.453 290.596,-143.781 286.518,-149.47"/>
</g>
<!-- Node10 -->
<g id="node10" class="node"><title>Node10</title>
<g id="a_node10"><a xlink:href="../../db/d82/wglew_8h.html#a500a82aecba06f4550f6849b8099ca21" target="_top" xlink:title="int">
<polygon fill="white" stroke="black" points="601.5,-76.5 601.5,-95.5 630.5,-95.5 630.5,-76.5 601.5,-76.5"/>
<text text-anchor="middle" x="616" y="-83.5" font-family="Helvetica,sans-Serif" font-size="10.00">int</text>
</a>
</g>
</g>
<!-- Node9&#45;&gt;Node10 -->
<g id="edge11" class="edge"><title>Node9&#45;&gt;Node10</title>
<path fill="none" stroke="midnightblue" d="M345.616,-14.0365C387.14,-19.5012 459.683,-30.6162 520,-48 545.32,-55.2974 573.194,-66.8969 592.161,-75.3625"/>
<polygon fill="midnightblue" stroke="midnightblue" points="590.905,-78.636 601.458,-79.5801 593.797,-72.2613 590.905,-78.636"/>
</g>
<!-- Node11&#45;&gt;Node10 -->
<g id="edge13" class="edge"><title>Node11&#45;&gt;Node10</title>
<path fill="none" stroke="midnightblue" d="M479.751,-86C510.67,-86 561.106,-86 590.869,-86"/>
<polygon fill="midnightblue" stroke="midnightblue" points="591.179,-89.5001 601.179,-86 591.179,-82.5001 591.179,-89.5001"/>
</g>
<!-- Node12&#45;&gt;Node10 -->
<g id="edge15" class="edge"><title>Node12&#45;&gt;Node10</title>
<path fill="none" stroke="midnightblue" d="M346.728,-50.0395C388.132,-52.7323 459.355,-58.1911 520,-67 544.464,-70.5534 572.15,-76.2892 591.295,-80.5303"/>
<polygon fill="midnightblue" stroke="midnightblue" points="590.71,-83.9861 601.235,-82.768 592.248,-77.157 590.71,-83.9861"/>
</g>
<!-- Node13&#45;&gt;Node5 -->
<g id="edge20" class="edge"><title>Node13&#45;&gt;Node5</title>
<path fill="none" stroke="midnightblue" d="M316.64,-171.734C326.344,-191.032 350.678,-234.238 384,-257 395.466,-264.832 410.128,-269.461 422.811,-272.184"/>
<polygon fill="midnightblue" stroke="midnightblue" points="422.415,-275.67 432.886,-274.052 423.692,-268.788 422.415,-275.67"/>
</g>
<!-- Node13&#45;&gt;Node11 -->
<g id="edge25" class="edge"><title>Node13&#45;&gt;Node11</title>
<path fill="none" stroke="midnightblue" d="M321.828,-152.092C334.917,-139.428 359.305,-117.637 384,-105 393.445,-100.167 404.287,-96.4147 414.458,-93.5703"/>
<polygon fill="midnightblue" stroke="midnightblue" points="415.522,-96.9105 424.33,-91.0221 413.773,-90.1327 415.522,-96.9105"/>
</g>
<!-- Node14 -->
<g id="node14" class="node"><title>Node14</title>
<g id="a_node14"><a xlink:href="../../d3/da8/ann2fig_8cpp.html#a8f0302d4cc5b5cb00cf1c15f446bda8d" target="_top" xlink:title="overlap">
<polygon fill="white" stroke="black" points="428,-228.5 428,-247.5 476,-247.5 476,-228.5 428,-228.5"/>
<text text-anchor="middle" x="452" y="-235.5" font-family="Helvetica,sans-Serif" font-size="10.00">overlap</text>
</a>
</g>
</g>
<!-- Node13&#45;&gt;Node14 -->
<g id="edge17" class="edge"><title>Node13&#45;&gt;Node14</title>
<path fill="none" stroke="midnightblue" d="M321.828,-171.908C334.917,-184.572 359.305,-206.363 384,-219 394.548,-224.398 406.839,-228.447 417.992,-231.39"/>
<polygon fill="midnightblue" stroke="midnightblue" points="417.288,-234.82 427.833,-233.787 418.946,-228.019 417.288,-234.82"/>
</g>
<!-- Node15 -->
<g id="node15" class="node"><title>Node15</title>
<g id="a_node15"><a xlink:href="../../d3/da8/ann2fig_8cpp.html#ac74894175c568ccdd162865b40ae1ee4" target="_top" xlink:title="writePoint">
<polygon fill="white" stroke="black" points="422,-152.5 422,-171.5 482,-171.5 482,-152.5 422,-152.5"/>
<text text-anchor="middle" x="452" y="-159.5" font-family="Helvetica,sans-Serif" font-size="10.00">writePoint</text>
</a>
</g>
</g>
<!-- Node13&#45;&gt;Node15 -->
<g id="edge18" class="edge"><title>Node13&#45;&gt;Node15</title>
<path fill="none" stroke="midnightblue" d="M347.796,-162C367.387,-162 391.691,-162 411.793,-162"/>
<polygon fill="midnightblue" stroke="midnightblue" points="411.874,-165.5 421.874,-162 411.874,-158.5 411.874,-165.5"/>
</g>
<!-- Node16 -->
<g id="node16" class="node"><title>Node16</title>
<g id="a_node16"><a xlink:href="../../d3/da8/ann2fig_8cpp.html#a09046b3c19c279ebbe377f7067653659" target="_top" xlink:title="writeLine">
<polygon fill="white" stroke="black" points="424,-114.5 424,-133.5 480,-133.5 480,-114.5 424,-114.5"/>
<text text-anchor="middle" x="452" y="-121.5" font-family="Helvetica,sans-Serif" font-size="10.00">writeLine</text>
</a>
</g>
</g>
<!-- Node13&#45;&gt;Node16 -->
<g id="edge21" class="edge"><title>Node13&#45;&gt;Node16</title>
<path fill="none" stroke="midnightblue" d="M347.076,-152.411C367.534,-146.818 393.316,-139.77 414.082,-134.093"/>
<polygon fill="midnightblue" stroke="midnightblue" points="415.105,-137.442 423.828,-131.428 413.259,-130.689 415.105,-137.442"/>
</g>
<!-- Node17 -->
<g id="node17" class="node"><title>Node17</title>
<g id="a_node17"><a xlink:href="../../df/dd5/classANNorthHalfSpace.html#abd63063b5627aeb80428942438c653bc" target="_top" xlink:title="ANNorthHalfSpace::project">
<polygon fill="white" stroke="black" points="384,-190.5 384,-209.5 520,-209.5 520,-190.5 384,-190.5"/>
<text text-anchor="middle" x="452" y="-197.5" font-family="Helvetica,sans-Serif" font-size="10.00">ANNorthHalfSpace::project</text>
</a>
</g>
</g>
<!-- Node13&#45;&gt;Node17 -->
<g id="edge23" class="edge"><title>Node13&#45;&gt;Node17</title>
<path fill="none" stroke="midnightblue" d="M347.076,-171.589C365.019,-176.494 387.058,-182.52 406.217,-187.757"/>
<polygon fill="midnightblue" stroke="midnightblue" points="405.367,-191.153 415.936,-190.414 407.213,-184.401 405.367,-191.153"/>
</g>
<!-- Node15&#45;&gt;Node10 -->
<g id="edge19" class="edge"><title>Node15&#45;&gt;Node10</title>
<path fill="none" stroke="midnightblue" d="M482.271,-155.491C494.219,-152.377 508.016,-148.185 520,-143 546.396,-131.579 574.368,-114.053 593.069,-101.45"/>
<polygon fill="midnightblue" stroke="midnightblue" points="595.183,-104.245 601.457,-95.7073 591.229,-98.4685 595.183,-104.245"/>
</g>
<!-- Node16&#45;&gt;Node10 -->
<g id="edge22" class="edge"><title>Node16&#45;&gt;Node10</title>
<path fill="none" stroke="midnightblue" d="M480.115,-117.64C511.241,-110.339 561.795,-98.4802 591.374,-91.542"/>
<polygon fill="midnightblue" stroke="midnightblue" points="592.311,-94.9173 601.247,-89.226 590.712,-88.1023 592.311,-94.9173"/>
</g>
<!-- Node18 -->
<g id="node18" class="node"><title>Node18</title>
<g id="a_node18"><a xlink:href="../../df/dd5/classANNorthHalfSpace.html#a43889114febbc41859d5c44f2f220f7e" target="_top" xlink:title="ANNorthHalfSpace::out">
<polygon fill="white" stroke="black" points="556,-190.5 556,-209.5 676,-209.5 676,-190.5 556,-190.5"/>
<text text-anchor="middle" x="616" y="-197.5" font-family="Helvetica,sans-Serif" font-size="10.00">ANNorthHalfSpace::out</text>
</a>
</g>
</g>
<!-- Node17&#45;&gt;Node18 -->
<g id="edge24" class="edge"><title>Node17&#45;&gt;Node18</title>
<path fill="none" stroke="midnightblue" d="M520.295,-200C528.7,-200 537.308,-200 545.743,-200"/>
<polygon fill="midnightblue" stroke="midnightblue" points="545.92,-203.5 555.92,-200 545.92,-196.5 545.92,-203.5"/>
</g>
</g>
</svg>
        <g id="navigator" transform="translate(0 0)" fill="#404254">
                <rect fill="#f2f5e9" fill-opacity="0.5" stroke="#606060" stroke-width=".5" x="0" y="0" width="60" height="60"/>
                <use id="zoomplus" xlink:href="#zoomPlus" x="17" y="9" onmousedown="handleZoom(evt,'in')"/>
                <use id="zoomminus" xlink:href="#zoomMin" x="42" y="9" onmousedown="handleZoom(evt,'out')"/>
                <use id="reset" xlink:href="#resetDef" x="30" y="36" onmousedown="handleReset()"/>
                <g id="arrowUp" xlink:href="#dirArrow" transform="translate(30 24)" onmousedown="handlePan(0,-1)">
                  <use xlink:href="#rim" fill="#404040">
                        <set attributeName="fill" to="#808080" begin="arrowUp.mouseover" end="arrowUp.mouseout"/>
                  </use>
                  <path fill="none" stroke="white" stroke-width="1.5" d="M0,-3.0v7 M-2.5,-0.5L0,-3.0L2.5,-0.5"/>
                </g>
                <g id="arrowRight" xlink:href="#dirArrow" transform="rotate(90) translate(36 -43)" onmousedown="handlePan(1,0)">
                  <use xlink:href="#rim" fill="#404040">
                        <set attributeName="fill" to="#808080" begin="arrowRight.mouseover" end="arrowRight.mouseout"/>
                  </use>
                  <path fill="none" stroke="white" stroke-width="1.5" d="M0,-3.0v7 M-2.5,-0.5L0,-3.0L2.5,-0.5"/>
                </g>
                <g id="arrowDown" xlink:href="#dirArrow" transform="rotate(180) translate(-30 -48)" onmousedown="handlePan(0,1)">
                  <use xlink:href="#rim" fill="#404040">
                        <set attributeName="fill" to="#808080" begin="arrowDown.mouseover" end="arrowDown.mouseout"/>
                  </use>
                  <path fill="none" stroke="white" stroke-width="1.5" d="M0,-3.0v7 M-2.5,-0.5L0,-3.0L2.5,-0.5"/>
                </g>
                <g id="arrowLeft" xlink:href="#dirArrow" transform="rotate(270) translate(-36 17)" onmousedown="handlePan(-1,0)">
                  <use xlink:href="#rim" fill="#404040">
                        <set attributeName="fill" to="#808080" begin="arrowLeft.mouseover" end="arrowLeft.mouseout"/>
                  </use>
                  <path fill="none" stroke="white" stroke-width="1.5" d="M0,-3.0v7 M-2.5,-0.5L0,-3.0L2.5,-0.5"/>
                </g>
        </g>
        <svg viewBox="0 0 15 15" width="100%" height="30px" preserveAspectRatio="xMaxYMin meet">
         <g id="arrow_out" transform="scale(0.3 0.3)">
          <a xlink:href="ann2fig_8cpp_a5ea466849f21e6c2be4ef9b2eb8868d3_cgraph_org.svg" target="_base">
           <rect id="button" ry="5" rx="5" y="6" x="6" height="38" width="38"
                fill="#f2f5e9" fill-opacity="0.5" stroke="#606060" stroke-width="1.0"/>
           <path id="arrow"
             d="M 11.500037,31.436501 C 11.940474,20.09759 22.043105,11.32322 32.158766,21.979434 L 37.068811,17.246167 C 37.068811,17.246167 37.088388,32 37.088388,32 L 22.160133,31.978069 C 22.160133,31.978069 26.997745,27.140456 26.997745,27.140456 C 18.528582,18.264221 13.291696,25.230495 11.500037,31.436501 z"
             style="fill:#404040;"/>
          </a>
         </g>
        </svg>
</svg>
