<?xml version="1.0" encoding="UTF-8" standalone="no"?>
<!DOCTYPE svg PUBLIC "-//W3C//DTD SVG 1.1//EN"
 "http://www.w3.org/Graphics/SVG/1.1/DTD/svg11.dtd">
<!-- Generated by graphviz version 2.36.0 (20140111.2315)
 -->
<!-- Title: readTree Pages: 1 -->
<!--zoomable 294 -->
<svg id="main" version="1.1" xmlns="http://www.w3.org/2000/svg" xmlns:xlink="http://www.w3.org/1999/xlink" xml:space="preserve" onload="init(evt)">
<style type="text/css"><![CDATA[
.edge:hover path { stroke: red; }
.edge:hover polygon { stroke: red; fill: red; }
]]></style>
<script type="text/javascript"><![CDATA[
var edges = document.getElementsByTagName('g');
if (edges && edges.length) {
  for (var i=0;i<edges.length;i++) {
    if (edges[i].id.substr(0,4)=='edge') {
      edges[i].setAttribute('class','edge');
    }
  }
}
]]></script>
        <defs>
                <circle id="rim" cx="0" cy="0" r="7"/>
                <circle id="rim2" cx="0" cy="0" r="3.5"/>
                <g id="zoomPlus">
                        <use xlink:href="#rim" fill="#404040">
                                <set attributeName="fill" to="#808080" begin="zoomplus.mouseover" end="zoomplus.mouseout"/>
                        </use>
                        <path d="M-4,0h8M0,-4v8" fill="none" stroke="white" stroke-width="1.5" pointer-events="none"/>
                </g>
                <g id="zoomMin">
                        <use xlink:href="#rim" fill="#404040">
                                <set attributeName="fill" to="#808080" begin="zoomminus.mouseover" end="zoomminus.mouseout"/>
                        </use>
                        <path d="M-4,0h8" fill="none" stroke="white" stroke-width="1.5" pointer-events="none"/>
                </g>
                <g id="dirArrow">
                        <path fill="none" stroke="white" stroke-width="1.5" d="M0,-3.0v7 M-2.5,-0.5L0,-3.0L2.5,-0.5"/>
                </g>
               <g id="resetDef">
                       <use xlink:href="#rim2" fill="#404040">
                               <set attributeName="fill" to="#808080" begin="reset.mouseover" end="reset.mouseout"/>
                       </use>
               </g>
        </defs>

<script type="text/javascript">
var viewWidth = 502;
var viewHeight = 294;
var sectionId = 'dynsection-5';
</script>
<script xlink:href="../../svgpan.js"/>
<svg id="graph" class="graph">
<g id="viewport">
<title>readTree</title>
<polygon fill="white" stroke="none" points="-4,4 -4,-290 498,-290 498,4 -4,4"/>
<!-- Node1 -->
<g id="node1" class="node"><title>Node1</title>
<polygon fill="#bfbfbf" stroke="black" points="0.5,-209.5 0.5,-228.5 55.5,-228.5 55.5,-209.5 0.5,-209.5"/>
<text text-anchor="middle" x="28" y="-216.5" font-family="Helvetica,sans-Serif" font-size="10.00">readTree</text>
</g>
<!-- Node2 -->
<g id="node2" class="node"><title>Node2</title>
<g id="a_node2"><a xlink:href="../../d3/da8/ann2fig_8cpp.html#a2e19c2ee025cf0d8494654f6baa42176" target="_top" xlink:title="writeHeader">
<polygon fill="white" stroke="black" points="94.5,-228.5 94.5,-247.5 163.5,-247.5 163.5,-228.5 94.5,-228.5"/>
<text text-anchor="middle" x="129" y="-235.5" font-family="Helvetica,sans-Serif" font-size="10.00">writeHeader</text>
</a>
</g>
</g>
<!-- Node1&#45;&gt;Node2 -->
<g id="edge1" class="edge"><title>Node1&#45;&gt;Node2</title>
<path fill="none" stroke="midnightblue" d="M55.5302,-224.092C64.3721,-225.789 74.4703,-227.727 84.2635,-229.606"/>
<polygon fill="midnightblue" stroke="midnightblue" points="83.8127,-233.083 94.2931,-231.531 85.1321,-226.209 83.8127,-233.083"/>
</g>
<!-- Node4 -->
<g id="node4" class="node"><title>Node4</title>
<g id="a_node4"><a xlink:href="../../d3/da8/ann2fig_8cpp.html#a43265c93b3e1b477627e253b5196df41" target="_top" xlink:title="writeBox">
<polygon fill="white" stroke="black" points="242.5,-190.5 242.5,-209.5 297.5,-209.5 297.5,-190.5 242.5,-190.5"/>
<text text-anchor="middle" x="270" y="-197.5" font-family="Helvetica,sans-Serif" font-size="10.00">writeBox</text>
</a>
</g>
</g>
<!-- Node1&#45;&gt;Node4 -->
<g id="edge3" class="edge"><title>Node1&#45;&gt;Node4</title>
<path fill="none" stroke="midnightblue" d="M55.6012,-216.894C98.5805,-213.492 183.392,-206.777 232.158,-202.917"/>
<polygon fill="midnightblue" stroke="midnightblue" points="232.587,-206.394 242.28,-202.115 232.035,-199.416 232.587,-206.394"/>
</g>
<!-- Node5 -->
<g id="node5" class="node"><title>Node5</title>
<g id="a_node5"><a xlink:href="../../d3/da8/ann2fig_8cpp.html#a6df8fccb629d8f4b854244844a18b8b3" target="_top" xlink:title="writeCaption">
<polygon fill="white" stroke="black" points="93.5,-266.5 93.5,-285.5 164.5,-285.5 164.5,-266.5 93.5,-266.5"/>
<text text-anchor="middle" x="129" y="-273.5" font-family="Helvetica,sans-Serif" font-size="10.00">writeCaption</text>
</a>
</g>
</g>
<!-- Node1&#45;&gt;Node5 -->
<g id="edge5" class="edge"><title>Node1&#45;&gt;Node5</title>
<path fill="none" stroke="midnightblue" d="M44.3888,-228.619C57.0557,-236.454 75.5402,-247.702 92,-257 94.6824,-258.515 97.4952,-260.065 100.316,-261.595"/>
<polygon fill="midnightblue" stroke="midnightblue" points="98.7354,-264.718 109.205,-266.34 102.032,-258.543 98.7354,-264.718"/>
</g>
<!-- Node6 -->
<g id="node6" class="node"><title>Node6</title>
<g id="a_node6"><a xlink:href="../../d3/da8/ann2fig_8cpp.html#a0b4361cb538ad26d66f8eff36d795b31" target="_top" xlink:title="recReadTree">
<polygon fill="white" stroke="black" points="92.5,-114.5 92.5,-133.5 165.5,-133.5 165.5,-114.5 92.5,-114.5"/>
<text text-anchor="middle" x="129" y="-121.5" font-family="Helvetica,sans-Serif" font-size="10.00">recReadTree</text>
</a>
</g>
</g>
<!-- Node1&#45;&gt;Node6 -->
<g id="edge7" class="edge"><title>Node1&#45;&gt;Node6</title>
<path fill="none" stroke="midnightblue" d="M39.2219,-209.191C56.0567,-193.037 89.8082,-160.649 110.501,-140.792"/>
<polygon fill="midnightblue" stroke="midnightblue" points="113.189,-143.063 117.981,-133.614 108.342,-138.012 113.189,-143.063"/>
</g>
<!-- Node3 -->
<g id="node3" class="node"><title>Node3</title>
<g id="a_node3"><a xlink:href="../../db/d82/wglew_8h.html#a500a82aecba06f4550f6849b8099ca21" target="_top" xlink:title="int">
<polygon fill="white" stroke="black" points="419.5,-190.5 419.5,-209.5 448.5,-209.5 448.5,-190.5 419.5,-190.5"/>
<text text-anchor="middle" x="434" y="-197.5" font-family="Helvetica,sans-Serif" font-size="10.00">int</text>
</a>
</g>
</g>
<!-- Node2&#45;&gt;Node3 -->
<g id="edge2" class="edge"><title>Node2&#45;&gt;Node3</title>
<path fill="none" stroke="midnightblue" d="M163.632,-236.032C204.867,-233.364 276.816,-227.887 338,-219 362.464,-215.447 390.15,-209.711 409.295,-205.47"/>
<polygon fill="midnightblue" stroke="midnightblue" points="410.248,-208.843 419.235,-203.232 408.71,-202.014 410.248,-208.843"/>
</g>
<!-- Node4&#45;&gt;Node3 -->
<g id="edge4" class="edge"><title>Node4&#45;&gt;Node3</title>
<path fill="none" stroke="midnightblue" d="M297.751,-200C328.67,-200 379.106,-200 408.869,-200"/>
<polygon fill="midnightblue" stroke="midnightblue" points="409.179,-203.5 419.179,-200 409.179,-196.5 409.179,-203.5"/>
</g>
<!-- Node5&#45;&gt;Node3 -->
<g id="edge6" class="edge"><title>Node5&#45;&gt;Node3</title>
<path fill="none" stroke="midnightblue" d="M164.776,-272.428C206.529,-267.583 278.387,-257.462 338,-240 363.447,-232.546 391.262,-220.321 410.179,-211.344"/>
<polygon fill="midnightblue" stroke="midnightblue" points="411.717,-214.488 419.201,-206.989 408.674,-208.184 411.717,-214.488"/>
</g>
<!-- Node6&#45;&gt;Node4 -->
<g id="edge17" class="edge"><title>Node6&#45;&gt;Node4</title>
<path fill="none" stroke="midnightblue" d="M139.828,-133.908C152.917,-146.572 177.305,-168.363 202,-181 211.445,-185.833 222.287,-189.585 232.458,-192.43"/>
<polygon fill="midnightblue" stroke="midnightblue" points="231.773,-195.867 242.33,-194.978 233.522,-189.089 231.773,-195.867"/>
</g>
<!-- Node7 -->
<g id="node7" class="node"><title>Node7</title>
<g id="a_node7"><a xlink:href="../../d3/da8/ann2fig_8cpp.html#a8f0302d4cc5b5cb00cf1c15f446bda8d" target="_top" xlink:title="overlap">
<polygon fill="white" stroke="black" points="246,-38.5 246,-57.5 294,-57.5 294,-38.5 246,-38.5"/>
<text text-anchor="middle" x="270" y="-45.5" font-family="Helvetica,sans-Serif" font-size="10.00">overlap</text>
</a>
</g>
</g>
<!-- Node6&#45;&gt;Node7 -->
<g id="edge8" class="edge"><title>Node6&#45;&gt;Node7</title>
<path fill="none" stroke="midnightblue" d="M139.828,-114.092C152.917,-101.428 177.305,-79.6371 202,-67 212.548,-61.6024 224.839,-57.5529 235.992,-54.6105"/>
<polygon fill="midnightblue" stroke="midnightblue" points="236.946,-57.9806 245.833,-52.2125 235.288,-51.1796 236.946,-57.9806"/>
</g>
<!-- Node8 -->
<g id="node8" class="node"><title>Node8</title>
<g id="a_node8"><a xlink:href="../../d3/da8/ann2fig_8cpp.html#ac74894175c568ccdd162865b40ae1ee4" target="_top" xlink:title="writePoint">
<polygon fill="white" stroke="black" points="240,-114.5 240,-133.5 300,-133.5 300,-114.5 240,-114.5"/>
<text text-anchor="middle" x="270" y="-121.5" font-family="Helvetica,sans-Serif" font-size="10.00">writePoint</text>
</a>
</g>
</g>
<!-- Node6&#45;&gt;Node8 -->
<g id="edge9" class="edge"><title>Node6&#45;&gt;Node8</title>
<path fill="none" stroke="midnightblue" d="M165.796,-124C185.387,-124 209.691,-124 229.793,-124"/>
<polygon fill="midnightblue" stroke="midnightblue" points="229.874,-127.5 239.874,-124 229.874,-120.5 229.874,-127.5"/>
</g>
<!-- Node9 -->
<g id="node9" class="node"><title>Node9</title>
<g id="a_node9"><a xlink:href="../../d3/da8/ann2fig_8cpp.html#abd279ad6ac37fcf85881e690e8875616" target="_top" xlink:title="Error">
<polygon fill="white" stroke="black" points="251,-76.5 251,-95.5 289,-95.5 289,-76.5 251,-76.5"/>
<text text-anchor="middle" x="270" y="-83.5" font-family="Helvetica,sans-Serif" font-size="10.00">Error</text>
</a>
</g>
</g>
<!-- Node6&#45;&gt;Node9 -->
<g id="edge11" class="edge"><title>Node6&#45;&gt;Node9</title>
<path fill="none" stroke="midnightblue" d="M165.076,-114.411C188.682,-107.958 219.376,-99.5662 241.274,-93.5798"/>
<polygon fill="midnightblue" stroke="midnightblue" points="242.23,-96.947 250.953,-90.9337 240.384,-90.1947 242.23,-96.947"/>
</g>
<!-- Node11 -->
<g id="node11" class="node"><title>Node11</title>
<g id="a_node11"><a xlink:href="../../d3/da8/ann2fig_8cpp.html#a09046b3c19c279ebbe377f7067653659" target="_top" xlink:title="writeLine">
<polygon fill="white" stroke="black" points="242,-152.5 242,-171.5 298,-171.5 298,-152.5 242,-152.5"/>
<text text-anchor="middle" x="270" y="-159.5" font-family="Helvetica,sans-Serif" font-size="10.00">writeLine</text>
</a>
</g>
</g>
<!-- Node6&#45;&gt;Node11 -->
<g id="edge13" class="edge"><title>Node6&#45;&gt;Node11</title>
<path fill="none" stroke="midnightblue" d="M165.076,-133.589C185.534,-139.182 211.316,-146.23 232.082,-151.907"/>
<polygon fill="midnightblue" stroke="midnightblue" points="231.259,-155.311 241.828,-154.572 233.105,-148.558 231.259,-155.311"/>
</g>
<!-- Node12 -->
<g id="node12" class="node"><title>Node12</title>
<g id="a_node12"><a xlink:href="../../df/dd5/classANNorthHalfSpace.html#abd63063b5627aeb80428942438c653bc" target="_top" xlink:title="ANNorthHalfSpace::project">
<polygon fill="white" stroke="black" points="202,-0.5 202,-19.5 338,-19.5 338,-0.5 202,-0.5"/>
<text text-anchor="middle" x="270" y="-7.5" font-family="Helvetica,sans-Serif" font-size="10.00">ANNorthHalfSpace::project</text>
</a>
</g>
</g>
<!-- Node6&#45;&gt;Node12 -->
<g id="edge15" class="edge"><title>Node6&#45;&gt;Node12</title>
<path fill="none" stroke="midnightblue" d="M134.64,-114.266C144.344,-94.9682 168.678,-51.7625 202,-29 204.934,-26.9956 208.078,-25.201 211.344,-23.5945"/>
<polygon fill="midnightblue" stroke="midnightblue" points="212.985,-26.6992 220.802,-19.5468 210.231,-20.2638 212.985,-26.6992"/>
</g>
<!-- Node8&#45;&gt;Node3 -->
<g id="edge10" class="edge"><title>Node8&#45;&gt;Node3</title>
<path fill="none" stroke="midnightblue" d="M300.271,-130.509C312.219,-133.623 326.016,-137.815 338,-143 364.396,-154.421 392.368,-171.947 411.069,-184.55"/>
<polygon fill="midnightblue" stroke="midnightblue" points="409.229,-187.532 419.457,-190.293 413.183,-181.755 409.229,-187.532"/>
</g>
<!-- Node10 -->
<g id="node10" class="node"><title>Node10</title>
<g id="a_node10"><a xlink:href="../../d9/db8/glut_8h.html#a6f255d924f7a6bb2c4be0c8c2f2d9ce3" target="_top" xlink:title="exit">
<polygon fill="white" stroke="black" points="418,-76.5 418,-95.5 450,-95.5 450,-76.5 418,-76.5"/>
<text text-anchor="middle" x="434" y="-83.5" font-family="Helvetica,sans-Serif" font-size="10.00">exit</text>
</a>
</g>
</g>
<!-- Node9&#45;&gt;Node10 -->
<g id="edge12" class="edge"><title>Node9&#45;&gt;Node10</title>
<path fill="none" stroke="midnightblue" d="M289.269,-86C318.263,-86 374.888,-86 407.746,-86"/>
<polygon fill="midnightblue" stroke="midnightblue" points="407.904,-89.5001 417.904,-86 407.904,-82.5001 407.904,-89.5001"/>
</g>
<!-- Node11&#45;&gt;Node3 -->
<g id="edge14" class="edge"><title>Node11&#45;&gt;Node3</title>
<path fill="none" stroke="midnightblue" d="M298.115,-168.36C329.241,-175.661 379.795,-187.52 409.374,-194.458"/>
<polygon fill="midnightblue" stroke="midnightblue" points="408.712,-197.898 419.247,-196.774 410.311,-191.083 408.712,-197.898"/>
</g>
<!-- Node13 -->
<g id="node13" class="node"><title>Node13</title>
<g id="a_node13"><a xlink:href="../../df/dd5/classANNorthHalfSpace.html#a43889114febbc41859d5c44f2f220f7e" target="_top" xlink:title="ANNorthHalfSpace::out">
<polygon fill="white" stroke="black" points="374,-0.5 374,-19.5 494,-19.5 494,-0.5 374,-0.5"/>
<text text-anchor="middle" x="434" y="-7.5" font-family="Helvetica,sans-Serif" font-size="10.00">ANNorthHalfSpace::out</text>
</a>
</g>
</g>
<!-- Node12&#45;&gt;Node13 -->
<g id="edge16" class="edge"><title>Node12&#45;&gt;Node13</title>
<path fill="none" stroke="midnightblue" d="M338.295,-10C346.7,-10 355.308,-10 363.743,-10"/>
<polygon fill="midnightblue" stroke="midnightblue" points="363.92,-13.5001 373.92,-10 363.92,-6.5001 363.92,-13.5001"/>
</g>
</g>
</svg>
        <g id="navigator" transform="translate(0 0)" fill="#404254">
                <rect fill="#f2f5e9" fill-opacity="0.5" stroke="#606060" stroke-width=".5" x="0" y="0" width="60" height="60"/>
                <use id="zoomplus" xlink:href="#zoomPlus" x="17" y="9" onmousedown="handleZoom(evt,'in')"/>
                <use id="zoomminus" xlink:href="#zoomMin" x="42" y="9" onmousedown="handleZoom(evt,'out')"/>
                <use id="reset" xlink:href="#resetDef" x="30" y="36" onmousedown="handleReset()"/>
                <g id="arrowUp" xlink:href="#dirArrow" transform="translate(30 24)" onmousedown="handlePan(0,-1)">
                  <use xlink:href="#rim" fill="#404040">
                        <set attributeName="fill" to="#808080" begin="arrowUp.mouseover" end="arrowUp.mouseout"/>
                  </use>
                  <path fill="none" stroke="white" stroke-width="1.5" d="M0,-3.0v7 M-2.5,-0.5L0,-3.0L2.5,-0.5"/>
                </g>
                <g id="arrowRight" xlink:href="#dirArrow" transform="rotate(90) translate(36 -43)" onmousedown="handlePan(1,0)">
                  <use xlink:href="#rim" fill="#404040">
                        <set attributeName="fill" to="#808080" begin="arrowRight.mouseover" end="arrowRight.mouseout"/>
                  </use>
                  <path fill="none" stroke="white" stroke-width="1.5" d="M0,-3.0v7 M-2.5,-0.5L0,-3.0L2.5,-0.5"/>
                </g>
                <g id="arrowDown" xlink:href="#dirArrow" transform="rotate(180) translate(-30 -48)" onmousedown="handlePan(0,1)">
                  <use xlink:href="#rim" fill="#404040">
                        <set attributeName="fill" to="#808080" begin="arrowDown.mouseover" end="arrowDown.mouseout"/>
                  </use>
                  <path fill="none" stroke="white" stroke-width="1.5" d="M0,-3.0v7 M-2.5,-0.5L0,-3.0L2.5,-0.5"/>
                </g>
                <g id="arrowLeft" xlink:href="#dirArrow" transform="rotate(270) translate(-36 17)" onmousedown="handlePan(-1,0)">
                  <use xlink:href="#rim" fill="#404040">
                        <set attributeName="fill" to="#808080" begin="arrowLeft.mouseover" end="arrowLeft.mouseout"/>
                  </use>
                  <path fill="none" stroke="white" stroke-width="1.5" d="M0,-3.0v7 M-2.5,-0.5L0,-3.0L2.5,-0.5"/>
                </g>
        </g>
        <svg viewBox="0 0 15 15" width="100%" height="30px" preserveAspectRatio="xMaxYMin meet">
         <g id="arrow_out" transform="scale(0.3 0.3)">
          <a xlink:href="ann2fig_8cpp_a180fee6b105f7d14eb56b8f828d440e7_cgraph_org.svg" target="_base">
           <rect id="button" ry="5" rx="5" y="6" x="6" height="38" width="38"
                fill="#f2f5e9" fill-opacity="0.5" stroke="#606060" stroke-width="1.0"/>
           <path id="arrow"
             d="M 11.500037,31.436501 C 11.940474,20.09759 22.043105,11.32322 32.158766,21.979434 L 37.068811,17.246167 C 37.068811,17.246167 37.088388,32 37.088388,32 L 22.160133,31.978069 C 22.160133,31.978069 26.997745,27.140456 26.997745,27.140456 C 18.528582,18.264221 13.291696,25.230495 11.500037,31.436501 z"
             style="fill:#404040;"/>
          </a>
         </g>
        </svg>
</svg>
