<?xml version="1.0" encoding="UTF-8" standalone="no"?>
<!DOCTYPE svg PUBLIC "-//W3C//DTD SVG 1.1//EN"
 "http://www.w3.org/Graphics/SVG/1.1/DTD/svg11.dtd">
<!-- Generated by graphviz version 2.36.0 (20140111.2315)
 -->
<!-- Title: getArgs Pages: 1 -->
<svg width="236pt" height="104pt"
 viewBox="0.00 0.00 236.00 104.00" xmlns="http://www.w3.org/2000/svg" xmlns:xlink="http://www.w3.org/1999/xlink">
<g id="graph0" class="graph" transform="scale(1 1) rotate(0) translate(4 100)">
<title>getArgs</title>
<polygon fill="white" stroke="none" points="-4,4 -4,-100 232,-100 232,4 -4,4"/>
<!-- Node1 -->
<g id="node1" class="node"><title>Node1</title>
<polygon fill="#bfbfbf" stroke="black" points="0,-38.5 0,-57.5 50,-57.5 50,-38.5 0,-38.5"/>
<text text-anchor="middle" x="25" y="-45.5" font-family="Helvetica,sans-Serif" font-size="10.00">getArgs</text>
</g>
<!-- Node2 -->
<g id="node2" class="node"><title>Node2</title>
<g id="a_node2"><a xlink:href="../../d3/da8/ann2fig_8cpp.html#a24326826753a88b433f214353b94e7fb" target="_top" xlink:title="set_slice_val">
<polygon fill="white" stroke="black" points="86,-76.5 86,-95.5 160,-95.5 160,-76.5 86,-76.5"/>
<text text-anchor="middle" x="123" y="-83.5" font-family="Helvetica,sans-Serif" font-size="10.00">set_slice_val</text>
</a>
</g>
</g>
<!-- Node1&#45;&gt;Node2 -->
<g id="edge1" class="edge"><title>Node1&#45;&gt;Node2</title>
<path fill="none" stroke="midnightblue" d="M50.2249,-57.589C61.708,-62.1344 75.6198,-67.6412 88.1269,-72.5919"/>
<polygon fill="midnightblue" stroke="midnightblue" points="87.1966,-75.9878 97.7829,-76.4141 89.773,-69.4792 87.1966,-75.9878"/>
</g>
<!-- Node3 -->
<g id="node3" class="node"><title>Node3</title>
<g id="a_node3"><a xlink:href="../../d9/db8/glut_8h.html#a6f255d924f7a6bb2c4be0c8c2f2d9ce3" target="_top" xlink:title="exit">
<polygon fill="white" stroke="black" points="196,-19.5 196,-38.5 228,-38.5 228,-19.5 196,-19.5"/>
<text text-anchor="middle" x="212" y="-26.5" font-family="Helvetica,sans-Serif" font-size="10.00">exit</text>
</a>
</g>
</g>
<!-- Node1&#45;&gt;Node3 -->
<g id="edge2" class="edge"><title>Node1&#45;&gt;Node3</title>
<path fill="none" stroke="midnightblue" d="M50.1855,-45.5161C85.3346,-41.9062 150.218,-35.2425 185.884,-31.5795"/>
<polygon fill="midnightblue" stroke="midnightblue" points="186.359,-35.0492 195.949,-30.5458 185.644,-28.0858 186.359,-35.0492"/>
</g>
<!-- Node4 -->
<g id="node4" class="node"><title>Node4</title>
<g id="a_node4"><a xlink:href="../../d3/da8/ann2fig_8cpp.html#abd279ad6ac37fcf85881e690e8875616" target="_top" xlink:title="Error">
<polygon fill="white" stroke="black" points="104,-0.5 104,-19.5 142,-19.5 142,-0.5 104,-0.5"/>
<text text-anchor="middle" x="123" y="-7.5" font-family="Helvetica,sans-Serif" font-size="10.00">Error</text>
</a>
</g>
</g>
<!-- Node1&#45;&gt;Node4 -->
<g id="edge3" class="edge"><title>Node1&#45;&gt;Node4</title>
<path fill="none" stroke="midnightblue" d="M50.2249,-38.411C63.6338,-33.1033 80.3545,-26.4847 94.283,-20.9713"/>
<polygon fill="midnightblue" stroke="midnightblue" points="95.8345,-24.1215 103.844,-17.1866 93.2581,-17.6128 95.8345,-24.1215"/>
</g>
<!-- Node4&#45;&gt;Node3 -->
<g id="edge4" class="edge"><title>Node4&#45;&gt;Node3</title>
<path fill="none" stroke="midnightblue" d="M142.026,-13.9368C154.718,-16.7086 171.877,-20.4558 185.904,-23.5194"/>
<polygon fill="midnightblue" stroke="midnightblue" points="185.379,-26.987 195.895,-25.7013 186.873,-20.1482 185.379,-26.987"/>
</g>
</g>
</svg>
