<?xml version="1.0" encoding="UTF-8" standalone="no"?>
<!DOCTYPE svg PUBLIC "-//W3C//DTD SVG 1.1//EN"
 "http://www.w3.org/Graphics/SVG/1.1/DTD/svg11.dtd">
<!-- Generated by graphviz version 2.36.0 (20140111.2315)
 -->
<!-- Title: ShaderBagPKSL::LoadOrientationShader Pages: 1 -->
<svg width="374pt" height="77pt"
 viewBox="0.00 0.00 374.00 77.00" xmlns="http://www.w3.org/2000/svg" xmlns:xlink="http://www.w3.org/1999/xlink">
<g id="graph0" class="graph" transform="scale(1 1) rotate(0) translate(4 73)">
<title>ShaderBagPKSL::LoadOrientationShader</title>
<polygon fill="white" stroke="none" points="-4,4 -4,-73 370,-73 370,4 -4,4"/>
<!-- Node1 -->
<g id="node1" class="node"><title>Node1</title>
<polygon fill="#bfbfbf" stroke="black" points="0,-17 0,-47 164,-47 164,-17 0,-17"/>
<text text-anchor="start" x="8" y="-35" font-family="Helvetica,sans-Serif" font-size="10.00">ShaderBagPKSL::LoadOrientation</text>
<text text-anchor="middle" x="82" y="-24" font-family="Helvetica,sans-Serif" font-size="10.00">Shader</text>
</g>
<!-- Node2 -->
<g id="node2" class="node"><title>Node2</title>
<g id="a_node2"><a xlink:href="../../d5/d94/classShaderBagGLSL.html#ac98e9702aa9cbf1bec48a060023619e1" target="_top" xlink:title="ShaderBagGLSL::WriteOrientation\lCodeToStream">
<polygon fill="white" stroke="black" points="200,-39 200,-69 366,-69 366,-39 200,-39"/>
<text text-anchor="start" x="208" y="-57" font-family="Helvetica,sans-Serif" font-size="10.00">ShaderBagGLSL::WriteOrientation</text>
<text text-anchor="middle" x="283" y="-46" font-family="Helvetica,sans-Serif" font-size="10.00">CodeToStream</text>
</a>
</g>
</g>
<!-- Node1&#45;&gt;Node2 -->
<g id="edge1" class="edge"><title>Node1&#45;&gt;Node2</title>
<path fill="none" stroke="midnightblue" d="M164.228,-40.98C172.648,-41.9108 181.248,-42.8616 189.777,-43.8045"/>
<polygon fill="midnightblue" stroke="midnightblue" points="189.417,-47.2859 199.741,-44.9061 190.186,-40.3283 189.417,-47.2859"/>
</g>
<!-- Node3 -->
<g id="node3" class="node"><title>Node3</title>
<g id="a_node3"><a xlink:href="../../d9/d9b/classProgramGLSL.html#a57cb60e776ba63566b3ab9502cc283c1" target="_top" xlink:title="ProgramGLSL::IsNative">
<polygon fill="white" stroke="black" points="222.5,-0.5 222.5,-19.5 343.5,-19.5 343.5,-0.5 222.5,-0.5"/>
<text text-anchor="middle" x="283" y="-7.5" font-family="Helvetica,sans-Serif" font-size="10.00">ProgramGLSL::IsNative</text>
</a>
</g>
</g>
<!-- Node1&#45;&gt;Node3 -->
<g id="edge2" class="edge"><title>Node1&#45;&gt;Node3</title>
<path fill="none" stroke="midnightblue" d="M164.228,-23.02C180.185,-21.2559 196.791,-19.4201 212.329,-17.7024"/>
<polygon fill="midnightblue" stroke="midnightblue" points="212.812,-21.1704 222.367,-16.5926 212.043,-14.2127 212.812,-21.1704"/>
</g>
</g>
</svg>
