<?xml version="1.0" encoding="UTF-8" standalone="no"?>
<!DOCTYPE svg PUBLIC "-//W3C//DTD SVG 1.1//EN"
 "http://www.w3.org/Graphics/SVG/1.1/DTD/svg11.dtd">
<!-- Generated by graphviz version 2.36.0 (20140111.2315)
 -->
<!-- Title: Eigen::internal::traits&lt; Map&lt; Sophus::SE2Group&lt; _Scalar &gt;, _Options &gt; &gt; Pages: 1 -->
<svg width="162pt" height="204pt"
 viewBox="0.00 0.00 162.00 204.00" xmlns="http://www.w3.org/2000/svg" xmlns:xlink="http://www.w3.org/1999/xlink">
<g id="graph0" class="graph" transform="scale(1 1) rotate(0) translate(4 200)">
<title>Eigen::internal::traits&lt; Map&lt; Sophus::SE2Group&lt; _Scalar &gt;, _Options &gt; &gt;</title>
<polygon fill="white" stroke="none" points="-4,4 -4,-200 158,-200 158,4 -4,4"/>
<!-- Node1 -->
<g id="node1" class="node"><title>Node1</title>
<polygon fill="#bfbfbf" stroke="black" points="8.5,-0.5 8.5,-79.5 145.5,-79.5 145.5,-0.5 8.5,-0.5"/>
<text text-anchor="start" x="16.5" y="-67.5" font-family="Helvetica,sans-Serif" font-size="10.00">Eigen::internal::traits</text>
<text text-anchor="start" x="16.5" y="-56.5" font-family="Helvetica,sans-Serif" font-size="10.00">&lt; Map&lt; Sophus::SE2Group</text>
<text text-anchor="middle" x="77" y="-45.5" font-family="Helvetica,sans-Serif" font-size="10.00">&lt; _Scalar &gt;, _Options &gt; &gt;</text>
<polyline fill="none" stroke="black" points="8.5,-38.5 145.5,-38.5 "/>
<text text-anchor="middle" x="77" y="-26.5" font-family="Helvetica,sans-Serif" font-size="10.00"> </text>
<polyline fill="none" stroke="black" points="8.5,-19.5 145.5,-19.5 "/>
<text text-anchor="middle" x="77" y="-7.5" font-family="Helvetica,sans-Serif" font-size="10.00"> </text>
</g>
<!-- Node2 -->
<g id="node2" class="node"><title>Node2</title>
<g id="a_node2"><a xlink:href="../../d2/d44/structEigen_1_1internal_1_1traits_3_01Sophus_1_1SE2Group_3_01__Scalar_00_01__Options_01_4_01_4.html" target="_top" xlink:title="{Eigen::internal::traits\l\&lt; Sophus::SE2Group\&lt; _Scalar,\l _Options \&gt; \&gt;\n||}">
<polygon fill="white" stroke="black" points="-0.5,-116.5 -0.5,-195.5 154.5,-195.5 154.5,-116.5 -0.5,-116.5"/>
<text text-anchor="start" x="7.5" y="-183.5" font-family="Helvetica,sans-Serif" font-size="10.00">Eigen::internal::traits</text>
<text text-anchor="start" x="7.5" y="-172.5" font-family="Helvetica,sans-Serif" font-size="10.00">&lt; Sophus::SE2Group&lt; _Scalar,</text>
<text text-anchor="middle" x="77" y="-161.5" font-family="Helvetica,sans-Serif" font-size="10.00"> _Options &gt; &gt;</text>
<polyline fill="none" stroke="black" points="-0.5,-154.5 154.5,-154.5 "/>
<text text-anchor="middle" x="77" y="-142.5" font-family="Helvetica,sans-Serif" font-size="10.00"> </text>
<polyline fill="none" stroke="black" points="-0.5,-135.5 154.5,-135.5 "/>
<text text-anchor="middle" x="77" y="-123.5" font-family="Helvetica,sans-Serif" font-size="10.00"> </text>
</a>
</g>
</g>
<!-- Node2&#45;&gt;Node1 -->
<g id="edge1" class="edge"><title>Node2&#45;&gt;Node1</title>
<path fill="none" stroke="midnightblue" d="M77,-106.146C77,-97.256 77,-88.0961 77,-79.5555"/>
<polygon fill="none" stroke="midnightblue" points="73.5001,-106.405 77,-116.405 80.5001,-106.405 73.5001,-106.405"/>
</g>
</g>
</svg>
