<?xml version="1.0" encoding="UTF-8" standalone="no"?>
<!DOCTYPE svg PUBLIC "-//W3C//DTD SVG 1.1//EN"
 "http://www.w3.org/Graphics/SVG/1.1/DTD/svg11.dtd">
<!-- Generated by graphviz version 2.36.0 (20140111.2315)
 -->
<!-- Title: src/parameter_server.cpp Pages: 1 -->
<svg width="477pt" height="196pt"
 viewBox="0.00 0.00 477.00 196.00" xmlns="http://www.w3.org/2000/svg" xmlns:xlink="http://www.w3.org/1999/xlink">
<g id="graph0" class="graph" transform="scale(1 1) rotate(0) translate(4 192)">
<title>src/parameter_server.cpp</title>
<polygon fill="white" stroke="none" points="-4,4 -4,-192 473,-192 473,4 -4,4"/>
<!-- Node1 -->
<g id="node1" class="node"><title>Node1</title>
<polygon fill="#bfbfbf" stroke="black" points="163,-168.5 163,-187.5 291,-187.5 291,-168.5 163,-168.5"/>
<text text-anchor="middle" x="227" y="-175.5" font-family="Helvetica,sans-Serif" font-size="10.00">src/parameter_server.cpp</text>
</g>
<!-- Node2 -->
<g id="node2" class="node"><title>Node2</title>
<g id="a_node2"><a xlink:href="../../d2/de7/parameter__server_8h.html" target="_top" xlink:title="parameter_server.h">
<polygon fill="white" stroke="black" points="176.5,-112.5 176.5,-131.5 277.5,-131.5 277.5,-112.5 176.5,-112.5"/>
<text text-anchor="middle" x="227" y="-119.5" font-family="Helvetica,sans-Serif" font-size="10.00">parameter_server.h</text>
</a>
</g>
</g>
<!-- Node1&#45;&gt;Node2 -->
<g id="edge1" class="edge"><title>Node1&#45;&gt;Node2</title>
<path fill="none" stroke="midnightblue" d="M227,-168.083C227,-161.006 227,-150.861 227,-141.986"/>
<polygon fill="midnightblue" stroke="midnightblue" points="230.5,-141.751 227,-131.751 223.5,-141.751 230.5,-141.751"/>
</g>
<!-- Node3 -->
<g id="node3" class="node"><title>Node3</title>
<polygon fill="white" stroke="#bfbfbf" points="-0.5,-56.5 -0.5,-75.5 40.5,-75.5 40.5,-56.5 -0.5,-56.5"/>
<text text-anchor="middle" x="20" y="-63.5" font-family="Helvetica,sans-Serif" font-size="10.00">string</text>
</g>
<!-- Node2&#45;&gt;Node3 -->
<g id="edge2" class="edge"><title>Node2&#45;&gt;Node3</title>
<path fill="none" stroke="midnightblue" d="M190.713,-112.426C156.68,-104.252 104.16,-91.2994 50.2725,-76.2587"/>
<polygon fill="midnightblue" stroke="midnightblue" points="51.1289,-72.8638 40.5549,-73.5275 49.2349,-79.6027 51.1289,-72.8638"/>
</g>
<!-- Node4 -->
<g id="node4" class="node"><title>Node4</title>
<polygon fill="white" stroke="#bfbfbf" points="58.5,-56.5 58.5,-75.5 113.5,-75.5 113.5,-56.5 58.5,-56.5"/>
<text text-anchor="middle" x="86" y="-63.5" font-family="Helvetica,sans-Serif" font-size="10.00">ros/ros.h</text>
</g>
<!-- Node2&#45;&gt;Node4 -->
<g id="edge3" class="edge"><title>Node2&#45;&gt;Node4</title>
<path fill="none" stroke="midnightblue" d="M204.658,-112.444C181.247,-103.478 144.264,-89.314 117.81,-79.1827"/>
<polygon fill="midnightblue" stroke="midnightblue" points="118.828,-75.8245 108.237,-75.5164 116.324,-82.3615 118.828,-75.8245"/>
</g>
<!-- Node5 -->
<g id="node5" class="node"><title>Node5</title>
<polygon fill="white" stroke="#bfbfbf" points="132,-56.5 132,-75.5 210,-75.5 210,-56.5 132,-56.5"/>
<text text-anchor="middle" x="171" y="-63.5" font-family="Helvetica,sans-Serif" font-size="10.00">boost/any.hpp</text>
</g>
<!-- Node2&#45;&gt;Node5 -->
<g id="edge4" class="edge"><title>Node2&#45;&gt;Node5</title>
<path fill="none" stroke="midnightblue" d="M218.003,-112.324C209.806,-104.42 197.494,-92.5482 187.528,-82.9377"/>
<polygon fill="midnightblue" stroke="midnightblue" points="189.789,-80.2558 180.161,-75.8339 184.93,-85.2947 189.789,-80.2558"/>
</g>
<!-- Node6 -->
<g id="node6" class="node"><title>Node6</title>
<polygon fill="white" stroke="#bfbfbf" points="228.5,-56.5 228.5,-75.5 337.5,-75.5 337.5,-56.5 228.5,-56.5"/>
<text text-anchor="middle" x="283" y="-63.5" font-family="Helvetica,sans-Serif" font-size="10.00">pcl_ros/point_cloud.h</text>
</g>
<!-- Node2&#45;&gt;Node6 -->
<g id="edge5" class="edge"><title>Node2&#45;&gt;Node6</title>
<path fill="none" stroke="midnightblue" d="M235.997,-112.324C244.194,-104.42 256.506,-92.5482 266.472,-82.9377"/>
<polygon fill="midnightblue" stroke="midnightblue" points="269.07,-85.2947 273.839,-75.8339 264.211,-80.2558 269.07,-85.2947"/>
</g>
<!-- Node7 -->
<g id="node7" class="node"><title>Node7</title>
<polygon fill="white" stroke="#bfbfbf" points="353.5,-0.5 353.5,-19.5 444.5,-19.5 444.5,-0.5 353.5,-0.5"/>
<text text-anchor="middle" x="399" y="-7.5" font-family="Helvetica,sans-Serif" font-size="10.00">pcl/point_types.h</text>
</g>
<!-- Node2&#45;&gt;Node7 -->
<g id="edge6" class="edge"><title>Node2&#45;&gt;Node7</title>
<path fill="none" stroke="midnightblue" d="M263.776,-112.485C288.618,-105.498 321.266,-93.8129 346,-76 363.834,-63.1565 379.062,-42.8622 388.558,-28.3679"/>
<polygon fill="midnightblue" stroke="midnightblue" points="391.575,-30.1448 393.94,-19.8172 385.651,-26.4159 391.575,-30.1448"/>
</g>
<!-- Node8 -->
<g id="node8" class="node"><title>Node8</title>
<g id="a_node8"><a xlink:href="../../d1/d45/point__types_8h.html" target="_top" xlink:title="point_types.h">
<polygon fill="white" stroke="black" points="394.5,-56.5 394.5,-75.5 469.5,-75.5 469.5,-56.5 394.5,-56.5"/>
<text text-anchor="middle" x="432" y="-63.5" font-family="Helvetica,sans-Serif" font-size="10.00">point_types.h</text>
</a>
</g>
</g>
<!-- Node2&#45;&gt;Node8 -->
<g id="edge7" class="edge"><title>Node2&#45;&gt;Node8</title>
<path fill="none" stroke="midnightblue" d="M259.483,-112.444C294.72,-103.162 351.104,-88.3093 389.759,-78.127"/>
<polygon fill="midnightblue" stroke="midnightblue" points="390.891,-81.4483 399.669,-75.5164 389.107,-74.6792 390.891,-81.4483"/>
</g>
<!-- Node8&#45;&gt;Node7 -->
<g id="edge8" class="edge"><title>Node8&#45;&gt;Node7</title>
<path fill="none" stroke="midnightblue" d="M426.551,-56.083C421.986,-48.6127 415.332,-37.7244 409.707,-28.5199"/>
<polygon fill="midnightblue" stroke="midnightblue" points="412.549,-26.4588 404.348,-19.7511 406.576,-30.109 412.549,-26.4588"/>
</g>
</g>
</svg>
