<?xml version="1.0" encoding="UTF-8" standalone="no"?>
<!DOCTYPE svg PUBLIC "-//W3C//DTD SVG 1.1//EN"
 "http://www.w3.org/Graphics/SVG/1.1/DTD/svg11.dtd">
<!-- Generated by graphviz version 2.36.0 (20140111.2315)
 -->
<!-- Title: external/SiftGPU/src/SiftGPU/LiteWindow.h Pages: 1 -->
<svg width="319pt" height="108pt"
 viewBox="0.00 0.00 319.00 108.00" xmlns="http://www.w3.org/2000/svg" xmlns:xlink="http://www.w3.org/1999/xlink">
<g id="graph0" class="graph" transform="scale(1 1) rotate(0) translate(4 104)">
<title>external/SiftGPU/src/SiftGPU/LiteWindow.h</title>
<polygon fill="white" stroke="none" points="-4,4 -4,-104 315,-104 315,4 -4,4"/>
<!-- Node1 -->
<g id="node1" class="node"><title>Node1</title>
<polygon fill="#bfbfbf" stroke="black" points="108.5,-69 108.5,-99 227.5,-99 227.5,-69 108.5,-69"/>
<text text-anchor="start" x="116.5" y="-87" font-family="Helvetica,sans-Serif" font-size="10.00">external/SiftGPU/src</text>
<text text-anchor="middle" x="168" y="-76" font-family="Helvetica,sans-Serif" font-size="10.00">/SiftGPU/LiteWindow.h</text>
</g>
<!-- Node2 -->
<g id="node2" class="node"><title>Node2</title>
<g id="a_node2"><a xlink:href="../../d1/d0f/ServerSiftGPU_8cpp.html" target="_top" xlink:title="external/SiftGPU/src\l/ServerSiftGPU/ServerSiftGPU.cpp">
<polygon fill="white" stroke="black" points="0,-1 0,-31 172,-31 172,-1 0,-1"/>
<text text-anchor="start" x="8" y="-19" font-family="Helvetica,sans-Serif" font-size="10.00">external/SiftGPU/src</text>
<text text-anchor="middle" x="86" y="-8" font-family="Helvetica,sans-Serif" font-size="10.00">/ServerSiftGPU/ServerSiftGPU.cpp</text>
</a>
</g>
</g>
<!-- Node1&#45;&gt;Node2 -->
<g id="edge1" class="edge"><title>Node1&#45;&gt;Node2</title>
<path fill="none" stroke="midnightblue" d="M142.294,-62.3094C129.662,-52.1426 114.77,-40.1562 103.476,-31.0663"/>
<polygon fill="midnightblue" stroke="midnightblue" points="140.223,-65.1354 150.207,-68.679 144.612,-59.6823 140.223,-65.1354"/>
</g>
<!-- Node3 -->
<g id="node3" class="node"><title>Node3</title>
<g id="a_node3"><a xlink:href="../../d0/d4c/GlobalUtil_8cpp.html" target="_top" xlink:title="external/SiftGPU/src\l/SiftGPU/GlobalUtil.cpp">
<polygon fill="white" stroke="black" points="190.5,-1 190.5,-31 311.5,-31 311.5,-1 190.5,-1"/>
<text text-anchor="start" x="198.5" y="-19" font-family="Helvetica,sans-Serif" font-size="10.00">external/SiftGPU/src</text>
<text text-anchor="middle" x="251" y="-8" font-family="Helvetica,sans-Serif" font-size="10.00">/SiftGPU/GlobalUtil.cpp</text>
</a>
</g>
</g>
<!-- Node1&#45;&gt;Node3 -->
<g id="edge2" class="edge"><title>Node1&#45;&gt;Node3</title>
<path fill="none" stroke="midnightblue" d="M194.02,-62.3094C206.806,-52.1426 221.879,-40.1562 233.311,-31.0663"/>
<polygon fill="midnightblue" stroke="midnightblue" points="191.658,-59.7155 186.01,-68.679 196.015,-65.1945 191.658,-59.7155"/>
</g>
</g>
</svg>
