<?xml version="1.0" encoding="UTF-8" standalone="no"?>
<!DOCTYPE svg PUBLIC "-//W3C//DTD SVG 1.1//EN"
 "http://www.w3.org/Graphics/SVG/1.1/DTD/svg11.dtd">
<!-- Generated by graphviz version 2.36.0 (20140111.2315)
 -->
<!-- Title: ANNkd_leaf::ann_pri_search Pages: 1 -->
<svg width="262pt" height="66pt"
 viewBox="0.00 0.00 262.00 66.00" xmlns="http://www.w3.org/2000/svg" xmlns:xlink="http://www.w3.org/1999/xlink">
<g id="graph0" class="graph" transform="scale(1 1) rotate(0) translate(4 62)">
<title>ANNkd_leaf::ann_pri_search</title>
<polygon fill="white" stroke="none" points="-4,4 -4,-62 258,-62 258,4 -4,4"/>
<!-- Node1 -->
<g id="node1" class="node"><title>Node1</title>
<polygon fill="#bfbfbf" stroke="black" points="0.5,-14 0.5,-44 107.5,-44 107.5,-14 0.5,-14"/>
<text text-anchor="start" x="8.5" y="-32" font-family="Helvetica,sans-Serif" font-size="10.00">ANNkd_leaf::ann_pri</text>
<text text-anchor="middle" x="54" y="-21" font-family="Helvetica,sans-Serif" font-size="10.00">_search</text>
</g>
<!-- Node2 -->
<g id="node2" class="node"><title>Node2</title>
<g id="a_node2"><a xlink:href="../../df/d1b/classANNmin__k.html#a4b6a2185bf54f0516fd0631931a64e3f" target="_top" xlink:title="ANNmin_k::max_key">
<polygon fill="white" stroke="black" points="144,-38.5 144,-57.5 254,-57.5 254,-38.5 144,-38.5"/>
<text text-anchor="middle" x="199" y="-45.5" font-family="Helvetica,sans-Serif" font-size="10.00">ANNmin_k::max_key</text>
</a>
</g>
</g>
<!-- Node1&#45;&gt;Node2 -->
<g id="edge1" class="edge"><title>Node1&#45;&gt;Node2</title>
<path fill="none" stroke="midnightblue" d="M107.842,-36.0209C116.305,-37.1454 125.143,-38.3197 133.835,-39.4746"/>
<polygon fill="midnightblue" stroke="midnightblue" points="133.567,-42.9697 143.941,-40.8173 134.489,-36.0306 133.567,-42.9697"/>
</g>
<!-- Node3 -->
<g id="node3" class="node"><title>Node3</title>
<g id="a_node3"><a xlink:href="../../df/d1b/classANNmin__k.html#aa3143d11f9b71be93723f4775adb1a2f" target="_top" xlink:title="ANNmin_k::insert">
<polygon fill="white" stroke="black" points="151.5,-0.5 151.5,-19.5 246.5,-19.5 246.5,-0.5 151.5,-0.5"/>
<text text-anchor="middle" x="199" y="-7.5" font-family="Helvetica,sans-Serif" font-size="10.00">ANNmin_k::insert</text>
</a>
</g>
</g>
<!-- Node1&#45;&gt;Node3 -->
<g id="edge2" class="edge"><title>Node1&#45;&gt;Node3</title>
<path fill="none" stroke="midnightblue" d="M107.842,-21.9791C118.684,-20.5384 130.143,-19.016 141.12,-17.5574"/>
<polygon fill="midnightblue" stroke="midnightblue" points="141.584,-21.0267 151.036,-16.24 140.662,-14.0877 141.584,-21.0267"/>
</g>
</g>
</svg>
