<?xml version="1.0" encoding="UTF-8" standalone="no"?>
<!DOCTYPE svg PUBLIC "-//W3C//DTD SVG 1.1//EN"
 "http://www.w3.org/Graphics/SVG/1.1/DTD/svg11.dtd">
<!-- Generated by graphviz version 2.36.0 (20140111.2315)
 -->
<!-- Title: external/gicp/optimize.h Pages: 1 -->
<svg width="381pt" height="96pt"
 viewBox="0.00 0.00 381.00 96.00" xmlns="http://www.w3.org/2000/svg" xmlns:xlink="http://www.w3.org/1999/xlink">
<g id="graph0" class="graph" transform="scale(1 1) rotate(0) translate(4 92)">
<title>external/gicp/optimize.h</title>
<polygon fill="white" stroke="none" points="-4,4 -4,-92 377,-92 377,4 -4,4"/>
<!-- Node1 -->
<g id="node1" class="node"><title>Node1</title>
<polygon fill="#bfbfbf" stroke="black" points="108,-68.5 108,-87.5 228,-87.5 228,-68.5 108,-68.5"/>
<text text-anchor="middle" x="168" y="-75.5" font-family="Helvetica,sans-Serif" font-size="10.00">external/gicp/optimize.h</text>
</g>
<!-- Node2 -->
<g id="node2" class="node"><title>Node2</title>
<g id="a_node2"><a xlink:href="../../d7/d6a/bfgs__funcs_8cpp.html" target="_top" xlink:title="external/gicp/bfgs\l_funcs.cpp">
<polygon fill="white" stroke="black" points="0,-1 0,-31 94,-31 94,-1 0,-1"/>
<text text-anchor="start" x="8" y="-19" font-family="Helvetica,sans-Serif" font-size="10.00">external/gicp/bfgs</text>
<text text-anchor="middle" x="47" y="-8" font-family="Helvetica,sans-Serif" font-size="10.00">_funcs.cpp</text>
</a>
</g>
</g>
<!-- Node1&#45;&gt;Node2 -->
<g id="edge1" class="edge"><title>Node1&#45;&gt;Node2</title>
<path fill="none" stroke="midnightblue" d="M141.705,-63.9609C122.174,-54.2761 95.5593,-41.079 75.5173,-31.1408"/>
<polygon fill="midnightblue" stroke="midnightblue" points="140.15,-67.0966 150.664,-68.4035 143.26,-60.8252 140.15,-67.0966"/>
</g>
<!-- Node3 -->
<g id="node3" class="node"><title>Node3</title>
<g id="a_node3"><a xlink:href="../../d6/d89/gicp_8cpp.html" target="_top" xlink:title="external/gicp/gicp.cpp">
<polygon fill="white" stroke="black" points="112,-6.5 112,-25.5 224,-25.5 224,-6.5 112,-6.5"/>
<text text-anchor="middle" x="168" y="-13.5" font-family="Helvetica,sans-Serif" font-size="10.00">external/gicp/gicp.cpp</text>
</a>
</g>
</g>
<!-- Node1&#45;&gt;Node3 -->
<g id="edge2" class="edge"><title>Node1&#45;&gt;Node3</title>
<path fill="none" stroke="midnightblue" d="M168,-58.1595C168,-47.2482 168,-34.04 168,-25.5806"/>
<polygon fill="midnightblue" stroke="midnightblue" points="164.5,-58.4034 168,-68.4035 171.5,-58.4035 164.5,-58.4034"/>
</g>
<!-- Node4 -->
<g id="node4" class="node"><title>Node4</title>
<g id="a_node4"><a xlink:href="../../dc/daa/optimize_8cpp.html" target="_top" xlink:title="external/gicp/optimize.cpp">
<polygon fill="white" stroke="black" points="242.5,-6.5 242.5,-25.5 373.5,-25.5 373.5,-6.5 242.5,-6.5"/>
<text text-anchor="middle" x="308" y="-13.5" font-family="Helvetica,sans-Serif" font-size="10.00">external/gicp/optimize.cpp</text>
</a>
</g>
</g>
<!-- Node1&#45;&gt;Node4 -->
<g id="edge3" class="edge"><title>Node1&#45;&gt;Node4</title>
<path fill="none" stroke="midnightblue" d="M197.46,-64.3743C224.65,-52.7215 264.292,-35.7319 287.979,-25.5806"/>
<polygon fill="midnightblue" stroke="midnightblue" points="195.871,-61.2472 188.059,-68.4035 198.629,-67.6812 195.871,-61.2472"/>
</g>
</g>
</svg>
