<?xml version="1.0" encoding="UTF-8" standalone="no"?>
<!DOCTYPE svg PUBLIC "-//W3C//DTD SVG 1.1//EN"
 "http://www.w3.org/Graphics/SVG/1.1/DTD/svg11.dtd">
<!-- Generated by graphviz version 2.36.0 (20140111.2315)
 -->
<!-- Title: external/SiftGPU/src/TestWin/BasicTestWin.h Pages: 1 -->
<svg width="448pt" height="108pt"
 viewBox="0.00 0.00 448.00 108.00" xmlns="http://www.w3.org/2000/svg" xmlns:xlink="http://www.w3.org/1999/xlink">
<g id="graph0" class="graph" transform="scale(1 1) rotate(0) translate(4 104)">
<title>external/SiftGPU/src/TestWin/BasicTestWin.h</title>
<polygon fill="white" stroke="none" points="-4,4 -4,-104 444,-104 444,4 -4,4"/>
<!-- Node1 -->
<g id="node1" class="node"><title>Node1</title>
<polygon fill="#bfbfbf" stroke="black" points="159.5,-69 159.5,-99 288.5,-99 288.5,-69 159.5,-69"/>
<text text-anchor="start" x="167.5" y="-87" font-family="Helvetica,sans-Serif" font-size="10.00">external/SiftGPU/src</text>
<text text-anchor="middle" x="224" y="-76" font-family="Helvetica,sans-Serif" font-size="10.00">/TestWin/BasicTestWin.h</text>
</g>
<!-- Node2 -->
<g id="node2" class="node"><title>Node2</title>
<g id="a_node2"><a xlink:href="../../da/d99/BasicTestWin_8cpp.html" target="_top" xlink:title="external/SiftGPU/src\l/TestWin/BasicTestWin.cpp">
<polygon fill="white" stroke="black" points="0,-1 0,-31 140,-31 140,-1 0,-1"/>
<text text-anchor="start" x="8" y="-19" font-family="Helvetica,sans-Serif" font-size="10.00">external/SiftGPU/src</text>
<text text-anchor="middle" x="70" y="-8" font-family="Helvetica,sans-Serif" font-size="10.00">/TestWin/BasicTestWin.cpp</text>
</a>
</g>
</g>
<!-- Node1&#45;&gt;Node2 -->
<g id="edge1" class="edge"><title>Node1&#45;&gt;Node2</title>
<path fill="none" stroke="midnightblue" d="M181.743,-64.8898C156.824,-54.2103 125.762,-40.8982 102.718,-31.0218"/>
<polygon fill="midnightblue" stroke="midnightblue" points="180.393,-68.1191 190.963,-68.8413 183.15,-61.6851 180.393,-68.1191"/>
</g>
<!-- Node3 -->
<g id="node3" class="node"><title>Node3</title>
<g id="a_node3"><a xlink:href="../../d6/d05/GLTestWnd_8cpp.html" target="_top" xlink:title="external/SiftGPU/src\l/TestWin/GLTestWnd.cpp">
<polygon fill="white" stroke="black" points="158.5,-1 158.5,-31 289.5,-31 289.5,-1 158.5,-1"/>
<text text-anchor="start" x="166.5" y="-19" font-family="Helvetica,sans-Serif" font-size="10.00">external/SiftGPU/src</text>
<text text-anchor="middle" x="224" y="-8" font-family="Helvetica,sans-Serif" font-size="10.00">/TestWin/GLTestWnd.cpp</text>
</a>
</g>
</g>
<!-- Node1&#45;&gt;Node3 -->
<g id="edge2" class="edge"><title>Node1&#45;&gt;Node3</title>
<path fill="none" stroke="midnightblue" d="M224,-58.5322C224,-49.3606 224,-39.2449 224,-31.2931"/>
<polygon fill="midnightblue" stroke="midnightblue" points="220.5,-58.6789 224,-68.679 227.5,-58.679 220.5,-58.6789"/>
</g>
<!-- Node4 -->
<g id="node4" class="node"><title>Node4</title>
<g id="a_node4"><a xlink:href="../../d9/d83/TestWinGlut_8cpp.html" target="_top" xlink:title="external/SiftGPU/src\l/TestWin/TestWinGlut.cpp">
<polygon fill="white" stroke="black" points="307.5,-1 307.5,-31 440.5,-31 440.5,-1 307.5,-1"/>
<text text-anchor="start" x="315.5" y="-19" font-family="Helvetica,sans-Serif" font-size="10.00">external/SiftGPU/src</text>
<text text-anchor="middle" x="374" y="-8" font-family="Helvetica,sans-Serif" font-size="10.00">/TestWin/TestWinGlut.cpp</text>
</a>
</g>
</g>
<!-- Node1&#45;&gt;Node4 -->
<g id="edge3" class="edge"><title>Node1&#45;&gt;Node4</title>
<path fill="none" stroke="midnightblue" d="M265.481,-64.7485C289.698,-54.093 319.785,-40.8547 342.132,-31.0218"/>
<polygon fill="midnightblue" stroke="midnightblue" points="263.922,-61.6103 256.179,-68.8413 266.742,-68.0175 263.922,-61.6103"/>
</g>
</g>
</svg>
