<?xml version="1.0" encoding="UTF-8" standalone="no"?>
<!DOCTYPE svg PUBLIC "-//W3C//DTD SVG 1.1//EN"
 "http://www.w3.org/Graphics/SVG/1.1/DTD/svg11.dtd">
<!-- Generated by graphviz version 2.36.0 (20140111.2315)
 -->
<!-- Title: src/misc.h Pages: 1 -->
<svg width="789pt" height="152pt"
 viewBox="0.00 0.00 789.00 152.00" xmlns="http://www.w3.org/2000/svg" xmlns:xlink="http://www.w3.org/1999/xlink">
<g id="graph0" class="graph" transform="scale(1 1) rotate(0) translate(4 148)">
<title>src/misc.h</title>
<polygon fill="white" stroke="none" points="-4,4 -4,-148 785,-148 785,4 -4,4"/>
<!-- Node1 -->
<g id="node1" class="node"><title>Node1</title>
<polygon fill="#bfbfbf" stroke="black" points="394,-124.5 394,-143.5 456,-143.5 456,-124.5 394,-124.5"/>
<text text-anchor="middle" x="425" y="-131.5" font-family="Helvetica,sans-Serif" font-size="10.00">src/misc.h</text>
</g>
<!-- Node2 -->
<g id="node2" class="node"><title>Node2</title>
<polygon fill="white" stroke="#bfbfbf" points="-0.5,-62.5 -0.5,-81.5 66.5,-81.5 66.5,-62.5 -0.5,-62.5"/>
<text text-anchor="middle" x="33" y="-69.5" font-family="Helvetica,sans-Serif" font-size="10.00">QMatrix4x4</text>
</g>
<!-- Node1&#45;&gt;Node2 -->
<g id="edge1" class="edge"><title>Node1&#45;&gt;Node2</title>
<path fill="none" stroke="midnightblue" d="M393.8,-131.154C332.294,-127.038 191.345,-115.243 76,-88 72.1286,-87.0856 68.118,-85.9513 64.1725,-84.7187"/>
<polygon fill="midnightblue" stroke="midnightblue" points="65.2091,-81.3749 54.6153,-81.5221 62.9886,-88.0134 65.2091,-81.3749"/>
</g>
<!-- Node3 -->
<g id="node3" class="node"><title>Node3</title>
<polygon fill="white" stroke="#bfbfbf" points="84.5,-62.5 84.5,-81.5 207.5,-81.5 207.5,-62.5 84.5,-62.5"/>
<text text-anchor="middle" x="146" y="-69.5" font-family="Helvetica,sans-Serif" font-size="10.00">tf/transform_datatypes.h</text>
</g>
<!-- Node1&#45;&gt;Node3 -->
<g id="edge2" class="edge"><title>Node1&#45;&gt;Node3</title>
<path fill="none" stroke="midnightblue" d="M393.807,-126.292C345.785,-115.964 253.296,-96.0744 195.897,-83.7304"/>
<polygon fill="midnightblue" stroke="midnightblue" points="196.467,-80.2731 185.954,-81.5923 194.995,-87.1166 196.467,-80.2731"/>
</g>
<!-- Node4 -->
<g id="node4" class="node"><title>Node4</title>
<polygon fill="white" stroke="#bfbfbf" points="225.5,-62.5 225.5,-81.5 338.5,-81.5 338.5,-62.5 225.5,-62.5"/>
<text text-anchor="middle" x="282" y="-69.5" font-family="Helvetica,sans-Serif" font-size="10.00">sensor_msgs/Image.h</text>
</g>
<!-- Node1&#45;&gt;Node4 -->
<g id="edge3" class="edge"><title>Node1&#45;&gt;Node4</title>
<path fill="none" stroke="midnightblue" d="M404.512,-124.403C380.194,-114.2 339.451,-97.1055 311.683,-85.4544"/>
<polygon fill="midnightblue" stroke="midnightblue" points="313.026,-82.2223 302.45,-81.5806 310.317,-88.6771 313.026,-82.2223"/>
</g>
<!-- Node5 -->
<g id="node5" class="node"><title>Node5</title>
<polygon fill="white" stroke="#bfbfbf" points="356.5,-62.5 356.5,-81.5 493.5,-81.5 493.5,-62.5 356.5,-62.5"/>
<text text-anchor="middle" x="425" y="-69.5" font-family="Helvetica,sans-Serif" font-size="10.00">sensor_msgs/CameraInfo.h</text>
</g>
<!-- Node1&#45;&gt;Node5 -->
<g id="edge4" class="edge"><title>Node1&#45;&gt;Node5</title>
<path fill="none" stroke="midnightblue" d="M425,-124.403C425,-115.938 425,-102.728 425,-91.8199"/>
<polygon fill="midnightblue" stroke="midnightblue" points="428.5,-91.5806 425,-81.5806 421.5,-91.5806 428.5,-91.5806"/>
</g>
<!-- Node6 -->
<g id="node6" class="node"><title>Node6</title>
<polygon fill="white" stroke="#bfbfbf" points="511.5,-62.5 511.5,-81.5 546.5,-81.5 546.5,-62.5 511.5,-62.5"/>
<text text-anchor="middle" x="529" y="-69.5" font-family="Helvetica,sans-Serif" font-size="10.00">cv.h</text>
</g>
<!-- Node1&#45;&gt;Node6 -->
<g id="edge5" class="edge"><title>Node1&#45;&gt;Node6</title>
<path fill="none" stroke="midnightblue" d="M439.901,-124.403C456.968,-114.557 485.161,-98.2915 505.262,-86.6949"/>
<polygon fill="midnightblue" stroke="midnightblue" points="507.214,-89.6095 514.127,-81.5806 503.716,-83.5462 507.214,-89.6095"/>
</g>
<!-- Node7 -->
<g id="node7" class="node"><title>Node7</title>
<g id="a_node7"><a xlink:href="../../d1/d45/point__types_8h.html" target="_top" xlink:title="point_types.h">
<polygon fill="white" stroke="black" points="564.5,-62.5 564.5,-81.5 639.5,-81.5 639.5,-62.5 564.5,-62.5"/>
<text text-anchor="middle" x="602" y="-69.5" font-family="Helvetica,sans-Serif" font-size="10.00">point_types.h</text>
</a>
</g>
</g>
<!-- Node1&#45;&gt;Node7 -->
<g id="edge6" class="edge"><title>Node1&#45;&gt;Node7</title>
<path fill="none" stroke="midnightblue" d="M450.36,-124.403C480.984,-114.022 532.657,-96.5062 567.046,-84.849"/>
<polygon fill="midnightblue" stroke="midnightblue" points="568.34,-88.1058 576.687,-81.5806 566.093,-81.4763 568.34,-88.1058"/>
</g>
<!-- Node9 -->
<g id="node9" class="node"><title>Node9</title>
<polygon fill="white" stroke="#bfbfbf" points="657,-57 657,-87 781,-87 781,-57 657,-57"/>
<text text-anchor="start" x="665" y="-75" font-family="Helvetica,sans-Serif" font-size="10.00">g2o/types/slam3d/vertex</text>
<text text-anchor="middle" x="719" y="-64" font-family="Helvetica,sans-Serif" font-size="10.00">_se3.h</text>
</g>
<!-- Node1&#45;&gt;Node9 -->
<g id="edge8" class="edge"><title>Node1&#45;&gt;Node9</title>
<path fill="none" stroke="midnightblue" d="M456.043,-126.828C497.29,-118.608 572.697,-103.509 646.711,-88.2567"/>
<polygon fill="midnightblue" stroke="midnightblue" points="647.582,-91.6508 656.669,-86.202 646.168,-84.7952 647.582,-91.6508"/>
</g>
<!-- Node8 -->
<g id="node8" class="node"><title>Node8</title>
<polygon fill="white" stroke="#bfbfbf" points="556.5,-0.5 556.5,-19.5 647.5,-19.5 647.5,-0.5 556.5,-0.5"/>
<text text-anchor="middle" x="602" y="-7.5" font-family="Helvetica,sans-Serif" font-size="10.00">pcl/point_types.h</text>
</g>
<!-- Node7&#45;&gt;Node8 -->
<g id="edge7" class="edge"><title>Node7&#45;&gt;Node8</title>
<path fill="none" stroke="midnightblue" d="M602,-62.4035C602,-53.9381 602,-40.7283 602,-29.8199"/>
<polygon fill="midnightblue" stroke="midnightblue" points="605.5,-29.5806 602,-19.5806 598.5,-29.5806 605.5,-29.5806"/>
</g>
</g>
</svg>
