<?xml version="1.0" encoding="UTF-8" standalone="no"?>
<!DOCTYPE svg PUBLIC "-//W3C//DTD SVG 1.1//EN"
 "http://www.w3.org/Graphics/SVG/1.1/DTD/svg11.dtd">
<!-- Generated by graphviz version 2.36.0 (20140111.2315)
 -->
<!-- Title: external/gicp/ann_1.1.2/src/perf.cpp Pages: 1 -->
<svg width="373pt" height="208pt"
 viewBox="0.00 0.00 373.00 208.00" xmlns="http://www.w3.org/2000/svg" xmlns:xlink="http://www.w3.org/1999/xlink">
<g id="graph0" class="graph" transform="scale(1 1) rotate(0) translate(4 204)">
<title>external/gicp/ann_1.1.2/src/perf.cpp</title>
<polygon fill="white" stroke="none" points="-4,4 -4,-204 369,-204 369,4 -4,4"/>
<!-- Node1 -->
<g id="node1" class="node"><title>Node1</title>
<polygon fill="#bfbfbf" stroke="black" points="127,-169 127,-199 245,-199 245,-169 127,-169"/>
<text text-anchor="start" x="135" y="-187" font-family="Helvetica,sans-Serif" font-size="10.00">external/gicp/ann_1.1.2</text>
<text text-anchor="middle" x="186" y="-176" font-family="Helvetica,sans-Serif" font-size="10.00">/src/perf.cpp</text>
</g>
<!-- Node2 -->
<g id="node2" class="node"><title>Node2</title>
<g id="a_node2"><a xlink:href="../../d8/da9/ANN_8h.html" target="_top" xlink:title="ANN/ANN.h">
<polygon fill="white" stroke="black" points="150.5,-56.5 150.5,-75.5 221.5,-75.5 221.5,-56.5 150.5,-56.5"/>
<text text-anchor="middle" x="186" y="-63.5" font-family="Helvetica,sans-Serif" font-size="10.00">ANN/ANN.h</text>
</a>
</g>
</g>
<!-- Node1&#45;&gt;Node2 -->
<g id="edge1" class="edge"><title>Node1&#45;&gt;Node2</title>
<path fill="none" stroke="midnightblue" d="M179.084,-168.951C172.909,-154.697 165.357,-131.95 169,-112 170.688,-102.757 174.175,-92.9479 177.554,-84.8546"/>
<polygon fill="midnightblue" stroke="midnightblue" points="180.763,-86.2518 181.634,-75.6928 174.369,-83.4045 180.763,-86.2518"/>
</g>
<!-- Node9 -->
<g id="node9" class="node"><title>Node9</title>
<g id="a_node9"><a xlink:href="../../da/d50/ANNperf_8h.html" target="_top" xlink:title="ANN/ANNperf.h">
<polygon fill="white" stroke="black" points="178,-112.5 178,-131.5 266,-131.5 266,-112.5 178,-112.5"/>
<text text-anchor="middle" x="222" y="-119.5" font-family="Helvetica,sans-Serif" font-size="10.00">ANN/ANNperf.h</text>
</a>
</g>
</g>
<!-- Node1&#45;&gt;Node9 -->
<g id="edge8" class="edge"><title>Node1&#45;&gt;Node9</title>
<path fill="none" stroke="midnightblue" d="M194.531,-168.781C199.601,-160.332 206.071,-149.548 211.458,-140.569"/>
<polygon fill="midnightblue" stroke="midnightblue" points="214.618,-142.106 216.762,-131.731 208.615,-138.505 214.618,-142.106"/>
</g>
<!-- Node3 -->
<g id="node3" class="node"><title>Node3</title>
<polygon fill="white" stroke="#bfbfbf" points="-0.5,-0.5 -0.5,-19.5 44.5,-19.5 44.5,-0.5 -0.5,-0.5"/>
<text text-anchor="middle" x="22" y="-7.5" font-family="Helvetica,sans-Serif" font-size="10.00">cstdlib</text>
</g>
<!-- Node2&#45;&gt;Node3 -->
<g id="edge2" class="edge"><title>Node2&#45;&gt;Node3</title>
<path fill="none" stroke="midnightblue" d="M160.014,-56.4435C131.45,-47.0385 85.5172,-31.9142 54.5698,-21.7242"/>
<polygon fill="midnightblue" stroke="midnightblue" points="55.2888,-18.2762 44.6958,-18.473 53.0995,-24.925 55.2888,-18.2762"/>
</g>
<!-- Node4 -->
<g id="node4" class="node"><title>Node4</title>
<polygon fill="white" stroke="#bfbfbf" points="63,-0.5 63,-19.5 107,-19.5 107,-0.5 63,-0.5"/>
<text text-anchor="middle" x="85" y="-7.5" font-family="Helvetica,sans-Serif" font-size="10.00">cmath</text>
</g>
<!-- Node2&#45;&gt;Node4 -->
<g id="edge3" class="edge"><title>Node2&#45;&gt;Node4</title>
<path fill="none" stroke="midnightblue" d="M169.773,-56.324C153.649,-47.7034 128.7,-34.3643 110.036,-24.3855"/>
<polygon fill="midnightblue" stroke="midnightblue" points="111.656,-21.283 101.187,-19.6545 108.356,-27.456 111.656,-21.283"/>
</g>
<!-- Node5 -->
<g id="node5" class="node"><title>Node5</title>
<polygon fill="white" stroke="#bfbfbf" points="125,-0.5 125,-19.5 179,-19.5 179,-0.5 125,-0.5"/>
<text text-anchor="middle" x="152" y="-7.5" font-family="Helvetica,sans-Serif" font-size="10.00">iostream</text>
</g>
<!-- Node2&#45;&gt;Node5 -->
<g id="edge4" class="edge"><title>Node2&#45;&gt;Node5</title>
<path fill="none" stroke="midnightblue" d="M180.386,-56.083C175.633,-48.5341 168.682,-37.4948 162.848,-28.2298"/>
<polygon fill="midnightblue" stroke="midnightblue" points="165.8,-26.3486 157.51,-19.7511 159.876,-30.0783 165.8,-26.3486"/>
</g>
<!-- Node6 -->
<g id="node6" class="node"><title>Node6</title>
<polygon fill="white" stroke="#bfbfbf" points="197,-0.5 197,-19.5 243,-19.5 243,-0.5 197,-0.5"/>
<text text-anchor="middle" x="220" y="-7.5" font-family="Helvetica,sans-Serif" font-size="10.00">cstring</text>
</g>
<!-- Node2&#45;&gt;Node6 -->
<g id="edge5" class="edge"><title>Node2&#45;&gt;Node6</title>
<path fill="none" stroke="midnightblue" d="M191.614,-56.083C196.367,-48.5341 203.318,-37.4948 209.152,-28.2298"/>
<polygon fill="midnightblue" stroke="midnightblue" points="212.124,-30.0783 214.49,-19.7511 206.2,-26.3486 212.124,-30.0783"/>
</g>
<!-- Node7 -->
<g id="node7" class="node"><title>Node7</title>
<polygon fill="white" stroke="#bfbfbf" points="261.5,-0.5 261.5,-19.5 306.5,-19.5 306.5,-0.5 261.5,-0.5"/>
<text text-anchor="middle" x="284" y="-7.5" font-family="Helvetica,sans-Serif" font-size="10.00">climits</text>
</g>
<!-- Node2&#45;&gt;Node7 -->
<g id="edge6" class="edge"><title>Node2&#45;&gt;Node7</title>
<path fill="none" stroke="midnightblue" d="M201.745,-56.324C217.319,-47.7428 241.377,-34.486 259.459,-24.5224"/>
<polygon fill="midnightblue" stroke="midnightblue" points="261.224,-27.546 268.294,-19.6545 257.846,-21.4152 261.224,-27.546"/>
</g>
<!-- Node8 -->
<g id="node8" class="node"><title>Node8</title>
<polygon fill="white" stroke="#bfbfbf" points="324.5,-0.5 324.5,-19.5 365.5,-19.5 365.5,-0.5 324.5,-0.5"/>
<text text-anchor="middle" x="345" y="-7.5" font-family="Helvetica,sans-Serif" font-size="10.00">cfloat</text>
</g>
<!-- Node2&#45;&gt;Node8 -->
<g id="edge7" class="edge"><title>Node2&#45;&gt;Node8</title>
<path fill="none" stroke="midnightblue" d="M211.194,-56.4435C239.359,-46.8782 284.942,-31.3969 314.945,-21.2075"/>
<polygon fill="midnightblue" stroke="midnightblue" points="316.131,-24.501 324.474,-17.971 313.88,-17.8728 316.131,-24.501"/>
</g>
<!-- Node9&#45;&gt;Node2 -->
<g id="edge9" class="edge"><title>Node9&#45;&gt;Node2</title>
<path fill="none" stroke="midnightblue" d="M216.055,-112.083C211.023,-104.534 203.663,-93.4948 197.487,-84.2298"/>
<polygon fill="midnightblue" stroke="midnightblue" points="200.293,-82.1301 191.834,-75.7511 194.469,-86.0131 200.293,-82.1301"/>
</g>
</g>
</svg>
