<?xml version="1.0" encoding="UTF-8" standalone="no"?>
<!DOCTYPE svg PUBLIC "-//W3C//DTD SVG 1.1//EN"
 "http://www.w3.org/Graphics/SVG/1.1/DTD/svg11.dtd">
<!-- Generated by graphviz version 2.36.0 (20140111.2315)
 -->
<!-- Title: external/SiftGPU/src/SiftGPU/ShaderMan.h Pages: 1 -->
<svg width="880pt" height="108pt"
 viewBox="0.00 0.00 880.00 108.00" xmlns="http://www.w3.org/2000/svg" xmlns:xlink="http://www.w3.org/1999/xlink">
<g id="graph0" class="graph" transform="scale(1 1) rotate(0) translate(4 104)">
<title>external/SiftGPU/src/SiftGPU/ShaderMan.h</title>
<polygon fill="white" stroke="none" points="-4,4 -4,-104 876,-104 876,4 -4,4"/>
<!-- Node1 -->
<g id="node1" class="node"><title>Node1</title>
<polygon fill="#bfbfbf" stroke="black" points="395.5,-69 395.5,-99 512.5,-99 512.5,-69 395.5,-69"/>
<text text-anchor="start" x="403.5" y="-87" font-family="Helvetica,sans-Serif" font-size="10.00">external/SiftGPU/src</text>
<text text-anchor="middle" x="454" y="-76" font-family="Helvetica,sans-Serif" font-size="10.00">/SiftGPU/ShaderMan.h</text>
</g>
<!-- Node2 -->
<g id="node2" class="node"><title>Node2</title>
<g id="a_node2"><a xlink:href="../../db/dda/GLTexImage_8cpp.html" target="_top" xlink:title="external/SiftGPU/src\l/SiftGPU/GLTexImage.cpp">
<polygon fill="white" stroke="black" points="0,-1 0,-31 134,-31 134,-1 0,-1"/>
<text text-anchor="start" x="8" y="-19" font-family="Helvetica,sans-Serif" font-size="10.00">external/SiftGPU/src</text>
<text text-anchor="middle" x="67" y="-8" font-family="Helvetica,sans-Serif" font-size="10.00">/SiftGPU/GLTexImage.cpp</text>
</a>
</g>
</g>
<!-- Node1&#45;&gt;Node2 -->
<g id="edge1" class="edge"><title>Node1&#45;&gt;Node2</title>
<path fill="none" stroke="midnightblue" d="M385.214,-72.3737C322.122,-62.4718 226.136,-47.0167 143,-32 140.088,-31.4741 137.116,-30.9278 134.114,-30.3684"/>
<polygon fill="midnightblue" stroke="midnightblue" points="385.016,-75.8853 395.437,-73.9747 386.099,-68.9696 385.016,-75.8853"/>
</g>
<!-- Node3 -->
<g id="node3" class="node"><title>Node3</title>
<g id="a_node3"><a xlink:href="../../d4/d97/ProgramGLSL_8cpp.html" target="_top" xlink:title="external/SiftGPU/src\l/SiftGPU/ProgramGLSL.cpp">
<polygon fill="white" stroke="black" points="152,-1 152,-31 292,-31 292,-1 152,-1"/>
<text text-anchor="start" x="160" y="-19" font-family="Helvetica,sans-Serif" font-size="10.00">external/SiftGPU/src</text>
<text text-anchor="middle" x="222" y="-8" font-family="Helvetica,sans-Serif" font-size="10.00">/SiftGPU/ProgramGLSL.cpp</text>
</a>
</g>
</g>
<!-- Node1&#45;&gt;Node3 -->
<g id="edge2" class="edge"><title>Node1&#45;&gt;Node3</title>
<path fill="none" stroke="midnightblue" d="M394.561,-66.0905C356.401,-55.2347 307.429,-41.303 271.409,-31.0561"/>
<polygon fill="midnightblue" stroke="midnightblue" points="393.939,-69.5524 404.515,-68.9223 395.854,-62.8195 393.939,-69.5524"/>
</g>
<!-- Node4 -->
<g id="node4" class="node"><title>Node4</title>
<g id="a_node4"><a xlink:href="../../d7/d8c/ProgramGPU_8cpp.html" target="_top" xlink:title="external/SiftGPU/src\l/SiftGPU/ProgramGPU.cpp">
<polygon fill="white" stroke="black" points="310.5,-1 310.5,-31 447.5,-31 447.5,-1 310.5,-1"/>
<text text-anchor="start" x="318.5" y="-19" font-family="Helvetica,sans-Serif" font-size="10.00">external/SiftGPU/src</text>
<text text-anchor="middle" x="379" y="-8" font-family="Helvetica,sans-Serif" font-size="10.00">/SiftGPU/ProgramGPU.cpp</text>
</a>
</g>
</g>
<!-- Node1&#45;&gt;Node4 -->
<g id="edge3" class="edge"><title>Node1&#45;&gt;Node4</title>
<path fill="none" stroke="midnightblue" d="M430.157,-62.0184C418.676,-51.9145 405.215,-40.0696 394.984,-31.0663"/>
<polygon fill="midnightblue" stroke="midnightblue" points="427.907,-64.7002 437.726,-68.679 432.531,-59.4452 427.907,-64.7002"/>
</g>
<!-- Node5 -->
<g id="node5" class="node"><title>Node5</title>
<g id="a_node5"><a xlink:href="../../d5/d65/PyramidGL_8cpp.html" target="_top" xlink:title="external/SiftGPU/src\l/SiftGPU/PyramidGL.cpp">
<polygon fill="white" stroke="black" points="465.5,-1 465.5,-31 592.5,-31 592.5,-1 465.5,-1"/>
<text text-anchor="start" x="473.5" y="-19" font-family="Helvetica,sans-Serif" font-size="10.00">external/SiftGPU/src</text>
<text text-anchor="middle" x="529" y="-8" font-family="Helvetica,sans-Serif" font-size="10.00">/SiftGPU/PyramidGL.cpp</text>
</a>
</g>
</g>
<!-- Node1&#45;&gt;Node5 -->
<g id="edge4" class="edge"><title>Node1&#45;&gt;Node5</title>
<path fill="none" stroke="midnightblue" d="M477.843,-62.0184C489.324,-51.9145 502.785,-40.0696 513.016,-31.0663"/>
<polygon fill="midnightblue" stroke="midnightblue" points="475.469,-59.4452 470.274,-68.679 480.093,-64.7002 475.469,-59.4452"/>
</g>
<!-- Node6 -->
<g id="node6" class="node"><title>Node6</title>
<g id="a_node6"><a xlink:href="../../d7/d1f/ShaderMan_8cpp.html" target="_top" xlink:title="external/SiftGPU/src\l/SiftGPU/ShaderMan.cpp">
<polygon fill="white" stroke="black" points="611,-1 611,-31 739,-31 739,-1 611,-1"/>
<text text-anchor="start" x="619" y="-19" font-family="Helvetica,sans-Serif" font-size="10.00">external/SiftGPU/src</text>
<text text-anchor="middle" x="675" y="-8" font-family="Helvetica,sans-Serif" font-size="10.00">/SiftGPU/ShaderMan.cpp</text>
</a>
</g>
</g>
<!-- Node1&#45;&gt;Node6 -->
<g id="edge5" class="edge"><title>Node1&#45;&gt;Node6</title>
<path fill="none" stroke="midnightblue" d="M511.086,-65.9518C547.368,-55.1162 593.768,-41.2594 627.933,-31.0561"/>
<polygon fill="midnightblue" stroke="midnightblue" points="509.719,-62.707 501.139,-68.9223 511.722,-69.4143 509.719,-62.707"/>
</g>
<!-- Node7 -->
<g id="node7" class="node"><title>Node7</title>
<g id="a_node7"><a xlink:href="../../de/d03/SiftGPU_8cpp.html" target="_top" xlink:title="external/SiftGPU/src\l/SiftGPU/SiftGPU.cpp">
<polygon fill="white" stroke="black" points="757.5,-1 757.5,-31 872.5,-31 872.5,-1 757.5,-1"/>
<text text-anchor="start" x="765.5" y="-19" font-family="Helvetica,sans-Serif" font-size="10.00">external/SiftGPU/src</text>
<text text-anchor="middle" x="815" y="-8" font-family="Helvetica,sans-Serif" font-size="10.00">/SiftGPU/SiftGPU.cpp</text>
</a>
</g>
</g>
<!-- Node1&#45;&gt;Node7 -->
<g id="edge6" class="edge"><title>Node1&#45;&gt;Node7</title>
<path fill="none" stroke="midnightblue" d="M522.787,-72.0359C582.48,-62.2902 671.147,-47.2595 748,-32 751.04,-31.3964 754.153,-30.7607 757.294,-30.1057"/>
<polygon fill="midnightblue" stroke="midnightblue" points="522.033,-68.6124 512.725,-73.6733 523.158,-75.5215 522.033,-68.6124"/>
</g>
</g>
</svg>
