<?xml version="1.0" encoding="UTF-8" standalone="no"?>
<!DOCTYPE svg PUBLIC "-//W3C//DTD SVG 1.1//EN"
 "http://www.w3.org/Graphics/SVG/1.1/DTD/svg11.dtd">
<!-- Generated by graphviz version 2.36.0 (20140111.2315)
 -->
<!-- Title: src/feature_adjuster.h Pages: 1 -->
<svg width="326pt" height="84pt"
 viewBox="0.00 0.00 326.00 84.00" xmlns="http://www.w3.org/2000/svg" xmlns:xlink="http://www.w3.org/1999/xlink">
<g id="graph0" class="graph" transform="scale(1 1) rotate(0) translate(4 80)">
<title>src/feature_adjuster.h</title>
<polygon fill="white" stroke="none" points="-4,4 -4,-80 322,-80 322,4 -4,4"/>
<!-- Node1 -->
<g id="node1" class="node"><title>Node1</title>
<polygon fill="#bfbfbf" stroke="black" points="128.5,-56.5 128.5,-75.5 239.5,-75.5 239.5,-56.5 128.5,-56.5"/>
<text text-anchor="middle" x="184" y="-63.5" font-family="Helvetica,sans-Serif" font-size="10.00">src/feature_adjuster.h</text>
</g>
<!-- Node2 -->
<g id="node2" class="node"><title>Node2</title>
<g id="a_node2"><a xlink:href="../../db/d71/feature__adjuster_8cpp.html" target="_top" xlink:title="src/feature_adjuster.cpp">
<polygon fill="white" stroke="black" points="0,-0.5 0,-19.5 122,-19.5 122,-0.5 0,-0.5"/>
<text text-anchor="middle" x="61" y="-7.5" font-family="Helvetica,sans-Serif" font-size="10.00">src/feature_adjuster.cpp</text>
</a>
</g>
</g>
<!-- Node1&#45;&gt;Node2 -->
<g id="edge1" class="edge"><title>Node1&#45;&gt;Node2</title>
<path fill="none" stroke="midnightblue" d="M155.227,-52.3678C132.193,-42.2553 100.516,-28.3486 80.3985,-19.5164"/>
<polygon fill="midnightblue" stroke="midnightblue" points="153.947,-55.6283 164.51,-56.4435 156.761,-49.2188 153.947,-55.6283"/>
</g>
<!-- Node3 -->
<g id="node3" class="node"><title>Node3</title>
<g id="a_node3"><a xlink:href="../../d9/dcb/features_8cpp.html" target="_top" xlink:title="src/features.cpp">
<polygon fill="white" stroke="black" points="140.5,-0.5 140.5,-19.5 227.5,-19.5 227.5,-0.5 140.5,-0.5"/>
<text text-anchor="middle" x="184" y="-7.5" font-family="Helvetica,sans-Serif" font-size="10.00">src/features.cpp</text>
</a>
</g>
</g>
<!-- Node1&#45;&gt;Node3 -->
<g id="edge2" class="edge"><title>Node1&#45;&gt;Node3</title>
<path fill="none" stroke="midnightblue" d="M184,-45.8045C184,-36.9102 184,-26.7798 184,-19.7511"/>
<polygon fill="midnightblue" stroke="midnightblue" points="180.5,-46.083 184,-56.083 187.5,-46.083 180.5,-46.083"/>
</g>
<!-- Node4 -->
<g id="node4" class="node"><title>Node4</title>
<g id="a_node4"><a xlink:href="../../d7/d5f/misc_8cpp.html" target="_top" xlink:title="src/misc.cpp">
<polygon fill="white" stroke="black" points="245.5,-0.5 245.5,-19.5 318.5,-19.5 318.5,-0.5 245.5,-0.5"/>
<text text-anchor="middle" x="282" y="-7.5" font-family="Helvetica,sans-Serif" font-size="10.00">src/misc.cpp</text>
</a>
</g>
</g>
<!-- Node1&#45;&gt;Node4 -->
<g id="edge3" class="edge"><title>Node1&#45;&gt;Node4</title>
<path fill="none" stroke="midnightblue" d="M208.586,-51.4526C226.678,-41.4835 250.735,-28.2279 266.294,-19.6545"/>
<polygon fill="midnightblue" stroke="midnightblue" points="206.815,-48.4324 199.745,-56.324 210.193,-54.5633 206.815,-48.4324"/>
</g>
</g>
</svg>
