<?xml version="1.0" encoding="UTF-8" standalone="no"?>
<!DOCTYPE svg PUBLIC "-//W3C//DTD SVG 1.1//EN"
 "http://www.w3.org/Graphics/SVG/1.1/DTD/svg11.dtd">
<!-- Generated by graphviz version 2.36.0 (20140111.2315)
 -->
<!-- Title: lsd_slam::SE3Tracker Pages: 1 -->
<svg width="263pt" height="524pt"
 viewBox="0.00 0.00 263.00 524.00" xmlns="http://www.w3.org/2000/svg" xmlns:xlink="http://www.w3.org/1999/xlink">
<g id="graph0" class="graph" transform="scale(1 1) rotate(0) translate(4 520)">
<title>lsd_slam::SE3Tracker</title>
<polygon fill="white" stroke="none" points="-4,4 -4,-520 259,-520 259,4 -4,4"/>
<!-- Node1 -->
<g id="node1" class="node"><title>Node1</title>
<polygon fill="#bfbfbf" stroke="black" points="29,-0.5 29,-233.5 165,-233.5 165,-0.5 29,-0.5"/>
<text text-anchor="middle" x="97" y="-221.5" font-family="Helvetica,sans-Serif" font-size="10.00">lsd_slam::SE3Tracker</text>
<polyline fill="none" stroke="black" points="29,-214.5 165,-214.5 "/>
<text text-anchor="start" x="37" y="-202.5" font-family="Helvetica,sans-Serif" font-size="10.00">+ width</text>
<text text-anchor="start" x="37" y="-191.5" font-family="Helvetica,sans-Serif" font-size="10.00">+ height</text>
<text text-anchor="start" x="37" y="-180.5" font-family="Helvetica,sans-Serif" font-size="10.00">+ K</text>
<text text-anchor="start" x="37" y="-169.5" font-family="Helvetica,sans-Serif" font-size="10.00">+ KInv</text>
<text text-anchor="start" x="37" y="-158.5" font-family="Helvetica,sans-Serif" font-size="10.00">+ fx</text>
<text text-anchor="start" x="37" y="-147.5" font-family="Helvetica,sans-Serif" font-size="10.00">+ fy</text>
<text text-anchor="start" x="37" y="-136.5" font-family="Helvetica,sans-Serif" font-size="10.00">+ cx</text>
<text text-anchor="start" x="37" y="-125.5" font-family="Helvetica,sans-Serif" font-size="10.00">+ cy</text>
<text text-anchor="start" x="37" y="-114.5" font-family="Helvetica,sans-Serif" font-size="10.00">+ fxi</text>
<text text-anchor="start" x="37" y="-103.5" font-family="Helvetica,sans-Serif" font-size="10.00">+ fyi</text>
<text text-anchor="start" x="37" y="-92.5" font-family="Helvetica,sans-Serif" font-size="10.00">and 11 more...</text>
<polyline fill="none" stroke="black" points="29,-85.5 165,-85.5 "/>
<text text-anchor="start" x="37" y="-73.5" font-family="Helvetica,sans-Serif" font-size="10.00">+ SE3Tracker()</text>
<text text-anchor="start" x="37" y="-62.5" font-family="Helvetica,sans-Serif" font-size="10.00">+ SE3Tracker()</text>
<text text-anchor="start" x="37" y="-51.5" font-family="Helvetica,sans-Serif" font-size="10.00">+ operator=()</text>
<text text-anchor="start" x="37" y="-40.5" font-family="Helvetica,sans-Serif" font-size="10.00">+ ~SE3Tracker()</text>
<text text-anchor="start" x="37" y="-29.5" font-family="Helvetica,sans-Serif" font-size="10.00">+ trackFrame()</text>
<text text-anchor="start" x="37" y="-18.5" font-family="Helvetica,sans-Serif" font-size="10.00">+ trackFrameOnPermaref()</text>
<text text-anchor="start" x="37" y="-7.5" font-family="Helvetica,sans-Serif" font-size="10.00">+ checkPermaRefOverlap()</text>
</g>
<!-- Node2 -->
<g id="node2" class="node"><title>Node2</title>
<polygon fill="white" stroke="#bfbfbf" points="-0.5,-392.5 -0.5,-449.5 32.5,-449.5 32.5,-392.5 -0.5,-392.5"/>
<text text-anchor="middle" x="16" y="-437.5" font-family="Helvetica,sans-Serif" font-size="10.00">Mat</text>
<polyline fill="none" stroke="#bfbfbf" points="-0.5,-430.5 32.5,-430.5 "/>
<text text-anchor="middle" x="16" y="-418.5" font-family="Helvetica,sans-Serif" font-size="10.00"> </text>
<polyline fill="none" stroke="#bfbfbf" points="-0.5,-411.5 32.5,-411.5 "/>
<text text-anchor="middle" x="16" y="-399.5" font-family="Helvetica,sans-Serif" font-size="10.00"> </text>
</g>
<!-- Node2&#45;&gt;Node1 -->
<g id="edge1" class="edge"><title>Node2&#45;&gt;Node1</title>
<path fill="none" stroke="#404040" d="M11.7879,-392.328C7.62931,-358.517 3.63544,-299.901 17,-252 18.9594,-244.977 21.3909,-237.95 24.1735,-230.997"/>
<polygon fill="none" stroke="#404040" points="24.2602,-230.795 22.9488,-223.704 28.9899,-219.766 30.3013,-226.857 24.2602,-230.795"/>
<text text-anchor="middle" x="86.5" y="-299.5" font-family="Helvetica,sans-Serif" font-size="10.00"> +debugImageOldImageWarped</text>
<text text-anchor="middle" x="86.5" y="-288.5" font-family="Helvetica,sans-Serif" font-size="10.00">+debugImageWeights</text>
<text text-anchor="middle" x="86.5" y="-277.5" font-family="Helvetica,sans-Serif" font-size="10.00">+debugImageSecondFrame</text>
<text text-anchor="middle" x="86.5" y="-266.5" font-family="Helvetica,sans-Serif" font-size="10.00">+debugImageOldImageSource</text>
<text text-anchor="middle" x="86.5" y="-255.5" font-family="Helvetica,sans-Serif" font-size="10.00">+debugImageResiduals</text>
</g>
<!-- Node3 -->
<g id="node3" class="node"><title>Node3</title>
<g id="a_node3"><a xlink:href="../../df/d99/classlsd__slam_1_1DenseDepthTrackerSettings.html" target="_top" xlink:title="{lsd_slam::DenseDepthTracker\lSettings\n|+ lambdaSuccessFac\l+ lambdaFailFac\l+ lambdaInitial\l+ stepSizeMin\l+ convergenceEps\l+ maxItsPerLvl\l+ lambdaInitialTestTrack\l+ stepSizeMinTestTrack\l+ convergenceEpsTestTrack\l+ maxItsTestTrack\l+ huber_d\l+ var_weight\l|+ DenseDepthTrackerSettings()\l}">
<polygon fill="white" stroke="black" points="100.5,-326.5 100.5,-515.5 255.5,-515.5 255.5,-326.5 100.5,-326.5"/>
<text text-anchor="start" x="108.5" y="-503.5" font-family="Helvetica,sans-Serif" font-size="10.00">lsd_slam::DenseDepthTracker</text>
<text text-anchor="middle" x="178" y="-492.5" font-family="Helvetica,sans-Serif" font-size="10.00">Settings</text>
<polyline fill="none" stroke="black" points="100.5,-485.5 255.5,-485.5 "/>
<text text-anchor="start" x="108.5" y="-473.5" font-family="Helvetica,sans-Serif" font-size="10.00">+ lambdaSuccessFac</text>
<text text-anchor="start" x="108.5" y="-462.5" font-family="Helvetica,sans-Serif" font-size="10.00">+ lambdaFailFac</text>
<text text-anchor="start" x="108.5" y="-451.5" font-family="Helvetica,sans-Serif" font-size="10.00">+ lambdaInitial</text>
<text text-anchor="start" x="108.5" y="-440.5" font-family="Helvetica,sans-Serif" font-size="10.00">+ stepSizeMin</text>
<text text-anchor="start" x="108.5" y="-429.5" font-family="Helvetica,sans-Serif" font-size="10.00">+ convergenceEps</text>
<text text-anchor="start" x="108.5" y="-418.5" font-family="Helvetica,sans-Serif" font-size="10.00">+ maxItsPerLvl</text>
<text text-anchor="start" x="108.5" y="-407.5" font-family="Helvetica,sans-Serif" font-size="10.00">+ lambdaInitialTestTrack</text>
<text text-anchor="start" x="108.5" y="-396.5" font-family="Helvetica,sans-Serif" font-size="10.00">+ stepSizeMinTestTrack</text>
<text text-anchor="start" x="108.5" y="-385.5" font-family="Helvetica,sans-Serif" font-size="10.00">+ convergenceEpsTestTrack</text>
<text text-anchor="start" x="108.5" y="-374.5" font-family="Helvetica,sans-Serif" font-size="10.00">+ maxItsTestTrack</text>
<text text-anchor="start" x="108.5" y="-363.5" font-family="Helvetica,sans-Serif" font-size="10.00">+ huber_d</text>
<text text-anchor="start" x="108.5" y="-352.5" font-family="Helvetica,sans-Serif" font-size="10.00">+ var_weight</text>
<polyline fill="none" stroke="black" points="100.5,-345.5 255.5,-345.5 "/>
<text text-anchor="start" x="108.5" y="-333.5" font-family="Helvetica,sans-Serif" font-size="10.00">+ DenseDepthTrackerSettings()</text>
</a>
</g>
</g>
<!-- Node3&#45;&gt;Node1 -->
<g id="edge2" class="edge"><title>Node3&#45;&gt;Node1</title>
<path fill="none" stroke="#404040" d="M170.499,-326.183C167.249,-301.753 162.61,-275.656 156,-252 155.398,-249.845 154.767,-247.679 154.111,-245.506"/>
<polygon fill="none" stroke="#404040" points="154.034,-245.266 148.393,-240.773 150.371,-233.839 156.011,-238.331 154.034,-245.266"/>
<text text-anchor="middle" x="189" y="-277.5" font-family="Helvetica,sans-Serif" font-size="10.00"> +settings</text>
</g>
</g>
</svg>
