<?xml version="1.0" encoding="UTF-8" standalone="no"?>
<!DOCTYPE svg PUBLIC "-//W3C//DTD SVG 1.1//EN"
 "http://www.w3.org/Graphics/SVG/1.1/DTD/svg11.dtd">
<!-- Generated by graphviz version 2.36.0 (20140111.2315)
 -->
<!-- Title: src/transformation_estimation_euclidean.h Pages: 1 -->
<svg width="231pt" height="108pt"
 viewBox="0.00 0.00 231.00 108.00" xmlns="http://www.w3.org/2000/svg" xmlns:xlink="http://www.w3.org/1999/xlink">
<g id="graph0" class="graph" transform="scale(1 1) rotate(0) translate(4 104)">
<title>src/transformation_estimation_euclidean.h</title>
<polygon fill="white" stroke="none" points="-4,4 -4,-104 227,-104 227,4 -4,4"/>
<!-- Node1 -->
<g id="node1" class="node"><title>Node1</title>
<polygon fill="#bfbfbf" stroke="black" points="35,-69 35,-99 157,-99 157,-69 35,-69"/>
<text text-anchor="start" x="43" y="-87" font-family="Helvetica,sans-Serif" font-size="10.00">src/transformation</text>
<text text-anchor="middle" x="96" y="-76" font-family="Helvetica,sans-Serif" font-size="10.00">_estimation_euclidean.h</text>
</g>
<!-- Node2 -->
<g id="node2" class="node"><title>Node2</title>
<g id="a_node2"><a xlink:href="../../d7/d70/node_8cpp.html" target="_top" xlink:title="src/node.cpp">
<polygon fill="white" stroke="black" points="-0.5,-6.5 -0.5,-25.5 72.5,-25.5 72.5,-6.5 -0.5,-6.5"/>
<text text-anchor="middle" x="36" y="-13.5" font-family="Helvetica,sans-Serif" font-size="10.00">src/node.cpp</text>
</a>
</g>
</g>
<!-- Node1&#45;&gt;Node2 -->
<g id="edge1" class="edge"><title>Node1&#45;&gt;Node2</title>
<path fill="none" stroke="midnightblue" d="M76.1508,-61.1658C65.1991,-49.119 52.2014,-34.8216 44.0257,-25.8283"/>
<polygon fill="midnightblue" stroke="midnightblue" points="73.6643,-63.6339 82.9809,-68.679 78.8439,-58.9252 73.6643,-63.6339"/>
</g>
<!-- Node3 -->
<g id="node3" class="node"><title>Node3</title>
<g id="a_node3"><a xlink:href="../../d7/de3/transformation__estimation__euclidean_8cpp.html" target="_top" xlink:title="src/transformation\l_estimation_euclidean.cpp">
<polygon fill="white" stroke="black" points="91,-1 91,-31 223,-31 223,-1 91,-1"/>
<text text-anchor="start" x="99" y="-19" font-family="Helvetica,sans-Serif" font-size="10.00">src/transformation</text>
<text text-anchor="middle" x="157" y="-8" font-family="Helvetica,sans-Serif" font-size="10.00">_estimation_euclidean.cpp</text>
</a>
</g>
</g>
<!-- Node1&#45;&gt;Node3 -->
<g id="edge2" class="edge"><title>Node1&#45;&gt;Node3</title>
<path fill="none" stroke="midnightblue" d="M116.154,-61.1939C125.243,-51.3605 135.721,-40.0228 143.79,-31.2931"/>
<polygon fill="midnightblue" stroke="midnightblue" points="113.453,-58.9596 109.236,-68.679 118.594,-63.7108 113.453,-58.9596"/>
</g>
</g>
</svg>
