<?xml version="1.0" encoding="UTF-8" standalone="no"?>
<!DOCTYPE svg PUBLIC "-//W3C//DTD SVG 1.1//EN"
 "http://www.w3.org/Graphics/SVG/1.1/DTD/svg11.dtd">
<!-- Generated by graphviz version 2.36.0 (20140111.2315)
 -->
<!-- Title: src/IOWrapper/ROS/ROSImageStreamThread.h Pages: 1 -->
<svg width="1188pt" height="276pt"
 viewBox="0.00 0.00 1187.97 276.00" xmlns="http://www.w3.org/2000/svg" xmlns:xlink="http://www.w3.org/1999/xlink">
<g id="graph0" class="graph" transform="scale(1 1) rotate(0) translate(4 272)">
<title>src/IOWrapper/ROS/ROSImageStreamThread.h</title>
<polygon fill="white" stroke="none" points="-4,4 -4,-272 1183.97,-272 1183.97,4 -4,4"/>
<!-- Node1 -->
<g id="node1" class="node"><title>Node1</title>
<polygon fill="#bfbfbf" stroke="black" points="471.5,-237 471.5,-267 628.5,-267 628.5,-237 471.5,-237"/>
<text text-anchor="start" x="479.5" y="-255" font-family="Helvetica,sans-Serif" font-size="10.00">src/IOWrapper/ROS/ROSImage</text>
<text text-anchor="middle" x="550" y="-244" font-family="Helvetica,sans-Serif" font-size="10.00">StreamThread.h</text>
</g>
<!-- Node2 -->
<g id="node2" class="node"><title>Node2</title>
<g id="a_node2"><a xlink:href="../../d5/d13/NotifyBuffer_8h.html" target="_top" xlink:title="IOWrapper/NotifyBuffer.h">
<polygon fill="white" stroke="black" points="64,-124.5 64,-143.5 192,-143.5 192,-124.5 64,-124.5"/>
<text text-anchor="middle" x="128" y="-131.5" font-family="Helvetica,sans-Serif" font-size="10.00">IOWrapper/NotifyBuffer.h</text>
</a>
</g>
</g>
<!-- Node1&#45;&gt;Node2 -->
<g id="edge1" class="edge"><title>Node1&#45;&gt;Node2</title>
<path fill="none" stroke="midnightblue" d="M471.244,-250.984C367.976,-249.326 194.354,-240.386 147,-200 133.741,-188.692 129.466,-168.689 128.217,-153.85"/>
<polygon fill="midnightblue" stroke="midnightblue" points="131.708,-153.568 127.753,-143.739 124.715,-153.889 131.708,-153.568"/>
</g>
<!-- Node6 -->
<g id="node6" class="node"><title>Node6</title>
<g id="a_node6"><a xlink:href="../../da/d15/TimestampedObject_8h.html" target="_top" xlink:title="IOWrapper/TimestampedObject.h">
<polygon fill="white" stroke="black" points="269.5,-124.5 269.5,-143.5 432.5,-143.5 432.5,-124.5 269.5,-124.5"/>
<text text-anchor="middle" x="351" y="-131.5" font-family="Helvetica,sans-Serif" font-size="10.00">IOWrapper/TimestampedObject.h</text>
</a>
</g>
</g>
<!-- Node1&#45;&gt;Node6 -->
<g id="edge5" class="edge"><title>Node1&#45;&gt;Node6</title>
<path fill="none" stroke="midnightblue" d="M471.496,-239.11C425.72,-230.506 374.096,-217.346 359,-200 348.163,-187.548 347.045,-168.313 348.108,-153.994"/>
<polygon fill="midnightblue" stroke="midnightblue" points="351.616,-154.123 349.283,-143.788 344.662,-153.321 351.616,-154.123"/>
</g>
<!-- Node12 -->
<g id="node12" class="node"><title>Node12</title>
<g id="a_node12"><a xlink:href="../../d6/d4e/InputImageStream_8h.html" target="_top" xlink:title="IOWrapper/InputImageStream.h">
<polygon fill="white" stroke="black" points="156.5,-180.5 156.5,-199.5 311.5,-199.5 311.5,-180.5 156.5,-180.5"/>
<text text-anchor="middle" x="234" y="-187.5" font-family="Helvetica,sans-Serif" font-size="10.00">IOWrapper/InputImageStream.h</text>
</a>
</g>
</g>
<!-- Node1&#45;&gt;Node12 -->
<g id="edge12" class="edge"><title>Node1&#45;&gt;Node12</title>
<path fill="none" stroke="midnightblue" d="M475.912,-236.933C418.62,-226.054 340.592,-211.239 288.823,-201.409"/>
<polygon fill="midnightblue" stroke="midnightblue" points="289.311,-197.94 278.834,-199.513 288.005,-204.817 289.311,-197.94"/>
</g>
<!-- Node13 -->
<g id="node13" class="node"><title>Node13</title>
<polygon fill="white" stroke="#bfbfbf" points="368.5,-180.5 368.5,-199.5 423.5,-199.5 423.5,-180.5 368.5,-180.5"/>
<text text-anchor="middle" x="396" y="-187.5" font-family="Helvetica,sans-Serif" font-size="10.00">ros/ros.h</text>
</g>
<!-- Node1&#45;&gt;Node13 -->
<g id="edge15" class="edge"><title>Node1&#45;&gt;Node13</title>
<path fill="none" stroke="midnightblue" d="M513.894,-236.933C487.68,-226.72 452.559,-213.036 427.484,-203.266"/>
<polygon fill="midnightblue" stroke="midnightblue" points="428.662,-199.969 418.073,-199.6 426.121,-206.492 428.662,-199.969"/>
</g>
<!-- Node14 -->
<g id="node14" class="node"><title>Node14</title>
<polygon fill="white" stroke="#bfbfbf" points="442,-180.5 442,-199.5 520,-199.5 520,-180.5 442,-180.5"/>
<text text-anchor="middle" x="481" y="-187.5" font-family="Helvetica,sans-Serif" font-size="10.00">ros/package.h</text>
</g>
<!-- Node1&#45;&gt;Node14 -->
<g id="edge16" class="edge"><title>Node1&#45;&gt;Node14</title>
<path fill="none" stroke="midnightblue" d="M533.648,-236.781C523.105,-227.613 509.4,-215.696 498.616,-206.319"/>
<polygon fill="midnightblue" stroke="midnightblue" points="500.883,-203.651 491.04,-199.731 496.29,-208.933 500.883,-203.651"/>
</g>
<!-- Node15 -->
<g id="node15" class="node"><title>Node15</title>
<polygon fill="white" stroke="#bfbfbf" points="538,-180.5 538,-199.5 700,-199.5 700,-180.5 538,-180.5"/>
<text text-anchor="middle" x="619" y="-187.5" font-family="Helvetica,sans-Serif" font-size="10.00">sensor_msgs/image_encodings.h</text>
</g>
<!-- Node1&#45;&gt;Node15 -->
<g id="edge17" class="edge"><title>Node1&#45;&gt;Node15</title>
<path fill="none" stroke="midnightblue" d="M566.352,-236.781C576.895,-227.613 590.6,-215.696 601.384,-206.319"/>
<polygon fill="midnightblue" stroke="midnightblue" points="603.71,-208.933 608.96,-199.731 599.117,-203.651 603.71,-208.933"/>
</g>
<!-- Node16 -->
<g id="node16" class="node"><title>Node16</title>
<polygon fill="white" stroke="#bfbfbf" points="718.5,-180.5 718.5,-199.5 831.5,-199.5 831.5,-180.5 718.5,-180.5"/>
<text text-anchor="middle" x="775" y="-187.5" font-family="Helvetica,sans-Serif" font-size="10.00">sensor_msgs/Image.h</text>
</g>
<!-- Node1&#45;&gt;Node16 -->
<g id="edge18" class="edge"><title>Node1&#45;&gt;Node16</title>
<path fill="none" stroke="midnightblue" d="M602.753,-236.933C642.526,-226.326 696.335,-211.977 733.165,-202.156"/>
<polygon fill="midnightblue" stroke="midnightblue" points="734.317,-205.471 743.077,-199.513 732.513,-198.708 734.317,-205.471"/>
</g>
<!-- Node17 -->
<g id="node17" class="node"><title>Node17</title>
<polygon fill="white" stroke="#bfbfbf" points="849.5,-180.5 849.5,-199.5 986.5,-199.5 986.5,-180.5 849.5,-180.5"/>
<text text-anchor="middle" x="918" y="-187.5" font-family="Helvetica,sans-Serif" font-size="10.00">sensor_msgs/CameraInfo.h</text>
</g>
<!-- Node1&#45;&gt;Node17 -->
<g id="edge19" class="edge"><title>Node1&#45;&gt;Node17</title>
<path fill="none" stroke="midnightblue" d="M628.945,-238.128C696.764,-227.071 793.218,-211.345 855.709,-201.156"/>
<polygon fill="midnightblue" stroke="midnightblue" points="856.513,-204.571 865.819,-199.508 855.386,-197.663 856.513,-204.571"/>
</g>
<!-- Node18 -->
<g id="node18" class="node"><title>Node18</title>
<polygon fill="white" stroke="#bfbfbf" points="1004.5,-180.5 1004.5,-199.5 1163.5,-199.5 1163.5,-180.5 1004.5,-180.5"/>
<text text-anchor="middle" x="1084" y="-187.5" font-family="Helvetica,sans-Serif" font-size="10.00">geometry_msgs/PoseStamped.h</text>
</g>
<!-- Node1&#45;&gt;Node18 -->
<g id="edge20" class="edge"><title>Node1&#45;&gt;Node18</title>
<path fill="none" stroke="midnightblue" d="M628.507,-242.179C727.265,-231.083 896.246,-212.096 998.287,-200.631"/>
<polygon fill="midnightblue" stroke="midnightblue" points="998.706,-204.106 1008.25,-199.511 997.924,-197.149 998.706,-204.106"/>
</g>
<!-- Node19 -->
<g id="node19" class="node"><title>Node19</title>
<g id="a_node19"><a xlink:href="../../df/dd0/Undistorter_8h.html" target="_top" xlink:title="util/Undistorter.h">
<polygon fill="white" stroke="black" points="984.5,-124.5 984.5,-143.5 1073.5,-143.5 1073.5,-124.5 984.5,-124.5"/>
<text text-anchor="middle" x="1029" y="-131.5" font-family="Helvetica,sans-Serif" font-size="10.00">util/Undistorter.h</text>
</a>
</g>
</g>
<!-- Node1&#45;&gt;Node19 -->
<g id="edge21" class="edge"><title>Node1&#45;&gt;Node19</title>
<path fill="none" stroke="midnightblue" d="M628.73,-250.367C787.883,-248.267 1135.89,-239.194 1172,-200 1202.14,-167.284 1135.81,-149.87 1083.71,-141.54"/>
<polygon fill="midnightblue" stroke="midnightblue" points="1083.92,-138.033 1073.51,-139.993 1082.88,-144.953 1083.92,-138.033"/>
</g>
<!-- Node3 -->
<g id="node3" class="node"><title>Node3</title>
<polygon fill="white" stroke="#bfbfbf" points="-0.5,-62.5 -0.5,-81.5 42.5,-81.5 42.5,-62.5 -0.5,-62.5"/>
<text text-anchor="middle" x="21" y="-69.5" font-family="Helvetica,sans-Serif" font-size="10.00">deque</text>
</g>
<!-- Node2&#45;&gt;Node3 -->
<g id="edge2" class="edge"><title>Node2&#45;&gt;Node3</title>
<path fill="none" stroke="midnightblue" d="M112.67,-124.403C95.0303,-114.512 65.8404,-98.1442 45.1424,-86.5378"/>
<polygon fill="midnightblue" stroke="midnightblue" points="46.7362,-83.4188 36.3021,-81.5806 43.3125,-89.5244 46.7362,-83.4188"/>
</g>
<!-- Node4 -->
<g id="node4" class="node"><title>Node4</title>
<polygon fill="white" stroke="#bfbfbf" points="60.5,-57 60.5,-87 173.5,-87 173.5,-57 60.5,-57"/>
<text text-anchor="start" x="68.5" y="-75" font-family="Helvetica,sans-Serif" font-size="10.00">boost/thread/recursive</text>
<text text-anchor="middle" x="117" y="-64" font-family="Helvetica,sans-Serif" font-size="10.00">_mutex.hpp</text>
</g>
<!-- Node2&#45;&gt;Node4 -->
<g id="edge3" class="edge"><title>Node2&#45;&gt;Node4</title>
<path fill="none" stroke="midnightblue" d="M126.424,-124.403C125.115,-117.265 123.188,-106.752 121.417,-97.0903"/>
<polygon fill="midnightblue" stroke="midnightblue" points="124.838,-96.3457 119.592,-87.1408 117.953,-97.6081 124.838,-96.3457"/>
</g>
<!-- Node5 -->
<g id="node5" class="node"><title>Node5</title>
<polygon fill="white" stroke="#bfbfbf" points="191.5,-62.5 191.5,-81.5 322.5,-81.5 322.5,-62.5 191.5,-62.5"/>
<text text-anchor="middle" x="257" y="-69.5" font-family="Helvetica,sans-Serif" font-size="10.00">boost/thread/condition.hpp</text>
</g>
<!-- Node2&#45;&gt;Node5 -->
<g id="edge4" class="edge"><title>Node2&#45;&gt;Node5</title>
<path fill="none" stroke="midnightblue" d="M146.483,-124.403C168.132,-114.334 204.213,-97.5522 229.232,-85.9151"/>
<polygon fill="midnightblue" stroke="midnightblue" points="230.961,-88.9715 238.552,-81.5806 228.008,-82.6244 230.961,-88.9715"/>
</g>
<!-- Node7 -->
<g id="node7" class="node"><title>Node7</title>
<polygon fill="white" stroke="#bfbfbf" points="335,-0.5 335,-19.5 381,-19.5 381,-0.5 335,-0.5"/>
<text text-anchor="middle" x="358" y="-7.5" font-family="Helvetica,sans-Serif" font-size="10.00">chrono</text>
</g>
<!-- Node6&#45;&gt;Node7 -->
<g id="edge6" class="edge"><title>Node6&#45;&gt;Node7</title>
<path fill="none" stroke="midnightblue" d="M351.503,-124.226C352.634,-104.53 355.393,-56.4371 356.927,-29.7004"/>
<polygon fill="midnightblue" stroke="midnightblue" points="360.422,-29.8785 357.501,-19.6944 353.434,-29.4775 360.422,-29.8785"/>
</g>
<!-- Node8 -->
<g id="node8" class="node"><title>Node8</title>
<polygon fill="white" stroke="#bfbfbf" points="671,-62.5 671,-81.5 787,-81.5 787,-62.5 671,-62.5"/>
<text text-anchor="middle" x="729" y="-69.5" font-family="Helvetica,sans-Serif" font-size="10.00">opencv2/core/core.hpp</text>
</g>
<!-- Node6&#45;&gt;Node8 -->
<g id="edge7" class="edge"><title>Node6&#45;&gt;Node8</title>
<path fill="none" stroke="midnightblue" d="M404.757,-124.467C473.475,-113.559 592.285,-94.7008 665.422,-83.0918"/>
<polygon fill="midnightblue" stroke="midnightblue" points="666.101,-86.5279 675.429,-81.5034 665.004,-79.6144 666.101,-86.5279"/>
</g>
<!-- Node9 -->
<g id="node9" class="node"><title>Node9</title>
<g id="a_node9"><a xlink:href="../../d7/d66/Timestamp_8h.html" target="_top" xlink:title="IOWrapper/Timestamp.h">
<polygon fill="white" stroke="black" points="379,-62.5 379,-81.5 503,-81.5 503,-62.5 379,-62.5"/>
<text text-anchor="middle" x="441" y="-69.5" font-family="Helvetica,sans-Serif" font-size="10.00">IOWrapper/Timestamp.h</text>
</a>
</g>
</g>
<!-- Node6&#45;&gt;Node9 -->
<g id="edge8" class="edge"><title>Node6&#45;&gt;Node9</title>
<path fill="none" stroke="midnightblue" d="M363.895,-124.403C378.464,-114.691 402.402,-98.7319 419.745,-87.1697"/>
<polygon fill="midnightblue" stroke="midnightblue" points="421.75,-90.0398 428.129,-81.5806 417.867,-84.2155 421.75,-90.0398"/>
</g>
<!-- Node9&#45;&gt;Node7 -->
<g id="edge10" class="edge"><title>Node9&#45;&gt;Node7</title>
<path fill="none" stroke="midnightblue" d="M429.108,-62.4035C415.795,-52.7797 394,-37.0242 378.043,-25.4891"/>
<polygon fill="midnightblue" stroke="midnightblue" points="380.025,-22.6026 369.87,-19.5806 375.924,-28.2756 380.025,-22.6026"/>
</g>
<!-- Node10 -->
<g id="node10" class="node"><title>Node10</title>
<polygon fill="white" stroke="#bfbfbf" points="413.5,-0.5 413.5,-19.5 454.5,-19.5 454.5,-0.5 413.5,-0.5"/>
<text text-anchor="middle" x="434" y="-7.5" font-family="Helvetica,sans-Serif" font-size="10.00">string</text>
</g>
<!-- Node9&#45;&gt;Node10 -->
<g id="edge9" class="edge"><title>Node9&#45;&gt;Node10</title>
<path fill="none" stroke="midnightblue" d="M439.997,-62.4035C439.009,-53.9381 437.468,-40.7283 436.196,-29.8199"/>
<polygon fill="midnightblue" stroke="midnightblue" points="439.636,-29.1076 435.001,-19.5806 432.684,-29.9188 439.636,-29.1076"/>
</g>
<!-- Node11 -->
<g id="node11" class="node"><title>Node11</title>
<polygon fill="white" stroke="#bfbfbf" points="472.5,-0.5 472.5,-19.5 591.5,-19.5 591.5,-0.5 472.5,-0.5"/>
<text text-anchor="middle" x="532" y="-7.5" font-family="Helvetica,sans-Serif" font-size="10.00">boost/thread/mutex.hpp</text>
</g>
<!-- Node9&#45;&gt;Node11 -->
<g id="edge11" class="edge"><title>Node9&#45;&gt;Node11</title>
<path fill="none" stroke="midnightblue" d="M454.038,-62.4035C468.769,-52.6905 492.973,-36.7319 510.509,-25.1697"/>
<polygon fill="midnightblue" stroke="midnightblue" points="512.564,-28.0072 518.986,-19.5806 508.711,-22.1632 512.564,-28.0072"/>
</g>
<!-- Node12&#45;&gt;Node2 -->
<g id="edge13" class="edge"><title>Node12&#45;&gt;Node2</title>
<path fill="none" stroke="midnightblue" d="M216.969,-180.324C199.97,-171.664 173.624,-158.242 154.007,-148.249"/>
<polygon fill="midnightblue" stroke="midnightblue" points="155.488,-145.075 144.988,-143.655 152.31,-151.312 155.488,-145.075"/>
</g>
<!-- Node12&#45;&gt;Node6 -->
<g id="edge14" class="edge"><title>Node12&#45;&gt;Node6</title>
<path fill="none" stroke="midnightblue" d="M252.539,-180.444C271.623,-171.636 301.575,-157.812 323.436,-147.722"/>
<polygon fill="midnightblue" stroke="midnightblue" points="324.935,-150.885 332.548,-143.516 322.001,-144.529 324.935,-150.885"/>
</g>
<!-- Node19&#45;&gt;Node8 -->
<g id="edge22" class="edge"><title>Node19&#45;&gt;Node8</title>
<path fill="none" stroke="midnightblue" d="M986.336,-124.467C932.467,-113.693 839.812,-95.1623 781.612,-83.5223"/>
<polygon fill="midnightblue" stroke="midnightblue" points="782.009,-80.0326 771.517,-81.5034 780.636,-86.8967 782.009,-80.0326"/>
</g>
</g>
</svg>
