<?xml version="1.0" encoding="UTF-8" standalone="no"?>
<!DOCTYPE svg PUBLIC "-//W3C//DTD SVG 1.1//EN"
 "http://www.w3.org/Graphics/SVG/1.1/DTD/svg11.dtd">
<!-- Generated by graphviz version 2.36.0 (20140111.2315)
 -->
<!-- Title: of2::FabMapFBO::getLikelihoods Pages: 1 -->
<!--zoomable 142 -->
<svg id="main" version="1.1" xmlns="http://www.w3.org/2000/svg" xmlns:xlink="http://www.w3.org/1999/xlink" xml:space="preserve" onload="init(evt)">
<style type="text/css"><![CDATA[
.edge:hover path { stroke: red; }
.edge:hover polygon { stroke: red; fill: red; }
]]></style>
<script type="text/javascript"><![CDATA[
var edges = document.getElementsByTagName('g');
if (edges && edges.length) {
  for (var i=0;i<edges.length;i++) {
    if (edges[i].id.substr(0,4)=='edge') {
      edges[i].setAttribute('class','edge');
    }
  }
}
]]></script>
        <defs>
                <circle id="rim" cx="0" cy="0" r="7"/>
                <circle id="rim2" cx="0" cy="0" r="3.5"/>
                <g id="zoomPlus">
                        <use xlink:href="#rim" fill="#404040">
                                <set attributeName="fill" to="#808080" begin="zoomplus.mouseover" end="zoomplus.mouseout"/>
                        </use>
                        <path d="M-4,0h8M0,-4v8" fill="none" stroke="white" stroke-width="1.5" pointer-events="none"/>
                </g>
                <g id="zoomMin">
                        <use xlink:href="#rim" fill="#404040">
                                <set attributeName="fill" to="#808080" begin="zoomminus.mouseover" end="zoomminus.mouseout"/>
                        </use>
                        <path d="M-4,0h8" fill="none" stroke="white" stroke-width="1.5" pointer-events="none"/>
                </g>
                <g id="dirArrow">
                        <path fill="none" stroke="white" stroke-width="1.5" d="M0,-3.0v7 M-2.5,-0.5L0,-3.0L2.5,-0.5"/>
                </g>
               <g id="resetDef">
                       <use xlink:href="#rim2" fill="#404040">
                               <set attributeName="fill" to="#808080" begin="reset.mouseover" end="reset.mouseout"/>
                       </use>
               </g>
        </defs>

<script type="text/javascript">
var viewWidth = 588;
var viewHeight = 142;
var sectionId = 'dynsection-2';
</script>
<script xlink:href="../../svgpan.js"/>
<svg id="graph" class="graph">
<g id="viewport">
<title>of2::FabMapFBO::getLikelihoods</title>
<polygon fill="white" stroke="none" points="-4,4 -4,-138 584,-138 584,4 -4,4"/>
<!-- Node1 -->
<g id="node1" class="node"><title>Node1</title>
<polygon fill="#bfbfbf" stroke="black" points="0,-38.5 0,-57.5 160,-57.5 160,-38.5 0,-38.5"/>
<text text-anchor="middle" x="80" y="-45.5" font-family="Helvetica,sans-Serif" font-size="10.00">of2::FabMapFBO::getLikelihoods</text>
</g>
<!-- Node2 -->
<g id="node2" class="node"><title>Node2</title>
<g id="a_node2"><a xlink:href="../../d5/dd3/classof2_1_1FabMapFBO.html#a01b4d2083cc7c8a42684509b4a5b36e4" target="_top" xlink:title="of2::FabMapFBO::setWordStatistics">
<polygon fill="white" stroke="black" points="196,-76.5 196,-95.5 372,-95.5 372,-76.5 196,-76.5"/>
<text text-anchor="middle" x="284" y="-83.5" font-family="Helvetica,sans-Serif" font-size="10.00">of2::FabMapFBO::setWordStatistics</text>
</a>
</g>
</g>
<!-- Node1&#45;&gt;Node2 -->
<g id="edge1" class="edge"><title>Node1&#45;&gt;Node2</title>
<path fill="none" stroke="midnightblue" d="M131.712,-57.54C159.207,-62.7122 193.376,-69.1401 222.282,-74.5778"/>
<polygon fill="midnightblue" stroke="midnightblue" points="221.792,-78.0469 232.267,-76.4561 223.086,-71.1676 221.792,-78.0469"/>
</g>
<!-- Node4 -->
<g id="node4" class="node"><title>Node4</title>
<g id="a_node4"><a xlink:href="../../d5/d90/classof2_1_1FabMap.html#a764248a90dbf7a4c7d74e4faa4031a61" target="_top" xlink:title="of2::FabMap::pq">
<polygon fill="white" stroke="black" points="450,-38.5 450,-57.5 538,-57.5 538,-38.5 450,-38.5"/>
<text text-anchor="middle" x="494" y="-45.5" font-family="Helvetica,sans-Serif" font-size="10.00">of2::FabMap::pq</text>
</a>
</g>
</g>
<!-- Node1&#45;&gt;Node4 -->
<g id="edge5" class="edge"><title>Node1&#45;&gt;Node4</title>
<path fill="none" stroke="midnightblue" d="M160.438,-48C242.677,-48 368.856,-48 439.802,-48"/>
<polygon fill="midnightblue" stroke="midnightblue" points="439.857,-51.5001 449.857,-48 439.857,-44.5001 439.857,-51.5001"/>
</g>
<!-- Node6 -->
<g id="node6" class="node"><title>Node6</title>
<g id="a_node6"><a xlink:href="../../d5/dd3/classof2_1_1FabMapFBO.html#a44e61e1f0a304b29617daee16b2dae26" target="_top" xlink:title="of2::FabMapFBO::limitbisection">
<polygon fill="white" stroke="black" points="206.5,-0.5 206.5,-19.5 361.5,-19.5 361.5,-0.5 206.5,-0.5"/>
<text text-anchor="middle" x="284" y="-7.5" font-family="Helvetica,sans-Serif" font-size="10.00">of2::FabMapFBO::limitbisection</text>
</a>
</g>
</g>
<!-- Node1&#45;&gt;Node6 -->
<g id="edge6" class="edge"><title>Node1&#45;&gt;Node6</title>
<path fill="none" stroke="midnightblue" d="M131.712,-38.46C159.207,-33.2878 193.376,-26.8599 222.282,-21.4222"/>
<polygon fill="midnightblue" stroke="midnightblue" points="223.086,-24.8324 232.267,-19.5439 221.792,-17.9531 223.086,-24.8324"/>
</g>
<!-- Node3 -->
<g id="node3" class="node"><title>Node3</title>
<g id="a_node3"><a xlink:href="../../d5/d90/classof2_1_1FabMap.html#a9621ee6393d8b9ec8c580f10576f32ec" target="_top" xlink:title="of2::FabMap::PzqGzpq">
<polygon fill="white" stroke="black" points="435,-114.5 435,-133.5 553,-133.5 553,-114.5 435,-114.5"/>
<text text-anchor="middle" x="494" y="-121.5" font-family="Helvetica,sans-Serif" font-size="10.00">of2::FabMap::PzqGzpq</text>
</a>
</g>
</g>
<!-- Node2&#45;&gt;Node3 -->
<g id="edge2" class="edge"><title>Node2&#45;&gt;Node3</title>
<path fill="none" stroke="midnightblue" d="M337.219,-95.54C365.654,-100.735 401.022,-107.196 430.868,-112.649"/>
<polygon fill="midnightblue" stroke="midnightblue" points="430.294,-116.102 440.76,-114.456 431.552,-109.216 430.294,-116.102"/>
</g>
<!-- Node2&#45;&gt;Node4 -->
<g id="edge3" class="edge"><title>Node2&#45;&gt;Node4</title>
<path fill="none" stroke="midnightblue" d="M337.219,-76.46C368.6,-70.7268 408.427,-63.4508 439.955,-57.6908"/>
<polygon fill="midnightblue" stroke="midnightblue" points="440.671,-61.1181 449.879,-55.8779 439.413,-54.2321 440.671,-61.1181"/>
</g>
<!-- Node5 -->
<g id="node5" class="node"><title>Node5</title>
<g id="a_node5"><a xlink:href="../../d5/d90/classof2_1_1FabMap.html#ac1aee23d3571915728cd1c4820ae5bcd" target="_top" xlink:title="of2::FabMap::Pzq">
<polygon fill="white" stroke="black" points="446.5,-76.5 446.5,-95.5 541.5,-95.5 541.5,-76.5 446.5,-76.5"/>
<text text-anchor="middle" x="494" y="-83.5" font-family="Helvetica,sans-Serif" font-size="10.00">of2::FabMap::Pzq</text>
</a>
</g>
</g>
<!-- Node2&#45;&gt;Node5 -->
<g id="edge4" class="edge"><title>Node2&#45;&gt;Node5</title>
<path fill="none" stroke="midnightblue" d="M372.006,-86C393.714,-86 416.439,-86 436.256,-86"/>
<polygon fill="midnightblue" stroke="midnightblue" points="436.333,-89.5001 446.333,-86 436.333,-82.5001 436.333,-89.5001"/>
</g>
<!-- Node7 -->
<g id="node7" class="node"><title>Node7</title>
<g id="a_node7"><a xlink:href="../../d5/dd3/classof2_1_1FabMapFBO.html#aabd1a7fb80707fb2adf2fce69d400ad5" target="_top" xlink:title="of2::FabMapFBO::bennettInequality">
<polygon fill="white" stroke="black" points="408,-0.5 408,-19.5 580,-19.5 580,-0.5 408,-0.5"/>
<text text-anchor="middle" x="494" y="-7.5" font-family="Helvetica,sans-Serif" font-size="10.00">of2::FabMapFBO::bennettInequality</text>
</a>
</g>
</g>
<!-- Node6&#45;&gt;Node7 -->
<g id="edge7" class="edge"><title>Node6&#45;&gt;Node7</title>
<path fill="none" stroke="midnightblue" d="M361.565,-10C373.33,-10 385.599,-10 397.709,-10"/>
<polygon fill="midnightblue" stroke="midnightblue" points="397.83,-13.5001 407.83,-10 397.83,-6.5001 397.83,-13.5001"/>
</g>
</g>
</svg>
        <g id="navigator" transform="translate(0 0)" fill="#404254">
                <rect fill="#f2f5e9" fill-opacity="0.5" stroke="#606060" stroke-width=".5" x="0" y="0" width="60" height="60"/>
                <use id="zoomplus" xlink:href="#zoomPlus" x="17" y="9" onmousedown="handleZoom(evt,'in')"/>
                <use id="zoomminus" xlink:href="#zoomMin" x="42" y="9" onmousedown="handleZoom(evt,'out')"/>
                <use id="reset" xlink:href="#resetDef" x="30" y="36" onmousedown="handleReset()"/>
                <g id="arrowUp" xlink:href="#dirArrow" transform="translate(30 24)" onmousedown="handlePan(0,-1)">
                  <use xlink:href="#rim" fill="#404040">
                        <set attributeName="fill" to="#808080" begin="arrowUp.mouseover" end="arrowUp.mouseout"/>
                  </use>
                  <path fill="none" stroke="white" stroke-width="1.5" d="M0,-3.0v7 M-2.5,-0.5L0,-3.0L2.5,-0.5"/>
                </g>
                <g id="arrowRight" xlink:href="#dirArrow" transform="rotate(90) translate(36 -43)" onmousedown="handlePan(1,0)">
                  <use xlink:href="#rim" fill="#404040">
                        <set attributeName="fill" to="#808080" begin="arrowRight.mouseover" end="arrowRight.mouseout"/>
                  </use>
                  <path fill="none" stroke="white" stroke-width="1.5" d="M0,-3.0v7 M-2.5,-0.5L0,-3.0L2.5,-0.5"/>
                </g>
                <g id="arrowDown" xlink:href="#dirArrow" transform="rotate(180) translate(-30 -48)" onmousedown="handlePan(0,1)">
                  <use xlink:href="#rim" fill="#404040">
                        <set attributeName="fill" to="#808080" begin="arrowDown.mouseover" end="arrowDown.mouseout"/>
                  </use>
                  <path fill="none" stroke="white" stroke-width="1.5" d="M0,-3.0v7 M-2.5,-0.5L0,-3.0L2.5,-0.5"/>
                </g>
                <g id="arrowLeft" xlink:href="#dirArrow" transform="rotate(270) translate(-36 17)" onmousedown="handlePan(-1,0)">
                  <use xlink:href="#rim" fill="#404040">
                        <set attributeName="fill" to="#808080" begin="arrowLeft.mouseover" end="arrowLeft.mouseout"/>
                  </use>
                  <path fill="none" stroke="white" stroke-width="1.5" d="M0,-3.0v7 M-2.5,-0.5L0,-3.0L2.5,-0.5"/>
                </g>
        </g>
        <svg viewBox="0 0 15 15" width="100%" height="30px" preserveAspectRatio="xMaxYMin meet">
         <g id="arrow_out" transform="scale(0.3 0.3)">
          <a xlink:href="classof2_1_1FabMapFBO_a2186625f9b7f7919df8e45c29713321d_cgraph_org.svg" target="_base">
           <rect id="button" ry="5" rx="5" y="6" x="6" height="38" width="38"
                fill="#f2f5e9" fill-opacity="0.5" stroke="#606060" stroke-width="1.0"/>
           <path id="arrow"
             d="M 11.500037,31.436501 C 11.940474,20.09759 22.043105,11.32322 32.158766,21.979434 L 37.068811,17.246167 C 37.068811,17.246167 37.088388,32 37.088388,32 L 22.160133,31.978069 C 22.160133,31.978069 26.997745,27.140456 26.997745,27.140456 C 18.528582,18.264221 13.291696,25.230495 11.500037,31.436501 z"
             style="fill:#404040;"/>
          </a>
         </g>
        </svg>
</svg>
