<?xml version="1.0" encoding="UTF-8" standalone="no"?>
<!DOCTYPE svg PUBLIC "-//W3C//DTD SVG 1.1//EN"
 "http://www.w3.org/Graphics/SVG/1.1/DTD/svg11.dtd">
<!-- Generated by graphviz version 2.36.0 (20140111.2315)
 -->
<!-- Title: src/util/Undistorter.cpp Pages: 1 -->
<svg width="755pt" height="140pt"
 viewBox="0.00 0.00 755.00 140.00" xmlns="http://www.w3.org/2000/svg" xmlns:xlink="http://www.w3.org/1999/xlink">
<g id="graph0" class="graph" transform="scale(1 1) rotate(0) translate(4 136)">
<title>src/util/Undistorter.cpp</title>
<polygon fill="white" stroke="none" points="-4,4 -4,-136 751,-136 751,4 -4,4"/>
<!-- Node1 -->
<g id="node1" class="node"><title>Node1</title>
<polygon fill="#bfbfbf" stroke="black" points="267,-112.5 267,-131.5 383,-131.5 383,-112.5 267,-112.5"/>
<text text-anchor="middle" x="325" y="-119.5" font-family="Helvetica,sans-Serif" font-size="10.00">src/util/Undistorter.cpp</text>
</g>
<!-- Node2 -->
<g id="node2" class="node"><title>Node2</title>
<g id="a_node2"><a xlink:href="../../df/dd0/Undistorter_8h.html" target="_top" xlink:title="Undistorter.h">
<polygon fill="white" stroke="black" points="21.5,-56.5 21.5,-75.5 94.5,-75.5 94.5,-56.5 21.5,-56.5"/>
<text text-anchor="middle" x="58" y="-63.5" font-family="Helvetica,sans-Serif" font-size="10.00">Undistorter.h</text>
</a>
</g>
</g>
<!-- Node1&#45;&gt;Node2 -->
<g id="edge1" class="edge"><title>Node1&#45;&gt;Node2</title>
<path fill="none" stroke="midnightblue" d="M282.693,-112.444C234.132,-102.622 154.734,-86.5641 104.483,-76.401"/>
<polygon fill="midnightblue" stroke="midnightblue" points="105.027,-72.9403 94.5316,-74.3884 103.639,-79.8014 105.027,-72.9403"/>
</g>
<!-- Node4 -->
<g id="node4" class="node"><title>Node4</title>
<polygon fill="white" stroke="#bfbfbf" points="113,-56.5 113,-75.5 165,-75.5 165,-56.5 113,-56.5"/>
<text text-anchor="middle" x="139" y="-63.5" font-family="Helvetica,sans-Serif" font-size="10.00">sstream</text>
</g>
<!-- Node1&#45;&gt;Node4 -->
<g id="edge3" class="edge"><title>Node1&#45;&gt;Node4</title>
<path fill="none" stroke="midnightblue" d="M295.528,-112.444C262.803,-102.943 209.977,-87.6061 174.874,-77.415"/>
<polygon fill="midnightblue" stroke="midnightblue" points="175.612,-73.9849 165.033,-74.558 173.661,-80.7074 175.612,-73.9849"/>
</g>
<!-- Node5 -->
<g id="node5" class="node"><title>Node5</title>
<polygon fill="white" stroke="#bfbfbf" points="183,-56.5 183,-75.5 233,-75.5 233,-56.5 183,-56.5"/>
<text text-anchor="middle" x="208" y="-63.5" font-family="Helvetica,sans-Serif" font-size="10.00">fstream</text>
</g>
<!-- Node1&#45;&gt;Node5 -->
<g id="edge4" class="edge"><title>Node1&#45;&gt;Node5</title>
<path fill="none" stroke="midnightblue" d="M306.461,-112.444C287.377,-103.636 257.425,-89.8116 235.564,-79.722"/>
<polygon fill="midnightblue" stroke="midnightblue" points="236.999,-76.5292 226.452,-75.5164 234.065,-82.8849 236.999,-76.5292"/>
</g>
<!-- Node6 -->
<g id="node6" class="node"><title>Node6</title>
<polygon fill="white" stroke="#bfbfbf" points="251.5,-56.5 251.5,-75.5 398.5,-75.5 398.5,-56.5 251.5,-56.5"/>
<text text-anchor="middle" x="325" y="-63.5" font-family="Helvetica,sans-Serif" font-size="10.00">opencv2/imgproc/imgproc.hpp</text>
</g>
<!-- Node1&#45;&gt;Node6 -->
<g id="edge5" class="edge"><title>Node1&#45;&gt;Node6</title>
<path fill="none" stroke="midnightblue" d="M325,-112.083C325,-105.006 325,-94.8611 325,-85.9865"/>
<polygon fill="midnightblue" stroke="midnightblue" points="328.5,-85.751 325,-75.7511 321.5,-85.7511 328.5,-85.751"/>
</g>
<!-- Node7 -->
<g id="node7" class="node"><title>Node7</title>
<polygon fill="white" stroke="#bfbfbf" points="417,-56.5 417,-75.5 557,-75.5 557,-56.5 417,-56.5"/>
<text text-anchor="middle" x="487" y="-63.5" font-family="Helvetica,sans-Serif" font-size="10.00">opencv2/calib3d/calib3d.hpp</text>
</g>
<!-- Node1&#45;&gt;Node7 -->
<g id="edge6" class="edge"><title>Node1&#45;&gt;Node7</title>
<path fill="none" stroke="midnightblue" d="M350.669,-112.444C377.923,-103.359 421.184,-88.9388 451.651,-78.7831"/>
<polygon fill="midnightblue" stroke="midnightblue" points="453.071,-81.9992 461.451,-75.5164 450.857,-75.3584 453.071,-81.9992"/>
</g>
<!-- Node8 -->
<g id="node8" class="node"><title>Node8</title>
<polygon fill="white" stroke="#bfbfbf" points="575.5,-56.5 575.5,-75.5 640.5,-75.5 640.5,-56.5 575.5,-56.5"/>
<text text-anchor="middle" x="608" y="-63.5" font-family="Helvetica,sans-Serif" font-size="10.00">Eigen/Core</text>
</g>
<!-- Node1&#45;&gt;Node8 -->
<g id="edge7" class="edge"><title>Node1&#45;&gt;Node8</title>
<path fill="none" stroke="midnightblue" d="M372.628,-112.491C419.204,-104.084 492.393,-90.6446 565.6,-76.0365"/>
<polygon fill="midnightblue" stroke="midnightblue" points="566.34,-79.4578 575.458,-74.0622 564.966,-72.5941 566.34,-79.4578"/>
</g>
<!-- Node9 -->
<g id="node9" class="node"><title>Node9</title>
<g id="a_node9"><a xlink:href="../../de/d60/settings_8h.html" target="_top" xlink:title="util/settings.h">
<polygon fill="white" stroke="black" points="658.5,-56.5 658.5,-75.5 733.5,-75.5 733.5,-56.5 658.5,-56.5"/>
<text text-anchor="middle" x="696" y="-63.5" font-family="Helvetica,sans-Serif" font-size="10.00">util/settings.h</text>
</a>
</g>
</g>
<!-- Node1&#45;&gt;Node9 -->
<g id="edge8" class="edge"><title>Node1&#45;&gt;Node9</title>
<path fill="none" stroke="midnightblue" d="M383.078,-113.844C445.929,-105.895 549.336,-92.2249 648.436,-76.0185"/>
<polygon fill="midnightblue" stroke="midnightblue" points="649.022,-79.4693 658.32,-74.3911 647.884,-72.5623 649.022,-79.4693"/>
</g>
<!-- Node3 -->
<g id="node3" class="node"><title>Node3</title>
<polygon fill="white" stroke="#bfbfbf" points="0,-0.5 0,-19.5 116,-19.5 116,-0.5 0,-0.5"/>
<text text-anchor="middle" x="58" y="-7.5" font-family="Helvetica,sans-Serif" font-size="10.00">opencv2/core/core.hpp</text>
</g>
<!-- Node2&#45;&gt;Node3 -->
<g id="edge2" class="edge"><title>Node2&#45;&gt;Node3</title>
<path fill="none" stroke="midnightblue" d="M58,-56.083C58,-49.0059 58,-38.8611 58,-29.9865"/>
<polygon fill="midnightblue" stroke="midnightblue" points="61.5001,-29.751 58,-19.7511 54.5001,-29.7511 61.5001,-29.751"/>
</g>
<!-- Node10 -->
<g id="node10" class="node"><title>Node10</title>
<polygon fill="white" stroke="#bfbfbf" points="639.5,-0.5 639.5,-19.5 688.5,-19.5 688.5,-0.5 639.5,-0.5"/>
<text text-anchor="middle" x="664" y="-7.5" font-family="Helvetica,sans-Serif" font-size="10.00">string.h</text>
</g>
<!-- Node9&#45;&gt;Node10 -->
<g id="edge9" class="edge"><title>Node9&#45;&gt;Node10</title>
<path fill="none" stroke="midnightblue" d="M690.716,-56.083C686.289,-48.6127 679.837,-37.7244 674.382,-28.5199"/>
<polygon fill="midnightblue" stroke="midnightblue" points="677.295,-26.5697 669.186,-19.7511 671.273,-30.1383 677.295,-26.5697"/>
</g>
<!-- Node11 -->
<g id="node11" class="node"><title>Node11</title>
<polygon fill="white" stroke="#bfbfbf" points="706.5,-0.5 706.5,-19.5 747.5,-19.5 747.5,-0.5 706.5,-0.5"/>
<text text-anchor="middle" x="727" y="-7.5" font-family="Helvetica,sans-Serif" font-size="10.00">string</text>
</g>
<!-- Node9&#45;&gt;Node11 -->
<g id="edge10" class="edge"><title>Node9&#45;&gt;Node11</title>
<path fill="none" stroke="midnightblue" d="M701.119,-56.083C705.408,-48.6127 711.658,-37.7244 716.942,-28.5199"/>
<polygon fill="midnightblue" stroke="midnightblue" points="720.033,-30.1662 721.976,-19.7511 713.962,-26.6811 720.033,-30.1662"/>
</g>
</g>
</svg>
