<?xml version="1.0" encoding="UTF-8" standalone="no"?>
<!DOCTYPE svg PUBLIC "-//W3C//DTD SVG 1.1//EN"
 "http://www.w3.org/Graphics/SVG/1.1/DTD/svg11.dtd">
<!-- Generated by graphviz version 2.36.0 (20140111.2315)
 -->
<!-- Title: RosUi::RosUi Pages: 1 -->
<svg width="474pt" height="218pt"
 viewBox="0.00 0.00 474.00 218.00" xmlns="http://www.w3.org/2000/svg" xmlns:xlink="http://www.w3.org/1999/xlink">
<g id="graph0" class="graph" transform="scale(1 1) rotate(0) translate(4 214)">
<title>RosUi::RosUi</title>
<polygon fill="white" stroke="none" points="-4,4 -4,-214 470,-214 470,4 -4,4"/>
<!-- Node1 -->
<g id="node1" class="node"><title>Node1</title>
<polygon fill="#bfbfbf" stroke="black" points="0,-95.5 0,-114.5 78,-114.5 78,-95.5 0,-95.5"/>
<text text-anchor="middle" x="39" y="-102.5" font-family="Helvetica,sans-Serif" font-size="10.00">RosUi::RosUi</text>
</g>
<!-- Node2 -->
<g id="node2" class="node"><title>Node2</title>
<g id="a_node2"><a xlink:href="../../dc/d70/classRosUi.html#a2b2bbe78610f629b56c56172cf44c3c0" target="_top" xlink:title="a service&#45;client for all methods not needing an argument: {reset, quick_save, save_all, save_individual, send_all, delete_frame} ">
<polygon fill="white" stroke="black" points="125.5,-152.5 125.5,-171.5 212.5,-171.5 212.5,-152.5 125.5,-152.5"/>
<text text-anchor="middle" x="169" y="-159.5" font-family="Helvetica,sans-Serif" font-size="10.00">RosUi::services</text>
</a>
</g>
</g>
<!-- Node1&#45;&gt;Node2 -->
<g id="edge1" class="edge"><title>Node1&#45;&gt;Node2</title>
<path fill="none" stroke="midnightblue" d="M57.025,-114.584C71.822,-122.708 93.9683,-134.38 114,-143 118.784,-145.059 123.873,-147.071 128.94,-148.969"/>
<polygon fill="midnightblue" stroke="midnightblue" points="127.98,-152.344 138.574,-152.461 130.366,-145.763 127.98,-152.344"/>
</g>
<!-- Node3 -->
<g id="node3" class="node"><title>Node3</title>
<g id="a_node3"><a xlink:href="../../d3/d3e/classParameterServer.html#a5457f900e543c5a466bf9b65ee6bc577" target="_top" xlink:title="ParameterServer::instance">
<polygon fill="white" stroke="black" points="263.5,-190.5 263.5,-209.5 396.5,-209.5 396.5,-190.5 263.5,-190.5"/>
<text text-anchor="middle" x="330" y="-197.5" font-family="Helvetica,sans-Serif" font-size="10.00">ParameterServer::instance</text>
</a>
</g>
</g>
<!-- Node1&#45;&gt;Node3 -->
<g id="edge8" class="edge"><title>Node1&#45;&gt;Node3</title>
<path fill="none" stroke="midnightblue" d="M45.9173,-114.556C56.9408,-131.395 82.394,-165.988 114,-181 157.086,-201.465 210.483,-206.276 253.284,-205.94"/>
<polygon fill="midnightblue" stroke="midnightblue" points="253.424,-209.438 263.362,-205.766 253.303,-202.439 253.424,-209.438"/>
</g>
<!-- Node6 -->
<g id="node6" class="node"><title>Node6</title>
<g id="a_node6"><a xlink:href="../../dc/d70/classRosUi.html#a7363457ea46a2c1b25667176200860d3" target="_top" xlink:title="a service&#45;client for all methods with bool as argument: {pause, record} ">
<polygon fill="white" stroke="black" points="120,-114.5 120,-133.5 218,-133.5 218,-114.5 120,-114.5"/>
<text text-anchor="middle" x="169" y="-121.5" font-family="Helvetica,sans-Serif" font-size="10.00">RosUi::services_b</text>
</a>
</g>
</g>
<!-- Node1&#45;&gt;Node6 -->
<g id="edge5" class="edge"><title>Node1&#45;&gt;Node6</title>
<path fill="none" stroke="midnightblue" d="M78.0577,-110.649C87.9982,-112.125 98.9438,-113.749 109.675,-115.342"/>
<polygon fill="midnightblue" stroke="midnightblue" points="109.452,-118.848 119.858,-116.854 110.48,-111.923 109.452,-118.848"/>
</g>
<!-- Node7 -->
<g id="node7" class="node"><title>Node7</title>
<g id="a_node7"><a xlink:href="../../dc/d70/classRosUi.html#aeb91dbd4dee24a43e02dfb7b4293c94e" target="_top" xlink:title="a service&#45;client for floats, e.g., for changing the maximal depth of a point: {set_max} ...">
<polygon fill="white" stroke="black" points="121.5,-76.5 121.5,-95.5 216.5,-95.5 216.5,-76.5 121.5,-76.5"/>
<text text-anchor="middle" x="169" y="-83.5" font-family="Helvetica,sans-Serif" font-size="10.00">RosUi::services_f</text>
</a>
</g>
</g>
<!-- Node1&#45;&gt;Node7 -->
<g id="edge6" class="edge"><title>Node1&#45;&gt;Node7</title>
<path fill="none" stroke="midnightblue" d="M78.0577,-99.3508C88.4392,-97.8098 99.917,-96.1061 111.102,-94.4458"/>
<polygon fill="midnightblue" stroke="midnightblue" points="111.874,-97.8697 121.251,-92.9392 110.846,-90.9455 111.874,-97.8697"/>
</g>
<!-- Node8 -->
<g id="node8" class="node"><title>Node8</title>
<g id="a_node8"><a xlink:href="../../dc/d70/classRosUi.html#a8f16e103b441b3704575764a93419062" target="_top" xlink:title="a service&#45;client for commands with string arguments, e.g. a filename ">
<polygon fill="white" stroke="black" points="120,-38.5 120,-57.5 218,-57.5 218,-38.5 120,-38.5"/>
<text text-anchor="middle" x="169" y="-45.5" font-family="Helvetica,sans-Serif" font-size="10.00">RosUi::services_s</text>
</a>
</g>
</g>
<!-- Node1&#45;&gt;Node8 -->
<g id="edge7" class="edge"><title>Node1&#45;&gt;Node8</title>
<path fill="none" stroke="midnightblue" d="M57.025,-95.4163C71.822,-87.2918 93.9683,-75.6199 114,-67 118.784,-64.9413 123.873,-62.9293 128.94,-61.031"/>
<polygon fill="midnightblue" stroke="midnightblue" points="130.366,-64.2372 138.574,-57.5386 127.98,-57.6563 130.366,-64.2372"/>
</g>
<!-- Node9 -->
<g id="node9" class="node"><title>Node9</title>
<g id="a_node9"><a xlink:href="../../d3/d3e/classParameterServer.html#a3c8af50664e423b555bbb1874f488413" target="_top" xlink:title="ParameterServer::get">
<polygon fill="white" stroke="black" points="114,-0.5 114,-19.5 224,-19.5 224,-0.5 114,-0.5"/>
<text text-anchor="middle" x="169" y="-7.5" font-family="Helvetica,sans-Serif" font-size="10.00">ParameterServer::get</text>
</a>
</g>
</g>
<!-- Node1&#45;&gt;Node9 -->
<g id="edge9" class="edge"><title>Node1&#45;&gt;Node9</title>
<path fill="none" stroke="midnightblue" d="M46.905,-95.4536C58.8709,-79.5472 84.9795,-47.541 114,-29 117.114,-27.0102 120.464,-25.1976 123.913,-23.5526"/>
<polygon fill="midnightblue" stroke="midnightblue" points="125.372,-26.7354 133.189,-19.5834 122.618,-20.2999 125.372,-26.7354"/>
</g>
<!-- Node2&#45;&gt;Node3 -->
<g id="edge2" class="edge"><title>Node2&#45;&gt;Node3</title>
<path fill="none" stroke="midnightblue" d="M210.122,-171.589C231.104,-176.604 256.982,-182.788 279.23,-188.105"/>
<polygon fill="midnightblue" stroke="midnightblue" points="278.626,-191.56 289.166,-190.48 280.254,-184.751 278.626,-191.56"/>
</g>
<!-- Node4 -->
<g id="node4" class="node"><title>Node4</title>
<g id="a_node4"><a xlink:href="../../d3/d3e/classParameterServer.html#ab61824dc32f866bdc3a6f4b7d1073b49" target="_top" xlink:title="ParameterServer::getValues">
<polygon fill="white" stroke="black" points="260,-152.5 260,-171.5 400,-171.5 400,-152.5 260,-152.5"/>
<text text-anchor="middle" x="330" y="-159.5" font-family="Helvetica,sans-Serif" font-size="10.00">ParameterServer::getValues</text>
</a>
</g>
</g>
<!-- Node2&#45;&gt;Node4 -->
<g id="edge3" class="edge"><title>Node2&#45;&gt;Node4</title>
<path fill="none" stroke="midnightblue" d="M212.609,-162C224.077,-162 236.862,-162 249.641,-162"/>
<polygon fill="midnightblue" stroke="midnightblue" points="249.864,-165.5 259.864,-162 249.864,-158.5 249.864,-165.5"/>
</g>
<!-- Node5 -->
<g id="node5" class="node"><title>Node5</title>
<g id="a_node5"><a xlink:href="../../db/d82/wglew_8h.html#a500a82aecba06f4550f6849b8099ca21" target="_top" xlink:title="int">
<polygon fill="white" stroke="black" points="436.5,-152.5 436.5,-171.5 465.5,-171.5 465.5,-152.5 436.5,-152.5"/>
<text text-anchor="middle" x="451" y="-159.5" font-family="Helvetica,sans-Serif" font-size="10.00">int</text>
</a>
</g>
</g>
<!-- Node4&#45;&gt;Node5 -->
<g id="edge4" class="edge"><title>Node4&#45;&gt;Node5</title>
<path fill="none" stroke="midnightblue" d="M400.223,-162C409.43,-162 418.317,-162 425.971,-162"/>
<polygon fill="midnightblue" stroke="midnightblue" points="426.197,-165.5 436.197,-162 426.196,-158.5 426.197,-165.5"/>
</g>
</g>
</svg>
