<?xml version="1.0" encoding="UTF-8" standalone="no"?>
<!DOCTYPE svg PUBLIC "-//W3C//DTD SVG 1.1//EN"
 "http://www.w3.org/Graphics/SVG/1.1/DTD/svg11.dtd">
<!-- Generated by graphviz version 2.36.0 (20140111.2315)
 -->
<!-- Title: ANNkd_node Pages: 1 -->
<svg width="346pt" height="304pt"
 viewBox="0.00 0.00 346.00 304.00" xmlns="http://www.w3.org/2000/svg" xmlns:xlink="http://www.w3.org/1999/xlink">
<g id="graph0" class="graph" transform="scale(1 1) rotate(0) translate(4 300)">
<title>ANNkd_node</title>
<polygon fill="white" stroke="none" points="-4,4 -4,-300 342,-300 342,4 -4,4"/>
<!-- Node1 -->
<g id="node1" class="node"><title>Node1</title>
<polygon fill="#bfbfbf" stroke="black" points="118.5,-172.5 118.5,-295.5 219.5,-295.5 219.5,-172.5 118.5,-172.5"/>
<text text-anchor="middle" x="169" y="-283.5" font-family="Helvetica,sans-Serif" font-size="10.00">ANNkd_node</text>
<polyline fill="none" stroke="black" points="118.5,-276.5 219.5,-276.5 "/>
<text text-anchor="middle" x="169" y="-264.5" font-family="Helvetica,sans-Serif" font-size="10.00"> </text>
<polyline fill="none" stroke="black" points="118.5,-257.5 219.5,-257.5 "/>
<text text-anchor="start" x="126.5" y="-245.5" font-family="Helvetica,sans-Serif" font-size="10.00">+ ~ANNkd_node()</text>
<text text-anchor="start" x="126.5" y="-234.5" font-family="Helvetica,sans-Serif" font-size="10.00">+ ann_search()</text>
<text text-anchor="start" x="126.5" y="-223.5" font-family="Helvetica,sans-Serif" font-size="10.00">+ ann_pri_search()</text>
<text text-anchor="start" x="126.5" y="-212.5" font-family="Helvetica,sans-Serif" font-size="10.00">+ ann_FR_search()</text>
<text text-anchor="start" x="126.5" y="-201.5" font-family="Helvetica,sans-Serif" font-size="10.00">+ getStats()</text>
<text text-anchor="start" x="126.5" y="-190.5" font-family="Helvetica,sans-Serif" font-size="10.00">+ print()</text>
<text text-anchor="start" x="126.5" y="-179.5" font-family="Helvetica,sans-Serif" font-size="10.00">+ dump()</text>
</g>
<!-- Node2 -->
<g id="node2" class="node"><title>Node2</title>
<g id="a_node2"><a xlink:href="../../d8/da9/classANNbd__shrink.html" target="_top" xlink:title="{ANNbd_shrink\n||+ ANNbd_shrink()\l+ ~ANNbd_shrink()\l+ getStats()\l+ print()\l+ dump()\l+ ann_search()\l+ ann_pri_search()\l+ ann_FR_search()\l}">
<polygon fill="white" stroke="black" points="-0.5,-1 -0.5,-135 100.5,-135 100.5,-1 -0.5,-1"/>
<text text-anchor="middle" x="50" y="-123" font-family="Helvetica,sans-Serif" font-size="10.00">ANNbd_shrink</text>
<polyline fill="none" stroke="black" points="-0.5,-116 100.5,-116 "/>
<text text-anchor="middle" x="50" y="-104" font-family="Helvetica,sans-Serif" font-size="10.00"> </text>
<polyline fill="none" stroke="black" points="-0.5,-97 100.5,-97 "/>
<text text-anchor="start" x="7.5" y="-85" font-family="Helvetica,sans-Serif" font-size="10.00">+ ANNbd_shrink()</text>
<text text-anchor="start" x="7.5" y="-74" font-family="Helvetica,sans-Serif" font-size="10.00">+ ~ANNbd_shrink()</text>
<text text-anchor="start" x="7.5" y="-63" font-family="Helvetica,sans-Serif" font-size="10.00">+ getStats()</text>
<text text-anchor="start" x="7.5" y="-52" font-family="Helvetica,sans-Serif" font-size="10.00">+ print()</text>
<text text-anchor="start" x="7.5" y="-41" font-family="Helvetica,sans-Serif" font-size="10.00">+ dump()</text>
<text text-anchor="start" x="7.5" y="-30" font-family="Helvetica,sans-Serif" font-size="10.00">+ ann_search()</text>
<text text-anchor="start" x="7.5" y="-19" font-family="Helvetica,sans-Serif" font-size="10.00">+ ann_pri_search()</text>
<text text-anchor="start" x="7.5" y="-8" font-family="Helvetica,sans-Serif" font-size="10.00">+ ann_FR_search()</text>
</a>
</g>
</g>
<!-- Node1&#45;&gt;Node2 -->
<g id="edge1" class="edge"><title>Node1&#45;&gt;Node2</title>
<path fill="none" stroke="midnightblue" d="M118.976,-164.06C112.029,-154.485 104.904,-144.665 97.9939,-135.143"/>
<polygon fill="none" stroke="midnightblue" points="116.321,-166.36 125.027,-172.398 121.987,-162.249 116.321,-166.36"/>
</g>
<!-- Node3 -->
<g id="node3" class="node"><title>Node3</title>
<g id="a_node3"><a xlink:href="../../dd/d04/classANNkd__leaf.html" target="_top" xlink:title="{ANNkd_leaf\n||+ ANNkd_leaf()\l+ ~ANNkd_leaf()\l+ getStats()\l+ print()\l+ dump()\l+ ann_search()\l+ ann_pri_search()\l+ ann_FR_search()\l}">
<polygon fill="white" stroke="black" points="118.5,-1 118.5,-135 219.5,-135 219.5,-1 118.5,-1"/>
<text text-anchor="middle" x="169" y="-123" font-family="Helvetica,sans-Serif" font-size="10.00">ANNkd_leaf</text>
<polyline fill="none" stroke="black" points="118.5,-116 219.5,-116 "/>
<text text-anchor="middle" x="169" y="-104" font-family="Helvetica,sans-Serif" font-size="10.00"> </text>
<polyline fill="none" stroke="black" points="118.5,-97 219.5,-97 "/>
<text text-anchor="start" x="126.5" y="-85" font-family="Helvetica,sans-Serif" font-size="10.00">+ ANNkd_leaf()</text>
<text text-anchor="start" x="126.5" y="-74" font-family="Helvetica,sans-Serif" font-size="10.00">+ ~ANNkd_leaf()</text>
<text text-anchor="start" x="126.5" y="-63" font-family="Helvetica,sans-Serif" font-size="10.00">+ getStats()</text>
<text text-anchor="start" x="126.5" y="-52" font-family="Helvetica,sans-Serif" font-size="10.00">+ print()</text>
<text text-anchor="start" x="126.5" y="-41" font-family="Helvetica,sans-Serif" font-size="10.00">+ dump()</text>
<text text-anchor="start" x="126.5" y="-30" font-family="Helvetica,sans-Serif" font-size="10.00">+ ann_search()</text>
<text text-anchor="start" x="126.5" y="-19" font-family="Helvetica,sans-Serif" font-size="10.00">+ ann_pri_search()</text>
<text text-anchor="start" x="126.5" y="-8" font-family="Helvetica,sans-Serif" font-size="10.00">+ ann_FR_search()</text>
</a>
</g>
</g>
<!-- Node1&#45;&gt;Node3 -->
<g id="edge2" class="edge"><title>Node1&#45;&gt;Node3</title>
<path fill="none" stroke="midnightblue" d="M169,-162.317C169,-153.296 169,-144.088 169,-135.143"/>
<polygon fill="none" stroke="midnightblue" points="165.5,-162.398 169,-172.398 172.5,-162.398 165.5,-162.398"/>
</g>
<!-- Node4 -->
<g id="node4" class="node"><title>Node4</title>
<g id="a_node4"><a xlink:href="../../dc/d0c/classANNkd__split.html" target="_top" xlink:title="{ANNkd_split\n||+ ANNkd_split()\l+ ~ANNkd_split()\l+ getStats()\l+ print()\l+ dump()\l+ ann_search()\l+ ann_pri_search()\l+ ann_FR_search()\l}">
<polygon fill="white" stroke="black" points="237.5,-1 237.5,-135 338.5,-135 338.5,-1 237.5,-1"/>
<text text-anchor="middle" x="288" y="-123" font-family="Helvetica,sans-Serif" font-size="10.00">ANNkd_split</text>
<polyline fill="none" stroke="black" points="237.5,-116 338.5,-116 "/>
<text text-anchor="middle" x="288" y="-104" font-family="Helvetica,sans-Serif" font-size="10.00"> </text>
<polyline fill="none" stroke="black" points="237.5,-97 338.5,-97 "/>
<text text-anchor="start" x="245.5" y="-85" font-family="Helvetica,sans-Serif" font-size="10.00">+ ANNkd_split()</text>
<text text-anchor="start" x="245.5" y="-74" font-family="Helvetica,sans-Serif" font-size="10.00">+ ~ANNkd_split()</text>
<text text-anchor="start" x="245.5" y="-63" font-family="Helvetica,sans-Serif" font-size="10.00">+ getStats()</text>
<text text-anchor="start" x="245.5" y="-52" font-family="Helvetica,sans-Serif" font-size="10.00">+ print()</text>
<text text-anchor="start" x="245.5" y="-41" font-family="Helvetica,sans-Serif" font-size="10.00">+ dump()</text>
<text text-anchor="start" x="245.5" y="-30" font-family="Helvetica,sans-Serif" font-size="10.00">+ ann_search()</text>
<text text-anchor="start" x="245.5" y="-19" font-family="Helvetica,sans-Serif" font-size="10.00">+ ann_pri_search()</text>
<text text-anchor="start" x="245.5" y="-8" font-family="Helvetica,sans-Serif" font-size="10.00">+ ann_FR_search()</text>
</a>
</g>
</g>
<!-- Node1&#45;&gt;Node4 -->
<g id="edge3" class="edge"><title>Node1&#45;&gt;Node4</title>
<path fill="none" stroke="midnightblue" d="M219.024,-164.06C225.971,-154.485 233.096,-144.665 240.006,-135.143"/>
<polygon fill="none" stroke="midnightblue" points="216.013,-162.249 212.973,-172.398 221.679,-166.36 216.013,-162.249"/>
</g>
</g>
</svg>
