<?xml version="1.0" encoding="UTF-8" standalone="no"?>
<!DOCTYPE svg PUBLIC "-//W3C//DTD SVG 1.1//EN"
 "http://www.w3.org/Graphics/SVG/1.1/DTD/svg11.dtd">
<!-- Generated by graphviz version 2.36.0 (20140111.2315)
 -->
<!-- Title: src/misc.h Pages: 1 -->
<svg width="881pt" height="84pt"
 viewBox="0.00 0.00 881.00 84.00" xmlns="http://www.w3.org/2000/svg" xmlns:xlink="http://www.w3.org/1999/xlink">
<g id="graph0" class="graph" transform="scale(1 1) rotate(0) translate(4 80)">
<title>src/misc.h</title>
<polygon fill="white" stroke="none" points="-4,4 -4,-80 877,-80 877,4 -4,4"/>
<!-- Node1 -->
<g id="node1" class="node"><title>Node1</title>
<polygon fill="#bfbfbf" stroke="black" points="416,-56.5 416,-75.5 478,-75.5 478,-56.5 416,-56.5"/>
<text text-anchor="middle" x="447" y="-63.5" font-family="Helvetica,sans-Serif" font-size="10.00">src/misc.h</text>
</g>
<!-- Node2 -->
<g id="node2" class="node"><title>Node2</title>
<g id="a_node2"><a xlink:href="../../d4/dd4/bagloader_8cpp.html" target="_top" xlink:title="src/bagloader.cpp">
<polygon fill="white" stroke="black" points="0,-0.5 0,-19.5 94,-19.5 94,-0.5 0,-0.5"/>
<text text-anchor="middle" x="47" y="-7.5" font-family="Helvetica,sans-Serif" font-size="10.00">src/bagloader.cpp</text>
</a>
</g>
</g>
<!-- Node1&#45;&gt;Node2 -->
<g id="edge1" class="edge"><title>Node1&#45;&gt;Node2</title>
<path fill="none" stroke="midnightblue" d="M405.455,-59.9638C340.739,-52.0289 211.965,-35.8797 103,-20 100.077,-19.574 97.0697,-19.1242 94.0384,-18.6621"/>
<polygon fill="midnightblue" stroke="midnightblue" points="405.302,-63.4711 415.653,-61.2112 406.152,-56.5229 405.302,-63.4711"/>
</g>
<!-- Node3 -->
<g id="node3" class="node"><title>Node3</title>
<g id="a_node3"><a xlink:href="../../d4/d1a/graph__manager_8cpp.html" target="_top" xlink:title="src/graph_manager.cpp">
<polygon fill="white" stroke="black" points="112.5,-0.5 112.5,-19.5 231.5,-19.5 231.5,-0.5 112.5,-0.5"/>
<text text-anchor="middle" x="172" y="-7.5" font-family="Helvetica,sans-Serif" font-size="10.00">src/graph_manager.cpp</text>
</a>
</g>
</g>
<!-- Node1&#45;&gt;Node3 -->
<g id="edge2" class="edge"><title>Node1&#45;&gt;Node3</title>
<path fill="none" stroke="midnightblue" d="M405.953,-56.9398C354.812,-46.8977 267.808,-29.8132 215.535,-19.5488"/>
<polygon fill="midnightblue" stroke="midnightblue" points="405.502,-60.418 415.989,-58.9105 406.85,-53.5492 405.502,-60.418"/>
</g>
<!-- Node4 -->
<g id="node4" class="node"><title>Node4</title>
<g id="a_node4"><a xlink:href="../../de/d74/graph__manager2_8cpp.html" target="_top" xlink:title="src/graph_manager2.cpp">
<polygon fill="white" stroke="black" points="250,-0.5 250,-19.5 374,-19.5 374,-0.5 250,-0.5"/>
<text text-anchor="middle" x="312" y="-7.5" font-family="Helvetica,sans-Serif" font-size="10.00">src/graph_manager2.cpp</text>
</a>
</g>
</g>
<!-- Node1&#45;&gt;Node4 -->
<g id="edge3" class="edge"><title>Node1&#45;&gt;Node4</title>
<path fill="none" stroke="midnightblue" d="M416.094,-52.6377C390.76,-42.504 355.569,-28.4274 333.291,-19.5164"/>
<polygon fill="midnightblue" stroke="midnightblue" points="415.024,-55.9792 425.609,-56.4435 417.624,-49.4799 415.024,-55.9792"/>
</g>
<!-- Node5 -->
<g id="node5" class="node"><title>Node5</title>
<g id="a_node5"><a xlink:href="../../de/da7/graph__mgr__io_8cpp.html" target="_top" xlink:title="src/graph_mgr_io.cpp">
<polygon fill="white" stroke="black" points="392,-0.5 392,-19.5 502,-19.5 502,-0.5 392,-0.5"/>
<text text-anchor="middle" x="447" y="-7.5" font-family="Helvetica,sans-Serif" font-size="10.00">src/graph_mgr_io.cpp</text>
</a>
</g>
</g>
<!-- Node1&#45;&gt;Node5 -->
<g id="edge4" class="edge"><title>Node1&#45;&gt;Node5</title>
<path fill="none" stroke="midnightblue" d="M447,-45.8045C447,-36.9102 447,-26.7798 447,-19.7511"/>
<polygon fill="midnightblue" stroke="midnightblue" points="443.5,-46.083 447,-56.083 450.5,-46.083 443.5,-46.083"/>
</g>
<!-- Node6 -->
<g id="node6" class="node"><title>Node6</title>
<g id="a_node6"><a xlink:href="../../db/d8d/graph__mgr__odom_8cpp.html" target="_top" xlink:title="src/graph_mgr_odom.cpp">
<polygon fill="white" stroke="black" points="520.5,-0.5 520.5,-19.5 647.5,-19.5 647.5,-0.5 520.5,-0.5"/>
<text text-anchor="middle" x="584" y="-7.5" font-family="Helvetica,sans-Serif" font-size="10.00">src/graph_mgr_odom.cpp</text>
</a>
</g>
</g>
<!-- Node1&#45;&gt;Node6 -->
<g id="edge5" class="edge"><title>Node1&#45;&gt;Node6</title>
<path fill="none" stroke="midnightblue" d="M478.023,-52.772C503.757,-42.6287 539.686,-28.4669 562.394,-19.5164"/>
<polygon fill="midnightblue" stroke="midnightblue" points="476.728,-49.5203 468.708,-56.4435 479.295,-56.0326 476.728,-49.5203"/>
</g>
<!-- Node7 -->
<g id="node7" class="node"><title>Node7</title>
<g id="a_node7"><a xlink:href="../../d7/d70/node_8cpp.html" target="_top" xlink:title="src/node.cpp">
<polygon fill="white" stroke="black" points="665.5,-0.5 665.5,-19.5 738.5,-19.5 738.5,-0.5 665.5,-0.5"/>
<text text-anchor="middle" x="702" y="-7.5" font-family="Helvetica,sans-Serif" font-size="10.00">src/node.cpp</text>
</a>
</g>
</g>
<!-- Node1&#45;&gt;Node7 -->
<g id="edge6" class="edge"><title>Node1&#45;&gt;Node7</title>
<path fill="none" stroke="midnightblue" d="M487.966,-56.3249C537.022,-45.9366 618.44,-28.6951 665.45,-18.74"/>
<polygon fill="midnightblue" stroke="midnightblue" points="487.071,-52.9367 478.013,-58.4325 488.521,-59.7848 487.071,-52.9367"/>
</g>
<!-- Node8 -->
<g id="node8" class="node"><title>Node8</title>
<g id="a_node8"><a xlink:href="../../db/d34/openni__listener_8cpp.html" target="_top" xlink:title="src/openni_listener.cpp">
<polygon fill="white" stroke="black" points="756.5,-0.5 756.5,-19.5 873.5,-19.5 873.5,-0.5 756.5,-0.5"/>
<text text-anchor="middle" x="815" y="-7.5" font-family="Helvetica,sans-Serif" font-size="10.00">src/openni_listener.cpp</text>
</a>
</g>
</g>
<!-- Node1&#45;&gt;Node8 -->
<g id="edge7" class="edge"><title>Node1&#45;&gt;Node8</title>
<path fill="none" stroke="midnightblue" d="M488.02,-58.9808C553.572,-49.3617 682.165,-30.4921 757.069,-19.5007"/>
<polygon fill="midnightblue" stroke="midnightblue" points="487.444,-55.5277 478.058,-60.4425 488.461,-62.4535 487.444,-55.5277"/>
</g>
</g>
</svg>
