<?xml version="1.0" encoding="UTF-8" standalone="no"?>
<!DOCTYPE svg PUBLIC "-//W3C//DTD SVG 1.1//EN"
 "http://www.w3.org/Graphics/SVG/1.1/DTD/svg11.dtd">
<!-- Generated by graphviz version 2.36.0 (20140111.2315)
 -->
<!-- Title: src/util/SophusUtil.h Pages: 1 -->
<svg width="2563pt" height="300pt"
 viewBox="0.00 0.00 2563.00 300.00" xmlns="http://www.w3.org/2000/svg" xmlns:xlink="http://www.w3.org/1999/xlink">
<g id="graph0" class="graph" transform="scale(1 1) rotate(0) translate(4 296)">
<title>src/util/SophusUtil.h</title>
<polygon fill="white" stroke="none" points="-4,4 -4,-296 2559,-296 2559,4 -4,4"/>
<!-- Node1 -->
<g id="node1" class="node"><title>Node1</title>
<polygon fill="#bfbfbf" stroke="black" points="1572.5,-272.5 1572.5,-291.5 1677.5,-291.5 1677.5,-272.5 1572.5,-272.5"/>
<text text-anchor="middle" x="1625" y="-279.5" font-family="Helvetica,sans-Serif" font-size="10.00">src/util/SophusUtil.h</text>
</g>
<!-- Node2 -->
<g id="node2" class="node"><title>Node2</title>
<g id="a_node2"><a xlink:href="../../d7/db3/Frame_8h.html" target="_top" xlink:title="src/DataStructures\l/Frame.h">
<polygon fill="white" stroke="black" points="931.5,-69 931.5,-99 1030.5,-99 1030.5,-69 931.5,-69"/>
<text text-anchor="start" x="939.5" y="-87" font-family="Helvetica,sans-Serif" font-size="10.00">src/DataStructures</text>
<text text-anchor="middle" x="981" y="-76" font-family="Helvetica,sans-Serif" font-size="10.00">/Frame.h</text>
</a>
</g>
</g>
<!-- Node1&#45;&gt;Node2 -->
<g id="edge1" class="edge"><title>Node1&#45;&gt;Node2</title>
<path fill="none" stroke="midnightblue" d="M1565.2,-270.589C1522,-262.546 1462.45,-250.378 1411,-236 1261.45,-194.211 1088.49,-127.754 1015.9,-99.008"/>
<polygon fill="midnightblue" stroke="midnightblue" points="1564.79,-274.073 1575.26,-272.443 1566.06,-267.189 1564.79,-274.073"/>
</g>
<!-- Node10 -->
<g id="node10" class="node"><title>Node10</title>
<g id="a_node10"><a xlink:href="../../d5/d46/ROSOutput3DWrapper_8cpp.html" target="_top" xlink:title="src/IOWrapper/ROS/ROSOutput3\lDWrapper.cpp">
<polygon fill="white" stroke="black" points="271,-1 271,-31 435,-31 435,-1 271,-1"/>
<text text-anchor="start" x="279" y="-19" font-family="Helvetica,sans-Serif" font-size="10.00">src/IOWrapper/ROS/ROSOutput3</text>
<text text-anchor="middle" x="353" y="-8" font-family="Helvetica,sans-Serif" font-size="10.00">DWrapper.cpp</text>
</a>
</g>
</g>
<!-- Node1&#45;&gt;Node10 -->
<g id="edge46" class="edge"><title>Node1&#45;&gt;Node10</title>
<path fill="none" stroke="midnightblue" d="M1562.13,-281.372C1381.56,-281.9 863.978,-279.468 701,-236 555.121,-197.092 412.753,-72.9928 367.666,-31.0245"/>
<polygon fill="midnightblue" stroke="midnightblue" points="1562.27,-284.872 1572.26,-281.339 1562.24,-277.872 1562.27,-284.872"/>
</g>
<!-- Node16 -->
<g id="node16" class="node"><title>Node16</title>
<g id="a_node16"><a xlink:href="../../de/dc8/globalFuncs_8cpp.html" target="_top" xlink:title="src/util/globalFuncs.cpp">
<polygon fill="white" stroke="black" points="133,-6.5 133,-25.5 253,-25.5 253,-6.5 133,-6.5"/>
<text text-anchor="middle" x="193" y="-13.5" font-family="Helvetica,sans-Serif" font-size="10.00">src/util/globalFuncs.cpp</text>
</a>
</g>
</g>
<!-- Node1&#45;&gt;Node16 -->
<g id="edge80" class="edge"><title>Node1&#45;&gt;Node16</title>
<path fill="none" stroke="midnightblue" d="M1562.29,-279.772C1356.08,-275.517 707,-260.32 616,-236 439.438,-188.813 252.479,-59.8866 204.657,-25.5153"/>
<polygon fill="midnightblue" stroke="midnightblue" points="1562.28,-283.272 1572.35,-279.978 1562.42,-276.274 1562.28,-283.272"/>
</g>
<!-- Node17 -->
<g id="node17" class="node"><title>Node17</title>
<g id="a_node17"><a xlink:href="../../db/d75/FramePoseStruct_8h.html" target="_top" xlink:title="src/DataStructures\l/FramePoseStruct.h">
<polygon fill="white" stroke="black" points="577,-137 577,-167 681,-167 681,-137 577,-137"/>
<text text-anchor="start" x="585" y="-155" font-family="Helvetica,sans-Serif" font-size="10.00">src/DataStructures</text>
<text text-anchor="middle" x="629" y="-144" font-family="Helvetica,sans-Serif" font-size="10.00">/FramePoseStruct.h</text>
</a>
</g>
</g>
<!-- Node1&#45;&gt;Node17 -->
<g id="edge16" class="edge"><title>Node1&#45;&gt;Node17</title>
<path fill="none" stroke="midnightblue" d="M1562.2,-281.376C1391.74,-281.808 923.381,-278.936 776,-236 725.633,-221.327 673.832,-186.594 647.227,-167.027"/>
<polygon fill="midnightblue" stroke="midnightblue" points="1562.27,-284.875 1572.26,-281.345 1562.25,-277.875 1562.27,-284.875"/>
</g>
<!-- Node18 -->
<g id="node18" class="node"><title>Node18</title>
<g id="a_node18"><a xlink:href="../../de/dbe/DepthMap_8h.html" target="_top" xlink:title="src/DepthEstimation\l/DepthMap.h">
<polygon fill="white" stroke="black" points="1655,-69 1655,-99 1761,-99 1761,-69 1655,-69"/>
<text text-anchor="start" x="1663" y="-87" font-family="Helvetica,sans-Serif" font-size="10.00">src/DepthEstimation</text>
<text text-anchor="middle" x="1708" y="-76" font-family="Helvetica,sans-Serif" font-size="10.00">/DepthMap.h</text>
</a>
</g>
</g>
<!-- Node1&#45;&gt;Node18 -->
<g id="edge19" class="edge"><title>Node1&#45;&gt;Node18</title>
<path fill="none" stroke="midnightblue" d="M1633.08,-263.065C1636.76,-254.837 1641.15,-244.944 1645,-236 1666.58,-185.911 1691.23,-126.018 1702.2,-99.2021"/>
<polygon fill="midnightblue" stroke="midnightblue" points="1629.8,-261.843 1628.89,-272.399 1636.18,-264.71 1629.8,-261.843"/>
</g>
<!-- Node19 -->
<g id="node19" class="node"><title>Node19</title>
<g id="a_node19"><a xlink:href="../../d0/dca/g2oTypeSim3Sophus_8h.html" target="_top" xlink:title="src/GlobalMapping/g2oType\lSim3Sophus.h">
<polygon fill="white" stroke="black" points="785,-205 785,-235 923,-235 923,-205 785,-205"/>
<text text-anchor="start" x="793" y="-223" font-family="Helvetica,sans-Serif" font-size="10.00">src/GlobalMapping/g2oType</text>
<text text-anchor="middle" x="854" y="-212" font-family="Helvetica,sans-Serif" font-size="10.00">Sim3Sophus.h</text>
</a>
</g>
</g>
<!-- Node1&#45;&gt;Node19 -->
<g id="edge22" class="edge"><title>Node1&#45;&gt;Node19</title>
<path fill="none" stroke="midnightblue" d="M1561.98,-276.095C1419.13,-264.979 1071.65,-237.938 923.15,-226.381"/>
<polygon fill="midnightblue" stroke="midnightblue" points="1562.07,-279.613 1572.31,-276.9 1562.61,-272.634 1562.07,-279.613"/>
</g>
<!-- Node21 -->
<g id="node21" class="node"><title>Node21</title>
<g id="a_node21"><a xlink:href="../../dc/d3b/KeyFrameGraph_8h.html" target="_top" xlink:title="src/GlobalMapping/KeyFrame\lGraph.h">
<polygon fill="white" stroke="black" points="1049,-69 1049,-99 1195,-99 1195,-69 1049,-69"/>
<text text-anchor="start" x="1057" y="-87" font-family="Helvetica,sans-Serif" font-size="10.00">src/GlobalMapping/KeyFrame</text>
<text text-anchor="middle" x="1122" y="-76" font-family="Helvetica,sans-Serif" font-size="10.00">Graph.h</text>
</a>
</g>
</g>
<!-- Node1&#45;&gt;Node21 -->
<g id="edge28" class="edge"><title>Node1&#45;&gt;Node21</title>
<path fill="none" stroke="midnightblue" d="M1589.44,-269.241C1563.21,-260.434 1526.72,-247.903 1495,-236 1368.27,-188.45 1219.71,-126.382 1154.96,-99.0084"/>
<polygon fill="midnightblue" stroke="midnightblue" points="1588.37,-272.572 1598.96,-272.425 1590.59,-265.934 1588.37,-272.572"/>
</g>
<!-- Node22 -->
<g id="node22" class="node"><title>Node22</title>
<g id="a_node22"><a xlink:href="../../d6/d60/TrackableKeyFrameSearch_8h.html" target="_top" xlink:title="src/GlobalMapping/Trackable\lKeyFrameSearch.h">
<polygon fill="white" stroke="black" points="1213.5,-69 1213.5,-99 1356.5,-99 1356.5,-69 1213.5,-69"/>
<text text-anchor="start" x="1221.5" y="-87" font-family="Helvetica,sans-Serif" font-size="10.00">src/GlobalMapping/Trackable</text>
<text text-anchor="middle" x="1285" y="-76" font-family="Helvetica,sans-Serif" font-size="10.00">KeyFrameSearch.h</text>
</a>
</g>
</g>
<!-- Node1&#45;&gt;Node22 -->
<g id="edge36" class="edge"><title>Node1&#45;&gt;Node22</title>
<path fill="none" stroke="midnightblue" d="M1601.24,-267.301C1539.08,-231.468 1372.16,-135.245 1309.35,-99.0368"/>
<polygon fill="midnightblue" stroke="midnightblue" points="1599.54,-270.363 1609.95,-272.325 1603.04,-264.299 1599.54,-270.363"/>
</g>
<!-- Node23 -->
<g id="node23" class="node"><title>Node23</title>
<g id="a_node23"><a xlink:href="../../d8/da7/Output3DWrapper_8h.html" target="_top" xlink:title="src/IOWrapper/Output3DWrapper.h">
<polygon fill="white" stroke="black" points="1972,-142.5 1972,-161.5 2142,-161.5 2142,-142.5 1972,-142.5"/>
<text text-anchor="middle" x="2057" y="-149.5" font-family="Helvetica,sans-Serif" font-size="10.00">src/IOWrapper/Output3DWrapper.h</text>
</a>
</g>
</g>
<!-- Node1&#45;&gt;Node23 -->
<g id="edge39" class="edge"><title>Node1&#45;&gt;Node23</title>
<path fill="none" stroke="midnightblue" d="M1663.85,-269.488C1749.44,-244.128 1952.63,-183.925 2028.11,-161.56"/>
<polygon fill="midnightblue" stroke="midnightblue" points="1662.61,-266.206 1654.02,-272.403 1664.6,-272.918 1662.61,-266.206"/>
</g>
<!-- Node27 -->
<g id="node27" class="node"><title>Node27</title>
<g id="a_node27"><a xlink:href="../../df/d7b/LiveSLAMWrapper_8cpp.html" target="_top" xlink:title="src/LiveSLAMWrapper.cpp">
<polygon fill="white" stroke="black" points="2421,-6.5 2421,-25.5 2555,-25.5 2555,-6.5 2421,-6.5"/>
<text text-anchor="middle" x="2488" y="-13.5" font-family="Helvetica,sans-Serif" font-size="10.00">src/LiveSLAMWrapper.cpp</text>
</a>
</g>
</g>
<!-- Node1&#45;&gt;Node27 -->
<g id="edge52" class="edge"><title>Node1&#45;&gt;Node27</title>
<path fill="none" stroke="midnightblue" d="M1687.72,-278.618C1773.95,-274.438 1933.6,-263.444 2067,-236 2264.58,-195.353 2380.64,-262.605 2500,-100 2516.54,-77.4655 2501.52,-42.0452 2492.98,-25.7435"/>
<polygon fill="midnightblue" stroke="midnightblue" points="1687.4,-275.129 1677.57,-279.095 1687.73,-282.121 1687.4,-275.129"/>
</g>
<!-- Node28 -->
<g id="node28" class="node"><title>Node28</title>
<g id="a_node28"><a xlink:href="../../d8/d7d/LiveSLAMWrapper_8h.html" target="_top" xlink:title="src/LiveSLAMWrapper.h">
<polygon fill="white" stroke="black" points="2347.5,-74.5 2347.5,-93.5 2470.5,-93.5 2470.5,-74.5 2347.5,-74.5"/>
<text text-anchor="middle" x="2409" y="-81.5" font-family="Helvetica,sans-Serif" font-size="10.00">src/LiveSLAMWrapper.h</text>
</a>
</g>
</g>
<!-- Node1&#45;&gt;Node28 -->
<g id="edge47" class="edge"><title>Node1&#45;&gt;Node28</title>
<path fill="none" stroke="midnightblue" d="M1687.88,-277.672C1763.14,-272.729 1892.59,-261.17 2001,-236 2090,-215.338 2109.29,-199.634 2195,-168 2265.84,-141.854 2349.07,-108.937 2387.52,-93.5994"/>
<polygon fill="midnightblue" stroke="midnightblue" points="1687.38,-274.196 1677.63,-278.326 1687.83,-281.182 1687.38,-274.196"/>
</g>
<!-- Node29 -->
<g id="node29" class="node"><title>Node29</title>
<g id="a_node29"><a xlink:href="../../d8/de4/SlamSystem_8h.html" target="_top" xlink:title="src/SlamSystem.h">
<polygon fill="white" stroke="black" points="2231,-74.5 2231,-93.5 2329,-93.5 2329,-74.5 2231,-74.5"/>
<text text-anchor="middle" x="2280" y="-81.5" font-family="Helvetica,sans-Serif" font-size="10.00">src/SlamSystem.h</text>
</a>
</g>
</g>
<!-- Node1&#45;&gt;Node29 -->
<g id="edge53" class="edge"><title>Node1&#45;&gt;Node29</title>
<path fill="none" stroke="midnightblue" d="M1687.68,-275.009C1788.57,-263.743 1991.77,-234.292 2151,-168 2198.7,-148.142 2248.18,-110.716 2269.36,-93.7527"/>
<polygon fill="midnightblue" stroke="midnightblue" points="1687.22,-271.539 1677.66,-276.106 1687.98,-278.498 1687.22,-271.539"/>
</g>
<!-- Node30 -->
<g id="node30" class="node"><title>Node30</title>
<g id="a_node30"><a xlink:href="../../df/d5d/Relocalizer_8h.html" target="_top" xlink:title="src/Tracking/Relocalizer.h">
<polygon fill="white" stroke="black" points="1748.5,-142.5 1748.5,-161.5 1879.5,-161.5 1879.5,-142.5 1748.5,-142.5"/>
<text text-anchor="middle" x="1814" y="-149.5" font-family="Helvetica,sans-Serif" font-size="10.00">src/Tracking/Relocalizer.h</text>
</a>
</g>
</g>
<!-- Node1&#45;&gt;Node30 -->
<g id="edge58" class="edge"><title>Node1&#45;&gt;Node30</title>
<path fill="none" stroke="midnightblue" d="M1664.41,-269.156C1686.05,-261.598 1712.72,-250.486 1734,-236 1765.76,-214.377 1794.88,-178.501 1807.46,-161.914"/>
<polygon fill="midnightblue" stroke="midnightblue" points="1663.22,-265.864 1654.87,-272.378 1665.46,-272.497 1663.22,-265.864"/>
</g>
<!-- Node31 -->
<g id="node31" class="node"><title>Node31</title>
<g id="a_node31"><a xlink:href="../../d7/dd7/globalFuncs_8h.html" target="_top" xlink:title="src/util/globalFuncs.h">
<polygon fill="white" stroke="black" points="1527,-74.5 1527,-93.5 1637,-93.5 1637,-74.5 1527,-74.5"/>
<text text-anchor="middle" x="1582" y="-81.5" font-family="Helvetica,sans-Serif" font-size="10.00">src/util/globalFuncs.h</text>
</a>
</g>
</g>
<!-- Node1&#45;&gt;Node31 -->
<g id="edge61" class="edge"><title>Node1&#45;&gt;Node31</title>
<path fill="none" stroke="midnightblue" d="M1627.85,-262.059C1631.34,-233.725 1635.1,-179.034 1620,-136 1614.08,-119.121 1600.43,-103.181 1591.21,-93.7516"/>
<polygon fill="midnightblue" stroke="midnightblue" points="1624.35,-261.789 1626.47,-272.17 1631.29,-262.735 1624.35,-261.789"/>
</g>
<!-- Node32 -->
<g id="node32" class="node"><title>Node32</title>
<g id="a_node32"><a xlink:href="../../d6/de5/SE3Tracker_8h.html" target="_top" xlink:title="src/Tracking/SE3Tracker.h">
<polygon fill="white" stroke="black" points="1375,-74.5 1375,-93.5 1509,-93.5 1509,-74.5 1375,-74.5"/>
<text text-anchor="middle" x="1442" y="-81.5" font-family="Helvetica,sans-Serif" font-size="10.00">src/Tracking/SE3Tracker.h</text>
</a>
</g>
</g>
<!-- Node1&#45;&gt;Node32 -->
<g id="edge72" class="edge"><title>Node1&#45;&gt;Node32</title>
<path fill="none" stroke="midnightblue" d="M1609.9,-264.829C1572.8,-225.093 1478.14,-123.712 1450.01,-93.5746"/>
<polygon fill="midnightblue" stroke="midnightblue" points="1607.52,-267.404 1616.9,-272.325 1612.63,-262.627 1607.52,-267.404"/>
</g>
<!-- Node33 -->
<g id="node33" class="node"><title>Node33</title>
<g id="a_node33"><a xlink:href="../../dd/dc0/Sim3Tracker_8h.html" target="_top" xlink:title="src/Tracking/Sim3Tracker.h">
<polygon fill="white" stroke="black" points="1817.5,-74.5 1817.5,-93.5 1954.5,-93.5 1954.5,-74.5 1817.5,-74.5"/>
<text text-anchor="middle" x="1886" y="-81.5" font-family="Helvetica,sans-Serif" font-size="10.00">src/Tracking/Sim3Tracker.h</text>
</a>
</g>
</g>
<!-- Node1&#45;&gt;Node33 -->
<g id="edge77" class="edge"><title>Node1&#45;&gt;Node33</title>
<path fill="none" stroke="midnightblue" d="M1640.38,-264.972C1648.27,-256.544 1657.89,-245.926 1666,-236 1700.8,-193.377 1694.77,-168.733 1739,-136 1768.75,-113.986 1808.76,-100.928 1839.52,-93.5445"/>
<polygon fill="midnightblue" stroke="midnightblue" points="1637.79,-262.619 1633.46,-272.288 1642.88,-267.43 1637.79,-262.619"/>
</g>
<!-- Node3 -->
<g id="node3" class="node"><title>Node3</title>
<g id="a_node3"><a xlink:href="../../d5/de0/Frame_8cpp.html" target="_top" xlink:title="src/DataStructures\l/Frame.cpp">
<polygon fill="white" stroke="black" points="572.5,-1 572.5,-31 671.5,-31 671.5,-1 572.5,-1"/>
<text text-anchor="start" x="580.5" y="-19" font-family="Helvetica,sans-Serif" font-size="10.00">src/DataStructures</text>
<text text-anchor="middle" x="622" y="-8" font-family="Helvetica,sans-Serif" font-size="10.00">/Frame.cpp</text>
</a>
</g>
</g>
<!-- Node2&#45;&gt;Node3 -->
<g id="edge2" class="edge"><title>Node2&#45;&gt;Node3</title>
<path fill="none" stroke="midnightblue" d="M921.281,-74.417C860.342,-65.2993 763.174,-49.7677 680,-32 677.254,-31.4133 674.442,-30.7836 671.608,-30.1263"/>
<polygon fill="midnightblue" stroke="midnightblue" points="921.078,-77.9251 931.484,-75.9342 922.108,-71.0013 921.078,-77.9251"/>
</g>
<!-- Node4 -->
<g id="node4" class="node"><title>Node4</title>
<g id="a_node4"><a xlink:href="../../d6/d4d/FrameMemory_8cpp.html" target="_top" xlink:title="src/DataStructures\l/FrameMemory.cpp">
<polygon fill="white" stroke="black" points="453.5,-1 453.5,-31 554.5,-31 554.5,-1 453.5,-1"/>
<text text-anchor="start" x="461.5" y="-19" font-family="Helvetica,sans-Serif" font-size="10.00">src/DataStructures</text>
<text text-anchor="middle" x="504" y="-8" font-family="Helvetica,sans-Serif" font-size="10.00">/FrameMemory.cpp</text>
</a>
</g>
</g>
<!-- Node2&#45;&gt;Node4 -->
<g id="edge3" class="edge"><title>Node2&#45;&gt;Node4</title>
<path fill="none" stroke="midnightblue" d="M921.399,-78.1385C839.978,-70.9498 689.623,-55.7205 563,-32 560.299,-31.494 557.538,-30.9361 554.757,-30.342"/>
<polygon fill="midnightblue" stroke="midnightblue" points="921.195,-81.6338 931.461,-79.0168 921.803,-74.6604 921.195,-81.6338"/>
</g>
<!-- Node5 -->
<g id="node5" class="node"><title>Node5</title>
<g id="a_node5"><a xlink:href="../../d1/d10/FramePoseStruct_8cpp.html" target="_top" xlink:title="src/DataStructures\l/FramePoseStruct.cpp">
<polygon fill="white" stroke="black" points="-0.5,-1 -0.5,-31 114.5,-31 114.5,-1 -0.5,-1"/>
<text text-anchor="start" x="7.5" y="-19" font-family="Helvetica,sans-Serif" font-size="10.00">src/DataStructures</text>
<text text-anchor="middle" x="57" y="-8" font-family="Helvetica,sans-Serif" font-size="10.00">/FramePoseStruct.cpp</text>
</a>
</g>
</g>
<!-- Node2&#45;&gt;Node5 -->
<g id="edge4" class="edge"><title>Node2&#45;&gt;Node5</title>
<path fill="none" stroke="midnightblue" d="M921.133,-80.6929C752.946,-74.0116 278.415,-53.7359 124,-32 120.931,-31.568 117.794,-31.069 114.635,-30.5212"/>
<polygon fill="midnightblue" stroke="midnightblue" points="921.158,-84.1965 931.288,-81.0946 921.434,-77.202 921.158,-84.1965"/>
</g>
<!-- Node6 -->
<g id="node6" class="node"><title>Node6</title>
<g id="a_node6"><a xlink:href="../../d8/d5e/DepthMap_8cpp.html" target="_top" xlink:title="src/DepthEstimation\l/DepthMap.cpp">
<polygon fill="white" stroke="black" points="1544,-1 1544,-31 1650,-31 1650,-1 1544,-1"/>
<text text-anchor="start" x="1552" y="-19" font-family="Helvetica,sans-Serif" font-size="10.00">src/DepthEstimation</text>
<text text-anchor="middle" x="1597" y="-8" font-family="Helvetica,sans-Serif" font-size="10.00">/DepthMap.cpp</text>
</a>
</g>
</g>
<!-- Node2&#45;&gt;Node6 -->
<g id="edge5" class="edge"><title>Node2&#45;&gt;Node6</title>
<path fill="none" stroke="midnightblue" d="M1040.96,-68.0588C1259.57,-33.6819 1320.36,-65.535 1535,-32 1537.84,-31.5555 1540.75,-31.0466 1543.68,-30.4909"/>
<polygon fill="midnightblue" stroke="midnightblue" points="1040.08,-64.6538 1030.76,-69.6913 1041.19,-71.5657 1040.08,-64.6538"/>
</g>
<!-- Node7 -->
<g id="node7" class="node"><title>Node7</title>
<g id="a_node7"><a xlink:href="../../d5/dd0/DepthMapPixelHypothesis_8cpp.html" target="_top" xlink:title="src/DepthEstimation\l/DepthMapPixelHypothesis.cpp">
<polygon fill="white" stroke="black" points="689.5,-1 689.5,-31 844.5,-31 844.5,-1 689.5,-1"/>
<text text-anchor="start" x="697.5" y="-19" font-family="Helvetica,sans-Serif" font-size="10.00">src/DepthEstimation</text>
<text text-anchor="middle" x="767" y="-8" font-family="Helvetica,sans-Serif" font-size="10.00">/DepthMapPixelHypothesis.cpp</text>
</a>
</g>
</g>
<!-- Node2&#45;&gt;Node7 -->
<g id="edge6" class="edge"><title>Node2&#45;&gt;Node7</title>
<path fill="none" stroke="midnightblue" d="M925.722,-65.9518C890.589,-55.1162 845.659,-41.2594 812.576,-31.0561"/>
<polygon fill="midnightblue" stroke="midnightblue" points="924.767,-69.3196 935.354,-68.9223 926.83,-62.6305 924.767,-69.3196"/>
</g>
<!-- Node8 -->
<g id="node8" class="node"><title>Node8</title>
<g id="a_node8"><a xlink:href="../../d7/d84/KeyFrameGraph_8cpp.html" target="_top" xlink:title="src/GlobalMapping/KeyFrame\lGraph.cpp">
<polygon fill="white" stroke="black" points="863,-1 863,-31 1009,-31 1009,-1 863,-1"/>
<text text-anchor="start" x="871" y="-19" font-family="Helvetica,sans-Serif" font-size="10.00">src/GlobalMapping/KeyFrame</text>
<text text-anchor="middle" x="936" y="-8" font-family="Helvetica,sans-Serif" font-size="10.00">Graph.cpp</text>
</a>
</g>
</g>
<!-- Node2&#45;&gt;Node8 -->
<g id="edge7" class="edge"><title>Node2&#45;&gt;Node8</title>
<path fill="none" stroke="midnightblue" d="M965.532,-60.3137C958.97,-50.6892 951.521,-39.7635 945.745,-31.2931"/>
<polygon fill="midnightblue" stroke="midnightblue" points="962.71,-62.3884 971.236,-68.679 968.494,-58.445 962.71,-62.3884"/>
</g>
<!-- Node9 -->
<g id="node9" class="node"><title>Node9</title>
<g id="a_node9"><a xlink:href="../../d3/dd3/TrackableKeyFrameSearch_8cpp.html" target="_top" xlink:title="src/GlobalMapping/Trackable\lKeyFrameSearch.cpp">
<polygon fill="white" stroke="black" points="1027.5,-1 1027.5,-31 1170.5,-31 1170.5,-1 1027.5,-1"/>
<text text-anchor="start" x="1035.5" y="-19" font-family="Helvetica,sans-Serif" font-size="10.00">src/GlobalMapping/Trackable</text>
<text text-anchor="middle" x="1099" y="-8" font-family="Helvetica,sans-Serif" font-size="10.00">KeyFrameSearch.cpp</text>
</a>
</g>
</g>
<!-- Node2&#45;&gt;Node9 -->
<g id="edge8" class="edge"><title>Node2&#45;&gt;Node9</title>
<path fill="none" stroke="midnightblue" d="M1015.13,-63.912C1033.84,-53.4481 1056.63,-40.6999 1073.73,-31.1352"/>
<polygon fill="midnightblue" stroke="midnightblue" points="1013.33,-60.9051 1006.31,-68.8413 1016.75,-67.0144 1013.33,-60.9051"/>
</g>
<!-- Node2&#45;&gt;Node10 -->
<g id="edge9" class="edge"><title>Node2&#45;&gt;Node10</title>
<path fill="none" stroke="midnightblue" d="M921.124,-78.6634C821.769,-71.165 616.665,-54.4029 444,-32 441.142,-31.6292 438.236,-31.2363 435.302,-30.8264"/>
<polygon fill="midnightblue" stroke="midnightblue" points="921.035,-82.1665 931.269,-79.4245 921.559,-75.1861 921.035,-82.1665"/>
</g>
<!-- Node11 -->
<g id="node11" class="node"><title>Node11</title>
<g id="a_node11"><a xlink:href="../../de/dce/SlamSystem_8cpp.html" target="_top" xlink:title="src/SlamSystem.cpp">
<polygon fill="white" stroke="black" points="1994,-6.5 1994,-25.5 2102,-25.5 2102,-6.5 1994,-6.5"/>
<text text-anchor="middle" x="2048" y="-13.5" font-family="Helvetica,sans-Serif" font-size="10.00">src/SlamSystem.cpp</text>
</a>
</g>
</g>
<!-- Node2&#45;&gt;Node11 -->
<g id="edge10" class="edge"><title>Node2&#45;&gt;Node11</title>
<path fill="none" stroke="midnightblue" d="M1040.65,-68.1482C1457.76,-9.14303 1571.82,-88.503 1985,-32 1995.69,-30.5376 2007.23,-28.0626 2017.47,-25.5401"/>
<polygon fill="midnightblue" stroke="midnightblue" points="1040.15,-64.685 1030.74,-69.5679 1041.14,-71.6143 1040.15,-64.685"/>
</g>
<!-- Node12 -->
<g id="node12" class="node"><title>Node12</title>
<g id="a_node12"><a xlink:href="../../d0/df5/Relocalizer_8cpp.html" target="_top" xlink:title="src/Tracking/Relocalizer.cpp">
<polygon fill="white" stroke="black" points="1668.5,-6.5 1668.5,-25.5 1809.5,-25.5 1809.5,-6.5 1668.5,-6.5"/>
<text text-anchor="middle" x="1739" y="-13.5" font-family="Helvetica,sans-Serif" font-size="10.00">src/Tracking/Relocalizer.cpp</text>
</a>
</g>
</g>
<!-- Node2&#45;&gt;Node12 -->
<g id="edge11" class="edge"><title>Node2&#45;&gt;Node12</title>
<path fill="none" stroke="midnightblue" d="M1040.96,-68.0752C1313.71,-26.8588 1388.2,-64.7097 1658,-32 1671.2,-30.3992 1685.5,-27.9819 1698.36,-25.5526"/>
<polygon fill="midnightblue" stroke="midnightblue" points="1040.11,-64.6645 1030.76,-69.6398 1041.17,-71.5836 1040.11,-64.6645"/>
</g>
<!-- Node13 -->
<g id="node13" class="node"><title>Node13</title>
<g id="a_node13"><a xlink:href="../../d6/d91/SE3Tracker_8cpp.html" target="_top" xlink:title="src/Tracking/SE3Tracker.cpp">
<polygon fill="white" stroke="black" points="1382,-6.5 1382,-25.5 1526,-25.5 1526,-6.5 1382,-6.5"/>
<text text-anchor="middle" x="1454" y="-13.5" font-family="Helvetica,sans-Serif" font-size="10.00">src/Tracking/SE3Tracker.cpp</text>
</a>
</g>
</g>
<!-- Node2&#45;&gt;Node13 -->
<g id="edge12" class="edge"><title>Node2&#45;&gt;Node13</title>
<path fill="none" stroke="midnightblue" d="M1040.63,-68.0564C1187.79,-42.1375 1228.28,-52.9086 1372,-32 1384.6,-30.1665 1398.23,-27.8211 1410.69,-25.5323"/>
<polygon fill="midnightblue" stroke="midnightblue" points="1040.01,-64.612 1030.79,-69.8174 1041.25,-71.5027 1040.01,-64.612"/>
</g>
<!-- Node14 -->
<g id="node14" class="node"><title>Node14</title>
<g id="a_node14"><a xlink:href="../../d6/dec/Sim3Tracker_8cpp.html" target="_top" xlink:title="src/Tracking/Sim3Tracker.cpp">
<polygon fill="white" stroke="black" points="1828,-6.5 1828,-25.5 1976,-25.5 1976,-6.5 1828,-6.5"/>
<text text-anchor="middle" x="1902" y="-13.5" font-family="Helvetica,sans-Serif" font-size="10.00">src/Tracking/Sim3Tracker.cpp</text>
</a>
</g>
</g>
<!-- Node2&#45;&gt;Node14 -->
<g id="edge13" class="edge"><title>Node2&#45;&gt;Node14</title>
<path fill="none" stroke="midnightblue" d="M1040.72,-68.126C1384.15,-18.1023 1477.28,-70.14 1818,-32 1831.84,-30.4509 1846.84,-28.017 1860.28,-25.557"/>
<polygon fill="midnightblue" stroke="midnightblue" points="1040.13,-64.6753 1030.75,-69.5971 1041.15,-71.6004 1040.13,-64.6753"/>
</g>
<!-- Node15 -->
<g id="node15" class="node"><title>Node15</title>
<g id="a_node15"><a xlink:href="../../de/db1/TrackingReference_8cpp.html" target="_top" xlink:title="src/Tracking/TrackingReference.cpp">
<polygon fill="white" stroke="black" points="1188.5,-6.5 1188.5,-25.5 1363.5,-25.5 1363.5,-6.5 1188.5,-6.5"/>
<text text-anchor="middle" x="1276" y="-13.5" font-family="Helvetica,sans-Serif" font-size="10.00">src/Tracking/TrackingReference.cpp</text>
</a>
</g>
</g>
<!-- Node2&#45;&gt;Node15 -->
<g id="edge14" class="edge"><title>Node2&#45;&gt;Node15</title>
<path fill="none" stroke="midnightblue" d="M1040.5,-67.93C1114.48,-50.652 1188.89,-34.9388 1234.12,-25.5736"/>
<polygon fill="midnightblue" stroke="midnightblue" points="1039.48,-64.5747 1030.54,-70.2662 1041.08,-71.3897 1039.48,-64.5747"/>
</g>
<!-- Node2&#45;&gt;Node16 -->
<g id="edge15" class="edge"><title>Node2&#45;&gt;Node16</title>
<path fill="none" stroke="midnightblue" d="M921.478,-81.6587C797.969,-78.2434 505.08,-66.8596 262,-32 250.715,-30.3816 238.523,-27.9595 227.572,-25.5311"/>
<polygon fill="midnightblue" stroke="midnightblue" points="921.398,-85.1577 931.488,-81.9282 921.586,-78.1603 921.398,-85.1577"/>
</g>
<!-- Node17&#45;&gt;Node2 -->
<g id="edge17" class="edge"><title>Node17&#45;&gt;Node2</title>
<path fill="none" stroke="midnightblue" d="M691.532,-139.275C759.976,-126.442 868.328,-106.126 931.244,-94.3293"/>
<polygon fill="midnightblue" stroke="midnightblue" points="690.502,-135.907 681.318,-141.19 691.792,-142.787 690.502,-135.907"/>
</g>
<!-- Node17&#45;&gt;Node5 -->
<g id="edge18" class="edge"><title>Node17&#45;&gt;Node5</title>
<path fill="none" stroke="midnightblue" d="M567.24,-136.532C455.966,-110.464 223.335,-55.9665 114.922,-30.5691"/>
<polygon fill="midnightblue" stroke="midnightblue" points="566.442,-139.939 576.976,-138.813 568.038,-133.124 566.442,-139.939"/>
</g>
<!-- Node18&#45;&gt;Node6 -->
<g id="edge20" class="edge"><title>Node18&#45;&gt;Node6</title>
<path fill="none" stroke="midnightblue" d="M1675.42,-63.6261C1657.91,-53.2166 1636.71,-40.6129 1620.77,-31.1352"/>
<polygon fill="midnightblue" stroke="midnightblue" points="1673.8,-66.7389 1684.19,-68.8413 1677.38,-60.7222 1673.8,-66.7389"/>
</g>
<!-- Node18&#45;&gt;Node11 -->
<g id="edge21" class="edge"><title>Node18&#45;&gt;Node11</title>
<path fill="none" stroke="midnightblue" d="M1771.17,-72.3264C1827.44,-62.5925 1911.92,-47.417 1985,-32 1994.24,-30.0505 2004.2,-27.7654 2013.41,-25.5748"/>
<polygon fill="midnightblue" stroke="midnightblue" points="1770.26,-68.9312 1761,-74.0794 1771.45,-75.8294 1770.26,-68.9312"/>
</g>
<!-- Node19&#45;&gt;Node8 -->
<g id="edge25" class="edge"><title>Node19&#45;&gt;Node8</title>
<path fill="none" stroke="midnightblue" d="M868.849,-196.002C874.036,-187.417 879.644,-177.455 884,-168 906.389,-119.398 924.575,-58.2539 932.17,-31.1032"/>
<polygon fill="midnightblue" stroke="midnightblue" points="865.758,-194.345 863.465,-204.689 871.708,-198.033 865.758,-194.345"/>
</g>
<!-- Node19&#45;&gt;Node10 -->
<g id="edge26" class="edge"><title>Node19&#45;&gt;Node10</title>
<path fill="none" stroke="midnightblue" d="M800.195,-201.489C777.166,-192.927 750.462,-181.533 728,-168 709.088,-156.606 709.165,-146.965 690,-136 599.252,-84.0811 481.967,-48.954 412.392,-31.0068"/>
<polygon fill="midnightblue" stroke="midnightblue" points="799.223,-204.86 809.817,-204.983 801.612,-198.28 799.223,-204.86"/>
</g>
<!-- Node19&#45;&gt;Node11 -->
<g id="edge27" class="edge"><title>Node19&#45;&gt;Node11</title>
<path fill="none" stroke="midnightblue" d="M933.611,-211.897C1180,-189.724 1916.37,-121.963 1963,-100 1999.57,-82.7739 2029.97,-43.2722 2042.21,-25.702"/>
<polygon fill="midnightblue" stroke="midnightblue" points="932.947,-208.442 923.3,-212.824 933.574,-215.414 932.947,-208.442"/>
</g>
<!-- Node19&#45;&gt;Node17 -->
<g id="edge23" class="edge"><title>Node19&#45;&gt;Node17</title>
<path fill="none" stroke="midnightblue" d="M796.354,-202.091C759.346,-191.235 711.851,-177.303 676.918,-167.056"/>
<polygon fill="midnightblue" stroke="midnightblue" points="795.427,-205.466 806.008,-204.922 797.397,-198.749 795.427,-205.466"/>
</g>
<!-- Node20 -->
<g id="node20" class="node"><title>Node20</title>
<g id="a_node20"><a xlink:href="../../d0/dcc/g2oTypeSim3Sophus_8cpp.html" target="_top" xlink:title="src/GlobalMapping/g2oType\lSim3Sophus.cpp">
<polygon fill="white" stroke="black" points="737,-137 737,-167 875,-167 875,-137 737,-137"/>
<text text-anchor="start" x="745" y="-155" font-family="Helvetica,sans-Serif" font-size="10.00">src/GlobalMapping/g2oType</text>
<text text-anchor="middle" x="806" y="-144" font-family="Helvetica,sans-Serif" font-size="10.00">Sim3Sophus.cpp</text>
</a>
</g>
</g>
<!-- Node19&#45;&gt;Node20 -->
<g id="edge24" class="edge"><title>Node19&#45;&gt;Node20</title>
<path fill="none" stroke="midnightblue" d="M837.501,-196.314C830.501,-186.689 822.555,-175.763 816.395,-167.293"/>
<polygon fill="midnightblue" stroke="midnightblue" points="834.872,-198.65 843.585,-204.679 840.534,-194.533 834.872,-198.65"/>
</g>
<!-- Node21&#45;&gt;Node6 -->
<g id="edge29" class="edge"><title>Node21&#45;&gt;Node6</title>
<path fill="none" stroke="midnightblue" d="M1205.56,-67.8474C1352.23,-47.1382 1392.5,-56.88 1535,-32 1537.95,-31.4857 1540.96,-30.9131 1543.99,-30.3001"/>
<polygon fill="midnightblue" stroke="midnightblue" points="1204.68,-64.4379 1195.27,-69.324 1205.67,-71.3668 1204.68,-64.4379"/>
</g>
<!-- Node21&#45;&gt;Node7 -->
<g id="edge30" class="edge"><title>Node21&#45;&gt;Node7</title>
<path fill="none" stroke="midnightblue" d="M1038.77,-67.526C979.346,-56.4784 900.067,-41.7392 842.479,-31.0327"/>
<polygon fill="midnightblue" stroke="midnightblue" points="1038.4,-71.0179 1048.87,-69.4048 1039.68,-64.1358 1038.4,-71.0179"/>
</g>
<!-- Node21&#45;&gt;Node8 -->
<g id="edge31" class="edge"><title>Node21&#45;&gt;Node8</title>
<path fill="none" stroke="midnightblue" d="M1072.55,-65.4519C1042.19,-54.6805 1003.84,-41.0722 975.516,-31.0218"/>
<polygon fill="midnightblue" stroke="midnightblue" points="1071.5,-68.7957 1082.1,-68.8413 1073.84,-62.1987 1071.5,-68.7957"/>
</g>
<!-- Node21&#45;&gt;Node9 -->
<g id="edge32" class="edge"><title>Node21&#45;&gt;Node9</title>
<path fill="none" stroke="midnightblue" d="M1113.68,-59.129C1110.43,-49.8014 1106.81,-39.4177 1103.98,-31.2931"/>
<polygon fill="midnightblue" stroke="midnightblue" points="1110.41,-60.3877 1117.01,-68.679 1117.02,-58.0842 1110.41,-60.3877"/>
</g>
<!-- Node21&#45;&gt;Node10 -->
<g id="edge33" class="edge"><title>Node21&#45;&gt;Node10</title>
<path fill="none" stroke="midnightblue" d="M1038.46,-68.052C774.189,-37.0179 703.929,-61.2076 444,-32 441.136,-31.6782 438.225,-31.3274 435.287,-30.9535"/>
<polygon fill="midnightblue" stroke="midnightblue" points="1038.41,-71.5705 1048.75,-69.2768 1039.23,-64.6195 1038.41,-71.5705"/>
</g>
<!-- Node21&#45;&gt;Node11 -->
<g id="edge34" class="edge"><title>Node21&#45;&gt;Node11</title>
<path fill="none" stroke="midnightblue" d="M1205.29,-67.9656C1551.01,-29.6251 1644.19,-79.9935 1985,-32 1995.58,-30.5106 2006.98,-28.0609 2017.14,-25.5688"/>
<polygon fill="midnightblue" stroke="midnightblue" points="1204.79,-64.4992 1195.24,-69.0961 1205.57,-71.4553 1204.79,-64.4992"/>
</g>
<!-- Node21&#45;&gt;Node15 -->
<g id="edge35" class="edge"><title>Node21&#45;&gt;Node15</title>
<path fill="none" stroke="midnightblue" d="M1164.36,-64.8444C1194.13,-52.0889 1232.61,-35.5955 1255.74,-25.6819"/>
<polygon fill="midnightblue" stroke="midnightblue" points="1162.85,-61.6851 1155.04,-68.8413 1165.61,-68.1191 1162.85,-61.6851"/>
</g>
<!-- Node22&#45;&gt;Node9 -->
<g id="edge37" class="edge"><title>Node22&#45;&gt;Node9</title>
<path fill="none" stroke="midnightblue" d="M1235.55,-65.4519C1205.19,-54.6805 1166.84,-41.0722 1138.52,-31.0218"/>
<polygon fill="midnightblue" stroke="midnightblue" points="1234.5,-68.7957 1245.1,-68.8413 1236.84,-62.1987 1234.5,-68.7957"/>
</g>
<!-- Node22&#45;&gt;Node11 -->
<g id="edge38" class="edge"><title>Node22&#45;&gt;Node11</title>
<path fill="none" stroke="midnightblue" d="M1367.18,-67.9733C1641.38,-35.7428 1715.68,-71.5798 1985,-32 1995.46,-30.4633 2006.73,-28.0327 2016.81,-25.5719"/>
<polygon fill="midnightblue" stroke="midnightblue" points="1366.43,-64.5373 1356.92,-69.1997 1367.26,-71.4878 1366.43,-64.5373"/>
</g>
<!-- Node23&#45;&gt;Node11 -->
<g id="edge45" class="edge"><title>Node23&#45;&gt;Node11</title>
<path fill="none" stroke="midnightblue" d="M2049.28,-132.617C2045.68,-123.073 2041.8,-111.111 2040,-100 2035.64,-73.1356 2042,-40.9658 2045.68,-25.7711"/>
<polygon fill="midnightblue" stroke="midnightblue" points="2046.14,-134.199 2053.09,-142.192 2052.64,-131.607 2046.14,-134.199"/>
</g>
<!-- Node24 -->
<g id="node24" class="node"><title>Node24</title>
<g id="a_node24"><a xlink:href="../../d8/d03/ROSOutput3DWrapper_8h.html" target="_top" xlink:title="src/IOWrapper/ROS/ROSOutput3\lDWrapper.h">
<polygon fill="white" stroke="black" points="2049,-69 2049,-99 2213,-99 2213,-69 2049,-69"/>
<text text-anchor="start" x="2057" y="-87" font-family="Helvetica,sans-Serif" font-size="10.00">src/IOWrapper/ROS/ROSOutput3</text>
<text text-anchor="middle" x="2131" y="-76" font-family="Helvetica,sans-Serif" font-size="10.00">DWrapper.h</text>
</a>
</g>
</g>
<!-- Node23&#45;&gt;Node24 -->
<g id="edge40" class="edge"><title>Node23&#45;&gt;Node24</title>
<path fill="none" stroke="midnightblue" d="M2074.45,-135.436C2086.77,-124.45 2103.14,-109.846 2115.1,-99.1815"/>
<polygon fill="midnightblue" stroke="midnightblue" points="2071.81,-133.103 2066.67,-142.372 2076.47,-138.328 2071.81,-133.103"/>
</g>
<!-- Node23&#45;&gt;Node27 -->
<g id="edge44" class="edge"><title>Node23&#45;&gt;Node27</title>
<path fill="none" stroke="midnightblue" d="M2152.35,-145.675C2269.74,-138.179 2456.45,-122.829 2479,-100 2498.76,-79.9956 2493.74,-42.6451 2490.15,-25.7269"/>
<polygon fill="midnightblue" stroke="midnightblue" points="2152.03,-142.188 2142.27,-146.31 2152.47,-149.174 2152.03,-142.188"/>
</g>
<!-- Node24&#45;&gt;Node10 -->
<g id="edge41" class="edge"><title>Node24&#45;&gt;Node10</title>
<path fill="none" stroke="midnightblue" d="M2038.6,-73.6569C2014.05,-71.4741 1987.54,-69.3848 1963,-68 1288.77,-29.9518 1116.35,-95.0693 444,-32 440.971,-31.7159 437.89,-31.3913 434.783,-31.0338"/>
<polygon fill="midnightblue" stroke="midnightblue" points="2038.35,-77.1485 2048.62,-74.5629 2038.98,-70.1769 2038.35,-77.1485"/>
</g>
<!-- Node25 -->
<g id="node25" class="node"><title>Node25</title>
<g id="a_node25"><a xlink:href="../../d8/d85/main__live__odometry_8cpp.html" target="_top" xlink:title="src/main_live_odometry.cpp">
<polygon fill="white" stroke="black" points="2263.5,-6.5 2263.5,-25.5 2402.5,-25.5 2402.5,-6.5 2263.5,-6.5"/>
<text text-anchor="middle" x="2333" y="-13.5" font-family="Helvetica,sans-Serif" font-size="10.00">src/main_live_odometry.cpp</text>
</a>
</g>
</g>
<!-- Node24&#45;&gt;Node25 -->
<g id="edge42" class="edge"><title>Node24&#45;&gt;Node25</title>
<path fill="none" stroke="midnightblue" d="M2184.08,-65.6578C2223.56,-52.7573 2275.76,-35.701 2306.72,-25.5868"/>
<polygon fill="midnightblue" stroke="midnightblue" points="2182.75,-62.4086 2174.33,-68.8413 2184.93,-69.0624 2182.75,-62.4086"/>
</g>
<!-- Node26 -->
<g id="node26" class="node"><title>Node26</title>
<g id="a_node26"><a xlink:href="../../d7/dc1/main__on__images_8cpp.html" target="_top" xlink:title="src/main_on_images.cpp">
<polygon fill="white" stroke="black" points="2120.5,-6.5 2120.5,-25.5 2245.5,-25.5 2245.5,-6.5 2120.5,-6.5"/>
<text text-anchor="middle" x="2183" y="-13.5" font-family="Helvetica,sans-Serif" font-size="10.00">src/main_on_images.cpp</text>
</a>
</g>
</g>
<!-- Node24&#45;&gt;Node26 -->
<g id="edge43" class="edge"><title>Node24&#45;&gt;Node26</title>
<path fill="none" stroke="midnightblue" d="M2148.47,-60.821C2157.91,-48.8471 2169.03,-34.7359 2176.04,-25.8283"/>
<polygon fill="midnightblue" stroke="midnightblue" points="2145.72,-58.658 2142.28,-68.679 2151.22,-62.9901 2145.72,-58.658"/>
</g>
<!-- Node28&#45;&gt;Node11 -->
<g id="edge51" class="edge"><title>Node28&#45;&gt;Node11</title>
<path fill="none" stroke="midnightblue" d="M2359.91,-72.4491C2352.25,-70.8969 2344.42,-69.3635 2337,-68 2236.96,-49.6227 2210.77,-51.7934 2111,-32 2101.52,-30.1183 2091.29,-27.8081 2081.9,-25.5696"/>
<polygon fill="midnightblue" stroke="midnightblue" points="2359.33,-75.9024 2369.83,-74.4877 2360.74,-69.0458 2359.33,-75.9024"/>
</g>
<!-- Node28&#45;&gt;Node25 -->
<g id="edge49" class="edge"><title>Node28&#45;&gt;Node25</title>
<path fill="none" stroke="midnightblue" d="M2391.47,-67.7744C2376.51,-54.7837 2355.52,-36.5551 2343.18,-25.8411"/>
<polygon fill="midnightblue" stroke="midnightblue" points="2389.22,-70.4574 2399.06,-74.3717 2393.81,-65.1721 2389.22,-70.4574"/>
</g>
<!-- Node28&#45;&gt;Node26 -->
<g id="edge50" class="edge"><title>Node28&#45;&gt;Node26</title>
<path fill="none" stroke="midnightblue" d="M2369.77,-71.5428C2324.87,-58.4319 2252.39,-37.2632 2212.19,-25.5259"/>
<polygon fill="midnightblue" stroke="midnightblue" points="2368.87,-74.928 2379.45,-74.3717 2370.84,-68.2087 2368.87,-74.928"/>
</g>
<!-- Node28&#45;&gt;Node27 -->
<g id="edge48" class="edge"><title>Node28&#45;&gt;Node27</title>
<path fill="none" stroke="midnightblue" d="M2427.27,-67.7343C2442.92,-54.6606 2464.89,-36.3039 2477.67,-25.6305"/>
<polygon fill="midnightblue" stroke="midnightblue" points="2424.76,-65.2742 2419.33,-74.3717 2429.25,-70.6462 2424.76,-65.2742"/>
</g>
<!-- Node29&#45;&gt;Node11 -->
<g id="edge57" class="edge"><title>Node29&#45;&gt;Node11</title>
<path fill="none" stroke="midnightblue" d="M2240.02,-71.6253C2193.95,-58.5209 2119.31,-37.2879 2077.97,-25.5259"/>
<polygon fill="midnightblue" stroke="midnightblue" points="2239.09,-75.0018 2249.67,-74.3717 2241.01,-68.2689 2239.09,-75.0018"/>
</g>
<!-- Node29&#45;&gt;Node25 -->
<g id="edge55" class="edge"><title>Node29&#45;&gt;Node25</title>
<path fill="none" stroke="midnightblue" d="M2293.4,-66.3101C2303.73,-53.4437 2317.62,-36.1583 2325.9,-25.8411"/>
<polygon fill="midnightblue" stroke="midnightblue" points="2290.46,-64.383 2286.93,-74.3717 2295.92,-68.766 2290.46,-64.383"/>
</g>
<!-- Node29&#45;&gt;Node26 -->
<g id="edge56" class="edge"><title>Node29&#45;&gt;Node26</title>
<path fill="none" stroke="midnightblue" d="M2258.89,-68.6336C2239.6,-55.5145 2211.73,-36.551 2195.68,-25.6305"/>
<polygon fill="midnightblue" stroke="midnightblue" points="2257.08,-71.6399 2267.32,-74.3717 2261.02,-65.8525 2257.08,-71.6399"/>
</g>
<!-- Node29&#45;&gt;Node27 -->
<g id="edge54" class="edge"><title>Node29&#45;&gt;Node27</title>
<path fill="none" stroke="midnightblue" d="M2316.89,-71.2939C2358.27,-58.1655 2424.37,-37.1892 2461.13,-25.5259"/>
<polygon fill="midnightblue" stroke="midnightblue" points="2315.67,-68.011 2307.19,-74.3717 2317.78,-74.6832 2315.67,-68.011"/>
</g>
<!-- Node30&#45;&gt;Node12 -->
<g id="edge60" class="edge"><title>Node30&#45;&gt;Node12</title>
<path fill="none" stroke="midnightblue" d="M1804.47,-132.99C1795.48,-116.11 1781.55,-90.2184 1769,-68 1760.51,-52.9745 1750.24,-35.7061 1744.19,-25.6096"/>
<polygon fill="midnightblue" stroke="midnightblue" points="1801.59,-135.03 1809.37,-142.222 1807.77,-131.748 1801.59,-135.03"/>
</g>
<!-- Node30&#45;&gt;Node29 -->
<g id="edge59" class="edge"><title>Node30&#45;&gt;Node29</title>
<path fill="none" stroke="midnightblue" d="M1889.8,-142.707C1989.74,-131.569 2160.14,-111.814 2222,-100 2231.19,-98.244 2241.09,-95.8687 2250.06,-93.5266"/>
<polygon fill="midnightblue" stroke="midnightblue" points="1889.31,-139.24 1879.76,-143.824 1890.09,-146.197 1889.31,-139.24"/>
</g>
<!-- Node31&#45;&gt;Node6 -->
<g id="edge62" class="edge"><title>Node31&#45;&gt;Node6</title>
<path fill="none" stroke="midnightblue" d="M1586.2,-64.5079C1588.6,-53.952 1591.56,-40.9234 1593.78,-31.1815"/>
<polygon fill="midnightblue" stroke="midnightblue" points="1582.76,-63.8446 1583.96,-74.3717 1589.59,-65.396 1582.76,-63.8446"/>
</g>
<!-- Node31&#45;&gt;Node8 -->
<g id="edge63" class="edge"><title>Node31&#45;&gt;Node8</title>
<path fill="none" stroke="midnightblue" d="M1540.16,-72.1936C1532.82,-70.5831 1525.21,-69.098 1518,-68 1297.74,-34.4748 1239.02,-60.0869 1018,-32 1015.13,-31.6351 1012.21,-31.2357 1009.26,-30.8093"/>
<polygon fill="midnightblue" stroke="midnightblue" points="1539.43,-75.6172 1549.96,-74.4429 1541,-68.7945 1539.43,-75.6172"/>
</g>
<!-- Node31&#45;&gt;Node11 -->
<g id="edge67" class="edge"><title>Node31&#45;&gt;Node11</title>
<path fill="none" stroke="midnightblue" d="M1625.07,-72.1349C1632.04,-70.5997 1639.2,-69.154 1646,-68 1795.38,-42.6639 1835.66,-57.5992 1985,-32 1995.08,-30.2713 2005.96,-27.8763 2015.79,-25.507"/>
<polygon fill="midnightblue" stroke="midnightblue" points="1624.03,-68.7827 1615.06,-74.4248 1625.59,-75.6065 1624.03,-68.7827"/>
</g>
<!-- Node31&#45;&gt;Node13 -->
<g id="edge68" class="edge"><title>Node31&#45;&gt;Node13</title>
<path fill="none" stroke="midnightblue" d="M1556.18,-69.6889C1530.7,-56.5502 1492.49,-36.8475 1470.74,-25.6305"/>
<polygon fill="midnightblue" stroke="midnightblue" points="1554.77,-72.8995 1565.27,-74.3717 1557.98,-66.6779 1554.77,-72.8995"/>
</g>
<!-- Node31&#45;&gt;Node14 -->
<g id="edge69" class="edge"><title>Node31&#45;&gt;Node14</title>
<path fill="none" stroke="midnightblue" d="M1627.25,-72.1961C1633.54,-70.7521 1639.92,-69.3167 1646,-68 1719.52,-52.0657 1805.33,-35.3521 1856.59,-25.5699"/>
<polygon fill="midnightblue" stroke="midnightblue" points="1626.45,-68.7883 1617.5,-74.4566 1628.03,-75.6074 1626.45,-68.7883"/>
</g>
<!-- Node31&#45;&gt;Node15 -->
<g id="edge70" class="edge"><title>Node31&#45;&gt;Node15</title>
<path fill="none" stroke="midnightblue" d="M1536.07,-72.1034C1530,-70.7016 1523.85,-69.3022 1518,-68 1448.01,-52.4246 1366.35,-35.4671 1318.03,-25.5588"/>
<polygon fill="midnightblue" stroke="midnightblue" points="1535.62,-75.5924 1546.15,-74.4483 1537.21,-68.7743 1535.62,-75.5924"/>
</g>
<!-- Node31&#45;&gt;Node16 -->
<g id="edge71" class="edge"><title>Node31&#45;&gt;Node16</title>
<path fill="none" stroke="midnightblue" d="M1541.41,-72.1918C1533.69,-70.5047 1525.63,-68.9935 1518,-68 964.22,4.08266 816.344,-99.6061 262,-32 250.196,-30.5605 237.431,-28.0583 226.128,-25.5054"/>
<polygon fill="midnightblue" stroke="midnightblue" points="1540.77,-75.6375 1551.31,-74.4822 1542.35,-68.8178 1540.77,-75.6375"/>
</g>
<!-- Node31&#45;&gt;Node25 -->
<g id="edge65" class="edge"><title>Node31&#45;&gt;Node25</title>
<path fill="none" stroke="midnightblue" d="M1623.59,-72.1678C1631.01,-70.5457 1638.7,-69.0633 1646,-68 1913.87,-28.9721 1985.36,-65.3166 2254,-32 2266.88,-30.4021 2280.83,-27.9855 2293.37,-25.5561"/>
<polygon fill="midnightblue" stroke="midnightblue" points="1622.66,-68.7898 1613.7,-74.4401 1624.23,-75.6121 1622.66,-68.7898"/>
</g>
<!-- Node31&#45;&gt;Node26 -->
<g id="edge66" class="edge"><title>Node31&#45;&gt;Node26</title>
<path fill="none" stroke="midnightblue" d="M1623.84,-72.2265C1631.19,-70.6123 1638.79,-69.1174 1646,-68 1850.84,-36.2569 1905.78,-61.1982 2111,-32 2122.63,-30.3453 2135.2,-27.9427 2146.53,-25.5434"/>
<polygon fill="midnightblue" stroke="midnightblue" points="1623,-68.8275 1614.04,-74.4772 1624.57,-75.6499 1623,-68.8275"/>
</g>
<!-- Node31&#45;&gt;Node27 -->
<g id="edge64" class="edge"><title>Node31&#45;&gt;Node27</title>
<path fill="none" stroke="midnightblue" d="M1623.34,-72.1452C1630.84,-70.5107 1638.62,-69.0299 1646,-68 1983.11,-20.9674 2073.06,-72.6491 2411,-32 2423.85,-30.4548 2437.76,-27.9908 2450.18,-25.5027"/>
<polygon fill="midnightblue" stroke="midnightblue" points="1622.32,-68.7884 1613.36,-74.4414 1623.89,-75.6102 1622.32,-68.7884"/>
</g>
<!-- Node32&#45;&gt;Node9 -->
<g id="edge73" class="edge"><title>Node32&#45;&gt;Node9</title>
<path fill="none" stroke="midnightblue" d="M1388.55,-72.5663C1380.65,-71.0312 1372.62,-69.4719 1365,-68 1299.21,-55.2853 1224.24,-40.9233 1170.7,-30.6876"/>
<polygon fill="midnightblue" stroke="midnightblue" points="1387.95,-76.0148 1398.43,-74.4894 1389.28,-69.1437 1387.95,-76.0148"/>
</g>
<!-- Node32&#45;&gt;Node11 -->
<g id="edge74" class="edge"><title>Node32&#45;&gt;Node11</title>
<path fill="none" stroke="midnightblue" d="M1490.57,-72.5288C1499.66,-70.8225 1509.09,-69.218 1518,-68 1724.25,-39.7966 1779.34,-64.2073 1985,-32 1995.33,-30.3823 2006.47,-27.9603 2016.47,-25.532"/>
<polygon fill="midnightblue" stroke="midnightblue" points="1489.66,-69.1399 1480.52,-74.4833 1491,-76.0113 1489.66,-69.1399"/>
</g>
<!-- Node32&#45;&gt;Node12 -->
<g id="edge75" class="edge"><title>Node32&#45;&gt;Node12</title>
<path fill="none" stroke="midnightblue" d="M1490.3,-72.2677C1548.96,-59.2319 1646.72,-37.5059 1700.55,-25.5455"/>
<polygon fill="midnightblue" stroke="midnightblue" points="1489.53,-68.8533 1480.52,-74.4393 1491.04,-75.6866 1489.53,-68.8533"/>
</g>
<!-- Node32&#45;&gt;Node13 -->
<g id="edge76" class="edge"><title>Node32&#45;&gt;Node13</title>
<path fill="none" stroke="midnightblue" d="M1445.38,-64.425C1447.67,-51.7978 1450.61,-35.6623 1452.39,-25.8411"/>
<polygon fill="midnightblue" stroke="midnightblue" points="1441.91,-63.9068 1443.57,-74.3717 1448.8,-65.1591 1441.91,-63.9068"/>
</g>
<!-- Node33&#45;&gt;Node11 -->
<g id="edge78" class="edge"><title>Node33&#45;&gt;Node11</title>
<path fill="none" stroke="midnightblue" d="M1916.59,-70.5361C1948.91,-57.3706 1998.99,-36.9673 2027.07,-25.5259"/>
<polygon fill="midnightblue" stroke="midnightblue" points="1915.12,-67.3573 1907.18,-74.3717 1917.76,-73.8399 1915.12,-67.3573"/>
</g>
<!-- Node33&#45;&gt;Node14 -->
<g id="edge79" class="edge"><title>Node33&#45;&gt;Node14</title>
<path fill="none" stroke="midnightblue" d="M1890.5,-64.425C1893.56,-51.7978 1897.48,-35.6623 1899.86,-25.8411"/>
<polygon fill="midnightblue" stroke="midnightblue" points="1887.05,-63.8285 1888.09,-74.3717 1893.85,-65.4778 1887.05,-63.8285"/>
</g>
</g>
</svg>
