<?xml version="1.0" encoding="UTF-8" standalone="no"?>
<!DOCTYPE svg PUBLIC "-//W3C//DTD SVG 1.1//EN"
 "http://www.w3.org/Graphics/SVG/1.1/DTD/svg11.dtd">
<!-- Generated by graphviz version 2.36.0 (20140111.2315)
 -->
<!-- Title: lsd_slam::Util::displayImage Pages: 1 -->
<svg width="524pt" height="38pt"
 viewBox="0.00 0.00 524.00 38.00" xmlns="http://www.w3.org/2000/svg" xmlns:xlink="http://www.w3.org/1999/xlink">
<g id="graph0" class="graph" transform="scale(1 1) rotate(0) translate(4 34)">
<title>lsd_slam::Util::displayImage</title>
<polygon fill="white" stroke="none" points="-4,4 -4,-34 520,-34 520,4 -4,4"/>
<!-- Node1 -->
<g id="node1" class="node"><title>Node1</title>
<polygon fill="#bfbfbf" stroke="black" points="0,-5.5 0,-24.5 140,-24.5 140,-5.5 0,-5.5"/>
<text text-anchor="middle" x="70" y="-12.5" font-family="Helvetica,sans-Serif" font-size="10.00">lsd_slam::Util::displayImage</text>
</g>
<!-- Node2 -->
<g id="node2" class="node"><title>Node2</title>
<g id="a_node2"><a xlink:href="../../d8/da0/namespacelsd__slam_1_1Util.html#a9c01e8272d0a6cf22714ff45227e86fe" target="_top" xlink:title="lsd_slam::Util::makeDisplay\lThread">
<polygon fill="white" stroke="black" points="176,-0 176,-30 316,-30 316,-0 176,-0"/>
<text text-anchor="start" x="184" y="-18" font-family="Helvetica,sans-Serif" font-size="10.00">lsd_slam::Util::makeDisplay</text>
<text text-anchor="middle" x="246" y="-7" font-family="Helvetica,sans-Serif" font-size="10.00">Thread</text>
</a>
</g>
</g>
<!-- Node1&#45;&gt;Node2 -->
<g id="edge1" class="edge"><title>Node1&#45;&gt;Node2</title>
<path fill="none" stroke="midnightblue" d="M140.019,-15C148.476,-15 157.169,-15 165.761,-15"/>
<polygon fill="midnightblue" stroke="midnightblue" points="165.78,-18.5001 175.779,-15 165.779,-11.5001 165.78,-18.5001"/>
</g>
<!-- Node3 -->
<g id="node3" class="node"><title>Node3</title>
<g id="a_node3"><a xlink:href="../../d8/da0/namespacelsd__slam_1_1Util.html#a1749bf769ea1a0301816614ba5bf0dc5" target="_top" xlink:title="lsd_slam::Util::displayThreadLoop">
<polygon fill="white" stroke="black" points="352,-5.5 352,-24.5 516,-24.5 516,-5.5 352,-5.5"/>
<text text-anchor="middle" x="434" y="-12.5" font-family="Helvetica,sans-Serif" font-size="10.00">lsd_slam::Util::displayThreadLoop</text>
</a>
</g>
</g>
<!-- Node2&#45;&gt;Node3 -->
<g id="edge2" class="edge"><title>Node2&#45;&gt;Node3</title>
<path fill="none" stroke="midnightblue" d="M316.26,-15C324.574,-15 333.16,-15 341.726,-15"/>
<polygon fill="midnightblue" stroke="midnightblue" points="341.756,-18.5001 351.756,-15 341.756,-11.5001 341.756,-18.5001"/>
</g>
</g>
</svg>
