<?xml version="1.0" encoding="UTF-8" standalone="no"?>
<!DOCTYPE svg PUBLIC "-//W3C//DTD SVG 1.1//EN"
 "http://www.w3.org/Graphics/SVG/1.1/DTD/svg11.dtd">
<!-- Generated by graphviz version 2.36.0 (20140111.2315)
 -->
<!-- Title: GLViewer::mouseReleaseEvent Pages: 1 -->
<svg width="476pt" height="419pt"
 viewBox="0.00 0.00 476.00 419.00" xmlns="http://www.w3.org/2000/svg" xmlns:xlink="http://www.w3.org/1999/xlink">
<g id="graph0" class="graph" transform="scale(1 1) rotate(0) translate(4 415)">
<title>GLViewer::mouseReleaseEvent</title>
<polygon fill="white" stroke="none" points="-4,4 -4,-415 472,-415 472,4 -4,4"/>
<!-- Node1 -->
<g id="node1" class="node"><title>Node1</title>
<polygon fill="#bfbfbf" stroke="black" points="0,-201.5 0,-220.5 156,-220.5 156,-201.5 0,-201.5"/>
<text text-anchor="middle" x="78" y="-208.5" font-family="Helvetica,sans-Serif" font-size="10.00">GLViewer::mouseReleaseEvent</text>
</g>
<!-- Node2 -->
<g id="node2" class="node"><title>Node2</title>
<g id="a_node2"><a xlink:href="../../db/d4e/classGLViewer.html#aa6070fa493bb9642d5be5b1341e51e11" target="_top" xlink:title="GLViewer::toggleShowClouds">
<polygon fill="white" stroke="black" points="196.5,-391.5 196.5,-410.5 343.5,-410.5 343.5,-391.5 196.5,-391.5"/>
<text text-anchor="middle" x="270" y="-398.5" font-family="Helvetica,sans-Serif" font-size="10.00">GLViewer::toggleShowClouds</text>
</a>
</g>
</g>
<!-- Node1&#45;&gt;Node2 -->
<g id="edge1" class="edge"><title>Node1&#45;&gt;Node2</title>
<path fill="none" stroke="midnightblue" d="M82.404,-220.564C93.3161,-249.781 130.358,-338.513 192,-382 194.843,-384.005 197.874,-385.8 201.03,-387.406"/>
<polygon fill="midnightblue" stroke="midnightblue" points="199.635,-390.616 210.197,-391.45 202.46,-384.212 199.635,-390.616"/>
</g>
<!-- Node3 -->
<g id="node3" class="node"><title>Node3</title>
<g id="a_node3"><a xlink:href="../../db/d4e/classGLViewer.html#a5f2555ac9b9c4db3b4d283d6ed3817e9" target="_top" xlink:title="GLViewer::toggleShowOctoMap">
<polygon fill="white" stroke="black" points="192,-353.5 192,-372.5 348,-372.5 348,-353.5 192,-353.5"/>
<text text-anchor="middle" x="270" y="-360.5" font-family="Helvetica,sans-Serif" font-size="10.00">GLViewer::toggleShowOctoMap</text>
</a>
</g>
</g>
<!-- Node1&#45;&gt;Node3 -->
<g id="edge2" class="edge"><title>Node1&#45;&gt;Node3</title>
<path fill="none" stroke="midnightblue" d="M84.379,-220.84C98.4951,-245.689 139.185,-311.311 192,-344 195.556,-346.201 199.353,-348.147 203.282,-349.868"/>
<polygon fill="midnightblue" stroke="midnightblue" points="202.053,-353.145 212.642,-353.489 204.578,-346.617 202.053,-353.145"/>
</g>
<!-- Node4 -->
<g id="node4" class="node"><title>Node4</title>
<g id="a_node4"><a xlink:href="../../db/d4e/classGLViewer.html#a73086dcbcbaf3fd60f9db13984a9ae5a" target="_top" xlink:title="GLViewer::toggleShowPoses">
<polygon fill="white" stroke="black" points="198,-315.5 198,-334.5 342,-334.5 342,-315.5 198,-315.5"/>
<text text-anchor="middle" x="270" y="-322.5" font-family="Helvetica,sans-Serif" font-size="10.00">GLViewer::toggleShowPoses</text>
</a>
</g>
</g>
<!-- Node1&#45;&gt;Node4 -->
<g id="edge3" class="edge"><title>Node1&#45;&gt;Node4</title>
<path fill="none" stroke="midnightblue" d="M87.6022,-220.752C105.206,-240.082 147.452,-283.343 192,-306 196.637,-308.358 201.582,-310.434 206.644,-312.26"/>
<polygon fill="midnightblue" stroke="midnightblue" points="205.879,-315.692 216.471,-315.471 208.053,-309.038 205.879,-315.692"/>
</g>
<!-- Node5 -->
<g id="node5" class="node"><title>Node5</title>
<g id="a_node5"><a xlink:href="../../db/d4e/classGLViewer.html#aec2001308ab1e5386aee44b40baa2595" target="_top" xlink:title="GLViewer::toggleShowIDs">
<polygon fill="white" stroke="black" points="204,-277.5 204,-296.5 336,-296.5 336,-277.5 204,-277.5"/>
<text text-anchor="middle" x="270" y="-284.5" font-family="Helvetica,sans-Serif" font-size="10.00">GLViewer::toggleShowIDs</text>
</a>
</g>
</g>
<!-- Node1&#45;&gt;Node5 -->
<g id="edge4" class="edge"><title>Node1&#45;&gt;Node5</title>
<path fill="none" stroke="midnightblue" d="M95.3182,-220.713C116.828,-233.164 156.146,-254.727 192,-268 198.747,-270.498 205.947,-272.767 213.135,-274.798"/>
<polygon fill="midnightblue" stroke="midnightblue" points="212.319,-278.203 222.885,-277.418 214.136,-271.442 212.319,-278.203"/>
</g>
<!-- Node6 -->
<g id="node6" class="node"><title>Node6</title>
<g id="a_node6"><a xlink:href="../../db/d4e/classGLViewer.html#ab225dfeb0c70e60d4f7ddeb4d9763e71" target="_top" xlink:title="GLViewer::toggleShowEdges">
<polygon fill="white" stroke="black" points="198,-239.5 198,-258.5 342,-258.5 342,-239.5 198,-239.5"/>
<text text-anchor="middle" x="270" y="-246.5" font-family="Helvetica,sans-Serif" font-size="10.00">GLViewer::toggleShowEdges</text>
</a>
</g>
</g>
<!-- Node1&#45;&gt;Node6 -->
<g id="edge5" class="edge"><title>Node1&#45;&gt;Node6</title>
<path fill="none" stroke="midnightblue" d="M126.945,-220.589C152.582,-225.716 184.336,-232.067 211.316,-237.463"/>
<polygon fill="midnightblue" stroke="midnightblue" points="210.908,-240.951 221.4,-239.48 212.28,-234.087 210.908,-240.951"/>
</g>
<!-- Node7 -->
<g id="node7" class="node"><title>Node7</title>
<g id="a_node7"><a xlink:href="../../db/d4e/classGLViewer.html#a75ef52bd207001b697cf1b8637dc11c5" target="_top" xlink:title="GLViewer::toggleShowTFs">
<polygon fill="white" stroke="black" points="203,-201.5 203,-220.5 337,-220.5 337,-201.5 203,-201.5"/>
<text text-anchor="middle" x="270" y="-208.5" font-family="Helvetica,sans-Serif" font-size="10.00">GLViewer::toggleShowTFs</text>
</a>
</g>
</g>
<!-- Node1&#45;&gt;Node7 -->
<g id="edge6" class="edge"><title>Node1&#45;&gt;Node7</title>
<path fill="none" stroke="midnightblue" d="M156.006,-211C168.141,-211 180.683,-211 192.8,-211"/>
<polygon fill="midnightblue" stroke="midnightblue" points="192.859,-214.5 202.859,-211 192.859,-207.5 192.859,-214.5"/>
</g>
<!-- Node8 -->
<g id="node8" class="node"><title>Node8</title>
<g id="a_node8"><a xlink:href="../../db/d4e/classGLViewer.html#a803f52aea24f6ad861207d7358082231" target="_top" xlink:title="GLViewer::toggleShowFeatures">
<polygon fill="white" stroke="black" points="192.5,-163.5 192.5,-182.5 347.5,-182.5 347.5,-163.5 192.5,-163.5"/>
<text text-anchor="middle" x="270" y="-170.5" font-family="Helvetica,sans-Serif" font-size="10.00">GLViewer::toggleShowFeatures</text>
</a>
</g>
</g>
<!-- Node1&#45;&gt;Node8 -->
<g id="edge7" class="edge"><title>Node1&#45;&gt;Node8</title>
<path fill="none" stroke="midnightblue" d="M126.945,-201.411C152.582,-196.284 184.336,-189.933 211.316,-184.537"/>
<polygon fill="midnightblue" stroke="midnightblue" points="212.28,-187.913 221.4,-182.52 210.908,-181.049 212.28,-187.913"/>
</g>
<!-- Node9 -->
<g id="node9" class="node"><title>Node9</title>
<g id="a_node9"><a xlink:href="../../db/d4e/classGLViewer.html#afcce8c76bc211371cac0d5f66a3f642d" target="_top" xlink:title="GLViewer::toggleTriangulation">
<polygon fill="white" stroke="black" points="196.5,-125.5 196.5,-144.5 343.5,-144.5 343.5,-125.5 196.5,-125.5"/>
<text text-anchor="middle" x="270" y="-132.5" font-family="Helvetica,sans-Serif" font-size="10.00">GLViewer::toggleTriangulation</text>
</a>
</g>
</g>
<!-- Node1&#45;&gt;Node9 -->
<g id="edge8" class="edge"><title>Node1&#45;&gt;Node9</title>
<path fill="none" stroke="midnightblue" d="M95.3182,-201.287C116.828,-188.836 156.146,-167.273 192,-154 198.747,-151.502 205.947,-149.233 213.135,-147.202"/>
<polygon fill="midnightblue" stroke="midnightblue" points="214.136,-150.558 222.885,-144.582 212.319,-143.797 214.136,-150.558"/>
</g>
<!-- Node11 -->
<g id="node11" class="node"><title>Node11</title>
<g id="a_node11"><a xlink:href="../../db/d4e/classGLViewer.html#a17ae1ed051f8469e91e2d821a1bb58c9" target="_top" xlink:title="GLViewer::toggleFollowMode">
<polygon fill="white" stroke="black" points="198,-87.5 198,-106.5 342,-106.5 342,-87.5 198,-87.5"/>
<text text-anchor="middle" x="270" y="-94.5" font-family="Helvetica,sans-Serif" font-size="10.00">GLViewer::toggleFollowMode</text>
</a>
</g>
</g>
<!-- Node1&#45;&gt;Node11 -->
<g id="edge10" class="edge"><title>Node1&#45;&gt;Node11</title>
<path fill="none" stroke="midnightblue" d="M87.6022,-201.248C105.206,-181.918 147.452,-138.657 192,-116 196.637,-113.642 201.582,-111.566 206.644,-109.74"/>
<polygon fill="midnightblue" stroke="midnightblue" points="208.053,-112.962 216.471,-106.529 205.879,-106.308 208.053,-112.962"/>
</g>
<!-- Node12 -->
<g id="node12" class="node"><title>Node12</title>
<g id="a_node12"><a xlink:href="../../db/d4e/classGLViewer.html#a4f09b7817ac55b0c850f33a14cd58c30" target="_top" xlink:title="GLViewer::toggleShowGrid">
<polygon fill="white" stroke="black" points="203,-49.5 203,-68.5 337,-68.5 337,-49.5 203,-49.5"/>
<text text-anchor="middle" x="270" y="-56.5" font-family="Helvetica,sans-Serif" font-size="10.00">GLViewer::toggleShowGrid</text>
</a>
</g>
</g>
<!-- Node1&#45;&gt;Node12 -->
<g id="edge11" class="edge"><title>Node1&#45;&gt;Node12</title>
<path fill="none" stroke="midnightblue" d="M84.379,-201.16C98.4951,-176.311 139.185,-110.689 192,-78 195.556,-75.7989 199.353,-73.8527 203.282,-72.1318"/>
<polygon fill="midnightblue" stroke="midnightblue" points="204.578,-75.3833 212.642,-68.5115 202.053,-68.8547 204.578,-75.3833"/>
</g>
<!-- Node13 -->
<g id="node13" class="node"><title>Node13</title>
<g id="a_node13"><a xlink:href="../../db/d4e/classGLViewer.html#a8af31443ad45753bb68ce8f6a4b76dce" target="_top" xlink:title="GLViewer::toggleBackground\lColor">
<polygon fill="white" stroke="black" points="198.5,-0 198.5,-30 341.5,-30 341.5,-0 198.5,-0"/>
<text text-anchor="start" x="206.5" y="-18" font-family="Helvetica,sans-Serif" font-size="10.00">GLViewer::toggleBackground</text>
<text text-anchor="middle" x="270" y="-7" font-family="Helvetica,sans-Serif" font-size="10.00">Color</text>
</a>
</g>
</g>
<!-- Node1&#45;&gt;Node13 -->
<g id="edge12" class="edge"><title>Node1&#45;&gt;Node13</title>
<path fill="none" stroke="midnightblue" d="M82.7083,-201.221C94.2278,-172.149 132.246,-85.4623 192,-40 194.438,-38.145 197.019,-36.4247 199.701,-34.8295"/>
<polygon fill="midnightblue" stroke="midnightblue" points="201.353,-37.9155 208.56,-30.1493 198.083,-31.7263 201.353,-37.9155"/>
</g>
<!-- Node10 -->
<g id="node10" class="node"><title>Node10</title>
<g id="a_node10"><a xlink:href="../../da/d33/glew_8h.html#a5e3f489d997350749919a24247a8203b" target="_top" xlink:title="glPolygonMode">
<polygon fill="white" stroke="black" points="384.5,-125.5 384.5,-144.5 467.5,-144.5 467.5,-125.5 384.5,-125.5"/>
<text text-anchor="middle" x="426" y="-132.5" font-family="Helvetica,sans-Serif" font-size="10.00">glPolygonMode</text>
</a>
</g>
</g>
<!-- Node9&#45;&gt;Node10 -->
<g id="edge9" class="edge"><title>Node9&#45;&gt;Node10</title>
<path fill="none" stroke="midnightblue" d="M343.941,-135C354.104,-135 364.361,-135 374.001,-135"/>
<polygon fill="midnightblue" stroke="midnightblue" points="374.187,-138.5 384.187,-135 374.187,-131.5 374.187,-138.5"/>
</g>
<!-- Node14 -->
<g id="node14" class="node"><title>Node14</title>
<g id="a_node14"><a xlink:href="../../da/d33/glew_8h.html#af339551012daa99fef8c4d313e98b546" target="_top" xlink:title="glClearColor">
<polygon fill="white" stroke="black" points="390.5,-5.5 390.5,-24.5 461.5,-24.5 461.5,-5.5 390.5,-5.5"/>
<text text-anchor="middle" x="426" y="-12.5" font-family="Helvetica,sans-Serif" font-size="10.00">glClearColor</text>
</a>
</g>
</g>
<!-- Node13&#45;&gt;Node14 -->
<g id="edge13" class="edge"><title>Node13&#45;&gt;Node14</title>
<path fill="none" stroke="midnightblue" d="M341.69,-15C354.777,-15 368.109,-15 380.16,-15"/>
<polygon fill="midnightblue" stroke="midnightblue" points="380.382,-18.5001 390.382,-15 380.382,-11.5001 380.382,-18.5001"/>
</g>
</g>
</svg>
