<?xml version="1.0" encoding="UTF-8" standalone="no"?>
<!DOCTYPE svg PUBLIC "-//W3C//DTD SVG 1.1//EN"
 "http://www.w3.org/Graphics/SVG/1.1/DTD/svg11.dtd">
<!-- Generated by graphviz version 2.36.0 (20140111.2315)
 -->
<!-- Title: GLViewer::addPointCloud Pages: 1 -->
<svg width="888pt" height="952pt"
 viewBox="0.00 0.00 888.00 952.23" xmlns="http://www.w3.org/2000/svg" xmlns:xlink="http://www.w3.org/1999/xlink">
<g id="graph0" class="graph" transform="scale(1 1) rotate(0) translate(4 948.227)">
<title>GLViewer::addPointCloud</title>
<polygon fill="white" stroke="none" points="-4,4 -4,-948.227 884,-948.227 884,4 -4,4"/>
<!-- Node1 -->
<g id="node1" class="node"><title>Node1</title>
<polygon fill="#bfbfbf" stroke="black" points="0.5,-380.5 0.5,-399.5 129.5,-399.5 129.5,-380.5 0.5,-380.5"/>
<text text-anchor="middle" x="65" y="-387.5" font-family="Helvetica,sans-Serif" font-size="10.00">GLViewer::addPointCloud</text>
</g>
<!-- Node2 -->
<g id="node2" class="node"><title>Node2</title>
<g id="a_node2"><a xlink:href="../../d3/d3e/classParameterServer.html#a5457f900e543c5a466bf9b65ee6bc577" target="_top" xlink:title="ParameterServer::instance">
<polygon fill="white" stroke="black" points="746.5,-570.5 746.5,-589.5 879.5,-589.5 879.5,-570.5 746.5,-570.5"/>
<text text-anchor="middle" x="813" y="-577.5" font-family="Helvetica,sans-Serif" font-size="10.00">ParameterServer::instance</text>
</a>
</g>
</g>
<!-- Node1&#45;&gt;Node2 -->
<g id="edge1" class="edge"><title>Node1&#45;&gt;Node2</title>
<path fill="none" stroke="midnightblue" d="M68.1877,-399.535C82.4826,-459.253 168.72,-782.506 382,-884 513.663,-946.655 591.918,-976.543 710,-891 806.649,-820.984 813.367,-656.518 812.664,-599.71"/>
<polygon fill="midnightblue" stroke="midnightblue" points="816.16,-599.488 812.439,-589.568 809.161,-599.643 816.16,-599.488"/>
</g>
<!-- Node3 -->
<g id="node3" class="node"><title>Node3</title>
<g id="a_node3"><a xlink:href="../../d3/d3e/classParameterServer.html#a3c8af50664e423b555bbb1874f488413" target="_top" xlink:title="ParameterServer::get">
<polygon fill="white" stroke="black" points="758,-399.5 758,-418.5 868,-418.5 868,-399.5 758,-399.5"/>
<text text-anchor="middle" x="813" y="-406.5" font-family="Helvetica,sans-Serif" font-size="10.00">ParameterServer::get</text>
</a>
</g>
</g>
<!-- Node1&#45;&gt;Node3 -->
<g id="edge2" class="edge"><title>Node1&#45;&gt;Node3</title>
<path fill="none" stroke="midnightblue" d="M71.7019,-380.22C98.9357,-334.624 221.125,-142.338 382,-76 516.769,-20.4271 592.793,10.6811 710,-76 762.281,-114.664 798.713,-323.424 809.023,-389.164"/>
<polygon fill="midnightblue" stroke="midnightblue" points="805.616,-390.039 810.595,-399.391 812.535,-388.976 805.616,-390.039"/>
</g>
<!-- Node4 -->
<g id="node4" class="node"><title>Node4</title>
<g id="a_node4"><a xlink:href="../../db/d4e/classGLViewer.html#ad9212d4405e25a87e0a7c37526f8f69d" target="_top" xlink:title="Compile the pointcloud to a GL Display List using GL_POINT. ">
<polygon fill="white" stroke="black" points="382,-494.5 382,-513.5 540,-513.5 540,-494.5 382,-494.5"/>
<text text-anchor="middle" x="461" y="-501.5" font-family="Helvetica,sans-Serif" font-size="10.00">GLViewer::pointCloud2GLPoints</text>
</a>
</g>
</g>
<!-- Node1&#45;&gt;Node4 -->
<g id="edge3" class="edge"><title>Node1&#45;&gt;Node4</title>
<path fill="none" stroke="midnightblue" d="M98.9145,-399.523C170.037,-420.102 338.018,-468.706 417.239,-491.627"/>
<polygon fill="midnightblue" stroke="midnightblue" points="416.323,-495.006 426.902,-494.423 418.269,-488.282 416.323,-495.006"/>
</g>
<!-- Node14 -->
<g id="node14" class="node"><title>Node14</title>
<g id="a_node14"><a xlink:href="../../db/d4e/classGLViewer.html#a78977b98382314a31af1191c41ed171a" target="_top" xlink:title="Compile the pointcloud to a GL Display List using GL_TRIANGLES. ">
<polygon fill="white" stroke="black" points="166,-380.5 166,-399.5 346,-399.5 346,-380.5 166,-380.5"/>
<text text-anchor="middle" x="256" y="-387.5" font-family="Helvetica,sans-Serif" font-size="10.00">GLViewer::pointCloud2GLTriangleList</text>
</a>
</g>
</g>
<!-- Node1&#45;&gt;Node14 -->
<g id="edge17" class="edge"><title>Node1&#45;&gt;Node14</title>
<path fill="none" stroke="midnightblue" d="M129.723,-390C138.042,-390 146.718,-390 155.451,-390"/>
<polygon fill="midnightblue" stroke="midnightblue" points="155.713,-393.5 165.712,-390 155.712,-386.5 155.713,-393.5"/>
</g>
<!-- Node17 -->
<g id="node17" class="node"><title>Node17</title>
<g id="a_node17"><a xlink:href="../../db/d4e/classGLViewer.html#ac351d9220b679a686780e0d3b8cdaedb" target="_top" xlink:title="Draw ellipsoids instead of points, that represent the depth std deviation of each point...">
<polygon fill="white" stroke="black" points="170,-608.5 170,-627.5 342,-627.5 342,-608.5 170,-608.5"/>
<text text-anchor="middle" x="256" y="-615.5" font-family="Helvetica,sans-Serif" font-size="10.00">GLViewer::pointCloud2GLEllipsoids</text>
</a>
</g>
</g>
<!-- Node1&#45;&gt;Node17 -->
<g id="edge30" class="edge"><title>Node1&#45;&gt;Node17</title>
<path fill="none" stroke="midnightblue" d="M73.8805,-399.507C102.759,-434.344 203.062,-555.344 240.638,-600.675"/>
<polygon fill="midnightblue" stroke="midnightblue" points="238.009,-602.988 247.086,-608.453 243.399,-598.52 238.009,-602.988"/>
</g>
<!-- Node20 -->
<g id="node20" class="node"><title>Node20</title>
<g id="a_node20"><a xlink:href="../../db/d4e/classGLViewer.html#a71dc0ae41ca934cc7b3ebb7adedaa3b6" target="_top" xlink:title="Compile the pointcloud to a GL Display List using GL_TRIANGLE_STRIPs. ">
<polygon fill="white" stroke="black" points="386,-342.5 386,-361.5 536,-361.5 536,-342.5 386,-342.5"/>
<text text-anchor="middle" x="461" y="-349.5" font-family="Helvetica,sans-Serif" font-size="10.00">GLViewer::pointCloud2GLStrip</text>
</a>
</g>
</g>
<!-- Node1&#45;&gt;Node20 -->
<g id="edge46" class="edge"><title>Node1&#45;&gt;Node20</title>
<path fill="none" stroke="midnightblue" d="M110.118,-380.404C127.462,-376.95 147.592,-373.335 166,-371 236.391,-362.073 316.826,-357.241 375.749,-354.688"/>
<polygon fill="midnightblue" stroke="midnightblue" points="375.909,-358.185 385.753,-354.268 375.615,-351.191 375.909,-358.185"/>
</g>
<!-- Node21 -->
<g id="node21" class="node"><title>Node21</title>
<g id="a_node21"><a xlink:href="../../d7/d12/classScopedTimer.html#acb1a3efcc11ddfb39b059611f7e548ab" target="_top" xlink:title="Get time since construction. ">
<polygon fill="white" stroke="black" points="199,-0.5 199,-19.5 313,-19.5 313,-0.5 199,-0.5"/>
<text text-anchor="middle" x="256" y="-7.5" font-family="Helvetica,sans-Serif" font-size="10.00">ScopedTimer::elapsed</text>
</a>
</g>
</g>
<!-- Node1&#45;&gt;Node21 -->
<g id="edge58" class="edge"><title>Node1&#45;&gt;Node21</title>
<path fill="none" stroke="midnightblue" d="M65.5384,-380.381C63.89,-334.489 63.1021,-135.829 166,-34 172.516,-27.552 180.572,-22.7879 189.152,-19.277"/>
<polygon fill="midnightblue" stroke="midnightblue" points="190.353,-22.5647 198.62,-15.9388 188.026,-15.963 190.353,-22.5647"/>
</g>
<!-- Node4&#45;&gt;Node2 -->
<g id="edge7" class="edge"><title>Node4&#45;&gt;Node2</title>
<path fill="none" stroke="midnightblue" d="M502.783,-513.521C515.111,-517.192 528.437,-521.983 540,-528 557.981,-537.356 557.185,-548.459 576,-556 626.839,-576.376 688.548,-582.059 736.113,-582.815"/>
<polygon fill="midnightblue" stroke="midnightblue" points="736.314,-586.317 746.344,-582.906 736.376,-579.317 736.314,-586.317"/>
</g>
<!-- Node4&#45;&gt;Node3 -->
<g id="edge8" class="edge"><title>Node4&#45;&gt;Node3</title>
<path fill="none" stroke="midnightblue" d="M504.592,-513.548C566.571,-526.409 677.752,-545.265 710,-523 747.156,-497.346 712.792,-458.593 746,-428 747.71,-426.425 749.543,-424.979 751.469,-423.652"/>
<polygon fill="midnightblue" stroke="midnightblue" points="753.459,-426.547 760.427,-418.567 750.003,-420.46 753.459,-426.547"/>
</g>
<!-- Node5 -->
<g id="node5" class="node"><title>Node5</title>
<g id="a_node5"><a xlink:href="../../da/d33/glew_8h.html#a695a55175b5e79ab29946bcba8b16668" target="_top" xlink:title="glGenLists">
<polygon fill="white" stroke="black" points="611.5,-608.5 611.5,-627.5 674.5,-627.5 674.5,-608.5 611.5,-608.5"/>
<text text-anchor="middle" x="643" y="-615.5" font-family="Helvetica,sans-Serif" font-size="10.00">glGenLists</text>
</a>
</g>
</g>
<!-- Node4&#45;&gt;Node5 -->
<g id="edge4" class="edge"><title>Node4&#45;&gt;Node5</title>
<path fill="none" stroke="midnightblue" d="M513.124,-513.515C522.741,-516.956 532.21,-521.636 540,-528 565.876,-549.139 550.663,-572.217 576,-594 583.411,-600.371 592.651,-605.105 601.849,-608.603"/>
<polygon fill="midnightblue" stroke="midnightblue" points="600.746,-611.925 611.34,-611.818 602.992,-605.295 600.746,-611.925"/>
</g>
<!-- Node6 -->
<g id="node6" class="node"><title>Node6</title>
<g id="a_node6"><a xlink:href="../../da/d33/glew_8h.html#a2255efdc1e7585c158d43eb670dde31b" target="_top" xlink:title="glNewList">
<polygon fill="white" stroke="black" points="613,-646.5 613,-665.5 673,-665.5 673,-646.5 613,-646.5"/>
<text text-anchor="middle" x="643" y="-653.5" font-family="Helvetica,sans-Serif" font-size="10.00">glNewList</text>
</a>
</g>
</g>
<!-- Node4&#45;&gt;Node6 -->
<g id="edge5" class="edge"><title>Node4&#45;&gt;Node6</title>
<path fill="none" stroke="midnightblue" d="M480.115,-513.686C497.357,-523.653 523.11,-540.58 540,-561 563.821,-589.801 547.519,-612.798 576,-637 583.62,-643.476 593.331,-647.747 602.945,-650.564"/>
<polygon fill="midnightblue" stroke="midnightblue" points="602.29,-654.008 612.837,-653.005 603.966,-647.211 602.29,-654.008"/>
</g>
<!-- Node7 -->
<g id="node7" class="node"><title>Node7</title>
<g id="a_node7"><a xlink:href="../../da/d33/glew_8h.html#a98964453975519f92d6cc59ef77f7436" target="_top" xlink:title="glBegin">
<polygon fill="white" stroke="black" points="618.5,-494.5 618.5,-513.5 667.5,-513.5 667.5,-494.5 618.5,-494.5"/>
<text text-anchor="middle" x="643" y="-501.5" font-family="Helvetica,sans-Serif" font-size="10.00">glBegin</text>
</a>
</g>
</g>
<!-- Node4&#45;&gt;Node7 -->
<g id="edge6" class="edge"><title>Node4&#45;&gt;Node7</title>
<path fill="none" stroke="midnightblue" d="M540.165,-504C564.021,-504 589.005,-504 608.257,-504"/>
<polygon fill="midnightblue" stroke="midnightblue" points="608.319,-507.5 618.319,-504 608.318,-500.5 608.319,-507.5"/>
</g>
<!-- Node8 -->
<g id="node8" class="node"><title>Node8</title>
<g id="a_node8"><a xlink:href="../../df/dbf/glviewer_8cpp.html#a6f313f87d88057df0f9f04162088f415" target="_top" xlink:title="validXYZ">
<polygon fill="white" stroke="black" points="615,-266.5 615,-285.5 671,-285.5 671,-266.5 615,-266.5"/>
<text text-anchor="middle" x="643" y="-273.5" font-family="Helvetica,sans-Serif" font-size="10.00">validXYZ</text>
</a>
</g>
</g>
<!-- Node4&#45;&gt;Node8 -->
<g id="edge9" class="edge"><title>Node4&#45;&gt;Node8</title>
<path fill="none" stroke="midnightblue" d="M472.064,-494.403C488.481,-478.234 521.087,-443.897 540,-409 565.318,-362.287 537.952,-332.087 576,-295 583.829,-287.368 594.518,-282.766 605.012,-280.002"/>
<polygon fill="midnightblue" stroke="midnightblue" points="605.872,-283.398 614.915,-277.877 604.403,-276.553 605.872,-283.398"/>
</g>
<!-- Node9 -->
<g id="node9" class="node"><title>Node9</title>
<g id="a_node9"><a xlink:href="../../df/dbf/glviewer_8cpp.html#a1a11c028609a8c546669ad5291d1b44f" target="_top" xlink:title="setGLColor">
<polygon fill="white" stroke="black" points="610,-418.5 610,-437.5 676,-437.5 676,-418.5 610,-418.5"/>
<text text-anchor="middle" x="643" y="-425.5" font-family="Helvetica,sans-Serif" font-size="10.00">setGLColor</text>
</a>
</g>
</g>
<!-- Node4&#45;&gt;Node9 -->
<g id="edge10" class="edge"><title>Node4&#45;&gt;Node9</title>
<path fill="none" stroke="midnightblue" d="M505.114,-494.442C516.87,-490.862 529.304,-486.127 540,-480 558.834,-469.211 557.069,-457.617 576,-447 583.475,-442.808 591.955,-439.472 600.287,-436.842"/>
<polygon fill="midnightblue" stroke="midnightblue" points="601.286,-440.196 609.93,-434.07 599.352,-433.469 601.286,-440.196"/>
</g>
<!-- Node11 -->
<g id="node11" class="node"><title>Node11</title>
<g id="a_node11"><a xlink:href="../../da/d33/glew_8h.html#a9a95e17961303a80a5bf052b8c1cf677" target="_top" xlink:title="glVertex3f">
<polygon fill="white" stroke="black" points="612.5,-456.5 612.5,-475.5 673.5,-475.5 673.5,-456.5 612.5,-456.5"/>
<text text-anchor="middle" x="643" y="-463.5" font-family="Helvetica,sans-Serif" font-size="10.00">glVertex3f</text>
</a>
</g>
</g>
<!-- Node4&#45;&gt;Node11 -->
<g id="edge14" class="edge"><title>Node4&#45;&gt;Node11</title>
<path fill="none" stroke="midnightblue" d="M507.422,-494.411C536.733,-488.223 574.483,-480.254 602.539,-474.331"/>
<polygon fill="midnightblue" stroke="midnightblue" points="603.341,-477.739 612.403,-472.248 601.895,-470.889 603.341,-477.739"/>
</g>
<!-- Node12 -->
<g id="node12" class="node"><title>Node12</title>
<g id="a_node12"><a xlink:href="../../da/d33/glew_8h.html#abbff207d1fa71b296ff35b149cef7238" target="_top" xlink:title="glEnd">
<polygon fill="white" stroke="black" points="622.5,-684.5 622.5,-703.5 663.5,-703.5 663.5,-684.5 622.5,-684.5"/>
<text text-anchor="middle" x="643" y="-691.5" font-family="Helvetica,sans-Serif" font-size="10.00">glEnd</text>
</a>
</g>
</g>
<!-- Node4&#45;&gt;Node12 -->
<g id="edge15" class="edge"><title>Node4&#45;&gt;Node12</title>
<path fill="none" stroke="midnightblue" d="M481.421,-513.569C499.112,-523.231 524.738,-539.748 540,-561 570.993,-604.157 537.952,-637.913 576,-675 585.606,-684.363 599.515,-689.166 612.09,-691.609"/>
<polygon fill="midnightblue" stroke="midnightblue" points="611.802,-695.105 622.216,-693.154 612.858,-688.185 611.802,-695.105"/>
</g>
<!-- Node13 -->
<g id="node13" class="node"><title>Node13</title>
<g id="a_node13"><a xlink:href="../../da/d33/glew_8h.html#a9bd7233f539f4fd2000c5d5999f6c439" target="_top" xlink:title="glEndList">
<polygon fill="white" stroke="black" points="614.5,-304.5 614.5,-323.5 671.5,-323.5 671.5,-304.5 614.5,-304.5"/>
<text text-anchor="middle" x="643" y="-311.5" font-family="Helvetica,sans-Serif" font-size="10.00">glEndList</text>
</a>
</g>
</g>
<!-- Node4&#45;&gt;Node13 -->
<g id="edge16" class="edge"><title>Node4&#45;&gt;Node13</title>
<path fill="none" stroke="midnightblue" d="M471.174,-494.317C499.934,-463.959 588.613,-370.353 625.568,-331.345"/>
<polygon fill="midnightblue" stroke="midnightblue" points="628.292,-333.558 632.629,-323.892 623.211,-328.744 628.292,-333.558"/>
</g>
<!-- Node9&#45;&gt;Node2 -->
<g id="edge11" class="edge"><title>Node9&#45;&gt;Node2</title>
<path fill="none" stroke="midnightblue" d="M676.007,-432.917C687.433,-435.741 699.951,-440.149 710,-447 754.088,-477.061 787.352,-532.3 802.676,-561.221"/>
<polygon fill="midnightblue" stroke="midnightblue" points="799.646,-562.982 807.337,-570.269 805.869,-559.776 799.646,-562.982"/>
</g>
<!-- Node9&#45;&gt;Node3 -->
<g id="edge12" class="edge"><title>Node9&#45;&gt;Node3</title>
<path fill="none" stroke="midnightblue" d="M676.392,-424.337C696.672,-422.043 723.505,-419.008 747.947,-416.244"/>
<polygon fill="midnightblue" stroke="midnightblue" points="748.347,-419.721 757.89,-415.12 747.56,-412.766 748.347,-419.721"/>
</g>
<!-- Node10 -->
<g id="node10" class="node"><title>Node10</title>
<g id="a_node10"><a xlink:href="../../da/d33/glew_8h.html#ac4a27c2f93c1e808c049df3865d65d31" target="_top" xlink:title="glColor3ub">
<polygon fill="white" stroke="black" points="781.5,-437.5 781.5,-456.5 844.5,-456.5 844.5,-437.5 781.5,-437.5"/>
<text text-anchor="middle" x="813" y="-444.5" font-family="Helvetica,sans-Serif" font-size="10.00">glColor3ub</text>
</a>
</g>
</g>
<!-- Node9&#45;&gt;Node10 -->
<g id="edge13" class="edge"><title>Node9&#45;&gt;Node10</title>
<path fill="none" stroke="midnightblue" d="M676.392,-431.663C703.397,-434.717 742.02,-439.086 771.145,-442.379"/>
<polygon fill="midnightblue" stroke="midnightblue" points="771.076,-445.894 781.406,-443.54 771.863,-438.938 771.076,-445.894"/>
</g>
<!-- Node14&#45;&gt;Node2 -->
<g id="edge19" class="edge"><title>Node14&#45;&gt;Node2</title>
<path fill="none" stroke="midnightblue" d="M260.33,-380.328C271.652,-349.055 311.908,-250.203 382,-207 506.487,-130.269 600.308,-84.2923 710,-181 757.884,-223.216 725.603,-405.51 746,-466 758.34,-502.596 783.12,-540.518 798.558,-562.091"/>
<polygon fill="midnightblue" stroke="midnightblue" points="795.815,-564.271 804.538,-570.285 801.469,-560.144 795.815,-564.271"/>
</g>
<!-- Node14&#45;&gt;Node3 -->
<g id="edge20" class="edge"><title>Node14&#45;&gt;Node3</title>
<path fill="none" stroke="midnightblue" d="M257.731,-380.462C261.473,-339.122 282.405,-174.607 382,-110 443.15,-70.3325 650.721,-67.5885 710,-110 803.075,-176.59 812.187,-333.267 812.374,-388.938"/>
<polygon fill="midnightblue" stroke="midnightblue" points="808.873,-389.192 812.306,-399.215 815.873,-389.239 808.873,-389.192"/>
</g>
<!-- Node14&#45;&gt;Node5 -->
<g id="edge18" class="edge"><title>Node14&#45;&gt;Node5</title>
<path fill="none" stroke="midnightblue" d="M263.218,-399.848C279.463,-424.714 325.828,-490.373 382,-523 444.454,-559.276 472.983,-534.073 540,-561 557.188,-567.906 559.868,-572.897 576,-582 588.737,-589.187 602.968,-596.979 614.945,-603.47"/>
<polygon fill="midnightblue" stroke="midnightblue" points="613.534,-606.685 623.995,-608.36 616.861,-600.527 613.534,-606.685"/>
</g>
<!-- Node14&#45;&gt;Node6 -->
<g id="edge21" class="edge"><title>Node14&#45;&gt;Node6</title>
<path fill="none" stroke="midnightblue" d="M259.773,-399.806C269.847,-433.54 307.876,-545.656 382,-599 448.635,-646.955 547.999,-655.802 602.575,-656.726"/>
<polygon fill="midnightblue" stroke="midnightblue" points="602.841,-660.228 612.87,-656.814 602.901,-653.229 602.841,-660.228"/>
</g>
<!-- Node14&#45;&gt;Node7 -->
<g id="edge22" class="edge"><title>Node14&#45;&gt;Node7</title>
<path fill="none" stroke="midnightblue" d="M289.984,-399.574C306.765,-404.461 327.478,-410.516 346,-416 448.332,-446.297 473.608,-454.904 576,-485 586.663,-488.134 598.311,-491.505 608.813,-494.524"/>
<polygon fill="midnightblue" stroke="midnightblue" points="607.884,-497.899 618.461,-497.293 609.814,-491.17 607.884,-497.899"/>
</g>
<!-- Node14&#45;&gt;Node8 -->
<g id="edge23" class="edge"><title>Node14&#45;&gt;Node8</title>
<path fill="none" stroke="midnightblue" d="M264.438,-380.266C282.003,-358.165 328.618,-304.524 382,-284 456.73,-255.269 552.649,-262.495 604.569,-269.655"/>
<polygon fill="midnightblue" stroke="midnightblue" points="604.252,-273.146 614.652,-271.122 605.26,-266.219 604.252,-273.146"/>
</g>
<!-- Node14&#45;&gt;Node12 -->
<g id="edge28" class="edge"><title>Node14&#45;&gt;Node12</title>
<path fill="none" stroke="midnightblue" d="M260.567,-399.704C276.139,-441.565 339.294,-606.06 382,-639 451.067,-692.272 559.918,-696.858 612.127,-695.613"/>
<polygon fill="midnightblue" stroke="midnightblue" points="612.494,-699.103 622.373,-695.274 612.263,-692.107 612.494,-699.103"/>
</g>
<!-- Node14&#45;&gt;Node13 -->
<g id="edge29" class="edge"><title>Node14&#45;&gt;Node13</title>
<path fill="none" stroke="midnightblue" d="M265.869,-380.439C284.868,-360.75 331.863,-316.171 382,-300 457.869,-275.529 552.591,-291.416 604.189,-303.671"/>
<polygon fill="midnightblue" stroke="midnightblue" points="603.672,-307.148 614.218,-306.138 605.344,-300.351 603.672,-307.148"/>
</g>
<!-- Node15 -->
<g id="node15" class="node"><title>Node15</title>
<g id="a_node15"><a xlink:href="../../df/dbf/glviewer_8cpp.html#a4ad68a10344bb285bd6d3f1d8c56732a" target="_top" xlink:title="squaredEuclideanDistance">
<polygon fill="white" stroke="black" points="576.5,-190.5 576.5,-209.5 709.5,-209.5 709.5,-190.5 576.5,-190.5"/>
<text text-anchor="middle" x="643" y="-197.5" font-family="Helvetica,sans-Serif" font-size="10.00">squaredEuclideanDistance</text>
</a>
</g>
</g>
<!-- Node14&#45;&gt;Node15 -->
<g id="edge24" class="edge"><title>Node14&#45;&gt;Node15</title>
<path fill="none" stroke="midnightblue" d="M263.259,-380.347C279.598,-355.979 326.168,-291.664 382,-260 438.784,-227.796 511.835,-212.866 566.039,-205.95"/>
<polygon fill="midnightblue" stroke="midnightblue" points="566.768,-209.387 576.275,-204.71 565.926,-202.438 566.768,-209.387"/>
</g>
<!-- Node16 -->
<g id="node16" class="node"><title>Node16</title>
<g id="a_node16"><a xlink:href="../../db/d4e/classGLViewer.html#adcd3bd4e3da810d6388889ba917607b9" target="_top" xlink:title="GLViewer::drawTriangle">
<polygon fill="white" stroke="black" points="400.5,-380.5 400.5,-399.5 521.5,-399.5 521.5,-380.5 400.5,-380.5"/>
<text text-anchor="middle" x="461" y="-387.5" font-family="Helvetica,sans-Serif" font-size="10.00">GLViewer::drawTriangle</text>
</a>
</g>
</g>
<!-- Node14&#45;&gt;Node16 -->
<g id="edge25" class="edge"><title>Node14&#45;&gt;Node16</title>
<path fill="none" stroke="midnightblue" d="M346.039,-390C360.783,-390 375.884,-390 390.071,-390"/>
<polygon fill="midnightblue" stroke="midnightblue" points="390.221,-393.5 400.221,-390 390.221,-386.5 390.221,-393.5"/>
</g>
<!-- Node16&#45;&gt;Node9 -->
<g id="edge26" class="edge"><title>Node16&#45;&gt;Node9</title>
<path fill="none" stroke="midnightblue" d="M507.422,-399.589C535.898,-405.601 572.34,-413.294 600.118,-419.158"/>
<polygon fill="midnightblue" stroke="midnightblue" points="599.423,-422.588 609.93,-421.23 600.868,-415.739 599.423,-422.588"/>
</g>
<!-- Node16&#45;&gt;Node11 -->
<g id="edge27" class="edge"><title>Node16&#45;&gt;Node11</title>
<path fill="none" stroke="midnightblue" d="M505.114,-399.558C516.87,-403.138 529.304,-407.873 540,-414 558.834,-424.789 557.069,-436.383 576,-447 584.172,-451.583 593.545,-455.143 602.613,-457.876"/>
<polygon fill="midnightblue" stroke="midnightblue" points="601.691,-461.252 612.261,-460.526 603.545,-454.502 601.691,-461.252"/>
</g>
<!-- Node17&#45;&gt;Node2 -->
<g id="edge33" class="edge"><title>Node17&#45;&gt;Node2</title>
<path fill="none" stroke="midnightblue" d="M258.697,-627.622C265.781,-664.581 296.705,-798.104 382,-853 443.333,-892.474 650.366,-906.996 710,-865 799.267,-802.136 810.823,-653.603 812.009,-599.852"/>
<polygon fill="midnightblue" stroke="midnightblue" points="815.511,-599.663 812.129,-589.623 808.512,-599.581 815.511,-599.663"/>
</g>
<!-- Node17&#45;&gt;Node3 -->
<g id="edge34" class="edge"><title>Node17&#45;&gt;Node3</title>
<path fill="none" stroke="midnightblue" d="M261.413,-627.864C274.718,-656.212 317.534,-737.806 382,-768 515.858,-830.696 615.71,-826.833 710,-713 791.443,-614.677 662.965,-524.983 746,-428 747.146,-426.661 748.38,-425.414 749.688,-424.251"/>
<polygon fill="midnightblue" stroke="midnightblue" points="751.721,-427.1 757.886,-418.483 747.693,-421.375 751.721,-427.1"/>
</g>
<!-- Node17&#45;&gt;Node5 -->
<g id="edge31" class="edge"><title>Node17&#45;&gt;Node5</title>
<path fill="none" stroke="midnightblue" d="M342.444,-618C422.86,-618 539.823,-618 601.089,-618"/>
<polygon fill="midnightblue" stroke="midnightblue" points="601.145,-621.5 611.145,-618 601.145,-614.5 601.145,-621.5"/>
</g>
<!-- Node17&#45;&gt;Node6 -->
<g id="edge32" class="edge"><title>Node17&#45;&gt;Node6</title>
<path fill="none" stroke="midnightblue" d="M274.107,-627.687C297.564,-640.359 341.433,-661.899 382,-670 459.138,-685.405 551.539,-673.399 602.813,-664.128"/>
<polygon fill="midnightblue" stroke="midnightblue" points="603.619,-667.538 612.806,-662.261 602.334,-660.657 603.619,-667.538"/>
</g>
<!-- Node17&#45;&gt;Node8 -->
<g id="edge35" class="edge"><title>Node17&#45;&gt;Node8</title>
<path fill="none" stroke="midnightblue" d="M261.617,-608.135C275.426,-578.432 317.234,-487.083 346,-409 364.514,-358.745 339.963,-327.185 382,-294 415.557,-267.509 541.255,-270.32 604.77,-273.608"/>
<polygon fill="midnightblue" stroke="midnightblue" points="604.597,-277.104 614.773,-274.157 604.98,-270.114 604.597,-277.104"/>
</g>
<!-- Node17&#45;&gt;Node9 -->
<g id="edge36" class="edge"><title>Node17&#45;&gt;Node9</title>
<path fill="none" stroke="midnightblue" d="M262.945,-608.448C278.882,-583.704 325.226,-517.214 382,-485 451.519,-445.555 545.79,-433.391 599.628,-429.65"/>
<polygon fill="midnightblue" stroke="midnightblue" points="600.077,-433.129 609.838,-429.009 599.638,-426.143 600.077,-433.129"/>
</g>
<!-- Node17&#45;&gt;Node12 -->
<g id="edge44" class="edge"><title>Node17&#45;&gt;Node12</title>
<path fill="none" stroke="midnightblue" d="M262.473,-627.53C277.589,-652.757 322.745,-721.043 382,-746 446.716,-773.257 471.72,-762.401 540,-746 569.365,-738.947 599.803,-721.949 619.696,-709.295"/>
<polygon fill="midnightblue" stroke="midnightblue" points="621.852,-712.067 628.308,-703.667 618.023,-706.208 621.852,-712.067"/>
</g>
<!-- Node17&#45;&gt;Node13 -->
<g id="edge45" class="edge"><title>Node17&#45;&gt;Node13</title>
<path fill="none" stroke="midnightblue" d="M261.07,-608.355C281.886,-559.062 375.726,-337.434 382,-333 448.495,-286.008 549.935,-295.68 604.366,-305.582"/>
<polygon fill="midnightblue" stroke="midnightblue" points="603.801,-309.038 614.282,-307.485 605.12,-302.163 603.801,-309.038"/>
</g>
<!-- Node18 -->
<g id="node18" class="node"><title>Node18</title>
<g id="a_node18"><a xlink:href="../../df/dbf/glviewer_8cpp.html#a338000f8831c8777185ae5abe744fba8" target="_top" xlink:title="From http://www.gamedev.net/topic/126624&#45;generating&#45;an&#45;ellipsoid&#45;in&#45;opengl/. ">
<polygon fill="white" stroke="black" points="424,-570.5 424,-589.5 498,-589.5 498,-570.5 424,-570.5"/>
<text text-anchor="middle" x="461" y="-577.5" font-family="Helvetica,sans-Serif" font-size="10.00">drawEllipsoid</text>
</a>
</g>
</g>
<!-- Node17&#45;&gt;Node18 -->
<g id="edge37" class="edge"><title>Node17&#45;&gt;Node18</title>
<path fill="none" stroke="midnightblue" d="M307.963,-608.46C340.498,-602.37 382.334,-594.538 413.882,-588.633"/>
<polygon fill="midnightblue" stroke="midnightblue" points="414.553,-592.068 423.738,-586.788 413.265,-585.188 414.553,-592.068"/>
</g>
<!-- Node19 -->
<g id="node19" class="node"><title>Node19</title>
<g id="a_node19"><a xlink:href="../../de/dd9/misc2_8h.html#a44186cfabec64587c7bc742ae9dab267" target="_top" xlink:title="depth_std_dev">
<polygon fill="white" stroke="black" points="603,-836.5 603,-855.5 683,-855.5 683,-836.5 603,-836.5"/>
<text text-anchor="middle" x="643" y="-843.5" font-family="Helvetica,sans-Serif" font-size="10.00">depth_std_dev</text>
</a>
</g>
</g>
<!-- Node17&#45;&gt;Node19 -->
<g id="edge41" class="edge"><title>Node17&#45;&gt;Node19</title>
<path fill="none" stroke="midnightblue" d="M259.622,-627.914C269.205,-661.959 305.821,-774.605 382,-822 446.316,-862.015 537.445,-860.017 592.982,-853.804"/>
<polygon fill="midnightblue" stroke="midnightblue" points="593.414,-857.277 602.923,-852.604 592.575,-850.328 593.414,-857.277"/>
</g>
<!-- Node18&#45;&gt;Node7 -->
<g id="edge38" class="edge"><title>Node18&#45;&gt;Node7</title>
<path fill="none" stroke="midnightblue" d="M484.797,-570.375C516.445,-557.012 573.852,-532.773 609.844,-517.577"/>
<polygon fill="midnightblue" stroke="midnightblue" points="611.537,-520.661 619.388,-513.547 608.814,-514.213 611.537,-520.661"/>
</g>
<!-- Node18&#45;&gt;Node11 -->
<g id="edge39" class="edge"><title>Node18&#45;&gt;Node11</title>
<path fill="none" stroke="midnightblue" d="M476.686,-570.444C492.829,-559.678 519.226,-541.284 540,-523 557.463,-507.629 556.122,-497.088 576,-485 584.08,-480.086 593.489,-476.394 602.627,-473.637"/>
<polygon fill="midnightblue" stroke="midnightblue" points="603.624,-476.993 612.361,-471 601.794,-470.237 603.624,-476.993"/>
</g>
<!-- Node18&#45;&gt;Node12 -->
<g id="edge40" class="edge"><title>Node18&#45;&gt;Node12</title>
<path fill="none" stroke="midnightblue" d="M470.773,-589.603C488.703,-608.665 531.615,-651.467 576,-675 587.325,-681.005 600.778,-685.317 612.575,-688.299"/>
<polygon fill="midnightblue" stroke="midnightblue" points="611.887,-691.733 622.419,-690.587 613.471,-684.914 611.887,-691.733"/>
</g>
<!-- Node19&#45;&gt;Node2 -->
<g id="edge42" class="edge"><title>Node19&#45;&gt;Node2</title>
<path fill="none" stroke="midnightblue" d="M683.295,-837.615C692.922,-834.068 702.579,-829.058 710,-822 776.394,-758.853 801.405,-645.712 809.09,-599.987"/>
<polygon fill="midnightblue" stroke="midnightblue" points="812.583,-600.309 810.686,-589.886 805.668,-599.217 812.583,-600.309"/>
</g>
<!-- Node19&#45;&gt;Node3 -->
<g id="edge43" class="edge"><title>Node19&#45;&gt;Node3</title>
<path fill="none" stroke="midnightblue" d="M683.159,-839.658C693.381,-836.115 703.376,-830.595 710,-822 763.667,-752.359 689.981,-495.763 746,-428 747.021,-426.765 748.116,-425.607 749.276,-424.522"/>
<polygon fill="midnightblue" stroke="midnightblue" points="751.715,-427.076 757.745,-418.365 747.599,-421.415 751.715,-427.076"/>
</g>
<!-- Node20&#45;&gt;Node2 -->
<g id="edge48" class="edge"><title>Node20&#45;&gt;Node2</title>
<path fill="none" stroke="midnightblue" d="M507.585,-361.511C576.924,-376.116 701.775,-403.01 710,-409 713.556,-411.59 775.974,-518.223 801.376,-561.766"/>
<polygon fill="midnightblue" stroke="midnightblue" points="798.403,-563.615 806.463,-570.491 804.45,-560.089 798.403,-563.615"/>
</g>
<!-- Node20&#45;&gt;Node3 -->
<g id="edge49" class="edge"><title>Node20&#45;&gt;Node3</title>
<path fill="none" stroke="midnightblue" d="M536.147,-354.978C585.763,-357.994 652.293,-364.02 710,-376 733.229,-380.822 758.613,-389.023 778.248,-396.043"/>
<polygon fill="midnightblue" stroke="midnightblue" points="777.075,-399.341 787.669,-399.478 779.473,-392.765 777.075,-399.341"/>
</g>
<!-- Node20&#45;&gt;Node5 -->
<g id="edge47" class="edge"><title>Node20&#45;&gt;Node5</title>
<path fill="none" stroke="midnightblue" d="M527.233,-361.695C531.923,-364.183 536.267,-367.243 540,-371 588.934,-420.247 547.7,-459.606 576,-523 589.156,-552.47 611.803,-582.377 626.841,-600.559"/>
<polygon fill="midnightblue" stroke="midnightblue" points="624.411,-603.107 633.537,-608.49 629.76,-598.591 624.411,-603.107"/>
</g>
<!-- Node20&#45;&gt;Node6 -->
<g id="edge50" class="edge"><title>Node20&#45;&gt;Node6</title>
<path fill="none" stroke="midnightblue" d="M528.006,-361.511C532.466,-364.047 536.549,-367.168 540,-371 619.841,-459.645 498.009,-546.723 576,-637 582.84,-644.918 592.745,-649.64 602.811,-652.427"/>
<polygon fill="midnightblue" stroke="midnightblue" points="602.306,-655.899 612.823,-654.615 603.801,-649.06 602.306,-655.899"/>
</g>
<!-- Node20&#45;&gt;Node7 -->
<g id="edge53" class="edge"><title>Node20&#45;&gt;Node7</title>
<path fill="none" stroke="midnightblue" d="M526.186,-361.62C531.224,-364.11 535.928,-367.192 540,-371 578.807,-407.292 537.952,-447.913 576,-485 584.717,-493.497 596.978,-498.239 608.571,-500.869"/>
<polygon fill="midnightblue" stroke="midnightblue" points="608.013,-504.325 618.479,-502.678 609.271,-497.439 608.013,-504.325"/>
</g>
<!-- Node20&#45;&gt;Node8 -->
<g id="edge51" class="edge"><title>Node20&#45;&gt;Node8</title>
<path fill="none" stroke="midnightblue" d="M478.933,-342.298C500.813,-330.053 540.337,-308.913 576,-295 585.316,-291.365 595.612,-288.073 605.245,-285.289"/>
<polygon fill="midnightblue" stroke="midnightblue" points="606.282,-288.633 614.976,-282.578 604.403,-281.89 606.282,-288.633"/>
</g>
<!-- Node20&#45;&gt;Node9 -->
<g id="edge54" class="edge"><title>Node20&#45;&gt;Node9</title>
<path fill="none" stroke="midnightblue" d="M516.594,-361.557C524.693,-364.03 532.746,-367.127 540,-371 559.147,-381.223 557.443,-392.741 576,-404 583.492,-408.546 591.98,-412.431 600.313,-415.668"/>
<polygon fill="midnightblue" stroke="midnightblue" points="599.363,-419.046 609.957,-419.171 601.753,-412.467 599.363,-419.046"/>
</g>
<!-- Node20&#45;&gt;Node11 -->
<g id="edge55" class="edge"><title>Node20&#45;&gt;Node11</title>
<path fill="none" stroke="midnightblue" d="M524.098,-361.54C529.822,-364.023 535.246,-367.126 540,-371 568.976,-394.608 547.519,-422.798 576,-447 583.485,-453.361 592.988,-457.595 602.434,-460.414"/>
<polygon fill="midnightblue" stroke="midnightblue" points="601.619,-463.817 612.171,-462.867 603.33,-457.03 601.619,-463.817"/>
</g>
<!-- Node20&#45;&gt;Node12 -->
<g id="edge56" class="edge"><title>Node20&#45;&gt;Node12</title>
<path fill="none" stroke="midnightblue" d="M528.436,-361.657C532.74,-364.169 536.673,-367.244 540,-371 630.209,-472.849 487.916,-571.307 576,-675 584.954,-685.541 599.343,-690.43 612.405,-692.626"/>
<polygon fill="midnightblue" stroke="midnightblue" points="612.112,-696.116 622.465,-693.865 612.968,-689.168 612.112,-696.116"/>
</g>
<!-- Node20&#45;&gt;Node13 -->
<g id="edge57" class="edge"><title>Node20&#45;&gt;Node13</title>
<path fill="none" stroke="midnightblue" d="M507.422,-342.411C537.382,-336.086 576.16,-327.9 604.389,-321.94"/>
<polygon fill="midnightblue" stroke="midnightblue" points="605.214,-325.343 614.276,-319.853 603.768,-318.494 605.214,-325.343"/>
</g>
<!-- Node20&#45;&gt;Node15 -->
<g id="edge52" class="edge"><title>Node20&#45;&gt;Node15</title>
<path fill="none" stroke="midnightblue" d="M473.26,-342.492C503.312,-317.114 585.668,-247.569 623.071,-215.984"/>
<polygon fill="midnightblue" stroke="midnightblue" points="625.362,-218.631 630.744,-209.505 620.846,-213.282 625.362,-218.631"/>
</g>
</g>
</svg>
