<?xml version="1.0" encoding="UTF-8" standalone="no"?>
<!DOCTYPE svg PUBLIC "-//W3C//DTD SVG 1.1//EN"
 "http://www.w3.org/Graphics/SVG/1.1/DTD/svg11.dtd">
<!-- Generated by graphviz version 2.36.0 (20140111.2315)
 -->
<!-- Title: GLViewer::drawClouds Pages: 1 -->
<svg width="484pt" height="682pt"
 viewBox="0.00 0.00 484.00 681.94" xmlns="http://www.w3.org/2000/svg" xmlns:xlink="http://www.w3.org/1999/xlink">
<g id="graph0" class="graph" transform="scale(1 1) rotate(0) translate(4 677.937)">
<title>GLViewer::drawClouds</title>
<polygon fill="white" stroke="none" points="-4,4 -4,-677.937 480,-677.937 480,4 -4,4"/>
<!-- Node1 -->
<g id="node1" class="node"><title>Node1</title>
<polygon fill="#bfbfbf" stroke="black" points="0.5,-293.437 0.5,-312.437 117.5,-312.437 117.5,-293.437 0.5,-293.437"/>
<text text-anchor="middle" x="59" y="-300.437" font-family="Helvetica,sans-Serif" font-size="10.00">GLViewer::drawClouds</text>
</g>
<!-- Node2 -->
<g id="node2" class="node"><title>Node2</title>
<g id="a_node2"><a xlink:href="../../d3/d3e/classParameterServer.html#a5457f900e543c5a466bf9b65ee6bc577" target="_top" xlink:title="ParameterServer::instance">
<polygon fill="white" stroke="black" points="342.5,-654.437 342.5,-673.437 475.5,-673.437 475.5,-654.437 342.5,-654.437"/>
<text text-anchor="middle" x="409" y="-661.437" font-family="Helvetica,sans-Serif" font-size="10.00">ParameterServer::instance</text>
</a>
</g>
</g>
<!-- Node1&#45;&gt;Node2 -->
<g id="edge1" class="edge"><title>Node1&#45;&gt;Node2</title>
<path fill="none" stroke="midnightblue" d="M60.6352,-312.619C63.631,-350.589 79.5195,-491.068 154,-568.937 201.123,-618.205 276.205,-642.132 332.539,-653.623"/>
<polygon fill="midnightblue" stroke="midnightblue" points="331.988,-657.081 342.473,-655.561 333.328,-650.211 331.988,-657.081"/>
</g>
<!-- Node3 -->
<g id="node3" class="node"><title>Node3</title>
<g id="a_node3"><a xlink:href="../../da/d33/glew_8h.html#acfd692f7e3361a218a542300f35ea816" target="_top" xlink:title="glDisable">
<polygon fill="white" stroke="black" points="380.5,-236.437 380.5,-255.437 437.5,-255.437 437.5,-236.437 380.5,-236.437"/>
<text text-anchor="middle" x="409" y="-243.437" font-family="Helvetica,sans-Serif" font-size="10.00">glDisable</text>
</a>
</g>
</g>
<!-- Node1&#45;&gt;Node3 -->
<g id="edge2" class="edge"><title>Node1&#45;&gt;Node3</title>
<path fill="none" stroke="midnightblue" d="M117.739,-294.533C167.644,-287.146 241.672,-275.894 306,-264.937 327.374,-261.296 351.198,-256.879 370.443,-253.22"/>
<polygon fill="midnightblue" stroke="midnightblue" points="371.169,-256.645 380.335,-251.33 369.855,-249.769 371.169,-256.645"/>
</g>
<!-- Node4 -->
<g id="node4" class="node"><title>Node4</title>
<g id="a_node4"><a xlink:href="../../da/d33/glew_8h.html#a6577472f85b23086331edadaf0311a49" target="_top" xlink:title="glLoadIdentity">
<polygon fill="white" stroke="black" points="191.5,-236.437 191.5,-255.437 268.5,-255.437 268.5,-236.437 191.5,-236.437"/>
<text text-anchor="middle" x="230" y="-243.437" font-family="Helvetica,sans-Serif" font-size="10.00">glLoadIdentity</text>
</a>
</g>
</g>
<!-- Node1&#45;&gt;Node4 -->
<g id="edge3" class="edge"><title>Node1&#45;&gt;Node4</title>
<path fill="none" stroke="midnightblue" d="M86.6735,-293.35C105.453,-286.655 131.207,-277.583 154,-269.937 165.328,-266.137 177.663,-262.134 188.997,-258.51"/>
<polygon fill="midnightblue" stroke="midnightblue" points="190.182,-261.806 198.649,-255.438 188.058,-255.136 190.182,-261.806"/>
</g>
<!-- Node5 -->
<g id="node5" class="node"><title>Node5</title>
<g id="a_node5"><a xlink:href="../../da/d33/glew_8h.html#a078179cbd4f3f1768197c92ad55c6bb5" target="_top" xlink:title="glTranslatef">
<polygon fill="white" stroke="black" points="196,-198.437 196,-217.437 264,-217.437 264,-198.437 196,-198.437"/>
<text text-anchor="middle" x="230" y="-205.437" font-family="Helvetica,sans-Serif" font-size="10.00">glTranslatef</text>
</a>
</g>
</g>
<!-- Node1&#45;&gt;Node5 -->
<g id="edge4" class="edge"><title>Node1&#45;&gt;Node5</title>
<path fill="none" stroke="midnightblue" d="M68.9054,-293.436C84.5615,-277.305 118.718,-244.594 154,-226.937 163.831,-222.017 175.042,-218.301 185.745,-215.522"/>
<polygon fill="midnightblue" stroke="midnightblue" points="186.87,-218.852 195.79,-213.136 185.252,-212.042 186.87,-218.852"/>
</g>
<!-- Node6 -->
<g id="node6" class="node"><title>Node6</title>
<g id="a_node6"><a xlink:href="../../db/d4e/classGLViewer.html#a6a94d39ea76a0e6de731ad2369a642a6" target="_top" xlink:title="GLViewer::drawNavigationAxis">
<polygon fill="white" stroke="black" points="154,-350.437 154,-369.437 306,-369.437 306,-350.437 154,-350.437"/>
<text text-anchor="middle" x="230" y="-357.437" font-family="Helvetica,sans-Serif" font-size="10.00">GLViewer::drawNavigationAxis</text>
</a>
</g>
</g>
<!-- Node1&#45;&gt;Node6 -->
<g id="edge5" class="edge"><title>Node1&#45;&gt;Node6</title>
<path fill="none" stroke="midnightblue" d="M86.6735,-312.524C105.453,-319.219 131.207,-328.291 154,-335.937 165.328,-339.737 177.663,-343.74 188.997,-347.364"/>
<polygon fill="midnightblue" stroke="midnightblue" points="188.058,-350.738 198.649,-350.437 190.182,-344.068 188.058,-350.738"/>
</g>
<!-- Node7 -->
<g id="node7" class="node"><title>Node7</title>
<g id="a_node7"><a xlink:href="../../da/d33/glew_8h.html#a1beaf822e5a901dc3fe429b68efb77d4" target="_top" xlink:title="glEnable">
<polygon fill="white" stroke="black" points="382,-388.437 382,-407.437 436,-407.437 436,-388.437 382,-388.437"/>
<text text-anchor="middle" x="409" y="-395.437" font-family="Helvetica,sans-Serif" font-size="10.00">glEnable</text>
</a>
</g>
</g>
<!-- Node1&#45;&gt;Node7 -->
<g id="edge45" class="edge"><title>Node1&#45;&gt;Node7</title>
<path fill="none" stroke="midnightblue" d="M68.1305,-312.558C83.107,-329.499 116.931,-364.248 154,-378.937 226.923,-407.834 320.737,-405.808 371.481,-401.838"/>
<polygon fill="midnightblue" stroke="midnightblue" points="371.966,-405.309 381.632,-400.972 371.371,-398.335 371.966,-405.309"/>
</g>
<!-- Node12 -->
<g id="node12" class="node"><title>Node12</title>
<g id="a_node12"><a xlink:href="../../da/d33/glew_8h.html#ab7849dc11574cfb61a713688f713dd8d" target="_top" xlink:title="glRotatef">
<polygon fill="white" stroke="black" points="202,-160.437 202,-179.437 258,-179.437 258,-160.437 202,-160.437"/>
<text text-anchor="middle" x="230" y="-167.437" font-family="Helvetica,sans-Serif" font-size="10.00">glRotatef</text>
</a>
</g>
</g>
<!-- Node1&#45;&gt;Node12 -->
<g id="edge11" class="edge"><title>Node1&#45;&gt;Node12</title>
<path fill="none" stroke="midnightblue" d="M65.1208,-293.233C77.3361,-271.071 110.444,-216.53 154,-188.937 165.281,-181.79 179.112,-177.329 191.811,-174.545"/>
<polygon fill="midnightblue" stroke="midnightblue" points="192.52,-177.973 201.682,-172.653 191.202,-171.098 192.52,-177.973"/>
</g>
<!-- Node13 -->
<g id="node13" class="node"><title>Node13</title>
<g id="a_node13"><a xlink:href="../../da/d33/glew_8h.html#a5c675407cfada4e8406692a62a361aae" target="_top" xlink:title="glMultMatrixd">
<polygon fill="white" stroke="black" points="371.5,-122.437 371.5,-141.437 446.5,-141.437 446.5,-122.437 371.5,-122.437"/>
<text text-anchor="middle" x="409" y="-129.437" font-family="Helvetica,sans-Serif" font-size="10.00">glMultMatrixd</text>
</a>
</g>
</g>
<!-- Node1&#45;&gt;Node13 -->
<g id="edge12" class="edge"><title>Node1&#45;&gt;Node13</title>
<path fill="none" stroke="midnightblue" d="M62.62,-293.254C70.7323,-265.375 98.3092,-184.761 154,-150.937 217.558,-112.335 307.216,-116.249 361.259,-123.479"/>
<polygon fill="midnightblue" stroke="midnightblue" points="360.853,-126.957 371.248,-124.908 361.844,-120.027 360.853,-126.957"/>
</g>
<!-- Node14 -->
<g id="node14" class="node"><title>Node14</title>
<g id="a_node14"><a xlink:href="../../db/d4e/classGLViewer.html#ab5aacb367d8c10d114bc226f5b3ce724" target="_top" xlink:title="Draw size x size grid into world coordinate system. ">
<polygon fill="white" stroke="black" points="178,-540.437 178,-559.437 282,-559.437 282,-540.437 178,-540.437"/>
<text text-anchor="middle" x="230" y="-547.437" font-family="Helvetica,sans-Serif" font-size="10.00">GLViewer::drawGrid</text>
</a>
</g>
</g>
<!-- Node1&#45;&gt;Node14 -->
<g id="edge13" class="edge"><title>Node1&#45;&gt;Node14</title>
<path fill="none" stroke="midnightblue" d="M60.9356,-312.477C64.8923,-347.456 83.4559,-469.819 154,-530.937 158.251,-534.62 163.118,-537.607 168.286,-540.026"/>
<polygon fill="midnightblue" stroke="midnightblue" points="167.258,-543.383 177.845,-543.796 169.827,-536.871 167.258,-543.383"/>
</g>
<!-- Node16 -->
<g id="node16" class="node"><title>Node16</title>
<g id="a_node16"><a xlink:href="../../d3/d3e/classParameterServer.html#a3c8af50664e423b555bbb1874f488413" target="_top" xlink:title="ParameterServer::get">
<polygon fill="white" stroke="black" points="354,-274.437 354,-293.437 464,-293.437 464,-274.437 354,-274.437"/>
<text text-anchor="middle" x="409" y="-281.437" font-family="Helvetica,sans-Serif" font-size="10.00">ParameterServer::get</text>
</a>
</g>
</g>
<!-- Node1&#45;&gt;Node16 -->
<g id="edge28" class="edge"><title>Node1&#45;&gt;Node16</title>
<path fill="none" stroke="midnightblue" d="M117.751,-303.652C167.663,-303.819 241.695,-302.987 306,-297.937 318.303,-296.971 331.389,-295.508 343.941,-293.886"/>
<polygon fill="midnightblue" stroke="midnightblue" points="344.42,-297.353 353.868,-292.557 343.492,-290.415 344.42,-297.353"/>
</g>
<!-- Node19 -->
<g id="node19" class="node"><title>Node19</title>
<g id="a_node19"><a xlink:href="../../db/d4e/classGLViewer.html#a398bdda625770255c34eac79e379720c" target="_top" xlink:title="Draw colored axis, scale long. ">
<polygon fill="white" stroke="black" points="175.5,-502.437 175.5,-521.437 284.5,-521.437 284.5,-502.437 175.5,-502.437"/>
<text text-anchor="middle" x="230" y="-509.437" font-family="Helvetica,sans-Serif" font-size="10.00">GLViewer::drawAxes</text>
</a>
</g>
</g>
<!-- Node1&#45;&gt;Node19 -->
<g id="edge21" class="edge"><title>Node1&#45;&gt;Node19</title>
<path fill="none" stroke="midnightblue" d="M61.8142,-312.604C68.2153,-343.923 92.748,-443.431 154,-492.937 157.722,-495.945 161.86,-498.484 166.227,-500.626"/>
<polygon fill="midnightblue" stroke="midnightblue" points="164.875,-503.854 175.451,-504.488 167.579,-497.397 164.875,-503.854"/>
</g>
<!-- Node20 -->
<g id="node20" class="node"><title>Node20</title>
<g id="a_node20"><a xlink:href="../../da/d33/glew_8h.html#ae9e165c507000556a24b1ce329aadd15" target="_top" xlink:title="glColor4f">
<polygon fill="white" stroke="black" points="381,-426.437 381,-445.437 437,-445.437 437,-426.437 381,-426.437"/>
<text text-anchor="middle" x="409" y="-433.437" font-family="Helvetica,sans-Serif" font-size="10.00">glColor4f</text>
</a>
</g>
</g>
<!-- Node1&#45;&gt;Node20 -->
<g id="edge43" class="edge"><title>Node1&#45;&gt;Node20</title>
<path fill="none" stroke="midnightblue" d="M65.5631,-312.603C78.2101,-333.565 111.358,-383.071 154,-404.937 224.082,-440.874 318.913,-441.904 370.603,-439.14"/>
<polygon fill="midnightblue" stroke="midnightblue" points="370.883,-442.629 380.65,-438.524 370.455,-435.642 370.883,-442.629"/>
</g>
<!-- Node21 -->
<g id="node21" class="node"><title>Node21</title>
<g id="a_node21"><a xlink:href="../../db/d4e/classGLViewer.html#a2b01f7d8a4aae0fbbdfeb65176ac1b90" target="_top" xlink:title="Draw one of the clouds with the given list index. ">
<polygon fill="white" stroke="black" points="165,-46.4371 165,-65.4371 295,-65.4371 295,-46.4371 165,-46.4371"/>
<text text-anchor="middle" x="230" y="-53.4371" font-family="Helvetica,sans-Serif" font-size="10.00">GLViewer::drawOneCloud</text>
</a>
</g>
</g>
<!-- Node1&#45;&gt;Node21 -->
<g id="edge29" class="edge"><title>Node1&#45;&gt;Node21</title>
<path fill="none" stroke="midnightblue" d="M61.1958,-293.271C65.9601,-258.914 86.7216,-141.466 154,-79.9371 158.459,-75.8588 163.615,-72.4733 169.093,-69.663"/>
<polygon fill="midnightblue" stroke="midnightblue" points="170.837,-72.718 178.551,-65.4557 167.992,-66.3222 170.837,-72.718"/>
</g>
<!-- Node22 -->
<g id="node22" class="node"><title>Node22</title>
<g id="a_node22"><a xlink:href="../../da/d33/glew_8h.html#a64e877be265de9d7e1e8e479768cc86c" target="_top" xlink:title="glPushMatrix">
<polygon fill="white" stroke="black" points="372,-84.4371 372,-103.437 446,-103.437 446,-84.4371 372,-84.4371"/>
<text text-anchor="middle" x="409" y="-91.4371" font-family="Helvetica,sans-Serif" font-size="10.00">glPushMatrix</text>
</a>
</g>
</g>
<!-- Node1&#45;&gt;Node22 -->
<g id="edge42" class="edge"><title>Node1&#45;&gt;Node22</title>
<path fill="none" stroke="midnightblue" d="M61.4363,-293.339C66.7826,-261.369 88.7022,-158.03 154,-113.937 215.991,-72.0779 306.913,-76.7925 361.497,-84.8165"/>
<polygon fill="midnightblue" stroke="midnightblue" points="361.159,-88.3061 371.58,-86.3975 362.243,-81.3906 361.159,-88.3061"/>
</g>
<!-- Node24 -->
<g id="node24" class="node"><title>Node24</title>
<g id="a_node24"><a xlink:href="../../da/d33/glew_8h.html#a9e424a5503edd5a5b76442b503661afe" target="_top" xlink:title="glPopMatrix">
<polygon fill="white" stroke="black" points="375,-8.43711 375,-27.4371 443,-27.4371 443,-8.43711 375,-8.43711"/>
<text text-anchor="middle" x="409" y="-15.4371" font-family="Helvetica,sans-Serif" font-size="10.00">glPopMatrix</text>
</a>
</g>
</g>
<!-- Node1&#45;&gt;Node24 -->
<g id="edge44" class="edge"><title>Node1&#45;&gt;Node24</title>
<path fill="none" stroke="midnightblue" d="M59.9661,-293.337C60.4015,-253.836 67.8235,-102.842 154,-36.9371 214.883,9.62451 309.761,1.84544 364.69,-8.03451"/>
<polygon fill="midnightblue" stroke="midnightblue" points="364.315,-11.5258 374.793,-9.95697 365.623,-4.64923 364.315,-11.5258"/>
</g>
<!-- Node25 -->
<g id="node25" class="node"><title>Node25</title>
<g id="a_node25"><a xlink:href="../../db/d4e/classGLViewer.html#aadb126c769077e0a3d7f9edc51a1f36d" target="_top" xlink:title="Draw pose graph edges in opengl. ">
<polygon fill="white" stroke="black" points="173,-464.437 173,-483.437 287,-483.437 287,-464.437 173,-464.437"/>
<text text-anchor="middle" x="230" y="-471.437" font-family="Helvetica,sans-Serif" font-size="10.00">GLViewer::drawEdges</text>
</a>
</g>
</g>
<!-- Node1&#45;&gt;Node25 -->
<g id="edge34" class="edge"><title>Node1&#45;&gt;Node25</title>
<path fill="none" stroke="midnightblue" d="M63.4078,-312.451C73.2184,-338.486 104.061,-411.516 154,-449.937 159.533,-454.194 165.842,-457.707 172.399,-460.605"/>
<polygon fill="midnightblue" stroke="midnightblue" points="171.532,-464.025 182.119,-464.424 174.092,-457.509 171.532,-464.025"/>
</g>
<!-- Node6&#45;&gt;Node7 -->
<g id="edge6" class="edge"><title>Node6&#45;&gt;Node7</title>
<path fill="none" stroke="midnightblue" d="M275.665,-369.526C305.36,-375.901 343.863,-384.168 371.675,-390.139"/>
<polygon fill="midnightblue" stroke="midnightblue" points="371.258,-393.629 381.77,-392.306 372.727,-386.785 371.258,-393.629"/>
</g>
<!-- Node8 -->
<g id="node8" class="node"><title>Node8</title>
<g id="a_node8"><a xlink:href="../../da/d33/glew_8h.html#a98964453975519f92d6cc59ef77f7436" target="_top" xlink:title="glBegin">
<polygon fill="white" stroke="black" points="384.5,-502.437 384.5,-521.437 433.5,-521.437 433.5,-502.437 384.5,-502.437"/>
<text text-anchor="middle" x="409" y="-509.437" font-family="Helvetica,sans-Serif" font-size="10.00">glBegin</text>
</a>
</g>
</g>
<!-- Node6&#45;&gt;Node8 -->
<g id="edge7" class="edge"><title>Node6&#45;&gt;Node8</title>
<path fill="none" stroke="midnightblue" d="M238.527,-369.602C261.287,-398.734 328.648,-484.231 342,-492.937 351.613,-499.205 363.326,-503.445 374.201,-506.297"/>
<polygon fill="midnightblue" stroke="midnightblue" points="373.745,-509.784 384.276,-508.626 375.322,-502.964 373.745,-509.784"/>
</g>
<!-- Node9 -->
<g id="node9" class="node"><title>Node9</title>
<g id="a_node9"><a xlink:href="../../da/d33/glew_8h.html#a40ebb0da5ec243b569ee26f6b2f1f5ef" target="_top" xlink:title="glColor3fv">
<polygon fill="white" stroke="black" points="378.5,-350.437 378.5,-369.437 439.5,-369.437 439.5,-350.437 378.5,-350.437"/>
<text text-anchor="middle" x="409" y="-357.437" font-family="Helvetica,sans-Serif" font-size="10.00">glColor3fv</text>
</a>
</g>
</g>
<!-- Node6&#45;&gt;Node9 -->
<g id="edge8" class="edge"><title>Node6&#45;&gt;Node9</title>
<path fill="none" stroke="midnightblue" d="M306.064,-359.937C327.429,-359.937 349.864,-359.937 368.231,-359.937"/>
<polygon fill="midnightblue" stroke="midnightblue" points="368.259,-363.437 378.259,-359.937 368.259,-356.437 368.259,-363.437"/>
</g>
<!-- Node10 -->
<g id="node10" class="node"><title>Node10</title>
<g id="a_node10"><a xlink:href="../../da/d33/glew_8h.html#a9b4edc193aaaed4a2d4f18633f07ad03" target="_top" xlink:title="glVertex3fv">
<polygon fill="white" stroke="black" points="376,-312.437 376,-331.437 442,-331.437 442,-312.437 376,-312.437"/>
<text text-anchor="middle" x="409" y="-319.437" font-family="Helvetica,sans-Serif" font-size="10.00">glVertex3fv</text>
</a>
</g>
</g>
<!-- Node6&#45;&gt;Node10 -->
<g id="edge9" class="edge"><title>Node6&#45;&gt;Node10</title>
<path fill="none" stroke="midnightblue" d="M275.665,-350.348C303.362,-344.402 338.722,-336.81 365.922,-330.971"/>
<polygon fill="midnightblue" stroke="midnightblue" points="366.872,-334.347 375.915,-328.826 365.403,-327.503 366.872,-334.347"/>
</g>
<!-- Node11 -->
<g id="node11" class="node"><title>Node11</title>
<g id="a_node11"><a xlink:href="../../da/d33/glew_8h.html#abbff207d1fa71b296ff35b149cef7238" target="_top" xlink:title="glEnd">
<polygon fill="white" stroke="black" points="388.5,-464.437 388.5,-483.437 429.5,-483.437 429.5,-464.437 388.5,-464.437"/>
<text text-anchor="middle" x="409" y="-471.437" font-family="Helvetica,sans-Serif" font-size="10.00">glEnd</text>
</a>
</g>
</g>
<!-- Node6&#45;&gt;Node11 -->
<g id="edge10" class="edge"><title>Node6&#45;&gt;Node11</title>
<path fill="none" stroke="midnightblue" d="M239.486,-369.553C256.844,-388.638 298.454,-431.481 342,-454.937 353.286,-461.016 366.732,-465.34 378.534,-468.311"/>
<polygon fill="midnightblue" stroke="midnightblue" points="377.856,-471.747 388.387,-470.584 379.43,-464.926 377.856,-471.747"/>
</g>
<!-- Node14&#45;&gt;Node2 -->
<g id="edge16" class="edge"><title>Node14&#45;&gt;Node2</title>
<path fill="none" stroke="midnightblue" d="M243.108,-559.63C258.068,-571.677 284.212,-592.967 306,-611.937 322.37,-626.19 323.069,-634.32 342,-644.937 345.968,-647.163 350.22,-649.147 354.582,-650.912"/>
<polygon fill="midnightblue" stroke="midnightblue" points="353.647,-654.297 364.241,-654.436 356.046,-647.721 353.647,-654.297"/>
</g>
<!-- Node14&#45;&gt;Node8 -->
<g id="edge14" class="edge"><title>Node14&#45;&gt;Node8</title>
<path fill="none" stroke="midnightblue" d="M275.665,-540.348C306.177,-533.797 345.99,-525.25 373.947,-519.248"/>
<polygon fill="midnightblue" stroke="midnightblue" points="374.994,-522.603 384.037,-517.082 373.525,-515.759 374.994,-522.603"/>
</g>
<!-- Node14&#45;&gt;Node11 -->
<g id="edge20" class="edge"><title>Node14&#45;&gt;Node11</title>
<path fill="none" stroke="midnightblue" d="M282.161,-541.121C290.451,-538.541 298.7,-535.217 306,-530.937 326.07,-519.171 322.122,-505.025 342,-492.937 353.032,-486.229 366.539,-481.796 378.454,-478.914"/>
<polygon fill="midnightblue" stroke="midnightblue" points="379.377,-482.296 388.413,-476.763 377.899,-475.453 379.377,-482.296"/>
</g>
<!-- Node15 -->
<g id="node15" class="node"><title>Node15</title>
<g id="a_node15"><a xlink:href="../../da/d33/glew_8h.html#a8ac47f6bf1d1c4699a40b5458db28833" target="_top" xlink:title="glLineWidth">
<polygon fill="white" stroke="black" points="375,-578.437 375,-597.437 443,-597.437 443,-578.437 375,-578.437"/>
<text text-anchor="middle" x="409" y="-585.437" font-family="Helvetica,sans-Serif" font-size="10.00">glLineWidth</text>
</a>
</g>
</g>
<!-- Node14&#45;&gt;Node15 -->
<g id="edge15" class="edge"><title>Node14&#45;&gt;Node15</title>
<path fill="none" stroke="midnightblue" d="M275.665,-559.526C302.998,-565.394 337.796,-572.865 364.848,-578.673"/>
<polygon fill="midnightblue" stroke="midnightblue" points="364.293,-582.133 374.805,-580.811 365.763,-575.289 364.293,-582.133"/>
</g>
<!-- Node14&#45;&gt;Node16 -->
<g id="edge17" class="edge"><title>Node14&#45;&gt;Node16</title>
<path fill="none" stroke="midnightblue" d="M282.207,-545.422C291.183,-542.451 299.662,-537.883 306,-530.937 375.147,-455.154 274.081,-379.823 342,-302.937 343.167,-301.616 344.419,-300.385 345.743,-299.236"/>
<polygon fill="midnightblue" stroke="midnightblue" points="347.769,-302.09 354.01,-293.529 343.792,-296.329 347.769,-302.09"/>
</g>
<!-- Node17 -->
<g id="node17" class="node"><title>Node17</title>
<g id="a_node17"><a xlink:href="../../da/d33/glew_8h.html#acee7240272b34e83a4567a1fb586be99" target="_top" xlink:title="glColor3f">
<polygon fill="white" stroke="black" points="381,-616.437 381,-635.437 437,-635.437 437,-616.437 381,-616.437"/>
<text text-anchor="middle" x="409" y="-623.437" font-family="Helvetica,sans-Serif" font-size="10.00">glColor3f</text>
</a>
</g>
</g>
<!-- Node14&#45;&gt;Node17 -->
<g id="edge18" class="edge"><title>Node14&#45;&gt;Node17</title>
<path fill="none" stroke="midnightblue" d="M247.084,-559.46C268.272,-571.707 306.958,-593.048 342,-606.937 351.296,-610.622 361.585,-613.931 371.219,-616.716"/>
<polygon fill="midnightblue" stroke="midnightblue" points="370.379,-620.115 380.951,-619.422 372.254,-613.371 370.379,-620.115"/>
</g>
<!-- Node18 -->
<g id="node18" class="node"><title>Node18</title>
<g id="a_node18"><a xlink:href="../../da/d33/glew_8h.html#a9a95e17961303a80a5bf052b8c1cf677" target="_top" xlink:title="glVertex3f">
<polygon fill="white" stroke="black" points="378.5,-540.437 378.5,-559.437 439.5,-559.437 439.5,-540.437 378.5,-540.437"/>
<text text-anchor="middle" x="409" y="-547.437" font-family="Helvetica,sans-Serif" font-size="10.00">glVertex3f</text>
</a>
</g>
</g>
<!-- Node14&#45;&gt;Node18 -->
<g id="edge19" class="edge"><title>Node14&#45;&gt;Node18</title>
<path fill="none" stroke="midnightblue" d="M282.196,-549.937C309.655,-549.937 342.979,-549.937 368.429,-549.937"/>
<polygon fill="midnightblue" stroke="midnightblue" points="368.465,-553.437 378.464,-549.937 368.464,-546.437 368.465,-553.437"/>
</g>
<!-- Node19&#45;&gt;Node7 -->
<g id="edge22" class="edge"><title>Node19&#45;&gt;Node7</title>
<path fill="none" stroke="midnightblue" d="M284.625,-504.581C292.349,-501.82 299.775,-498.056 306,-492.937 334.867,-469.196 313.519,-441.14 342,-416.937 350.4,-409.799 361.341,-405.338 371.892,-402.552"/>
<polygon fill="midnightblue" stroke="midnightblue" points="372.785,-405.94 381.793,-400.362 371.273,-399.105 372.785,-405.94"/>
</g>
<!-- Node19&#45;&gt;Node8 -->
<g id="edge23" class="edge"><title>Node19&#45;&gt;Node8</title>
<path fill="none" stroke="midnightblue" d="M284.586,-511.937C313.61,-511.937 348.601,-511.937 373.901,-511.937"/>
<polygon fill="midnightblue" stroke="midnightblue" points="374.105,-515.437 384.105,-511.937 374.105,-508.437 374.105,-515.437"/>
</g>
<!-- Node19&#45;&gt;Node11 -->
<g id="edge27" class="edge"><title>Node19&#45;&gt;Node11</title>
<path fill="none" stroke="midnightblue" d="M275.665,-502.348C307.811,-495.447 350.282,-486.329 378.334,-480.306"/>
<polygon fill="midnightblue" stroke="midnightblue" points="379.286,-483.682 388.328,-478.16 377.816,-476.838 379.286,-483.682"/>
</g>
<!-- Node19&#45;&gt;Node15 -->
<g id="edge24" class="edge"><title>Node19&#45;&gt;Node15</title>
<path fill="none" stroke="midnightblue" d="M284.528,-521.511C292.013,-523.975 299.395,-527.065 306,-530.937 326.07,-542.703 322.122,-556.849 342,-568.937 349.026,-573.209 357.055,-576.559 365.039,-579.172"/>
<polygon fill="midnightblue" stroke="midnightblue" points="364.101,-582.545 374.683,-582.008 366.076,-575.829 364.101,-582.545"/>
</g>
<!-- Node19&#45;&gt;Node18 -->
<g id="edge26" class="edge"><title>Node19&#45;&gt;Node18</title>
<path fill="none" stroke="midnightblue" d="M275.665,-521.526C304.179,-527.648 340.816,-535.513 368.309,-541.416"/>
<polygon fill="midnightblue" stroke="midnightblue" points="367.85,-544.897 378.362,-543.574 369.319,-538.053 367.85,-544.897"/>
</g>
<!-- Node19&#45;&gt;Node20 -->
<g id="edge25" class="edge"><title>Node19&#45;&gt;Node20</title>
<path fill="none" stroke="midnightblue" d="M284.528,-502.363C292.013,-499.899 299.395,-496.809 306,-492.937 326.07,-481.171 322.122,-467.025 342,-454.937 350.863,-449.547 361.325,-445.626 371.275,-442.799"/>
<polygon fill="midnightblue" stroke="midnightblue" points="372.153,-446.187 380.976,-440.321 370.421,-439.404 372.153,-446.187"/>
</g>
<!-- Node21&#45;&gt;Node13 -->
<g id="edge31" class="edge"><title>Node21&#45;&gt;Node13</title>
<path fill="none" stroke="midnightblue" d="M247.084,-65.4603C268.272,-77.7071 306.958,-99.0485 342,-112.937 348.256,-115.417 354.961,-117.726 361.614,-119.821"/>
<polygon fill="midnightblue" stroke="midnightblue" points="360.68,-123.194 371.264,-122.729 362.7,-116.492 360.68,-123.194"/>
</g>
<!-- Node21&#45;&gt;Node22 -->
<g id="edge30" class="edge"><title>Node21&#45;&gt;Node22</title>
<path fill="none" stroke="midnightblue" d="M275.665,-65.5261C302.09,-71.1995 335.492,-78.3705 362.127,-84.0886"/>
<polygon fill="midnightblue" stroke="midnightblue" points="361.463,-87.5258 371.975,-86.2029 362.932,-80.6817 361.463,-87.5258"/>
</g>
<!-- Node23 -->
<g id="node23" class="node"><title>Node23</title>
<g id="a_node23"><a xlink:href="../../da/d33/glew_8h.html#a31d8f4c0ab0fdc04ee4ba3236eea9c13" target="_top" xlink:title="glCallList">
<polygon fill="white" stroke="black" points="380.5,-46.4371 380.5,-65.4371 437.5,-65.4371 437.5,-46.4371 380.5,-46.4371"/>
<text text-anchor="middle" x="409" y="-53.4371" font-family="Helvetica,sans-Serif" font-size="10.00">glCallList</text>
</a>
</g>
</g>
<!-- Node21&#45;&gt;Node23 -->
<g id="edge32" class="edge"><title>Node21&#45;&gt;Node23</title>
<path fill="none" stroke="midnightblue" d="M295.151,-55.9371C320.318,-55.9371 348.333,-55.9371 370.154,-55.9371"/>
<polygon fill="midnightblue" stroke="midnightblue" points="370.329,-59.4372 380.329,-55.9371 370.329,-52.4372 370.329,-59.4372"/>
</g>
<!-- Node21&#45;&gt;Node24 -->
<g id="edge33" class="edge"><title>Node21&#45;&gt;Node24</title>
<path fill="none" stroke="midnightblue" d="M275.665,-46.3481C302.998,-40.4798 337.796,-33.0091 364.848,-27.2014"/>
<polygon fill="midnightblue" stroke="midnightblue" points="365.763,-30.5849 374.805,-25.0637 364.293,-23.7408 365.763,-30.5849"/>
</g>
<!-- Node25&#45;&gt;Node3 -->
<g id="edge40" class="edge"><title>Node25&#45;&gt;Node3</title>
<path fill="none" stroke="midnightblue" d="M240.653,-464.26C256.404,-447.976 287.706,-413.477 306,-378.937 330.869,-331.983 303.952,-302.024 342,-264.937 349.621,-257.509 359.95,-252.951 370.172,-250.165"/>
<polygon fill="midnightblue" stroke="midnightblue" points="371.25,-253.511 380.255,-247.928 369.734,-246.677 371.25,-253.511"/>
</g>
<!-- Node25&#45;&gt;Node7 -->
<g id="edge41" class="edge"><title>Node25&#45;&gt;Node7</title>
<path fill="none" stroke="midnightblue" d="M247.084,-464.414C268.272,-452.167 306.958,-430.826 342,-416.937 351.543,-413.155 362.132,-409.767 371.984,-406.937"/>
<polygon fill="midnightblue" stroke="midnightblue" points="373.202,-410.232 381.91,-404.197 371.339,-403.485 373.202,-410.232"/>
</g>
<!-- Node25&#45;&gt;Node8 -->
<g id="edge35" class="edge"><title>Node25&#45;&gt;Node8</title>
<path fill="none" stroke="midnightblue" d="M275.665,-483.526C306.177,-490.077 345.99,-498.624 373.947,-504.626"/>
<polygon fill="midnightblue" stroke="midnightblue" points="373.525,-508.115 384.037,-506.793 374.994,-501.271 373.525,-508.115"/>
</g>
<!-- Node25&#45;&gt;Node11 -->
<g id="edge39" class="edge"><title>Node25&#45;&gt;Node11</title>
<path fill="none" stroke="midnightblue" d="M287.004,-473.937C317.177,-473.937 353.202,-473.937 378.053,-473.937"/>
<polygon fill="midnightblue" stroke="midnightblue" points="378.296,-477.437 388.296,-473.937 378.296,-470.437 378.296,-477.437"/>
</g>
<!-- Node25&#45;&gt;Node15 -->
<g id="edge36" class="edge"><title>Node25&#45;&gt;Node15</title>
<path fill="none" stroke="midnightblue" d="M287.315,-482.301C294.065,-484.951 300.502,-488.415 306,-492.937 334.867,-516.678 313.519,-544.735 342,-568.937 348.596,-574.542 356.758,-578.496 365.068,-581.285"/>
<polygon fill="midnightblue" stroke="midnightblue" points="364.23,-584.685 374.806,-584.052 366.144,-577.952 364.23,-584.685"/>
</g>
<!-- Node25&#45;&gt;Node18 -->
<g id="edge38" class="edge"><title>Node25&#45;&gt;Node18</title>
<path fill="none" stroke="midnightblue" d="M284.528,-483.511C292.013,-485.975 299.395,-489.065 306,-492.937 326.07,-504.703 322.122,-518.849 342,-530.937 350.08,-535.851 359.489,-539.543 368.627,-542.3"/>
<polygon fill="midnightblue" stroke="midnightblue" points="367.794,-545.701 378.361,-544.938 369.624,-538.944 367.794,-545.701"/>
</g>
<!-- Node25&#45;&gt;Node20 -->
<g id="edge37" class="edge"><title>Node25&#45;&gt;Node20</title>
<path fill="none" stroke="midnightblue" d="M275.665,-464.348C305.087,-458.031 343.158,-449.858 370.907,-443.901"/>
<polygon fill="midnightblue" stroke="midnightblue" points="371.955,-447.255 380.997,-441.734 370.485,-440.411 371.955,-447.255"/>
</g>
</g>
</svg>
