<?xml version="1.0" encoding="UTF-8" standalone="no"?>
<!DOCTYPE svg PUBLIC "-//W3C//DTD SVG 1.1//EN"
 "http://www.w3.org/Graphics/SVG/1.1/DTD/svg11.dtd">
<!-- Generated by graphviz version 2.36.0 (20140111.2315)
 -->
<!-- Title: GLViewer::drawTriangle Pages: 1 -->
<svg width="402pt" height="104pt"
 viewBox="0.00 0.00 402.00 104.00" xmlns="http://www.w3.org/2000/svg" xmlns:xlink="http://www.w3.org/1999/xlink">
<g id="graph0" class="graph" transform="scale(1 1) rotate(0) translate(4 100)">
<title>GLViewer::drawTriangle</title>
<polygon fill="white" stroke="none" points="-4,4 -4,-100 398,-100 398,4 -4,4"/>
<!-- Node1 -->
<g id="node1" class="node"><title>Node1</title>
<polygon fill="#bfbfbf" stroke="black" points="0.5,-19.5 0.5,-38.5 121.5,-38.5 121.5,-19.5 0.5,-19.5"/>
<text text-anchor="middle" x="61" y="-26.5" font-family="Helvetica,sans-Serif" font-size="10.00">GLViewer::drawTriangle</text>
</g>
<!-- Node2 -->
<g id="node2" class="node"><title>Node2</title>
<g id="a_node2"><a xlink:href="../../df/dbf/glviewer_8cpp.html#a1a11c028609a8c546669ad5291d1b44f" target="_top" xlink:title="setGLColor">
<polygon fill="white" stroke="black" points="158,-38.5 158,-57.5 224,-57.5 224,-38.5 158,-38.5"/>
<text text-anchor="middle" x="191" y="-45.5" font-family="Helvetica,sans-Serif" font-size="10.00">setGLColor</text>
</a>
</g>
</g>
<!-- Node1&#45;&gt;Node2 -->
<g id="edge1" class="edge"><title>Node1&#45;&gt;Node2</title>
<path fill="none" stroke="midnightblue" d="M121.503,-37.8325C130.415,-39.1553 139.443,-40.4955 147.893,-41.7497"/>
<polygon fill="midnightblue" stroke="midnightblue" points="147.46,-45.2237 157.865,-43.23 148.488,-38.2996 147.46,-45.2237"/>
</g>
<!-- Node6 -->
<g id="node6" class="node"><title>Node6</title>
<g id="a_node6"><a xlink:href="../../da/d33/glew_8h.html#a9a95e17961303a80a5bf052b8c1cf677" target="_top" xlink:title="glVertex3f">
<polygon fill="white" stroke="black" points="160.5,-0.5 160.5,-19.5 221.5,-19.5 221.5,-0.5 160.5,-0.5"/>
<text text-anchor="middle" x="191" y="-7.5" font-family="Helvetica,sans-Serif" font-size="10.00">glVertex3f</text>
</a>
</g>
</g>
<!-- Node1&#45;&gt;Node6 -->
<g id="edge5" class="edge"><title>Node1&#45;&gt;Node6</title>
<path fill="none" stroke="midnightblue" d="M121.503,-20.1675C131.275,-18.717 141.187,-17.2457 150.322,-15.8897"/>
<polygon fill="midnightblue" stroke="midnightblue" points="150.879,-19.3454 160.257,-14.415 149.852,-12.4213 150.879,-19.3454"/>
</g>
<!-- Node3 -->
<g id="node3" class="node"><title>Node3</title>
<g id="a_node3"><a xlink:href="../../d3/d3e/classParameterServer.html#a5457f900e543c5a466bf9b65ee6bc577" target="_top" xlink:title="ParameterServer::instance">
<polygon fill="white" stroke="black" points="260.5,-76.5 260.5,-95.5 393.5,-95.5 393.5,-76.5 260.5,-76.5"/>
<text text-anchor="middle" x="327" y="-83.5" font-family="Helvetica,sans-Serif" font-size="10.00">ParameterServer::instance</text>
</a>
</g>
</g>
<!-- Node2&#45;&gt;Node3 -->
<g id="edge2" class="edge"><title>Node2&#45;&gt;Node3</title>
<path fill="none" stroke="midnightblue" d="M224.096,-57.1019C241.635,-62.0755 263.6,-68.3046 282.643,-73.7047"/>
<polygon fill="midnightblue" stroke="midnightblue" points="281.72,-77.081 292.296,-76.442 283.63,-70.3465 281.72,-77.081"/>
</g>
<!-- Node4 -->
<g id="node4" class="node"><title>Node4</title>
<g id="a_node4"><a xlink:href="../../d3/d3e/classParameterServer.html#a3c8af50664e423b555bbb1874f488413" target="_top" xlink:title="ParameterServer::get">
<polygon fill="white" stroke="black" points="272,-38.5 272,-57.5 382,-57.5 382,-38.5 272,-38.5"/>
<text text-anchor="middle" x="327" y="-45.5" font-family="Helvetica,sans-Serif" font-size="10.00">ParameterServer::get</text>
</a>
</g>
</g>
<!-- Node2&#45;&gt;Node4 -->
<g id="edge3" class="edge"><title>Node2&#45;&gt;Node4</title>
<path fill="none" stroke="midnightblue" d="M224.096,-48C235.399,-48 248.54,-48 261.553,-48"/>
<polygon fill="midnightblue" stroke="midnightblue" points="261.923,-51.5001 271.923,-48 261.923,-44.5001 261.923,-51.5001"/>
</g>
<!-- Node5 -->
<g id="node5" class="node"><title>Node5</title>
<g id="a_node5"><a xlink:href="../../da/d33/glew_8h.html#ac4a27c2f93c1e808c049df3865d65d31" target="_top" xlink:title="glColor3ub">
<polygon fill="white" stroke="black" points="295.5,-0.5 295.5,-19.5 358.5,-19.5 358.5,-0.5 295.5,-0.5"/>
<text text-anchor="middle" x="327" y="-7.5" font-family="Helvetica,sans-Serif" font-size="10.00">glColor3ub</text>
</a>
</g>
</g>
<!-- Node2&#45;&gt;Node5 -->
<g id="edge4" class="edge"><title>Node2&#45;&gt;Node5</title>
<path fill="none" stroke="midnightblue" d="M224.096,-38.8981C242.426,-33.7001 265.591,-27.1309 285.202,-21.5697"/>
<polygon fill="midnightblue" stroke="midnightblue" points="286.422,-24.8616 295.088,-18.7661 284.513,-18.1271 286.422,-24.8616"/>
</g>
</g>
</svg>
