<?xml version="1.0" encoding="UTF-8" standalone="no"?>
<!DOCTYPE svg PUBLIC "-//W3C//DTD SVG 1.1//EN"
 "http://www.w3.org/Graphics/SVG/1.1/DTD/svg11.dtd">
<!-- Generated by graphviz version 2.36.0 (20140111.2315)
 -->
<!-- Title: GLViewer::pointCloud2GLPoints Pages: 1 -->
<svg width="438pt" height="370pt"
 viewBox="0.00 0.00 438.00 370.00" xmlns="http://www.w3.org/2000/svg" xmlns:xlink="http://www.w3.org/1999/xlink">
<g id="graph0" class="graph" transform="scale(1 1) rotate(0) translate(4 366)">
<title>GLViewer::pointCloud2GLPoints</title>
<polygon fill="white" stroke="none" points="-4,4 -4,-366 434,-366 434,4 -4,4"/>
<!-- Node1 -->
<g id="node1" class="node"><title>Node1</title>
<polygon fill="#bfbfbf" stroke="black" points="0,-171.5 0,-190.5 158,-190.5 158,-171.5 0,-171.5"/>
<text text-anchor="middle" x="79" y="-178.5" font-family="Helvetica,sans-Serif" font-size="10.00">GLViewer::pointCloud2GLPoints</text>
</g>
<!-- Node2 -->
<g id="node2" class="node"><title>Node2</title>
<g id="a_node2"><a xlink:href="../../da/d33/glew_8h.html#a695a55175b5e79ab29946bcba8b16668" target="_top" xlink:title="glGenLists">
<polygon fill="white" stroke="black" points="195.5,-342.5 195.5,-361.5 258.5,-361.5 258.5,-342.5 195.5,-342.5"/>
<text text-anchor="middle" x="227" y="-349.5" font-family="Helvetica,sans-Serif" font-size="10.00">glGenLists</text>
</a>
</g>
</g>
<!-- Node1&#45;&gt;Node2 -->
<g id="edge1" class="edge"><title>Node1&#45;&gt;Node2</title>
<path fill="none" stroke="midnightblue" d="M85.3462,-190.561C100.013,-216.157 143.189,-287.386 194,-333 195.322,-334.187 196.73,-335.338 198.189,-336.448"/>
<polygon fill="midnightblue" stroke="midnightblue" points="196.627,-339.616 206.876,-342.303 200.54,-333.811 196.627,-339.616"/>
</g>
<!-- Node3 -->
<g id="node3" class="node"><title>Node3</title>
<g id="a_node3"><a xlink:href="../../da/d33/glew_8h.html#a2255efdc1e7585c158d43eb670dde31b" target="_top" xlink:title="glNewList">
<polygon fill="white" stroke="black" points="197,-304.5 197,-323.5 257,-323.5 257,-304.5 197,-304.5"/>
<text text-anchor="middle" x="227" y="-311.5" font-family="Helvetica,sans-Serif" font-size="10.00">glNewList</text>
</a>
</g>
</g>
<!-- Node1&#45;&gt;Node3 -->
<g id="edge2" class="edge"><title>Node1&#45;&gt;Node3</title>
<path fill="none" stroke="midnightblue" d="M88.1648,-190.667C105.976,-211.396 150.24,-260.995 194,-295 195.607,-296.249 197.303,-297.478 199.042,-298.673"/>
<polygon fill="midnightblue" stroke="midnightblue" points="197.564,-301.882 207.879,-304.304 201.326,-295.979 197.564,-301.882"/>
</g>
<!-- Node4 -->
<g id="node4" class="node"><title>Node4</title>
<g id="a_node4"><a xlink:href="../../da/d33/glew_8h.html#a98964453975519f92d6cc59ef77f7436" target="_top" xlink:title="glBegin">
<polygon fill="white" stroke="black" points="202.5,-266.5 202.5,-285.5 251.5,-285.5 251.5,-266.5 202.5,-266.5"/>
<text text-anchor="middle" x="227" y="-273.5" font-family="Helvetica,sans-Serif" font-size="10.00">glBegin</text>
</a>
</g>
</g>
<!-- Node1&#45;&gt;Node4 -->
<g id="edge3" class="edge"><title>Node1&#45;&gt;Node4</title>
<path fill="none" stroke="midnightblue" d="M94.8027,-190.632C120.162,-207.133 172.112,-240.936 202.48,-260.696"/>
<polygon fill="midnightblue" stroke="midnightblue" points="200.867,-263.822 211.158,-266.343 204.685,-257.955 200.867,-263.822"/>
</g>
<!-- Node5 -->
<g id="node5" class="node"><title>Node5</title>
<g id="a_node5"><a xlink:href="../../d3/d3e/classParameterServer.html#a5457f900e543c5a466bf9b65ee6bc577" target="_top" xlink:title="ParameterServer::instance">
<polygon fill="white" stroke="black" points="296.5,-228.5 296.5,-247.5 429.5,-247.5 429.5,-228.5 296.5,-228.5"/>
<text text-anchor="middle" x="363" y="-235.5" font-family="Helvetica,sans-Serif" font-size="10.00">ParameterServer::instance</text>
</a>
</g>
</g>
<!-- Node1&#45;&gt;Node5 -->
<g id="edge4" class="edge"><title>Node1&#45;&gt;Node5</title>
<path fill="none" stroke="midnightblue" d="M104.047,-190.655C126.839,-199.41 162.219,-211.987 194,-219 223.871,-225.591 257.262,-229.965 286.357,-232.834"/>
<polygon fill="midnightblue" stroke="midnightblue" points="286.172,-236.332 296.457,-233.787 286.83,-229.363 286.172,-236.332"/>
</g>
<!-- Node6 -->
<g id="node6" class="node"><title>Node6</title>
<g id="a_node6"><a xlink:href="../../d3/d3e/classParameterServer.html#a3c8af50664e423b555bbb1874f488413" target="_top" xlink:title="ParameterServer::get">
<polygon fill="white" stroke="black" points="308,-152.5 308,-171.5 418,-171.5 418,-152.5 308,-152.5"/>
<text text-anchor="middle" x="363" y="-159.5" font-family="Helvetica,sans-Serif" font-size="10.00">ParameterServer::get</text>
</a>
</g>
</g>
<!-- Node1&#45;&gt;Node6 -->
<g id="edge5" class="edge"><title>Node1&#45;&gt;Node6</title>
<path fill="none" stroke="midnightblue" d="M158.178,-175.733C202.149,-172.77 256.365,-169.117 297.825,-166.324"/>
<polygon fill="midnightblue" stroke="midnightblue" points="298.065,-169.816 307.808,-165.651 297.595,-162.832 298.065,-169.816"/>
</g>
<!-- Node7 -->
<g id="node7" class="node"><title>Node7</title>
<g id="a_node7"><a xlink:href="../../df/dbf/glviewer_8cpp.html#a6f313f87d88057df0f9f04162088f415" target="_top" xlink:title="validXYZ">
<polygon fill="white" stroke="black" points="199,-114.5 199,-133.5 255,-133.5 255,-114.5 199,-114.5"/>
<text text-anchor="middle" x="227" y="-121.5" font-family="Helvetica,sans-Serif" font-size="10.00">validXYZ</text>
</a>
</g>
</g>
<!-- Node1&#45;&gt;Node7 -->
<g id="edge6" class="edge"><title>Node1&#45;&gt;Node7</title>
<path fill="none" stroke="midnightblue" d="M104.437,-171.459C128.44,-162.088 165.263,-147.712 192.093,-137.238"/>
<polygon fill="midnightblue" stroke="midnightblue" points="193.441,-140.469 201.483,-133.572 190.895,-133.948 193.441,-140.469"/>
</g>
<!-- Node8 -->
<g id="node8" class="node"><title>Node8</title>
<g id="a_node8"><a xlink:href="../../df/dbf/glviewer_8cpp.html#a1a11c028609a8c546669ad5291d1b44f" target="_top" xlink:title="setGLColor">
<polygon fill="white" stroke="black" points="194,-190.5 194,-209.5 260,-209.5 260,-190.5 194,-190.5"/>
<text text-anchor="middle" x="227" y="-197.5" font-family="Helvetica,sans-Serif" font-size="10.00">setGLColor</text>
</a>
</g>
</g>
<!-- Node1&#45;&gt;Node8 -->
<g id="edge7" class="edge"><title>Node1&#45;&gt;Node8</title>
<path fill="none" stroke="midnightblue" d="M153.428,-190.556C163.857,-191.913 174.275,-193.269 183.83,-194.512"/>
<polygon fill="midnightblue" stroke="midnightblue" points="183.45,-197.992 193.819,-195.812 184.354,-191.051 183.45,-197.992"/>
</g>
<!-- Node10 -->
<g id="node10" class="node"><title>Node10</title>
<g id="a_node10"><a xlink:href="../../da/d33/glew_8h.html#a9a95e17961303a80a5bf052b8c1cf677" target="_top" xlink:title="glVertex3f">
<polygon fill="white" stroke="black" points="196.5,-76.5 196.5,-95.5 257.5,-95.5 257.5,-76.5 196.5,-76.5"/>
<text text-anchor="middle" x="227" y="-83.5" font-family="Helvetica,sans-Serif" font-size="10.00">glVertex3f</text>
</a>
</g>
</g>
<!-- Node1&#45;&gt;Node10 -->
<g id="edge11" class="edge"><title>Node1&#45;&gt;Node10</title>
<path fill="none" stroke="midnightblue" d="M93.8862,-171.402C115.201,-156.748 157.365,-128.066 194,-105 196.201,-103.614 198.5,-102.195 200.814,-100.786"/>
<polygon fill="midnightblue" stroke="midnightblue" points="202.846,-103.648 209.621,-95.5029 199.245,-97.6457 202.846,-103.648"/>
</g>
<!-- Node11 -->
<g id="node11" class="node"><title>Node11</title>
<g id="a_node11"><a xlink:href="../../da/d33/glew_8h.html#abbff207d1fa71b296ff35b149cef7238" target="_top" xlink:title="glEnd">
<polygon fill="white" stroke="black" points="206.5,-38.5 206.5,-57.5 247.5,-57.5 247.5,-38.5 206.5,-38.5"/>
<text text-anchor="middle" x="227" y="-45.5" font-family="Helvetica,sans-Serif" font-size="10.00">glEnd</text>
</a>
</g>
</g>
<!-- Node1&#45;&gt;Node11 -->
<g id="edge12" class="edge"><title>Node1&#45;&gt;Node11</title>
<path fill="none" stroke="midnightblue" d="M88.1648,-171.333C105.976,-150.604 150.24,-101.005 194,-67 195.607,-65.7512 197.303,-64.522 199.042,-63.3266"/>
<polygon fill="midnightblue" stroke="midnightblue" points="201.326,-66.0213 207.879,-57.6957 197.564,-60.118 201.326,-66.0213"/>
</g>
<!-- Node12 -->
<g id="node12" class="node"><title>Node12</title>
<g id="a_node12"><a xlink:href="../../da/d33/glew_8h.html#a9bd7233f539f4fd2000c5d5999f6c439" target="_top" xlink:title="glEndList">
<polygon fill="white" stroke="black" points="198.5,-0.5 198.5,-19.5 255.5,-19.5 255.5,-0.5 198.5,-0.5"/>
<text text-anchor="middle" x="227" y="-7.5" font-family="Helvetica,sans-Serif" font-size="10.00">glEndList</text>
</a>
</g>
</g>
<!-- Node1&#45;&gt;Node12 -->
<g id="edge13" class="edge"><title>Node1&#45;&gt;Node12</title>
<path fill="none" stroke="midnightblue" d="M85.3462,-171.439C100.013,-145.843 143.189,-74.6137 194,-29 195.322,-27.8131 196.73,-26.6619 198.189,-25.5525"/>
<polygon fill="midnightblue" stroke="midnightblue" points="200.54,-28.1886 206.876,-19.6971 196.627,-22.384 200.54,-28.1886"/>
</g>
<!-- Node8&#45;&gt;Node5 -->
<g id="edge8" class="edge"><title>Node8&#45;&gt;Node5</title>
<path fill="none" stroke="midnightblue" d="M260.096,-209.102C277.635,-214.076 299.6,-220.305 318.643,-225.705"/>
<polygon fill="midnightblue" stroke="midnightblue" points="317.72,-229.081 328.296,-228.442 319.63,-222.347 317.72,-229.081"/>
</g>
<!-- Node8&#45;&gt;Node6 -->
<g id="edge9" class="edge"><title>Node8&#45;&gt;Node6</title>
<path fill="none" stroke="midnightblue" d="M260.096,-190.898C277.635,-185.924 299.6,-179.695 318.643,-174.295"/>
<polygon fill="midnightblue" stroke="midnightblue" points="319.63,-177.653 328.296,-171.558 317.72,-170.919 319.63,-177.653"/>
</g>
<!-- Node9 -->
<g id="node9" class="node"><title>Node9</title>
<g id="a_node9"><a xlink:href="../../da/d33/glew_8h.html#ac4a27c2f93c1e808c049df3865d65d31" target="_top" xlink:title="glColor3ub">
<polygon fill="white" stroke="black" points="331.5,-190.5 331.5,-209.5 394.5,-209.5 394.5,-190.5 331.5,-190.5"/>
<text text-anchor="middle" x="363" y="-197.5" font-family="Helvetica,sans-Serif" font-size="10.00">glColor3ub</text>
</a>
</g>
</g>
<!-- Node8&#45;&gt;Node9 -->
<g id="edge10" class="edge"><title>Node8&#45;&gt;Node9</title>
<path fill="none" stroke="midnightblue" d="M260.096,-200C278.342,-200 301.379,-200 320.932,-200"/>
<polygon fill="midnightblue" stroke="midnightblue" points="321.088,-203.5 331.088,-200 321.088,-196.5 321.088,-203.5"/>
</g>
</g>
</svg>
