<?xml version="1.0" encoding="UTF-8" standalone="no"?>
<!DOCTYPE svg PUBLIC "-//W3C//DTD SVG 1.1//EN"
 "http://www.w3.org/Graphics/SVG/1.1/DTD/svg11.dtd">
<!-- Generated by graphviz version 2.36.0 (20140111.2315)
 -->
<!-- Title: GLViewer::mouseMoveEvent Pages: 1 -->
<svg width="310pt" height="104pt"
 viewBox="0.00 0.00 310.00 104.00" xmlns="http://www.w3.org/2000/svg" xmlns:xlink="http://www.w3.org/1999/xlink">
<g id="graph0" class="graph" transform="scale(1 1) rotate(0) translate(4 100)">
<title>GLViewer::mouseMoveEvent</title>
<polygon fill="white" stroke="none" points="-4,4 -4,-100 306,-100 306,4 -4,4"/>
<!-- Node1 -->
<g id="node1" class="node"><title>Node1</title>
<polygon fill="#bfbfbf" stroke="black" points="0,-38.5 0,-57.5 144,-57.5 144,-38.5 0,-38.5"/>
<text text-anchor="middle" x="72" y="-45.5" font-family="Helvetica,sans-Serif" font-size="10.00">GLViewer::mouseMoveEvent</text>
</g>
<!-- Node2 -->
<g id="node2" class="node"><title>Node2</title>
<g id="a_node2"><a xlink:href="../../db/d4e/classGLViewer.html#af1d92570f5380b526c668e954f4faa09" target="_top" xlink:title="GLViewer::setXRotation">
<polygon fill="white" stroke="black" points="180,-76.5 180,-95.5 302,-95.5 302,-76.5 180,-76.5"/>
<text text-anchor="middle" x="241" y="-83.5" font-family="Helvetica,sans-Serif" font-size="10.00">GLViewer::setXRotation</text>
</a>
</g>
</g>
<!-- Node1&#45;&gt;Node2 -->
<g id="edge1" class="edge"><title>Node1&#45;&gt;Node2</title>
<path fill="none" stroke="midnightblue" d="M115.141,-57.589C137.377,-62.6487 164.848,-68.8996 188.356,-74.2488"/>
<polygon fill="midnightblue" stroke="midnightblue" points="187.635,-77.6739 198.162,-76.4799 189.188,-70.8484 187.635,-77.6739"/>
</g>
<!-- Node3 -->
<g id="node3" class="node"><title>Node3</title>
<g id="a_node3"><a xlink:href="../../db/d4e/classGLViewer.html#a510f6b218ecdf5dacb083603dcde6e77" target="_top" xlink:title="GLViewer::setYRotation">
<polygon fill="white" stroke="black" points="180,-38.5 180,-57.5 302,-57.5 302,-38.5 180,-38.5"/>
<text text-anchor="middle" x="241" y="-45.5" font-family="Helvetica,sans-Serif" font-size="10.00">GLViewer::setYRotation</text>
</a>
</g>
</g>
<!-- Node1&#45;&gt;Node3 -->
<g id="edge2" class="edge"><title>Node1&#45;&gt;Node3</title>
<path fill="none" stroke="midnightblue" d="M144.307,-48C152.753,-48 161.369,-48 169.799,-48"/>
<polygon fill="midnightblue" stroke="midnightblue" points="169.965,-51.5001 179.965,-48 169.965,-44.5001 169.965,-51.5001"/>
</g>
<!-- Node4 -->
<g id="node4" class="node"><title>Node4</title>
<g id="a_node4"><a xlink:href="../../db/d4e/classGLViewer.html#ad6ddd9b4da614fa497ebf0d9c4834fbf" target="_top" xlink:title="GLViewer::setZRotation">
<polygon fill="white" stroke="black" points="180,-0.5 180,-19.5 302,-19.5 302,-0.5 180,-0.5"/>
<text text-anchor="middle" x="241" y="-7.5" font-family="Helvetica,sans-Serif" font-size="10.00">GLViewer::setZRotation</text>
</a>
</g>
</g>
<!-- Node1&#45;&gt;Node4 -->
<g id="edge3" class="edge"><title>Node1&#45;&gt;Node4</title>
<path fill="none" stroke="midnightblue" d="M115.141,-38.411C137.377,-33.3513 164.848,-27.1004 188.356,-21.7512"/>
<polygon fill="midnightblue" stroke="midnightblue" points="189.188,-25.1516 198.162,-19.5201 187.635,-18.3261 189.188,-25.1516"/>
</g>
</g>
</svg>
