<?xml version="1.0" encoding="UTF-8" standalone="no"?>
<!DOCTYPE svg PUBLIC "-//W3C//DTD SVG 1.1//EN"
 "http://www.w3.org/Graphics/SVG/1.1/DTD/svg11.dtd">
<!-- Generated by graphviz version 2.36.0 (20140111.2315)
 -->
<!-- Title: GLViewer::addFeatures Pages: 1 -->
<svg width="414pt" height="370pt"
 viewBox="0.00 0.00 414.00 370.00" xmlns="http://www.w3.org/2000/svg" xmlns:xlink="http://www.w3.org/1999/xlink">
<g id="graph0" class="graph" transform="scale(1 1) rotate(0) translate(4 366)">
<title>GLViewer::addFeatures</title>
<polygon fill="white" stroke="none" points="-4,4 -4,-366 410,-366 410,4 -4,4"/>
<!-- Node1 -->
<g id="node1" class="node"><title>Node1</title>
<polygon fill="#bfbfbf" stroke="black" points="0.5,-171.5 0.5,-190.5 119.5,-190.5 119.5,-171.5 0.5,-171.5"/>
<text text-anchor="middle" x="60" y="-178.5" font-family="Helvetica,sans-Serif" font-size="10.00">GLViewer::addFeatures</text>
</g>
<!-- Node2 -->
<g id="node2" class="node"><title>Node2</title>
<g id="a_node2"><a xlink:href="../../da/d33/glew_8h.html#a695a55175b5e79ab29946bcba8b16668" target="_top" xlink:title="glGenLists">
<polygon fill="white" stroke="black" points="164.5,-342.5 164.5,-361.5 227.5,-361.5 227.5,-342.5 164.5,-342.5"/>
<text text-anchor="middle" x="196" y="-349.5" font-family="Helvetica,sans-Serif" font-size="10.00">glGenLists</text>
</a>
</g>
</g>
<!-- Node1&#45;&gt;Node2 -->
<g id="edge1" class="edge"><title>Node1&#45;&gt;Node2</title>
<path fill="none" stroke="midnightblue" d="M64.8463,-190.838C75.5568,-217.123 108.118,-289.91 156,-333 157.683,-334.515 159.509,-335.935 161.42,-337.264"/>
<polygon fill="midnightblue" stroke="midnightblue" points="159.795,-340.37 170.174,-342.498 163.387,-334.362 159.795,-340.37"/>
</g>
<!-- Node3 -->
<g id="node3" class="node"><title>Node3</title>
<g id="a_node3"><a xlink:href="../../da/d33/glew_8h.html#a2255efdc1e7585c158d43eb670dde31b" target="_top" xlink:title="glNewList">
<polygon fill="white" stroke="black" points="166,-304.5 166,-323.5 226,-323.5 226,-304.5 166,-304.5"/>
<text text-anchor="middle" x="196" y="-311.5" font-family="Helvetica,sans-Serif" font-size="10.00">glNewList</text>
</a>
</g>
</g>
<!-- Node1&#45;&gt;Node3 -->
<g id="edge2" class="edge"><title>Node1&#45;&gt;Node3</title>
<path fill="none" stroke="midnightblue" d="M67.0302,-190.735C80.6251,-212.032 115.647,-263.377 156,-295 158.023,-296.585 160.2,-298.086 162.453,-299.495"/>
<polygon fill="midnightblue" stroke="midnightblue" points="160.925,-302.651 171.362,-304.472 164.339,-296.54 160.925,-302.651"/>
</g>
<!-- Node4 -->
<g id="node4" class="node"><title>Node4</title>
<g id="a_node4"><a xlink:href="../../da/d33/glew_8h.html#a8ac47f6bf1d1c4699a40b5458db28833" target="_top" xlink:title="glLineWidth">
<polygon fill="white" stroke="black" points="162,-266.5 162,-285.5 230,-285.5 230,-266.5 162,-266.5"/>
<text text-anchor="middle" x="196" y="-273.5" font-family="Helvetica,sans-Serif" font-size="10.00">glLineWidth</text>
</a>
</g>
</g>
<!-- Node1&#45;&gt;Node4 -->
<g id="edge3" class="edge"><title>Node1&#45;&gt;Node4</title>
<path fill="none" stroke="midnightblue" d="M73.0412,-190.55C90.8307,-204.533 125.343,-231.173 156,-252 160.408,-254.995 165.182,-258.067 169.827,-260.97"/>
<polygon fill="midnightblue" stroke="midnightblue" points="168.12,-264.029 178.472,-266.281 171.784,-258.064 168.12,-264.029"/>
</g>
<!-- Node5 -->
<g id="node5" class="node"><title>Node5</title>
<g id="a_node5"><a xlink:href="../../d3/d3e/classParameterServer.html#a5457f900e543c5a466bf9b65ee6bc577" target="_top" xlink:title="ParameterServer::instance">
<polygon fill="white" stroke="black" points="272.5,-171.5 272.5,-190.5 405.5,-190.5 405.5,-171.5 272.5,-171.5"/>
<text text-anchor="middle" x="339" y="-178.5" font-family="Helvetica,sans-Serif" font-size="10.00">ParameterServer::instance</text>
</a>
</g>
</g>
<!-- Node1&#45;&gt;Node5 -->
<g id="edge4" class="edge"><title>Node1&#45;&gt;Node5</title>
<path fill="none" stroke="midnightblue" d="M78.9357,-190.581C97.5822,-199.956 127.917,-213.592 156,-219 190.914,-225.724 201.008,-225.306 236,-219 261.732,-214.363 289.444,-203.638 309.479,-194.761"/>
<polygon fill="midnightblue" stroke="midnightblue" points="311.003,-197.913 318.656,-190.586 308.104,-191.541 311.003,-197.913"/>
</g>
<!-- Node6 -->
<g id="node6" class="node"><title>Node6</title>
<g id="a_node6"><a xlink:href="../../da/d33/glew_8h.html#a98964453975519f92d6cc59ef77f7436" target="_top" xlink:title="glBegin">
<polygon fill="white" stroke="black" points="171.5,-190.5 171.5,-209.5 220.5,-209.5 220.5,-190.5 171.5,-190.5"/>
<text text-anchor="middle" x="196" y="-197.5" font-family="Helvetica,sans-Serif" font-size="10.00">glBegin</text>
</a>
</g>
</g>
<!-- Node1&#45;&gt;Node6 -->
<g id="edge5" class="edge"><title>Node1&#45;&gt;Node6</title>
<path fill="none" stroke="midnightblue" d="M119.774,-189.334C133.948,-191.343 148.621,-193.424 161.203,-195.208"/>
<polygon fill="midnightblue" stroke="midnightblue" points="160.831,-198.69 171.223,-196.629 161.814,-191.759 160.831,-198.69"/>
</g>
<!-- Node7 -->
<g id="node7" class="node"><title>Node7</title>
<g id="a_node7"><a xlink:href="../../da/d33/glew_8h.html#ae9e165c507000556a24b1ce329aadd15" target="_top" xlink:title="glColor4f">
<polygon fill="white" stroke="black" points="168,-152.5 168,-171.5 224,-171.5 224,-152.5 168,-152.5"/>
<text text-anchor="middle" x="196" y="-159.5" font-family="Helvetica,sans-Serif" font-size="10.00">glColor4f</text>
</a>
</g>
</g>
<!-- Node1&#45;&gt;Node7 -->
<g id="edge6" class="edge"><title>Node1&#45;&gt;Node7</title>
<path fill="none" stroke="midnightblue" d="M119.774,-172.666C132.719,-170.831 146.079,-168.937 157.883,-167.263"/>
<polygon fill="midnightblue" stroke="midnightblue" points="158.397,-170.725 167.806,-165.856 157.414,-163.794 158.397,-170.725"/>
</g>
<!-- Node8 -->
<g id="node8" class="node"><title>Node8</title>
<g id="a_node8"><a xlink:href="../../da/d33/glew_8h.html#a9a95e17961303a80a5bf052b8c1cf677" target="_top" xlink:title="glVertex3f">
<polygon fill="white" stroke="black" points="165.5,-114.5 165.5,-133.5 226.5,-133.5 226.5,-114.5 165.5,-114.5"/>
<text text-anchor="middle" x="196" y="-121.5" font-family="Helvetica,sans-Serif" font-size="10.00">glVertex3f</text>
</a>
</g>
</g>
<!-- Node1&#45;&gt;Node8 -->
<g id="edge7" class="edge"><title>Node1&#45;&gt;Node8</title>
<path fill="none" stroke="midnightblue" d="M83.4286,-171.459C105.266,-162.171 138.663,-147.964 163.23,-137.514"/>
<polygon fill="midnightblue" stroke="midnightblue" points="164.666,-140.707 172.498,-133.572 161.926,-134.265 164.666,-140.707"/>
</g>
<!-- Node9 -->
<g id="node9" class="node"><title>Node9</title>
<g id="a_node9"><a xlink:href="../../de/dd9/misc2_8h.html#a44186cfabec64587c7bc742ae9dab267" target="_top" xlink:title="depth_std_dev">
<polygon fill="white" stroke="black" points="156,-76.5 156,-95.5 236,-95.5 236,-76.5 156,-76.5"/>
<text text-anchor="middle" x="196" y="-83.5" font-family="Helvetica,sans-Serif" font-size="10.00">depth_std_dev</text>
</a>
</g>
</g>
<!-- Node1&#45;&gt;Node9 -->
<g id="edge8" class="edge"><title>Node1&#45;&gt;Node9</title>
<path fill="none" stroke="midnightblue" d="M71.523,-171.277C88.4484,-155.949 123.156,-125.777 156,-105 158.59,-103.362 161.341,-101.764 164.138,-100.236"/>
<polygon fill="midnightblue" stroke="midnightblue" points="165.797,-103.318 173.082,-95.6252 162.59,-97.0966 165.797,-103.318"/>
</g>
<!-- Node11 -->
<g id="node11" class="node"><title>Node11</title>
<g id="a_node11"><a xlink:href="../../da/d33/glew_8h.html#abbff207d1fa71b296ff35b149cef7238" target="_top" xlink:title="glEnd">
<polygon fill="white" stroke="black" points="175.5,-38.5 175.5,-57.5 216.5,-57.5 216.5,-38.5 175.5,-38.5"/>
<text text-anchor="middle" x="196" y="-45.5" font-family="Helvetica,sans-Serif" font-size="10.00">glEnd</text>
</a>
</g>
</g>
<!-- Node1&#45;&gt;Node11 -->
<g id="edge11" class="edge"><title>Node1&#45;&gt;Node11</title>
<path fill="none" stroke="midnightblue" d="M67.0302,-171.265C80.6251,-149.968 115.647,-98.6234 156,-67 159.177,-64.5102 162.733,-62.2302 166.37,-60.1812"/>
<polygon fill="midnightblue" stroke="midnightblue" points="168.088,-63.2344 175.409,-55.576 164.91,-56.9973 168.088,-63.2344"/>
</g>
<!-- Node12 -->
<g id="node12" class="node"><title>Node12</title>
<g id="a_node12"><a xlink:href="../../da/d33/glew_8h.html#a9bd7233f539f4fd2000c5d5999f6c439" target="_top" xlink:title="glEndList">
<polygon fill="white" stroke="black" points="167.5,-0.5 167.5,-19.5 224.5,-19.5 224.5,-0.5 167.5,-0.5"/>
<text text-anchor="middle" x="196" y="-7.5" font-family="Helvetica,sans-Serif" font-size="10.00">glEndList</text>
</a>
</g>
</g>
<!-- Node1&#45;&gt;Node12 -->
<g id="edge12" class="edge"><title>Node1&#45;&gt;Node12</title>
<path fill="none" stroke="midnightblue" d="M64.8463,-171.162C75.5568,-144.877 108.118,-72.09 156,-29 157.683,-27.4854 159.509,-26.0645 161.42,-24.7363"/>
<polygon fill="midnightblue" stroke="midnightblue" points="163.387,-27.6379 170.174,-19.502 159.795,-21.6299 163.387,-27.6379"/>
</g>
<!-- Node9&#45;&gt;Node5 -->
<g id="edge9" class="edge"><title>Node9&#45;&gt;Node5</title>
<path fill="none" stroke="midnightblue" d="M218.434,-95.5522C224.251,-98.3825 230.467,-101.632 236,-105 266.369,-123.488 298.883,-148.781 318.832,-165.008"/>
<polygon fill="midnightblue" stroke="midnightblue" points="316.62,-167.72 326.57,-171.361 321.062,-162.31 316.62,-167.72"/>
</g>
<!-- Node10 -->
<g id="node10" class="node"><title>Node10</title>
<g id="a_node10"><a xlink:href="../../d3/d3e/classParameterServer.html#a3c8af50664e423b555bbb1874f488413" target="_top" xlink:title="ParameterServer::get">
<polygon fill="white" stroke="black" points="284,-76.5 284,-95.5 394,-95.5 394,-76.5 284,-76.5"/>
<text text-anchor="middle" x="339" y="-83.5" font-family="Helvetica,sans-Serif" font-size="10.00">ParameterServer::get</text>
</a>
</g>
</g>
<!-- Node9&#45;&gt;Node10 -->
<g id="edge10" class="edge"><title>Node9&#45;&gt;Node10</title>
<path fill="none" stroke="midnightblue" d="M236.276,-86C247.914,-86 260.975,-86 273.758,-86"/>
<polygon fill="midnightblue" stroke="midnightblue" points="273.919,-89.5001 283.919,-86 273.919,-82.5001 273.919,-89.5001"/>
</g>
</g>
</svg>
