<?xml version="1.0" encoding="UTF-8" standalone="no"?>
<!DOCTYPE svg PUBLIC "-//W3C//DTD SVG 1.1//EN"
 "http://www.w3.org/Graphics/SVG/1.1/DTD/svg11.dtd">
<!-- Generated by graphviz version 2.36.0 (20140111.2315)
 -->
<!-- Title: GLViewer::initializeGL Pages: 1 -->
<svg width="230pt" height="142pt"
 viewBox="0.00 0.00 230.00 142.00" xmlns="http://www.w3.org/2000/svg" xmlns:xlink="http://www.w3.org/1999/xlink">
<g id="graph0" class="graph" transform="scale(1 1) rotate(0) translate(4 138)">
<title>GLViewer::initializeGL</title>
<polygon fill="white" stroke="none" points="-4,4 -4,-138 226,-138 226,4 -4,4"/>
<!-- Node1 -->
<g id="node1" class="node"><title>Node1</title>
<polygon fill="#bfbfbf" stroke="black" points="0.5,-57.5 0.5,-76.5 113.5,-76.5 113.5,-57.5 0.5,-57.5"/>
<text text-anchor="middle" x="57" y="-64.5" font-family="Helvetica,sans-Serif" font-size="10.00">GLViewer::initializeGL</text>
</g>
<!-- Node2 -->
<g id="node2" class="node"><title>Node2</title>
<g id="a_node2"><a xlink:href="../../da/d33/glew_8h.html#af339551012daa99fef8c4d313e98b546" target="_top" xlink:title="glClearColor">
<polygon fill="white" stroke="black" points="150.5,-114.5 150.5,-133.5 221.5,-133.5 221.5,-114.5 150.5,-114.5"/>
<text text-anchor="middle" x="186" y="-121.5" font-family="Helvetica,sans-Serif" font-size="10.00">glClearColor</text>
</a>
</g>
</g>
<!-- Node1&#45;&gt;Node2 -->
<g id="edge1" class="edge"><title>Node1&#45;&gt;Node2</title>
<path fill="none" stroke="midnightblue" d="M79.2569,-76.5405C99.77,-85.7472 131.047,-99.7847 154.269,-110.207"/>
<polygon fill="midnightblue" stroke="midnightblue" points="153.117,-113.527 163.674,-114.428 155.984,-107.14 153.117,-113.527"/>
</g>
<!-- Node3 -->
<g id="node3" class="node"><title>Node3</title>
<g id="a_node3"><a xlink:href="../../da/d33/glew_8h.html#a1beaf822e5a901dc3fe429b68efb77d4" target="_top" xlink:title="glEnable">
<polygon fill="white" stroke="black" points="159,-76.5 159,-95.5 213,-95.5 213,-76.5 159,-76.5"/>
<text text-anchor="middle" x="186" y="-83.5" font-family="Helvetica,sans-Serif" font-size="10.00">glEnable</text>
</a>
</g>
</g>
<!-- Node1&#45;&gt;Node3 -->
<g id="edge2" class="edge"><title>Node1&#45;&gt;Node3</title>
<path fill="none" stroke="midnightblue" d="M113.704,-75.3337C125.623,-77.1169 137.915,-78.9558 148.864,-80.5939"/>
<polygon fill="midnightblue" stroke="midnightblue" points="148.487,-84.0763 158.895,-82.0945 149.523,-77.1533 148.487,-84.0763"/>
</g>
<!-- Node4 -->
<g id="node4" class="node"><title>Node4</title>
<g id="a_node4"><a xlink:href="../../da/d33/glew_8h.html#a8e13e72c3a7bac1f4685fcf3d32bf98c" target="_top" xlink:title="glBlendFunc">
<polygon fill="white" stroke="black" points="150.5,-38.5 150.5,-57.5 221.5,-57.5 221.5,-38.5 150.5,-38.5"/>
<text text-anchor="middle" x="186" y="-45.5" font-family="Helvetica,sans-Serif" font-size="10.00">glBlendFunc</text>
</a>
</g>
</g>
<!-- Node1&#45;&gt;Node4 -->
<g id="edge3" class="edge"><title>Node1&#45;&gt;Node4</title>
<path fill="none" stroke="midnightblue" d="M113.704,-58.6663C122.517,-57.3478 131.534,-55.9989 140.06,-54.7232"/>
<polygon fill="midnightblue" stroke="midnightblue" points="140.8,-58.1516 150.172,-53.2105 139.764,-51.2287 140.8,-58.1516"/>
</g>
<!-- Node5 -->
<g id="node5" class="node"><title>Node5</title>
<g id="a_node5"><a xlink:href="../../da/d33/glew_8h.html#acfd692f7e3361a218a542300f35ea816" target="_top" xlink:title="glDisable">
<polygon fill="white" stroke="black" points="157.5,-0.5 157.5,-19.5 214.5,-19.5 214.5,-0.5 157.5,-0.5"/>
<text text-anchor="middle" x="186" y="-7.5" font-family="Helvetica,sans-Serif" font-size="10.00">glDisable</text>
</a>
</g>
</g>
<!-- Node1&#45;&gt;Node5 -->
<g id="edge4" class="edge"><title>Node1&#45;&gt;Node5</title>
<path fill="none" stroke="midnightblue" d="M79.2569,-57.4595C99.77,-48.2528 131.047,-34.2153 154.269,-23.7926"/>
<polygon fill="midnightblue" stroke="midnightblue" points="155.984,-26.8595 163.674,-19.5716 153.117,-20.4732 155.984,-26.8595"/>
</g>
</g>
</svg>
