<?xml version="1.0" encoding="UTF-8" standalone="no"?>
<!DOCTYPE svg PUBLIC "-//W3C//DTD SVG 1.1//EN"
 "http://www.w3.org/Graphics/SVG/1.1/DTD/svg11.dtd">
<!-- Generated by graphviz version 2.36.0 (20140111.2315)
 -->
<!-- Title: GLViewer::drawToPS Pages: 1 -->
<!--zoomable 682 -->
<svg id="main" version="1.1" xmlns="http://www.w3.org/2000/svg" xmlns:xlink="http://www.w3.org/1999/xlink" xml:space="preserve" onload="init(evt)">
<style type="text/css"><![CDATA[
.edge:hover path { stroke: red; }
.edge:hover polygon { stroke: red; fill: red; }
]]></style>
<script type="text/javascript"><![CDATA[
var edges = document.getElementsByTagName('g');
if (edges && edges.length) {
  for (var i=0;i<edges.length;i++) {
    if (edges[i].id.substr(0,4)=='edge') {
      edges[i].setAttribute('class','edge');
    }
  }
}
]]></script>
        <defs>
                <circle id="rim" cx="0" cy="0" r="7"/>
                <circle id="rim2" cx="0" cy="0" r="3.5"/>
                <g id="zoomPlus">
                        <use xlink:href="#rim" fill="#404040">
                                <set attributeName="fill" to="#808080" begin="zoomplus.mouseover" end="zoomplus.mouseout"/>
                        </use>
                        <path d="M-4,0h8M0,-4v8" fill="none" stroke="white" stroke-width="1.5" pointer-events="none"/>
                </g>
                <g id="zoomMin">
                        <use xlink:href="#rim" fill="#404040">
                                <set attributeName="fill" to="#808080" begin="zoomminus.mouseover" end="zoomminus.mouseout"/>
                        </use>
                        <path d="M-4,0h8" fill="none" stroke="white" stroke-width="1.5" pointer-events="none"/>
                </g>
                <g id="dirArrow">
                        <path fill="none" stroke="white" stroke-width="1.5" d="M0,-3.0v7 M-2.5,-0.5L0,-3.0L2.5,-0.5"/>
                </g>
               <g id="resetDef">
                       <use xlink:href="#rim2" fill="#404040">
                               <set attributeName="fill" to="#808080" begin="reset.mouseover" end="reset.mouseout"/>
                       </use>
               </g>
        </defs>

<script type="text/javascript">
var viewWidth = 632;
var viewHeight = 682;
var sectionId = 'dynsection-13';
</script>
<script xlink:href="../../svgpan.js"/>
<svg id="graph" class="graph">
<g id="viewport">
<title>GLViewer::drawToPS</title>
<polygon fill="white" stroke="none" points="-4,4 -4,-677.937 628,-677.937 628,4 -4,4"/>
<!-- Node1 -->
<g id="node1" class="node"><title>Node1</title>
<polygon fill="#bfbfbf" stroke="black" points="0.5,-312.437 0.5,-331.437 111.5,-331.437 111.5,-312.437 0.5,-312.437"/>
<text text-anchor="middle" x="56" y="-319.437" font-family="Helvetica,sans-Serif" font-size="10.00">GLViewer::drawToPS</text>
</g>
<!-- Node2 -->
<g id="node2" class="node"><title>Node2</title>
<g id="a_node2"><a xlink:href="../../da/d33/glew_8h.html#ae9ebc290561b3321b629610807155a35" target="_top" xlink:title="glGetIntegerv">
<polygon fill="white" stroke="black" points="169.5,-331.437 169.5,-350.437 244.5,-350.437 244.5,-331.437 169.5,-331.437"/>
<text text-anchor="middle" x="207" y="-338.437" font-family="Helvetica,sans-Serif" font-size="10.00">glGetIntegerv</text>
</a>
</g>
</g>
<!-- Node1&#45;&gt;Node2 -->
<g id="edge1" class="edge"><title>Node1&#45;&gt;Node2</title>
<path fill="none" stroke="midnightblue" d="M111.636,-328.904C127.292,-330.901 144.211,-333.058 159.34,-334.987"/>
<polygon fill="midnightblue" stroke="midnightblue" points="159.128,-338.488 169.491,-336.282 160.014,-331.545 159.128,-338.488"/>
</g>
<!-- Node3 -->
<g id="node3" class="node"><title>Node3</title>
<g id="a_node3"><a xlink:href="../../db/d4e/classGLViewer.html#a403158db9796016ee64a6ccb21b68a7d" target="_top" xlink:title="Draw the scene. Xshift allows for a camera shift in x direction for the stereo view. ">
<polygon fill="white" stroke="black" points="148.5,-293.437 148.5,-312.437 265.5,-312.437 265.5,-293.437 148.5,-293.437"/>
<text text-anchor="middle" x="207" y="-300.437" font-family="Helvetica,sans-Serif" font-size="10.00">GLViewer::drawClouds</text>
</a>
</g>
</g>
<!-- Node1&#45;&gt;Node3 -->
<g id="edge2" class="edge"><title>Node1&#45;&gt;Node3</title>
<path fill="none" stroke="midnightblue" d="M111.636,-314.97C120.326,-313.862 129.404,-312.704 138.35,-311.564"/>
<polygon fill="midnightblue" stroke="midnightblue" points="138.889,-315.023 148.366,-310.286 138.004,-308.08 138.889,-315.023"/>
</g>
<!-- Node4 -->
<g id="node4" class="node"><title>Node4</title>
<g id="a_node4"><a xlink:href="../../d3/d3e/classParameterServer.html#a5457f900e543c5a466bf9b65ee6bc577" target="_top" xlink:title="ParameterServer::instance">
<polygon fill="white" stroke="black" points="490.5,-654.437 490.5,-673.437 623.5,-673.437 623.5,-654.437 490.5,-654.437"/>
<text text-anchor="middle" x="557" y="-661.437" font-family="Helvetica,sans-Serif" font-size="10.00">ParameterServer::instance</text>
</a>
</g>
</g>
<!-- Node3&#45;&gt;Node4 -->
<g id="edge3" class="edge"><title>Node3&#45;&gt;Node4</title>
<path fill="none" stroke="midnightblue" d="M254.162,-312.476C258.64,-314.945 262.725,-318.045 266,-321.937 337.424,-406.824 233.486,-481.685 302,-568.937 344.81,-623.456 422.394,-646.687 480.592,-656.587"/>
<polygon fill="midnightblue" stroke="midnightblue" points="480.059,-660.046 490.487,-658.174 481.168,-653.134 480.059,-660.046"/>
</g>
<!-- Node5 -->
<g id="node5" class="node"><title>Node5</title>
<g id="a_node5"><a xlink:href="../../da/d33/glew_8h.html#acfd692f7e3361a218a542300f35ea816" target="_top" xlink:title="glDisable">
<polygon fill="white" stroke="black" points="528.5,-236.437 528.5,-255.437 585.5,-255.437 585.5,-236.437 528.5,-236.437"/>
<text text-anchor="middle" x="557" y="-243.437" font-family="Helvetica,sans-Serif" font-size="10.00">glDisable</text>
</a>
</g>
</g>
<!-- Node3&#45;&gt;Node5 -->
<g id="edge4" class="edge"><title>Node3&#45;&gt;Node5</title>
<path fill="none" stroke="midnightblue" d="M265.739,-294.533C315.644,-287.146 389.672,-275.894 454,-264.937 475.374,-261.296 499.198,-256.879 518.443,-253.22"/>
<polygon fill="midnightblue" stroke="midnightblue" points="519.169,-256.645 528.335,-251.33 517.855,-249.769 519.169,-256.645"/>
</g>
<!-- Node6 -->
<g id="node6" class="node"><title>Node6</title>
<g id="a_node6"><a xlink:href="../../da/d33/glew_8h.html#a6577472f85b23086331edadaf0311a49" target="_top" xlink:title="glLoadIdentity">
<polygon fill="white" stroke="black" points="339.5,-236.437 339.5,-255.437 416.5,-255.437 416.5,-236.437 339.5,-236.437"/>
<text text-anchor="middle" x="378" y="-243.437" font-family="Helvetica,sans-Serif" font-size="10.00">glLoadIdentity</text>
</a>
</g>
</g>
<!-- Node3&#45;&gt;Node6 -->
<g id="edge5" class="edge"><title>Node3&#45;&gt;Node6</title>
<path fill="none" stroke="midnightblue" d="M234.673,-293.35C253.453,-286.655 279.207,-277.583 302,-269.937 313.328,-266.137 325.663,-262.134 336.997,-258.51"/>
<polygon fill="midnightblue" stroke="midnightblue" points="338.182,-261.806 346.649,-255.438 336.058,-255.136 338.182,-261.806"/>
</g>
<!-- Node7 -->
<g id="node7" class="node"><title>Node7</title>
<g id="a_node7"><a xlink:href="../../da/d33/glew_8h.html#a078179cbd4f3f1768197c92ad55c6bb5" target="_top" xlink:title="glTranslatef">
<polygon fill="white" stroke="black" points="344,-198.437 344,-217.437 412,-217.437 412,-198.437 344,-198.437"/>
<text text-anchor="middle" x="378" y="-205.437" font-family="Helvetica,sans-Serif" font-size="10.00">glTranslatef</text>
</a>
</g>
</g>
<!-- Node3&#45;&gt;Node7 -->
<g id="edge6" class="edge"><title>Node3&#45;&gt;Node7</title>
<path fill="none" stroke="midnightblue" d="M216.905,-293.436C232.561,-277.305 266.718,-244.594 302,-226.937 311.831,-222.017 323.042,-218.301 333.745,-215.522"/>
<polygon fill="midnightblue" stroke="midnightblue" points="334.87,-218.852 343.79,-213.136 333.252,-212.042 334.87,-218.852"/>
</g>
<!-- Node8 -->
<g id="node8" class="node"><title>Node8</title>
<g id="a_node8"><a xlink:href="../../db/d4e/classGLViewer.html#a6a94d39ea76a0e6de731ad2369a642a6" target="_top" xlink:title="GLViewer::drawNavigationAxis">
<polygon fill="white" stroke="black" points="302,-350.437 302,-369.437 454,-369.437 454,-350.437 302,-350.437"/>
<text text-anchor="middle" x="378" y="-357.437" font-family="Helvetica,sans-Serif" font-size="10.00">GLViewer::drawNavigationAxis</text>
</a>
</g>
</g>
<!-- Node3&#45;&gt;Node8 -->
<g id="edge7" class="edge"><title>Node3&#45;&gt;Node8</title>
<path fill="none" stroke="midnightblue" d="M238.209,-312.489C247.187,-315.421 257.021,-318.723 266,-321.937 282.163,-327.723 285.817,-330.207 302,-335.937 312.952,-339.815 324.898,-343.763 335.971,-347.307"/>
<polygon fill="midnightblue" stroke="midnightblue" points="335.251,-350.751 345.841,-350.435 337.366,-344.078 335.251,-350.751"/>
</g>
<!-- Node9 -->
<g id="node9" class="node"><title>Node9</title>
<g id="a_node9"><a xlink:href="../../da/d33/glew_8h.html#a1beaf822e5a901dc3fe429b68efb77d4" target="_top" xlink:title="glEnable">
<polygon fill="white" stroke="black" points="530,-388.437 530,-407.437 584,-407.437 584,-388.437 530,-388.437"/>
<text text-anchor="middle" x="557" y="-395.437" font-family="Helvetica,sans-Serif" font-size="10.00">glEnable</text>
</a>
</g>
</g>
<!-- Node3&#45;&gt;Node9 -->
<g id="edge47" class="edge"><title>Node3&#45;&gt;Node9</title>
<path fill="none" stroke="midnightblue" d="M249.418,-312.548C255.33,-315.013 261.069,-318.094 266,-321.937 289.633,-340.356 276.317,-363.505 302,-378.937 370.085,-419.848 467.676,-412.702 519.846,-404.797"/>
<polygon fill="midnightblue" stroke="midnightblue" points="520.642,-408.214 529.958,-403.168 519.528,-401.303 520.642,-408.214"/>
</g>
<!-- Node14 -->
<g id="node14" class="node"><title>Node14</title>
<g id="a_node14"><a xlink:href="../../da/d33/glew_8h.html#ab7849dc11574cfb61a713688f713dd8d" target="_top" xlink:title="glRotatef">
<polygon fill="white" stroke="black" points="350,-160.437 350,-179.437 406,-179.437 406,-160.437 350,-160.437"/>
<text text-anchor="middle" x="378" y="-167.437" font-family="Helvetica,sans-Serif" font-size="10.00">glRotatef</text>
</a>
</g>
</g>
<!-- Node3&#45;&gt;Node14 -->
<g id="edge13" class="edge"><title>Node3&#45;&gt;Node14</title>
<path fill="none" stroke="midnightblue" d="M213.121,-293.233C225.336,-271.071 258.444,-216.53 302,-188.937 313.281,-181.79 327.112,-177.329 339.811,-174.545"/>
<polygon fill="midnightblue" stroke="midnightblue" points="340.52,-177.973 349.682,-172.653 339.202,-171.098 340.52,-177.973"/>
</g>
<!-- Node15 -->
<g id="node15" class="node"><title>Node15</title>
<g id="a_node15"><a xlink:href="../../da/d33/glew_8h.html#a5c675407cfada4e8406692a62a361aae" target="_top" xlink:title="glMultMatrixd">
<polygon fill="white" stroke="black" points="519.5,-122.437 519.5,-141.437 594.5,-141.437 594.5,-122.437 519.5,-122.437"/>
<text text-anchor="middle" x="557" y="-129.437" font-family="Helvetica,sans-Serif" font-size="10.00">glMultMatrixd</text>
</a>
</g>
</g>
<!-- Node3&#45;&gt;Node15 -->
<g id="edge14" class="edge"><title>Node3&#45;&gt;Node15</title>
<path fill="none" stroke="midnightblue" d="M210.62,-293.254C218.732,-265.375 246.309,-184.761 302,-150.937 365.558,-112.335 455.216,-116.249 509.259,-123.479"/>
<polygon fill="midnightblue" stroke="midnightblue" points="508.853,-126.957 519.248,-124.908 509.844,-120.027 508.853,-126.957"/>
</g>
<!-- Node16 -->
<g id="node16" class="node"><title>Node16</title>
<g id="a_node16"><a xlink:href="../../db/d4e/classGLViewer.html#ab5aacb367d8c10d114bc226f5b3ce724" target="_top" xlink:title="Draw size x size grid into world coordinate system. ">
<polygon fill="white" stroke="black" points="326,-540.437 326,-559.437 430,-559.437 430,-540.437 326,-540.437"/>
<text text-anchor="middle" x="378" y="-547.437" font-family="Helvetica,sans-Serif" font-size="10.00">GLViewer::drawGrid</text>
</a>
</g>
</g>
<!-- Node3&#45;&gt;Node16 -->
<g id="edge15" class="edge"><title>Node3&#45;&gt;Node16</title>
<path fill="none" stroke="midnightblue" d="M254.063,-312.561C258.559,-315.014 262.675,-318.088 266,-321.937 327.611,-393.27 237.984,-461.754 302,-530.937 306.091,-535.358 311.05,-538.813 316.448,-541.506"/>
<polygon fill="midnightblue" stroke="midnightblue" points="315.288,-544.813 325.869,-545.351 317.934,-538.332 315.288,-544.813"/>
</g>
<!-- Node18 -->
<g id="node18" class="node"><title>Node18</title>
<g id="a_node18"><a xlink:href="../../d3/d3e/classParameterServer.html#a3c8af50664e423b555bbb1874f488413" target="_top" xlink:title="ParameterServer::get">
<polygon fill="white" stroke="black" points="502,-274.437 502,-293.437 612,-293.437 612,-274.437 502,-274.437"/>
<text text-anchor="middle" x="557" y="-281.437" font-family="Helvetica,sans-Serif" font-size="10.00">ParameterServer::get</text>
</a>
</g>
</g>
<!-- Node3&#45;&gt;Node18 -->
<g id="edge30" class="edge"><title>Node3&#45;&gt;Node18</title>
<path fill="none" stroke="midnightblue" d="M265.751,-303.652C315.663,-303.819 389.695,-302.987 454,-297.937 466.303,-296.971 479.389,-295.508 491.941,-293.886"/>
<polygon fill="midnightblue" stroke="midnightblue" points="492.42,-297.353 501.868,-292.557 491.492,-290.415 492.42,-297.353"/>
</g>
<!-- Node21 -->
<g id="node21" class="node"><title>Node21</title>
<g id="a_node21"><a xlink:href="../../db/d4e/classGLViewer.html#a398bdda625770255c34eac79e379720c" target="_top" xlink:title="Draw colored axis, scale long. ">
<polygon fill="white" stroke="black" points="323.5,-502.437 323.5,-521.437 432.5,-521.437 432.5,-502.437 323.5,-502.437"/>
<text text-anchor="middle" x="378" y="-509.437" font-family="Helvetica,sans-Serif" font-size="10.00">GLViewer::drawAxes</text>
</a>
</g>
</g>
<!-- Node3&#45;&gt;Node21 -->
<g id="edge23" class="edge"><title>Node3&#45;&gt;Node21</title>
<path fill="none" stroke="midnightblue" d="M253.641,-312.532C258.27,-314.989 262.534,-318.071 266,-321.937 317.843,-379.767 248.208,-436.915 302,-492.937 305.48,-496.561 309.544,-499.532 313.948,-501.963"/>
<polygon fill="midnightblue" stroke="midnightblue" points="312.831,-505.299 323.385,-506.231 315.715,-498.921 312.831,-505.299"/>
</g>
<!-- Node22 -->
<g id="node22" class="node"><title>Node22</title>
<g id="a_node22"><a xlink:href="../../da/d33/glew_8h.html#ae9e165c507000556a24b1ce329aadd15" target="_top" xlink:title="glColor4f">
<polygon fill="white" stroke="black" points="529,-426.437 529,-445.437 585,-445.437 585,-426.437 529,-426.437"/>
<text text-anchor="middle" x="557" y="-433.437" font-family="Helvetica,sans-Serif" font-size="10.00">glColor4f</text>
</a>
</g>
</g>
<!-- Node3&#45;&gt;Node22 -->
<g id="edge45" class="edge"><title>Node3&#45;&gt;Node22</title>
<path fill="none" stroke="midnightblue" d="M251.494,-312.508C256.784,-314.967 261.796,-318.056 266,-321.937 296.446,-350.044 268.816,-383.123 302,-407.937 365.786,-455.635 465.027,-450.203 518.624,-442.702"/>
<polygon fill="midnightblue" stroke="midnightblue" points="519.34,-446.134 528.71,-441.19 518.302,-439.211 519.34,-446.134"/>
</g>
<!-- Node23 -->
<g id="node23" class="node"><title>Node23</title>
<g id="a_node23"><a xlink:href="../../db/d4e/classGLViewer.html#a2b01f7d8a4aae0fbbdfeb65176ac1b90" target="_top" xlink:title="Draw one of the clouds with the given list index. ">
<polygon fill="white" stroke="black" points="313,-46.4371 313,-65.4371 443,-65.4371 443,-46.4371 313,-46.4371"/>
<text text-anchor="middle" x="378" y="-53.4371" font-family="Helvetica,sans-Serif" font-size="10.00">GLViewer::drawOneCloud</text>
</a>
</g>
</g>
<!-- Node3&#45;&gt;Node23 -->
<g id="edge31" class="edge"><title>Node3&#45;&gt;Node23</title>
<path fill="none" stroke="midnightblue" d="M209.196,-293.271C213.96,-258.914 234.722,-141.466 302,-79.9371 306.459,-75.8588 311.615,-72.4733 317.093,-69.663"/>
<polygon fill="midnightblue" stroke="midnightblue" points="318.837,-72.718 326.551,-65.4557 315.992,-66.3222 318.837,-72.718"/>
</g>
<!-- Node24 -->
<g id="node24" class="node"><title>Node24</title>
<g id="a_node24"><a xlink:href="../../da/d33/glew_8h.html#a64e877be265de9d7e1e8e479768cc86c" target="_top" xlink:title="glPushMatrix">
<polygon fill="white" stroke="black" points="520,-84.4371 520,-103.437 594,-103.437 594,-84.4371 520,-84.4371"/>
<text text-anchor="middle" x="557" y="-91.4371" font-family="Helvetica,sans-Serif" font-size="10.00">glPushMatrix</text>
</a>
</g>
</g>
<!-- Node3&#45;&gt;Node24 -->
<g id="edge44" class="edge"><title>Node3&#45;&gt;Node24</title>
<path fill="none" stroke="midnightblue" d="M209.436,-293.339C214.783,-261.369 236.702,-158.03 302,-113.937 363.991,-72.0779 454.913,-76.7925 509.497,-84.8165"/>
<polygon fill="midnightblue" stroke="midnightblue" points="509.159,-88.3061 519.58,-86.3975 510.243,-81.3906 509.159,-88.3061"/>
</g>
<!-- Node26 -->
<g id="node26" class="node"><title>Node26</title>
<g id="a_node26"><a xlink:href="../../da/d33/glew_8h.html#a9e424a5503edd5a5b76442b503661afe" target="_top" xlink:title="glPopMatrix">
<polygon fill="white" stroke="black" points="523,-8.43711 523,-27.4371 591,-27.4371 591,-8.43711 523,-8.43711"/>
<text text-anchor="middle" x="557" y="-15.4371" font-family="Helvetica,sans-Serif" font-size="10.00">glPopMatrix</text>
</a>
</g>
</g>
<!-- Node3&#45;&gt;Node26 -->
<g id="edge46" class="edge"><title>Node3&#45;&gt;Node26</title>
<path fill="none" stroke="midnightblue" d="M207.966,-293.337C208.401,-253.836 215.824,-102.842 302,-36.9371 362.883,9.62451 457.761,1.84544 512.69,-8.03451"/>
<polygon fill="midnightblue" stroke="midnightblue" points="512.315,-11.5258 522.793,-9.95697 513.623,-4.64923 512.315,-11.5258"/>
</g>
<!-- Node27 -->
<g id="node27" class="node"><title>Node27</title>
<g id="a_node27"><a xlink:href="../../db/d4e/classGLViewer.html#aadb126c769077e0a3d7f9edc51a1f36d" target="_top" xlink:title="Draw pose graph edges in opengl. ">
<polygon fill="white" stroke="black" points="321,-464.437 321,-483.437 435,-483.437 435,-464.437 321,-464.437"/>
<text text-anchor="middle" x="378" y="-471.437" font-family="Helvetica,sans-Serif" font-size="10.00">GLViewer::drawEdges</text>
</a>
</g>
</g>
<!-- Node3&#45;&gt;Node27 -->
<g id="edge36" class="edge"><title>Node3&#45;&gt;Node27</title>
<path fill="none" stroke="midnightblue" d="M252.818,-312.47C257.709,-314.935 262.261,-318.036 266,-321.937 306.892,-364.601 260.962,-407.414 302,-449.937 305.703,-453.774 310.018,-456.998 314.673,-459.708"/>
<polygon fill="midnightblue" stroke="midnightblue" points="313.457,-463.012 323.972,-464.311 316.563,-456.738 313.457,-463.012"/>
</g>
<!-- Node8&#45;&gt;Node9 -->
<g id="edge8" class="edge"><title>Node8&#45;&gt;Node9</title>
<path fill="none" stroke="midnightblue" d="M423.665,-369.526C453.36,-375.901 491.863,-384.168 519.675,-390.139"/>
<polygon fill="midnightblue" stroke="midnightblue" points="519.258,-393.629 529.77,-392.306 520.727,-386.785 519.258,-393.629"/>
</g>
<!-- Node10 -->
<g id="node10" class="node"><title>Node10</title>
<g id="a_node10"><a xlink:href="../../da/d33/glew_8h.html#a98964453975519f92d6cc59ef77f7436" target="_top" xlink:title="glBegin">
<polygon fill="white" stroke="black" points="532.5,-502.437 532.5,-521.437 581.5,-521.437 581.5,-502.437 532.5,-502.437"/>
<text text-anchor="middle" x="557" y="-509.437" font-family="Helvetica,sans-Serif" font-size="10.00">glBegin</text>
</a>
</g>
</g>
<!-- Node8&#45;&gt;Node10 -->
<g id="edge9" class="edge"><title>Node8&#45;&gt;Node10</title>
<path fill="none" stroke="midnightblue" d="M386.527,-369.602C409.287,-398.734 476.648,-484.231 490,-492.937 499.613,-499.205 511.326,-503.445 522.201,-506.297"/>
<polygon fill="midnightblue" stroke="midnightblue" points="521.745,-509.784 532.276,-508.626 523.322,-502.964 521.745,-509.784"/>
</g>
<!-- Node11 -->
<g id="node11" class="node"><title>Node11</title>
<g id="a_node11"><a xlink:href="../../da/d33/glew_8h.html#a40ebb0da5ec243b569ee26f6b2f1f5ef" target="_top" xlink:title="glColor3fv">
<polygon fill="white" stroke="black" points="526.5,-350.437 526.5,-369.437 587.5,-369.437 587.5,-350.437 526.5,-350.437"/>
<text text-anchor="middle" x="557" y="-357.437" font-family="Helvetica,sans-Serif" font-size="10.00">glColor3fv</text>
</a>
</g>
</g>
<!-- Node8&#45;&gt;Node11 -->
<g id="edge10" class="edge"><title>Node8&#45;&gt;Node11</title>
<path fill="none" stroke="midnightblue" d="M454.064,-359.937C475.429,-359.937 497.864,-359.937 516.231,-359.937"/>
<polygon fill="midnightblue" stroke="midnightblue" points="516.259,-363.437 526.259,-359.937 516.259,-356.437 516.259,-363.437"/>
</g>
<!-- Node12 -->
<g id="node12" class="node"><title>Node12</title>
<g id="a_node12"><a xlink:href="../../da/d33/glew_8h.html#a9b4edc193aaaed4a2d4f18633f07ad03" target="_top" xlink:title="glVertex3fv">
<polygon fill="white" stroke="black" points="524,-312.437 524,-331.437 590,-331.437 590,-312.437 524,-312.437"/>
<text text-anchor="middle" x="557" y="-319.437" font-family="Helvetica,sans-Serif" font-size="10.00">glVertex3fv</text>
</a>
</g>
</g>
<!-- Node8&#45;&gt;Node12 -->
<g id="edge11" class="edge"><title>Node8&#45;&gt;Node12</title>
<path fill="none" stroke="midnightblue" d="M423.665,-350.348C451.362,-344.402 486.722,-336.81 513.922,-330.971"/>
<polygon fill="midnightblue" stroke="midnightblue" points="514.872,-334.347 523.915,-328.826 513.403,-327.503 514.872,-334.347"/>
</g>
<!-- Node13 -->
<g id="node13" class="node"><title>Node13</title>
<g id="a_node13"><a xlink:href="../../da/d33/glew_8h.html#abbff207d1fa71b296ff35b149cef7238" target="_top" xlink:title="glEnd">
<polygon fill="white" stroke="black" points="536.5,-464.437 536.5,-483.437 577.5,-483.437 577.5,-464.437 536.5,-464.437"/>
<text text-anchor="middle" x="557" y="-471.437" font-family="Helvetica,sans-Serif" font-size="10.00">glEnd</text>
</a>
</g>
</g>
<!-- Node8&#45;&gt;Node13 -->
<g id="edge12" class="edge"><title>Node8&#45;&gt;Node13</title>
<path fill="none" stroke="midnightblue" d="M387.486,-369.553C404.844,-388.638 446.454,-431.481 490,-454.937 501.286,-461.016 514.732,-465.34 526.534,-468.311"/>
<polygon fill="midnightblue" stroke="midnightblue" points="525.856,-471.747 536.387,-470.584 527.43,-464.926 525.856,-471.747"/>
</g>
<!-- Node16&#45;&gt;Node4 -->
<g id="edge18" class="edge"><title>Node16&#45;&gt;Node4</title>
<path fill="none" stroke="midnightblue" d="M391.108,-559.63C406.068,-571.677 432.212,-592.967 454,-611.937 470.37,-626.19 471.069,-634.32 490,-644.937 493.968,-647.163 498.22,-649.147 502.582,-650.912"/>
<polygon fill="midnightblue" stroke="midnightblue" points="501.647,-654.297 512.241,-654.436 504.046,-647.721 501.647,-654.297"/>
</g>
<!-- Node16&#45;&gt;Node10 -->
<g id="edge16" class="edge"><title>Node16&#45;&gt;Node10</title>
<path fill="none" stroke="midnightblue" d="M423.665,-540.348C454.177,-533.797 493.99,-525.25 521.947,-519.248"/>
<polygon fill="midnightblue" stroke="midnightblue" points="522.994,-522.603 532.037,-517.082 521.525,-515.759 522.994,-522.603"/>
</g>
<!-- Node16&#45;&gt;Node13 -->
<g id="edge22" class="edge"><title>Node16&#45;&gt;Node13</title>
<path fill="none" stroke="midnightblue" d="M430.161,-541.121C438.451,-538.541 446.7,-535.217 454,-530.937 474.07,-519.171 470.122,-505.025 490,-492.937 501.032,-486.229 514.539,-481.796 526.454,-478.914"/>
<polygon fill="midnightblue" stroke="midnightblue" points="527.377,-482.296 536.413,-476.763 525.899,-475.453 527.377,-482.296"/>
</g>
<!-- Node17 -->
<g id="node17" class="node"><title>Node17</title>
<g id="a_node17"><a xlink:href="../../da/d33/glew_8h.html#a8ac47f6bf1d1c4699a40b5458db28833" target="_top" xlink:title="glLineWidth">
<polygon fill="white" stroke="black" points="523,-578.437 523,-597.437 591,-597.437 591,-578.437 523,-578.437"/>
<text text-anchor="middle" x="557" y="-585.437" font-family="Helvetica,sans-Serif" font-size="10.00">glLineWidth</text>
</a>
</g>
</g>
<!-- Node16&#45;&gt;Node17 -->
<g id="edge17" class="edge"><title>Node16&#45;&gt;Node17</title>
<path fill="none" stroke="midnightblue" d="M423.665,-559.526C450.998,-565.394 485.796,-572.865 512.848,-578.673"/>
<polygon fill="midnightblue" stroke="midnightblue" points="512.293,-582.133 522.805,-580.811 513.763,-575.289 512.293,-582.133"/>
</g>
<!-- Node16&#45;&gt;Node18 -->
<g id="edge19" class="edge"><title>Node16&#45;&gt;Node18</title>
<path fill="none" stroke="midnightblue" d="M430.207,-545.422C439.183,-542.451 447.662,-537.883 454,-530.937 523.147,-455.154 422.081,-379.823 490,-302.937 491.167,-301.616 492.419,-300.385 493.743,-299.236"/>
<polygon fill="midnightblue" stroke="midnightblue" points="495.769,-302.09 502.01,-293.529 491.792,-296.329 495.769,-302.09"/>
</g>
<!-- Node19 -->
<g id="node19" class="node"><title>Node19</title>
<g id="a_node19"><a xlink:href="../../da/d33/glew_8h.html#acee7240272b34e83a4567a1fb586be99" target="_top" xlink:title="glColor3f">
<polygon fill="white" stroke="black" points="529,-616.437 529,-635.437 585,-635.437 585,-616.437 529,-616.437"/>
<text text-anchor="middle" x="557" y="-623.437" font-family="Helvetica,sans-Serif" font-size="10.00">glColor3f</text>
</a>
</g>
</g>
<!-- Node16&#45;&gt;Node19 -->
<g id="edge20" class="edge"><title>Node16&#45;&gt;Node19</title>
<path fill="none" stroke="midnightblue" d="M395.084,-559.46C416.272,-571.707 454.958,-593.048 490,-606.937 499.296,-610.622 509.585,-613.931 519.219,-616.716"/>
<polygon fill="midnightblue" stroke="midnightblue" points="518.379,-620.115 528.951,-619.422 520.254,-613.371 518.379,-620.115"/>
</g>
<!-- Node20 -->
<g id="node20" class="node"><title>Node20</title>
<g id="a_node20"><a xlink:href="../../da/d33/glew_8h.html#a9a95e17961303a80a5bf052b8c1cf677" target="_top" xlink:title="glVertex3f">
<polygon fill="white" stroke="black" points="526.5,-540.437 526.5,-559.437 587.5,-559.437 587.5,-540.437 526.5,-540.437"/>
<text text-anchor="middle" x="557" y="-547.437" font-family="Helvetica,sans-Serif" font-size="10.00">glVertex3f</text>
</a>
</g>
</g>
<!-- Node16&#45;&gt;Node20 -->
<g id="edge21" class="edge"><title>Node16&#45;&gt;Node20</title>
<path fill="none" stroke="midnightblue" d="M430.196,-549.937C457.655,-549.937 490.979,-549.937 516.429,-549.937"/>
<polygon fill="midnightblue" stroke="midnightblue" points="516.465,-553.437 526.464,-549.937 516.464,-546.437 516.465,-553.437"/>
</g>
<!-- Node21&#45;&gt;Node9 -->
<g id="edge24" class="edge"><title>Node21&#45;&gt;Node9</title>
<path fill="none" stroke="midnightblue" d="M432.625,-504.581C440.349,-501.82 447.775,-498.056 454,-492.937 482.867,-469.196 461.519,-441.14 490,-416.937 498.4,-409.799 509.341,-405.338 519.892,-402.552"/>
<polygon fill="midnightblue" stroke="midnightblue" points="520.785,-405.94 529.793,-400.362 519.273,-399.105 520.785,-405.94"/>
</g>
<!-- Node21&#45;&gt;Node10 -->
<g id="edge25" class="edge"><title>Node21&#45;&gt;Node10</title>
<path fill="none" stroke="midnightblue" d="M432.586,-511.937C461.61,-511.937 496.601,-511.937 521.901,-511.937"/>
<polygon fill="midnightblue" stroke="midnightblue" points="522.105,-515.437 532.105,-511.937 522.105,-508.437 522.105,-515.437"/>
</g>
<!-- Node21&#45;&gt;Node13 -->
<g id="edge29" class="edge"><title>Node21&#45;&gt;Node13</title>
<path fill="none" stroke="midnightblue" d="M423.665,-502.348C455.811,-495.447 498.282,-486.329 526.334,-480.306"/>
<polygon fill="midnightblue" stroke="midnightblue" points="527.286,-483.682 536.328,-478.16 525.816,-476.838 527.286,-483.682"/>
</g>
<!-- Node21&#45;&gt;Node17 -->
<g id="edge26" class="edge"><title>Node21&#45;&gt;Node17</title>
<path fill="none" stroke="midnightblue" d="M432.528,-521.511C440.013,-523.975 447.395,-527.065 454,-530.937 474.07,-542.703 470.122,-556.849 490,-568.937 497.026,-573.209 505.055,-576.559 513.039,-579.172"/>
<polygon fill="midnightblue" stroke="midnightblue" points="512.101,-582.545 522.683,-582.008 514.076,-575.829 512.101,-582.545"/>
</g>
<!-- Node21&#45;&gt;Node20 -->
<g id="edge28" class="edge"><title>Node21&#45;&gt;Node20</title>
<path fill="none" stroke="midnightblue" d="M423.665,-521.526C452.179,-527.648 488.816,-535.513 516.309,-541.416"/>
<polygon fill="midnightblue" stroke="midnightblue" points="515.85,-544.897 526.362,-543.574 517.319,-538.053 515.85,-544.897"/>
</g>
<!-- Node21&#45;&gt;Node22 -->
<g id="edge27" class="edge"><title>Node21&#45;&gt;Node22</title>
<path fill="none" stroke="midnightblue" d="M432.528,-502.363C440.013,-499.899 447.395,-496.809 454,-492.937 474.07,-481.171 470.122,-467.025 490,-454.937 498.863,-449.547 509.325,-445.626 519.275,-442.799"/>
<polygon fill="midnightblue" stroke="midnightblue" points="520.153,-446.187 528.976,-440.321 518.421,-439.404 520.153,-446.187"/>
</g>
<!-- Node23&#45;&gt;Node15 -->
<g id="edge33" class="edge"><title>Node23&#45;&gt;Node15</title>
<path fill="none" stroke="midnightblue" d="M395.084,-65.4603C416.272,-77.7071 454.958,-99.0485 490,-112.937 496.256,-115.417 502.961,-117.726 509.614,-119.821"/>
<polygon fill="midnightblue" stroke="midnightblue" points="508.68,-123.194 519.264,-122.729 510.7,-116.492 508.68,-123.194"/>
</g>
<!-- Node23&#45;&gt;Node24 -->
<g id="edge32" class="edge"><title>Node23&#45;&gt;Node24</title>
<path fill="none" stroke="midnightblue" d="M423.665,-65.5261C450.09,-71.1995 483.492,-78.3705 510.127,-84.0886"/>
<polygon fill="midnightblue" stroke="midnightblue" points="509.463,-87.5258 519.975,-86.2029 510.932,-80.6817 509.463,-87.5258"/>
</g>
<!-- Node25 -->
<g id="node25" class="node"><title>Node25</title>
<g id="a_node25"><a xlink:href="../../da/d33/glew_8h.html#a31d8f4c0ab0fdc04ee4ba3236eea9c13" target="_top" xlink:title="glCallList">
<polygon fill="white" stroke="black" points="528.5,-46.4371 528.5,-65.4371 585.5,-65.4371 585.5,-46.4371 528.5,-46.4371"/>
<text text-anchor="middle" x="557" y="-53.4371" font-family="Helvetica,sans-Serif" font-size="10.00">glCallList</text>
</a>
</g>
</g>
<!-- Node23&#45;&gt;Node25 -->
<g id="edge34" class="edge"><title>Node23&#45;&gt;Node25</title>
<path fill="none" stroke="midnightblue" d="M443.151,-55.9371C468.318,-55.9371 496.333,-55.9371 518.154,-55.9371"/>
<polygon fill="midnightblue" stroke="midnightblue" points="518.329,-59.4372 528.329,-55.9371 518.329,-52.4372 518.329,-59.4372"/>
</g>
<!-- Node23&#45;&gt;Node26 -->
<g id="edge35" class="edge"><title>Node23&#45;&gt;Node26</title>
<path fill="none" stroke="midnightblue" d="M423.665,-46.3481C450.998,-40.4798 485.796,-33.0091 512.848,-27.2014"/>
<polygon fill="midnightblue" stroke="midnightblue" points="513.763,-30.5849 522.805,-25.0637 512.293,-23.7408 513.763,-30.5849"/>
</g>
<!-- Node27&#45;&gt;Node5 -->
<g id="edge42" class="edge"><title>Node27&#45;&gt;Node5</title>
<path fill="none" stroke="midnightblue" d="M388.653,-464.26C404.404,-447.976 435.706,-413.477 454,-378.937 478.869,-331.983 451.952,-302.024 490,-264.937 497.621,-257.509 507.95,-252.951 518.172,-250.165"/>
<polygon fill="midnightblue" stroke="midnightblue" points="519.25,-253.511 528.255,-247.928 517.734,-246.677 519.25,-253.511"/>
</g>
<!-- Node27&#45;&gt;Node9 -->
<g id="edge43" class="edge"><title>Node27&#45;&gt;Node9</title>
<path fill="none" stroke="midnightblue" d="M395.084,-464.414C416.272,-452.167 454.958,-430.826 490,-416.937 499.543,-413.155 510.132,-409.767 519.984,-406.937"/>
<polygon fill="midnightblue" stroke="midnightblue" points="521.202,-410.232 529.91,-404.197 519.339,-403.485 521.202,-410.232"/>
</g>
<!-- Node27&#45;&gt;Node10 -->
<g id="edge37" class="edge"><title>Node27&#45;&gt;Node10</title>
<path fill="none" stroke="midnightblue" d="M423.665,-483.526C454.177,-490.077 493.99,-498.624 521.947,-504.626"/>
<polygon fill="midnightblue" stroke="midnightblue" points="521.525,-508.115 532.037,-506.793 522.994,-501.271 521.525,-508.115"/>
</g>
<!-- Node27&#45;&gt;Node13 -->
<g id="edge41" class="edge"><title>Node27&#45;&gt;Node13</title>
<path fill="none" stroke="midnightblue" d="M435.004,-473.937C465.177,-473.937 501.202,-473.937 526.053,-473.937"/>
<polygon fill="midnightblue" stroke="midnightblue" points="526.296,-477.437 536.296,-473.937 526.296,-470.437 526.296,-477.437"/>
</g>
<!-- Node27&#45;&gt;Node17 -->
<g id="edge38" class="edge"><title>Node27&#45;&gt;Node17</title>
<path fill="none" stroke="midnightblue" d="M435.315,-482.301C442.065,-484.951 448.502,-488.415 454,-492.937 482.867,-516.678 461.519,-544.735 490,-568.937 496.596,-574.542 504.758,-578.496 513.068,-581.285"/>
<polygon fill="midnightblue" stroke="midnightblue" points="512.23,-584.685 522.806,-584.052 514.144,-577.952 512.23,-584.685"/>
</g>
<!-- Node27&#45;&gt;Node20 -->
<g id="edge40" class="edge"><title>Node27&#45;&gt;Node20</title>
<path fill="none" stroke="midnightblue" d="M432.528,-483.511C440.013,-485.975 447.395,-489.065 454,-492.937 474.07,-504.703 470.122,-518.849 490,-530.937 498.08,-535.851 507.489,-539.543 516.627,-542.3"/>
<polygon fill="midnightblue" stroke="midnightblue" points="515.794,-545.701 526.361,-544.938 517.624,-538.944 515.794,-545.701"/>
</g>
<!-- Node27&#45;&gt;Node22 -->
<g id="edge39" class="edge"><title>Node27&#45;&gt;Node22</title>
<path fill="none" stroke="midnightblue" d="M423.665,-464.348C453.087,-458.031 491.158,-449.858 518.907,-443.901"/>
<polygon fill="midnightblue" stroke="midnightblue" points="519.955,-447.255 528.997,-441.734 518.485,-440.411 519.955,-447.255"/>
</g>
</g>
</svg>
        <g id="navigator" transform="translate(0 0)" fill="#404254">
                <rect fill="#f2f5e9" fill-opacity="0.5" stroke="#606060" stroke-width=".5" x="0" y="0" width="60" height="60"/>
                <use id="zoomplus" xlink:href="#zoomPlus" x="17" y="9" onmousedown="handleZoom(evt,'in')"/>
                <use id="zoomminus" xlink:href="#zoomMin" x="42" y="9" onmousedown="handleZoom(evt,'out')"/>
                <use id="reset" xlink:href="#resetDef" x="30" y="36" onmousedown="handleReset()"/>
                <g id="arrowUp" xlink:href="#dirArrow" transform="translate(30 24)" onmousedown="handlePan(0,-1)">
                  <use xlink:href="#rim" fill="#404040">
                        <set attributeName="fill" to="#808080" begin="arrowUp.mouseover" end="arrowUp.mouseout"/>
                  </use>
                  <path fill="none" stroke="white" stroke-width="1.5" d="M0,-3.0v7 M-2.5,-0.5L0,-3.0L2.5,-0.5"/>
                </g>
                <g id="arrowRight" xlink:href="#dirArrow" transform="rotate(90) translate(36 -43)" onmousedown="handlePan(1,0)">
                  <use xlink:href="#rim" fill="#404040">
                        <set attributeName="fill" to="#808080" begin="arrowRight.mouseover" end="arrowRight.mouseout"/>
                  </use>
                  <path fill="none" stroke="white" stroke-width="1.5" d="M0,-3.0v7 M-2.5,-0.5L0,-3.0L2.5,-0.5"/>
                </g>
                <g id="arrowDown" xlink:href="#dirArrow" transform="rotate(180) translate(-30 -48)" onmousedown="handlePan(0,1)">
                  <use xlink:href="#rim" fill="#404040">
                        <set attributeName="fill" to="#808080" begin="arrowDown.mouseover" end="arrowDown.mouseout"/>
                  </use>
                  <path fill="none" stroke="white" stroke-width="1.5" d="M0,-3.0v7 M-2.5,-0.5L0,-3.0L2.5,-0.5"/>
                </g>
                <g id="arrowLeft" xlink:href="#dirArrow" transform="rotate(270) translate(-36 17)" onmousedown="handlePan(-1,0)">
                  <use xlink:href="#rim" fill="#404040">
                        <set attributeName="fill" to="#808080" begin="arrowLeft.mouseover" end="arrowLeft.mouseout"/>
                  </use>
                  <path fill="none" stroke="white" stroke-width="1.5" d="M0,-3.0v7 M-2.5,-0.5L0,-3.0L2.5,-0.5"/>
                </g>
        </g>
        <svg viewBox="0 0 15 15" width="100%" height="30px" preserveAspectRatio="xMaxYMin meet">
         <g id="arrow_out" transform="scale(0.3 0.3)">
          <a xlink:href="classGLViewer_ac811372289422ba255734623d713e981_cgraph_org.svg" target="_base">
           <rect id="button" ry="5" rx="5" y="6" x="6" height="38" width="38"
                fill="#f2f5e9" fill-opacity="0.5" stroke="#606060" stroke-width="1.0"/>
           <path id="arrow"
             d="M 11.500037,31.436501 C 11.940474,20.09759 22.043105,11.32322 32.158766,21.979434 L 37.068811,17.246167 C 37.068811,17.246167 37.088388,32 37.088388,32 L 22.160133,31.978069 C 22.160133,31.978069 26.997745,27.140456 26.997745,27.140456 C 18.528582,18.264221 13.291696,25.230495 11.500037,31.436501 z"
             style="fill:#404040;"/>
          </a>
         </g>
        </svg>
</svg>
