<?xml version="1.0" encoding="UTF-8" standalone="no"?>
<!DOCTYPE svg PUBLIC "-//W3C//DTD SVG 1.1//EN"
 "http://www.w3.org/Graphics/SVG/1.1/DTD/svg11.dtd">
<!-- Generated by graphviz version 2.36.0 (20140111.2315)
 -->
<!-- Title: GLViewer::drawOneCloud Pages: 1 -->
<svg width="250pt" height="142pt"
 viewBox="0.00 0.00 250.00 142.00" xmlns="http://www.w3.org/2000/svg" xmlns:xlink="http://www.w3.org/1999/xlink">
<g id="graph0" class="graph" transform="scale(1 1) rotate(0) translate(4 138)">
<title>GLViewer::drawOneCloud</title>
<polygon fill="white" stroke="none" points="-4,4 -4,-138 246,-138 246,4 -4,4"/>
<!-- Node1 -->
<g id="node1" class="node"><title>Node1</title>
<polygon fill="#bfbfbf" stroke="black" points="0,-57.5 0,-76.5 130,-76.5 130,-57.5 0,-57.5"/>
<text text-anchor="middle" x="65" y="-64.5" font-family="Helvetica,sans-Serif" font-size="10.00">GLViewer::drawOneCloud</text>
</g>
<!-- Node2 -->
<g id="node2" class="node"><title>Node2</title>
<g id="a_node2"><a xlink:href="../../da/d33/glew_8h.html#a64e877be265de9d7e1e8e479768cc86c" target="_top" xlink:title="glPushMatrix">
<polygon fill="white" stroke="black" points="167,-114.5 167,-133.5 241,-133.5 241,-114.5 167,-114.5"/>
<text text-anchor="middle" x="204" y="-121.5" font-family="Helvetica,sans-Serif" font-size="10.00">glPushMatrix</text>
</a>
</g>
</g>
<!-- Node1&#45;&gt;Node2 -->
<g id="edge1" class="edge"><title>Node1&#45;&gt;Node2</title>
<path fill="none" stroke="midnightblue" d="M88.9307,-76.5405C111.257,-85.8294 145.402,-100.036 170.518,-110.486"/>
<polygon fill="midnightblue" stroke="midnightblue" points="169.417,-113.818 179.994,-114.428 172.106,-107.355 169.417,-113.818"/>
</g>
<!-- Node3 -->
<g id="node3" class="node"><title>Node3</title>
<g id="a_node3"><a xlink:href="../../da/d33/glew_8h.html#a5c675407cfada4e8406692a62a361aae" target="_top" xlink:title="glMultMatrixd">
<polygon fill="white" stroke="black" points="166.5,-76.5 166.5,-95.5 241.5,-95.5 241.5,-76.5 166.5,-76.5"/>
<text text-anchor="middle" x="204" y="-83.5" font-family="Helvetica,sans-Serif" font-size="10.00">glMultMatrixd</text>
</a>
</g>
</g>
<!-- Node1&#45;&gt;Node3 -->
<g id="edge2" class="edge"><title>Node1&#45;&gt;Node3</title>
<path fill="none" stroke="midnightblue" d="M130.088,-75.8881C138.9,-77.1103 147.811,-78.346 156.233,-79.514"/>
<polygon fill="midnightblue" stroke="midnightblue" points="155.837,-82.9926 166.223,-80.8996 156.799,-76.0589 155.837,-82.9926"/>
</g>
<!-- Node4 -->
<g id="node4" class="node"><title>Node4</title>
<g id="a_node4"><a xlink:href="../../da/d33/glew_8h.html#a31d8f4c0ab0fdc04ee4ba3236eea9c13" target="_top" xlink:title="glCallList">
<polygon fill="white" stroke="black" points="175.5,-38.5 175.5,-57.5 232.5,-57.5 232.5,-38.5 175.5,-38.5"/>
<text text-anchor="middle" x="204" y="-45.5" font-family="Helvetica,sans-Serif" font-size="10.00">glCallList</text>
</a>
</g>
</g>
<!-- Node1&#45;&gt;Node4 -->
<g id="edge3" class="edge"><title>Node1&#45;&gt;Node4</title>
<path fill="none" stroke="midnightblue" d="M130.088,-58.1119C142.12,-56.4432 154.335,-54.7492 165.239,-53.237"/>
<polygon fill="midnightblue" stroke="midnightblue" points="165.818,-56.6902 175.242,-51.8496 164.856,-49.7566 165.818,-56.6902"/>
</g>
<!-- Node5 -->
<g id="node5" class="node"><title>Node5</title>
<g id="a_node5"><a xlink:href="../../da/d33/glew_8h.html#a9e424a5503edd5a5b76442b503661afe" target="_top" xlink:title="glPopMatrix">
<polygon fill="white" stroke="black" points="170,-0.5 170,-19.5 238,-19.5 238,-0.5 170,-0.5"/>
<text text-anchor="middle" x="204" y="-7.5" font-family="Helvetica,sans-Serif" font-size="10.00">glPopMatrix</text>
</a>
</g>
</g>
<!-- Node1&#45;&gt;Node5 -->
<g id="edge4" class="edge"><title>Node1&#45;&gt;Node5</title>
<path fill="none" stroke="midnightblue" d="M88.9307,-57.4595C111.257,-48.1706 145.402,-33.9642 170.518,-23.5143"/>
<polygon fill="midnightblue" stroke="midnightblue" points="172.106,-26.6445 179.994,-19.5716 169.417,-20.1816 172.106,-26.6445"/>
</g>
</g>
</svg>
