<?xml version="1.0" encoding="UTF-8" standalone="no"?>
<!DOCTYPE svg PUBLIC "-//W3C//DTD SVG 1.1//EN"
 "http://www.w3.org/Graphics/SVG/1.1/DTD/svg11.dtd">
<!-- Generated by graphviz version 2.36.0 (20140111.2315)
 -->
<!-- Title: GLViewer::pointCloud2GLStrip Pages: 1 -->
<svg width="498pt" height="408pt"
 viewBox="0.00 0.00 498.00 408.00" xmlns="http://www.w3.org/2000/svg" xmlns:xlink="http://www.w3.org/1999/xlink">
<g id="graph0" class="graph" transform="scale(1 1) rotate(0) translate(4 404)">
<title>GLViewer::pointCloud2GLStrip</title>
<polygon fill="white" stroke="none" points="-4,4 -4,-404 494,-404 494,4 -4,4"/>
<!-- Node1 -->
<g id="node1" class="node"><title>Node1</title>
<polygon fill="#bfbfbf" stroke="black" points="0,-190.5 0,-209.5 150,-209.5 150,-190.5 0,-190.5"/>
<text text-anchor="middle" x="75" y="-197.5" font-family="Helvetica,sans-Serif" font-size="10.00">GLViewer::pointCloud2GLStrip</text>
</g>
<!-- Node2 -->
<g id="node2" class="node"><title>Node2</title>
<g id="a_node2"><a xlink:href="../../da/d33/glew_8h.html#a695a55175b5e79ab29946bcba8b16668" target="_top" xlink:title="glGenLists">
<polygon fill="white" stroke="black" points="221.5,-380.5 221.5,-399.5 284.5,-399.5 284.5,-380.5 221.5,-380.5"/>
<text text-anchor="middle" x="253" y="-387.5" font-family="Helvetica,sans-Serif" font-size="10.00">glGenLists</text>
</a>
</g>
</g>
<!-- Node1&#45;&gt;Node2 -->
<g id="edge1" class="edge"><title>Node1&#45;&gt;Node2</title>
<path fill="none" stroke="midnightblue" d="M79.854,-209.802C91.4828,-238.152 128.965,-321.076 186,-366 193.526,-371.928 202.65,-376.478 211.682,-379.938"/>
<polygon fill="midnightblue" stroke="midnightblue" points="210.772,-383.326 221.367,-383.277 213.054,-376.708 210.772,-383.326"/>
</g>
<!-- Node3 -->
<g id="node3" class="node"><title>Node3</title>
<g id="a_node3"><a xlink:href="../../d3/d3e/classParameterServer.html#a5457f900e543c5a466bf9b65ee6bc577" target="_top" xlink:title="ParameterServer::instance">
<polygon fill="white" stroke="black" points="356.5,-342.5 356.5,-361.5 489.5,-361.5 489.5,-342.5 356.5,-342.5"/>
<text text-anchor="middle" x="423" y="-349.5" font-family="Helvetica,sans-Serif" font-size="10.00">ParameterServer::instance</text>
</a>
</g>
</g>
<!-- Node1&#45;&gt;Node3 -->
<g id="edge2" class="edge"><title>Node1&#45;&gt;Node3</title>
<path fill="none" stroke="midnightblue" d="M80.5006,-209.604C93.0187,-235.076 130.984,-304.355 186,-333 235.099,-358.565 297.85,-362.491 346.302,-360.469"/>
<polygon fill="midnightblue" stroke="midnightblue" points="346.606,-363.958 356.414,-359.953 346.249,-356.967 346.606,-363.958"/>
</g>
<!-- Node4 -->
<g id="node4" class="node"><title>Node4</title>
<g id="a_node4"><a xlink:href="../../d3/d3e/classParameterServer.html#a3c8af50664e423b555bbb1874f488413" target="_top" xlink:title="ParameterServer::get">
<polygon fill="white" stroke="black" points="368,-190.5 368,-209.5 478,-209.5 478,-190.5 368,-190.5"/>
<text text-anchor="middle" x="423" y="-197.5" font-family="Helvetica,sans-Serif" font-size="10.00">ParameterServer::get</text>
</a>
</g>
</g>
<!-- Node1&#45;&gt;Node4 -->
<g id="edge3" class="edge"><title>Node1&#45;&gt;Node4</title>
<path fill="none" stroke="midnightblue" d="M89.3826,-190.336C109.284,-176.623 148.385,-152.167 186,-143 243.862,-128.899 262.367,-127.989 320,-143 350.643,-150.981 381.839,-170.421 401.522,-184.379"/>
<polygon fill="midnightblue" stroke="midnightblue" points="399.568,-187.286 409.711,-190.345 403.69,-181.628 399.568,-187.286"/>
</g>
<!-- Node5 -->
<g id="node5" class="node"><title>Node5</title>
<g id="a_node5"><a xlink:href="../../da/d33/glew_8h.html#a2255efdc1e7585c158d43eb670dde31b" target="_top" xlink:title="glNewList">
<polygon fill="white" stroke="black" points="223,-266.5 223,-285.5 283,-285.5 283,-266.5 223,-266.5"/>
<text text-anchor="middle" x="253" y="-273.5" font-family="Helvetica,sans-Serif" font-size="10.00">glNewList</text>
</a>
</g>
</g>
<!-- Node1&#45;&gt;Node5 -->
<g id="edge4" class="edge"><title>Node1&#45;&gt;Node5</title>
<path fill="none" stroke="midnightblue" d="M91.9267,-209.534C112.91,-221.792 151.233,-243.146 186,-257 194.611,-260.431 204.079,-263.531 213.089,-266.184"/>
<polygon fill="midnightblue" stroke="midnightblue" points="212.422,-269.632 222.997,-268.983 214.325,-262.896 212.422,-269.632"/>
</g>
<!-- Node6 -->
<g id="node6" class="node"><title>Node6</title>
<g id="a_node6"><a xlink:href="../../df/dbf/glviewer_8cpp.html#a6f313f87d88057df0f9f04162088f415" target="_top" xlink:title="validXYZ">
<polygon fill="white" stroke="black" points="225,-228.5 225,-247.5 281,-247.5 281,-228.5 225,-228.5"/>
<text text-anchor="middle" x="253" y="-235.5" font-family="Helvetica,sans-Serif" font-size="10.00">validXYZ</text>
</a>
</g>
</g>
<!-- Node1&#45;&gt;Node6 -->
<g id="edge5" class="edge"><title>Node1&#45;&gt;Node6</title>
<path fill="none" stroke="midnightblue" d="M120.412,-209.589C149.578,-215.886 187.29,-224.029 214.861,-229.981"/>
<polygon fill="midnightblue" stroke="midnightblue" points="214.378,-233.458 224.892,-232.147 215.856,-226.615 214.378,-233.458"/>
</g>
<!-- Node7 -->
<g id="node7" class="node"><title>Node7</title>
<g id="a_node7"><a xlink:href="../../df/dbf/glviewer_8cpp.html#a4ad68a10344bb285bd6d3f1d8c56732a" target="_top" xlink:title="squaredEuclideanDistance">
<polygon fill="white" stroke="black" points="186.5,-190.5 186.5,-209.5 319.5,-209.5 319.5,-190.5 186.5,-190.5"/>
<text text-anchor="middle" x="253" y="-197.5" font-family="Helvetica,sans-Serif" font-size="10.00">squaredEuclideanDistance</text>
</a>
</g>
</g>
<!-- Node1&#45;&gt;Node7 -->
<g id="edge6" class="edge"><title>Node1&#45;&gt;Node7</title>
<path fill="none" stroke="midnightblue" d="M150.13,-200C158.773,-200 167.599,-200 176.263,-200"/>
<polygon fill="midnightblue" stroke="midnightblue" points="176.339,-203.5 186.339,-200 176.339,-196.5 176.339,-203.5"/>
</g>
<!-- Node8 -->
<g id="node8" class="node"><title>Node8</title>
<g id="a_node8"><a xlink:href="../../da/d33/glew_8h.html#a98964453975519f92d6cc59ef77f7436" target="_top" xlink:title="glBegin">
<polygon fill="white" stroke="black" points="228.5,-152.5 228.5,-171.5 277.5,-171.5 277.5,-152.5 228.5,-152.5"/>
<text text-anchor="middle" x="253" y="-159.5" font-family="Helvetica,sans-Serif" font-size="10.00">glBegin</text>
</a>
</g>
</g>
<!-- Node1&#45;&gt;Node8 -->
<g id="edge7" class="edge"><title>Node1&#45;&gt;Node8</title>
<path fill="none" stroke="midnightblue" d="M120.412,-190.411C150.752,-183.86 190.34,-175.313 218.139,-169.311"/>
<polygon fill="midnightblue" stroke="midnightblue" points="219.136,-172.676 228.172,-167.145 217.659,-165.834 219.136,-172.676"/>
</g>
<!-- Node9 -->
<g id="node9" class="node"><title>Node9</title>
<g id="a_node9"><a xlink:href="../../df/dbf/glviewer_8cpp.html#a1a11c028609a8c546669ad5291d1b44f" target="_top" xlink:title="setGLColor">
<polygon fill="white" stroke="black" points="220,-304.5 220,-323.5 286,-323.5 286,-304.5 220,-304.5"/>
<text text-anchor="middle" x="253" y="-311.5" font-family="Helvetica,sans-Serif" font-size="10.00">setGLColor</text>
</a>
</g>
</g>
<!-- Node1&#45;&gt;Node9 -->
<g id="edge8" class="edge"><title>Node1&#45;&gt;Node9</title>
<path fill="none" stroke="midnightblue" d="M84.3903,-209.62C101.556,-228.713 142.732,-271.568 186,-295 193.38,-298.996 201.69,-302.231 209.862,-304.822"/>
<polygon fill="midnightblue" stroke="midnightblue" points="209.11,-308.248 219.689,-307.669 211.059,-301.524 209.11,-308.248"/>
</g>
<!-- Node11 -->
<g id="node11" class="node"><title>Node11</title>
<g id="a_node11"><a xlink:href="../../da/d33/glew_8h.html#a9a95e17961303a80a5bf052b8c1cf677" target="_top" xlink:title="glVertex3f">
<polygon fill="white" stroke="black" points="222.5,-76.5 222.5,-95.5 283.5,-95.5 283.5,-76.5 222.5,-76.5"/>
<text text-anchor="middle" x="253" y="-83.5" font-family="Helvetica,sans-Serif" font-size="10.00">glVertex3f</text>
</a>
</g>
</g>
<!-- Node1&#45;&gt;Node11 -->
<g id="edge12" class="edge"><title>Node1&#45;&gt;Node11</title>
<path fill="none" stroke="midnightblue" d="M85.4666,-190.33C103.536,-172.338 144.822,-133.427 186,-110 194.327,-105.262 203.761,-101.172 212.837,-97.778"/>
<polygon fill="midnightblue" stroke="midnightblue" points="214.214,-101.003 222.476,-94.3705 211.881,-94.4037 214.214,-101.003"/>
</g>
<!-- Node12 -->
<g id="node12" class="node"><title>Node12</title>
<g id="a_node12"><a xlink:href="../../da/d33/glew_8h.html#abbff207d1fa71b296ff35b149cef7238" target="_top" xlink:title="glEnd">
<polygon fill="white" stroke="black" points="232.5,-38.5 232.5,-57.5 273.5,-57.5 273.5,-38.5 232.5,-38.5"/>
<text text-anchor="middle" x="253" y="-45.5" font-family="Helvetica,sans-Serif" font-size="10.00">glEnd</text>
</a>
</g>
</g>
<!-- Node1&#45;&gt;Node12 -->
<g id="edge13" class="edge"><title>Node1&#45;&gt;Node12</title>
<path fill="none" stroke="midnightblue" d="M81.2401,-190.276C94.9906,-165.7 134.62,-100.665 186,-67 196.799,-59.924 210.271,-55.4347 222.222,-52.6099"/>
<polygon fill="midnightblue" stroke="midnightblue" points="223.148,-55.9924 232.228,-50.5327 221.725,-49.1385 223.148,-55.9924"/>
</g>
<!-- Node13 -->
<g id="node13" class="node"><title>Node13</title>
<g id="a_node13"><a xlink:href="../../da/d33/glew_8h.html#a9bd7233f539f4fd2000c5d5999f6c439" target="_top" xlink:title="glEndList">
<polygon fill="white" stroke="black" points="224.5,-0.5 224.5,-19.5 281.5,-19.5 281.5,-0.5 224.5,-0.5"/>
<text text-anchor="middle" x="253" y="-7.5" font-family="Helvetica,sans-Serif" font-size="10.00">glEndList</text>
</a>
</g>
</g>
<!-- Node1&#45;&gt;Node13 -->
<g id="edge14" class="edge"><title>Node1&#45;&gt;Node13</title>
<path fill="none" stroke="midnightblue" d="M79.4628,-190.128C90.2659,-160.798 126.246,-73.4642 186,-29 194.322,-22.8072 204.611,-18.6291 214.568,-15.8117"/>
<polygon fill="midnightblue" stroke="midnightblue" points="215.447,-19.1998 224.329,-13.4236 213.784,-12.4004 215.447,-19.1998"/>
</g>
<!-- Node9&#45;&gt;Node3 -->
<g id="edge9" class="edge"><title>Node9&#45;&gt;Node3</title>
<path fill="none" stroke="midnightblue" d="M286.392,-321.327C310.085,-326.686 342.721,-334.068 370.039,-340.247"/>
<polygon fill="midnightblue" stroke="midnightblue" points="369.311,-343.671 379.837,-342.463 370.855,-336.843 369.311,-343.671"/>
</g>
<!-- Node9&#45;&gt;Node4 -->
<g id="edge10" class="edge"><title>Node9&#45;&gt;Node4</title>
<path fill="none" stroke="midnightblue" d="M286.096,-307.976C297.283,-305.058 309.623,-300.874 320,-295 356.093,-274.569 389.576,-238.915 407.766,-217.578"/>
<polygon fill="midnightblue" stroke="midnightblue" points="410.661,-219.572 414.381,-209.652 405.286,-215.087 410.661,-219.572"/>
</g>
<!-- Node10 -->
<g id="node10" class="node"><title>Node10</title>
<g id="a_node10"><a xlink:href="../../da/d33/glew_8h.html#ac4a27c2f93c1e808c049df3865d65d31" target="_top" xlink:title="glColor3ub">
<polygon fill="white" stroke="black" points="391.5,-304.5 391.5,-323.5 454.5,-323.5 454.5,-304.5 391.5,-304.5"/>
<text text-anchor="middle" x="423" y="-311.5" font-family="Helvetica,sans-Serif" font-size="10.00">glColor3ub</text>
</a>
</g>
</g>
<!-- Node9&#45;&gt;Node10 -->
<g id="edge11" class="edge"><title>Node9&#45;&gt;Node10</title>
<path fill="none" stroke="midnightblue" d="M286.392,-314C313.397,-314 352.02,-314 381.145,-314"/>
<polygon fill="midnightblue" stroke="midnightblue" points="381.406,-317.5 391.406,-314 381.406,-310.5 381.406,-317.5"/>
</g>
</g>
</svg>
