<?xml version="1.0" encoding="UTF-8" standalone="no"?>
<!DOCTYPE svg PUBLIC "-//W3C//DTD SVG 1.1//EN"
 "http://www.w3.org/Graphics/SVG/1.1/DTD/svg11.dtd">
<!-- Generated by graphviz version 2.36.0 (20140111.2315)
 -->
<!-- Title: GLViewer::pointCloud2GLTriangleList Pages: 1 -->
<svg width="630pt" height="408pt"
 viewBox="0.00 0.00 630.00 408.00" xmlns="http://www.w3.org/2000/svg" xmlns:xlink="http://www.w3.org/1999/xlink">
<g id="graph0" class="graph" transform="scale(1 1) rotate(0) translate(4 404)">
<title>GLViewer::pointCloud2GLTriangleList</title>
<polygon fill="white" stroke="none" points="-4,4 -4,-404 626,-404 626,4 -4,4"/>
<!-- Node1 -->
<g id="node1" class="node"><title>Node1</title>
<polygon fill="#bfbfbf" stroke="black" points="0,-171.5 0,-190.5 180,-190.5 180,-171.5 0,-171.5"/>
<text text-anchor="middle" x="90" y="-178.5" font-family="Helvetica,sans-Serif" font-size="10.00">GLViewer::pointCloud2GLTriangleList</text>
</g>
<!-- Node2 -->
<g id="node2" class="node"><title>Node2</title>
<g id="a_node2"><a xlink:href="../../da/d33/glew_8h.html#a695a55175b5e79ab29946bcba8b16668" target="_top" xlink:title="glGenLists">
<polygon fill="white" stroke="black" points="251.5,-380.5 251.5,-399.5 314.5,-399.5 314.5,-380.5 251.5,-380.5"/>
<text text-anchor="middle" x="283" y="-387.5" font-family="Helvetica,sans-Serif" font-size="10.00">glGenLists</text>
</a>
</g>
</g>
<!-- Node1&#45;&gt;Node2 -->
<g id="edge1" class="edge"><title>Node1&#45;&gt;Node2</title>
<path fill="none" stroke="midnightblue" d="M94.8861,-190.606C107.6,-220.865 150.911,-315.204 216,-366 223.553,-371.894 232.687,-376.431 241.721,-379.889"/>
<polygon fill="midnightblue" stroke="midnightblue" points="240.809,-383.277 251.404,-383.23 243.093,-376.66 240.809,-383.277"/>
</g>
<!-- Node3 -->
<g id="node3" class="node"><title>Node3</title>
<g id="a_node3"><a xlink:href="../../d3/d3e/classParameterServer.html#a5457f900e543c5a466bf9b65ee6bc577" target="_top" xlink:title="ParameterServer::instance">
<polygon fill="white" stroke="black" points="488.5,-342.5 488.5,-361.5 621.5,-361.5 621.5,-342.5 488.5,-342.5"/>
<text text-anchor="middle" x="555" y="-349.5" font-family="Helvetica,sans-Serif" font-size="10.00">ParameterServer::instance</text>
</a>
</g>
</g>
<!-- Node1&#45;&gt;Node3 -->
<g id="edge2" class="edge"><title>Node1&#45;&gt;Node3</title>
<path fill="none" stroke="midnightblue" d="M98.5776,-190.752C116.437,-213.016 163.626,-267.756 216,-295 298.649,-337.992 406.614,-349.719 478.024,-352.341"/>
<polygon fill="midnightblue" stroke="midnightblue" points="478.182,-355.848 488.288,-352.665 478.403,-348.852 478.182,-355.848"/>
</g>
<!-- Node4 -->
<g id="node4" class="node"><title>Node4</title>
<g id="a_node4"><a xlink:href="../../d3/d3e/classParameterServer.html#a3c8af50664e423b555bbb1874f488413" target="_top" xlink:title="ParameterServer::get">
<polygon fill="white" stroke="black" points="500,-247.5 500,-266.5 610,-266.5 610,-247.5 500,-247.5"/>
<text text-anchor="middle" x="555" y="-254.5" font-family="Helvetica,sans-Serif" font-size="10.00">ParameterServer::get</text>
</a>
</g>
</g>
<!-- Node1&#45;&gt;Node4 -->
<g id="edge3" class="edge"><title>Node1&#45;&gt;Node4</title>
<path fill="none" stroke="midnightblue" d="M117.456,-190.591C142.51,-199.301 181.346,-211.848 216,-219 310.2,-238.443 421.366,-248.528 489.769,-253.292"/>
<polygon fill="midnightblue" stroke="midnightblue" points="489.743,-256.798 499.958,-253.984 490.218,-249.814 489.743,-256.798"/>
</g>
<!-- Node5 -->
<g id="node5" class="node"><title>Node5</title>
<g id="a_node5"><a xlink:href="../../da/d33/glew_8h.html#a2255efdc1e7585c158d43eb670dde31b" target="_top" xlink:title="glNewList">
<polygon fill="white" stroke="black" points="253,-190.5 253,-209.5 313,-209.5 313,-190.5 253,-190.5"/>
<text text-anchor="middle" x="283" y="-197.5" font-family="Helvetica,sans-Serif" font-size="10.00">glNewList</text>
</a>
</g>
</g>
<!-- Node1&#45;&gt;Node5 -->
<g id="edge4" class="edge"><title>Node1&#45;&gt;Node5</title>
<path fill="none" stroke="midnightblue" d="M180.069,-189.86C202.02,-192.044 224.426,-194.273 242.62,-196.083"/>
<polygon fill="midnightblue" stroke="midnightblue" points="242.513,-199.589 252.81,-197.096 243.206,-192.624 242.513,-199.589"/>
</g>
<!-- Node6 -->
<g id="node6" class="node"><title>Node6</title>
<g id="a_node6"><a xlink:href="../../da/d33/glew_8h.html#a98964453975519f92d6cc59ef77f7436" target="_top" xlink:title="glBegin">
<polygon fill="white" stroke="black" points="258.5,-152.5 258.5,-171.5 307.5,-171.5 307.5,-152.5 258.5,-152.5"/>
<text text-anchor="middle" x="283" y="-159.5" font-family="Helvetica,sans-Serif" font-size="10.00">glBegin</text>
</a>
</g>
</g>
<!-- Node1&#45;&gt;Node6 -->
<g id="edge5" class="edge"><title>Node1&#45;&gt;Node6</title>
<path fill="none" stroke="midnightblue" d="M180.069,-172.14C204.359,-169.723 229.205,-167.252 248.286,-165.354"/>
<polygon fill="midnightblue" stroke="midnightblue" points="248.649,-168.835 258.253,-164.362 247.956,-161.869 248.649,-168.835"/>
</g>
<!-- Node7 -->
<g id="node7" class="node"><title>Node7</title>
<g id="a_node7"><a xlink:href="../../df/dbf/glviewer_8cpp.html#a6f313f87d88057df0f9f04162088f415" target="_top" xlink:title="validXYZ">
<polygon fill="white" stroke="black" points="255,-114.5 255,-133.5 311,-133.5 311,-114.5 255,-114.5"/>
<text text-anchor="middle" x="283" y="-121.5" font-family="Helvetica,sans-Serif" font-size="10.00">validXYZ</text>
</a>
</g>
</g>
<!-- Node1&#45;&gt;Node7 -->
<g id="edge6" class="edge"><title>Node1&#45;&gt;Node7</title>
<path fill="none" stroke="midnightblue" d="M122.04,-171.424C147.31,-163.662 183.919,-152.493 216,-143 225.32,-140.242 235.397,-137.314 244.803,-134.604"/>
<polygon fill="midnightblue" stroke="midnightblue" points="246.034,-137.892 254.679,-131.767 244.101,-131.164 246.034,-137.892"/>
</g>
<!-- Node8 -->
<g id="node8" class="node"><title>Node8</title>
<g id="a_node8"><a xlink:href="../../df/dbf/glviewer_8cpp.html#a4ad68a10344bb285bd6d3f1d8c56732a" target="_top" xlink:title="squaredEuclideanDistance">
<polygon fill="white" stroke="black" points="216.5,-76.5 216.5,-95.5 349.5,-95.5 349.5,-76.5 216.5,-76.5"/>
<text text-anchor="middle" x="283" y="-83.5" font-family="Helvetica,sans-Serif" font-size="10.00">squaredEuclideanDistance</text>
</a>
</g>
</g>
<!-- Node1&#45;&gt;Node8 -->
<g id="edge7" class="edge"><title>Node1&#45;&gt;Node8</title>
<path fill="none" stroke="midnightblue" d="M104.223,-171.316C126.354,-155.496 172.738,-123.973 216,-105 221.317,-102.668 226.998,-100.536 232.714,-98.6126"/>
<polygon fill="midnightblue" stroke="midnightblue" points="233.83,-101.93 242.306,-95.5726 231.715,-95.2574 233.83,-101.93"/>
</g>
<!-- Node9 -->
<g id="node9" class="node"><title>Node9</title>
<g id="a_node9"><a xlink:href="../../db/d4e/classGLViewer.html#adcd3bd4e3da810d6388889ba917607b9" target="_top" xlink:title="GLViewer::drawTriangle">
<polygon fill="white" stroke="black" points="222.5,-266.5 222.5,-285.5 343.5,-285.5 343.5,-266.5 222.5,-266.5"/>
<text text-anchor="middle" x="283" y="-273.5" font-family="Helvetica,sans-Serif" font-size="10.00">GLViewer::drawTriangle</text>
</a>
</g>
</g>
<!-- Node1&#45;&gt;Node9 -->
<g id="edge8" class="edge"><title>Node1&#45;&gt;Node9</title>
<path fill="none" stroke="midnightblue" d="M105.959,-190.594C128.981,-205.104 174.763,-232.954 216,-252 224.535,-255.942 233.917,-259.687 242.86,-262.995"/>
<polygon fill="midnightblue" stroke="midnightblue" points="241.738,-266.311 252.332,-266.403 244.107,-259.724 241.738,-266.311"/>
</g>
<!-- Node13 -->
<g id="node13" class="node"><title>Node13</title>
<g id="a_node13"><a xlink:href="../../da/d33/glew_8h.html#abbff207d1fa71b296ff35b149cef7238" target="_top" xlink:title="glEnd">
<polygon fill="white" stroke="black" points="262.5,-38.5 262.5,-57.5 303.5,-57.5 303.5,-38.5 262.5,-38.5"/>
<text text-anchor="middle" x="283" y="-45.5" font-family="Helvetica,sans-Serif" font-size="10.00">glEnd</text>
</a>
</g>
</g>
<!-- Node1&#45;&gt;Node13 -->
<g id="edge14" class="edge"><title>Node1&#45;&gt;Node13</title>
<path fill="none" stroke="midnightblue" d="M98.6948,-171.465C116.8,-149.658 164.473,-95.8124 216,-67 227.189,-60.7438 240.62,-56.3913 252.436,-53.447"/>
<polygon fill="midnightblue" stroke="midnightblue" points="253.329,-56.8335 262.308,-51.2096 251.782,-50.0066 253.329,-56.8335"/>
</g>
<!-- Node14 -->
<g id="node14" class="node"><title>Node14</title>
<g id="a_node14"><a xlink:href="../../da/d33/glew_8h.html#a9bd7233f539f4fd2000c5d5999f6c439" target="_top" xlink:title="glEndList">
<polygon fill="white" stroke="black" points="254.5,-0.5 254.5,-19.5 311.5,-19.5 311.5,-0.5 254.5,-0.5"/>
<text text-anchor="middle" x="283" y="-7.5" font-family="Helvetica,sans-Serif" font-size="10.00">glEndList</text>
</a>
</g>
</g>
<!-- Node1&#45;&gt;Node14 -->
<g id="edge15" class="edge"><title>Node1&#45;&gt;Node14</title>
<path fill="none" stroke="midnightblue" d="M96.0587,-171.477C110.774,-144.711 156.327,-68.2183 216,-29 224.505,-23.4105 234.675,-19.4362 244.455,-16.6213"/>
<polygon fill="midnightblue" stroke="midnightblue" points="245.589,-19.9443 254.419,-14.0884 243.864,-13.16 245.589,-19.9443"/>
</g>
<!-- Node10 -->
<g id="node10" class="node"><title>Node10</title>
<g id="a_node10"><a xlink:href="../../df/dbf/glviewer_8cpp.html#a1a11c028609a8c546669ad5291d1b44f" target="_top" xlink:title="setGLColor">
<polygon fill="white" stroke="black" points="386,-304.5 386,-323.5 452,-323.5 452,-304.5 386,-304.5"/>
<text text-anchor="middle" x="419" y="-311.5" font-family="Helvetica,sans-Serif" font-size="10.00">setGLColor</text>
</a>
</g>
</g>
<!-- Node9&#45;&gt;Node10 -->
<g id="edge9" class="edge"><title>Node9&#45;&gt;Node10</title>
<path fill="none" stroke="midnightblue" d="M317.814,-285.589C335.427,-290.584 357.134,-296.739 375.834,-302.042"/>
<polygon fill="midnightblue" stroke="midnightblue" points="375.008,-305.446 385.584,-304.807 376.918,-298.712 375.008,-305.446"/>
</g>
<!-- Node12 -->
<g id="node12" class="node"><title>Node12</title>
<g id="a_node12"><a xlink:href="../../da/d33/glew_8h.html#a9a95e17961303a80a5bf052b8c1cf677" target="_top" xlink:title="glVertex3f">
<polygon fill="white" stroke="black" points="388.5,-266.5 388.5,-285.5 449.5,-285.5 449.5,-266.5 388.5,-266.5"/>
<text text-anchor="middle" x="419" y="-273.5" font-family="Helvetica,sans-Serif" font-size="10.00">glVertex3f</text>
</a>
</g>
</g>
<!-- Node9&#45;&gt;Node12 -->
<g id="edge13" class="edge"><title>Node9&#45;&gt;Node12</title>
<path fill="none" stroke="midnightblue" d="M343.555,-276C355.314,-276 367.383,-276 378.289,-276"/>
<polygon fill="midnightblue" stroke="midnightblue" points="378.34,-279.5 388.34,-276 378.34,-272.5 378.34,-279.5"/>
</g>
<!-- Node10&#45;&gt;Node3 -->
<g id="edge10" class="edge"><title>Node10&#45;&gt;Node3</title>
<path fill="none" stroke="midnightblue" d="M452.096,-323.102C469.635,-328.076 491.6,-334.305 510.643,-339.705"/>
<polygon fill="midnightblue" stroke="midnightblue" points="509.72,-343.081 520.296,-342.442 511.63,-336.347 509.72,-343.081"/>
</g>
<!-- Node10&#45;&gt;Node4 -->
<g id="edge11" class="edge"><title>Node10&#45;&gt;Node4</title>
<path fill="none" stroke="midnightblue" d="M442.429,-304.459C464.266,-295.171 497.663,-280.964 522.23,-270.514"/>
<polygon fill="midnightblue" stroke="midnightblue" points="523.666,-273.707 531.498,-266.572 520.926,-267.265 523.666,-273.707"/>
</g>
<!-- Node11 -->
<g id="node11" class="node"><title>Node11</title>
<g id="a_node11"><a xlink:href="../../da/d33/glew_8h.html#ac4a27c2f93c1e808c049df3865d65d31" target="_top" xlink:title="glColor3ub">
<polygon fill="white" stroke="black" points="523.5,-304.5 523.5,-323.5 586.5,-323.5 586.5,-304.5 523.5,-304.5"/>
<text text-anchor="middle" x="555" y="-311.5" font-family="Helvetica,sans-Serif" font-size="10.00">glColor3ub</text>
</a>
</g>
</g>
<!-- Node10&#45;&gt;Node11 -->
<g id="edge12" class="edge"><title>Node10&#45;&gt;Node11</title>
<path fill="none" stroke="midnightblue" d="M452.096,-314C470.342,-314 493.379,-314 512.932,-314"/>
<polygon fill="midnightblue" stroke="midnightblue" points="513.088,-317.5 523.088,-314 513.088,-310.5 513.088,-317.5"/>
</g>
</g>
</svg>
