<?xml version="1.0" encoding="UTF-8" standalone="no"?>
<!DOCTYPE svg PUBLIC "-//W3C//DTD SVG 1.1//EN"
 "http://www.w3.org/Graphics/SVG/1.1/DTD/svg11.dtd">
<!-- Generated by graphviz version 2.36.0 (20140111.2315)
 -->
<!-- Title: GLViewer::drawAxes Pages: 1 -->
<svg width="222pt" height="218pt"
 viewBox="0.00 0.00 222.00 218.00" xmlns="http://www.w3.org/2000/svg" xmlns:xlink="http://www.w3.org/1999/xlink">
<g id="graph0" class="graph" transform="scale(1 1) rotate(0) translate(4 214)">
<title>GLViewer::drawAxes</title>
<polygon fill="white" stroke="none" points="-4,4 -4,-214 218,-214 218,4 -4,4"/>
<!-- Node1 -->
<g id="node1" class="node"><title>Node1</title>
<polygon fill="#bfbfbf" stroke="black" points="0.5,-95.5 0.5,-114.5 109.5,-114.5 109.5,-95.5 0.5,-95.5"/>
<text text-anchor="middle" x="55" y="-102.5" font-family="Helvetica,sans-Serif" font-size="10.00">GLViewer::drawAxes</text>
</g>
<!-- Node2 -->
<g id="node2" class="node"><title>Node2</title>
<g id="a_node2"><a xlink:href="../../da/d33/glew_8h.html#a1beaf822e5a901dc3fe429b68efb77d4" target="_top" xlink:title="glEnable">
<polygon fill="white" stroke="black" points="153,-190.5 153,-209.5 207,-209.5 207,-190.5 153,-190.5"/>
<text text-anchor="middle" x="180" y="-197.5" font-family="Helvetica,sans-Serif" font-size="10.00">glEnable</text>
</a>
</g>
</g>
<!-- Node1&#45;&gt;Node2 -->
<g id="edge1" class="edge"><title>Node1&#45;&gt;Node2</title>
<path fill="none" stroke="midnightblue" d="M66.0431,-114.525C82.179,-129.581 115.197,-159.387 146,-181 147.891,-182.327 149.88,-183.645 151.906,-184.933"/>
<polygon fill="midnightblue" stroke="midnightblue" points="150.456,-188.146 160.827,-190.312 154.071,-182.151 150.456,-188.146"/>
</g>
<!-- Node3 -->
<g id="node3" class="node"><title>Node3</title>
<g id="a_node3"><a xlink:href="../../da/d33/glew_8h.html#a98964453975519f92d6cc59ef77f7436" target="_top" xlink:title="glBegin">
<polygon fill="white" stroke="black" points="155.5,-152.5 155.5,-171.5 204.5,-171.5 204.5,-152.5 155.5,-152.5"/>
<text text-anchor="middle" x="180" y="-159.5" font-family="Helvetica,sans-Serif" font-size="10.00">glBegin</text>
</a>
</g>
</g>
<!-- Node1&#45;&gt;Node3 -->
<g id="edge2" class="edge"><title>Node1&#45;&gt;Node3</title>
<path fill="none" stroke="midnightblue" d="M76.5874,-114.541C96.4544,-123.747 126.746,-137.785 149.237,-148.207"/>
<polygon fill="midnightblue" stroke="midnightblue" points="147.801,-151.399 158.345,-152.428 150.744,-145.048 147.801,-151.399"/>
</g>
<!-- Node4 -->
<g id="node4" class="node"><title>Node4</title>
<g id="a_node4"><a xlink:href="../../da/d33/glew_8h.html#a8ac47f6bf1d1c4699a40b5458db28833" target="_top" xlink:title="glLineWidth">
<polygon fill="white" stroke="black" points="146,-114.5 146,-133.5 214,-133.5 214,-114.5 146,-114.5"/>
<text text-anchor="middle" x="180" y="-121.5" font-family="Helvetica,sans-Serif" font-size="10.00">glLineWidth</text>
</a>
</g>
</g>
<!-- Node1&#45;&gt;Node4 -->
<g id="edge3" class="edge"><title>Node1&#45;&gt;Node4</title>
<path fill="none" stroke="midnightblue" d="M109.592,-113.278C118.336,-114.629 127.298,-116.014 135.754,-117.32"/>
<polygon fill="midnightblue" stroke="midnightblue" points="135.35,-120.799 145.768,-118.867 136.419,-113.881 135.35,-120.799"/>
</g>
<!-- Node5 -->
<g id="node5" class="node"><title>Node5</title>
<g id="a_node5"><a xlink:href="../../da/d33/glew_8h.html#ae9e165c507000556a24b1ce329aadd15" target="_top" xlink:title="glColor4f">
<polygon fill="white" stroke="black" points="152,-76.5 152,-95.5 208,-95.5 208,-76.5 152,-76.5"/>
<text text-anchor="middle" x="180" y="-83.5" font-family="Helvetica,sans-Serif" font-size="10.00">glColor4f</text>
</a>
</g>
</g>
<!-- Node1&#45;&gt;Node5 -->
<g id="edge4" class="edge"><title>Node1&#45;&gt;Node5</title>
<path fill="none" stroke="midnightblue" d="M109.592,-96.7216C120.451,-95.0442 131.644,-93.3152 141.787,-91.7483"/>
<polygon fill="midnightblue" stroke="midnightblue" points="142.571,-95.1689 151.919,-90.1832 141.502,-88.2509 142.571,-95.1689"/>
</g>
<!-- Node6 -->
<g id="node6" class="node"><title>Node6</title>
<g id="a_node6"><a xlink:href="../../da/d33/glew_8h.html#a9a95e17961303a80a5bf052b8c1cf677" target="_top" xlink:title="glVertex3f">
<polygon fill="white" stroke="black" points="149.5,-38.5 149.5,-57.5 210.5,-57.5 210.5,-38.5 149.5,-38.5"/>
<text text-anchor="middle" x="180" y="-45.5" font-family="Helvetica,sans-Serif" font-size="10.00">glVertex3f</text>
</a>
</g>
</g>
<!-- Node1&#45;&gt;Node6 -->
<g id="edge5" class="edge"><title>Node1&#45;&gt;Node6</title>
<path fill="none" stroke="midnightblue" d="M76.5874,-95.4595C96.4544,-86.2528 126.746,-72.2153 149.237,-61.7926"/>
<polygon fill="midnightblue" stroke="midnightblue" points="150.744,-64.9519 158.345,-57.5716 147.801,-58.6007 150.744,-64.9519"/>
</g>
<!-- Node7 -->
<g id="node7" class="node"><title>Node7</title>
<g id="a_node7"><a xlink:href="../../da/d33/glew_8h.html#abbff207d1fa71b296ff35b149cef7238" target="_top" xlink:title="glEnd">
<polygon fill="white" stroke="black" points="159.5,-0.5 159.5,-19.5 200.5,-19.5 200.5,-0.5 159.5,-0.5"/>
<text text-anchor="middle" x="180" y="-7.5" font-family="Helvetica,sans-Serif" font-size="10.00">glEnd</text>
</a>
</g>
</g>
<!-- Node1&#45;&gt;Node7 -->
<g id="edge6" class="edge"><title>Node1&#45;&gt;Node7</title>
<path fill="none" stroke="midnightblue" d="M66.0431,-95.4753C82.179,-80.4191 115.197,-50.6131 146,-29 147.891,-27.6734 149.88,-26.355 151.906,-25.0673"/>
<polygon fill="midnightblue" stroke="midnightblue" points="154.071,-27.8488 160.827,-19.6879 150.456,-21.8542 154.071,-27.8488"/>
</g>
</g>
</svg>
