<?xml version="1.0" encoding="UTF-8" standalone="no"?>
<!DOCTYPE svg PUBLIC "-//W3C//DTD SVG 1.1//EN"
 "http://www.w3.org/Graphics/SVG/1.1/DTD/svg11.dtd">
<!-- Generated by graphviz version 2.36.0 (20140111.2315)
 -->
<!-- Title: src/bagloader.h Pages: 1 -->
<svg width="246pt" height="84pt"
 viewBox="0.00 0.00 246.00 84.00" xmlns="http://www.w3.org/2000/svg" xmlns:xlink="http://www.w3.org/1999/xlink">
<g id="graph0" class="graph" transform="scale(1 1) rotate(0) translate(4 80)">
<title>src/bagloader.h</title>
<polygon fill="white" stroke="none" points="-4,4 -4,-80 242,-80 242,4 -4,4"/>
<!-- Node1 -->
<g id="node1" class="node"><title>Node1</title>
<polygon fill="#bfbfbf" stroke="black" points="69.5,-56.5 69.5,-75.5 152.5,-75.5 152.5,-56.5 69.5,-56.5"/>
<text text-anchor="middle" x="111" y="-63.5" font-family="Helvetica,sans-Serif" font-size="10.00">src/bagloader.h</text>
</g>
<!-- Node2 -->
<g id="node2" class="node"><title>Node2</title>
<g id="a_node2"><a xlink:href="../../d4/dd4/bagloader_8cpp.html" target="_top" xlink:title="src/bagloader.cpp">
<polygon fill="white" stroke="black" points="0,-0.5 0,-19.5 94,-19.5 94,-0.5 0,-0.5"/>
<text text-anchor="middle" x="47" y="-7.5" font-family="Helvetica,sans-Serif" font-size="10.00">src/bagloader.cpp</text>
</a>
</g>
</g>
<!-- Node1&#45;&gt;Node2 -->
<g id="edge1" class="edge"><title>Node1&#45;&gt;Node2</title>
<path fill="none" stroke="midnightblue" d="M93.0085,-49.8197C81.5424,-40.1452 67.0867,-27.9481 57.4698,-19.8339"/>
<polygon fill="midnightblue" stroke="midnightblue" points="90.8173,-52.5502 100.717,-56.324 95.3314,-47.2002 90.8173,-52.5502"/>
</g>
<!-- Node3 -->
<g id="node3" class="node"><title>Node3</title>
<g id="a_node3"><a xlink:href="../../dd/d45/result-bag-viewer_8cpp.html" target="_top" xlink:title="src/result&#45;bag&#45;viewer.cpp">
<polygon fill="white" stroke="black" points="112,-0.5 112,-19.5 238,-19.5 238,-0.5 112,-0.5"/>
<text text-anchor="middle" x="175" y="-7.5" font-family="Helvetica,sans-Serif" font-size="10.00">src/result&#45;bag&#45;viewer.cpp</text>
</a>
</g>
</g>
<!-- Node1&#45;&gt;Node3 -->
<g id="edge2" class="edge"><title>Node1&#45;&gt;Node3</title>
<path fill="none" stroke="midnightblue" d="M128.991,-49.8197C140.458,-40.1452 154.913,-27.9481 164.53,-19.8339"/>
<polygon fill="midnightblue" stroke="midnightblue" points="126.669,-47.2002 121.283,-56.324 131.183,-52.5502 126.669,-47.2002"/>
</g>
</g>
</svg>
