<?xml version="1.0" encoding="UTF-8" standalone="no"?>
<!DOCTYPE svg PUBLIC "-//W3C//DTD SVG 1.1//EN"
 "http://www.w3.org/Graphics/SVG/1.1/DTD/svg11.dtd">
<!-- Generated by graphviz version 2.36.0 (20140111.2315)
 -->
<!-- Title: main Pages: 1 -->
<svg width="288pt" height="66pt"
 viewBox="0.00 0.00 288.00 66.00" xmlns="http://www.w3.org/2000/svg" xmlns:xlink="http://www.w3.org/1999/xlink">
<g id="graph0" class="graph" transform="scale(1 1) rotate(0) translate(4 62)">
<title>main</title>
<polygon fill="white" stroke="none" points="-4,4 -4,-62 284,-62 284,4 -4,4"/>
<!-- Node1 -->
<g id="node1" class="node"><title>Node1</title>
<polygon fill="#bfbfbf" stroke="black" points="0,-19.5 0,-38.5 38,-38.5 38,-19.5 0,-19.5"/>
<text text-anchor="middle" x="19" y="-26.5" font-family="Helvetica,sans-Serif" font-size="10.00">main</text>
</g>
<!-- Node2 -->
<g id="node2" class="node"><title>Node2</title>
<g id="a_node2"><a xlink:href="../../d9/db8/glut_8h.html#aea09ea997c522da4140f3dc3db9d4b8b" target="_top" xlink:title="glutInit">
<polygon fill="white" stroke="black" points="99,-38.5 99,-57.5 145,-57.5 145,-38.5 99,-38.5"/>
<text text-anchor="middle" x="122" y="-45.5" font-family="Helvetica,sans-Serif" font-size="10.00">glutInit</text>
</a>
</g>
</g>
<!-- Node1&#45;&gt;Node2 -->
<g id="edge1" class="edge"><title>Node1&#45;&gt;Node2</title>
<path fill="none" stroke="midnightblue" d="M38.0568,-32.3968C52.1533,-35.0486 72.0985,-38.8007 88.8975,-41.9609"/>
<polygon fill="midnightblue" stroke="midnightblue" points="88.3955,-45.4278 98.8702,-43.837 89.6897,-38.5485 88.3955,-45.4278"/>
</g>
<!-- Node3 -->
<g id="node3" class="node"><title>Node3</title>
<g id="a_node3"><a xlink:href="../../d9/dfc/classTestWinGlut.html#a7cd01fdf328f7c9589af7bfbcab32ebd" target="_top" xlink:title="TestWinGlut::Run">
<polygon fill="white" stroke="black" points="74.5,-0.5 74.5,-19.5 169.5,-19.5 169.5,-0.5 74.5,-0.5"/>
<text text-anchor="middle" x="122" y="-7.5" font-family="Helvetica,sans-Serif" font-size="10.00">TestWinGlut::Run</text>
</a>
</g>
</g>
<!-- Node1&#45;&gt;Node3 -->
<g id="edge2" class="edge"><title>Node1&#45;&gt;Node3</title>
<path fill="none" stroke="midnightblue" d="M38.0568,-25.6032C45.637,-24.1772 54.9084,-22.4331 64.4724,-20.6339"/>
<polygon fill="midnightblue" stroke="midnightblue" points="65.3058,-24.0386 74.4863,-18.7501 64.0116,-17.1593 65.3058,-24.0386"/>
</g>
<!-- Node4 -->
<g id="node4" class="node"><title>Node4</title>
<g id="a_node4"><a xlink:href="../../d9/db8/glut_8h.html#a5560f563456272c4aaac2a948f0ca8a7" target="_top" xlink:title="glutMainLoop">
<polygon fill="white" stroke="black" points="206,-0.5 206,-19.5 280,-19.5 280,-0.5 206,-0.5"/>
<text text-anchor="middle" x="243" y="-7.5" font-family="Helvetica,sans-Serif" font-size="10.00">glutMainLoop</text>
</a>
</g>
</g>
<!-- Node3&#45;&gt;Node4 -->
<g id="edge3" class="edge"><title>Node3&#45;&gt;Node4</title>
<path fill="none" stroke="midnightblue" d="M169.69,-10C178.208,-10 187.094,-10 195.603,-10"/>
<polygon fill="midnightblue" stroke="midnightblue" points="195.746,-13.5001 205.746,-10 195.746,-6.5001 195.746,-13.5001"/>
</g>
</g>
</svg>
