<?xml version="1.0" encoding="UTF-8" standalone="no"?>
<!DOCTYPE svg PUBLIC "-//W3C//DTD SVG 1.1//EN"
 "http://www.w3.org/Graphics/SVG/1.1/DTD/svg11.dtd">
<!-- Generated by graphviz version 2.36.0 (20140111.2315)
 -->
<!-- Title: of2::FabMap::FabMap Pages: 1 -->
<!--zoomable 134 -->
<svg id="main" version="1.1" xmlns="http://www.w3.org/2000/svg" xmlns:xlink="http://www.w3.org/1999/xlink" xml:space="preserve" onload="init(evt)">
<style type="text/css"><![CDATA[
.edge:hover path { stroke: red; }
.edge:hover polygon { stroke: red; fill: red; }
]]></style>
<script type="text/javascript"><![CDATA[
var edges = document.getElementsByTagName('g');
if (edges && edges.length) {
  for (var i=0;i<edges.length;i++) {
    if (edges[i].id.substr(0,4)=='edge') {
      edges[i].setAttribute('class','edge');
    }
  }
}
]]></script>
        <defs>
                <circle id="rim" cx="0" cy="0" r="7"/>
                <circle id="rim2" cx="0" cy="0" r="3.5"/>
                <g id="zoomPlus">
                        <use xlink:href="#rim" fill="#404040">
                                <set attributeName="fill" to="#808080" begin="zoomplus.mouseover" end="zoomplus.mouseout"/>
                        </use>
                        <path d="M-4,0h8M0,-4v8" fill="none" stroke="white" stroke-width="1.5" pointer-events="none"/>
                </g>
                <g id="zoomMin">
                        <use xlink:href="#rim" fill="#404040">
                                <set attributeName="fill" to="#808080" begin="zoomminus.mouseover" end="zoomminus.mouseout"/>
                        </use>
                        <path d="M-4,0h8" fill="none" stroke="white" stroke-width="1.5" pointer-events="none"/>
                </g>
                <g id="dirArrow">
                        <path fill="none" stroke="white" stroke-width="1.5" d="M0,-3.0v7 M-2.5,-0.5L0,-3.0L2.5,-0.5"/>
                </g>
               <g id="resetDef">
                       <use xlink:href="#rim2" fill="#404040">
                               <set attributeName="fill" to="#808080" begin="reset.mouseover" end="reset.mouseout"/>
                       </use>
               </g>
        </defs>

<script type="text/javascript">
var viewWidth = 586;
var viewHeight = 134;
var sectionId = 'dynsection-2';
</script>
<script xlink:href="../../svgpan.js"/>
<svg id="graph" class="graph">
<g id="viewport">
<title>of2::FabMap::FabMap</title>
<polygon fill="white" stroke="none" points="-4,4 -4,-129.851 582,-129.851 582,4 -4,4"/>
<!-- Node1 -->
<g id="node1" class="node"><title>Node1</title>
<polygon fill="#bfbfbf" stroke="black" points="0.5,-74.4189 0.5,-93.4189 113.5,-93.4189 113.5,-74.4189 0.5,-74.4189"/>
<text text-anchor="middle" x="57" y="-81.4189" font-family="Helvetica,sans-Serif" font-size="10.00">of2::FabMap::FabMap</text>
</g>
<!-- Node2 -->
<g id="node2" class="node"><title>Node2</title>
<g id="a_node2"><a xlink:href="../../d5/d90/classof2_1_1FabMap.html#a291fc2d209350aaf44c76a4bf54775b7" target="_top" xlink:title="of2::FabMap::PzqGL">
<polygon fill="white" stroke="black" points="158.5,-93.4189 158.5,-112.419 265.5,-112.419 265.5,-93.4189 158.5,-93.4189"/>
<text text-anchor="middle" x="212" y="-100.419" font-family="Helvetica,sans-Serif" font-size="10.00">of2::FabMap::PzqGL</text>
</a>
</g>
</g>
<!-- Node1&#45;&gt;Node2 -->
<g id="edge1" class="edge"><title>Node1&#45;&gt;Node2</title>
<path fill="none" stroke="midnightblue" d="M113.669,-90.8321C124.97,-92.2354 136.927,-93.7203 148.447,-95.1509"/>
<polygon fill="midnightblue" stroke="midnightblue" points="148.075,-98.6316 158.431,-96.3907 148.938,-91.6849 148.075,-98.6316"/>
</g>
<!-- Node6 -->
<g id="node6" class="node"><title>Node6</title>
<g id="a_node6"><a xlink:href="../../d5/d90/classof2_1_1FabMap.html#af46dab32432a91f1825c59c1c2eddd3e" target="_top" xlink:title="of2::FabMap::PzqGzpqL">
<polygon fill="white" stroke="black" points="150.5,-55.4189 150.5,-74.4189 273.5,-74.4189 273.5,-55.4189 150.5,-55.4189"/>
<text text-anchor="middle" x="212" y="-62.4189" font-family="Helvetica,sans-Serif" font-size="10.00">of2::FabMap::PzqGzpqL</text>
</a>
</g>
</g>
<!-- Node1&#45;&gt;Node6 -->
<g id="edge6" class="edge"><title>Node1&#45;&gt;Node6</title>
<path fill="none" stroke="midnightblue" d="M113.669,-77.0057C122.36,-75.9265 131.44,-74.799 140.41,-73.685"/>
<polygon fill="midnightblue" stroke="midnightblue" points="140.973,-77.1421 150.465,-72.4363 140.11,-70.1955 140.973,-77.1421"/>
</g>
<!-- Node3 -->
<g id="node3" class="node"><title>Node3</title>
<g id="a_node3"><a xlink:href="../../d5/d90/classof2_1_1FabMap.html#a57a59f92bd4a04f18714d7c4fe63b2f7" target="_top" xlink:title="of2::FabMap::PeqGL">
<polygon fill="white" stroke="black" points="315.5,-93.4189 315.5,-112.419 422.5,-112.419 422.5,-93.4189 315.5,-93.4189"/>
<text text-anchor="middle" x="369" y="-100.419" font-family="Helvetica,sans-Serif" font-size="10.00">of2::FabMap::PeqGL</text>
</a>
</g>
</g>
<!-- Node2&#45;&gt;Node3 -->
<g id="edge2" class="edge"><title>Node2&#45;&gt;Node3</title>
<path fill="none" stroke="midnightblue" d="M265.909,-102.919C278.503,-102.919 292.064,-102.919 305.059,-102.919"/>
<polygon fill="midnightblue" stroke="midnightblue" points="305.33,-106.419 315.33,-102.919 305.33,-99.419 305.33,-106.419"/>
</g>
<!-- Node4 -->
<g id="node4" class="node"><title>Node4</title>
<g id="a_node4"><a xlink:href="../../d5/d90/classof2_1_1FabMap.html#ab1b431a81b66fa64cd32ba2738855c92" target="_top" xlink:title="of2::FabMap::PzqGeq">
<polygon fill="white" stroke="black" points="464.5,-93.4189 464.5,-112.419 577.5,-112.419 577.5,-93.4189 464.5,-93.4189"/>
<text text-anchor="middle" x="521" y="-100.419" font-family="Helvetica,sans-Serif" font-size="10.00">of2::FabMap::PzqGeq</text>
</a>
</g>
</g>
<!-- Node2&#45;&gt;Node4 -->
<g id="edge5" class="edge"><title>Node2&#45;&gt;Node4</title>
<path fill="none" stroke="midnightblue" d="M252.388,-112.429C269.913,-116.194 290.87,-120.063 310,-121.919 362.199,-126.983 375.827,-127.25 428,-121.919 442.623,-120.425 458.352,-117.628 472.596,-114.63"/>
<polygon fill="midnightblue" stroke="midnightblue" points="473.647,-117.983 482.669,-112.428 472.152,-111.145 473.647,-117.983"/>
</g>
<!-- Node3&#45;&gt;Node4 -->
<g id="edge3" class="edge"><title>Node3&#45;&gt;Node4</title>
<path fill="none" stroke="midnightblue" d="M422.884,-102.919C432.943,-102.919 443.584,-102.919 453.991,-102.919"/>
<polygon fill="midnightblue" stroke="midnightblue" points="454.29,-106.419 464.29,-102.919 454.29,-99.419 454.29,-106.419"/>
</g>
<!-- Node5 -->
<g id="node5" class="node"><title>Node5</title>
<g id="a_node5"><a xlink:href="../../d5/d90/classof2_1_1FabMap.html#ac1aee23d3571915728cd1c4820ae5bcd" target="_top" xlink:title="of2::FabMap::Pzq">
<polygon fill="white" stroke="black" points="473.5,-17.4189 473.5,-36.4189 568.5,-36.4189 568.5,-17.4189 473.5,-17.4189"/>
<text text-anchor="middle" x="521" y="-24.4189" font-family="Helvetica,sans-Serif" font-size="10.00">of2::FabMap::Pzq</text>
</a>
</g>
</g>
<!-- Node3&#45;&gt;Node5 -->
<g id="edge4" class="edge"><title>Node3&#45;&gt;Node5</title>
<path fill="none" stroke="midnightblue" d="M388.998,-93.2935C415.033,-80.1022 461.987,-56.3121 492.041,-41.0849"/>
<polygon fill="midnightblue" stroke="midnightblue" points="493.818,-44.1081 501.157,-36.4662 490.654,-37.8638 493.818,-44.1081"/>
</g>
<!-- Node6&#45;&gt;Node3 -->
<g id="edge10" class="edge"><title>Node6&#45;&gt;Node3</title>
<path fill="none" stroke="midnightblue" d="M252.113,-74.5079C272.475,-79.4999 297.566,-85.6513 319.189,-90.9523"/>
<polygon fill="midnightblue" stroke="midnightblue" points="318.622,-94.417 329.168,-93.3989 320.289,-87.6184 318.622,-94.417"/>
</g>
<!-- Node6&#45;&gt;Node4 -->
<g id="edge8" class="edge"><title>Node6&#45;&gt;Node4</title>
<path fill="none" stroke="midnightblue" d="M273.92,-68.4205C317.087,-71.3602 376.282,-76.3193 428,-83.9189 441.373,-85.884 455.729,-88.568 469.03,-91.2995"/>
<polygon fill="midnightblue" stroke="midnightblue" points="468.456,-94.7553 478.962,-93.3864 469.896,-87.9048 468.456,-94.7553"/>
</g>
<!-- Node6&#45;&gt;Node5 -->
<g id="edge7" class="edge"><title>Node6&#45;&gt;Node5</title>
<path fill="none" stroke="midnightblue" d="M224.601,-55.2711C241.901,-41.5792 276.074,-17.1489 310,-7.91893 367.228,7.65083 436.128,-4.09599 479.007,-14.8202"/>
<polygon fill="midnightblue" stroke="midnightblue" points="478.24,-18.2369 488.799,-17.3651 480.001,-11.462 478.24,-18.2369"/>
</g>
<!-- Node7 -->
<g id="node7" class="node"><title>Node7</title>
<g id="a_node7"><a xlink:href="../../d5/d90/classof2_1_1FabMap.html#a9621ee6393d8b9ec8c580f10576f32ec" target="_top" xlink:title="of2::FabMap::PzqGzpq">
<polygon fill="white" stroke="black" points="310,-17.4189 310,-36.4189 428,-36.4189 428,-17.4189 310,-17.4189"/>
<text text-anchor="middle" x="369" y="-24.4189" font-family="Helvetica,sans-Serif" font-size="10.00">of2::FabMap::PzqGzpq</text>
</a>
</g>
</g>
<!-- Node6&#45;&gt;Node7 -->
<g id="edge9" class="edge"><title>Node6&#45;&gt;Node7</title>
<path fill="none" stroke="midnightblue" d="M252.113,-55.3299C272.475,-50.338 297.566,-44.1866 319.189,-38.8856"/>
<polygon fill="midnightblue" stroke="midnightblue" points="320.289,-42.2195 329.168,-36.439 318.622,-35.4208 320.289,-42.2195"/>
</g>
</g>
</svg>
        <g id="navigator" transform="translate(0 0)" fill="#404254">
                <rect fill="#f2f5e9" fill-opacity="0.5" stroke="#606060" stroke-width=".5" x="0" y="0" width="60" height="60"/>
                <use id="zoomplus" xlink:href="#zoomPlus" x="17" y="9" onmousedown="handleZoom(evt,'in')"/>
                <use id="zoomminus" xlink:href="#zoomMin" x="42" y="9" onmousedown="handleZoom(evt,'out')"/>
                <use id="reset" xlink:href="#resetDef" x="30" y="36" onmousedown="handleReset()"/>
                <g id="arrowUp" xlink:href="#dirArrow" transform="translate(30 24)" onmousedown="handlePan(0,-1)">
                  <use xlink:href="#rim" fill="#404040">
                        <set attributeName="fill" to="#808080" begin="arrowUp.mouseover" end="arrowUp.mouseout"/>
                  </use>
                  <path fill="none" stroke="white" stroke-width="1.5" d="M0,-3.0v7 M-2.5,-0.5L0,-3.0L2.5,-0.5"/>
                </g>
                <g id="arrowRight" xlink:href="#dirArrow" transform="rotate(90) translate(36 -43)" onmousedown="handlePan(1,0)">
                  <use xlink:href="#rim" fill="#404040">
                        <set attributeName="fill" to="#808080" begin="arrowRight.mouseover" end="arrowRight.mouseout"/>
                  </use>
                  <path fill="none" stroke="white" stroke-width="1.5" d="M0,-3.0v7 M-2.5,-0.5L0,-3.0L2.5,-0.5"/>
                </g>
                <g id="arrowDown" xlink:href="#dirArrow" transform="rotate(180) translate(-30 -48)" onmousedown="handlePan(0,1)">
                  <use xlink:href="#rim" fill="#404040">
                        <set attributeName="fill" to="#808080" begin="arrowDown.mouseover" end="arrowDown.mouseout"/>
                  </use>
                  <path fill="none" stroke="white" stroke-width="1.5" d="M0,-3.0v7 M-2.5,-0.5L0,-3.0L2.5,-0.5"/>
                </g>
                <g id="arrowLeft" xlink:href="#dirArrow" transform="rotate(270) translate(-36 17)" onmousedown="handlePan(-1,0)">
                  <use xlink:href="#rim" fill="#404040">
                        <set attributeName="fill" to="#808080" begin="arrowLeft.mouseover" end="arrowLeft.mouseout"/>
                  </use>
                  <path fill="none" stroke="white" stroke-width="1.5" d="M0,-3.0v7 M-2.5,-0.5L0,-3.0L2.5,-0.5"/>
                </g>
        </g>
        <svg viewBox="0 0 15 15" width="100%" height="30px" preserveAspectRatio="xMaxYMin meet">
         <g id="arrow_out" transform="scale(0.3 0.3)">
          <a xlink:href="classof2_1_1FabMap_a3915d188fdebe7eb1d3ae238fdff1672_cgraph_org.svg" target="_base">
           <rect id="button" ry="5" rx="5" y="6" x="6" height="38" width="38"
                fill="#f2f5e9" fill-opacity="0.5" stroke="#606060" stroke-width="1.0"/>
           <path id="arrow"
             d="M 11.500037,31.436501 C 11.940474,20.09759 22.043105,11.32322 32.158766,21.979434 L 37.068811,17.246167 C 37.068811,17.246167 37.088388,32 37.088388,32 L 22.160133,31.978069 C 22.160133,31.978069 26.997745,27.140456 26.997745,27.140456 C 18.528582,18.264221 13.291696,25.230495 11.500037,31.436501 z"
             style="fill:#404040;"/>
          </a>
         </g>
        </svg>
</svg>
