<?xml version="1.0" encoding="UTF-8" standalone="no"?>
<!DOCTYPE svg PUBLIC "-//W3C//DTD SVG 1.1//EN"
 "http://www.w3.org/Graphics/SVG/1.1/DTD/svg11.dtd">
<!-- Generated by graphviz version 2.36.0 (20140111.2315)
 -->
<!-- Title: PyramidGL::GenerateFeatureDisplayVBO Pages: 1 -->
<!--zoomable 622 -->
<svg id="main" version="1.1" xmlns="http://www.w3.org/2000/svg" xmlns:xlink="http://www.w3.org/1999/xlink" xml:space="preserve" onload="init(evt)">
<style type="text/css"><![CDATA[
.edge:hover path { stroke: red; }
.edge:hover polygon { stroke: red; fill: red; }
]]></style>
<script type="text/javascript"><![CDATA[
var edges = document.getElementsByTagName('g');
if (edges && edges.length) {
  for (var i=0;i<edges.length;i++) {
    if (edges[i].id.substr(0,4)=='edge') {
      edges[i].setAttribute('class','edge');
    }
  }
}
]]></script>
        <defs>
                <circle id="rim" cx="0" cy="0" r="7"/>
                <circle id="rim2" cx="0" cy="0" r="3.5"/>
                <g id="zoomPlus">
                        <use xlink:href="#rim" fill="#404040">
                                <set attributeName="fill" to="#808080" begin="zoomplus.mouseover" end="zoomplus.mouseout"/>
                        </use>
                        <path d="M-4,0h8M0,-4v8" fill="none" stroke="white" stroke-width="1.5" pointer-events="none"/>
                </g>
                <g id="zoomMin">
                        <use xlink:href="#rim" fill="#404040">
                                <set attributeName="fill" to="#808080" begin="zoomminus.mouseover" end="zoomminus.mouseout"/>
                        </use>
                        <path d="M-4,0h8" fill="none" stroke="white" stroke-width="1.5" pointer-events="none"/>
                </g>
                <g id="dirArrow">
                        <path fill="none" stroke="white" stroke-width="1.5" d="M0,-3.0v7 M-2.5,-0.5L0,-3.0L2.5,-0.5"/>
                </g>
               <g id="resetDef">
                       <use xlink:href="#rim2" fill="#404040">
                               <set attributeName="fill" to="#808080" begin="reset.mouseover" end="reset.mouseout"/>
                       </use>
               </g>
        </defs>

<script type="text/javascript">
var viewWidth = 666;
var viewHeight = 622;
var sectionId = 'dynsection-6';
</script>
<script xlink:href="../../svgpan.js"/>
<svg id="graph" class="graph">
<g id="viewport">
<title>PyramidGL::GenerateFeatureDisplayVBO</title>
<polygon fill="white" stroke="none" points="-4,4 -4,-618 662,-618 662,4 -4,4"/>
<!-- Node1 -->
<g id="node1" class="node"><title>Node1</title>
<polygon fill="#bfbfbf" stroke="black" points="0,-289 0,-319 144,-319 144,-289 0,-289"/>
<text text-anchor="start" x="8" y="-307" font-family="Helvetica,sans-Serif" font-size="10.00">PyramidGL::GenerateFeature</text>
<text text-anchor="middle" x="72" y="-296" font-family="Helvetica,sans-Serif" font-size="10.00">DisplayVBO</text>
</g>
<!-- Node2 -->
<g id="node2" class="node"><title>Node2</title>
<g id="a_node2"><a xlink:href="../../da/d33/glew_8h.html#aea1d47483e7a506d5d7c437309a74fbb" target="_top" xlink:title="glReadBuffer">
<polygon fill="white" stroke="black" points="230,-594.5 230,-613.5 304,-613.5 304,-594.5 230,-594.5"/>
<text text-anchor="middle" x="267" y="-601.5" font-family="Helvetica,sans-Serif" font-size="10.00">glReadBuffer</text>
</a>
</g>
</g>
<!-- Node1&#45;&gt;Node2 -->
<g id="edge1" class="edge"><title>Node1&#45;&gt;Node2</title>
<path fill="none" stroke="midnightblue" d="M73.9454,-319.304C77.7389,-366.747 96.0351,-512.508 180,-585 190.99,-594.488 205.658,-599.552 219.765,-602.168"/>
<polygon fill="midnightblue" stroke="midnightblue" points="219.472,-605.662 229.877,-603.668 220.499,-598.738 219.472,-605.662"/>
</g>
<!-- Node3 -->
<g id="node3" class="node"><title>Node3</title>
<g id="a_node3"><a xlink:href="../../da/d33/glew_8h.html#a170c1426633472880793e711b06ef0df" target="_top" xlink:title="glDrawBuffer">
<polygon fill="white" stroke="black" points="230,-556.5 230,-575.5 304,-575.5 304,-556.5 230,-556.5"/>
<text text-anchor="middle" x="267" y="-563.5" font-family="Helvetica,sans-Serif" font-size="10.00">glDrawBuffer</text>
</a>
</g>
</g>
<!-- Node1&#45;&gt;Node3 -->
<g id="edge2" class="edge"><title>Node1&#45;&gt;Node3</title>
<path fill="none" stroke="midnightblue" d="M75.0172,-319.285C81.527,-362.222 106.045,-484.776 180,-546 191.117,-555.203 205.689,-560.342 219.671,-563.161"/>
<polygon fill="midnightblue" stroke="midnightblue" points="219.25,-566.64 229.689,-564.829 220.4,-559.735 219.25,-566.64"/>
</g>
<!-- Node4 -->
<g id="node4" class="node"><title>Node4</title>
<g id="a_node4"><a xlink:href="../../d3/d06/classFrameBufferObject.html#a99f7d5bd291c76d7be02550630bfc088" target="_top" xlink:title="FrameBufferObject::\lBindFBO">
<polygon fill="white" stroke="black" points="214.5,-507 214.5,-537 319.5,-537 319.5,-507 214.5,-507"/>
<text text-anchor="start" x="222.5" y="-525" font-family="Helvetica,sans-Serif" font-size="10.00">FrameBufferObject::</text>
<text text-anchor="middle" x="267" y="-514" font-family="Helvetica,sans-Serif" font-size="10.00">BindFBO</text>
</a>
</g>
</g>
<!-- Node1&#45;&gt;Node4 -->
<g id="edge3" class="edge"><title>Node1&#45;&gt;Node4</title>
<path fill="none" stroke="midnightblue" d="M77.0444,-319.152C87.5521,-355.55 119.221,-448.476 180,-497 187.228,-502.771 195.74,-507.209 204.55,-510.623"/>
<polygon fill="midnightblue" stroke="midnightblue" points="203.584,-513.993 214.179,-513.941 205.864,-507.374 203.584,-513.993"/>
</g>
<!-- Node5 -->
<g id="node5" class="node"><title>Node5</title>
<g id="a_node5"><a xlink:href="../../df/da6/classGLTexImage.html#aeb3373705e8eae0feac654a24ac80321" target="_top" xlink:title="GLTexImage::AttachToFBO">
<polygon fill="white" stroke="black" points="197.5,-468.5 197.5,-487.5 336.5,-487.5 336.5,-468.5 197.5,-468.5"/>
<text text-anchor="middle" x="267" y="-475.5" font-family="Helvetica,sans-Serif" font-size="10.00">GLTexImage::AttachToFBO</text>
</a>
</g>
</g>
<!-- Node1&#45;&gt;Node5 -->
<g id="edge4" class="edge"><title>Node1&#45;&gt;Node5</title>
<path fill="none" stroke="midnightblue" d="M78.9127,-319.176C91.9979,-350.643 126.546,-423.053 180,-459 182.944,-460.98 186.061,-462.757 189.295,-464.352"/>
<polygon fill="midnightblue" stroke="midnightblue" points="188.105,-467.649 198.674,-468.38 190.867,-461.218 188.105,-467.649"/>
</g>
<!-- Node6 -->
<g id="node6" class="node"><title>Node6</title>
<g id="a_node6"><a xlink:href="../../df/da6/classGLTexImage.html#a6df86f3c5a5bf3485c25236e317b4013" target="_top" xlink:title="GLTexImage::BindTex">
<polygon fill="white" stroke="black" points="209.5,-430.5 209.5,-449.5 324.5,-449.5 324.5,-430.5 209.5,-430.5"/>
<text text-anchor="middle" x="267" y="-437.5" font-family="Helvetica,sans-Serif" font-size="10.00">GLTexImage::BindTex</text>
</a>
</g>
</g>
<!-- Node1&#45;&gt;Node6 -->
<g id="edge5" class="edge"><title>Node1&#45;&gt;Node6</title>
<path fill="none" stroke="midnightblue" d="M82.4149,-319.307C98.8782,-344.694 135.426,-395.258 180,-421 185.961,-424.442 192.484,-427.262 199.188,-429.57"/>
<polygon fill="midnightblue" stroke="midnightblue" points="198.509,-433.023 209.095,-432.601 200.556,-426.329 198.509,-433.023"/>
</g>
<!-- Node8 -->
<g id="node8" class="node"><title>Node8</title>
<g id="a_node8"><a xlink:href="../../df/da6/classGLTexImage.html#a1829045508d6dac9fa58842bdc7d5fc9" target="_top" xlink:title="GLTexImage::FitTexViewPort">
<polygon fill="white" stroke="black" points="194,-392.5 194,-411.5 340,-411.5 340,-392.5 194,-392.5"/>
<text text-anchor="middle" x="267" y="-399.5" font-family="Helvetica,sans-Serif" font-size="10.00">GLTexImage::FitTexViewPort</text>
</a>
</g>
</g>
<!-- Node1&#45;&gt;Node8 -->
<g id="edge7" class="edge"><title>Node1&#45;&gt;Node8</title>
<path fill="none" stroke="midnightblue" d="M90.7896,-319.104C111.143,-335.69 146.056,-362.078 180,-378 189.678,-382.54 200.382,-386.375 210.858,-389.556"/>
<polygon fill="midnightblue" stroke="midnightblue" points="210.213,-393.012 220.79,-392.407 212.144,-386.284 210.213,-393.012"/>
</g>
<!-- Node9 -->
<g id="node9" class="node"><title>Node9</title>
<g id="a_node9"><a xlink:href="../../d2/d55/classGlobalUtil.html#a30830c22f7574d8d6f5a5b0a0b31ad50" target="_top" xlink:title="GlobalUtil::FitViewPort">
<polygon fill="white" stroke="black" points="409,-392.5 409,-411.5 525,-411.5 525,-392.5 409,-392.5"/>
<text text-anchor="middle" x="467" y="-399.5" font-family="Helvetica,sans-Serif" font-size="10.00">GlobalUtil::FitViewPort</text>
</a>
</g>
</g>
<!-- Node1&#45;&gt;Node9 -->
<g id="edge28" class="edge"><title>Node1&#45;&gt;Node9</title>
<path fill="none" stroke="midnightblue" d="M108.153,-319.198C128.787,-327.681 155.537,-337.931 180,-345 220.854,-356.806 331.244,-377.662 402.318,-390.607"/>
<polygon fill="midnightblue" stroke="midnightblue" points="402.041,-394.114 412.506,-392.458 403.292,-387.227 402.041,-394.114"/>
</g>
<!-- Node15 -->
<g id="node15" class="node"><title>Node15</title>
<g id="a_node15"><a xlink:href="../../d4/d24/classShaderMan.html#a683b0b90781cb279f6e6336d0bda53de" target="_top" xlink:title="ShaderMan::UseShaderCopy\lKeypoint">
<polygon fill="white" stroke="black" points="195,-267 195,-297 339,-297 339,-267 195,-267"/>
<text text-anchor="start" x="203" y="-285" font-family="Helvetica,sans-Serif" font-size="10.00">ShaderMan::UseShaderCopy</text>
<text text-anchor="middle" x="267" y="-274" font-family="Helvetica,sans-Serif" font-size="10.00">Keypoint</text>
</a>
</g>
</g>
<!-- Node1&#45;&gt;Node15 -->
<g id="edge14" class="edge"><title>Node1&#45;&gt;Node15</title>
<path fill="none" stroke="midnightblue" d="M144.044,-295.902C157.234,-294.398 171.107,-292.817 184.579,-291.281"/>
<polygon fill="midnightblue" stroke="midnightblue" points="185.245,-294.728 194.784,-290.118 184.452,-287.773 185.245,-294.728"/>
</g>
<!-- Node17 -->
<g id="node17" class="node"><title>Node17</title>
<g id="a_node17"><a xlink:href="../../df/da6/classGLTexImage.html#ab991a4b37a9d9a3e6490549b50253729" target="_top" xlink:title="GLTexImage::DrawQuad">
<polygon fill="white" stroke="black" points="204.5,-316.5 204.5,-335.5 329.5,-335.5 329.5,-316.5 204.5,-316.5"/>
<text text-anchor="middle" x="267" y="-323.5" font-family="Helvetica,sans-Serif" font-size="10.00">GLTexImage::DrawQuad</text>
</a>
</g>
</g>
<!-- Node1&#45;&gt;Node17 -->
<g id="edge16" class="edge"><title>Node1&#45;&gt;Node17</title>
<path fill="none" stroke="midnightblue" d="M144.044,-312.098C160.421,-313.965 177.852,-315.952 194.259,-317.822"/>
<polygon fill="midnightblue" stroke="midnightblue" points="193.992,-321.314 204.324,-318.97 194.785,-314.359 193.992,-321.314"/>
</g>
<!-- Node23 -->
<g id="node23" class="node"><title>Node23</title>
<g id="a_node23"><a xlink:href="../../df/da6/classGLTexImage.html#a0a5bef9bbb86e30e0fac7baa6e7380a0" target="_top" xlink:title="GLTexImage::GetImgHeight">
<polygon fill="white" stroke="black" points="197,-228.5 197,-247.5 337,-247.5 337,-228.5 197,-228.5"/>
<text text-anchor="middle" x="267" y="-235.5" font-family="Helvetica,sans-Serif" font-size="10.00">GLTexImage::GetImgHeight</text>
</a>
</g>
</g>
<!-- Node1&#45;&gt;Node23 -->
<g id="edge22" class="edge"><title>Node1&#45;&gt;Node23</title>
<path fill="none" stroke="midnightblue" d="M103.278,-288.789C124.37,-278.671 153.384,-265.692 180,-257 188.044,-254.373 196.63,-251.994 205.147,-249.878"/>
<polygon fill="midnightblue" stroke="midnightblue" points="206.158,-253.235 215.076,-247.516 204.538,-246.425 206.158,-253.235"/>
</g>
<!-- Node24 -->
<g id="node24" class="node"><title>Node24</title>
<g id="a_node24"><a xlink:href="../../df/da6/classGLTexImage.html#acfe4c5231e3e4e64a914bf947498caf2" target="_top" xlink:title="GLTexImage::GetImgWidth">
<polygon fill="white" stroke="black" points="198.5,-190.5 198.5,-209.5 335.5,-209.5 335.5,-190.5 198.5,-190.5"/>
<text text-anchor="middle" x="267" y="-197.5" font-family="Helvetica,sans-Serif" font-size="10.00">GLTexImage::GetImgWidth</text>
</a>
</g>
</g>
<!-- Node1&#45;&gt;Node24 -->
<g id="edge23" class="edge"><title>Node1&#45;&gt;Node24</title>
<path fill="none" stroke="midnightblue" d="M87.4296,-288.886C106.692,-269.637 142.729,-236.746 180,-219 185.218,-216.515 190.77,-214.35 196.443,-212.465"/>
<polygon fill="midnightblue" stroke="midnightblue" points="197.514,-215.798 206.069,-209.548 195.483,-209.099 197.514,-215.798"/>
</g>
<!-- Node25 -->
<g id="node25" class="node"><title>Node25</title>
<g id="a_node25"><a xlink:href="../../da/d33/glew_8h.html#adbab0cced722a4b572d6647798a961af" target="_top" xlink:title="glReadPixels">
<polygon fill="white" stroke="black" points="230,-152.5 230,-171.5 304,-171.5 304,-152.5 230,-152.5"/>
<text text-anchor="middle" x="267" y="-159.5" font-family="Helvetica,sans-Serif" font-size="10.00">glReadPixels</text>
</a>
</g>
</g>
<!-- Node1&#45;&gt;Node25 -->
<g id="edge24" class="edge"><title>Node1&#45;&gt;Node25</title>
<path fill="none" stroke="midnightblue" d="M81.7011,-288.75C97.6071,-262.346 134.013,-208.326 180,-181 191.941,-173.904 206.237,-169.452 219.713,-166.661"/>
<polygon fill="midnightblue" stroke="midnightblue" points="220.589,-170.059 229.805,-164.833 219.342,-163.171 220.589,-170.059"/>
</g>
<!-- Node26 -->
<g id="node26" class="node"><title>Node26</title>
<g id="a_node26"><a xlink:href="../../d1/d75/classPyramidGL.html#ab3096e88d1558cb4ad876a19597fa0f7" target="_top" xlink:title="PyramidGL::GetAlignedStorageSize">
<polygon fill="white" stroke="black" points="180.5,-76.5 180.5,-95.5 353.5,-95.5 353.5,-76.5 180.5,-76.5"/>
<text text-anchor="middle" x="267" y="-83.5" font-family="Helvetica,sans-Serif" font-size="10.00">PyramidGL::GetAlignedStorageSize</text>
</a>
</g>
</g>
<!-- Node1&#45;&gt;Node26 -->
<g id="edge25" class="edge"><title>Node1&#45;&gt;Node26</title>
<path fill="none" stroke="midnightblue" d="M76.4804,-288.954C85.9771,-251.454 116.016,-153.383 180,-105 182.481,-103.124 185.111,-101.426 187.85,-99.8895"/>
<polygon fill="midnightblue" stroke="midnightblue" points="189.437,-103.01 196.923,-95.5133 186.396,-96.7053 189.437,-103.01"/>
</g>
<!-- Node27 -->
<g id="node27" class="node"><title>Node27</title>
<g id="a_node27"><a xlink:href="../../db/d82/wglew_8h.html#a500a82aecba06f4550f6849b8099ca21" target="_top" xlink:title="int">
<polygon fill="white" stroke="black" points="452.5,-57.5 452.5,-76.5 481.5,-76.5 481.5,-57.5 452.5,-57.5"/>
<text text-anchor="middle" x="467" y="-64.5" font-family="Helvetica,sans-Serif" font-size="10.00">int</text>
</a>
</g>
</g>
<!-- Node1&#45;&gt;Node27 -->
<g id="edge27" class="edge"><title>Node1&#45;&gt;Node27</title>
<path fill="none" stroke="midnightblue" d="M74.4083,-288.775C79.3764,-244.962 100.356,-118.427 180,-67 263.316,-13.2014 390.726,-43.3535 442.704,-59.2049"/>
<polygon fill="midnightblue" stroke="midnightblue" points="441.743,-62.5719 452.333,-62.2453 443.851,-55.8968 441.743,-62.5719"/>
</g>
<!-- Node28 -->
<g id="node28" class="node"><title>Node28</title>
<g id="a_node28"><a xlink:href="../../d4/d24/classShaderMan.html#aad8172bc447ef2c632f3dbf3c0e02606" target="_top" xlink:title="ShaderMan::UseShaderGenVBO">
<polygon fill="white" stroke="black" points="187,-114.5 187,-133.5 347,-133.5 347,-114.5 187,-114.5"/>
<text text-anchor="middle" x="267" y="-121.5" font-family="Helvetica,sans-Serif" font-size="10.00">ShaderMan::UseShaderGenVBO</text>
</a>
</g>
</g>
<!-- Node1&#45;&gt;Node28 -->
<g id="edge29" class="edge"><title>Node1&#45;&gt;Node28</title>
<path fill="none" stroke="midnightblue" d="M78.5476,-288.737C91.1547,-256.334 125.187,-180.567 180,-143 182.927,-140.994 186.029,-139.196 189.252,-137.584"/>
<polygon fill="midnightblue" stroke="midnightblue" points="190.83,-140.715 198.605,-133.517 188.039,-134.295 190.83,-140.715"/>
</g>
<!-- Node30 -->
<g id="node30" class="node"><title>Node30</title>
<g id="a_node30"><a xlink:href="../../da/d33/glew_8h.html#a32df7ba224618f3a64723debf23835dd" target="_top" xlink:title="glFinish">
<polygon fill="white" stroke="black" points="242,-0.5 242,-19.5 292,-19.5 292,-0.5 242,-0.5"/>
<text text-anchor="middle" x="267" y="-7.5" font-family="Helvetica,sans-Serif" font-size="10.00">glFinish</text>
</a>
</g>
</g>
<!-- Node1&#45;&gt;Node30 -->
<g id="edge32" class="edge"><title>Node1&#45;&gt;Node30</title>
<path fill="none" stroke="midnightblue" d="M74.39,-288.828C79.4087,-243.093 100.734,-105.34 180,-34 194.026,-21.3765 214.159,-15.3317 231.42,-12.4632"/>
<polygon fill="midnightblue" stroke="midnightblue" points="232.281,-15.8782 241.715,-11.0573 231.334,-8.94258 232.281,-15.8782"/>
</g>
<!-- Node7 -->
<g id="node7" class="node"><title>Node7</title>
<g id="a_node7"><a xlink:href="../../da/d33/glew_8h.html#a940f58f3728713267a58e2d09ff602b2" target="_top" xlink:title="glBindTexture">
<polygon fill="white" stroke="black" points="428.5,-430.5 428.5,-449.5 505.5,-449.5 505.5,-430.5 428.5,-430.5"/>
<text text-anchor="middle" x="467" y="-437.5" font-family="Helvetica,sans-Serif" font-size="10.00">glBindTexture</text>
</a>
</g>
</g>
<!-- Node6&#45;&gt;Node7 -->
<g id="edge6" class="edge"><title>Node6&#45;&gt;Node7</title>
<path fill="none" stroke="midnightblue" d="M324.739,-440C354.356,-440 390.185,-440 418.348,-440"/>
<polygon fill="midnightblue" stroke="midnightblue" points="418.351,-443.5 428.351,-440 418.351,-436.5 418.351,-443.5"/>
</g>
<!-- Node8&#45;&gt;Node9 -->
<g id="edge8" class="edge"><title>Node8&#45;&gt;Node9</title>
<path fill="none" stroke="midnightblue" d="M340.043,-402C359.257,-402 379.937,-402 398.876,-402"/>
<polygon fill="midnightblue" stroke="midnightblue" points="398.899,-405.5 408.899,-402 398.899,-398.5 398.899,-405.5"/>
</g>
<!-- Node10 -->
<g id="node10" class="node"><title>Node10</title>
<g id="a_node10"><a xlink:href="../../da/d33/glew_8h.html#ae9ebc290561b3321b629610807155a35" target="_top" xlink:title="glGetIntegerv">
<polygon fill="white" stroke="black" points="581.5,-468.5 581.5,-487.5 656.5,-487.5 656.5,-468.5 581.5,-468.5"/>
<text text-anchor="middle" x="619" y="-475.5" font-family="Helvetica,sans-Serif" font-size="10.00">glGetIntegerv</text>
</a>
</g>
</g>
<!-- Node9&#45;&gt;Node10 -->
<g id="edge9" class="edge"><title>Node9&#45;&gt;Node10</title>
<path fill="none" stroke="midnightblue" d="M522.24,-411.505C529.825,-413.979 537.306,-417.09 544,-421 564.088,-432.735 561.312,-445.143 580,-459 582.074,-460.538 584.291,-462.01 586.573,-463.406"/>
<polygon fill="midnightblue" stroke="midnightblue" points="585.094,-466.588 595.534,-468.39 588.496,-460.471 585.094,-466.588"/>
</g>
<!-- Node11 -->
<g id="node11" class="node"><title>Node11</title>
<g id="a_node11"><a xlink:href="../../da/d33/glew_8h.html#a8e93835e91933b7078c88f905dd8599c" target="_top" xlink:title="glViewport">
<polygon fill="white" stroke="black" points="588,-430.5 588,-449.5 650,-449.5 650,-430.5 588,-430.5"/>
<text text-anchor="middle" x="619" y="-437.5" font-family="Helvetica,sans-Serif" font-size="10.00">glViewport</text>
</a>
</g>
</g>
<!-- Node9&#45;&gt;Node11 -->
<g id="edge10" class="edge"><title>Node9&#45;&gt;Node11</title>
<path fill="none" stroke="midnightblue" d="M506.285,-411.521C518.356,-414.536 531.739,-417.893 544,-421 555.025,-423.794 566.967,-426.847 577.975,-429.674"/>
<polygon fill="midnightblue" stroke="midnightblue" points="577.211,-433.091 587.768,-432.191 578.954,-426.312 577.211,-433.091"/>
</g>
<!-- Node12 -->
<g id="node12" class="node"><title>Node12</title>
<g id="a_node12"><a xlink:href="../../da/d33/glew_8h.html#af14e38e22806d0220680b52edbc3bcef" target="_top" xlink:title="glMatrixMode">
<polygon fill="white" stroke="black" points="581.5,-392.5 581.5,-411.5 656.5,-411.5 656.5,-392.5 581.5,-392.5"/>
<text text-anchor="middle" x="619" y="-399.5" font-family="Helvetica,sans-Serif" font-size="10.00">glMatrixMode</text>
</a>
</g>
</g>
<!-- Node9&#45;&gt;Node12 -->
<g id="edge11" class="edge"><title>Node9&#45;&gt;Node12</title>
<path fill="none" stroke="midnightblue" d="M525.136,-402C540.326,-402 556.554,-402 571.126,-402"/>
<polygon fill="midnightblue" stroke="midnightblue" points="571.405,-405.5 581.405,-402 571.405,-398.5 571.405,-405.5"/>
</g>
<!-- Node13 -->
<g id="node13" class="node"><title>Node13</title>
<g id="a_node13"><a xlink:href="../../da/d33/glew_8h.html#a6577472f85b23086331edadaf0311a49" target="_top" xlink:title="glLoadIdentity">
<polygon fill="white" stroke="black" points="580.5,-354.5 580.5,-373.5 657.5,-373.5 657.5,-354.5 580.5,-354.5"/>
<text text-anchor="middle" x="619" y="-361.5" font-family="Helvetica,sans-Serif" font-size="10.00">glLoadIdentity</text>
</a>
</g>
</g>
<!-- Node9&#45;&gt;Node13 -->
<g id="edge12" class="edge"><title>Node9&#45;&gt;Node13</title>
<path fill="none" stroke="midnightblue" d="M506.285,-392.479C518.356,-389.464 531.739,-386.107 544,-383 552.781,-380.775 562.144,-378.385 571.153,-376.076"/>
<polygon fill="midnightblue" stroke="midnightblue" points="572.308,-379.393 581.124,-373.517 570.568,-372.613 572.308,-379.393"/>
</g>
<!-- Node14 -->
<g id="node14" class="node"><title>Node14</title>
<g id="a_node14"><a xlink:href="../../da/d33/glew_8h.html#a2d92120b1fad876057dfd00e2d942525" target="_top" xlink:title="glOrtho">
<polygon fill="white" stroke="black" points="595,-316.5 595,-335.5 643,-335.5 643,-316.5 595,-316.5"/>
<text text-anchor="middle" x="619" y="-323.5" font-family="Helvetica,sans-Serif" font-size="10.00">glOrtho</text>
</a>
</g>
</g>
<!-- Node9&#45;&gt;Node14 -->
<g id="edge13" class="edge"><title>Node9&#45;&gt;Node14</title>
<path fill="none" stroke="midnightblue" d="M522.24,-392.495C529.825,-390.021 537.306,-386.91 544,-383 564.088,-371.265 561.312,-358.857 580,-345 582.074,-343.462 584.291,-341.99 586.573,-340.594"/>
<polygon fill="midnightblue" stroke="midnightblue" points="588.496,-343.529 595.534,-335.61 585.094,-337.412 588.496,-343.529"/>
</g>
<!-- Node16 -->
<g id="node16" class="node"><title>Node16</title>
<g id="a_node16"><a xlink:href="../../d9/d26/classProgramGPU.html#acd625b26fa073fc83ec0be9badb29635" target="_top" xlink:title="ProgramGPU::UseProgram">
<polygon fill="white" stroke="black" points="399,-158.5 399,-177.5 535,-177.5 535,-158.5 399,-158.5"/>
<text text-anchor="middle" x="467" y="-165.5" font-family="Helvetica,sans-Serif" font-size="10.00">ProgramGPU::UseProgram</text>
</a>
</g>
</g>
<!-- Node15&#45;&gt;Node16 -->
<g id="edge15" class="edge"><title>Node15&#45;&gt;Node16</title>
<path fill="none" stroke="midnightblue" d="M337.951,-266.896C343.678,-264.133 349.128,-260.865 354,-257 379.567,-236.717 364.791,-213.726 390,-193 395.68,-188.33 402.26,-184.523 409.126,-181.421"/>
<polygon fill="midnightblue" stroke="midnightblue" points="410.633,-184.588 418.608,-177.613 408.024,-178.092 410.633,-184.588"/>
</g>
<!-- Node18 -->
<g id="node18" class="node"><title>Node18</title>
<g id="a_node18"><a xlink:href="../../da/d33/glew_8h.html#a98964453975519f92d6cc59ef77f7436" target="_top" xlink:title="glBegin">
<polygon fill="white" stroke="black" points="442.5,-354.5 442.5,-373.5 491.5,-373.5 491.5,-354.5 442.5,-354.5"/>
<text text-anchor="middle" x="467" y="-361.5" font-family="Helvetica,sans-Serif" font-size="10.00">glBegin</text>
</a>
</g>
</g>
<!-- Node17&#45;&gt;Node18 -->
<g id="edge17" class="edge"><title>Node17&#45;&gt;Node18</title>
<path fill="none" stroke="midnightblue" d="M317.708,-335.54C353.524,-342.414 400.896,-351.505 432.354,-357.543"/>
<polygon fill="midnightblue" stroke="midnightblue" points="431.893,-361.018 442.373,-359.466 433.212,-354.143 431.893,-361.018"/>
</g>
<!-- Node19 -->
<g id="node19" class="node"><title>Node19</title>
<g id="a_node19"><a xlink:href="../../da/d33/glew_8h.html#a09db6f9fa0d39ef7e3919e6212296ece" target="_top" xlink:title="glTexCoord2f">
<polygon fill="white" stroke="black" points="429.5,-316.5 429.5,-335.5 504.5,-335.5 504.5,-316.5 429.5,-316.5"/>
<text text-anchor="middle" x="467" y="-323.5" font-family="Helvetica,sans-Serif" font-size="10.00">glTexCoord2f</text>
</a>
</g>
</g>
<!-- Node17&#45;&gt;Node19 -->
<g id="edge18" class="edge"><title>Node17&#45;&gt;Node19</title>
<path fill="none" stroke="midnightblue" d="M329.563,-326C358.426,-326 392.268,-326 419.026,-326"/>
<polygon fill="midnightblue" stroke="midnightblue" points="419.28,-329.5 429.28,-326 419.28,-322.5 419.28,-329.5"/>
</g>
<!-- Node20 -->
<g id="node20" class="node"><title>Node20</title>
<g id="a_node20"><a xlink:href="../../da/d33/glew_8h.html#a474f4498ace02f86e7f299eb8bf27da3" target="_top" xlink:title="glVertex2f">
<polygon fill="white" stroke="black" points="436.5,-278.5 436.5,-297.5 497.5,-297.5 497.5,-278.5 436.5,-278.5"/>
<text text-anchor="middle" x="467" y="-285.5" font-family="Helvetica,sans-Serif" font-size="10.00">glVertex2f</text>
</a>
</g>
</g>
<!-- Node17&#45;&gt;Node20 -->
<g id="edge19" class="edge"><title>Node17&#45;&gt;Node20</title>
<path fill="none" stroke="midnightblue" d="M317.708,-316.46C351.26,-310.021 394.952,-301.635 426.204,-295.638"/>
<polygon fill="midnightblue" stroke="midnightblue" points="427.132,-299.023 436.293,-293.701 425.812,-292.149 427.132,-299.023"/>
</g>
<!-- Node21 -->
<g id="node21" class="node"><title>Node21</title>
<g id="a_node21"><a xlink:href="../../da/d33/glew_8h.html#abbff207d1fa71b296ff35b149cef7238" target="_top" xlink:title="glEnd">
<polygon fill="white" stroke="black" points="446.5,-240.5 446.5,-259.5 487.5,-259.5 487.5,-240.5 446.5,-240.5"/>
<text text-anchor="middle" x="467" y="-247.5" font-family="Helvetica,sans-Serif" font-size="10.00">glEnd</text>
</a>
</g>
</g>
<!-- Node17&#45;&gt;Node21 -->
<g id="edge20" class="edge"><title>Node17&#45;&gt;Node21</title>
<path fill="none" stroke="midnightblue" d="M328.862,-316.457C337.608,-313.786 346.257,-310.37 354,-306 373.981,-294.723 370.112,-280.441 390,-269 404.135,-260.869 421.7,-256.186 436.383,-253.506"/>
<polygon fill="midnightblue" stroke="midnightblue" points="437.154,-256.927 446.474,-251.887 436.046,-250.015 437.154,-256.927"/>
</g>
<!-- Node22 -->
<g id="node22" class="node"><title>Node22</title>
<g id="a_node22"><a xlink:href="../../da/d33/glew_8h.html#afb3e087fc26a916a909d46ead9cfc44a" target="_top" xlink:title="glFlush">
<polygon fill="white" stroke="black" points="443,-202.5 443,-221.5 491,-221.5 491,-202.5 443,-202.5"/>
<text text-anchor="middle" x="467" y="-209.5" font-family="Helvetica,sans-Serif" font-size="10.00">glFlush</text>
</a>
</g>
</g>
<!-- Node17&#45;&gt;Node22 -->
<g id="edge21" class="edge"><title>Node17&#45;&gt;Node22</title>
<path fill="none" stroke="midnightblue" d="M329.867,-318.749C338.573,-315.77 346.944,-311.658 354,-306 382.846,-282.869 361.346,-254.368 390,-231 401.959,-221.247 418.246,-216.408 432.676,-214.041"/>
<polygon fill="midnightblue" stroke="midnightblue" points="433.305,-217.489 442.766,-212.721 432.396,-210.548 433.305,-217.489"/>
</g>
<!-- Node26&#45;&gt;Node27 -->
<g id="edge26" class="edge"><title>Node26&#45;&gt;Node27</title>
<path fill="none" stroke="midnightblue" d="M353.694,-77.7768C386.06,-74.671 420.359,-71.3797 442.412,-69.2635"/>
<polygon fill="midnightblue" stroke="midnightblue" points="442.852,-72.7374 452.472,-68.2981 442.184,-65.7694 442.852,-72.7374"/>
</g>
<!-- Node28&#45;&gt;Node16 -->
<g id="edge30" class="edge"><title>Node28&#45;&gt;Node16</title>
<path fill="none" stroke="midnightblue" d="M311.313,-133.55C324.972,-136.567 340.118,-139.917 354,-143 373.454,-147.32 394.804,-152.081 413.598,-156.278"/>
<polygon fill="midnightblue" stroke="midnightblue" points="412.935,-159.717 423.458,-158.481 414.462,-152.885 412.935,-159.717"/>
</g>
<!-- Node29 -->
<g id="node29" class="node"><title>Node29</title>
<g id="a_node29"><a xlink:href="../../d9/d4e/classShaderBag.html#a40890fd5acac3d040749d5f93ea5b202" target="_top" xlink:title="ShaderBag::SetGenVBOParam">
<polygon fill="white" stroke="black" points="390.5,-114.5 390.5,-133.5 543.5,-133.5 543.5,-114.5 390.5,-114.5"/>
<text text-anchor="middle" x="467" y="-121.5" font-family="Helvetica,sans-Serif" font-size="10.00">ShaderBag::SetGenVBOParam</text>
</a>
</g>
</g>
<!-- Node28&#45;&gt;Node29 -->
<g id="edge31" class="edge"><title>Node28&#45;&gt;Node29</title>
<path fill="none" stroke="midnightblue" d="M347.108,-124C357.995,-124 369.215,-124 380.214,-124"/>
<polygon fill="midnightblue" stroke="midnightblue" points="380.238,-127.5 390.238,-124 380.237,-120.5 380.238,-127.5"/>
</g>
</g>
</svg>
        <g id="navigator" transform="translate(0 0)" fill="#404254">
                <rect fill="#f2f5e9" fill-opacity="0.5" stroke="#606060" stroke-width=".5" x="0" y="0" width="60" height="60"/>
                <use id="zoomplus" xlink:href="#zoomPlus" x="17" y="9" onmousedown="handleZoom(evt,'in')"/>
                <use id="zoomminus" xlink:href="#zoomMin" x="42" y="9" onmousedown="handleZoom(evt,'out')"/>
                <use id="reset" xlink:href="#resetDef" x="30" y="36" onmousedown="handleReset()"/>
                <g id="arrowUp" xlink:href="#dirArrow" transform="translate(30 24)" onmousedown="handlePan(0,-1)">
                  <use xlink:href="#rim" fill="#404040">
                        <set attributeName="fill" to="#808080" begin="arrowUp.mouseover" end="arrowUp.mouseout"/>
                  </use>
                  <path fill="none" stroke="white" stroke-width="1.5" d="M0,-3.0v7 M-2.5,-0.5L0,-3.0L2.5,-0.5"/>
                </g>
                <g id="arrowRight" xlink:href="#dirArrow" transform="rotate(90) translate(36 -43)" onmousedown="handlePan(1,0)">
                  <use xlink:href="#rim" fill="#404040">
                        <set attributeName="fill" to="#808080" begin="arrowRight.mouseover" end="arrowRight.mouseout"/>
                  </use>
                  <path fill="none" stroke="white" stroke-width="1.5" d="M0,-3.0v7 M-2.5,-0.5L0,-3.0L2.5,-0.5"/>
                </g>
                <g id="arrowDown" xlink:href="#dirArrow" transform="rotate(180) translate(-30 -48)" onmousedown="handlePan(0,1)">
                  <use xlink:href="#rim" fill="#404040">
                        <set attributeName="fill" to="#808080" begin="arrowDown.mouseover" end="arrowDown.mouseout"/>
                  </use>
                  <path fill="none" stroke="white" stroke-width="1.5" d="M0,-3.0v7 M-2.5,-0.5L0,-3.0L2.5,-0.5"/>
                </g>
                <g id="arrowLeft" xlink:href="#dirArrow" transform="rotate(270) translate(-36 17)" onmousedown="handlePan(-1,0)">
                  <use xlink:href="#rim" fill="#404040">
                        <set attributeName="fill" to="#808080" begin="arrowLeft.mouseover" end="arrowLeft.mouseout"/>
                  </use>
                  <path fill="none" stroke="white" stroke-width="1.5" d="M0,-3.0v7 M-2.5,-0.5L0,-3.0L2.5,-0.5"/>
                </g>
        </g>
        <svg viewBox="0 0 15 15" width="100%" height="30px" preserveAspectRatio="xMaxYMin meet">
         <g id="arrow_out" transform="scale(0.3 0.3)">
          <a xlink:href="classPyramidGL_ab324549ad4f828a770e87e3c8b264e0a_cgraph_org.svg" target="_base">
           <rect id="button" ry="5" rx="5" y="6" x="6" height="38" width="38"
                fill="#f2f5e9" fill-opacity="0.5" stroke="#606060" stroke-width="1.0"/>
           <path id="arrow"
             d="M 11.500037,31.436501 C 11.940474,20.09759 22.043105,11.32322 32.158766,21.979434 L 37.068811,17.246167 C 37.068811,17.246167 37.088388,32 37.088388,32 L 22.160133,31.978069 C 22.160133,31.978069 26.997745,27.140456 26.997745,27.140456 C 18.528582,18.264221 13.291696,25.230495 11.500037,31.436501 z"
             style="fill:#404040;"/>
          </a>
         </g>
        </svg>
</svg>
