<?xml version="1.0" encoding="UTF-8" standalone="no"?>
<!DOCTYPE svg PUBLIC "-//W3C//DTD SVG 1.1//EN"
 "http://www.w3.org/Graphics/SVG/1.1/DTD/svg11.dtd">
<!-- Generated by graphviz version 2.36.0 (20140111.2315)
 -->
<!-- Title: PyramidGL::SetLevelFeatureNum Pages: 1 -->
<!--zoomable 237 -->
<svg id="main" version="1.1" xmlns="http://www.w3.org/2000/svg" xmlns:xlink="http://www.w3.org/1999/xlink" xml:space="preserve" onload="init(evt)">
<style type="text/css"><![CDATA[
.edge:hover path { stroke: red; }
.edge:hover polygon { stroke: red; fill: red; }
]]></style>
<script type="text/javascript"><![CDATA[
var edges = document.getElementsByTagName('g');
if (edges && edges.length) {
  for (var i=0;i<edges.length;i++) {
    if (edges[i].id.substr(0,4)=='edge') {
      edges[i].setAttribute('class','edge');
    }
  }
}
]]></script>
        <defs>
                <circle id="rim" cx="0" cy="0" r="7"/>
                <circle id="rim2" cx="0" cy="0" r="3.5"/>
                <g id="zoomPlus">
                        <use xlink:href="#rim" fill="#404040">
                                <set attributeName="fill" to="#808080" begin="zoomplus.mouseover" end="zoomplus.mouseout"/>
                        </use>
                        <path d="M-4,0h8M0,-4v8" fill="none" stroke="white" stroke-width="1.5" pointer-events="none"/>
                </g>
                <g id="zoomMin">
                        <use xlink:href="#rim" fill="#404040">
                                <set attributeName="fill" to="#808080" begin="zoomminus.mouseover" end="zoomminus.mouseout"/>
                        </use>
                        <path d="M-4,0h8" fill="none" stroke="white" stroke-width="1.5" pointer-events="none"/>
                </g>
                <g id="dirArrow">
                        <path fill="none" stroke="white" stroke-width="1.5" d="M0,-3.0v7 M-2.5,-0.5L0,-3.0L2.5,-0.5"/>
                </g>
               <g id="resetDef">
                       <use xlink:href="#rim2" fill="#404040">
                               <set attributeName="fill" to="#808080" begin="reset.mouseover" end="reset.mouseout"/>
                       </use>
               </g>
        </defs>

<script type="text/javascript">
var viewWidth = 506;
var viewHeight = 237;
var sectionId = 'dynsection-14';
</script>
<script xlink:href="../../svgpan.js"/>
<svg id="graph" class="graph">
<g id="viewport">
<title>PyramidGL::SetLevelFeatureNum</title>
<polygon fill="white" stroke="none" points="-4,4 -4,-233 502,-233 502,4 -4,4"/>
<!-- Node1 -->
<g id="node1" class="node"><title>Node1</title>
<polygon fill="#bfbfbf" stroke="black" points="0,-114.5 0,-133.5 164,-133.5 164,-114.5 0,-114.5"/>
<text text-anchor="middle" x="82" y="-121.5" font-family="Helvetica,sans-Serif" font-size="10.00">PyramidGL::SetLevelFeatureNum</text>
</g>
<!-- Node2 -->
<g id="node2" class="node"><title>Node2</title>
<g id="a_node2"><a xlink:href="../../d1/d75/classPyramidGL.html#adc9f9256e92f0d2fccb5e992b0775ba6" target="_top" xlink:title="PyramidGL::GetTextureStorageSize">
<polygon fill="white" stroke="black" points="200.5,-209.5 200.5,-228.5 373.5,-228.5 373.5,-209.5 200.5,-209.5"/>
<text text-anchor="middle" x="287" y="-216.5" font-family="Helvetica,sans-Serif" font-size="10.00">PyramidGL::GetTextureStorageSize</text>
</a>
</g>
</g>
<!-- Node1&#45;&gt;Node2 -->
<g id="edge1" class="edge"><title>Node1&#45;&gt;Node2</title>
<path fill="none" stroke="midnightblue" d="M96.039,-133.566C116.992,-148.546 159.884,-177.622 200,-195 210.451,-199.527 221.988,-203.433 233.125,-206.701"/>
<polygon fill="midnightblue" stroke="midnightblue" points="232.199,-210.076 242.773,-209.408 234.091,-203.336 232.199,-210.076"/>
</g>
<!-- Node3 -->
<g id="node3" class="node"><title>Node3</title>
<g id="a_node3"><a xlink:href="../../db/d82/wglew_8h.html#a500a82aecba06f4550f6849b8099ca21" target="_top" xlink:title="int">
<polygon fill="white" stroke="black" points="439.5,-190.5 439.5,-209.5 468.5,-209.5 468.5,-190.5 439.5,-190.5"/>
<text text-anchor="middle" x="454" y="-197.5" font-family="Helvetica,sans-Serif" font-size="10.00">int</text>
</a>
</g>
</g>
<!-- Node1&#45;&gt;Node3 -->
<g id="edge10" class="edge"><title>Node1&#45;&gt;Node3</title>
<path fill="none" stroke="midnightblue" d="M108.219,-133.53C131.685,-142.075 167.78,-154.403 200,-162 283.094,-181.593 384.036,-193.186 429.181,-197.747"/>
<polygon fill="midnightblue" stroke="midnightblue" points="429.116,-201.258 439.411,-198.756 429.803,-194.291 429.116,-201.258"/>
</g>
<!-- Node4 -->
<g id="node4" class="node"><title>Node4</title>
<g id="a_node4"><a xlink:href="../../df/da6/classGLTexImage.html#a2d2fb8f7b78e537c8afef1f4615fa9b2" target="_top" xlink:title="GLTexImage::GetTexWidth">
<polygon fill="white" stroke="black" points="218.5,-133.5 218.5,-152.5 355.5,-152.5 355.5,-133.5 218.5,-133.5"/>
<text text-anchor="middle" x="287" y="-140.5" font-family="Helvetica,sans-Serif" font-size="10.00">GLTexImage::GetTexWidth</text>
</a>
</g>
</g>
<!-- Node1&#45;&gt;Node4 -->
<g id="edge3" class="edge"><title>Node1&#45;&gt;Node4</title>
<path fill="none" stroke="midnightblue" d="M164.106,-131.591C178.591,-132.947 193.655,-134.357 208.049,-135.704"/>
<polygon fill="midnightblue" stroke="midnightblue" points="208.112,-139.225 218.395,-136.672 208.764,-132.256 208.112,-139.225"/>
</g>
<!-- Node5 -->
<g id="node5" class="node"><title>Node5</title>
<g id="a_node5"><a xlink:href="../../df/da6/classGLTexImage.html#acf5811dc18277b8f6284867198b7d87a" target="_top" xlink:title="GLTexImage::GetTexHeight">
<polygon fill="white" stroke="black" points="217,-95.5 217,-114.5 357,-114.5 357,-95.5 217,-95.5"/>
<text text-anchor="middle" x="287" y="-102.5" font-family="Helvetica,sans-Serif" font-size="10.00">GLTexImage::GetTexHeight</text>
</a>
</g>
</g>
<!-- Node1&#45;&gt;Node5 -->
<g id="edge4" class="edge"><title>Node1&#45;&gt;Node5</title>
<path fill="none" stroke="midnightblue" d="M164.106,-116.409C178.147,-115.095 192.731,-113.73 206.723,-112.42"/>
<polygon fill="midnightblue" stroke="midnightblue" points="207.159,-115.895 216.79,-111.478 206.507,-108.925 207.159,-115.895"/>
</g>
<!-- Node6 -->
<g id="node6" class="node"><title>Node6</title>
<g id="a_node6"><a xlink:href="../../df/da6/classGLTexImage.html#a0e8739a59cc418ee4b5b1146d13fae0a" target="_top" xlink:title="GLTexImage::InitTexture">
<polygon fill="white" stroke="black" points="224.5,-57.5 224.5,-76.5 349.5,-76.5 349.5,-57.5 224.5,-57.5"/>
<text text-anchor="middle" x="287" y="-64.5" font-family="Helvetica,sans-Serif" font-size="10.00">GLTexImage::InitTexture</text>
</a>
</g>
</g>
<!-- Node1&#45;&gt;Node6 -->
<g id="edge5" class="edge"><title>Node1&#45;&gt;Node6</title>
<path fill="none" stroke="midnightblue" d="M110.198,-114.34C133.768,-106.168 168.883,-94.4693 200,-86 209.308,-83.4667 219.25,-81.0281 228.95,-78.7915"/>
<polygon fill="midnightblue" stroke="midnightblue" points="229.95,-82.154 238.934,-76.5382 228.408,-75.3258 229.95,-82.154"/>
</g>
<!-- Node11 -->
<g id="node11" class="node"><title>Node11</title>
<g id="a_node11"><a xlink:href="../../df/da6/classGLTexImage.html#a57d1a67486a2d19508b4b4bb65cb0e88" target="_top" xlink:title="GLTexImage::SetImageSize">
<polygon fill="white" stroke="black" points="217,-19.5 217,-38.5 357,-38.5 357,-19.5 217,-19.5"/>
<text text-anchor="middle" x="287" y="-26.5" font-family="Helvetica,sans-Serif" font-size="10.00">GLTexImage::SetImageSize</text>
</a>
</g>
</g>
<!-- Node1&#45;&gt;Node11 -->
<g id="edge11" class="edge"><title>Node1&#45;&gt;Node11</title>
<path fill="none" stroke="midnightblue" d="M94.4898,-114.487C114.589,-98.3356 158.001,-65.5967 200,-48 206.159,-45.4196 212.719,-43.1666 219.365,-41.2044"/>
<polygon fill="midnightblue" stroke="midnightblue" points="220.404,-44.5488 229.126,-38.5335 218.556,-37.7971 220.404,-44.5488"/>
</g>
<!-- Node2&#45;&gt;Node3 -->
<g id="edge2" class="edge"><title>Node2&#45;&gt;Node3</title>
<path fill="none" stroke="midnightblue" d="M370.983,-209.444C392.294,-206.99 413.561,-204.541 429.097,-202.752"/>
<polygon fill="midnightblue" stroke="midnightblue" points="429.782,-206.197 439.316,-201.576 428.982,-199.243 429.782,-206.197"/>
</g>
<!-- Node7 -->
<g id="node7" class="node"><title>Node7</title>
<g id="a_node7"><a xlink:href="../../da/d33/glew_8h.html#a99e77ebf136a8c511226cf705049a305" target="_top" xlink:title="glGenTextures">
<polygon fill="white" stroke="black" points="414,-114.5 414,-133.5 494,-133.5 494,-114.5 414,-114.5"/>
<text text-anchor="middle" x="454" y="-121.5" font-family="Helvetica,sans-Serif" font-size="10.00">glGenTextures</text>
</a>
</g>
</g>
<!-- Node6&#45;&gt;Node7 -->
<g id="edge6" class="edge"><title>Node6&#45;&gt;Node7</title>
<path fill="none" stroke="midnightblue" d="M341.856,-76.5696C352.654,-79.1357 363.808,-82.2618 374,-86 390.985,-92.2296 393.716,-97.117 410,-105 413.616,-106.75 417.43,-108.53 421.234,-110.263"/>
<polygon fill="midnightblue" stroke="midnightblue" points="419.99,-113.54 430.547,-114.431 422.849,-107.151 419.99,-113.54"/>
</g>
<!-- Node8 -->
<g id="node8" class="node"><title>Node8</title>
<g id="a_node8"><a xlink:href="../../da/d33/glew_8h.html#ac8dbabff536e520bc700960dadd8d787" target="_top" xlink:title="glTexParameteri">
<polygon fill="white" stroke="black" points="410,-76.5 410,-95.5 498,-95.5 498,-76.5 410,-76.5"/>
<text text-anchor="middle" x="454" y="-83.5" font-family="Helvetica,sans-Serif" font-size="10.00">glTexParameteri</text>
</a>
</g>
</g>
<!-- Node6&#45;&gt;Node8 -->
<g id="edge7" class="edge"><title>Node6&#45;&gt;Node8</title>
<path fill="none" stroke="midnightblue" d="M349.909,-74.129C366.262,-76.012 383.768,-78.0278 399.626,-79.854"/>
<polygon fill="midnightblue" stroke="midnightblue" points="399.446,-83.3563 409.781,-81.0233 400.247,-76.4022 399.446,-83.3563"/>
</g>
<!-- Node9 -->
<g id="node9" class="node"><title>Node9</title>
<g id="a_node9"><a xlink:href="../../da/d33/glew_8h.html#a414668e7628d609ce501994bd609bfdf" target="_top" xlink:title="glTexEnvi">
<polygon fill="white" stroke="black" points="424,-38.5 424,-57.5 484,-57.5 484,-38.5 424,-38.5"/>
<text text-anchor="middle" x="454" y="-45.5" font-family="Helvetica,sans-Serif" font-size="10.00">glTexEnvi</text>
</a>
</g>
</g>
<!-- Node6&#45;&gt;Node9 -->
<g id="edge8" class="edge"><title>Node6&#45;&gt;Node9</title>
<path fill="none" stroke="midnightblue" d="M349.909,-59.871C371.204,-57.4189 394.455,-54.7416 413.476,-52.5512"/>
<polygon fill="midnightblue" stroke="midnightblue" points="414.036,-56.01 423.57,-51.3889 413.235,-49.056 414.036,-56.01"/>
</g>
<!-- Node10 -->
<g id="node10" class="node"><title>Node10</title>
<g id="a_node10"><a xlink:href="../../da/d33/glew_8h.html#aa95edbecc15f2cb8072b81af66d60f5b" target="_top" xlink:title="glTexImage2D">
<polygon fill="white" stroke="black" points="414,-0.5 414,-19.5 494,-19.5 494,-0.5 414,-0.5"/>
<text text-anchor="middle" x="454" y="-7.5" font-family="Helvetica,sans-Serif" font-size="10.00">glTexImage2D</text>
</a>
</g>
</g>
<!-- Node6&#45;&gt;Node10 -->
<g id="edge9" class="edge"><title>Node6&#45;&gt;Node10</title>
<path fill="none" stroke="midnightblue" d="M341.856,-57.4304C352.654,-54.8643 363.808,-51.7382 374,-48 390.985,-41.7704 393.716,-36.883 410,-29 413.616,-27.2497 417.43,-25.4701 421.234,-23.7372"/>
<polygon fill="midnightblue" stroke="midnightblue" points="422.849,-26.8489 430.547,-19.5689 419.99,-20.4597 422.849,-26.8489"/>
</g>
</g>
</svg>
        <g id="navigator" transform="translate(0 0)" fill="#404254">
                <rect fill="#f2f5e9" fill-opacity="0.5" stroke="#606060" stroke-width=".5" x="0" y="0" width="60" height="60"/>
                <use id="zoomplus" xlink:href="#zoomPlus" x="17" y="9" onmousedown="handleZoom(evt,'in')"/>
                <use id="zoomminus" xlink:href="#zoomMin" x="42" y="9" onmousedown="handleZoom(evt,'out')"/>
                <use id="reset" xlink:href="#resetDef" x="30" y="36" onmousedown="handleReset()"/>
                <g id="arrowUp" xlink:href="#dirArrow" transform="translate(30 24)" onmousedown="handlePan(0,-1)">
                  <use xlink:href="#rim" fill="#404040">
                        <set attributeName="fill" to="#808080" begin="arrowUp.mouseover" end="arrowUp.mouseout"/>
                  </use>
                  <path fill="none" stroke="white" stroke-width="1.5" d="M0,-3.0v7 M-2.5,-0.5L0,-3.0L2.5,-0.5"/>
                </g>
                <g id="arrowRight" xlink:href="#dirArrow" transform="rotate(90) translate(36 -43)" onmousedown="handlePan(1,0)">
                  <use xlink:href="#rim" fill="#404040">
                        <set attributeName="fill" to="#808080" begin="arrowRight.mouseover" end="arrowRight.mouseout"/>
                  </use>
                  <path fill="none" stroke="white" stroke-width="1.5" d="M0,-3.0v7 M-2.5,-0.5L0,-3.0L2.5,-0.5"/>
                </g>
                <g id="arrowDown" xlink:href="#dirArrow" transform="rotate(180) translate(-30 -48)" onmousedown="handlePan(0,1)">
                  <use xlink:href="#rim" fill="#404040">
                        <set attributeName="fill" to="#808080" begin="arrowDown.mouseover" end="arrowDown.mouseout"/>
                  </use>
                  <path fill="none" stroke="white" stroke-width="1.5" d="M0,-3.0v7 M-2.5,-0.5L0,-3.0L2.5,-0.5"/>
                </g>
                <g id="arrowLeft" xlink:href="#dirArrow" transform="rotate(270) translate(-36 17)" onmousedown="handlePan(-1,0)">
                  <use xlink:href="#rim" fill="#404040">
                        <set attributeName="fill" to="#808080" begin="arrowLeft.mouseover" end="arrowLeft.mouseout"/>
                  </use>
                  <path fill="none" stroke="white" stroke-width="1.5" d="M0,-3.0v7 M-2.5,-0.5L0,-3.0L2.5,-0.5"/>
                </g>
        </g>
        <svg viewBox="0 0 15 15" width="100%" height="30px" preserveAspectRatio="xMaxYMin meet">
         <g id="arrow_out" transform="scale(0.3 0.3)">
          <a xlink:href="classPyramidGL_a021d8c251ab0d806965bf99a27940be8_cgraph_org.svg" target="_base">
           <rect id="button" ry="5" rx="5" y="6" x="6" height="38" width="38"
                fill="#f2f5e9" fill-opacity="0.5" stroke="#606060" stroke-width="1.0"/>
           <path id="arrow"
             d="M 11.500037,31.436501 C 11.940474,20.09759 22.043105,11.32322 32.158766,21.979434 L 37.068811,17.246167 C 37.068811,17.246167 37.088388,32 37.088388,32 L 22.160133,31.978069 C 22.160133,31.978069 26.997745,27.140456 26.997745,27.140456 C 18.528582,18.264221 13.291696,25.230495 11.500037,31.436501 z"
             style="fill:#404040;"/>
          </a>
         </g>
        </svg>
</svg>
