<?xml version="1.0" encoding="UTF-8" standalone="no"?>
<!DOCTYPE svg PUBLIC "-//W3C//DTD SVG 1.1//EN"
 "http://www.w3.org/Graphics/SVG/1.1/DTD/svg11.dtd">
<!-- Generated by graphviz version 2.36.0 (20140111.2315)
 -->
<!-- Title: PyramidGL::GetFeatureDescriptors Pages: 1 -->
<svg width="588pt" height="741pt"
 viewBox="0.00 0.00 588.00 741.00" xmlns="http://www.w3.org/2000/svg" xmlns:xlink="http://www.w3.org/1999/xlink">
<g id="graph0" class="graph" transform="scale(1 1) rotate(0) translate(4 737)">
<title>PyramidGL::GetFeatureDescriptors</title>
<polygon fill="white" stroke="none" points="-4,4 -4,-737 584,-737 584,4 -4,4"/>
<!-- Node1 -->
<g id="node1" class="node"><title>Node1</title>
<polygon fill="#bfbfbf" stroke="black" points="0,-353.5 0,-372.5 170,-372.5 170,-353.5 0,-353.5"/>
<text text-anchor="middle" x="85" y="-360.5" font-family="Helvetica,sans-Serif" font-size="10.00">PyramidGL::GetFeatureDescriptors</text>
</g>
<!-- Node2 -->
<g id="node2" class="node"><title>Node2</title>
<g id="a_node2"><a xlink:href="../../da/d33/glew_8h.html#aea1d47483e7a506d5d7c437309a74fbb" target="_top" xlink:title="glReadBuffer">
<polygon fill="white" stroke="black" points="256,-713.5 256,-732.5 330,-732.5 330,-713.5 256,-713.5"/>
<text text-anchor="middle" x="293" y="-720.5" font-family="Helvetica,sans-Serif" font-size="10.00">glReadBuffer</text>
</a>
</g>
</g>
<!-- Node1&#45;&gt;Node2 -->
<g id="edge1" class="edge"><title>Node1&#45;&gt;Node2</title>
<path fill="none" stroke="midnightblue" d="M86.2028,-372.671C87.7031,-417.909 100.298,-610.366 206,-704 216.868,-713.627 231.505,-718.727 245.621,-721.333"/>
<polygon fill="midnightblue" stroke="midnightblue" points="245.343,-724.829 255.745,-722.819 246.359,-717.904 245.343,-724.829"/>
</g>
<!-- Node3 -->
<g id="node3" class="node"><title>Node3</title>
<g id="a_node3"><a xlink:href="../../d1/d75/classPyramidGL.html#a26c4ddce33dbce36f2cd9b8030cde568" target="_top" xlink:title="PyramidGL::GetBaseLevel">
<polygon fill="white" stroke="black" points="226.5,-675.5 226.5,-694.5 359.5,-694.5 359.5,-675.5 226.5,-675.5"/>
<text text-anchor="middle" x="293" y="-682.5" font-family="Helvetica,sans-Serif" font-size="10.00">PyramidGL::GetBaseLevel</text>
</a>
</g>
</g>
<!-- Node1&#45;&gt;Node3 -->
<g id="edge2" class="edge"><title>Node1&#45;&gt;Node3</title>
<path fill="none" stroke="midnightblue" d="M86.7139,-372.67C90.3566,-414.685 110.633,-582.94 206,-665 209.426,-667.948 213.204,-670.482 217.206,-672.659"/>
<polygon fill="midnightblue" stroke="midnightblue" points="215.736,-675.835 226.28,-676.874 218.686,-669.487 215.736,-675.835"/>
</g>
<!-- Node4 -->
<g id="node4" class="node"><title>Node4</title>
<g id="a_node4"><a xlink:href="../../dd/dce/classSiftPyramid.html#ae27f2902c0eb1350bd4d17bfd1058288" target="_top" xlink:title="SiftPyramid::IsUsingRect\lDescription">
<polygon fill="white" stroke="black" points="229,-626 229,-656 357,-656 357,-626 229,-626"/>
<text text-anchor="start" x="237" y="-644" font-family="Helvetica,sans-Serif" font-size="10.00">SiftPyramid::IsUsingRect</text>
<text text-anchor="middle" x="293" y="-633" font-family="Helvetica,sans-Serif" font-size="10.00">Description</text>
</a>
</g>
</g>
<!-- Node1&#45;&gt;Node4 -->
<g id="edge3" class="edge"><title>Node1&#45;&gt;Node4</title>
<path fill="none" stroke="midnightblue" d="M87.8946,-372.677C95.5748,-409.362 127.796,-541.311 206,-611 210.387,-614.909 215.311,-618.315 220.526,-621.282"/>
<polygon fill="midnightblue" stroke="midnightblue" points="219.032,-624.449 229.531,-625.872 222.211,-618.213 219.032,-624.449"/>
</g>
<!-- Node5 -->
<g id="node5" class="node"><title>Node5</title>
<g id="a_node5"><a xlink:href="../../d1/d75/classPyramidGL.html#ab3096e88d1558cb4ad876a19597fa0f7" target="_top" xlink:title="PyramidGL::GetAlignedStorageSize">
<polygon fill="white" stroke="black" points="206.5,-549.5 206.5,-568.5 379.5,-568.5 379.5,-549.5 206.5,-549.5"/>
<text text-anchor="middle" x="293" y="-556.5" font-family="Helvetica,sans-Serif" font-size="10.00">PyramidGL::GetAlignedStorageSize</text>
</a>
</g>
</g>
<!-- Node1&#45;&gt;Node5 -->
<g id="edge4" class="edge"><title>Node1&#45;&gt;Node5</title>
<path fill="none" stroke="midnightblue" d="M89.4812,-372.545C100.945,-402.55 140.566,-495.596 206,-540 208.936,-541.992 212.046,-543.779 215.274,-545.382"/>
<polygon fill="midnightblue" stroke="midnightblue" points="214.073,-548.676 224.641,-549.429 216.85,-542.25 214.073,-548.676"/>
</g>
<!-- Node6 -->
<g id="node6" class="node"><title>Node6</title>
<g id="a_node6"><a xlink:href="../../db/d82/wglew_8h.html#a500a82aecba06f4550f6849b8099ca21" target="_top" xlink:title="int">
<polygon fill="white" stroke="black" points="483.5,-666.5 483.5,-685.5 512.5,-685.5 512.5,-666.5 483.5,-666.5"/>
<text text-anchor="middle" x="498" y="-673.5" font-family="Helvetica,sans-Serif" font-size="10.00">int</text>
</a>
</g>
</g>
<!-- Node1&#45;&gt;Node6 -->
<g id="edge6" class="edge"><title>Node1&#45;&gt;Node6</title>
<path fill="none" stroke="midnightblue" d="M88.3305,-372.586C97.1266,-406.614 131.659,-522.521 206,-578 269.515,-625.399 311.59,-576.988 380,-617 400.645,-629.075 395.415,-644.822 416,-657 433.541,-667.376 456.351,-672.086 473.294,-674.224"/>
<polygon fill="midnightblue" stroke="midnightblue" points="473.156,-677.729 483.467,-675.291 473.887,-670.767 473.156,-677.729"/>
</g>
<!-- Node7 -->
<g id="node7" class="node"><title>Node7</title>
<g id="a_node7"><a xlink:href="../../df/da6/classGLTexImage.html#acf5811dc18277b8f6284867198b7d87a" target="_top" xlink:title="GLTexImage::GetTexHeight">
<polygon fill="white" stroke="black" points="223,-511.5 223,-530.5 363,-530.5 363,-511.5 223,-511.5"/>
<text text-anchor="middle" x="293" y="-518.5" font-family="Helvetica,sans-Serif" font-size="10.00">GLTexImage::GetTexHeight</text>
</a>
</g>
</g>
<!-- Node1&#45;&gt;Node7 -->
<g id="edge7" class="edge"><title>Node1&#45;&gt;Node7</title>
<path fill="none" stroke="midnightblue" d="M91.2776,-372.611C105.847,-398.173 149.331,-468.182 206,-502 209.619,-504.16 213.456,-506.075 217.421,-507.772"/>
<polygon fill="midnightblue" stroke="midnightblue" points="216.275,-511.081 226.866,-511.353 218.756,-504.535 216.275,-511.081"/>
</g>
<!-- Node8 -->
<g id="node8" class="node"><title>Node8</title>
<g id="a_node8"><a xlink:href="../../d2/d55/classGlobalUtil.html#a30830c22f7574d8d6f5a5b0a0b31ad50" target="_top" xlink:title="GlobalUtil::FitViewPort">
<polygon fill="white" stroke="black" points="235,-473.5 235,-492.5 351,-492.5 351,-473.5 235,-473.5"/>
<text text-anchor="middle" x="293" y="-480.5" font-family="Helvetica,sans-Serif" font-size="10.00">GlobalUtil::FitViewPort</text>
</a>
</g>
</g>
<!-- Node1&#45;&gt;Node8 -->
<g id="edge8" class="edge"><title>Node1&#45;&gt;Node8</title>
<path fill="none" stroke="midnightblue" d="M95.3495,-372.565C114.429,-391.559 159.952,-434.245 206,-458 215.733,-463.021 226.621,-467.172 237.291,-470.551"/>
<polygon fill="midnightblue" stroke="midnightblue" points="236.407,-473.939 246.99,-473.44 238.405,-467.231 236.407,-473.939"/>
</g>
<!-- Node14 -->
<g id="node14" class="node"><title>Node14</title>
<g id="a_node14"><a xlink:href="../../df/da6/classGLTexImage.html#a6df86f3c5a5bf3485c25236e317b4013" target="_top" xlink:title="GLTexImage::BindTex">
<polygon fill="white" stroke="black" points="235.5,-315.5 235.5,-334.5 350.5,-334.5 350.5,-315.5 235.5,-315.5"/>
<text text-anchor="middle" x="293" y="-322.5" font-family="Helvetica,sans-Serif" font-size="10.00">GLTexImage::BindTex</text>
</a>
</g>
</g>
<!-- Node1&#45;&gt;Node14 -->
<g id="edge14" class="edge"><title>Node1&#45;&gt;Node14</title>
<path fill="none" stroke="midnightblue" d="M137.717,-353.46C165.756,-348.288 200.602,-341.86 230.079,-336.422"/>
<polygon fill="midnightblue" stroke="midnightblue" points="231.063,-339.8 240.262,-334.544 229.793,-332.916 231.063,-339.8"/>
</g>
<!-- Node16 -->
<g id="node16" class="node"><title>Node16</title>
<g id="a_node16"><a xlink:href="../../d4/d24/classShaderMan.html#acce9a45dda4e2abe5acd225cc858ff05" target="_top" xlink:title="ShaderMan::UseShaderDescriptor">
<polygon fill="white" stroke="black" points="210,-429.5 210,-448.5 376,-448.5 376,-429.5 210,-429.5"/>
<text text-anchor="middle" x="293" y="-436.5" font-family="Helvetica,sans-Serif" font-size="10.00">ShaderMan::UseShaderDescriptor</text>
</a>
</g>
</g>
<!-- Node1&#45;&gt;Node16 -->
<g id="edge16" class="edge"><title>Node1&#45;&gt;Node16</title>
<path fill="none" stroke="midnightblue" d="M102.972,-372.575C125.764,-385.077 167.821,-406.904 206,-420 213.609,-422.61 221.723,-424.95 229.812,-427.02"/>
<polygon fill="midnightblue" stroke="midnightblue" points="229.088,-430.446 239.632,-429.412 230.744,-423.645 229.088,-430.446"/>
</g>
<!-- Node19 -->
<g id="node19" class="node"><title>Node19</title>
<g id="a_node19"><a xlink:href="../../df/da6/classGLTexImage.html#a37451cb3ea8875e6d734b05a476366b0" target="_top" xlink:title="GLTexImage::GetTexID">
<polygon fill="white" stroke="black" points="232,-353.5 232,-372.5 354,-372.5 354,-353.5 232,-353.5"/>
<text text-anchor="middle" x="293" y="-360.5" font-family="Helvetica,sans-Serif" font-size="10.00">GLTexImage::GetTexID</text>
</a>
</g>
</g>
<!-- Node1&#45;&gt;Node19 -->
<g id="edge19" class="edge"><title>Node1&#45;&gt;Node19</title>
<path fill="none" stroke="midnightblue" d="M170.085,-363C187.222,-363 205.081,-363 221.678,-363"/>
<polygon fill="midnightblue" stroke="midnightblue" points="221.831,-366.5 231.831,-363 221.831,-359.5 221.831,-366.5"/>
</g>
<!-- Node20 -->
<g id="node20" class="node"><title>Node20</title>
<g id="a_node20"><a xlink:href="../../df/da6/classGLTexImage.html#ad753ed48adf64effaa1dc94b8d65441a" target="_top" xlink:title="GLTexImage::DrawQuad">
<polygon fill="white" stroke="black" points="230.5,-391.5 230.5,-410.5 355.5,-410.5 355.5,-391.5 230.5,-391.5"/>
<text text-anchor="middle" x="293" y="-398.5" font-family="Helvetica,sans-Serif" font-size="10.00">GLTexImage::DrawQuad</text>
</a>
</g>
</g>
<!-- Node1&#45;&gt;Node20 -->
<g id="edge20" class="edge"><title>Node1&#45;&gt;Node20</title>
<path fill="none" stroke="midnightblue" d="M137.717,-372.54C165.756,-377.712 200.602,-384.14 230.079,-389.578"/>
<polygon fill="midnightblue" stroke="midnightblue" points="229.793,-393.084 240.262,-391.456 231.063,-386.2 229.793,-393.084"/>
</g>
<!-- Node26 -->
<g id="node26" class="node"><title>Node26</title>
<g id="a_node26"><a xlink:href="../../da/d33/glew_8h.html#adbab0cced722a4b572d6647798a961af" target="_top" xlink:title="glReadPixels">
<polygon fill="white" stroke="black" points="256,-277.5 256,-296.5 330,-296.5 330,-277.5 256,-277.5"/>
<text text-anchor="middle" x="293" y="-284.5" font-family="Helvetica,sans-Serif" font-size="10.00">glReadPixels</text>
</a>
</g>
</g>
<!-- Node1&#45;&gt;Node26 -->
<g id="edge26" class="edge"><title>Node1&#45;&gt;Node26</title>
<path fill="none" stroke="midnightblue" d="M102.972,-353.425C125.764,-340.923 167.821,-319.096 206,-306 218.793,-301.612 233.013,-297.988 246.146,-295.123"/>
<polygon fill="midnightblue" stroke="midnightblue" points="246.861,-298.55 255.935,-293.081 245.431,-291.697 246.861,-298.55"/>
</g>
<!-- Node27 -->
<g id="node27" class="node"><title>Node27</title>
<g id="a_node27"><a xlink:href="../../d1/d75/classPyramidGL.html#acaa3480be0bd37b998aa40bb6b45de76" target="_top" xlink:title="PyramidGL::InterlaceDescriptorF2">
<polygon fill="white" stroke="black" points="210.5,-239.5 210.5,-258.5 375.5,-258.5 375.5,-239.5 210.5,-239.5"/>
<text text-anchor="middle" x="293" y="-246.5" font-family="Helvetica,sans-Serif" font-size="10.00">PyramidGL::InterlaceDescriptorF2</text>
</a>
</g>
</g>
<!-- Node1&#45;&gt;Node27 -->
<g id="edge27" class="edge"><title>Node1&#45;&gt;Node27</title>
<path fill="none" stroke="midnightblue" d="M94.9334,-353.474C113.608,-334.164 158.959,-290.35 206,-268 211.22,-265.52 216.774,-263.358 222.448,-261.474"/>
<polygon fill="midnightblue" stroke="midnightblue" points="223.518,-264.807 232.074,-258.56 221.489,-258.108 223.518,-264.807"/>
</g>
<!-- Node28 -->
<g id="node28" class="node"><title>Node28</title>
<g id="a_node28"><a xlink:href="../../d1/d75/classPyramidGL.html#acdb69f924b23401d098774fd1f64a694" target="_top" xlink:title="PyramidGL::NormalizeDescriptor">
<polygon fill="white" stroke="black" points="212.5,-201.5 212.5,-220.5 373.5,-220.5 373.5,-201.5 212.5,-201.5"/>
<text text-anchor="middle" x="293" y="-208.5" font-family="Helvetica,sans-Serif" font-size="10.00">PyramidGL::NormalizeDescriptor</text>
</a>
</g>
</g>
<!-- Node1&#45;&gt;Node28 -->
<g id="edge28" class="edge"><title>Node1&#45;&gt;Node28</title>
<path fill="none" stroke="midnightblue" d="M91.6082,-353.449C106.668,-328.709 150.63,-262.226 206,-230 209.717,-227.837 213.655,-225.92 217.721,-224.22"/>
<polygon fill="midnightblue" stroke="midnightblue" points="219.234,-227.393 227.396,-220.638 216.803,-220.828 219.234,-227.393"/>
</g>
<!-- Node29 -->
<g id="node29" class="node"><title>Node29</title>
<g id="a_node29"><a xlink:href="../../df/da6/classGLTexImage.html#af3929f0108cc3c43983c0fc952199869" target="_top" xlink:title="GLTexImage::UnbindMultiTex">
<polygon fill="white" stroke="black" points="219.5,-163.5 219.5,-182.5 366.5,-182.5 366.5,-163.5 219.5,-163.5"/>
<text text-anchor="middle" x="293" y="-170.5" font-family="Helvetica,sans-Serif" font-size="10.00">GLTexImage::UnbindMultiTex</text>
</a>
</g>
</g>
<!-- Node1&#45;&gt;Node29 -->
<g id="edge29" class="edge"><title>Node1&#45;&gt;Node29</title>
<path fill="none" stroke="midnightblue" d="M89.7472,-353.363C101.716,-323.935 142.032,-234.66 206,-192 209.109,-189.927 212.408,-188.076 215.832,-186.425"/>
<polygon fill="midnightblue" stroke="midnightblue" points="217.288,-189.609 225.145,-182.502 214.571,-183.158 217.288,-189.609"/>
</g>
<!-- Node30 -->
<g id="node30" class="node"><title>Node30</title>
<g id="a_node30"><a xlink:href="../../da/d33/glew_8h.html#a170c1426633472880793e711b06ef0df" target="_top" xlink:title="glDrawBuffer">
<polygon fill="white" stroke="black" points="256,-125.5 256,-144.5 330,-144.5 330,-125.5 256,-125.5"/>
<text text-anchor="middle" x="293" y="-132.5" font-family="Helvetica,sans-Serif" font-size="10.00">glDrawBuffer</text>
</a>
</g>
</g>
<!-- Node1&#45;&gt;Node30 -->
<g id="edge31" class="edge"><title>Node1&#45;&gt;Node30</title>
<path fill="none" stroke="midnightblue" d="M88.5387,-353.205C97.8085,-319.509 133.162,-207.5 206,-154 217.503,-145.551 232.051,-140.737 245.895,-138.031"/>
<polygon fill="midnightblue" stroke="midnightblue" points="246.493,-141.48 255.797,-136.411 245.363,-134.572 246.493,-141.48"/>
</g>
<!-- Node31 -->
<g id="node31" class="node"><title>Node31</title>
<g id="a_node31"><a xlink:href="../../d4/d24/classShaderMan.html#a9e0bda881ceb8f67650029155d23c4aa" target="_top" xlink:title="ShaderMan::UnloadProgram">
<polygon fill="white" stroke="black" points="223,-87.5 223,-106.5 363,-106.5 363,-87.5 223,-87.5"/>
<text text-anchor="middle" x="293" y="-94.5" font-family="Helvetica,sans-Serif" font-size="10.00">ShaderMan::UnloadProgram</text>
</a>
</g>
</g>
<!-- Node1&#45;&gt;Node31 -->
<g id="edge32" class="edge"><title>Node1&#45;&gt;Node31</title>
<path fill="none" stroke="midnightblue" d="M87.6124,-353.321C94.3525,-316.071 123.846,-180.819 206,-116 208.442,-114.073 211.039,-112.333 213.751,-110.761"/>
<polygon fill="midnightblue" stroke="midnightblue" points="215.352,-113.874 222.754,-106.294 212.241,-107.603 215.352,-113.874"/>
</g>
<!-- Node33 -->
<g id="node33" class="node"><title>Node33</title>
<g id="a_node33"><a xlink:href="../../da/d33/glew_8h.html#a32df7ba224618f3a64723debf23835dd" target="_top" xlink:title="glFinish">
<polygon fill="white" stroke="black" points="268,-49.5 268,-68.5 318,-68.5 318,-49.5 268,-49.5"/>
<text text-anchor="middle" x="293" y="-56.5" font-family="Helvetica,sans-Serif" font-size="10.00">glFinish</text>
</a>
</g>
</g>
<!-- Node1&#45;&gt;Node33 -->
<g id="edge34" class="edge"><title>Node1&#45;&gt;Node33</title>
<path fill="none" stroke="midnightblue" d="M86.9432,-353.292C91.4402,-312.594 114.45,-154.31 206,-78 220.298,-66.082 240.445,-61.2022 257.644,-59.362"/>
<polygon fill="midnightblue" stroke="midnightblue" points="258.192,-62.8303 267.894,-58.5732 257.655,-55.8509 258.192,-62.8303"/>
</g>
<!-- Node34 -->
<g id="node34" class="node"><title>Node34</title>
<g id="a_node34"><a xlink:href="../../d3/d06/classFrameBufferObject.html#ae5f040f93ccb4040004e7052ec463e6f" target="_top" xlink:title="FrameBufferObject::\lUnattachTex">
<polygon fill="white" stroke="black" points="240.5,-0 240.5,-30 345.5,-30 345.5,-0 240.5,-0"/>
<text text-anchor="start" x="248.5" y="-18" font-family="Helvetica,sans-Serif" font-size="10.00">FrameBufferObject::</text>
<text text-anchor="middle" x="293" y="-7" font-family="Helvetica,sans-Serif" font-size="10.00">UnattachTex</text>
</a>
</g>
</g>
<!-- Node1&#45;&gt;Node34 -->
<g id="edge35" class="edge"><title>Node1&#45;&gt;Node34</title>
<path fill="none" stroke="midnightblue" d="M86.556,-353.398C89.5905,-310.107 107.862,-131.241 206,-40 213.015,-33.4782 221.633,-28.6475 230.678,-25.0717"/>
<polygon fill="midnightblue" stroke="midnightblue" points="231.897,-28.3534 240.207,-21.7813 229.613,-21.7367 231.897,-28.3534"/>
</g>
<!-- Node5&#45;&gt;Node6 -->
<g id="edge5" class="edge"><title>Node5&#45;&gt;Node6</title>
<path fill="none" stroke="midnightblue" d="M353.705,-568.528C363.196,-571.969 372.381,-576.646 380,-583 408.089,-606.424 387.428,-634.167 416,-657 432.259,-669.993 455.877,-674.379 473.419,-675.731"/>
<polygon fill="midnightblue" stroke="midnightblue" points="473.274,-679.228 483.435,-676.23 473.622,-672.236 473.274,-679.228"/>
</g>
<!-- Node9 -->
<g id="node9" class="node"><title>Node9</title>
<g id="a_node9"><a xlink:href="../../da/d33/glew_8h.html#ae9ebc290561b3321b629610807155a35" target="_top" xlink:title="glGetIntegerv">
<polygon fill="white" stroke="black" points="460.5,-628.5 460.5,-647.5 535.5,-647.5 535.5,-628.5 460.5,-628.5"/>
<text text-anchor="middle" x="498" y="-635.5" font-family="Helvetica,sans-Serif" font-size="10.00">glGetIntegerv</text>
</a>
</g>
</g>
<!-- Node8&#45;&gt;Node9 -->
<g id="edge9" class="edge"><title>Node8&#45;&gt;Node9</title>
<path fill="none" stroke="midnightblue" d="M351.32,-486.897C361.849,-489.902 372.019,-494.641 380,-502 419.998,-538.88 376.242,-581.861 416,-619 425.328,-627.714 437.869,-632.676 450.293,-635.437"/>
<polygon fill="midnightblue" stroke="midnightblue" points="449.706,-638.888 460.167,-637.21 450.943,-631.998 449.706,-638.888"/>
</g>
<!-- Node10 -->
<g id="node10" class="node"><title>Node10</title>
<g id="a_node10"><a xlink:href="../../da/d33/glew_8h.html#a8e93835e91933b7078c88f905dd8599c" target="_top" xlink:title="glViewport">
<polygon fill="white" stroke="black" points="467,-590.5 467,-609.5 529,-609.5 529,-590.5 467,-590.5"/>
<text text-anchor="middle" x="498" y="-597.5" font-family="Helvetica,sans-Serif" font-size="10.00">glViewport</text>
</a>
</g>
</g>
<!-- Node8&#45;&gt;Node10 -->
<g id="edge10" class="edge"><title>Node8&#45;&gt;Node10</title>
<path fill="none" stroke="midnightblue" d="M351.049,-487.852C361.479,-490.796 371.68,-495.267 380,-502 409.995,-526.272 386.163,-556.534 416,-581 427.415,-590.36 442.624,-595.275 456.779,-597.802"/>
<polygon fill="midnightblue" stroke="midnightblue" points="456.434,-601.288 466.831,-599.249 457.432,-594.359 456.434,-601.288"/>
</g>
<!-- Node11 -->
<g id="node11" class="node"><title>Node11</title>
<g id="a_node11"><a xlink:href="../../da/d33/glew_8h.html#af14e38e22806d0220680b52edbc3bcef" target="_top" xlink:title="glMatrixMode">
<polygon fill="white" stroke="black" points="460.5,-552.5 460.5,-571.5 535.5,-571.5 535.5,-552.5 460.5,-552.5"/>
<text text-anchor="middle" x="498" y="-559.5" font-family="Helvetica,sans-Serif" font-size="10.00">glMatrixMode</text>
</a>
</g>
</g>
<!-- Node8&#45;&gt;Node11 -->
<g id="edge11" class="edge"><title>Node8&#45;&gt;Node11</title>
<path fill="none" stroke="midnightblue" d="M351.442,-490.377C361.388,-493.115 371.312,-496.865 380,-502 400.876,-514.339 395.205,-530.526 416,-543 426.451,-549.269 438.812,-553.47 450.689,-556.285"/>
<polygon fill="midnightblue" stroke="midnightblue" points="449.993,-559.715 460.498,-558.338 451.428,-552.863 449.993,-559.715"/>
</g>
<!-- Node12 -->
<g id="node12" class="node"><title>Node12</title>
<g id="a_node12"><a xlink:href="../../da/d33/glew_8h.html#a6577472f85b23086331edadaf0311a49" target="_top" xlink:title="glLoadIdentity">
<polygon fill="white" stroke="black" points="459.5,-514.5 459.5,-533.5 536.5,-533.5 536.5,-514.5 459.5,-514.5"/>
<text text-anchor="middle" x="498" y="-521.5" font-family="Helvetica,sans-Serif" font-size="10.00">glLoadIdentity</text>
</a>
</g>
</g>
<!-- Node8&#45;&gt;Node12 -->
<g id="edge12" class="edge"><title>Node8&#45;&gt;Node12</title>
<path fill="none" stroke="midnightblue" d="M341.083,-492.509C373.529,-499.062 416.508,-507.743 449.124,-514.33"/>
<polygon fill="midnightblue" stroke="midnightblue" points="448.828,-517.841 459.323,-516.39 450.214,-510.98 448.828,-517.841"/>
</g>
<!-- Node13 -->
<g id="node13" class="node"><title>Node13</title>
<g id="a_node13"><a xlink:href="../../da/d33/glew_8h.html#a2d92120b1fad876057dfd00e2d942525" target="_top" xlink:title="glOrtho">
<polygon fill="white" stroke="black" points="474,-476.5 474,-495.5 522,-495.5 522,-476.5 474,-476.5"/>
<text text-anchor="middle" x="498" y="-483.5" font-family="Helvetica,sans-Serif" font-size="10.00">glOrtho</text>
</a>
</g>
</g>
<!-- Node8&#45;&gt;Node13 -->
<g id="edge13" class="edge"><title>Node8&#45;&gt;Node13</title>
<path fill="none" stroke="midnightblue" d="M351.087,-483.844C387.488,-484.382 433.382,-485.06 463.88,-485.511"/>
<polygon fill="midnightblue" stroke="midnightblue" points="463.933,-489.012 473.984,-485.66 464.037,-482.012 463.933,-489.012"/>
</g>
<!-- Node15 -->
<g id="node15" class="node"><title>Node15</title>
<g id="a_node15"><a xlink:href="../../da/d33/glew_8h.html#a940f58f3728713267a58e2d09ff602b2" target="_top" xlink:title="glBindTexture">
<polygon fill="white" stroke="black" points="459.5,-160.5 459.5,-179.5 536.5,-179.5 536.5,-160.5 459.5,-160.5"/>
<text text-anchor="middle" x="498" y="-167.5" font-family="Helvetica,sans-Serif" font-size="10.00">glBindTexture</text>
</a>
</g>
</g>
<!-- Node14&#45;&gt;Node15 -->
<g id="edge15" class="edge"><title>Node14&#45;&gt;Node15</title>
<path fill="none" stroke="midnightblue" d="M350.875,-321.229C361.563,-318.231 371.906,-313.463 380,-306 419.998,-269.12 376.242,-226.139 416,-189 425.071,-180.527 437.18,-175.601 449.265,-172.796"/>
<polygon fill="midnightblue" stroke="midnightblue" points="450.159,-176.19 459.343,-170.908 448.869,-169.309 450.159,-176.19"/>
</g>
<!-- Node17 -->
<g id="node17" class="node"><title>Node17</title>
<g id="a_node17"><a xlink:href="../../d9/d26/classProgramGPU.html#acd625b26fa073fc83ec0be9badb29635" target="_top" xlink:title="ProgramGPU::UseProgram">
<polygon fill="white" stroke="black" points="430,-388.5 430,-407.5 566,-407.5 566,-388.5 430,-388.5"/>
<text text-anchor="middle" x="498" y="-395.5" font-family="Helvetica,sans-Serif" font-size="10.00">ProgramGPU::UseProgram</text>
</a>
</g>
</g>
<!-- Node16&#45;&gt;Node17 -->
<g id="edge17" class="edge"><title>Node16&#45;&gt;Node17</title>
<path fill="none" stroke="midnightblue" d="M341.083,-429.491C370.569,-423.535 408.755,-415.823 439.957,-409.521"/>
<polygon fill="midnightblue" stroke="midnightblue" points="440.712,-412.939 449.822,-407.529 439.327,-406.078 440.712,-412.939"/>
</g>
<!-- Node18 -->
<g id="node18" class="node"><title>Node18</title>
<g id="a_node18"><a xlink:href="../../d9/d4e/classShaderBag.html#aed6ab46bcd51dbc96c7f32fee8059a7a" target="_top" xlink:title="ShaderBag::SetFeatureDescirptor\lParam">
<polygon fill="white" stroke="black" points="416,-427 416,-457 580,-457 580,-427 416,-427"/>
<text text-anchor="start" x="424" y="-445" font-family="Helvetica,sans-Serif" font-size="10.00">ShaderBag::SetFeatureDescirptor</text>
<text text-anchor="middle" x="498" y="-434" font-family="Helvetica,sans-Serif" font-size="10.00">Param</text>
</a>
</g>
</g>
<!-- Node16&#45;&gt;Node18 -->
<g id="edge18" class="edge"><title>Node16&#45;&gt;Node18</title>
<path fill="none" stroke="midnightblue" d="M376.275,-440.216C385.982,-440.359 395.932,-440.506 405.753,-440.652"/>
<polygon fill="midnightblue" stroke="midnightblue" points="405.875,-444.154 415.925,-440.802 405.978,-437.154 405.875,-444.154"/>
</g>
<!-- Node21 -->
<g id="node21" class="node"><title>Node21</title>
<g id="a_node21"><a xlink:href="../../da/d33/glew_8h.html#a98964453975519f92d6cc59ef77f7436" target="_top" xlink:title="glBegin">
<polygon fill="white" stroke="black" points="473.5,-350.5 473.5,-369.5 522.5,-369.5 522.5,-350.5 473.5,-350.5"/>
<text text-anchor="middle" x="498" y="-357.5" font-family="Helvetica,sans-Serif" font-size="10.00">glBegin</text>
</a>
</g>
</g>
<!-- Node20&#45;&gt;Node21 -->
<g id="edge21" class="edge"><title>Node20&#45;&gt;Node21</title>
<path fill="none" stroke="midnightblue" d="M341.083,-391.491C378.496,-383.934 429.914,-373.549 463.3,-366.806"/>
<polygon fill="midnightblue" stroke="midnightblue" points="464.356,-370.164 473.465,-364.753 462.97,-363.302 464.356,-370.164"/>
</g>
<!-- Node22 -->
<g id="node22" class="node"><title>Node22</title>
<g id="a_node22"><a xlink:href="../../da/d33/glew_8h.html#a3a21de74d8799ed05076a96998429d7b" target="_top" xlink:title="glTexCoord2i">
<polygon fill="white" stroke="black" points="461,-312.5 461,-331.5 535,-331.5 535,-312.5 461,-312.5"/>
<text text-anchor="middle" x="498" y="-319.5" font-family="Helvetica,sans-Serif" font-size="10.00">glTexCoord2i</text>
</a>
</g>
</g>
<!-- Node20&#45;&gt;Node22 -->
<g id="edge22" class="edge"><title>Node20&#45;&gt;Node22</title>
<path fill="none" stroke="midnightblue" d="M355.507,-392.446C364.072,-389.837 372.497,-386.435 380,-382 400.876,-369.661 395.205,-353.474 416,-341 426.548,-334.673 439.041,-330.452 451.018,-327.638"/>
<polygon fill="midnightblue" stroke="midnightblue" points="451.823,-331.045 460.904,-325.588 450.402,-324.191 451.823,-331.045"/>
</g>
<!-- Node23 -->
<g id="node23" class="node"><title>Node23</title>
<g id="a_node23"><a xlink:href="../../da/d33/glew_8h.html#a43e94a9a0586067872b96a8a790e60bc" target="_top" xlink:title="glVertex2i">
<polygon fill="white" stroke="black" points="468,-274.5 468,-293.5 528,-293.5 528,-274.5 468,-274.5"/>
<text text-anchor="middle" x="498" y="-281.5" font-family="Helvetica,sans-Serif" font-size="10.00">glVertex2i</text>
</a>
</g>
</g>
<!-- Node20&#45;&gt;Node23 -->
<g id="edge23" class="edge"><title>Node20&#45;&gt;Node23</title>
<path fill="none" stroke="midnightblue" d="M355.5,-394.791C364.355,-391.881 372.868,-387.771 380,-382 409.995,-357.728 386.163,-327.466 416,-303 427.594,-293.493 443.104,-288.572 457.447,-286.081"/>
<polygon fill="midnightblue" stroke="midnightblue" points="458.191,-289.511 467.613,-284.666 457.226,-282.578 458.191,-289.511"/>
</g>
<!-- Node24 -->
<g id="node24" class="node"><title>Node24</title>
<g id="a_node24"><a xlink:href="../../da/d33/glew_8h.html#abbff207d1fa71b296ff35b149cef7238" target="_top" xlink:title="glEnd">
<polygon fill="white" stroke="black" points="477.5,-236.5 477.5,-255.5 518.5,-255.5 518.5,-236.5 477.5,-236.5"/>
<text text-anchor="middle" x="498" y="-243.5" font-family="Helvetica,sans-Serif" font-size="10.00">glEnd</text>
</a>
</g>
</g>
<!-- Node20&#45;&gt;Node24 -->
<g id="edge24" class="edge"><title>Node20&#45;&gt;Node24</title>
<path fill="none" stroke="midnightblue" d="M355.742,-395.728C364.671,-392.711 373.143,-388.323 380,-382 419.998,-345.12 376.242,-302.139 416,-265 429.724,-252.18 450.4,-247.482 467.428,-245.961"/>
<polygon fill="midnightblue" stroke="midnightblue" points="467.682,-249.453 477.463,-245.381 467.278,-242.464 467.682,-249.453"/>
</g>
<!-- Node25 -->
<g id="node25" class="node"><title>Node25</title>
<g id="a_node25"><a xlink:href="../../da/d33/glew_8h.html#afb3e087fc26a916a909d46ead9cfc44a" target="_top" xlink:title="glFlush">
<polygon fill="white" stroke="black" points="474,-198.5 474,-217.5 522,-217.5 522,-198.5 474,-198.5"/>
<text text-anchor="middle" x="498" y="-205.5" font-family="Helvetica,sans-Serif" font-size="10.00">glFlush</text>
</a>
</g>
</g>
<!-- Node20&#45;&gt;Node25 -->
<g id="edge25" class="edge"><title>Node20&#45;&gt;Node25</title>
<path fill="none" stroke="midnightblue" d="M355.699,-396.29C364.741,-393.22 373.26,-388.667 380,-382 430.277,-332.262 366.046,-277.063 416,-227 428.386,-214.586 447.242,-209.674 463.645,-207.939"/>
<polygon fill="midnightblue" stroke="midnightblue" points="464.248,-211.406 473.977,-207.212 463.756,-204.423 464.248,-211.406"/>
</g>
<!-- Node29&#45;&gt;Node15 -->
<g id="edge30" class="edge"><title>Node29&#45;&gt;Node15</title>
<path fill="none" stroke="midnightblue" d="M366.714,-171.925C394.189,-171.519 424.731,-171.068 449.335,-170.704"/>
<polygon fill="midnightblue" stroke="midnightblue" points="449.542,-174.202 459.489,-170.554 449.439,-167.203 449.542,-174.202"/>
</g>
<!-- Node32 -->
<g id="node32" class="node"><title>Node32</title>
<g id="a_node32"><a xlink:href="../../d9/d4e/classShaderBag.html#aacdddcf6984572013aec63a1d97b24b2" target="_top" xlink:title="ShaderBag::UnloadProgram">
<polygon fill="white" stroke="black" points="429,-87.5 429,-106.5 567,-106.5 567,-87.5 429,-87.5"/>
<text text-anchor="middle" x="498" y="-94.5" font-family="Helvetica,sans-Serif" font-size="10.00">ShaderBag::UnloadProgram</text>
</a>
</g>
</g>
<!-- Node31&#45;&gt;Node32 -->
<g id="edge33" class="edge"><title>Node31&#45;&gt;Node32</title>
<path fill="none" stroke="midnightblue" d="M363.01,-97C380.951,-97 400.407,-97 418.786,-97"/>
<polygon fill="midnightblue" stroke="midnightblue" points="418.87,-100.5 428.87,-97 418.87,-93.5001 418.87,-100.5"/>
</g>
</g>
</svg>
