<?xml version="1.0" encoding="UTF-8" standalone="no"?>
<!DOCTYPE svg PUBLIC "-//W3C//DTD SVG 1.1//EN"
 "http://www.w3.org/Graphics/SVG/1.1/DTD/svg11.dtd">
<!-- Generated by graphviz version 2.36.0 (20140111.2315)
 -->
<!-- Title: ANNbd_shrink::ann_pri_search Pages: 1 -->
<svg width="434pt" height="77pt"
 viewBox="0.00 0.00 434.00 77.00" xmlns="http://www.w3.org/2000/svg" xmlns:xlink="http://www.w3.org/1999/xlink">
<g id="graph0" class="graph" transform="scale(1 1) rotate(0) translate(4 73)">
<title>ANNbd_shrink::ann_pri_search</title>
<polygon fill="white" stroke="none" points="-4,4 -4,-73 430,-73 430,4 -4,4"/>
<!-- Node1 -->
<g id="node1" class="node"><title>Node1</title>
<polygon fill="#bfbfbf" stroke="black" points="0,-22 0,-52 118,-52 118,-22 0,-22"/>
<text text-anchor="start" x="8" y="-40" font-family="Helvetica,sans-Serif" font-size="10.00">ANNbd_shrink::ann_pri</text>
<text text-anchor="middle" x="59" y="-29" font-family="Helvetica,sans-Serif" font-size="10.00">_search</text>
</g>
<!-- Node2 -->
<g id="node2" class="node"><title>Node2</title>
<g id="a_node2"><a xlink:href="../../d0/d3c/classANNpr__queue.html#ace0ac53aabbcaba22d209e3e1d987db6" target="_top" xlink:title="ANNpr_queue::insert">
<polygon fill="white" stroke="black" points="157,-49.5 157,-68.5 265,-68.5 265,-49.5 157,-49.5"/>
<text text-anchor="middle" x="211" y="-56.5" font-family="Helvetica,sans-Serif" font-size="10.00">ANNpr_queue::insert</text>
</a>
</g>
</g>
<!-- Node1&#45;&gt;Node2 -->
<g id="edge1" class="edge"><title>Node1&#45;&gt;Node2</title>
<path fill="none" stroke="midnightblue" d="M118.423,-45.5688C127.727,-46.9332 137.388,-48.3502 146.795,-49.73"/>
<polygon fill="midnightblue" stroke="midnightblue" points="146.473,-53.22 156.875,-51.2083 147.489,-46.2941 146.473,-53.22"/>
</g>
<!-- Node5 -->
<g id="node5" class="node"><title>Node5</title>
<g id="a_node5"><a xlink:href="../../dc/d39/classANNkd__node.html#a4241fcc04521c2b43aaa0c9069ec01a6" target="_top" xlink:title="ANNkd_node::ann_pri\l_search">
<polygon fill="white" stroke="black" points="154.5,-0 154.5,-30 267.5,-30 267.5,-0 154.5,-0"/>
<text text-anchor="start" x="162.5" y="-18" font-family="Helvetica,sans-Serif" font-size="10.00">ANNkd_node::ann_pri</text>
<text text-anchor="middle" x="211" y="-7" font-family="Helvetica,sans-Serif" font-size="10.00">_search</text>
</a>
</g>
</g>
<!-- Node1&#45;&gt;Node5 -->
<g id="edge4" class="edge"><title>Node1&#45;&gt;Node5</title>
<path fill="none" stroke="midnightblue" d="M118.423,-28.4312C126.937,-27.1825 135.751,-25.8898 144.396,-24.6219"/>
<polygon fill="midnightblue" stroke="midnightblue" points="145.052,-28.0632 154.439,-23.149 144.037,-21.1373 145.052,-28.0632"/>
</g>
<!-- Node3 -->
<g id="node3" class="node"><title>Node3</title>
<g id="a_node3"><a xlink:href="../../d5/d32/ANNx_8h.html#a9c45d5ab29fad7c514d22008daf15534" target="_top" xlink:title="annError">
<polygon fill="white" stroke="black" points="304.5,-49.5 304.5,-68.5 357.5,-68.5 357.5,-49.5 304.5,-49.5"/>
<text text-anchor="middle" x="331" y="-56.5" font-family="Helvetica,sans-Serif" font-size="10.00">annError</text>
</a>
</g>
</g>
<!-- Node2&#45;&gt;Node3 -->
<g id="edge2" class="edge"><title>Node2&#45;&gt;Node3</title>
<path fill="none" stroke="midnightblue" d="M265.132,-59C274.893,-59 284.87,-59 293.98,-59"/>
<polygon fill="midnightblue" stroke="midnightblue" points="294.213,-62.5001 304.213,-59 294.213,-55.5001 294.213,-62.5001"/>
</g>
<!-- Node4 -->
<g id="node4" class="node"><title>Node4</title>
<g id="a_node4"><a xlink:href="../../d9/db8/glut_8h.html#a6f255d924f7a6bb2c4be0c8c2f2d9ce3" target="_top" xlink:title="exit">
<polygon fill="white" stroke="black" points="394,-49.5 394,-68.5 426,-68.5 426,-49.5 394,-49.5"/>
<text text-anchor="middle" x="410" y="-56.5" font-family="Helvetica,sans-Serif" font-size="10.00">exit</text>
</a>
</g>
</g>
<!-- Node3&#45;&gt;Node4 -->
<g id="edge3" class="edge"><title>Node3&#45;&gt;Node4</title>
<path fill="none" stroke="midnightblue" d="M357.64,-59C365.914,-59 375.083,-59 383.357,-59"/>
<polygon fill="midnightblue" stroke="midnightblue" points="383.568,-62.5001 393.568,-59 383.568,-55.5001 383.568,-62.5001"/>
</g>
</g>
</svg>
