<?xml version="1.0" encoding="UTF-8" standalone="no"?>
<!DOCTYPE svg PUBLIC "-//W3C//DTD SVG 1.1//EN"
 "http://www.w3.org/Graphics/SVG/1.1/DTD/svg11.dtd">
<!-- Generated by graphviz version 2.36.0 (20140111.2315)
 -->
<!-- Title: ANNbd_shrink::ann_FR_search Pages: 1 -->
<svg width="282pt" height="38pt"
 viewBox="0.00 0.00 282.00 38.00" xmlns="http://www.w3.org/2000/svg" xmlns:xlink="http://www.w3.org/1999/xlink">
<g id="graph0" class="graph" transform="scale(1 1) rotate(0) translate(4 34)">
<title>ANNbd_shrink::ann_FR_search</title>
<polygon fill="white" stroke="none" points="-4,4 -4,-34 278,-34 278,4 -4,4"/>
<!-- Node1 -->
<g id="node1" class="node"><title>Node1</title>
<polygon fill="#bfbfbf" stroke="black" points="0.5,-0 0.5,-30 121.5,-30 121.5,-0 0.5,-0"/>
<text text-anchor="start" x="8.5" y="-18" font-family="Helvetica,sans-Serif" font-size="10.00">ANNbd_shrink::ann_FR</text>
<text text-anchor="middle" x="61" y="-7" font-family="Helvetica,sans-Serif" font-size="10.00">_search</text>
</g>
<!-- Node2 -->
<g id="node2" class="node"><title>Node2</title>
<g id="a_node2"><a xlink:href="../../dc/d39/classANNkd__node.html#a11fe71e8339a86a149ab556586777f86" target="_top" xlink:title="ANNkd_node::ann_FR\l_search">
<polygon fill="white" stroke="black" points="158,-0 158,-30 274,-30 274,-0 158,-0"/>
<text text-anchor="start" x="166" y="-18" font-family="Helvetica,sans-Serif" font-size="10.00">ANNkd_node::ann_FR</text>
<text text-anchor="middle" x="216" y="-7" font-family="Helvetica,sans-Serif" font-size="10.00">_search</text>
</a>
</g>
</g>
<!-- Node1&#45;&gt;Node2 -->
<g id="edge1" class="edge"><title>Node1&#45;&gt;Node2</title>
<path fill="none" stroke="midnightblue" d="M121.592,-15C130.156,-15 139.017,-15 147.717,-15"/>
<polygon fill="midnightblue" stroke="midnightblue" points="147.828,-18.5001 157.828,-15 147.828,-11.5001 147.828,-18.5001"/>
</g>
</g>
</svg>
