<?xml version="1.0" encoding="UTF-8" standalone="no"?>
<!DOCTYPE svg PUBLIC "-//W3C//DTD SVG 1.1//EN"
 "http://www.w3.org/Graphics/SVG/1.1/DTD/svg11.dtd">
<!-- Generated by graphviz version 2.36.0 (20140111.2315)
 -->
<!-- Title: lsd_slam::ROSImageStreamThread::setCalibration Pages: 1 -->
<svg width="474pt" height="87pt"
 viewBox="0.00 0.00 474.00 87.00" xmlns="http://www.w3.org/2000/svg" xmlns:xlink="http://www.w3.org/1999/xlink">
<g id="graph0" class="graph" transform="scale(1 1) rotate(0) translate(4 83)">
<title>lsd_slam::ROSImageStreamThread::setCalibration</title>
<polygon fill="white" stroke="none" points="-4,4 -4,-83 470,-83 470,4 -4,4"/>
<!-- Node1 -->
<g id="node1" class="node"><title>Node1</title>
<polygon fill="#bfbfbf" stroke="black" points="0,-24 0,-54 142,-54 142,-24 0,-24"/>
<text text-anchor="start" x="8" y="-42" font-family="Helvetica,sans-Serif" font-size="10.00">lsd_slam::ROSImageStream</text>
<text text-anchor="middle" x="71" y="-31" font-family="Helvetica,sans-Serif" font-size="10.00">Thread::setCalibration</text>
</g>
<!-- Node2 -->
<g id="node2" class="node"><title>Node2</title>
<g id="a_node2"><a xlink:href="../../da/dd6/classlsd__slam_1_1ROSImageStreamThread.html#abfe05966e4a0e232e5433fc27bd78139" target="_top" xlink:title="lsd_slam::ROSImageStream\lThread::infoCb">
<polygon fill="white" stroke="black" points="178,-49 178,-79 320,-79 320,-49 178,-49"/>
<text text-anchor="start" x="186" y="-67" font-family="Helvetica,sans-Serif" font-size="10.00">lsd_slam::ROSImageStream</text>
<text text-anchor="middle" x="249" y="-56" font-family="Helvetica,sans-Serif" font-size="10.00">Thread::infoCb</text>
</a>
</g>
</g>
<!-- Node1&#45;&gt;Node2 -->
<g id="edge1" class="edge"><title>Node1&#45;&gt;Node2</title>
<path fill="none" stroke="midnightblue" d="M142.066,-48.9525C150.54,-50.1563 159.247,-51.393 167.852,-52.6154"/>
<polygon fill="midnightblue" stroke="midnightblue" points="167.495,-56.0997 177.888,-54.0409 168.48,-49.1693 167.495,-56.0997"/>
</g>
<!-- Node3 -->
<g id="node3" class="node"><title>Node3</title>
<g id="a_node3"><a xlink:href="../../d0/d50/classlsd__slam_1_1Undistorter.html#aabd511a3c50cb169dcef290d645b00c5" target="_top" xlink:title="lsd_slam::Undistorter\l::getUndistorterForFile">
<polygon fill="white" stroke="black" points="192,-0 192,-30 306,-30 306,-0 192,-0"/>
<text text-anchor="start" x="200" y="-18" font-family="Helvetica,sans-Serif" font-size="10.00">lsd_slam::Undistorter</text>
<text text-anchor="middle" x="249" y="-7" font-family="Helvetica,sans-Serif" font-size="10.00">::getUndistorterForFile</text>
</a>
</g>
</g>
<!-- Node1&#45;&gt;Node3 -->
<g id="edge2" class="edge"><title>Node1&#45;&gt;Node3</title>
<path fill="none" stroke="midnightblue" d="M142.066,-29.4456C155.151,-27.6612 168.79,-25.8014 181.756,-24.0333"/>
<polygon fill="midnightblue" stroke="midnightblue" points="182.551,-27.4573 191.987,-22.6382 181.605,-20.5215 182.551,-27.4573"/>
</g>
<!-- Node4 -->
<g id="node4" class="node"><title>Node4</title>
<g id="a_node4"><a xlink:href="../../d0/d50/classlsd__slam_1_1Undistorter.html#a449d951327590c333da0432e6bac7b14" target="_top" xlink:title="lsd_slam::Undistorter\l::isValid">
<polygon fill="white" stroke="black" points="356,-0 356,-30 466,-30 466,-0 356,-0"/>
<text text-anchor="start" x="364" y="-18" font-family="Helvetica,sans-Serif" font-size="10.00">lsd_slam::Undistorter</text>
<text text-anchor="middle" x="411" y="-7" font-family="Helvetica,sans-Serif" font-size="10.00">::isValid</text>
</a>
</g>
</g>
<!-- Node3&#45;&gt;Node4 -->
<g id="edge3" class="edge"><title>Node3&#45;&gt;Node4</title>
<path fill="none" stroke="midnightblue" d="M306.41,-15C319.118,-15 332.697,-15 345.701,-15"/>
<polygon fill="midnightblue" stroke="midnightblue" points="345.979,-18.5001 355.979,-15 345.979,-11.5001 345.979,-18.5001"/>
</g>
</g>
</svg>
