<?xml version="1.0" encoding="UTF-8" standalone="no"?>
<!DOCTYPE svg PUBLIC "-//W3C//DTD SVG 1.1//EN"
 "http://www.w3.org/Graphics/SVG/1.1/DTD/svg11.dtd">
<!-- Generated by graphviz version 2.36.0 (20140111.2315)
 -->
<!-- Title: GLTestWnd::glPaint Pages: 1 -->
<svg width="816pt" height="311pt"
 viewBox="0.00 0.00 816.00 311.00" xmlns="http://www.w3.org/2000/svg" xmlns:xlink="http://www.w3.org/1999/xlink">
<g id="graph0" class="graph" transform="scale(1 1) rotate(0) translate(4 307)">
<title>GLTestWnd::glPaint</title>
<polygon fill="white" stroke="none" points="-4,4 -4,-307 812,-307 812,4 -4,4"/>
<!-- Node1 -->
<g id="node1" class="node"><title>Node1</title>
<polygon fill="#bfbfbf" stroke="black" points="0.5,-188.5 0.5,-207.5 105.5,-207.5 105.5,-188.5 0.5,-188.5"/>
<text text-anchor="middle" x="53" y="-195.5" font-family="Helvetica,sans-Serif" font-size="10.00">GLTestWnd::glPaint</text>
</g>
<!-- Node2 -->
<g id="node2" class="node"><title>Node2</title>
<g id="a_node2"><a xlink:href="../../db/d82/wglew_8h.html#ac592fca28a23754f86edf2739d21068c" target="_top" xlink:title="HGLRC">
<polygon fill="white" stroke="black" points="175,-207.5 175,-226.5 227,-226.5 227,-207.5 175,-207.5"/>
<text text-anchor="middle" x="201" y="-214.5" font-family="Helvetica,sans-Serif" font-size="10.00">HGLRC</text>
</a>
</g>
</g>
<!-- Node1&#45;&gt;Node2 -->
<g id="edge1" class="edge"><title>Node1&#45;&gt;Node2</title>
<path fill="none" stroke="midnightblue" d="M105.885,-204.752C125.297,-207.278 146.889,-210.088 164.49,-212.379"/>
<polygon fill="midnightblue" stroke="midnightblue" points="164.51,-215.911 174.878,-213.731 165.414,-208.969 164.51,-215.911"/>
</g>
<!-- Node3 -->
<g id="node3" class="node"><title>Node3</title>
<g id="a_node3"><a xlink:href="../../d4/da2/classBasicTestWin.html#a43149aac5d50b52e60f2877dd2e0895e" target="_top" xlink:title="BasicTestWin::Display">
<polygon fill="white" stroke="black" points="142.5,-169.5 142.5,-188.5 259.5,-188.5 259.5,-169.5 142.5,-169.5"/>
<text text-anchor="middle" x="201" y="-176.5" font-family="Helvetica,sans-Serif" font-size="10.00">BasicTestWin::Display</text>
</a>
</g>
</g>
<!-- Node1&#45;&gt;Node3 -->
<g id="edge2" class="edge"><title>Node1&#45;&gt;Node3</title>
<path fill="none" stroke="midnightblue" d="M105.885,-191.248C114.461,-190.132 123.461,-188.961 132.355,-187.803"/>
<polygon fill="midnightblue" stroke="midnightblue" points="132.858,-191.267 142.323,-186.506 131.955,-184.326 132.858,-191.267"/>
</g>
<!-- Node4 -->
<g id="node4" class="node"><title>Node4</title>
<g id="a_node4"><a xlink:href="../../da/d33/glew_8h.html#af14e38e22806d0220680b52edbc3bcef" target="_top" xlink:title="glMatrixMode">
<polygon fill="white" stroke="black" points="322.5,-283.5 322.5,-302.5 397.5,-302.5 397.5,-283.5 322.5,-283.5"/>
<text text-anchor="middle" x="360" y="-290.5" font-family="Helvetica,sans-Serif" font-size="10.00">glMatrixMode</text>
</a>
</g>
</g>
<!-- Node3&#45;&gt;Node4 -->
<g id="edge3" class="edge"><title>Node3&#45;&gt;Node4</title>
<path fill="none" stroke="midnightblue" d="M245.034,-188.619C250.458,-191.072 255.628,-194.146 260,-198 288.038,-222.715 267.672,-249.618 296,-274 300.887,-278.206 306.681,-281.481 312.744,-284.031"/>
<polygon fill="midnightblue" stroke="midnightblue" points="311.809,-287.413 322.404,-287.471 314.157,-280.819 311.809,-287.413"/>
</g>
<!-- Node5 -->
<g id="node5" class="node"><title>Node5</title>
<g id="a_node5"><a xlink:href="../../da/d33/glew_8h.html#a6577472f85b23086331edadaf0311a49" target="_top" xlink:title="glLoadIdentity">
<polygon fill="white" stroke="black" points="321.5,-245.5 321.5,-264.5 398.5,-264.5 398.5,-245.5 321.5,-245.5"/>
<text text-anchor="middle" x="360" y="-252.5" font-family="Helvetica,sans-Serif" font-size="10.00">glLoadIdentity</text>
</a>
</g>
</g>
<!-- Node3&#45;&gt;Node5 -->
<g id="edge4" class="edge"><title>Node3&#45;&gt;Node5</title>
<path fill="none" stroke="midnightblue" d="M240.353,-188.566C247.171,-191.091 254.002,-194.202 260,-198 279.655,-210.446 276.199,-223.787 296,-236 300.801,-238.961 306.093,-241.487 311.509,-243.635"/>
<polygon fill="midnightblue" stroke="midnightblue" points="310.717,-247.067 321.312,-247.106 313.054,-240.469 310.717,-247.067"/>
</g>
<!-- Node6 -->
<g id="node6" class="node"><title>Node6</title>
<g id="a_node6"><a xlink:href="../../da/d33/glew_8h.html#affc6c383998f3d5c0a5e74a07788f6ed" target="_top" xlink:title="glClear">
<polygon fill="white" stroke="black" points="336.5,-207.5 336.5,-226.5 383.5,-226.5 383.5,-207.5 336.5,-207.5"/>
<text text-anchor="middle" x="360" y="-214.5" font-family="Helvetica,sans-Serif" font-size="10.00">glClear</text>
</a>
</g>
</g>
<!-- Node3&#45;&gt;Node6 -->
<g id="edge5" class="edge"><title>Node3&#45;&gt;Node6</title>
<path fill="none" stroke="midnightblue" d="M241.618,-188.589C267.848,-194.938 301.826,-203.162 326.471,-209.127"/>
<polygon fill="midnightblue" stroke="midnightblue" points="325.869,-212.582 336.412,-211.533 327.516,-205.778 325.869,-212.582"/>
</g>
<!-- Node7 -->
<g id="node7" class="node"><title>Node7</title>
<g id="a_node7"><a xlink:href="../../d5/d6b/classGlTransform.html#aed4a5e7f76e521376cc71b5f500d9133" target="_top" xlink:title="GlTransform::transform">
<polygon fill="white" stroke="black" points="301,-169.5 301,-188.5 419,-188.5 419,-169.5 301,-169.5"/>
<text text-anchor="middle" x="360" y="-176.5" font-family="Helvetica,sans-Serif" font-size="10.00">GlTransform::transform</text>
</a>
</g>
</g>
<!-- Node3&#45;&gt;Node7 -->
<g id="edge6" class="edge"><title>Node3&#45;&gt;Node7</title>
<path fill="none" stroke="midnightblue" d="M259.57,-179C269.678,-179 280.285,-179 290.652,-179"/>
<polygon fill="midnightblue" stroke="midnightblue" points="290.912,-182.5 300.912,-179 290.912,-175.5 290.912,-182.5"/>
</g>
<!-- Node10 -->
<g id="node10" class="node"><title>Node10</title>
<g id="a_node10"><a xlink:href="../../d9/d69/classSiftGPUEX.html#a0be1ac826e51ed457e6bcbf1a6492a5d" target="_top" xlink:title="SiftGPUEX::DisplaySIFT">
<polygon fill="white" stroke="black" points="296,-131.5 296,-150.5 424,-150.5 424,-131.5 296,-131.5"/>
<text text-anchor="middle" x="360" y="-138.5" font-family="Helvetica,sans-Serif" font-size="10.00">SiftGPUEX::DisplaySIFT</text>
</a>
</g>
</g>
<!-- Node3&#45;&gt;Node10 -->
<g id="edge9" class="edge"><title>Node3&#45;&gt;Node10</title>
<path fill="none" stroke="midnightblue" d="M241.618,-169.411C262.336,-164.396 287.888,-158.212 309.856,-152.895"/>
<polygon fill="midnightblue" stroke="midnightblue" points="310.771,-156.274 319.667,-150.52 309.124,-149.471 310.771,-156.274"/>
</g>
<!-- Node17 -->
<g id="node17" class="node"><title>Node17</title>
<g id="a_node17"><a xlink:href="../../da/d33/glew_8h.html#afb3e087fc26a916a909d46ead9cfc44a" target="_top" xlink:title="glFlush">
<polygon fill="white" stroke="black" points="336,-93.5 336,-112.5 384,-112.5 384,-93.5 336,-93.5"/>
<text text-anchor="middle" x="360" y="-100.5" font-family="Helvetica,sans-Serif" font-size="10.00">glFlush</text>
</a>
</g>
</g>
<!-- Node3&#45;&gt;Node17 -->
<g id="edge19" class="edge"><title>Node3&#45;&gt;Node17</title>
<path fill="none" stroke="midnightblue" d="M215.417,-169.361C233.14,-156.988 265.664,-135.511 296,-122 305.449,-117.791 316.096,-114.183 325.91,-111.277"/>
<polygon fill="midnightblue" stroke="midnightblue" points="327.074,-114.585 335.752,-108.507 325.177,-107.847 327.074,-114.585"/>
</g>
<!-- Node18 -->
<g id="node18" class="node"><title>Node18</title>
<g id="a_node18"><a xlink:href="../../da/d33/glew_8h.html#a32df7ba224618f3a64723debf23835dd" target="_top" xlink:title="glFinish">
<polygon fill="white" stroke="black" points="335,-55.5 335,-74.5 385,-74.5 385,-55.5 335,-55.5"/>
<text text-anchor="middle" x="360" y="-62.5" font-family="Helvetica,sans-Serif" font-size="10.00">glFinish</text>
</a>
</g>
</g>
<!-- Node3&#45;&gt;Node18 -->
<g id="edge20" class="edge"><title>Node3&#45;&gt;Node18</title>
<path fill="none" stroke="midnightblue" d="M208.865,-169.363C222.986,-150.239 257.235,-107.332 296,-84 304.79,-78.7095 315.166,-74.7926 324.933,-71.9367"/>
<polygon fill="midnightblue" stroke="midnightblue" points="326.024,-75.2686 334.799,-69.3316 324.237,-68.5006 326.024,-75.2686"/>
</g>
<!-- Node8 -->
<g id="node8" class="node"><title>Node8</title>
<g id="a_node8"><a xlink:href="../../da/d33/glew_8h.html#a82a0c709ea663480e6a2c5b53a46e5ce" target="_top" xlink:title="glTranslated">
<polygon fill="white" stroke="black" points="513,-251.5 513,-270.5 583,-270.5 583,-251.5 513,-251.5"/>
<text text-anchor="middle" x="548" y="-258.5" font-family="Helvetica,sans-Serif" font-size="10.00">glTranslated</text>
</a>
</g>
</g>
<!-- Node7&#45;&gt;Node8 -->
<g id="edge7" class="edge"><title>Node7&#45;&gt;Node8</title>
<path fill="none" stroke="midnightblue" d="M404.887,-188.539C411.595,-191.024 418.206,-194.129 424,-198 445.01,-212.036 438.46,-228.792 460,-242 472.727,-249.804 488.231,-254.423 502.606,-257.151"/>
<polygon fill="midnightblue" stroke="midnightblue" points="502.384,-260.661 512.818,-258.821 503.514,-253.753 502.384,-260.661"/>
</g>
<!-- Node9 -->
<g id="node9" class="node"><title>Node9</title>
<g id="a_node9"><a xlink:href="../../da/d33/glew_8h.html#a86cfb11b85f0628cb0a25ef861c375f4" target="_top" xlink:title="glScaled">
<polygon fill="white" stroke="black" points="521,-213.5 521,-232.5 575,-232.5 575,-213.5 521,-213.5"/>
<text text-anchor="middle" x="548" y="-220.5" font-family="Helvetica,sans-Serif" font-size="10.00">glScaled</text>
</a>
</g>
</g>
<!-- Node7&#45;&gt;Node9 -->
<g id="edge8" class="edge"><title>Node7&#45;&gt;Node9</title>
<path fill="none" stroke="midnightblue" d="M397.603,-188.543C416.246,-193.328 439.293,-199.126 460,-204 476.665,-207.923 495.193,-212.007 510.853,-215.379"/>
<polygon fill="midnightblue" stroke="midnightblue" points="510.17,-218.812 520.681,-217.484 511.635,-211.968 510.17,-218.812"/>
</g>
<!-- Node11 -->
<g id="node11" class="node"><title>Node11</title>
<g id="a_node11"><a xlink:href="../../da/d33/glew_8h.html#a1beaf822e5a901dc3fe429b68efb77d4" target="_top" xlink:title="glEnable">
<polygon fill="white" stroke="black" points="521,-175.5 521,-194.5 575,-194.5 575,-175.5 521,-175.5"/>
<text text-anchor="middle" x="548" y="-182.5" font-family="Helvetica,sans-Serif" font-size="10.00">glEnable</text>
</a>
</g>
</g>
<!-- Node10&#45;&gt;Node11 -->
<g id="edge10" class="edge"><title>Node10&#45;&gt;Node11</title>
<path fill="none" stroke="midnightblue" d="M400.001,-150.568C418.218,-155.008 440.206,-160.326 460,-165 476.704,-168.944 495.236,-173.219 510.889,-176.8"/>
<polygon fill="midnightblue" stroke="midnightblue" points="510.184,-180.229 520.712,-179.042 511.742,-173.404 510.184,-180.229"/>
</g>
<!-- Node12 -->
<g id="node12" class="node"><title>Node12</title>
<g id="a_node12"><a xlink:href="../../d4/d24/classShaderMan.html#a428735f5de87286fa4e43841e408f4f6" target="_top" xlink:title="ShaderMan::UseShaderDisplay\lGaussian">
<polygon fill="white" stroke="black" points="471,-126 471,-156 625,-156 625,-126 471,-126"/>
<text text-anchor="start" x="479" y="-144" font-family="Helvetica,sans-Serif" font-size="10.00">ShaderMan::UseShaderDisplay</text>
<text text-anchor="middle" x="548" y="-133" font-family="Helvetica,sans-Serif" font-size="10.00">Gaussian</text>
</a>
</g>
</g>
<!-- Node10&#45;&gt;Node12 -->
<g id="edge11" class="edge"><title>Node10&#45;&gt;Node12</title>
<path fill="none" stroke="midnightblue" d="M424.231,-141C435.914,-141 448.298,-141 460.531,-141"/>
<polygon fill="midnightblue" stroke="midnightblue" points="460.752,-144.5 470.752,-141 460.752,-137.5 460.752,-144.5"/>
</g>
<!-- Node14 -->
<g id="node14" class="node"><title>Node14</title>
<g id="a_node14"><a xlink:href="../../d4/d24/classShaderMan.html#a2cc6d5b512c756533041c0515286ba6a" target="_top" xlink:title="ShaderMan::UseShaderDisplayDOG">
<polygon fill="white" stroke="black" points="460,-87.5 460,-106.5 636,-106.5 636,-87.5 460,-87.5"/>
<text text-anchor="middle" x="548" y="-94.5" font-family="Helvetica,sans-Serif" font-size="10.00">ShaderMan::UseShaderDisplayDOG</text>
</a>
</g>
</g>
<!-- Node10&#45;&gt;Node14 -->
<g id="edge13" class="edge"><title>Node10&#45;&gt;Node14</title>
<path fill="none" stroke="midnightblue" d="M397.603,-131.457C416.246,-126.672 439.293,-120.874 460,-116 470.264,-113.584 481.234,-111.107 491.805,-108.772"/>
<polygon fill="midnightblue" stroke="midnightblue" points="492.764,-112.145 501.783,-106.585 491.265,-105.308 492.764,-112.145"/>
</g>
<!-- Node15 -->
<g id="node15" class="node"><title>Node15</title>
<g id="a_node15"><a xlink:href="../../d4/d24/classShaderMan.html#a01e1adc5ca10fc738a4e1d2008e41e08" target="_top" xlink:title="ShaderMan::UseShaderDisplayGrad">
<polygon fill="white" stroke="black" points="460.5,-49.5 460.5,-68.5 635.5,-68.5 635.5,-49.5 460.5,-49.5"/>
<text text-anchor="middle" x="548" y="-56.5" font-family="Helvetica,sans-Serif" font-size="10.00">ShaderMan::UseShaderDisplayGrad</text>
</a>
</g>
</g>
<!-- Node10&#45;&gt;Node15 -->
<g id="edge15" class="edge"><title>Node10&#45;&gt;Node15</title>
<path fill="none" stroke="midnightblue" d="M404.887,-131.461C411.595,-128.976 418.206,-125.871 424,-122 445.01,-107.964 438.46,-91.2076 460,-78 463.46,-75.8786 467.125,-73.9926 470.916,-72.3158"/>
<polygon fill="midnightblue" stroke="midnightblue" points="472.508,-75.4523 480.558,-68.5642 469.969,-68.9287 472.508,-75.4523"/>
</g>
<!-- Node16 -->
<g id="node16" class="node"><title>Node16</title>
<g id="a_node16"><a xlink:href="../../d4/d24/classShaderMan.html#ae7f2d71d83cfb139282bfe7fee6adf6d" target="_top" xlink:title="ShaderMan::UseShaderDisplay\lKeypoints">
<polygon fill="white" stroke="black" points="471,-0 471,-30 625,-30 625,-0 471,-0"/>
<text text-anchor="start" x="479" y="-18" font-family="Helvetica,sans-Serif" font-size="10.00">ShaderMan::UseShaderDisplay</text>
<text text-anchor="middle" x="548" y="-7" font-family="Helvetica,sans-Serif" font-size="10.00">Keypoints</text>
</a>
</g>
</g>
<!-- Node10&#45;&gt;Node16 -->
<g id="edge17" class="edge"><title>Node10&#45;&gt;Node16</title>
<path fill="none" stroke="midnightblue" d="M409.106,-131.394C414.515,-128.942 419.639,-125.864 424,-122 453.792,-95.6056 430.036,-66.1988 460,-40 461.778,-38.4451 463.648,-36.9866 465.591,-35.6186"/>
<polygon fill="midnightblue" stroke="midnightblue" points="467.81,-38.3661 474.537,-30.1813 464.174,-32.3844 467.81,-38.3661"/>
</g>
<!-- Node13 -->
<g id="node13" class="node"><title>Node13</title>
<g id="a_node13"><a xlink:href="../../d9/d26/classProgramGPU.html#acd625b26fa073fc83ec0be9badb29635" target="_top" xlink:title="ProgramGPU::UseProgram">
<polygon fill="white" stroke="black" points="672,-68.5 672,-87.5 808,-87.5 808,-68.5 672,-68.5"/>
<text text-anchor="middle" x="740" y="-75.5" font-family="Helvetica,sans-Serif" font-size="10.00">ProgramGPU::UseProgram</text>
</a>
</g>
</g>
<!-- Node12&#45;&gt;Node13 -->
<g id="edge12" class="edge"><title>Node12&#45;&gt;Node13</title>
<path fill="none" stroke="midnightblue" d="M603.951,-125.874C614.625,-122.749 625.695,-119.376 636,-116 659.242,-108.385 685.063,-98.8561 705.038,-91.2457"/>
<polygon fill="midnightblue" stroke="midnightblue" points="706.537,-94.4195 714.621,-87.5711 704.031,-87.8835 706.537,-94.4195"/>
</g>
<!-- Node14&#45;&gt;Node13 -->
<g id="edge14" class="edge"><title>Node14&#45;&gt;Node13</title>
<path fill="none" stroke="midnightblue" d="M636.215,-88.2785C644.745,-87.4255 653.36,-86.564 661.782,-85.7218"/>
<polygon fill="midnightblue" stroke="midnightblue" points="662.338,-89.1838 671.94,-84.706 661.641,-82.2185 662.338,-89.1838"/>
</g>
<!-- Node15&#45;&gt;Node13 -->
<g id="edge16" class="edge"><title>Node15&#45;&gt;Node13</title>
<path fill="none" stroke="midnightblue" d="M635.66,-67.666C644.383,-68.5383 653.2,-69.42 661.815,-70.2815"/>
<polygon fill="midnightblue" stroke="midnightblue" points="661.518,-73.7692 671.817,-71.2817 662.215,-66.8039 661.518,-73.7692"/>
</g>
<!-- Node16&#45;&gt;Node13 -->
<g id="edge18" class="edge"><title>Node16&#45;&gt;Node13</title>
<path fill="none" stroke="midnightblue" d="M603.951,-30.1258C614.625,-33.2512 625.695,-36.6237 636,-40 659.242,-47.6153 685.063,-57.1439 705.038,-64.7543"/>
<polygon fill="midnightblue" stroke="midnightblue" points="704.031,-68.1165 714.621,-68.4289 706.537,-61.5805 704.031,-68.1165"/>
</g>
</g>
</svg>
