<?xml version="1.0" encoding="UTF-8" standalone="no"?>
<!DOCTYPE svg PUBLIC "-//W3C//DTD SVG 1.1//EN"
 "http://www.w3.org/Graphics/SVG/1.1/DTD/svg11.dtd">
<!-- Generated by graphviz version 2.36.0 (20140111.2315)
 -->
<!-- Title: GLTestWnd::GLTestWnd Pages: 1 -->
<!--zoomable 115 -->
<svg id="main" version="1.1" xmlns="http://www.w3.org/2000/svg" xmlns:xlink="http://www.w3.org/1999/xlink" xml:space="preserve" onload="init(evt)">
<style type="text/css"><![CDATA[
.edge:hover path { stroke: red; }
.edge:hover polygon { stroke: red; fill: red; }
]]></style>
<script type="text/javascript"><![CDATA[
var edges = document.getElementsByTagName('g');
if (edges && edges.length) {
  for (var i=0;i<edges.length;i++) {
    if (edges[i].id.substr(0,4)=='edge') {
      edges[i].setAttribute('class','edge');
    }
  }
}
]]></script>
        <defs>
                <circle id="rim" cx="0" cy="0" r="7"/>
                <circle id="rim2" cx="0" cy="0" r="3.5"/>
                <g id="zoomPlus">
                        <use xlink:href="#rim" fill="#404040">
                                <set attributeName="fill" to="#808080" begin="zoomplus.mouseover" end="zoomplus.mouseout"/>
                        </use>
                        <path d="M-4,0h8M0,-4v8" fill="none" stroke="white" stroke-width="1.5" pointer-events="none"/>
                </g>
                <g id="zoomMin">
                        <use xlink:href="#rim" fill="#404040">
                                <set attributeName="fill" to="#808080" begin="zoomminus.mouseover" end="zoomminus.mouseout"/>
                        </use>
                        <path d="M-4,0h8" fill="none" stroke="white" stroke-width="1.5" pointer-events="none"/>
                </g>
                <g id="dirArrow">
                        <path fill="none" stroke="white" stroke-width="1.5" d="M0,-3.0v7 M-2.5,-0.5L0,-3.0L2.5,-0.5"/>
                </g>
               <g id="resetDef">
                       <use xlink:href="#rim2" fill="#404040">
                               <set attributeName="fill" to="#808080" begin="reset.mouseover" end="reset.mouseout"/>
                       </use>
               </g>
        </defs>

<script type="text/javascript">
var viewWidth = 938;
var viewHeight = 115;
var sectionId = 'dynsection-2';
</script>
<script xlink:href="../../svgpan.js"/>
<svg id="graph" class="graph">
<g id="viewport">
<title>GLTestWnd::GLTestWnd</title>
<polygon fill="white" stroke="none" points="-4,4 -4,-111 934,-111 934,4 -4,4"/>
<!-- Node1 -->
<g id="node1" class="node"><title>Node1</title>
<polygon fill="#bfbfbf" stroke="black" points="0,-49.5 0,-68.5 128,-68.5 128,-49.5 0,-49.5"/>
<text text-anchor="middle" x="64" y="-56.5" font-family="Helvetica,sans-Serif" font-size="10.00">GLTestWnd::GLTestWnd</text>
</g>
<!-- Node2 -->
<g id="node2" class="node"><title>Node2</title>
<g id="a_node2"><a xlink:href="../../d4/d08/classGLTestWnd.html#aa8c64853574841bf103b379442d25302" target="_top" xlink:title="GLTestWnd::ParseCommandLine">
<polygon fill="white" stroke="black" points="164,-49.5 164,-68.5 328,-68.5 328,-49.5 164,-49.5"/>
<text text-anchor="middle" x="246" y="-56.5" font-family="Helvetica,sans-Serif" font-size="10.00">GLTestWnd::ParseCommandLine</text>
</a>
</g>
</g>
<!-- Node1&#45;&gt;Node2 -->
<g id="edge1" class="edge"><title>Node1&#45;&gt;Node2</title>
<path fill="none" stroke="midnightblue" d="M128.208,-59C136.508,-59 145.143,-59 153.793,-59"/>
<polygon fill="midnightblue" stroke="midnightblue" points="153.934,-62.5001 163.934,-59 153.934,-55.5001 153.934,-62.5001"/>
</g>
<!-- Node3 -->
<g id="node3" class="node"><title>Node3</title>
<g id="a_node3"><a xlink:href="../../d4/da2/classBasicTestWin.html#a7de7c7d5c6d8b529411e1771b9d95d33" target="_top" xlink:title="BasicTestWin::ParseSiftParam">
<polygon fill="white" stroke="black" points="364.5,-49.5 364.5,-68.5 517.5,-68.5 517.5,-49.5 364.5,-49.5"/>
<text text-anchor="middle" x="441" y="-56.5" font-family="Helvetica,sans-Serif" font-size="10.00">BasicTestWin::ParseSiftParam</text>
</a>
</g>
</g>
<!-- Node2&#45;&gt;Node3 -->
<g id="edge2" class="edge"><title>Node2&#45;&gt;Node3</title>
<path fill="none" stroke="midnightblue" d="M328.01,-59C336.685,-59 345.532,-59 354.259,-59"/>
<polygon fill="midnightblue" stroke="midnightblue" points="354.433,-62.5001 364.433,-59 354.432,-55.5001 354.433,-62.5001"/>
</g>
<!-- Node4 -->
<g id="node4" class="node"><title>Node4</title>
<g id="a_node4"><a xlink:href="../../d4/dee/classSiftGPU.html#ab50cd0cc4d3f46ede220221f6ca46498" target="_top" xlink:title="SiftGPU::ParseParam">
<polygon fill="white" stroke="black" points="566.5,-87.5 566.5,-106.5 679.5,-106.5 679.5,-87.5 566.5,-87.5"/>
<text text-anchor="middle" x="623" y="-94.5" font-family="Helvetica,sans-Serif" font-size="10.00">SiftGPU::ParseParam</text>
</a>
</g>
</g>
<!-- Node3&#45;&gt;Node4 -->
<g id="edge3" class="edge"><title>Node3&#45;&gt;Node4</title>
<path fill="none" stroke="midnightblue" d="M487.422,-68.589C511.603,-73.6939 541.527,-80.0113 567.014,-85.3918"/>
<polygon fill="midnightblue" stroke="midnightblue" points="566.398,-88.8388 576.905,-87.4799 567.844,-81.9898 566.398,-88.8388"/>
</g>
<!-- Node7 -->
<g id="node7" class="node"><title>Node7</title>
<g id="a_node7"><a xlink:href="../../d4/dee/classSiftGPU.html#a633d50e0393037aa8e9ba6af1d2f2431" target="_top" xlink:title="SiftGPU::SetVerbose">
<polygon fill="white" stroke="black" points="568,-49.5 568,-68.5 678,-68.5 678,-49.5 568,-49.5"/>
<text text-anchor="middle" x="623" y="-56.5" font-family="Helvetica,sans-Serif" font-size="10.00">SiftGPU::SetVerbose</text>
</a>
</g>
</g>
<!-- Node3&#45;&gt;Node7 -->
<g id="edge6" class="edge"><title>Node3&#45;&gt;Node7</title>
<path fill="none" stroke="midnightblue" d="M517.554,-59C530.915,-59 544.712,-59 557.726,-59"/>
<polygon fill="midnightblue" stroke="midnightblue" points="557.971,-62.5001 567.971,-59 557.971,-55.5001 557.971,-62.5001"/>
</g>
<!-- Node8 -->
<g id="node8" class="node"><title>Node8</title>
<g id="a_node8"><a xlink:href="../../d9/d69/classSiftGPUEX.html#a04fd6be988ee634f97b40a9793054f73" target="_top" xlink:title="SiftGPUEX::GetInitWindow\lPotition">
<polygon fill="white" stroke="black" points="554.5,-0 554.5,-30 691.5,-30 691.5,-0 554.5,-0"/>
<text text-anchor="start" x="562.5" y="-18" font-family="Helvetica,sans-Serif" font-size="10.00">SiftGPUEX::GetInitWindow</text>
<text text-anchor="middle" x="623" y="-7" font-family="Helvetica,sans-Serif" font-size="10.00">Potition</text>
</a>
</g>
</g>
<!-- Node3&#45;&gt;Node8 -->
<g id="edge7" class="edge"><title>Node3&#45;&gt;Node8</title>
<path fill="none" stroke="midnightblue" d="M481.057,-49.4527C501.323,-44.4988 526.728,-38.2888 550.366,-32.5105"/>
<polygon fill="midnightblue" stroke="midnightblue" points="551.486,-35.8399 560.369,-30.0654 549.824,-29.0401 551.486,-35.8399"/>
</g>
<!-- Node5 -->
<g id="node5" class="node"><title>Node5</title>
<g id="a_node5"><a xlink:href="../../d2/d55/classGlobalUtil.html#a22689de5e558d891c11c8fec2e5c2931" target="_top" xlink:title="GlobalUtil::SelectDisplay">
<polygon fill="white" stroke="black" points="728,-87.5 728,-106.5 854,-106.5 854,-87.5 728,-87.5"/>
<text text-anchor="middle" x="791" y="-94.5" font-family="Helvetica,sans-Serif" font-size="10.00">GlobalUtil::SelectDisplay</text>
</a>
</g>
</g>
<!-- Node4&#45;&gt;Node5 -->
<g id="edge4" class="edge"><title>Node4&#45;&gt;Node5</title>
<path fill="none" stroke="midnightblue" d="M679.737,-97C691.926,-97 704.997,-97 717.726,-97"/>
<polygon fill="midnightblue" stroke="midnightblue" points="717.837,-100.5 727.837,-97 717.837,-93.5001 717.837,-100.5"/>
</g>
<!-- Node6 -->
<g id="node6" class="node"><title>Node6</title>
<g id="a_node6"><a xlink:href="../../db/d82/wglew_8h.html#a7b84f5391331438359747d138a86ffe3" target="_top" xlink:title="HDC">
<polygon fill="white" stroke="black" points="890.5,-87.5 890.5,-106.5 929.5,-106.5 929.5,-87.5 890.5,-87.5"/>
<text text-anchor="middle" x="910" y="-94.5" font-family="Helvetica,sans-Serif" font-size="10.00">HDC</text>
</a>
</g>
</g>
<!-- Node5&#45;&gt;Node6 -->
<g id="edge5" class="edge"><title>Node5&#45;&gt;Node6</title>
<path fill="none" stroke="midnightblue" d="M854.268,-97C863.273,-97 872.158,-97 880.065,-97"/>
<polygon fill="midnightblue" stroke="midnightblue" points="880.161,-100.5 890.161,-97 880.161,-93.5001 880.161,-100.5"/>
</g>
</g>
</svg>
        <g id="navigator" transform="translate(0 0)" fill="#404254">
                <rect fill="#f2f5e9" fill-opacity="0.5" stroke="#606060" stroke-width=".5" x="0" y="0" width="60" height="60"/>
                <use id="zoomplus" xlink:href="#zoomPlus" x="17" y="9" onmousedown="handleZoom(evt,'in')"/>
                <use id="zoomminus" xlink:href="#zoomMin" x="42" y="9" onmousedown="handleZoom(evt,'out')"/>
                <use id="reset" xlink:href="#resetDef" x="30" y="36" onmousedown="handleReset()"/>
                <g id="arrowUp" xlink:href="#dirArrow" transform="translate(30 24)" onmousedown="handlePan(0,-1)">
                  <use xlink:href="#rim" fill="#404040">
                        <set attributeName="fill" to="#808080" begin="arrowUp.mouseover" end="arrowUp.mouseout"/>
                  </use>
                  <path fill="none" stroke="white" stroke-width="1.5" d="M0,-3.0v7 M-2.5,-0.5L0,-3.0L2.5,-0.5"/>
                </g>
                <g id="arrowRight" xlink:href="#dirArrow" transform="rotate(90) translate(36 -43)" onmousedown="handlePan(1,0)">
                  <use xlink:href="#rim" fill="#404040">
                        <set attributeName="fill" to="#808080" begin="arrowRight.mouseover" end="arrowRight.mouseout"/>
                  </use>
                  <path fill="none" stroke="white" stroke-width="1.5" d="M0,-3.0v7 M-2.5,-0.5L0,-3.0L2.5,-0.5"/>
                </g>
                <g id="arrowDown" xlink:href="#dirArrow" transform="rotate(180) translate(-30 -48)" onmousedown="handlePan(0,1)">
                  <use xlink:href="#rim" fill="#404040">
                        <set attributeName="fill" to="#808080" begin="arrowDown.mouseover" end="arrowDown.mouseout"/>
                  </use>
                  <path fill="none" stroke="white" stroke-width="1.5" d="M0,-3.0v7 M-2.5,-0.5L0,-3.0L2.5,-0.5"/>
                </g>
                <g id="arrowLeft" xlink:href="#dirArrow" transform="rotate(270) translate(-36 17)" onmousedown="handlePan(-1,0)">
                  <use xlink:href="#rim" fill="#404040">
                        <set attributeName="fill" to="#808080" begin="arrowLeft.mouseover" end="arrowLeft.mouseout"/>
                  </use>
                  <path fill="none" stroke="white" stroke-width="1.5" d="M0,-3.0v7 M-2.5,-0.5L0,-3.0L2.5,-0.5"/>
                </g>
        </g>
        <svg viewBox="0 0 15 15" width="100%" height="30px" preserveAspectRatio="xMaxYMin meet">
         <g id="arrow_out" transform="scale(0.3 0.3)">
          <a xlink:href="classGLTestWnd_a04af1ac48721a6bfd01aa98ff380ac62_cgraph_org.svg" target="_base">
           <rect id="button" ry="5" rx="5" y="6" x="6" height="38" width="38"
                fill="#f2f5e9" fill-opacity="0.5" stroke="#606060" stroke-width="1.0"/>
           <path id="arrow"
             d="M 11.500037,31.436501 C 11.940474,20.09759 22.043105,11.32322 32.158766,21.979434 L 37.068811,17.246167 C 37.068811,17.246167 37.088388,32 37.088388,32 L 22.160133,31.978069 C 22.160133,31.978069 26.997745,27.140456 26.997745,27.140456 C 18.528582,18.264221 13.291696,25.230495 11.500037,31.436501 z"
             style="fill:#404040;"/>
          </a>
         </g>
        </svg>
</svg>
