<?xml version="1.0" encoding="UTF-8" standalone="no"?>
<!DOCTYPE svg PUBLIC "-//W3C//DTD SVG 1.1//EN"
 "http://www.w3.org/Graphics/SVG/1.1/DTD/svg11.dtd">
<!-- Generated by graphviz version 2.36.0 (20140111.2315)
 -->
<!-- Title: GLTestWnd::glCreateRC Pages: 1 -->
<svg width="792pt" height="203pt"
 viewBox="0.00 0.00 792.00 203.00" xmlns="http://www.w3.org/2000/svg" xmlns:xlink="http://www.w3.org/1999/xlink">
<g id="graph0" class="graph" transform="scale(1 1) rotate(0) translate(4 199)">
<title>GLTestWnd::glCreateRC</title>
<polygon fill="white" stroke="none" points="-4,4 -4,-199 788,-199 788,4 -4,4"/>
<!-- Node1 -->
<g id="node1" class="node"><title>Node1</title>
<polygon fill="#bfbfbf" stroke="black" points="0.5,-152.5 0.5,-171.5 127.5,-171.5 127.5,-152.5 0.5,-152.5"/>
<text text-anchor="middle" x="64" y="-159.5" font-family="Helvetica,sans-Serif" font-size="10.00">GLTestWnd::glCreateRC</text>
</g>
<!-- Node2 -->
<g id="node2" class="node"><title>Node2</title>
<g id="a_node2"><a xlink:href="../../da/d33/glew_8h.html#af14e38e22806d0220680b52edbc3bcef" target="_top" xlink:title="glMatrixMode">
<polygon fill="white" stroke="black" points="707.5,-175.5 707.5,-194.5 782.5,-194.5 782.5,-175.5 707.5,-175.5"/>
<text text-anchor="middle" x="745" y="-182.5" font-family="Helvetica,sans-Serif" font-size="10.00">glMatrixMode</text>
</a>
</g>
</g>
<!-- Node1&#45;&gt;Node2 -->
<g id="edge1" class="edge"><title>Node1&#45;&gt;Node2</title>
<path fill="none" stroke="midnightblue" d="M123.498,-171.506C136.779,-173.321 150.848,-174.972 164,-176 361.616,-191.445 598.218,-188.46 697.037,-186.255"/>
<polygon fill="midnightblue" stroke="midnightblue" points="697.366,-189.749 707.282,-186.018 697.204,-182.751 697.366,-189.749"/>
</g>
<!-- Node3 -->
<g id="node3" class="node"><title>Node3</title>
<g id="a_node3"><a xlink:href="../../da/d33/glew_8h.html#a6577472f85b23086331edadaf0311a49" target="_top" xlink:title="glLoadIdentity">
<polygon fill="white" stroke="black" points="706.5,-123.5 706.5,-142.5 783.5,-142.5 783.5,-123.5 706.5,-123.5"/>
<text text-anchor="middle" x="745" y="-130.5" font-family="Helvetica,sans-Serif" font-size="10.00">glLoadIdentity</text>
</a>
</g>
</g>
<!-- Node1&#45;&gt;Node3 -->
<g id="edge2" class="edge"><title>Node1&#45;&gt;Node3</title>
<path fill="none" stroke="midnightblue" d="M127.83,-162.153C237.88,-161.947 472.592,-159.394 670,-143 678.543,-142.291 687.61,-141.28 696.36,-140.172"/>
<polygon fill="midnightblue" stroke="midnightblue" points="696.982,-143.62 706.436,-138.838 696.063,-136.681 696.982,-143.62"/>
</g>
<!-- Node4 -->
<g id="node4" class="node"><title>Node4</title>
<g id="a_node4"><a xlink:href="../../d4/da2/classBasicTestWin.html#a5a331e663e607858ca9b08b31eb44b09" target="_top" xlink:title="BasicTestWin::RunSiftGPU">
<polygon fill="white" stroke="black" points="164.5,-76.5 164.5,-95.5 303.5,-95.5 303.5,-76.5 164.5,-76.5"/>
<text text-anchor="middle" x="234" y="-83.5" font-family="Helvetica,sans-Serif" font-size="10.00">BasicTestWin::RunSiftGPU</text>
</a>
</g>
</g>
<!-- Node1&#45;&gt;Node4 -->
<g id="edge3" class="edge"><title>Node1&#45;&gt;Node4</title>
<path fill="none" stroke="midnightblue" d="M86.2773,-152.375C115.69,-139.069 168.938,-114.98 202.556,-99.7724"/>
<polygon fill="midnightblue" stroke="midnightblue" points="204.227,-102.858 211.895,-95.5473 201.342,-96.4802 204.227,-102.858"/>
</g>
<!-- Node5 -->
<g id="node5" class="node"><title>Node5</title>
<g id="a_node5"><a xlink:href="../../d4/dee/classSiftGPU.html#a7ecfea9c8fe68cbe0667a5754322222a" target="_top" xlink:title="SiftGPU::RunSIFT">
<polygon fill="white" stroke="black" points="356.5,-0.5 356.5,-19.5 455.5,-19.5 455.5,-0.5 356.5,-0.5"/>
<text text-anchor="middle" x="406" y="-7.5" font-family="Helvetica,sans-Serif" font-size="10.00">SiftGPU::RunSIFT</text>
</a>
</g>
</g>
<!-- Node4&#45;&gt;Node5 -->
<g id="edge4" class="edge"><title>Node4&#45;&gt;Node5</title>
<path fill="none" stroke="midnightblue" d="M250.147,-76.4342C270.116,-64.1413 306.631,-42.7502 340,-29 345.571,-26.7044 351.517,-24.5664 357.463,-22.615"/>
<polygon fill="midnightblue" stroke="midnightblue" points="358.903,-25.8322 367.407,-19.5121 356.818,-19.15 358.903,-25.8322"/>
</g>
<!-- Node6 -->
<g id="node6" class="node"><title>Node6</title>
<g id="a_node6"><a xlink:href="../../d4/dee/classSiftGPU.html#a633d50e0393037aa8e9ba6af1d2f2431" target="_top" xlink:title="SiftGPU::SetVerbose">
<polygon fill="white" stroke="black" points="351,-114.5 351,-133.5 461,-133.5 461,-114.5 351,-114.5"/>
<text text-anchor="middle" x="406" y="-121.5" font-family="Helvetica,sans-Serif" font-size="10.00">SiftGPU::SetVerbose</text>
</a>
</g>
</g>
<!-- Node4&#45;&gt;Node6 -->
<g id="edge5" class="edge"><title>Node4&#45;&gt;Node6</title>
<path fill="none" stroke="midnightblue" d="M277.898,-95.589C300.534,-100.649 328.498,-106.9 352.429,-112.249"/>
<polygon fill="midnightblue" stroke="midnightblue" points="351.888,-115.714 362.41,-114.48 353.415,-108.883 351.888,-115.714"/>
</g>
<!-- Node7 -->
<g id="node7" class="node"><title>Node7</title>
<g id="a_node7"><a xlink:href="../../d4/da2/classBasicTestWin.html#a30f22c3da432412539e40e7fa102ea6c" target="_top" xlink:title="BasicTestWin::FitWindow">
<polygon fill="white" stroke="black" points="340.5,-38.5 340.5,-57.5 471.5,-57.5 471.5,-38.5 340.5,-38.5"/>
<text text-anchor="middle" x="406" y="-45.5" font-family="Helvetica,sans-Serif" font-size="10.00">BasicTestWin::FitWindow</text>
</a>
</g>
</g>
<!-- Node4&#45;&gt;Node7 -->
<g id="edge6" class="edge"><title>Node4&#45;&gt;Node7</title>
<path fill="none" stroke="midnightblue" d="M277.898,-76.411C300.534,-71.3513 328.498,-65.1004 352.429,-59.7512"/>
<polygon fill="midnightblue" stroke="midnightblue" points="353.415,-63.1173 362.41,-57.5201 351.888,-56.2859 353.415,-63.1173"/>
</g>
<!-- Node14 -->
<g id="node14" class="node"><title>Node14</title>
<g id="a_node14"><a xlink:href="../../d9/db8/glut_8h.html#a6f255d924f7a6bb2c4be0c8c2f2d9ce3" target="_top" xlink:title="exit">
<polygon fill="white" stroke="black" points="390,-76.5 390,-95.5 422,-95.5 422,-76.5 390,-76.5"/>
<text text-anchor="middle" x="406" y="-83.5" font-family="Helvetica,sans-Serif" font-size="10.00">exit</text>
</a>
</g>
</g>
<!-- Node4&#45;&gt;Node14 -->
<g id="edge15" class="edge"><title>Node4&#45;&gt;Node14</title>
<path fill="none" stroke="midnightblue" d="M303.655,-86C330.402,-86 359.393,-86 379.488,-86"/>
<polygon fill="midnightblue" stroke="midnightblue" points="379.666,-89.5001 389.666,-86 379.665,-82.5001 379.666,-89.5001"/>
</g>
<!-- Node8 -->
<g id="node8" class="node"><title>Node8</title>
<g id="a_node8"><a xlink:href="../../d9/d69/classSiftGPUEX.html#a5c48d2651d3281ac15eda13ecc01dca1" target="_top" xlink:title="SiftGPUEX::GetImageDimension">
<polygon fill="white" stroke="black" points="508,-0.5 508,-19.5 670,-19.5 670,-0.5 508,-0.5"/>
<text text-anchor="middle" x="589" y="-7.5" font-family="Helvetica,sans-Serif" font-size="10.00">SiftGPUEX::GetImageDimension</text>
</a>
</g>
</g>
<!-- Node7&#45;&gt;Node8 -->
<g id="edge7" class="edge"><title>Node7&#45;&gt;Node8</title>
<path fill="none" stroke="midnightblue" d="M452.674,-38.411C476.989,-33.3061 507.08,-26.9887 532.708,-21.6082"/>
<polygon fill="midnightblue" stroke="midnightblue" points="533.587,-25.0001 542.654,-19.5201 532.149,-18.1495 533.587,-25.0001"/>
</g>
<!-- Node9 -->
<g id="node9" class="node"><title>Node9</title>
<g id="a_node9"><a xlink:href="../../d4/da2/classBasicTestWin.html#a36612db2570958711599a96e823e9c1a" target="_top" xlink:title="BasicTestWin::ReShape">
<polygon fill="white" stroke="black" points="526.5,-38.5 526.5,-57.5 651.5,-57.5 651.5,-38.5 526.5,-38.5"/>
<text text-anchor="middle" x="589" y="-45.5" font-family="Helvetica,sans-Serif" font-size="10.00">BasicTestWin::ReShape</text>
</a>
</g>
</g>
<!-- Node7&#45;&gt;Node9 -->
<g id="edge8" class="edge"><title>Node7&#45;&gt;Node9</title>
<path fill="none" stroke="midnightblue" d="M471.579,-48C486.097,-48 501.587,-48 516.373,-48"/>
<polygon fill="midnightblue" stroke="midnightblue" points="516.477,-51.5001 526.477,-48 516.477,-44.5001 516.477,-51.5001"/>
</g>
<!-- Node12 -->
<g id="node12" class="node"><title>Node12</title>
<g id="a_node12"><a xlink:href="../../d5/d6b/classGlTransform.html#ad24fb5f6bbaad96442bc528e6b62a641" target="_top" xlink:title="GlTransform::setcenter">
<polygon fill="white" stroke="black" points="530.5,-114.5 530.5,-133.5 647.5,-133.5 647.5,-114.5 530.5,-114.5"/>
<text text-anchor="middle" x="589" y="-121.5" font-family="Helvetica,sans-Serif" font-size="10.00">GlTransform::setcenter</text>
</a>
</g>
</g>
<!-- Node7&#45;&gt;Node12 -->
<g id="edge13" class="edge"><title>Node7&#45;&gt;Node12</title>
<path fill="none" stroke="midnightblue" d="M451.35,-57.5302C458.533,-60.0271 465.679,-63.1386 472,-67 491.853,-79.1283 487.843,-93.3839 508,-105 512.112,-107.37 516.506,-109.445 521.039,-111.261"/>
<polygon fill="midnightblue" stroke="midnightblue" points="519.897,-114.57 530.492,-114.638 522.252,-107.978 519.897,-114.57"/>
</g>
<!-- Node13 -->
<g id="node13" class="node"><title>Node13</title>
<g id="a_node13"><a xlink:href="../../d4/da2/classBasicTestWin.html#a0747929e4e7c4e91b3fafa6a271eaccd" target="_top" xlink:title="BasicTestWin::SetDisplaySize">
<polygon fill="white" stroke="black" points="513,-76.5 513,-95.5 665,-95.5 665,-76.5 513,-76.5"/>
<text text-anchor="middle" x="589" y="-83.5" font-family="Helvetica,sans-Serif" font-size="10.00">BasicTestWin::SetDisplaySize</text>
</a>
</g>
</g>
<!-- Node7&#45;&gt;Node13 -->
<g id="edge14" class="edge"><title>Node7&#45;&gt;Node13</title>
<path fill="none" stroke="midnightblue" d="M452.674,-57.589C476.989,-62.6939 507.08,-69.0113 532.708,-74.3918"/>
<polygon fill="midnightblue" stroke="midnightblue" points="532.149,-77.8505 542.654,-76.4799 533.587,-70.9999 532.149,-77.8505"/>
</g>
<!-- Node9&#45;&gt;Node2 -->
<g id="edge10" class="edge"><title>Node9&#45;&gt;Node2</title>
<path fill="none" stroke="midnightblue" d="M651.85,-56.3218C658.429,-59.002 664.658,-62.4848 670,-67 701.334,-93.4824 681.89,-118.805 706,-152 710.416,-158.08 716.153,-163.799 721.826,-168.714"/>
<polygon fill="midnightblue" stroke="midnightblue" points="719.958,-171.705 729.929,-175.287 724.368,-166.269 719.958,-171.705"/>
</g>
<!-- Node9&#45;&gt;Node3 -->
<g id="edge11" class="edge"><title>Node9&#45;&gt;Node3</title>
<path fill="none" stroke="midnightblue" d="M645.944,-57.5182C654.257,-59.9963 662.532,-63.1051 670,-67 693.439,-79.2248 715.385,-100.532 729.195,-115.626"/>
<polygon fill="midnightblue" stroke="midnightblue" points="726.731,-118.123 735.988,-123.276 731.965,-113.475 726.731,-118.123"/>
</g>
<!-- Node10 -->
<g id="node10" class="node"><title>Node10</title>
<g id="a_node10"><a xlink:href="../../da/d33/glew_8h.html#a8e93835e91933b7078c88f905dd8599c" target="_top" xlink:title="glViewport">
<polygon fill="white" stroke="black" points="714,-57.5 714,-76.5 776,-76.5 776,-57.5 714,-57.5"/>
<text text-anchor="middle" x="745" y="-64.5" font-family="Helvetica,sans-Serif" font-size="10.00">glViewport</text>
</a>
</g>
</g>
<!-- Node9&#45;&gt;Node10 -->
<g id="edge9" class="edge"><title>Node9&#45;&gt;Node10</title>
<path fill="none" stroke="midnightblue" d="M651.75,-55.6185C669.323,-57.7866 688,-60.0909 703.918,-62.0549"/>
<polygon fill="midnightblue" stroke="midnightblue" points="703.588,-65.5406 713.942,-63.2915 704.446,-58.5933 703.588,-65.5406"/>
</g>
<!-- Node11 -->
<g id="node11" class="node"><title>Node11</title>
<g id="a_node11"><a xlink:href="../../da/d33/glew_8h.html#a2d92120b1fad876057dfd00e2d942525" target="_top" xlink:title="glOrtho">
<polygon fill="white" stroke="black" points="721,-19.5 721,-38.5 769,-38.5 769,-19.5 721,-19.5"/>
<text text-anchor="middle" x="745" y="-26.5" font-family="Helvetica,sans-Serif" font-size="10.00">glOrtho</text>
</a>
</g>
</g>
<!-- Node9&#45;&gt;Node11 -->
<g id="edge12" class="edge"><title>Node9&#45;&gt;Node11</title>
<path fill="none" stroke="midnightblue" d="M651.75,-40.3815C671.847,-37.9021 693.386,-35.2445 710.594,-33.1215"/>
<polygon fill="midnightblue" stroke="midnightblue" points="711.201,-36.5733 720.697,-31.875 710.344,-29.626 711.201,-36.5733"/>
</g>
</g>
</svg>
