<?xml version="1.0" encoding="UTF-8" standalone="no"?>
<!DOCTYPE svg PUBLIC "-//W3C//DTD SVG 1.1//EN"
 "http://www.w3.org/Graphics/SVG/1.1/DTD/svg11.dtd">
<!-- Generated by graphviz version 2.36.0 (20140111.2315)
 -->
<!-- Title: mat2components Pages: 1 -->
<svg width="196pt" height="66pt"
 viewBox="0.00 0.00 196.00 66.00" xmlns="http://www.w3.org/2000/svg" xmlns:xlink="http://www.w3.org/1999/xlink">
<g id="graph0" class="graph" transform="scale(1 1) rotate(0) translate(4 62)">
<title>mat2components</title>
<polygon fill="white" stroke="none" points="-4,4 -4,-62 192,-62 192,4 -4,4"/>
<!-- Node1 -->
<g id="node1" class="node"><title>Node1</title>
<polygon fill="#bfbfbf" stroke="black" points="0,-19.5 0,-38.5 92,-38.5 92,-19.5 0,-19.5"/>
<text text-anchor="middle" x="46" y="-26.5" font-family="Helvetica,sans-Serif" font-size="10.00">mat2components</text>
</g>
<!-- Node2 -->
<g id="node2" class="node"><title>Node2</title>
<g id="a_node2"><a xlink:href="../../d7/d5f/misc_8cpp.html#aebdb181a2e071a86c22807dec443c50d" target="_top" xlink:title="Get euler angles from affine matrix (helper for isBigTrafo) ">
<polygon fill="white" stroke="black" points="128.5,-38.5 128.5,-57.5 187.5,-57.5 187.5,-38.5 128.5,-38.5"/>
<text text-anchor="middle" x="158" y="-45.5" font-family="Helvetica,sans-Serif" font-size="10.00">mat2RPY</text>
</a>
</g>
</g>
<!-- Node1&#45;&gt;Node2 -->
<g id="edge1" class="edge"><title>Node1&#45;&gt;Node2</title>
<path fill="none" stroke="midnightblue" d="M92.0586,-36.7828C100.748,-38.2837 109.78,-39.8438 118.247,-41.3063"/>
<polygon fill="midnightblue" stroke="midnightblue" points="117.785,-44.7782 128.235,-43.0314 118.976,-37.8804 117.785,-44.7782"/>
</g>
<!-- Node3 -->
<g id="node3" class="node"><title>Node3</title>
<g id="a_node3"><a xlink:href="../../d7/d5f/misc_8cpp.html#ad615285cf606d4d5c0fc01bd2143520e" target="_top" xlink:title="get translation&#45;distance from 4x4 homogenous ">
<polygon fill="white" stroke="black" points="131,-0.5 131,-19.5 185,-19.5 185,-0.5 131,-0.5"/>
<text text-anchor="middle" x="158" y="-7.5" font-family="Helvetica,sans-Serif" font-size="10.00">mat2dist</text>
</a>
</g>
</g>
<!-- Node1&#45;&gt;Node3 -->
<g id="edge2" class="edge"><title>Node1&#45;&gt;Node3</title>
<path fill="none" stroke="midnightblue" d="M92.0586,-21.2172C101.629,-19.5641 111.614,-17.8394 120.803,-16.2521"/>
<polygon fill="midnightblue" stroke="midnightblue" points="121.517,-19.6807 130.776,-14.5297 120.326,-12.7829 121.517,-19.6807"/>
</g>
</g>
</svg>
