<?xml version="1.0" encoding="UTF-8" standalone="no"?>
<!DOCTYPE svg PUBLIC "-//W3C//DTD SVG 1.1//EN"
 "http://www.w3.org/Graphics/SVG/1.1/DTD/svg11.dtd">
<!-- Generated by graphviz version 2.36.0 (20140111.2315)
 -->
<!-- Title: observation_criterion_met Pages: 1 -->
<svg width="306pt" height="66pt"
 viewBox="0.00 0.00 306.00 66.00" xmlns="http://www.w3.org/2000/svg" xmlns:xlink="http://www.w3.org/1999/xlink">
<g id="graph0" class="graph" transform="scale(1 1) rotate(0) translate(4 62)">
<title>observation_criterion_met</title>
<polygon fill="white" stroke="none" points="-4,4 -4,-62 302,-62 302,4 -4,4"/>
<!-- Node1 -->
<g id="node1" class="node"><title>Node1</title>
<polygon fill="#bfbfbf" stroke="black" points="0,-19.5 0,-38.5 128,-38.5 128,-19.5 0,-19.5"/>
<text text-anchor="middle" x="64" y="-26.5" font-family="Helvetica,sans-Serif" font-size="10.00">observation_criterion_met</text>
</g>
<!-- Node2 -->
<g id="node2" class="node"><title>Node2</title>
<g id="a_node2"><a xlink:href="../../d3/d3e/classParameterServer.html#a5457f900e543c5a466bf9b65ee6bc577" target="_top" xlink:title="ParameterServer::instance">
<polygon fill="white" stroke="black" points="164.5,-38.5 164.5,-57.5 297.5,-57.5 297.5,-38.5 164.5,-38.5"/>
<text text-anchor="middle" x="231" y="-45.5" font-family="Helvetica,sans-Serif" font-size="10.00">ParameterServer::instance</text>
</a>
</g>
</g>
<!-- Node1&#45;&gt;Node2 -->
<g id="edge1" class="edge"><title>Node1&#45;&gt;Node2</title>
<path fill="none" stroke="midnightblue" d="M128.321,-36.2916C136.813,-37.2694 145.592,-38.2803 154.27,-39.2795"/>
<polygon fill="midnightblue" stroke="midnightblue" points="154.053,-42.7776 164.388,-40.4446 154.854,-35.8236 154.053,-42.7776"/>
</g>
<!-- Node3 -->
<g id="node3" class="node"><title>Node3</title>
<g id="a_node3"><a xlink:href="../../d3/d3e/classParameterServer.html#a3c8af50664e423b555bbb1874f488413" target="_top" xlink:title="ParameterServer::get">
<polygon fill="white" stroke="black" points="176,-0.5 176,-19.5 286,-19.5 286,-0.5 176,-0.5"/>
<text text-anchor="middle" x="231" y="-7.5" font-family="Helvetica,sans-Serif" font-size="10.00">ParameterServer::get</text>
</a>
</g>
</g>
<!-- Node1&#45;&gt;Node3 -->
<g id="edge2" class="edge"><title>Node1&#45;&gt;Node3</title>
<path fill="none" stroke="midnightblue" d="M128.321,-21.7084C140.605,-20.294 153.488,-18.8105 165.799,-17.3928"/>
<polygon fill="midnightblue" stroke="midnightblue" points="166.446,-20.8416 175.98,-16.2205 165.645,-13.8875 166.446,-20.8416"/>
</g>
</g>
</svg>
