<?xml version="1.0" encoding="UTF-8" standalone="no"?>
<!DOCTYPE svg PUBLIC "-//W3C//DTD SVG 1.1//EN"
 "http://www.w3.org/Graphics/SVG/1.1/DTD/svg11.dtd">
<!-- Generated by graphviz version 2.36.0 (20140111.2315)
 -->
<!-- Title: MultiThreadDemo Pages: 1 -->
<svg width="130pt" height="260pt"
 viewBox="0.00 0.00 130.00 260.00" xmlns="http://www.w3.org/2000/svg" xmlns:xlink="http://www.w3.org/1999/xlink">
<g id="graph0" class="graph" transform="scale(1 1) rotate(0) translate(4 256)">
<title>MultiThreadDemo</title>
<polygon fill="white" stroke="none" points="-4,4 -4,-256 126,-256 126,4 -4,4"/>
<!-- Node1 -->
<g id="node1" class="node"><title>Node1</title>
<polygon fill="#bfbfbf" stroke="black" points="6.5,-0.5 6.5,-79.5 115.5,-79.5 115.5,-0.5 6.5,-0.5"/>
<text text-anchor="middle" x="61" y="-67.5" font-family="Helvetica,sans-Serif" font-size="10.00">MultiThreadDemo</text>
<polyline fill="none" stroke="black" points="6.5,-60.5 115.5,-60.5 "/>
<text text-anchor="middle" x="61" y="-48.5" font-family="Helvetica,sans-Serif" font-size="10.00"> </text>
<polyline fill="none" stroke="black" points="6.5,-41.5 115.5,-41.5 "/>
<text text-anchor="start" x="14.5" y="-29.5" font-family="Helvetica,sans-Serif" font-size="10.00">+ MultiThreadDemo()</text>
<text text-anchor="start" x="14.5" y="-18.5" font-family="Helvetica,sans-Serif" font-size="10.00">+ RunTask()</text>
<text text-anchor="start" x="14.5" y="-7.5" font-family="Helvetica,sans-Serif" font-size="10.00">+ InitializeSIFT()</text>
</g>
<!-- Node2 -->
<g id="node2" class="node"><title>Node2</title>
<g id="a_node2"><a xlink:href="../../dd/d97/classMultiThreadSIFT.html" target="_top" xlink:title="{MultiThreadSIFT\n|# _sift\l# _thread_param\l# _device_id\l|+ MultiThreadSIFT()\l+ ~MultiThreadSIFT()\l+ RunThread()\l+ RunTask()\l+ InitializeSIFT()\l+ RunMultiThreadSIFT()\l}">
<polygon fill="white" stroke="black" points="0,-117 0,-251 122,-251 122,-117 0,-117"/>
<text text-anchor="middle" x="61" y="-239" font-family="Helvetica,sans-Serif" font-size="10.00">MultiThreadSIFT</text>
<polyline fill="none" stroke="black" points="0,-232 122,-232 "/>
<text text-anchor="start" x="8" y="-220" font-family="Helvetica,sans-Serif" font-size="10.00"># _sift</text>
<text text-anchor="start" x="8" y="-209" font-family="Helvetica,sans-Serif" font-size="10.00"># _thread_param</text>
<text text-anchor="start" x="8" y="-198" font-family="Helvetica,sans-Serif" font-size="10.00"># _device_id</text>
<polyline fill="none" stroke="black" points="0,-191 122,-191 "/>
<text text-anchor="start" x="8" y="-179" font-family="Helvetica,sans-Serif" font-size="10.00">+ MultiThreadSIFT()</text>
<text text-anchor="start" x="8" y="-168" font-family="Helvetica,sans-Serif" font-size="10.00">+ ~MultiThreadSIFT()</text>
<text text-anchor="start" x="8" y="-157" font-family="Helvetica,sans-Serif" font-size="10.00">+ RunThread()</text>
<text text-anchor="start" x="8" y="-146" font-family="Helvetica,sans-Serif" font-size="10.00">+ RunTask()</text>
<text text-anchor="start" x="8" y="-135" font-family="Helvetica,sans-Serif" font-size="10.00">+ InitializeSIFT()</text>
<text text-anchor="start" x="8" y="-124" font-family="Helvetica,sans-Serif" font-size="10.00">+ RunMultiThreadSIFT()</text>
</a>
</g>
</g>
<!-- Node2&#45;&gt;Node1 -->
<g id="edge1" class="edge"><title>Node2&#45;&gt;Node1</title>
<path fill="none" stroke="midnightblue" d="M61,-106.816C61,-97.4566 61,-88.2179 61,-79.7552"/>
<polygon fill="none" stroke="midnightblue" points="57.5001,-106.988 61,-116.989 64.5001,-106.989 57.5001,-106.988"/>
</g>
</g>
</svg>
