<?xml version="1.0" encoding="UTF-8" standalone="no"?>
<!DOCTYPE svg PUBLIC "-//W3C//DTD SVG 1.1//EN"
 "http://www.w3.org/Graphics/SVG/1.1/DTD/svg11.dtd">
<!-- Generated by graphviz version 2.36.0 (20140111.2315)
 -->
<!-- Title: external/gicp/ann_1.1.2/include/ANN/ANN.h Pages: 1 -->
<svg width="373pt" height="96pt"
 viewBox="0.00 0.00 373.00 96.00" xmlns="http://www.w3.org/2000/svg" xmlns:xlink="http://www.w3.org/1999/xlink">
<g id="graph0" class="graph" transform="scale(1 1) rotate(0) translate(4 92)">
<title>external/gicp/ann_1.1.2/include/ANN/ANN.h</title>
<polygon fill="white" stroke="none" points="-4,4 -4,-92 369,-92 369,4 -4,4"/>
<!-- Node1 -->
<g id="node1" class="node"><title>Node1</title>
<polygon fill="#bfbfbf" stroke="black" points="127,-57 127,-87 245,-87 245,-57 127,-57"/>
<text text-anchor="start" x="135" y="-75" font-family="Helvetica,sans-Serif" font-size="10.00">external/gicp/ann_1.1.2</text>
<text text-anchor="middle" x="186" y="-64" font-family="Helvetica,sans-Serif" font-size="10.00">/include/ANN/ANN.h</text>
</g>
<!-- Node2 -->
<g id="node2" class="node"><title>Node2</title>
<polygon fill="white" stroke="#bfbfbf" points="-0.5,-0.5 -0.5,-19.5 44.5,-19.5 44.5,-0.5 -0.5,-0.5"/>
<text text-anchor="middle" x="22" y="-7.5" font-family="Helvetica,sans-Serif" font-size="10.00">cstdlib</text>
</g>
<!-- Node1&#45;&gt;Node2 -->
<g id="edge1" class="edge"><title>Node1&#45;&gt;Node2</title>
<path fill="none" stroke="midnightblue" d="M147.549,-56.9327C119.174,-46.5515 80.9983,-32.5847 54.2188,-22.7874"/>
<polygon fill="midnightblue" stroke="midnightblue" points="55.1513,-19.4017 44.5575,-19.2527 52.7462,-25.9755 55.1513,-19.4017"/>
</g>
<!-- Node3 -->
<g id="node3" class="node"><title>Node3</title>
<polygon fill="white" stroke="#bfbfbf" points="63,-0.5 63,-19.5 107,-19.5 107,-0.5 63,-0.5"/>
<text text-anchor="middle" x="85" y="-7.5" font-family="Helvetica,sans-Serif" font-size="10.00">cmath</text>
</g>
<!-- Node1&#45;&gt;Node3 -->
<g id="edge2" class="edge"><title>Node1&#45;&gt;Node3</title>
<path fill="none" stroke="midnightblue" d="M162.32,-56.9327C146.041,-47.2619 124.523,-34.4793 108.322,-24.8546"/>
<polygon fill="midnightblue" stroke="midnightblue" points="109.862,-21.6983 99.4767,-19.6 106.287,-27.7165 109.862,-21.6983"/>
</g>
<!-- Node4 -->
<g id="node4" class="node"><title>Node4</title>
<polygon fill="white" stroke="#bfbfbf" points="125,-0.5 125,-19.5 179,-19.5 179,-0.5 125,-0.5"/>
<text text-anchor="middle" x="152" y="-7.5" font-family="Helvetica,sans-Serif" font-size="10.00">iostream</text>
</g>
<!-- Node1&#45;&gt;Node4 -->
<g id="edge3" class="edge"><title>Node1&#45;&gt;Node4</title>
<path fill="none" stroke="midnightblue" d="M177.942,-56.7808C173.155,-48.3318 167.044,-37.5481 161.956,-28.5693"/>
<polygon fill="midnightblue" stroke="midnightblue" points="164.923,-26.7052 156.947,-19.7305 158.832,-30.1563 164.923,-26.7052"/>
</g>
<!-- Node5 -->
<g id="node5" class="node"><title>Node5</title>
<polygon fill="white" stroke="#bfbfbf" points="197,-0.5 197,-19.5 243,-19.5 243,-0.5 197,-0.5"/>
<text text-anchor="middle" x="220" y="-7.5" font-family="Helvetica,sans-Serif" font-size="10.00">cstring</text>
</g>
<!-- Node1&#45;&gt;Node5 -->
<g id="edge4" class="edge"><title>Node1&#45;&gt;Node5</title>
<path fill="none" stroke="midnightblue" d="M194.058,-56.7808C198.845,-48.3318 204.956,-37.5481 210.044,-28.5693"/>
<polygon fill="midnightblue" stroke="midnightblue" points="213.168,-30.1563 215.053,-19.7305 207.077,-26.7052 213.168,-30.1563"/>
</g>
<!-- Node6 -->
<g id="node6" class="node"><title>Node6</title>
<polygon fill="white" stroke="#bfbfbf" points="261.5,-0.5 261.5,-19.5 306.5,-19.5 306.5,-0.5 261.5,-0.5"/>
<text text-anchor="middle" x="284" y="-7.5" font-family="Helvetica,sans-Serif" font-size="10.00">climits</text>
</g>
<!-- Node1&#45;&gt;Node6 -->
<g id="edge5" class="edge"><title>Node1&#45;&gt;Node6</title>
<path fill="none" stroke="midnightblue" d="M209.225,-56.7808C225.028,-47.1054 245.832,-34.3684 261.483,-24.7861"/>
<polygon fill="midnightblue" stroke="midnightblue" points="263.325,-27.7623 270.026,-19.5557 259.67,-21.7923 263.325,-27.7623"/>
</g>
<!-- Node7 -->
<g id="node7" class="node"><title>Node7</title>
<polygon fill="white" stroke="#bfbfbf" points="324.5,-0.5 324.5,-19.5 365.5,-19.5 365.5,-0.5 324.5,-0.5"/>
<text text-anchor="middle" x="345" y="-7.5" font-family="Helvetica,sans-Serif" font-size="10.00">cfloat</text>
</g>
<!-- Node1&#45;&gt;Node7 -->
<g id="edge6" class="edge"><title>Node1&#45;&gt;Node7</title>
<path fill="none" stroke="midnightblue" d="M223.278,-56.9327C251.153,-46.4138 288.784,-32.2135 314.791,-22.3996"/>
<polygon fill="midnightblue" stroke="midnightblue" points="316.363,-25.5474 324.483,-18.7422 313.891,-18.9982 316.363,-25.5474"/>
</g>
</g>
</svg>
