<?xml version="1.0" encoding="UTF-8" standalone="no"?>
<!DOCTYPE svg PUBLIC "-//W3C//DTD SVG 1.1//EN"
 "http://www.w3.org/Graphics/SVG/1.1/DTD/svg11.dtd">
<!-- Generated by graphviz version 2.36.0 (20140111.2315)
 -->
<!-- Title: lsd_slam_core::LSDDebugParamsConfig::__fromServer__ Pages: 1 -->
<svg width="382pt" height="87pt"
 viewBox="0.00 0.00 382.00 87.00" xmlns="http://www.w3.org/2000/svg" xmlns:xlink="http://www.w3.org/1999/xlink">
<g id="graph0" class="graph" transform="scale(1 1) rotate(0) translate(4 83)">
<title>lsd_slam_core::LSDDebugParamsConfig::__fromServer__</title>
<polygon fill="white" stroke="none" points="-4,4 -4,-83 378,-83 378,4 -4,4"/>
<!-- Node1 -->
<g id="node1" class="node"><title>Node1</title>
<polygon fill="#bfbfbf" stroke="black" points="0.5,-24 0.5,-54 167.5,-54 167.5,-24 0.5,-24"/>
<text text-anchor="start" x="8.5" y="-42" font-family="Helvetica,sans-Serif" font-size="10.00">lsd_slam_core::LSDDebugParams</text>
<text text-anchor="middle" x="84" y="-31" font-family="Helvetica,sans-Serif" font-size="10.00">Config::__fromServer__</text>
</g>
<!-- Node2 -->
<g id="node2" class="node"><title>Node2</title>
<g id="a_node2"><a xlink:href="../../d9/d69/classlsd__slam__core_1_1LSDDebugParamsConfig.html#a0f4ea122ff92f7eb12da6dd51101f5d0" target="_top" xlink:title="lsd_slam_core::LSDDebugParams\lConfig::__getParamDescriptions__">
<polygon fill="white" stroke="black" points="204.5,-49 204.5,-79 373.5,-79 373.5,-49 204.5,-49"/>
<text text-anchor="start" x="212.5" y="-67" font-family="Helvetica,sans-Serif" font-size="10.00">lsd_slam_core::LSDDebugParams</text>
<text text-anchor="middle" x="289" y="-56" font-family="Helvetica,sans-Serif" font-size="10.00">Config::__getParamDescriptions__</text>
</a>
</g>
</g>
<!-- Node1&#45;&gt;Node2 -->
<g id="edge1" class="edge"><title>Node1&#45;&gt;Node2</title>
<path fill="none" stroke="midnightblue" d="M167.568,-49.1685C176.341,-50.2489 185.309,-51.3534 194.199,-52.4481"/>
<polygon fill="midnightblue" stroke="midnightblue" points="193.834,-55.9296 204.187,-53.6782 194.69,-48.982 193.834,-55.9296"/>
</g>
<!-- Node3 -->
<g id="node3" class="node"><title>Node3</title>
<g id="a_node3"><a xlink:href="../../d9/d69/classlsd__slam__core_1_1LSDDebugParamsConfig.html#a7c7626966016b2d0a6341d84bf492641" target="_top" xlink:title="lsd_slam_core::LSDDebugParams\lConfig::__getGroupDescriptions__">
<polygon fill="white" stroke="black" points="205.5,-0 205.5,-30 372.5,-30 372.5,-0 205.5,-0"/>
<text text-anchor="start" x="213.5" y="-18" font-family="Helvetica,sans-Serif" font-size="10.00">lsd_slam_core::LSDDebugParams</text>
<text text-anchor="middle" x="289" y="-7" font-family="Helvetica,sans-Serif" font-size="10.00">Config::__getGroupDescriptions__</text>
</a>
</g>
</g>
<!-- Node1&#45;&gt;Node3 -->
<g id="edge2" class="edge"><title>Node1&#45;&gt;Node3</title>
<path fill="none" stroke="midnightblue" d="M167.568,-29.2383C176.677,-28.1613 185.997,-27.0595 195.22,-25.969"/>
<polygon fill="midnightblue" stroke="midnightblue" points="195.656,-29.442 205.176,-24.792 194.834,-22.4904 195.656,-29.442"/>
</g>
</g>
</svg>
