<?xml version="1.0" encoding="UTF-8" standalone="no"?>
<!DOCTYPE svg PUBLIC "-//W3C//DTD SVG 1.1//EN"
 "http://www.w3.org/Graphics/SVG/1.1/DTD/svg11.dtd">
<!-- Generated by graphviz version 2.36.0 (20140111.2315)
 -->
<!-- Title: external/SiftGPU/src/SiftGPU/GlobalUtil.h Pages: 1 -->
<!--zoomable 108 -->
<svg id="main" version="1.1" xmlns="http://www.w3.org/2000/svg" xmlns:xlink="http://www.w3.org/1999/xlink" xml:space="preserve" onload="init(evt)">
<style type="text/css"><![CDATA[
.edge:hover path { stroke: red; }
.edge:hover polygon { stroke: red; fill: red; }
]]></style>
<script type="text/javascript"><![CDATA[
var edges = document.getElementsByTagName('g');
if (edges && edges.length) {
  for (var i=0;i<edges.length;i++) {
    if (edges[i].id.substr(0,4)=='edge') {
      edges[i].setAttribute('class','edge');
    }
  }
}
]]></script>
        <defs>
                <circle id="rim" cx="0" cy="0" r="7"/>
                <circle id="rim2" cx="0" cy="0" r="3.5"/>
                <g id="zoomPlus">
                        <use xlink:href="#rim" fill="#404040">
                                <set attributeName="fill" to="#808080" begin="zoomplus.mouseover" end="zoomplus.mouseout"/>
                        </use>
                        <path d="M-4,0h8M0,-4v8" fill="none" stroke="white" stroke-width="1.5" pointer-events="none"/>
                </g>
                <g id="zoomMin">
                        <use xlink:href="#rim" fill="#404040">
                                <set attributeName="fill" to="#808080" begin="zoomminus.mouseover" end="zoomminus.mouseout"/>
                        </use>
                        <path d="M-4,0h8" fill="none" stroke="white" stroke-width="1.5" pointer-events="none"/>
                </g>
                <g id="dirArrow">
                        <path fill="none" stroke="white" stroke-width="1.5" d="M0,-3.0v7 M-2.5,-0.5L0,-3.0L2.5,-0.5"/>
                </g>
               <g id="resetDef">
                       <use xlink:href="#rim2" fill="#404040">
                               <set attributeName="fill" to="#808080" begin="reset.mouseover" end="reset.mouseout"/>
                       </use>
               </g>
        </defs>

<script type="text/javascript">
var viewWidth = 1484;
var viewHeight = 108;
var sectionId = 'dynsection-0';
</script>
<script xlink:href="../../svgpan.js"/>
<svg id="graph" class="graph">
<g id="viewport">
<title>external/SiftGPU/src/SiftGPU/GlobalUtil.h</title>
<polygon fill="white" stroke="none" points="-4,4 -4,-104 1480,-104 1480,4 -4,4"/>
<!-- Node1 -->
<g id="node1" class="node"><title>Node1</title>
<polygon fill="#bfbfbf" stroke="black" points="717,-69 717,-99 827,-99 827,-69 717,-69"/>
<text text-anchor="start" x="725" y="-87" font-family="Helvetica,sans-Serif" font-size="10.00">external/SiftGPU/src</text>
<text text-anchor="middle" x="772" y="-76" font-family="Helvetica,sans-Serif" font-size="10.00">/SiftGPU/GlobalUtil.h</text>
</g>
<!-- Node2 -->
<g id="node2" class="node"><title>Node2</title>
<g id="a_node2"><a xlink:href="../../df/d50/FrameBufferObject_8cpp.html" target="_top" xlink:title="external/SiftGPU/src\l/SiftGPU/FrameBufferObject.cpp">
<polygon fill="white" stroke="black" points="-0.5,-1 -0.5,-31 160.5,-31 160.5,-1 -0.5,-1"/>
<text text-anchor="start" x="7.5" y="-19" font-family="Helvetica,sans-Serif" font-size="10.00">external/SiftGPU/src</text>
<text text-anchor="middle" x="80" y="-8" font-family="Helvetica,sans-Serif" font-size="10.00">/SiftGPU/FrameBufferObject.cpp</text>
</a>
</g>
</g>
<!-- Node1&#45;&gt;Node2 -->
<g id="edge1" class="edge"><title>Node1&#45;&gt;Node2</title>
<path fill="none" stroke="midnightblue" d="M706.955,-79.2661C596.213,-72.5141 364.079,-56.6461 169,-32 166.357,-31.6661 163.673,-31.3104 160.964,-30.9373"/>
<polygon fill="midnightblue" stroke="midnightblue" points="706.774,-82.7615 716.967,-79.8719 707.197,-75.7743 706.774,-82.7615"/>
</g>
<!-- Node3 -->
<g id="node3" class="node"><title>Node3</title>
<g id="a_node3"><a xlink:href="../../d0/d4c/GlobalUtil_8cpp.html" target="_top" xlink:title="external/SiftGPU/src\l/SiftGPU/GlobalUtil.cpp">
<polygon fill="white" stroke="black" points="178.5,-1 178.5,-31 299.5,-31 299.5,-1 178.5,-1"/>
<text text-anchor="start" x="186.5" y="-19" font-family="Helvetica,sans-Serif" font-size="10.00">external/SiftGPU/src</text>
<text text-anchor="middle" x="239" y="-8" font-family="Helvetica,sans-Serif" font-size="10.00">/SiftGPU/GlobalUtil.cpp</text>
</a>
</g>
</g>
<!-- Node1&#45;&gt;Node3 -->
<g id="edge2" class="edge"><title>Node1&#45;&gt;Node3</title>
<path fill="none" stroke="midnightblue" d="M706.834,-77.9192C616.957,-70.435 450.052,-54.821 309,-32 305.933,-31.5037 302.797,-30.9614 299.635,-30.3866"/>
<polygon fill="midnightblue" stroke="midnightblue" points="706.623,-81.4135 716.877,-78.7482 707.199,-74.4373 706.623,-81.4135"/>
</g>
<!-- Node4 -->
<g id="node4" class="node"><title>Node4</title>
<g id="a_node4"><a xlink:href="../../db/dda/GLTexImage_8cpp.html" target="_top" xlink:title="external/SiftGPU/src\l/SiftGPU/GLTexImage.cpp">
<polygon fill="white" stroke="black" points="318,-1 318,-31 452,-31 452,-1 318,-1"/>
<text text-anchor="start" x="326" y="-19" font-family="Helvetica,sans-Serif" font-size="10.00">external/SiftGPU/src</text>
<text text-anchor="middle" x="385" y="-8" font-family="Helvetica,sans-Serif" font-size="10.00">/SiftGPU/GLTexImage.cpp</text>
</a>
</g>
</g>
<!-- Node1&#45;&gt;Node4 -->
<g id="edge3" class="edge"><title>Node1&#45;&gt;Node4</title>
<path fill="none" stroke="midnightblue" d="M706.664,-72.9147C643.659,-63.0409 545.666,-47.2931 461,-32 458.088,-31.4741 455.116,-30.9278 452.114,-30.3684"/>
<polygon fill="midnightblue" stroke="midnightblue" points="706.432,-76.4209 716.853,-74.5081 707.513,-69.505 706.432,-76.4209"/>
</g>
<!-- Node5 -->
<g id="node5" class="node"><title>Node5</title>
<g id="a_node5"><a xlink:href="../../d4/d97/ProgramGLSL_8cpp.html" target="_top" xlink:title="external/SiftGPU/src\l/SiftGPU/ProgramGLSL.cpp">
<polygon fill="white" stroke="black" points="470,-1 470,-31 610,-31 610,-1 470,-1"/>
<text text-anchor="start" x="478" y="-19" font-family="Helvetica,sans-Serif" font-size="10.00">external/SiftGPU/src</text>
<text text-anchor="middle" x="540" y="-8" font-family="Helvetica,sans-Serif" font-size="10.00">/SiftGPU/ProgramGLSL.cpp</text>
</a>
</g>
</g>
<!-- Node1&#45;&gt;Node5 -->
<g id="edge4" class="edge"><title>Node1&#45;&gt;Node5</title>
<path fill="none" stroke="midnightblue" d="M712.561,-66.0905C674.401,-55.2347 625.429,-41.303 589.409,-31.0561"/>
<polygon fill="midnightblue" stroke="midnightblue" points="711.939,-69.5524 722.515,-68.9223 713.854,-62.8195 711.939,-69.5524"/>
</g>
<!-- Node6 -->
<g id="node6" class="node"><title>Node6</title>
<g id="a_node6"><a xlink:href="../../d7/d8c/ProgramGPU_8cpp.html" target="_top" xlink:title="external/SiftGPU/src\l/SiftGPU/ProgramGPU.cpp">
<polygon fill="white" stroke="black" points="628.5,-1 628.5,-31 765.5,-31 765.5,-1 628.5,-1"/>
<text text-anchor="start" x="636.5" y="-19" font-family="Helvetica,sans-Serif" font-size="10.00">external/SiftGPU/src</text>
<text text-anchor="middle" x="697" y="-8" font-family="Helvetica,sans-Serif" font-size="10.00">/SiftGPU/ProgramGPU.cpp</text>
</a>
</g>
</g>
<!-- Node1&#45;&gt;Node6 -->
<g id="edge5" class="edge"><title>Node1&#45;&gt;Node6</title>
<path fill="none" stroke="midnightblue" d="M748.157,-62.0184C736.676,-51.9145 723.215,-40.0696 712.984,-31.0663"/>
<polygon fill="midnightblue" stroke="midnightblue" points="745.907,-64.7002 755.726,-68.679 750.531,-59.4452 745.907,-64.7002"/>
</g>
<!-- Node7 -->
<g id="node7" class="node"><title>Node7</title>
<g id="a_node7"><a xlink:href="../../d5/d65/PyramidGL_8cpp.html" target="_top" xlink:title="external/SiftGPU/src\l/SiftGPU/PyramidGL.cpp">
<polygon fill="white" stroke="black" points="783.5,-1 783.5,-31 910.5,-31 910.5,-1 783.5,-1"/>
<text text-anchor="start" x="791.5" y="-19" font-family="Helvetica,sans-Serif" font-size="10.00">external/SiftGPU/src</text>
<text text-anchor="middle" x="847" y="-8" font-family="Helvetica,sans-Serif" font-size="10.00">/SiftGPU/PyramidGL.cpp</text>
</a>
</g>
</g>
<!-- Node1&#45;&gt;Node7 -->
<g id="edge6" class="edge"><title>Node1&#45;&gt;Node7</title>
<path fill="none" stroke="midnightblue" d="M795.843,-62.0184C807.324,-51.9145 820.785,-40.0696 831.016,-31.0663"/>
<polygon fill="midnightblue" stroke="midnightblue" points="793.469,-59.4452 788.274,-68.679 798.093,-64.7002 793.469,-59.4452"/>
</g>
<!-- Node8 -->
<g id="node8" class="node"><title>Node8</title>
<g id="a_node8"><a xlink:href="../../d7/d1f/ShaderMan_8cpp.html" target="_top" xlink:title="external/SiftGPU/src\l/SiftGPU/ShaderMan.cpp">
<polygon fill="white" stroke="black" points="929,-1 929,-31 1057,-31 1057,-1 929,-1"/>
<text text-anchor="start" x="937" y="-19" font-family="Helvetica,sans-Serif" font-size="10.00">external/SiftGPU/src</text>
<text text-anchor="middle" x="993" y="-8" font-family="Helvetica,sans-Serif" font-size="10.00">/SiftGPU/ShaderMan.cpp</text>
</a>
</g>
</g>
<!-- Node1&#45;&gt;Node8 -->
<g id="edge7" class="edge"><title>Node1&#45;&gt;Node8</title>
<path fill="none" stroke="midnightblue" d="M829.086,-65.9518C865.368,-55.1162 911.768,-41.2594 945.933,-31.0561"/>
<polygon fill="midnightblue" stroke="midnightblue" points="827.719,-62.707 819.139,-68.9223 829.722,-69.4143 827.719,-62.707"/>
</g>
<!-- Node9 -->
<g id="node9" class="node"><title>Node9</title>
<g id="a_node9"><a xlink:href="../../de/d03/SiftGPU_8cpp.html" target="_top" xlink:title="external/SiftGPU/src\l/SiftGPU/SiftGPU.cpp">
<polygon fill="white" stroke="black" points="1075.5,-1 1075.5,-31 1190.5,-31 1190.5,-1 1075.5,-1"/>
<text text-anchor="start" x="1083.5" y="-19" font-family="Helvetica,sans-Serif" font-size="10.00">external/SiftGPU/src</text>
<text text-anchor="middle" x="1133" y="-8" font-family="Helvetica,sans-Serif" font-size="10.00">/SiftGPU/SiftGPU.cpp</text>
</a>
</g>
</g>
<!-- Node1&#45;&gt;Node9 -->
<g id="edge8" class="edge"><title>Node1&#45;&gt;Node9</title>
<path fill="none" stroke="midnightblue" d="M837.185,-72.6232C896.873,-62.9008 987.586,-47.5694 1066,-32 1069.04,-31.3964 1072.15,-30.7607 1075.29,-30.1057"/>
<polygon fill="midnightblue" stroke="midnightblue" points="836.456,-69.1957 827.146,-74.2532 837.578,-76.1053 836.456,-69.1957"/>
</g>
<!-- Node10 -->
<g id="node10" class="node"><title>Node10</title>
<g id="a_node10"><a xlink:href="../../dd/d0c/SiftMatch_8cpp.html" target="_top" xlink:title="external/SiftGPU/src\l/SiftGPU/SiftMatch.cpp">
<polygon fill="white" stroke="black" points="1209,-1 1209,-31 1329,-31 1329,-1 1209,-1"/>
<text text-anchor="start" x="1217" y="-19" font-family="Helvetica,sans-Serif" font-size="10.00">external/SiftGPU/src</text>
<text text-anchor="middle" x="1269" y="-8" font-family="Helvetica,sans-Serif" font-size="10.00">/SiftGPU/SiftMatch.cpp</text>
</a>
</g>
</g>
<!-- Node1&#45;&gt;Node10 -->
<g id="edge9" class="edge"><title>Node1&#45;&gt;Node10</title>
<path fill="none" stroke="midnightblue" d="M837.325,-77.0874C921.326,-69.0519 1071.57,-53.2168 1199,-32 1202.19,-31.4693 1205.45,-30.8916 1208.74,-30.2821"/>
<polygon fill="midnightblue" stroke="midnightblue" points="836.79,-73.6223 827.166,-78.0519 837.452,-80.5909 836.79,-73.6223"/>
</g>
<!-- Node11 -->
<g id="node11" class="node"><title>Node11</title>
<g id="a_node11"><a xlink:href="../../d8/dfb/SiftPyramid_8cpp.html" target="_top" xlink:title="external/SiftGPU/src\l/SiftGPU/SiftPyramid.cpp">
<polygon fill="white" stroke="black" points="1347.5,-1 1347.5,-31 1476.5,-31 1476.5,-1 1347.5,-1"/>
<text text-anchor="start" x="1355.5" y="-19" font-family="Helvetica,sans-Serif" font-size="10.00">external/SiftGPU/src</text>
<text text-anchor="middle" x="1412" y="-8" font-family="Helvetica,sans-Serif" font-size="10.00">/SiftGPU/SiftPyramid.cpp</text>
</a>
</g>
</g>
<!-- Node1&#45;&gt;Node11 -->
<g id="edge10" class="edge"><title>Node1&#45;&gt;Node11</title>
<path fill="none" stroke="midnightblue" d="M837.34,-79.388C942.836,-73.0435 1157.06,-58.0383 1337,-32 1340.42,-31.5056 1343.91,-30.9568 1347.44,-30.3699"/>
<polygon fill="midnightblue" stroke="midnightblue" points="836.942,-75.9053 827.168,-79.993 837.358,-82.893 836.942,-75.9053"/>
</g>
</g>
</svg>
        <g id="navigator" transform="translate(0 0)" fill="#404254">
                <rect fill="#f2f5e9" fill-opacity="0.5" stroke="#606060" stroke-width=".5" x="0" y="0" width="60" height="60"/>
                <use id="zoomplus" xlink:href="#zoomPlus" x="17" y="9" onmousedown="handleZoom(evt,'in')"/>
                <use id="zoomminus" xlink:href="#zoomMin" x="42" y="9" onmousedown="handleZoom(evt,'out')"/>
                <use id="reset" xlink:href="#resetDef" x="30" y="36" onmousedown="handleReset()"/>
                <g id="arrowUp" xlink:href="#dirArrow" transform="translate(30 24)" onmousedown="handlePan(0,-1)">
                  <use xlink:href="#rim" fill="#404040">
                        <set attributeName="fill" to="#808080" begin="arrowUp.mouseover" end="arrowUp.mouseout"/>
                  </use>
                  <path fill="none" stroke="white" stroke-width="1.5" d="M0,-3.0v7 M-2.5,-0.5L0,-3.0L2.5,-0.5"/>
                </g>
                <g id="arrowRight" xlink:href="#dirArrow" transform="rotate(90) translate(36 -43)" onmousedown="handlePan(1,0)">
                  <use xlink:href="#rim" fill="#404040">
                        <set attributeName="fill" to="#808080" begin="arrowRight.mouseover" end="arrowRight.mouseout"/>
                  </use>
                  <path fill="none" stroke="white" stroke-width="1.5" d="M0,-3.0v7 M-2.5,-0.5L0,-3.0L2.5,-0.5"/>
                </g>
                <g id="arrowDown" xlink:href="#dirArrow" transform="rotate(180) translate(-30 -48)" onmousedown="handlePan(0,1)">
                  <use xlink:href="#rim" fill="#404040">
                        <set attributeName="fill" to="#808080" begin="arrowDown.mouseover" end="arrowDown.mouseout"/>
                  </use>
                  <path fill="none" stroke="white" stroke-width="1.5" d="M0,-3.0v7 M-2.5,-0.5L0,-3.0L2.5,-0.5"/>
                </g>
                <g id="arrowLeft" xlink:href="#dirArrow" transform="rotate(270) translate(-36 17)" onmousedown="handlePan(-1,0)">
                  <use xlink:href="#rim" fill="#404040">
                        <set attributeName="fill" to="#808080" begin="arrowLeft.mouseover" end="arrowLeft.mouseout"/>
                  </use>
                  <path fill="none" stroke="white" stroke-width="1.5" d="M0,-3.0v7 M-2.5,-0.5L0,-3.0L2.5,-0.5"/>
                </g>
        </g>
        <svg viewBox="0 0 15 15" width="100%" height="30px" preserveAspectRatio="xMaxYMin meet">
         <g id="arrow_out" transform="scale(0.3 0.3)">
          <a xlink:href="GlobalUtil_8h__dep__incl_org.svg" target="_base">
           <rect id="button" ry="5" rx="5" y="6" x="6" height="38" width="38"
                fill="#f2f5e9" fill-opacity="0.5" stroke="#606060" stroke-width="1.0"/>
           <path id="arrow"
             d="M 11.500037,31.436501 C 11.940474,20.09759 22.043105,11.32322 32.158766,21.979434 L 37.068811,17.246167 C 37.068811,17.246167 37.088388,32 37.088388,32 L 22.160133,31.978069 C 22.160133,31.978069 26.997745,27.140456 26.997745,27.140456 C 18.528582,18.264221 13.291696,25.230495 11.500037,31.436501 z"
             style="fill:#404040;"/>
          </a>
         </g>
        </svg>
</svg>
