<?xml version="1.0" encoding="UTF-8" standalone="no"?>
<!DOCTYPE svg PUBLIC "-//W3C//DTD SVG 1.1//EN"
 "http://www.w3.org/Graphics/SVG/1.1/DTD/svg11.dtd">
<!-- Generated by graphviz version 2.36.0 (20140111.2315)
 -->
<!-- Title: src/renderable.h Pages: 1 -->
<svg width="1143pt" height="252pt"
 viewBox="0.00 0.00 1143.00 252.00" xmlns="http://www.w3.org/2000/svg" xmlns:xlink="http://www.w3.org/1999/xlink">
<g id="graph0" class="graph" transform="scale(1 1) rotate(0) translate(4 248)">
<title>src/renderable.h</title>
<polygon fill="white" stroke="none" points="-4,4 -4,-248 1139,-248 1139,4 -4,4"/>
<!-- Node1 -->
<g id="node1" class="node"><title>Node1</title>
<polygon fill="#bfbfbf" stroke="black" points="634,-224.5 634,-243.5 720,-243.5 720,-224.5 634,-224.5"/>
<text text-anchor="middle" x="677" y="-231.5" font-family="Helvetica,sans-Serif" font-size="10.00">src/renderable.h</text>
</g>
<!-- Node2 -->
<g id="node2" class="node"><title>Node2</title>
<g id="a_node2"><a xlink:href="../../d5/d82/ColorOctomapServer_8h.html" target="_top" xlink:title="src/ColorOctomapServer.h">
<polygon fill="white" stroke="black" points="404.5,-168.5 404.5,-187.5 537.5,-187.5 537.5,-168.5 404.5,-168.5"/>
<text text-anchor="middle" x="471" y="-175.5" font-family="Helvetica,sans-Serif" font-size="10.00">src/ColorOctomapServer.h</text>
</a>
</g>
</g>
<!-- Node1&#45;&gt;Node2 -->
<g id="edge1" class="edge"><title>Node1&#45;&gt;Node2</title>
<path fill="none" stroke="midnightblue" d="M634.385,-221.829C595.49,-211.633 538.836,-196.782 503.489,-187.516"/>
<polygon fill="midnightblue" stroke="midnightblue" points="633.798,-225.293 644.359,-224.444 635.573,-218.522 633.798,-225.293"/>
</g>
<!-- Node13 -->
<g id="node13" class="node"><title>Node13</title>
<g id="a_node13"><a xlink:href="../../d3/d9d/glviewer_8h.html" target="_top" xlink:title="src/glviewer.h">
<polygon fill="white" stroke="black" points="845.5,-168.5 845.5,-187.5 922.5,-187.5 922.5,-168.5 845.5,-168.5"/>
<text text-anchor="middle" x="884" y="-175.5" font-family="Helvetica,sans-Serif" font-size="10.00">src/glviewer.h</text>
</a>
</g>
</g>
<!-- Node1&#45;&gt;Node13 -->
<g id="edge12" class="edge"><title>Node1&#45;&gt;Node13</title>
<path fill="none" stroke="midnightblue" d="M719.822,-221.829C758.906,-211.633 815.835,-196.782 851.354,-187.516"/>
<polygon fill="midnightblue" stroke="midnightblue" points="718.592,-218.533 709.8,-224.444 720.359,-225.306 718.592,-218.533"/>
</g>
<!-- Node3 -->
<g id="node3" class="node"><title>Node3</title>
<g id="a_node3"><a xlink:href="../../de/dab/ColorOctomapServer_8cpp.html" target="_top" xlink:title="src/ColorOctomapServer.cpp">
<polygon fill="white" stroke="black" points="255.5,-112.5 255.5,-131.5 398.5,-131.5 398.5,-112.5 255.5,-112.5"/>
<text text-anchor="middle" x="327" y="-119.5" font-family="Helvetica,sans-Serif" font-size="10.00">src/ColorOctomapServer.cpp</text>
</a>
</g>
</g>
<!-- Node2&#45;&gt;Node3 -->
<g id="edge2" class="edge"><title>Node2&#45;&gt;Node3</title>
<path fill="none" stroke="midnightblue" d="M438.749,-164.906C411.676,-154.754 373.683,-140.506 349.71,-131.516"/>
<polygon fill="midnightblue" stroke="midnightblue" points="437.591,-168.209 448.183,-168.444 440.048,-161.655 437.591,-168.209"/>
</g>
<!-- Node4 -->
<g id="node4" class="node"><title>Node4</title>
<g id="a_node4"><a xlink:href="../../de/d83/graph__manager_8h.html" target="_top" xlink:title="src/graph_manager.h">
<polygon fill="white" stroke="black" points="417,-112.5 417,-131.5 525,-131.5 525,-112.5 417,-112.5"/>
<text text-anchor="middle" x="471" y="-119.5" font-family="Helvetica,sans-Serif" font-size="10.00">src/graph_manager.h</text>
</a>
</g>
</g>
<!-- Node2&#45;&gt;Node4 -->
<g id="edge3" class="edge"><title>Node2&#45;&gt;Node4</title>
<path fill="none" stroke="midnightblue" d="M471,-157.805C471,-148.91 471,-138.78 471,-131.751"/>
<polygon fill="midnightblue" stroke="midnightblue" points="467.5,-158.083 471,-168.083 474.5,-158.083 467.5,-158.083"/>
</g>
<!-- Node5 -->
<g id="node5" class="node"><title>Node5</title>
<g id="a_node5"><a xlink:href="../../d4/d1a/graph__manager_8cpp.html" target="_top" xlink:title="src/graph_manager.cpp">
<polygon fill="white" stroke="black" points="-0.5,-56.5 -0.5,-75.5 118.5,-75.5 118.5,-56.5 -0.5,-56.5"/>
<text text-anchor="middle" x="59" y="-63.5" font-family="Helvetica,sans-Serif" font-size="10.00">src/graph_manager.cpp</text>
</a>
</g>
</g>
<!-- Node4&#45;&gt;Node5 -->
<g id="edge4" class="edge"><title>Node4&#45;&gt;Node5</title>
<path fill="none" stroke="midnightblue" d="M406.889,-111.999C281.454,-95.1231 248.841,-91.6771 128,-76 125.005,-75.6114 121.937,-75.2129 118.838,-74.8101"/>
<polygon fill="midnightblue" stroke="midnightblue" points="406.507,-115.479 416.884,-113.346 407.441,-108.542 406.507,-115.479"/>
</g>
<!-- Node6 -->
<g id="node6" class="node"><title>Node6</title>
<g id="a_node6"><a xlink:href="../../de/d74/graph__manager2_8cpp.html" target="_top" xlink:title="src/graph_manager2.cpp">
<polygon fill="white" stroke="black" points="137,-56.5 137,-75.5 261,-75.5 261,-56.5 137,-56.5"/>
<text text-anchor="middle" x="199" y="-63.5" font-family="Helvetica,sans-Serif" font-size="10.00">src/graph_manager2.cpp</text>
</a>
</g>
</g>
<!-- Node4&#45;&gt;Node6 -->
<g id="edge5" class="edge"><title>Node4&#45;&gt;Node6</title>
<path fill="none" stroke="midnightblue" d="M417.977,-110.473C366.571,-100.268 289.563,-84.9794 241.898,-75.5164"/>
<polygon fill="midnightblue" stroke="midnightblue" points="417.411,-113.929 427.901,-112.444 418.774,-107.063 417.411,-113.929"/>
</g>
<!-- Node7 -->
<g id="node7" class="node"><title>Node7</title>
<g id="a_node7"><a xlink:href="../../de/da7/graph__mgr__io_8cpp.html" target="_top" xlink:title="src/graph_mgr_io.cpp">
<polygon fill="white" stroke="black" points="279,-56.5 279,-75.5 389,-75.5 389,-56.5 279,-56.5"/>
<text text-anchor="middle" x="334" y="-63.5" font-family="Helvetica,sans-Serif" font-size="10.00">src/graph_mgr_io.cpp</text>
</a>
</g>
</g>
<!-- Node4&#45;&gt;Node7 -->
<g id="edge6" class="edge"><title>Node4&#45;&gt;Node7</title>
<path fill="none" stroke="midnightblue" d="M439.977,-108.772C414.243,-98.6287 378.314,-84.4669 355.606,-75.5164"/>
<polygon fill="midnightblue" stroke="midnightblue" points="438.705,-112.033 449.292,-112.444 441.272,-105.52 438.705,-112.033"/>
</g>
<!-- Node8 -->
<g id="node8" class="node"><title>Node8</title>
<g id="a_node8"><a xlink:href="../../db/d8d/graph__mgr__odom_8cpp.html" target="_top" xlink:title="src/graph_mgr_odom.cpp">
<polygon fill="white" stroke="black" points="407.5,-56.5 407.5,-75.5 534.5,-75.5 534.5,-56.5 407.5,-56.5"/>
<text text-anchor="middle" x="471" y="-63.5" font-family="Helvetica,sans-Serif" font-size="10.00">src/graph_mgr_odom.cpp</text>
</a>
</g>
</g>
<!-- Node4&#45;&gt;Node8 -->
<g id="edge7" class="edge"><title>Node4&#45;&gt;Node8</title>
<path fill="none" stroke="midnightblue" d="M471,-101.805C471,-92.9102 471,-82.7798 471,-75.7511"/>
<polygon fill="midnightblue" stroke="midnightblue" points="467.5,-102.083 471,-112.083 474.5,-102.083 467.5,-102.083"/>
</g>
<!-- Node9 -->
<g id="node9" class="node"><title>Node9</title>
<g id="a_node9"><a xlink:href="../../dc/d7b/loop__closing_8cpp.html" target="_top" xlink:title="src/loop_closing.cpp">
<polygon fill="white" stroke="black" points="553,-56.5 553,-75.5 659,-75.5 659,-56.5 553,-56.5"/>
<text text-anchor="middle" x="606" y="-63.5" font-family="Helvetica,sans-Serif" font-size="10.00">src/loop_closing.cpp</text>
</a>
</g>
</g>
<!-- Node4&#45;&gt;Node9 -->
<g id="edge8" class="edge"><title>Node4&#45;&gt;Node9</title>
<path fill="none" stroke="midnightblue" d="M501.906,-108.638C527.24,-98.504 562.431,-84.4274 584.709,-75.5164"/>
<polygon fill="midnightblue" stroke="midnightblue" points="500.376,-105.48 492.391,-112.444 502.976,-111.979 500.376,-105.48"/>
</g>
<!-- Node10 -->
<g id="node10" class="node"><title>Node10</title>
<g id="a_node10"><a xlink:href="../../dd/d53/openni__listener_8h.html" target="_top" xlink:title="src/openni_listener.h">
<polygon fill="white" stroke="black" points="676.5,-56.5 676.5,-75.5 783.5,-75.5 783.5,-56.5 676.5,-56.5"/>
<text text-anchor="middle" x="730" y="-63.5" font-family="Helvetica,sans-Serif" font-size="10.00">src/openni_listener.h</text>
</a>
</g>
</g>
<!-- Node4&#45;&gt;Node10 -->
<g id="edge9" class="edge"><title>Node4&#45;&gt;Node10</title>
<path fill="none" stroke="midnightblue" d="M522.102,-110.346C571.048,-100.141 643.954,-84.94 689.153,-75.5164"/>
<polygon fill="midnightblue" stroke="midnightblue" points="521.114,-106.976 512.039,-112.444 522.543,-113.829 521.114,-106.976"/>
</g>
<!-- Node11 -->
<g id="node11" class="node"><title>Node11</title>
<g id="a_node11"><a xlink:href="../../df/d0a/main_8cpp.html" target="_top" xlink:title="src/main.cpp">
<polygon fill="white" stroke="black" points="775.5,-0.5 775.5,-19.5 848.5,-19.5 848.5,-0.5 775.5,-0.5"/>
<text text-anchor="middle" x="812" y="-7.5" font-family="Helvetica,sans-Serif" font-size="10.00">src/main.cpp</text>
</a>
</g>
</g>
<!-- Node10&#45;&gt;Node11 -->
<g id="edge10" class="edge"><title>Node10&#45;&gt;Node11</title>
<path fill="none" stroke="midnightblue" d="M751.833,-50.6221C766.813,-40.7574 786.197,-27.9919 798.858,-19.6545"/>
<polygon fill="midnightblue" stroke="midnightblue" points="749.601,-47.9009 743.175,-56.324 753.451,-53.7471 749.601,-47.9009"/>
</g>
<!-- Node12 -->
<g id="node12" class="node"><title>Node12</title>
<g id="a_node12"><a xlink:href="../../db/d34/openni__listener_8cpp.html" target="_top" xlink:title="src/openni_listener.cpp">
<polygon fill="white" stroke="black" points="640.5,-0.5 640.5,-19.5 757.5,-19.5 757.5,-0.5 640.5,-0.5"/>
<text text-anchor="middle" x="699" y="-7.5" font-family="Helvetica,sans-Serif" font-size="10.00">src/openni_listener.cpp</text>
</a>
</g>
</g>
<!-- Node10&#45;&gt;Node12 -->
<g id="edge11" class="edge"><title>Node10&#45;&gt;Node12</title>
<path fill="none" stroke="midnightblue" d="M719.824,-47.2747C714.526,-38.0454 708.283,-27.1703 704.024,-19.7511"/>
<polygon fill="midnightblue" stroke="midnightblue" points="716.867,-49.153 724.881,-56.083 722.938,-45.6679 716.867,-49.153"/>
</g>
<!-- Node13&#45;&gt;Node11 -->
<g id="edge15" class="edge"><title>Node13&#45;&gt;Node11</title>
<path fill="none" stroke="midnightblue" d="M860.255,-162.537C849.612,-154.808 837.921,-144.336 831,-132 809.878,-94.354 810.307,-40.3275 811.39,-19.5707"/>
<polygon fill="midnightblue" stroke="midnightblue" points="858.585,-165.634 868.822,-168.365 862.523,-159.846 858.585,-165.634"/>
</g>
<!-- Node14 -->
<g id="node14" class="node"><title>Node14</title>
<g id="a_node14"><a xlink:href="../../df/dbf/glviewer_8cpp.html" target="_top" xlink:title="src/glviewer.cpp">
<polygon fill="white" stroke="black" points="840,-112.5 840,-131.5 928,-131.5 928,-112.5 840,-112.5"/>
<text text-anchor="middle" x="884" y="-119.5" font-family="Helvetica,sans-Serif" font-size="10.00">src/glviewer.cpp</text>
</a>
</g>
</g>
<!-- Node13&#45;&gt;Node14 -->
<g id="edge13" class="edge"><title>Node13&#45;&gt;Node14</title>
<path fill="none" stroke="midnightblue" d="M884,-157.805C884,-148.91 884,-138.78 884,-131.751"/>
<polygon fill="midnightblue" stroke="midnightblue" points="880.5,-158.083 884,-168.083 887.5,-158.083 880.5,-158.083"/>
</g>
<!-- Node15 -->
<g id="node15" class="node"><title>Node15</title>
<g id="a_node15"><a xlink:href="../../d1/d5d/glviewer2_8cpp.html" target="_top" xlink:title="src/glviewer2.cpp">
<polygon fill="white" stroke="black" points="945.5,-112.5 945.5,-131.5 1038.5,-131.5 1038.5,-112.5 945.5,-112.5"/>
<text text-anchor="middle" x="992" y="-119.5" font-family="Helvetica,sans-Serif" font-size="10.00">src/glviewer2.cpp</text>
</a>
</g>
</g>
<!-- Node13&#45;&gt;Node15 -->
<g id="edge14" class="edge"><title>Node13&#45;&gt;Node15</title>
<path fill="none" stroke="midnightblue" d="M910.548,-163.726C930.546,-153.727 957.387,-140.307 974.691,-131.655"/>
<polygon fill="midnightblue" stroke="midnightblue" points="908.731,-160.721 901.352,-168.324 911.862,-166.982 908.731,-160.721"/>
</g>
<!-- Node16 -->
<g id="node16" class="node"><title>Node16</title>
<g id="a_node16"><a xlink:href="../../d7/d3f/qt__gui_8cpp.html" target="_top" xlink:title="src/qt_gui.cpp">
<polygon fill="white" stroke="black" points="1057,-112.5 1057,-131.5 1135,-131.5 1135,-112.5 1057,-112.5"/>
<text text-anchor="middle" x="1096" y="-119.5" font-family="Helvetica,sans-Serif" font-size="10.00">src/qt_gui.cpp</text>
</a>
</g>
</g>
<!-- Node13&#45;&gt;Node16 -->
<g id="edge16" class="edge"><title>Node13&#45;&gt;Node16</title>
<path fill="none" stroke="midnightblue" d="M927.346,-165.959C967.387,-155.76 1026.03,-140.822 1062.57,-131.516"/>
<polygon fill="midnightblue" stroke="midnightblue" points="926.419,-162.583 917.592,-168.444 928.147,-169.367 926.419,-162.583"/>
</g>
</g>
</svg>
