<?xml version="1.0" encoding="UTF-8" standalone="no"?>
<!DOCTYPE svg PUBLIC "-//W3C//DTD SVG 1.1//EN"
 "http://www.w3.org/Graphics/SVG/1.1/DTD/svg11.dtd">
<!-- Generated by graphviz version 2.36.0 (20140111.2315)
 -->
<!-- Title: src/GlobalMapping/KeyFrameGraph.h Pages: 1 -->
<!--zoomable 108 -->
<svg id="main" version="1.1" xmlns="http://www.w3.org/2000/svg" xmlns:xlink="http://www.w3.org/1999/xlink" xml:space="preserve" onload="init(evt)">
<style type="text/css"><![CDATA[
.edge:hover path { stroke: red; }
.edge:hover polygon { stroke: red; fill: red; }
]]></style>
<script type="text/javascript"><![CDATA[
var edges = document.getElementsByTagName('g');
if (edges && edges.length) {
  for (var i=0;i<edges.length;i++) {
    if (edges[i].id.substr(0,4)=='edge') {
      edges[i].setAttribute('class','edge');
    }
  }
}
]]></script>
        <defs>
                <circle id="rim" cx="0" cy="0" r="7"/>
                <circle id="rim2" cx="0" cy="0" r="3.5"/>
                <g id="zoomPlus">
                        <use xlink:href="#rim" fill="#404040">
                                <set attributeName="fill" to="#808080" begin="zoomplus.mouseover" end="zoomplus.mouseout"/>
                        </use>
                        <path d="M-4,0h8M0,-4v8" fill="none" stroke="white" stroke-width="1.5" pointer-events="none"/>
                </g>
                <g id="zoomMin">
                        <use xlink:href="#rim" fill="#404040">
                                <set attributeName="fill" to="#808080" begin="zoomminus.mouseover" end="zoomminus.mouseout"/>
                        </use>
                        <path d="M-4,0h8" fill="none" stroke="white" stroke-width="1.5" pointer-events="none"/>
                </g>
                <g id="dirArrow">
                        <path fill="none" stroke="white" stroke-width="1.5" d="M0,-3.0v7 M-2.5,-0.5L0,-3.0L2.5,-0.5"/>
                </g>
               <g id="resetDef">
                       <use xlink:href="#rim2" fill="#404040">
                               <set attributeName="fill" to="#808080" begin="reset.mouseover" end="reset.mouseout"/>
                       </use>
               </g>
        </defs>

<script type="text/javascript">
var viewWidth = 1115;
var viewHeight = 108;
var sectionId = 'dynsection-1';
</script>
<script xlink:href="../../svgpan.js"/>
<svg id="graph" class="graph">
<g id="viewport">
<title>src/GlobalMapping/KeyFrameGraph.h</title>
<polygon fill="white" stroke="none" points="-4,4 -4,-104 1111,-104 1111,4 -4,4"/>
<!-- Node1 -->
<g id="node1" class="node"><title>Node1</title>
<polygon fill="#bfbfbf" stroke="black" points="461,-69 461,-99 607,-99 607,-69 461,-69"/>
<text text-anchor="start" x="469" y="-87" font-family="Helvetica,sans-Serif" font-size="10.00">src/GlobalMapping/KeyFrame</text>
<text text-anchor="middle" x="534" y="-76" font-family="Helvetica,sans-Serif" font-size="10.00">Graph.h</text>
</g>
<!-- Node2 -->
<g id="node2" class="node"><title>Node2</title>
<g id="a_node2"><a xlink:href="../../d8/d5e/DepthMap_8cpp.html" target="_top" xlink:title="src/DepthEstimation\l/DepthMap.cpp">
<polygon fill="white" stroke="black" points="0,-1 0,-31 106,-31 106,-1 0,-1"/>
<text text-anchor="start" x="8" y="-19" font-family="Helvetica,sans-Serif" font-size="10.00">src/DepthEstimation</text>
<text text-anchor="middle" x="53" y="-8" font-family="Helvetica,sans-Serif" font-size="10.00">/DepthMap.cpp</text>
</a>
</g>
</g>
<!-- Node1&#45;&gt;Node2 -->
<g id="edge1" class="edge"><title>Node1&#45;&gt;Node2</title>
<path fill="none" stroke="midnightblue" d="M450.855,-75.7543C366.002,-67.6875 230.713,-52.9664 115,-32 112.058,-31.4669 109.047,-30.8794 106.014,-30.2549"/>
<polygon fill="midnightblue" stroke="midnightblue" points="450.663,-79.2517 460.948,-76.705 451.32,-72.2825 450.663,-79.2517"/>
</g>
<!-- Node3 -->
<g id="node3" class="node"><title>Node3</title>
<g id="a_node3"><a xlink:href="../../d5/dd0/DepthMapPixelHypothesis_8cpp.html" target="_top" xlink:title="src/DepthEstimation\l/DepthMapPixelHypothesis.cpp">
<polygon fill="white" stroke="black" points="124.5,-1 124.5,-31 279.5,-31 279.5,-1 124.5,-1"/>
<text text-anchor="start" x="132.5" y="-19" font-family="Helvetica,sans-Serif" font-size="10.00">src/DepthEstimation</text>
<text text-anchor="middle" x="202" y="-8" font-family="Helvetica,sans-Serif" font-size="10.00">/DepthMapPixelHypothesis.cpp</text>
</a>
</g>
</g>
<!-- Node1&#45;&gt;Node3 -->
<g id="edge2" class="edge"><title>Node1&#45;&gt;Node3</title>
<path fill="none" stroke="midnightblue" d="M453.092,-66.9159C397.923,-55.9485 325.567,-41.5646 272.706,-31.0561"/>
<polygon fill="midnightblue" stroke="midnightblue" points="452.694,-70.4052 463.185,-68.9223 454.059,-63.5396 452.694,-70.4052"/>
</g>
<!-- Node4 -->
<g id="node4" class="node"><title>Node4</title>
<g id="a_node4"><a xlink:href="../../d7/d84/KeyFrameGraph_8cpp.html" target="_top" xlink:title="src/GlobalMapping/KeyFrame\lGraph.cpp">
<polygon fill="white" stroke="black" points="298,-1 298,-31 444,-31 444,-1 298,-1"/>
<text text-anchor="start" x="306" y="-19" font-family="Helvetica,sans-Serif" font-size="10.00">src/GlobalMapping/KeyFrame</text>
<text text-anchor="middle" x="371" y="-8" font-family="Helvetica,sans-Serif" font-size="10.00">Graph.cpp</text>
</a>
</g>
</g>
<!-- Node1&#45;&gt;Node4 -->
<g id="edge3" class="edge"><title>Node1&#45;&gt;Node4</title>
<path fill="none" stroke="midnightblue" d="M489.622,-65.0308C463.188,-54.3276 430.129,-40.9417 405.63,-31.0218"/>
<polygon fill="midnightblue" stroke="midnightblue" points="488.45,-68.3323 499.032,-68.8413 491.077,-61.844 488.45,-68.3323"/>
</g>
<!-- Node5 -->
<g id="node5" class="node"><title>Node5</title>
<g id="a_node5"><a xlink:href="../../d3/dd3/TrackableKeyFrameSearch_8cpp.html" target="_top" xlink:title="src/GlobalMapping/Trackable\lKeyFrameSearch.cpp">
<polygon fill="white" stroke="black" points="462.5,-1 462.5,-31 605.5,-31 605.5,-1 462.5,-1"/>
<text text-anchor="start" x="470.5" y="-19" font-family="Helvetica,sans-Serif" font-size="10.00">src/GlobalMapping/Trackable</text>
<text text-anchor="middle" x="534" y="-8" font-family="Helvetica,sans-Serif" font-size="10.00">KeyFrameSearch.cpp</text>
</a>
</g>
</g>
<!-- Node1&#45;&gt;Node5 -->
<g id="edge4" class="edge"><title>Node1&#45;&gt;Node5</title>
<path fill="none" stroke="midnightblue" d="M534,-58.5322C534,-49.3606 534,-39.2449 534,-31.2931"/>
<polygon fill="midnightblue" stroke="midnightblue" points="530.5,-58.6789 534,-68.679 537.5,-58.679 530.5,-58.6789"/>
</g>
<!-- Node6 -->
<g id="node6" class="node"><title>Node6</title>
<g id="a_node6"><a xlink:href="../../d5/d46/ROSOutput3DWrapper_8cpp.html" target="_top" xlink:title="src/IOWrapper/ROS/ROSOutput3\lDWrapper.cpp">
<polygon fill="white" stroke="black" points="624,-1 624,-31 788,-31 788,-1 624,-1"/>
<text text-anchor="start" x="632" y="-19" font-family="Helvetica,sans-Serif" font-size="10.00">src/IOWrapper/ROS/ROSOutput3</text>
<text text-anchor="middle" x="706" y="-8" font-family="Helvetica,sans-Serif" font-size="10.00">DWrapper.cpp</text>
</a>
</g>
</g>
<!-- Node1&#45;&gt;Node6 -->
<g id="edge5" class="edge"><title>Node1&#45;&gt;Node6</title>
<path fill="none" stroke="midnightblue" d="M580.462,-65.1715C608.416,-54.4451 643.493,-40.9852 669.458,-31.0218"/>
<polygon fill="midnightblue" stroke="midnightblue" points="578.981,-61.9911 570.898,-68.8413 581.488,-68.5265 578.981,-61.9911"/>
</g>
<!-- Node7 -->
<g id="node7" class="node"><title>Node7</title>
<g id="a_node7"><a xlink:href="../../de/dce/SlamSystem_8cpp.html" target="_top" xlink:title="src/SlamSystem.cpp">
<polygon fill="white" stroke="black" points="806,-6.5 806,-25.5 914,-25.5 914,-6.5 806,-6.5"/>
<text text-anchor="middle" x="860" y="-13.5" font-family="Helvetica,sans-Serif" font-size="10.00">src/SlamSystem.cpp</text>
</a>
</g>
</g>
<!-- Node1&#45;&gt;Node7 -->
<g id="edge6" class="edge"><title>Node1&#45;&gt;Node7</title>
<path fill="none" stroke="midnightblue" d="M617.154,-67.8042C668.989,-58.1017 737.011,-44.952 797,-32 806.232,-30.0068 816.188,-27.7067 825.399,-25.5156"/>
<polygon fill="midnightblue" stroke="midnightblue" points="616.198,-64.4221 607.01,-69.6977 617.483,-71.3033 616.198,-64.4221"/>
</g>
<!-- Node8 -->
<g id="node8" class="node"><title>Node8</title>
<g id="a_node8"><a xlink:href="../../de/db1/TrackingReference_8cpp.html" target="_top" xlink:title="src/Tracking/TrackingReference.cpp">
<polygon fill="white" stroke="black" points="932.5,-6.5 932.5,-25.5 1107.5,-25.5 1107.5,-6.5 932.5,-6.5"/>
<text text-anchor="middle" x="1020" y="-13.5" font-family="Helvetica,sans-Serif" font-size="10.00">src/Tracking/TrackingReference.cpp</text>
</a>
</g>
</g>
<!-- Node1&#45;&gt;Node8 -->
<g id="edge7" class="edge"><title>Node1&#45;&gt;Node8</title>
<path fill="none" stroke="midnightblue" d="M617.552,-72.6115C696.378,-62.6768 817.815,-47.026 923,-32 937.086,-29.9878 952.302,-27.6924 966.414,-25.5127"/>
<polygon fill="midnightblue" stroke="midnightblue" points="616.683,-69.1933 607.198,-73.9145 617.557,-76.1385 616.683,-69.1933"/>
</g>
</g>
</svg>
        <g id="navigator" transform="translate(0 0)" fill="#404254">
                <rect fill="#f2f5e9" fill-opacity="0.5" stroke="#606060" stroke-width=".5" x="0" y="0" width="60" height="60"/>
                <use id="zoomplus" xlink:href="#zoomPlus" x="17" y="9" onmousedown="handleZoom(evt,'in')"/>
                <use id="zoomminus" xlink:href="#zoomMin" x="42" y="9" onmousedown="handleZoom(evt,'out')"/>
                <use id="reset" xlink:href="#resetDef" x="30" y="36" onmousedown="handleReset()"/>
                <g id="arrowUp" xlink:href="#dirArrow" transform="translate(30 24)" onmousedown="handlePan(0,-1)">
                  <use xlink:href="#rim" fill="#404040">
                        <set attributeName="fill" to="#808080" begin="arrowUp.mouseover" end="arrowUp.mouseout"/>
                  </use>
                  <path fill="none" stroke="white" stroke-width="1.5" d="M0,-3.0v7 M-2.5,-0.5L0,-3.0L2.5,-0.5"/>
                </g>
                <g id="arrowRight" xlink:href="#dirArrow" transform="rotate(90) translate(36 -43)" onmousedown="handlePan(1,0)">
                  <use xlink:href="#rim" fill="#404040">
                        <set attributeName="fill" to="#808080" begin="arrowRight.mouseover" end="arrowRight.mouseout"/>
                  </use>
                  <path fill="none" stroke="white" stroke-width="1.5" d="M0,-3.0v7 M-2.5,-0.5L0,-3.0L2.5,-0.5"/>
                </g>
                <g id="arrowDown" xlink:href="#dirArrow" transform="rotate(180) translate(-30 -48)" onmousedown="handlePan(0,1)">
                  <use xlink:href="#rim" fill="#404040">
                        <set attributeName="fill" to="#808080" begin="arrowDown.mouseover" end="arrowDown.mouseout"/>
                  </use>
                  <path fill="none" stroke="white" stroke-width="1.5" d="M0,-3.0v7 M-2.5,-0.5L0,-3.0L2.5,-0.5"/>
                </g>
                <g id="arrowLeft" xlink:href="#dirArrow" transform="rotate(270) translate(-36 17)" onmousedown="handlePan(-1,0)">
                  <use xlink:href="#rim" fill="#404040">
                        <set attributeName="fill" to="#808080" begin="arrowLeft.mouseover" end="arrowLeft.mouseout"/>
                  </use>
                  <path fill="none" stroke="white" stroke-width="1.5" d="M0,-3.0v7 M-2.5,-0.5L0,-3.0L2.5,-0.5"/>
                </g>
        </g>
        <svg viewBox="0 0 15 15" width="100%" height="30px" preserveAspectRatio="xMaxYMin meet">
         <g id="arrow_out" transform="scale(0.3 0.3)">
          <a xlink:href="KeyFrameGraph_8h__dep__incl_org.svg" target="_base">
           <rect id="button" ry="5" rx="5" y="6" x="6" height="38" width="38"
                fill="#f2f5e9" fill-opacity="0.5" stroke="#606060" stroke-width="1.0"/>
           <path id="arrow"
             d="M 11.500037,31.436501 C 11.940474,20.09759 22.043105,11.32322 32.158766,21.979434 L 37.068811,17.246167 C 37.068811,17.246167 37.088388,32 37.088388,32 L 22.160133,31.978069 C 22.160133,31.978069 26.997745,27.140456 26.997745,27.140456 C 18.528582,18.264221 13.291696,25.230495 11.500037,31.436501 z"
             style="fill:#404040;"/>
          </a>
         </g>
        </svg>
</svg>
