<?xml version="1.0" encoding="UTF-8" standalone="no"?>
<!DOCTYPE svg PUBLIC "-//W3C//DTD SVG 1.1//EN"
 "http://www.w3.org/Graphics/SVG/1.1/DTD/svg11.dtd">
<!-- Generated by graphviz version 2.36.0 (20140111.2315)
 -->
<!-- Title: src/DataStructures/FrameMemory.h Pages: 1 -->
<svg width="2111pt" height="176pt"
 viewBox="0.00 0.00 2111.00 176.00" xmlns="http://www.w3.org/2000/svg" xmlns:xlink="http://www.w3.org/1999/xlink">
<g id="graph0" class="graph" transform="scale(1 1) rotate(0) translate(4 172)">
<title>src/DataStructures/FrameMemory.h</title>
<polygon fill="white" stroke="none" points="-4,4 -4,-172 2107,-172 2107,4 -4,4"/>
<!-- Node1 -->
<g id="node1" class="node"><title>Node1</title>
<polygon fill="#bfbfbf" stroke="black" points="669.5,-137 669.5,-167 768.5,-167 768.5,-137 669.5,-137"/>
<text text-anchor="start" x="677.5" y="-155" font-family="Helvetica,sans-Serif" font-size="10.00">src/DataStructures</text>
<text text-anchor="middle" x="719" y="-144" font-family="Helvetica,sans-Serif" font-size="10.00">/FrameMemory.h</text>
</g>
<!-- Node2 -->
<g id="node2" class="node"><title>Node2</title>
<g id="a_node2"><a xlink:href="../../d5/de0/Frame_8cpp.html" target="_top" xlink:title="src/DataStructures\l/Frame.cpp">
<polygon fill="white" stroke="black" points="-0.5,-1 -0.5,-31 98.5,-31 98.5,-1 -0.5,-1"/>
<text text-anchor="start" x="7.5" y="-19" font-family="Helvetica,sans-Serif" font-size="10.00">src/DataStructures</text>
<text text-anchor="middle" x="49" y="-8" font-family="Helvetica,sans-Serif" font-size="10.00">/Frame.cpp</text>
</a>
</g>
</g>
<!-- Node1&#45;&gt;Node2 -->
<g id="edge1" class="edge"><title>Node1&#45;&gt;Node2</title>
<path fill="none" stroke="midnightblue" d="M659.114,-144.193C589.507,-135.827 471.351,-120.217 371,-100 252.223,-76.0704 224.319,-62.2797 107,-32 104.281,-31.2982 101.49,-30.5776 98.6732,-29.8499"/>
<polygon fill="midnightblue" stroke="midnightblue" points="659.097,-147.716 669.441,-145.424 659.925,-140.765 659.097,-147.716"/>
</g>
<!-- Node3 -->
<g id="node3" class="node"><title>Node3</title>
<g id="a_node3"><a xlink:href="../../d7/db3/Frame_8h.html" target="_top" xlink:title="src/DataStructures\l/Frame.h">
<polygon fill="white" stroke="black" points="853.5,-69 853.5,-99 952.5,-99 952.5,-69 853.5,-69"/>
<text text-anchor="start" x="861.5" y="-87" font-family="Helvetica,sans-Serif" font-size="10.00">src/DataStructures</text>
<text text-anchor="middle" x="903" y="-76" font-family="Helvetica,sans-Serif" font-size="10.00">/Frame.h</text>
</a>
</g>
</g>
<!-- Node1&#45;&gt;Node3 -->
<g id="edge2" class="edge"><title>Node1&#45;&gt;Node3</title>
<path fill="none" stroke="midnightblue" d="M767.922,-133.452C797.951,-122.68 835.89,-109.072 863.909,-99.0218"/>
<polygon fill="midnightblue" stroke="midnightblue" points="766.704,-130.17 758.473,-136.841 769.067,-136.759 766.704,-130.17"/>
</g>
<!-- Node4 -->
<g id="node4" class="node"><title>Node4</title>
<g id="a_node4"><a xlink:href="../../d6/d4d/FrameMemory_8cpp.html" target="_top" xlink:title="src/DataStructures\l/FrameMemory.cpp">
<polygon fill="white" stroke="black" points="116.5,-1 116.5,-31 217.5,-31 217.5,-1 116.5,-1"/>
<text text-anchor="start" x="124.5" y="-19" font-family="Helvetica,sans-Serif" font-size="10.00">src/DataStructures</text>
<text text-anchor="middle" x="167" y="-8" font-family="Helvetica,sans-Serif" font-size="10.00">/FrameMemory.cpp</text>
</a>
</g>
</g>
<!-- Node1&#45;&gt;Node4 -->
<g id="edge17" class="edge"><title>Node1&#45;&gt;Node4</title>
<path fill="none" stroke="midnightblue" d="M659.505,-136.885C566.792,-114.834 382.26,-70.721 226,-32 223.23,-31.3136 220.388,-30.6052 217.52,-29.887"/>
<polygon fill="midnightblue" stroke="midnightblue" points="658.729,-140.298 669.268,-139.206 660.349,-133.488 658.729,-140.298"/>
</g>
<!-- Node11 -->
<g id="node11" class="node"><title>Node11</title>
<g id="a_node11"><a xlink:href="../../de/dce/SlamSystem_8cpp.html" target="_top" xlink:title="src/SlamSystem.cpp">
<polygon fill="white" stroke="black" points="1995,-6.5 1995,-25.5 2103,-25.5 2103,-6.5 1995,-6.5"/>
<text text-anchor="middle" x="2049" y="-13.5" font-family="Helvetica,sans-Serif" font-size="10.00">src/SlamSystem.cpp</text>
</a>
</g>
</g>
<!-- Node1&#45;&gt;Node11 -->
<g id="edge18" class="edge"><title>Node1&#45;&gt;Node11</title>
<path fill="none" stroke="midnightblue" d="M778.702,-148.368C960.817,-139.704 1524.93,-108.156 1986,-32 1996.21,-30.3143 2007.21,-27.903 2017.13,-25.5052"/>
<polygon fill="midnightblue" stroke="midnightblue" points="778.356,-144.88 768.531,-148.847 778.685,-151.873 778.356,-144.88"/>
</g>
<!-- Node3&#45;&gt;Node2 -->
<g id="edge3" class="edge"><title>Node3&#45;&gt;Node2</title>
<path fill="none" stroke="midnightblue" d="M842.874,-83.0123C709.528,-82.1972 379.263,-75.5269 107,-32 104.227,-31.5567 101.394,-31.04 98.5439,-30.4704"/>
<polygon fill="midnightblue" stroke="midnightblue" points="843.251,-86.5142 853.269,-83.0662 843.288,-79.5143 843.251,-86.5142"/>
</g>
<!-- Node3&#45;&gt;Node4 -->
<g id="edge4" class="edge"><title>Node3&#45;&gt;Node4</title>
<path fill="none" stroke="midnightblue" d="M843.074,-81.9738C724.49,-79.1761 451.83,-68.9257 226,-32 223.288,-31.5566 220.518,-31.0485 217.731,-30.4935"/>
<polygon fill="midnightblue" stroke="midnightblue" points="843.307,-85.4799 853.384,-82.2072 843.466,-78.4817 843.307,-85.4799"/>
</g>
<!-- Node5 -->
<g id="node5" class="node"><title>Node5</title>
<g id="a_node5"><a xlink:href="../../d1/d10/FramePoseStruct_8cpp.html" target="_top" xlink:title="src/DataStructures\l/FramePoseStruct.cpp">
<polygon fill="white" stroke="black" points="567.5,-1 567.5,-31 682.5,-31 682.5,-1 567.5,-1"/>
<text text-anchor="start" x="575.5" y="-19" font-family="Helvetica,sans-Serif" font-size="10.00">src/DataStructures</text>
<text text-anchor="middle" x="625" y="-8" font-family="Helvetica,sans-Serif" font-size="10.00">/FramePoseStruct.cpp</text>
</a>
</g>
</g>
<!-- Node3&#45;&gt;Node5 -->
<g id="edge5" class="edge"><title>Node3&#45;&gt;Node5</title>
<path fill="none" stroke="midnightblue" d="M843.469,-68.8667C796.015,-57.6006 729.951,-41.9164 682.924,-30.7517"/>
<polygon fill="midnightblue" stroke="midnightblue" points="842.761,-72.2959 853.299,-71.2005 844.378,-65.4852 842.761,-72.2959"/>
</g>
<!-- Node6 -->
<g id="node6" class="node"><title>Node6</title>
<g id="a_node6"><a xlink:href="../../d8/d5e/DepthMap_8cpp.html" target="_top" xlink:title="src/DepthEstimation\l/DepthMap.cpp">
<polygon fill="white" stroke="black" points="701,-1 701,-31 807,-31 807,-1 701,-1"/>
<text text-anchor="start" x="709" y="-19" font-family="Helvetica,sans-Serif" font-size="10.00">src/DepthEstimation</text>
<text text-anchor="middle" x="754" y="-8" font-family="Helvetica,sans-Serif" font-size="10.00">/DepthMap.cpp</text>
</a>
</g>
</g>
<!-- Node3&#45;&gt;Node6 -->
<g id="edge6" class="edge"><title>Node3&#45;&gt;Node6</title>
<path fill="none" stroke="midnightblue" d="M861.796,-64.7485C837.74,-54.093 807.854,-40.8547 785.655,-31.0218"/>
<polygon fill="midnightblue" stroke="midnightblue" points="860.475,-67.9914 871.036,-68.8413 863.31,-61.5912 860.475,-67.9914"/>
</g>
<!-- Node7 -->
<g id="node7" class="node"><title>Node7</title>
<g id="a_node7"><a xlink:href="../../d5/dd0/DepthMapPixelHypothesis_8cpp.html" target="_top" xlink:title="src/DepthEstimation\l/DepthMapPixelHypothesis.cpp">
<polygon fill="white" stroke="black" points="825.5,-1 825.5,-31 980.5,-31 980.5,-1 825.5,-1"/>
<text text-anchor="start" x="833.5" y="-19" font-family="Helvetica,sans-Serif" font-size="10.00">src/DepthEstimation</text>
<text text-anchor="middle" x="903" y="-8" font-family="Helvetica,sans-Serif" font-size="10.00">/DepthMapPixelHypothesis.cpp</text>
</a>
</g>
</g>
<!-- Node3&#45;&gt;Node7 -->
<g id="edge7" class="edge"><title>Node3&#45;&gt;Node7</title>
<path fill="none" stroke="midnightblue" d="M903,-58.5322C903,-49.3606 903,-39.2449 903,-31.2931"/>
<polygon fill="midnightblue" stroke="midnightblue" points="899.5,-58.6789 903,-68.679 906.5,-58.679 899.5,-58.6789"/>
</g>
<!-- Node8 -->
<g id="node8" class="node"><title>Node8</title>
<g id="a_node8"><a xlink:href="../../d7/d84/KeyFrameGraph_8cpp.html" target="_top" xlink:title="src/GlobalMapping/KeyFrame\lGraph.cpp">
<polygon fill="white" stroke="black" points="999,-1 999,-31 1145,-31 1145,-1 999,-1"/>
<text text-anchor="start" x="1007" y="-19" font-family="Helvetica,sans-Serif" font-size="10.00">src/GlobalMapping/KeyFrame</text>
<text text-anchor="middle" x="1072" y="-8" font-family="Helvetica,sans-Serif" font-size="10.00">Graph.cpp</text>
</a>
</g>
</g>
<!-- Node3&#45;&gt;Node8 -->
<g id="edge8" class="edge"><title>Node3&#45;&gt;Node8</title>
<path fill="none" stroke="midnightblue" d="M948.652,-65.1715C976.118,-54.4451 1010.58,-40.9852 1036.1,-31.0218"/>
<polygon fill="midnightblue" stroke="midnightblue" points="947.296,-61.9433 939.255,-68.8413 949.843,-68.4637 947.296,-61.9433"/>
</g>
<!-- Node9 -->
<g id="node9" class="node"><title>Node9</title>
<g id="a_node9"><a xlink:href="../../d3/dd3/TrackableKeyFrameSearch_8cpp.html" target="_top" xlink:title="src/GlobalMapping/Trackable\lKeyFrameSearch.cpp">
<polygon fill="white" stroke="black" points="1163.5,-1 1163.5,-31 1306.5,-31 1306.5,-1 1163.5,-1"/>
<text text-anchor="start" x="1171.5" y="-19" font-family="Helvetica,sans-Serif" font-size="10.00">src/GlobalMapping/Trackable</text>
<text text-anchor="middle" x="1235" y="-8" font-family="Helvetica,sans-Serif" font-size="10.00">KeyFrameSearch.cpp</text>
</a>
</g>
</g>
<!-- Node3&#45;&gt;Node9 -->
<g id="edge9" class="edge"><title>Node3&#45;&gt;Node9</title>
<path fill="none" stroke="midnightblue" d="M962.58,-71.1558C1019.19,-59.9026 1104.34,-42.975 1164.34,-31.0463"/>
<polygon fill="midnightblue" stroke="midnightblue" points="961.829,-67.7364 952.704,-73.1191 963.194,-74.6021 961.829,-67.7364"/>
</g>
<!-- Node10 -->
<g id="node10" class="node"><title>Node10</title>
<g id="a_node10"><a xlink:href="../../d5/d46/ROSOutput3DWrapper_8cpp.html" target="_top" xlink:title="src/IOWrapper/ROS/ROSOutput3\lDWrapper.cpp">
<polygon fill="white" stroke="black" points="1325,-1 1325,-31 1489,-31 1489,-1 1325,-1"/>
<text text-anchor="start" x="1333" y="-19" font-family="Helvetica,sans-Serif" font-size="10.00">src/IOWrapper/ROS/ROSOutput3</text>
<text text-anchor="middle" x="1407" y="-8" font-family="Helvetica,sans-Serif" font-size="10.00">DWrapper.cpp</text>
</a>
</g>
</g>
<!-- Node3&#45;&gt;Node10 -->
<g id="edge10" class="edge"><title>Node3&#45;&gt;Node10</title>
<path fill="none" stroke="midnightblue" d="M962.952,-76.3108C1043.23,-67.186 1190.05,-49.9129 1315,-32 1318.2,-31.5407 1321.47,-31.0616 1324.77,-30.5686"/>
<polygon fill="midnightblue" stroke="midnightblue" points="962.091,-72.8859 952.549,-77.49 962.879,-79.8414 962.091,-72.8859"/>
</g>
<!-- Node3&#45;&gt;Node11 -->
<g id="edge11" class="edge"><title>Node3&#45;&gt;Node11</title>
<path fill="none" stroke="midnightblue" d="M962.957,-81.6514C1159.93,-76.9892 1785.96,-60.2713 1986,-32 1996.58,-30.5053 2007.98,-28.0543 2018.14,-25.5626"/>
<polygon fill="midnightblue" stroke="midnightblue" points="962.715,-78.156 952.8,-81.8901 962.88,-85.1541 962.715,-78.156"/>
</g>
<!-- Node12 -->
<g id="node12" class="node"><title>Node12</title>
<g id="a_node12"><a xlink:href="../../d0/df5/Relocalizer_8cpp.html" target="_top" xlink:title="src/Tracking/Relocalizer.cpp">
<polygon fill="white" stroke="black" points="1507.5,-6.5 1507.5,-25.5 1648.5,-25.5 1648.5,-6.5 1507.5,-6.5"/>
<text text-anchor="middle" x="1578" y="-13.5" font-family="Helvetica,sans-Serif" font-size="10.00">src/Tracking/Relocalizer.cpp</text>
</a>
</g>
</g>
<!-- Node3&#45;&gt;Node12 -->
<g id="edge12" class="edge"><title>Node3&#45;&gt;Node12</title>
<path fill="none" stroke="midnightblue" d="M962.544,-79.8696C1069.91,-73.7864 1302.95,-58.5783 1498,-32 1510.6,-30.2829 1524.23,-27.9192 1536.61,-25.5758"/>
<polygon fill="midnightblue" stroke="midnightblue" points="962.34,-76.3755 952.551,-80.4299 962.732,-83.3645 962.34,-76.3755"/>
</g>
<!-- Node13 -->
<g id="node13" class="node"><title>Node13</title>
<g id="a_node13"><a xlink:href="../../d6/d91/SE3Tracker_8cpp.html" target="_top" xlink:title="src/Tracking/SE3Tracker.cpp">
<polygon fill="white" stroke="black" points="1667,-6.5 1667,-25.5 1811,-25.5 1811,-6.5 1667,-6.5"/>
<text text-anchor="middle" x="1739" y="-13.5" font-family="Helvetica,sans-Serif" font-size="10.00">src/Tracking/SE3Tracker.cpp</text>
</a>
</g>
</g>
<!-- Node3&#45;&gt;Node13 -->
<g id="edge13" class="edge"><title>Node3&#45;&gt;Node13</title>
<path fill="none" stroke="midnightblue" d="M962.943,-81.2544C1090.87,-77.0226 1399.94,-64.1003 1657,-32 1670.21,-30.3502 1684.52,-27.9489 1697.43,-25.5494"/>
<polygon fill="midnightblue" stroke="midnightblue" points="962.469,-77.7678 952.588,-81.5909 962.697,-84.7642 962.469,-77.7678"/>
</g>
<!-- Node14 -->
<g id="node14" class="node"><title>Node14</title>
<g id="a_node14"><a xlink:href="../../d6/dec/Sim3Tracker_8cpp.html" target="_top" xlink:title="src/Tracking/Sim3Tracker.cpp">
<polygon fill="white" stroke="black" points="1829,-6.5 1829,-25.5 1977,-25.5 1977,-6.5 1829,-6.5"/>
<text text-anchor="middle" x="1903" y="-13.5" font-family="Helvetica,sans-Serif" font-size="10.00">src/Tracking/Sim3Tracker.cpp</text>
</a>
</g>
</g>
<!-- Node3&#45;&gt;Node14 -->
<g id="edge14" class="edge"><title>Node3&#45;&gt;Node14</title>
<path fill="none" stroke="midnightblue" d="M963.032,-82.2176C1109.81,-79.7493 1498.34,-69.8639 1820,-32 1833.52,-30.4079 1848.18,-27.993 1861.35,-25.5632"/>
<polygon fill="midnightblue" stroke="midnightblue" points="962.828,-78.7203 952.887,-82.3828 962.942,-85.7194 962.828,-78.7203"/>
</g>
<!-- Node15 -->
<g id="node15" class="node"><title>Node15</title>
<g id="a_node15"><a xlink:href="../../de/db1/TrackingReference_8cpp.html" target="_top" xlink:title="src/Tracking/TrackingReference.cpp">
<polygon fill="white" stroke="black" points="235.5,-6.5 235.5,-25.5 410.5,-25.5 410.5,-6.5 235.5,-6.5"/>
<text text-anchor="middle" x="323" y="-13.5" font-family="Helvetica,sans-Serif" font-size="10.00">src/Tracking/TrackingReference.cpp</text>
</a>
</g>
</g>
<!-- Node3&#45;&gt;Node15 -->
<g id="edge15" class="edge"><title>Node3&#45;&gt;Node15</title>
<path fill="none" stroke="midnightblue" d="M843.022,-77.6046C751.601,-69.169 571.969,-51.7617 420,-32 405.383,-30.0992 389.57,-27.7704 375.037,-25.5199"/>
<polygon fill="midnightblue" stroke="midnightblue" points="842.914,-81.1094 853.192,-78.5396 843.555,-74.1388 842.914,-81.1094"/>
</g>
<!-- Node16 -->
<g id="node16" class="node"><title>Node16</title>
<g id="a_node16"><a xlink:href="../../de/dc8/globalFuncs_8cpp.html" target="_top" xlink:title="src/util/globalFuncs.cpp">
<polygon fill="white" stroke="black" points="429,-6.5 429,-25.5 549,-25.5 549,-6.5 429,-6.5"/>
<text text-anchor="middle" x="489" y="-13.5" font-family="Helvetica,sans-Serif" font-size="10.00">src/util/globalFuncs.cpp</text>
</a>
</g>
</g>
<!-- Node3&#45;&gt;Node16 -->
<g id="edge16" class="edge"><title>Node3&#45;&gt;Node16</title>
<path fill="none" stroke="midnightblue" d="M843.175,-75.3997C774.215,-66.351 657.572,-50.1615 558,-32 547.628,-30.1083 536.438,-27.7947 526.15,-25.5563"/>
<polygon fill="midnightblue" stroke="midnightblue" points="843.04,-78.9117 853.409,-76.736 843.947,-71.9706 843.04,-78.9117"/>
</g>
</g>
</svg>
