<?xml version="1.0" encoding="UTF-8" standalone="no"?>
<!DOCTYPE svg PUBLIC "-//W3C//DTD SVG 1.1//EN"
 "http://www.w3.org/Graphics/SVG/1.1/DTD/svg11.dtd">
<!-- Generated by graphviz version 2.36.0 (20140111.2315)
 -->
<!-- Title: external/gicp/ann_1.1.2/src/kd_util.cpp Pages: 1 -->
<svg width="373pt" height="320pt"
 viewBox="0.00 0.00 373.00 320.00" xmlns="http://www.w3.org/2000/svg" xmlns:xlink="http://www.w3.org/1999/xlink">
<g id="graph0" class="graph" transform="scale(1 1) rotate(0) translate(4 316)">
<title>external/gicp/ann_1.1.2/src/kd_util.cpp</title>
<polygon fill="white" stroke="none" points="-4,4 -4,-316 369,-316 369,4 -4,4"/>
<!-- Node1 -->
<g id="node1" class="node"><title>Node1</title>
<polygon fill="#bfbfbf" stroke="black" points="86,-281 86,-311 204,-311 204,-281 86,-281"/>
<text text-anchor="start" x="94" y="-299" font-family="Helvetica,sans-Serif" font-size="10.00">external/gicp/ann_1.1.2</text>
<text text-anchor="middle" x="145" y="-288" font-family="Helvetica,sans-Serif" font-size="10.00">/src/kd_util.cpp</text>
</g>
<!-- Node2 -->
<g id="node2" class="node"><title>Node2</title>
<g id="a_node2"><a xlink:href="../../d7/de2/kd__util_8h.html" target="_top" xlink:title="kd_util.h">
<polygon fill="white" stroke="black" points="82.5,-224.5 82.5,-243.5 135.5,-243.5 135.5,-224.5 82.5,-224.5"/>
<text text-anchor="middle" x="109" y="-231.5" font-family="Helvetica,sans-Serif" font-size="10.00">kd_util.h</text>
</a>
</g>
</g>
<!-- Node1&#45;&gt;Node2 -->
<g id="edge1" class="edge"><title>Node1&#45;&gt;Node2</title>
<path fill="none" stroke="midnightblue" d="M136.469,-280.781C131.399,-272.332 124.929,-261.548 119.542,-252.569"/>
<polygon fill="midnightblue" stroke="midnightblue" points="122.385,-250.505 114.238,-243.731 116.382,-254.106 122.385,-250.505"/>
</g>
<!-- Node13 -->
<g id="node13" class="node"><title>Node13</title>
<g id="a_node13"><a xlink:href="../../da/d50/ANNperf_8h.html" target="_top" xlink:title="ANN/ANNperf.h">
<polygon fill="white" stroke="black" points="147,-168.5 147,-187.5 235,-187.5 235,-168.5 147,-168.5"/>
<text text-anchor="middle" x="191" y="-175.5" font-family="Helvetica,sans-Serif" font-size="10.00">ANN/ANNperf.h</text>
</a>
</g>
</g>
<!-- Node1&#45;&gt;Node13 -->
<g id="edge12" class="edge"><title>Node1&#45;&gt;Node13</title>
<path fill="none" stroke="midnightblue" d="M150.641,-280.776C159.004,-259.686 174.689,-220.132 183.848,-197.036"/>
<polygon fill="midnightblue" stroke="midnightblue" points="187.114,-198.293 187.547,-187.707 180.607,-195.713 187.114,-198.293"/>
</g>
<!-- Node3 -->
<g id="node3" class="node"><title>Node3</title>
<g id="a_node3"><a xlink:href="../../da/dd0/kd__tree_8h.html" target="_top" xlink:title="kd_tree.h">
<polygon fill="white" stroke="black" points="71.5,-168.5 71.5,-187.5 128.5,-187.5 128.5,-168.5 71.5,-168.5"/>
<text text-anchor="middle" x="100" y="-175.5" font-family="Helvetica,sans-Serif" font-size="10.00">kd_tree.h</text>
</a>
</g>
</g>
<!-- Node2&#45;&gt;Node3 -->
<g id="edge2" class="edge"><title>Node2&#45;&gt;Node3</title>
<path fill="none" stroke="midnightblue" d="M107.514,-224.083C106.321,-216.927 104.606,-206.635 103.115,-197.691"/>
<polygon fill="midnightblue" stroke="midnightblue" points="106.555,-197.04 101.459,-187.751 99.6502,-198.19 106.555,-197.04"/>
</g>
<!-- Node4 -->
<g id="node4" class="node"><title>Node4</title>
<g id="a_node4"><a xlink:href="../../d5/d32/ANNx_8h.html" target="_top" xlink:title="ANN/ANNx.h">
<polygon fill="white" stroke="black" points="67.5,-112.5 67.5,-131.5 144.5,-131.5 144.5,-112.5 67.5,-112.5"/>
<text text-anchor="middle" x="106" y="-119.5" font-family="Helvetica,sans-Serif" font-size="10.00">ANN/ANNx.h</text>
</a>
</g>
</g>
<!-- Node3&#45;&gt;Node4 -->
<g id="edge3" class="edge"><title>Node3&#45;&gt;Node4</title>
<path fill="none" stroke="midnightblue" d="M100.991,-168.083C101.786,-160.927 102.929,-150.635 103.923,-141.691"/>
<polygon fill="midnightblue" stroke="midnightblue" points="107.402,-142.076 105.028,-131.751 100.445,-141.303 107.402,-142.076"/>
</g>
<!-- Node5 -->
<g id="node5" class="node"><title>Node5</title>
<polygon fill="white" stroke="#bfbfbf" points="81,-56.5 81,-75.5 131,-75.5 131,-56.5 81,-56.5"/>
<text text-anchor="middle" x="106" y="-63.5" font-family="Helvetica,sans-Serif" font-size="10.00">iomanip</text>
</g>
<!-- Node4&#45;&gt;Node5 -->
<g id="edge4" class="edge"><title>Node4&#45;&gt;Node5</title>
<path fill="none" stroke="midnightblue" d="M106,-112.083C106,-105.006 106,-94.8611 106,-85.9865"/>
<polygon fill="midnightblue" stroke="midnightblue" points="109.5,-85.751 106,-75.7511 102.5,-85.7511 109.5,-85.751"/>
</g>
<!-- Node6 -->
<g id="node6" class="node"><title>Node6</title>
<g id="a_node6"><a xlink:href="../../d8/da9/ANN_8h.html" target="_top" xlink:title="ANN/ANN.h">
<polygon fill="white" stroke="black" points="150.5,-56.5 150.5,-75.5 221.5,-75.5 221.5,-56.5 150.5,-56.5"/>
<text text-anchor="middle" x="186" y="-63.5" font-family="Helvetica,sans-Serif" font-size="10.00">ANN/ANN.h</text>
</a>
</g>
</g>
<!-- Node4&#45;&gt;Node6 -->
<g id="edge5" class="edge"><title>Node4&#45;&gt;Node6</title>
<path fill="none" stroke="midnightblue" d="M118.853,-112.324C131.216,-103.979 150.13,-91.2122 164.737,-81.3524"/>
<polygon fill="midnightblue" stroke="midnightblue" points="166.848,-84.1503 173.179,-75.6545 162.932,-78.3483 166.848,-84.1503"/>
</g>
<!-- Node7 -->
<g id="node7" class="node"><title>Node7</title>
<polygon fill="white" stroke="#bfbfbf" points="-0.5,-0.5 -0.5,-19.5 44.5,-19.5 44.5,-0.5 -0.5,-0.5"/>
<text text-anchor="middle" x="22" y="-7.5" font-family="Helvetica,sans-Serif" font-size="10.00">cstdlib</text>
</g>
<!-- Node6&#45;&gt;Node7 -->
<g id="edge6" class="edge"><title>Node6&#45;&gt;Node7</title>
<path fill="none" stroke="midnightblue" d="M160.014,-56.4435C131.45,-47.0385 85.5172,-31.9142 54.5698,-21.7242"/>
<polygon fill="midnightblue" stroke="midnightblue" points="55.2888,-18.2762 44.6958,-18.473 53.0995,-24.925 55.2888,-18.2762"/>
</g>
<!-- Node8 -->
<g id="node8" class="node"><title>Node8</title>
<polygon fill="white" stroke="#bfbfbf" points="63,-0.5 63,-19.5 107,-19.5 107,-0.5 63,-0.5"/>
<text text-anchor="middle" x="85" y="-7.5" font-family="Helvetica,sans-Serif" font-size="10.00">cmath</text>
</g>
<!-- Node6&#45;&gt;Node8 -->
<g id="edge7" class="edge"><title>Node6&#45;&gt;Node8</title>
<path fill="none" stroke="midnightblue" d="M169.773,-56.324C153.649,-47.7034 128.7,-34.3643 110.036,-24.3855"/>
<polygon fill="midnightblue" stroke="midnightblue" points="111.656,-21.283 101.187,-19.6545 108.356,-27.456 111.656,-21.283"/>
</g>
<!-- Node9 -->
<g id="node9" class="node"><title>Node9</title>
<polygon fill="white" stroke="#bfbfbf" points="125,-0.5 125,-19.5 179,-19.5 179,-0.5 125,-0.5"/>
<text text-anchor="middle" x="152" y="-7.5" font-family="Helvetica,sans-Serif" font-size="10.00">iostream</text>
</g>
<!-- Node6&#45;&gt;Node9 -->
<g id="edge8" class="edge"><title>Node6&#45;&gt;Node9</title>
<path fill="none" stroke="midnightblue" d="M180.386,-56.083C175.633,-48.5341 168.682,-37.4948 162.848,-28.2298"/>
<polygon fill="midnightblue" stroke="midnightblue" points="165.8,-26.3486 157.51,-19.7511 159.876,-30.0783 165.8,-26.3486"/>
</g>
<!-- Node10 -->
<g id="node10" class="node"><title>Node10</title>
<polygon fill="white" stroke="#bfbfbf" points="197,-0.5 197,-19.5 243,-19.5 243,-0.5 197,-0.5"/>
<text text-anchor="middle" x="220" y="-7.5" font-family="Helvetica,sans-Serif" font-size="10.00">cstring</text>
</g>
<!-- Node6&#45;&gt;Node10 -->
<g id="edge9" class="edge"><title>Node6&#45;&gt;Node10</title>
<path fill="none" stroke="midnightblue" d="M191.614,-56.083C196.367,-48.5341 203.318,-37.4948 209.152,-28.2298"/>
<polygon fill="midnightblue" stroke="midnightblue" points="212.124,-30.0783 214.49,-19.7511 206.2,-26.3486 212.124,-30.0783"/>
</g>
<!-- Node11 -->
<g id="node11" class="node"><title>Node11</title>
<polygon fill="white" stroke="#bfbfbf" points="261.5,-0.5 261.5,-19.5 306.5,-19.5 306.5,-0.5 261.5,-0.5"/>
<text text-anchor="middle" x="284" y="-7.5" font-family="Helvetica,sans-Serif" font-size="10.00">climits</text>
</g>
<!-- Node6&#45;&gt;Node11 -->
<g id="edge10" class="edge"><title>Node6&#45;&gt;Node11</title>
<path fill="none" stroke="midnightblue" d="M201.745,-56.324C217.319,-47.7428 241.377,-34.486 259.459,-24.5224"/>
<polygon fill="midnightblue" stroke="midnightblue" points="261.224,-27.546 268.294,-19.6545 257.846,-21.4152 261.224,-27.546"/>
</g>
<!-- Node12 -->
<g id="node12" class="node"><title>Node12</title>
<polygon fill="white" stroke="#bfbfbf" points="324.5,-0.5 324.5,-19.5 365.5,-19.5 365.5,-0.5 324.5,-0.5"/>
<text text-anchor="middle" x="345" y="-7.5" font-family="Helvetica,sans-Serif" font-size="10.00">cfloat</text>
</g>
<!-- Node6&#45;&gt;Node12 -->
<g id="edge11" class="edge"><title>Node6&#45;&gt;Node12</title>
<path fill="none" stroke="midnightblue" d="M211.194,-56.4435C239.359,-46.8782 284.942,-31.3969 314.945,-21.2075"/>
<polygon fill="midnightblue" stroke="midnightblue" points="316.131,-24.501 324.474,-17.971 313.88,-17.8728 316.131,-24.501"/>
</g>
<!-- Node13&#45;&gt;Node6 -->
<g id="edge13" class="edge"><title>Node13&#45;&gt;Node6</title>
<path fill="none" stroke="midnightblue" d="M190.608,-168.368C189.801,-150.617 187.939,-109.666 186.845,-85.5974"/>
<polygon fill="midnightblue" stroke="midnightblue" points="190.341,-85.4221 186.391,-75.5914 183.348,-85.7401 190.341,-85.4221"/>
</g>
</g>
</svg>
