<?xml version="1.0" encoding="UTF-8" standalone="no"?>
<!DOCTYPE svg PUBLIC "-//W3C//DTD SVG 1.1//EN"
 "http://www.w3.org/Graphics/SVG/1.1/DTD/svg11.dtd">
<!-- Generated by graphviz version 2.36.0 (20140111.2315)
 -->
<!-- Title: src/util/globalFuncs.cpp Pages: 1 -->
<!--zoomable 568 -->
<svg id="main" version="1.1" xmlns="http://www.w3.org/2000/svg" xmlns:xlink="http://www.w3.org/1999/xlink" xml:space="preserve" onload="init(evt)">
<style type="text/css"><![CDATA[
.edge:hover path { stroke: red; }
.edge:hover polygon { stroke: red; fill: red; }
]]></style>
<script type="text/javascript"><![CDATA[
var edges = document.getElementsByTagName('g');
if (edges && edges.length) {
  for (var i=0;i<edges.length;i++) {
    if (edges[i].id.substr(0,4)=='edge') {
      edges[i].setAttribute('class','edge');
    }
  }
}
]]></script>
        <defs>
                <circle id="rim" cx="0" cy="0" r="7"/>
                <circle id="rim2" cx="0" cy="0" r="3.5"/>
                <g id="zoomPlus">
                        <use xlink:href="#rim" fill="#404040">
                                <set attributeName="fill" to="#808080" begin="zoomplus.mouseover" end="zoomplus.mouseout"/>
                        </use>
                        <path d="M-4,0h8M0,-4v8" fill="none" stroke="white" stroke-width="1.5" pointer-events="none"/>
                </g>
                <g id="zoomMin">
                        <use xlink:href="#rim" fill="#404040">
                                <set attributeName="fill" to="#808080" begin="zoomminus.mouseover" end="zoomminus.mouseout"/>
                        </use>
                        <path d="M-4,0h8" fill="none" stroke="white" stroke-width="1.5" pointer-events="none"/>
                </g>
                <g id="dirArrow">
                        <path fill="none" stroke="white" stroke-width="1.5" d="M0,-3.0v7 M-2.5,-0.5L0,-3.0L2.5,-0.5"/>
                </g>
               <g id="resetDef">
                       <use xlink:href="#rim2" fill="#404040">
                               <set attributeName="fill" to="#808080" begin="reset.mouseover" end="reset.mouseout"/>
                       </use>
               </g>
        </defs>

<script type="text/javascript">
var viewWidth = 1417;
var viewHeight = 568;
var sectionId = 'dynsection-0';
</script>
<script xlink:href="../../svgpan.js"/>
<svg id="graph" class="graph">
<g id="viewport">
<title>src/util/globalFuncs.cpp</title>
<polygon fill="white" stroke="none" points="-4,4 -4,-564 1413,-564 1413,4 -4,4"/>
<!-- Node1 -->
<g id="node1" class="node"><title>Node1</title>
<polygon fill="#bfbfbf" stroke="black" points="662,-540.5 662,-559.5 782,-559.5 782,-540.5 662,-540.5"/>
<text text-anchor="middle" x="722" y="-547.5" font-family="Helvetica,sans-Serif" font-size="10.00">src/util/globalFuncs.cpp</text>
</g>
<!-- Node2 -->
<g id="node2" class="node"><title>Node2</title>
<g id="a_node2"><a xlink:href="../../d7/dd7/globalFuncs_8h.html" target="_top" xlink:title="util/globalFuncs.h">
<polygon fill="white" stroke="black" points="317.5,-484.5 317.5,-503.5 410.5,-503.5 410.5,-484.5 317.5,-484.5"/>
<text text-anchor="middle" x="364" y="-491.5" font-family="Helvetica,sans-Serif" font-size="10.00">util/globalFuncs.h</text>
</a>
</g>
</g>
<!-- Node1&#45;&gt;Node2 -->
<g id="edge1" class="edge"><title>Node1&#45;&gt;Node2</title>
<path fill="none" stroke="midnightblue" d="M665.274,-540.444C598.324,-530.345 487.661,-513.653 420.716,-503.555"/>
<polygon fill="midnightblue" stroke="midnightblue" points="421.174,-500.084 410.763,-502.054 420.13,-507.006 421.174,-500.084"/>
</g>
<!-- Node11 -->
<g id="node11" class="node"><title>Node11</title>
<g id="a_node11"><a xlink:href="../../d2/d13/SophusUtil_8h.html" target="_top" xlink:title="util/SophusUtil.h">
<polygon fill="white" stroke="black" points="931.5,-286.5 931.5,-305.5 1020.5,-305.5 1020.5,-286.5 931.5,-286.5"/>
<text text-anchor="middle" x="976" y="-293.5" font-family="Helvetica,sans-Serif" font-size="10.00">util/SophusUtil.h</text>
</a>
</g>
</g>
<!-- Node1&#45;&gt;Node11 -->
<g id="edge24" class="edge"><title>Node1&#45;&gt;Node11</title>
<path fill="none" stroke="midnightblue" d="M701.324,-540.462C638.086,-513.222 455.666,-425.617 525,-348 550.994,-318.901 806.737,-304.301 921.157,-299.183"/>
<polygon fill="midnightblue" stroke="midnightblue" points="921.611,-302.666 931.448,-298.731 921.304,-295.673 921.611,-302.666"/>
</g>
<!-- Node20 -->
<g id="node20" class="node"><title>Node20</title>
<polygon fill="white" stroke="#bfbfbf" points="1017.5,-484.5 1017.5,-503.5 1124.5,-503.5 1124.5,-484.5 1017.5,-484.5"/>
<text text-anchor="middle" x="1071" y="-491.5" font-family="Helvetica,sans-Serif" font-size="10.00">opencv2/opencv.hpp</text>
</g>
<!-- Node1&#45;&gt;Node20 -->
<g id="edge25" class="edge"><title>Node1&#45;&gt;Node20</title>
<path fill="none" stroke="midnightblue" d="M777.3,-540.444C839.787,-530.775 941.337,-515.063 1007.15,-504.88"/>
<polygon fill="midnightblue" stroke="midnightblue" points="1008.04,-508.283 1017.39,-503.295 1006.97,-501.365 1008.04,-508.283"/>
</g>
<!-- Node21 -->
<g id="node21" class="node"><title>Node21</title>
<g id="a_node21"><a xlink:href="../../d7/db3/Frame_8h.html" target="_top" xlink:title="DataStructures/Frame.h">
<polygon fill="white" stroke="black" points="877,-484.5 877,-503.5 999,-503.5 999,-484.5 877,-484.5"/>
<text text-anchor="middle" x="938" y="-491.5" font-family="Helvetica,sans-Serif" font-size="10.00">DataStructures/Frame.h</text>
</a>
</g>
</g>
<!-- Node1&#45;&gt;Node21 -->
<g id="edge26" class="edge"><title>Node1&#45;&gt;Node21</title>
<path fill="none" stroke="midnightblue" d="M756.226,-540.444C793.512,-531.122 853.269,-516.183 894.011,-505.997"/>
<polygon fill="midnightblue" stroke="midnightblue" points="895.082,-509.337 903.934,-503.516 893.384,-502.546 895.082,-509.337"/>
</g>
<!-- Node3 -->
<g id="node3" class="node"><title>Node3</title>
<polygon fill="white" stroke="#bfbfbf" points="0,-354.5 0,-373.5 116,-373.5 116,-354.5 0,-354.5"/>
<text text-anchor="middle" x="58" y="-361.5" font-family="Helvetica,sans-Serif" font-size="10.00">opencv2/core/core.hpp</text>
</g>
<!-- Node2&#45;&gt;Node3 -->
<g id="edge2" class="edge"><title>Node2&#45;&gt;Node3</title>
<path fill="none" stroke="midnightblue" d="M317.317,-488.395C256.237,-481.69 153.188,-467.838 121,-448 95.4265,-432.239 76.5224,-402.003 66.3955,-382.701"/>
<polygon fill="midnightblue" stroke="midnightblue" points="69.516,-381.116 61.911,-373.739 63.256,-384.248 69.516,-381.116"/>
</g>
<!-- Node4 -->
<g id="node4" class="node"><title>Node4</title>
<g id="a_node4"><a xlink:href="../../de/d60/settings_8h.html" target="_top" xlink:title="util/settings.h">
<polygon fill="white" stroke="black" points="326.5,-422.5 326.5,-441.5 401.5,-441.5 401.5,-422.5 326.5,-422.5"/>
<text text-anchor="middle" x="364" y="-429.5" font-family="Helvetica,sans-Serif" font-size="10.00">util/settings.h</text>
</a>
</g>
</g>
<!-- Node2&#45;&gt;Node4 -->
<g id="edge3" class="edge"><title>Node2&#45;&gt;Node4</title>
<path fill="none" stroke="midnightblue" d="M364,-484.403C364,-475.938 364,-462.728 364,-451.82"/>
<polygon fill="midnightblue" stroke="midnightblue" points="367.5,-451.581 364,-441.581 360.5,-451.581 367.5,-451.581"/>
</g>
<!-- Node7 -->
<g id="node7" class="node"><title>Node7</title>
<g id="a_node7"><a xlink:href="../../da/d15/TimestampedObject_8h.html" target="_top" xlink:title="IOWrapper/TimestampedObject.h">
<polygon fill="white" stroke="black" points="130.5,-422.5 130.5,-441.5 293.5,-441.5 293.5,-422.5 130.5,-422.5"/>
<text text-anchor="middle" x="212" y="-429.5" font-family="Helvetica,sans-Serif" font-size="10.00">IOWrapper/TimestampedObject.h</text>
</a>
</g>
</g>
<!-- Node2&#45;&gt;Node7 -->
<g id="edge6" class="edge"><title>Node2&#45;&gt;Node7</title>
<path fill="none" stroke="midnightblue" d="M342.222,-484.403C316.262,-474.156 272.689,-456.956 243.165,-445.302"/>
<polygon fill="midnightblue" stroke="midnightblue" points="244.324,-441.997 233.737,-441.581 241.754,-448.508 244.324,-441.997"/>
</g>
<!-- Node2&#45;&gt;Node11 -->
<g id="edge13" class="edge"><title>Node2&#45;&gt;Node11</title>
<path fill="none" stroke="midnightblue" d="M373.461,-484.322C382.976,-475.464 397.926,-461.181 410,-448 448.823,-405.618 441.409,-375.277 492,-348 564.948,-308.669 810.306,-299.669 921.004,-297.61"/>
<polygon fill="midnightblue" stroke="midnightblue" points="921.348,-301.105 931.286,-297.432 921.227,-294.106 921.348,-301.105"/>
</g>
<!-- Node5 -->
<g id="node5" class="node"><title>Node5</title>
<polygon fill="white" stroke="#bfbfbf" points="352.5,-354.5 352.5,-373.5 401.5,-373.5 401.5,-354.5 352.5,-354.5"/>
<text text-anchor="middle" x="377" y="-361.5" font-family="Helvetica,sans-Serif" font-size="10.00">string.h</text>
</g>
<!-- Node4&#45;&gt;Node5 -->
<g id="edge4" class="edge"><title>Node4&#45;&gt;Node5</title>
<path fill="none" stroke="midnightblue" d="M365.7,-422.372C367.616,-412.643 370.79,-396.528 373.287,-383.85"/>
<polygon fill="midnightblue" stroke="midnightblue" points="376.76,-384.329 375.259,-373.841 369.892,-382.976 376.76,-384.329"/>
</g>
<!-- Node6 -->
<g id="node6" class="node"><title>Node6</title>
<polygon fill="white" stroke="#bfbfbf" points="247.5,-286.5 247.5,-305.5 288.5,-305.5 288.5,-286.5 247.5,-286.5"/>
<text text-anchor="middle" x="268" y="-293.5" font-family="Helvetica,sans-Serif" font-size="10.00">string</text>
</g>
<!-- Node4&#45;&gt;Node6 -->
<g id="edge5" class="edge"><title>Node4&#45;&gt;Node6</title>
<path fill="none" stroke="midnightblue" d="M357.701,-422.208C341.968,-400.246 300.735,-342.692 280.111,-313.905"/>
<polygon fill="midnightblue" stroke="midnightblue" points="282.866,-311.741 274.197,-305.65 277.176,-315.818 282.866,-311.741"/>
</g>
<!-- Node7&#45;&gt;Node3 -->
<g id="edge8" class="edge"><title>Node7&#45;&gt;Node3</title>
<path fill="none" stroke="midnightblue" d="M191.867,-422.372C165.235,-410.958 118.098,-390.756 87.4588,-377.625"/>
<polygon fill="midnightblue" stroke="midnightblue" points="88.7079,-374.353 78.1378,-373.63 85.9505,-380.787 88.7079,-374.353"/>
</g>
<!-- Node8 -->
<g id="node8" class="node"><title>Node8</title>
<polygon fill="white" stroke="#bfbfbf" points="135,-286.5 135,-305.5 181,-305.5 181,-286.5 135,-286.5"/>
<text text-anchor="middle" x="158" y="-293.5" font-family="Helvetica,sans-Serif" font-size="10.00">chrono</text>
</g>
<!-- Node7&#45;&gt;Node8 -->
<g id="edge7" class="edge"><title>Node7&#45;&gt;Node8</title>
<path fill="none" stroke="midnightblue" d="M199.821,-422.455C188.051,-413.419 170.881,-397.996 163,-380 153.974,-359.39 154.085,-333.11 155.553,-315.704"/>
<polygon fill="midnightblue" stroke="midnightblue" points="159.04,-316.013 156.632,-305.696 152.08,-315.263 159.04,-316.013"/>
</g>
<!-- Node9 -->
<g id="node9" class="node"><title>Node9</title>
<g id="a_node9"><a xlink:href="../../d7/d66/Timestamp_8h.html" target="_top" xlink:title="IOWrapper/Timestamp.h">
<polygon fill="white" stroke="black" points="172,-354.5 172,-373.5 296,-373.5 296,-354.5 172,-354.5"/>
<text text-anchor="middle" x="234" y="-361.5" font-family="Helvetica,sans-Serif" font-size="10.00">IOWrapper/Timestamp.h</text>
</a>
</g>
</g>
<!-- Node7&#45;&gt;Node9 -->
<g id="edge9" class="edge"><title>Node7&#45;&gt;Node9</title>
<path fill="none" stroke="midnightblue" d="M214.876,-422.372C218.152,-412.544 223.599,-396.202 227.844,-383.467"/>
<polygon fill="midnightblue" stroke="midnightblue" points="231.211,-384.435 231.053,-373.841 224.57,-382.221 231.211,-384.435"/>
</g>
<!-- Node9&#45;&gt;Node6 -->
<g id="edge10" class="edge"><title>Node9&#45;&gt;Node6</title>
<path fill="none" stroke="midnightblue" d="M238.445,-354.372C243.558,-344.446 252.095,-327.874 258.683,-315.086"/>
<polygon fill="midnightblue" stroke="midnightblue" points="261.977,-316.334 263.445,-305.841 255.754,-313.128 261.977,-316.334"/>
</g>
<!-- Node9&#45;&gt;Node8 -->
<g id="edge11" class="edge"><title>Node9&#45;&gt;Node8</title>
<path fill="none" stroke="midnightblue" d="M224.064,-354.372C211.843,-343.758 190.87,-325.545 175.832,-312.485"/>
<polygon fill="midnightblue" stroke="midnightblue" points="178.026,-309.755 168.181,-305.841 173.436,-315.041 178.026,-309.755"/>
</g>
<!-- Node10 -->
<g id="node10" class="node"><title>Node10</title>
<polygon fill="white" stroke="#bfbfbf" points="374.5,-286.5 374.5,-305.5 493.5,-305.5 493.5,-286.5 374.5,-286.5"/>
<text text-anchor="middle" x="434" y="-293.5" font-family="Helvetica,sans-Serif" font-size="10.00">boost/thread/mutex.hpp</text>
</g>
<!-- Node9&#45;&gt;Node10 -->
<g id="edge12" class="edge"><title>Node9&#45;&gt;Node10</title>
<path fill="none" stroke="midnightblue" d="M260.147,-354.372C295.579,-342.679 358.963,-321.762 398.623,-308.674"/>
<polygon fill="midnightblue" stroke="midnightblue" points="399.765,-311.983 408.164,-305.526 397.571,-305.336 399.765,-311.983"/>
</g>
<!-- Node12 -->
<g id="node12" class="node"><title>Node12</title>
<g id="a_node12"><a xlink:href="../../dc/d5c/sim3_8hpp.html" target="_top" xlink:title="sophus/sim3.hpp">
<polygon fill="white" stroke="black" points="885.5,-224.5 885.5,-243.5 976.5,-243.5 976.5,-224.5 885.5,-224.5"/>
<text text-anchor="middle" x="931" y="-231.5" font-family="Helvetica,sans-Serif" font-size="10.00">sophus/sim3.hpp</text>
</a>
</g>
</g>
<!-- Node11&#45;&gt;Node12 -->
<g id="edge14" class="edge"><title>Node11&#45;&gt;Node12</title>
<path fill="none" stroke="midnightblue" d="M969.553,-286.403C962.803,-277.403 952.031,-263.041 943.587,-251.782"/>
<polygon fill="midnightblue" stroke="midnightblue" points="946.235,-249.481 937.435,-243.581 940.635,-253.681 946.235,-249.481"/>
</g>
<!-- Node19 -->
<g id="node19" class="node"><title>Node19</title>
<g id="a_node19"><a xlink:href="../../d4/d4b/se3_8hpp.html" target="_top" xlink:title="sophus/se3.hpp">
<polygon fill="white" stroke="black" points="975,-168.5 975,-187.5 1061,-187.5 1061,-168.5 975,-168.5"/>
<text text-anchor="middle" x="1018" y="-175.5" font-family="Helvetica,sans-Serif" font-size="10.00">sophus/se3.hpp</text>
</a>
</g>
</g>
<!-- Node11&#45;&gt;Node19 -->
<g id="edge22" class="edge"><title>Node11&#45;&gt;Node19</title>
<path fill="none" stroke="midnightblue" d="M979.157,-286.281C986.001,-267.379 1002.32,-222.295 1011.48,-197"/>
<polygon fill="midnightblue" stroke="midnightblue" points="1014.81,-198.099 1014.92,-187.505 1008.23,-195.716 1014.81,-198.099"/>
</g>
<!-- Node13 -->
<g id="node13" class="node"><title>Node13</title>
<g id="a_node13"><a xlink:href="../../d7/d6a/rxso3_8hpp.html" target="_top" xlink:title="rxso3.hpp">
<polygon fill="white" stroke="black" points="897.5,-168.5 897.5,-187.5 956.5,-187.5 956.5,-168.5 897.5,-168.5"/>
<text text-anchor="middle" x="927" y="-175.5" font-family="Helvetica,sans-Serif" font-size="10.00">rxso3.hpp</text>
</a>
</g>
</g>
<!-- Node12&#45;&gt;Node13 -->
<g id="edge15" class="edge"><title>Node12&#45;&gt;Node13</title>
<path fill="none" stroke="midnightblue" d="M930.339,-224.083C929.815,-217.006 929.064,-206.861 928.406,-197.986"/>
<polygon fill="midnightblue" stroke="midnightblue" points="931.877,-197.465 927.648,-187.751 924.897,-197.982 931.877,-197.465"/>
</g>
<!-- Node14 -->
<g id="node14" class="node"><title>Node14</title>
<g id="a_node14"><a xlink:href="../../d7/dc1/sophus_8hpp.html" target="_top" xlink:title="sophus.hpp">
<polygon fill="white" stroke="black" points="920.5,-56.5 920.5,-75.5 987.5,-75.5 987.5,-56.5 920.5,-56.5"/>
<text text-anchor="middle" x="954" y="-63.5" font-family="Helvetica,sans-Serif" font-size="10.00">sophus.hpp</text>
</a>
</g>
</g>
<!-- Node13&#45;&gt;Node14 -->
<g id="edge16" class="edge"><title>Node13&#45;&gt;Node14</title>
<path fill="none" stroke="midnightblue" d="M929.119,-168.368C933.476,-150.617 943.527,-109.666 949.435,-85.5974"/>
<polygon fill="midnightblue" stroke="midnightblue" points="952.906,-86.1375 951.891,-75.5914 946.108,-84.4688 952.906,-86.1375"/>
</g>
<!-- Node18 -->
<g id="node18" class="node"><title>Node18</title>
<g id="a_node18"><a xlink:href="../../de/de9/so3_8hpp.html" target="_top" xlink:title="so3.hpp">
<polygon fill="white" stroke="black" points="955.5,-112.5 955.5,-131.5 1006.5,-131.5 1006.5,-112.5 955.5,-112.5"/>
<text text-anchor="middle" x="981" y="-119.5" font-family="Helvetica,sans-Serif" font-size="10.00">so3.hpp</text>
</a>
</g>
</g>
<!-- Node13&#45;&gt;Node18 -->
<g id="edge20" class="edge"><title>Node13&#45;&gt;Node18</title>
<path fill="none" stroke="midnightblue" d="M935.917,-168.083C943.78,-160.22 955.431,-148.569 964.919,-139.081"/>
<polygon fill="midnightblue" stroke="midnightblue" points="967.653,-141.297 972.249,-131.751 962.703,-136.347 967.653,-141.297"/>
</g>
<!-- Node15 -->
<g id="node15" class="node"><title>Node15</title>
<polygon fill="white" stroke="#bfbfbf" points="842.5,-0.5 842.5,-19.5 901.5,-19.5 901.5,-0.5 842.5,-0.5"/>
<text text-anchor="middle" x="872" y="-7.5" font-family="Helvetica,sans-Serif" font-size="10.00">stdexcept</text>
</g>
<!-- Node14&#45;&gt;Node15 -->
<g id="edge17" class="edge"><title>Node14&#45;&gt;Node15</title>
<path fill="none" stroke="midnightblue" d="M940.825,-56.324C928.153,-47.979 908.767,-35.2122 893.794,-25.3524"/>
<polygon fill="midnightblue" stroke="midnightblue" points="895.419,-22.2313 885.142,-19.6545 891.569,-28.0776 895.419,-22.2313"/>
</g>
<!-- Node16 -->
<g id="node16" class="node"><title>Node16</title>
<polygon fill="white" stroke="#bfbfbf" points="919.5,-0.5 919.5,-19.5 988.5,-19.5 988.5,-0.5 919.5,-0.5"/>
<text text-anchor="middle" x="954" y="-7.5" font-family="Helvetica,sans-Serif" font-size="10.00">Eigen/Eigen</text>
</g>
<!-- Node14&#45;&gt;Node16 -->
<g id="edge18" class="edge"><title>Node14&#45;&gt;Node16</title>
<path fill="none" stroke="midnightblue" d="M954,-56.083C954,-49.0059 954,-38.8611 954,-29.9865"/>
<polygon fill="midnightblue" stroke="midnightblue" points="957.5,-29.751 954,-19.7511 950.5,-29.7511 957.5,-29.751"/>
</g>
<!-- Node17 -->
<g id="node17" class="node"><title>Node17</title>
<polygon fill="white" stroke="#bfbfbf" points="1006.5,-0.5 1006.5,-19.5 1093.5,-19.5 1093.5,-0.5 1006.5,-0.5"/>
<text text-anchor="middle" x="1050" y="-7.5" font-family="Helvetica,sans-Serif" font-size="10.00">Eigen/Geometry</text>
</g>
<!-- Node14&#45;&gt;Node17 -->
<g id="edge19" class="edge"><title>Node14&#45;&gt;Node17</title>
<path fill="none" stroke="midnightblue" d="M969.424,-56.324C984.54,-47.8215 1007.82,-34.7288 1025.47,-24.7975"/>
<polygon fill="midnightblue" stroke="midnightblue" points="1027.61,-27.6077 1034.61,-19.6545 1024.18,-21.5066 1027.61,-27.6077"/>
</g>
<!-- Node18&#45;&gt;Node14 -->
<g id="edge21" class="edge"><title>Node18&#45;&gt;Node14</title>
<path fill="none" stroke="midnightblue" d="M976.541,-112.083C972.846,-104.691 967.477,-93.9533 962.906,-84.8111"/>
<polygon fill="midnightblue" stroke="midnightblue" points="965.978,-83.1301 958.376,-75.7511 959.717,-86.2606 965.978,-83.1301"/>
</g>
<!-- Node19&#45;&gt;Node18 -->
<g id="edge23" class="edge"><title>Node19&#45;&gt;Node18</title>
<path fill="none" stroke="midnightblue" d="M1011.89,-168.083C1006.72,-160.534 999.154,-149.495 992.806,-140.23"/>
<polygon fill="midnightblue" stroke="midnightblue" points="995.536,-138.022 986.996,-131.751 989.761,-141.979 995.536,-138.022"/>
</g>
<!-- Node21&#45;&gt;Node4 -->
<g id="edge28" class="edge"><title>Node21&#45;&gt;Node4</title>
<path fill="none" stroke="midnightblue" d="M876.844,-486.607C761.921,-474.595 515.955,-448.884 411.981,-438.015"/>
<polygon fill="midnightblue" stroke="midnightblue" points="412.091,-434.508 401.782,-436.949 411.363,-441.47 412.091,-434.508"/>
</g>
<!-- Node21&#45;&gt;Node11 -->
<g id="edge27" class="edge"><title>Node21&#45;&gt;Node11</title>
<path fill="none" stroke="midnightblue" d="M944.935,-484.309C958.879,-466.211 989.925,-422.608 1001,-380 1004.58,-366.235 1004.21,-361.855 1001,-348 998.255,-336.165 992.362,-323.91 986.987,-314.379"/>
<polygon fill="midnightblue" stroke="midnightblue" points="989.857,-312.358 981.726,-305.566 983.846,-315.946 989.857,-312.358"/>
</g>
<!-- Node22 -->
<g id="node22" class="node"><title>Node22</title>
<polygon fill="white" stroke="#bfbfbf" points="1254.5,-417 1254.5,-447 1367.5,-447 1367.5,-417 1254.5,-417"/>
<text text-anchor="start" x="1262.5" y="-435" font-family="Helvetica,sans-Serif" font-size="10.00">boost/thread/recursive</text>
<text text-anchor="middle" x="1311" y="-424" font-family="Helvetica,sans-Serif" font-size="10.00">_mutex.hpp</text>
</g>
<!-- Node21&#45;&gt;Node22 -->
<g id="edge29" class="edge"><title>Node21&#45;&gt;Node22</title>
<path fill="none" stroke="midnightblue" d="M999.115,-484.618C1070.46,-474.738 1185.19,-458.53 1244.18,-448.036"/>
<polygon fill="midnightblue" stroke="midnightblue" points="1244.97,-451.449 1254.18,-446.21 1243.71,-444.563 1244.97,-451.449"/>
</g>
<!-- Node23 -->
<g id="node23" class="node"><title>Node23</title>
<polygon fill="white" stroke="#bfbfbf" points="889.5,-349 889.5,-379 992.5,-379 992.5,-349 889.5,-349"/>
<text text-anchor="start" x="897.5" y="-367" font-family="Helvetica,sans-Serif" font-size="10.00">boost/thread/shared</text>
<text text-anchor="middle" x="941" y="-356" font-family="Helvetica,sans-Serif" font-size="10.00">_mutex.hpp</text>
</g>
<!-- Node21&#45;&gt;Node23 -->
<g id="edge30" class="edge"><title>Node21&#45;&gt;Node23</title>
<path fill="none" stroke="midnightblue" d="M938.206,-484.202C938.659,-464.87 939.755,-418.114 940.432,-389.239"/>
<polygon fill="midnightblue" stroke="midnightblue" points="943.933,-389.222 940.669,-379.143 936.935,-389.058 943.933,-389.222"/>
</g>
<!-- Node24 -->
<g id="node24" class="node"><title>Node24</title>
<g id="a_node24"><a xlink:href="../../db/d75/FramePoseStruct_8h.html" target="_top" xlink:title="DataStructures/FramePose\lStruct.h">
<polygon fill="white" stroke="black" points="1100,-417 1100,-447 1236,-447 1236,-417 1100,-417"/>
<text text-anchor="start" x="1108" y="-435" font-family="Helvetica,sans-Serif" font-size="10.00">DataStructures/FramePose</text>
<text text-anchor="middle" x="1168" y="-424" font-family="Helvetica,sans-Serif" font-size="10.00">Struct.h</text>
</a>
</g>
</g>
<!-- Node21&#45;&gt;Node24 -->
<g id="edge31" class="edge"><title>Node21&#45;&gt;Node24</title>
<path fill="none" stroke="midnightblue" d="M970.953,-484.403C1005.64,-475.355 1061.1,-460.886 1104.36,-449.6"/>
<polygon fill="midnightblue" stroke="midnightblue" points="1105.44,-452.936 1114.24,-447.025 1103.68,-446.163 1105.44,-452.936"/>
</g>
<!-- Node29 -->
<g id="node29" class="node"><title>Node29</title>
<g id="a_node29"><a xlink:href="../../dd/d8b/FrameMemory_8h.html" target="_top" xlink:title="DataStructures/FrameMemory.h">
<polygon fill="white" stroke="black" points="693.5,-422.5 693.5,-441.5 850.5,-441.5 850.5,-422.5 693.5,-422.5"/>
<text text-anchor="middle" x="772" y="-429.5" font-family="Helvetica,sans-Serif" font-size="10.00">DataStructures/FrameMemory.h</text>
</a>
</g>
</g>
<!-- Node21&#45;&gt;Node29 -->
<g id="edge38" class="edge"><title>Node21&#45;&gt;Node29</title>
<path fill="none" stroke="midnightblue" d="M914.216,-484.403C885.618,-474.067 837.449,-456.656 805.198,-444.999"/>
<polygon fill="midnightblue" stroke="midnightblue" points="806.334,-441.688 795.74,-441.581 803.954,-448.271 806.334,-441.688"/>
</g>
<!-- Node35 -->
<g id="node35" class="node"><title>Node35</title>
<polygon fill="white" stroke="#bfbfbf" points="1004,-422.5 1004,-441.5 1082,-441.5 1082,-422.5 1004,-422.5"/>
<text text-anchor="middle" x="1043" y="-429.5" font-family="Helvetica,sans-Serif" font-size="10.00">unordered_set</text>
</g>
<!-- Node21&#45;&gt;Node35 -->
<g id="edge46" class="edge"><title>Node21&#45;&gt;Node35</title>
<path fill="none" stroke="midnightblue" d="M953.044,-484.403C970.275,-474.557 998.74,-458.291 1019.03,-446.695"/>
<polygon fill="midnightblue" stroke="midnightblue" points="1021.04,-449.581 1027.98,-441.581 1017.57,-443.503 1021.04,-449.581"/>
</g>
<!-- Node24&#45;&gt;Node11 -->
<g id="edge32" class="edge"><title>Node24&#45;&gt;Node11</title>
<path fill="none" stroke="midnightblue" d="M1144.64,-416.976C1128.28,-406.992 1106.04,-393.08 1087,-380 1053.88,-357.245 1016.74,-328.859 994.913,-311.871"/>
<polygon fill="midnightblue" stroke="midnightblue" points="996.85,-308.943 986.816,-305.543 992.54,-314.459 996.85,-308.943"/>
</g>
<!-- Node25 -->
<g id="node25" class="node"><title>Node25</title>
<g id="a_node25"><a xlink:href="../../d0/dca/g2oTypeSim3Sophus_8h.html" target="_top" xlink:title="GlobalMapping/g2oTypeSim3\lSophus.h">
<polygon fill="white" stroke="black" points="1096,-349 1096,-379 1240,-379 1240,-349 1096,-349"/>
<text text-anchor="start" x="1104" y="-367" font-family="Helvetica,sans-Serif" font-size="10.00">GlobalMapping/g2oTypeSim3</text>
<text text-anchor="middle" x="1168" y="-356" font-family="Helvetica,sans-Serif" font-size="10.00">Sophus.h</text>
</a>
</g>
</g>
<!-- Node24&#45;&gt;Node25 -->
<g id="edge33" class="edge"><title>Node24&#45;&gt;Node25</title>
<path fill="none" stroke="midnightblue" d="M1168,-416.679C1168,-408.722 1168,-398.605 1168,-389.436"/>
<polygon fill="midnightblue" stroke="midnightblue" points="1171.5,-389.293 1168,-379.293 1164.5,-389.293 1171.5,-389.293"/>
</g>
<!-- Node25&#45;&gt;Node11 -->
<g id="edge34" class="edge"><title>Node25&#45;&gt;Node11</title>
<path fill="none" stroke="midnightblue" d="M1126.81,-348.841C1092.16,-336.93 1043.18,-320.094 1010.55,-308.876"/>
<polygon fill="midnightblue" stroke="midnightblue" points="1011.57,-305.528 1000.98,-305.587 1009.3,-312.148 1011.57,-305.528"/>
</g>
<!-- Node26 -->
<g id="node26" class="node"><title>Node26</title>
<polygon fill="white" stroke="#bfbfbf" points="1161.5,-286.5 1161.5,-305.5 1280.5,-305.5 1280.5,-286.5 1161.5,-286.5"/>
<text text-anchor="middle" x="1221" y="-293.5" font-family="Helvetica,sans-Serif" font-size="10.00">g2o/core/base_vertex.h</text>
</g>
<!-- Node25&#45;&gt;Node26 -->
<g id="edge35" class="edge"><title>Node25&#45;&gt;Node26</title>
<path fill="none" stroke="midnightblue" d="M1179.5,-348.679C1187.76,-338.388 1198.93,-324.484 1207.6,-313.69"/>
<polygon fill="midnightblue" stroke="midnightblue" points="1210.38,-315.817 1213.91,-305.828 1204.92,-311.434 1210.38,-315.817"/>
</g>
<!-- Node27 -->
<g id="node27" class="node"><title>Node27</title>
<polygon fill="white" stroke="#bfbfbf" points="1299,-281 1299,-311 1409,-311 1409,-281 1299,-281"/>
<text text-anchor="start" x="1307" y="-299" font-family="Helvetica,sans-Serif" font-size="10.00">g2o/core/base_binary</text>
<text text-anchor="middle" x="1354" y="-288" font-family="Helvetica,sans-Serif" font-size="10.00">_edge.h</text>
</g>
<!-- Node25&#45;&gt;Node27 -->
<g id="edge36" class="edge"><title>Node25&#45;&gt;Node27</title>
<path fill="none" stroke="midnightblue" d="M1207.9,-348.841C1236.32,-338.759 1274.68,-325.147 1304.96,-314.402"/>
<polygon fill="midnightblue" stroke="midnightblue" points="1306.23,-317.664 1314.48,-311.022 1303.89,-311.067 1306.23,-317.664"/>
</g>
<!-- Node28 -->
<g id="node28" class="node"><title>Node28</title>
<polygon fill="white" stroke="#bfbfbf" points="1038.5,-281 1038.5,-311 1143.5,-311 1143.5,-281 1038.5,-281"/>
<text text-anchor="start" x="1046.5" y="-299" font-family="Helvetica,sans-Serif" font-size="10.00">g2o/types/sba/types</text>
<text text-anchor="middle" x="1091" y="-288" font-family="Helvetica,sans-Serif" font-size="10.00">_six_dof_expmap.h</text>
</g>
<!-- Node25&#45;&gt;Node28 -->
<g id="edge37" class="edge"><title>Node25&#45;&gt;Node28</title>
<path fill="none" stroke="midnightblue" d="M1151.29,-348.679C1140.73,-339.623 1126.9,-327.768 1115.15,-317.697"/>
<polygon fill="midnightblue" stroke="midnightblue" points="1117.28,-314.917 1107.41,-311.066 1112.73,-320.232 1117.28,-314.917"/>
</g>
<!-- Node29&#45;&gt;Node10 -->
<g id="edge41" class="edge"><title>Node29&#45;&gt;Node10</title>
<path fill="none" stroke="midnightblue" d="M693.354,-425.519C642.982,-419.472 577.466,-406.752 525,-380 492.787,-363.575 463.425,-332.633 447.203,-313.52"/>
<polygon fill="midnightblue" stroke="midnightblue" points="449.779,-311.144 440.711,-305.666 444.384,-315.603 449.779,-311.144"/>
</g>
<!-- Node29&#45;&gt;Node23 -->
<g id="edge44" class="edge"><title>Node29&#45;&gt;Node23</title>
<path fill="none" stroke="midnightblue" d="M794.094,-422.372C819.745,-412.354 862.732,-395.566 895.597,-382.731"/>
<polygon fill="midnightblue" stroke="midnightblue" points="896.966,-385.954 905.008,-379.056 894.419,-379.434 896.966,-385.954"/>
</g>
<!-- Node30 -->
<g id="node30" class="node"><title>Node30</title>
<polygon fill="white" stroke="#bfbfbf" points="617.5,-354.5 617.5,-373.5 700.5,-373.5 700.5,-354.5 617.5,-354.5"/>
<text text-anchor="middle" x="659" y="-361.5" font-family="Helvetica,sans-Serif" font-size="10.00">unordered_map</text>
</g>
<!-- Node29&#45;&gt;Node30 -->
<g id="edge39" class="edge"><title>Node29&#45;&gt;Node30</title>
<path fill="none" stroke="midnightblue" d="M757.227,-422.372C738.278,-411.304 705.18,-391.972 682.692,-378.838"/>
<polygon fill="midnightblue" stroke="midnightblue" points="684.177,-375.652 673.776,-373.63 680.646,-381.696 684.177,-375.652"/>
</g>
<!-- Node31 -->
<g id="node31" class="node"><title>Node31</title>
<polygon fill="white" stroke="#bfbfbf" points="719,-354.5 719,-373.5 763,-373.5 763,-354.5 719,-354.5"/>
<text text-anchor="middle" x="741" y="-361.5" font-family="Helvetica,sans-Serif" font-size="10.00">vector</text>
</g>
<!-- Node29&#45;&gt;Node31 -->
<g id="edge40" class="edge"><title>Node29&#45;&gt;Node31</title>
<path fill="none" stroke="midnightblue" d="M767.947,-422.372C763.285,-412.446 755.502,-395.874 749.495,-383.086"/>
<polygon fill="midnightblue" stroke="midnightblue" points="752.572,-381.404 745.153,-373.841 746.236,-384.38 752.572,-381.404"/>
</g>
<!-- Node32 -->
<g id="node32" class="node"><title>Node32</title>
<polygon fill="white" stroke="#bfbfbf" points="781.5,-354.5 781.5,-373.5 824.5,-373.5 824.5,-354.5 781.5,-354.5"/>
<text text-anchor="middle" x="803" y="-361.5" font-family="Helvetica,sans-Serif" font-size="10.00">deque</text>
</g>
<!-- Node29&#45;&gt;Node32 -->
<g id="edge42" class="edge"><title>Node29&#45;&gt;Node32</title>
<path fill="none" stroke="midnightblue" d="M776.053,-422.372C780.715,-412.446 788.498,-395.874 794.505,-383.086"/>
<polygon fill="midnightblue" stroke="midnightblue" points="797.764,-384.38 798.847,-373.841 791.428,-381.404 797.764,-384.38"/>
</g>
<!-- Node33 -->
<g id="node33" class="node"><title>Node33</title>
<polygon fill="white" stroke="#bfbfbf" points="842.5,-354.5 842.5,-373.5 871.5,-373.5 871.5,-354.5 842.5,-354.5"/>
<text text-anchor="middle" x="857" y="-361.5" font-family="Helvetica,sans-Serif" font-size="10.00">list</text>
</g>
<!-- Node29&#45;&gt;Node33 -->
<g id="edge43" class="edge"><title>Node29&#45;&gt;Node33</title>
<path fill="none" stroke="midnightblue" d="M783.112,-422.372C796.984,-411.6 820.937,-393.002 837.802,-379.906"/>
<polygon fill="midnightblue" stroke="midnightblue" points="840.133,-382.528 845.885,-373.63 835.84,-376.999 840.133,-382.528"/>
</g>
<!-- Node34 -->
<g id="node34" class="node"><title>Node34</title>
<polygon fill="white" stroke="#bfbfbf" points="534.5,-354.5 534.5,-373.5 599.5,-373.5 599.5,-354.5 534.5,-354.5"/>
<text text-anchor="middle" x="567" y="-361.5" font-family="Helvetica,sans-Serif" font-size="10.00">Eigen/Core</text>
</g>
<!-- Node29&#45;&gt;Node34 -->
<g id="edge45" class="edge"><title>Node29&#45;&gt;Node34</title>
<path fill="none" stroke="midnightblue" d="M743.125,-422.49C710.257,-412.694 655.029,-395.905 608,-380 605.24,-379.067 602.385,-378.075 599.525,-377.065"/>
<polygon fill="midnightblue" stroke="midnightblue" points="600.51,-373.7 589.915,-373.609 598.141,-380.287 600.51,-373.7"/>
</g>
</g>
</svg>
        <g id="navigator" transform="translate(0 0)" fill="#404254">
                <rect fill="#f2f5e9" fill-opacity="0.5" stroke="#606060" stroke-width=".5" x="0" y="0" width="60" height="60"/>
                <use id="zoomplus" xlink:href="#zoomPlus" x="17" y="9" onmousedown="handleZoom(evt,'in')"/>
                <use id="zoomminus" xlink:href="#zoomMin" x="42" y="9" onmousedown="handleZoom(evt,'out')"/>
                <use id="reset" xlink:href="#resetDef" x="30" y="36" onmousedown="handleReset()"/>
                <g id="arrowUp" xlink:href="#dirArrow" transform="translate(30 24)" onmousedown="handlePan(0,-1)">
                  <use xlink:href="#rim" fill="#404040">
                        <set attributeName="fill" to="#808080" begin="arrowUp.mouseover" end="arrowUp.mouseout"/>
                  </use>
                  <path fill="none" stroke="white" stroke-width="1.5" d="M0,-3.0v7 M-2.5,-0.5L0,-3.0L2.5,-0.5"/>
                </g>
                <g id="arrowRight" xlink:href="#dirArrow" transform="rotate(90) translate(36 -43)" onmousedown="handlePan(1,0)">
                  <use xlink:href="#rim" fill="#404040">
                        <set attributeName="fill" to="#808080" begin="arrowRight.mouseover" end="arrowRight.mouseout"/>
                  </use>
                  <path fill="none" stroke="white" stroke-width="1.5" d="M0,-3.0v7 M-2.5,-0.5L0,-3.0L2.5,-0.5"/>
                </g>
                <g id="arrowDown" xlink:href="#dirArrow" transform="rotate(180) translate(-30 -48)" onmousedown="handlePan(0,1)">
                  <use xlink:href="#rim" fill="#404040">
                        <set attributeName="fill" to="#808080" begin="arrowDown.mouseover" end="arrowDown.mouseout"/>
                  </use>
                  <path fill="none" stroke="white" stroke-width="1.5" d="M0,-3.0v7 M-2.5,-0.5L0,-3.0L2.5,-0.5"/>
                </g>
                <g id="arrowLeft" xlink:href="#dirArrow" transform="rotate(270) translate(-36 17)" onmousedown="handlePan(-1,0)">
                  <use xlink:href="#rim" fill="#404040">
                        <set attributeName="fill" to="#808080" begin="arrowLeft.mouseover" end="arrowLeft.mouseout"/>
                  </use>
                  <path fill="none" stroke="white" stroke-width="1.5" d="M0,-3.0v7 M-2.5,-0.5L0,-3.0L2.5,-0.5"/>
                </g>
        </g>
        <svg viewBox="0 0 15 15" width="100%" height="30px" preserveAspectRatio="xMaxYMin meet">
         <g id="arrow_out" transform="scale(0.3 0.3)">
          <a xlink:href="globalFuncs_8cpp__incl_org.svg" target="_base">
           <rect id="button" ry="5" rx="5" y="6" x="6" height="38" width="38"
                fill="#f2f5e9" fill-opacity="0.5" stroke="#606060" stroke-width="1.0"/>
           <path id="arrow"
             d="M 11.500037,31.436501 C 11.940474,20.09759 22.043105,11.32322 32.158766,21.979434 L 37.068811,17.246167 C 37.068811,17.246167 37.088388,32 37.088388,32 L 22.160133,31.978069 C 22.160133,31.978069 26.997745,27.140456 26.997745,27.140456 C 18.528582,18.264221 13.291696,25.230495 11.500037,31.436501 z"
             style="fill:#404040;"/>
          </a>
         </g>
        </svg>
</svg>
