<?xml version="1.0" encoding="UTF-8" standalone="no"?>
<!DOCTYPE svg PUBLIC "-//W3C//DTD SVG 1.1//EN"
 "http://www.w3.org/Graphics/SVG/1.1/DTD/svg11.dtd">
<!-- Generated by graphviz version 2.36.0 (20140111.2315)
 -->
<!-- Title: external/SiftGPU/include/GL/glew.h Pages: 1 -->
<svg width="198pt" height="96pt"
 viewBox="0.00 0.00 198.00 96.00" xmlns="http://www.w3.org/2000/svg" xmlns:xlink="http://www.w3.org/1999/xlink">
<g id="graph0" class="graph" transform="scale(1 1) rotate(0) translate(4 92)">
<title>external/SiftGPU/include/GL/glew.h</title>
<polygon fill="white" stroke="none" points="-4,4 -4,-92 194,-92 194,4 -4,4"/>
<!-- Node1 -->
<g id="node1" class="node"><title>Node1</title>
<polygon fill="#bfbfbf" stroke="black" points="32.5,-57 32.5,-87 157.5,-87 157.5,-57 32.5,-57"/>
<text text-anchor="start" x="40.5" y="-75" font-family="Helvetica,sans-Serif" font-size="10.00">external/SiftGPU/include</text>
<text text-anchor="middle" x="95" y="-64" font-family="Helvetica,sans-Serif" font-size="10.00">/GL/glew.h</text>
</g>
<!-- Node2 -->
<g id="node2" class="node"><title>Node2</title>
<polygon fill="white" stroke="#bfbfbf" points="0,-0.5 0,-19.5 52,-19.5 52,-0.5 0,-0.5"/>
<text text-anchor="middle" x="26" y="-7.5" font-family="Helvetica,sans-Serif" font-size="10.00">stddef.h</text>
</g>
<!-- Node1&#45;&gt;Node2 -->
<g id="edge1" class="edge"><title>Node1&#45;&gt;Node2</title>
<path fill="none" stroke="midnightblue" d="M78.648,-56.7808C68.1046,-47.6127 54.4001,-35.6957 43.6164,-26.3186"/>
<polygon fill="midnightblue" stroke="midnightblue" points="45.8828,-23.6512 36.0401,-19.7305 41.2896,-28.9335 45.8828,-23.6512"/>
</g>
<!-- Node3 -->
<g id="node3" class="node"><title>Node3</title>
<polygon fill="white" stroke="#bfbfbf" points="70.5,-0.5 70.5,-19.5 119.5,-19.5 119.5,-0.5 70.5,-0.5"/>
<text text-anchor="middle" x="95" y="-7.5" font-family="Helvetica,sans-Serif" font-size="10.00">stdint.h</text>
</g>
<!-- Node1&#45;&gt;Node3 -->
<g id="edge2" class="edge"><title>Node1&#45;&gt;Node3</title>
<path fill="none" stroke="midnightblue" d="M95,-56.7808C95,-48.7812 95,-38.6887 95,-30.0168"/>
<polygon fill="midnightblue" stroke="midnightblue" points="98.5001,-29.7305 95,-19.7305 91.5001,-29.7306 98.5001,-29.7305"/>
</g>
<!-- Node4 -->
<g id="node4" class="node"><title>Node4</title>
<polygon fill="white" stroke="#bfbfbf" points="137.5,-0.5 137.5,-19.5 190.5,-19.5 190.5,-0.5 137.5,-0.5"/>
<text text-anchor="middle" x="164" y="-7.5" font-family="Helvetica,sans-Serif" font-size="10.00">GL/glu.h</text>
</g>
<!-- Node1&#45;&gt;Node4 -->
<g id="edge3" class="edge"><title>Node1&#45;&gt;Node4</title>
<path fill="none" stroke="midnightblue" d="M111.352,-56.7808C121.895,-47.6127 135.6,-35.6957 146.384,-26.3186"/>
<polygon fill="midnightblue" stroke="midnightblue" points="148.71,-28.9335 153.96,-19.7305 144.117,-23.6512 148.71,-28.9335"/>
</g>
</g>
</svg>
