<?xml version="1.0" encoding="UTF-8" standalone="no"?>
<!DOCTYPE svg PUBLIC "-//W3C//DTD SVG 1.1//EN"
 "http://www.w3.org/Graphics/SVG/1.1/DTD/svg11.dtd">
<!-- Generated by graphviz version 2.36.0 (20140111.2315)
 -->
<!-- Title: src/IOWrapper/TimestampedObject.h Pages: 1 -->
<svg width="325pt" height="152pt"
 viewBox="0.00 0.00 325.00 152.00" xmlns="http://www.w3.org/2000/svg" xmlns:xlink="http://www.w3.org/1999/xlink">
<g id="graph0" class="graph" transform="scale(1 1) rotate(0) translate(4 148)">
<title>src/IOWrapper/TimestampedObject.h</title>
<polygon fill="white" stroke="none" points="-4,4 -4,-148 321,-148 321,4 -4,4"/>
<!-- Node1 -->
<g id="node1" class="node"><title>Node1</title>
<polygon fill="#bfbfbf" stroke="black" points="-0.5,-113 -0.5,-143 142.5,-143 142.5,-113 -0.5,-113"/>
<text text-anchor="start" x="7.5" y="-131" font-family="Helvetica,sans-Serif" font-size="10.00">src/IOWrapper/Timestamped</text>
<text text-anchor="middle" x="71" y="-120" font-family="Helvetica,sans-Serif" font-size="10.00">Object.h</text>
</g>
<!-- Node2 -->
<g id="node2" class="node"><title>Node2</title>
<polygon fill="white" stroke="#bfbfbf" points="18,-0.5 18,-19.5 64,-19.5 64,-0.5 18,-0.5"/>
<text text-anchor="middle" x="41" y="-7.5" font-family="Helvetica,sans-Serif" font-size="10.00">chrono</text>
</g>
<!-- Node1&#45;&gt;Node2 -->
<g id="edge1" class="edge"><title>Node1&#45;&gt;Node2</title>
<path fill="none" stroke="midnightblue" d="M41.6553,-112.843C27.5066,-104.312 11.9189,-91.98 4,-76 -4.57905,-58.688 9.31482,-39.5413 22.4557,-26.5414"/>
<polygon fill="midnightblue" stroke="midnightblue" points="24.9453,-29.0067 29.9303,-19.6579 20.2033,-23.8576 24.9453,-29.0067"/>
</g>
<!-- Node3 -->
<g id="node3" class="node"><title>Node3</title>
<polygon fill="white" stroke="#bfbfbf" points="13,-56.5 13,-75.5 129,-75.5 129,-56.5 13,-56.5"/>
<text text-anchor="middle" x="71" y="-63.5" font-family="Helvetica,sans-Serif" font-size="10.00">opencv2/core/core.hpp</text>
</g>
<!-- Node1&#45;&gt;Node3 -->
<g id="edge2" class="edge"><title>Node1&#45;&gt;Node3</title>
<path fill="none" stroke="midnightblue" d="M71,-112.781C71,-104.781 71,-94.6887 71,-86.0168"/>
<polygon fill="midnightblue" stroke="midnightblue" points="74.5001,-85.7305 71,-75.7305 67.5001,-85.7306 74.5001,-85.7305"/>
</g>
<!-- Node4 -->
<g id="node4" class="node"><title>Node4</title>
<g id="a_node4"><a xlink:href="../../d7/d66/Timestamp_8h.html" target="_top" xlink:title="IOWrapper/Timestamp.h">
<polygon fill="white" stroke="black" points="147,-56.5 147,-75.5 271,-75.5 271,-56.5 147,-56.5"/>
<text text-anchor="middle" x="209" y="-63.5" font-family="Helvetica,sans-Serif" font-size="10.00">IOWrapper/Timestamp.h</text>
</a>
</g>
</g>
<!-- Node1&#45;&gt;Node4 -->
<g id="edge3" class="edge"><title>Node1&#45;&gt;Node4</title>
<path fill="none" stroke="midnightblue" d="M103.355,-112.933C126.533,-102.855 157.483,-89.3986 179.888,-79.6575"/>
<polygon fill="midnightblue" stroke="midnightblue" points="181.445,-82.7971 189.22,-75.6 178.654,-76.3776 181.445,-82.7971"/>
</g>
<!-- Node4&#45;&gt;Node2 -->
<g id="edge5" class="edge"><title>Node4&#45;&gt;Node2</title>
<path fill="none" stroke="midnightblue" d="M182.38,-56.4435C152.992,-46.9976 105.657,-31.7826 73.9515,-21.5916"/>
<polygon fill="midnightblue" stroke="midnightblue" points="74.8407,-18.2011 64.2494,-18.473 72.6986,-24.8653 74.8407,-18.2011"/>
</g>
<!-- Node5 -->
<g id="node5" class="node"><title>Node5</title>
<polygon fill="white" stroke="#bfbfbf" points="139.5,-0.5 139.5,-19.5 180.5,-19.5 180.5,-0.5 139.5,-0.5"/>
<text text-anchor="middle" x="160" y="-7.5" font-family="Helvetica,sans-Serif" font-size="10.00">string</text>
</g>
<!-- Node4&#45;&gt;Node5 -->
<g id="edge4" class="edge"><title>Node4&#45;&gt;Node5</title>
<path fill="none" stroke="midnightblue" d="M200.909,-56.083C193.845,-48.2982 183.412,-36.8015 174.851,-27.3665"/>
<polygon fill="midnightblue" stroke="midnightblue" points="177.253,-24.8047 167.941,-19.7511 172.069,-29.5087 177.253,-24.8047"/>
</g>
<!-- Node6 -->
<g id="node6" class="node"><title>Node6</title>
<polygon fill="white" stroke="#bfbfbf" points="198.5,-0.5 198.5,-19.5 317.5,-19.5 317.5,-0.5 198.5,-0.5"/>
<text text-anchor="middle" x="258" y="-7.5" font-family="Helvetica,sans-Serif" font-size="10.00">boost/thread/mutex.hpp</text>
</g>
<!-- Node4&#45;&gt;Node6 -->
<g id="edge6" class="edge"><title>Node4&#45;&gt;Node6</title>
<path fill="none" stroke="midnightblue" d="M217.091,-56.083C224.155,-48.2982 234.588,-36.8015 243.149,-27.3665"/>
<polygon fill="midnightblue" stroke="midnightblue" points="245.931,-29.5087 250.059,-19.7511 240.747,-24.8047 245.931,-29.5087"/>
</g>
</g>
</svg>
