<?xml version="1.0" encoding="UTF-8" standalone="no"?>
<!DOCTYPE svg PUBLIC "-//W3C//DTD SVG 1.1//EN"
 "http://www.w3.org/Graphics/SVG/1.1/DTD/svg11.dtd">
<!-- Generated by graphviz version 2.36.0 (20140111.2315)
 -->
<!-- Title: SiftGPUEX::DisplaySIFT Pages: 1 -->
<svg width="520pt" height="203pt"
 viewBox="0.00 0.00 520.00 203.00" xmlns="http://www.w3.org/2000/svg" xmlns:xlink="http://www.w3.org/1999/xlink">
<g id="graph0" class="graph" transform="scale(1 1) rotate(0) translate(4 199)">
<title>SiftGPUEX::DisplaySIFT</title>
<polygon fill="white" stroke="none" points="-4,4 -4,-199 516,-199 516,4 -4,4"/>
<!-- Node1 -->
<g id="node1" class="node"><title>Node1</title>
<polygon fill="#bfbfbf" stroke="black" points="0,-87.5 0,-106.5 128,-106.5 128,-87.5 0,-87.5"/>
<text text-anchor="middle" x="64" y="-94.5" font-family="Helvetica,sans-Serif" font-size="10.00">SiftGPUEX::DisplaySIFT</text>
</g>
<!-- Node2 -->
<g id="node2" class="node"><title>Node2</title>
<g id="a_node2"><a xlink:href="../../da/d33/glew_8h.html#a1beaf822e5a901dc3fe429b68efb77d4" target="_top" xlink:title="glEnable">
<polygon fill="white" stroke="black" points="225,-175.5 225,-194.5 279,-194.5 279,-175.5 225,-175.5"/>
<text text-anchor="middle" x="252" y="-182.5" font-family="Helvetica,sans-Serif" font-size="10.00">glEnable</text>
</a>
</g>
</g>
<!-- Node1&#45;&gt;Node2 -->
<g id="edge1" class="edge"><title>Node1&#45;&gt;Node2</title>
<path fill="none" stroke="midnightblue" d="M76.0369,-106.691C93.4865,-121.499 129.064,-149.653 164,-165 179.946,-172.005 198.658,-176.714 214.635,-179.793"/>
<polygon fill="midnightblue" stroke="midnightblue" points="214.222,-183.275 224.682,-181.589 215.454,-176.384 214.222,-183.275"/>
</g>
<!-- Node3 -->
<g id="node3" class="node"><title>Node3</title>
<g id="a_node3"><a xlink:href="../../d4/d24/classShaderMan.html#a428735f5de87286fa4e43841e408f4f6" target="_top" xlink:title="ShaderMan::UseShaderDisplay\lGaussian">
<polygon fill="white" stroke="black" points="175,-126 175,-156 329,-156 329,-126 175,-126"/>
<text text-anchor="start" x="183" y="-144" font-family="Helvetica,sans-Serif" font-size="10.00">ShaderMan::UseShaderDisplay</text>
<text text-anchor="middle" x="252" y="-133" font-family="Helvetica,sans-Serif" font-size="10.00">Gaussian</text>
</a>
</g>
</g>
<!-- Node1&#45;&gt;Node3 -->
<g id="edge2" class="edge"><title>Node1&#45;&gt;Node3</title>
<path fill="none" stroke="midnightblue" d="M105.359,-106.547C126.394,-111.523 152.786,-117.767 177.306,-123.567"/>
<polygon fill="midnightblue" stroke="midnightblue" points="176.777,-127.039 187.315,-125.935 178.389,-120.227 176.777,-127.039"/>
</g>
<!-- Node5 -->
<g id="node5" class="node"><title>Node5</title>
<g id="a_node5"><a xlink:href="../../d4/d24/classShaderMan.html#a2cc6d5b512c756533041c0515286ba6a" target="_top" xlink:title="ShaderMan::UseShaderDisplayDOG">
<polygon fill="white" stroke="black" points="164,-87.5 164,-106.5 340,-106.5 340,-87.5 164,-87.5"/>
<text text-anchor="middle" x="252" y="-94.5" font-family="Helvetica,sans-Serif" font-size="10.00">ShaderMan::UseShaderDisplayDOG</text>
</a>
</g>
</g>
<!-- Node1&#45;&gt;Node5 -->
<g id="edge4" class="edge"><title>Node1&#45;&gt;Node5</title>
<path fill="none" stroke="midnightblue" d="M128.231,-97C136.481,-97 145.082,-97 153.731,-97"/>
<polygon fill="midnightblue" stroke="midnightblue" points="153.89,-100.5 163.89,-97 153.89,-93.5001 153.89,-100.5"/>
</g>
<!-- Node6 -->
<g id="node6" class="node"><title>Node6</title>
<g id="a_node6"><a xlink:href="../../d4/d24/classShaderMan.html#a01e1adc5ca10fc738a4e1d2008e41e08" target="_top" xlink:title="ShaderMan::UseShaderDisplayGrad">
<polygon fill="white" stroke="black" points="164.5,-49.5 164.5,-68.5 339.5,-68.5 339.5,-49.5 164.5,-49.5"/>
<text text-anchor="middle" x="252" y="-56.5" font-family="Helvetica,sans-Serif" font-size="10.00">ShaderMan::UseShaderDisplayGrad</text>
</a>
</g>
</g>
<!-- Node1&#45;&gt;Node6 -->
<g id="edge6" class="edge"><title>Node1&#45;&gt;Node6</title>
<path fill="none" stroke="midnightblue" d="M111.936,-87.411C137.033,-82.2835 168.119,-75.9328 194.53,-70.5368"/>
<polygon fill="midnightblue" stroke="midnightblue" points="195.305,-73.951 204.402,-68.5201 193.904,-67.0926 195.305,-73.951"/>
</g>
<!-- Node7 -->
<g id="node7" class="node"><title>Node7</title>
<g id="a_node7"><a xlink:href="../../d4/d24/classShaderMan.html#ae7f2d71d83cfb139282bfe7fee6adf6d" target="_top" xlink:title="ShaderMan::UseShaderDisplay\lKeypoints">
<polygon fill="white" stroke="black" points="175,-0 175,-30 329,-30 329,-0 175,-0"/>
<text text-anchor="start" x="183" y="-18" font-family="Helvetica,sans-Serif" font-size="10.00">ShaderMan::UseShaderDisplay</text>
<text text-anchor="middle" x="252" y="-7" font-family="Helvetica,sans-Serif" font-size="10.00">Keypoints</text>
</a>
</g>
</g>
<!-- Node1&#45;&gt;Node7 -->
<g id="edge8" class="edge"><title>Node1&#45;&gt;Node7</title>
<path fill="none" stroke="midnightblue" d="M79.1863,-87.3491C97.9119,-74.9642 132.23,-53.4737 164,-40 169.697,-37.584 175.699,-35.3197 181.779,-33.2177"/>
<polygon fill="midnightblue" stroke="midnightblue" points="182.966,-36.5115 191.363,-30.0497 180.769,-29.8652 182.966,-36.5115"/>
</g>
<!-- Node4 -->
<g id="node4" class="node"><title>Node4</title>
<g id="a_node4"><a xlink:href="../../d9/d26/classProgramGPU.html#acd625b26fa073fc83ec0be9badb29635" target="_top" xlink:title="ProgramGPU::UseProgram">
<polygon fill="white" stroke="black" points="376,-68.5 376,-87.5 512,-87.5 512,-68.5 376,-68.5"/>
<text text-anchor="middle" x="444" y="-75.5" font-family="Helvetica,sans-Serif" font-size="10.00">ProgramGPU::UseProgram</text>
</a>
</g>
</g>
<!-- Node3&#45;&gt;Node4 -->
<g id="edge3" class="edge"><title>Node3&#45;&gt;Node4</title>
<path fill="none" stroke="midnightblue" d="M307.951,-125.874C318.625,-122.749 329.695,-119.376 340,-116 363.242,-108.385 389.063,-98.8561 409.038,-91.2457"/>
<polygon fill="midnightblue" stroke="midnightblue" points="410.537,-94.4195 418.621,-87.5711 408.031,-87.8835 410.537,-94.4195"/>
</g>
<!-- Node5&#45;&gt;Node4 -->
<g id="edge5" class="edge"><title>Node5&#45;&gt;Node4</title>
<path fill="none" stroke="midnightblue" d="M340.215,-88.2785C348.745,-87.4255 357.36,-86.564 365.782,-85.7218"/>
<polygon fill="midnightblue" stroke="midnightblue" points="366.338,-89.1838 375.94,-84.706 365.641,-82.2185 366.338,-89.1838"/>
</g>
<!-- Node6&#45;&gt;Node4 -->
<g id="edge7" class="edge"><title>Node6&#45;&gt;Node4</title>
<path fill="none" stroke="midnightblue" d="M339.66,-67.666C348.383,-68.5383 357.2,-69.42 365.815,-70.2815"/>
<polygon fill="midnightblue" stroke="midnightblue" points="365.518,-73.7692 375.817,-71.2817 366.215,-66.8039 365.518,-73.7692"/>
</g>
<!-- Node7&#45;&gt;Node4 -->
<g id="edge9" class="edge"><title>Node7&#45;&gt;Node4</title>
<path fill="none" stroke="midnightblue" d="M307.951,-30.1258C318.625,-33.2512 329.695,-36.6237 340,-40 363.242,-47.6153 389.063,-57.1439 409.038,-64.7543"/>
<polygon fill="midnightblue" stroke="midnightblue" points="408.031,-68.1165 418.621,-68.4289 410.537,-61.5805 408.031,-68.1165"/>
</g>
</g>
</svg>
