<?xml version="1.0" encoding="UTF-8" standalone="no"?>
<!DOCTYPE svg PUBLIC "-//W3C//DTD SVG 1.1//EN"
 "http://www.w3.org/Graphics/SVG/1.1/DTD/svg11.dtd">
<!-- Generated by graphviz version 2.36.0 (20140111.2315)
 -->
<!-- Title: lsd_slam::SE3Tracker::checkPermaRefOverlap Pages: 1 -->
<svg width="324pt" height="241pt"
 viewBox="0.00 0.00 324.00 241.00" xmlns="http://www.w3.org/2000/svg" xmlns:xlink="http://www.w3.org/1999/xlink">
<g id="graph0" class="graph" transform="scale(1 1) rotate(0) translate(4 237)">
<title>lsd_slam::SE3Tracker::checkPermaRefOverlap</title>
<polygon fill="white" stroke="none" points="-4,4 -4,-237 320,-237 320,4 -4,4"/>
<!-- Node1 -->
<g id="node1" class="node"><title>Node1</title>
<polygon fill="#bfbfbf" stroke="black" points="0.5,-102 0.5,-132 127.5,-132 127.5,-102 0.5,-102"/>
<text text-anchor="start" x="8.5" y="-120" font-family="Helvetica,sans-Serif" font-size="10.00">lsd_slam::SE3Tracker</text>
<text text-anchor="middle" x="64" y="-109" font-family="Helvetica,sans-Serif" font-size="10.00">::checkPermaRefOverlap</text>
</g>
<!-- Node2 -->
<g id="node2" class="node"><title>Node2</title>
<g id="a_node2"><a xlink:href="../../d0/d8c/classSophus_1_1SE3GroupBase.html#abb7b5dbc57317547710d3c6fb6fd8484" target="_top" xlink:title="Sophus::SE3GroupBase\l::cast">
<polygon fill="white" stroke="black" points="178.5,-203 178.5,-233 301.5,-233 301.5,-203 178.5,-203"/>
<text text-anchor="start" x="186.5" y="-221" font-family="Helvetica,sans-Serif" font-size="10.00">Sophus::SE3GroupBase</text>
<text text-anchor="middle" x="240" y="-210" font-family="Helvetica,sans-Serif" font-size="10.00">::cast</text>
</a>
</g>
</g>
<!-- Node1&#45;&gt;Node2 -->
<g id="edge1" class="edge"><title>Node1&#45;&gt;Node2</title>
<path fill="none" stroke="midnightblue" d="M80.9893,-132.016C99.6497,-148.856 132.042,-176.027 164,-193 168.174,-195.217 172.583,-197.29 177.087,-199.218"/>
<polygon fill="midnightblue" stroke="midnightblue" points="175.838,-202.488 186.422,-202.97 178.449,-195.993 175.838,-202.488"/>
</g>
<!-- Node3 -->
<g id="node3" class="node"><title>Node3</title>
<g id="a_node3"><a xlink:href="../../dd/d08/classlsd__slam_1_1Frame.html#a3f14a1c43b6cb21d31274f880b0bf36b" target="_top" xlink:title="lsd_slam::Frame::width">
<polygon fill="white" stroke="black" points="180.5,-164.5 180.5,-183.5 299.5,-183.5 299.5,-164.5 180.5,-164.5"/>
<text text-anchor="middle" x="240" y="-171.5" font-family="Helvetica,sans-Serif" font-size="10.00">lsd_slam::Frame::width</text>
</a>
</g>
</g>
<!-- Node1&#45;&gt;Node3 -->
<g id="edge2" class="edge"><title>Node1&#45;&gt;Node3</title>
<path fill="none" stroke="midnightblue" d="M101.306,-132.121C119.874,-139.55 142.943,-148.317 164,-155 171.562,-157.4 179.626,-159.704 187.559,-161.828"/>
<polygon fill="midnightblue" stroke="midnightblue" points="186.93,-165.281 197.49,-164.417 188.696,-158.507 186.93,-165.281"/>
</g>
<!-- Node4 -->
<g id="node4" class="node"><title>Node4</title>
<g id="a_node4"><a xlink:href="../../dd/d08/classlsd__slam_1_1Frame.html#a014d19bf6ffba0f0c0b8b684f9afb0b0" target="_top" xlink:title="lsd_slam::Frame::height">
<polygon fill="white" stroke="black" points="179,-126.5 179,-145.5 301,-145.5 301,-126.5 179,-126.5"/>
<text text-anchor="middle" x="240" y="-133.5" font-family="Helvetica,sans-Serif" font-size="10.00">lsd_slam::Frame::height</text>
</a>
</g>
</g>
<!-- Node1&#45;&gt;Node4 -->
<g id="edge3" class="edge"><title>Node1&#45;&gt;Node4</title>
<path fill="none" stroke="midnightblue" d="M127.818,-123.859C141.083,-125.308 155.162,-126.845 168.683,-128.322"/>
<polygon fill="midnightblue" stroke="midnightblue" points="168.57,-131.83 178.891,-129.436 169.33,-124.871 168.57,-131.83"/>
</g>
<!-- Node5 -->
<g id="node5" class="node"><title>Node5</title>
<g id="a_node5"><a xlink:href="../../dd/d08/classlsd__slam_1_1Frame.html#adeb235dc3e4a4d8fcf622b5771299c31" target="_top" xlink:title="lsd_slam::Frame::K">
<polygon fill="white" stroke="black" points="189,-88.5 189,-107.5 291,-107.5 291,-88.5 189,-88.5"/>
<text text-anchor="middle" x="240" y="-95.5" font-family="Helvetica,sans-Serif" font-size="10.00">lsd_slam::Frame::K</text>
</a>
</g>
</g>
<!-- Node1&#45;&gt;Node5 -->
<g id="edge4" class="edge"><title>Node1&#45;&gt;Node5</title>
<path fill="none" stroke="midnightblue" d="M127.818,-110.141C144.424,-108.327 162.307,-106.374 178.773,-104.577"/>
<polygon fill="midnightblue" stroke="midnightblue" points="179.257,-108.045 188.818,-103.48 178.497,-101.086 179.257,-108.045"/>
</g>
<!-- Node6 -->
<g id="node6" class="node"><title>Node6</title>
<g id="a_node6"><a xlink:href="../../d0/d8c/classSophus_1_1SE3GroupBase.html#adbfc9d61a4a27f9b5e73fa22519e61de" target="_top" xlink:title="Sophus::SE3GroupBase\l::rotationMatrix">
<polygon fill="white" stroke="black" points="178.5,-39 178.5,-69 301.5,-69 301.5,-39 178.5,-39"/>
<text text-anchor="start" x="186.5" y="-57" font-family="Helvetica,sans-Serif" font-size="10.00">Sophus::SE3GroupBase</text>
<text text-anchor="middle" x="240" y="-46" font-family="Helvetica,sans-Serif" font-size="10.00">::rotationMatrix</text>
</a>
</g>
</g>
<!-- Node1&#45;&gt;Node6 -->
<g id="edge5" class="edge"><title>Node1&#45;&gt;Node6</title>
<path fill="none" stroke="midnightblue" d="M102.931,-101.984C121.302,-94.8288 143.723,-86.2669 164,-79 170.25,-76.76 176.816,-74.4739 183.356,-72.239"/>
<polygon fill="midnightblue" stroke="midnightblue" points="184.53,-75.5367 192.878,-69.0128 182.284,-68.9069 184.53,-75.5367"/>
</g>
<!-- Node7 -->
<g id="node7" class="node"><title>Node7</title>
<g id="a_node7"><a xlink:href="../../dd/d3d/classSophus_1_1SE3Group.html#a1bfd300de4529a2f6ba0ff5baecea98e" target="_top" xlink:title="Mutator of translation vector. ">
<polygon fill="white" stroke="black" points="164,-0.5 164,-19.5 316,-19.5 316,-0.5 164,-0.5"/>
<text text-anchor="middle" x="240" y="-7.5" font-family="Helvetica,sans-Serif" font-size="10.00">Sophus::SE3Group::translation</text>
</a>
</g>
</g>
<!-- Node1&#45;&gt;Node7 -->
<g id="edge6" class="edge"><title>Node1&#45;&gt;Node7</title>
<path fill="none" stroke="midnightblue" d="M78.1571,-101.716C95.7697,-82.213 128.886,-48.7647 164,-30 169.177,-27.2332 174.765,-24.8288 180.472,-22.7438"/>
<polygon fill="midnightblue" stroke="midnightblue" points="181.755,-26.0055 190.14,-19.5285 179.546,-19.3632 181.755,-26.0055"/>
</g>
</g>
</svg>
