<?xml version="1.0" encoding="UTF-8" standalone="no"?>
<!DOCTYPE svg PUBLIC "-//W3C//DTD SVG 1.1//EN"
 "http://www.w3.org/Graphics/SVG/1.1/DTD/svg11.dtd">
<!-- Generated by graphviz version 2.36.0 (20140111.2315)
 -->
<!-- Title: PyramidNaive::GetFeatureOrientations Pages: 1 -->
<svg width="662pt" height="343pt"
 viewBox="0.00 0.00 662.00 343.00" xmlns="http://www.w3.org/2000/svg" xmlns:xlink="http://www.w3.org/1999/xlink">
<g id="graph0" class="graph" transform="scale(1 1) rotate(0) translate(4 339)">
<title>PyramidNaive::GetFeatureOrientations</title>
<polygon fill="white" stroke="none" points="-4,4 -4,-339 658,-339 658,4 -4,4"/>
<!-- Node1 -->
<g id="node1" class="node"><title>Node1</title>
<polygon fill="#bfbfbf" stroke="black" points="0.5,-158 0.5,-188 133.5,-188 133.5,-158 0.5,-158"/>
<text text-anchor="start" x="8.5" y="-176" font-family="Helvetica,sans-Serif" font-size="10.00">PyramidNaive::GetFeature</text>
<text text-anchor="middle" x="67" y="-165" font-family="Helvetica,sans-Serif" font-size="10.00">Orientations</text>
</g>
<!-- Node2 -->
<g id="node2" class="node"><title>Node2</title>
<g id="a_node2"><a xlink:href="../../da/d33/glew_8h.html#a170c1426633472880793e711b06ef0df" target="_top" xlink:title="glDrawBuffer">
<polygon fill="white" stroke="black" points="217,-315.5 217,-334.5 291,-334.5 291,-315.5 217,-315.5"/>
<text text-anchor="middle" x="254" y="-322.5" font-family="Helvetica,sans-Serif" font-size="10.00">glDrawBuffer</text>
</a>
</g>
</g>
<!-- Node1&#45;&gt;Node2 -->
<g id="edge1" class="edge"><title>Node1&#45;&gt;Node2</title>
<path fill="none" stroke="midnightblue" d="M75.1226,-188.121C89.1186,-216.094 122.987,-275.813 170,-306 180.993,-313.059 194.287,-317.508 206.984,-320.308"/>
<polygon fill="midnightblue" stroke="midnightblue" points="206.504,-323.78 216.983,-322.219 207.818,-316.904 206.504,-323.78"/>
</g>
<!-- Node3 -->
<g id="node3" class="node"><title>Node3</title>
<g id="a_node3"><a xlink:href="../../d9/df0/classPyramidNaive.html#a17916545f7bf0fdcf14ccdc666aae852" target="_top" xlink:title="PyramidNaive::GetLevelTexture">
<polygon fill="white" stroke="black" points="176,-277.5 176,-296.5 332,-296.5 332,-277.5 176,-277.5"/>
<text text-anchor="middle" x="254" y="-284.5" font-family="Helvetica,sans-Serif" font-size="10.00">PyramidNaive::GetLevelTexture</text>
</a>
</g>
</g>
<!-- Node1&#45;&gt;Node3 -->
<g id="edge2" class="edge"><title>Node1&#45;&gt;Node3</title>
<path fill="none" stroke="midnightblue" d="M79.7453,-188.107C97.1088,-209.349 131.729,-247.711 170,-268 174.457,-270.363 179.201,-272.433 184.075,-274.247"/>
<polygon fill="midnightblue" stroke="midnightblue" points="182.976,-277.57 193.57,-277.429 185.2,-270.933 182.976,-277.57"/>
</g>
<!-- Node4 -->
<g id="node4" class="node"><title>Node4</title>
<g id="a_node4"><a xlink:href="../../d9/df0/classPyramidNaive.html#a38627fede62de0bab2af2f76daf0e7ca" target="_top" xlink:title="PyramidNaive::GetBaseLevel">
<polygon fill="white" stroke="black" points="181,-239.5 181,-258.5 327,-258.5 327,-239.5 181,-239.5"/>
<text text-anchor="middle" x="254" y="-246.5" font-family="Helvetica,sans-Serif" font-size="10.00">PyramidNaive::GetBaseLevel</text>
</a>
</g>
</g>
<!-- Node1&#45;&gt;Node4 -->
<g id="edge3" class="edge"><title>Node1&#45;&gt;Node4</title>
<path fill="none" stroke="midnightblue" d="M90.5761,-188.096C110.659,-200.908 141.222,-218.927 170,-230 176.734,-232.591 183.918,-234.885 191.135,-236.901"/>
<polygon fill="midnightblue" stroke="midnightblue" points="190.397,-240.326 200.958,-239.479 192.174,-233.555 190.397,-240.326"/>
</g>
<!-- Node5 -->
<g id="node5" class="node"><title>Node5</title>
<g id="a_node5"><a xlink:href="../../df/da6/classGLTexImage.html#a1829045508d6dac9fa58842bdc7d5fc9" target="_top" xlink:title="GLTexImage::FitTexViewPort">
<polygon fill="white" stroke="black" points="181,-201.5 181,-220.5 327,-220.5 327,-201.5 181,-201.5"/>
<text text-anchor="middle" x="254" y="-208.5" font-family="Helvetica,sans-Serif" font-size="10.00">GLTexImage::FitTexViewPort</text>
</a>
</g>
</g>
<!-- Node1&#45;&gt;Node5 -->
<g id="edge4" class="edge"><title>Node1&#45;&gt;Node5</title>
<path fill="none" stroke="midnightblue" d="M133.745,-186.504C154.357,-190.738 176.909,-195.37 196.799,-199.456"/>
<polygon fill="midnightblue" stroke="midnightblue" points="196.13,-202.892 206.63,-201.475 197.539,-196.035 196.13,-202.892"/>
</g>
<!-- Node12 -->
<g id="node12" class="node"><title>Node12</title>
<g id="a_node12"><a xlink:href="../../df/da6/classGLTexImage.html#a6df86f3c5a5bf3485c25236e317b4013" target="_top" xlink:title="GLTexImage::BindTex">
<polygon fill="white" stroke="black" points="196.5,-163.5 196.5,-182.5 311.5,-182.5 311.5,-163.5 196.5,-163.5"/>
<text text-anchor="middle" x="254" y="-170.5" font-family="Helvetica,sans-Serif" font-size="10.00">GLTexImage::BindTex</text>
</a>
</g>
</g>
<!-- Node1&#45;&gt;Node12 -->
<g id="edge11" class="edge"><title>Node1&#45;&gt;Node12</title>
<path fill="none" stroke="midnightblue" d="M133.745,-173C150.688,-173 168.942,-173 185.95,-173"/>
<polygon fill="midnightblue" stroke="midnightblue" points="186.357,-176.5 196.357,-173 186.357,-169.5 186.357,-176.5"/>
</g>
<!-- Node14 -->
<g id="node14" class="node"><title>Node14</title>
<g id="a_node14"><a xlink:href="../../d4/d24/classShaderMan.html#ae434f78a7937d402a7b51797c5d4f08a" target="_top" xlink:title="ShaderMan::UseShaderOrientation">
<polygon fill="white" stroke="black" points="170,-87.5 170,-106.5 338,-106.5 338,-87.5 170,-87.5"/>
<text text-anchor="middle" x="254" y="-94.5" font-family="Helvetica,sans-Serif" font-size="10.00">ShaderMan::UseShaderOrientation</text>
</a>
</g>
</g>
<!-- Node1&#45;&gt;Node14 -->
<g id="edge13" class="edge"><title>Node1&#45;&gt;Node14</title>
<path fill="none" stroke="midnightblue" d="M90.5761,-157.904C110.659,-145.092 141.222,-127.073 170,-116 176.734,-113.409 183.918,-111.115 191.135,-109.099"/>
<polygon fill="midnightblue" stroke="midnightblue" points="192.174,-112.445 200.958,-106.521 190.397,-105.674 192.174,-112.445"/>
</g>
<!-- Node17 -->
<g id="node17" class="node"><title>Node17</title>
<g id="a_node17"><a xlink:href="../../df/da6/classGLTexImage.html#af3929f0108cc3c43983c0fc952199869" target="_top" xlink:title="GLTexImage::UnbindMultiTex">
<polygon fill="white" stroke="black" points="180.5,-125.5 180.5,-144.5 327.5,-144.5 327.5,-125.5 180.5,-125.5"/>
<text text-anchor="middle" x="254" y="-132.5" font-family="Helvetica,sans-Serif" font-size="10.00">GLTexImage::UnbindMultiTex</text>
</a>
</g>
</g>
<!-- Node1&#45;&gt;Node17 -->
<g id="edge16" class="edge"><title>Node1&#45;&gt;Node17</title>
<path fill="none" stroke="midnightblue" d="M133.745,-159.496C154.357,-155.262 176.909,-150.63 196.799,-146.544"/>
<polygon fill="midnightblue" stroke="midnightblue" points="197.539,-149.965 206.63,-144.525 196.13,-143.108 197.539,-149.965"/>
</g>
<!-- Node18 -->
<g id="node18" class="node"><title>Node18</title>
<g id="a_node18"><a xlink:href="../../da/d33/glew_8h.html#a32df7ba224618f3a64723debf23835dd" target="_top" xlink:title="glFinish">
<polygon fill="white" stroke="black" points="229,-49.5 229,-68.5 279,-68.5 279,-49.5 229,-49.5"/>
<text text-anchor="middle" x="254" y="-56.5" font-family="Helvetica,sans-Serif" font-size="10.00">glFinish</text>
</a>
</g>
</g>
<!-- Node1&#45;&gt;Node18 -->
<g id="edge18" class="edge"><title>Node1&#45;&gt;Node18</title>
<path fill="none" stroke="midnightblue" d="M79.7453,-157.893C97.1088,-136.651 131.729,-98.2888 170,-78 184.963,-70.0679 203.155,-65.4301 218.691,-62.7267"/>
<polygon fill="midnightblue" stroke="midnightblue" points="219.598,-66.1284 228.949,-61.1475 218.533,-59.2099 219.598,-66.1284"/>
</g>
<!-- Node19 -->
<g id="node19" class="node"><title>Node19</title>
<g id="a_node19"><a xlink:href="../../d3/d06/classFrameBufferObject.html#ae5f040f93ccb4040004e7052ec463e6f" target="_top" xlink:title="FrameBufferObject::\lUnattachTex">
<polygon fill="white" stroke="black" points="201.5,-0 201.5,-30 306.5,-30 306.5,-0 201.5,-0"/>
<text text-anchor="start" x="209.5" y="-18" font-family="Helvetica,sans-Serif" font-size="10.00">FrameBufferObject::</text>
<text text-anchor="middle" x="254" y="-7" font-family="Helvetica,sans-Serif" font-size="10.00">UnattachTex</text>
</a>
</g>
</g>
<!-- Node1&#45;&gt;Node19 -->
<g id="edge19" class="edge"><title>Node1&#45;&gt;Node19</title>
<path fill="none" stroke="midnightblue" d="M75.5441,-157.741C90,-130.078 124.272,-71.591 170,-40 176.602,-35.439 184.055,-31.6934 191.717,-28.6214"/>
<polygon fill="midnightblue" stroke="midnightblue" points="192.923,-31.907 201.124,-25.1989 190.53,-25.3288 192.923,-31.907"/>
</g>
<!-- Node6 -->
<g id="node6" class="node"><title>Node6</title>
<g id="a_node6"><a xlink:href="../../d2/d55/classGlobalUtil.html#a30830c22f7574d8d6f5a5b0a0b31ad50" target="_top" xlink:title="GlobalUtil::FitViewPort">
<polygon fill="white" stroke="black" points="399,-201.5 399,-220.5 515,-220.5 515,-201.5 399,-201.5"/>
<text text-anchor="middle" x="457" y="-208.5" font-family="Helvetica,sans-Serif" font-size="10.00">GlobalUtil::FitViewPort</text>
</a>
</g>
</g>
<!-- Node5&#45;&gt;Node6 -->
<g id="edge5" class="edge"><title>Node5&#45;&gt;Node6</title>
<path fill="none" stroke="midnightblue" d="M327.282,-211C347.313,-211 368.971,-211 388.705,-211"/>
<polygon fill="midnightblue" stroke="midnightblue" points="388.831,-214.5 398.831,-211 388.831,-207.5 388.831,-214.5"/>
</g>
<!-- Node7 -->
<g id="node7" class="node"><title>Node7</title>
<g id="a_node7"><a xlink:href="../../da/d33/glew_8h.html#ae9ebc290561b3321b629610807155a35" target="_top" xlink:title="glGetIntegerv">
<polygon fill="white" stroke="black" points="577.5,-277.5 577.5,-296.5 652.5,-296.5 652.5,-277.5 577.5,-277.5"/>
<text text-anchor="middle" x="615" y="-284.5" font-family="Helvetica,sans-Serif" font-size="10.00">glGetIntegerv</text>
</a>
</g>
</g>
<!-- Node6&#45;&gt;Node7 -->
<g id="edge6" class="edge"><title>Node6&#45;&gt;Node7</title>
<path fill="none" stroke="midnightblue" d="M477.758,-220.625C504.952,-233.874 554.09,-257.813 585.327,-273.031"/>
<polygon fill="midnightblue" stroke="midnightblue" points="583.88,-276.219 594.403,-277.453 586.946,-269.926 583.88,-276.219"/>
</g>
<!-- Node8 -->
<g id="node8" class="node"><title>Node8</title>
<g id="a_node8"><a xlink:href="../../da/d33/glew_8h.html#a8e93835e91933b7078c88f905dd8599c" target="_top" xlink:title="glViewport">
<polygon fill="white" stroke="black" points="584,-239.5 584,-258.5 646,-258.5 646,-239.5 584,-239.5"/>
<text text-anchor="middle" x="615" y="-246.5" font-family="Helvetica,sans-Serif" font-size="10.00">glViewport</text>
</a>
</g>
</g>
<!-- Node6&#45;&gt;Node8 -->
<g id="edge7" class="edge"><title>Node6&#45;&gt;Node8</title>
<path fill="none" stroke="midnightblue" d="M497.365,-220.589C520.639,-226.258 550.051,-233.423 573.517,-239.139"/>
<polygon fill="midnightblue" stroke="midnightblue" points="572.961,-242.606 583.505,-241.572 574.617,-235.804 572.961,-242.606"/>
</g>
<!-- Node9 -->
<g id="node9" class="node"><title>Node9</title>
<g id="a_node9"><a xlink:href="../../da/d33/glew_8h.html#af14e38e22806d0220680b52edbc3bcef" target="_top" xlink:title="glMatrixMode">
<polygon fill="white" stroke="black" points="577.5,-201.5 577.5,-220.5 652.5,-220.5 652.5,-201.5 577.5,-201.5"/>
<text text-anchor="middle" x="615" y="-208.5" font-family="Helvetica,sans-Serif" font-size="10.00">glMatrixMode</text>
</a>
</g>
</g>
<!-- Node6&#45;&gt;Node9 -->
<g id="edge8" class="edge"><title>Node6&#45;&gt;Node9</title>
<path fill="none" stroke="midnightblue" d="M515.203,-211C532.18,-211 550.575,-211 566.838,-211"/>
<polygon fill="midnightblue" stroke="midnightblue" points="567.181,-214.5 577.181,-211 567.181,-207.5 567.181,-214.5"/>
</g>
<!-- Node10 -->
<g id="node10" class="node"><title>Node10</title>
<g id="a_node10"><a xlink:href="../../da/d33/glew_8h.html#a6577472f85b23086331edadaf0311a49" target="_top" xlink:title="glLoadIdentity">
<polygon fill="white" stroke="black" points="576.5,-163.5 576.5,-182.5 653.5,-182.5 653.5,-163.5 576.5,-163.5"/>
<text text-anchor="middle" x="615" y="-170.5" font-family="Helvetica,sans-Serif" font-size="10.00">glLoadIdentity</text>
</a>
</g>
</g>
<!-- Node6&#45;&gt;Node10 -->
<g id="edge9" class="edge"><title>Node6&#45;&gt;Node10</title>
<path fill="none" stroke="midnightblue" d="M497.365,-201.411C518.343,-196.301 544.308,-189.976 566.41,-184.592"/>
<polygon fill="midnightblue" stroke="midnightblue" points="567.374,-187.96 576.262,-182.193 565.717,-181.159 567.374,-187.96"/>
</g>
<!-- Node11 -->
<g id="node11" class="node"><title>Node11</title>
<g id="a_node11"><a xlink:href="../../da/d33/glew_8h.html#a2d92120b1fad876057dfd00e2d942525" target="_top" xlink:title="glOrtho">
<polygon fill="white" stroke="black" points="591,-125.5 591,-144.5 639,-144.5 639,-125.5 591,-125.5"/>
<text text-anchor="middle" x="615" y="-132.5" font-family="Helvetica,sans-Serif" font-size="10.00">glOrtho</text>
</a>
</g>
</g>
<!-- Node6&#45;&gt;Node11 -->
<g id="edge10" class="edge"><title>Node6&#45;&gt;Node11</title>
<path fill="none" stroke="midnightblue" d="M479.381,-201.457C496.013,-193.946 519.612,-183.096 540,-173 556.213,-164.972 559.908,-162.268 576,-154 579.112,-152.401 582.376,-150.742 585.628,-149.101"/>
<polygon fill="midnightblue" stroke="midnightblue" points="587.259,-152.198 594.627,-144.584 584.119,-145.942 587.259,-152.198"/>
</g>
<!-- Node13 -->
<g id="node13" class="node"><title>Node13</title>
<g id="a_node13"><a xlink:href="../../da/d33/glew_8h.html#a940f58f3728713267a58e2d09ff602b2" target="_top" xlink:title="glBindTexture">
<polygon fill="white" stroke="black" points="418.5,-144.5 418.5,-163.5 495.5,-163.5 495.5,-144.5 418.5,-144.5"/>
<text text-anchor="middle" x="457" y="-151.5" font-family="Helvetica,sans-Serif" font-size="10.00">glBindTexture</text>
</a>
</g>
</g>
<!-- Node12&#45;&gt;Node13 -->
<g id="edge12" class="edge"><title>Node12&#45;&gt;Node13</title>
<path fill="none" stroke="midnightblue" d="M311.525,-167.657C341.929,-164.783 379.021,-161.277 408.009,-158.536"/>
<polygon fill="midnightblue" stroke="midnightblue" points="408.669,-161.99 418.295,-157.564 408.01,-155.021 408.669,-161.99"/>
</g>
<!-- Node15 -->
<g id="node15" class="node"><title>Node15</title>
<g id="a_node15"><a xlink:href="../../d9/d26/classProgramGPU.html#acd625b26fa073fc83ec0be9badb29635" target="_top" xlink:title="ProgramGPU::UseProgram">
<polygon fill="white" stroke="black" points="389,-106.5 389,-125.5 525,-125.5 525,-106.5 389,-106.5"/>
<text text-anchor="middle" x="457" y="-113.5" font-family="Helvetica,sans-Serif" font-size="10.00">ProgramGPU::UseProgram</text>
</a>
</g>
</g>
<!-- Node14&#45;&gt;Node15 -->
<g id="edge14" class="edge"><title>Node14&#45;&gt;Node15</title>
<path fill="none" stroke="midnightblue" d="M338.205,-104.865C351.631,-106.134 365.482,-107.444 378.759,-108.699"/>
<polygon fill="midnightblue" stroke="midnightblue" points="378.499,-112.19 388.784,-109.646 379.158,-105.221 378.499,-112.19"/>
</g>
<!-- Node16 -->
<g id="node16" class="node"><title>Node16</title>
<g id="a_node16"><a xlink:href="../../d9/d4e/classShaderBag.html#a958621b4a6a7c78697d1f224379713c8" target="_top" xlink:title="ShaderBag::SetFeatureOrientation\lParam">
<polygon fill="white" stroke="black" points="374,-57 374,-87 540,-87 540,-57 374,-57"/>
<text text-anchor="start" x="382" y="-75" font-family="Helvetica,sans-Serif" font-size="10.00">ShaderBag::SetFeatureOrientation</text>
<text text-anchor="middle" x="457" y="-64" font-family="Helvetica,sans-Serif" font-size="10.00">Param</text>
</a>
</g>
</g>
<!-- Node14&#45;&gt;Node16 -->
<g id="edge15" class="edge"><title>Node14&#45;&gt;Node16</title>
<path fill="none" stroke="midnightblue" d="M331.563,-87.4773C342.072,-86.1701 352.952,-84.8169 363.706,-83.4794"/>
<polygon fill="midnightblue" stroke="midnightblue" points="364.47,-86.9114 373.961,-82.2038 363.606,-79.9649 364.47,-86.9114"/>
</g>
<!-- Node17&#45;&gt;Node13 -->
<g id="edge17" class="edge"><title>Node17&#45;&gt;Node13</title>
<path fill="none" stroke="midnightblue" d="M327.566,-141.859C354.427,-144.399 384.18,-147.211 408.28,-149.489"/>
<polygon fill="midnightblue" stroke="midnightblue" points="407.953,-152.974 418.238,-150.43 408.611,-146.005 407.953,-152.974"/>
</g>
</g>
</svg>
