<?xml version="1.0" encoding="UTF-8" standalone="no"?>
<!DOCTYPE svg PUBLIC "-//W3C//DTD SVG 1.1//EN"
 "http://www.w3.org/Graphics/SVG/1.1/DTD/svg11.dtd">
<!-- Generated by graphviz version 2.36.0 (20140111.2315)
 -->
<!-- Title: PyramidNaive::GenerateFeatureList Pages: 1 -->
<svg width="696pt" height="243pt"
 viewBox="0.00 0.00 696.00 243.00" xmlns="http://www.w3.org/2000/svg" xmlns:xlink="http://www.w3.org/1999/xlink">
<g id="graph0" class="graph" transform="scale(1 1) rotate(0) translate(4 239)">
<title>PyramidNaive::GenerateFeatureList</title>
<polygon fill="white" stroke="none" points="-4,4 -4,-239 692,-239 692,4 -4,4"/>
<!-- Node1 -->
<g id="node1" class="node"><title>Node1</title>
<polygon fill="#bfbfbf" stroke="black" points="0.5,-98.5 0.5,-117.5 173.5,-117.5 173.5,-98.5 0.5,-98.5"/>
<text text-anchor="middle" x="87" y="-105.5" font-family="Helvetica,sans-Serif" font-size="10.00">PyramidNaive::GenerateFeatureList</text>
</g>
<!-- Node2 -->
<g id="node2" class="node"><title>Node2</title>
<g id="a_node2"><a xlink:href="../../da/d33/glew_8h.html#aea1d47483e7a506d5d7c437309a74fbb" target="_top" xlink:title="glReadBuffer">
<polygon fill="white" stroke="black" points="243,-202.5 243,-221.5 317,-221.5 317,-202.5 243,-202.5"/>
<text text-anchor="middle" x="280" y="-209.5" font-family="Helvetica,sans-Serif" font-size="10.00">glReadBuffer</text>
</a>
</g>
</g>
<!-- Node1&#45;&gt;Node2 -->
<g id="edge1" class="edge"><title>Node1&#45;&gt;Node2</title>
<path fill="none" stroke="midnightblue" d="M98.9681,-117.607C119.42,-135.051 165.362,-172.061 210,-193 217.198,-196.376 225.108,-199.252 232.924,-201.666"/>
<polygon fill="midnightblue" stroke="midnightblue" points="232.137,-205.081 242.715,-204.48 234.071,-198.354 232.137,-205.081"/>
</g>
<!-- Node3 -->
<g id="node3" class="node"><title>Node3</title>
<g id="a_node3"><a xlink:href="../../da/d33/glew_8h.html#a170c1426633472880793e711b06ef0df" target="_top" xlink:title="glDrawBuffer">
<polygon fill="white" stroke="black" points="243,-164.5 243,-183.5 317,-183.5 317,-164.5 243,-164.5"/>
<text text-anchor="middle" x="280" y="-171.5" font-family="Helvetica,sans-Serif" font-size="10.00">glDrawBuffer</text>
</a>
</g>
</g>
<!-- Node1&#45;&gt;Node3 -->
<g id="edge2" class="edge"><title>Node1&#45;&gt;Node3</title>
<path fill="none" stroke="midnightblue" d="M111.647,-117.547C136.082,-127.263 175.421,-142.489 210,-154 217.824,-156.605 226.209,-159.198 234.344,-161.612"/>
<polygon fill="midnightblue" stroke="midnightblue" points="233.507,-165.014 244.087,-164.456 235.469,-158.294 233.507,-165.014"/>
</g>
<!-- Node4 -->
<g id="node4" class="node"><title>Node4</title>
<g id="a_node4"><a xlink:href="../../d9/df0/classPyramidNaive.html#aae2a2eb45ff358f79c27425fdcc1550c" target="_top" xlink:title="PyramidNaive::FitHistogram\lPyramid">
<polygon fill="white" stroke="black" points="210,-115 210,-145 350,-145 350,-115 210,-115"/>
<text text-anchor="start" x="218" y="-133" font-family="Helvetica,sans-Serif" font-size="10.00">PyramidNaive::FitHistogram</text>
<text text-anchor="middle" x="280" y="-122" font-family="Helvetica,sans-Serif" font-size="10.00">Pyramid</text>
</a>
</g>
</g>
<!-- Node1&#45;&gt;Node4 -->
<g id="edge3" class="edge"><title>Node1&#45;&gt;Node4</title>
<path fill="none" stroke="midnightblue" d="M170.665,-117.522C180.392,-118.642 190.301,-119.783 199.976,-120.898"/>
<polygon fill="midnightblue" stroke="midnightblue" points="199.623,-124.38 209.958,-122.048 200.424,-117.426 199.623,-124.38"/>
</g>
<!-- Node10 -->
<g id="node10" class="node"><title>Node10</title>
<g id="a_node10"><a xlink:href="../../d2/d55/classGlobalUtil.html#aaa832fefc0cc9747ccd515d3d5b29f0d" target="_top" xlink:title="GlobalUtil::CLOCK">
<polygon fill="white" stroke="black" points="230,-76.5 230,-95.5 330,-95.5 330,-76.5 230,-76.5"/>
<text text-anchor="middle" x="280" y="-83.5" font-family="Helvetica,sans-Serif" font-size="10.00">GlobalUtil::CLOCK</text>
</a>
</g>
</g>
<!-- Node1&#45;&gt;Node10 -->
<g id="edge9" class="edge"><title>Node1&#45;&gt;Node10</title>
<path fill="none" stroke="midnightblue" d="M170.665,-98.4784C187.205,-96.5732 204.269,-94.6077 219.823,-92.8162"/>
<polygon fill="midnightblue" stroke="midnightblue" points="220.271,-96.2878 229.805,-91.6664 219.47,-89.3338 220.271,-96.2878"/>
</g>
<!-- Node13 -->
<g id="node13" class="node"><title>Node13</title>
<g id="a_node13"><a xlink:href="../../db/d82/wglew_8h.html#a500a82aecba06f4550f6849b8099ca21" target="_top" xlink:title="int">
<polygon fill="white" stroke="black" points="265.5,-38.5 265.5,-57.5 294.5,-57.5 294.5,-38.5 265.5,-38.5"/>
<text text-anchor="middle" x="280" y="-45.5" font-family="Helvetica,sans-Serif" font-size="10.00">int</text>
</a>
</g>
</g>
<!-- Node1&#45;&gt;Node13 -->
<g id="edge12" class="edge"><title>Node1&#45;&gt;Node13</title>
<path fill="none" stroke="midnightblue" d="M114.996,-98.4478C139.626,-89.8475 177.09,-77.0525 210,-67 225.096,-62.3888 242.201,-57.6752 255.604,-54.0965"/>
<polygon fill="midnightblue" stroke="midnightblue" points="256.677,-57.4332 265.45,-51.4933 254.888,-50.6657 256.677,-57.4332"/>
</g>
<!-- Node14 -->
<g id="node14" class="node"><title>Node14</title>
<g id="a_node14"><a xlink:href="../../da/d33/glew_8h.html#a32df7ba224618f3a64723debf23835dd" target="_top" xlink:title="glFinish">
<polygon fill="white" stroke="black" points="255,-0.5 255,-19.5 305,-19.5 305,-0.5 255,-0.5"/>
<text text-anchor="middle" x="280" y="-7.5" font-family="Helvetica,sans-Serif" font-size="10.00">glFinish</text>
</a>
</g>
</g>
<!-- Node1&#45;&gt;Node14 -->
<g id="edge13" class="edge"><title>Node1&#45;&gt;Node14</title>
<path fill="none" stroke="midnightblue" d="M100.089,-98.3491C121.21,-81.9201 166.717,-48.4161 210,-29 220.936,-24.0942 233.428,-20.1876 244.751,-17.2239"/>
<polygon fill="midnightblue" stroke="midnightblue" points="245.868,-20.5535 254.742,-14.7656 244.195,-13.7563 245.868,-20.5535"/>
</g>
<!-- Node5 -->
<g id="node5" class="node"><title>Node5</title>
<g id="a_node5"><a xlink:href="../../d9/df0/classPyramidNaive.html#a38627fede62de0bab2af2f76daf0e7ca" target="_top" xlink:title="PyramidNaive::GetBaseLevel">
<polygon fill="white" stroke="black" points="389,-215.5 389,-234.5 535,-234.5 535,-215.5 389,-215.5"/>
<text text-anchor="middle" x="462" y="-222.5" font-family="Helvetica,sans-Serif" font-size="10.00">PyramidNaive::GetBaseLevel</text>
</a>
</g>
</g>
<!-- Node4&#45;&gt;Node5 -->
<g id="edge4" class="edge"><title>Node4&#45;&gt;Node5</title>
<path fill="none" stroke="midnightblue" d="M333.294,-145.004C339.217,-147.826 344.936,-151.135 350,-155 372.056,-171.832 363.134,-190.285 386,-206 388.911,-208.001 392.015,-209.791 395.243,-211.392"/>
<polygon fill="midnightblue" stroke="midnightblue" points="394.036,-214.683 404.605,-215.426 396.806,-208.255 394.036,-214.683"/>
</g>
<!-- Node6 -->
<g id="node6" class="node"><title>Node6</title>
<g id="a_node6"><a xlink:href="../../df/da6/classGLTexImage.html#acfe4c5231e3e4e64a914bf947498caf2" target="_top" xlink:title="GLTexImage::GetImgWidth">
<polygon fill="white" stroke="black" points="393.5,-177.5 393.5,-196.5 530.5,-196.5 530.5,-177.5 393.5,-177.5"/>
<text text-anchor="middle" x="462" y="-184.5" font-family="Helvetica,sans-Serif" font-size="10.00">GLTexImage::GetImgWidth</text>
</a>
</g>
</g>
<!-- Node4&#45;&gt;Node6 -->
<g id="edge5" class="edge"><title>Node4&#45;&gt;Node6</title>
<path fill="none" stroke="midnightblue" d="M322.629,-145.092C351.586,-155.586 385.16,-167.742 386,-168 393.851,-170.409 402.23,-172.751 410.437,-174.92"/>
<polygon fill="midnightblue" stroke="midnightblue" points="409.758,-178.36 420.315,-177.474 411.51,-171.582 409.758,-178.36"/>
</g>
<!-- Node7 -->
<g id="node7" class="node"><title>Node7</title>
<g id="a_node7"><a xlink:href="../../df/da6/classGLTexImage.html#a0a5bef9bbb86e30e0fac7baa6e7380a0" target="_top" xlink:title="GLTexImage::GetImgHeight">
<polygon fill="white" stroke="black" points="392,-139.5 392,-158.5 532,-158.5 532,-139.5 392,-139.5"/>
<text text-anchor="middle" x="462" y="-146.5" font-family="Helvetica,sans-Serif" font-size="10.00">GLTexImage::GetImgHeight</text>
</a>
</g>
</g>
<!-- Node4&#45;&gt;Node7 -->
<g id="edge6" class="edge"><title>Node4&#45;&gt;Node7</title>
<path fill="none" stroke="midnightblue" d="M350.078,-137.292C360.446,-138.386 371.206,-139.522 381.766,-140.636"/>
<polygon fill="midnightblue" stroke="midnightblue" points="381.497,-144.127 391.81,-141.697 382.232,-137.166 381.497,-144.127"/>
</g>
<!-- Node8 -->
<g id="node8" class="node"><title>Node8</title>
<g id="a_node8"><a xlink:href="../../df/da6/classGLTexImage.html#a57d1a67486a2d19508b4b4bb65cb0e88" target="_top" xlink:title="GLTexImage::SetImageSize">
<polygon fill="white" stroke="black" points="392,-101.5 392,-120.5 532,-120.5 532,-101.5 392,-101.5"/>
<text text-anchor="middle" x="462" y="-108.5" font-family="Helvetica,sans-Serif" font-size="10.00">GLTexImage::SetImageSize</text>
</a>
</g>
</g>
<!-- Node4&#45;&gt;Node8 -->
<g id="edge7" class="edge"><title>Node4&#45;&gt;Node8</title>
<path fill="none" stroke="midnightblue" d="M350.078,-122.708C360.446,-121.614 371.206,-120.478 381.766,-119.364"/>
<polygon fill="midnightblue" stroke="midnightblue" points="382.232,-122.834 391.81,-118.303 381.497,-115.873 382.232,-122.834"/>
</g>
<!-- Node9 -->
<g id="node9" class="node"><title>Node9</title>
<g id="a_node9"><a xlink:href="../../df/da6/classGLTexImage.html#ac3e3d4ecb428287ae07ffca97473a849" target="_top" xlink:title="GLTexImage::ZeroHistoMargin">
<polygon fill="white" stroke="black" points="386.5,-63.5 386.5,-82.5 537.5,-82.5 537.5,-63.5 386.5,-63.5"/>
<text text-anchor="middle" x="462" y="-70.5" font-family="Helvetica,sans-Serif" font-size="10.00">GLTexImage::ZeroHistoMargin</text>
</a>
</g>
</g>
<!-- Node4&#45;&gt;Node9 -->
<g id="edge8" class="edge"><title>Node4&#45;&gt;Node9</title>
<path fill="none" stroke="midnightblue" d="M322.629,-114.908C351.586,-104.414 385.16,-92.2576 386,-92 393.851,-89.5913 402.23,-87.2493 410.437,-85.0797"/>
<polygon fill="midnightblue" stroke="midnightblue" points="411.51,-88.4175 420.315,-82.5257 409.758,-81.6404 411.51,-88.4175"/>
</g>
<!-- Node11 -->
<g id="node11" class="node"><title>Node11</title>
<g id="a_node11"><a xlink:href="../../d9/d98/classClockTimer.html#a20e0c3f7fcb4f981933e423e36edba23" target="_top" xlink:title="ClockTimer::CLOCK">
<polygon fill="white" stroke="black" points="408.5,-25.5 408.5,-44.5 515.5,-44.5 515.5,-25.5 408.5,-25.5"/>
<text text-anchor="middle" x="462" y="-32.5" font-family="Helvetica,sans-Serif" font-size="10.00">ClockTimer::CLOCK</text>
</a>
</g>
</g>
<!-- Node10&#45;&gt;Node11 -->
<g id="edge10" class="edge"><title>Node10&#45;&gt;Node11</title>
<path fill="none" stroke="midnightblue" d="M317.682,-76.4693C328.169,-73.5905 339.579,-70.3107 350,-67 366.213,-61.8491 369.735,-58.9837 386,-54 393.852,-51.594 402.232,-49.2535 410.439,-47.0845"/>
<polygon fill="midnightblue" stroke="midnightblue" points="411.511,-50.4224 420.317,-44.5309 409.759,-43.6451 411.511,-50.4224"/>
</g>
<!-- Node12 -->
<g id="node12" class="node"><title>Node12</title>
<g id="a_node12"><a xlink:href="../../d9/d98/classClockTimer.html#a23cf363d1025bb1a93951d9ccdabc639" target="_top" xlink:title="ClockTimer::ClockMS">
<polygon fill="white" stroke="black" points="574.5,-25.5 574.5,-44.5 687.5,-44.5 687.5,-25.5 574.5,-25.5"/>
<text text-anchor="middle" x="631" y="-32.5" font-family="Helvetica,sans-Serif" font-size="10.00">ClockTimer::ClockMS</text>
</a>
</g>
</g>
<!-- Node11&#45;&gt;Node12 -->
<g id="edge11" class="edge"><title>Node11&#45;&gt;Node12</title>
<path fill="none" stroke="midnightblue" d="M515.84,-35C531.125,-35 548.003,-35 563.985,-35"/>
<polygon fill="midnightblue" stroke="midnightblue" points="564.333,-38.5001 574.333,-35 564.333,-31.5001 564.333,-38.5001"/>
</g>
</g>
</svg>
