<?xml version="1.0" encoding="UTF-8" standalone="no"?>
<!DOCTYPE svg PUBLIC "-//W3C//DTD SVG 1.1//EN"
 "http://www.w3.org/Graphics/SVG/1.1/DTD/svg11.dtd">
<!-- Generated by graphviz version 2.36.0 (20140111.2315)
 -->
<!-- Title: PyramidNaive::FitHistogramPyramid Pages: 1 -->
<svg width="336pt" height="180pt"
 viewBox="0.00 0.00 336.00 180.00" xmlns="http://www.w3.org/2000/svg" xmlns:xlink="http://www.w3.org/1999/xlink">
<g id="graph0" class="graph" transform="scale(1 1) rotate(0) translate(4 176)">
<title>PyramidNaive::FitHistogramPyramid</title>
<polygon fill="white" stroke="none" points="-4,4 -4,-176 332,-176 332,4 -4,4"/>
<!-- Node1 -->
<g id="node1" class="node"><title>Node1</title>
<polygon fill="#bfbfbf" stroke="black" points="0,-71 0,-101 140,-101 140,-71 0,-71"/>
<text text-anchor="start" x="8" y="-89" font-family="Helvetica,sans-Serif" font-size="10.00">PyramidNaive::FitHistogram</text>
<text text-anchor="middle" x="70" y="-78" font-family="Helvetica,sans-Serif" font-size="10.00">Pyramid</text>
</g>
<!-- Node2 -->
<g id="node2" class="node"><title>Node2</title>
<g id="a_node2"><a xlink:href="../../d9/df0/classPyramidNaive.html#a38627fede62de0bab2af2f76daf0e7ca" target="_top" xlink:title="PyramidNaive::GetBaseLevel">
<polygon fill="white" stroke="black" points="179,-152.5 179,-171.5 325,-171.5 325,-152.5 179,-152.5"/>
<text text-anchor="middle" x="252" y="-159.5" font-family="Helvetica,sans-Serif" font-size="10.00">PyramidNaive::GetBaseLevel</text>
</a>
</g>
</g>
<!-- Node1&#45;&gt;Node2 -->
<g id="edge1" class="edge"><title>Node1&#45;&gt;Node2</title>
<path fill="none" stroke="midnightblue" d="M94.7803,-101.145C115.54,-113.813 146.83,-131.594 176,-143 182.304,-145.465 189.032,-147.695 195.773,-149.689"/>
<polygon fill="midnightblue" stroke="midnightblue" points="195.038,-153.117 205.611,-152.438 196.922,-146.376 195.038,-153.117"/>
</g>
<!-- Node3 -->
<g id="node3" class="node"><title>Node3</title>
<g id="a_node3"><a xlink:href="../../df/da6/classGLTexImage.html#acfe4c5231e3e4e64a914bf947498caf2" target="_top" xlink:title="GLTexImage::GetImgWidth">
<polygon fill="white" stroke="black" points="183.5,-114.5 183.5,-133.5 320.5,-133.5 320.5,-114.5 183.5,-114.5"/>
<text text-anchor="middle" x="252" y="-121.5" font-family="Helvetica,sans-Serif" font-size="10.00">GLTexImage::GetImgWidth</text>
</a>
</g>
</g>
<!-- Node1&#45;&gt;Node3 -->
<g id="edge2" class="edge"><title>Node1&#45;&gt;Node3</title>
<path fill="none" stroke="midnightblue" d="M140.078,-100.583C158.477,-104.467 178.11,-108.612 195.666,-112.318"/>
<polygon fill="midnightblue" stroke="midnightblue" points="195.231,-115.804 205.738,-114.445 196.677,-108.955 195.231,-115.804"/>
</g>
<!-- Node4 -->
<g id="node4" class="node"><title>Node4</title>
<g id="a_node4"><a xlink:href="../../df/da6/classGLTexImage.html#a0a5bef9bbb86e30e0fac7baa6e7380a0" target="_top" xlink:title="GLTexImage::GetImgHeight">
<polygon fill="white" stroke="black" points="182,-76.5 182,-95.5 322,-95.5 322,-76.5 182,-76.5"/>
<text text-anchor="middle" x="252" y="-83.5" font-family="Helvetica,sans-Serif" font-size="10.00">GLTexImage::GetImgHeight</text>
</a>
</g>
</g>
<!-- Node1&#45;&gt;Node4 -->
<g id="edge3" class="edge"><title>Node1&#45;&gt;Node4</title>
<path fill="none" stroke="midnightblue" d="M140.078,-86C150.446,-86 161.206,-86 171.766,-86"/>
<polygon fill="midnightblue" stroke="midnightblue" points="171.81,-89.5001 181.81,-86 171.809,-82.5001 171.81,-89.5001"/>
</g>
<!-- Node5 -->
<g id="node5" class="node"><title>Node5</title>
<g id="a_node5"><a xlink:href="../../df/da6/classGLTexImage.html#a57d1a67486a2d19508b4b4bb65cb0e88" target="_top" xlink:title="GLTexImage::SetImageSize">
<polygon fill="white" stroke="black" points="182,-38.5 182,-57.5 322,-57.5 322,-38.5 182,-38.5"/>
<text text-anchor="middle" x="252" y="-45.5" font-family="Helvetica,sans-Serif" font-size="10.00">GLTexImage::SetImageSize</text>
</a>
</g>
</g>
<!-- Node1&#45;&gt;Node5 -->
<g id="edge4" class="edge"><title>Node1&#45;&gt;Node5</title>
<path fill="none" stroke="midnightblue" d="M140.078,-71.4169C158.477,-67.5327 178.11,-63.3878 195.666,-59.6815"/>
<polygon fill="midnightblue" stroke="midnightblue" points="196.677,-63.0455 205.738,-57.5553 195.231,-56.1964 196.677,-63.0455"/>
</g>
<!-- Node6 -->
<g id="node6" class="node"><title>Node6</title>
<g id="a_node6"><a xlink:href="../../df/da6/classGLTexImage.html#ac3e3d4ecb428287ae07ffca97473a849" target="_top" xlink:title="GLTexImage::ZeroHistoMargin">
<polygon fill="white" stroke="black" points="176.5,-0.5 176.5,-19.5 327.5,-19.5 327.5,-0.5 176.5,-0.5"/>
<text text-anchor="middle" x="252" y="-7.5" font-family="Helvetica,sans-Serif" font-size="10.00">GLTexImage::ZeroHistoMargin</text>
</a>
</g>
</g>
<!-- Node1&#45;&gt;Node6 -->
<g id="edge5" class="edge"><title>Node1&#45;&gt;Node6</title>
<path fill="none" stroke="midnightblue" d="M94.7803,-70.8552C115.54,-58.1873 146.83,-40.4056 176,-29 182.304,-26.5352 189.032,-24.3045 195.773,-22.3114"/>
<polygon fill="midnightblue" stroke="midnightblue" points="196.922,-25.6244 205.611,-19.5615 195.038,-18.8828 196.922,-25.6244"/>
</g>
</g>
</svg>
