<?xml version="1.0" encoding="UTF-8" standalone="no"?>
<!DOCTYPE svg PUBLIC "-//W3C//DTD SVG 1.1//EN"
 "http://www.w3.org/Graphics/SVG/1.1/DTD/svg11.dtd">
<!-- Generated by graphviz version 2.36.0 (20140111.2315)
 -->
<!-- Title: PyramidNaive::GenerateFeatureListCPU Pages: 1 -->
<!--zoomable 408 -->
<svg id="main" version="1.1" xmlns="http://www.w3.org/2000/svg" xmlns:xlink="http://www.w3.org/1999/xlink" xml:space="preserve" onload="init(evt)">
<style type="text/css"><![CDATA[
.edge:hover path { stroke: red; }
.edge:hover polygon { stroke: red; fill: red; }
]]></style>
<script type="text/javascript"><![CDATA[
var edges = document.getElementsByTagName('g');
if (edges && edges.length) {
  for (var i=0;i<edges.length;i++) {
    if (edges[i].id.substr(0,4)=='edge') {
      edges[i].setAttribute('class','edge');
    }
  }
}
]]></script>
        <defs>
                <circle id="rim" cx="0" cy="0" r="7"/>
                <circle id="rim2" cx="0" cy="0" r="3.5"/>
                <g id="zoomPlus">
                        <use xlink:href="#rim" fill="#404040">
                                <set attributeName="fill" to="#808080" begin="zoomplus.mouseover" end="zoomplus.mouseout"/>
                        </use>
                        <path d="M-4,0h8M0,-4v8" fill="none" stroke="white" stroke-width="1.5" pointer-events="none"/>
                </g>
                <g id="zoomMin">
                        <use xlink:href="#rim" fill="#404040">
                                <set attributeName="fill" to="#808080" begin="zoomminus.mouseover" end="zoomminus.mouseout"/>
                        </use>
                        <path d="M-4,0h8" fill="none" stroke="white" stroke-width="1.5" pointer-events="none"/>
                </g>
                <g id="dirArrow">
                        <path fill="none" stroke="white" stroke-width="1.5" d="M0,-3.0v7 M-2.5,-0.5L0,-3.0L2.5,-0.5"/>
                </g>
               <g id="resetDef">
                       <use xlink:href="#rim2" fill="#404040">
                               <set attributeName="fill" to="#808080" begin="reset.mouseover" end="reset.mouseout"/>
                       </use>
               </g>
        </defs>

<script type="text/javascript">
var viewWidth = 700;
var viewHeight = 408;
var sectionId = 'dynsection-9';
</script>
<script xlink:href="../../svgpan.js"/>
<svg id="graph" class="graph">
<g id="viewport">
<title>PyramidNaive::GenerateFeatureListCPU</title>
<polygon fill="white" stroke="none" points="-4,4 -4,-404 696,-404 696,4 -4,4"/>
<!-- Node1 -->
<g id="node1" class="node"><title>Node1</title>
<polygon fill="#bfbfbf" stroke="black" points="0.5,-185 0.5,-215 157.5,-215 157.5,-185 0.5,-185"/>
<text text-anchor="start" x="8.5" y="-203" font-family="Helvetica,sans-Serif" font-size="10.00">PyramidNaive::GenerateFeature</text>
<text text-anchor="middle" x="79" y="-192" font-family="Helvetica,sans-Serif" font-size="10.00">ListCPU</text>
</g>
<!-- Node2 -->
<g id="node2" class="node"><title>Node2</title>
<g id="a_node2"><a xlink:href="../../d9/df0/classPyramidNaive.html#a38627fede62de0bab2af2f76daf0e7ca" target="_top" xlink:title="PyramidNaive::GetBaseLevel">
<polygon fill="white" stroke="black" points="203,-380.5 203,-399.5 349,-399.5 349,-380.5 203,-380.5"/>
<text text-anchor="middle" x="276" y="-387.5" font-family="Helvetica,sans-Serif" font-size="10.00">PyramidNaive::GetBaseLevel</text>
</a>
</g>
</g>
<!-- Node1&#45;&gt;Node2 -->
<g id="edge1" class="edge"><title>Node1&#45;&gt;Node2</title>
<path fill="none" stroke="midnightblue" d="M86.281,-215.434C100.433,-248.256 138.007,-325.3 194,-366 199.954,-370.328 206.687,-373.881 213.664,-376.798"/>
<polygon fill="midnightblue" stroke="midnightblue" points="212.687,-380.169 223.28,-380.392 215.138,-373.612 212.687,-380.169"/>
</g>
<!-- Node3 -->
<g id="node3" class="node"><title>Node3</title>
<g id="a_node3"><a xlink:href="../../df/da6/classGLTexImage.html#a2d2fb8f7b78e537c8afef1f4615fa9b2" target="_top" xlink:title="GLTexImage::GetTexWidth">
<polygon fill="white" stroke="black" points="412.5,-361.5 412.5,-380.5 549.5,-380.5 549.5,-361.5 412.5,-361.5"/>
<text text-anchor="middle" x="481" y="-368.5" font-family="Helvetica,sans-Serif" font-size="10.00">GLTexImage::GetTexWidth</text>
</a>
</g>
</g>
<!-- Node1&#45;&gt;Node3 -->
<g id="edge2" class="edge"><title>Node1&#45;&gt;Node3</title>
<path fill="none" stroke="midnightblue" d="M88.6899,-215.196C105.266,-242.629 144.228,-300.069 194,-327 258.322,-361.803 341.975,-371.252 402.173,-372.929"/>
<polygon fill="midnightblue" stroke="midnightblue" points="402.305,-376.432 412.377,-373.145 402.454,-369.434 402.305,-376.432"/>
</g>
<!-- Node4 -->
<g id="node4" class="node"><title>Node4</title>
<g id="a_node4"><a xlink:href="../../df/da6/classGLTexImage.html#acf5811dc18277b8f6284867198b7d87a" target="_top" xlink:title="GLTexImage::GetTexHeight">
<polygon fill="white" stroke="black" points="411,-323.5 411,-342.5 551,-342.5 551,-323.5 411,-323.5"/>
<text text-anchor="middle" x="481" y="-330.5" font-family="Helvetica,sans-Serif" font-size="10.00">GLTexImage::GetTexHeight</text>
</a>
</g>
</g>
<!-- Node1&#45;&gt;Node4 -->
<g id="edge3" class="edge"><title>Node1&#45;&gt;Node4</title>
<path fill="none" stroke="midnightblue" d="M92.9481,-215.221C112.426,-236.972 151.533,-276.37 194,-295 259.8,-323.866 341.661,-332.314 400.922,-334.162"/>
<polygon fill="midnightblue" stroke="midnightblue" points="400.886,-337.662 410.972,-334.419 401.065,-330.664 400.886,-337.662"/>
</g>
<!-- Node5 -->
<g id="node5" class="node"><title>Node5</title>
<g id="a_node5"><a xlink:href="../../df/da6/classGLTexImage.html#a6df86f3c5a5bf3485c25236e317b4013" target="_top" xlink:title="GLTexImage::BindTex">
<polygon fill="white" stroke="black" points="218.5,-190.5 218.5,-209.5 333.5,-209.5 333.5,-190.5 218.5,-190.5"/>
<text text-anchor="middle" x="276" y="-197.5" font-family="Helvetica,sans-Serif" font-size="10.00">GLTexImage::BindTex</text>
</a>
</g>
</g>
<!-- Node1&#45;&gt;Node5 -->
<g id="edge4" class="edge"><title>Node1&#45;&gt;Node5</title>
<path fill="none" stroke="midnightblue" d="M157.629,-200C174.27,-200 191.718,-200 207.92,-200"/>
<polygon fill="midnightblue" stroke="midnightblue" points="208.366,-203.5 218.366,-200 208.366,-196.5 208.366,-203.5"/>
</g>
<!-- Node7 -->
<g id="node7" class="node"><title>Node7</title>
<g id="a_node7"><a xlink:href="../../da/d33/glew_8h.html#a1e3a5d514c8587268c17567d5a0c717a" target="_top" xlink:title="glGetTexImage">
<polygon fill="white" stroke="black" points="234.5,-152.5 234.5,-171.5 317.5,-171.5 317.5,-152.5 234.5,-152.5"/>
<text text-anchor="middle" x="276" y="-159.5" font-family="Helvetica,sans-Serif" font-size="10.00">glGetTexImage</text>
</a>
</g>
</g>
<!-- Node1&#45;&gt;Node7 -->
<g id="edge6" class="edge"><title>Node1&#45;&gt;Node7</title>
<path fill="none" stroke="midnightblue" d="M157.069,-184.981C179.655,-180.58 203.772,-175.88 224.273,-171.885"/>
<polygon fill="midnightblue" stroke="midnightblue" points="225.183,-175.274 234.329,-169.926 223.844,-168.403 225.183,-175.274"/>
</g>
<!-- Node8 -->
<g id="node8" class="node"><title>Node8</title>
<g id="a_node8"><a xlink:href="../../df/da6/classGLTexImage.html#a0a5bef9bbb86e30e0fac7baa6e7380a0" target="_top" xlink:title="GLTexImage::GetImgHeight">
<polygon fill="white" stroke="black" points="206,-114.5 206,-133.5 346,-133.5 346,-114.5 206,-114.5"/>
<text text-anchor="middle" x="276" y="-121.5" font-family="Helvetica,sans-Serif" font-size="10.00">GLTexImage::GetImgHeight</text>
</a>
</g>
</g>
<!-- Node1&#45;&gt;Node8 -->
<g id="edge7" class="edge"><title>Node1&#45;&gt;Node8</title>
<path fill="none" stroke="midnightblue" d="M105.944,-184.834C128.562,-172.153 162.579,-154.364 194,-143 201.083,-140.438 208.642,-138.132 216.189,-136.083"/>
<polygon fill="midnightblue" stroke="midnightblue" points="217.251,-139.423 226.061,-133.538 215.504,-132.645 217.251,-139.423"/>
</g>
<!-- Node9 -->
<g id="node9" class="node"><title>Node9</title>
<g id="a_node9"><a xlink:href="../../df/da6/classGLTexImage.html#acfe4c5231e3e4e64a914bf947498caf2" target="_top" xlink:title="GLTexImage::GetImgWidth">
<polygon fill="white" stroke="black" points="207.5,-76.5 207.5,-95.5 344.5,-95.5 344.5,-76.5 207.5,-76.5"/>
<text text-anchor="middle" x="276" y="-83.5" font-family="Helvetica,sans-Serif" font-size="10.00">GLTexImage::GetImgWidth</text>
</a>
</g>
</g>
<!-- Node1&#45;&gt;Node9 -->
<g id="edge8" class="edge"><title>Node1&#45;&gt;Node9</title>
<path fill="none" stroke="midnightblue" d="M93.5355,-184.972C113.439,-163.826 152.731,-125.579 194,-105 198.847,-102.583 204.013,-100.466 209.299,-98.6138"/>
<polygon fill="midnightblue" stroke="midnightblue" points="210.434,-101.925 218.902,-95.5571 208.311,-95.2552 210.434,-101.925"/>
</g>
<!-- Node10 -->
<g id="node10" class="node"><title>Node10</title>
<g id="a_node10"><a xlink:href="../../d1/d75/classPyramidGL.html#a021d8c251ab0d806965bf99a27940be8" target="_top" xlink:title="PyramidGL::SetLevelFeatureNum">
<polygon fill="white" stroke="black" points="194,-266.5 194,-285.5 358,-285.5 358,-266.5 194,-266.5"/>
<text text-anchor="middle" x="276" y="-273.5" font-family="Helvetica,sans-Serif" font-size="10.00">PyramidGL::SetLevelFeatureNum</text>
</a>
</g>
</g>
<!-- Node1&#45;&gt;Node10 -->
<g id="edge9" class="edge"><title>Node1&#45;&gt;Node10</title>
<path fill="none" stroke="midnightblue" d="M105.944,-215.166C128.562,-227.847 162.579,-245.636 194,-257 201.083,-259.562 208.642,-261.868 216.189,-263.917"/>
<polygon fill="midnightblue" stroke="midnightblue" points="215.504,-267.355 226.061,-266.462 217.251,-260.577 215.504,-267.355"/>
</g>
<!-- Node19 -->
<g id="node19" class="node"><title>Node19</title>
<g id="a_node19"><a xlink:href="../../df/da6/classGLTexImage.html#aeb3373705e8eae0feac654a24ac80321" target="_top" xlink:title="GLTexImage::AttachToFBO">
<polygon fill="white" stroke="black" points="206.5,-38.5 206.5,-57.5 345.5,-57.5 345.5,-38.5 206.5,-38.5"/>
<text text-anchor="middle" x="276" y="-45.5" font-family="Helvetica,sans-Serif" font-size="10.00">GLTexImage::AttachToFBO</text>
</a>
</g>
</g>
<!-- Node1&#45;&gt;Node19 -->
<g id="edge21" class="edge"><title>Node1&#45;&gt;Node19</title>
<path fill="none" stroke="midnightblue" d="M88.4577,-184.907C104.929,-156.98 144.108,-97.3349 194,-67 197.61,-64.8051 201.453,-62.8637 205.427,-61.1465"/>
<polygon fill="midnightblue" stroke="midnightblue" points="206.8,-64.3689 214.895,-57.5331 204.304,-57.8291 206.8,-64.3689"/>
</g>
<!-- Node20 -->
<g id="node20" class="node"><title>Node20</title>
<g id="a_node20"><a xlink:href="../../da/d33/glew_8h.html#a83b997226c74c32cab88fef3fe9d2105" target="_top" xlink:title="glTexSubImage2D">
<polygon fill="white" stroke="black" points="227,-0.5 227,-19.5 325,-19.5 325,-0.5 227,-0.5"/>
<text text-anchor="middle" x="276" y="-7.5" font-family="Helvetica,sans-Serif" font-size="10.00">glTexSubImage2D</text>
</a>
</g>
</g>
<!-- Node1&#45;&gt;Node20 -->
<g id="edge22" class="edge"><title>Node1&#45;&gt;Node20</title>
<path fill="none" stroke="midnightblue" d="M85.5622,-184.872C98.7699,-151.168 135.371,-69.6805 194,-29 200.909,-24.2061 208.865,-20.61 217.034,-17.9148"/>
<polygon fill="midnightblue" stroke="midnightblue" points="218.026,-21.2713 226.672,-15.1469 216.094,-14.5433 218.026,-21.2713"/>
</g>
<!-- Node21 -->
<g id="node21" class="node"><title>Node21</title>
<g id="a_node21"><a xlink:href="../../df/da6/classGLTexImage.html#ac0824f2c65a2d96d3e109bd3395849d4" target="_top" xlink:title="GLTexImage::UnbindTex">
<polygon fill="white" stroke="black" points="213,-228.5 213,-247.5 339,-247.5 339,-228.5 213,-228.5"/>
<text text-anchor="middle" x="276" y="-235.5" font-family="Helvetica,sans-Serif" font-size="10.00">GLTexImage::UnbindTex</text>
</a>
</g>
</g>
<!-- Node1&#45;&gt;Node21 -->
<g id="edge23" class="edge"><title>Node1&#45;&gt;Node21</title>
<path fill="none" stroke="midnightblue" d="M157.069,-215.019C176.831,-218.87 197.766,-222.949 216.425,-226.585"/>
<polygon fill="midnightblue" stroke="midnightblue" points="215.76,-230.022 226.245,-228.499 217.099,-223.151 215.76,-230.022"/>
</g>
<!-- Node6 -->
<g id="node6" class="node"><title>Node6</title>
<g id="a_node6"><a xlink:href="../../da/d33/glew_8h.html#a940f58f3728713267a58e2d09ff602b2" target="_top" xlink:title="glBindTexture">
<polygon fill="white" stroke="black" points="442.5,-133.5 442.5,-152.5 519.5,-152.5 519.5,-133.5 442.5,-133.5"/>
<text text-anchor="middle" x="481" y="-140.5" font-family="Helvetica,sans-Serif" font-size="10.00">glBindTexture</text>
</a>
</g>
</g>
<!-- Node5&#45;&gt;Node6 -->
<g id="edge5" class="edge"><title>Node5&#45;&gt;Node6</title>
<path fill="none" stroke="midnightblue" d="M326.858,-190.418C337.294,-187.827 348.124,-184.695 358,-181 374.945,-174.66 377.015,-168.23 394,-162 406.12,-157.555 419.6,-153.975 432.225,-151.173"/>
<polygon fill="midnightblue" stroke="midnightblue" points="433.058,-154.575 442.123,-149.092 431.617,-147.725 433.058,-154.575"/>
</g>
<!-- Node10&#45;&gt;Node3 -->
<g id="edge12" class="edge"><title>Node10&#45;&gt;Node3</title>
<path fill="none" stroke="midnightblue" d="M288.49,-285.513C308.589,-301.664 352.001,-334.403 394,-352 400.159,-354.58 406.719,-356.833 413.365,-358.796"/>
<polygon fill="midnightblue" stroke="midnightblue" points="412.556,-362.203 423.126,-361.466 414.404,-355.451 412.556,-362.203"/>
</g>
<!-- Node10&#45;&gt;Node4 -->
<g id="edge13" class="edge"><title>Node10&#45;&gt;Node4</title>
<path fill="none" stroke="midnightblue" d="M311.488,-285.536C325.943,-289.709 342.873,-294.828 358,-300 374.244,-305.554 377.57,-309.023 394,-314 402.506,-316.577 411.583,-318.963 420.533,-321.112"/>
<polygon fill="midnightblue" stroke="midnightblue" points="420.014,-324.585 430.546,-323.436 421.596,-317.766 420.014,-324.585"/>
</g>
<!-- Node11 -->
<g id="node11" class="node"><title>Node11</title>
<g id="a_node11"><a xlink:href="../../d1/d75/classPyramidGL.html#adc9f9256e92f0d2fccb5e992b0775ba6" target="_top" xlink:title="PyramidGL::GetTextureStorageSize">
<polygon fill="white" stroke="black" points="394.5,-247.5 394.5,-266.5 567.5,-266.5 567.5,-247.5 394.5,-247.5"/>
<text text-anchor="middle" x="481" y="-254.5" font-family="Helvetica,sans-Serif" font-size="10.00">PyramidGL::GetTextureStorageSize</text>
</a>
</g>
</g>
<!-- Node10&#45;&gt;Node11 -->
<g id="edge10" class="edge"><title>Node10&#45;&gt;Node11</title>
<path fill="none" stroke="midnightblue" d="M358.106,-268.409C366.679,-267.606 375.454,-266.785 384.173,-265.969"/>
<polygon fill="midnightblue" stroke="midnightblue" points="384.737,-269.432 394.367,-265.015 384.084,-262.462 384.737,-269.432"/>
</g>
<!-- Node12 -->
<g id="node12" class="node"><title>Node12</title>
<g id="a_node12"><a xlink:href="../../db/d82/wglew_8h.html#a500a82aecba06f4550f6849b8099ca21" target="_top" xlink:title="int">
<polygon fill="white" stroke="black" points="633.5,-247.5 633.5,-266.5 662.5,-266.5 662.5,-247.5 633.5,-247.5"/>
<text text-anchor="middle" x="648" y="-254.5" font-family="Helvetica,sans-Serif" font-size="10.00">int</text>
</a>
</g>
</g>
<!-- Node10&#45;&gt;Node12 -->
<g id="edge19" class="edge"><title>Node10&#45;&gt;Node12</title>
<path fill="none" stroke="midnightblue" d="M326.858,-266.418C337.294,-263.827 348.124,-260.695 358,-257 374.945,-250.66 376.439,-242.35 394,-238 469.065,-219.407 491.205,-228.895 568,-238 587.007,-240.254 608.059,-245.456 623.649,-249.848"/>
<polygon fill="midnightblue" stroke="midnightblue" points="622.897,-253.274 633.477,-252.713 624.856,-246.554 622.897,-253.274"/>
</g>
<!-- Node13 -->
<g id="node13" class="node"><title>Node13</title>
<g id="a_node13"><a xlink:href="../../df/da6/classGLTexImage.html#a0e8739a59cc418ee4b5b1146d13fae0a" target="_top" xlink:title="GLTexImage::InitTexture">
<polygon fill="white" stroke="black" points="418.5,-171.5 418.5,-190.5 543.5,-190.5 543.5,-171.5 418.5,-171.5"/>
<text text-anchor="middle" x="481" y="-178.5" font-family="Helvetica,sans-Serif" font-size="10.00">GLTexImage::InitTexture</text>
</a>
</g>
</g>
<!-- Node10&#45;&gt;Node13 -->
<g id="edge14" class="edge"><title>Node10&#45;&gt;Node13</title>
<path fill="none" stroke="midnightblue" d="M339.175,-266.482C345.84,-264.009 352.269,-260.902 358,-257 381.234,-241.179 371.101,-221.303 394,-205 400.077,-200.673 406.909,-197.125 413.996,-194.216"/>
<polygon fill="midnightblue" stroke="midnightblue" points="415.588,-197.36 423.772,-190.632 413.179,-190.788 415.588,-197.36"/>
</g>
<!-- Node18 -->
<g id="node18" class="node"><title>Node18</title>
<g id="a_node18"><a xlink:href="../../df/da6/classGLTexImage.html#a57d1a67486a2d19508b4b4bb65cb0e88" target="_top" xlink:title="GLTexImage::SetImageSize">
<polygon fill="white" stroke="black" points="411,-285.5 411,-304.5 551,-304.5 551,-285.5 411,-285.5"/>
<text text-anchor="middle" x="481" y="-292.5" font-family="Helvetica,sans-Serif" font-size="10.00">GLTexImage::SetImageSize</text>
</a>
</g>
</g>
<!-- Node10&#45;&gt;Node18 -->
<g id="edge20" class="edge"><title>Node10&#45;&gt;Node18</title>
<path fill="none" stroke="midnightblue" d="M358.106,-283.591C372.147,-284.905 386.731,-286.27 400.723,-287.58"/>
<polygon fill="midnightblue" stroke="midnightblue" points="400.507,-291.075 410.79,-288.522 401.159,-284.105 400.507,-291.075"/>
</g>
<!-- Node11&#45;&gt;Node12 -->
<g id="edge11" class="edge"><title>Node11&#45;&gt;Node12</title>
<path fill="none" stroke="midnightblue" d="M567.883,-257C588.225,-257 608.292,-257 623.127,-257"/>
<polygon fill="midnightblue" stroke="midnightblue" points="623.369,-260.5 633.369,-257 623.369,-253.5 623.369,-260.5"/>
</g>
<!-- Node14 -->
<g id="node14" class="node"><title>Node14</title>
<g id="a_node14"><a xlink:href="../../da/d33/glew_8h.html#a99e77ebf136a8c511226cf705049a305" target="_top" xlink:title="glGenTextures">
<polygon fill="white" stroke="black" points="608,-171.5 608,-190.5 688,-190.5 688,-171.5 608,-171.5"/>
<text text-anchor="middle" x="648" y="-178.5" font-family="Helvetica,sans-Serif" font-size="10.00">glGenTextures</text>
</a>
</g>
</g>
<!-- Node13&#45;&gt;Node14 -->
<g id="edge15" class="edge"><title>Node13&#45;&gt;Node14</title>
<path fill="none" stroke="midnightblue" d="M543.909,-181C561.63,-181 580.704,-181 597.568,-181"/>
<polygon fill="midnightblue" stroke="midnightblue" points="597.752,-184.5 607.752,-181 597.752,-177.5 597.752,-184.5"/>
</g>
<!-- Node15 -->
<g id="node15" class="node"><title>Node15</title>
<g id="a_node15"><a xlink:href="../../da/d33/glew_8h.html#ac8dbabff536e520bc700960dadd8d787" target="_top" xlink:title="glTexParameteri">
<polygon fill="white" stroke="black" points="604,-133.5 604,-152.5 692,-152.5 692,-133.5 604,-133.5"/>
<text text-anchor="middle" x="648" y="-140.5" font-family="Helvetica,sans-Serif" font-size="10.00">glTexParameteri</text>
</a>
</g>
</g>
<!-- Node13&#45;&gt;Node15 -->
<g id="edge16" class="edge"><title>Node13&#45;&gt;Node15</title>
<path fill="none" stroke="midnightblue" d="M525.786,-171.491C539.331,-168.505 554.293,-165.162 568,-162 577.794,-159.741 588.255,-157.267 598.254,-154.874"/>
<polygon fill="midnightblue" stroke="midnightblue" points="599.152,-158.258 608.057,-152.518 597.516,-151.452 599.152,-158.258"/>
</g>
<!-- Node16 -->
<g id="node16" class="node"><title>Node16</title>
<g id="a_node16"><a xlink:href="../../da/d33/glew_8h.html#a414668e7628d609ce501994bd609bfdf" target="_top" xlink:title="glTexEnvi">
<polygon fill="white" stroke="black" points="618,-95.5 618,-114.5 678,-114.5 678,-95.5 618,-95.5"/>
<text text-anchor="middle" x="648" y="-102.5" font-family="Helvetica,sans-Serif" font-size="10.00">glTexEnvi</text>
</a>
</g>
</g>
<!-- Node13&#45;&gt;Node16 -->
<g id="edge17" class="edge"><title>Node13&#45;&gt;Node16</title>
<path fill="none" stroke="midnightblue" d="M543.809,-172.051C552.24,-169.498 560.548,-166.217 568,-162 588.248,-150.543 584.988,-137.408 604,-124 606.376,-122.324 608.924,-120.747 611.549,-119.273"/>
<polygon fill="midnightblue" stroke="midnightblue" points="613.299,-122.31 620.637,-114.668 610.135,-116.066 613.299,-122.31"/>
</g>
<!-- Node17 -->
<g id="node17" class="node"><title>Node17</title>
<g id="a_node17"><a xlink:href="../../da/d33/glew_8h.html#aa95edbecc15f2cb8072b81af66d60f5b" target="_top" xlink:title="glTexImage2D">
<polygon fill="white" stroke="black" points="608,-209.5 608,-228.5 688,-228.5 688,-209.5 608,-209.5"/>
<text text-anchor="middle" x="648" y="-216.5" font-family="Helvetica,sans-Serif" font-size="10.00">glTexImage2D</text>
</a>
</g>
</g>
<!-- Node13&#45;&gt;Node17 -->
<g id="edge18" class="edge"><title>Node13&#45;&gt;Node17</title>
<path fill="none" stroke="midnightblue" d="M523.636,-190.589C546.274,-195.803 574.404,-202.281 598.083,-207.734"/>
<polygon fill="midnightblue" stroke="midnightblue" points="597.4,-211.168 607.93,-210.002 598.971,-204.347 597.4,-211.168"/>
</g>
<!-- Node21&#45;&gt;Node6 -->
<g id="edge24" class="edge"><title>Node21&#45;&gt;Node6</title>
<path fill="none" stroke="midnightblue" d="M339.341,-228.72C345.976,-226.204 352.353,-223.022 358,-219 382.405,-201.616 369.483,-179.225 394,-162 405.166,-154.155 419,-149.47 432.283,-146.696"/>
<polygon fill="midnightblue" stroke="midnightblue" points="433.044,-150.116 442.281,-144.927 431.824,-143.223 433.044,-150.116"/>
</g>
</g>
</svg>
        <g id="navigator" transform="translate(0 0)" fill="#404254">
                <rect fill="#f2f5e9" fill-opacity="0.5" stroke="#606060" stroke-width=".5" x="0" y="0" width="60" height="60"/>
                <use id="zoomplus" xlink:href="#zoomPlus" x="17" y="9" onmousedown="handleZoom(evt,'in')"/>
                <use id="zoomminus" xlink:href="#zoomMin" x="42" y="9" onmousedown="handleZoom(evt,'out')"/>
                <use id="reset" xlink:href="#resetDef" x="30" y="36" onmousedown="handleReset()"/>
                <g id="arrowUp" xlink:href="#dirArrow" transform="translate(30 24)" onmousedown="handlePan(0,-1)">
                  <use xlink:href="#rim" fill="#404040">
                        <set attributeName="fill" to="#808080" begin="arrowUp.mouseover" end="arrowUp.mouseout"/>
                  </use>
                  <path fill="none" stroke="white" stroke-width="1.5" d="M0,-3.0v7 M-2.5,-0.5L0,-3.0L2.5,-0.5"/>
                </g>
                <g id="arrowRight" xlink:href="#dirArrow" transform="rotate(90) translate(36 -43)" onmousedown="handlePan(1,0)">
                  <use xlink:href="#rim" fill="#404040">
                        <set attributeName="fill" to="#808080" begin="arrowRight.mouseover" end="arrowRight.mouseout"/>
                  </use>
                  <path fill="none" stroke="white" stroke-width="1.5" d="M0,-3.0v7 M-2.5,-0.5L0,-3.0L2.5,-0.5"/>
                </g>
                <g id="arrowDown" xlink:href="#dirArrow" transform="rotate(180) translate(-30 -48)" onmousedown="handlePan(0,1)">
                  <use xlink:href="#rim" fill="#404040">
                        <set attributeName="fill" to="#808080" begin="arrowDown.mouseover" end="arrowDown.mouseout"/>
                  </use>
                  <path fill="none" stroke="white" stroke-width="1.5" d="M0,-3.0v7 M-2.5,-0.5L0,-3.0L2.5,-0.5"/>
                </g>
                <g id="arrowLeft" xlink:href="#dirArrow" transform="rotate(270) translate(-36 17)" onmousedown="handlePan(-1,0)">
                  <use xlink:href="#rim" fill="#404040">
                        <set attributeName="fill" to="#808080" begin="arrowLeft.mouseover" end="arrowLeft.mouseout"/>
                  </use>
                  <path fill="none" stroke="white" stroke-width="1.5" d="M0,-3.0v7 M-2.5,-0.5L0,-3.0L2.5,-0.5"/>
                </g>
        </g>
        <svg viewBox="0 0 15 15" width="100%" height="30px" preserveAspectRatio="xMaxYMin meet">
         <g id="arrow_out" transform="scale(0.3 0.3)">
          <a xlink:href="classPyramidNaive_a781b8e4397a4af4cd8fbc0397cd9a6e4_cgraph_org.svg" target="_base">
           <rect id="button" ry="5" rx="5" y="6" x="6" height="38" width="38"
                fill="#f2f5e9" fill-opacity="0.5" stroke="#606060" stroke-width="1.0"/>
           <path id="arrow"
             d="M 11.500037,31.436501 C 11.940474,20.09759 22.043105,11.32322 32.158766,21.979434 L 37.068811,17.246167 C 37.068811,17.246167 37.088388,32 37.088388,32 L 22.160133,31.978069 C 22.160133,31.978069 26.997745,27.140456 26.997745,27.140456 C 18.528582,18.264221 13.291696,25.230495 11.500037,31.436501 z"
             style="fill:#404040;"/>
          </a>
         </g>
        </svg>
</svg>
