<?xml version="1.0" encoding="UTF-8" standalone="no"?>
<!DOCTYPE svg PUBLIC "-//W3C//DTD SVG 1.1//EN"
 "http://www.w3.org/Graphics/SVG/1.1/DTD/svg11.dtd">
<!-- Generated by graphviz version 2.36.0 (20140111.2315)
 -->
<!-- Title: PyramidNaive::ResizePyramid Pages: 1 -->
<!--zoomable 541 -->
<svg id="main" version="1.1" xmlns="http://www.w3.org/2000/svg" xmlns:xlink="http://www.w3.org/1999/xlink" xml:space="preserve" onload="init(evt)">
<style type="text/css"><![CDATA[
.edge:hover path { stroke: red; }
.edge:hover polygon { stroke: red; fill: red; }
]]></style>
<script type="text/javascript"><![CDATA[
var edges = document.getElementsByTagName('g');
if (edges && edges.length) {
  for (var i=0;i<edges.length;i++) {
    if (edges[i].id.substr(0,4)=='edge') {
      edges[i].setAttribute('class','edge');
    }
  }
}
]]></script>
        <defs>
                <circle id="rim" cx="0" cy="0" r="7"/>
                <circle id="rim2" cx="0" cy="0" r="3.5"/>
                <g id="zoomPlus">
                        <use xlink:href="#rim" fill="#404040">
                                <set attributeName="fill" to="#808080" begin="zoomplus.mouseover" end="zoomplus.mouseout"/>
                        </use>
                        <path d="M-4,0h8M0,-4v8" fill="none" stroke="white" stroke-width="1.5" pointer-events="none"/>
                </g>
                <g id="zoomMin">
                        <use xlink:href="#rim" fill="#404040">
                                <set attributeName="fill" to="#808080" begin="zoomminus.mouseover" end="zoomminus.mouseout"/>
                        </use>
                        <path d="M-4,0h8" fill="none" stroke="white" stroke-width="1.5" pointer-events="none"/>
                </g>
                <g id="dirArrow">
                        <path fill="none" stroke="white" stroke-width="1.5" d="M0,-3.0v7 M-2.5,-0.5L0,-3.0L2.5,-0.5"/>
                </g>
               <g id="resetDef">
                       <use xlink:href="#rim2" fill="#404040">
                               <set attributeName="fill" to="#808080" begin="reset.mouseover" end="reset.mouseout"/>
                       </use>
               </g>
        </defs>

<script type="text/javascript">
var viewWidth = 706;
var viewHeight = 541;
var sectionId = 'dynsection-13';
</script>
<script xlink:href="../../svgpan.js"/>
<svg id="graph" class="graph">
<g id="viewport">
<title>PyramidNaive::ResizePyramid</title>
<polygon fill="white" stroke="none" points="-4,4 -4,-537 702,-537 702,4 -4,4"/>
<!-- Node1 -->
<g id="node1" class="node"><title>Node1</title>
<polygon fill="#bfbfbf" stroke="black" points="0.5,-225.5 0.5,-244.5 151.5,-244.5 151.5,-225.5 0.5,-225.5"/>
<text text-anchor="middle" x="76" y="-232.5" font-family="Helvetica,sans-Serif" font-size="10.00">PyramidNaive::ResizePyramid</text>
</g>
<!-- Node2 -->
<g id="node2" class="node"><title>Node2</title>
<g id="a_node2"><a xlink:href="../../dd/dce/classSiftPyramid.html#a8ed85e9e72c573c1ae35b20bfd2423eb" target="_top" xlink:title="SiftPyramid::GetRequired\lOctaveNum">
<polygon fill="white" stroke="black" points="212,-335 212,-365 340,-365 340,-335 212,-335"/>
<text text-anchor="start" x="220" y="-353" font-family="Helvetica,sans-Serif" font-size="10.00">SiftPyramid::GetRequired</text>
<text text-anchor="middle" x="276" y="-342" font-family="Helvetica,sans-Serif" font-size="10.00">OctaveNum</text>
</a>
</g>
</g>
<!-- Node1&#45;&gt;Node2 -->
<g id="edge1" class="edge"><title>Node1&#45;&gt;Node2</title>
<path fill="none" stroke="midnightblue" d="M93.5408,-244.607C125.733,-263.305 197.413,-304.937 240.422,-329.917"/>
<polygon fill="midnightblue" stroke="midnightblue" points="238.734,-332.984 249.14,-334.98 242.25,-326.931 238.734,-332.984"/>
</g>
<!-- Node4 -->
<g id="node4" class="node"><title>Node4</title>
<g id="a_node4"><a xlink:href="../../d1/d75/classPyramidGL.html#a92b4b4dab4de07ae7f02c1d0959b19ae" target="_top" xlink:title="PyramidGL::DestroyPerLevelData">
<polygon fill="white" stroke="black" points="193.5,-203.5 193.5,-222.5 358.5,-222.5 358.5,-203.5 193.5,-203.5"/>
<text text-anchor="middle" x="276" y="-210.5" font-family="Helvetica,sans-Serif" font-size="10.00">PyramidGL::DestroyPerLevelData</text>
</a>
</g>
</g>
<!-- Node1&#45;&gt;Node4 -->
<g id="edge3" class="edge"><title>Node1&#45;&gt;Node4</title>
<path fill="none" stroke="midnightblue" d="M151.573,-226.714C161.874,-225.57 172.552,-224.383 183.121,-223.209"/>
<polygon fill="midnightblue" stroke="midnightblue" points="183.652,-226.671 193.204,-222.088 182.879,-219.714 183.652,-226.671"/>
</g>
<!-- Node5 -->
<g id="node5" class="node"><title>Node5</title>
<g id="a_node5"><a xlink:href="../../d9/df0/classPyramidNaive.html#aa64e63e06eb69f680aee342e54f593c8" target="_top" xlink:title="PyramidNaive::DestroyPyramidData">
<polygon fill="white" stroke="black" points="188,-165.5 188,-184.5 364,-184.5 364,-165.5 188,-165.5"/>
<text text-anchor="middle" x="276" y="-172.5" font-family="Helvetica,sans-Serif" font-size="10.00">PyramidNaive::DestroyPyramidData</text>
</a>
</g>
</g>
<!-- Node1&#45;&gt;Node5 -->
<g id="edge4" class="edge"><title>Node1&#45;&gt;Node5</title>
<path fill="none" stroke="midnightblue" d="M100.072,-225.408C122.308,-216.42 157.043,-203.05 188,-194 196.827,-191.419 206.249,-189.012 215.513,-186.837"/>
<polygon fill="midnightblue" stroke="midnightblue" points="216.494,-190.204 225.468,-184.571 214.941,-183.378 216.494,-190.204"/>
</g>
<!-- Node6 -->
<g id="node6" class="node"><title>Node6</title>
<g id="a_node6"><a xlink:href="../../d9/df0/classPyramidNaive.html#a38627fede62de0bab2af2f76daf0e7ca" target="_top" xlink:title="PyramidNaive::GetBaseLevel">
<polygon fill="white" stroke="black" points="203,-127.5 203,-146.5 349,-146.5 349,-127.5 203,-127.5"/>
<text text-anchor="middle" x="276" y="-134.5" font-family="Helvetica,sans-Serif" font-size="10.00">PyramidNaive::GetBaseLevel</text>
</a>
</g>
</g>
<!-- Node1&#45;&gt;Node6 -->
<g id="edge5" class="edge"><title>Node1&#45;&gt;Node6</title>
<path fill="none" stroke="midnightblue" d="M87.4297,-225.318C106.101,-208.532 147.122,-174.097 188,-156 193.752,-153.454 199.873,-151.237 206.101,-149.309"/>
<polygon fill="midnightblue" stroke="midnightblue" points="207.276,-152.613 215.937,-146.511 205.361,-145.88 207.276,-152.613"/>
</g>
<!-- Node7 -->
<g id="node7" class="node"><title>Node7</title>
<g id="a_node7"><a xlink:href="../../df/da6/classGLTexImage.html#a0e8739a59cc418ee4b5b1146d13fae0a" target="_top" xlink:title="GLTexImage::InitTexture">
<polygon fill="white" stroke="black" points="424.5,-456.5 424.5,-475.5 549.5,-475.5 549.5,-456.5 424.5,-456.5"/>
<text text-anchor="middle" x="487" y="-463.5" font-family="Helvetica,sans-Serif" font-size="10.00">GLTexImage::InitTexture</text>
</a>
</g>
</g>
<!-- Node1&#45;&gt;Node7 -->
<g id="edge6" class="edge"><title>Node1&#45;&gt;Node7</title>
<path fill="none" stroke="midnightblue" d="M82.0327,-244.736C95.5896,-270 135.429,-338.174 188,-374 256.804,-420.888 350.472,-444.642 414.309,-456.136"/>
<polygon fill="midnightblue" stroke="midnightblue" points="413.837,-459.606 424.289,-457.877 415.04,-452.711 413.837,-459.606"/>
</g>
<!-- Node12 -->
<g id="node12" class="node"><title>Node12</title>
<g id="a_node12"><a xlink:href="../../d1/d75/classPyramidGL.html#a90bbd79da17d195d05b15b6439b6f693" target="_top" xlink:title="PyramidGL::ResizeFeature\lStorage">
<polygon fill="white" stroke="black" points="208.5,-242 208.5,-272 343.5,-272 343.5,-242 208.5,-242"/>
<text text-anchor="start" x="216.5" y="-260" font-family="Helvetica,sans-Serif" font-size="10.00">PyramidGL::ResizeFeature</text>
<text text-anchor="middle" x="276" y="-249" font-family="Helvetica,sans-Serif" font-size="10.00">Storage</text>
</a>
</g>
</g>
<!-- Node1&#45;&gt;Node12 -->
<g id="edge11" class="edge"><title>Node1&#45;&gt;Node12</title>
<path fill="none" stroke="midnightblue" d="M151.573,-243.286C166.86,-244.984 182.977,-246.775 198.336,-248.482"/>
<polygon fill="midnightblue" stroke="midnightblue" points="197.978,-251.963 208.304,-249.589 198.751,-245.006 197.978,-251.963"/>
</g>
<!-- Node3 -->
<g id="node3" class="node"><title>Node3</title>
<g id="a_node3"><a xlink:href="../../db/d82/wglew_8h.html#a500a82aecba06f4550f6849b8099ca21" target="_top" xlink:title="int">
<polygon fill="white" stroke="black" points="639.5,-256.5 639.5,-275.5 668.5,-275.5 668.5,-256.5 639.5,-256.5"/>
<text text-anchor="middle" x="654" y="-263.5" font-family="Helvetica,sans-Serif" font-size="10.00">int</text>
</a>
</g>
</g>
<!-- Node2&#45;&gt;Node3 -->
<g id="edge2" class="edge"><title>Node2&#45;&gt;Node3</title>
<path fill="none" stroke="midnightblue" d="M304.033,-365.043C358.787,-393.31 485.132,-447.185 574,-397 616.635,-372.924 638.833,-315.585 647.919,-285.379"/>
<polygon fill="midnightblue" stroke="midnightblue" points="651.334,-286.165 650.687,-275.59 644.598,-284.26 651.334,-286.165"/>
</g>
<!-- Node8 -->
<g id="node8" class="node"><title>Node8</title>
<g id="a_node8"><a xlink:href="../../da/d33/glew_8h.html#a99e77ebf136a8c511226cf705049a305" target="_top" xlink:title="glGenTextures">
<polygon fill="white" stroke="black" points="614,-399.5 614,-418.5 694,-418.5 694,-399.5 614,-399.5"/>
<text text-anchor="middle" x="654" y="-406.5" font-family="Helvetica,sans-Serif" font-size="10.00">glGenTextures</text>
</a>
</g>
</g>
<!-- Node7&#45;&gt;Node8 -->
<g id="edge7" class="edge"><title>Node7&#45;&gt;Node8</title>
<path fill="none" stroke="midnightblue" d="M525.988,-456.483C541.064,-452.426 558.476,-447.385 574,-442 583.183,-438.814 603.601,-430.271 621.378,-422.676"/>
<polygon fill="midnightblue" stroke="midnightblue" points="623.084,-425.752 630.895,-418.594 620.325,-419.319 623.084,-425.752"/>
</g>
<!-- Node9 -->
<g id="node9" class="node"><title>Node9</title>
<g id="a_node9"><a xlink:href="../../da/d33/glew_8h.html#ac8dbabff536e520bc700960dadd8d787" target="_top" xlink:title="glTexParameteri">
<polygon fill="white" stroke="black" points="610,-513.5 610,-532.5 698,-532.5 698,-513.5 610,-513.5"/>
<text text-anchor="middle" x="654" y="-520.5" font-family="Helvetica,sans-Serif" font-size="10.00">glTexParameteri</text>
</a>
</g>
</g>
<!-- Node7&#45;&gt;Node9 -->
<g id="edge8" class="edge"><title>Node7&#45;&gt;Node9</title>
<path fill="none" stroke="midnightblue" d="M515.617,-475.541C542.982,-484.994 585.09,-499.54 615.476,-510.037"/>
<polygon fill="midnightblue" stroke="midnightblue" points="614.698,-513.471 625.293,-513.428 616.984,-506.855 614.698,-513.471"/>
</g>
<!-- Node10 -->
<g id="node10" class="node"><title>Node10</title>
<g id="a_node10"><a xlink:href="../../da/d33/glew_8h.html#a414668e7628d609ce501994bd609bfdf" target="_top" xlink:title="glTexEnvi">
<polygon fill="white" stroke="black" points="624,-475.5 624,-494.5 684,-494.5 684,-475.5 624,-475.5"/>
<text text-anchor="middle" x="654" y="-482.5" font-family="Helvetica,sans-Serif" font-size="10.00">glTexEnvi</text>
</a>
</g>
</g>
<!-- Node7&#45;&gt;Node10 -->
<g id="edge9" class="edge"><title>Node7&#45;&gt;Node10</title>
<path fill="none" stroke="midnightblue" d="M549.909,-473.129C571.204,-475.581 594.455,-478.258 613.476,-480.449"/>
<polygon fill="midnightblue" stroke="midnightblue" points="613.235,-483.944 623.57,-481.611 614.036,-476.99 613.235,-483.944"/>
</g>
<!-- Node11 -->
<g id="node11" class="node"><title>Node11</title>
<g id="a_node11"><a xlink:href="../../da/d33/glew_8h.html#aa95edbecc15f2cb8072b81af66d60f5b" target="_top" xlink:title="glTexImage2D">
<polygon fill="white" stroke="black" points="614,-437.5 614,-456.5 694,-456.5 694,-437.5 614,-437.5"/>
<text text-anchor="middle" x="654" y="-444.5" font-family="Helvetica,sans-Serif" font-size="10.00">glTexImage2D</text>
</a>
</g>
</g>
<!-- Node7&#45;&gt;Node11 -->
<g id="edge10" class="edge"><title>Node7&#45;&gt;Node11</title>
<path fill="none" stroke="midnightblue" d="M549.909,-458.871C567.63,-456.831 586.704,-454.634 603.568,-452.692"/>
<polygon fill="midnightblue" stroke="midnightblue" points="604.218,-456.141 613.752,-451.519 603.417,-449.187 604.218,-456.141"/>
</g>
<!-- Node12&#45;&gt;Node3 -->
<g id="edge15" class="edge"><title>Node12&#45;&gt;Node3</title>
<path fill="none" stroke="midnightblue" d="M299.302,-272.126C317.639,-285.085 343.796,-304.808 364,-325 382.363,-343.352 376.662,-359.629 400,-371 469.521,-404.872 504.805,-405.532 574,-371 610.06,-353.004 633.972,-309.844 645.33,-284.819"/>
<polygon fill="midnightblue" stroke="midnightblue" points="648.551,-286.19 649.309,-275.622 642.126,-283.41 648.551,-286.19"/>
</g>
<!-- Node12&#45;&gt;Node7 -->
<g id="edge16" class="edge"><title>Node12&#45;&gt;Node7</title>
<path fill="none" stroke="midnightblue" d="M302.574,-272.209C321.521,-284.514 346.912,-303.319 364,-325 387.884,-355.304 375.533,-374.165 400,-404 416.175,-423.724 440.041,-440.262 458.53,-451.284"/>
<polygon fill="midnightblue" stroke="midnightblue" points="456.967,-454.423 467.378,-456.387 460.464,-448.359 456.967,-454.423"/>
</g>
<!-- Node13 -->
<g id="node13" class="node"><title>Node13</title>
<g id="a_node13"><a xlink:href="../../d1/d75/classPyramidGL.html#a26c4ddce33dbce36f2cd9b8030cde568" target="_top" xlink:title="PyramidGL::GetBaseLevel">
<polygon fill="white" stroke="black" points="420.5,-38.5 420.5,-57.5 553.5,-57.5 553.5,-38.5 420.5,-38.5"/>
<text text-anchor="middle" x="487" y="-45.5" font-family="Helvetica,sans-Serif" font-size="10.00">PyramidGL::GetBaseLevel</text>
</a>
</g>
</g>
<!-- Node12&#45;&gt;Node13 -->
<g id="edge12" class="edge"><title>Node12&#45;&gt;Node13</title>
<path fill="none" stroke="midnightblue" d="M343.614,-246.236C351.239,-242.711 358.305,-238.078 364,-232 415.322,-177.229 346.995,-120.144 400,-67 403.309,-63.6828 407.057,-60.8874 411.093,-58.5366"/>
<polygon fill="midnightblue" stroke="midnightblue" points="412.849,-61.575 420.328,-54.0701 409.801,-55.2734 412.849,-61.575"/>
</g>
<!-- Node14 -->
<g id="node14" class="node"><title>Node14</title>
<g id="a_node14"><a xlink:href="../../df/da6/classGLTexImage.html#ac3a15a06aac93511997c876cf4a2e175" target="_top" xlink:title="GLTexImage::GetDrawWidth">
<polygon fill="white" stroke="black" points="415.5,-0.5 415.5,-19.5 558.5,-19.5 558.5,-0.5 415.5,-0.5"/>
<text text-anchor="middle" x="487" y="-7.5" font-family="Helvetica,sans-Serif" font-size="10.00">GLTexImage::GetDrawWidth</text>
</a>
</g>
</g>
<!-- Node12&#45;&gt;Node14 -->
<g id="edge13" class="edge"><title>Node12&#45;&gt;Node14</title>
<path fill="none" stroke="midnightblue" d="M343.841,-246.445C351.43,-242.886 358.425,-238.189 364,-232 425.327,-163.918 336.58,-95.136 400,-29 401.898,-27.0204 403.953,-25.2249 406.132,-23.5974"/>
<polygon fill="midnightblue" stroke="midnightblue" points="408.386,-26.3217 415.093,-18.1193 404.735,-20.3494 408.386,-26.3217"/>
</g>
<!-- Node15 -->
<g id="node15" class="node"><title>Node15</title>
<g id="a_node15"><a xlink:href="../../df/da6/classGLTexImage.html#a14d04508d48392c4f705a44bec04fa05" target="_top" xlink:title="GLTexImage::GetDrawHeight">
<polygon fill="white" stroke="black" points="414,-342.5 414,-361.5 560,-361.5 560,-342.5 414,-342.5"/>
<text text-anchor="middle" x="487" y="-349.5" font-family="Helvetica,sans-Serif" font-size="10.00">GLTexImage::GetDrawHeight</text>
</a>
</g>
</g>
<!-- Node12&#45;&gt;Node15 -->
<g id="edge14" class="edge"><title>Node12&#45;&gt;Node15</title>
<path fill="none" stroke="midnightblue" d="M296.758,-272.147C320.163,-289.369 360.923,-317.145 400,-333 406.283,-335.549 412.97,-337.786 419.732,-339.741"/>
<polygon fill="midnightblue" stroke="midnightblue" points="419.089,-343.192 429.654,-342.408 420.906,-336.432 419.089,-343.192"/>
</g>
<!-- Node16 -->
<g id="node16" class="node"><title>Node16</title>
<g id="a_node16"><a xlink:href="../../df/da6/classGLTexImage.html#aeb3373705e8eae0feac654a24ac80321" target="_top" xlink:title="GLTexImage::AttachToFBO">
<polygon fill="white" stroke="black" points="417.5,-304.5 417.5,-323.5 556.5,-323.5 556.5,-304.5 417.5,-304.5"/>
<text text-anchor="middle" x="487" y="-311.5" font-family="Helvetica,sans-Serif" font-size="10.00">GLTexImage::AttachToFBO</text>
</a>
</g>
</g>
<!-- Node12&#45;&gt;Node16 -->
<g id="edge17" class="edge"><title>Node12&#45;&gt;Node16</title>
<path fill="none" stroke="midnightblue" d="M322.594,-272.066C345.663,-279.438 374.179,-288.172 400,-295 409.535,-297.522 419.724,-299.979 429.633,-302.244"/>
<polygon fill="midnightblue" stroke="midnightblue" points="428.89,-305.664 439.414,-304.44 430.424,-298.834 428.89,-305.664"/>
</g>
<!-- Node17 -->
<g id="node17" class="node"><title>Node17</title>
<g id="a_node17"><a xlink:href="../../df/da6/classGLTexImage.html#acfe4c5231e3e4e64a914bf947498caf2" target="_top" xlink:title="GLTexImage::GetImgWidth">
<polygon fill="white" stroke="black" points="418.5,-266.5 418.5,-285.5 555.5,-285.5 555.5,-266.5 418.5,-266.5"/>
<text text-anchor="middle" x="487" y="-273.5" font-family="Helvetica,sans-Serif" font-size="10.00">GLTexImage::GetImgWidth</text>
</a>
</g>
</g>
<!-- Node12&#45;&gt;Node17 -->
<g id="edge18" class="edge"><title>Node12&#45;&gt;Node17</title>
<path fill="none" stroke="midnightblue" d="M343.704,-263.064C364.33,-264.939 387.226,-267.021 408.516,-268.956"/>
<polygon fill="midnightblue" stroke="midnightblue" points="408.22,-272.443 418.495,-269.863 408.853,-265.472 408.22,-272.443"/>
</g>
<!-- Node18 -->
<g id="node18" class="node"><title>Node18</title>
<g id="a_node18"><a xlink:href="../../df/da6/classGLTexImage.html#a0a5bef9bbb86e30e0fac7baa6e7380a0" target="_top" xlink:title="GLTexImage::GetImgHeight">
<polygon fill="white" stroke="black" points="417,-228.5 417,-247.5 557,-247.5 557,-228.5 417,-228.5"/>
<text text-anchor="middle" x="487" y="-235.5" font-family="Helvetica,sans-Serif" font-size="10.00">GLTexImage::GetImgHeight</text>
</a>
</g>
</g>
<!-- Node12&#45;&gt;Node18 -->
<g id="edge19" class="edge"><title>Node12&#45;&gt;Node18</title>
<path fill="none" stroke="midnightblue" d="M343.704,-250.936C363.723,-249.116 385.881,-247.102 406.634,-245.215"/>
<polygon fill="midnightblue" stroke="midnightblue" points="407.051,-248.692 416.693,-244.301 406.417,-241.72 407.051,-248.692"/>
</g>
<!-- Node19 -->
<g id="node19" class="node"><title>Node19</title>
<g id="a_node19"><a xlink:href="../../d1/d75/classPyramidGL.html#adc9f9256e92f0d2fccb5e992b0775ba6" target="_top" xlink:title="PyramidGL::GetTextureStorageSize">
<polygon fill="white" stroke="black" points="400.5,-152.5 400.5,-171.5 573.5,-171.5 573.5,-152.5 400.5,-152.5"/>
<text text-anchor="middle" x="487" y="-159.5" font-family="Helvetica,sans-Serif" font-size="10.00">PyramidGL::GetTextureStorageSize</text>
</a>
</g>
</g>
<!-- Node12&#45;&gt;Node19 -->
<g id="edge20" class="edge"><title>Node12&#45;&gt;Node19</title>
<path fill="none" stroke="midnightblue" d="M343.795,-242.963C350.95,-239.981 357.852,-236.371 364,-232 386.614,-215.925 376.896,-196.362 400,-181 403.112,-178.931 406.413,-177.084 409.839,-175.435"/>
<polygon fill="midnightblue" stroke="midnightblue" points="411.294,-178.62 419.156,-171.518 408.581,-172.167 411.294,-178.62"/>
</g>
<!-- Node20 -->
<g id="node20" class="node"><title>Node20</title>
<g id="a_node20"><a xlink:href="../../d1/d75/classPyramidGL.html#ab3096e88d1558cb4ad876a19597fa0f7" target="_top" xlink:title="PyramidGL::GetAlignedStorageSize">
<polygon fill="white" stroke="black" points="400.5,-114.5 400.5,-133.5 573.5,-133.5 573.5,-114.5 400.5,-114.5"/>
<text text-anchor="middle" x="487" y="-121.5" font-family="Helvetica,sans-Serif" font-size="10.00">PyramidGL::GetAlignedStorageSize</text>
</a>
</g>
</g>
<!-- Node12&#45;&gt;Node20 -->
<g id="edge22" class="edge"><title>Node12&#45;&gt;Node20</title>
<path fill="none" stroke="midnightblue" d="M343.56,-244.899C351.009,-241.582 358.044,-237.363 364,-232 395.707,-203.446 367.418,-170.551 400,-143 401.992,-141.315 404.101,-139.771 406.302,-138.356"/>
<polygon fill="midnightblue" stroke="midnightblue" points="408.087,-141.368 415.195,-133.512 404.739,-135.221 408.087,-141.368"/>
</g>
<!-- Node21 -->
<g id="node21" class="node"><title>Node21</title>
<g id="a_node21"><a xlink:href="../../df/da6/classGLTexImage.html#a2d2fb8f7b78e537c8afef1f4615fa9b2" target="_top" xlink:title="GLTexImage::GetTexWidth">
<polygon fill="white" stroke="black" points="418.5,-190.5 418.5,-209.5 555.5,-209.5 555.5,-190.5 418.5,-190.5"/>
<text text-anchor="middle" x="487" y="-197.5" font-family="Helvetica,sans-Serif" font-size="10.00">GLTexImage::GetTexWidth</text>
</a>
</g>
</g>
<!-- Node12&#45;&gt;Node21 -->
<g id="edge24" class="edge"><title>Node12&#45;&gt;Node21</title>
<path fill="none" stroke="midnightblue" d="M331.469,-241.953C342.287,-238.794 353.534,-235.389 364,-232 380.184,-226.759 383.661,-223.734 400,-219 408.844,-216.438 418.286,-214.03 427.555,-211.845"/>
<polygon fill="midnightblue" stroke="midnightblue" points="428.543,-215.209 437.509,-209.565 426.98,-208.386 428.543,-215.209"/>
</g>
<!-- Node22 -->
<g id="node22" class="node"><title>Node22</title>
<g id="a_node22"><a xlink:href="../../df/da6/classGLTexImage.html#acf5811dc18277b8f6284867198b7d87a" target="_top" xlink:title="GLTexImage::GetTexHeight">
<polygon fill="white" stroke="black" points="417,-76.5 417,-95.5 557,-95.5 557,-76.5 417,-76.5"/>
<text text-anchor="middle" x="487" y="-83.5" font-family="Helvetica,sans-Serif" font-size="10.00">GLTexImage::GetTexHeight</text>
</a>
</g>
</g>
<!-- Node12&#45;&gt;Node22 -->
<g id="edge25" class="edge"><title>Node12&#45;&gt;Node22</title>
<path fill="none" stroke="midnightblue" d="M343.701,-245.703C351.218,-242.258 358.232,-237.789 364,-232 405.41,-190.441 357.314,-145.248 400,-105 402.448,-102.692 405.11,-100.641 407.931,-98.8188"/>
<polygon fill="midnightblue" stroke="midnightblue" points="409.687,-101.848 416.819,-94.0134 406.358,-95.6905 409.687,-101.848"/>
</g>
<!-- Node19&#45;&gt;Node3 -->
<g id="edge21" class="edge"><title>Node19&#45;&gt;Node3</title>
<path fill="none" stroke="midnightblue" d="M552.099,-171.588C559.747,-174.043 567.231,-177.127 574,-181 602.984,-197.583 627.553,-228.325 641.274,-247.939"/>
<polygon fill="midnightblue" stroke="midnightblue" points="638.445,-250.004 646.951,-256.321 644.241,-246.078 638.445,-250.004"/>
</g>
<!-- Node20&#45;&gt;Node3 -->
<g id="edge23" class="edge"><title>Node20&#45;&gt;Node3</title>
<path fill="none" stroke="midnightblue" d="M555.896,-133.595C562.318,-136.068 568.48,-139.153 574,-143 611.315,-169.005 635.1,-218.878 646.012,-246.458"/>
<polygon fill="midnightblue" stroke="midnightblue" points="642.868,-248.039 649.679,-256.155 649.416,-245.563 642.868,-248.039"/>
</g>
</g>
</svg>
        <g id="navigator" transform="translate(0 0)" fill="#404254">
                <rect fill="#f2f5e9" fill-opacity="0.5" stroke="#606060" stroke-width=".5" x="0" y="0" width="60" height="60"/>
                <use id="zoomplus" xlink:href="#zoomPlus" x="17" y="9" onmousedown="handleZoom(evt,'in')"/>
                <use id="zoomminus" xlink:href="#zoomMin" x="42" y="9" onmousedown="handleZoom(evt,'out')"/>
                <use id="reset" xlink:href="#resetDef" x="30" y="36" onmousedown="handleReset()"/>
                <g id="arrowUp" xlink:href="#dirArrow" transform="translate(30 24)" onmousedown="handlePan(0,-1)">
                  <use xlink:href="#rim" fill="#404040">
                        <set attributeName="fill" to="#808080" begin="arrowUp.mouseover" end="arrowUp.mouseout"/>
                  </use>
                  <path fill="none" stroke="white" stroke-width="1.5" d="M0,-3.0v7 M-2.5,-0.5L0,-3.0L2.5,-0.5"/>
                </g>
                <g id="arrowRight" xlink:href="#dirArrow" transform="rotate(90) translate(36 -43)" onmousedown="handlePan(1,0)">
                  <use xlink:href="#rim" fill="#404040">
                        <set attributeName="fill" to="#808080" begin="arrowRight.mouseover" end="arrowRight.mouseout"/>
                  </use>
                  <path fill="none" stroke="white" stroke-width="1.5" d="M0,-3.0v7 M-2.5,-0.5L0,-3.0L2.5,-0.5"/>
                </g>
                <g id="arrowDown" xlink:href="#dirArrow" transform="rotate(180) translate(-30 -48)" onmousedown="handlePan(0,1)">
                  <use xlink:href="#rim" fill="#404040">
                        <set attributeName="fill" to="#808080" begin="arrowDown.mouseover" end="arrowDown.mouseout"/>
                  </use>
                  <path fill="none" stroke="white" stroke-width="1.5" d="M0,-3.0v7 M-2.5,-0.5L0,-3.0L2.5,-0.5"/>
                </g>
                <g id="arrowLeft" xlink:href="#dirArrow" transform="rotate(270) translate(-36 17)" onmousedown="handlePan(-1,0)">
                  <use xlink:href="#rim" fill="#404040">
                        <set attributeName="fill" to="#808080" begin="arrowLeft.mouseover" end="arrowLeft.mouseout"/>
                  </use>
                  <path fill="none" stroke="white" stroke-width="1.5" d="M0,-3.0v7 M-2.5,-0.5L0,-3.0L2.5,-0.5"/>
                </g>
        </g>
        <svg viewBox="0 0 15 15" width="100%" height="30px" preserveAspectRatio="xMaxYMin meet">
         <g id="arrow_out" transform="scale(0.3 0.3)">
          <a xlink:href="classPyramidNaive_a25e26a2e8294e2218d8ac9556fabdd08_cgraph_org.svg" target="_base">
           <rect id="button" ry="5" rx="5" y="6" x="6" height="38" width="38"
                fill="#f2f5e9" fill-opacity="0.5" stroke="#606060" stroke-width="1.0"/>
           <path id="arrow"
             d="M 11.500037,31.436501 C 11.940474,20.09759 22.043105,11.32322 32.158766,21.979434 L 37.068811,17.246167 C 37.068811,17.246167 37.088388,32 37.088388,32 L 22.160133,31.978069 C 22.160133,31.978069 26.997745,27.140456 26.997745,27.140456 C 18.528582,18.264221 13.291696,25.230495 11.500037,31.436501 z"
             style="fill:#404040;"/>
          </a>
         </g>
        </svg>
</svg>
