<?xml version="1.0" encoding="UTF-8" standalone="no"?>
<!DOCTYPE svg PUBLIC "-//W3C//DTD SVG 1.1//EN"
 "http://www.w3.org/Graphics/SVG/1.1/DTD/svg11.dtd">
<!-- Generated by graphviz version 2.36.0 (20140111.2315)
 -->
<!-- Title: src/IOWrapper/ImageDisplay.h Pages: 1 -->
<svg width="1397pt" height="96pt"
 viewBox="0.00 0.00 1397.00 96.00" xmlns="http://www.w3.org/2000/svg" xmlns:xlink="http://www.w3.org/1999/xlink">
<g id="graph0" class="graph" transform="scale(1 1) rotate(0) translate(4 92)">
<title>src/IOWrapper/ImageDisplay.h</title>
<polygon fill="white" stroke="none" points="-4,4 -4,-92 1393,-92 1393,4 -4,4"/>
<!-- Node1 -->
<g id="node1" class="node"><title>Node1</title>
<polygon fill="#bfbfbf" stroke="black" points="578,-68.5 578,-87.5 730,-87.5 730,-68.5 578,-68.5"/>
<text text-anchor="middle" x="654" y="-75.5" font-family="Helvetica,sans-Serif" font-size="10.00">src/IOWrapper/ImageDisplay.h</text>
</g>
<!-- Node2 -->
<g id="node2" class="node"><title>Node2</title>
<g id="a_node2"><a xlink:href="../../d8/d5e/DepthMap_8cpp.html" target="_top" xlink:title="src/DepthEstimation\l/DepthMap.cpp">
<polygon fill="white" stroke="black" points="0,-1 0,-31 106,-31 106,-1 0,-1"/>
<text text-anchor="start" x="8" y="-19" font-family="Helvetica,sans-Serif" font-size="10.00">src/DepthEstimation</text>
<text text-anchor="middle" x="53" y="-8" font-family="Helvetica,sans-Serif" font-size="10.00">/DepthMap.cpp</text>
</a>
</g>
</g>
<!-- Node1&#45;&gt;Node2 -->
<g id="edge1" class="edge"><title>Node1&#45;&gt;Node2</title>
<path fill="none" stroke="midnightblue" d="M567.59,-73.8885C460.72,-69.0994 273.498,-57.6328 115,-32 112.158,-31.5403 109.253,-31.0193 106.328,-30.4541"/>
<polygon fill="midnightblue" stroke="midnightblue" points="567.534,-77.3893 577.678,-74.3313 567.841,-70.396 567.534,-77.3893"/>
</g>
<!-- Node3 -->
<g id="node3" class="node"><title>Node3</title>
<g id="a_node3"><a xlink:href="../../d7/d84/KeyFrameGraph_8cpp.html" target="_top" xlink:title="src/GlobalMapping/KeyFrame\lGraph.cpp">
<polygon fill="white" stroke="black" points="124,-1 124,-31 270,-31 270,-1 124,-1"/>
<text text-anchor="start" x="132" y="-19" font-family="Helvetica,sans-Serif" font-size="10.00">src/GlobalMapping/KeyFrame</text>
<text text-anchor="middle" x="197" y="-8" font-family="Helvetica,sans-Serif" font-size="10.00">Graph.cpp</text>
</a>
</g>
</g>
<!-- Node1&#45;&gt;Node3 -->
<g id="edge2" class="edge"><title>Node1&#45;&gt;Node3</title>
<path fill="none" stroke="midnightblue" d="M567.661,-68.1641C491.523,-60.0089 377.655,-46.9282 279,-32 276.138,-31.5669 273.223,-31.11 270.28,-30.6356"/>
<polygon fill="midnightblue" stroke="midnightblue" points="567.368,-71.6526 577.683,-69.2324 568.11,-64.6921 567.368,-71.6526"/>
</g>
<!-- Node4 -->
<g id="node4" class="node"><title>Node4</title>
<g id="a_node4"><a xlink:href="../../d4/df3/ImageDisplay__OpenCV_8cpp.html" target="_top" xlink:title="src/IOWrapper/OpenCV\l/ImageDisplay_OpenCV.cpp">
<polygon fill="white" stroke="black" points="288.5,-1 288.5,-31 429.5,-31 429.5,-1 288.5,-1"/>
<text text-anchor="start" x="296.5" y="-19" font-family="Helvetica,sans-Serif" font-size="10.00">src/IOWrapper/OpenCV</text>
<text text-anchor="middle" x="359" y="-8" font-family="Helvetica,sans-Serif" font-size="10.00">/ImageDisplay_OpenCV.cpp</text>
</a>
</g>
</g>
<!-- Node1&#45;&gt;Node4 -->
<g id="edge3" class="edge"><title>Node1&#45;&gt;Node4</title>
<path fill="none" stroke="midnightblue" d="M602.112,-66.4464C553.766,-56.6135 481.34,-41.8827 428.111,-31.0565"/>
<polygon fill="midnightblue" stroke="midnightblue" points="601.55,-69.9038 612.047,-68.4672 602.945,-63.0442 601.55,-69.9038"/>
</g>
<!-- Node5 -->
<g id="node5" class="node"><title>Node5</title>
<g id="a_node5"><a xlink:href="../../df/d7b/LiveSLAMWrapper_8cpp.html" target="_top" xlink:title="src/LiveSLAMWrapper.cpp">
<polygon fill="white" stroke="black" points="448,-6.5 448,-25.5 582,-25.5 582,-6.5 448,-6.5"/>
<text text-anchor="middle" x="515" y="-13.5" font-family="Helvetica,sans-Serif" font-size="10.00">src/LiveSLAMWrapper.cpp</text>
</a>
</g>
</g>
<!-- Node1&#45;&gt;Node5 -->
<g id="edge4" class="edge"><title>Node1&#45;&gt;Node5</title>
<path fill="none" stroke="midnightblue" d="M624.75,-64.3743C597.755,-52.7215 558.396,-35.7319 534.878,-25.5806"/>
<polygon fill="midnightblue" stroke="midnightblue" points="623.516,-67.6537 634.085,-68.4035 626.291,-61.2269 623.516,-67.6537"/>
</g>
<!-- Node6 -->
<g id="node6" class="node"><title>Node6</title>
<g id="a_node6"><a xlink:href="../../de/dce/SlamSystem_8cpp.html" target="_top" xlink:title="src/SlamSystem.cpp">
<polygon fill="white" stroke="black" points="600,-6.5 600,-25.5 708,-25.5 708,-6.5 600,-6.5"/>
<text text-anchor="middle" x="654" y="-13.5" font-family="Helvetica,sans-Serif" font-size="10.00">src/SlamSystem.cpp</text>
</a>
</g>
</g>
<!-- Node1&#45;&gt;Node6 -->
<g id="edge5" class="edge"><title>Node1&#45;&gt;Node6</title>
<path fill="none" stroke="midnightblue" d="M654,-58.1595C654,-47.2482 654,-34.04 654,-25.5806"/>
<polygon fill="midnightblue" stroke="midnightblue" points="650.5,-58.4034 654,-68.4035 657.5,-58.4035 650.5,-58.4034"/>
</g>
<!-- Node7 -->
<g id="node7" class="node"><title>Node7</title>
<g id="a_node7"><a xlink:href="../../d0/df5/Relocalizer_8cpp.html" target="_top" xlink:title="src/Tracking/Relocalizer.cpp">
<polygon fill="white" stroke="black" points="726.5,-6.5 726.5,-25.5 867.5,-25.5 867.5,-6.5 726.5,-6.5"/>
<text text-anchor="middle" x="797" y="-13.5" font-family="Helvetica,sans-Serif" font-size="10.00">src/Tracking/Relocalizer.cpp</text>
</a>
</g>
</g>
<!-- Node1&#45;&gt;Node7 -->
<g id="edge6" class="edge"><title>Node1&#45;&gt;Node7</title>
<path fill="none" stroke="midnightblue" d="M683.727,-64.5273C711.508,-52.8706 752.25,-35.7764 776.55,-25.5806"/>
<polygon fill="midnightblue" stroke="midnightblue" points="682.355,-61.3069 674.488,-68.4035 685.064,-67.7618 682.355,-61.3069"/>
</g>
<!-- Node8 -->
<g id="node8" class="node"><title>Node8</title>
<g id="a_node8"><a xlink:href="../../d6/d91/SE3Tracker_8cpp.html" target="_top" xlink:title="src/Tracking/SE3Tracker.cpp">
<polygon fill="white" stroke="black" points="886,-6.5 886,-25.5 1030,-25.5 1030,-6.5 886,-6.5"/>
<text text-anchor="middle" x="958" y="-13.5" font-family="Helvetica,sans-Serif" font-size="10.00">src/Tracking/SE3Tracker.cpp</text>
</a>
</g>
</g>
<!-- Node1&#45;&gt;Node8 -->
<g id="edge7" class="edge"><title>Node1&#45;&gt;Node8</title>
<path fill="none" stroke="midnightblue" d="M707.108,-66.5181C766.125,-54.87 860.287,-36.2854 914.916,-25.5034"/>
<polygon fill="midnightblue" stroke="midnightblue" points="706.366,-63.097 697.233,-68.4672 707.721,-69.9645 706.366,-63.097"/>
</g>
<!-- Node9 -->
<g id="node9" class="node"><title>Node9</title>
<g id="a_node9"><a xlink:href="../../d6/dec/Sim3Tracker_8cpp.html" target="_top" xlink:title="src/Tracking/Sim3Tracker.cpp">
<polygon fill="white" stroke="black" points="1048,-6.5 1048,-25.5 1196,-25.5 1196,-6.5 1048,-6.5"/>
<text text-anchor="middle" x="1122" y="-13.5" font-family="Helvetica,sans-Serif" font-size="10.00">src/Tracking/Sim3Tracker.cpp</text>
</a>
</g>
</g>
<!-- Node1&#45;&gt;Node9 -->
<g id="edge8" class="edge"><title>Node1&#45;&gt;Node9</title>
<path fill="none" stroke="midnightblue" d="M740.438,-68.456C818.601,-60.3596 936.756,-47.1991 1039,-32 1051.6,-30.1268 1065.22,-27.7944 1077.72,-25.5312"/>
<polygon fill="midnightblue" stroke="midnightblue" points="739.746,-65.0087 730.157,-69.5156 740.464,-71.9718 739.746,-65.0087"/>
</g>
<!-- Node10 -->
<g id="node10" class="node"><title>Node10</title>
<g id="a_node10"><a xlink:href="../../de/db1/TrackingReference_8cpp.html" target="_top" xlink:title="src/Tracking/TrackingReference.cpp">
<polygon fill="white" stroke="black" points="1214.5,-6.5 1214.5,-25.5 1389.5,-25.5 1389.5,-6.5 1214.5,-6.5"/>
<text text-anchor="middle" x="1302" y="-13.5" font-family="Helvetica,sans-Serif" font-size="10.00">src/Tracking/TrackingReference.cpp</text>
</a>
</g>
</g>
<!-- Node1&#45;&gt;Node10 -->
<g id="edge9" class="edge"><title>Node1&#45;&gt;Node10</title>
<path fill="none" stroke="midnightblue" d="M740.635,-71.8584C849.327,-64.9632 1041.33,-51.3129 1205,-32 1220.15,-30.2128 1236.56,-27.8418 1251.5,-25.5137"/>
<polygon fill="midnightblue" stroke="midnightblue" points="740.14,-68.3825 730.38,-72.5045 740.58,-75.3687 740.14,-68.3825"/>
</g>
</g>
</svg>
