<?xml version="1.0" encoding="UTF-8" standalone="no"?>
<!DOCTYPE svg PUBLIC "-//W3C//DTD SVG 1.1//EN"
 "http://www.w3.org/Graphics/SVG/1.1/DTD/svg11.dtd">
<!-- Generated by graphviz version 2.36.0 (20140111.2315)
 -->
<!-- Title: external/gicp/ann_1.1.2/src/kd_fix_rad_search.h Pages: 1 -->
<svg width="294pt" height="108pt"
 viewBox="0.00 0.00 294.00 108.00" xmlns="http://www.w3.org/2000/svg" xmlns:xlink="http://www.w3.org/1999/xlink">
<g id="graph0" class="graph" transform="scale(1 1) rotate(0) translate(4 104)">
<title>external/gicp/ann_1.1.2/src/kd_fix_rad_search.h</title>
<polygon fill="white" stroke="none" points="-4,4 -4,-104 290,-104 290,4 -4,4"/>
<!-- Node1 -->
<g id="node1" class="node"><title>Node1</title>
<polygon fill="#bfbfbf" stroke="black" points="81,-69 81,-99 205,-99 205,-69 81,-69"/>
<text text-anchor="start" x="89" y="-87" font-family="Helvetica,sans-Serif" font-size="10.00">external/gicp/ann_1.1.2</text>
<text text-anchor="middle" x="143" y="-76" font-family="Helvetica,sans-Serif" font-size="10.00">/src/kd_fix_rad_search.h</text>
</g>
<!-- Node2 -->
<g id="node2" class="node"><title>Node2</title>
<g id="a_node2"><a xlink:href="../../d4/d39/bd__fix__rad__search_8cpp.html" target="_top" xlink:title="external/gicp/ann_1.1.2\l/src/bd_fix_rad_search.cpp">
<polygon fill="white" stroke="black" points="0,-1 0,-31 134,-31 134,-1 0,-1"/>
<text text-anchor="start" x="8" y="-19" font-family="Helvetica,sans-Serif" font-size="10.00">external/gicp/ann_1.1.2</text>
<text text-anchor="middle" x="67" y="-8" font-family="Helvetica,sans-Serif" font-size="10.00">/src/bd_fix_rad_search.cpp</text>
</a>
</g>
</g>
<!-- Node1&#45;&gt;Node2 -->
<g id="edge1" class="edge"><title>Node1&#45;&gt;Node2</title>
<path fill="none" stroke="midnightblue" d="M118.839,-62.0184C107.205,-51.9145 93.565,-40.0696 83.1976,-31.0663"/>
<polygon fill="midnightblue" stroke="midnightblue" points="116.664,-64.7647 126.509,-68.679 121.254,-59.4795 116.664,-64.7647"/>
</g>
<!-- Node3 -->
<g id="node3" class="node"><title>Node3</title>
<g id="a_node3"><a xlink:href="../../da/da1/kd__fix__rad__search_8cpp.html" target="_top" xlink:title="external/gicp/ann_1.1.2\l/src/kd_fix_rad_search.cpp">
<polygon fill="white" stroke="black" points="152,-1 152,-31 286,-31 286,-1 152,-1"/>
<text text-anchor="start" x="160" y="-19" font-family="Helvetica,sans-Serif" font-size="10.00">external/gicp/ann_1.1.2</text>
<text text-anchor="middle" x="219" y="-8" font-family="Helvetica,sans-Serif" font-size="10.00">/src/kd_fix_rad_search.cpp</text>
</a>
</g>
</g>
<!-- Node1&#45;&gt;Node3 -->
<g id="edge2" class="edge"><title>Node1&#45;&gt;Node3</title>
<path fill="none" stroke="midnightblue" d="M167.161,-62.0184C178.795,-51.9145 192.435,-40.0696 202.802,-31.0663"/>
<polygon fill="midnightblue" stroke="midnightblue" points="164.746,-59.4795 159.491,-68.679 169.336,-64.7647 164.746,-59.4795"/>
</g>
</g>
</svg>
