<?xml version="1.0" encoding="UTF-8" standalone="no"?>
<!DOCTYPE svg PUBLIC "-//W3C//DTD SVG 1.1//EN"
 "http://www.w3.org/Graphics/SVG/1.1/DTD/svg11.dtd">
<!-- Generated by graphviz version 2.36.0 (20140111.2315)
 -->
<!-- Title: Sophus::SophusException Pages: 1 -->
<svg width="140pt" height="254pt"
 viewBox="0.00 0.00 140.00 254.00" xmlns="http://www.w3.org/2000/svg" xmlns:xlink="http://www.w3.org/1999/xlink">
<g id="graph0" class="graph" transform="scale(1 1) rotate(0) translate(4 250)">
<title>Sophus::SophusException</title>
<polygon fill="white" stroke="none" points="-4,4 -4,-250 136,-250 136,4 -4,4"/>
<!-- Node1 -->
<g id="node1" class="node"><title>Node1</title>
<polygon fill="#bfbfbf" stroke="black" points="0,-94.5 0,-151.5 132,-151.5 132,-94.5 0,-94.5"/>
<text text-anchor="middle" x="66" y="-139.5" font-family="Helvetica,sans-Serif" font-size="10.00">Sophus::SophusException</text>
<polyline fill="none" stroke="black" points="0,-132.5 132,-132.5 "/>
<text text-anchor="middle" x="66" y="-120.5" font-family="Helvetica,sans-Serif" font-size="10.00"> </text>
<polyline fill="none" stroke="black" points="0,-113.5 132,-113.5 "/>
<text text-anchor="start" x="8" y="-101.5" font-family="Helvetica,sans-Serif" font-size="10.00">+ SophusException()</text>
</g>
<!-- Node3 -->
<g id="node3" class="node"><title>Node3</title>
<g id="a_node3"><a xlink:href="../../d5/d17/classSophus_1_1ScaleNotPositive.html" target="_top" xlink:title="{Sophus::ScaleNotPositive\n||+ ScaleNotPositive()\l}">
<polygon fill="white" stroke="black" points="0.5,-0.5 0.5,-57.5 131.5,-57.5 131.5,-0.5 0.5,-0.5"/>
<text text-anchor="middle" x="66" y="-45.5" font-family="Helvetica,sans-Serif" font-size="10.00">Sophus::ScaleNotPositive</text>
<polyline fill="none" stroke="black" points="0.5,-38.5 131.5,-38.5 "/>
<text text-anchor="middle" x="66" y="-26.5" font-family="Helvetica,sans-Serif" font-size="10.00"> </text>
<polyline fill="none" stroke="black" points="0.5,-19.5 131.5,-19.5 "/>
<text text-anchor="start" x="8.5" y="-7.5" font-family="Helvetica,sans-Serif" font-size="10.00">+ ScaleNotPositive()</text>
</a>
</g>
</g>
<!-- Node1&#45;&gt;Node3 -->
<g id="edge2" class="edge"><title>Node1&#45;&gt;Node3</title>
<path fill="none" stroke="midnightblue" d="M66,-84.2092C66,-75.2929 66,-65.9513 66,-57.5836"/>
<polygon fill="none" stroke="midnightblue" points="62.5001,-84.3969 66,-94.397 69.5001,-84.397 62.5001,-84.3969"/>
</g>
<!-- Node2 -->
<g id="node2" class="node"><title>Node2</title>
<polygon fill="white" stroke="#bfbfbf" points="19.5,-188.5 19.5,-245.5 112.5,-245.5 112.5,-188.5 19.5,-188.5"/>
<text text-anchor="middle" x="66" y="-233.5" font-family="Helvetica,sans-Serif" font-size="10.00">std::runtime_error</text>
<polyline fill="none" stroke="#bfbfbf" points="19.5,-226.5 112.5,-226.5 "/>
<text text-anchor="middle" x="66" y="-214.5" font-family="Helvetica,sans-Serif" font-size="10.00"> </text>
<polyline fill="none" stroke="#bfbfbf" points="19.5,-207.5 112.5,-207.5 "/>
<text text-anchor="middle" x="66" y="-195.5" font-family="Helvetica,sans-Serif" font-size="10.00"> </text>
</g>
<!-- Node2&#45;&gt;Node1 -->
<g id="edge1" class="edge"><title>Node2&#45;&gt;Node1</title>
<path fill="none" stroke="midnightblue" d="M66,-178.209C66,-169.293 66,-159.951 66,-151.584"/>
<polygon fill="none" stroke="midnightblue" points="62.5001,-178.397 66,-188.397 69.5001,-178.397 62.5001,-178.397"/>
</g>
</g>
</svg>
