<?xml version="1.0" encoding="UTF-8" standalone="no"?>
<!DOCTYPE svg PUBLIC "-//W3C//DTD SVG 1.1//EN"
 "http://www.w3.org/Graphics/SVG/1.1/DTD/svg11.dtd">
<!-- Generated by graphviz version 2.36.0 (20140111.2315)
 -->
<!-- Title: src/ros_service_ui.cpp Pages: 1 -->
<svg width="1029pt" height="264pt"
 viewBox="0.00 0.00 1029.00 264.00" xmlns="http://www.w3.org/2000/svg" xmlns:xlink="http://www.w3.org/1999/xlink">
<g id="graph0" class="graph" transform="scale(1 1) rotate(0) translate(4 260)">
<title>src/ros_service_ui.cpp</title>
<polygon fill="white" stroke="none" points="-4,4 -4,-260 1025,-260 1025,4 -4,4"/>
<!-- Node1 -->
<g id="node1" class="node"><title>Node1</title>
<polygon fill="#bfbfbf" stroke="black" points="317.5,-236.5 317.5,-255.5 432.5,-255.5 432.5,-236.5 317.5,-236.5"/>
<text text-anchor="middle" x="375" y="-243.5" font-family="Helvetica,sans-Serif" font-size="10.00">src/ros_service_ui.cpp</text>
</g>
<!-- Node2 -->
<g id="node2" class="node"><title>Node2</title>
<polygon fill="white" stroke="#bfbfbf" points="114,-180.5 114,-199.5 156,-199.5 156,-180.5 114,-180.5"/>
<text text-anchor="middle" x="135" y="-187.5" font-family="Helvetica,sans-Serif" font-size="10.00">QtGui</text>
</g>
<!-- Node1&#45;&gt;Node2 -->
<g id="edge1" class="edge"><title>Node1&#45;&gt;Node2</title>
<path fill="none" stroke="midnightblue" d="M330.104,-236.466C289.585,-228.521 228.153,-215.875 166.192,-200.153"/>
<polygon fill="midnightblue" stroke="midnightblue" points="166.802,-196.697 156.246,-197.604 165.064,-203.477 166.802,-196.697"/>
</g>
<!-- Node3 -->
<g id="node3" class="node"><title>Node3</title>
<polygon fill="white" stroke="#bfbfbf" points="174.5,-180.5 174.5,-199.5 231.5,-199.5 231.5,-180.5 174.5,-180.5"/>
<text text-anchor="middle" x="203" y="-187.5" font-family="Helvetica,sans-Serif" font-size="10.00">QPixmap</text>
</g>
<!-- Node1&#45;&gt;Node3 -->
<g id="edge2" class="edge"><title>Node1&#45;&gt;Node3</title>
<path fill="none" stroke="midnightblue" d="M347.746,-236.444C318.559,-227.28 272.079,-212.688 239.691,-202.519"/>
<polygon fill="midnightblue" stroke="midnightblue" points="240.716,-199.173 230.126,-199.516 238.619,-205.851 240.716,-199.173"/>
</g>
<!-- Node4 -->
<g id="node4" class="node"><title>Node4</title>
<polygon fill="white" stroke="#bfbfbf" points="250,-180.5 250,-199.5 294,-199.5 294,-180.5 250,-180.5"/>
<text text-anchor="middle" x="272" y="-187.5" font-family="Helvetica,sans-Serif" font-size="10.00">QFont</text>
</g>
<!-- Node1&#45;&gt;Node4 -->
<g id="edge3" class="edge"><title>Node1&#45;&gt;Node4</title>
<path fill="none" stroke="midnightblue" d="M358.451,-236.324C342.008,-227.703 316.565,-214.364 297.532,-204.386"/>
<polygon fill="midnightblue" stroke="midnightblue" points="298.989,-201.198 288.508,-199.655 295.739,-207.398 298.989,-201.198"/>
</g>
<!-- Node5 -->
<g id="node5" class="node"><title>Node5</title>
<polygon fill="white" stroke="#bfbfbf" points="312.5,-180.5 312.5,-199.5 355.5,-199.5 355.5,-180.5 312.5,-180.5"/>
<text text-anchor="middle" x="334" y="-187.5" font-family="Helvetica,sans-Serif" font-size="10.00">QIcon</text>
</g>
<!-- Node1&#45;&gt;Node5 -->
<g id="edge4" class="edge"><title>Node1&#45;&gt;Node5</title>
<path fill="none" stroke="midnightblue" d="M368.23,-236.083C362.438,-228.455 353.942,-217.264 346.862,-207.941"/>
<polygon fill="midnightblue" stroke="midnightblue" points="349.479,-205.599 340.644,-199.751 343.904,-209.832 349.479,-205.599"/>
</g>
<!-- Node6 -->
<g id="node6" class="node"><title>Node6</title>
<polygon fill="white" stroke="#bfbfbf" points="373.5,-180.5 373.5,-199.5 458.5,-199.5 458.5,-180.5 373.5,-180.5"/>
<text text-anchor="middle" x="416" y="-187.5" font-family="Helvetica,sans-Serif" font-size="10.00">QKeySequence</text>
</g>
<!-- Node1&#45;&gt;Node6 -->
<g id="edge5" class="edge"><title>Node1&#45;&gt;Node6</title>
<path fill="none" stroke="midnightblue" d="M381.77,-236.083C387.562,-228.455 396.058,-217.264 403.138,-207.941"/>
<polygon fill="midnightblue" stroke="midnightblue" points="406.096,-209.832 409.356,-199.751 400.521,-205.599 406.096,-209.832"/>
</g>
<!-- Node7 -->
<g id="node7" class="node"><title>Node7</title>
<g id="a_node7"><a xlink:href="../../de/d7a/ros__service__ui_8h.html" target="_top" xlink:title="ros_service_ui.h">
<polygon fill="white" stroke="black" points="477,-180.5 477,-199.5 565,-199.5 565,-180.5 477,-180.5"/>
<text text-anchor="middle" x="521" y="-187.5" font-family="Helvetica,sans-Serif" font-size="10.00">ros_service_ui.h</text>
</a>
</g>
</g>
<!-- Node1&#45;&gt;Node7 -->
<g id="edge6" class="edge"><title>Node1&#45;&gt;Node7</title>
<path fill="none" stroke="midnightblue" d="M398.134,-236.444C422.482,-227.438 461.007,-213.189 488.423,-203.049"/>
<polygon fill="midnightblue" stroke="midnightblue" points="489.809,-206.268 497.974,-199.516 487.381,-199.703 489.809,-206.268"/>
</g>
<!-- Node12 -->
<g id="node12" class="node"><title>Node12</title>
<polygon fill="white" stroke="#bfbfbf" points="683.5,-56.5 683.5,-75.5 738.5,-75.5 738.5,-56.5 683.5,-56.5"/>
<text text-anchor="middle" x="711" y="-63.5" font-family="Helvetica,sans-Serif" font-size="10.00">ros/ros.h</text>
</g>
<!-- Node1&#45;&gt;Node12 -->
<g id="edge23" class="edge"><title>Node1&#45;&gt;Node12</title>
<path fill="none" stroke="midnightblue" d="M432.52,-243.55C562.087,-238.945 870.452,-220.059 934,-144 985.856,-81.935 825.039,-69.8041 748.781,-67.5015"/>
<polygon fill="midnightblue" stroke="midnightblue" points="748.701,-63.9983 738.613,-67.2376 748.519,-70.9959 748.701,-63.9983"/>
</g>
<!-- Node22 -->
<g id="node22" class="node"><title>Node22</title>
<polygon fill="white" stroke="#bfbfbf" points="981,-180.5 981,-199.5 1021,-199.5 1021,-180.5 981,-180.5"/>
<text text-anchor="middle" x="1001" y="-187.5" font-family="Helvetica,sans-Serif" font-size="10.00">limits</text>
</g>
<!-- Node1&#45;&gt;Node22 -->
<g id="edge22" class="edge"><title>Node1&#45;&gt;Node22</title>
<path fill="none" stroke="midnightblue" d="M432.571,-244.111C538.882,-241.699 772.877,-232.787 967,-200 968.287,-199.783 969.596,-199.539 970.915,-199.275"/>
<polygon fill="midnightblue" stroke="midnightblue" points="972.042,-202.606 980.997,-196.945 970.466,-195.786 972.042,-202.606"/>
</g>
<!-- Node8 -->
<g id="node8" class="node"><title>Node8</title>
<polygon fill="white" stroke="#bfbfbf" points="0,-118.5 0,-137.5 80,-137.5 80,-118.5 0,-118.5"/>
<text text-anchor="middle" x="40" y="-125.5" font-family="Helvetica,sans-Serif" font-size="10.00">QMainWindow</text>
</g>
<!-- Node7&#45;&gt;Node8 -->
<g id="edge7" class="edge"><title>Node7&#45;&gt;Node8</title>
<path fill="none" stroke="midnightblue" d="M476.833,-181.38C473.51,-180.886 470.204,-180.419 467,-180 299.665,-158.115 254.529,-176.867 89,-144 84.1815,-143.043 79.1619,-141.801 74.2521,-140.442"/>
<polygon fill="midnightblue" stroke="midnightblue" points="75.01,-137.016 64.4281,-137.54 73.0268,-143.729 75.01,-137.016"/>
</g>
<!-- Node9 -->
<g id="node9" class="node"><title>Node9</title>
<polygon fill="white" stroke="#bfbfbf" points="98.5,-118.5 98.5,-137.5 169.5,-137.5 169.5,-118.5 98.5,-118.5"/>
<text text-anchor="middle" x="134" y="-125.5" font-family="Helvetica,sans-Serif" font-size="10.00">QGridLayout</text>
</g>
<!-- Node7&#45;&gt;Node9 -->
<g id="edge8" class="edge"><title>Node7&#45;&gt;Node9</title>
<path fill="none" stroke="midnightblue" d="M476.819,-181.484C473.499,-180.966 470.198,-180.465 467,-180 338.913,-161.356 304.139,-173.035 178,-144 174.043,-143.089 169.942,-141.957 165.906,-140.726"/>
<polygon fill="midnightblue" stroke="midnightblue" points="166.72,-137.31 156.128,-137.53 164.546,-143.963 166.72,-137.31"/>
</g>
<!-- Node10 -->
<g id="node10" class="node"><title>Node10</title>
<g id="a_node10"><a xlink:href="../../d2/de7/parameter__server_8h.html" target="_top" xlink:title="parameter_server.h">
<polygon fill="white" stroke="black" points="187.5,-118.5 187.5,-137.5 288.5,-137.5 288.5,-118.5 187.5,-118.5"/>
<text text-anchor="middle" x="238" y="-125.5" font-family="Helvetica,sans-Serif" font-size="10.00">parameter_server.h</text>
</a>
</g>
</g>
<!-- Node7&#45;&gt;Node10 -->
<g id="edge9" class="edge"><title>Node7&#45;&gt;Node10</title>
<path fill="none" stroke="midnightblue" d="M476.657,-180.779C431.364,-172.221 359.079,-158.117 297,-144 291.589,-142.77 285.917,-141.413 280.317,-140.034"/>
<polygon fill="midnightblue" stroke="midnightblue" points="280.939,-136.581 270.388,-137.549 279.239,-143.372 280.939,-136.581"/>
</g>
<!-- Node17 -->
<g id="node17" class="node"><title>Node17</title>
<polygon fill="white" stroke="#bfbfbf" points="306.5,-118.5 306.5,-137.5 359.5,-137.5 359.5,-118.5 306.5,-118.5"/>
<text text-anchor="middle" x="333" y="-125.5" font-family="Helvetica,sans-Serif" font-size="10.00">QObject</text>
</g>
<!-- Node7&#45;&gt;Node17 -->
<g id="edge17" class="edge"><title>Node7&#45;&gt;Node17</title>
<path fill="none" stroke="midnightblue" d="M487.805,-180.461C456.565,-172.137 408.641,-158.627 368,-144 365.743,-143.188 363.423,-142.304 361.103,-141.387"/>
<polygon fill="midnightblue" stroke="midnightblue" points="362.306,-138.097 351.727,-137.512 359.632,-144.566 362.306,-138.097"/>
</g>
<!-- Node18 -->
<g id="node18" class="node"><title>Node18</title>
<polygon fill="white" stroke="#bfbfbf" points="377.5,-118.5 377.5,-137.5 516.5,-137.5 516.5,-118.5 377.5,-118.5"/>
<text text-anchor="middle" x="447" y="-125.5" font-family="Helvetica,sans-Serif" font-size="10.00">rgbdslam/rgbdslam_ros_ui.h</text>
</g>
<!-- Node7&#45;&gt;Node18 -->
<g id="edge18" class="edge"><title>Node7&#45;&gt;Node18</title>
<path fill="none" stroke="midnightblue" d="M510.398,-180.403C498.748,-170.958 479.814,-155.606 465.665,-144.134"/>
<polygon fill="midnightblue" stroke="midnightblue" points="467.555,-141.16 457.583,-137.581 463.146,-146.597 467.555,-141.16"/>
</g>
<!-- Node19 -->
<g id="node19" class="node"><title>Node19</title>
<polygon fill="white" stroke="#bfbfbf" points="535,-113 535,-143 653,-143 653,-113 535,-113"/>
<text text-anchor="start" x="543" y="-131" font-family="Helvetica,sans-Serif" font-size="10.00">rgbdslam/rgbdslam_ros</text>
<text text-anchor="middle" x="594" y="-120" font-family="Helvetica,sans-Serif" font-size="10.00">_ui_b.h</text>
</g>
<!-- Node7&#45;&gt;Node19 -->
<g id="edge19" class="edge"><title>Node7&#45;&gt;Node19</title>
<path fill="none" stroke="midnightblue" d="M531.459,-180.403C541.161,-172.429 555.985,-160.245 568.766,-149.74"/>
<polygon fill="midnightblue" stroke="midnightblue" points="571.292,-152.194 576.795,-143.141 566.848,-146.787 571.292,-152.194"/>
</g>
<!-- Node20 -->
<g id="node20" class="node"><title>Node20</title>
<polygon fill="white" stroke="#bfbfbf" points="671,-113 671,-143 789,-143 789,-113 671,-113"/>
<text text-anchor="start" x="679" y="-131" font-family="Helvetica,sans-Serif" font-size="10.00">rgbdslam/rgbdslam_ros</text>
<text text-anchor="middle" x="730" y="-120" font-family="Helvetica,sans-Serif" font-size="10.00">_ui_f.h</text>
</g>
<!-- Node7&#45;&gt;Node20 -->
<g id="edge20" class="edge"><title>Node7&#45;&gt;Node20</title>
<path fill="none" stroke="midnightblue" d="M550.945,-180.403C582.265,-171.412 632.229,-157.068 671.429,-145.815"/>
<polygon fill="midnightblue" stroke="midnightblue" points="672.499,-149.149 681.145,-143.025 670.568,-142.421 672.499,-149.149"/>
</g>
<!-- Node21 -->
<g id="node21" class="node"><title>Node21</title>
<polygon fill="white" stroke="#bfbfbf" points="807,-113 807,-143 925,-143 925,-113 807,-113"/>
<text text-anchor="start" x="815" y="-131" font-family="Helvetica,sans-Serif" font-size="10.00">rgbdslam/rgbdslam_ros</text>
<text text-anchor="middle" x="866" y="-120" font-family="Helvetica,sans-Serif" font-size="10.00">_ui_s.h</text>
</g>
<!-- Node7&#45;&gt;Node21 -->
<g id="edge21" class="edge"><title>Node7&#45;&gt;Node21</title>
<path fill="none" stroke="midnightblue" d="M565.271,-182.59C618.089,-174.77 709.281,-160.721 796.869,-144.159"/>
<polygon fill="midnightblue" stroke="midnightblue" points="797.534,-147.595 806.702,-142.286 796.224,-140.719 797.534,-147.595"/>
</g>
<!-- Node11 -->
<g id="node11" class="node"><title>Node11</title>
<polygon fill="white" stroke="#bfbfbf" points="27.5,-56.5 27.5,-75.5 68.5,-75.5 68.5,-56.5 27.5,-56.5"/>
<text text-anchor="middle" x="48" y="-63.5" font-family="Helvetica,sans-Serif" font-size="10.00">string</text>
</g>
<!-- Node10&#45;&gt;Node11 -->
<g id="edge10" class="edge"><title>Node10&#45;&gt;Node11</title>
<path fill="none" stroke="midnightblue" d="M210.778,-118.403C175.699,-107.326 114.895,-88.1248 78.3579,-76.5867"/>
<polygon fill="midnightblue" stroke="midnightblue" points="79.3274,-73.2225 68.7376,-73.5487 77.2194,-79.8976 79.3274,-73.2225"/>
</g>
<!-- Node10&#45;&gt;Node12 -->
<g id="edge11" class="edge"><title>Node10&#45;&gt;Node12</title>
<path fill="none" stroke="midnightblue" d="M268.139,-118.468C277.344,-116.098 287.535,-113.709 297,-112 434.321,-87.2079 599.906,-74.2202 673.08,-69.3297"/>
<polygon fill="midnightblue" stroke="midnightblue" points="673.441,-72.8136 683.191,-68.6665 672.983,-65.8286 673.441,-72.8136"/>
</g>
<!-- Node13 -->
<g id="node13" class="node"><title>Node13</title>
<polygon fill="white" stroke="#bfbfbf" points="87,-56.5 87,-75.5 165,-75.5 165,-56.5 87,-56.5"/>
<text text-anchor="middle" x="126" y="-63.5" font-family="Helvetica,sans-Serif" font-size="10.00">boost/any.hpp</text>
</g>
<!-- Node10&#45;&gt;Node13 -->
<g id="edge12" class="edge"><title>Node10&#45;&gt;Node13</title>
<path fill="none" stroke="midnightblue" d="M221.953,-118.403C203.407,-108.468 172.66,-91.9966 150.978,-80.3812"/>
<polygon fill="midnightblue" stroke="midnightblue" points="152.485,-77.2177 142.017,-75.5806 149.179,-83.388 152.485,-77.2177"/>
</g>
<!-- Node14 -->
<g id="node14" class="node"><title>Node14</title>
<polygon fill="white" stroke="#bfbfbf" points="183.5,-56.5 183.5,-75.5 292.5,-75.5 292.5,-56.5 183.5,-56.5"/>
<text text-anchor="middle" x="238" y="-63.5" font-family="Helvetica,sans-Serif" font-size="10.00">pcl_ros/point_cloud.h</text>
</g>
<!-- Node10&#45;&gt;Node14 -->
<g id="edge13" class="edge"><title>Node10&#45;&gt;Node14</title>
<path fill="none" stroke="midnightblue" d="M238,-118.403C238,-109.938 238,-96.7283 238,-85.8199"/>
<polygon fill="midnightblue" stroke="midnightblue" points="241.5,-85.5806 238,-75.5806 234.5,-85.5806 241.5,-85.5806"/>
</g>
<!-- Node15 -->
<g id="node15" class="node"><title>Node15</title>
<polygon fill="white" stroke="#bfbfbf" points="308.5,-0.5 308.5,-19.5 399.5,-19.5 399.5,-0.5 308.5,-0.5"/>
<text text-anchor="middle" x="354" y="-7.5" font-family="Helvetica,sans-Serif" font-size="10.00">pcl/point_types.h</text>
</g>
<!-- Node10&#45;&gt;Node15 -->
<g id="edge14" class="edge"><title>Node10&#45;&gt;Node15</title>
<path fill="none" stroke="midnightblue" d="M250.227,-118.286C263.395,-108.639 284.652,-92.29 301,-76 316.084,-60.9689 331.231,-41.8979 341.446,-28.3086"/>
<polygon fill="midnightblue" stroke="midnightblue" points="344.537,-30.0149 347.669,-19.8934 338.909,-25.853 344.537,-30.0149"/>
</g>
<!-- Node16 -->
<g id="node16" class="node"><title>Node16</title>
<g id="a_node16"><a xlink:href="../../d1/d45/point__types_8h.html" target="_top" xlink:title="point_types.h">
<polygon fill="white" stroke="black" points="349.5,-56.5 349.5,-75.5 424.5,-75.5 424.5,-56.5 349.5,-56.5"/>
<text text-anchor="middle" x="387" y="-63.5" font-family="Helvetica,sans-Serif" font-size="10.00">point_types.h</text>
</a>
</g>
</g>
<!-- Node10&#45;&gt;Node16 -->
<g id="edge15" class="edge"><title>Node10&#45;&gt;Node16</title>
<path fill="none" stroke="midnightblue" d="M259.348,-118.403C284.686,-108.2 327.138,-91.1055 356.071,-79.4544"/>
<polygon fill="midnightblue" stroke="midnightblue" points="357.723,-82.5627 365.692,-75.5806 355.108,-76.0694 357.723,-82.5627"/>
</g>
<!-- Node16&#45;&gt;Node15 -->
<g id="edge16" class="edge"><title>Node16&#45;&gt;Node15</title>
<path fill="none" stroke="midnightblue" d="M381.551,-56.083C376.986,-48.6127 370.332,-37.7244 364.707,-28.5199"/>
<polygon fill="midnightblue" stroke="midnightblue" points="367.549,-26.4588 359.348,-19.7511 361.576,-30.109 367.549,-26.4588"/>
</g>
</g>
</svg>
