<?xml version="1.0" encoding="UTF-8" standalone="no"?>
<!DOCTYPE svg PUBLIC "-//W3C//DTD SVG 1.1//EN"
 "http://www.w3.org/Graphics/SVG/1.1/DTD/svg11.dtd">
<!-- Generated by graphviz version 2.36.0 (20140111.2315)
 -->
<!-- Title: MultiProcessDemo::InitializeSIFT Pages: 1 -->
<svg width="600pt" height="142pt"
 viewBox="0.00 0.00 600.00 142.00" xmlns="http://www.w3.org/2000/svg" xmlns:xlink="http://www.w3.org/1999/xlink">
<g id="graph0" class="graph" transform="scale(1 1) rotate(0) translate(4 138)">
<title>MultiProcessDemo::InitializeSIFT</title>
<polygon fill="white" stroke="none" points="-4,4 -4,-138 596,-138 596,4 -4,4"/>
<!-- Node1 -->
<g id="node1" class="node"><title>Node1</title>
<polygon fill="#bfbfbf" stroke="black" points="0,-57.5 0,-76.5 164,-76.5 164,-57.5 0,-57.5"/>
<text text-anchor="middle" x="82" y="-64.5" font-family="Helvetica,sans-Serif" font-size="10.00">MultiProcessDemo::InitializeSIFT</text>
</g>
<!-- Node2 -->
<g id="node2" class="node"><title>Node2</title>
<g id="a_node2"><a xlink:href="../../d1/d0f/ServerSiftGPU_8cpp.html#a2cab8623166d3e8c458d38ef42c61bda" target="_top" xlink:title="CreateRemoteSiftGPU">
<polygon fill="white" stroke="black" points="209.5,-114.5 209.5,-133.5 326.5,-133.5 326.5,-114.5 209.5,-114.5"/>
<text text-anchor="middle" x="268" y="-121.5" font-family="Helvetica,sans-Serif" font-size="10.00">CreateRemoteSiftGPU</text>
</a>
</g>
</g>
<!-- Node1&#45;&gt;Node2 -->
<g id="edge1" class="edge"><title>Node1&#45;&gt;Node2</title>
<path fill="none" stroke="midnightblue" d="M111.276,-76.5144C134.914,-84.3884 169.554,-95.7425 200,-105 207.319,-107.226 215.113,-109.512 222.701,-111.692"/>
<polygon fill="midnightblue" stroke="midnightblue" points="221.922,-115.11 232.498,-114.485 223.84,-108.378 221.922,-115.11"/>
</g>
<!-- Node3 -->
<g id="node3" class="node"><title>Node3</title>
<g id="a_node3"><a xlink:href="../../d4/dee/classSiftGPU.html#ab50cd0cc4d3f46ede220221f6ca46498" target="_top" xlink:title="SiftGPU::ParseParam">
<polygon fill="white" stroke="black" points="211.5,-76.5 211.5,-95.5 324.5,-95.5 324.5,-76.5 211.5,-76.5"/>
<text text-anchor="middle" x="268" y="-83.5" font-family="Helvetica,sans-Serif" font-size="10.00">SiftGPU::ParseParam</text>
</a>
</g>
</g>
<!-- Node1&#45;&gt;Node3 -->
<g id="edge2" class="edge"><title>Node1&#45;&gt;Node3</title>
<path fill="none" stroke="midnightblue" d="M164.241,-75.389C176.527,-76.6576 189.072,-77.9531 200.984,-79.1832"/>
<polygon fill="midnightblue" stroke="midnightblue" points="200.961,-82.6992 211.267,-80.245 201.68,-75.7363 200.961,-82.6992"/>
</g>
<!-- Node6 -->
<g id="node6" class="node"><title>Node6</title>
<g id="a_node6"><a xlink:href="../../d4/dee/classSiftGPU.html#ab2791178a6e15b8c5dd1979f00d9e737" target="_top" xlink:title="SiftGPU::CreateContextGL">
<polygon fill="white" stroke="black" points="200,-38.5 200,-57.5 336,-57.5 336,-38.5 200,-38.5"/>
<text text-anchor="middle" x="268" y="-45.5" font-family="Helvetica,sans-Serif" font-size="10.00">SiftGPU::CreateContextGL</text>
</a>
</g>
</g>
<!-- Node1&#45;&gt;Node6 -->
<g id="edge5" class="edge"><title>Node1&#45;&gt;Node6</title>
<path fill="none" stroke="midnightblue" d="M164.241,-58.611C172.728,-57.7346 181.338,-56.8455 189.779,-55.9739"/>
<polygon fill="midnightblue" stroke="midnightblue" points="190.382,-59.4303 199.97,-54.9216 189.663,-52.4673 190.382,-59.4303"/>
</g>
<!-- Node8 -->
<g id="node8" class="node"><title>Node8</title>
<g id="a_node8"><a xlink:href="../../d9/db8/glut_8h.html#a6f255d924f7a6bb2c4be0c8c2f2d9ce3" target="_top" xlink:title="exit">
<polygon fill="white" stroke="black" points="252,-0.5 252,-19.5 284,-19.5 284,-0.5 252,-0.5"/>
<text text-anchor="middle" x="268" y="-7.5" font-family="Helvetica,sans-Serif" font-size="10.00">exit</text>
</a>
</g>
</g>
<!-- Node1&#45;&gt;Node8 -->
<g id="edge7" class="edge"><title>Node1&#45;&gt;Node8</title>
<path fill="none" stroke="midnightblue" d="M111.276,-57.4856C134.914,-49.6116 169.554,-38.2575 200,-29 213.827,-24.7957 229.349,-20.3753 241.968,-16.8571"/>
<polygon fill="midnightblue" stroke="midnightblue" points="243.082,-20.1806 251.785,-14.1387 241.213,-13.4345 243.082,-20.1806"/>
</g>
<!-- Node4 -->
<g id="node4" class="node"><title>Node4</title>
<g id="a_node4"><a xlink:href="../../d2/d55/classGlobalUtil.html#a22689de5e558d891c11c8fec2e5c2931" target="_top" xlink:title="GlobalUtil::SelectDisplay">
<polygon fill="white" stroke="black" points="381,-76.5 381,-95.5 507,-95.5 507,-76.5 381,-76.5"/>
<text text-anchor="middle" x="444" y="-83.5" font-family="Helvetica,sans-Serif" font-size="10.00">GlobalUtil::SelectDisplay</text>
</a>
</g>
</g>
<!-- Node3&#45;&gt;Node4 -->
<g id="edge3" class="edge"><title>Node3&#45;&gt;Node4</title>
<path fill="none" stroke="midnightblue" d="M324.533,-86C339.219,-86 355.287,-86 370.718,-86"/>
<polygon fill="midnightblue" stroke="midnightblue" points="370.746,-89.5001 380.746,-86 370.746,-82.5001 370.746,-89.5001"/>
</g>
<!-- Node5 -->
<g id="node5" class="node"><title>Node5</title>
<g id="a_node5"><a xlink:href="../../db/d82/wglew_8h.html#a7b84f5391331438359747d138a86ffe3" target="_top" xlink:title="HDC">
<polygon fill="white" stroke="black" points="552.5,-76.5 552.5,-95.5 591.5,-95.5 591.5,-76.5 552.5,-76.5"/>
<text text-anchor="middle" x="572" y="-83.5" font-family="Helvetica,sans-Serif" font-size="10.00">HDC</text>
</a>
</g>
</g>
<!-- Node4&#45;&gt;Node5 -->
<g id="edge4" class="edge"><title>Node4&#45;&gt;Node5</title>
<path fill="none" stroke="midnightblue" d="M507.262,-86C519.502,-86 531.779,-86 542.245,-86"/>
<polygon fill="midnightblue" stroke="midnightblue" points="542.419,-89.5001 552.419,-86 542.419,-82.5001 542.419,-89.5001"/>
</g>
<!-- Node7 -->
<g id="node7" class="node"><title>Node7</title>
<g id="a_node7"><a xlink:href="../../d2/d55/classGlobalUtil.html#ae7f13fca68dc4629c9731ef5042e2c23" target="_top" xlink:title="GlobalUtil::CreateWindowEZ">
<polygon fill="white" stroke="black" points="372.5,-38.5 372.5,-57.5 515.5,-57.5 515.5,-38.5 372.5,-38.5"/>
<text text-anchor="middle" x="444" y="-45.5" font-family="Helvetica,sans-Serif" font-size="10.00">GlobalUtil::CreateWindowEZ</text>
</a>
</g>
</g>
<!-- Node6&#45;&gt;Node7 -->
<g id="edge6" class="edge"><title>Node6&#45;&gt;Node7</title>
<path fill="none" stroke="midnightblue" d="M336.273,-48C344.796,-48 353.586,-48 362.291,-48"/>
<polygon fill="midnightblue" stroke="midnightblue" points="362.451,-51.5001 372.451,-48 362.451,-44.5001 362.451,-51.5001"/>
</g>
</g>
</svg>
