<?xml version="1.0" encoding="UTF-8" standalone="no"?>
<!DOCTYPE svg PUBLIC "-//W3C//DTD SVG 1.1//EN"
 "http://www.w3.org/Graphics/SVG/1.1/DTD/svg11.dtd">
<!-- Generated by graphviz version 2.36.0 (20140111.2315)
 -->
<!-- Title: VideoDynamicAdaptedFeatureDetector Pages: 1 -->
<svg width="164pt" height="310pt"
 viewBox="0.00 0.00 164.00 310.00" xmlns="http://www.w3.org/2000/svg" xmlns:xlink="http://www.w3.org/1999/xlink">
<g id="graph0" class="graph" transform="scale(1 1) rotate(0) translate(4 306)">
<title>VideoDynamicAdaptedFeatureDetector</title>
<polygon fill="white" stroke="none" points="-4,4 -4,-306 160,-306 160,4 -4,4"/>
<!-- Node1 -->
<g id="node1" class="node"><title>Node1</title>
<polygon fill="#bfbfbf" stroke="black" points="-1,-1 -1,-113 157,-113 157,-1 -1,-1"/>
<text text-anchor="start" x="7" y="-101" font-family="Helvetica,sans-Serif" font-size="10.00">VideoDynamicAdaptedFeature</text>
<text text-anchor="middle" x="78" y="-90" font-family="Helvetica,sans-Serif" font-size="10.00">Detector</text>
<polyline fill="none" stroke="black" points="-1,-83 157,-83 "/>
<text text-anchor="middle" x="78" y="-71" font-family="Helvetica,sans-Serif" font-size="10.00"> </text>
<polyline fill="none" stroke="black" points="-1,-64 157,-64 "/>
<text text-anchor="start" x="7" y="-52" font-family="Helvetica,sans-Serif" font-size="10.00">+ VideoDynamicAdaptedFeature</text>
<text text-anchor="start" x="7" y="-41" font-family="Helvetica,sans-Serif" font-size="10.00">Detector()</text>
<text text-anchor="start" x="7" y="-30" font-family="Helvetica,sans-Serif" font-size="10.00">+ clone()</text>
<text text-anchor="start" x="7" y="-19" font-family="Helvetica,sans-Serif" font-size="10.00">+ empty()</text>
<text text-anchor="start" x="7" y="-8" font-family="Helvetica,sans-Serif" font-size="10.00"># detectImpl()</text>
</g>
<!-- Node2 -->
<g id="node2" class="node"><title>Node2</title>
<g id="a_node2"><a xlink:href="../../d2/da5/classStatefulFeatureDetector.html" target="_top" xlink:title="{StatefulFeatureDetector\n||+ clone()\l}">
<polygon fill="white" stroke="black" points="17.5,-150.5 17.5,-207.5 138.5,-207.5 138.5,-150.5 17.5,-150.5"/>
<text text-anchor="middle" x="78" y="-195.5" font-family="Helvetica,sans-Serif" font-size="10.00">StatefulFeatureDetector</text>
<polyline fill="none" stroke="black" points="17.5,-188.5 138.5,-188.5 "/>
<text text-anchor="middle" x="78" y="-176.5" font-family="Helvetica,sans-Serif" font-size="10.00"> </text>
<polyline fill="none" stroke="black" points="17.5,-169.5 138.5,-169.5 "/>
<text text-anchor="start" x="25.5" y="-157.5" font-family="Helvetica,sans-Serif" font-size="10.00">+ clone()</text>
</a>
</g>
</g>
<!-- Node2&#45;&gt;Node1 -->
<g id="edge1" class="edge"><title>Node2&#45;&gt;Node1</title>
<path fill="none" stroke="midnightblue" d="M78,-140.398C78,-131.802 78,-122.49 78,-113.324"/>
<polygon fill="none" stroke="midnightblue" points="74.5001,-140.47 78,-150.47 81.5001,-140.47 74.5001,-140.47"/>
</g>
<!-- Node3 -->
<g id="node3" class="node"><title>Node3</title>
<polygon fill="white" stroke="#bfbfbf" points="26,-244.5 26,-301.5 130,-301.5 130,-244.5 26,-244.5"/>
<text text-anchor="middle" x="78" y="-289.5" font-family="Helvetica,sans-Serif" font-size="10.00">cv::FeatureDetector</text>
<polyline fill="none" stroke="#bfbfbf" points="26,-282.5 130,-282.5 "/>
<text text-anchor="middle" x="78" y="-270.5" font-family="Helvetica,sans-Serif" font-size="10.00"> </text>
<polyline fill="none" stroke="#bfbfbf" points="26,-263.5 130,-263.5 "/>
<text text-anchor="middle" x="78" y="-251.5" font-family="Helvetica,sans-Serif" font-size="10.00"> </text>
</g>
<!-- Node3&#45;&gt;Node2 -->
<g id="edge2" class="edge"><title>Node3&#45;&gt;Node2</title>
<path fill="none" stroke="midnightblue" d="M78,-234.209C78,-225.293 78,-215.951 78,-207.584"/>
<polygon fill="none" stroke="midnightblue" points="74.5001,-234.397 78,-244.397 81.5001,-234.397 74.5001,-234.397"/>
</g>
</g>
</svg>
