<?xml version="1.0" encoding="UTF-8" standalone="no"?>
<!DOCTYPE svg PUBLIC "-//W3C//DTD SVG 1.1//EN"
 "http://www.w3.org/Graphics/SVG/1.1/DTD/svg11.dtd">
<!-- Generated by graphviz version 2.36.0 (20140111.2315)
 -->
<!-- Title: src/Tracking/Sim3Tracker.cpp Pages: 1 -->
<svg width="1745pt" height="568pt"
 viewBox="0.00 0.00 1745.00 568.00" xmlns="http://www.w3.org/2000/svg" xmlns:xlink="http://www.w3.org/1999/xlink">
<g id="graph0" class="graph" transform="scale(1 1) rotate(0) translate(4 564)">
<title>src/Tracking/Sim3Tracker.cpp</title>
<polygon fill="white" stroke="none" points="-4,4 -4,-564 1741,-564 1741,4 -4,4"/>
<!-- Node1 -->
<g id="node1" class="node"><title>Node1</title>
<polygon fill="#bfbfbf" stroke="black" points="583,-540.5 583,-559.5 731,-559.5 731,-540.5 583,-540.5"/>
<text text-anchor="middle" x="657" y="-547.5" font-family="Helvetica,sans-Serif" font-size="10.00">src/Tracking/Sim3Tracker.cpp</text>
</g>
<!-- Node2 -->
<g id="node2" class="node"><title>Node2</title>
<g id="a_node2"><a xlink:href="../../dd/dc0/Sim3Tracker_8h.html" target="_top" xlink:title="Sim3Tracker.h">
<polygon fill="white" stroke="black" points="617,-484.5 617,-503.5 697,-503.5 697,-484.5 617,-484.5"/>
<text text-anchor="middle" x="657" y="-491.5" font-family="Helvetica,sans-Serif" font-size="10.00">Sim3Tracker.h</text>
</a>
</g>
</g>
<!-- Node1&#45;&gt;Node2 -->
<g id="edge1" class="edge"><title>Node1&#45;&gt;Node2</title>
<path fill="none" stroke="midnightblue" d="M657,-540.083C657,-533.006 657,-522.861 657,-513.986"/>
<polygon fill="midnightblue" stroke="midnightblue" points="660.5,-513.751 657,-503.751 653.5,-513.751 660.5,-513.751"/>
</g>
<!-- Node18 -->
<g id="node18" class="node"><title>Node18</title>
<g id="a_node18"><a xlink:href="../../dd/d76/LGSX_8h.html" target="_top" xlink:title="Tracking/LGSX.h">
<polygon fill="white" stroke="black" points="537,-422.5 537,-441.5 629,-441.5 629,-422.5 537,-422.5"/>
<text text-anchor="middle" x="583" y="-429.5" font-family="Helvetica,sans-Serif" font-size="10.00">Tracking/LGSX.h</text>
</a>
</g>
</g>
<!-- Node1&#45;&gt;Node18 -->
<g id="edge64" class="edge"><title>Node1&#45;&gt;Node18</title>
<path fill="none" stroke="midnightblue" d="M644.528,-540.332C633.538,-532.115 617.796,-518.847 608,-504 597.447,-488.006 590.782,-467.042 587.012,-452.048"/>
<polygon fill="midnightblue" stroke="midnightblue" points="590.336,-450.884 584.678,-441.927 583.515,-452.458 590.336,-450.884"/>
</g>
<!-- Node19 -->
<g id="node19" class="node"><title>Node19</title>
<polygon fill="white" stroke="#bfbfbf" points="1196,-484.5 1196,-503.5 1336,-503.5 1336,-484.5 1196,-484.5"/>
<text text-anchor="middle" x="1266" y="-491.5" font-family="Helvetica,sans-Serif" font-size="10.00">opencv2/highgui/highgui.hpp</text>
</g>
<!-- Node1&#45;&gt;Node19 -->
<g id="edge23" class="edge"><title>Node1&#45;&gt;Node19</title>
<path fill="none" stroke="midnightblue" d="M731.233,-543.374C831.789,-535.601 1017.16,-520.738 1185.75,-504.1"/>
<polygon fill="midnightblue" stroke="midnightblue" points="1186.19,-507.573 1195.8,-503.103 1185.5,-500.607 1186.19,-507.573"/>
</g>
<!-- Node20 -->
<g id="node20" class="node"><title>Node20</title>
<g id="a_node20"><a xlink:href="../../d7/db3/Frame_8h.html" target="_top" xlink:title="DataStructures/Frame.h">
<polygon fill="white" stroke="black" points="1056,-484.5 1056,-503.5 1178,-503.5 1178,-484.5 1056,-484.5"/>
<text text-anchor="middle" x="1117" y="-491.5" font-family="Helvetica,sans-Serif" font-size="10.00">DataStructures/Frame.h</text>
</a>
</g>
</g>
<!-- Node1&#45;&gt;Node20 -->
<g id="edge24" class="edge"><title>Node1&#45;&gt;Node20</title>
<path fill="none" stroke="midnightblue" d="M729.635,-540.473C816.122,-530.32 959.643,-513.472 1045.59,-503.383"/>
<polygon fill="midnightblue" stroke="midnightblue" points="1046.25,-506.829 1055.78,-502.187 1045.44,-499.877 1046.25,-506.829"/>
</g>
<!-- Node35 -->
<g id="node35" class="node"><title>Node35</title>
<g id="a_node35"><a xlink:href="../../d0/db3/TrackingReference_8h.html" target="_top" xlink:title="Tracking/TrackingReference.h">
<polygon fill="white" stroke="black" points="761,-422.5 761,-441.5 909,-441.5 909,-422.5 761,-422.5"/>
<text text-anchor="middle" x="835" y="-429.5" font-family="Helvetica,sans-Serif" font-size="10.00">Tracking/TrackingReference.h</text>
</a>
</g>
</g>
<!-- Node1&#45;&gt;Node35 -->
<g id="edge45" class="edge"><title>Node1&#45;&gt;Node35</title>
<path fill="none" stroke="midnightblue" d="M670.089,-540.47C700.435,-520.694 775.848,-471.548 813.252,-447.173"/>
<polygon fill="midnightblue" stroke="midnightblue" points="815.425,-449.934 821.892,-441.542 811.603,-444.07 815.425,-449.934"/>
</g>
<!-- Node36 -->
<g id="node36" class="node"><title>Node36</title>
<g id="a_node36"><a xlink:href="../../d7/dd7/globalFuncs_8h.html" target="_top" xlink:title="util/globalFuncs.h">
<polygon fill="white" stroke="black" points="182.5,-484.5 182.5,-503.5 275.5,-503.5 275.5,-484.5 182.5,-484.5"/>
<text text-anchor="middle" x="229" y="-491.5" font-family="Helvetica,sans-Serif" font-size="10.00">util/globalFuncs.h</text>
</a>
</g>
</g>
<!-- Node1&#45;&gt;Node36 -->
<g id="edge50" class="edge"><title>Node1&#45;&gt;Node36</title>
<path fill="none" stroke="midnightblue" d="M589.182,-540.444C505.378,-529.87 364.281,-512.068 285.872,-502.175"/>
<polygon fill="midnightblue" stroke="midnightblue" points="286.06,-498.671 275.701,-500.892 285.184,-505.616 286.06,-498.671"/>
</g>
<!-- Node40 -->
<g id="node40" class="node"><title>Node40</title>
<g id="a_node40"><a xlink:href="../../d8/d3f/ImageDisplay_8h.html" target="_top" xlink:title="IOWrapper/ImageDisplay.h">
<polygon fill="white" stroke="black" points="403.5,-484.5 403.5,-503.5 538.5,-503.5 538.5,-484.5 403.5,-484.5"/>
<text text-anchor="middle" x="471" y="-491.5" font-family="Helvetica,sans-Serif" font-size="10.00">IOWrapper/ImageDisplay.h</text>
</a>
</g>
</g>
<!-- Node1&#45;&gt;Node40 -->
<g id="edge61" class="edge"><title>Node1&#45;&gt;Node40</title>
<path fill="none" stroke="midnightblue" d="M627.528,-540.444C595.829,-531.241 545.268,-516.562 510.225,-506.388"/>
<polygon fill="midnightblue" stroke="midnightblue" points="510.914,-502.943 500.334,-503.516 508.962,-509.666 510.914,-502.943"/>
</g>
<!-- Node3 -->
<g id="node3" class="node"><title>Node3</title>
<polygon fill="white" stroke="#bfbfbf" points="413,-354.5 413,-373.5 529,-373.5 529,-354.5 413,-354.5"/>
<text text-anchor="middle" x="471" y="-361.5" font-family="Helvetica,sans-Serif" font-size="10.00">opencv2/core/core.hpp</text>
</g>
<!-- Node2&#45;&gt;Node3 -->
<g id="edge2" class="edge"><title>Node2&#45;&gt;Node3</title>
<path fill="none" stroke="midnightblue" d="M616.918,-485.866C589.723,-479.478 554.106,-467.942 528,-448 505.262,-430.631 488.298,-401.54 479.02,-382.818"/>
<polygon fill="midnightblue" stroke="midnightblue" points="482.11,-381.166 474.668,-373.625 475.783,-384.161 482.11,-381.166"/>
</g>
<!-- Node4 -->
<g id="node4" class="node"><title>Node4</title>
<g id="a_node4"><a xlink:href="../../de/d60/settings_8h.html" target="_top" xlink:title="util/settings.h">
<polygon fill="white" stroke="black" points="563.5,-354.5 563.5,-373.5 638.5,-373.5 638.5,-354.5 563.5,-354.5"/>
<text text-anchor="middle" x="601" y="-361.5" font-family="Helvetica,sans-Serif" font-size="10.00">util/settings.h</text>
</a>
</g>
</g>
<!-- Node2&#45;&gt;Node4 -->
<g id="edge3" class="edge"><title>Node2&#45;&gt;Node4</title>
<path fill="none" stroke="midnightblue" d="M655.935,-484.087C653.929,-469.35 648.787,-439.228 638,-416 632.215,-403.543 623.203,-391.036 615.523,-381.526"/>
<polygon fill="midnightblue" stroke="midnightblue" points="618.083,-379.132 608.973,-373.722 612.721,-383.632 618.083,-379.132"/>
</g>
<!-- Node7 -->
<g id="node7" class="node"><title>Node7</title>
<g id="a_node7"><a xlink:href="../../d9/d86/EigenCoreInclude_8h.html" target="_top" xlink:title="util/EigenCoreInclude.h">
<polygon fill="white" stroke="black" points="665,-354.5 665,-373.5 783,-373.5 783,-354.5 665,-354.5"/>
<text text-anchor="middle" x="724" y="-361.5" font-family="Helvetica,sans-Serif" font-size="10.00">util/EigenCoreInclude.h</text>
</a>
</g>
</g>
<!-- Node2&#45;&gt;Node7 -->
<g id="edge6" class="edge"><title>Node2&#45;&gt;Node7</title>
<path fill="none" stroke="midnightblue" d="M661.605,-484.202C672.559,-463.275 700.332,-410.216 714.847,-382.486"/>
<polygon fill="midnightblue" stroke="midnightblue" points="718.002,-384.005 719.539,-373.522 711.801,-380.759 718.002,-384.005"/>
</g>
<!-- Node9 -->
<g id="node9" class="node"><title>Node9</title>
<g id="a_node9"><a xlink:href="../../d2/d13/SophusUtil_8h.html" target="_top" xlink:title="util/SophusUtil.h">
<polygon fill="white" stroke="black" points="1259.5,-286.5 1259.5,-305.5 1348.5,-305.5 1348.5,-286.5 1259.5,-286.5"/>
<text text-anchor="middle" x="1304" y="-293.5" font-family="Helvetica,sans-Serif" font-size="10.00">util/SophusUtil.h</text>
</a>
</g>
</g>
<!-- Node2&#45;&gt;Node9 -->
<g id="edge8" class="edge"><title>Node2&#45;&gt;Node9</title>
<path fill="none" stroke="midnightblue" d="M697.096,-492.14C763.127,-489.784 890.229,-480.969 918,-448 927.163,-437.123 924.484,-428.658 918,-416 905.516,-391.628 880.484,-404.372 868,-380 861.516,-367.342 858.546,-358.625 868,-348 892.963,-319.947 1137.93,-304.86 1249.34,-299.402"/>
<polygon fill="midnightblue" stroke="midnightblue" points="1249.55,-302.896 1259.37,-298.919 1249.22,-295.904 1249.55,-302.896"/>
</g>
<!-- Node2&#45;&gt;Node18 -->
<g id="edge19" class="edge"><title>Node2&#45;&gt;Node18</title>
<path fill="none" stroke="midnightblue" d="M646.398,-484.403C634.748,-474.958 615.814,-459.606 601.665,-448.134"/>
<polygon fill="midnightblue" stroke="midnightblue" points="603.555,-445.16 593.583,-441.581 599.146,-450.597 603.555,-445.16"/>
</g>
<!-- Node5 -->
<g id="node5" class="node"><title>Node5</title>
<polygon fill="white" stroke="#bfbfbf" points="576.5,-286.5 576.5,-305.5 625.5,-305.5 625.5,-286.5 576.5,-286.5"/>
<text text-anchor="middle" x="601" y="-293.5" font-family="Helvetica,sans-Serif" font-size="10.00">string.h</text>
</g>
<!-- Node4&#45;&gt;Node5 -->
<g id="edge4" class="edge"><title>Node4&#45;&gt;Node5</title>
<path fill="none" stroke="midnightblue" d="M601,-354.372C601,-344.643 601,-328.528 601,-315.85"/>
<polygon fill="midnightblue" stroke="midnightblue" points="604.5,-315.841 601,-305.841 597.5,-315.841 604.5,-315.841"/>
</g>
<!-- Node6 -->
<g id="node6" class="node"><title>Node6</title>
<polygon fill="white" stroke="#bfbfbf" points="118.5,-286.5 118.5,-305.5 159.5,-305.5 159.5,-286.5 118.5,-286.5"/>
<text text-anchor="middle" x="139" y="-293.5" font-family="Helvetica,sans-Serif" font-size="10.00">string</text>
</g>
<!-- Node4&#45;&gt;Node6 -->
<g id="edge5" class="edge"><title>Node4&#45;&gt;Node6</title>
<path fill="none" stroke="midnightblue" d="M567.588,-354.485C557.776,-352.17 546.995,-349.807 537,-348 401.283,-323.467 237.446,-306.378 170.152,-299.891"/>
<polygon fill="midnightblue" stroke="midnightblue" points="170.119,-296.372 159.832,-298.907 169.455,-303.341 170.119,-296.372"/>
</g>
<!-- Node8 -->
<g id="node8" class="node"><title>Node8</title>
<polygon fill="white" stroke="#bfbfbf" points="951.5,-286.5 951.5,-305.5 1016.5,-305.5 1016.5,-286.5 951.5,-286.5"/>
<text text-anchor="middle" x="984" y="-293.5" font-family="Helvetica,sans-Serif" font-size="10.00">Eigen/Core</text>
</g>
<!-- Node7&#45;&gt;Node8 -->
<g id="edge7" class="edge"><title>Node7&#45;&gt;Node8</title>
<path fill="none" stroke="midnightblue" d="M757.724,-354.439C804.741,-342.504 889.983,-320.866 941.354,-307.825"/>
<polygon fill="midnightblue" stroke="midnightblue" points="942.324,-311.19 951.156,-305.337 940.602,-304.405 942.324,-311.19"/>
</g>
<!-- Node10 -->
<g id="node10" class="node"><title>Node10</title>
<g id="a_node10"><a xlink:href="../../dc/d5c/sim3_8hpp.html" target="_top" xlink:title="sophus/sim3.hpp">
<polygon fill="white" stroke="black" points="1221.5,-224.5 1221.5,-243.5 1312.5,-243.5 1312.5,-224.5 1221.5,-224.5"/>
<text text-anchor="middle" x="1267" y="-231.5" font-family="Helvetica,sans-Serif" font-size="10.00">sophus/sim3.hpp</text>
</a>
</g>
</g>
<!-- Node9&#45;&gt;Node10 -->
<g id="edge9" class="edge"><title>Node9&#45;&gt;Node10</title>
<path fill="none" stroke="midnightblue" d="M1298.7,-286.403C1293.2,-277.493 1284.47,-263.325 1277.56,-252.118"/>
<polygon fill="midnightblue" stroke="midnightblue" points="1280.52,-250.255 1272.29,-243.581 1274.56,-253.929 1280.52,-250.255"/>
</g>
<!-- Node17 -->
<g id="node17" class="node"><title>Node17</title>
<g id="a_node17"><a xlink:href="../../d4/d4b/se3_8hpp.html" target="_top" xlink:title="sophus/se3.hpp">
<polygon fill="white" stroke="black" points="1311,-168.5 1311,-187.5 1397,-187.5 1397,-168.5 1311,-168.5"/>
<text text-anchor="middle" x="1354" y="-175.5" font-family="Helvetica,sans-Serif" font-size="10.00">sophus/se3.hpp</text>
</a>
</g>
</g>
<!-- Node9&#45;&gt;Node17 -->
<g id="edge17" class="edge"><title>Node9&#45;&gt;Node17</title>
<path fill="none" stroke="midnightblue" d="M1307.76,-286.281C1315.91,-267.379 1335.34,-222.295 1346.24,-197"/>
<polygon fill="midnightblue" stroke="midnightblue" points="1349.59,-198.073 1350.33,-187.505 1343.16,-195.303 1349.59,-198.073"/>
</g>
<!-- Node11 -->
<g id="node11" class="node"><title>Node11</title>
<g id="a_node11"><a xlink:href="../../d7/d6a/rxso3_8hpp.html" target="_top" xlink:title="rxso3.hpp">
<polygon fill="white" stroke="black" points="1233.5,-168.5 1233.5,-187.5 1292.5,-187.5 1292.5,-168.5 1233.5,-168.5"/>
<text text-anchor="middle" x="1263" y="-175.5" font-family="Helvetica,sans-Serif" font-size="10.00">rxso3.hpp</text>
</a>
</g>
</g>
<!-- Node10&#45;&gt;Node11 -->
<g id="edge10" class="edge"><title>Node10&#45;&gt;Node11</title>
<path fill="none" stroke="midnightblue" d="M1266.34,-224.083C1265.82,-217.006 1265.06,-206.861 1264.41,-197.986"/>
<polygon fill="midnightblue" stroke="midnightblue" points="1267.88,-197.465 1263.65,-187.751 1260.9,-197.982 1267.88,-197.465"/>
</g>
<!-- Node12 -->
<g id="node12" class="node"><title>Node12</title>
<g id="a_node12"><a xlink:href="../../d7/dc1/sophus_8hpp.html" target="_top" xlink:title="sophus.hpp">
<polygon fill="white" stroke="black" points="1256.5,-56.5 1256.5,-75.5 1323.5,-75.5 1323.5,-56.5 1256.5,-56.5"/>
<text text-anchor="middle" x="1290" y="-63.5" font-family="Helvetica,sans-Serif" font-size="10.00">sophus.hpp</text>
</a>
</g>
</g>
<!-- Node11&#45;&gt;Node12 -->
<g id="edge11" class="edge"><title>Node11&#45;&gt;Node12</title>
<path fill="none" stroke="midnightblue" d="M1265.12,-168.368C1269.48,-150.617 1279.53,-109.666 1285.44,-85.5974"/>
<polygon fill="midnightblue" stroke="midnightblue" points="1288.91,-86.1375 1287.89,-75.5914 1282.11,-84.4688 1288.91,-86.1375"/>
</g>
<!-- Node16 -->
<g id="node16" class="node"><title>Node16</title>
<g id="a_node16"><a xlink:href="../../de/de9/so3_8hpp.html" target="_top" xlink:title="so3.hpp">
<polygon fill="white" stroke="black" points="1291.5,-112.5 1291.5,-131.5 1342.5,-131.5 1342.5,-112.5 1291.5,-112.5"/>
<text text-anchor="middle" x="1317" y="-119.5" font-family="Helvetica,sans-Serif" font-size="10.00">so3.hpp</text>
</a>
</g>
</g>
<!-- Node11&#45;&gt;Node16 -->
<g id="edge15" class="edge"><title>Node11&#45;&gt;Node16</title>
<path fill="none" stroke="midnightblue" d="M1271.92,-168.083C1279.78,-160.22 1291.43,-148.569 1300.92,-139.081"/>
<polygon fill="midnightblue" stroke="midnightblue" points="1303.65,-141.297 1308.25,-131.751 1298.7,-136.347 1303.65,-141.297"/>
</g>
<!-- Node13 -->
<g id="node13" class="node"><title>Node13</title>
<polygon fill="white" stroke="#bfbfbf" points="1178.5,-0.5 1178.5,-19.5 1237.5,-19.5 1237.5,-0.5 1178.5,-0.5"/>
<text text-anchor="middle" x="1208" y="-7.5" font-family="Helvetica,sans-Serif" font-size="10.00">stdexcept</text>
</g>
<!-- Node12&#45;&gt;Node13 -->
<g id="edge12" class="edge"><title>Node12&#45;&gt;Node13</title>
<path fill="none" stroke="midnightblue" d="M1276.83,-56.324C1264.15,-47.979 1244.77,-35.2122 1229.79,-25.3524"/>
<polygon fill="midnightblue" stroke="midnightblue" points="1231.42,-22.2313 1221.14,-19.6545 1227.57,-28.0776 1231.42,-22.2313"/>
</g>
<!-- Node14 -->
<g id="node14" class="node"><title>Node14</title>
<polygon fill="white" stroke="#bfbfbf" points="1255.5,-0.5 1255.5,-19.5 1324.5,-19.5 1324.5,-0.5 1255.5,-0.5"/>
<text text-anchor="middle" x="1290" y="-7.5" font-family="Helvetica,sans-Serif" font-size="10.00">Eigen/Eigen</text>
</g>
<!-- Node12&#45;&gt;Node14 -->
<g id="edge13" class="edge"><title>Node12&#45;&gt;Node14</title>
<path fill="none" stroke="midnightblue" d="M1290,-56.083C1290,-49.0059 1290,-38.8611 1290,-29.9865"/>
<polygon fill="midnightblue" stroke="midnightblue" points="1293.5,-29.751 1290,-19.7511 1286.5,-29.7511 1293.5,-29.751"/>
</g>
<!-- Node15 -->
<g id="node15" class="node"><title>Node15</title>
<polygon fill="white" stroke="#bfbfbf" points="1342.5,-0.5 1342.5,-19.5 1429.5,-19.5 1429.5,-0.5 1342.5,-0.5"/>
<text text-anchor="middle" x="1386" y="-7.5" font-family="Helvetica,sans-Serif" font-size="10.00">Eigen/Geometry</text>
</g>
<!-- Node12&#45;&gt;Node15 -->
<g id="edge14" class="edge"><title>Node12&#45;&gt;Node15</title>
<path fill="none" stroke="midnightblue" d="M1305.42,-56.324C1320.54,-47.8215 1343.82,-34.7288 1361.47,-24.7975"/>
<polygon fill="midnightblue" stroke="midnightblue" points="1363.61,-27.6077 1370.61,-19.6545 1360.18,-21.5066 1363.61,-27.6077"/>
</g>
<!-- Node16&#45;&gt;Node12 -->
<g id="edge16" class="edge"><title>Node16&#45;&gt;Node12</title>
<path fill="none" stroke="midnightblue" d="M1312.54,-112.083C1308.85,-104.691 1303.48,-93.9533 1298.91,-84.8111"/>
<polygon fill="midnightblue" stroke="midnightblue" points="1301.98,-83.1301 1294.38,-75.7511 1295.72,-86.2606 1301.98,-83.1301"/>
</g>
<!-- Node17&#45;&gt;Node16 -->
<g id="edge18" class="edge"><title>Node17&#45;&gt;Node16</title>
<path fill="none" stroke="midnightblue" d="M1347.89,-168.083C1342.72,-160.534 1335.15,-149.495 1328.81,-140.23"/>
<polygon fill="midnightblue" stroke="midnightblue" points="1331.54,-138.022 1323,-131.751 1325.76,-141.979 1331.54,-138.022"/>
</g>
<!-- Node18&#45;&gt;Node3 -->
<g id="edge21" class="edge"><title>Node18&#45;&gt;Node3</title>
<path fill="none" stroke="midnightblue" d="M568.358,-422.372C549.576,-411.304 516.771,-391.972 494.483,-378.838"/>
<polygon fill="midnightblue" stroke="midnightblue" points="496.038,-375.692 485.646,-373.63 492.484,-381.723 496.038,-375.692"/>
</g>
<!-- Node18&#45;&gt;Node4 -->
<g id="edge22" class="edge"><title>Node18&#45;&gt;Node4</title>
<path fill="none" stroke="midnightblue" d="M585.353,-422.372C588.007,-412.643 592.401,-396.528 595.859,-383.85"/>
<polygon fill="midnightblue" stroke="midnightblue" points="599.334,-384.41 598.589,-373.841 592.581,-382.568 599.334,-384.41"/>
</g>
<!-- Node18&#45;&gt;Node7 -->
<g id="edge20" class="edge"><title>Node18&#45;&gt;Node7</title>
<path fill="none" stroke="midnightblue" d="M601.433,-422.372C625.606,-411.057 668.23,-391.105 696.296,-377.968"/>
<polygon fill="midnightblue" stroke="midnightblue" points="697.989,-381.04 705.562,-373.63 695.021,-374.7 697.989,-381.04"/>
</g>
<!-- Node20&#45;&gt;Node4 -->
<g id="edge26" class="edge"><title>Node20&#45;&gt;Node4</title>
<path fill="none" stroke="midnightblue" d="M1055.74,-492.469C981.975,-490.247 855.128,-481.334 752,-448 701.876,-431.798 649.262,-398.614 621.3,-379.476"/>
<polygon fill="midnightblue" stroke="midnightblue" points="623.011,-376.402 612.802,-373.569 619.016,-382.15 623.011,-376.402"/>
</g>
<!-- Node20&#45;&gt;Node9 -->
<g id="edge25" class="edge"><title>Node20&#45;&gt;Node9</title>
<path fill="none" stroke="midnightblue" d="M1162.12,-484.467C1214.86,-471.816 1299.77,-442.489 1338,-380 1351.27,-358.311 1333.78,-330.524 1319.37,-313.241"/>
<polygon fill="midnightblue" stroke="midnightblue" points="1321.93,-310.856 1312.69,-305.673 1316.69,-315.487 1321.93,-310.856"/>
</g>
<!-- Node21 -->
<g id="node21" class="node"><title>Node21</title>
<polygon fill="white" stroke="#bfbfbf" points="1511.5,-417 1511.5,-447 1624.5,-447 1624.5,-417 1511.5,-417"/>
<text text-anchor="start" x="1519.5" y="-435" font-family="Helvetica,sans-Serif" font-size="10.00">boost/thread/recursive</text>
<text text-anchor="middle" x="1568" y="-424" font-family="Helvetica,sans-Serif" font-size="10.00">_mutex.hpp</text>
</g>
<!-- Node20&#45;&gt;Node21 -->
<g id="edge27" class="edge"><title>Node20&#45;&gt;Node21</title>
<path fill="none" stroke="midnightblue" d="M1178.08,-485.096C1181.09,-484.722 1184.08,-484.354 1187,-484 1323.61,-467.413 1361.33,-471.445 1500.97,-448.057"/>
<polygon fill="midnightblue" stroke="midnightblue" points="1501.92,-451.445 1511.2,-446.326 1500.75,-444.544 1501.92,-451.445"/>
</g>
<!-- Node22 -->
<g id="node22" class="node"><title>Node22</title>
<polygon fill="white" stroke="#bfbfbf" points="877.5,-349 877.5,-379 980.5,-379 980.5,-349 877.5,-349"/>
<text text-anchor="start" x="885.5" y="-367" font-family="Helvetica,sans-Serif" font-size="10.00">boost/thread/shared</text>
<text text-anchor="middle" x="929" y="-356" font-family="Helvetica,sans-Serif" font-size="10.00">_mutex.hpp</text>
</g>
<!-- Node20&#45;&gt;Node22 -->
<g id="edge28" class="edge"><title>Node20&#45;&gt;Node22</title>
<path fill="none" stroke="midnightblue" d="M1097.09,-484.348C1078.78,-476.046 1051.21,-462.637 1029,-448 1000.52,-429.23 970.806,-403.685 951.245,-385.912"/>
<polygon fill="midnightblue" stroke="midnightblue" points="953.501,-383.232 943.768,-379.047 948.767,-388.388 953.501,-383.232"/>
</g>
<!-- Node23 -->
<g id="node23" class="node"><title>Node23</title>
<g id="a_node23"><a xlink:href="../../db/d75/FramePoseStruct_8h.html" target="_top" xlink:title="DataStructures/FramePose\lStruct.h">
<polygon fill="white" stroke="black" points="1357,-417 1357,-447 1493,-447 1493,-417 1357,-417"/>
<text text-anchor="start" x="1365" y="-435" font-family="Helvetica,sans-Serif" font-size="10.00">DataStructures/FramePose</text>
<text text-anchor="middle" x="1425" y="-424" font-family="Helvetica,sans-Serif" font-size="10.00">Struct.h</text>
</a>
</g>
</g>
<!-- Node20&#45;&gt;Node23 -->
<g id="edge29" class="edge"><title>Node20&#45;&gt;Node23</title>
<path fill="none" stroke="midnightblue" d="M1160.8,-484.467C1209.16,-475.047 1287.95,-459.697 1346.93,-448.208"/>
<polygon fill="midnightblue" stroke="midnightblue" points="1347.81,-451.603 1356.96,-446.255 1346.47,-444.732 1347.81,-451.603"/>
</g>
<!-- Node28 -->
<g id="node28" class="node"><title>Node28</title>
<g id="a_node28"><a xlink:href="../../dd/d8b/FrameMemory_8h.html" target="_top" xlink:title="DataStructures/FrameMemory.h">
<polygon fill="white" stroke="black" points="1038.5,-422.5 1038.5,-441.5 1195.5,-441.5 1195.5,-422.5 1038.5,-422.5"/>
<text text-anchor="middle" x="1117" y="-429.5" font-family="Helvetica,sans-Serif" font-size="10.00">DataStructures/FrameMemory.h</text>
</a>
</g>
</g>
<!-- Node20&#45;&gt;Node28 -->
<g id="edge36" class="edge"><title>Node20&#45;&gt;Node28</title>
<path fill="none" stroke="midnightblue" d="M1117,-484.403C1117,-475.938 1117,-462.728 1117,-451.82"/>
<polygon fill="midnightblue" stroke="midnightblue" points="1120.5,-451.581 1117,-441.581 1113.5,-451.581 1120.5,-451.581"/>
</g>
<!-- Node34 -->
<g id="node34" class="node"><title>Node34</title>
<polygon fill="white" stroke="#bfbfbf" points="1643,-422.5 1643,-441.5 1721,-441.5 1721,-422.5 1643,-422.5"/>
<text text-anchor="middle" x="1682" y="-429.5" font-family="Helvetica,sans-Serif" font-size="10.00">unordered_set</text>
</g>
<!-- Node20&#45;&gt;Node34 -->
<g id="edge44" class="edge"><title>Node20&#45;&gt;Node34</title>
<path fill="none" stroke="midnightblue" d="M1178.06,-484.976C1181.08,-484.634 1184.08,-484.306 1187,-484 1384.79,-463.314 1437.67,-485.324 1633,-448 1637.88,-447.068 1642.96,-445.83 1647.92,-444.462"/>
<polygon fill="midnightblue" stroke="midnightblue" points="1649.24,-447.722 1657.84,-441.532 1647.25,-441.009 1649.24,-447.722"/>
</g>
<!-- Node23&#45;&gt;Node9 -->
<g id="edge30" class="edge"><title>Node23&#45;&gt;Node9</title>
<path fill="none" stroke="midnightblue" d="M1417.93,-416.715C1408.85,-399.268 1391.88,-369.435 1372,-348 1358.75,-333.71 1341.07,-320.591 1327.06,-311.238"/>
<polygon fill="midnightblue" stroke="midnightblue" points="1328.76,-308.169 1318.47,-305.661 1324.95,-314.041 1328.76,-308.169"/>
</g>
<!-- Node24 -->
<g id="node24" class="node"><title>Node24</title>
<g id="a_node24"><a xlink:href="../../d0/dca/g2oTypeSim3Sophus_8h.html" target="_top" xlink:title="GlobalMapping/g2oTypeSim3\lSophus.h">
<polygon fill="white" stroke="black" points="1424,-349 1424,-379 1568,-379 1568,-349 1424,-349"/>
<text text-anchor="start" x="1432" y="-367" font-family="Helvetica,sans-Serif" font-size="10.00">GlobalMapping/g2oTypeSim3</text>
<text text-anchor="middle" x="1496" y="-356" font-family="Helvetica,sans-Serif" font-size="10.00">Sophus.h</text>
</a>
</g>
</g>
<!-- Node23&#45;&gt;Node24 -->
<g id="edge31" class="edge"><title>Node23&#45;&gt;Node24</title>
<path fill="none" stroke="midnightblue" d="M1440.41,-416.679C1449.99,-407.771 1462.49,-396.155 1473.2,-386.193"/>
<polygon fill="midnightblue" stroke="midnightblue" points="1475.68,-388.665 1480.62,-379.293 1470.92,-383.538 1475.68,-388.665"/>
</g>
<!-- Node24&#45;&gt;Node9 -->
<g id="edge32" class="edge"><title>Node24&#45;&gt;Node9</title>
<path fill="none" stroke="midnightblue" d="M1454.81,-348.841C1420.16,-336.93 1371.18,-320.094 1338.55,-308.876"/>
<polygon fill="midnightblue" stroke="midnightblue" points="1339.57,-305.528 1328.98,-305.587 1337.3,-312.148 1339.57,-305.528"/>
</g>
<!-- Node25 -->
<g id="node25" class="node"><title>Node25</title>
<polygon fill="white" stroke="#bfbfbf" points="1489.5,-286.5 1489.5,-305.5 1608.5,-305.5 1608.5,-286.5 1489.5,-286.5"/>
<text text-anchor="middle" x="1549" y="-293.5" font-family="Helvetica,sans-Serif" font-size="10.00">g2o/core/base_vertex.h</text>
</g>
<!-- Node24&#45;&gt;Node25 -->
<g id="edge33" class="edge"><title>Node24&#45;&gt;Node25</title>
<path fill="none" stroke="midnightblue" d="M1507.5,-348.679C1515.76,-338.388 1526.93,-324.484 1535.6,-313.69"/>
<polygon fill="midnightblue" stroke="midnightblue" points="1538.38,-315.817 1541.91,-305.828 1532.92,-311.434 1538.38,-315.817"/>
</g>
<!-- Node26 -->
<g id="node26" class="node"><title>Node26</title>
<polygon fill="white" stroke="#bfbfbf" points="1627,-281 1627,-311 1737,-311 1737,-281 1627,-281"/>
<text text-anchor="start" x="1635" y="-299" font-family="Helvetica,sans-Serif" font-size="10.00">g2o/core/base_binary</text>
<text text-anchor="middle" x="1682" y="-288" font-family="Helvetica,sans-Serif" font-size="10.00">_edge.h</text>
</g>
<!-- Node24&#45;&gt;Node26 -->
<g id="edge34" class="edge"><title>Node24&#45;&gt;Node26</title>
<path fill="none" stroke="midnightblue" d="M1535.9,-348.841C1564.32,-338.759 1602.68,-325.147 1632.96,-314.402"/>
<polygon fill="midnightblue" stroke="midnightblue" points="1634.23,-317.664 1642.48,-311.022 1631.89,-311.067 1634.23,-317.664"/>
</g>
<!-- Node27 -->
<g id="node27" class="node"><title>Node27</title>
<polygon fill="white" stroke="#bfbfbf" points="1366.5,-281 1366.5,-311 1471.5,-311 1471.5,-281 1366.5,-281"/>
<text text-anchor="start" x="1374.5" y="-299" font-family="Helvetica,sans-Serif" font-size="10.00">g2o/types/sba/types</text>
<text text-anchor="middle" x="1419" y="-288" font-family="Helvetica,sans-Serif" font-size="10.00">_six_dof_expmap.h</text>
</g>
<!-- Node24&#45;&gt;Node27 -->
<g id="edge35" class="edge"><title>Node24&#45;&gt;Node27</title>
<path fill="none" stroke="midnightblue" d="M1479.29,-348.679C1468.73,-339.623 1454.9,-327.768 1443.15,-317.697"/>
<polygon fill="midnightblue" stroke="midnightblue" points="1445.28,-314.917 1435.41,-311.066 1440.73,-320.232 1445.28,-314.917"/>
</g>
<!-- Node28&#45;&gt;Node8 -->
<g id="edge43" class="edge"><title>Node28&#45;&gt;Node8</title>
<path fill="none" stroke="midnightblue" d="M1108.32,-422.353C1098.16,-412.221 1080.83,-394.92 1066,-380 1042.93,-356.789 1016.32,-329.817 999.825,-313.076"/>
<polygon fill="midnightblue" stroke="midnightblue" points="1002.11,-310.409 992.601,-305.74 997.124,-315.321 1002.11,-310.409"/>
</g>
<!-- Node28&#45;&gt;Node22 -->
<g id="edge42" class="edge"><title>Node28&#45;&gt;Node22</title>
<path fill="none" stroke="midnightblue" d="M1092.42,-422.372C1063.64,-412.268 1015.24,-395.277 978.568,-382.402"/>
<polygon fill="midnightblue" stroke="midnightblue" points="979.634,-379.066 969.039,-379.056 977.315,-385.671 979.634,-379.066"/>
</g>
<!-- Node29 -->
<g id="node29" class="node"><title>Node29</title>
<polygon fill="white" stroke="#bfbfbf" points="1075.5,-354.5 1075.5,-373.5 1158.5,-373.5 1158.5,-354.5 1075.5,-354.5"/>
<text text-anchor="middle" x="1117" y="-361.5" font-family="Helvetica,sans-Serif" font-size="10.00">unordered_map</text>
</g>
<!-- Node28&#45;&gt;Node29 -->
<g id="edge37" class="edge"><title>Node28&#45;&gt;Node29</title>
<path fill="none" stroke="midnightblue" d="M1117,-422.372C1117,-412.643 1117,-396.528 1117,-383.85"/>
<polygon fill="midnightblue" stroke="midnightblue" points="1120.5,-383.841 1117,-373.841 1113.5,-383.841 1120.5,-383.841"/>
</g>
<!-- Node30 -->
<g id="node30" class="node"><title>Node30</title>
<polygon fill="white" stroke="#bfbfbf" points="1177,-354.5 1177,-373.5 1221,-373.5 1221,-354.5 1177,-354.5"/>
<text text-anchor="middle" x="1199" y="-361.5" font-family="Helvetica,sans-Serif" font-size="10.00">vector</text>
</g>
<!-- Node28&#45;&gt;Node30 -->
<g id="edge38" class="edge"><title>Node28&#45;&gt;Node30</title>
<path fill="none" stroke="midnightblue" d="M1127.72,-422.372C1141.1,-411.6 1164.21,-393.002 1180.48,-379.906"/>
<polygon fill="midnightblue" stroke="midnightblue" points="1182.68,-382.627 1188.28,-373.63 1178.29,-377.174 1182.68,-382.627"/>
</g>
<!-- Node31 -->
<g id="node31" class="node"><title>Node31</title>
<polygon fill="white" stroke="#bfbfbf" points="751.5,-286.5 751.5,-305.5 870.5,-305.5 870.5,-286.5 751.5,-286.5"/>
<text text-anchor="middle" x="811" y="-293.5" font-family="Helvetica,sans-Serif" font-size="10.00">boost/thread/mutex.hpp</text>
</g>
<!-- Node28&#45;&gt;Node31 -->
<g id="edge39" class="edge"><title>Node28&#45;&gt;Node31</title>
<path fill="none" stroke="midnightblue" d="M1101.45,-422.494C1083.96,-412.77 1054.89,-396.108 1031,-380 1011.54,-366.882 1009.97,-358.525 989,-348 950.787,-328.826 904.237,-315.81 868.326,-307.728"/>
<polygon fill="midnightblue" stroke="midnightblue" points="869.012,-304.296 858.495,-305.579 867.517,-311.134 869.012,-304.296"/>
</g>
<!-- Node32 -->
<g id="node32" class="node"><title>Node32</title>
<polygon fill="white" stroke="#bfbfbf" points="1239.5,-354.5 1239.5,-373.5 1282.5,-373.5 1282.5,-354.5 1239.5,-354.5"/>
<text text-anchor="middle" x="1261" y="-361.5" font-family="Helvetica,sans-Serif" font-size="10.00">deque</text>
</g>
<!-- Node28&#45;&gt;Node32 -->
<g id="edge40" class="edge"><title>Node28&#45;&gt;Node32</title>
<path fill="none" stroke="midnightblue" d="M1136.05,-422.401C1158.36,-412.314 1196.42,-395.055 1229,-380 1230.39,-379.357 1231.82,-378.696 1233.26,-378.027"/>
<polygon fill="midnightblue" stroke="midnightblue" points="1235.16,-381.002 1242.74,-373.602 1232.2,-374.659 1235.16,-381.002"/>
</g>
<!-- Node33 -->
<g id="node33" class="node"><title>Node33</title>
<polygon fill="white" stroke="#bfbfbf" points="1300.5,-354.5 1300.5,-373.5 1329.5,-373.5 1329.5,-354.5 1300.5,-354.5"/>
<text text-anchor="middle" x="1315" y="-361.5" font-family="Helvetica,sans-Serif" font-size="10.00">list</text>
</g>
<!-- Node28&#45;&gt;Node33 -->
<g id="edge41" class="edge"><title>Node28&#45;&gt;Node33</title>
<path fill="none" stroke="midnightblue" d="M1157.5,-422.453C1193.49,-414.086 1247.06,-399.721 1291,-380 1291.99,-379.557 1292.98,-379.08 1293.97,-378.577"/>
<polygon fill="midnightblue" stroke="midnightblue" points="1295.71,-381.616 1302.65,-373.614 1292.24,-375.539 1295.71,-381.616"/>
</g>
<!-- Node35&#45;&gt;Node4 -->
<g id="edge46" class="edge"><title>Node35&#45;&gt;Node4</title>
<path fill="none" stroke="midnightblue" d="M804.409,-422.372C762.513,-410.555 687.219,-389.318 640.925,-376.261"/>
<polygon fill="midnightblue" stroke="midnightblue" points="641.803,-372.872 631.228,-373.526 639.902,-379.609 641.803,-372.872"/>
</g>
<!-- Node35&#45;&gt;Node7 -->
<g id="edge47" class="edge"><title>Node35&#45;&gt;Node7</title>
<path fill="none" stroke="midnightblue" d="M820.489,-422.372C801.875,-411.304 769.363,-391.972 747.273,-378.838"/>
<polygon fill="midnightblue" stroke="midnightblue" points="748.899,-375.733 738.515,-373.63 745.321,-381.75 748.899,-375.733"/>
</g>
<!-- Node35&#45;&gt;Node22 -->
<g id="edge49" class="edge"><title>Node35&#45;&gt;Node22</title>
<path fill="none" stroke="midnightblue" d="M847.289,-422.372C860.718,-412.943 882.688,-397.517 900.467,-385.034"/>
<polygon fill="midnightblue" stroke="midnightblue" points="902.629,-387.792 908.802,-379.181 898.607,-382.063 902.629,-387.792"/>
</g>
<!-- Node35&#45;&gt;Node31 -->
<g id="edge48" class="edge"><title>Node35&#45;&gt;Node31</title>
<path fill="none" stroke="midnightblue" d="M833.425,-422.208C829.577,-400.722 819.627,-345.167 814.37,-315.814"/>
<polygon fill="midnightblue" stroke="midnightblue" points="817.758,-314.877 812.549,-305.65 810.867,-316.111 817.758,-314.877"/>
</g>
<!-- Node36&#45;&gt;Node3 -->
<g id="edge51" class="edge"><title>Node36&#45;&gt;Node3</title>
<path fill="none" stroke="midnightblue" d="M229.059,-484.402C229.657,-468.468 233.315,-434.31 253,-416 274.602,-395.907 347.238,-381.711 402.789,-373.483"/>
<polygon fill="midnightblue" stroke="midnightblue" points="403.549,-376.91 412.946,-372.016 402.549,-369.981 403.549,-376.91"/>
</g>
<!-- Node36&#45;&gt;Node4 -->
<g id="edge52" class="edge"><title>Node36&#45;&gt;Node4</title>
<path fill="none" stroke="midnightblue" d="M232.764,-484.037C240.226,-467.494 258.577,-432.364 286,-416 382.777,-358.251 426.254,-400.878 537,-380 543.403,-378.793 550.133,-377.378 556.726,-375.908"/>
<polygon fill="midnightblue" stroke="midnightblue" points="557.941,-379.221 566.907,-373.575 556.378,-372.398 557.941,-379.221"/>
</g>
<!-- Node36&#45;&gt;Node9 -->
<g id="edge60" class="edge"><title>Node36&#45;&gt;Node9</title>
<path fill="none" stroke="midnightblue" d="M226.423,-484.434C222.381,-469.145 216.421,-436.809 231,-416 278.404,-348.338 323.297,-365.671 404,-348 414.379,-345.727 1055.32,-310.582 1249.1,-299.995"/>
<polygon fill="midnightblue" stroke="midnightblue" points="1249.54,-303.476 1259.34,-299.436 1249.16,-296.487 1249.54,-303.476"/>
</g>
<!-- Node37 -->
<g id="node37" class="node"><title>Node37</title>
<g id="a_node37"><a xlink:href="../../da/d15/TimestampedObject_8h.html" target="_top" xlink:title="IOWrapper/TimestampedObject.h">
<polygon fill="white" stroke="black" points="-0.5,-422.5 -0.5,-441.5 162.5,-441.5 162.5,-422.5 -0.5,-422.5"/>
<text text-anchor="middle" x="81" y="-429.5" font-family="Helvetica,sans-Serif" font-size="10.00">IOWrapper/TimestampedObject.h</text>
</a>
</g>
</g>
<!-- Node36&#45;&gt;Node37 -->
<g id="edge53" class="edge"><title>Node36&#45;&gt;Node37</title>
<path fill="none" stroke="midnightblue" d="M207.795,-484.403C182.628,-474.2 140.46,-457.105 111.721,-445.454"/>
<polygon fill="midnightblue" stroke="midnightblue" points="112.748,-442.094 102.165,-441.581 110.118,-448.581 112.748,-442.094"/>
</g>
<!-- Node37&#45;&gt;Node3 -->
<g id="edge55" class="edge"><title>Node37&#45;&gt;Node3</title>
<path fill="none" stroke="midnightblue" d="M131.586,-422.439C203.186,-410.322 333.885,-388.204 410.519,-375.235"/>
<polygon fill="midnightblue" stroke="midnightblue" points="411.228,-378.665 420.504,-373.546 410.06,-371.763 411.228,-378.665"/>
</g>
<!-- Node38 -->
<g id="node38" class="node"><title>Node38</title>
<polygon fill="white" stroke="#bfbfbf" points="40,-286.5 40,-305.5 86,-305.5 86,-286.5 40,-286.5"/>
<text text-anchor="middle" x="63" y="-293.5" font-family="Helvetica,sans-Serif" font-size="10.00">chrono</text>
</g>
<!-- Node37&#45;&gt;Node38 -->
<g id="edge54" class="edge"><title>Node37&#45;&gt;Node38</title>
<path fill="none" stroke="midnightblue" d="M67.6292,-422.336C55.2236,-413.421 37.5711,-398.278 30,-380 20.4997,-357.064 35.7874,-330.355 48.5755,-313.562"/>
<polygon fill="midnightblue" stroke="midnightblue" points="51.3216,-315.732 54.8904,-305.756 45.8796,-311.329 51.3216,-315.732"/>
</g>
<!-- Node39 -->
<g id="node39" class="node"><title>Node39</title>
<g id="a_node39"><a xlink:href="../../d7/d66/Timestamp_8h.html" target="_top" xlink:title="IOWrapper/Timestamp.h">
<polygon fill="white" stroke="black" points="39,-354.5 39,-373.5 163,-373.5 163,-354.5 39,-354.5"/>
<text text-anchor="middle" x="101" y="-361.5" font-family="Helvetica,sans-Serif" font-size="10.00">IOWrapper/Timestamp.h</text>
</a>
</g>
</g>
<!-- Node37&#45;&gt;Node39 -->
<g id="edge56" class="edge"><title>Node37&#45;&gt;Node39</title>
<path fill="none" stroke="midnightblue" d="M83.6147,-422.372C86.5926,-412.544 91.5449,-396.202 95.4038,-383.467"/>
<polygon fill="midnightblue" stroke="midnightblue" points="98.7703,-384.426 98.3209,-373.841 92.0711,-382.396 98.7703,-384.426"/>
</g>
<!-- Node39&#45;&gt;Node6 -->
<g id="edge57" class="edge"><title>Node39&#45;&gt;Node6</title>
<path fill="none" stroke="midnightblue" d="M105.968,-354.372C111.739,-344.348 121.413,-327.546 128.805,-314.708"/>
<polygon fill="midnightblue" stroke="midnightblue" points="131.953,-316.254 133.91,-305.841 125.887,-312.761 131.953,-316.254"/>
</g>
<!-- Node39&#45;&gt;Node31 -->
<g id="edge59" class="edge"><title>Node39&#45;&gt;Node31</title>
<path fill="none" stroke="midnightblue" d="M139.517,-354.496C151.48,-352.098 164.742,-349.687 177,-348 378.839,-320.228 430.937,-328.602 634,-312 669.224,-309.12 708.38,-305.813 740.891,-303.038"/>
<polygon fill="midnightblue" stroke="midnightblue" points="741.533,-306.496 751.199,-302.157 740.937,-299.521 741.533,-306.496"/>
</g>
<!-- Node39&#45;&gt;Node38 -->
<g id="edge58" class="edge"><title>Node39&#45;&gt;Node38</title>
<path fill="none" stroke="midnightblue" d="M96.0322,-354.372C90.2608,-344.348 80.5868,-327.546 73.1953,-314.708"/>
<polygon fill="midnightblue" stroke="midnightblue" points="76.1132,-312.761 68.0903,-305.841 70.0469,-316.254 76.1132,-312.761"/>
</g>
<!-- Node40&#45;&gt;Node3 -->
<g id="edge62" class="edge"><title>Node40&#45;&gt;Node3</title>
<path fill="none" stroke="midnightblue" d="M471,-484.202C471,-463.551 471,-411.606 471,-383.594"/>
<polygon fill="midnightblue" stroke="midnightblue" points="474.5,-383.522 471,-373.522 467.5,-383.522 474.5,-383.522"/>
</g>
<!-- Node41 -->
<g id="node41" class="node"><title>Node41</title>
<polygon fill="white" stroke="#bfbfbf" points="295.5,-422.5 295.5,-441.5 442.5,-441.5 442.5,-422.5 295.5,-422.5"/>
<text text-anchor="middle" x="369" y="-429.5" font-family="Helvetica,sans-Serif" font-size="10.00">opencv2/imgproc/imgproc.hpp</text>
</g>
<!-- Node40&#45;&gt;Node41 -->
<g id="edge63" class="edge"><title>Node40&#45;&gt;Node41</title>
<path fill="none" stroke="midnightblue" d="M456.386,-484.403C439.647,-474.557 411.996,-458.291 392.281,-446.695"/>
<polygon fill="midnightblue" stroke="midnightblue" points="393.981,-443.634 383.587,-441.581 390.432,-449.668 393.981,-443.634"/>
</g>
</g>
</svg>
