<?xml version="1.0" encoding="UTF-8" standalone="no"?>
<!DOCTYPE svg PUBLIC "-//W3C//DTD SVG 1.1//EN"
 "http://www.w3.org/Graphics/SVG/1.1/DTD/svg11.dtd">
<!-- Generated by graphviz version 2.36.0 (20140111.2315)
 -->
<!-- Title: MultiThreadSIFT Pages: 1 -->
<svg width="249pt" height="260pt"
 viewBox="0.00 0.00 249.00 260.00" xmlns="http://www.w3.org/2000/svg" xmlns:xlink="http://www.w3.org/1999/xlink">
<g id="graph0" class="graph" transform="scale(1 1) rotate(0) translate(4 256)">
<title>MultiThreadSIFT</title>
<polygon fill="white" stroke="none" points="-4,4 -4,-256 245,-256 245,4 -4,4"/>
<!-- Node1 -->
<g id="node1" class="node"><title>Node1</title>
<polygon fill="#bfbfbf" stroke="black" points="61,-117 61,-251 183,-251 183,-117 61,-117"/>
<text text-anchor="middle" x="122" y="-239" font-family="Helvetica,sans-Serif" font-size="10.00">MultiThreadSIFT</text>
<polyline fill="none" stroke="black" points="61,-232 183,-232 "/>
<text text-anchor="start" x="69" y="-220" font-family="Helvetica,sans-Serif" font-size="10.00"># _sift</text>
<text text-anchor="start" x="69" y="-209" font-family="Helvetica,sans-Serif" font-size="10.00"># _thread_param</text>
<text text-anchor="start" x="69" y="-198" font-family="Helvetica,sans-Serif" font-size="10.00"># _device_id</text>
<polyline fill="none" stroke="black" points="61,-191 183,-191 "/>
<text text-anchor="start" x="69" y="-179" font-family="Helvetica,sans-Serif" font-size="10.00">+ MultiThreadSIFT()</text>
<text text-anchor="start" x="69" y="-168" font-family="Helvetica,sans-Serif" font-size="10.00">+ ~MultiThreadSIFT()</text>
<text text-anchor="start" x="69" y="-157" font-family="Helvetica,sans-Serif" font-size="10.00">+ RunThread()</text>
<text text-anchor="start" x="69" y="-146" font-family="Helvetica,sans-Serif" font-size="10.00">+ RunTask()</text>
<text text-anchor="start" x="69" y="-135" font-family="Helvetica,sans-Serif" font-size="10.00">+ InitializeSIFT()</text>
<text text-anchor="start" x="69" y="-124" font-family="Helvetica,sans-Serif" font-size="10.00">+ RunMultiThreadSIFT()</text>
</g>
<!-- Node2 -->
<g id="node2" class="node"><title>Node2</title>
<g id="a_node2"><a xlink:href="../../dd/d15/classMultiProcessDemo.html" target="_top" xlink:title="{MultiProcessDemo\n||+ MultiProcessDemo()\l+ RunTask()\l+ InitializeSIFT()\l}">
<polygon fill="white" stroke="black" points="-0.5,-0.5 -0.5,-79.5 114.5,-79.5 114.5,-0.5 -0.5,-0.5"/>
<text text-anchor="middle" x="57" y="-67.5" font-family="Helvetica,sans-Serif" font-size="10.00">MultiProcessDemo</text>
<polyline fill="none" stroke="black" points="-0.5,-60.5 114.5,-60.5 "/>
<text text-anchor="middle" x="57" y="-48.5" font-family="Helvetica,sans-Serif" font-size="10.00"> </text>
<polyline fill="none" stroke="black" points="-0.5,-41.5 114.5,-41.5 "/>
<text text-anchor="start" x="7.5" y="-29.5" font-family="Helvetica,sans-Serif" font-size="10.00">+ MultiProcessDemo()</text>
<text text-anchor="start" x="7.5" y="-18.5" font-family="Helvetica,sans-Serif" font-size="10.00">+ RunTask()</text>
<text text-anchor="start" x="7.5" y="-7.5" font-family="Helvetica,sans-Serif" font-size="10.00">+ InitializeSIFT()</text>
</a>
</g>
</g>
<!-- Node1&#45;&gt;Node2 -->
<g id="edge1" class="edge"><title>Node1&#45;&gt;Node2</title>
<path fill="none" stroke="midnightblue" d="M87.5374,-107.713C83.1131,-98.0471 78.7375,-88.488 74.7401,-79.7552"/>
<polygon fill="none" stroke="midnightblue" points="84.4389,-109.353 91.7835,-116.989 90.8037,-106.439 84.4389,-109.353"/>
</g>
<!-- Node3 -->
<g id="node3" class="node"><title>Node3</title>
<g id="a_node3"><a xlink:href="../../d8/dd9/classMultiThreadDemo.html" target="_top" xlink:title="{MultiThreadDemo\n||+ MultiThreadDemo()\l+ RunTask()\l+ InitializeSIFT()\l}">
<polygon fill="white" stroke="black" points="132.5,-0.5 132.5,-79.5 241.5,-79.5 241.5,-0.5 132.5,-0.5"/>
<text text-anchor="middle" x="187" y="-67.5" font-family="Helvetica,sans-Serif" font-size="10.00">MultiThreadDemo</text>
<polyline fill="none" stroke="black" points="132.5,-60.5 241.5,-60.5 "/>
<text text-anchor="middle" x="187" y="-48.5" font-family="Helvetica,sans-Serif" font-size="10.00"> </text>
<polyline fill="none" stroke="black" points="132.5,-41.5 241.5,-41.5 "/>
<text text-anchor="start" x="140.5" y="-29.5" font-family="Helvetica,sans-Serif" font-size="10.00">+ MultiThreadDemo()</text>
<text text-anchor="start" x="140.5" y="-18.5" font-family="Helvetica,sans-Serif" font-size="10.00">+ RunTask()</text>
<text text-anchor="start" x="140.5" y="-7.5" font-family="Helvetica,sans-Serif" font-size="10.00">+ InitializeSIFT()</text>
</a>
</g>
</g>
<!-- Node1&#45;&gt;Node3 -->
<g id="edge2" class="edge"><title>Node1&#45;&gt;Node3</title>
<path fill="none" stroke="midnightblue" d="M156.463,-107.713C160.887,-98.0471 165.263,-88.488 169.26,-79.7552"/>
<polygon fill="none" stroke="midnightblue" points="153.196,-106.439 152.217,-116.989 159.561,-109.353 153.196,-106.439"/>
</g>
</g>
</svg>
