<?xml version="1.0" encoding="UTF-8" standalone="no"?>
<!DOCTYPE svg PUBLIC "-//W3C//DTD SVG 1.1//EN"
 "http://www.w3.org/Graphics/SVG/1.1/DTD/svg11.dtd">
<!-- Generated by graphviz version 2.36.0 (20140111.2315)
 -->
<!-- Title: src/IOWrapper/ROS/rosReconfigure.h Pages: 1 -->
<svg width="1010pt" height="164pt"
 viewBox="0.00 0.00 1010.00 164.00" xmlns="http://www.w3.org/2000/svg" xmlns:xlink="http://www.w3.org/1999/xlink">
<g id="graph0" class="graph" transform="scale(1 1) rotate(0) translate(4 160)">
<title>src/IOWrapper/ROS/rosReconfigure.h</title>
<polygon fill="white" stroke="none" points="-4,4 -4,-160 1006,-160 1006,4 -4,4"/>
<!-- Node1 -->
<g id="node1" class="node"><title>Node1</title>
<polygon fill="#bfbfbf" stroke="black" points="416,-136.5 416,-155.5 598,-155.5 598,-136.5 416,-136.5"/>
<text text-anchor="middle" x="507" y="-143.5" font-family="Helvetica,sans-Serif" font-size="10.00">src/IOWrapper/ROS/rosReconfigure.h</text>
</g>
<!-- Node2 -->
<g id="node2" class="node"><title>Node2</title>
<polygon fill="white" stroke="#bfbfbf" points="202.5,-69 202.5,-99 309.5,-99 309.5,-69 202.5,-69"/>
<text text-anchor="start" x="210.5" y="-87" font-family="Helvetica,sans-Serif" font-size="10.00">dynamic_reconfigure</text>
<text text-anchor="middle" x="256" y="-76" font-family="Helvetica,sans-Serif" font-size="10.00">/server.h</text>
</g>
<!-- Node1&#45;&gt;Node2 -->
<g id="edge1" class="edge"><title>Node1&#45;&gt;Node2</title>
<path fill="none" stroke="midnightblue" d="M471.11,-136.496C435.09,-127.952 377.748,-114.325 319.499,-100.356"/>
<polygon fill="midnightblue" stroke="midnightblue" points="320.306,-96.9503 309.766,-98.0204 318.673,-103.757 320.306,-96.9503"/>
</g>
<!-- Node3 -->
<g id="node3" class="node"><title>Node3</title>
<g id="a_node3"><a xlink:href="../../d4/dac/LSDParamsConfig_8h.html" target="_top" xlink:title="lsd_slam_core/LSDParamsConfig.h">
<polygon fill="white" stroke="black" points="327.5,-74.5 327.5,-93.5 500.5,-93.5 500.5,-74.5 327.5,-74.5"/>
<text text-anchor="middle" x="414" y="-81.5" font-family="Helvetica,sans-Serif" font-size="10.00">lsd_slam_core/LSDParamsConfig.h</text>
</a>
</g>
</g>
<!-- Node1&#45;&gt;Node3 -->
<g id="edge2" class="edge"><title>Node1&#45;&gt;Node3</title>
<path fill="none" stroke="midnightblue" d="M493.675,-136.403C478.62,-126.691 453.884,-110.732 435.963,-99.1697"/>
<polygon fill="midnightblue" stroke="midnightblue" points="437.6,-96.0609 427.3,-93.5806 433.805,-101.943 437.6,-96.0609"/>
</g>
<!-- Node12 -->
<g id="node12" class="node"><title>Node12</title>
<g id="a_node12"><a xlink:href="../../df/d8f/LSDDebugParamsConfig_8h.html" target="_top" xlink:title="lsd_slam_core/LSDDebugParams\lConfig.h">
<polygon fill="white" stroke="black" points="519,-69 519,-99 683,-99 683,-69 519,-69"/>
<text text-anchor="start" x="527" y="-87" font-family="Helvetica,sans-Serif" font-size="10.00">lsd_slam_core/LSDDebugParams</text>
<text text-anchor="middle" x="601" y="-76" font-family="Helvetica,sans-Serif" font-size="10.00">Config.h</text>
</a>
</g>
</g>
<!-- Node1&#45;&gt;Node12 -->
<g id="edge11" class="edge"><title>Node1&#45;&gt;Node12</title>
<path fill="none" stroke="midnightblue" d="M520.468,-136.403C533.437,-128.125 553.513,-115.311 570.376,-104.547"/>
<polygon fill="midnightblue" stroke="midnightblue" points="572.3,-107.471 578.846,-99.1408 568.534,-101.571 572.3,-107.471"/>
</g>
<!-- Node13 -->
<g id="node13" class="node"><title>Node13</title>
<g id="a_node13"><a xlink:href="../../de/d60/settings_8h.html" target="_top" xlink:title="util/settings.h">
<polygon fill="white" stroke="black" points="881.5,-74.5 881.5,-93.5 956.5,-93.5 956.5,-74.5 881.5,-74.5"/>
<text text-anchor="middle" x="919" y="-81.5" font-family="Helvetica,sans-Serif" font-size="10.00">util/settings.h</text>
</a>
</g>
</g>
<!-- Node1&#45;&gt;Node13 -->
<g id="edge20" class="edge"><title>Node1&#45;&gt;Node13</title>
<path fill="none" stroke="midnightblue" d="M565.592,-136.467C647.706,-124.509 795.44,-102.994 871.258,-91.9527"/>
<polygon fill="midnightblue" stroke="midnightblue" points="872.074,-95.3709 881.465,-90.4663 871.065,-88.444 872.074,-95.3709"/>
</g>
<!-- Node4 -->
<g id="node4" class="node"><title>Node4</title>
<polygon fill="white" stroke="#bfbfbf" points="471.5,-1 471.5,-31 578.5,-31 578.5,-1 471.5,-1"/>
<text text-anchor="start" x="479.5" y="-19" font-family="Helvetica,sans-Serif" font-size="10.00">dynamic_reconfigure</text>
<text text-anchor="middle" x="525" y="-8" font-family="Helvetica,sans-Serif" font-size="10.00">/config_tools.h</text>
</g>
<!-- Node3&#45;&gt;Node4 -->
<g id="edge3" class="edge"><title>Node3&#45;&gt;Node4</title>
<path fill="none" stroke="midnightblue" d="M428.511,-74.3717C444.657,-64.7715 471.26,-48.9537 492.447,-36.3559"/>
<polygon fill="midnightblue" stroke="midnightblue" points="494.343,-39.3006 501.149,-31.1815 490.765,-33.2839 494.343,-39.3006"/>
</g>
<!-- Node5 -->
<g id="node5" class="node"><title>Node5</title>
<polygon fill="white" stroke="#bfbfbf" points="597,-6.5 597,-25.5 637,-25.5 637,-6.5 597,-6.5"/>
<text text-anchor="middle" x="617" y="-13.5" font-family="Helvetica,sans-Serif" font-size="10.00">limits</text>
</g>
<!-- Node3&#45;&gt;Node5 -->
<g id="edge4" class="edge"><title>Node3&#45;&gt;Node5</title>
<path fill="none" stroke="midnightblue" d="M449.738,-74.4401C485.159,-65.4985 540.676,-50.2432 587,-32 588.602,-31.3692 590.234,-30.6841 591.867,-29.9656"/>
<polygon fill="midnightblue" stroke="midnightblue" points="593.498,-33.0661 601.046,-25.6313 590.509,-26.7362 593.498,-33.0661"/>
</g>
<!-- Node6 -->
<g id="node6" class="node"><title>Node6</title>
<polygon fill="white" stroke="#bfbfbf" points="655,-6.5 655,-25.5 751,-25.5 751,-6.5 655,-6.5"/>
<text text-anchor="middle" x="703" y="-13.5" font-family="Helvetica,sans-Serif" font-size="10.00">ros/node_handle.h</text>
</g>
<!-- Node3&#45;&gt;Node6 -->
<g id="edge5" class="edge"><title>Node3&#45;&gt;Node6</title>
<path fill="none" stroke="midnightblue" d="M455.187,-74.478C501.66,-64.7386 579.454,-48.0633 646,-32 651.031,-30.7856 656.299,-29.4655 661.514,-28.129"/>
<polygon fill="midnightblue" stroke="midnightblue" points="662.602,-31.4627 671.401,-25.5618 660.842,-24.6874 662.602,-31.4627"/>
</g>
<!-- Node7 -->
<g id="node7" class="node"><title>Node7</title>
<polygon fill="white" stroke="#bfbfbf" points="769.5,-1 769.5,-31 876.5,-31 876.5,-1 769.5,-1"/>
<text text-anchor="start" x="777.5" y="-19" font-family="Helvetica,sans-Serif" font-size="10.00">dynamic_reconfigure</text>
<text text-anchor="middle" x="823" y="-8" font-family="Helvetica,sans-Serif" font-size="10.00">/ConfigDescription.h</text>
</g>
<!-- Node3&#45;&gt;Node7 -->
<g id="edge6" class="edge"><title>Node3&#45;&gt;Node7</title>
<path fill="none" stroke="midnightblue" d="M467.803,-74.4771C481.555,-72.3305 496.321,-70.0535 510,-68 617.869,-51.8067 648.036,-52.9413 759.498,-31.9874"/>
<polygon fill="midnightblue" stroke="midnightblue" points="760.283,-35.4011 769.455,-30.098 758.978,-28.5238 760.283,-35.4011"/>
</g>
<!-- Node8 -->
<g id="node8" class="node"><title>Node8</title>
<polygon fill="white" stroke="#bfbfbf" points="-0.5,-1 -0.5,-31 106.5,-31 106.5,-1 -0.5,-1"/>
<text text-anchor="start" x="7.5" y="-19" font-family="Helvetica,sans-Serif" font-size="10.00">dynamic_reconfigure</text>
<text text-anchor="middle" x="53" y="-8" font-family="Helvetica,sans-Serif" font-size="10.00">/ParamDescription.h</text>
</g>
<!-- Node3&#45;&gt;Node8 -->
<g id="edge7" class="edge"><title>Node3&#45;&gt;Node8</title>
<path fill="none" stroke="midnightblue" d="M361.345,-74.4649C292.716,-63.2679 175.364,-43.8565 116.639,-32.2391"/>
<polygon fill="midnightblue" stroke="midnightblue" points="117.213,-28.7845 106.718,-30.2343 115.826,-35.6458 117.213,-28.7845"/>
</g>
<!-- Node9 -->
<g id="node9" class="node"><title>Node9</title>
<polygon fill="white" stroke="#bfbfbf" points="124.5,-1 124.5,-31 231.5,-31 231.5,-1 124.5,-1"/>
<text text-anchor="start" x="132.5" y="-19" font-family="Helvetica,sans-Serif" font-size="10.00">dynamic_reconfigure</text>
<text text-anchor="middle" x="178" y="-8" font-family="Helvetica,sans-Serif" font-size="10.00">/Group.h</text>
</g>
<!-- Node3&#45;&gt;Node9 -->
<g id="edge8" class="edge"><title>Node3&#45;&gt;Node9</title>
<path fill="none" stroke="midnightblue" d="M383.147,-74.3717C346.481,-64.1175 284.449,-46.7698 238.177,-33.8291"/>
<polygon fill="midnightblue" stroke="midnightblue" points="238.835,-30.3789 228.262,-31.0562 236.949,-37.1202 238.835,-30.3789"/>
</g>
<!-- Node10 -->
<g id="node10" class="node"><title>Node10</title>
<polygon fill="white" stroke="#bfbfbf" points="249.5,-1 249.5,-31 356.5,-31 356.5,-1 249.5,-1"/>
<text text-anchor="start" x="257.5" y="-19" font-family="Helvetica,sans-Serif" font-size="10.00">dynamic_reconfigure</text>
<text text-anchor="middle" x="303" y="-8" font-family="Helvetica,sans-Serif" font-size="10.00">/config_init_mutex.h</text>
</g>
<!-- Node3&#45;&gt;Node10 -->
<g id="edge9" class="edge"><title>Node3&#45;&gt;Node10</title>
<path fill="none" stroke="midnightblue" d="M399.489,-74.3717C383.343,-64.7715 356.74,-48.9537 335.553,-36.3559"/>
<polygon fill="midnightblue" stroke="midnightblue" points="337.235,-33.2839 326.851,-31.1815 333.657,-39.3006 337.235,-33.2839"/>
</g>
<!-- Node11 -->
<g id="node11" class="node"><title>Node11</title>
<polygon fill="white" stroke="#bfbfbf" points="375,-6.5 375,-25.5 453,-25.5 453,-6.5 375,-6.5"/>
<text text-anchor="middle" x="414" y="-13.5" font-family="Helvetica,sans-Serif" font-size="10.00">boost/any.hpp</text>
</g>
<!-- Node3&#45;&gt;Node11 -->
<g id="edge10" class="edge"><title>Node3&#45;&gt;Node11</title>
<path fill="none" stroke="midnightblue" d="M414,-74.3717C414,-64.6426 414,-48.528 414,-35.8504"/>
<polygon fill="midnightblue" stroke="midnightblue" points="417.5,-35.8411 414,-25.8411 410.5,-35.8412 417.5,-35.8411"/>
</g>
<!-- Node12&#45;&gt;Node4 -->
<g id="edge12" class="edge"><title>Node12&#45;&gt;Node4</title>
<path fill="none" stroke="midnightblue" d="M584.509,-68.679C574.081,-59.6227 560.43,-47.7678 548.833,-37.697"/>
<polygon fill="midnightblue" stroke="midnightblue" points="551.043,-34.9806 541.198,-31.0663 546.453,-40.2659 551.043,-34.9806"/>
</g>
<!-- Node12&#45;&gt;Node5 -->
<g id="edge13" class="edge"><title>Node12&#45;&gt;Node5</title>
<path fill="none" stroke="midnightblue" d="M604.472,-68.679C606.818,-58.9995 609.94,-46.123 612.48,-35.6449"/>
<polygon fill="midnightblue" stroke="midnightblue" points="615.905,-36.3714 614.86,-25.8283 609.102,-34.7222 615.905,-36.3714"/>
</g>
<!-- Node12&#45;&gt;Node6 -->
<g id="edge14" class="edge"><title>Node12&#45;&gt;Node6</title>
<path fill="none" stroke="midnightblue" d="M622.882,-68.8413C639.971,-57.7837 663.62,-42.4814 680.792,-31.3701"/>
<polygon fill="midnightblue" stroke="midnightblue" points="683.088,-34.0529 689.583,-25.6819 679.285,-28.1759 683.088,-34.0529"/>
</g>
<!-- Node12&#45;&gt;Node7 -->
<g id="edge15" class="edge"><title>Node12&#45;&gt;Node7</title>
<path fill="none" stroke="midnightblue" d="M648.352,-68.9223C682.69,-58.7139 729.301,-44.8565 765.733,-34.0253"/>
<polygon fill="midnightblue" stroke="midnightblue" points="767.133,-37.2607 775.721,-31.0561 765.138,-30.551 767.133,-37.2607"/>
</g>
<!-- Node12&#45;&gt;Node8 -->
<g id="edge16" class="edge"><title>Node12&#45;&gt;Node8</title>
<path fill="none" stroke="midnightblue" d="M518.783,-69.3004C515.481,-68.8437 512.211,-68.4079 509,-68 337.798,-46.2494 290.229,-60.2108 116.651,-32.1312"/>
<polygon fill="midnightblue" stroke="midnightblue" points="117.105,-28.6588 106.67,-30.493 115.971,-35.5664 117.105,-28.6588"/>
</g>
<!-- Node12&#45;&gt;Node9 -->
<g id="edge17" class="edge"><title>Node12&#45;&gt;Node9</title>
<path fill="none" stroke="midnightblue" d="M518.759,-69.4717C515.464,-68.9676 512.202,-68.4751 509,-68 392.831,-50.76 360.261,-54.0207 241.533,-32.1837"/>
<polygon fill="midnightblue" stroke="midnightblue" points="242.166,-28.7414 231.695,-30.3534 240.886,-35.6233 242.166,-28.7414"/>
</g>
<!-- Node12&#45;&gt;Node10 -->
<g id="edge18" class="edge"><title>Node12&#45;&gt;Node10</title>
<path fill="none" stroke="midnightblue" d="M534.574,-68.955C489.859,-59.4145 429.311,-46.3311 366.669,-32.1277"/>
<polygon fill="midnightblue" stroke="midnightblue" points="367.126,-28.6424 356.599,-29.8389 365.575,-35.4683 367.126,-28.6424"/>
</g>
<!-- Node12&#45;&gt;Node11 -->
<g id="edge19" class="edge"><title>Node12&#45;&gt;Node11</title>
<path fill="none" stroke="midnightblue" d="M560.884,-68.8413C527.281,-56.9816 479.844,-40.2392 448.061,-29.0216"/>
<polygon fill="midnightblue" stroke="midnightblue" points="448.924,-25.6146 438.329,-25.5868 446.594,-32.2156 448.924,-25.6146"/>
</g>
<!-- Node14 -->
<g id="node14" class="node"><title>Node14</title>
<polygon fill="white" stroke="#bfbfbf" points="894.5,-6.5 894.5,-25.5 943.5,-25.5 943.5,-6.5 894.5,-6.5"/>
<text text-anchor="middle" x="919" y="-13.5" font-family="Helvetica,sans-Serif" font-size="10.00">string.h</text>
</g>
<!-- Node13&#45;&gt;Node14 -->
<g id="edge21" class="edge"><title>Node13&#45;&gt;Node14</title>
<path fill="none" stroke="midnightblue" d="M919,-74.3717C919,-64.6426 919,-48.528 919,-35.8504"/>
<polygon fill="midnightblue" stroke="midnightblue" points="922.5,-35.8411 919,-25.8411 915.5,-35.8412 922.5,-35.8411"/>
</g>
<!-- Node15 -->
<g id="node15" class="node"><title>Node15</title>
<polygon fill="white" stroke="#bfbfbf" points="961.5,-6.5 961.5,-25.5 1002.5,-25.5 1002.5,-6.5 961.5,-6.5"/>
<text text-anchor="middle" x="982" y="-13.5" font-family="Helvetica,sans-Serif" font-size="10.00">string</text>
</g>
<!-- Node13&#45;&gt;Node15 -->
<g id="edge22" class="edge"><title>Node13&#45;&gt;Node15</title>
<path fill="none" stroke="midnightblue" d="M927.236,-74.3717C937.18,-63.9547 954.111,-46.2173 966.521,-33.2162"/>
<polygon fill="midnightblue" stroke="midnightblue" points="969.188,-35.4914 973.561,-25.8411 964.124,-30.658 969.188,-35.4914"/>
</g>
</g>
</svg>
