<?xml version="1.0" encoding="UTF-8" standalone="no"?>
<!DOCTYPE svg PUBLIC "-//W3C//DTD SVG 1.1//EN"
 "http://www.w3.org/Graphics/SVG/1.1/DTD/svg11.dtd">
<!-- Generated by graphviz version 2.36.0 (20140111.2315)
 -->
<!-- Title: lsd_slam_core::LSDDebugParamsConfig::AbstractParamDescription Pages: 1 -->
<svg width="174pt" height="248pt"
 viewBox="0.00 0.00 174.00 248.00" xmlns="http://www.w3.org/2000/svg" xmlns:xlink="http://www.w3.org/1999/xlink">
<g id="graph0" class="graph" transform="scale(1 1) rotate(0) translate(4 244)">
<title>lsd_slam_core::LSDDebugParamsConfig::AbstractParamDescription</title>
<polygon fill="white" stroke="none" points="-4,4 -4,-244 170,-244 170,4 -4,4"/>
<!-- Node1 -->
<g id="node1" class="node"><title>Node1</title>
<polygon fill="#bfbfbf" stroke="black" points="-0.5,-0.5 -0.5,-145.5 166.5,-145.5 166.5,-0.5 -0.5,-0.5"/>
<text text-anchor="start" x="7.5" y="-133.5" font-family="Helvetica,sans-Serif" font-size="10.00">lsd_slam_core::LSDDebugParams</text>
<text text-anchor="middle" x="83" y="-122.5" font-family="Helvetica,sans-Serif" font-size="10.00">Config::AbstractParamDescription</text>
<polyline fill="none" stroke="black" points="-0.5,-115.5 166.5,-115.5 "/>
<text text-anchor="middle" x="83" y="-103.5" font-family="Helvetica,sans-Serif" font-size="10.00"> </text>
<polyline fill="none" stroke="black" points="-0.5,-96.5 166.5,-96.5 "/>
<text text-anchor="start" x="7.5" y="-84.5" font-family="Helvetica,sans-Serif" font-size="10.00">+ AbstractParamDescription()</text>
<text text-anchor="start" x="7.5" y="-73.5" font-family="Helvetica,sans-Serif" font-size="10.00">+ clamp()</text>
<text text-anchor="start" x="7.5" y="-62.5" font-family="Helvetica,sans-Serif" font-size="10.00">+ calcLevel()</text>
<text text-anchor="start" x="7.5" y="-51.5" font-family="Helvetica,sans-Serif" font-size="10.00">+ fromServer()</text>
<text text-anchor="start" x="7.5" y="-40.5" font-family="Helvetica,sans-Serif" font-size="10.00">+ toServer()</text>
<text text-anchor="start" x="7.5" y="-29.5" font-family="Helvetica,sans-Serif" font-size="10.00">+ fromMessage()</text>
<text text-anchor="start" x="7.5" y="-18.5" font-family="Helvetica,sans-Serif" font-size="10.00">+ toMessage()</text>
<text text-anchor="start" x="7.5" y="-7.5" font-family="Helvetica,sans-Serif" font-size="10.00">+ getValue()</text>
</g>
<!-- Node2 -->
<g id="node2" class="node"><title>Node2</title>
<polygon fill="white" stroke="#bfbfbf" points="35.5,-182.5 35.5,-239.5 130.5,-239.5 130.5,-182.5 35.5,-182.5"/>
<text text-anchor="middle" x="83" y="-227.5" font-family="Helvetica,sans-Serif" font-size="10.00">ParamDescription</text>
<polyline fill="none" stroke="#bfbfbf" points="35.5,-220.5 130.5,-220.5 "/>
<text text-anchor="middle" x="83" y="-208.5" font-family="Helvetica,sans-Serif" font-size="10.00"> </text>
<polyline fill="none" stroke="#bfbfbf" points="35.5,-201.5 130.5,-201.5 "/>
<text text-anchor="middle" x="83" y="-189.5" font-family="Helvetica,sans-Serif" font-size="10.00"> </text>
</g>
<!-- Node2&#45;&gt;Node1 -->
<g id="edge1" class="edge"><title>Node2&#45;&gt;Node1</title>
<path fill="none" stroke="midnightblue" d="M83,-172.356C83,-163.999 83,-154.872 83,-145.656"/>
<polygon fill="none" stroke="midnightblue" points="79.5001,-172.478 83,-182.478 86.5001,-172.478 79.5001,-172.478"/>
</g>
</g>
</svg>
