<?xml version="1.0" encoding="UTF-8" standalone="no"?>
<!DOCTYPE svg PUBLIC "-//W3C//DTD SVG 1.1//EN"
 "http://www.w3.org/Graphics/SVG/1.1/DTD/svg11.dtd">
<!-- Generated by graphviz version 2.36.0 (20140111.2315)
 -->
<!-- Title: src/node.h Pages: 1 -->
<svg width="1284pt" height="208pt"
 viewBox="0.00 0.00 1284.00 208.00" xmlns="http://www.w3.org/2000/svg" xmlns:xlink="http://www.w3.org/1999/xlink">
<g id="graph0" class="graph" transform="scale(1 1) rotate(0) translate(4 204)">
<title>src/node.h</title>
<polygon fill="white" stroke="none" points="-4,4 -4,-204 1280,-204 1280,4 -4,4"/>
<!-- Node1 -->
<g id="node1" class="node"><title>Node1</title>
<polygon fill="#bfbfbf" stroke="black" points="897,-180.5 897,-199.5 959,-199.5 959,-180.5 897,-180.5"/>
<text text-anchor="middle" x="928" y="-187.5" font-family="Helvetica,sans-Serif" font-size="10.00">src/node.h</text>
</g>
<!-- Node2 -->
<g id="node2" class="node"><title>Node2</title>
<g id="a_node2"><a xlink:href="../../de/d83/graph__manager_8h.html" target="_top" xlink:title="src/graph_manager.h">
<polygon fill="white" stroke="black" points="417,-118.5 417,-137.5 525,-137.5 525,-118.5 417,-118.5"/>
<text text-anchor="middle" x="471" y="-125.5" font-family="Helvetica,sans-Serif" font-size="10.00">src/graph_manager.h</text>
</a>
</g>
</g>
<!-- Node1&#45;&gt;Node2 -->
<g id="edge1" class="edge"><title>Node1&#45;&gt;Node2</title>
<path fill="none" stroke="midnightblue" d="M886.93,-183.608C804.295,-172.759 617.953,-148.294 525.352,-136.136"/>
<polygon fill="midnightblue" stroke="midnightblue" points="886.577,-187.092 896.948,-184.923 887.489,-180.151 886.577,-187.092"/>
</g>
<!-- Node10 -->
<g id="node10" class="node"><title>Node10</title>
<g id="a_node10"><a xlink:href="../../db/d34/openni__listener_8cpp.html" target="_top" xlink:title="src/openni_listener.cpp">
<polygon fill="white" stroke="black" points="753.5,-0.5 753.5,-19.5 870.5,-19.5 870.5,-0.5 753.5,-0.5"/>
<text text-anchor="middle" x="812" y="-7.5" font-family="Helvetica,sans-Serif" font-size="10.00">src/openni_listener.cpp</text>
</a>
</g>
</g>
<!-- Node1&#45;&gt;Node10 -->
<g id="edge13" class="edge"><title>Node1&#45;&gt;Node10</title>
<path fill="none" stroke="midnightblue" d="M886.939,-179.775C866.979,-173.154 844.452,-162.099 831,-144 802.338,-105.436 807.501,-42.8156 810.611,-19.8255"/>
<polygon fill="midnightblue" stroke="midnightblue" points="886.195,-183.207 896.78,-182.763 888.229,-176.509 886.195,-183.207"/>
</g>
<!-- Node11 -->
<g id="node11" class="node"><title>Node11</title>
<g id="a_node11"><a xlink:href="../../d9/db7/landmark_8h.html" target="_top" xlink:title="src/landmark.h">
<polygon fill="white" stroke="black" points="840.5,-118.5 840.5,-137.5 921.5,-137.5 921.5,-118.5 840.5,-118.5"/>
<text text-anchor="middle" x="881" y="-125.5" font-family="Helvetica,sans-Serif" font-size="10.00">src/landmark.h</text>
</a>
</g>
</g>
<!-- Node1&#45;&gt;Node11 -->
<g id="edge10" class="edge"><title>Node1&#45;&gt;Node11</title>
<path fill="none" stroke="midnightblue" d="M914.838,-172.198C906.016,-160.936 894.767,-146.574 887.721,-137.581"/>
<polygon fill="midnightblue" stroke="midnightblue" points="912.344,-174.689 921.266,-180.403 917.855,-170.373 912.344,-174.689"/>
</g>
<!-- Node13 -->
<g id="node13" class="node"><title>Node13</title>
<g id="a_node13"><a xlink:href="../../d7/d70/node_8cpp.html" target="_top" xlink:title="src/node.cpp">
<polygon fill="white" stroke="black" points="939.5,-118.5 939.5,-137.5 1012.5,-137.5 1012.5,-118.5 939.5,-118.5"/>
<text text-anchor="middle" x="976" y="-125.5" font-family="Helvetica,sans-Serif" font-size="10.00">src/node.cpp</text>
</a>
</g>
</g>
<!-- Node1&#45;&gt;Node13 -->
<g id="edge12" class="edge"><title>Node1&#45;&gt;Node13</title>
<path fill="none" stroke="midnightblue" d="M941.175,-172.531C950.224,-161.22 961.869,-146.663 969.136,-137.581"/>
<polygon fill="midnightblue" stroke="midnightblue" points="938.391,-170.408 934.877,-180.403 943.857,-174.781 938.391,-170.408"/>
</g>
<!-- Node14 -->
<g id="node14" class="node"><title>Node14</title>
<g id="a_node14"><a xlink:href="../../db/de8/transformation__estimation_8cpp.html" target="_top" xlink:title="src/transformation\l_estimation.cpp">
<polygon fill="white" stroke="black" points="1030.5,-113 1030.5,-143 1125.5,-143 1125.5,-113 1030.5,-113"/>
<text text-anchor="start" x="1038.5" y="-131" font-family="Helvetica,sans-Serif" font-size="10.00">src/transformation</text>
<text text-anchor="middle" x="1078" y="-120" font-family="Helvetica,sans-Serif" font-size="10.00">_estimation.cpp</text>
</a>
</g>
</g>
<!-- Node1&#45;&gt;Node14 -->
<g id="edge14" class="edge"><title>Node1&#45;&gt;Node14</title>
<path fill="none" stroke="midnightblue" d="M958.994,-176.602C983.429,-166.828 1017.51,-153.197 1042.94,-143.025"/>
<polygon fill="midnightblue" stroke="midnightblue" points="957.476,-173.44 949.491,-180.403 960.076,-179.939 957.476,-173.44"/>
</g>
<!-- Node15 -->
<g id="node15" class="node"><title>Node15</title>
<g id="a_node15"><a xlink:href="../../d7/de3/transformation__estimation__euclidean_8cpp.html" target="_top" xlink:title="src/transformation\l_estimation_euclidean.cpp">
<polygon fill="white" stroke="black" points="1144,-113 1144,-143 1276,-143 1276,-113 1144,-113"/>
<text text-anchor="start" x="1152" y="-131" font-family="Helvetica,sans-Serif" font-size="10.00">src/transformation</text>
<text text-anchor="middle" x="1210" y="-120" font-family="Helvetica,sans-Serif" font-size="10.00">_estimation_euclidean.cpp</text>
</a>
</g>
</g>
<!-- Node1&#45;&gt;Node15 -->
<g id="edge15" class="edge"><title>Node1&#45;&gt;Node15</title>
<path fill="none" stroke="midnightblue" d="M969.16,-180.243C1015.1,-170.468 1090.08,-154.515 1144.19,-143.003"/>
<polygon fill="midnightblue" stroke="midnightblue" points="968.309,-176.845 959.256,-182.35 969.766,-183.692 968.309,-176.845"/>
</g>
<!-- Node3 -->
<g id="node3" class="node"><title>Node3</title>
<g id="a_node3"><a xlink:href="../../d4/d1a/graph__manager_8cpp.html" target="_top" xlink:title="src/graph_manager.cpp">
<polygon fill="white" stroke="black" points="-0.5,-56.5 -0.5,-75.5 118.5,-75.5 118.5,-56.5 -0.5,-56.5"/>
<text text-anchor="middle" x="59" y="-63.5" font-family="Helvetica,sans-Serif" font-size="10.00">src/graph_manager.cpp</text>
</a>
</g>
</g>
<!-- Node2&#45;&gt;Node3 -->
<g id="edge2" class="edge"><title>Node2&#45;&gt;Node3</title>
<path fill="none" stroke="midnightblue" d="M406.369,-117.588C327.058,-106.038 193.744,-86.6229 117.397,-75.5044"/>
<polygon fill="midnightblue" stroke="midnightblue" points="406.314,-121.117 416.715,-119.094 407.323,-114.19 406.314,-121.117"/>
</g>
<!-- Node4 -->
<g id="node4" class="node"><title>Node4</title>
<g id="a_node4"><a xlink:href="../../de/d74/graph__manager2_8cpp.html" target="_top" xlink:title="src/graph_manager2.cpp">
<polygon fill="white" stroke="black" points="137,-56.5 137,-75.5 261,-75.5 261,-56.5 137,-56.5"/>
<text text-anchor="middle" x="199" y="-63.5" font-family="Helvetica,sans-Serif" font-size="10.00">src/graph_manager2.cpp</text>
</a>
</g>
</g>
<!-- Node2&#45;&gt;Node4 -->
<g id="edge3" class="edge"><title>Node2&#45;&gt;Node4</title>
<path fill="none" stroke="midnightblue" d="M422.497,-116.301C369.634,-104.64 286.124,-86.2185 237.549,-75.5034"/>
<polygon fill="midnightblue" stroke="midnightblue" points="421.799,-119.731 432.318,-118.467 423.307,-112.895 421.799,-119.731"/>
</g>
<!-- Node5 -->
<g id="node5" class="node"><title>Node5</title>
<g id="a_node5"><a xlink:href="../../de/da7/graph__mgr__io_8cpp.html" target="_top" xlink:title="src/graph_mgr_io.cpp">
<polygon fill="white" stroke="black" points="279,-56.5 279,-75.5 389,-75.5 389,-56.5 279,-56.5"/>
<text text-anchor="middle" x="334" y="-63.5" font-family="Helvetica,sans-Serif" font-size="10.00">src/graph_mgr_io.cpp</text>
</a>
</g>
</g>
<!-- Node2&#45;&gt;Node5 -->
<g id="edge4" class="edge"><title>Node2&#45;&gt;Node5</title>
<path fill="none" stroke="midnightblue" d="M442.171,-114.374C415.564,-102.721 376.771,-85.7319 353.592,-75.5806"/>
<polygon fill="midnightblue" stroke="midnightblue" points="440.807,-117.598 451.371,-118.403 443.615,-111.186 440.807,-117.598"/>
</g>
<!-- Node6 -->
<g id="node6" class="node"><title>Node6</title>
<g id="a_node6"><a xlink:href="../../db/d8d/graph__mgr__odom_8cpp.html" target="_top" xlink:title="src/graph_mgr_odom.cpp">
<polygon fill="white" stroke="black" points="407.5,-56.5 407.5,-75.5 534.5,-75.5 534.5,-56.5 407.5,-56.5"/>
<text text-anchor="middle" x="471" y="-63.5" font-family="Helvetica,sans-Serif" font-size="10.00">src/graph_mgr_odom.cpp</text>
</a>
</g>
</g>
<!-- Node2&#45;&gt;Node6 -->
<g id="edge5" class="edge"><title>Node2&#45;&gt;Node6</title>
<path fill="none" stroke="midnightblue" d="M471,-108.16C471,-97.2482 471,-84.04 471,-75.5806"/>
<polygon fill="midnightblue" stroke="midnightblue" points="467.5,-108.403 471,-118.403 474.5,-108.403 467.5,-108.403"/>
</g>
<!-- Node7 -->
<g id="node7" class="node"><title>Node7</title>
<g id="a_node7"><a xlink:href="../../dc/d7b/loop__closing_8cpp.html" target="_top" xlink:title="src/loop_closing.cpp">
<polygon fill="white" stroke="black" points="553,-56.5 553,-75.5 659,-75.5 659,-56.5 553,-56.5"/>
<text text-anchor="middle" x="606" y="-63.5" font-family="Helvetica,sans-Serif" font-size="10.00">src/loop_closing.cpp</text>
</a>
</g>
</g>
<!-- Node2&#45;&gt;Node7 -->
<g id="edge6" class="edge"><title>Node2&#45;&gt;Node7</title>
<path fill="none" stroke="midnightblue" d="M499.753,-114.221C525.962,-102.573 563.953,-85.6874 586.694,-75.5806"/>
<polygon fill="midnightblue" stroke="midnightblue" points="498.059,-111.144 490.342,-118.403 500.902,-117.54 498.059,-111.144"/>
</g>
<!-- Node8 -->
<g id="node8" class="node"><title>Node8</title>
<g id="a_node8"><a xlink:href="../../dd/d53/openni__listener_8h.html" target="_top" xlink:title="src/openni_listener.h">
<polygon fill="white" stroke="black" points="676.5,-56.5 676.5,-75.5 783.5,-75.5 783.5,-56.5 676.5,-56.5"/>
<text text-anchor="middle" x="730" y="-63.5" font-family="Helvetica,sans-Serif" font-size="10.00">src/openni_listener.h</text>
</a>
</g>
</g>
<!-- Node2&#45;&gt;Node8 -->
<g id="edge7" class="edge"><title>Node2&#45;&gt;Node8</title>
<path fill="none" stroke="midnightblue" d="M517.815,-116.155C568.182,-104.487 647.232,-86.174 693.294,-75.5034"/>
<polygon fill="midnightblue" stroke="midnightblue" points="516.785,-112.801 507.833,-118.467 518.365,-119.62 516.785,-112.801"/>
</g>
<!-- Node9 -->
<g id="node9" class="node"><title>Node9</title>
<g id="a_node9"><a xlink:href="../../df/d0a/main_8cpp.html" target="_top" xlink:title="src/main.cpp">
<polygon fill="white" stroke="black" points="662.5,-0.5 662.5,-19.5 735.5,-19.5 735.5,-0.5 662.5,-0.5"/>
<text text-anchor="middle" x="699" y="-7.5" font-family="Helvetica,sans-Serif" font-size="10.00">src/main.cpp</text>
</a>
</g>
</g>
<!-- Node8&#45;&gt;Node9 -->
<g id="edge8" class="edge"><title>Node8&#45;&gt;Node9</title>
<path fill="none" stroke="midnightblue" d="M719.824,-47.2747C714.526,-38.0454 708.283,-27.1703 704.024,-19.7511"/>
<polygon fill="midnightblue" stroke="midnightblue" points="716.867,-49.153 724.881,-56.083 722.938,-45.6679 716.867,-49.153"/>
</g>
<!-- Node8&#45;&gt;Node10 -->
<g id="edge9" class="edge"><title>Node8&#45;&gt;Node10</title>
<path fill="none" stroke="midnightblue" d="M751.833,-50.6221C766.813,-40.7574 786.197,-27.9919 798.858,-19.6545"/>
<polygon fill="midnightblue" stroke="midnightblue" points="749.601,-47.9009 743.175,-56.324 753.451,-53.7471 749.601,-47.9009"/>
</g>
<!-- Node12 -->
<g id="node12" class="node"><title>Node12</title>
<g id="a_node12"><a xlink:href="../../d8/d76/landmark_8cpp.html" target="_top" xlink:title="src/landmark.cpp">
<polygon fill="white" stroke="black" points="840,-56.5 840,-75.5 932,-75.5 932,-56.5 840,-56.5"/>
<text text-anchor="middle" x="886" y="-63.5" font-family="Helvetica,sans-Serif" font-size="10.00">src/landmark.cpp</text>
</a>
</g>
</g>
<!-- Node11&#45;&gt;Node12 -->
<g id="edge11" class="edge"><title>Node11&#45;&gt;Node12</title>
<path fill="none" stroke="midnightblue" d="M882.57,-108.16C883.479,-97.2482 884.58,-84.04 885.285,-75.5806"/>
<polygon fill="midnightblue" stroke="midnightblue" points="879.059,-108.147 881.716,-118.403 886.035,-108.729 879.059,-108.147"/>
</g>
</g>
</svg>
