<?xml version="1.0" encoding="UTF-8" standalone="no"?>
<!DOCTYPE svg PUBLIC "-//W3C//DTD SVG 1.1//EN"
 "http://www.w3.org/Graphics/SVG/1.1/DTD/svg11.dtd">
<!-- Generated by graphviz version 2.36.0 (20140111.2315)
 -->
<!-- Title: external/SiftGPU/src/SiftGPU/ProgramGPU.cpp Pages: 1 -->
<svg width="768pt" height="208pt"
 viewBox="0.00 0.00 768.00 208.00" xmlns="http://www.w3.org/2000/svg" xmlns:xlink="http://www.w3.org/1999/xlink">
<g id="graph0" class="graph" transform="scale(1 1) rotate(0) translate(4 204)">
<title>external/SiftGPU/src/SiftGPU/ProgramGPU.cpp</title>
<polygon fill="white" stroke="none" points="-4,4 -4,-204 764,-204 764,4 -4,4"/>
<!-- Node1 -->
<g id="node1" class="node"><title>Node1</title>
<polygon fill="#bfbfbf" stroke="black" points="355.5,-169 355.5,-199 492.5,-199 492.5,-169 355.5,-169"/>
<text text-anchor="start" x="363.5" y="-187" font-family="Helvetica,sans-Serif" font-size="10.00">external/SiftGPU/src</text>
<text text-anchor="middle" x="424" y="-176" font-family="Helvetica,sans-Serif" font-size="10.00">/SiftGPU/ProgramGPU.cpp</text>
</g>
<!-- Node2 -->
<g id="node2" class="node"><title>Node2</title>
<g id="a_node2"><a xlink:href="../../da/d33/glew_8h.html" target="_top" xlink:title="GL/glew.h">
<polygon fill="white" stroke="black" points="64.5,-112.5 64.5,-131.5 125.5,-131.5 125.5,-112.5 64.5,-112.5"/>
<text text-anchor="middle" x="95" y="-119.5" font-family="Helvetica,sans-Serif" font-size="10.00">GL/glew.h</text>
</a>
</g>
</g>
<!-- Node1&#45;&gt;Node2 -->
<g id="edge1" class="edge"><title>Node1&#45;&gt;Node2</title>
<path fill="none" stroke="midnightblue" d="M355.22,-171.79C298.851,-162.39 216.771,-148.218 135.455,-132.012"/>
<polygon fill="midnightblue" stroke="midnightblue" points="136.036,-128.56 125.544,-130.026 134.661,-135.423 136.036,-128.56"/>
</g>
<!-- Node6 -->
<g id="node6" class="node"><title>Node6</title>
<polygon fill="white" stroke="#bfbfbf" points="144,-112.5 144,-131.5 198,-131.5 198,-112.5 144,-112.5"/>
<text text-anchor="middle" x="171" y="-119.5" font-family="Helvetica,sans-Serif" font-size="10.00">iostream</text>
</g>
<!-- Node1&#45;&gt;Node6 -->
<g id="edge5" class="edge"><title>Node1&#45;&gt;Node6</title>
<path fill="none" stroke="midnightblue" d="M363.146,-168.94C321.912,-159.358 265.933,-146.24 207.837,-132.179"/>
<polygon fill="midnightblue" stroke="midnightblue" points="208.66,-128.778 198.117,-129.823 207.01,-135.581 208.66,-128.778"/>
</g>
<!-- Node7 -->
<g id="node7" class="node"><title>Node7</title>
<polygon fill="white" stroke="#bfbfbf" points="216,-112.5 216,-131.5 260,-131.5 260,-112.5 216,-112.5"/>
<text text-anchor="middle" x="238" y="-119.5" font-family="Helvetica,sans-Serif" font-size="10.00">vector</text>
</g>
<!-- Node1&#45;&gt;Node7 -->
<g id="edge6" class="edge"><title>Node1&#45;&gt;Node7</title>
<path fill="none" stroke="midnightblue" d="M380.391,-168.933C346.53,-158.01 300.363,-143.117 269.895,-133.289"/>
<polygon fill="midnightblue" stroke="midnightblue" points="270.796,-129.902 260.204,-130.163 268.647,-136.564 270.796,-129.902"/>
</g>
<!-- Node8 -->
<g id="node8" class="node"><title>Node8</title>
<polygon fill="white" stroke="#bfbfbf" points="278.5,-112.5 278.5,-131.5 325.5,-131.5 325.5,-112.5 278.5,-112.5"/>
<text text-anchor="middle" x="302" y="-119.5" font-family="Helvetica,sans-Serif" font-size="10.00">math.h</text>
</g>
<!-- Node1&#45;&gt;Node8 -->
<g id="edge7" class="edge"><title>Node1&#45;&gt;Node8</title>
<path fill="none" stroke="midnightblue" d="M395.396,-168.933C375.181,-158.991 348.279,-145.76 328.54,-136.053"/>
<polygon fill="midnightblue" stroke="midnightblue" points="330.005,-132.873 319.487,-131.6 326.916,-139.154 330.005,-132.873"/>
</g>
<!-- Node9 -->
<g id="node9" class="node"><title>Node9</title>
<g id="a_node9"><a xlink:href="../../d4/da1/GlobalUtil_8h.html" target="_top" xlink:title="GlobalUtil.h">
<polygon fill="white" stroke="black" points="344,-112.5 344,-131.5 412,-131.5 412,-112.5 344,-112.5"/>
<text text-anchor="middle" x="378" y="-119.5" font-family="Helvetica,sans-Serif" font-size="10.00">GlobalUtil.h</text>
</a>
</g>
</g>
<!-- Node1&#45;&gt;Node9 -->
<g id="edge8" class="edge"><title>Node1&#45;&gt;Node9</title>
<path fill="none" stroke="midnightblue" d="M413.099,-168.781C406.414,-160.062 397.824,-148.857 390.815,-139.715"/>
<polygon fill="midnightblue" stroke="midnightblue" points="393.555,-137.537 384.693,-131.731 388,-141.796 393.555,-137.537"/>
</g>
<!-- Node10 -->
<g id="node10" class="node"><title>Node10</title>
<g id="a_node10"><a xlink:href="../../d5/d29/GLTexImage_8h.html" target="_top" xlink:title="GLTexImage.h">
<polygon fill="white" stroke="black" points="430.5,-112.5 430.5,-131.5 511.5,-131.5 511.5,-112.5 430.5,-112.5"/>
<text text-anchor="middle" x="471" y="-119.5" font-family="Helvetica,sans-Serif" font-size="10.00">GLTexImage.h</text>
</a>
</g>
</g>
<!-- Node1&#45;&gt;Node10 -->
<g id="edge9" class="edge"><title>Node1&#45;&gt;Node10</title>
<path fill="none" stroke="midnightblue" d="M435.138,-168.781C441.968,-160.062 450.745,-148.857 457.906,-139.715"/>
<polygon fill="midnightblue" stroke="midnightblue" points="460.75,-141.761 464.161,-131.731 455.239,-137.445 460.75,-141.761"/>
</g>
<!-- Node11 -->
<g id="node11" class="node"><title>Node11</title>
<g id="a_node11"><a xlink:href="../../da/d8e/ShaderMan_8h.html" target="_top" xlink:title="ShaderMan.h">
<polygon fill="white" stroke="black" points="530,-112.5 530,-131.5 604,-131.5 604,-112.5 530,-112.5"/>
<text text-anchor="middle" x="567" y="-119.5" font-family="Helvetica,sans-Serif" font-size="10.00">ShaderMan.h</text>
</a>
</g>
</g>
<!-- Node1&#45;&gt;Node11 -->
<g id="edge10" class="edge"><title>Node1&#45;&gt;Node11</title>
<path fill="none" stroke="midnightblue" d="M457.527,-168.933C481.653,-158.81 513.904,-145.278 537.145,-135.527"/>
<polygon fill="midnightblue" stroke="midnightblue" points="538.636,-138.697 546.503,-131.6 535.928,-132.242 538.636,-138.697"/>
</g>
<!-- Node12 -->
<g id="node12" class="node"><title>Node12</title>
<g id="a_node12"><a xlink:href="../../d8/d9b/ProgramGPU_8h.html" target="_top" xlink:title="ProgramGPU.h">
<polygon fill="white" stroke="black" points="557.5,-0.5 557.5,-19.5 640.5,-19.5 640.5,-0.5 557.5,-0.5"/>
<text text-anchor="middle" x="599" y="-7.5" font-family="Helvetica,sans-Serif" font-size="10.00">ProgramGPU.h</text>
</a>
</g>
</g>
<!-- Node1&#45;&gt;Node12 -->
<g id="edge14" class="edge"><title>Node1&#45;&gt;Node12</title>
<path fill="none" stroke="midnightblue" d="M492.685,-181.849C536.774,-177.628 592.573,-165.316 630,-132 656.175,-108.7 665.568,-87.8721 651,-56 645.223,-43.3602 633.948,-32.911 623.369,-25.2737"/>
<polygon fill="midnightblue" stroke="midnightblue" points="625.042,-22.1817 614.783,-19.5333 621.151,-28.0009 625.042,-22.1817"/>
</g>
<!-- Node13 -->
<g id="node13" class="node"><title>Node13</title>
<g id="a_node13"><a xlink:href="../../d9/db5/ProgramGLSL_8h.html" target="_top" xlink:title="ProgramGLSL.h">
<polygon fill="white" stroke="black" points="556,-56.5 556,-75.5 642,-75.5 642,-56.5 556,-56.5"/>
<text text-anchor="middle" x="599" y="-63.5" font-family="Helvetica,sans-Serif" font-size="10.00">ProgramGLSL.h</text>
</a>
</g>
</g>
<!-- Node1&#45;&gt;Node13 -->
<g id="edge15" class="edge"><title>Node1&#45;&gt;Node13</title>
<path fill="none" stroke="midnightblue" d="M492.828,-173.325C540.582,-165.04 598.172,-151.359 613,-132 623.494,-118.299 616.957,-98.4332 609.701,-84.2751"/>
<polygon fill="midnightblue" stroke="midnightblue" points="612.729,-82.5181 604.764,-75.5312 606.633,-85.9598 612.729,-82.5181"/>
</g>
<!-- Node14 -->
<g id="node14" class="node"><title>Node14</title>
<g id="a_node14"><a xlink:href="../../d2/d17/SiftGPU_8h.html" target="_top" xlink:title="SiftGPU.h">
<polygon fill="white" stroke="black" points="698,-112.5 698,-131.5 760,-131.5 760,-112.5 698,-112.5"/>
<text text-anchor="middle" x="729" y="-119.5" font-family="Helvetica,sans-Serif" font-size="10.00">SiftGPU.h</text>
</a>
</g>
</g>
<!-- Node1&#45;&gt;Node14 -->
<g id="edge16" class="edge"><title>Node1&#45;&gt;Node14</title>
<path fill="none" stroke="midnightblue" d="M492.715,-169.593C545.138,-159.348 619.137,-144.848 684,-132 685.094,-131.783 686.203,-131.563 687.322,-131.341"/>
<polygon fill="midnightblue" stroke="midnightblue" points="688.407,-134.694 697.532,-129.309 687.041,-127.829 688.407,-134.694"/>
</g>
<!-- Node3 -->
<g id="node3" class="node"><title>Node3</title>
<polygon fill="white" stroke="#bfbfbf" points="0,-56.5 0,-75.5 52,-75.5 52,-56.5 0,-56.5"/>
<text text-anchor="middle" x="26" y="-63.5" font-family="Helvetica,sans-Serif" font-size="10.00">stddef.h</text>
</g>
<!-- Node2&#45;&gt;Node3 -->
<g id="edge2" class="edge"><title>Node2&#45;&gt;Node3</title>
<path fill="none" stroke="midnightblue" d="M83.914,-112.324C73.514,-104.185 57.7394,-91.8395 45.2784,-82.0874"/>
<polygon fill="midnightblue" stroke="midnightblue" points="47.3199,-79.2407 37.2878,-75.8339 43.0057,-84.7533 47.3199,-79.2407"/>
</g>
<!-- Node4 -->
<g id="node4" class="node"><title>Node4</title>
<polygon fill="white" stroke="#bfbfbf" points="70.5,-56.5 70.5,-75.5 119.5,-75.5 119.5,-56.5 70.5,-56.5"/>
<text text-anchor="middle" x="95" y="-63.5" font-family="Helvetica,sans-Serif" font-size="10.00">stdint.h</text>
</g>
<!-- Node2&#45;&gt;Node4 -->
<g id="edge3" class="edge"><title>Node2&#45;&gt;Node4</title>
<path fill="none" stroke="midnightblue" d="M95,-112.083C95,-105.006 95,-94.8611 95,-85.9865"/>
<polygon fill="midnightblue" stroke="midnightblue" points="98.5001,-85.751 95,-75.7511 91.5001,-85.7511 98.5001,-85.751"/>
</g>
<!-- Node5 -->
<g id="node5" class="node"><title>Node5</title>
<polygon fill="white" stroke="#bfbfbf" points="137.5,-56.5 137.5,-75.5 190.5,-75.5 190.5,-56.5 137.5,-56.5"/>
<text text-anchor="middle" x="164" y="-63.5" font-family="Helvetica,sans-Serif" font-size="10.00">GL/glu.h</text>
</g>
<!-- Node2&#45;&gt;Node5 -->
<g id="edge4" class="edge"><title>Node2&#45;&gt;Node5</title>
<path fill="none" stroke="midnightblue" d="M106.086,-112.324C116.486,-104.185 132.261,-91.8395 144.722,-82.0874"/>
<polygon fill="midnightblue" stroke="midnightblue" points="146.994,-84.7533 152.712,-75.8339 142.68,-79.2407 146.994,-84.7533"/>
</g>
<!-- Node11&#45;&gt;Node12 -->
<g id="edge11" class="edge"><title>Node11&#45;&gt;Node12</title>
<path fill="none" stroke="midnightblue" d="M560.423,-112.326C551.642,-99.6116 538.165,-75.3289 547,-56 552.777,-43.3602 564.052,-32.911 574.631,-25.2737"/>
<polygon fill="midnightblue" stroke="midnightblue" points="576.849,-28.0009 583.217,-19.5333 572.958,-22.1817 576.849,-28.0009"/>
</g>
<!-- Node11&#45;&gt;Node13 -->
<g id="edge12" class="edge"><title>Node11&#45;&gt;Node13</title>
<path fill="none" stroke="midnightblue" d="M572.284,-112.083C576.711,-104.613 583.163,-93.7244 588.618,-84.5199"/>
<polygon fill="midnightblue" stroke="midnightblue" points="591.727,-86.1383 593.814,-75.7511 585.705,-82.5697 591.727,-86.1383"/>
</g>
<!-- Node13&#45;&gt;Node12 -->
<g id="edge13" class="edge"><title>Node13&#45;&gt;Node12</title>
<path fill="none" stroke="midnightblue" d="M599,-56.083C599,-49.0059 599,-38.8611 599,-29.9865"/>
<polygon fill="midnightblue" stroke="midnightblue" points="602.5,-29.751 599,-19.7511 595.5,-29.7511 602.5,-29.751"/>
</g>
</g>
</svg>
