<?xml version="1.0" encoding="UTF-8" standalone="no"?>
<!DOCTYPE svg PUBLIC "-//W3C//DTD SVG 1.1//EN"
 "http://www.w3.org/Graphics/SVG/1.1/DTD/svg11.dtd">
<!-- Generated by graphviz version 2.36.0 (20140111.2315)
 -->
<!-- Title: lsd_slam::TrackingReference::makePointCloud Pages: 1 -->
<svg width="326pt" height="370pt"
 viewBox="0.00 0.00 326.00 370.00" xmlns="http://www.w3.org/2000/svg" xmlns:xlink="http://www.w3.org/1999/xlink">
<g id="graph0" class="graph" transform="scale(1 1) rotate(0) translate(4 366)">
<title>lsd_slam::TrackingReference::makePointCloud</title>
<polygon fill="white" stroke="none" points="-4,4 -4,-366 322,-366 322,4 -4,4"/>
<!-- Node1 -->
<g id="node1" class="node"><title>Node1</title>
<polygon fill="#bfbfbf" stroke="black" points="0,-166 0,-196 144,-196 144,-166 0,-166"/>
<text text-anchor="start" x="8" y="-184" font-family="Helvetica,sans-Serif" font-size="10.00">lsd_slam::TrackingReference</text>
<text text-anchor="middle" x="72" y="-173" font-family="Helvetica,sans-Serif" font-size="10.00">::makePointCloud</text>
</g>
<!-- Node2 -->
<g id="node2" class="node"><title>Node2</title>
<g id="a_node2"><a xlink:href="../../dd/d08/classlsd__slam_1_1Frame.html#a3f14a1c43b6cb21d31274f880b0bf36b" target="_top" xlink:title="lsd_slam::Frame::width">
<polygon fill="white" stroke="black" points="189.5,-342.5 189.5,-361.5 308.5,-361.5 308.5,-342.5 189.5,-342.5"/>
<text text-anchor="middle" x="249" y="-349.5" font-family="Helvetica,sans-Serif" font-size="10.00">lsd_slam::Frame::width</text>
</a>
</g>
</g>
<!-- Node1&#45;&gt;Node2 -->
<g id="edge1" class="edge"><title>Node1&#45;&gt;Node2</title>
<path fill="none" stroke="midnightblue" d="M79.3638,-196.121C93.0607,-226.795 128.335,-296.509 180,-333 182.839,-335.005 185.884,-336.8 189.054,-338.405"/>
<polygon fill="midnightblue" stroke="midnightblue" points="187.689,-341.628 198.252,-342.447 190.505,-335.22 187.689,-341.628"/>
</g>
<!-- Node3 -->
<g id="node3" class="node"><title>Node3</title>
<g id="a_node3"><a xlink:href="../../dd/d08/classlsd__slam_1_1Frame.html#a014d19bf6ffba0f0c0b8b684f9afb0b0" target="_top" xlink:title="lsd_slam::Frame::height">
<polygon fill="white" stroke="black" points="188,-304.5 188,-323.5 310,-323.5 310,-304.5 188,-304.5"/>
<text text-anchor="middle" x="249" y="-311.5" font-family="Helvetica,sans-Serif" font-size="10.00">lsd_slam::Frame::height</text>
</a>
</g>
</g>
<!-- Node1&#45;&gt;Node3 -->
<g id="edge2" class="edge"><title>Node1&#45;&gt;Node3</title>
<path fill="none" stroke="midnightblue" d="M82.9401,-196.041C99.9016,-220.512 136.82,-268.837 180,-295 183.597,-297.18 187.452,-299.116 191.43,-300.836"/>
<polygon fill="midnightblue" stroke="midnightblue" points="190.284,-304.145 200.874,-304.467 192.796,-297.611 190.284,-304.145"/>
</g>
<!-- Node4 -->
<g id="node4" class="node"><title>Node4</title>
<g id="a_node4"><a xlink:href="../../dd/d08/classlsd__slam_1_1Frame.html#a9d98889a6a367e862f28b4a035604f46" target="_top" xlink:title="lsd_slam::Frame::fxInv">
<polygon fill="white" stroke="black" points="190.5,-266.5 190.5,-285.5 307.5,-285.5 307.5,-266.5 190.5,-266.5"/>
<text text-anchor="middle" x="249" y="-273.5" font-family="Helvetica,sans-Serif" font-size="10.00">lsd_slam::Frame::fxInv</text>
</a>
</g>
</g>
<!-- Node1&#45;&gt;Node4 -->
<g id="edge3" class="edge"><title>Node1&#45;&gt;Node4</title>
<path fill="none" stroke="midnightblue" d="M90.352,-196.231C110.585,-213.268 145.655,-240.619 180,-257 184.91,-259.342 190.16,-261.442 195.486,-263.315"/>
<polygon fill="midnightblue" stroke="midnightblue" points="194.505,-266.676 205.097,-266.443 196.671,-260.02 194.505,-266.676"/>
</g>
<!-- Node5 -->
<g id="node5" class="node"><title>Node5</title>
<g id="a_node5"><a xlink:href="../../dd/d08/classlsd__slam_1_1Frame.html#ab5c98941622d0f0470381a8ed2f833c1" target="_top" xlink:title="lsd_slam::Frame::fyInv">
<polygon fill="white" stroke="black" points="190.5,-228.5 190.5,-247.5 307.5,-247.5 307.5,-228.5 190.5,-228.5"/>
<text text-anchor="middle" x="249" y="-235.5" font-family="Helvetica,sans-Serif" font-size="10.00">lsd_slam::Frame::fyInv</text>
</a>
</g>
</g>
<!-- Node1&#45;&gt;Node5 -->
<g id="edge4" class="edge"><title>Node1&#45;&gt;Node5</title>
<path fill="none" stroke="midnightblue" d="M113.172,-196.005C133.152,-203.278 157.731,-211.944 180,-219 187.231,-221.291 194.94,-223.585 202.472,-225.746"/>
<polygon fill="midnightblue" stroke="midnightblue" points="201.644,-229.149 212.219,-228.5 203.547,-222.413 201.644,-229.149"/>
</g>
<!-- Node6 -->
<g id="node6" class="node"><title>Node6</title>
<g id="a_node6"><a xlink:href="../../dd/d08/classlsd__slam_1_1Frame.html#a4690556800b10f98c18a2fada62ae62b" target="_top" xlink:title="lsd_slam::Frame::cxInv">
<polygon fill="white" stroke="black" points="189.5,-190.5 189.5,-209.5 308.5,-209.5 308.5,-190.5 189.5,-190.5"/>
<text text-anchor="middle" x="249" y="-197.5" font-family="Helvetica,sans-Serif" font-size="10.00">lsd_slam::Frame::cxInv</text>
</a>
</g>
</g>
<!-- Node1&#45;&gt;Node6 -->
<g id="edge5" class="edge"><title>Node1&#45;&gt;Node6</title>
<path fill="none" stroke="midnightblue" d="M144.179,-188.728C155.816,-189.991 167.853,-191.298 179.425,-192.555"/>
<polygon fill="midnightblue" stroke="midnightblue" points="179.134,-196.044 189.454,-193.644 179.89,-189.085 179.134,-196.044"/>
</g>
<!-- Node7 -->
<g id="node7" class="node"><title>Node7</title>
<g id="a_node7"><a xlink:href="../../dd/d08/classlsd__slam_1_1Frame.html#aae9fa687e7e515ba009a5fe5a617bf75" target="_top" xlink:title="lsd_slam::Frame::cyInv">
<polygon fill="white" stroke="black" points="189.5,-152.5 189.5,-171.5 308.5,-171.5 308.5,-152.5 189.5,-152.5"/>
<text text-anchor="middle" x="249" y="-159.5" font-family="Helvetica,sans-Serif" font-size="10.00">lsd_slam::Frame::cyInv</text>
</a>
</g>
</g>
<!-- Node1&#45;&gt;Node7 -->
<g id="edge6" class="edge"><title>Node1&#45;&gt;Node7</title>
<path fill="none" stroke="midnightblue" d="M144.179,-173.272C155.816,-172.009 167.853,-170.702 179.425,-169.445"/>
<polygon fill="midnightblue" stroke="midnightblue" points="179.89,-172.915 189.454,-168.356 179.134,-165.956 179.89,-172.915"/>
</g>
<!-- Node8 -->
<g id="node8" class="node"><title>Node8</title>
<g id="a_node8"><a xlink:href="../../dd/d08/classlsd__slam_1_1Frame.html#ad78d873de1adfd4ab3268c50b1d462c7" target="_top" xlink:title="lsd_slam::Frame::idepth">
<polygon fill="white" stroke="black" points="188,-114.5 188,-133.5 310,-133.5 310,-114.5 188,-114.5"/>
<text text-anchor="middle" x="249" y="-121.5" font-family="Helvetica,sans-Serif" font-size="10.00">lsd_slam::Frame::idepth</text>
</a>
</g>
</g>
<!-- Node1&#45;&gt;Node8 -->
<g id="edge7" class="edge"><title>Node1&#45;&gt;Node8</title>
<path fill="none" stroke="midnightblue" d="M113.172,-165.995C133.152,-158.722 157.731,-150.056 180,-143 187.231,-140.709 194.94,-138.415 202.472,-136.254"/>
<polygon fill="midnightblue" stroke="midnightblue" points="203.547,-139.587 212.219,-133.5 201.644,-132.851 203.547,-139.587"/>
</g>
<!-- Node9 -->
<g id="node9" class="node"><title>Node9</title>
<g id="a_node9"><a xlink:href="../../dd/d08/classlsd__slam_1_1Frame.html#aa3fb7f275b5da621c039a6746b905770" target="_top" xlink:title="lsd_slam::Frame::idepthVar">
<polygon fill="white" stroke="black" points="180.5,-76.5 180.5,-95.5 317.5,-95.5 317.5,-76.5 180.5,-76.5"/>
<text text-anchor="middle" x="249" y="-83.5" font-family="Helvetica,sans-Serif" font-size="10.00">lsd_slam::Frame::idepthVar</text>
</a>
</g>
</g>
<!-- Node1&#45;&gt;Node9 -->
<g id="edge8" class="edge"><title>Node1&#45;&gt;Node9</title>
<path fill="none" stroke="midnightblue" d="M90.352,-165.769C110.585,-148.732 145.655,-121.381 180,-105 184.91,-102.658 190.16,-100.558 195.486,-98.6848"/>
<polygon fill="midnightblue" stroke="midnightblue" points="196.671,-101.98 205.097,-95.5566 194.505,-95.3236 196.671,-101.98"/>
</g>
<!-- Node10 -->
<g id="node10" class="node"><title>Node10</title>
<g id="a_node10"><a xlink:href="../../dd/d08/classlsd__slam_1_1Frame.html#a9306307027bbe62b973c0b138216b456" target="_top" xlink:title="lsd_slam::Frame::image">
<polygon fill="white" stroke="black" points="188,-38.5 188,-57.5 310,-57.5 310,-38.5 188,-38.5"/>
<text text-anchor="middle" x="249" y="-45.5" font-family="Helvetica,sans-Serif" font-size="10.00">lsd_slam::Frame::image</text>
</a>
</g>
</g>
<!-- Node1&#45;&gt;Node10 -->
<g id="edge9" class="edge"><title>Node1&#45;&gt;Node10</title>
<path fill="none" stroke="midnightblue" d="M82.9401,-165.959C99.9016,-141.488 136.82,-93.1635 180,-67 183.597,-64.8204 187.452,-62.8838 191.43,-61.1641"/>
<polygon fill="midnightblue" stroke="midnightblue" points="192.796,-64.3886 200.874,-57.5331 190.284,-57.8549 192.796,-64.3886"/>
</g>
<!-- Node11 -->
<g id="node11" class="node"><title>Node11</title>
<g id="a_node11"><a xlink:href="../../dd/d08/classlsd__slam_1_1Frame.html#a2c31baa0cea975fb73ccf80d92f7a5de" target="_top" xlink:title="lsd_slam::Frame::gradients">
<polygon fill="white" stroke="black" points="181.5,-0.5 181.5,-19.5 316.5,-19.5 316.5,-0.5 181.5,-0.5"/>
<text text-anchor="middle" x="249" y="-7.5" font-family="Helvetica,sans-Serif" font-size="10.00">lsd_slam::Frame::gradients</text>
</a>
</g>
</g>
<!-- Node1&#45;&gt;Node11 -->
<g id="edge10" class="edge"><title>Node1&#45;&gt;Node11</title>
<path fill="none" stroke="midnightblue" d="M79.3638,-165.879C93.0607,-135.205 128.335,-65.4911 180,-29 182.839,-26.9945 185.884,-25.2002 189.054,-23.5949"/>
<polygon fill="midnightblue" stroke="midnightblue" points="190.505,-26.7804 198.252,-19.5527 187.689,-20.3719 190.505,-26.7804"/>
</g>
</g>
</svg>
