<?xml version="1.0" encoding="UTF-8" standalone="no"?>
<!DOCTYPE svg PUBLIC "-//W3C//DTD SVG 1.1//EN"
 "http://www.w3.org/Graphics/SVG/1.1/DTD/svg11.dtd">
<!-- Generated by graphviz version 2.36.0 (20140111.2315)
 -->
<!-- Title: src/IOWrapper/ROS/ROSOutput3DWrapper.h Pages: 1 -->
<svg width="472pt" height="108pt"
 viewBox="0.00 0.00 472.00 108.00" xmlns="http://www.w3.org/2000/svg" xmlns:xlink="http://www.w3.org/1999/xlink">
<g id="graph0" class="graph" transform="scale(1 1) rotate(0) translate(4 104)">
<title>src/IOWrapper/ROS/ROSOutput3DWrapper.h</title>
<polygon fill="white" stroke="none" points="-4,4 -4,-104 468,-104 468,4 -4,4"/>
<!-- Node1 -->
<g id="node1" class="node"><title>Node1</title>
<polygon fill="#bfbfbf" stroke="black" points="170,-69 170,-99 334,-99 334,-69 170,-69"/>
<text text-anchor="start" x="178" y="-87" font-family="Helvetica,sans-Serif" font-size="10.00">src/IOWrapper/ROS/ROSOutput3</text>
<text text-anchor="middle" x="252" y="-76" font-family="Helvetica,sans-Serif" font-size="10.00">DWrapper.h</text>
</g>
<!-- Node2 -->
<g id="node2" class="node"><title>Node2</title>
<g id="a_node2"><a xlink:href="../../d5/d46/ROSOutput3DWrapper_8cpp.html" target="_top" xlink:title="src/IOWrapper/ROS/ROSOutput3\lDWrapper.cpp">
<polygon fill="white" stroke="black" points="0,-1 0,-31 164,-31 164,-1 0,-1"/>
<text text-anchor="start" x="8" y="-19" font-family="Helvetica,sans-Serif" font-size="10.00">src/IOWrapper/ROS/ROSOutput3</text>
<text text-anchor="middle" x="82" y="-8" font-family="Helvetica,sans-Serif" font-size="10.00">DWrapper.cpp</text>
</a>
</g>
</g>
<!-- Node1&#45;&gt;Node2 -->
<g id="edge1" class="edge"><title>Node1&#45;&gt;Node2</title>
<path fill="none" stroke="midnightblue" d="M206.078,-65.1715C178.45,-54.4451 143.78,-40.9852 118.117,-31.0218"/>
<polygon fill="midnightblue" stroke="midnightblue" points="204.942,-68.4849 215.531,-68.8413 207.475,-61.9594 204.942,-68.4849"/>
</g>
<!-- Node3 -->
<g id="node3" class="node"><title>Node3</title>
<g id="a_node3"><a xlink:href="../../d8/d85/main__live__odometry_8cpp.html" target="_top" xlink:title="src/main_live_odometry.cpp">
<polygon fill="white" stroke="black" points="182.5,-6.5 182.5,-25.5 321.5,-25.5 321.5,-6.5 182.5,-6.5"/>
<text text-anchor="middle" x="252" y="-13.5" font-family="Helvetica,sans-Serif" font-size="10.00">src/main_live_odometry.cpp</text>
</a>
</g>
</g>
<!-- Node1&#45;&gt;Node3 -->
<g id="edge2" class="edge"><title>Node1&#45;&gt;Node3</title>
<path fill="none" stroke="midnightblue" d="M252,-58.3764C252,-46.9711 252,-34.1364 252,-25.8283"/>
<polygon fill="midnightblue" stroke="midnightblue" points="248.5,-58.6789 252,-68.679 255.5,-58.679 248.5,-58.6789"/>
</g>
<!-- Node4 -->
<g id="node4" class="node"><title>Node4</title>
<g id="a_node4"><a xlink:href="../../d7/dc1/main__on__images_8cpp.html" target="_top" xlink:title="src/main_on_images.cpp">
<polygon fill="white" stroke="black" points="339.5,-6.5 339.5,-25.5 464.5,-25.5 464.5,-6.5 339.5,-6.5"/>
<text text-anchor="middle" x="402" y="-13.5" font-family="Helvetica,sans-Serif" font-size="10.00">src/main_on_images.cpp</text>
</a>
</g>
</g>
<!-- Node1&#45;&gt;Node4 -->
<g id="edge3" class="edge"><title>Node1&#45;&gt;Node4</title>
<path fill="none" stroke="midnightblue" d="M293.64,-64.6785C322.577,-51.9462 359.835,-35.5526 382.268,-25.6819"/>
<polygon fill="midnightblue" stroke="midnightblue" points="291.922,-61.6103 284.179,-68.8413 294.742,-68.0175 291.922,-61.6103"/>
</g>
</g>
</svg>
