<?xml version="1.0" encoding="UTF-8" standalone="no"?>
<!DOCTYPE svg PUBLIC "-//W3C//DTD SVG 1.1//EN"
 "http://www.w3.org/Graphics/SVG/1.1/DTD/svg11.dtd">
<!-- Generated by graphviz version 2.36.0 (20140111.2315)
 -->
<!-- Title: src/IOWrapper/NotifyBuffer.h Pages: 1 -->
<svg width="625pt" height="232pt"
 viewBox="0.00 0.00 625.00 232.00" xmlns="http://www.w3.org/2000/svg" xmlns:xlink="http://www.w3.org/1999/xlink">
<g id="graph0" class="graph" transform="scale(1 1) rotate(0) translate(4 228)">
<title>src/IOWrapper/NotifyBuffer.h</title>
<polygon fill="white" stroke="none" points="-4,4 -4,-228 621,-228 621,4 -4,4"/>
<!-- Node1 -->
<g id="node1" class="node"><title>Node1</title>
<polygon fill="#bfbfbf" stroke="black" points="114,-204.5 114,-223.5 258,-223.5 258,-204.5 114,-204.5"/>
<text text-anchor="middle" x="186" y="-211.5" font-family="Helvetica,sans-Serif" font-size="10.00">src/IOWrapper/NotifyBuffer.h</text>
</g>
<!-- Node2 -->
<g id="node2" class="node"><title>Node2</title>
<g id="a_node2"><a xlink:href="../../d6/d4e/InputImageStream_8h.html" target="_top" xlink:title="src/IOWrapper/InputImage\lStream.h">
<polygon fill="white" stroke="black" points="120,-137 120,-167 252,-167 252,-137 120,-137"/>
<text text-anchor="start" x="128" y="-155" font-family="Helvetica,sans-Serif" font-size="10.00">src/IOWrapper/InputImage</text>
<text text-anchor="middle" x="186" y="-144" font-family="Helvetica,sans-Serif" font-size="10.00">Stream.h</text>
</a>
</g>
</g>
<!-- Node1&#45;&gt;Node2 -->
<g id="edge1" class="edge"><title>Node1&#45;&gt;Node2</title>
<path fill="none" stroke="midnightblue" d="M186,-194.371C186,-185.585 186,-175.272 186,-167.141"/>
<polygon fill="midnightblue" stroke="midnightblue" points="182.5,-194.403 186,-204.403 189.5,-194.403 182.5,-194.403"/>
</g>
<!-- Node3 -->
<g id="node3" class="node"><title>Node3</title>
<g id="a_node3"><a xlink:href="../../d7/dd3/ROSImageStreamThread_8h.html" target="_top" xlink:title="src/IOWrapper/ROS/ROSImage\lStreamThread.h">
<polygon fill="white" stroke="black" points="-0.5,-69 -0.5,-99 156.5,-99 156.5,-69 -0.5,-69"/>
<text text-anchor="start" x="7.5" y="-87" font-family="Helvetica,sans-Serif" font-size="10.00">src/IOWrapper/ROS/ROSImage</text>
<text text-anchor="middle" x="78" y="-76" font-family="Helvetica,sans-Serif" font-size="10.00">StreamThread.h</text>
</a>
</g>
</g>
<!-- Node1&#45;&gt;Node3 -->
<g id="edge6" class="edge"><title>Node1&#45;&gt;Node3</title>
<path fill="none" stroke="midnightblue" d="M154.585,-199.951C139.715,-192.451 122.696,-181.763 111,-168 93.6275,-147.558 84.6646,-116.84 80.6788,-99.0704"/>
<polygon fill="midnightblue" stroke="midnightblue" points="153.435,-203.28 163.969,-204.419 156.445,-196.96 153.435,-203.28"/>
</g>
<!-- Node7 -->
<g id="node7" class="node"><title>Node7</title>
<g id="a_node7"><a xlink:href="../../d8/d7d/LiveSLAMWrapper_8h.html" target="_top" xlink:title="src/LiveSLAMWrapper.h">
<polygon fill="white" stroke="black" points="275.5,-142.5 275.5,-161.5 398.5,-161.5 398.5,-142.5 275.5,-142.5"/>
<text text-anchor="middle" x="337" y="-149.5" font-family="Helvetica,sans-Serif" font-size="10.00">src/LiveSLAMWrapper.h</text>
</a>
</g>
</g>
<!-- Node1&#45;&gt;Node7 -->
<g id="edge7" class="edge"><title>Node1&#45;&gt;Node7</title>
<path fill="none" stroke="midnightblue" d="M217.006,-200.68C246.35,-189.02 289.634,-171.821 315.406,-161.581"/>
<polygon fill="midnightblue" stroke="midnightblue" points="215.635,-197.458 207.635,-204.403 218.22,-203.963 215.635,-197.458"/>
</g>
<!-- Node2&#45;&gt;Node3 -->
<g id="edge2" class="edge"><title>Node2&#45;&gt;Node3</title>
<path fill="none" stroke="midnightblue" d="M154.297,-131.626C137.264,-121.217 116.639,-108.613 101.13,-99.1352"/>
<polygon fill="midnightblue" stroke="midnightblue" points="152.473,-134.613 162.831,-136.841 156.124,-128.64 152.473,-134.613"/>
</g>
<!-- Node6 -->
<g id="node6" class="node"><title>Node6</title>
<g id="a_node6"><a xlink:href="../../df/d7b/LiveSLAMWrapper_8cpp.html" target="_top" xlink:title="src/LiveSLAMWrapper.cpp">
<polygon fill="white" stroke="black" points="175,-74.5 175,-93.5 309,-93.5 309,-74.5 175,-74.5"/>
<text text-anchor="middle" x="242" y="-81.5" font-family="Helvetica,sans-Serif" font-size="10.00">src/LiveSLAMWrapper.cpp</text>
</a>
</g>
</g>
<!-- Node2&#45;&gt;Node6 -->
<g id="edge5" class="edge"><title>Node2&#45;&gt;Node6</title>
<path fill="none" stroke="midnightblue" d="M204.819,-128.821C214.978,-116.847 226.951,-102.736 234.509,-93.8283"/>
<polygon fill="midnightblue" stroke="midnightblue" points="201.952,-126.789 198.151,-136.679 207.29,-131.318 201.952,-126.789"/>
</g>
<!-- Node4 -->
<g id="node4" class="node"><title>Node4</title>
<g id="a_node4"><a xlink:href="../../d1/d45/ROSImageStreamThread_8cpp.html" target="_top" xlink:title="src/IOWrapper/ROS/ROSImage\lStreamThread.cpp">
<polygon fill="white" stroke="black" points="-0.5,-1 -0.5,-31 156.5,-31 156.5,-1 -0.5,-1"/>
<text text-anchor="start" x="7.5" y="-19" font-family="Helvetica,sans-Serif" font-size="10.00">src/IOWrapper/ROS/ROSImage</text>
<text text-anchor="middle" x="78" y="-8" font-family="Helvetica,sans-Serif" font-size="10.00">StreamThread.cpp</text>
</a>
</g>
</g>
<!-- Node3&#45;&gt;Node4 -->
<g id="edge3" class="edge"><title>Node3&#45;&gt;Node4</title>
<path fill="none" stroke="midnightblue" d="M78,-58.5322C78,-49.3606 78,-39.2449 78,-31.2931"/>
<polygon fill="midnightblue" stroke="midnightblue" points="74.5001,-58.6789 78,-68.679 81.5001,-58.679 74.5001,-58.6789"/>
</g>
<!-- Node5 -->
<g id="node5" class="node"><title>Node5</title>
<g id="a_node5"><a xlink:href="../../d8/d85/main__live__odometry_8cpp.html" target="_top" xlink:title="src/main_live_odometry.cpp">
<polygon fill="white" stroke="black" points="220.5,-6.5 220.5,-25.5 359.5,-25.5 359.5,-6.5 220.5,-6.5"/>
<text text-anchor="middle" x="290" y="-13.5" font-family="Helvetica,sans-Serif" font-size="10.00">src/main_live_odometry.cpp</text>
</a>
</g>
</g>
<!-- Node3&#45;&gt;Node5 -->
<g id="edge4" class="edge"><title>Node3&#45;&gt;Node5</title>
<path fill="none" stroke="midnightblue" d="M132.946,-65.8943C174.571,-52.9354 229.996,-35.6804 262.653,-25.5138"/>
<polygon fill="midnightblue" stroke="midnightblue" points="131.727,-62.6079 123.219,-68.9223 133.808,-69.2915 131.727,-62.6079"/>
</g>
<!-- Node7&#45;&gt;Node5 -->
<g id="edge9" class="edge"><title>Node7&#45;&gt;Node5</title>
<path fill="none" stroke="midnightblue" d="M334.14,-131.686C331.242,-114.574 326.03,-89.1042 318,-68 312.037,-52.3286 302.034,-35.537 295.738,-25.6674"/>
<polygon fill="midnightblue" stroke="midnightblue" points="330.759,-132.712 335.782,-142.041 337.672,-131.616 330.759,-132.712"/>
</g>
<!-- Node7&#45;&gt;Node6 -->
<g id="edge8" class="edge"><title>Node7&#45;&gt;Node6</title>
<path fill="none" stroke="midnightblue" d="M316.321,-136.634C297.438,-123.515 270.142,-104.551 254.423,-93.6305"/>
<polygon fill="midnightblue" stroke="midnightblue" points="314.371,-139.54 324.58,-142.372 318.365,-133.792 314.371,-139.54"/>
</g>
<!-- Node8 -->
<g id="node8" class="node"><title>Node8</title>
<g id="a_node8"><a xlink:href="../../d7/dc1/main__on__images_8cpp.html" target="_top" xlink:title="src/main_on_images.cpp">
<polygon fill="white" stroke="black" points="365.5,-74.5 365.5,-93.5 490.5,-93.5 490.5,-74.5 365.5,-74.5"/>
<text text-anchor="middle" x="428" y="-81.5" font-family="Helvetica,sans-Serif" font-size="10.00">src/main_on_images.cpp</text>
</a>
</g>
</g>
<!-- Node7&#45;&gt;Node8 -->
<g id="edge10" class="edge"><title>Node7&#45;&gt;Node8</title>
<path fill="none" stroke="midnightblue" d="M357.054,-136.455C375.133,-123.343 401.111,-104.502 416.1,-93.6305"/>
<polygon fill="midnightblue" stroke="midnightblue" points="354.937,-133.667 348.897,-142.372 359.047,-139.334 354.937,-133.667"/>
</g>
<!-- Node9 -->
<g id="node9" class="node"><title>Node9</title>
<g id="a_node9"><a xlink:href="../../de/dce/SlamSystem_8cpp.html" target="_top" xlink:title="src/SlamSystem.cpp">
<polygon fill="white" stroke="black" points="509,-74.5 509,-93.5 617,-93.5 617,-74.5 509,-74.5"/>
<text text-anchor="middle" x="563" y="-81.5" font-family="Helvetica,sans-Serif" font-size="10.00">src/SlamSystem.cpp</text>
</a>
</g>
</g>
<!-- Node7&#45;&gt;Node9 -->
<g id="edge11" class="edge"><title>Node7&#45;&gt;Node9</title>
<path fill="none" stroke="midnightblue" d="M376.232,-139.543C421.127,-126.432 493.614,-105.263 533.805,-93.5259"/>
<polygon fill="midnightblue" stroke="midnightblue" points="375.163,-136.209 366.546,-142.372 377.126,-142.928 375.163,-136.209"/>
</g>
</g>
</svg>
