<?xml version="1.0" encoding="UTF-8" standalone="no"?>
<!DOCTYPE svg PUBLIC "-//W3C//DTD SVG 1.1//EN"
 "http://www.w3.org/Graphics/SVG/1.1/DTD/svg11.dtd">
<!-- Generated by graphviz version 2.36.0 (20140111.2315)
 -->
<!-- Title: ProgramGLSL Pages: 1 -->
<svg width="112pt" height="326pt"
 viewBox="0.00 0.00 112.00 326.00" xmlns="http://www.w3.org/2000/svg" xmlns:xlink="http://www.w3.org/1999/xlink">
<g id="graph0" class="graph" transform="scale(1 1) rotate(0) translate(4 322)">
<title>ProgramGLSL</title>
<polygon fill="white" stroke="none" points="-4,4 -4,-322 108,-322 108,4 -4,4"/>
<!-- Node1 -->
<g id="node1" class="node"><title>Node1</title>
<polygon fill="#bfbfbf" stroke="black" points="0,-1 0,-201 104,-201 104,-1 0,-1"/>
<text text-anchor="middle" x="52" y="-189" font-family="Helvetica,sans-Serif" font-size="10.00">ProgramGLSL</text>
<polyline fill="none" stroke="black" points="0,-182 104,-182 "/>
<text text-anchor="start" x="8" y="-170" font-family="Helvetica,sans-Serif" font-size="10.00"># _linked</text>
<text text-anchor="start" x="8" y="-159" font-family="Helvetica,sans-Serif" font-size="10.00"># _TextureParam0</text>
<text text-anchor="start" x="8" y="-148" font-family="Helvetica,sans-Serif" font-size="10.00"># _programID</text>
<polyline fill="none" stroke="black" points="0,-141 104,-141 "/>
<text text-anchor="start" x="8" y="-129" font-family="Helvetica,sans-Serif" font-size="10.00">+ ReLink()</text>
<text text-anchor="start" x="8" y="-118" font-family="Helvetica,sans-Serif" font-size="10.00">+ IsNative()</text>
<text text-anchor="start" x="8" y="-107" font-family="Helvetica,sans-Serif" font-size="10.00">+ UseProgram()</text>
<text text-anchor="start" x="8" y="-96" font-family="Helvetica,sans-Serif" font-size="10.00">+ PrintLinkLog()</text>
<text text-anchor="start" x="8" y="-85" font-family="Helvetica,sans-Serif" font-size="10.00">+ ValidateProgram()</text>
<text text-anchor="start" x="8" y="-74" font-family="Helvetica,sans-Serif" font-size="10.00">+ CheckLinkLog()</text>
<text text-anchor="start" x="8" y="-63" font-family="Helvetica,sans-Serif" font-size="10.00">+ LinkProgram()</text>
<text text-anchor="start" x="8" y="-52" font-family="Helvetica,sans-Serif" font-size="10.00">+ operator GLuint()</text>
<text text-anchor="start" x="8" y="-41" font-family="Helvetica,sans-Serif" font-size="10.00">+ GetProgramID()</text>
<text text-anchor="start" x="8" y="-30" font-family="Helvetica,sans-Serif" font-size="10.00">+ ProgramGLSL()</text>
<text text-anchor="start" x="8" y="-19" font-family="Helvetica,sans-Serif" font-size="10.00">+ ~ProgramGLSL()</text>
<text text-anchor="start" x="8" y="-8" font-family="Helvetica,sans-Serif" font-size="10.00">+ ProgramGLSL()</text>
</g>
<!-- Node2 -->
<g id="node2" class="node"><title>Node2</title>
<g id="a_node2"><a xlink:href="../../d9/d26/classProgramGPU.html" target="_top" xlink:title="{ProgramGPU\n||+ UseProgram()\l+ GetProgramID()\l+ ~ProgramGPU()\l}">
<polygon fill="white" stroke="black" points="4,-238.5 4,-317.5 100,-317.5 100,-238.5 4,-238.5"/>
<text text-anchor="middle" x="52" y="-305.5" font-family="Helvetica,sans-Serif" font-size="10.00">ProgramGPU</text>
<polyline fill="none" stroke="black" points="4,-298.5 100,-298.5 "/>
<text text-anchor="middle" x="52" y="-286.5" font-family="Helvetica,sans-Serif" font-size="10.00"> </text>
<polyline fill="none" stroke="black" points="4,-279.5 100,-279.5 "/>
<text text-anchor="start" x="12" y="-267.5" font-family="Helvetica,sans-Serif" font-size="10.00">+ UseProgram()</text>
<text text-anchor="start" x="12" y="-256.5" font-family="Helvetica,sans-Serif" font-size="10.00">+ GetProgramID()</text>
<text text-anchor="start" x="12" y="-245.5" font-family="Helvetica,sans-Serif" font-size="10.00">+ ~ProgramGPU()</text>
</a>
</g>
</g>
<!-- Node2&#45;&gt;Node1 -->
<g id="edge1" class="edge"><title>Node2&#45;&gt;Node1</title>
<path fill="none" stroke="midnightblue" d="M52,-228.109C52,-219.595 52,-210.472 52,-201.169"/>
<polygon fill="none" stroke="midnightblue" points="48.5001,-228.162 52,-238.162 55.5001,-228.162 48.5001,-228.162"/>
</g>
</g>
</svg>
