<?xml version="1.0" encoding="UTF-8" standalone="no"?>
<!DOCTYPE svg PUBLIC "-//W3C//DTD SVG 1.1//EN"
 "http://www.w3.org/Graphics/SVG/1.1/DTD/svg11.dtd">
<!-- Generated by graphviz version 2.36.0 (20140111.2315)
 -->
<!-- Title: src/Tracking/LGSX.h Pages: 1 -->
<svg width="366pt" height="140pt"
 viewBox="0.00 0.00 366.00 140.00" xmlns="http://www.w3.org/2000/svg" xmlns:xlink="http://www.w3.org/1999/xlink">
<g id="graph0" class="graph" transform="scale(1 1) rotate(0) translate(4 136)">
<title>src/Tracking/LGSX.h</title>
<polygon fill="white" stroke="none" points="-4,4 -4,-136 362,-136 362,4 -4,4"/>
<!-- Node1 -->
<g id="node1" class="node"><title>Node1</title>
<polygon fill="#bfbfbf" stroke="black" points="140,-112.5 140,-131.5 248,-131.5 248,-112.5 140,-112.5"/>
<text text-anchor="middle" x="194" y="-119.5" font-family="Helvetica,sans-Serif" font-size="10.00">src/Tracking/LGSX.h</text>
</g>
<!-- Node2 -->
<g id="node2" class="node"><title>Node2</title>
<g id="a_node2"><a xlink:href="../../d9/d86/EigenCoreInclude_8h.html" target="_top" xlink:title="util/EigenCoreInclude.h">
<polygon fill="white" stroke="black" points="0,-56.5 0,-75.5 118,-75.5 118,-56.5 0,-56.5"/>
<text text-anchor="middle" x="59" y="-63.5" font-family="Helvetica,sans-Serif" font-size="10.00">util/EigenCoreInclude.h</text>
</a>
</g>
</g>
<!-- Node1&#45;&gt;Node2 -->
<g id="edge1" class="edge"><title>Node1&#45;&gt;Node2</title>
<path fill="none" stroke="midnightblue" d="M172.609,-112.444C150.293,-103.517 115.097,-89.4387 89.792,-79.3168"/>
<polygon fill="midnightblue" stroke="midnightblue" points="90.8757,-75.9807 80.2911,-75.5164 88.276,-82.4801 90.8757,-75.9807"/>
</g>
<!-- Node4 -->
<g id="node4" class="node"><title>Node4</title>
<polygon fill="white" stroke="#bfbfbf" points="136,-56.5 136,-75.5 252,-75.5 252,-56.5 136,-56.5"/>
<text text-anchor="middle" x="194" y="-63.5" font-family="Helvetica,sans-Serif" font-size="10.00">opencv2/core/core.hpp</text>
</g>
<!-- Node1&#45;&gt;Node4 -->
<g id="edge3" class="edge"><title>Node1&#45;&gt;Node4</title>
<path fill="none" stroke="midnightblue" d="M194,-112.083C194,-105.006 194,-94.8611 194,-85.9865"/>
<polygon fill="midnightblue" stroke="midnightblue" points="197.5,-85.751 194,-75.7511 190.5,-85.7511 197.5,-85.751"/>
</g>
<!-- Node5 -->
<g id="node5" class="node"><title>Node5</title>
<g id="a_node5"><a xlink:href="../../de/d60/settings_8h.html" target="_top" xlink:title="util/settings.h">
<polygon fill="white" stroke="black" points="269.5,-56.5 269.5,-75.5 344.5,-75.5 344.5,-56.5 269.5,-56.5"/>
<text text-anchor="middle" x="307" y="-63.5" font-family="Helvetica,sans-Serif" font-size="10.00">util/settings.h</text>
</a>
</g>
</g>
<!-- Node1&#45;&gt;Node5 -->
<g id="edge4" class="edge"><title>Node1&#45;&gt;Node5</title>
<path fill="none" stroke="midnightblue" d="M211.905,-112.444C230.254,-103.675 259.005,-89.9355 280.094,-79.8579"/>
<polygon fill="midnightblue" stroke="midnightblue" points="281.665,-82.9862 289.179,-75.5164 278.647,-76.6703 281.665,-82.9862"/>
</g>
<!-- Node3 -->
<g id="node3" class="node"><title>Node3</title>
<polygon fill="white" stroke="#bfbfbf" points="26.5,-0.5 26.5,-19.5 91.5,-19.5 91.5,-0.5 26.5,-0.5"/>
<text text-anchor="middle" x="59" y="-7.5" font-family="Helvetica,sans-Serif" font-size="10.00">Eigen/Core</text>
</g>
<!-- Node2&#45;&gt;Node3 -->
<g id="edge2" class="edge"><title>Node2&#45;&gt;Node3</title>
<path fill="none" stroke="midnightblue" d="M59,-56.083C59,-49.0059 59,-38.8611 59,-29.9865"/>
<polygon fill="midnightblue" stroke="midnightblue" points="62.5001,-29.751 59,-19.7511 55.5001,-29.7511 62.5001,-29.751"/>
</g>
<!-- Node6 -->
<g id="node6" class="node"><title>Node6</title>
<polygon fill="white" stroke="#bfbfbf" points="250.5,-0.5 250.5,-19.5 299.5,-19.5 299.5,-0.5 250.5,-0.5"/>
<text text-anchor="middle" x="275" y="-7.5" font-family="Helvetica,sans-Serif" font-size="10.00">string.h</text>
</g>
<!-- Node5&#45;&gt;Node6 -->
<g id="edge5" class="edge"><title>Node5&#45;&gt;Node6</title>
<path fill="none" stroke="midnightblue" d="M301.716,-56.083C297.289,-48.6127 290.837,-37.7244 285.382,-28.5199"/>
<polygon fill="midnightblue" stroke="midnightblue" points="288.295,-26.5697 280.186,-19.7511 282.273,-30.1383 288.295,-26.5697"/>
</g>
<!-- Node7 -->
<g id="node7" class="node"><title>Node7</title>
<polygon fill="white" stroke="#bfbfbf" points="317.5,-0.5 317.5,-19.5 358.5,-19.5 358.5,-0.5 317.5,-0.5"/>
<text text-anchor="middle" x="338" y="-7.5" font-family="Helvetica,sans-Serif" font-size="10.00">string</text>
</g>
<!-- Node5&#45;&gt;Node7 -->
<g id="edge6" class="edge"><title>Node5&#45;&gt;Node7</title>
<path fill="none" stroke="midnightblue" d="M312.119,-56.083C316.408,-48.6127 322.658,-37.7244 327.942,-28.5199"/>
<polygon fill="midnightblue" stroke="midnightblue" points="331.033,-30.1662 332.976,-19.7511 324.962,-26.6811 331.033,-30.1662"/>
</g>
</g>
</svg>
