<?xml version="1.0" encoding="UTF-8" standalone="no"?>
<!DOCTYPE svg PUBLIC "-//W3C//DTD SVG 1.1//EN"
 "http://www.w3.org/Graphics/SVG/1.1/DTD/svg11.dtd">
<!-- Generated by graphviz version 2.36.0 (20140111.2315)
 -->
<!-- Title: src/DataStructures/FrameMemory.h Pages: 1 -->
<svg width="602pt" height="108pt"
 viewBox="0.00 0.00 602.00 108.00" xmlns="http://www.w3.org/2000/svg" xmlns:xlink="http://www.w3.org/1999/xlink">
<g id="graph0" class="graph" transform="scale(1 1) rotate(0) translate(4 104)">
<title>src/DataStructures/FrameMemory.h</title>
<polygon fill="white" stroke="none" points="-4,4 -4,-104 598,-104 598,4 -4,4"/>
<!-- Node1 -->
<g id="node1" class="node"><title>Node1</title>
<polygon fill="#bfbfbf" stroke="black" points="272.5,-69 272.5,-99 371.5,-99 371.5,-69 272.5,-69"/>
<text text-anchor="start" x="280.5" y="-87" font-family="Helvetica,sans-Serif" font-size="10.00">src/DataStructures</text>
<text text-anchor="middle" x="322" y="-76" font-family="Helvetica,sans-Serif" font-size="10.00">/FrameMemory.h</text>
</g>
<!-- Node2 -->
<g id="node2" class="node"><title>Node2</title>
<polygon fill="white" stroke="#bfbfbf" points="-0.5,-6.5 -0.5,-25.5 82.5,-25.5 82.5,-6.5 -0.5,-6.5"/>
<text text-anchor="middle" x="41" y="-13.5" font-family="Helvetica,sans-Serif" font-size="10.00">unordered_map</text>
</g>
<!-- Node1&#45;&gt;Node2 -->
<g id="edge1" class="edge"><title>Node1&#45;&gt;Node2</title>
<path fill="none" stroke="midnightblue" d="M272.417,-73.02C225.679,-63.3735 153.787,-47.9172 92,-32 87.6081,-30.8686 83.0231,-29.6188 78.481,-28.3379"/>
<polygon fill="midnightblue" stroke="midnightblue" points="79.2758,-24.9245 68.6976,-25.5176 77.3368,-31.6506 79.2758,-24.9245"/>
</g>
<!-- Node3 -->
<g id="node3" class="node"><title>Node3</title>
<polygon fill="white" stroke="#bfbfbf" points="101,-6.5 101,-25.5 145,-25.5 145,-6.5 101,-6.5"/>
<text text-anchor="middle" x="123" y="-13.5" font-family="Helvetica,sans-Serif" font-size="10.00">vector</text>
</g>
<!-- Node1&#45;&gt;Node3 -->
<g id="edge2" class="edge"><title>Node1&#45;&gt;Node3</title>
<path fill="none" stroke="midnightblue" d="M272.426,-70.1435C238.603,-60.8412 193.034,-47.2611 154,-32 152.354,-31.3564 150.674,-30.6614 148.992,-29.9355"/>
<polygon fill="midnightblue" stroke="midnightblue" points="150.068,-26.5782 139.52,-25.582 147.144,-32.9385 150.068,-26.5782"/>
</g>
<!-- Node4 -->
<g id="node4" class="node"><title>Node4</title>
<polygon fill="white" stroke="#bfbfbf" points="163.5,-6.5 163.5,-25.5 282.5,-25.5 282.5,-6.5 163.5,-6.5"/>
<text text-anchor="middle" x="223" y="-13.5" font-family="Helvetica,sans-Serif" font-size="10.00">boost/thread/mutex.hpp</text>
</g>
<!-- Node1&#45;&gt;Node4 -->
<g id="edge3" class="edge"><title>Node1&#45;&gt;Node4</title>
<path fill="none" stroke="midnightblue" d="M300.518,-68.679C283.916,-57.6109 261.044,-42.363 244.45,-31.3002"/>
<polygon fill="midnightblue" stroke="midnightblue" points="246.219,-28.2727 235.957,-25.6379 242.336,-34.0971 246.219,-28.2727"/>
</g>
<!-- Node5 -->
<g id="node5" class="node"><title>Node5</title>
<polygon fill="white" stroke="#bfbfbf" points="300.5,-6.5 300.5,-25.5 343.5,-25.5 343.5,-6.5 300.5,-6.5"/>
<text text-anchor="middle" x="322" y="-13.5" font-family="Helvetica,sans-Serif" font-size="10.00">deque</text>
</g>
<!-- Node1&#45;&gt;Node5 -->
<g id="edge4" class="edge"><title>Node1&#45;&gt;Node5</title>
<path fill="none" stroke="midnightblue" d="M322,-68.679C322,-59.1014 322,-46.3938 322,-35.9766"/>
<polygon fill="midnightblue" stroke="midnightblue" points="325.5,-35.8283 322,-25.8283 318.5,-35.8283 325.5,-35.8283"/>
</g>
<!-- Node6 -->
<g id="node6" class="node"><title>Node6</title>
<polygon fill="white" stroke="#bfbfbf" points="361.5,-6.5 361.5,-25.5 390.5,-25.5 390.5,-6.5 361.5,-6.5"/>
<text text-anchor="middle" x="376" y="-13.5" font-family="Helvetica,sans-Serif" font-size="10.00">list</text>
</g>
<!-- Node1&#45;&gt;Node6 -->
<g id="edge5" class="edge"><title>Node1&#45;&gt;Node6</title>
<path fill="none" stroke="midnightblue" d="M333.717,-68.679C342.137,-58.3881 353.513,-44.4838 362.345,-33.6897"/>
<polygon fill="midnightblue" stroke="midnightblue" points="365.153,-35.7842 368.777,-25.8283 359.736,-31.3515 365.153,-35.7842"/>
</g>
<!-- Node7 -->
<g id="node7" class="node"><title>Node7</title>
<polygon fill="white" stroke="#bfbfbf" points="408.5,-1 408.5,-31 511.5,-31 511.5,-1 408.5,-1"/>
<text text-anchor="start" x="416.5" y="-19" font-family="Helvetica,sans-Serif" font-size="10.00">boost/thread/shared</text>
<text text-anchor="middle" x="460" y="-8" font-family="Helvetica,sans-Serif" font-size="10.00">_mutex.hpp</text>
</g>
<!-- Node1&#45;&gt;Node7 -->
<g id="edge6" class="edge"><title>Node1&#45;&gt;Node7</title>
<path fill="none" stroke="midnightblue" d="M351.604,-68.8413C371.978,-59.0975 399.243,-46.0579 421.33,-35.4941"/>
<polygon fill="midnightblue" stroke="midnightblue" points="422.933,-38.6073 430.444,-31.1352 419.913,-32.2924 422.933,-38.6073"/>
</g>
<!-- Node8 -->
<g id="node8" class="node"><title>Node8</title>
<polygon fill="white" stroke="#bfbfbf" points="529.5,-6.5 529.5,-25.5 594.5,-25.5 594.5,-6.5 529.5,-6.5"/>
<text text-anchor="middle" x="562" y="-13.5" font-family="Helvetica,sans-Serif" font-size="10.00">Eigen/Core</text>
</g>
<!-- Node1&#45;&gt;Node8 -->
<g id="edge7" class="edge"><title>Node1&#45;&gt;Node8</title>
<path fill="none" stroke="midnightblue" d="M371.577,-71.5545C411.838,-61.9429 469.943,-47.3508 520,-32 523.109,-31.0466 526.328,-30.0022 529.538,-28.9225"/>
<polygon fill="midnightblue" stroke="midnightblue" points="530.719,-32.2175 539.019,-25.6325 528.424,-25.6043 530.719,-32.2175"/>
</g>
</g>
</svg>
