<?xml version="1.0" encoding="UTF-8" standalone="no"?>
<!DOCTYPE svg PUBLIC "-//W3C//DTD SVG 1.1//EN"
 "http://www.w3.org/Graphics/SVG/1.1/DTD/svg11.dtd">
<!-- Generated by graphviz version 2.36.0 (20140111.2315)
 -->
<!-- Title: external/gicp/ann_1.1.2/test/rand.cpp Pages: 1 -->
<svg width="374pt" height="208pt"
 viewBox="0.00 0.00 374.00 208.00" xmlns="http://www.w3.org/2000/svg" xmlns:xlink="http://www.w3.org/1999/xlink">
<g id="graph0" class="graph" transform="scale(1 1) rotate(0) translate(4 204)">
<title>external/gicp/ann_1.1.2/test/rand.cpp</title>
<polygon fill="white" stroke="none" points="-4,4 -4,-204 370,-204 370,4 -4,4"/>
<!-- Node1 -->
<g id="node1" class="node"><title>Node1</title>
<polygon fill="#bfbfbf" stroke="black" points="25,-169 25,-199 143,-199 143,-169 25,-169"/>
<text text-anchor="start" x="33" y="-187" font-family="Helvetica,sans-Serif" font-size="10.00">external/gicp/ann_1.1.2</text>
<text text-anchor="middle" x="84" y="-176" font-family="Helvetica,sans-Serif" font-size="10.00">/test/rand.cpp</text>
</g>
<!-- Node2 -->
<g id="node2" class="node"><title>Node2</title>
<g id="a_node2"><a xlink:href="../../d5/d66/rand_8h.html" target="_top" xlink:title="rand.h">
<polygon fill="white" stroke="black" points="62,-112.5 62,-131.5 106,-131.5 106,-112.5 62,-112.5"/>
<text text-anchor="middle" x="84" y="-119.5" font-family="Helvetica,sans-Serif" font-size="10.00">rand.h</text>
</a>
</g>
</g>
<!-- Node1&#45;&gt;Node2 -->
<g id="edge1" class="edge"><title>Node1&#45;&gt;Node2</title>
<path fill="none" stroke="midnightblue" d="M84,-168.781C84,-160.781 84,-150.689 84,-142.017"/>
<polygon fill="midnightblue" stroke="midnightblue" points="87.5001,-141.73 84,-131.731 80.5001,-141.731 87.5001,-141.73"/>
</g>
<!-- Node3 -->
<g id="node3" class="node"><title>Node3</title>
<polygon fill="white" stroke="#bfbfbf" points="-0.5,-0.5 -0.5,-19.5 44.5,-19.5 44.5,-0.5 -0.5,-0.5"/>
<text text-anchor="middle" x="22" y="-7.5" font-family="Helvetica,sans-Serif" font-size="10.00">cstdlib</text>
</g>
<!-- Node2&#45;&gt;Node3 -->
<g id="edge2" class="edge"><title>Node2&#45;&gt;Node3</title>
<path fill="none" stroke="midnightblue" d="M79.135,-112.368C68.9485,-94.2957 45.2085,-52.1764 31.7551,-28.3074"/>
<polygon fill="midnightblue" stroke="midnightblue" points="34.8017,-26.5844 26.8424,-19.5914 28.7036,-30.0215 34.8017,-26.5844"/>
</g>
<!-- Node4 -->
<g id="node4" class="node"><title>Node4</title>
<polygon fill="white" stroke="#bfbfbf" points="63,-0.5 63,-19.5 107,-19.5 107,-0.5 63,-0.5"/>
<text text-anchor="middle" x="85" y="-7.5" font-family="Helvetica,sans-Serif" font-size="10.00">cmath</text>
</g>
<!-- Node2&#45;&gt;Node4 -->
<g id="edge3" class="edge"><title>Node2&#45;&gt;Node4</title>
<path fill="none" stroke="midnightblue" d="M84.0785,-112.368C84.2398,-94.617 84.6121,-53.6664 84.8309,-29.5974"/>
<polygon fill="midnightblue" stroke="midnightblue" points="88.3307,-29.6229 84.9219,-19.5914 81.331,-29.5592 88.3307,-29.6229"/>
</g>
<!-- Node5 -->
<g id="node5" class="node"><title>Node5</title>
<g id="a_node5"><a xlink:href="../../d8/da9/ANN_8h.html" target="_top" xlink:title="ANN/ANN.h">
<polygon fill="white" stroke="black" points="112.5,-56.5 112.5,-75.5 183.5,-75.5 183.5,-56.5 112.5,-56.5"/>
<text text-anchor="middle" x="148" y="-63.5" font-family="Helvetica,sans-Serif" font-size="10.00">ANN/ANN.h</text>
</a>
</g>
</g>
<!-- Node2&#45;&gt;Node5 -->
<g id="edge4" class="edge"><title>Node2&#45;&gt;Node5</title>
<path fill="none" stroke="midnightblue" d="M94.2827,-112.324C103.836,-104.263 118.28,-92.0765 129.784,-82.3695"/>
<polygon fill="midnightblue" stroke="midnightblue" points="132.144,-84.9577 137.53,-75.8339 127.63,-79.6076 132.144,-84.9577"/>
</g>
<!-- Node5&#45;&gt;Node3 -->
<g id="edge5" class="edge"><title>Node5&#45;&gt;Node3</title>
<path fill="none" stroke="midnightblue" d="M128.035,-56.4435C107.391,-47.5961 74.9375,-33.6875 51.3684,-23.5865"/>
<polygon fill="midnightblue" stroke="midnightblue" points="52.4419,-20.2387 41.8717,-19.5164 49.6844,-26.6727 52.4419,-20.2387"/>
</g>
<!-- Node5&#45;&gt;Node4 -->
<g id="edge6" class="edge"><title>Node5&#45;&gt;Node4</title>
<path fill="none" stroke="midnightblue" d="M137.878,-56.324C128.474,-48.2631 114.256,-36.0765 102.931,-26.3695"/>
<polygon fill="midnightblue" stroke="midnightblue" points="105.177,-23.6844 95.3062,-19.8339 100.621,-28.9993 105.177,-23.6844"/>
</g>
<!-- Node6 -->
<g id="node6" class="node"><title>Node6</title>
<polygon fill="white" stroke="#bfbfbf" points="248,-0.5 248,-19.5 302,-19.5 302,-0.5 248,-0.5"/>
<text text-anchor="middle" x="275" y="-7.5" font-family="Helvetica,sans-Serif" font-size="10.00">iostream</text>
</g>
<!-- Node5&#45;&gt;Node6 -->
<g id="edge7" class="edge"><title>Node5&#45;&gt;Node6</title>
<path fill="none" stroke="midnightblue" d="M168.124,-56.4435C189.024,-47.5566 221.935,-33.5632 245.716,-23.4514"/>
<polygon fill="midnightblue" stroke="midnightblue" points="247.138,-26.6504 254.971,-19.5164 244.398,-20.2085 247.138,-26.6504"/>
</g>
<!-- Node7 -->
<g id="node7" class="node"><title>Node7</title>
<polygon fill="white" stroke="#bfbfbf" points="320,-0.5 320,-19.5 366,-19.5 366,-0.5 320,-0.5"/>
<text text-anchor="middle" x="343" y="-7.5" font-family="Helvetica,sans-Serif" font-size="10.00">cstring</text>
</g>
<!-- Node5&#45;&gt;Node7 -->
<g id="edge8" class="edge"><title>Node5&#45;&gt;Node7</title>
<path fill="none" stroke="midnightblue" d="M179.261,-56.4177C210.095,-47.9418 258.831,-34.5173 310.01,-20.2667"/>
<polygon fill="midnightblue" stroke="midnightblue" points="311.238,-23.5579 319.932,-17.5022 309.359,-16.8148 311.238,-23.5579"/>
</g>
<!-- Node8 -->
<g id="node8" class="node"><title>Node8</title>
<polygon fill="white" stroke="#bfbfbf" points="125.5,-0.5 125.5,-19.5 170.5,-19.5 170.5,-0.5 125.5,-0.5"/>
<text text-anchor="middle" x="148" y="-7.5" font-family="Helvetica,sans-Serif" font-size="10.00">climits</text>
</g>
<!-- Node5&#45;&gt;Node8 -->
<g id="edge9" class="edge"><title>Node5&#45;&gt;Node8</title>
<path fill="none" stroke="midnightblue" d="M148,-56.083C148,-49.0059 148,-38.8611 148,-29.9865"/>
<polygon fill="midnightblue" stroke="midnightblue" points="151.5,-29.751 148,-19.7511 144.5,-29.7511 151.5,-29.751"/>
</g>
<!-- Node9 -->
<g id="node9" class="node"><title>Node9</title>
<polygon fill="white" stroke="#bfbfbf" points="188.5,-0.5 188.5,-19.5 229.5,-19.5 229.5,-0.5 188.5,-0.5"/>
<text text-anchor="middle" x="209" y="-7.5" font-family="Helvetica,sans-Serif" font-size="10.00">cfloat</text>
</g>
<!-- Node5&#45;&gt;Node9 -->
<g id="edge10" class="edge"><title>Node5&#45;&gt;Node9</title>
<path fill="none" stroke="midnightblue" d="M157.801,-56.324C166.818,-48.3414 180.406,-36.3128 191.318,-26.6529"/>
<polygon fill="midnightblue" stroke="midnightblue" points="193.853,-29.083 199.021,-19.8339 189.213,-23.8416 193.853,-29.083"/>
</g>
</g>
</svg>
