<?xml version="1.0" encoding="UTF-8" standalone="no"?>
<!DOCTYPE svg PUBLIC "-//W3C//DTD SVG 1.1//EN"
 "http://www.w3.org/Graphics/SVG/1.1/DTD/svg11.dtd">
<!-- Generated by graphviz version 2.36.0 (20140111.2315)
 -->
<!-- Title: src/GlobalMapping/g2oTypeSim3Sophus.h Pages: 1 -->
<!--zoomable 244 -->
<svg id="main" version="1.1" xmlns="http://www.w3.org/2000/svg" xmlns:xlink="http://www.w3.org/1999/xlink" xml:space="preserve" onload="init(evt)">
<style type="text/css"><![CDATA[
.edge:hover path { stroke: red; }
.edge:hover polygon { stroke: red; fill: red; }
]]></style>
<script type="text/javascript"><![CDATA[
var edges = document.getElementsByTagName('g');
if (edges && edges.length) {
  for (var i=0;i<edges.length;i++) {
    if (edges[i].id.substr(0,4)=='edge') {
      edges[i].setAttribute('class','edge');
    }
  }
}
]]></script>
        <defs>
                <circle id="rim" cx="0" cy="0" r="7"/>
                <circle id="rim2" cx="0" cy="0" r="3.5"/>
                <g id="zoomPlus">
                        <use xlink:href="#rim" fill="#404040">
                                <set attributeName="fill" to="#808080" begin="zoomplus.mouseover" end="zoomplus.mouseout"/>
                        </use>
                        <path d="M-4,0h8M0,-4v8" fill="none" stroke="white" stroke-width="1.5" pointer-events="none"/>
                </g>
                <g id="zoomMin">
                        <use xlink:href="#rim" fill="#404040">
                                <set attributeName="fill" to="#808080" begin="zoomminus.mouseover" end="zoomminus.mouseout"/>
                        </use>
                        <path d="M-4,0h8" fill="none" stroke="white" stroke-width="1.5" pointer-events="none"/>
                </g>
                <g id="dirArrow">
                        <path fill="none" stroke="white" stroke-width="1.5" d="M0,-3.0v7 M-2.5,-0.5L0,-3.0L2.5,-0.5"/>
                </g>
               <g id="resetDef">
                       <use xlink:href="#rim2" fill="#404040">
                               <set attributeName="fill" to="#808080" begin="reset.mouseover" end="reset.mouseout"/>
                       </use>
               </g>
        </defs>

<script type="text/javascript">
var viewWidth = 2109;
var viewHeight = 244;
var sectionId = 'dynsection-1';
</script>
<script xlink:href="../../svgpan.js"/>
<svg id="graph" class="graph">
<g id="viewport">
<title>src/GlobalMapping/g2oTypeSim3Sophus.h</title>
<polygon fill="white" stroke="none" points="-4,4 -4,-240 2105,-240 2105,4 -4,4"/>
<!-- Node1 -->
<g id="node1" class="node"><title>Node1</title>
<polygon fill="#bfbfbf" stroke="black" points="1790,-205 1790,-235 1928,-235 1928,-205 1790,-205"/>
<text text-anchor="start" x="1798" y="-223" font-family="Helvetica,sans-Serif" font-size="10.00">src/GlobalMapping/g2oType</text>
<text text-anchor="middle" x="1859" y="-212" font-family="Helvetica,sans-Serif" font-size="10.00">Sim3Sophus.h</text>
</g>
<!-- Node2 -->
<g id="node2" class="node"><title>Node2</title>
<g id="a_node2"><a xlink:href="../../db/d75/FramePoseStruct_8h.html" target="_top" xlink:title="src/DataStructures\l/FramePoseStruct.h">
<polygon fill="white" stroke="black" points="926,-137 926,-167 1030,-167 1030,-137 926,-137"/>
<text text-anchor="start" x="934" y="-155" font-family="Helvetica,sans-Serif" font-size="10.00">src/DataStructures</text>
<text text-anchor="middle" x="978" y="-144" font-family="Helvetica,sans-Serif" font-size="10.00">/FramePoseStruct.h</text>
</a>
</g>
</g>
<!-- Node1&#45;&gt;Node2 -->
<g id="edge1" class="edge"><title>Node1&#45;&gt;Node2</title>
<path fill="none" stroke="midnightblue" d="M1779.84,-213.07C1602.72,-199.801 1178.41,-168.013 1030.18,-156.909"/>
<polygon fill="midnightblue" stroke="midnightblue" points="1779.64,-216.564 1789.87,-213.821 1780.16,-209.584 1779.64,-216.564"/>
</g>
<!-- Node9 -->
<g id="node9" class="node"><title>Node9</title>
<g id="a_node9"><a xlink:href="../../d7/d84/KeyFrameGraph_8cpp.html" target="_top" xlink:title="src/GlobalMapping/KeyFrame\lGraph.cpp">
<polygon fill="white" stroke="black" points="1647,-1 1647,-31 1793,-31 1793,-1 1647,-1"/>
<text text-anchor="start" x="1655" y="-19" font-family="Helvetica,sans-Serif" font-size="10.00">src/GlobalMapping/KeyFrame</text>
<text text-anchor="middle" x="1720" y="-8" font-family="Helvetica,sans-Serif" font-size="10.00">Graph.cpp</text>
</a>
</g>
</g>
<!-- Node1&#45;&gt;Node9 -->
<g id="edge19" class="edge"><title>Node1&#45;&gt;Node9</title>
<path fill="none" stroke="midnightblue" d="M1843.42,-196.355C1814.55,-154.402 1753.53,-65.7257 1729.76,-31.1886"/>
<polygon fill="midnightblue" stroke="midnightblue" points="1840.67,-198.542 1849.23,-204.796 1846.44,-194.574 1840.67,-198.542"/>
</g>
<!-- Node11 -->
<g id="node11" class="node"><title>Node11</title>
<g id="a_node11"><a xlink:href="../../d5/d46/ROSOutput3DWrapper_8cpp.html" target="_top" xlink:title="src/IOWrapper/ROS/ROSOutput3\lDWrapper.cpp">
<polygon fill="white" stroke="black" points="1811,-1 1811,-31 1975,-31 1975,-1 1811,-1"/>
<text text-anchor="start" x="1819" y="-19" font-family="Helvetica,sans-Serif" font-size="10.00">src/IOWrapper/ROS/ROSOutput3</text>
<text text-anchor="middle" x="1893" y="-8" font-family="Helvetica,sans-Serif" font-size="10.00">DWrapper.cpp</text>
</a>
</g>
</g>
<!-- Node1&#45;&gt;Node11 -->
<g id="edge20" class="edge"><title>Node1&#45;&gt;Node11</title>
<path fill="none" stroke="midnightblue" d="M1862.56,-194.895C1867.03,-165.052 1875.07,-112.693 1883,-68 1885.21,-55.5624 1887.99,-41.4758 1890.06,-31.2634"/>
<polygon fill="midnightblue" stroke="midnightblue" points="1859.09,-194.409 1861.08,-204.815 1866.02,-195.44 1859.09,-194.409"/>
</g>
<!-- Node12 -->
<g id="node12" class="node"><title>Node12</title>
<g id="a_node12"><a xlink:href="../../de/dce/SlamSystem_8cpp.html" target="_top" xlink:title="src/SlamSystem.cpp">
<polygon fill="white" stroke="black" points="1993,-6.5 1993,-25.5 2101,-25.5 2101,-6.5 1993,-6.5"/>
<text text-anchor="middle" x="2047" y="-13.5" font-family="Helvetica,sans-Serif" font-size="10.00">src/SlamSystem.cpp</text>
</a>
</g>
</g>
<!-- Node1&#45;&gt;Node12 -->
<g id="edge21" class="edge"><title>Node1&#45;&gt;Node12</title>
<path fill="none" stroke="midnightblue" d="M1872.81,-195.928C1883.61,-178.669 1899.51,-154.891 1916,-136 1955.8,-90.3965 2011.92,-44.5104 2035.68,-25.7821"/>
<polygon fill="midnightblue" stroke="midnightblue" points="1869.62,-194.422 1867.36,-204.773 1875.58,-198.093 1869.62,-194.422"/>
</g>
<!-- Node18 -->
<g id="node18" class="node"><title>Node18</title>
<g id="a_node18"><a xlink:href="../../d0/dcc/g2oTypeSim3Sophus_8cpp.html" target="_top" xlink:title="src/GlobalMapping/g2oType\lSim3Sophus.cpp">
<polygon fill="white" stroke="black" points="1925,-137 1925,-167 2063,-167 2063,-137 1925,-137"/>
<text text-anchor="start" x="1933" y="-155" font-family="Helvetica,sans-Serif" font-size="10.00">src/GlobalMapping/g2oType</text>
<text text-anchor="middle" x="1994" y="-144" font-family="Helvetica,sans-Serif" font-size="10.00">Sim3Sophus.cpp</text>
</a>
</g>
</g>
<!-- Node1&#45;&gt;Node18 -->
<g id="edge18" class="edge"><title>Node1&#45;&gt;Node18</title>
<path fill="none" stroke="midnightblue" d="M1897.17,-200.339C1918.73,-189.796 1945.26,-176.83 1965.09,-167.135"/>
<polygon fill="midnightblue" stroke="midnightblue" points="1895.41,-197.305 1887.96,-204.841 1898.48,-203.594 1895.41,-197.305"/>
</g>
<!-- Node3 -->
<g id="node3" class="node"><title>Node3</title>
<g id="a_node3"><a xlink:href="../../d7/db3/Frame_8h.html" target="_top" xlink:title="src/DataStructures\l/Frame.h">
<polygon fill="white" stroke="black" points="928.5,-69 928.5,-99 1027.5,-99 1027.5,-69 928.5,-69"/>
<text text-anchor="start" x="936.5" y="-87" font-family="Helvetica,sans-Serif" font-size="10.00">src/DataStructures</text>
<text text-anchor="middle" x="978" y="-76" font-family="Helvetica,sans-Serif" font-size="10.00">/Frame.h</text>
</a>
</g>
</g>
<!-- Node2&#45;&gt;Node3 -->
<g id="edge2" class="edge"><title>Node2&#45;&gt;Node3</title>
<path fill="none" stroke="midnightblue" d="M978,-126.532C978,-117.361 978,-107.245 978,-99.2931"/>
<polygon fill="midnightblue" stroke="midnightblue" points="974.5,-126.679 978,-136.679 981.5,-126.679 974.5,-126.679"/>
</g>
<!-- Node6 -->
<g id="node6" class="node"><title>Node6</title>
<g id="a_node6"><a xlink:href="../../d1/d10/FramePoseStruct_8cpp.html" target="_top" xlink:title="src/DataStructures\l/FramePoseStruct.cpp">
<polygon fill="white" stroke="black" points="-0.5,-1 -0.5,-31 114.5,-31 114.5,-1 -0.5,-1"/>
<text text-anchor="start" x="7.5" y="-19" font-family="Helvetica,sans-Serif" font-size="10.00">src/DataStructures</text>
<text text-anchor="middle" x="57" y="-8" font-family="Helvetica,sans-Serif" font-size="10.00">/FramePoseStruct.cpp</text>
</a>
</g>
</g>
<!-- Node2&#45;&gt;Node6 -->
<g id="edge17" class="edge"><title>Node2&#45;&gt;Node6</title>
<path fill="none" stroke="midnightblue" d="M915.476,-144.148C773.829,-128.221 417.839,-85.9213 123,-32 120.226,-31.4927 117.392,-30.9486 114.533,-30.3792"/>
<polygon fill="midnightblue" stroke="midnightblue" points="915.376,-147.659 925.704,-145.294 916.156,-140.702 915.376,-147.659"/>
</g>
<!-- Node4 -->
<g id="node4" class="node"><title>Node4</title>
<g id="a_node4"><a xlink:href="../../d5/de0/Frame_8cpp.html" target="_top" xlink:title="src/DataStructures\l/Frame.cpp">
<polygon fill="white" stroke="black" points="132.5,-1 132.5,-31 231.5,-31 231.5,-1 132.5,-1"/>
<text text-anchor="start" x="140.5" y="-19" font-family="Helvetica,sans-Serif" font-size="10.00">src/DataStructures</text>
<text text-anchor="middle" x="182" y="-8" font-family="Helvetica,sans-Serif" font-size="10.00">/Frame.cpp</text>
</a>
</g>
</g>
<!-- Node3&#45;&gt;Node4 -->
<g id="edge3" class="edge"><title>Node3&#45;&gt;Node4</title>
<path fill="none" stroke="midnightblue" d="M918.193,-82.5853C792.026,-80.897 489.688,-72.5599 240,-32 237.228,-31.5497 234.396,-31.0276 231.547,-30.4537"/>
<polygon fill="midnightblue" stroke="midnightblue" points="918.368,-86.0876 928.411,-82.7125 918.456,-79.0882 918.368,-86.0876"/>
</g>
<!-- Node5 -->
<g id="node5" class="node"><title>Node5</title>
<g id="a_node5"><a xlink:href="../../d6/d4d/FrameMemory_8cpp.html" target="_top" xlink:title="src/DataStructures\l/FrameMemory.cpp">
<polygon fill="white" stroke="black" points="249.5,-1 249.5,-31 350.5,-31 350.5,-1 249.5,-1"/>
<text text-anchor="start" x="257.5" y="-19" font-family="Helvetica,sans-Serif" font-size="10.00">src/DataStructures</text>
<text text-anchor="middle" x="300" y="-8" font-family="Helvetica,sans-Serif" font-size="10.00">/FrameMemory.cpp</text>
</a>
</g>
</g>
<!-- Node3&#45;&gt;Node5 -->
<g id="edge4" class="edge"><title>Node3&#45;&gt;Node5</title>
<path fill="none" stroke="midnightblue" d="M918.095,-81.2907C807.256,-77.4129 562.967,-65.5171 360,-32 356.928,-31.4927 353.782,-30.9078 350.618,-30.2695"/>
<polygon fill="midnightblue" stroke="midnightblue" points="918.285,-84.7991 928.398,-81.6414 918.523,-77.8031 918.285,-84.7991"/>
</g>
<!-- Node3&#45;&gt;Node6 -->
<g id="edge5" class="edge"><title>Node3&#45;&gt;Node6</title>
<path fill="none" stroke="midnightblue" d="M918.269,-80.7138C750.466,-74.0879 277.019,-53.9446 123,-32 120.324,-31.6188 117.597,-31.185 114.848,-30.7111"/>
<polygon fill="midnightblue" stroke="midnightblue" points="918.272,-84.2165 928.401,-81.1121 918.547,-77.2219 918.272,-84.2165"/>
</g>
<!-- Node7 -->
<g id="node7" class="node"><title>Node7</title>
<g id="a_node7"><a xlink:href="../../d8/d5e/DepthMap_8cpp.html" target="_top" xlink:title="src/DepthEstimation\l/DepthMap.cpp">
<polygon fill="white" stroke="black" points="369,-1 369,-31 475,-31 475,-1 369,-1"/>
<text text-anchor="start" x="377" y="-19" font-family="Helvetica,sans-Serif" font-size="10.00">src/DepthEstimation</text>
<text text-anchor="middle" x="422" y="-8" font-family="Helvetica,sans-Serif" font-size="10.00">/DepthMap.cpp</text>
</a>
</g>
</g>
<!-- Node3&#45;&gt;Node7 -->
<g id="edge6" class="edge"><title>Node3&#45;&gt;Node7</title>
<path fill="none" stroke="midnightblue" d="M918.173,-79.4298C824.905,-73.2791 639.414,-58.6978 484,-32 481.053,-31.4938 478.038,-30.9275 475.002,-30.3194"/>
<polygon fill="midnightblue" stroke="midnightblue" points="918.061,-82.9298 928.267,-80.0862 918.515,-75.9446 918.061,-82.9298"/>
</g>
<!-- Node8 -->
<g id="node8" class="node"><title>Node8</title>
<g id="a_node8"><a xlink:href="../../d5/dd0/DepthMapPixelHypothesis_8cpp.html" target="_top" xlink:title="src/DepthEstimation\l/DepthMapPixelHypothesis.cpp">
<polygon fill="white" stroke="black" points="493.5,-1 493.5,-31 648.5,-31 648.5,-1 493.5,-1"/>
<text text-anchor="start" x="501.5" y="-19" font-family="Helvetica,sans-Serif" font-size="10.00">src/DepthEstimation</text>
<text text-anchor="middle" x="571" y="-8" font-family="Helvetica,sans-Serif" font-size="10.00">/DepthMapPixelHypothesis.cpp</text>
</a>
</g>
</g>
<!-- Node3&#45;&gt;Node8 -->
<g id="edge7" class="edge"><title>Node3&#45;&gt;Node8</title>
<path fill="none" stroke="midnightblue" d="M918.487,-73.8202C854.013,-63.8108 748.139,-47.1873 657,-32 654.309,-31.5516 651.571,-31.0921 648.807,-30.6252"/>
<polygon fill="midnightblue" stroke="midnightblue" points="918.052,-77.2946 928.471,-75.3687 919.125,-70.3773 918.052,-77.2946"/>
</g>
<!-- Node3&#45;&gt;Node9 -->
<g id="edge8" class="edge"><title>Node3&#45;&gt;Node9</title>
<path fill="none" stroke="midnightblue" d="M1037.87,-80.4057C1153.86,-74.929 1417.15,-60.299 1637,-32 1640.2,-31.5887 1643.45,-31.1374 1646.74,-30.6558"/>
<polygon fill="midnightblue" stroke="midnightblue" points="1037.6,-76.9143 1027.78,-80.8767 1037.93,-83.9067 1037.6,-76.9143"/>
</g>
<!-- Node10 -->
<g id="node10" class="node"><title>Node10</title>
<g id="a_node10"><a xlink:href="../../d3/dd3/TrackableKeyFrameSearch_8cpp.html" target="_top" xlink:title="src/GlobalMapping/Trackable\lKeyFrameSearch.cpp">
<polygon fill="white" stroke="black" points="666.5,-1 666.5,-31 809.5,-31 809.5,-1 666.5,-1"/>
<text text-anchor="start" x="674.5" y="-19" font-family="Helvetica,sans-Serif" font-size="10.00">src/GlobalMapping/Trackable</text>
<text text-anchor="middle" x="738" y="-8" font-family="Helvetica,sans-Serif" font-size="10.00">KeyFrameSearch.cpp</text>
</a>
</g>
</g>
<!-- Node3&#45;&gt;Node10 -->
<g id="edge9" class="edge"><title>Node3&#45;&gt;Node10</title>
<path fill="none" stroke="midnightblue" d="M918.458,-66.626C878.785,-55.716 827.179,-41.5241 789.32,-31.1131"/>
<polygon fill="midnightblue" stroke="midnightblue" points="917.702,-70.0478 928.272,-69.3248 919.558,-63.2984 917.702,-70.0478"/>
</g>
<!-- Node3&#45;&gt;Node11 -->
<g id="edge10" class="edge"><title>Node3&#45;&gt;Node11</title>
<path fill="none" stroke="midnightblue" d="M1038.07,-81.3722C1174.32,-77.2234 1517.1,-64.213 1802,-32 1804.86,-31.6762 1807.77,-31.3238 1810.71,-30.9483"/>
<polygon fill="midnightblue" stroke="midnightblue" points="1037.74,-77.8806 1027.85,-81.6786 1037.95,-84.8774 1037.74,-77.8806"/>
</g>
<!-- Node3&#45;&gt;Node12 -->
<g id="edge11" class="edge"><title>Node3&#45;&gt;Node12</title>
<path fill="none" stroke="midnightblue" d="M1037.85,-83.7701C1194.25,-84.9622 1627.78,-82.9973 1984,-32 1994.57,-30.4863 2005.97,-28.0304 2016.13,-25.54"/>
<polygon fill="midnightblue" stroke="midnightblue" points="1037.54,-80.2675 1027.51,-83.6835 1037.48,-87.2672 1037.54,-80.2675"/>
</g>
<!-- Node13 -->
<g id="node13" class="node"><title>Node13</title>
<g id="a_node13"><a xlink:href="../../d0/df5/Relocalizer_8cpp.html" target="_top" xlink:title="src/Tracking/Relocalizer.cpp">
<polygon fill="white" stroke="black" points="827.5,-6.5 827.5,-25.5 968.5,-25.5 968.5,-6.5 827.5,-6.5"/>
<text text-anchor="middle" x="898" y="-13.5" font-family="Helvetica,sans-Serif" font-size="10.00">src/Tracking/Relocalizer.cpp</text>
</a>
</g>
</g>
<!-- Node3&#45;&gt;Node13 -->
<g id="edge12" class="edge"><title>Node3&#45;&gt;Node13</title>
<path fill="none" stroke="midnightblue" d="M952.779,-62.1927C937.928,-49.9403 919.913,-35.0785 908.701,-25.8283"/>
<polygon fill="midnightblue" stroke="midnightblue" points="950.7,-65.0149 960.641,-68.679 955.155,-59.6153 950.7,-65.0149"/>
</g>
<!-- Node14 -->
<g id="node14" class="node"><title>Node14</title>
<g id="a_node14"><a xlink:href="../../d6/d91/SE3Tracker_8cpp.html" target="_top" xlink:title="src/Tracking/SE3Tracker.cpp">
<polygon fill="white" stroke="black" points="987,-6.5 987,-25.5 1131,-25.5 1131,-6.5 987,-6.5"/>
<text text-anchor="middle" x="1059" y="-13.5" font-family="Helvetica,sans-Serif" font-size="10.00">src/Tracking/SE3Tracker.cpp</text>
</a>
</g>
</g>
<!-- Node3&#45;&gt;Node14 -->
<g id="edge13" class="edge"><title>Node3&#45;&gt;Node14</title>
<path fill="none" stroke="midnightblue" d="M1003.54,-62.1927C1018.57,-49.9403 1036.81,-35.0785 1048.17,-25.8283"/>
<polygon fill="midnightblue" stroke="midnightblue" points="1001.12,-59.6489 995.576,-68.679 1005.54,-65.0755 1001.12,-59.6489"/>
</g>
<!-- Node15 -->
<g id="node15" class="node"><title>Node15</title>
<g id="a_node15"><a xlink:href="../../d6/dec/Sim3Tracker_8cpp.html" target="_top" xlink:title="src/Tracking/Sim3Tracker.cpp">
<polygon fill="white" stroke="black" points="1149,-6.5 1149,-25.5 1297,-25.5 1297,-6.5 1149,-6.5"/>
<text text-anchor="middle" x="1223" y="-13.5" font-family="Helvetica,sans-Serif" font-size="10.00">src/Tracking/Sim3Tracker.cpp</text>
</a>
</g>
</g>
<!-- Node3&#45;&gt;Node15 -->
<g id="edge14" class="edge"><title>Node3&#45;&gt;Node15</title>
<path fill="none" stroke="midnightblue" d="M1037.33,-67.0169C1085.84,-53.949 1152.54,-35.9799 1191.39,-25.5164"/>
<polygon fill="midnightblue" stroke="midnightblue" points="1036.32,-63.6632 1027.58,-69.6439 1038.15,-70.4222 1036.32,-63.6632"/>
</g>
<!-- Node16 -->
<g id="node16" class="node"><title>Node16</title>
<g id="a_node16"><a xlink:href="../../de/db1/TrackingReference_8cpp.html" target="_top" xlink:title="src/Tracking/TrackingReference.cpp">
<polygon fill="white" stroke="black" points="1315.5,-6.5 1315.5,-25.5 1490.5,-25.5 1490.5,-6.5 1315.5,-6.5"/>
<text text-anchor="middle" x="1403" y="-13.5" font-family="Helvetica,sans-Serif" font-size="10.00">src/Tracking/TrackingReference.cpp</text>
</a>
</g>
</g>
<!-- Node3&#45;&gt;Node16 -->
<g id="edge15" class="edge"><title>Node3&#45;&gt;Node16</title>
<path fill="none" stroke="midnightblue" d="M1037.56,-73.7509C1120.08,-60.9363 1268.04,-37.9593 1348.04,-25.5352"/>
<polygon fill="midnightblue" stroke="midnightblue" points="1036.93,-70.3066 1027.58,-75.2998 1038,-77.2237 1036.93,-70.3066"/>
</g>
<!-- Node17 -->
<g id="node17" class="node"><title>Node17</title>
<g id="a_node17"><a xlink:href="../../de/dc8/globalFuncs_8cpp.html" target="_top" xlink:title="src/util/globalFuncs.cpp">
<polygon fill="white" stroke="black" points="1509,-6.5 1509,-25.5 1629,-25.5 1629,-6.5 1509,-6.5"/>
<text text-anchor="middle" x="1569" y="-13.5" font-family="Helvetica,sans-Serif" font-size="10.00">src/util/globalFuncs.cpp</text>
</a>
</g>
</g>
<!-- Node3&#45;&gt;Node17 -->
<g id="edge16" class="edge"><title>Node3&#45;&gt;Node17</title>
<path fill="none" stroke="midnightblue" d="M1038.03,-79.3474C1135.26,-72.9324 1333.07,-57.8138 1499,-32 1510.05,-30.2805 1521.99,-27.9161 1532.81,-25.5727"/>
<polygon fill="midnightblue" stroke="midnightblue" points="1037.55,-75.8706 1027.8,-80.014 1038.01,-82.8557 1037.55,-75.8706"/>
</g>
</g>
</svg>
        <g id="navigator" transform="translate(0 0)" fill="#404254">
                <rect fill="#f2f5e9" fill-opacity="0.5" stroke="#606060" stroke-width=".5" x="0" y="0" width="60" height="60"/>
                <use id="zoomplus" xlink:href="#zoomPlus" x="17" y="9" onmousedown="handleZoom(evt,'in')"/>
                <use id="zoomminus" xlink:href="#zoomMin" x="42" y="9" onmousedown="handleZoom(evt,'out')"/>
                <use id="reset" xlink:href="#resetDef" x="30" y="36" onmousedown="handleReset()"/>
                <g id="arrowUp" xlink:href="#dirArrow" transform="translate(30 24)" onmousedown="handlePan(0,-1)">
                  <use xlink:href="#rim" fill="#404040">
                        <set attributeName="fill" to="#808080" begin="arrowUp.mouseover" end="arrowUp.mouseout"/>
                  </use>
                  <path fill="none" stroke="white" stroke-width="1.5" d="M0,-3.0v7 M-2.5,-0.5L0,-3.0L2.5,-0.5"/>
                </g>
                <g id="arrowRight" xlink:href="#dirArrow" transform="rotate(90) translate(36 -43)" onmousedown="handlePan(1,0)">
                  <use xlink:href="#rim" fill="#404040">
                        <set attributeName="fill" to="#808080" begin="arrowRight.mouseover" end="arrowRight.mouseout"/>
                  </use>
                  <path fill="none" stroke="white" stroke-width="1.5" d="M0,-3.0v7 M-2.5,-0.5L0,-3.0L2.5,-0.5"/>
                </g>
                <g id="arrowDown" xlink:href="#dirArrow" transform="rotate(180) translate(-30 -48)" onmousedown="handlePan(0,1)">
                  <use xlink:href="#rim" fill="#404040">
                        <set attributeName="fill" to="#808080" begin="arrowDown.mouseover" end="arrowDown.mouseout"/>
                  </use>
                  <path fill="none" stroke="white" stroke-width="1.5" d="M0,-3.0v7 M-2.5,-0.5L0,-3.0L2.5,-0.5"/>
                </g>
                <g id="arrowLeft" xlink:href="#dirArrow" transform="rotate(270) translate(-36 17)" onmousedown="handlePan(-1,0)">
                  <use xlink:href="#rim" fill="#404040">
                        <set attributeName="fill" to="#808080" begin="arrowLeft.mouseover" end="arrowLeft.mouseout"/>
                  </use>
                  <path fill="none" stroke="white" stroke-width="1.5" d="M0,-3.0v7 M-2.5,-0.5L0,-3.0L2.5,-0.5"/>
                </g>
        </g>
        <svg viewBox="0 0 15 15" width="100%" height="30px" preserveAspectRatio="xMaxYMin meet">
         <g id="arrow_out" transform="scale(0.3 0.3)">
          <a xlink:href="g2oTypeSim3Sophus_8h__dep__incl_org.svg" target="_base">
           <rect id="button" ry="5" rx="5" y="6" x="6" height="38" width="38"
                fill="#f2f5e9" fill-opacity="0.5" stroke="#606060" stroke-width="1.0"/>
           <path id="arrow"
             d="M 11.500037,31.436501 C 11.940474,20.09759 22.043105,11.32322 32.158766,21.979434 L 37.068811,17.246167 C 37.068811,17.246167 37.088388,32 37.088388,32 L 22.160133,31.978069 C 22.160133,31.978069 26.997745,27.140456 26.997745,27.140456 C 18.528582,18.264221 13.291696,25.230495 11.500037,31.436501 z"
             style="fill:#404040;"/>
          </a>
         </g>
        </svg>
</svg>
