<?xml version="1.0" encoding="UTF-8" standalone="no"?>
<!DOCTYPE svg PUBLIC "-//W3C//DTD SVG 1.1//EN"
 "http://www.w3.org/Graphics/SVG/1.1/DTD/svg11.dtd">
<!-- Generated by graphviz version 2.36.0 (20140111.2315)
 -->
<!-- Title: src/LiveSLAMWrapper.h Pages: 1 -->
<!--zoomable 376 -->
<svg id="main" version="1.1" xmlns="http://www.w3.org/2000/svg" xmlns:xlink="http://www.w3.org/1999/xlink" xml:space="preserve" onload="init(evt)">
<style type="text/css"><![CDATA[
.edge:hover path { stroke: red; }
.edge:hover polygon { stroke: red; fill: red; }
]]></style>
<script type="text/javascript"><![CDATA[
var edges = document.getElementsByTagName('g');
if (edges && edges.length) {
  for (var i=0;i<edges.length;i++) {
    if (edges[i].id.substr(0,4)=='edge') {
      edges[i].setAttribute('class','edge');
    }
  }
}
]]></script>
        <defs>
                <circle id="rim" cx="0" cy="0" r="7"/>
                <circle id="rim2" cx="0" cy="0" r="3.5"/>
                <g id="zoomPlus">
                        <use xlink:href="#rim" fill="#404040">
                                <set attributeName="fill" to="#808080" begin="zoomplus.mouseover" end="zoomplus.mouseout"/>
                        </use>
                        <path d="M-4,0h8M0,-4v8" fill="none" stroke="white" stroke-width="1.5" pointer-events="none"/>
                </g>
                <g id="zoomMin">
                        <use xlink:href="#rim" fill="#404040">
                                <set attributeName="fill" to="#808080" begin="zoomminus.mouseover" end="zoomminus.mouseout"/>
                        </use>
                        <path d="M-4,0h8" fill="none" stroke="white" stroke-width="1.5" pointer-events="none"/>
                </g>
                <g id="dirArrow">
                        <path fill="none" stroke="white" stroke-width="1.5" d="M0,-3.0v7 M-2.5,-0.5L0,-3.0L2.5,-0.5"/>
                </g>
               <g id="resetDef">
                       <use xlink:href="#rim2" fill="#404040">
                               <set attributeName="fill" to="#808080" begin="reset.mouseover" end="reset.mouseout"/>
                       </use>
               </g>
        </defs>

<script type="text/javascript">
var viewWidth = 1053;
var viewHeight = 376;
var sectionId = 'dynsection-0';
</script>
<script xlink:href="../../svgpan.js"/>
<svg id="graph" class="graph">
<g id="viewport">
<title>src/LiveSLAMWrapper.h</title>
<polygon fill="white" stroke="none" points="-4,4 -4,-372 1049,-372 1049,4 -4,4"/>
<!-- Node1 -->
<g id="node1" class="node"><title>Node1</title>
<polygon fill="#bfbfbf" stroke="black" points="234.5,-348.5 234.5,-367.5 357.5,-367.5 357.5,-348.5 234.5,-348.5"/>
<text text-anchor="middle" x="296" y="-355.5" font-family="Helvetica,sans-Serif" font-size="10.00">src/LiveSLAMWrapper.h</text>
</g>
<!-- Node2 -->
<g id="node2" class="node"><title>Node2</title>
<polygon fill="white" stroke="#bfbfbf" points="0,-292.5 0,-311.5 54,-311.5 54,-292.5 0,-292.5"/>
<text text-anchor="middle" x="27" y="-299.5" font-family="Helvetica,sans-Serif" font-size="10.00">iostream</text>
</g>
<!-- Node1&#45;&gt;Node2 -->
<g id="edge1" class="edge"><title>Node1&#45;&gt;Node2</title>
<path fill="none" stroke="midnightblue" d="M247.648,-348.451C202.536,-340.298 133.137,-327.304 63.8614,-312.099"/>
<polygon fill="midnightblue" stroke="midnightblue" points="64.6093,-308.68 54.0896,-309.939 63.0985,-315.515 64.6093,-308.68"/>
</g>
<!-- Node3 -->
<g id="node3" class="node"><title>Node3</title>
<polygon fill="white" stroke="#bfbfbf" points="72,-292.5 72,-311.5 122,-311.5 122,-292.5 72,-292.5"/>
<text text-anchor="middle" x="97" y="-299.5" font-family="Helvetica,sans-Serif" font-size="10.00">fstream</text>
</g>
<!-- Node1&#45;&gt;Node3 -->
<g id="edge2" class="edge"><title>Node1&#45;&gt;Node3</title>
<path fill="none" stroke="midnightblue" d="M264.468,-348.444C228.404,-338.657 169.522,-322.679 132.049,-312.511"/>
<polygon fill="midnightblue" stroke="midnightblue" points="132.651,-309.048 122.084,-309.807 130.818,-315.803 132.651,-309.048"/>
</g>
<!-- Node4 -->
<g id="node4" class="node"><title>Node4</title>
<polygon fill="white" stroke="#bfbfbf" points="507,-168.5 507,-187.5 553,-187.5 553,-168.5 507,-168.5"/>
<text text-anchor="middle" x="530" y="-175.5" font-family="Helvetica,sans-Serif" font-size="10.00">chrono</text>
</g>
<!-- Node1&#45;&gt;Node4 -->
<g id="edge3" class="edge"><title>Node1&#45;&gt;Node4</title>
<path fill="none" stroke="midnightblue" d="M276.071,-348.351C230.578,-327.474 126.205,-272.46 169,-224 190.549,-199.598 411.555,-185.313 496.756,-180.677"/>
<polygon fill="midnightblue" stroke="midnightblue" points="497.117,-184.163 506.916,-180.135 496.744,-177.173 497.117,-184.163"/>
</g>
<!-- Node5 -->
<g id="node5" class="node"><title>Node5</title>
<g id="a_node5"><a xlink:href="../../d7/d66/Timestamp_8h.html" target="_top" xlink:title="IOWrapper/Timestamp.h">
<polygon fill="white" stroke="black" points="692,-230.5 692,-249.5 816,-249.5 816,-230.5 692,-230.5"/>
<text text-anchor="middle" x="754" y="-237.5" font-family="Helvetica,sans-Serif" font-size="10.00">IOWrapper/Timestamp.h</text>
</a>
</g>
</g>
<!-- Node1&#45;&gt;Node5 -->
<g id="edge4" class="edge"><title>Node1&#45;&gt;Node5</title>
<path fill="none" stroke="midnightblue" d="M357.848,-353.419C447.64,-347.545 609.245,-334.24 663,-312 693.233,-299.492 721.92,-274.056 738.733,-257.272"/>
<polygon fill="midnightblue" stroke="midnightblue" points="741.519,-259.428 745.988,-249.822 736.504,-254.544 741.519,-259.428"/>
</g>
<!-- Node8 -->
<g id="node8" class="node"><title>Node8</title>
<g id="a_node8"><a xlink:href="../../d5/d13/NotifyBuffer_8h.html" target="_top" xlink:title="IOWrapper/NotifyBuffer.h">
<polygon fill="white" stroke="black" points="232,-292.5 232,-311.5 360,-311.5 360,-292.5 232,-292.5"/>
<text text-anchor="middle" x="296" y="-299.5" font-family="Helvetica,sans-Serif" font-size="10.00">IOWrapper/NotifyBuffer.h</text>
</a>
</g>
</g>
<!-- Node1&#45;&gt;Node8 -->
<g id="edge8" class="edge"><title>Node1&#45;&gt;Node8</title>
<path fill="none" stroke="midnightblue" d="M296,-348.083C296,-341.006 296,-330.861 296,-321.986"/>
<polygon fill="midnightblue" stroke="midnightblue" points="299.5,-321.751 296,-311.751 292.5,-321.751 299.5,-321.751"/>
</g>
<!-- Node12 -->
<g id="node12" class="node"><title>Node12</title>
<g id="a_node12"><a xlink:href="../../da/d15/TimestampedObject_8h.html" target="_top" xlink:title="IOWrapper/TimestampedObject.h">
<polygon fill="white" stroke="black" points="491.5,-292.5 491.5,-311.5 654.5,-311.5 654.5,-292.5 491.5,-292.5"/>
<text text-anchor="middle" x="573" y="-299.5" font-family="Helvetica,sans-Serif" font-size="10.00">IOWrapper/TimestampedObject.h</text>
</a>
</g>
</g>
<!-- Node1&#45;&gt;Node12 -->
<g id="edge12" class="edge"><title>Node1&#45;&gt;Node12</title>
<path fill="none" stroke="midnightblue" d="M339.891,-348.444C388.517,-338.964 466.946,-323.675 519.224,-313.483"/>
<polygon fill="midnightblue" stroke="midnightblue" points="520.168,-316.865 529.314,-311.516 518.829,-309.995 520.168,-316.865"/>
</g>
<!-- Node14 -->
<g id="node14" class="node"><title>Node14</title>
<g id="a_node14"><a xlink:href="../../d2/d13/SophusUtil_8h.html" target="_top" xlink:title="util/SophusUtil.h">
<polygon fill="white" stroke="black" points="799.5,-292.5 799.5,-311.5 888.5,-311.5 888.5,-292.5 799.5,-292.5"/>
<text text-anchor="middle" x="844" y="-299.5" font-family="Helvetica,sans-Serif" font-size="10.00">util/SophusUtil.h</text>
</a>
</g>
</g>
<!-- Node1&#45;&gt;Node14 -->
<g id="edge16" class="edge"><title>Node1&#45;&gt;Node14</title>
<path fill="none" stroke="midnightblue" d="M357.532,-350.937C465.255,-340.322 686.309,-318.539 789.141,-308.406"/>
<polygon fill="midnightblue" stroke="midnightblue" points="789.699,-311.868 799.308,-307.404 789.013,-304.902 789.699,-311.868"/>
</g>
<!-- Node5&#45;&gt;Node4 -->
<g id="edge6" class="edge"><title>Node5&#45;&gt;Node4</title>
<path fill="none" stroke="midnightblue" d="M721.906,-230.403C679.662,-219.088 605.771,-199.296 563.053,-187.854"/>
<polygon fill="midnightblue" stroke="midnightblue" points="563.723,-184.41 553.158,-185.203 561.912,-191.171 563.723,-184.41"/>
</g>
<!-- Node6 -->
<g id="node6" class="node"><title>Node6</title>
<polygon fill="white" stroke="#bfbfbf" points="735.5,-168.5 735.5,-187.5 776.5,-187.5 776.5,-168.5 735.5,-168.5"/>
<text text-anchor="middle" x="756" y="-175.5" font-family="Helvetica,sans-Serif" font-size="10.00">string</text>
</g>
<!-- Node5&#45;&gt;Node6 -->
<g id="edge5" class="edge"><title>Node5&#45;&gt;Node6</title>
<path fill="none" stroke="midnightblue" d="M754.287,-230.403C754.569,-221.938 755.009,-208.728 755.373,-197.82"/>
<polygon fill="midnightblue" stroke="midnightblue" points="758.879,-197.692 755.714,-187.581 751.883,-197.458 758.879,-197.692"/>
</g>
<!-- Node7 -->
<g id="node7" class="node"><title>Node7</title>
<polygon fill="white" stroke="#bfbfbf" points="598.5,-168.5 598.5,-187.5 717.5,-187.5 717.5,-168.5 598.5,-168.5"/>
<text text-anchor="middle" x="658" y="-175.5" font-family="Helvetica,sans-Serif" font-size="10.00">boost/thread/mutex.hpp</text>
</g>
<!-- Node5&#45;&gt;Node7 -->
<g id="edge7" class="edge"><title>Node5&#45;&gt;Node7</title>
<path fill="none" stroke="midnightblue" d="M740.246,-230.403C724.634,-220.646 698.937,-204.585 680.417,-193.011"/>
<polygon fill="midnightblue" stroke="midnightblue" points="682.064,-189.913 671.729,-187.581 678.354,-195.849 682.064,-189.913"/>
</g>
<!-- Node9 -->
<g id="node9" class="node"><title>Node9</title>
<polygon fill="white" stroke="#bfbfbf" points="178.5,-230.5 178.5,-249.5 221.5,-249.5 221.5,-230.5 178.5,-230.5"/>
<text text-anchor="middle" x="200" y="-237.5" font-family="Helvetica,sans-Serif" font-size="10.00">deque</text>
</g>
<!-- Node8&#45;&gt;Node9 -->
<g id="edge9" class="edge"><title>Node8&#45;&gt;Node9</title>
<path fill="none" stroke="midnightblue" d="M282.246,-292.403C266.634,-282.646 240.937,-266.585 222.417,-255.011"/>
<polygon fill="midnightblue" stroke="midnightblue" points="224.064,-251.913 213.729,-249.581 220.354,-257.849 224.064,-251.913"/>
</g>
<!-- Node10 -->
<g id="node10" class="node"><title>Node10</title>
<polygon fill="white" stroke="#bfbfbf" points="239.5,-225 239.5,-255 352.5,-255 352.5,-225 239.5,-225"/>
<text text-anchor="start" x="247.5" y="-243" font-family="Helvetica,sans-Serif" font-size="10.00">boost/thread/recursive</text>
<text text-anchor="middle" x="296" y="-232" font-family="Helvetica,sans-Serif" font-size="10.00">_mutex.hpp</text>
</g>
<!-- Node8&#45;&gt;Node10 -->
<g id="edge10" class="edge"><title>Node8&#45;&gt;Node10</title>
<path fill="none" stroke="midnightblue" d="M296,-292.403C296,-285.341 296,-274.975 296,-265.399"/>
<polygon fill="midnightblue" stroke="midnightblue" points="299.5,-265.141 296,-255.141 292.5,-265.141 299.5,-265.141"/>
</g>
<!-- Node11 -->
<g id="node11" class="node"><title>Node11</title>
<polygon fill="white" stroke="#bfbfbf" points="370.5,-230.5 370.5,-249.5 501.5,-249.5 501.5,-230.5 370.5,-230.5"/>
<text text-anchor="middle" x="436" y="-237.5" font-family="Helvetica,sans-Serif" font-size="10.00">boost/thread/condition.hpp</text>
</g>
<!-- Node8&#45;&gt;Node11 -->
<g id="edge11" class="edge"><title>Node8&#45;&gt;Node11</title>
<path fill="none" stroke="midnightblue" d="M316.059,-292.403C339.762,-282.245 379.406,-265.255 406.583,-253.607"/>
<polygon fill="midnightblue" stroke="midnightblue" points="408.166,-256.737 415.979,-249.581 405.408,-250.303 408.166,-256.737"/>
</g>
<!-- Node12&#45;&gt;Node4 -->
<g id="edge13" class="edge"><title>Node12&#45;&gt;Node4</title>
<path fill="none" stroke="midnightblue" d="M567.545,-292.343C562.177,-283.5 554.069,-269.229 549,-256 541.626,-236.756 536.38,-213.694 533.294,-197.856"/>
<polygon fill="midnightblue" stroke="midnightblue" points="536.687,-196.957 531.429,-187.759 529.804,-198.228 536.687,-196.957"/>
</g>
<!-- Node12&#45;&gt;Node5 -->
<g id="edge15" class="edge"><title>Node12&#45;&gt;Node5</title>
<path fill="none" stroke="midnightblue" d="M598.933,-292.403C630.25,-282.022 683.09,-264.506 718.256,-252.849"/>
<polygon fill="midnightblue" stroke="midnightblue" points="719.724,-256.049 728.115,-249.581 717.522,-249.405 719.724,-256.049"/>
</g>
<!-- Node13 -->
<g id="node13" class="node"><title>Node13</title>
<polygon fill="white" stroke="#bfbfbf" points="558,-230.5 558,-249.5 674,-249.5 674,-230.5 558,-230.5"/>
<text text-anchor="middle" x="616" y="-237.5" font-family="Helvetica,sans-Serif" font-size="10.00">opencv2/core/core.hpp</text>
</g>
<!-- Node12&#45;&gt;Node13 -->
<g id="edge14" class="edge"><title>Node12&#45;&gt;Node13</title>
<path fill="none" stroke="midnightblue" d="M579.161,-292.403C585.611,-283.403 595.904,-269.041 603.973,-257.782"/>
<polygon fill="midnightblue" stroke="midnightblue" points="606.87,-259.748 609.851,-249.581 601.18,-255.67 606.87,-259.748"/>
</g>
<!-- Node15 -->
<g id="node15" class="node"><title>Node15</title>
<g id="a_node15"><a xlink:href="../../dc/d5c/sim3_8hpp.html" target="_top" xlink:title="sophus/sim3.hpp">
<polygon fill="white" stroke="black" points="878.5,-230.5 878.5,-249.5 969.5,-249.5 969.5,-230.5 878.5,-230.5"/>
<text text-anchor="middle" x="924" y="-237.5" font-family="Helvetica,sans-Serif" font-size="10.00">sophus/sim3.hpp</text>
</a>
</g>
</g>
<!-- Node14&#45;&gt;Node15 -->
<g id="edge17" class="edge"><title>Node14&#45;&gt;Node15</title>
<path fill="none" stroke="midnightblue" d="M855.462,-292.403C868.175,-282.869 888.913,-267.315 904.253,-255.811"/>
<polygon fill="midnightblue" stroke="midnightblue" points="906.659,-258.381 912.559,-249.581 902.459,-252.781 906.659,-258.381"/>
</g>
<!-- Node22 -->
<g id="node22" class="node"><title>Node22</title>
<g id="a_node22"><a xlink:href="../../d4/d4b/se3_8hpp.html" target="_top" xlink:title="sophus/se3.hpp">
<polygon fill="white" stroke="black" points="799,-168.5 799,-187.5 885,-187.5 885,-168.5 799,-168.5"/>
<text text-anchor="middle" x="842" y="-175.5" font-family="Helvetica,sans-Serif" font-size="10.00">sophus/se3.hpp</text>
</a>
</g>
</g>
<!-- Node14&#45;&gt;Node22 -->
<g id="edge25" class="edge"><title>Node14&#45;&gt;Node22</title>
<path fill="none" stroke="midnightblue" d="M843.856,-292.226C843.533,-272.53 842.745,-224.437 842.307,-197.7"/>
<polygon fill="midnightblue" stroke="midnightblue" points="845.806,-197.636 842.143,-187.694 838.807,-197.75 845.806,-197.636"/>
</g>
<!-- Node16 -->
<g id="node16" class="node"><title>Node16</title>
<g id="a_node16"><a xlink:href="../../d7/d6a/rxso3_8hpp.html" target="_top" xlink:title="rxso3.hpp">
<polygon fill="white" stroke="black" points="903.5,-168.5 903.5,-187.5 962.5,-187.5 962.5,-168.5 903.5,-168.5"/>
<text text-anchor="middle" x="933" y="-175.5" font-family="Helvetica,sans-Serif" font-size="10.00">rxso3.hpp</text>
</a>
</g>
</g>
<!-- Node15&#45;&gt;Node16 -->
<g id="edge18" class="edge"><title>Node15&#45;&gt;Node16</title>
<path fill="none" stroke="midnightblue" d="M925.289,-230.403C926.573,-221.849 928.583,-208.45 930.229,-197.476"/>
<polygon fill="midnightblue" stroke="midnightblue" points="933.691,-197.989 931.713,-187.581 926.768,-196.951 933.691,-197.989"/>
</g>
<!-- Node17 -->
<g id="node17" class="node"><title>Node17</title>
<g id="a_node17"><a xlink:href="../../d7/dc1/sophus_8hpp.html" target="_top" xlink:title="sophus.hpp">
<polygon fill="white" stroke="black" points="872.5,-56.5 872.5,-75.5 939.5,-75.5 939.5,-56.5 872.5,-56.5"/>
<text text-anchor="middle" x="906" y="-63.5" font-family="Helvetica,sans-Serif" font-size="10.00">sophus.hpp</text>
</a>
</g>
</g>
<!-- Node16&#45;&gt;Node17 -->
<g id="edge19" class="edge"><title>Node16&#45;&gt;Node17</title>
<path fill="none" stroke="midnightblue" d="M930.881,-168.368C926.524,-150.617 916.473,-109.666 910.565,-85.5974"/>
<polygon fill="midnightblue" stroke="midnightblue" points="913.892,-84.4688 908.109,-75.5914 907.094,-86.1375 913.892,-84.4688"/>
</g>
<!-- Node21 -->
<g id="node21" class="node"><title>Node21</title>
<g id="a_node21"><a xlink:href="../../de/de9/so3_8hpp.html" target="_top" xlink:title="so3.hpp">
<polygon fill="white" stroke="black" points="853.5,-112.5 853.5,-131.5 904.5,-131.5 904.5,-112.5 853.5,-112.5"/>
<text text-anchor="middle" x="879" y="-119.5" font-family="Helvetica,sans-Serif" font-size="10.00">so3.hpp</text>
</a>
</g>
</g>
<!-- Node16&#45;&gt;Node21 -->
<g id="edge23" class="edge"><title>Node16&#45;&gt;Node21</title>
<path fill="none" stroke="midnightblue" d="M924.083,-168.083C916.22,-160.22 904.569,-148.569 895.081,-139.081"/>
<polygon fill="midnightblue" stroke="midnightblue" points="897.297,-136.347 887.751,-131.751 892.347,-141.297 897.297,-136.347"/>
</g>
<!-- Node18 -->
<g id="node18" class="node"><title>Node18</title>
<polygon fill="white" stroke="#bfbfbf" points="794.5,-0.5 794.5,-19.5 853.5,-19.5 853.5,-0.5 794.5,-0.5"/>
<text text-anchor="middle" x="824" y="-7.5" font-family="Helvetica,sans-Serif" font-size="10.00">stdexcept</text>
</g>
<!-- Node17&#45;&gt;Node18 -->
<g id="edge20" class="edge"><title>Node17&#45;&gt;Node18</title>
<path fill="none" stroke="midnightblue" d="M892.825,-56.324C880.153,-47.979 860.767,-35.2122 845.794,-25.3524"/>
<polygon fill="midnightblue" stroke="midnightblue" points="847.419,-22.2313 837.142,-19.6545 843.569,-28.0776 847.419,-22.2313"/>
</g>
<!-- Node19 -->
<g id="node19" class="node"><title>Node19</title>
<polygon fill="white" stroke="#bfbfbf" points="871.5,-0.5 871.5,-19.5 940.5,-19.5 940.5,-0.5 871.5,-0.5"/>
<text text-anchor="middle" x="906" y="-7.5" font-family="Helvetica,sans-Serif" font-size="10.00">Eigen/Eigen</text>
</g>
<!-- Node17&#45;&gt;Node19 -->
<g id="edge21" class="edge"><title>Node17&#45;&gt;Node19</title>
<path fill="none" stroke="midnightblue" d="M906,-56.083C906,-49.0059 906,-38.8611 906,-29.9865"/>
<polygon fill="midnightblue" stroke="midnightblue" points="909.5,-29.751 906,-19.7511 902.5,-29.7511 909.5,-29.751"/>
</g>
<!-- Node20 -->
<g id="node20" class="node"><title>Node20</title>
<polygon fill="white" stroke="#bfbfbf" points="958.5,-0.5 958.5,-19.5 1045.5,-19.5 1045.5,-0.5 958.5,-0.5"/>
<text text-anchor="middle" x="1002" y="-7.5" font-family="Helvetica,sans-Serif" font-size="10.00">Eigen/Geometry</text>
</g>
<!-- Node17&#45;&gt;Node20 -->
<g id="edge22" class="edge"><title>Node17&#45;&gt;Node20</title>
<path fill="none" stroke="midnightblue" d="M921.424,-56.324C936.54,-47.8215 959.815,-34.7288 977.471,-24.7975"/>
<polygon fill="midnightblue" stroke="midnightblue" points="979.614,-27.6077 986.614,-19.6545 976.183,-21.5066 979.614,-27.6077"/>
</g>
<!-- Node21&#45;&gt;Node17 -->
<g id="edge24" class="edge"><title>Node21&#45;&gt;Node17</title>
<path fill="none" stroke="midnightblue" d="M883.459,-112.083C887.154,-104.691 892.523,-93.9533 897.094,-84.8111"/>
<polygon fill="midnightblue" stroke="midnightblue" points="900.283,-86.2606 901.624,-75.7511 894.022,-83.1301 900.283,-86.2606"/>
</g>
<!-- Node22&#45;&gt;Node21 -->
<g id="edge26" class="edge"><title>Node22&#45;&gt;Node21</title>
<path fill="none" stroke="midnightblue" d="M848.11,-168.083C853.282,-160.534 860.846,-149.495 867.194,-140.23"/>
<polygon fill="midnightblue" stroke="midnightblue" points="870.239,-141.979 873.004,-131.751 864.464,-138.022 870.239,-141.979"/>
</g>
</g>
</svg>
        <g id="navigator" transform="translate(0 0)" fill="#404254">
                <rect fill="#f2f5e9" fill-opacity="0.5" stroke="#606060" stroke-width=".5" x="0" y="0" width="60" height="60"/>
                <use id="zoomplus" xlink:href="#zoomPlus" x="17" y="9" onmousedown="handleZoom(evt,'in')"/>
                <use id="zoomminus" xlink:href="#zoomMin" x="42" y="9" onmousedown="handleZoom(evt,'out')"/>
                <use id="reset" xlink:href="#resetDef" x="30" y="36" onmousedown="handleReset()"/>
                <g id="arrowUp" xlink:href="#dirArrow" transform="translate(30 24)" onmousedown="handlePan(0,-1)">
                  <use xlink:href="#rim" fill="#404040">
                        <set attributeName="fill" to="#808080" begin="arrowUp.mouseover" end="arrowUp.mouseout"/>
                  </use>
                  <path fill="none" stroke="white" stroke-width="1.5" d="M0,-3.0v7 M-2.5,-0.5L0,-3.0L2.5,-0.5"/>
                </g>
                <g id="arrowRight" xlink:href="#dirArrow" transform="rotate(90) translate(36 -43)" onmousedown="handlePan(1,0)">
                  <use xlink:href="#rim" fill="#404040">
                        <set attributeName="fill" to="#808080" begin="arrowRight.mouseover" end="arrowRight.mouseout"/>
                  </use>
                  <path fill="none" stroke="white" stroke-width="1.5" d="M0,-3.0v7 M-2.5,-0.5L0,-3.0L2.5,-0.5"/>
                </g>
                <g id="arrowDown" xlink:href="#dirArrow" transform="rotate(180) translate(-30 -48)" onmousedown="handlePan(0,1)">
                  <use xlink:href="#rim" fill="#404040">
                        <set attributeName="fill" to="#808080" begin="arrowDown.mouseover" end="arrowDown.mouseout"/>
                  </use>
                  <path fill="none" stroke="white" stroke-width="1.5" d="M0,-3.0v7 M-2.5,-0.5L0,-3.0L2.5,-0.5"/>
                </g>
                <g id="arrowLeft" xlink:href="#dirArrow" transform="rotate(270) translate(-36 17)" onmousedown="handlePan(-1,0)">
                  <use xlink:href="#rim" fill="#404040">
                        <set attributeName="fill" to="#808080" begin="arrowLeft.mouseover" end="arrowLeft.mouseout"/>
                  </use>
                  <path fill="none" stroke="white" stroke-width="1.5" d="M0,-3.0v7 M-2.5,-0.5L0,-3.0L2.5,-0.5"/>
                </g>
        </g>
        <svg viewBox="0 0 15 15" width="100%" height="30px" preserveAspectRatio="xMaxYMin meet">
         <g id="arrow_out" transform="scale(0.3 0.3)">
          <a xlink:href="LiveSLAMWrapper_8h__incl_org.svg" target="_base">
           <rect id="button" ry="5" rx="5" y="6" x="6" height="38" width="38"
                fill="#f2f5e9" fill-opacity="0.5" stroke="#606060" stroke-width="1.0"/>
           <path id="arrow"
             d="M 11.500037,31.436501 C 11.940474,20.09759 22.043105,11.32322 32.158766,21.979434 L 37.068811,17.246167 C 37.068811,17.246167 37.088388,32 37.088388,32 L 22.160133,31.978069 C 22.160133,31.978069 26.997745,27.140456 26.997745,27.140456 C 18.528582,18.264221 13.291696,25.230495 11.500037,31.436501 z"
             style="fill:#404040;"/>
          </a>
         </g>
        </svg>
</svg>
