<?xml version="1.0" encoding="UTF-8" standalone="no"?>
<!DOCTYPE svg PUBLIC "-//W3C//DTD SVG 1.1//EN"
 "http://www.w3.org/Graphics/SVG/1.1/DTD/svg11.dtd">
<!-- Generated by graphviz version 2.36.0 (20140111.2315)
 -->
<!-- Title: BagLoader::callback Pages: 1 -->
<svg width="618pt" height="142pt"
 viewBox="0.00 0.00 618.00 142.00" xmlns="http://www.w3.org/2000/svg" xmlns:xlink="http://www.w3.org/1999/xlink">
<g id="graph0" class="graph" transform="scale(1 1) rotate(0) translate(4 138)">
<title>BagLoader::callback</title>
<polygon fill="white" stroke="none" points="-4,4 -4,-138 614,-138 614,4 -4,4"/>
<!-- Node1 -->
<g id="node1" class="node"><title>Node1</title>
<polygon fill="#bfbfbf" stroke="black" points="0.5,-95.5 0.5,-114.5 105.5,-114.5 105.5,-95.5 0.5,-95.5"/>
<text text-anchor="middle" x="53" y="-102.5" font-family="Helvetica,sans-Serif" font-size="10.00">BagLoader::callback</text>
</g>
<!-- Node2 -->
<g id="node2" class="node"><title>Node2</title>
<g id="a_node2"><a xlink:href="../../d3/d3e/classParameterServer.html#a5457f900e543c5a466bf9b65ee6bc577" target="_top" xlink:title="ParameterServer::instance">
<polygon fill="white" stroke="black" points="354.5,-114.5 354.5,-133.5 487.5,-133.5 487.5,-114.5 354.5,-114.5"/>
<text text-anchor="middle" x="421" y="-121.5" font-family="Helvetica,sans-Serif" font-size="10.00">ParameterServer::instance</text>
</a>
</g>
</g>
<!-- Node1&#45;&gt;Node2 -->
<g id="edge1" class="edge"><title>Node1&#45;&gt;Node2</title>
<path fill="none" stroke="midnightblue" d="M105.663,-107.682C167.828,-110.909 272.73,-116.355 344.099,-120.06"/>
<polygon fill="midnightblue" stroke="midnightblue" points="344.209,-123.57 354.377,-120.593 344.572,-116.58 344.209,-123.57"/>
</g>
<!-- Node3 -->
<g id="node3" class="node"><title>Node3</title>
<g id="a_node3"><a xlink:href="../../d7/ddd/classBagLoader.html#ada6fa9e3fafbcdbdce0a76a4c39004cf" target="_top" xlink:title="Retrieve the transform between the lens and the base&#45;link at capturing time. ">
<polygon fill="white" stroke="black" points="142,-76.5 142,-95.5 318,-95.5 318,-76.5 142,-76.5"/>
<text text-anchor="middle" x="230" y="-83.5" font-family="Helvetica,sans-Serif" font-size="10.00">BagLoader::sendWithTransformation</text>
</a>
</g>
</g>
<!-- Node1&#45;&gt;Node3 -->
<g id="edge2" class="edge"><title>Node1&#45;&gt;Node3</title>
<path fill="none" stroke="midnightblue" d="M105.559,-99.4021C113.837,-98.5034 122.634,-97.5483 131.571,-96.578"/>
<polygon fill="midnightblue" stroke="midnightblue" points="132.137,-100.037 141.7,-95.4783 131.381,-93.0782 132.137,-100.037"/>
</g>
<!-- Node3&#45;&gt;Node2 -->
<g id="edge3" class="edge"><title>Node3&#45;&gt;Node2</title>
<path fill="none" stroke="midnightblue" d="M278.693,-95.589C304.195,-100.716 335.782,-107.067 362.62,-112.463"/>
<polygon fill="midnightblue" stroke="midnightblue" points="362.157,-115.94 372.65,-114.48 363.536,-109.077 362.157,-115.94"/>
</g>
<!-- Node4 -->
<g id="node4" class="node"><title>Node4</title>
<g id="a_node4"><a xlink:href="../../d3/d3e/classParameterServer.html#a3c8af50664e423b555bbb1874f488413" target="_top" xlink:title="ParameterServer::get">
<polygon fill="white" stroke="black" points="366,-76.5 366,-95.5 476,-95.5 476,-76.5 366,-76.5"/>
<text text-anchor="middle" x="421" y="-83.5" font-family="Helvetica,sans-Serif" font-size="10.00">ParameterServer::get</text>
</a>
</g>
</g>
<!-- Node3&#45;&gt;Node4 -->
<g id="edge4" class="edge"><title>Node3&#45;&gt;Node4</title>
<path fill="none" stroke="midnightblue" d="M318.032,-86C330.748,-86 343.645,-86 355.795,-86"/>
<polygon fill="midnightblue" stroke="midnightblue" points="355.805,-89.5001 365.805,-86 355.805,-82.5001 355.805,-89.5001"/>
</g>
<!-- Node5 -->
<g id="node5" class="node"><title>Node5</title>
<g id="a_node5"><a xlink:href="../../d7/d5f/misc_8cpp.html#a3f5a98bfd7988fd43573e8237580486b" target="_top" xlink:title="Conversion Function. ">
<polygon fill="white" stroke="black" points="385,-38.5 385,-57.5 457,-57.5 457,-38.5 385,-38.5"/>
<text text-anchor="middle" x="421" y="-45.5" font-family="Helvetica,sans-Serif" font-size="10.00">g2o2QMatrix</text>
</a>
</g>
</g>
<!-- Node3&#45;&gt;Node5 -->
<g id="edge5" class="edge"><title>Node3&#45;&gt;Node5</title>
<path fill="none" stroke="midnightblue" d="M278.693,-76.411C308.235,-70.4713 345.942,-62.8901 374.973,-57.0531"/>
<polygon fill="midnightblue" stroke="midnightblue" points="375.738,-60.4693 384.852,-55.0668 374.358,-53.6067 375.738,-60.4693"/>
</g>
<!-- Node7 -->
<g id="node7" class="node"><title>Node7</title>
<g id="a_node7"><a xlink:href="../../d7/d5f/misc_8cpp.html#a24fe652a87f594d550c1202bd9d61832" target="_top" xlink:title="Conversion Function. ">
<polygon fill="white" stroke="black" points="397,-0.5 397,-19.5 445,-19.5 445,-0.5 397,-0.5"/>
<text text-anchor="middle" x="421" y="-7.5" font-family="Helvetica,sans-Serif" font-size="10.00">tf2G2O</text>
</a>
</g>
</g>
<!-- Node3&#45;&gt;Node7 -->
<g id="edge7" class="edge"><title>Node3&#45;&gt;Node7</title>
<path fill="none" stroke="midnightblue" d="M249.374,-76.3988C273.092,-64.2606 315.852,-43.2339 354,-29 364.582,-25.0515 376.37,-21.4236 387.022,-18.4197"/>
<polygon fill="midnightblue" stroke="midnightblue" points="388.089,-21.7565 396.81,-15.7408 386.241,-15.0048 388.089,-21.7565"/>
</g>
<!-- Node6 -->
<g id="node6" class="node"><title>Node6</title>
<g id="a_node6"><a xlink:href="../../d7/d5f/misc_8cpp.html#afe9e1e85e61b3925b1121b6a11177591" target="_top" xlink:title="printQMatrix4x4">
<polygon fill="white" stroke="black" points="524,-38.5 524,-57.5 610,-57.5 610,-38.5 524,-38.5"/>
<text text-anchor="middle" x="567" y="-45.5" font-family="Helvetica,sans-Serif" font-size="10.00">printQMatrix4x4</text>
</a>
</g>
</g>
<!-- Node5&#45;&gt;Node6 -->
<g id="edge6" class="edge"><title>Node5&#45;&gt;Node6</title>
<path fill="none" stroke="midnightblue" d="M457.226,-48C474.228,-48 494.969,-48 513.762,-48"/>
<polygon fill="midnightblue" stroke="midnightblue" points="513.967,-51.5001 523.967,-48 513.967,-44.5001 513.967,-51.5001"/>
</g>
</g>
</svg>
