<?xml version="1.0" encoding="UTF-8" standalone="no"?>
<!DOCTYPE svg PUBLIC "-//W3C//DTD SVG 1.1//EN"
 "http://www.w3.org/Graphics/SVG/1.1/DTD/svg11.dtd">
<!-- Generated by graphviz version 2.36.0 (20140111.2315)
 -->
<!-- Title: BagLoader::sendWithTransformation Pages: 1 -->
<svg width="476pt" height="142pt"
 viewBox="0.00 0.00 476.00 142.00" xmlns="http://www.w3.org/2000/svg" xmlns:xlink="http://www.w3.org/1999/xlink">
<g id="graph0" class="graph" transform="scale(1 1) rotate(0) translate(4 138)">
<title>BagLoader::sendWithTransformation</title>
<polygon fill="white" stroke="none" points="-4,4 -4,-138 472,-138 472,4 -4,4"/>
<!-- Node1 -->
<g id="node1" class="node"><title>Node1</title>
<polygon fill="#bfbfbf" stroke="black" points="0,-57.5 0,-76.5 176,-76.5 176,-57.5 0,-57.5"/>
<text text-anchor="middle" x="88" y="-64.5" font-family="Helvetica,sans-Serif" font-size="10.00">BagLoader::sendWithTransformation</text>
</g>
<!-- Node2 -->
<g id="node2" class="node"><title>Node2</title>
<g id="a_node2"><a xlink:href="../../d3/d3e/classParameterServer.html#a5457f900e543c5a466bf9b65ee6bc577" target="_top" xlink:title="ParameterServer::instance">
<polygon fill="white" stroke="black" points="212.5,-114.5 212.5,-133.5 345.5,-133.5 345.5,-114.5 212.5,-114.5"/>
<text text-anchor="middle" x="279" y="-121.5" font-family="Helvetica,sans-Serif" font-size="10.00">ParameterServer::instance</text>
</a>
</g>
</g>
<!-- Node1&#45;&gt;Node2 -->
<g id="edge1" class="edge"><title>Node1&#45;&gt;Node2</title>
<path fill="none" stroke="midnightblue" d="M119.279,-76.5333C144.145,-84.3193 180.303,-95.5422 212,-105 219.309,-107.181 227.086,-109.458 234.641,-111.648"/>
<polygon fill="midnightblue" stroke="midnightblue" points="233.809,-115.05 244.387,-114.46 235.75,-108.324 233.809,-115.05"/>
</g>
<!-- Node3 -->
<g id="node3" class="node"><title>Node3</title>
<g id="a_node3"><a xlink:href="../../d3/d3e/classParameterServer.html#a3c8af50664e423b555bbb1874f488413" target="_top" xlink:title="ParameterServer::get">
<polygon fill="white" stroke="black" points="224,-76.5 224,-95.5 334,-95.5 334,-76.5 224,-76.5"/>
<text text-anchor="middle" x="279" y="-83.5" font-family="Helvetica,sans-Serif" font-size="10.00">ParameterServer::get</text>
</a>
</g>
</g>
<!-- Node1&#45;&gt;Node3 -->
<g id="edge2" class="edge"><title>Node1&#45;&gt;Node3</title>
<path fill="none" stroke="midnightblue" d="M176.032,-75.7492C188.748,-77.0275 201.645,-78.3241 213.795,-79.5455"/>
<polygon fill="midnightblue" stroke="midnightblue" points="213.505,-83.0339 223.805,-80.5518 214.205,-76.069 213.505,-83.0339"/>
</g>
<!-- Node4 -->
<g id="node4" class="node"><title>Node4</title>
<g id="a_node4"><a xlink:href="../../d7/d5f/misc_8cpp.html#a3f5a98bfd7988fd43573e8237580486b" target="_top" xlink:title="Conversion Function. ">
<polygon fill="white" stroke="black" points="243,-38.5 243,-57.5 315,-57.5 315,-38.5 243,-38.5"/>
<text text-anchor="middle" x="279" y="-45.5" font-family="Helvetica,sans-Serif" font-size="10.00">g2o2QMatrix</text>
</a>
</g>
</g>
<!-- Node1&#45;&gt;Node4 -->
<g id="edge3" class="edge"><title>Node1&#45;&gt;Node4</title>
<path fill="none" stroke="midnightblue" d="M176.032,-58.2508C195.608,-56.2828 215.614,-54.2716 232.662,-52.5578"/>
<polygon fill="midnightblue" stroke="midnightblue" points="233.264,-56.015 242.864,-51.5322 232.564,-49.0501 233.264,-56.015"/>
</g>
<!-- Node6 -->
<g id="node6" class="node"><title>Node6</title>
<g id="a_node6"><a xlink:href="../../d7/d5f/misc_8cpp.html#a24fe652a87f594d550c1202bd9d61832" target="_top" xlink:title="Conversion Function. ">
<polygon fill="white" stroke="black" points="255,-0.5 255,-19.5 303,-19.5 303,-0.5 255,-0.5"/>
<text text-anchor="middle" x="279" y="-7.5" font-family="Helvetica,sans-Serif" font-size="10.00">tf2G2O</text>
</a>
</g>
</g>
<!-- Node1&#45;&gt;Node6 -->
<g id="edge5" class="edge"><title>Node1&#45;&gt;Node6</title>
<path fill="none" stroke="midnightblue" d="M119.279,-57.4667C144.145,-49.6807 180.303,-38.4578 212,-29 222.737,-25.7964 234.484,-22.3846 245.053,-19.3492"/>
<polygon fill="midnightblue" stroke="midnightblue" points="246.103,-22.6893 254.754,-16.5733 244.177,-15.9594 246.103,-22.6893"/>
</g>
<!-- Node5 -->
<g id="node5" class="node"><title>Node5</title>
<g id="a_node5"><a xlink:href="../../d7/d5f/misc_8cpp.html#afe9e1e85e61b3925b1121b6a11177591" target="_top" xlink:title="printQMatrix4x4">
<polygon fill="white" stroke="black" points="382,-38.5 382,-57.5 468,-57.5 468,-38.5 382,-38.5"/>
<text text-anchor="middle" x="425" y="-45.5" font-family="Helvetica,sans-Serif" font-size="10.00">printQMatrix4x4</text>
</a>
</g>
</g>
<!-- Node4&#45;&gt;Node5 -->
<g id="edge4" class="edge"><title>Node4&#45;&gt;Node5</title>
<path fill="none" stroke="midnightblue" d="M315.226,-48C332.228,-48 352.969,-48 371.762,-48"/>
<polygon fill="midnightblue" stroke="midnightblue" points="371.967,-51.5001 381.967,-48 371.967,-44.5001 371.967,-51.5001"/>
</g>
</g>
</svg>
