<?xml version="1.0" encoding="UTF-8" standalone="no"?>
<!DOCTYPE svg PUBLIC "-//W3C//DTD SVG 1.1//EN"
 "http://www.w3.org/Graphics/SVG/1.1/DTD/svg11.dtd">
<!-- Generated by graphviz version 2.36.0 (20140111.2315)
 -->
<!-- Title: external/gicp/ann_1.1.2/sample/ann_sample.cpp Pages: 1 -->
<svg width="374pt" height="152pt"
 viewBox="0.00 0.00 374.00 152.00" xmlns="http://www.w3.org/2000/svg" xmlns:xlink="http://www.w3.org/1999/xlink">
<g id="graph0" class="graph" transform="scale(1 1) rotate(0) translate(4 148)">
<title>external/gicp/ann_1.1.2/sample/ann_sample.cpp</title>
<polygon fill="white" stroke="none" points="-4,4 -4,-148 370,-148 370,4 -4,4"/>
<!-- Node1 -->
<g id="node1" class="node"><title>Node1</title>
<polygon fill="#bfbfbf" stroke="black" points="87.5,-113 87.5,-143 212.5,-143 212.5,-113 87.5,-113"/>
<text text-anchor="start" x="95.5" y="-131" font-family="Helvetica,sans-Serif" font-size="10.00">external/gicp/ann_1.1.2</text>
<text text-anchor="middle" x="150" y="-120" font-family="Helvetica,sans-Serif" font-size="10.00">/sample/ann_sample.cpp</text>
</g>
<!-- Node2 -->
<g id="node2" class="node"><title>Node2</title>
<polygon fill="white" stroke="#bfbfbf" points="-0.5,-0.5 -0.5,-19.5 44.5,-19.5 44.5,-0.5 -0.5,-0.5"/>
<text text-anchor="middle" x="22" y="-7.5" font-family="Helvetica,sans-Serif" font-size="10.00">cstdlib</text>
</g>
<!-- Node1&#45;&gt;Node2 -->
<g id="edge1" class="edge"><title>Node1&#45;&gt;Node2</title>
<path fill="none" stroke="midnightblue" d="M133.986,-112.759C122.538,-102.558 106.783,-88.4747 93,-76 74.5632,-59.3136 53.5723,-40.0653 39.225,-26.8705"/>
<polygon fill="midnightblue" stroke="midnightblue" points="41.343,-24.0631 31.6148,-19.8663 36.6025,-29.2137 41.343,-24.0631"/>
</g>
<!-- Node3 -->
<g id="node3" class="node"><title>Node3</title>
<polygon fill="white" stroke="#bfbfbf" points="203.5,-56.5 203.5,-75.5 246.5,-75.5 246.5,-56.5 203.5,-56.5"/>
<text text-anchor="middle" x="225" y="-63.5" font-family="Helvetica,sans-Serif" font-size="10.00">cstdio</text>
</g>
<!-- Node1&#45;&gt;Node3 -->
<g id="edge2" class="edge"><title>Node1&#45;&gt;Node3</title>
<path fill="none" stroke="midnightblue" d="M167.774,-112.781C179.346,-103.523 194.423,-91.4618 206.196,-82.0435"/>
<polygon fill="midnightblue" stroke="midnightblue" points="208.465,-84.7106 214.087,-75.7305 204.092,-79.2445 208.465,-84.7106"/>
</g>
<!-- Node4 -->
<g id="node4" class="node"><title>Node4</title>
<polygon fill="white" stroke="#bfbfbf" points="63,-0.5 63,-19.5 109,-19.5 109,-0.5 63,-0.5"/>
<text text-anchor="middle" x="86" y="-7.5" font-family="Helvetica,sans-Serif" font-size="10.00">cstring</text>
</g>
<!-- Node1&#45;&gt;Node4 -->
<g id="edge3" class="edge"><title>Node1&#45;&gt;Node4</title>
<path fill="none" stroke="midnightblue" d="M134.284,-112.733C124.608,-103.182 112.637,-89.8578 105,-76 97.0202,-61.52 92.074,-43.3346 89.2366,-29.8839"/>
<polygon fill="midnightblue" stroke="midnightblue" points="92.6409,-29.0511 87.3287,-19.8843 85.7649,-30.363 92.6409,-29.0511"/>
</g>
<!-- Node5 -->
<g id="node5" class="node"><title>Node5</title>
<polygon fill="white" stroke="#bfbfbf" points="265,-56.5 265,-75.5 315,-75.5 315,-56.5 265,-56.5"/>
<text text-anchor="middle" x="290" y="-63.5" font-family="Helvetica,sans-Serif" font-size="10.00">fstream</text>
</g>
<!-- Node1&#45;&gt;Node5 -->
<g id="edge4" class="edge"><title>Node1&#45;&gt;Node5</title>
<path fill="none" stroke="midnightblue" d="M182.824,-112.933C206.338,-102.855 237.737,-89.3986 260.466,-79.6575"/>
<polygon fill="midnightblue" stroke="midnightblue" points="262.121,-82.7563 269.933,-75.6 259.363,-76.3223 262.121,-82.7563"/>
</g>
<!-- Node6 -->
<g id="node6" class="node"><title>Node6</title>
<g id="a_node6"><a xlink:href="../../d8/da9/ANN_8h.html" target="_top" xlink:title="ANN/ANN.h">
<polygon fill="white" stroke="black" points="114.5,-56.5 114.5,-75.5 185.5,-75.5 185.5,-56.5 114.5,-56.5"/>
<text text-anchor="middle" x="150" y="-63.5" font-family="Helvetica,sans-Serif" font-size="10.00">ANN/ANN.h</text>
</a>
</g>
</g>
<!-- Node1&#45;&gt;Node6 -->
<g id="edge5" class="edge"><title>Node1&#45;&gt;Node6</title>
<path fill="none" stroke="midnightblue" d="M150,-112.781C150,-104.781 150,-94.6887 150,-86.0168"/>
<polygon fill="midnightblue" stroke="midnightblue" points="153.5,-85.7305 150,-75.7305 146.5,-85.7306 153.5,-85.7305"/>
</g>
<!-- Node6&#45;&gt;Node2 -->
<g id="edge6" class="edge"><title>Node6&#45;&gt;Node2</title>
<path fill="none" stroke="midnightblue" d="M129.718,-56.4435C108.653,-47.5566 75.4832,-33.5632 51.5145,-23.4514"/>
<polygon fill="midnightblue" stroke="midnightblue" points="52.7612,-20.1787 42.1871,-19.5164 50.0403,-26.6283 52.7612,-20.1787"/>
</g>
<!-- Node6&#45;&gt;Node4 -->
<g id="edge9" class="edge"><title>Node6&#45;&gt;Node4</title>
<path fill="none" stroke="midnightblue" d="M139.717,-56.324C130.164,-48.2631 115.72,-36.0765 104.216,-26.3695"/>
<polygon fill="midnightblue" stroke="midnightblue" points="106.37,-23.6076 96.4698,-19.8339 101.856,-28.9577 106.37,-23.6076"/>
</g>
<!-- Node7 -->
<g id="node7" class="node"><title>Node7</title>
<polygon fill="white" stroke="#bfbfbf" points="250,-0.5 250,-19.5 294,-19.5 294,-0.5 250,-0.5"/>
<text text-anchor="middle" x="272" y="-7.5" font-family="Helvetica,sans-Serif" font-size="10.00">cmath</text>
</g>
<!-- Node6&#45;&gt;Node7 -->
<g id="edge7" class="edge"><title>Node6&#45;&gt;Node7</title>
<path fill="none" stroke="midnightblue" d="M169.331,-56.4435C189.32,-47.5961 220.743,-33.6875 243.564,-23.5865"/>
<polygon fill="midnightblue" stroke="midnightblue" points="245.032,-26.7645 252.759,-19.5164 242.198,-20.3635 245.032,-26.7645"/>
</g>
<!-- Node8 -->
<g id="node8" class="node"><title>Node8</title>
<polygon fill="white" stroke="#bfbfbf" points="312,-0.5 312,-19.5 366,-19.5 366,-0.5 312,-0.5"/>
<text text-anchor="middle" x="339" y="-7.5" font-family="Helvetica,sans-Serif" font-size="10.00">iostream</text>
</g>
<!-- Node6&#45;&gt;Node8 -->
<g id="edge8" class="edge"><title>Node6&#45;&gt;Node8</title>
<path fill="none" stroke="midnightblue" d="M179.948,-56.4435C213.01,-46.997 266.268,-31.7807 301.936,-21.5897"/>
<polygon fill="midnightblue" stroke="midnightblue" points="303.295,-24.8416 311.948,-18.729 301.372,-18.111 303.295,-24.8416"/>
</g>
<!-- Node9 -->
<g id="node9" class="node"><title>Node9</title>
<polygon fill="white" stroke="#bfbfbf" points="127.5,-0.5 127.5,-19.5 172.5,-19.5 172.5,-0.5 127.5,-0.5"/>
<text text-anchor="middle" x="150" y="-7.5" font-family="Helvetica,sans-Serif" font-size="10.00">climits</text>
</g>
<!-- Node6&#45;&gt;Node9 -->
<g id="edge10" class="edge"><title>Node6&#45;&gt;Node9</title>
<path fill="none" stroke="midnightblue" d="M150,-56.083C150,-49.0059 150,-38.8611 150,-29.9865"/>
<polygon fill="midnightblue" stroke="midnightblue" points="153.5,-29.751 150,-19.7511 146.5,-29.7511 153.5,-29.751"/>
</g>
<!-- Node10 -->
<g id="node10" class="node"><title>Node10</title>
<polygon fill="white" stroke="#bfbfbf" points="190.5,-0.5 190.5,-19.5 231.5,-19.5 231.5,-0.5 190.5,-0.5"/>
<text text-anchor="middle" x="211" y="-7.5" font-family="Helvetica,sans-Serif" font-size="10.00">cfloat</text>
</g>
<!-- Node6&#45;&gt;Node10 -->
<g id="edge11" class="edge"><title>Node6&#45;&gt;Node10</title>
<path fill="none" stroke="midnightblue" d="M159.801,-56.324C168.818,-48.3414 182.406,-36.3128 193.318,-26.6529"/>
<polygon fill="midnightblue" stroke="midnightblue" points="195.853,-29.083 201.021,-19.8339 191.213,-23.8416 195.853,-29.083"/>
</g>
</g>
</svg>
