<?xml version="1.0" encoding="UTF-8" standalone="no"?>
<!DOCTYPE svg PUBLIC "-//W3C//DTD SVG 1.1//EN"
 "http://www.w3.org/Graphics/SVG/1.1/DTD/svg11.dtd">
<!-- Generated by graphviz version 2.36.0 (20140111.2315)
 -->
<!-- Title: external/gicp/ann_1.1.2/include/ANN/ANNx.h Pages: 1 -->
<svg width="373pt" height="152pt"
 viewBox="0.00 0.00 373.00 152.00" xmlns="http://www.w3.org/2000/svg" xmlns:xlink="http://www.w3.org/1999/xlink">
<g id="graph0" class="graph" transform="scale(1 1) rotate(0) translate(4 148)">
<title>external/gicp/ann_1.1.2/include/ANN/ANNx.h</title>
<polygon fill="white" stroke="none" points="-4,4 -4,-148 369,-148 369,4 -4,4"/>
<!-- Node1 -->
<g id="node1" class="node"><title>Node1</title>
<polygon fill="#bfbfbf" stroke="black" points="87,-113 87,-143 205,-143 205,-113 87,-113"/>
<text text-anchor="start" x="95" y="-131" font-family="Helvetica,sans-Serif" font-size="10.00">external/gicp/ann_1.1.2</text>
<text text-anchor="middle" x="146" y="-120" font-family="Helvetica,sans-Serif" font-size="10.00">/include/ANN/ANNx.h</text>
</g>
<!-- Node2 -->
<g id="node2" class="node"><title>Node2</title>
<polygon fill="white" stroke="#bfbfbf" points="82,-56.5 82,-75.5 132,-75.5 132,-56.5 82,-56.5"/>
<text text-anchor="middle" x="107" y="-63.5" font-family="Helvetica,sans-Serif" font-size="10.00">iomanip</text>
</g>
<!-- Node1&#45;&gt;Node2 -->
<g id="edge1" class="edge"><title>Node1&#45;&gt;Node2</title>
<path fill="none" stroke="midnightblue" d="M136.758,-112.781C131.207,-104.242 124.107,-93.3184 118.234,-84.2834"/>
<polygon fill="midnightblue" stroke="midnightblue" points="121.059,-82.2075 112.675,-75.7305 115.19,-86.0225 121.059,-82.2075"/>
</g>
<!-- Node3 -->
<g id="node3" class="node"><title>Node3</title>
<g id="a_node3"><a xlink:href="../../d8/da9/ANN_8h.html" target="_top" xlink:title="ANN/ANN.h">
<polygon fill="white" stroke="black" points="150.5,-56.5 150.5,-75.5 221.5,-75.5 221.5,-56.5 150.5,-56.5"/>
<text text-anchor="middle" x="186" y="-63.5" font-family="Helvetica,sans-Serif" font-size="10.00">ANN/ANN.h</text>
</a>
</g>
</g>
<!-- Node1&#45;&gt;Node3 -->
<g id="edge2" class="edge"><title>Node1&#45;&gt;Node3</title>
<path fill="none" stroke="midnightblue" d="M155.479,-112.781C161.172,-104.242 168.454,-93.3184 174.478,-84.2834"/>
<polygon fill="midnightblue" stroke="midnightblue" points="177.545,-85.9925 180.18,-75.7305 171.72,-82.1096 177.545,-85.9925"/>
</g>
<!-- Node4 -->
<g id="node4" class="node"><title>Node4</title>
<polygon fill="white" stroke="#bfbfbf" points="-0.5,-0.5 -0.5,-19.5 44.5,-19.5 44.5,-0.5 -0.5,-0.5"/>
<text text-anchor="middle" x="22" y="-7.5" font-family="Helvetica,sans-Serif" font-size="10.00">cstdlib</text>
</g>
<!-- Node3&#45;&gt;Node4 -->
<g id="edge3" class="edge"><title>Node3&#45;&gt;Node4</title>
<path fill="none" stroke="midnightblue" d="M160.014,-56.4435C131.45,-47.0385 85.5172,-31.9142 54.5698,-21.7242"/>
<polygon fill="midnightblue" stroke="midnightblue" points="55.2888,-18.2762 44.6958,-18.473 53.0995,-24.925 55.2888,-18.2762"/>
</g>
<!-- Node5 -->
<g id="node5" class="node"><title>Node5</title>
<polygon fill="white" stroke="#bfbfbf" points="63,-0.5 63,-19.5 107,-19.5 107,-0.5 63,-0.5"/>
<text text-anchor="middle" x="85" y="-7.5" font-family="Helvetica,sans-Serif" font-size="10.00">cmath</text>
</g>
<!-- Node3&#45;&gt;Node5 -->
<g id="edge4" class="edge"><title>Node3&#45;&gt;Node5</title>
<path fill="none" stroke="midnightblue" d="M169.773,-56.324C153.649,-47.7034 128.7,-34.3643 110.036,-24.3855"/>
<polygon fill="midnightblue" stroke="midnightblue" points="111.656,-21.283 101.187,-19.6545 108.356,-27.456 111.656,-21.283"/>
</g>
<!-- Node6 -->
<g id="node6" class="node"><title>Node6</title>
<polygon fill="white" stroke="#bfbfbf" points="125,-0.5 125,-19.5 179,-19.5 179,-0.5 125,-0.5"/>
<text text-anchor="middle" x="152" y="-7.5" font-family="Helvetica,sans-Serif" font-size="10.00">iostream</text>
</g>
<!-- Node3&#45;&gt;Node6 -->
<g id="edge5" class="edge"><title>Node3&#45;&gt;Node6</title>
<path fill="none" stroke="midnightblue" d="M180.386,-56.083C175.633,-48.5341 168.682,-37.4948 162.848,-28.2298"/>
<polygon fill="midnightblue" stroke="midnightblue" points="165.8,-26.3486 157.51,-19.7511 159.876,-30.0783 165.8,-26.3486"/>
</g>
<!-- Node7 -->
<g id="node7" class="node"><title>Node7</title>
<polygon fill="white" stroke="#bfbfbf" points="197,-0.5 197,-19.5 243,-19.5 243,-0.5 197,-0.5"/>
<text text-anchor="middle" x="220" y="-7.5" font-family="Helvetica,sans-Serif" font-size="10.00">cstring</text>
</g>
<!-- Node3&#45;&gt;Node7 -->
<g id="edge6" class="edge"><title>Node3&#45;&gt;Node7</title>
<path fill="none" stroke="midnightblue" d="M191.614,-56.083C196.367,-48.5341 203.318,-37.4948 209.152,-28.2298"/>
<polygon fill="midnightblue" stroke="midnightblue" points="212.124,-30.0783 214.49,-19.7511 206.2,-26.3486 212.124,-30.0783"/>
</g>
<!-- Node8 -->
<g id="node8" class="node"><title>Node8</title>
<polygon fill="white" stroke="#bfbfbf" points="261.5,-0.5 261.5,-19.5 306.5,-19.5 306.5,-0.5 261.5,-0.5"/>
<text text-anchor="middle" x="284" y="-7.5" font-family="Helvetica,sans-Serif" font-size="10.00">climits</text>
</g>
<!-- Node3&#45;&gt;Node8 -->
<g id="edge7" class="edge"><title>Node3&#45;&gt;Node8</title>
<path fill="none" stroke="midnightblue" d="M201.745,-56.324C217.319,-47.7428 241.377,-34.486 259.459,-24.5224"/>
<polygon fill="midnightblue" stroke="midnightblue" points="261.224,-27.546 268.294,-19.6545 257.846,-21.4152 261.224,-27.546"/>
</g>
<!-- Node9 -->
<g id="node9" class="node"><title>Node9</title>
<polygon fill="white" stroke="#bfbfbf" points="324.5,-0.5 324.5,-19.5 365.5,-19.5 365.5,-0.5 324.5,-0.5"/>
<text text-anchor="middle" x="345" y="-7.5" font-family="Helvetica,sans-Serif" font-size="10.00">cfloat</text>
</g>
<!-- Node3&#45;&gt;Node9 -->
<g id="edge8" class="edge"><title>Node3&#45;&gt;Node9</title>
<path fill="none" stroke="midnightblue" d="M211.194,-56.4435C239.359,-46.8782 284.942,-31.3969 314.945,-21.2075"/>
<polygon fill="midnightblue" stroke="midnightblue" points="316.131,-24.501 324.474,-17.971 313.88,-17.8728 316.131,-24.501"/>
</g>
</g>
</svg>
