<?xml version="1.0" encoding="UTF-8" standalone="no"?>
<!DOCTYPE svg PUBLIC "-//W3C//DTD SVG 1.1//EN"
 "http://www.w3.org/Graphics/SVG/1.1/DTD/svg11.dtd">
<!-- Generated by graphviz version 2.36.0 (20140111.2315)
 -->
<!-- Title: ANNbd_shrink Pages: 1 -->
<svg width="108pt" height="304pt"
 viewBox="0.00 0.00 108.00 304.00" xmlns="http://www.w3.org/2000/svg" xmlns:xlink="http://www.w3.org/1999/xlink">
<g id="graph0" class="graph" transform="scale(1 1) rotate(0) translate(4 300)">
<title>ANNbd_shrink</title>
<polygon fill="white" stroke="none" points="-4,4 -4,-300 104,-300 104,4 -4,4"/>
<!-- Node1 -->
<g id="node1" class="node"><title>Node1</title>
<polygon fill="#bfbfbf" stroke="black" points="-0.5,-1 -0.5,-135 100.5,-135 100.5,-1 -0.5,-1"/>
<text text-anchor="middle" x="50" y="-123" font-family="Helvetica,sans-Serif" font-size="10.00">ANNbd_shrink</text>
<polyline fill="none" stroke="black" points="-0.5,-116 100.5,-116 "/>
<text text-anchor="middle" x="50" y="-104" font-family="Helvetica,sans-Serif" font-size="10.00"> </text>
<polyline fill="none" stroke="black" points="-0.5,-97 100.5,-97 "/>
<text text-anchor="start" x="7.5" y="-85" font-family="Helvetica,sans-Serif" font-size="10.00">+ ANNbd_shrink()</text>
<text text-anchor="start" x="7.5" y="-74" font-family="Helvetica,sans-Serif" font-size="10.00">+ ~ANNbd_shrink()</text>
<text text-anchor="start" x="7.5" y="-63" font-family="Helvetica,sans-Serif" font-size="10.00">+ getStats()</text>
<text text-anchor="start" x="7.5" y="-52" font-family="Helvetica,sans-Serif" font-size="10.00">+ print()</text>
<text text-anchor="start" x="7.5" y="-41" font-family="Helvetica,sans-Serif" font-size="10.00">+ dump()</text>
<text text-anchor="start" x="7.5" y="-30" font-family="Helvetica,sans-Serif" font-size="10.00">+ ann_search()</text>
<text text-anchor="start" x="7.5" y="-19" font-family="Helvetica,sans-Serif" font-size="10.00">+ ann_pri_search()</text>
<text text-anchor="start" x="7.5" y="-8" font-family="Helvetica,sans-Serif" font-size="10.00">+ ann_FR_search()</text>
</g>
<!-- Node2 -->
<g id="node2" class="node"><title>Node2</title>
<g id="a_node2"><a xlink:href="../../dc/d39/classANNkd__node.html" target="_top" xlink:title="{ANNkd_node\n||+ ~ANNkd_node()\l+ ann_search()\l+ ann_pri_search()\l+ ann_FR_search()\l+ getStats()\l+ print()\l+ dump()\l}">
<polygon fill="white" stroke="black" points="-0.5,-172.5 -0.5,-295.5 100.5,-295.5 100.5,-172.5 -0.5,-172.5"/>
<text text-anchor="middle" x="50" y="-283.5" font-family="Helvetica,sans-Serif" font-size="10.00">ANNkd_node</text>
<polyline fill="none" stroke="black" points="-0.5,-276.5 100.5,-276.5 "/>
<text text-anchor="middle" x="50" y="-264.5" font-family="Helvetica,sans-Serif" font-size="10.00"> </text>
<polyline fill="none" stroke="black" points="-0.5,-257.5 100.5,-257.5 "/>
<text text-anchor="start" x="7.5" y="-245.5" font-family="Helvetica,sans-Serif" font-size="10.00">+ ~ANNkd_node()</text>
<text text-anchor="start" x="7.5" y="-234.5" font-family="Helvetica,sans-Serif" font-size="10.00">+ ann_search()</text>
<text text-anchor="start" x="7.5" y="-223.5" font-family="Helvetica,sans-Serif" font-size="10.00">+ ann_pri_search()</text>
<text text-anchor="start" x="7.5" y="-212.5" font-family="Helvetica,sans-Serif" font-size="10.00">+ ann_FR_search()</text>
<text text-anchor="start" x="7.5" y="-201.5" font-family="Helvetica,sans-Serif" font-size="10.00">+ getStats()</text>
<text text-anchor="start" x="7.5" y="-190.5" font-family="Helvetica,sans-Serif" font-size="10.00">+ print()</text>
<text text-anchor="start" x="7.5" y="-179.5" font-family="Helvetica,sans-Serif" font-size="10.00">+ dump()</text>
</a>
</g>
</g>
<!-- Node2&#45;&gt;Node1 -->
<g id="edge1" class="edge"><title>Node2&#45;&gt;Node1</title>
<path fill="none" stroke="midnightblue" d="M50,-162.317C50,-153.296 50,-144.088 50,-135.143"/>
<polygon fill="none" stroke="midnightblue" points="46.5001,-162.398 50,-172.398 53.5001,-162.398 46.5001,-162.398"/>
</g>
</g>
</svg>
