<?xml version="1.0" encoding="UTF-8" standalone="no"?>
<!DOCTYPE svg PUBLIC "-//W3C//DTD SVG 1.1//EN"
 "http://www.w3.org/Graphics/SVG/1.1/DTD/svg11.dtd">
<!-- Generated by graphviz version 2.36.0 (20140111.2315)
 -->
<!-- Title: OpenNIListener::waitAndEvaluate Pages: 1 -->
<!--zoomable 833 -->
<svg id="main" version="1.1" xmlns="http://www.w3.org/2000/svg" xmlns:xlink="http://www.w3.org/1999/xlink" xml:space="preserve" onload="init(evt)">
<style type="text/css"><![CDATA[
.edge:hover path { stroke: red; }
.edge:hover polygon { stroke: red; fill: red; }
]]></style>
<script type="text/javascript"><![CDATA[
var edges = document.getElementsByTagName('g');
if (edges && edges.length) {
  for (var i=0;i<edges.length;i++) {
    if (edges[i].id.substr(0,4)=='edge') {
      edges[i].setAttribute('class','edge');
    }
  }
}
]]></script>
        <defs>
                <circle id="rim" cx="0" cy="0" r="7"/>
                <circle id="rim2" cx="0" cy="0" r="3.5"/>
                <g id="zoomPlus">
                        <use xlink:href="#rim" fill="#404040">
                                <set attributeName="fill" to="#808080" begin="zoomplus.mouseover" end="zoomplus.mouseout"/>
                        </use>
                        <path d="M-4,0h8M0,-4v8" fill="none" stroke="white" stroke-width="1.5" pointer-events="none"/>
                </g>
                <g id="zoomMin">
                        <use xlink:href="#rim" fill="#404040">
                                <set attributeName="fill" to="#808080" begin="zoomminus.mouseover" end="zoomminus.mouseout"/>
                        </use>
                        <path d="M-4,0h8" fill="none" stroke="white" stroke-width="1.5" pointer-events="none"/>
                </g>
                <g id="dirArrow">
                        <path fill="none" stroke="white" stroke-width="1.5" d="M0,-3.0v7 M-2.5,-0.5L0,-3.0L2.5,-0.5"/>
                </g>
               <g id="resetDef">
                       <use xlink:href="#rim2" fill="#404040">
                               <set attributeName="fill" to="#808080" begin="reset.mouseover" end="reset.mouseout"/>
                       </use>
               </g>
        </defs>

<script type="text/javascript">
var viewWidth = 1708;
var viewHeight = 833;
var sectionId = 'dynsection-23';
</script>
<script xlink:href="../../svgpan.js"/>
<svg id="graph" class="graph">
<g id="viewport">
<title>OpenNIListener::waitAndEvaluate</title>
<polygon fill="white" stroke="none" points="-4,4 -4,-828.921 1704,-828.921 1704,4 -4,4"/>
<!-- Node1 -->
<g id="node1" class="node"><title>Node1</title>
<polygon fill="#bfbfbf" stroke="black" points="0,-710.421 0,-729.421 164,-729.421 164,-710.421 0,-710.421"/>
<text text-anchor="middle" x="82" y="-717.421" font-family="Helvetica,sans-Serif" font-size="10.00">OpenNIListener::waitAndEvaluate</text>
</g>
<!-- Node2 -->
<g id="node2" class="node"><title>Node2</title>
<g id="a_node2"><a xlink:href="../../d0/d8b/classGraphManager.html#a561571f6115342c8c62173ee084f921a" target="_top" xlink:title="Used by OpenNIListener. Indicates whether long running computations are running. ">
<polygon fill="white" stroke="black" points="210,-805.421 210,-824.421 326,-824.421 326,-805.421 210,-805.421"/>
<text text-anchor="middle" x="268" y="-812.421" font-family="Helvetica,sans-Serif" font-size="10.00">GraphManager::isBusy</text>
</a>
</g>
</g>
<!-- Node1&#45;&gt;Node2 -->
<g id="edge1" class="edge"><title>Node1&#45;&gt;Node2</title>
<path fill="none" stroke="midnightblue" d="M96.8912,-729.626C118.296,-744.281 160.963,-772.319 200,-790.921 208.437,-794.942 217.737,-798.682 226.655,-801.956"/>
<polygon fill="midnightblue" stroke="midnightblue" points="225.527,-805.269 236.121,-805.317 227.869,-798.673 225.527,-805.269"/>
</g>
<!-- Node3 -->
<g id="node3" class="node"><title>Node3</title>
<g id="a_node3"><a xlink:href="../../d3/d3e/classParameterServer.html#a5457f900e543c5a466bf9b65ee6bc577" target="_top" xlink:title="ParameterServer::instance">
<polygon fill="white" stroke="black" points="1553.5,-546.421 1553.5,-565.421 1686.5,-565.421 1686.5,-546.421 1553.5,-546.421"/>
<text text-anchor="middle" x="1620" y="-553.421" font-family="Helvetica,sans-Serif" font-size="10.00">ParameterServer::instance</text>
</a>
</g>
</g>
<!-- Node1&#45;&gt;Node3 -->
<g id="edge2" class="edge"><title>Node1&#45;&gt;Node3</title>
<path fill="none" stroke="midnightblue" d="M119.286,-729.462C184.29,-745.688 325.112,-776.921 446,-776.921 446,-776.921 446,-776.921 1226,-776.921 1352.5,-776.921 1398.32,-785.434 1504,-715.921 1558.39,-680.145 1595.47,-609.137 1610.91,-575.052"/>
<polygon fill="midnightblue" stroke="midnightblue" points="1614.19,-576.302 1615.01,-565.739 1607.78,-573.485 1614.19,-576.302"/>
</g>
<!-- Node4 -->
<g id="node4" class="node"><title>Node4</title>
<g id="a_node4"><a xlink:href="../../d3/d3e/classParameterServer.html#a3c8af50664e423b555bbb1874f488413" target="_top" xlink:title="ParameterServer::get">
<polygon fill="white" stroke="black" points="1565,-300.421 1565,-319.421 1675,-319.421 1675,-300.421 1565,-300.421"/>
<text text-anchor="middle" x="1620" y="-307.421" font-family="Helvetica,sans-Serif" font-size="10.00">ParameterServer::get</text>
</a>
</g>
</g>
<!-- Node1&#45;&gt;Node4 -->
<g id="edge3" class="edge"><title>Node1&#45;&gt;Node4</title>
<path fill="none" stroke="midnightblue" d="M83.5532,-710.395C88.7886,-629.724 136.538,-63.9213 446,-63.9213 446,-63.9213 446,-63.9213 850,-63.9213 1155.59,-63.9213 1498.4,-242.331 1593.41,-295.279"/>
<polygon fill="midnightblue" stroke="midnightblue" points="1591.88,-298.432 1602.31,-300.278 1595.31,-292.329 1591.88,-298.432"/>
</g>
<!-- Node5 -->
<g id="node5" class="node"><title>Node5</title>
<g id="a_node5"><a xlink:href="../../dc/d96/classOpenNIListener.html#ad378bcf21f209a9ee72357a4ac034f5e" target="_top" xlink:title="Perform scientific evaluations and write according logs. ">
<polygon fill="white" stroke="black" points="200.5,-653.421 200.5,-672.421 335.5,-672.421 335.5,-653.421 200.5,-653.421"/>
<text text-anchor="middle" x="268" y="-660.421" font-family="Helvetica,sans-Serif" font-size="10.00">OpenNIListener::evaluation</text>
</a>
</g>
</g>
<!-- Node1&#45;&gt;Node5 -->
<g id="edge4" class="edge"><title>Node1&#45;&gt;Node5</title>
<path fill="none" stroke="midnightblue" d="M113.797,-710.381C144.711,-700.804 192.498,-686.001 226.474,-675.476"/>
<polygon fill="midnightblue" stroke="midnightblue" points="227.586,-678.795 236.102,-672.493 225.514,-672.109 227.586,-678.795"/>
</g>
<!-- Node5&#45;&gt;Node3 -->
<g id="edge46" class="edge"><title>Node5&#45;&gt;Node3</title>
<path fill="none" stroke="midnightblue" d="M335.864,-664.254C443.655,-666.285 662.526,-669.921 848,-669.921 848,-669.921 848,-669.921 1226,-669.921 1351.02,-669.921 1386.7,-670.178 1504,-626.921 1539.99,-613.65 1576.91,-588.376 1598.9,-571.84"/>
<polygon fill="midnightblue" stroke="midnightblue" points="1601.28,-574.419 1607.09,-565.557 1597.03,-568.863 1601.28,-574.419"/>
</g>
<!-- Node6 -->
<g id="node6" class="node"><title>Node6</title>
<g id="a_node6"><a xlink:href="../../d0/d8b/classGraphManager.html#a485d97d70bb895457ccd9538fbbb3bf6" target="_top" xlink:title="GraphManager::optimizeGraph">
<polygon fill="white" stroke="black" points="372.5,-615.421 372.5,-634.421 521.5,-634.421 521.5,-615.421 372.5,-615.421"/>
<text text-anchor="middle" x="447" y="-622.421" font-family="Helvetica,sans-Serif" font-size="10.00">GraphManager::optimizeGraph</text>
</a>
</g>
</g>
<!-- Node5&#45;&gt;Node6 -->
<g id="edge5" class="edge"><title>Node5&#45;&gt;Node6</title>
<path fill="none" stroke="midnightblue" d="M313.665,-653.332C337.337,-648.25 366.608,-641.966 391.597,-636.601"/>
<polygon fill="midnightblue" stroke="midnightblue" points="392.614,-639.962 401.657,-634.441 391.145,-633.118 392.614,-639.962"/>
</g>
<!-- Node26 -->
<g id="node26" class="node"><title>Node26</title>
<g id="a_node26"><a xlink:href="../../d0/d8b/classGraphManager.html#a45a53c00024a0a49b4d6bf0ed1dd31f8" target="_top" xlink:title="GraphManager::setOptimizer\lVerbose">
<polygon fill="white" stroke="black" points="376,-565.921 376,-595.921 518,-595.921 518,-565.921 376,-565.921"/>
<text text-anchor="start" x="384" y="-583.921" font-family="Helvetica,sans-Serif" font-size="10.00">GraphManager::setOptimizer</text>
<text text-anchor="middle" x="447" y="-572.921" font-family="Helvetica,sans-Serif" font-size="10.00">Verbose</text>
</a>
</g>
</g>
<!-- Node5&#45;&gt;Node26 -->
<g id="edge38" class="edge"><title>Node5&#45;&gt;Node26</title>
<path fill="none" stroke="midnightblue" d="M284.26,-653.333C303.987,-641.209 339.653,-620.197 372,-605.921 377.04,-603.697 382.344,-601.549 387.701,-599.509"/>
<polygon fill="midnightblue" stroke="midnightblue" points="389.177,-602.696 397.356,-595.961 386.762,-596.125 389.177,-602.696"/>
</g>
<!-- Node27 -->
<g id="node27" class="node"><title>Node27</title>
<g id="a_node27"><a xlink:href="../../d0/d8b/classGraphManager.html#a51350a2c24455bef6c8829f38d1f4d12" target="_top" xlink:title="Save trajectory of computed motion and ground truth (if available) ">
<polygon fill="white" stroke="black" points="1344.5,-73.4213 1344.5,-92.4213 1495.5,-92.4213 1495.5,-73.4213 1344.5,-73.4213"/>
<text text-anchor="middle" x="1420" y="-80.4213" font-family="Helvetica,sans-Serif" font-size="10.00">GraphManager::saveTrajectory</text>
</a>
</g>
</g>
<!-- Node5&#45;&gt;Node27 -->
<g id="edge39" class="edge"><title>Node5&#45;&gt;Node27</title>
<path fill="none" stroke="midnightblue" d="M274.86,-653.329C311.325,-594.448 513.717,-279.249 762,-120.921 957.671,3.85657 1256.45,-45.4495 1371.53,-71.1433"/>
<polygon fill="midnightblue" stroke="midnightblue" points="1370.91,-74.5923 1381.44,-73.3998 1372.47,-67.7669 1370.91,-74.5923"/>
</g>
<!-- Node30 -->
<g id="node30" class="node"><title>Node30</title>
<g id="a_node30"><a xlink:href="../../d3/d3e/classParameterServer.html#a283ff3ea4a3c4da048e3f5dee57c58f9" target="_top" xlink:title="ParameterServer::set">
<polygon fill="white" stroke="black" points="392,-691.421 392,-710.421 502,-710.421 502,-691.421 392,-691.421"/>
<text text-anchor="middle" x="447" y="-698.421" font-family="Helvetica,sans-Serif" font-size="10.00">ParameterServer::set</text>
</a>
</g>
</g>
<!-- Node5&#45;&gt;Node30 -->
<g id="edge47" class="edge"><title>Node5&#45;&gt;Node30</title>
<path fill="none" stroke="midnightblue" d="M313.665,-672.51C337.337,-677.593 366.608,-683.877 391.597,-689.242"/>
<polygon fill="midnightblue" stroke="midnightblue" points="391.145,-692.724 401.657,-691.401 392.614,-685.88 391.145,-692.724"/>
</g>
<!-- Node31 -->
<g id="node31" class="node"><title>Node31</title>
<g id="a_node31"><a xlink:href="../../d0/d8b/classGraphManager.html#a7f781c691c5feade4b935f21809c635d" target="_top" xlink:title="GraphManager::pruneEdges\lWithErrorAbove">
<polygon fill="white" stroke="black" points="573,-711.921 573,-741.921 711,-741.921 711,-711.921 573,-711.921"/>
<text text-anchor="start" x="581" y="-729.921" font-family="Helvetica,sans-Serif" font-size="10.00">GraphManager::pruneEdges</text>
<text text-anchor="middle" x="642" y="-718.921" font-family="Helvetica,sans-Serif" font-size="10.00">WithErrorAbove</text>
</a>
</g>
</g>
<!-- Node5&#45;&gt;Node31 -->
<g id="edge48" class="edge"><title>Node5&#45;&gt;Node31</title>
<path fill="none" stroke="midnightblue" d="M281.458,-672.455C300.002,-686.005 336.504,-710.26 372,-719.921 434.464,-736.922 508.12,-737.569 562.552,-734.586"/>
<polygon fill="midnightblue" stroke="midnightblue" points="563.056,-738.062 572.828,-733.967 562.636,-731.074 563.056,-738.062"/>
</g>
<!-- Node6&#45;&gt;Node3 -->
<g id="edge6" class="edge"><title>Node6&#45;&gt;Node3</title>
<path fill="none" stroke="midnightblue" d="M521.717,-626.984C601.97,-629.048 734.094,-631.921 848,-631.921 848,-631.921 848,-631.921 1226,-631.921 1350.59,-631.921 1382.74,-624.538 1504,-595.921 1532.49,-589.196 1563.82,-578.04 1586.57,-569.215"/>
<polygon fill="midnightblue" stroke="midnightblue" points="1588.05,-572.394 1596.07,-565.473 1585.48,-565.882 1588.05,-572.394"/>
</g>
<!-- Node7 -->
<g id="node7" class="node"><title>Node7</title>
<g id="a_node7"><a xlink:href="../../d0/d8b/classGraphManager.html#aa29c73b4f404c4f89694f91c9af3e6a6" target="_top" xlink:title="Applies g2o for optimization returns chi2. ">
<polygon fill="white" stroke="black" points="558,-344.421 558,-363.421 726,-363.421 726,-344.421 558,-344.421"/>
<text text-anchor="middle" x="642" y="-351.421" font-family="Helvetica,sans-Serif" font-size="10.00">GraphManager::optimizeGraphImpl</text>
</a>
</g>
</g>
<!-- Node6&#45;&gt;Node7 -->
<g id="edge7" class="edge"><title>Node6&#45;&gt;Node7</title>
<path fill="none" stroke="midnightblue" d="M504.34,-615.358C510.721,-612.685 516.792,-609.273 522,-604.921 597.204,-542.087 627.998,-420.853 637.5,-373.524"/>
<polygon fill="midnightblue" stroke="midnightblue" points="640.951,-374.113 639.387,-363.634 634.075,-372.801 640.951,-374.113"/>
</g>
<!-- Node7&#45;&gt;Node3 -->
<g id="edge8" class="edge"><title>Node7&#45;&gt;Node3</title>
<path fill="none" stroke="midnightblue" d="M646.668,-363.685C658.397,-393.508 698.019,-484.035 762,-527.921 867.435,-600.242 914.145,-593.921 1042,-593.921 1042,-593.921 1042,-593.921 1226,-593.921 1339,-593.921 1469.43,-578.164 1547.99,-566.943"/>
<polygon fill="midnightblue" stroke="midnightblue" points="1548.85,-570.355 1558.25,-565.461 1547.85,-563.427 1548.85,-570.355"/>
</g>
<!-- Node7&#45;&gt;Node4 -->
<g id="edge9" class="edge"><title>Node7&#45;&gt;Node4</title>
<path fill="none" stroke="midnightblue" d="M655.298,-344.178C675.95,-328.446 719.52,-297.904 762,-284.921 881.284,-248.466 917.269,-265.921 1042,-265.921 1042,-265.921 1042,-265.921 1226,-265.921 1349.84,-265.921 1381.39,-267.499 1504,-284.921 1526.51,-288.12 1551.18,-293.262 1571.88,-298.054"/>
<polygon fill="midnightblue" stroke="midnightblue" points="1571.16,-301.48 1581.7,-300.368 1572.77,-294.666 1571.16,-301.48"/>
</g>
<!-- Node8 -->
<g id="node8" class="node"><title>Node8</title>
<g id="a_node8"><a xlink:href="../../d4/d1a/graph__manager_8cpp.html#a3e690180d75a521b31a3d4b402793d5e" target="_top" xlink:title="fixationOfVertices">
<polygon fill="white" stroke="black" points="801.5,-218.421 801.5,-237.421 896.5,-237.421 896.5,-218.421 801.5,-218.421"/>
<text text-anchor="middle" x="849" y="-225.421" font-family="Helvetica,sans-Serif" font-size="10.00">fixationOfVertices</text>
</a>
</g>
</g>
<!-- Node7&#45;&gt;Node8 -->
<g id="edge10" class="edge"><title>Node7&#45;&gt;Node8</title>
<path fill="none" stroke="midnightblue" d="M651.514,-344.188C669.734,-323.96 714.713,-277.167 762,-251.921 771.223,-246.997 781.555,-243.002 791.772,-239.788"/>
<polygon fill="midnightblue" stroke="midnightblue" points="792.88,-243.111 801.493,-236.941 790.912,-236.393 792.88,-243.111"/>
</g>
<!-- Node9 -->
<g id="node9" class="node"><title>Node9</title>
<g id="a_node9"><a xlink:href="../../d0/d8b/classGraphManager.html#a802422b66dc417f4125842b53da8183a" target="_top" xlink:title="GraphManager::last\l_added_cam_vertex_id">
<polygon fill="white" stroke="black" points="790.5,-168.921 790.5,-198.921 907.5,-198.921 907.5,-168.921 790.5,-168.921"/>
<text text-anchor="start" x="798.5" y="-186.921" font-family="Helvetica,sans-Serif" font-size="10.00">GraphManager::last</text>
<text text-anchor="middle" x="849" y="-175.921" font-family="Helvetica,sans-Serif" font-size="10.00">_added_cam_vertex_id</text>
</a>
</g>
</g>
<!-- Node7&#45;&gt;Node9 -->
<g id="edge11" class="edge"><title>Node7&#45;&gt;Node9</title>
<path fill="none" stroke="midnightblue" d="M648.226,-344.098C662.655,-317.938 705.733,-246.046 762,-208.921 767.755,-205.124 774.097,-201.892 780.649,-199.144"/>
<polygon fill="midnightblue" stroke="midnightblue" points="782.253,-202.279 790.356,-195.454 779.765,-195.736 782.253,-202.279"/>
</g>
<!-- Node10 -->
<g id="node10" class="node"><title>Node10</title>
<g id="a_node10"><a xlink:href="../../d4/d08/misc_8h.html#a7bd6e35e893b731601e2239721f03ae9" target="_top" xlink:title="eigenTransf2TF">
<polygon fill="white" stroke="black" points="1577.5,-35.4213 1577.5,-54.4213 1662.5,-54.4213 1662.5,-35.4213 1577.5,-35.4213"/>
<text text-anchor="middle" x="1620" y="-42.4213" font-family="Helvetica,sans-Serif" font-size="10.00">eigenTransf2TF</text>
</a>
</g>
</g>
<!-- Node7&#45;&gt;Node10 -->
<g id="edge12" class="edge"><title>Node7&#45;&gt;Node10</title>
<path fill="none" stroke="midnightblue" d="M644.59,-344.24C651.161,-307.644 679.833,-176.989 762,-120.921 1018.69,54.2321 1424.16,-5.10557 1567.07,-33.4835"/>
<polygon fill="midnightblue" stroke="midnightblue" points="1566.8,-37.0004 1577.3,-35.5516 1568.19,-30.1392 1566.8,-37.0004"/>
</g>
<!-- Node11 -->
<g id="node11" class="node"><title>Node11</title>
<g id="a_node11"><a xlink:href="../../d0/d8b/classGraphManager.html#a5ed6dafc45d6736bb5fbbe0ba5cc1d89" target="_top" xlink:title="GraphManager::stampedTransform\lInWorldFrame">
<polygon fill="white" stroke="black" points="1336,-294.921 1336,-324.921 1504,-324.921 1504,-294.921 1336,-294.921"/>
<text text-anchor="start" x="1344" y="-312.921" font-family="Helvetica,sans-Serif" font-size="10.00">GraphManager::stampedTransform</text>
<text text-anchor="middle" x="1420" y="-301.921" font-family="Helvetica,sans-Serif" font-size="10.00">InWorldFrame</text>
</a>
</g>
</g>
<!-- Node7&#45;&gt;Node11 -->
<g id="edge13" class="edge"><title>Node7&#45;&gt;Node11</title>
<path fill="none" stroke="midnightblue" d="M691.426,-363.434C712.944,-367.2 738.641,-371.068 762,-372.921 839.091,-379.037 859.023,-380.336 936,-372.921 952.225,-371.358 955.904,-368.491 972,-365.921 1038,-355.383 1215.12,-333.955 1325.56,-320.875"/>
<polygon fill="midnightblue" stroke="midnightblue" points="1326.18,-324.326 1335.7,-319.675 1325.36,-317.374 1326.18,-324.326"/>
</g>
<!-- Node13 -->
<g id="node13" class="node"><title>Node13</title>
<g id="a_node13"><a xlink:href="../../d0/d8b/classGraphManager.html#a4347303a3197042850f9d2226c70bfc9" target="_top" xlink:title="Broadcast given transform. ">
<polygon fill="white" stroke="black" points="762.5,-130.421 762.5,-149.421 935.5,-149.421 935.5,-130.421 762.5,-130.421"/>
<text text-anchor="middle" x="849" y="-137.421" font-family="Helvetica,sans-Serif" font-size="10.00">GraphManager::broadcastTransform</text>
</a>
</g>
</g>
<!-- Node7&#45;&gt;Node13 -->
<g id="edge17" class="edge"><title>Node7&#45;&gt;Node13</title>
<path fill="none" stroke="midnightblue" d="M645.84,-344.331C655.838,-312.335 692.609,-208.476 762,-158.921 764.675,-157.011 767.508,-155.287 770.452,-153.732"/>
<polygon fill="midnightblue" stroke="midnightblue" points="771.939,-156.901 779.576,-149.557 769.027,-150.536 771.939,-156.901"/>
</g>
<!-- Node15 -->
<g id="node15" class="node"><title>Node15</title>
<g id="a_node15"><a xlink:href="../../d0/d8b/classGraphManager.html#a1c8c6572bc4dd18f271496bc7f0d549c" target="_top" xlink:title="GraphManager::updateCloud\lOrigin">
<polygon fill="white" stroke="black" points="972.5,-534.921 972.5,-564.921 1113.5,-564.921 1113.5,-534.921 972.5,-534.921"/>
<text text-anchor="start" x="980.5" y="-552.921" font-family="Helvetica,sans-Serif" font-size="10.00">GraphManager::updateCloud</text>
<text text-anchor="middle" x="1043" y="-541.921" font-family="Helvetica,sans-Serif" font-size="10.00">Origin</text>
</a>
</g>
</g>
<!-- Node7&#45;&gt;Node15 -->
<g id="edge19" class="edge"><title>Node7&#45;&gt;Node15</title>
<path fill="none" stroke="midnightblue" d="M648.547,-363.46C663.447,-388.173 706.966,-454.594 762,-486.921 823.427,-523.004 903.581,-538.433 962.381,-545.024"/>
<polygon fill="midnightblue" stroke="midnightblue" points="962.051,-548.509 972.364,-546.082 962.788,-541.548 962.051,-548.509"/>
</g>
<!-- Node16 -->
<g id="node16" class="node"><title>Node16</title>
<g id="a_node16"><a xlink:href="../../d0/d8b/classGraphManager.html#a9f80605d0434d29938fd8a7258156c24" target="_top" xlink:title="GraphManager::renderToOctomap">
<polygon fill="white" stroke="black" points="767,-458.421 767,-477.421 931,-477.421 931,-458.421 767,-458.421"/>
<text text-anchor="middle" x="849" y="-465.421" font-family="Helvetica,sans-Serif" font-size="10.00">GraphManager::renderToOctomap</text>
</a>
</g>
</g>
<!-- Node7&#45;&gt;Node16 -->
<g id="edge20" class="edge"><title>Node7&#45;&gt;Node16</title>
<path fill="none" stroke="midnightblue" d="M651.841,-363.451C670.328,-382.766 715.245,-426.591 762,-448.921 767.215,-451.412 772.765,-453.581 778.437,-455.47"/>
<polygon fill="midnightblue" stroke="midnightblue" points="777.475,-458.836 788.06,-458.391 779.508,-452.138 777.475,-458.836"/>
</g>
<!-- Node21 -->
<g id="node21" class="node"><title>Node21</title>
<g id="a_node21"><a xlink:href="../../d0/d8b/classGraphManager.html#a72b82d3cb977a1901c70c5aebac7c903" target="_top" xlink:title="Return pointer to a list of the optimizers graph edges on the heap(!) ">
<polygon fill="white" stroke="black" points="772,-420.421 772,-439.421 926,-439.421 926,-420.421 772,-420.421"/>
<text text-anchor="middle" x="849" y="-427.421" font-family="Helvetica,sans-Serif" font-size="10.00">GraphManager::getGraphEdges</text>
</a>
</g>
</g>
<!-- Node7&#45;&gt;Node21 -->
<g id="edge33" class="edge"><title>Node7&#45;&gt;Node21</title>
<path fill="none" stroke="midnightblue" d="M662.453,-363.428C685.741,-374.572 726.105,-393.141 762,-405.921 774.099,-410.229 787.374,-414.262 799.797,-417.748"/>
<polygon fill="midnightblue" stroke="midnightblue" points="798.969,-421.15 809.539,-420.42 800.821,-414.399 798.969,-421.15"/>
</g>
<!-- Node22 -->
<g id="node22" class="node"><title>Node22</title>
<g id="a_node22"><a xlink:href="../../d0/d8b/classGraphManager.html#a4aa1914e94c6a0d60f698d45811a01ef" target="_top" xlink:title="Return pointer to a list of the optimizers graph poses on the heap(!) ">
<polygon fill="white" stroke="black" points="779.5,-294.921 779.5,-324.921 918.5,-324.921 918.5,-294.921 779.5,-294.921"/>
<text text-anchor="start" x="787.5" y="-312.921" font-family="Helvetica,sans-Serif" font-size="10.00">GraphManager::getAllPoses</text>
<text text-anchor="middle" x="849" y="-301.921" font-family="Helvetica,sans-Serif" font-size="10.00">AsMatrixList</text>
</a>
</g>
</g>
<!-- Node7&#45;&gt;Node22 -->
<g id="edge34" class="edge"><title>Node7&#45;&gt;Node22</title>
<path fill="none" stroke="midnightblue" d="M687.482,-344.374C711.394,-339.242 741.588,-332.761 769.319,-326.809"/>
<polygon fill="midnightblue" stroke="midnightblue" points="770.366,-330.164 779.408,-324.643 768.897,-323.32 770.366,-330.164"/>
</g>
<!-- Node25 -->
<g id="node25" class="node"><title>Node25</title>
<g id="a_node25"><a xlink:href="../../d7/d12/classScopedTimer.html#acb1a3efcc11ddfb39b059611f7e548ab" target="_top" xlink:title="Get time since construction. ">
<polygon fill="white" stroke="black" points="792,-344.421 792,-363.421 906,-363.421 906,-344.421 792,-344.421"/>
<text text-anchor="middle" x="849" y="-351.421" font-family="Helvetica,sans-Serif" font-size="10.00">ScopedTimer::elapsed</text>
</a>
</g>
</g>
<!-- Node7&#45;&gt;Node25 -->
<g id="edge37" class="edge"><title>Node7&#45;&gt;Node25</title>
<path fill="none" stroke="midnightblue" d="M726.086,-353.921C744.549,-353.921 763.884,-353.921 781.576,-353.921"/>
<polygon fill="midnightblue" stroke="midnightblue" points="781.783,-357.421 791.783,-353.921 781.783,-350.421 781.783,-357.421"/>
</g>
<!-- Node11&#45;&gt;Node3 -->
<g id="edge14" class="edge"><title>Node11&#45;&gt;Node3</title>
<path fill="none" stroke="midnightblue" d="M1433.74,-325.253C1450.1,-344.987 1479.34,-380.371 1504,-410.921 1540.81,-456.516 1583.54,-510.741 1605.07,-538.157"/>
<polygon fill="midnightblue" stroke="midnightblue" points="1602.59,-540.669 1611.52,-546.375 1608.1,-536.348 1602.59,-540.669"/>
</g>
<!-- Node11&#45;&gt;Node4 -->
<g id="edge15" class="edge"><title>Node11&#45;&gt;Node4</title>
<path fill="none" stroke="midnightblue" d="M1504.11,-309.921C1520.95,-309.921 1538.42,-309.921 1554.51,-309.921"/>
<polygon fill="midnightblue" stroke="midnightblue" points="1554.85,-313.421 1564.85,-309.921 1554.85,-306.421 1554.85,-313.421"/>
</g>
<!-- Node12 -->
<g id="node12" class="node"><title>Node12</title>
<g id="a_node12"><a xlink:href="../../df/dd0/classNode.html#adaf50ff94906ea43c16b79fe0e3547ab" target="_top" xlink:title="Transform, e.g., from kinematics. ">
<polygon fill="white" stroke="black" points="1540.5,-177.421 1540.5,-196.421 1699.5,-196.421 1699.5,-177.421 1540.5,-177.421"/>
<text text-anchor="middle" x="1620" y="-184.421" font-family="Helvetica,sans-Serif" font-size="10.00">Node::getBase2PointsTransform</text>
</a>
</g>
</g>
<!-- Node11&#45;&gt;Node12 -->
<g id="edge16" class="edge"><title>Node11&#45;&gt;Node12</title>
<path fill="none" stroke="midnightblue" d="M1445.28,-294.839C1483.36,-271.184 1556.7,-225.624 1594.76,-201.982"/>
<polygon fill="midnightblue" stroke="midnightblue" points="1596.98,-204.72 1603.63,-196.471 1593.29,-198.774 1596.98,-204.72"/>
</g>
<!-- Node14 -->
<g id="node14" class="node"><title>Node14</title>
<g id="a_node14"><a xlink:href="../../de/d83/graph__manager_8h.html#a2e10953ff4a21d6e02d9574a3b2740b8" target="_top" xlink:title="Send node&#39;s pointcloud with given publisher and timestamp. ">
<polygon fill="white" stroke="black" points="1006.5,-130.421 1006.5,-149.421 1079.5,-149.421 1079.5,-130.421 1006.5,-130.421"/>
<text text-anchor="middle" x="1043" y="-137.421" font-family="Helvetica,sans-Serif" font-size="10.00">publishCloud</text>
</a>
</g>
</g>
<!-- Node13&#45;&gt;Node14 -->
<g id="edge18" class="edge"><title>Node13&#45;&gt;Node14</title>
<path fill="none" stroke="midnightblue" d="M935.612,-139.921C956.44,-139.921 977.928,-139.921 996.092,-139.921"/>
<polygon fill="midnightblue" stroke="midnightblue" points="996.094,-143.421 1006.09,-139.921 996.094,-136.421 996.094,-143.421"/>
</g>
<!-- Node16&#45;&gt;Node3 -->
<g id="edge30" class="edge"><title>Node16&#45;&gt;Node3</title>
<path fill="none" stroke="midnightblue" d="M914.258,-477.458C932.882,-480.207 953.249,-483.199 972,-485.921 1133.72,-509.403 1173.44,-521.166 1336,-537.921 1406.11,-545.147 1486.3,-549.92 1543.38,-552.724"/>
<polygon fill="midnightblue" stroke="midnightblue" points="1543.24,-556.222 1553.4,-553.208 1543.58,-549.23 1543.24,-556.222"/>
</g>
<!-- Node16&#45;&gt;Node4 -->
<g id="edge31" class="edge"><title>Node16&#45;&gt;Node4</title>
<path fill="none" stroke="midnightblue" d="M916.807,-458.348C923.584,-455.879 930.125,-452.788 936,-448.921 958.873,-433.867 948.432,-412.863 972,-398.921 1023.25,-368.602 1445.25,-343.624 1504,-333.921 1525,-330.453 1547.99,-325.824 1567.86,-321.557"/>
<polygon fill="midnightblue" stroke="midnightblue" points="1568.61,-324.976 1577.64,-319.432 1567.12,-318.135 1568.61,-324.976"/>
</g>
<!-- Node16&#45;&gt;Node15 -->
<g id="edge21" class="edge"><title>Node16&#45;&gt;Node15</title>
<path fill="none" stroke="midnightblue" d="M872.401,-477.488C902.859,-490.496 958.02,-514.055 997.157,-530.77"/>
<polygon fill="midnightblue" stroke="midnightblue" points="996.166,-534.152 1006.74,-534.861 998.915,-527.715 996.166,-534.152"/>
</g>
<!-- Node17 -->
<g id="node17" class="node"><title>Node17</title>
<g id="a_node17"><a xlink:href="../../d7/ddc/classColorOctomapServer.html#ac16ce374c11799891e316f637acbd2e7" target="_top" xlink:title="ColorOctomapServer\l::insertCloudCallback">
<polygon fill="white" stroke="black" points="988,-446.921 988,-476.921 1098,-476.921 1098,-446.921 988,-446.921"/>
<text text-anchor="start" x="996" y="-464.921" font-family="Helvetica,sans-Serif" font-size="10.00">ColorOctomapServer</text>
<text text-anchor="middle" x="1043" y="-453.921" font-family="Helvetica,sans-Serif" font-size="10.00">::insertCloudCallback</text>
</a>
</g>
</g>
<!-- Node16&#45;&gt;Node17 -->
<g id="edge22" class="edge"><title>Node16&#45;&gt;Node17</title>
<path fill="none" stroke="midnightblue" d="M931.147,-465.385C946.697,-464.899 962.78,-464.397 977.71,-463.93"/>
<polygon fill="midnightblue" stroke="midnightblue" points="977.956,-467.424 987.842,-463.614 977.737,-460.428 977.956,-467.424"/>
</g>
<!-- Node20 -->
<g id="node20" class="node"><title>Node20</title>
<g id="a_node20"><a xlink:href="../../df/dd0/classNode.html#ade58f2370cb8542f4bc4c1350a3ba462" target="_top" xlink:title="erase the points from the cloud to save memory ">
<polygon fill="white" stroke="black" points="985.5,-408.421 985.5,-427.421 1100.5,-427.421 1100.5,-408.421 985.5,-408.421"/>
<text text-anchor="middle" x="1043" y="-415.421" font-family="Helvetica,sans-Serif" font-size="10.00">Node::clearPointCloud</text>
</a>
</g>
</g>
<!-- Node16&#45;&gt;Node20 -->
<g id="edge32" class="edge"><title>Node16&#45;&gt;Node20</title>
<path fill="none" stroke="midnightblue" d="M897.533,-458.349C910.105,-455.564 923.62,-452.342 936,-448.921 952.256,-444.429 955.855,-441.799 972,-436.921 979.543,-434.642 987.582,-432.342 995.422,-430.167"/>
<polygon fill="midnightblue" stroke="midnightblue" points="996.475,-433.508 1005.2,-427.491 994.626,-426.757 996.475,-433.508"/>
</g>
<!-- Node17&#45;&gt;Node3 -->
<g id="edge23" class="edge"><title>Node17&#45;&gt;Node3</title>
<path fill="none" stroke="midnightblue" d="M1098.09,-470.765C1203.25,-487.956 1435.05,-525.849 1550.65,-544.748"/>
<polygon fill="midnightblue" stroke="midnightblue" points="1550.36,-548.247 1560.79,-546.406 1551.49,-541.338 1550.36,-548.247"/>
</g>
<!-- Node18 -->
<g id="node18" class="node"><title>Node18</title>
<g id="a_node18"><a xlink:href="../../d7/ddc/classColorOctomapServer.html#ab96bf80f442fcebd4e269b40dc31f841" target="_top" xlink:title="ColorOctomapServer\l::insertCloudCallbackCommon">
<polygon fill="white" stroke="black" points="1150,-433.921 1150,-463.921 1300,-463.921 1300,-433.921 1150,-433.921"/>
<text text-anchor="start" x="1158" y="-451.921" font-family="Helvetica,sans-Serif" font-size="10.00">ColorOctomapServer</text>
<text text-anchor="middle" x="1225" y="-440.921" font-family="Helvetica,sans-Serif" font-size="10.00">::insertCloudCallbackCommon</text>
</a>
</g>
</g>
<!-- Node17&#45;&gt;Node18 -->
<g id="edge24" class="edge"><title>Node17&#45;&gt;Node18</title>
<path fill="none" stroke="midnightblue" d="M1098.01,-458.021C1111.09,-457.076 1125.39,-456.043 1139.5,-455.024"/>
<polygon fill="midnightblue" stroke="midnightblue" points="1140.01,-458.497 1149.73,-454.285 1139.5,-451.515 1140.01,-458.497"/>
</g>
<!-- Node18&#45;&gt;Node3 -->
<g id="edge25" class="edge"><title>Node18&#45;&gt;Node3</title>
<path fill="none" stroke="midnightblue" d="M1300.04,-458.837C1356.73,-467.558 1436.41,-482.272 1504,-503.921 1535.22,-513.922 1569.23,-529.996 1592.11,-541.628"/>
<polygon fill="midnightblue" stroke="midnightblue" points="1590.69,-544.838 1601.19,-546.31 1593.9,-538.616 1590.69,-544.838"/>
</g>
<!-- Node18&#45;&gt;Node4 -->
<g id="edge26" class="edge"><title>Node18&#45;&gt;Node4</title>
<path fill="none" stroke="midnightblue" d="M1267.01,-433.859C1287.58,-426.53 1312.97,-417.833 1336,-410.921 1409.82,-388.764 1431.84,-394.989 1504,-367.921 1536.2,-355.843 1571.22,-337.341 1594.05,-324.495"/>
<polygon fill="midnightblue" stroke="midnightblue" points="1595.79,-327.529 1602.75,-319.539 1592.33,-321.447 1595.79,-327.529"/>
</g>
<!-- Node19 -->
<g id="node19" class="node"><title>Node19</title>
<g id="a_node19"><a xlink:href="../../d7/ddc/classColorOctomapServer.html#ac7cca7bcabafb3876d7ad4bb3a6b6c8f" target="_top" xlink:title="Clear octomap and reset values to paramters from parameter server. ">
<polygon fill="white" stroke="black" points="1366,-420.921 1366,-450.921 1474,-450.921 1474,-420.921 1366,-420.921"/>
<text text-anchor="start" x="1374" y="-438.921" font-family="Helvetica,sans-Serif" font-size="10.00">ColorOctomapServer</text>
<text text-anchor="middle" x="1420" y="-427.921" font-family="Helvetica,sans-Serif" font-size="10.00">::reset</text>
</a>
</g>
</g>
<!-- Node18&#45;&gt;Node19 -->
<g id="edge27" class="edge"><title>Node18&#45;&gt;Node19</title>
<path fill="none" stroke="midnightblue" d="M1300.07,-443.932C1318.37,-442.699 1337.82,-441.389 1355.57,-440.194"/>
<polygon fill="midnightblue" stroke="midnightblue" points="1356.06,-443.669 1365.8,-439.505 1355.59,-436.685 1356.06,-443.669"/>
</g>
<!-- Node19&#45;&gt;Node3 -->
<g id="edge28" class="edge"><title>Node19&#45;&gt;Node3</title>
<path fill="none" stroke="midnightblue" d="M1470.85,-451.033C1482.06,-455.219 1493.68,-460.209 1504,-465.921 1541.77,-486.82 1580.16,-519.727 1601.65,-539.427"/>
<polygon fill="midnightblue" stroke="midnightblue" points="1599.31,-542.033 1609.02,-546.278 1604.08,-536.906 1599.31,-542.033"/>
</g>
<!-- Node19&#45;&gt;Node4 -->
<g id="edge29" class="edge"><title>Node19&#45;&gt;Node4</title>
<path fill="none" stroke="midnightblue" d="M1471.42,-420.883C1482.48,-416.719 1493.9,-411.72 1504,-405.921 1542.8,-383.644 1581.38,-347.958 1602.52,-326.943"/>
<polygon fill="midnightblue" stroke="midnightblue" points="1605.18,-329.232 1609.73,-319.666 1600.21,-324.305 1605.18,-329.232"/>
</g>
<!-- Node23 -->
<g id="node23" class="node"><title>Node23</title>
<g id="a_node23"><a xlink:href="../../d4/d08/misc_8h.html#a2b945fc2871e0006d856539080d3e0a0" target="_top" xlink:title="eigenTF2QMatrix">
<polygon fill="white" stroke="black" points="997,-294.421 997,-313.421 1089,-313.421 1089,-294.421 997,-294.421"/>
<text text-anchor="middle" x="1043" y="-301.421" font-family="Helvetica,sans-Serif" font-size="10.00">eigenTF2QMatrix</text>
</a>
</g>
</g>
<!-- Node22&#45;&gt;Node23 -->
<g id="edge35" class="edge"><title>Node22&#45;&gt;Node23</title>
<path fill="none" stroke="midnightblue" d="M918.503,-307.781C940.9,-307.081 965.478,-306.313 986.77,-305.647"/>
<polygon fill="midnightblue" stroke="midnightblue" points="987.049,-309.14 996.934,-305.33 986.83,-302.144 987.049,-309.14"/>
</g>
<!-- Node24 -->
<g id="node24" class="node"><title>Node24</title>
<g id="a_node24"><a xlink:href="../../d4/d08/misc_8h.html#afe9e1e85e61b3925b1121b6a11177591" target="_top" xlink:title="printQMatrix4x4">
<polygon fill="white" stroke="black" points="1182,-294.421 1182,-313.421 1268,-313.421 1268,-294.421 1182,-294.421"/>
<text text-anchor="middle" x="1225" y="-301.421" font-family="Helvetica,sans-Serif" font-size="10.00">printQMatrix4x4</text>
</a>
</g>
</g>
<!-- Node23&#45;&gt;Node24 -->
<g id="edge36" class="edge"><title>Node23&#45;&gt;Node24</title>
<path fill="none" stroke="midnightblue" d="M1089.42,-303.921C1114.52,-303.921 1145.81,-303.921 1171.9,-303.921"/>
<polygon fill="midnightblue" stroke="midnightblue" points="1171.99,-307.421 1181.99,-303.921 1171.99,-300.421 1171.99,-307.421"/>
</g>
<!-- Node27&#45;&gt;Node3 -->
<g id="edge40" class="edge"><title>Node27&#45;&gt;Node3</title>
<path fill="none" stroke="midnightblue" d="M1425.14,-92.8005C1449.8,-151.712 1577.51,-456.806 1610.97,-536.735"/>
<polygon fill="midnightblue" stroke="midnightblue" points="1607.8,-538.223 1614.89,-546.096 1614.25,-535.52 1607.8,-538.223"/>
</g>
<!-- Node27&#45;&gt;Node4 -->
<g id="edge41" class="edge"><title>Node27&#45;&gt;Node4</title>
<path fill="none" stroke="midnightblue" d="M1480.05,-92.4379C1488.84,-95.8875 1497.21,-100.57 1504,-106.921 1538.2,-138.895 1517.59,-164.816 1540,-205.921 1558.05,-239.017 1585.97,-272.988 1603.33,-292.739"/>
<polygon fill="midnightblue" stroke="midnightblue" points="1600.8,-295.157 1610.07,-300.29 1606.02,-290.497 1600.8,-295.157"/>
</g>
<!-- Node27&#45;&gt;Node10 -->
<g id="edge42" class="edge"><title>Node27&#45;&gt;Node10</title>
<path fill="none" stroke="midnightblue" d="M1470.71,-73.3813C1500.12,-67.7371 1537.32,-60.5975 1567.1,-54.8813"/>
<polygon fill="midnightblue" stroke="midnightblue" points="1568.14,-58.2457 1577.3,-52.9236 1566.82,-51.3712 1568.14,-58.2457"/>
</g>
<!-- Node27&#45;&gt;Node12 -->
<g id="edge43" class="edge"><title>Node27&#45;&gt;Node12</title>
<path fill="none" stroke="midnightblue" d="M1468.18,-92.5095C1480.3,-96.0465 1493.01,-100.751 1504,-106.921 1522.92,-117.55 1522.58,-126.971 1540,-139.921 1556.23,-151.986 1575.74,-163.621 1591.32,-172.297"/>
<polygon fill="midnightblue" stroke="midnightblue" points="1589.99,-175.56 1600.44,-177.294 1593.35,-169.42 1589.99,-175.56"/>
</g>
<!-- Node28 -->
<g id="node28" class="node"><title>Node28</title>
<g id="a_node28"><a xlink:href="../../d7/d5f/misc_8cpp.html#a5fe4bf570dc4fd7572956a0b1d082727" target="_top" xlink:title="Write Transformation to textstream. ">
<polygon fill="white" stroke="black" points="1583,-111.421 1583,-130.421 1657,-130.421 1657,-111.421 1583,-111.421"/>
<text text-anchor="middle" x="1620" y="-118.421" font-family="Helvetica,sans-Serif" font-size="10.00">logTransform</text>
</a>
</g>
</g>
<!-- Node27&#45;&gt;Node28 -->
<g id="edge44" class="edge"><title>Node27&#45;&gt;Node28</title>
<path fill="none" stroke="midnightblue" d="M1470.71,-92.4612C1502,-98.4659 1542.1,-106.163 1572.71,-112.038"/>
<polygon fill="midnightblue" stroke="midnightblue" points="1572.22,-115.508 1582.71,-113.956 1573.54,-108.633 1572.22,-115.508"/>
</g>
<!-- Node29 -->
<g id="node29" class="node"><title>Node29</title>
<g id="a_node29"><a xlink:href="../../df/dd0/classNode.html#aa714d9c36f25c4a40d69b6bd100c10fe" target="_top" xlink:title="Transform, e.g., from MoCap. ">
<polygon fill="white" stroke="black" points="1541,-73.4213 1541,-92.4213 1699,-92.4213 1699,-73.4213 1541,-73.4213"/>
<text text-anchor="middle" x="1620" y="-80.4213" font-family="Helvetica,sans-Serif" font-size="10.00">Node::getGroundTruthTransform</text>
</a>
</g>
</g>
<!-- Node27&#45;&gt;Node29 -->
<g id="edge45" class="edge"><title>Node27&#45;&gt;Node29</title>
<path fill="none" stroke="midnightblue" d="M1495.57,-82.9213C1507.02,-82.9213 1518.93,-82.9213 1530.64,-82.9213"/>
<polygon fill="midnightblue" stroke="midnightblue" points="1530.86,-86.4214 1540.86,-82.9213 1530.86,-79.4214 1530.86,-86.4214"/>
</g>
<!-- Node31&#45;&gt;Node3 -->
<g id="edge49" class="edge"><title>Node31&#45;&gt;Node3</title>
<path fill="none" stroke="midnightblue" d="M711.096,-722.528C790.496,-717.791 925.705,-710.921 1042,-710.921 1042,-710.921 1042,-710.921 1226,-710.921 1350.14,-710.921 1393.2,-739.901 1504,-683.921 1553.35,-658.988 1591.45,-603.204 1608.77,-574.209"/>
<polygon fill="midnightblue" stroke="midnightblue" points="1611.84,-575.892 1613.84,-565.486 1605.79,-572.377 1611.84,-575.892"/>
</g>
</g>
</svg>
        <g id="navigator" transform="translate(0 0)" fill="#404254">
                <rect fill="#f2f5e9" fill-opacity="0.5" stroke="#606060" stroke-width=".5" x="0" y="0" width="60" height="60"/>
                <use id="zoomplus" xlink:href="#zoomPlus" x="17" y="9" onmousedown="handleZoom(evt,'in')"/>
                <use id="zoomminus" xlink:href="#zoomMin" x="42" y="9" onmousedown="handleZoom(evt,'out')"/>
                <use id="reset" xlink:href="#resetDef" x="30" y="36" onmousedown="handleReset()"/>
                <g id="arrowUp" xlink:href="#dirArrow" transform="translate(30 24)" onmousedown="handlePan(0,-1)">
                  <use xlink:href="#rim" fill="#404040">
                        <set attributeName="fill" to="#808080" begin="arrowUp.mouseover" end="arrowUp.mouseout"/>
                  </use>
                  <path fill="none" stroke="white" stroke-width="1.5" d="M0,-3.0v7 M-2.5,-0.5L0,-3.0L2.5,-0.5"/>
                </g>
                <g id="arrowRight" xlink:href="#dirArrow" transform="rotate(90) translate(36 -43)" onmousedown="handlePan(1,0)">
                  <use xlink:href="#rim" fill="#404040">
                        <set attributeName="fill" to="#808080" begin="arrowRight.mouseover" end="arrowRight.mouseout"/>
                  </use>
                  <path fill="none" stroke="white" stroke-width="1.5" d="M0,-3.0v7 M-2.5,-0.5L0,-3.0L2.5,-0.5"/>
                </g>
                <g id="arrowDown" xlink:href="#dirArrow" transform="rotate(180) translate(-30 -48)" onmousedown="handlePan(0,1)">
                  <use xlink:href="#rim" fill="#404040">
                        <set attributeName="fill" to="#808080" begin="arrowDown.mouseover" end="arrowDown.mouseout"/>
                  </use>
                  <path fill="none" stroke="white" stroke-width="1.5" d="M0,-3.0v7 M-2.5,-0.5L0,-3.0L2.5,-0.5"/>
                </g>
                <g id="arrowLeft" xlink:href="#dirArrow" transform="rotate(270) translate(-36 17)" onmousedown="handlePan(-1,0)">
                  <use xlink:href="#rim" fill="#404040">
                        <set attributeName="fill" to="#808080" begin="arrowLeft.mouseover" end="arrowLeft.mouseout"/>
                  </use>
                  <path fill="none" stroke="white" stroke-width="1.5" d="M0,-3.0v7 M-2.5,-0.5L0,-3.0L2.5,-0.5"/>
                </g>
        </g>
        <svg viewBox="0 0 15 15" width="100%" height="30px" preserveAspectRatio="xMaxYMin meet">
         <g id="arrow_out" transform="scale(0.3 0.3)">
          <a xlink:href="classOpenNIListener_adfd6d382d59deb41e782994b542d4ffe_cgraph_org.svg" target="_base">
           <rect id="button" ry="5" rx="5" y="6" x="6" height="38" width="38"
                fill="#f2f5e9" fill-opacity="0.5" stroke="#606060" stroke-width="1.0"/>
           <path id="arrow"
             d="M 11.500037,31.436501 C 11.940474,20.09759 22.043105,11.32322 32.158766,21.979434 L 37.068811,17.246167 C 37.068811,17.246167 37.088388,32 37.088388,32 L 22.160133,31.978069 C 22.160133,31.978069 26.997745,27.140456 26.997745,27.140456 C 18.528582,18.264221 13.291696,25.230495 11.500037,31.436501 z"
             style="fill:#404040;"/>
          </a>
         </g>
        </svg>
</svg>
