<?xml version="1.0" encoding="UTF-8" standalone="no"?>
<!DOCTYPE svg PUBLIC "-//W3C//DTD SVG 1.1//EN"
 "http://www.w3.org/Graphics/SVG/1.1/DTD/svg11.dtd">
<!-- Generated by graphviz version 2.36.0 (20140111.2315)
 -->
<!-- Title: OpenNIListener::evaluation Pages: 1 -->
<!--zoomable 662 -->
<svg id="main" version="1.1" xmlns="http://www.w3.org/2000/svg" xmlns:xlink="http://www.w3.org/1999/xlink" xml:space="preserve" onload="init(evt)">
<style type="text/css"><![CDATA[
.edge:hover path { stroke: red; }
.edge:hover polygon { stroke: red; fill: red; }
]]></style>
<script type="text/javascript"><![CDATA[
var edges = document.getElementsByTagName('g');
if (edges && edges.length) {
  for (var i=0;i<edges.length;i++) {
    if (edges[i].id.substr(0,4)=='edge') {
      edges[i].setAttribute('class','edge');
    }
  }
}
]]></script>
        <defs>
                <circle id="rim" cx="0" cy="0" r="7"/>
                <circle id="rim2" cx="0" cy="0" r="3.5"/>
                <g id="zoomPlus">
                        <use xlink:href="#rim" fill="#404040">
                                <set attributeName="fill" to="#808080" begin="zoomplus.mouseover" end="zoomplus.mouseout"/>
                        </use>
                        <path d="M-4,0h8M0,-4v8" fill="none" stroke="white" stroke-width="1.5" pointer-events="none"/>
                </g>
                <g id="zoomMin">
                        <use xlink:href="#rim" fill="#404040">
                                <set attributeName="fill" to="#808080" begin="zoomminus.mouseover" end="zoomminus.mouseout"/>
                        </use>
                        <path d="M-4,0h8" fill="none" stroke="white" stroke-width="1.5" pointer-events="none"/>
                </g>
                <g id="dirArrow">
                        <path fill="none" stroke="white" stroke-width="1.5" d="M0,-3.0v7 M-2.5,-0.5L0,-3.0L2.5,-0.5"/>
                </g>
               <g id="resetDef">
                       <use xlink:href="#rim2" fill="#404040">
                               <set attributeName="fill" to="#808080" begin="reset.mouseover" end="reset.mouseout"/>
                       </use>
               </g>
        </defs>

<script type="text/javascript">
var viewWidth = 1508;
var viewHeight = 662;
var sectionId = 'dynsection-6';
</script>
<script xlink:href="../../svgpan.js"/>
<svg id="graph" class="graph">
<g id="viewport">
<title>OpenNIListener::evaluation</title>
<polygon fill="white" stroke="none" points="-4,4 -4,-658 1504,-658 1504,4 -4,4"/>
<!-- Node1 -->
<g id="node1" class="node"><title>Node1</title>
<polygon fill="#bfbfbf" stroke="black" points="0.5,-116.5 0.5,-135.5 135.5,-135.5 135.5,-116.5 0.5,-116.5"/>
<text text-anchor="middle" x="68" y="-123.5" font-family="Helvetica,sans-Serif" font-size="10.00">OpenNIListener::evaluation</text>
</g>
<!-- Node2 -->
<g id="node2" class="node"><title>Node2</title>
<g id="a_node2"><a xlink:href="../../d0/d8b/classGraphManager.html#a485d97d70bb895457ccd9538fbbb3bf6" target="_top" xlink:title="GraphManager::optimizeGraph">
<polygon fill="white" stroke="black" points="172.5,-347.5 172.5,-366.5 321.5,-366.5 321.5,-347.5 172.5,-347.5"/>
<text text-anchor="middle" x="247" y="-354.5" font-family="Helvetica,sans-Serif" font-size="10.00">GraphManager::optimizeGraph</text>
</a>
</g>
</g>
<!-- Node1&#45;&gt;Node2 -->
<g id="edge1" class="edge"><title>Node1&#45;&gt;Node2</title>
<path fill="none" stroke="midnightblue" d="M76.3801,-135.632C103.369,-170.854 196.969,-293.011 232.33,-339.159"/>
<polygon fill="midnightblue" stroke="midnightblue" points="229.728,-341.518 238.588,-347.327 235.284,-337.261 229.728,-341.518"/>
</g>
<!-- Node3 -->
<g id="node3" class="node"><title>Node3</title>
<g id="a_node3"><a xlink:href="../../d3/d3e/classParameterServer.html#a5457f900e543c5a466bf9b65ee6bc577" target="_top" xlink:title="ParameterServer::instance">
<polygon fill="white" stroke="black" points="1353.5,-397.5 1353.5,-416.5 1486.5,-416.5 1486.5,-397.5 1353.5,-397.5"/>
<text text-anchor="middle" x="1420" y="-404.5" font-family="Helvetica,sans-Serif" font-size="10.00">ParameterServer::instance</text>
</a>
</g>
</g>
<!-- Node1&#45;&gt;Node3 -->
<g id="edge42" class="edge"><title>Node1&#45;&gt;Node3</title>
<path fill="none" stroke="midnightblue" d="M70.6942,-135.615C83.8997,-207.177 176.927,-654 441,-654 441,-654 441,-654 1026,-654 1155.6,-654 1198.95,-641.89 1304,-566 1356.31,-528.215 1394.16,-459.304 1410.32,-426.01"/>
<polygon fill="midnightblue" stroke="midnightblue" points="1413.52,-427.431 1414.63,-416.894 1407.19,-424.439 1413.52,-427.431"/>
</g>
<!-- Node24 -->
<g id="node24" class="node"><title>Node24</title>
<g id="a_node24"><a xlink:href="../../d0/d8b/classGraphManager.html#a45a53c00024a0a49b4d6bf0ed1dd31f8" target="_top" xlink:title="GraphManager::setOptimizer\lVerbose">
<polygon fill="white" stroke="black" points="176,-39 176,-69 318,-69 318,-39 176,-39"/>
<text text-anchor="start" x="184" y="-57" font-family="Helvetica,sans-Serif" font-size="10.00">GraphManager::setOptimizer</text>
<text text-anchor="middle" x="247" y="-46" font-family="Helvetica,sans-Serif" font-size="10.00">Verbose</text>
</a>
</g>
</g>
<!-- Node1&#45;&gt;Node24 -->
<g id="edge34" class="edge"><title>Node1&#45;&gt;Node24</title>
<path fill="none" stroke="midnightblue" d="M92.3116,-116.479C113.184,-107.957 144.629,-95.1285 172,-84 180.864,-80.396 190.328,-76.5546 199.423,-72.8658"/>
<polygon fill="midnightblue" stroke="midnightblue" points="200.776,-76.0942 208.728,-69.0932 198.146,-69.6071 200.776,-76.0942"/>
</g>
<!-- Node25 -->
<g id="node25" class="node"><title>Node25</title>
<g id="a_node25"><a xlink:href="../../d0/d8b/classGraphManager.html#a51350a2c24455bef6c8829f38d1f4d12" target="_top" xlink:title="Save trajectory of computed motion and ground truth (if available) ">
<polygon fill="white" stroke="black" points="1144.5,-88.5 1144.5,-107.5 1295.5,-107.5 1295.5,-88.5 1144.5,-88.5"/>
<text text-anchor="middle" x="1220" y="-95.5" font-family="Helvetica,sans-Serif" font-size="10.00">GraphManager::saveTrajectory</text>
</a>
</g>
</g>
<!-- Node1&#45;&gt;Node25 -->
<g id="edge35" class="edge"><title>Node1&#45;&gt;Node25</title>
<path fill="none" stroke="midnightblue" d="M135.751,-117.939C210.115,-109.667 333.974,-98 441,-98 441,-98 441,-98 844,-98 943.487,-98 1057.82,-98 1133.83,-98"/>
<polygon fill="midnightblue" stroke="midnightblue" points="1134.29,-101.5 1144.29,-98 1134.29,-94.5001 1134.29,-101.5"/>
</g>
<!-- Node28 -->
<g id="node28" class="node"><title>Node28</title>
<g id="a_node28"><a xlink:href="../../d3/d3e/classParameterServer.html#a283ff3ea4a3c4da048e3f5dee57c58f9" target="_top" xlink:title="ParameterServer::set">
<polygon fill="white" stroke="black" points="192,-0.5 192,-19.5 302,-19.5 302,-0.5 192,-0.5"/>
<text text-anchor="middle" x="247" y="-7.5" font-family="Helvetica,sans-Serif" font-size="10.00">ParameterServer::set</text>
</a>
</g>
</g>
<!-- Node1&#45;&gt;Node28 -->
<g id="edge43" class="edge"><title>Node1&#45;&gt;Node28</title>
<path fill="none" stroke="midnightblue" d="M76.3719,-116.34C91.8549,-96.7457 129.827,-52.2237 172,-29 176.139,-26.7206 180.559,-24.7077 185.102,-22.9312"/>
<polygon fill="midnightblue" stroke="midnightblue" points="186.277,-26.2282 194.549,-19.6072 183.954,-19.625 186.277,-26.2282"/>
</g>
<!-- Node29 -->
<g id="node29" class="node"><title>Node29</title>
<g id="a_node29"><a xlink:href="../../d0/d8b/classGraphManager.html#a7f781c691c5feade4b935f21809c635d" target="_top" xlink:title="GraphManager::pruneEdges\lWithErrorAbove">
<polygon fill="white" stroke="black" points="373,-150 373,-180 511,-180 511,-150 373,-150"/>
<text text-anchor="start" x="381" y="-168" font-family="Helvetica,sans-Serif" font-size="10.00">GraphManager::pruneEdges</text>
<text text-anchor="middle" x="442" y="-157" font-family="Helvetica,sans-Serif" font-size="10.00">WithErrorAbove</text>
</a>
</g>
</g>
<!-- Node1&#45;&gt;Node29 -->
<g id="edge44" class="edge"><title>Node1&#45;&gt;Node29</title>
<path fill="none" stroke="midnightblue" d="M135.506,-132.972C199.215,-139.652 295.36,-149.731 362.73,-156.794"/>
<polygon fill="midnightblue" stroke="midnightblue" points="362.559,-160.295 372.869,-157.857 363.289,-153.334 362.559,-160.295"/>
</g>
<!-- Node2&#45;&gt;Node3 -->
<g id="edge2" class="edge"><title>Node2&#45;&gt;Node3</title>
<path fill="none" stroke="midnightblue" d="M255.246,-366.525C291.689,-413.252 460.614,-616 648,-616 648,-616 648,-616 1026,-616 1189.58,-616 1351.34,-473.108 1402.45,-423.627"/>
<polygon fill="midnightblue" stroke="midnightblue" points="1405,-426.026 1409.68,-416.523 1400.09,-421.031 1405,-426.026"/>
</g>
<!-- Node4 -->
<g id="node4" class="node"><title>Node4</title>
<g id="a_node4"><a xlink:href="../../d0/d8b/classGraphManager.html#aa29c73b4f404c4f89694f91c9af3e6a6" target="_top" xlink:title="Applies g2o for optimization returns chi2. ">
<polygon fill="white" stroke="black" points="358,-347.5 358,-366.5 526,-366.5 526,-347.5 358,-347.5"/>
<text text-anchor="middle" x="442" y="-354.5" font-family="Helvetica,sans-Serif" font-size="10.00">GraphManager::optimizeGraphImpl</text>
</a>
</g>
</g>
<!-- Node2&#45;&gt;Node4 -->
<g id="edge3" class="edge"><title>Node2&#45;&gt;Node4</title>
<path fill="none" stroke="midnightblue" d="M321.516,-357C330.014,-357 338.766,-357 347.485,-357"/>
<polygon fill="midnightblue" stroke="midnightblue" points="347.688,-360.5 357.688,-357 347.688,-353.5 347.688,-360.5"/>
</g>
<!-- Node4&#45;&gt;Node3 -->
<g id="edge4" class="edge"><title>Node4&#45;&gt;Node3</title>
<path fill="none" stroke="midnightblue" d="M470.672,-366.652C494.651,-374.82 530.37,-386.516 562,-395 638.454,-415.507 661.652,-405.834 736,-433 752.993,-439.209 754.695,-446.723 772,-452 848.101,-475.206 870.552,-466.772 950,-471 1016.57,-474.543 1033.37,-473.284 1100,-471 1190.83,-467.887 1215.71,-478.543 1304,-457 1336.02,-449.188 1370.38,-433.132 1393.12,-421.314"/>
<polygon fill="midnightblue" stroke="midnightblue" points="1394.92,-424.321 1402.11,-416.544 1391.64,-418.137 1394.92,-424.321"/>
</g>
<!-- Node5 -->
<g id="node5" class="node"><title>Node5</title>
<g id="a_node5"><a xlink:href="../../d3/d3e/classParameterServer.html#a3c8af50664e423b555bbb1874f488413" target="_top" xlink:title="ParameterServer::get">
<polygon fill="white" stroke="black" points="1365,-210.5 1365,-229.5 1475,-229.5 1475,-210.5 1365,-210.5"/>
<text text-anchor="middle" x="1420" y="-217.5" font-family="Helvetica,sans-Serif" font-size="10.00">ParameterServer::get</text>
</a>
</g>
</g>
<!-- Node4&#45;&gt;Node5 -->
<g id="edge5" class="edge"><title>Node4&#45;&gt;Node5</title>
<path fill="none" stroke="midnightblue" d="M446.026,-347.343C456.362,-316.117 493.484,-217.392 562,-174 668.097,-106.806 716.415,-136 842,-136 842,-136 842,-136 1026,-136 1149.87,-136 1192.72,-101.573 1304,-156 1325.49,-166.509 1319.82,-183.165 1340,-196 1346.97,-200.43 1354.79,-204.081 1362.75,-207.08"/>
<polygon fill="midnightblue" stroke="midnightblue" points="1361.86,-210.477 1372.46,-210.423 1364.14,-203.858 1361.86,-210.477"/>
</g>
<!-- Node6 -->
<g id="node6" class="node"><title>Node6</title>
<g id="a_node6"><a xlink:href="../../d4/d1a/graph__manager_8cpp.html#a3e690180d75a521b31a3d4b402793d5e" target="_top" xlink:title="fixationOfVertices">
<polygon fill="white" stroke="black" points="601.5,-290.5 601.5,-309.5 696.5,-309.5 696.5,-290.5 601.5,-290.5"/>
<text text-anchor="middle" x="649" y="-297.5" font-family="Helvetica,sans-Serif" font-size="10.00">fixationOfVertices</text>
</a>
</g>
</g>
<!-- Node4&#45;&gt;Node6 -->
<g id="edge6" class="edge"><title>Node4&#45;&gt;Node6</title>
<path fill="none" stroke="midnightblue" d="M477.312,-347.459C512.05,-337.801 565.91,-322.825 603.82,-312.284"/>
<polygon fill="midnightblue" stroke="midnightblue" points="604.879,-315.623 613.576,-309.572 603.004,-308.879 604.879,-315.623"/>
</g>
<!-- Node7 -->
<g id="node7" class="node"><title>Node7</title>
<g id="a_node7"><a xlink:href="../../d0/d8b/classGraphManager.html#a802422b66dc417f4125842b53da8183a" target="_top" xlink:title="GraphManager::last\l_added_cam_vertex_id">
<polygon fill="white" stroke="black" points="590.5,-241 590.5,-271 707.5,-271 707.5,-241 590.5,-241"/>
<text text-anchor="start" x="598.5" y="-259" font-family="Helvetica,sans-Serif" font-size="10.00">GraphManager::last</text>
<text text-anchor="middle" x="649" y="-248" font-family="Helvetica,sans-Serif" font-size="10.00">_added_cam_vertex_id</text>
</a>
</g>
</g>
<!-- Node4&#45;&gt;Node7 -->
<g id="edge7" class="edge"><title>Node4&#45;&gt;Node7</title>
<path fill="none" stroke="midnightblue" d="M455.512,-347.283C476.471,-331.415 520.473,-299.826 562,-281 567.855,-278.346 574.062,-275.897 580.354,-273.656"/>
<polygon fill="midnightblue" stroke="midnightblue" points="581.919,-276.822 590.274,-270.307 579.68,-270.19 581.919,-276.822"/>
</g>
<!-- Node8 -->
<g id="node8" class="node"><title>Node8</title>
<g id="a_node8"><a xlink:href="../../d4/d08/misc_8h.html#a7bd6e35e893b731601e2239721f03ae9" target="_top" xlink:title="eigenTransf2TF">
<polygon fill="white" stroke="black" points="1377.5,-50.5 1377.5,-69.5 1462.5,-69.5 1462.5,-50.5 1377.5,-50.5"/>
<text text-anchor="middle" x="1420" y="-57.5" font-family="Helvetica,sans-Serif" font-size="10.00">eigenTransf2TF</text>
</a>
</g>
</g>
<!-- Node4&#45;&gt;Node8 -->
<g id="edge8" class="edge"><title>Node4&#45;&gt;Node8</title>
<path fill="none" stroke="midnightblue" d="M447.645,-347.397C468.392,-304.574 552.006,-132.796 562,-125 662.73,-46.422 714.246,-60 842,-60 842,-60 842,-60 1026,-60 1148.35,-60 1292.12,-60 1367.27,-60"/>
<polygon fill="midnightblue" stroke="midnightblue" points="1367.41,-63.5001 1377.41,-60 1367.41,-56.5001 1367.41,-63.5001"/>
</g>
<!-- Node9 -->
<g id="node9" class="node"><title>Node9</title>
<g id="a_node9"><a xlink:href="../../d0/d8b/classGraphManager.html#a5ed6dafc45d6736bb5fbbe0ba5cc1d89" target="_top" xlink:title="GraphManager::stampedTransform\lInWorldFrame">
<polygon fill="white" stroke="black" points="1136,-165 1136,-195 1304,-195 1304,-165 1136,-165"/>
<text text-anchor="start" x="1144" y="-183" font-family="Helvetica,sans-Serif" font-size="10.00">GraphManager::stampedTransform</text>
<text text-anchor="middle" x="1220" y="-172" font-family="Helvetica,sans-Serif" font-size="10.00">InWorldFrame</text>
</a>
</g>
</g>
<!-- Node4&#45;&gt;Node9 -->
<g id="edge9" class="edge"><title>Node4&#45;&gt;Node9</title>
<path fill="none" stroke="midnightblue" d="M448.684,-347.238C463.596,-322.68 506.544,-258.412 562,-232 746.493,-144.132 993.333,-153.556 1125.73,-167.288"/>
<polygon fill="midnightblue" stroke="midnightblue" points="1125.53,-170.786 1135.84,-168.369 1126.27,-163.826 1125.53,-170.786"/>
</g>
<!-- Node11 -->
<g id="node11" class="node"><title>Node11</title>
<g id="a_node11"><a xlink:href="../../d0/d8b/classGraphManager.html#a4347303a3197042850f9d2226c70bfc9" target="_top" xlink:title="Broadcast given transform. ">
<polygon fill="white" stroke="black" points="562.5,-568.5 562.5,-587.5 735.5,-587.5 735.5,-568.5 562.5,-568.5"/>
<text text-anchor="middle" x="649" y="-575.5" font-family="Helvetica,sans-Serif" font-size="10.00">GraphManager::broadcastTransform</text>
</a>
</g>
</g>
<!-- Node4&#45;&gt;Node11 -->
<g id="edge13" class="edge"><title>Node4&#45;&gt;Node11</title>
<path fill="none" stroke="midnightblue" d="M445.73,-366.928C455.381,-400.055 491.183,-507.59 562,-559 564.66,-560.931 567.48,-562.672 570.415,-564.241"/>
<polygon fill="midnightblue" stroke="midnightblue" points="568.969,-567.429 579.514,-568.45 571.907,-561.075 568.969,-567.429"/>
</g>
<!-- Node13 -->
<g id="node13" class="node"><title>Node13</title>
<g id="a_node13"><a xlink:href="../../d0/d8b/classGraphManager.html#a1c8c6572bc4dd18f271496bc7f0d549c" target="_top" xlink:title="GraphManager::updateCloud\lOrigin">
<polygon fill="white" stroke="black" points="772.5,-241 772.5,-271 913.5,-271 913.5,-241 772.5,-241"/>
<text text-anchor="start" x="780.5" y="-259" font-family="Helvetica,sans-Serif" font-size="10.00">GraphManager::updateCloud</text>
<text text-anchor="middle" x="843" y="-248" font-family="Helvetica,sans-Serif" font-size="10.00">Origin</text>
</a>
</g>
</g>
<!-- Node4&#45;&gt;Node13 -->
<g id="edge15" class="edge"><title>Node4&#45;&gt;Node13</title>
<path fill="none" stroke="midnightblue" d="M526.296,-351.807C599.504,-346.229 699.841,-335.823 736,-319 755.679,-309.844 753.767,-297.775 772,-286 778.032,-282.104 784.656,-278.511 791.348,-275.268"/>
<polygon fill="midnightblue" stroke="midnightblue" points="792.85,-278.429 800.468,-271.066 789.921,-272.072 792.85,-278.429"/>
</g>
<!-- Node14 -->
<g id="node14" class="node"><title>Node14</title>
<g id="a_node14"><a xlink:href="../../d0/d8b/classGraphManager.html#a9f80605d0434d29938fd8a7258156c24" target="_top" xlink:title="GraphManager::renderToOctomap">
<polygon fill="white" stroke="black" points="567,-366.5 567,-385.5 731,-385.5 731,-366.5 567,-366.5"/>
<text text-anchor="middle" x="649" y="-373.5" font-family="Helvetica,sans-Serif" font-size="10.00">GraphManager::renderToOctomap</text>
</a>
</g>
</g>
<!-- Node4&#45;&gt;Node14 -->
<g id="edge16" class="edge"><title>Node4&#45;&gt;Node14</title>
<path fill="none" stroke="midnightblue" d="M526.086,-364.701C536.158,-365.634 546.49,-366.592 556.672,-367.535"/>
<polygon fill="midnightblue" stroke="midnightblue" points="556.51,-371.035 566.791,-368.473 557.156,-364.065 556.51,-371.035"/>
</g>
<!-- Node19 -->
<g id="node19" class="node"><title>Node19</title>
<g id="a_node19"><a xlink:href="../../d0/d8b/classGraphManager.html#a72b82d3cb977a1901c70c5aebac7c903" target="_top" xlink:title="Return pointer to a list of the optimizers graph edges on the heap(!) ">
<polygon fill="white" stroke="black" points="572,-530.5 572,-549.5 726,-549.5 726,-530.5 572,-530.5"/>
<text text-anchor="middle" x="649" y="-537.5" font-family="Helvetica,sans-Serif" font-size="10.00">GraphManager::getGraphEdges</text>
</a>
</g>
</g>
<!-- Node4&#45;&gt;Node19 -->
<g id="edge29" class="edge"><title>Node4&#45;&gt;Node19</title>
<path fill="none" stroke="midnightblue" d="M447.022,-366.559C459.481,-394.93 500.337,-479.217 562,-520 565.77,-522.493 569.812,-524.677 574.014,-526.591"/>
<polygon fill="midnightblue" stroke="midnightblue" points="572.839,-529.891 583.424,-530.362 575.443,-523.393 572.839,-529.891"/>
</g>
<!-- Node20 -->
<g id="node20" class="node"><title>Node20</title>
<g id="a_node20"><a xlink:href="../../d0/d8b/classGraphManager.html#a4aa1914e94c6a0d60f698d45811a01ef" target="_top" xlink:title="Return pointer to a list of the optimizers graph poses on the heap(!) ">
<polygon fill="white" stroke="black" points="579.5,-481 579.5,-511 718.5,-511 718.5,-481 579.5,-481"/>
<text text-anchor="start" x="587.5" y="-499" font-family="Helvetica,sans-Serif" font-size="10.00">GraphManager::getAllPoses</text>
<text text-anchor="middle" x="649" y="-488" font-family="Helvetica,sans-Serif" font-size="10.00">AsMatrixList</text>
</a>
</g>
</g>
<!-- Node4&#45;&gt;Node20 -->
<g id="edge30" class="edge"><title>Node4&#45;&gt;Node20</title>
<path fill="none" stroke="midnightblue" d="M450.221,-366.545C467.239,-388.371 512.193,-442.256 562,-471 565.712,-473.142 569.621,-475.113 573.643,-476.924"/>
<polygon fill="midnightblue" stroke="midnightblue" points="572.611,-480.284 583.189,-480.867 575.283,-473.815 572.611,-480.284"/>
</g>
<!-- Node23 -->
<g id="node23" class="node"><title>Node23</title>
<g id="a_node23"><a xlink:href="../../d7/d12/classScopedTimer.html#acb1a3efcc11ddfb39b059611f7e548ab" target="_top" xlink:title="Get time since construction. ">
<polygon fill="white" stroke="black" points="592,-442.5 592,-461.5 706,-461.5 706,-442.5 592,-442.5"/>
<text text-anchor="middle" x="649" y="-449.5" font-family="Helvetica,sans-Serif" font-size="10.00">ScopedTimer::elapsed</text>
</a>
</g>
</g>
<!-- Node4&#45;&gt;Node23 -->
<g id="edge33" class="edge"><title>Node4&#45;&gt;Node23</title>
<path fill="none" stroke="midnightblue" d="M456.29,-366.55C477.64,-381.509 521.316,-410.557 562,-428 572.578,-432.535 584.255,-436.459 595.503,-439.744"/>
<polygon fill="midnightblue" stroke="midnightblue" points="594.665,-443.144 605.239,-442.466 596.55,-436.402 594.665,-443.144"/>
</g>
<!-- Node9&#45;&gt;Node3 -->
<g id="edge10" class="edge"><title>Node9&#45;&gt;Node3</title>
<path fill="none" stroke="midnightblue" d="M1234.3,-195.247C1269.74,-235.879 1366.31,-346.595 1403.82,-389.596"/>
<polygon fill="midnightblue" stroke="midnightblue" points="1401.29,-392.018 1410.5,-397.253 1406.56,-387.416 1401.29,-392.018"/>
</g>
<!-- Node9&#45;&gt;Node5 -->
<g id="edge11" class="edge"><title>Node9&#45;&gt;Node5</title>
<path fill="none" stroke="midnightblue" d="M1295.29,-195.008C1317.36,-199.466 1341.17,-204.278 1361.96,-208.477"/>
<polygon fill="midnightblue" stroke="midnightblue" points="1361.41,-211.936 1371.9,-210.485 1362.79,-205.074 1361.41,-211.936"/>
</g>
<!-- Node10 -->
<g id="node10" class="node"><title>Node10</title>
<g id="a_node10"><a xlink:href="../../df/dd0/classNode.html#adaf50ff94906ea43c16b79fe0e3547ab" target="_top" xlink:title="Transform, e.g., from kinematics. ">
<polygon fill="white" stroke="black" points="1340.5,-167.5 1340.5,-186.5 1499.5,-186.5 1499.5,-167.5 1340.5,-167.5"/>
<text text-anchor="middle" x="1420" y="-174.5" font-family="Helvetica,sans-Serif" font-size="10.00">Node::getBase2PointsTransform</text>
</a>
</g>
</g>
<!-- Node9&#45;&gt;Node10 -->
<g id="edge12" class="edge"><title>Node9&#45;&gt;Node10</title>
<path fill="none" stroke="midnightblue" d="M1304.11,-178.741C1312.7,-178.611 1321.46,-178.478 1330.12,-178.347"/>
<polygon fill="midnightblue" stroke="midnightblue" points="1330.27,-181.845 1340.22,-178.194 1330.16,-174.846 1330.27,-181.845"/>
</g>
<!-- Node12 -->
<g id="node12" class="node"><title>Node12</title>
<g id="a_node12"><a xlink:href="../../de/d83/graph__manager_8h.html#a2e10953ff4a21d6e02d9574a3b2740b8" target="_top" xlink:title="Send node&#39;s pointcloud with given publisher and timestamp. ">
<polygon fill="white" stroke="black" points="806.5,-568.5 806.5,-587.5 879.5,-587.5 879.5,-568.5 806.5,-568.5"/>
<text text-anchor="middle" x="843" y="-575.5" font-family="Helvetica,sans-Serif" font-size="10.00">publishCloud</text>
</a>
</g>
</g>
<!-- Node11&#45;&gt;Node12 -->
<g id="edge14" class="edge"><title>Node11&#45;&gt;Node12</title>
<path fill="none" stroke="midnightblue" d="M735.612,-578C756.44,-578 777.928,-578 796.092,-578"/>
<polygon fill="midnightblue" stroke="midnightblue" points="796.094,-581.5 806.094,-578 796.094,-574.5 796.094,-581.5"/>
</g>
<!-- Node14&#45;&gt;Node3 -->
<g id="edge26" class="edge"><title>Node14&#45;&gt;Node3</title>
<path fill="none" stroke="midnightblue" d="M695.217,-385.577C708.678,-389.229 723.235,-393.997 736,-400 753.628,-408.29 753.411,-419.178 772,-425 986.735,-492.248 1261.41,-443.277 1370.86,-418.758"/>
<polygon fill="midnightblue" stroke="midnightblue" points="1371.65,-422.168 1380.62,-416.537 1370.09,-415.343 1371.65,-422.168"/>
</g>
<!-- Node14&#45;&gt;Node5 -->
<g id="edge27" class="edge"><title>Node14&#45;&gt;Node5</title>
<path fill="none" stroke="midnightblue" d="M679.492,-366.484C704.145,-358.609 740.267,-347.254 772,-338 932.95,-291.063 970.658,-266.752 1136,-239 1210.45,-226.505 1297.21,-222.161 1354.85,-220.687"/>
<polygon fill="midnightblue" stroke="midnightblue" points="1354.99,-224.185 1364.9,-220.451 1354.82,-217.187 1354.99,-224.185"/>
</g>
<!-- Node14&#45;&gt;Node13 -->
<g id="edge17" class="edge"><title>Node14&#45;&gt;Node13</title>
<path fill="none" stroke="midnightblue" d="M708.566,-366.486C718.398,-363.047 727.992,-358.368 736,-352 762.153,-331.204 747.284,-308.485 772,-286 776.095,-282.274 780.724,-278.965 785.602,-276.035"/>
<polygon fill="midnightblue" stroke="midnightblue" points="787.466,-279.006 794.589,-271.163 784.13,-272.851 787.466,-279.006"/>
</g>
<!-- Node15 -->
<g id="node15" class="node"><title>Node15</title>
<g id="a_node15"><a xlink:href="../../d7/ddc/classColorOctomapServer.html#ac16ce374c11799891e316f637acbd2e7" target="_top" xlink:title="ColorOctomapServer\l::insertCloudCallback">
<polygon fill="white" stroke="black" points="788,-386 788,-416 898,-416 898,-386 788,-386"/>
<text text-anchor="start" x="796" y="-404" font-family="Helvetica,sans-Serif" font-size="10.00">ColorOctomapServer</text>
<text text-anchor="middle" x="843" y="-393" font-family="Helvetica,sans-Serif" font-size="10.00">::insertCloudCallback</text>
</a>
</g>
</g>
<!-- Node14&#45;&gt;Node15 -->
<g id="edge18" class="edge"><title>Node14&#45;&gt;Node15</title>
<path fill="none" stroke="midnightblue" d="M723.135,-385.523C741.118,-387.864 760.238,-390.354 777.766,-392.636"/>
<polygon fill="midnightblue" stroke="midnightblue" points="777.513,-396.133 787.881,-393.953 778.417,-389.191 777.513,-396.133"/>
</g>
<!-- Node18 -->
<g id="node18" class="node"><title>Node18</title>
<g id="a_node18"><a xlink:href="../../df/dd0/classNode.html#ade58f2370cb8542f4bc4c1350a3ba462" target="_top" xlink:title="erase the points from the cloud to save memory ">
<polygon fill="white" stroke="black" points="785.5,-347.5 785.5,-366.5 900.5,-366.5 900.5,-347.5 785.5,-347.5"/>
<text text-anchor="middle" x="843" y="-354.5" font-family="Helvetica,sans-Serif" font-size="10.00">Node::clearPointCloud</text>
</a>
</g>
</g>
<!-- Node14&#45;&gt;Node18 -->
<g id="edge28" class="edge"><title>Node14&#45;&gt;Node18</title>
<path fill="none" stroke="midnightblue" d="M731.147,-367.97C745.806,-366.519 760.939,-365.022 775.134,-363.617"/>
<polygon fill="midnightblue" stroke="midnightblue" points="775.677,-367.08 785.283,-362.613 774.987,-360.114 775.677,-367.08"/>
</g>
<!-- Node15&#45;&gt;Node3 -->
<g id="edge19" class="edge"><title>Node15&#45;&gt;Node3</title>
<path fill="none" stroke="midnightblue" d="M898.095,-401.564C1001.05,-402.639 1225.39,-404.98 1343.23,-406.209"/>
<polygon fill="midnightblue" stroke="midnightblue" points="1343.23,-409.709 1353.26,-406.314 1343.3,-402.71 1343.23,-409.709"/>
</g>
<!-- Node16 -->
<g id="node16" class="node"><title>Node16</title>
<g id="a_node16"><a xlink:href="../../d7/ddc/classColorOctomapServer.html#ab96bf80f442fcebd4e269b40dc31f841" target="_top" xlink:title="ColorOctomapServer\l::insertCloudCallbackCommon">
<polygon fill="white" stroke="black" points="950,-300 950,-330 1100,-330 1100,-300 950,-300"/>
<text text-anchor="start" x="958" y="-318" font-family="Helvetica,sans-Serif" font-size="10.00">ColorOctomapServer</text>
<text text-anchor="middle" x="1025" y="-307" font-family="Helvetica,sans-Serif" font-size="10.00">::insertCloudCallbackCommon</text>
</a>
</g>
</g>
<!-- Node15&#45;&gt;Node16 -->
<g id="edge20" class="edge"><title>Node15&#45;&gt;Node16</title>
<path fill="none" stroke="midnightblue" d="M889.617,-385.927C897.828,-382.871 906.24,-379.509 914,-376 940.463,-364.033 969.12,-348.036 990.548,-335.426"/>
<polygon fill="midnightblue" stroke="midnightblue" points="992.451,-338.367 999.262,-330.251 988.877,-332.348 992.451,-338.367"/>
</g>
<!-- Node16&#45;&gt;Node3 -->
<g id="edge21" class="edge"><title>Node16&#45;&gt;Node3</title>
<path fill="none" stroke="midnightblue" d="M1100.07,-329.247C1156.27,-340.411 1235.3,-356.876 1304,-374 1328.82,-380.186 1356.37,-388.057 1378.28,-394.56"/>
<polygon fill="midnightblue" stroke="midnightblue" points="1377.34,-397.931 1387.92,-397.44 1379.34,-391.224 1377.34,-397.931"/>
</g>
<!-- Node16&#45;&gt;Node5 -->
<g id="edge22" class="edge"><title>Node16&#45;&gt;Node5</title>
<path fill="none" stroke="midnightblue" d="M1073.16,-299.998C1092.53,-294.057 1115.25,-287.377 1136,-282 1212.93,-262.063 1302.71,-243.117 1360.17,-231.534"/>
<polygon fill="midnightblue" stroke="midnightblue" points="1361.04,-234.928 1370.16,-229.529 1359.67,-228.065 1361.04,-234.928"/>
</g>
<!-- Node17 -->
<g id="node17" class="node"><title>Node17</title>
<g id="a_node17"><a xlink:href="../../d7/ddc/classColorOctomapServer.html#ac7cca7bcabafb3876d7ad4bb3a6b6c8f" target="_top" xlink:title="Clear octomap and reset values to paramters from parameter server. ">
<polygon fill="white" stroke="black" points="1166,-291 1166,-321 1274,-321 1274,-291 1166,-291"/>
<text text-anchor="start" x="1174" y="-309" font-family="Helvetica,sans-Serif" font-size="10.00">ColorOctomapServer</text>
<text text-anchor="middle" x="1220" y="-298" font-family="Helvetica,sans-Serif" font-size="10.00">::reset</text>
</a>
</g>
</g>
<!-- Node16&#45;&gt;Node17 -->
<g id="edge23" class="edge"><title>Node16&#45;&gt;Node17</title>
<path fill="none" stroke="midnightblue" d="M1100.07,-311.546C1118.37,-310.692 1137.82,-309.786 1155.57,-308.958"/>
<polygon fill="midnightblue" stroke="midnightblue" points="1155.97,-312.443 1165.8,-308.481 1155.65,-305.451 1155.97,-312.443"/>
</g>
<!-- Node17&#45;&gt;Node3 -->
<g id="edge24" class="edge"><title>Node17&#45;&gt;Node3</title>
<path fill="none" stroke="midnightblue" d="M1267.79,-321.006C1279.8,-325.371 1292.55,-330.469 1304,-336 1337.8,-352.325 1374.26,-375.969 1396.86,-391.412"/>
<polygon fill="midnightblue" stroke="midnightblue" points="1395.15,-394.486 1405.37,-397.288 1399.13,-388.726 1395.15,-394.486"/>
</g>
<!-- Node17&#45;&gt;Node5 -->
<g id="edge25" class="edge"><title>Node17&#45;&gt;Node5</title>
<path fill="none" stroke="midnightblue" d="M1265.27,-290.981C1277.89,-286.436 1291.58,-281.251 1304,-276 1334.6,-263.061 1368.72,-246.117 1391.79,-234.27"/>
<polygon fill="midnightblue" stroke="midnightblue" points="1393.68,-237.232 1400.95,-229.531 1390.46,-231.014 1393.68,-237.232"/>
</g>
<!-- Node21 -->
<g id="node21" class="node"><title>Node21</title>
<g id="a_node21"><a xlink:href="../../d4/d08/misc_8h.html#a2b945fc2871e0006d856539080d3e0a0" target="_top" xlink:title="eigenTF2QMatrix">
<polygon fill="white" stroke="black" points="797,-530.5 797,-549.5 889,-549.5 889,-530.5 797,-530.5"/>
<text text-anchor="middle" x="843" y="-537.5" font-family="Helvetica,sans-Serif" font-size="10.00">eigenTF2QMatrix</text>
</a>
</g>
</g>
<!-- Node20&#45;&gt;Node21 -->
<g id="edge31" class="edge"><title>Node20&#45;&gt;Node21</title>
<path fill="none" stroke="midnightblue" d="M715.539,-511.019C740.048,-516.636 767.513,-522.93 790.569,-528.214"/>
<polygon fill="midnightblue" stroke="midnightblue" points="789.962,-531.665 800.491,-530.488 791.526,-524.842 789.962,-531.665"/>
</g>
<!-- Node22 -->
<g id="node22" class="node"><title>Node22</title>
<g id="a_node22"><a xlink:href="../../d4/d08/misc_8h.html#afe9e1e85e61b3925b1121b6a11177591" target="_top" xlink:title="printQMatrix4x4">
<polygon fill="white" stroke="black" points="982,-530.5 982,-549.5 1068,-549.5 1068,-530.5 982,-530.5"/>
<text text-anchor="middle" x="1025" y="-537.5" font-family="Helvetica,sans-Serif" font-size="10.00">printQMatrix4x4</text>
</a>
</g>
</g>
<!-- Node21&#45;&gt;Node22 -->
<g id="edge32" class="edge"><title>Node21&#45;&gt;Node22</title>
<path fill="none" stroke="midnightblue" d="M889.422,-540C914.522,-540 945.811,-540 971.901,-540"/>
<polygon fill="midnightblue" stroke="midnightblue" points="971.99,-543.5 981.99,-540 971.99,-536.5 971.99,-543.5"/>
</g>
<!-- Node25&#45;&gt;Node3 -->
<g id="edge36" class="edge"><title>Node25&#45;&gt;Node3</title>
<path fill="none" stroke="midnightblue" d="M1240.45,-107.535C1258.93,-117.439 1286.43,-134.491 1304,-156 1329.44,-187.137 1323.44,-202.358 1340,-239 1364.56,-293.36 1394.9,-356.929 1409.83,-387.978"/>
<polygon fill="midnightblue" stroke="midnightblue" points="1406.77,-389.709 1414.27,-397.202 1413.08,-386.673 1406.77,-389.709"/>
</g>
<!-- Node25&#45;&gt;Node5 -->
<g id="edge37" class="edge"><title>Node25&#45;&gt;Node5</title>
<path fill="none" stroke="midnightblue" d="M1277.78,-107.501C1287.24,-110.941 1296.43,-115.624 1304,-122 1331.98,-145.555 1312.18,-172.257 1340,-196 1344.87,-200.152 1350.44,-203.586 1356.32,-206.426"/>
<polygon fill="midnightblue" stroke="midnightblue" points="1355.18,-209.747 1365.76,-210.418 1357.91,-203.3 1355.18,-209.747"/>
</g>
<!-- Node25&#45;&gt;Node8 -->
<g id="edge38" class="edge"><title>Node25&#45;&gt;Node8</title>
<path fill="none" stroke="midnightblue" d="M1270.71,-88.46C1300.12,-82.8158 1337.32,-75.6763 1367.1,-69.9601"/>
<polygon fill="midnightblue" stroke="midnightblue" points="1368.14,-73.3245 1377.3,-68.0023 1366.82,-66.4499 1368.14,-73.3245"/>
</g>
<!-- Node25&#45;&gt;Node10 -->
<g id="edge39" class="edge"><title>Node25&#45;&gt;Node10</title>
<path fill="none" stroke="midnightblue" d="M1268.18,-107.588C1280.3,-111.125 1293.01,-115.83 1304,-122 1322.92,-132.628 1321.02,-144.465 1340,-155 1346.5,-158.611 1353.64,-161.664 1360.89,-164.237"/>
<polygon fill="midnightblue" stroke="midnightblue" points="1360.19,-167.69 1370.78,-167.455 1362.36,-161.034 1360.19,-167.69"/>
</g>
<!-- Node26 -->
<g id="node26" class="node"><title>Node26</title>
<g id="a_node26"><a xlink:href="../../d7/d5f/misc_8cpp.html#a5fe4bf570dc4fd7572956a0b1d082727" target="_top" xlink:title="Write Transformation to textstream. ">
<polygon fill="white" stroke="black" points="1383,-88.5 1383,-107.5 1457,-107.5 1457,-88.5 1383,-88.5"/>
<text text-anchor="middle" x="1420" y="-95.5" font-family="Helvetica,sans-Serif" font-size="10.00">logTransform</text>
</a>
</g>
</g>
<!-- Node25&#45;&gt;Node26 -->
<g id="edge40" class="edge"><title>Node25&#45;&gt;Node26</title>
<path fill="none" stroke="midnightblue" d="M1295.57,-98C1321.53,-98 1349.87,-98 1372.84,-98"/>
<polygon fill="midnightblue" stroke="midnightblue" points="1372.99,-101.5 1382.99,-98 1372.99,-94.5001 1372.99,-101.5"/>
</g>
<!-- Node27 -->
<g id="node27" class="node"><title>Node27</title>
<g id="a_node27"><a xlink:href="../../df/dd0/classNode.html#aa714d9c36f25c4a40d69b6bd100c10fe" target="_top" xlink:title="Transform, e.g., from MoCap. ">
<polygon fill="white" stroke="black" points="1341,-126.5 1341,-145.5 1499,-145.5 1499,-126.5 1341,-126.5"/>
<text text-anchor="middle" x="1420" y="-133.5" font-family="Helvetica,sans-Serif" font-size="10.00">Node::getGroundTruthTransform</text>
</a>
</g>
</g>
<!-- Node25&#45;&gt;Node27 -->
<g id="edge41" class="edge"><title>Node25&#45;&gt;Node27</title>
<path fill="none" stroke="midnightblue" d="M1270.71,-107.54C1297.54,-112.69 1330.86,-119.084 1359.11,-124.506"/>
<polygon fill="midnightblue" stroke="midnightblue" points="1358.79,-128.009 1369.27,-126.456 1360.11,-121.134 1358.79,-128.009"/>
</g>
<!-- Node29&#45;&gt;Node3 -->
<g id="edge45" class="edge"><title>Node29&#45;&gt;Node3</title>
<path fill="none" stroke="midnightblue" d="M511.412,-154.219C611.723,-142.479 799.221,-136.538 914,-232 952.576,-264.084 911.724,-306.558 950,-339 1013.88,-393.141 1053.16,-356.76 1136,-369 1206.2,-379.373 1286.39,-390.028 1343.44,-397.405"/>
<polygon fill="midnightblue" stroke="midnightblue" points="1343.09,-400.889 1353.45,-398.698 1343.98,-393.947 1343.09,-400.889"/>
</g>
</g>
</svg>
        <g id="navigator" transform="translate(0 0)" fill="#404254">
                <rect fill="#f2f5e9" fill-opacity="0.5" stroke="#606060" stroke-width=".5" x="0" y="0" width="60" height="60"/>
                <use id="zoomplus" xlink:href="#zoomPlus" x="17" y="9" onmousedown="handleZoom(evt,'in')"/>
                <use id="zoomminus" xlink:href="#zoomMin" x="42" y="9" onmousedown="handleZoom(evt,'out')"/>
                <use id="reset" xlink:href="#resetDef" x="30" y="36" onmousedown="handleReset()"/>
                <g id="arrowUp" xlink:href="#dirArrow" transform="translate(30 24)" onmousedown="handlePan(0,-1)">
                  <use xlink:href="#rim" fill="#404040">
                        <set attributeName="fill" to="#808080" begin="arrowUp.mouseover" end="arrowUp.mouseout"/>
                  </use>
                  <path fill="none" stroke="white" stroke-width="1.5" d="M0,-3.0v7 M-2.5,-0.5L0,-3.0L2.5,-0.5"/>
                </g>
                <g id="arrowRight" xlink:href="#dirArrow" transform="rotate(90) translate(36 -43)" onmousedown="handlePan(1,0)">
                  <use xlink:href="#rim" fill="#404040">
                        <set attributeName="fill" to="#808080" begin="arrowRight.mouseover" end="arrowRight.mouseout"/>
                  </use>
                  <path fill="none" stroke="white" stroke-width="1.5" d="M0,-3.0v7 M-2.5,-0.5L0,-3.0L2.5,-0.5"/>
                </g>
                <g id="arrowDown" xlink:href="#dirArrow" transform="rotate(180) translate(-30 -48)" onmousedown="handlePan(0,1)">
                  <use xlink:href="#rim" fill="#404040">
                        <set attributeName="fill" to="#808080" begin="arrowDown.mouseover" end="arrowDown.mouseout"/>
                  </use>
                  <path fill="none" stroke="white" stroke-width="1.5" d="M0,-3.0v7 M-2.5,-0.5L0,-3.0L2.5,-0.5"/>
                </g>
                <g id="arrowLeft" xlink:href="#dirArrow" transform="rotate(270) translate(-36 17)" onmousedown="handlePan(-1,0)">
                  <use xlink:href="#rim" fill="#404040">
                        <set attributeName="fill" to="#808080" begin="arrowLeft.mouseover" end="arrowLeft.mouseout"/>
                  </use>
                  <path fill="none" stroke="white" stroke-width="1.5" d="M0,-3.0v7 M-2.5,-0.5L0,-3.0L2.5,-0.5"/>
                </g>
        </g>
        <svg viewBox="0 0 15 15" width="100%" height="30px" preserveAspectRatio="xMaxYMin meet">
         <g id="arrow_out" transform="scale(0.3 0.3)">
          <a xlink:href="classOpenNIListener_ad378bcf21f209a9ee72357a4ac034f5e_cgraph_org.svg" target="_base">
           <rect id="button" ry="5" rx="5" y="6" x="6" height="38" width="38"
                fill="#f2f5e9" fill-opacity="0.5" stroke="#606060" stroke-width="1.0"/>
           <path id="arrow"
             d="M 11.500037,31.436501 C 11.940474,20.09759 22.043105,11.32322 32.158766,21.979434 L 37.068811,17.246167 C 37.068811,17.246167 37.088388,32 37.088388,32 L 22.160133,31.978069 C 22.160133,31.978069 26.997745,27.140456 26.997745,27.140456 C 18.528582,18.264221 13.291696,25.230495 11.500037,31.436501 z"
             style="fill:#404040;"/>
          </a>
         </g>
        </svg>
</svg>
