<?xml version="1.0" encoding="UTF-8" standalone="no"?>
<!DOCTYPE svg PUBLIC "-//W3C//DTD SVG 1.1//EN"
 "http://www.w3.org/Graphics/SVG/1.1/DTD/svg11.dtd">
<!-- Generated by graphviz version 2.36.0 (20140111.2315)
 -->
<!-- Title: OpenNIListener::processBagfile Pages: 1 -->
<svg width="498pt" height="104pt"
 viewBox="0.00 0.00 498.00 104.00" xmlns="http://www.w3.org/2000/svg" xmlns:xlink="http://www.w3.org/1999/xlink">
<g id="graph0" class="graph" transform="scale(1 1) rotate(0) translate(4 100)">
<title>OpenNIListener::processBagfile</title>
<polygon fill="white" stroke="none" points="-4,4 -4,-100 494,-100 494,4 -4,4"/>
<!-- Node1 -->
<g id="node1" class="node"><title>Node1</title>
<polygon fill="#bfbfbf" stroke="black" points="0.5,-38.5 0.5,-57.5 155.5,-57.5 155.5,-38.5 0.5,-38.5"/>
<text text-anchor="middle" x="78" y="-45.5" font-family="Helvetica,sans-Serif" font-size="10.00">OpenNIListener::processBagfile</text>
</g>
<!-- Node2 -->
<g id="node2" class="node"><title>Node2</title>
<g id="a_node2"><a xlink:href="../../db/d34/openni__listener_8cpp.html#af34b43416e058262e3f3dc2c13a36130" target="_top" xlink:title="addTFMessageDirectlyToTransformer">
<polygon fill="white" stroke="black" points="192,-76.5 192,-95.5 374,-95.5 374,-76.5 192,-76.5"/>
<text text-anchor="middle" x="283" y="-83.5" font-family="Helvetica,sans-Serif" font-size="10.00">addTFMessageDirectlyToTransformer</text>
</a>
</g>
</g>
<!-- Node1&#45;&gt;Node2 -->
<g id="edge1" class="edge"><title>Node1&#45;&gt;Node2</title>
<path fill="none" stroke="midnightblue" d="M129.963,-57.54C157.594,-62.7122 191.933,-69.1401 220.981,-74.5778"/>
<polygon fill="midnightblue" stroke="midnightblue" points="220.542,-78.0563 231.016,-76.4561 221.83,-71.1758 220.542,-78.0563"/>
</g>
<!-- Node3 -->
<g id="node3" class="node"><title>Node3</title>
<g id="a_node3"><a xlink:href="../../dc/d96/classOpenNIListener.html#aef5401f522f12aa17557fd94c1154ea0" target="_top" xlink:title="Callback for the robot odometry. ">
<polygon fill="white" stroke="black" points="206.5,-38.5 206.5,-57.5 359.5,-57.5 359.5,-38.5 206.5,-38.5"/>
<text text-anchor="middle" x="283" y="-45.5" font-family="Helvetica,sans-Serif" font-size="10.00">OpenNIListener::odomCallback</text>
</a>
</g>
</g>
<!-- Node1&#45;&gt;Node3 -->
<g id="edge2" class="edge"><title>Node1&#45;&gt;Node3</title>
<path fill="none" stroke="midnightblue" d="M155.746,-48C168.987,-48 182.828,-48 196.288,-48"/>
<polygon fill="midnightblue" stroke="midnightblue" points="196.491,-51.5001 206.491,-48 196.491,-44.5001 196.491,-51.5001"/>
</g>
<!-- Node5 -->
<g id="node5" class="node"><title>Node5</title>
<g id="a_node5"><a xlink:href="../../d3/dee/classBagSubscriber.html#aed568d79cd681f8f5ea206f424674e4e" target="_top" xlink:title="BagSubscriber::newMessage">
<polygon fill="white" stroke="black" points="211,-0.5 211,-19.5 355,-19.5 355,-0.5 211,-0.5"/>
<text text-anchor="middle" x="283" y="-7.5" font-family="Helvetica,sans-Serif" font-size="10.00">BagSubscriber::newMessage</text>
</a>
</g>
</g>
<!-- Node1&#45;&gt;Node5 -->
<g id="edge4" class="edge"><title>Node1&#45;&gt;Node5</title>
<path fill="none" stroke="midnightblue" d="M129.963,-38.46C157.594,-33.2878 191.933,-26.8599 220.981,-21.4222"/>
<polygon fill="midnightblue" stroke="midnightblue" points="221.83,-24.8242 231.016,-19.5439 220.542,-17.9437 221.83,-24.8242"/>
</g>
<!-- Node4 -->
<g id="node4" class="node"><title>Node4</title>
<g id="a_node4"><a xlink:href="../../d7/d5f/misc_8cpp.html#a620c2e3dd4f6b457a8425876e8632981" target="_top" xlink:title="Print tf::Transform via ROS_INFO. ">
<polygon fill="white" stroke="black" points="410,-38.5 410,-57.5 490,-57.5 490,-38.5 410,-38.5"/>
<text text-anchor="middle" x="450" y="-45.5" font-family="Helvetica,sans-Serif" font-size="10.00">printTransform</text>
</a>
</g>
</g>
<!-- Node3&#45;&gt;Node4 -->
<g id="edge3" class="edge"><title>Node3&#45;&gt;Node4</title>
<path fill="none" stroke="midnightblue" d="M359.739,-48C373.241,-48 386.986,-48 399.515,-48"/>
<polygon fill="midnightblue" stroke="midnightblue" points="399.721,-51.5001 409.721,-48 399.721,-44.5001 399.721,-51.5001"/>
</g>
</g>
</svg>
