<?xml version="1.0" encoding="UTF-8" standalone="no"?>
<!DOCTYPE svg PUBLIC "-//W3C//DTD SVG 1.1//EN"
 "http://www.w3.org/Graphics/SVG/1.1/DTD/svg11.dtd">
<!-- Generated by graphviz version 2.36.0 (20140111.2315)
 -->
<!-- Title: OpenNIListener::retrieveTransformations Pages: 1 -->
<svg width="328pt" height="218pt"
 viewBox="0.00 0.00 328.00 218.00" xmlns="http://www.w3.org/2000/svg" xmlns:xlink="http://www.w3.org/1999/xlink">
<g id="graph0" class="graph" transform="scale(1 1) rotate(0) translate(4 214)">
<title>OpenNIListener::retrieveTransformations</title>
<polygon fill="white" stroke="none" points="-4,4 -4,-214 324,-214 324,4 -4,4"/>
<!-- Node1 -->
<g id="node1" class="node"><title>Node1</title>
<polygon fill="#bfbfbf" stroke="black" points="0.5,-90 0.5,-120 123.5,-120 123.5,-90 0.5,-90"/>
<text text-anchor="start" x="8.5" y="-108" font-family="Helvetica,sans-Serif" font-size="10.00">OpenNIListener::retrieve</text>
<text text-anchor="middle" x="62" y="-97" font-family="Helvetica,sans-Serif" font-size="10.00">Transformations</text>
</g>
<!-- Node2 -->
<g id="node2" class="node"><title>Node2</title>
<g id="a_node2"><a xlink:href="../../d3/d3e/classParameterServer.html#a5457f900e543c5a466bf9b65ee6bc577" target="_top" xlink:title="ParameterServer::instance">
<polygon fill="white" stroke="black" points="173.5,-190.5 173.5,-209.5 306.5,-209.5 306.5,-190.5 173.5,-190.5"/>
<text text-anchor="middle" x="240" y="-197.5" font-family="Helvetica,sans-Serif" font-size="10.00">ParameterServer::instance</text>
</a>
</g>
</g>
<!-- Node1&#45;&gt;Node2 -->
<g id="edge1" class="edge"><title>Node1&#45;&gt;Node2</title>
<path fill="none" stroke="midnightblue" d="M78.0349,-120.222C95.9792,-137.515 127.642,-165.357 160,-181 165.001,-183.418 170.332,-185.541 175.774,-187.403"/>
<polygon fill="midnightblue" stroke="midnightblue" points="175.053,-190.845 185.641,-190.481 177.137,-184.162 175.053,-190.845"/>
</g>
<!-- Node3 -->
<g id="node3" class="node"><title>Node3</title>
<g id="a_node3"><a xlink:href="../../d3/d3e/classParameterServer.html#a3c8af50664e423b555bbb1874f488413" target="_top" xlink:title="ParameterServer::get">
<polygon fill="white" stroke="black" points="185,-152.5 185,-171.5 295,-171.5 295,-152.5 185,-152.5"/>
<text text-anchor="middle" x="240" y="-159.5" font-family="Helvetica,sans-Serif" font-size="10.00">ParameterServer::get</text>
</a>
</g>
</g>
<!-- Node1&#45;&gt;Node3 -->
<g id="edge2" class="edge"><title>Node1&#45;&gt;Node3</title>
<path fill="none" stroke="midnightblue" d="M98.0578,-120.08C116.312,-127.586 139.124,-136.434 160,-143 167.845,-145.467 176.213,-147.796 184.461,-149.921"/>
<polygon fill="midnightblue" stroke="midnightblue" points="183.866,-153.38 194.417,-152.409 185.563,-146.589 183.866,-153.38"/>
</g>
<!-- Node4 -->
<g id="node4" class="node"><title>Node4</title>
<g id="a_node4"><a xlink:href="../../df/dd0/classNode.html#a4d9b0d79ef7dea9c6af21b3ac595f902" target="_top" xlink:title="Transform, e.g., from kinematics. ">
<polygon fill="white" stroke="black" points="160.5,-114.5 160.5,-133.5 319.5,-133.5 319.5,-114.5 160.5,-114.5"/>
<text text-anchor="middle" x="240" y="-121.5" font-family="Helvetica,sans-Serif" font-size="10.00">Node::setBase2PointsTransform</text>
</a>
</g>
</g>
<!-- Node1&#45;&gt;Node4 -->
<g id="edge3" class="edge"><title>Node1&#45;&gt;Node4</title>
<path fill="none" stroke="midnightblue" d="M123.569,-111.539C132.166,-112.467 141.152,-113.437 150.149,-114.408"/>
<polygon fill="midnightblue" stroke="midnightblue" points="149.974,-117.909 160.292,-115.503 150.725,-110.95 149.974,-117.909"/>
</g>
<!-- Node5 -->
<g id="node5" class="node"><title>Node5</title>
<g id="a_node5"><a xlink:href="../../d7/d5f/misc_8cpp.html#a620c2e3dd4f6b457a8425876e8632981" target="_top" xlink:title="Print tf::Transform via ROS_INFO. ">
<polygon fill="white" stroke="black" points="200,-76.5 200,-95.5 280,-95.5 280,-76.5 200,-76.5"/>
<text text-anchor="middle" x="240" y="-83.5" font-family="Helvetica,sans-Serif" font-size="10.00">printTransform</text>
</a>
</g>
</g>
<!-- Node1&#45;&gt;Node5 -->
<g id="edge4" class="edge"><title>Node1&#45;&gt;Node5</title>
<path fill="none" stroke="midnightblue" d="M123.569,-98.4613C145.175,-96.1288 169.233,-93.5317 189.769,-91.3147"/>
<polygon fill="midnightblue" stroke="midnightblue" points="190.281,-94.7798 199.848,-90.2267 189.53,-87.8203 190.281,-94.7798"/>
</g>
<!-- Node6 -->
<g id="node6" class="node"><title>Node6</title>
<g id="a_node6"><a xlink:href="../../df/dd0/classNode.html#a39644ae64c817033973967ebb855dfd5" target="_top" xlink:title="Transform, e.g., from MoCap. ">
<polygon fill="white" stroke="black" points="161,-38.5 161,-57.5 319,-57.5 319,-38.5 161,-38.5"/>
<text text-anchor="middle" x="240" y="-45.5" font-family="Helvetica,sans-Serif" font-size="10.00">Node::setGroundTruthTransform</text>
</a>
</g>
</g>
<!-- Node1&#45;&gt;Node6 -->
<g id="edge5" class="edge"><title>Node1&#45;&gt;Node6</title>
<path fill="none" stroke="midnightblue" d="M98.0578,-89.9204C116.312,-82.4139 139.124,-73.5655 160,-67 167.845,-64.5329 176.213,-62.2041 184.461,-60.0786"/>
<polygon fill="midnightblue" stroke="midnightblue" points="185.563,-63.4108 194.417,-57.5911 183.866,-56.6195 185.563,-63.4108"/>
</g>
<!-- Node7 -->
<g id="node7" class="node"><title>Node7</title>
<g id="a_node7"><a xlink:href="../../df/dd0/classNode.html#a3eedff023f393f8ae54991778ea90c2d" target="_top" xlink:title="Transform, e.g., from Joint/Wheel odometry. ">
<polygon fill="white" stroke="black" points="175,-0.5 175,-19.5 305,-19.5 305,-0.5 175,-0.5"/>
<text text-anchor="middle" x="240" y="-7.5" font-family="Helvetica,sans-Serif" font-size="10.00">Node::setOdomTransform</text>
</a>
</g>
</g>
<!-- Node1&#45;&gt;Node7 -->
<g id="edge6" class="edge"><title>Node1&#45;&gt;Node7</title>
<path fill="none" stroke="midnightblue" d="M78.0349,-89.7781C95.9792,-72.4853 127.642,-44.6434 160,-29 165.001,-26.5825 170.332,-24.4591 175.774,-22.5967"/>
<polygon fill="midnightblue" stroke="midnightblue" points="177.137,-25.8378 185.641,-19.5188 175.053,-19.1554 177.137,-25.8378"/>
</g>
</g>
</svg>
