<?xml version="1.0" encoding="UTF-8" standalone="no"?>
<!DOCTYPE svg PUBLIC "-//W3C//DTD SVG 1.1//EN"
 "http://www.w3.org/Graphics/SVG/1.1/DTD/svg11.dtd">
<!-- Generated by graphviz version 2.36.0 (20140111.2315)
 -->
<!-- Title: src/IOWrapper/ROS/ROSOutput3DWrapper.h Pages: 1 -->
<svg width="320pt" height="432pt"
 viewBox="0.00 0.00 320.00 432.00" xmlns="http://www.w3.org/2000/svg" xmlns:xlink="http://www.w3.org/1999/xlink">
<g id="graph0" class="graph" transform="scale(1 1) rotate(0) translate(4 428)">
<title>src/IOWrapper/ROS/ROSOutput3DWrapper.h</title>
<polygon fill="white" stroke="none" points="-4,4 -4,-428 316,-428 316,4 -4,4"/>
<!-- Node1 -->
<g id="node1" class="node"><title>Node1</title>
<polygon fill="#bfbfbf" stroke="black" points="6,-393 6,-423 170,-423 170,-393 6,-393"/>
<text text-anchor="start" x="14" y="-411" font-family="Helvetica,sans-Serif" font-size="10.00">src/IOWrapper/ROS/ROSOutput3</text>
<text text-anchor="middle" x="88" y="-400" font-family="Helvetica,sans-Serif" font-size="10.00">DWrapper.h</text>
</g>
<!-- Node2 -->
<g id="node2" class="node"><title>Node2</title>
<polygon fill="white" stroke="#bfbfbf" points="-0.5,-336.5 -0.5,-355.5 54.5,-355.5 54.5,-336.5 -0.5,-336.5"/>
<text text-anchor="middle" x="27" y="-343.5" font-family="Helvetica,sans-Serif" font-size="10.00">ros/ros.h</text>
</g>
<!-- Node1&#45;&gt;Node2 -->
<g id="edge1" class="edge"><title>Node1&#45;&gt;Node2</title>
<path fill="none" stroke="midnightblue" d="M73.5439,-392.781C64.4057,-383.792 52.5814,-372.162 43.1376,-362.873"/>
<polygon fill="midnightblue" stroke="midnightblue" points="45.4597,-360.248 35.876,-355.731 40.551,-365.238 45.4597,-360.248"/>
</g>
<!-- Node3 -->
<g id="node3" class="node"><title>Node3</title>
<g id="a_node3"><a xlink:href="../../d8/da7/Output3DWrapper_8h.html" target="_top" xlink:title="IOWrapper/Output3DWrapper.h">
<polygon fill="white" stroke="black" points="73,-336.5 73,-355.5 227,-355.5 227,-336.5 73,-336.5"/>
<text text-anchor="middle" x="150" y="-343.5" font-family="Helvetica,sans-Serif" font-size="10.00">IOWrapper/Output3DWrapper.h</text>
</a>
</g>
</g>
<!-- Node1&#45;&gt;Node3 -->
<g id="edge2" class="edge"><title>Node1&#45;&gt;Node3</title>
<path fill="none" stroke="midnightblue" d="M102.693,-392.781C111.981,-383.792 123.999,-372.162 133.598,-362.873"/>
<polygon fill="midnightblue" stroke="midnightblue" points="136.226,-365.2 140.978,-355.731 131.358,-360.17 136.226,-365.2"/>
</g>
<!-- Node4 -->
<g id="node4" class="node"><title>Node4</title>
<polygon fill="white" stroke="#bfbfbf" points="87.5,-280.5 87.5,-299.5 128.5,-299.5 128.5,-280.5 87.5,-280.5"/>
<text text-anchor="middle" x="108" y="-287.5" font-family="Helvetica,sans-Serif" font-size="10.00">string</text>
</g>
<!-- Node3&#45;&gt;Node4 -->
<g id="edge3" class="edge"><title>Node3&#45;&gt;Node4</title>
<path fill="none" stroke="midnightblue" d="M143.065,-336.083C137.071,-328.377 128.248,-317.033 120.952,-307.653"/>
<polygon fill="midnightblue" stroke="midnightblue" points="123.709,-305.496 114.806,-299.751 118.183,-309.793 123.709,-305.496"/>
</g>
<!-- Node5 -->
<g id="node5" class="node"><title>Node5</title>
<g id="a_node5"><a xlink:href="../../d2/d13/SophusUtil_8h.html" target="_top" xlink:title="util/SophusUtil.h">
<polygon fill="white" stroke="black" points="146.5,-280.5 146.5,-299.5 235.5,-299.5 235.5,-280.5 146.5,-280.5"/>
<text text-anchor="middle" x="191" y="-287.5" font-family="Helvetica,sans-Serif" font-size="10.00">util/SophusUtil.h</text>
</a>
</g>
</g>
<!-- Node3&#45;&gt;Node5 -->
<g id="edge4" class="edge"><title>Node3&#45;&gt;Node5</title>
<path fill="none" stroke="midnightblue" d="M156.77,-336.083C162.562,-328.455 171.058,-317.264 178.138,-307.941"/>
<polygon fill="midnightblue" stroke="midnightblue" points="181.096,-309.832 184.356,-299.751 175.521,-305.599 181.096,-309.832"/>
</g>
<!-- Node6 -->
<g id="node6" class="node"><title>Node6</title>
<g id="a_node6"><a xlink:href="../../dc/d5c/sim3_8hpp.html" target="_top" xlink:title="sophus/sim3.hpp">
<polygon fill="white" stroke="black" points="104.5,-224.5 104.5,-243.5 195.5,-243.5 195.5,-224.5 104.5,-224.5"/>
<text text-anchor="middle" x="150" y="-231.5" font-family="Helvetica,sans-Serif" font-size="10.00">sophus/sim3.hpp</text>
</a>
</g>
</g>
<!-- Node5&#45;&gt;Node6 -->
<g id="edge5" class="edge"><title>Node5&#45;&gt;Node6</title>
<path fill="none" stroke="midnightblue" d="M184.23,-280.083C178.438,-272.455 169.942,-261.264 162.862,-251.941"/>
<polygon fill="midnightblue" stroke="midnightblue" points="165.479,-249.599 156.644,-243.751 159.904,-253.832 165.479,-249.599"/>
</g>
<!-- Node13 -->
<g id="node13" class="node"><title>Node13</title>
<g id="a_node13"><a xlink:href="../../d4/d4b/se3_8hpp.html" target="_top" xlink:title="sophus/se3.hpp">
<polygon fill="white" stroke="black" points="194,-168.5 194,-187.5 280,-187.5 280,-168.5 194,-168.5"/>
<text text-anchor="middle" x="237" y="-175.5" font-family="Helvetica,sans-Serif" font-size="10.00">sophus/se3.hpp</text>
</a>
</g>
</g>
<!-- Node5&#45;&gt;Node13 -->
<g id="edge13" class="edge"><title>Node5&#45;&gt;Node13</title>
<path fill="none" stroke="midnightblue" d="M194.61,-280.368C202.1,-262.456 219.468,-220.923 229.494,-196.948"/>
<polygon fill="midnightblue" stroke="midnightblue" points="232.778,-198.168 233.407,-187.591 226.32,-195.467 232.778,-198.168"/>
</g>
<!-- Node7 -->
<g id="node7" class="node"><title>Node7</title>
<g id="a_node7"><a xlink:href="../../d7/d6a/rxso3_8hpp.html" target="_top" xlink:title="rxso3.hpp">
<polygon fill="white" stroke="black" points="116.5,-168.5 116.5,-187.5 175.5,-187.5 175.5,-168.5 116.5,-168.5"/>
<text text-anchor="middle" x="146" y="-175.5" font-family="Helvetica,sans-Serif" font-size="10.00">rxso3.hpp</text>
</a>
</g>
</g>
<!-- Node6&#45;&gt;Node7 -->
<g id="edge6" class="edge"><title>Node6&#45;&gt;Node7</title>
<path fill="none" stroke="midnightblue" d="M149.339,-224.083C148.815,-217.006 148.064,-206.861 147.406,-197.986"/>
<polygon fill="midnightblue" stroke="midnightblue" points="150.877,-197.465 146.648,-187.751 143.897,-197.982 150.877,-197.465"/>
</g>
<!-- Node8 -->
<g id="node8" class="node"><title>Node8</title>
<g id="a_node8"><a xlink:href="../../d7/dc1/sophus_8hpp.html" target="_top" xlink:title="sophus.hpp">
<polygon fill="white" stroke="black" points="139.5,-56.5 139.5,-75.5 206.5,-75.5 206.5,-56.5 139.5,-56.5"/>
<text text-anchor="middle" x="173" y="-63.5" font-family="Helvetica,sans-Serif" font-size="10.00">sophus.hpp</text>
</a>
</g>
</g>
<!-- Node7&#45;&gt;Node8 -->
<g id="edge7" class="edge"><title>Node7&#45;&gt;Node8</title>
<path fill="none" stroke="midnightblue" d="M148.119,-168.368C152.476,-150.617 162.527,-109.666 168.435,-85.5974"/>
<polygon fill="midnightblue" stroke="midnightblue" points="171.906,-86.1375 170.891,-75.5914 165.108,-84.4688 171.906,-86.1375"/>
</g>
<!-- Node12 -->
<g id="node12" class="node"><title>Node12</title>
<g id="a_node12"><a xlink:href="../../de/de9/so3_8hpp.html" target="_top" xlink:title="so3.hpp">
<polygon fill="white" stroke="black" points="174.5,-112.5 174.5,-131.5 225.5,-131.5 225.5,-112.5 174.5,-112.5"/>
<text text-anchor="middle" x="200" y="-119.5" font-family="Helvetica,sans-Serif" font-size="10.00">so3.hpp</text>
</a>
</g>
</g>
<!-- Node7&#45;&gt;Node12 -->
<g id="edge11" class="edge"><title>Node7&#45;&gt;Node12</title>
<path fill="none" stroke="midnightblue" d="M154.917,-168.083C162.78,-160.22 174.431,-148.569 183.919,-139.081"/>
<polygon fill="midnightblue" stroke="midnightblue" points="186.653,-141.297 191.249,-131.751 181.703,-136.347 186.653,-141.297"/>
</g>
<!-- Node9 -->
<g id="node9" class="node"><title>Node9</title>
<polygon fill="white" stroke="#bfbfbf" points="61.5,-0.5 61.5,-19.5 120.5,-19.5 120.5,-0.5 61.5,-0.5"/>
<text text-anchor="middle" x="91" y="-7.5" font-family="Helvetica,sans-Serif" font-size="10.00">stdexcept</text>
</g>
<!-- Node8&#45;&gt;Node9 -->
<g id="edge8" class="edge"><title>Node8&#45;&gt;Node9</title>
<path fill="none" stroke="midnightblue" d="M159.825,-56.324C147.153,-47.979 127.767,-35.2122 112.794,-25.3524"/>
<polygon fill="midnightblue" stroke="midnightblue" points="114.419,-22.2313 104.142,-19.6545 110.569,-28.0776 114.419,-22.2313"/>
</g>
<!-- Node10 -->
<g id="node10" class="node"><title>Node10</title>
<polygon fill="white" stroke="#bfbfbf" points="138.5,-0.5 138.5,-19.5 207.5,-19.5 207.5,-0.5 138.5,-0.5"/>
<text text-anchor="middle" x="173" y="-7.5" font-family="Helvetica,sans-Serif" font-size="10.00">Eigen/Eigen</text>
</g>
<!-- Node8&#45;&gt;Node10 -->
<g id="edge9" class="edge"><title>Node8&#45;&gt;Node10</title>
<path fill="none" stroke="midnightblue" d="M173,-56.083C173,-49.0059 173,-38.8611 173,-29.9865"/>
<polygon fill="midnightblue" stroke="midnightblue" points="176.5,-29.751 173,-19.7511 169.5,-29.7511 176.5,-29.751"/>
</g>
<!-- Node11 -->
<g id="node11" class="node"><title>Node11</title>
<polygon fill="white" stroke="#bfbfbf" points="225.5,-0.5 225.5,-19.5 312.5,-19.5 312.5,-0.5 225.5,-0.5"/>
<text text-anchor="middle" x="269" y="-7.5" font-family="Helvetica,sans-Serif" font-size="10.00">Eigen/Geometry</text>
</g>
<!-- Node8&#45;&gt;Node11 -->
<g id="edge10" class="edge"><title>Node8&#45;&gt;Node11</title>
<path fill="none" stroke="midnightblue" d="M188.424,-56.324C203.54,-47.8215 226.815,-34.7288 244.471,-24.7975"/>
<polygon fill="midnightblue" stroke="midnightblue" points="246.614,-27.6077 253.614,-19.6545 243.183,-21.5066 246.614,-27.6077"/>
</g>
<!-- Node12&#45;&gt;Node8 -->
<g id="edge12" class="edge"><title>Node12&#45;&gt;Node8</title>
<path fill="none" stroke="midnightblue" d="M195.541,-112.083C191.846,-104.691 186.477,-93.9533 181.906,-84.8111"/>
<polygon fill="midnightblue" stroke="midnightblue" points="184.978,-83.1301 177.376,-75.7511 178.717,-86.2606 184.978,-83.1301"/>
</g>
<!-- Node13&#45;&gt;Node12 -->
<g id="edge14" class="edge"><title>Node13&#45;&gt;Node12</title>
<path fill="none" stroke="midnightblue" d="M230.89,-168.083C225.718,-160.534 218.154,-149.495 211.806,-140.23"/>
<polygon fill="midnightblue" stroke="midnightblue" points="214.536,-138.022 205.996,-131.751 208.761,-141.979 214.536,-138.022"/>
</g>
</g>
</svg>
