<?xml version="1.0" encoding="UTF-8" standalone="no"?>
<!DOCTYPE svg PUBLIC "-//W3C//DTD SVG 1.1//EN"
 "http://www.w3.org/Graphics/SVG/1.1/DTD/svg11.dtd">
<!-- Generated by graphviz version 2.36.0 (20140111.2315)
 -->
<!-- Title: lsd_slam::SlamSystem::trackFrame Pages: 1 -->
<!--zoomable 1117 -->
<svg id="main" version="1.1" xmlns="http://www.w3.org/2000/svg" xmlns:xlink="http://www.w3.org/1999/xlink" xml:space="preserve" onload="init(evt)">
<style type="text/css"><![CDATA[
.edge:hover path { stroke: red; }
.edge:hover polygon { stroke: red; fill: red; }
]]></style>
<script type="text/javascript"><![CDATA[
var edges = document.getElementsByTagName('g');
if (edges && edges.length) {
  for (var i=0;i<edges.length;i++) {
    if (edges[i].id.substr(0,4)=='edge') {
      edges[i].setAttribute('class','edge');
    }
  }
}
]]></script>
        <defs>
                <circle id="rim" cx="0" cy="0" r="7"/>
                <circle id="rim2" cx="0" cy="0" r="3.5"/>
                <g id="zoomPlus">
                        <use xlink:href="#rim" fill="#404040">
                                <set attributeName="fill" to="#808080" begin="zoomplus.mouseover" end="zoomplus.mouseout"/>
                        </use>
                        <path d="M-4,0h8M0,-4v8" fill="none" stroke="white" stroke-width="1.5" pointer-events="none"/>
                </g>
                <g id="zoomMin">
                        <use xlink:href="#rim" fill="#404040">
                                <set attributeName="fill" to="#808080" begin="zoomminus.mouseover" end="zoomminus.mouseout"/>
                        </use>
                        <path d="M-4,0h8" fill="none" stroke="white" stroke-width="1.5" pointer-events="none"/>
                </g>
                <g id="dirArrow">
                        <path fill="none" stroke="white" stroke-width="1.5" d="M0,-3.0v7 M-2.5,-0.5L0,-3.0L2.5,-0.5"/>
                </g>
               <g id="resetDef">
                       <use xlink:href="#rim2" fill="#404040">
                               <set attributeName="fill" to="#808080" begin="reset.mouseover" end="reset.mouseout"/>
                       </use>
               </g>
        </defs>

<script type="text/javascript">
var viewWidth = 894;
var viewHeight = 1117;
var sectionId = 'dynsection-10';
</script>
<script xlink:href="../../svgpan.js"/>
<svg id="graph" class="graph">
<g id="viewport">
<title>lsd_slam::SlamSystem::trackFrame</title>
<polygon fill="white" stroke="none" points="-4,4 -4,-1113 890,-1113 890,4 -4,4"/>
<!-- Node1 -->
<g id="node1" class="node"><title>Node1</title>
<polygon fill="#bfbfbf" stroke="black" points="0,-269 0,-299 118,-299 118,-269 0,-269"/>
<text text-anchor="start" x="8" y="-287" font-family="Helvetica,sans-Serif" font-size="10.00">lsd_slam::SlamSystem</text>
<text text-anchor="middle" x="59" y="-276" font-family="Helvetica,sans-Serif" font-size="10.00">::trackFrame</text>
</g>
<!-- Node2 -->
<g id="node2" class="node"><title>Node2</title>
<g id="a_node2"><a xlink:href="../../d4/d98/classlsd__slam_1_1Relocalizer.html#a55f025b2393347238dd7e039c04cd55f" target="_top" xlink:title="lsd_slam::Relocalizer\l::updateCurrentFrame">
<polygon fill="white" stroke="black" points="173,-400 173,-430 285,-430 285,-400 173,-400"/>
<text text-anchor="start" x="181" y="-418" font-family="Helvetica,sans-Serif" font-size="10.00">lsd_slam::Relocalizer</text>
<text text-anchor="middle" x="229" y="-407" font-family="Helvetica,sans-Serif" font-size="10.00">::updateCurrentFrame</text>
</a>
</g>
</g>
<!-- Node1&#45;&gt;Node2 -->
<g id="edge1" class="edge"><title>Node1&#45;&gt;Node2</title>
<path fill="none" stroke="midnightblue" d="M69.6703,-299.249C84.9209,-322.121 116.692,-365.259 154,-390 157.062,-392.031 160.305,-393.911 163.656,-395.651"/>
<polygon fill="midnightblue" stroke="midnightblue" points="162.191,-398.83 172.729,-399.934 165.18,-392.5 162.191,-398.83"/>
</g>
<!-- Node8 -->
<g id="node8" class="node"><title>Node8</title>
<g id="a_node8"><a xlink:href="../../d5/d8e/classlsd__slam_1_1TrackingReference.html#a73119563af9f3bde976a5a9e4e988b2b" target="_top" xlink:title="lsd_slam::TrackingReference\l::importFrame">
<polygon fill="white" stroke="black" points="157,-978 157,-1008 301,-1008 301,-978 157,-978"/>
<text text-anchor="start" x="165" y="-996" font-family="Helvetica,sans-Serif" font-size="10.00">lsd_slam::TrackingReference</text>
<text text-anchor="middle" x="229" y="-985" font-family="Helvetica,sans-Serif" font-size="10.00">::importFrame</text>
</a>
</g>
</g>
<!-- Node1&#45;&gt;Node8 -->
<g id="edge7" class="edge"><title>Node1&#45;&gt;Node8</title>
<path fill="none" stroke="midnightblue" d="M62.5695,-299.337C72.5068,-357.975 110.06,-573.445 154,-748 174.535,-829.576 205.169,-924.49 219.734,-968.398"/>
<polygon fill="midnightblue" stroke="midnightblue" points="216.432,-969.561 222.914,-977.942 223.073,-967.348 216.432,-969.561"/>
</g>
<!-- Node16 -->
<g id="node16" class="node"><title>Node16</title>
<g id="a_node16"><a xlink:href="../../dc/dca/namespacelsd__slam.html#a6ab8d718a8bf6c1c85541b8948bd5248" target="_top" xlink:title="lsd_slam::se3FromSim3">
<polygon fill="white" stroke="black" points="168,-361.5 168,-380.5 290,-380.5 290,-361.5 168,-361.5"/>
<text text-anchor="middle" x="229" y="-368.5" font-family="Helvetica,sans-Serif" font-size="10.00">lsd_slam::se3FromSim3</text>
</a>
</g>
</g>
<!-- Node1&#45;&gt;Node16 -->
<g id="edge15" class="edge"><title>Node1&#45;&gt;Node16</title>
<path fill="none" stroke="midnightblue" d="M77.1758,-299.135C95.1711,-314.265 124.83,-337.21 154,-351 159.843,-353.762 166.132,-356.196 172.487,-358.327"/>
<polygon fill="midnightblue" stroke="midnightblue" points="171.887,-361.805 182.475,-361.429 173.963,-355.12 171.887,-361.805"/>
</g>
<!-- Node19 -->
<g id="node19" class="node"><title>Node19</title>
<g id="a_node19"><a xlink:href="../../d9/d9e/classlsd__slam_1_1FramePoseStruct.html#ae2e711db13b9732374fd5e04f960f914" target="_top" xlink:title="lsd_slam::FramePoseStruct\l::getCamToWorld">
<polygon fill="white" stroke="black" points="160,-294 160,-324 298,-324 298,-294 160,-294"/>
<text text-anchor="start" x="168" y="-312" font-family="Helvetica,sans-Serif" font-size="10.00">lsd_slam::FramePoseStruct</text>
<text text-anchor="middle" x="229" y="-301" font-family="Helvetica,sans-Serif" font-size="10.00">::getCamToWorld</text>
</a>
</g>
</g>
<!-- Node1&#45;&gt;Node19 -->
<g id="edge18" class="edge"><title>Node1&#45;&gt;Node19</title>
<path fill="none" stroke="midnightblue" d="M118.287,-292.674C128.413,-294.181 139.091,-295.77 149.65,-297.341"/>
<polygon fill="midnightblue" stroke="midnightblue" points="149.308,-300.828 159.714,-298.838 150.338,-293.905 149.308,-300.828"/>
</g>
<!-- Node20 -->
<g id="node20" class="node"><title>Node20</title>
<g id="a_node20"><a xlink:href="../../d6/db5/classSophus_1_1Sim3GroupBase.html#a21debb906ffbeda23394fbddea8f3acd" target="_top" xlink:title="Sophus::Sim3GroupBase\l::inverse">
<polygon fill="white" stroke="black" points="165.5,-245 165.5,-275 292.5,-275 292.5,-245 165.5,-245"/>
<text text-anchor="start" x="173.5" y="-263" font-family="Helvetica,sans-Serif" font-size="10.00">Sophus::Sim3GroupBase</text>
<text text-anchor="middle" x="229" y="-252" font-family="Helvetica,sans-Serif" font-size="10.00">::inverse</text>
</a>
</g>
</g>
<!-- Node1&#45;&gt;Node20 -->
<g id="edge20" class="edge"><title>Node1&#45;&gt;Node20</title>
<path fill="none" stroke="midnightblue" d="M118.287,-275.673C130.133,-273.981 142.734,-272.181 155.016,-270.426"/>
<polygon fill="midnightblue" stroke="midnightblue" points="155.829,-273.846 165.234,-268.967 154.839,-266.916 155.829,-273.846"/>
</g>
<!-- Node21 -->
<g id="node21" class="node"><title>Node21</title>
<g id="a_node21"><a xlink:href="../../de/d8b/classlsd__slam_1_1SE3Tracker.html#ad9192d9c768a9920f2c0374ea66f1ee2" target="_top" xlink:title="lsd_slam::SE3Tracker\l::trackFrame">
<polygon fill="white" stroke="black" points="172.5,-621 172.5,-651 285.5,-651 285.5,-621 172.5,-621"/>
<text text-anchor="start" x="180.5" y="-639" font-family="Helvetica,sans-Serif" font-size="10.00">lsd_slam::SE3Tracker</text>
<text text-anchor="middle" x="229" y="-628" font-family="Helvetica,sans-Serif" font-size="10.00">::trackFrame</text>
</a>
</g>
</g>
<!-- Node1&#45;&gt;Node21 -->
<g id="edge21" class="edge"><title>Node1&#45;&gt;Node21</title>
<path fill="none" stroke="midnightblue" d="M67.2188,-299.125C93.4978,-354.186 184.205,-544.239 216.484,-611.872"/>
<polygon fill="midnightblue" stroke="midnightblue" points="213.342,-613.414 220.808,-620.931 219.659,-610.399 213.342,-613.414"/>
</g>
<!-- Node38 -->
<g id="node38" class="node"><title>Node38</title>
<g id="a_node38"><a xlink:href="../../dd/d3d/classSophus_1_1SE3Group.html#a1bfd300de4529a2f6ba0ff5baecea98e" target="_top" xlink:title="Mutator of translation vector. ">
<polygon fill="white" stroke="black" points="534,-567.5 534,-586.5 686,-586.5 686,-567.5 534,-567.5"/>
<text text-anchor="middle" x="610" y="-574.5" font-family="Helvetica,sans-Serif" font-size="10.00">Sophus::SE3Group::translation</text>
</a>
</g>
</g>
<!-- Node1&#45;&gt;Node38 -->
<g id="edge51" class="edge"><title>Node1&#45;&gt;Node38</title>
<path fill="none" stroke="midnightblue" d="M61.7921,-299.289C69.5483,-362.953 102.189,-606.204 154,-660 261.357,-771.469 372.325,-804.315 498,-714 538.745,-684.719 499.527,-643.458 534,-607 540.579,-600.042 548.984,-594.662 557.773,-590.512"/>
<polygon fill="midnightblue" stroke="midnightblue" points="559.155,-593.728 567.011,-586.619 556.436,-587.278 559.155,-593.728"/>
</g>
<!-- Node40 -->
<g id="node40" class="node"><title>Node40</title>
<g id="a_node40"><a xlink:href="../../d5/d8e/classlsd__slam_1_1TrackingReference.html#a6e68faee69299c4bd7bc820a71db3719" target="_top" xlink:title="lsd_slam::TrackingReference\l::invalidate">
<polygon fill="white" stroke="black" points="157,-196 157,-226 301,-226 301,-196 157,-196"/>
<text text-anchor="start" x="165" y="-214" font-family="Helvetica,sans-Serif" font-size="10.00">lsd_slam::TrackingReference</text>
<text text-anchor="middle" x="229" y="-203" font-family="Helvetica,sans-Serif" font-size="10.00">::invalidate</text>
</a>
</g>
</g>
<!-- Node1&#45;&gt;Node40 -->
<g id="edge47" class="edge"><title>Node1&#45;&gt;Node40</title>
<path fill="none" stroke="midnightblue" d="M86.1736,-268.85C104.724,-258.488 130.409,-244.893 154,-235 158.63,-233.058 163.475,-231.175 168.376,-229.373"/>
<polygon fill="midnightblue" stroke="midnightblue" points="169.576,-232.661 177.827,-226.016 167.233,-226.065 169.576,-232.661"/>
</g>
<!-- Node41 -->
<g id="node41" class="node"><title>Node41</title>
<g id="a_node41"><a xlink:href="../../d5/d57/classlsd__slam_1_1Output3DWrapper.html#a0b3bd60770aa486fc36465a5275ab1cd" target="_top" xlink:title="lsd_slam::Output3DWrapper\l::publishDebugInfo">
<polygon fill="white" stroke="black" points="159,-147 159,-177 299,-177 299,-147 159,-147"/>
<text text-anchor="start" x="167" y="-165" font-family="Helvetica,sans-Serif" font-size="10.00">lsd_slam::Output3DWrapper</text>
<text text-anchor="middle" x="229" y="-154" font-family="Helvetica,sans-Serif" font-size="10.00">::publishDebugInfo</text>
</a>
</g>
</g>
<!-- Node1&#45;&gt;Node41 -->
<g id="edge48" class="edge"><title>Node1&#45;&gt;Node41</title>
<path fill="none" stroke="midnightblue" d="M70.6922,-268.819C86.5334,-247.396 118.244,-208.413 154,-186 156.605,-184.367 159.332,-182.835 162.139,-181.398"/>
<polygon fill="midnightblue" stroke="midnightblue" points="163.729,-184.518 171.322,-177.129 160.778,-178.171 163.729,-184.518"/>
</g>
<!-- Node42 -->
<g id="node42" class="node"><title>Node42</title>
<g id="a_node42"><a xlink:href="../../df/d4c/classlsd__slam_1_1KeyFrameGraph.html#a5e04ab1456118e86090ae4baa736c0d5" target="_top" xlink:title="lsd_slam::KeyFrameGraph\l::addFrame">
<polygon fill="white" stroke="black" points="162.5,-98 162.5,-128 295.5,-128 295.5,-98 162.5,-98"/>
<text text-anchor="start" x="170.5" y="-116" font-family="Helvetica,sans-Serif" font-size="10.00">lsd_slam::KeyFrameGraph</text>
<text text-anchor="middle" x="229" y="-105" font-family="Helvetica,sans-Serif" font-size="10.00">::addFrame</text>
</a>
</g>
</g>
<!-- Node1&#45;&gt;Node42 -->
<g id="edge49" class="edge"><title>Node1&#45;&gt;Node42</title>
<path fill="none" stroke="midnightblue" d="M65.6864,-268.631C77.4909,-238.821 107.493,-172.927 154,-137 155.824,-135.591 157.733,-134.264 159.708,-133.013"/>
<polygon fill="midnightblue" stroke="midnightblue" points="161.687,-135.917 168.733,-128.004 158.291,-129.797 161.687,-135.917"/>
</g>
<!-- Node43 -->
<g id="node43" class="node"><title>Node43</title>
<g id="a_node43"><a xlink:href="../../d5/d57/classlsd__slam_1_1Output3DWrapper.html#a679c2193d1eba147a88d362eda088d72" target="_top" xlink:title="lsd_slam::Output3DWrapper\l::publishTrackedFrame">
<polygon fill="white" stroke="black" points="159,-49 159,-79 299,-79 299,-49 159,-49"/>
<text text-anchor="start" x="167" y="-67" font-family="Helvetica,sans-Serif" font-size="10.00">lsd_slam::Output3DWrapper</text>
<text text-anchor="middle" x="229" y="-56" font-family="Helvetica,sans-Serif" font-size="10.00">::publishTrackedFrame</text>
</a>
</g>
</g>
<!-- Node1&#45;&gt;Node43 -->
<g id="edge50" class="edge"><title>Node1&#45;&gt;Node43</title>
<path fill="none" stroke="midnightblue" d="M63.0038,-268.761C71.0157,-232.128 96.3345,-138.435 154,-88 155.487,-86.6996 157.045,-85.4695 158.662,-84.3058"/>
<polygon fill="midnightblue" stroke="midnightblue" points="160.523,-87.2701 167.175,-79.0238 156.833,-81.3219 160.523,-87.2701"/>
</g>
<!-- Node44 -->
<g id="node44" class="node"><title>Node44</title>
<g id="a_node44"><a xlink:href="../../d4/dc1/classlsd__slam_1_1TrackableKeyFrameSearch.html#ada972e7c78a96121fab5ad847d414610" target="_top" xlink:title="lsd_slam::TrackableKeyFrame\lSearch::getRefFrameScore">
<polygon fill="white" stroke="black" points="154.5,-0 154.5,-30 303.5,-30 303.5,-0 154.5,-0"/>
<text text-anchor="start" x="162.5" y="-18" font-family="Helvetica,sans-Serif" font-size="10.00">lsd_slam::TrackableKeyFrame</text>
<text text-anchor="middle" x="229" y="-7" font-family="Helvetica,sans-Serif" font-size="10.00">Search::getRefFrameScore</text>
</a>
</g>
</g>
<!-- Node1&#45;&gt;Node44 -->
<g id="edge52" class="edge"><title>Node1&#45;&gt;Node44</title>
<path fill="none" stroke="midnightblue" d="M61.3566,-268.884C65.9821,-226.359 84.9205,-104.53 154,-39 155.133,-37.9253 156.315,-36.8986 157.538,-35.918"/>
<polygon fill="midnightblue" stroke="midnightblue" points="159.83,-38.5933 166.15,-30.0902 155.907,-32.7959 159.83,-38.5933"/>
</g>
<!-- Node3 -->
<g id="node3" class="node"><title>Node3</title>
<g id="a_node3"><a xlink:href="../../d8/da0/namespacelsd__slam_1_1Util.html#a0aefaadcc7a2728f8248cacce2cc352a" target="_top" xlink:title="lsd_slam::Util::displayImage">
<polygon fill="white" stroke="black" points="349,-424.5 349,-443.5 489,-443.5 489,-424.5 349,-424.5"/>
<text text-anchor="middle" x="419" y="-431.5" font-family="Helvetica,sans-Serif" font-size="10.00">lsd_slam::Util::displayImage</text>
</a>
</g>
</g>
<!-- Node2&#45;&gt;Node3 -->
<g id="edge2" class="edge"><title>Node2&#45;&gt;Node3</title>
<path fill="none" stroke="midnightblue" d="M285.136,-420.572C301.957,-422.272 320.793,-424.176 338.875,-426.003"/>
<polygon fill="midnightblue" stroke="midnightblue" points="338.525,-429.486 348.826,-427.009 339.228,-422.521 338.525,-429.486"/>
</g>
<!-- Node6 -->
<g id="node6" class="node"><title>Node6</title>
<g id="a_node6"><a xlink:href="../../d8/da0/namespacelsd__slam_1_1Util.html#aca4fa361644158d98d3f77cae377e883" target="_top" xlink:title="lsd_slam::Util::waitKey">
<polygon fill="white" stroke="black" points="360,-348.5 360,-367.5 478,-367.5 478,-348.5 360,-348.5"/>
<text text-anchor="middle" x="419" y="-355.5" font-family="Helvetica,sans-Serif" font-size="10.00">lsd_slam::Util::waitKey</text>
</a>
</g>
</g>
<!-- Node2&#45;&gt;Node6 -->
<g id="edge5" class="edge"><title>Node2&#45;&gt;Node6</title>
<path fill="none" stroke="midnightblue" d="M275.054,-399.945C284.622,-396.701 294.655,-393.265 304,-390 320.059,-384.388 323.712,-381.909 340,-377 348.153,-374.543 356.857,-372.176 365.384,-369.997"/>
<polygon fill="midnightblue" stroke="midnightblue" points="366.415,-373.347 375.27,-367.531 364.72,-366.556 366.415,-373.347"/>
</g>
<!-- Node7 -->
<g id="node7" class="node"><title>Node7</title>
<g id="a_node7"><a xlink:href="../../dc/dca/namespacelsd__slam.html#ab7c7b569b42c99eb8312be5a0653df0b" target="_top" xlink:title="lsd_slam::handleKey">
<polygon fill="white" stroke="black" points="365.5,-386.5 365.5,-405.5 472.5,-405.5 472.5,-386.5 365.5,-386.5"/>
<text text-anchor="middle" x="419" y="-393.5" font-family="Helvetica,sans-Serif" font-size="10.00">lsd_slam::handleKey</text>
</a>
</g>
</g>
<!-- Node2&#45;&gt;Node7 -->
<g id="edge6" class="edge"><title>Node2&#45;&gt;Node7</title>
<path fill="none" stroke="midnightblue" d="M285.136,-409.428C307.122,-407.206 332.55,-404.636 355.239,-402.343"/>
<polygon fill="midnightblue" stroke="midnightblue" points="355.852,-405.799 365.449,-401.311 355.148,-398.834 355.852,-405.799"/>
</g>
<!-- Node4 -->
<g id="node4" class="node"><title>Node4</title>
<g id="a_node4"><a xlink:href="../../d8/da0/namespacelsd__slam_1_1Util.html#a9c01e8272d0a6cf22714ff45227e86fe" target="_top" xlink:title="lsd_slam::Util::makeDisplay\lThread">
<polygon fill="white" stroke="black" points="540,-408 540,-438 680,-438 680,-408 540,-408"/>
<text text-anchor="start" x="548" y="-426" font-family="Helvetica,sans-Serif" font-size="10.00">lsd_slam::Util::makeDisplay</text>
<text text-anchor="middle" x="610" y="-415" font-family="Helvetica,sans-Serif" font-size="10.00">Thread</text>
</a>
</g>
</g>
<!-- Node3&#45;&gt;Node4 -->
<g id="edge3" class="edge"><title>Node3&#45;&gt;Node4</title>
<path fill="none" stroke="midnightblue" d="M489.036,-429.982C502.228,-429.214 516.137,-428.405 529.623,-427.62"/>
<polygon fill="midnightblue" stroke="midnightblue" points="530.056,-431.101 539.835,-427.025 529.649,-424.112 530.056,-431.101"/>
</g>
<!-- Node5 -->
<g id="node5" class="node"><title>Node5</title>
<g id="a_node5"><a xlink:href="../../d8/da0/namespacelsd__slam_1_1Util.html#a1749bf769ea1a0301816614ba5bf0dc5" target="_top" xlink:title="lsd_slam::Util::displayThreadLoop">
<polygon fill="white" stroke="black" points="722,-413.5 722,-432.5 886,-432.5 886,-413.5 722,-413.5"/>
<text text-anchor="middle" x="804" y="-420.5" font-family="Helvetica,sans-Serif" font-size="10.00">lsd_slam::Util::displayThreadLoop</text>
</a>
</g>
</g>
<!-- Node4&#45;&gt;Node5 -->
<g id="edge4" class="edge"><title>Node4&#45;&gt;Node5</title>
<path fill="none" stroke="midnightblue" d="M680.045,-423C690.311,-423 701.023,-423 711.66,-423"/>
<polygon fill="midnightblue" stroke="midnightblue" points="711.817,-426.5 721.817,-423 711.817,-419.5 711.817,-426.5"/>
</g>
<!-- Node9 -->
<g id="node9" class="node"><title>Node9</title>
<g id="a_node9"><a xlink:href="../../dd/d08/classlsd__slam_1_1Frame.html#af73ccb75e1e449d9a8f2044246ee3530" target="_top" xlink:title="lsd_slam::Frame::getActiveLock">
<polygon fill="white" stroke="black" points="340,-1002.5 340,-1021.5 498,-1021.5 498,-1002.5 340,-1002.5"/>
<text text-anchor="middle" x="419" y="-1009.5" font-family="Helvetica,sans-Serif" font-size="10.00">lsd_slam::Frame::getActiveLock</text>
</a>
</g>
</g>
<!-- Node8&#45;&gt;Node9 -->
<g id="edge8" class="edge"><title>Node8&#45;&gt;Node9</title>
<path fill="none" stroke="midnightblue" d="M301.075,-1000.18C310.49,-1001.13 320.232,-1002.12 329.891,-1003.1"/>
<polygon fill="midnightblue" stroke="midnightblue" points="329.607,-1006.58 339.909,-1004.11 330.311,-999.62 329.607,-1006.58"/>
</g>
<!-- Node12 -->
<g id="node12" class="node"><title>Node12</title>
<g id="a_node12"><a xlink:href="../../dd/d08/classlsd__slam_1_1Frame.html#a6d38d40cd9a68d253bcb3cab2ddfa068" target="_top" xlink:title="lsd_slam::Frame::id">
<polygon fill="white" stroke="black" points="367.5,-1040.5 367.5,-1059.5 470.5,-1059.5 470.5,-1040.5 367.5,-1040.5"/>
<text text-anchor="middle" x="419" y="-1047.5" font-family="Helvetica,sans-Serif" font-size="10.00">lsd_slam::Frame::id</text>
</a>
</g>
</g>
<!-- Node8&#45;&gt;Node12 -->
<g id="edge11" class="edge"><title>Node8&#45;&gt;Node12</title>
<path fill="none" stroke="midnightblue" d="M270.712,-1008.08C291.327,-1015.46 316.835,-1024.19 340,-1031 348.356,-1033.46 357.279,-1035.84 365.996,-1038.05"/>
<polygon fill="midnightblue" stroke="midnightblue" points="365.159,-1041.45 375.708,-1040.46 366.845,-1034.66 365.159,-1041.45"/>
</g>
<!-- Node13 -->
<g id="node13" class="node"><title>Node13</title>
<g id="a_node13"><a xlink:href="../../dd/d08/classlsd__slam_1_1Frame.html#a3f14a1c43b6cb21d31274f880b0bf36b" target="_top" xlink:title="lsd_slam::Frame::width">
<polygon fill="white" stroke="black" points="550.5,-958.5 550.5,-977.5 669.5,-977.5 669.5,-958.5 550.5,-958.5"/>
<text text-anchor="middle" x="610" y="-965.5" font-family="Helvetica,sans-Serif" font-size="10.00">lsd_slam::Frame::width</text>
</a>
</g>
</g>
<!-- Node8&#45;&gt;Node13 -->
<g id="edge12" class="edge"><title>Node8&#45;&gt;Node13</title>
<path fill="none" stroke="midnightblue" d="M301.287,-988.298C369.817,-983.777 472.688,-976.992 540.328,-972.53"/>
<polygon fill="midnightblue" stroke="midnightblue" points="540.709,-976.012 550.456,-971.862 540.248,-969.028 540.709,-976.012"/>
</g>
<!-- Node14 -->
<g id="node14" class="node"><title>Node14</title>
<g id="a_node14"><a xlink:href="../../dd/d08/classlsd__slam_1_1Frame.html#a014d19bf6ffba0f0c0b8b684f9afb0b0" target="_top" xlink:title="lsd_slam::Frame::height">
<polygon fill="white" stroke="black" points="549,-920.5 549,-939.5 671,-939.5 671,-920.5 549,-920.5"/>
<text text-anchor="middle" x="610" y="-927.5" font-family="Helvetica,sans-Serif" font-size="10.00">lsd_slam::Frame::height</text>
</a>
</g>
</g>
<!-- Node8&#45;&gt;Node14 -->
<g id="edge13" class="edge"><title>Node8&#45;&gt;Node14</title>
<path fill="none" stroke="midnightblue" d="M301.212,-978.259C314.102,-975.733 327.437,-973.213 340,-971 407.201,-959.165 484.204,-947.633 538.556,-939.83"/>
<polygon fill="midnightblue" stroke="midnightblue" points="539.37,-943.249 548.774,-938.368 538.379,-936.319 539.37,-943.249"/>
</g>
<!-- Node15 -->
<g id="node15" class="node"><title>Node15</title>
<g id="a_node15"><a xlink:href="../../d5/d8e/classlsd__slam_1_1TrackingReference.html#a60a7eea36764253fe87d0b451c07dbb9" target="_top" xlink:title="lsd_slam::TrackingReference\l::clearAll">
<polygon fill="white" stroke="black" points="347,-1079 347,-1109 491,-1109 491,-1079 347,-1079"/>
<text text-anchor="start" x="355" y="-1097" font-family="Helvetica,sans-Serif" font-size="10.00">lsd_slam::TrackingReference</text>
<text text-anchor="middle" x="419" y="-1086" font-family="Helvetica,sans-Serif" font-size="10.00">::clearAll</text>
</a>
</g>
</g>
<!-- Node8&#45;&gt;Node15 -->
<g id="edge14" class="edge"><title>Node8&#45;&gt;Node15</title>
<path fill="none" stroke="midnightblue" d="M248.409,-1008.27C269.44,-1025.08 305.429,-1051.98 340,-1069 344.587,-1071.26 349.424,-1073.37 354.351,-1075.35"/>
<polygon fill="midnightblue" stroke="midnightblue" points="353.301,-1078.69 363.892,-1078.95 355.777,-1072.14 353.301,-1078.69"/>
</g>
<!-- Node10 -->
<g id="node10" class="node"><title>Node10</title>
<g id="a_node10"><a xlink:href="../../d1/d95/classlsd__slam_1_1FrameMemory.html#adf4afed8c58a420b38e4b117628ac32d" target="_top" xlink:title="lsd_slam::FrameMemory\l::getInstance">
<polygon fill="white" stroke="black" points="547.5,-1046 547.5,-1076 672.5,-1076 672.5,-1046 547.5,-1046"/>
<text text-anchor="start" x="555.5" y="-1064" font-family="Helvetica,sans-Serif" font-size="10.00">lsd_slam::FrameMemory</text>
<text text-anchor="middle" x="610" y="-1053" font-family="Helvetica,sans-Serif" font-size="10.00">::getInstance</text>
</a>
</g>
</g>
<!-- Node9&#45;&gt;Node10 -->
<g id="edge9" class="edge"><title>Node9&#45;&gt;Node10</title>
<path fill="none" stroke="midnightblue" d="M460.13,-1021.57C472.309,-1024.53 485.716,-1027.84 498,-1031 513.067,-1034.87 529.247,-1039.16 544.466,-1043.27"/>
<polygon fill="midnightblue" stroke="midnightblue" points="543.74,-1046.7 554.307,-1045.93 545.567,-1039.94 543.74,-1046.7"/>
</g>
<!-- Node11 -->
<g id="node11" class="node"><title>Node11</title>
<g id="a_node11"><a xlink:href="../../d1/d95/classlsd__slam_1_1FrameMemory.html#a6835f2a14358dee3518d9f9bff8526e3" target="_top" xlink:title="lsd_slam::FrameMemory\l::activateFrame">
<polygon fill="white" stroke="black" points="547.5,-997 547.5,-1027 672.5,-1027 672.5,-997 547.5,-997"/>
<text text-anchor="start" x="555.5" y="-1015" font-family="Helvetica,sans-Serif" font-size="10.00">lsd_slam::FrameMemory</text>
<text text-anchor="middle" x="610" y="-1004" font-family="Helvetica,sans-Serif" font-size="10.00">::activateFrame</text>
</a>
</g>
</g>
<!-- Node9&#45;&gt;Node11 -->
<g id="edge10" class="edge"><title>Node9&#45;&gt;Node11</title>
<path fill="none" stroke="midnightblue" d="M498.238,-1012C511.139,-1012 524.457,-1012 537.191,-1012"/>
<polygon fill="midnightblue" stroke="midnightblue" points="537.259,-1015.5 547.259,-1012 537.259,-1008.5 537.259,-1015.5"/>
</g>
<!-- Node17 -->
<g id="node17" class="node"><title>Node17</title>
<g id="a_node17"><a xlink:href="../../d6/db5/classSophus_1_1Sim3GroupBase.html#a3629f9f036df49823d478e3692d23e82" target="_top" xlink:title="Mutator of quaternion. ">
<polygon fill="white" stroke="black" points="355.5,-250 355.5,-280 482.5,-280 482.5,-250 355.5,-250"/>
<text text-anchor="start" x="363.5" y="-268" font-family="Helvetica,sans-Serif" font-size="10.00">Sophus::Sim3GroupBase</text>
<text text-anchor="middle" x="419" y="-257" font-family="Helvetica,sans-Serif" font-size="10.00">::quaternion</text>
</a>
</g>
</g>
<!-- Node16&#45;&gt;Node17 -->
<g id="edge16" class="edge"><title>Node16&#45;&gt;Node17</title>
<path fill="none" stroke="midnightblue" d="M284.861,-361.464C291.709,-358.793 298.298,-355.374 304,-351 329.282,-331.606 315.056,-308.827 340,-289 342.038,-287.38 344.185,-285.869 346.416,-284.46"/>
<polygon fill="midnightblue" stroke="midnightblue" points="348.313,-287.41 355.375,-279.512 344.929,-281.282 348.313,-287.41"/>
</g>
<!-- Node18 -->
<g id="node18" class="node"><title>Node18</title>
<g id="a_node18"><a xlink:href="../../de/d0b/classSophus_1_1Sim3Group.html#ace8b98b369832930e647675b8c005d64" target="_top" xlink:title="Mutator of translation vector. ">
<polygon fill="white" stroke="black" points="364,-299 364,-329 474,-329 474,-299 364,-299"/>
<text text-anchor="start" x="372" y="-317" font-family="Helvetica,sans-Serif" font-size="10.00">Sophus::Sim3Group::</text>
<text text-anchor="middle" x="419" y="-306" font-family="Helvetica,sans-Serif" font-size="10.00">translation</text>
</a>
</g>
</g>
<!-- Node16&#45;&gt;Node18 -->
<g id="edge17" class="edge"><title>Node16&#45;&gt;Node18</title>
<path fill="none" stroke="midnightblue" d="M267.007,-361.448C278.864,-358.267 292.023,-354.611 304,-351 320.147,-346.131 323.969,-344.241 340,-339 346.783,-336.782 353.905,-334.473 360.971,-332.194"/>
<polygon fill="midnightblue" stroke="midnightblue" points="362.089,-335.511 370.536,-329.116 359.945,-328.848 362.089,-335.511"/>
</g>
<!-- Node19&#45;&gt;Node19 -->
<g id="edge19" class="edge"><title>Node19&#45;&gt;Node19</title>
<path fill="none" stroke="midnightblue" d="M199.117,-324.275C192.477,-333.406 202.438,-342 229,-342 244.771,-342 254.69,-338.97 258.756,-334.598"/>
<polygon fill="midnightblue" stroke="midnightblue" points="262.26,-334.318 258.883,-324.275 255.26,-334.232 262.26,-334.318"/>
</g>
<!-- Node21&#45;&gt;Node3 -->
<g id="edge40" class="edge"><title>Node21&#45;&gt;Node3</title>
<path fill="none" stroke="midnightblue" d="M234.567,-620.93C246.066,-585.659 279.684,-497.372 340,-453 342.638,-451.059 345.45,-449.314 348.38,-447.746"/>
<polygon fill="midnightblue" stroke="midnightblue" points="349.858,-450.919 357.473,-443.552 346.926,-444.562 349.858,-450.919"/>
</g>
<!-- Node21&#45;&gt;Node9 -->
<g id="edge22" class="edge"><title>Node21&#45;&gt;Node9</title>
<path fill="none" stroke="midnightblue" d="M232.234,-651.114C239.899,-698.94 268.706,-849.728 340,-950 353.786,-969.389 375.272,-985.84 392.205,-996.913"/>
<polygon fill="midnightblue" stroke="midnightblue" points="390.74,-1000.13 401.066,-1002.5 394.471,-994.204 390.74,-1000.13"/>
</g>
<!-- Node21&#45;&gt;Node13 -->
<g id="edge41" class="edge"><title>Node21&#45;&gt;Node13</title>
<path fill="none" stroke="midnightblue" d="M232.086,-651.147C238.923,-694.931 264.711,-822.803 340,-890 395.469,-939.508 480.642,-957.702 540.246,-964.326"/>
<polygon fill="midnightblue" stroke="midnightblue" points="540.018,-967.821 550.324,-965.364 540.735,-960.858 540.018,-967.821"/>
</g>
<!-- Node21&#45;&gt;Node14 -->
<g id="edge42" class="edge"><title>Node21&#45;&gt;Node14</title>
<path fill="none" stroke="midnightblue" d="M234.09,-651.181C244.937,-688.632 277.941,-786.274 340,-840 396.225,-888.676 479.723,-911.242 538.751,-921.565"/>
<polygon fill="midnightblue" stroke="midnightblue" points="538.3,-925.038 548.74,-923.236 539.455,-918.134 538.3,-925.038"/>
</g>
<!-- Node22 -->
<g id="node22" class="node"><title>Node22</title>
<g id="a_node22"><a xlink:href="../../dd/d08/classlsd__slam_1_1Frame.html#a9306307027bbe62b973c0b138216b456" target="_top" xlink:title="lsd_slam::Frame::image">
<polygon fill="white" stroke="black" points="549,-616.5 549,-635.5 671,-635.5 671,-616.5 549,-616.5"/>
<text text-anchor="middle" x="610" y="-623.5" font-family="Helvetica,sans-Serif" font-size="10.00">lsd_slam::Frame::image</text>
</a>
</g>
</g>
<!-- Node21&#45;&gt;Node22 -->
<g id="edge23" class="edge"><title>Node21&#45;&gt;Node22</title>
<path fill="none" stroke="midnightblue" d="M244.681,-651.076C264.318,-670.045 301.187,-701.635 340,-714 406.909,-735.315 437.949,-750.402 498,-714 527.579,-696.069 506.867,-666.453 534,-645 536.272,-643.204 538.693,-641.575 541.223,-640.099"/>
<polygon fill="midnightblue" stroke="midnightblue" points="542.784,-643.231 550.179,-635.644 539.667,-636.964 542.784,-643.231"/>
</g>
<!-- Node23 -->
<g id="node23" class="node"><title>Node23</title>
<g id="a_node23"><a xlink:href="../../dc/dca/namespacelsd__slam.html#a67c5db12802cccb07b65dbaf7eacc8b0" target="_top" xlink:title="lsd_slam::setPixelInCvMat">
<polygon fill="white" stroke="black" points="352,-588.5 352,-607.5 486,-607.5 486,-588.5 352,-588.5"/>
<text text-anchor="middle" x="419" y="-595.5" font-family="Helvetica,sans-Serif" font-size="10.00">lsd_slam::setPixelInCvMat</text>
</a>
</g>
</g>
<!-- Node21&#45;&gt;Node23 -->
<g id="edge24" class="edge"><title>Node21&#45;&gt;Node23</title>
<path fill="none" stroke="midnightblue" d="M285.643,-624.753C309.328,-619.966 336.935,-614.385 360.789,-609.564"/>
<polygon fill="midnightblue" stroke="midnightblue" points="361.651,-612.96 370.76,-607.549 360.264,-606.099 361.651,-612.96"/>
</g>
<!-- Node24 -->
<g id="node24" class="node"><title>Node24</title>
<g id="a_node24"><a xlink:href="../../dc/dca/namespacelsd__slam.html#a5f5f06e1592282601033d46603b140c1" target="_top" xlink:title="lsd_slam::getGrayCvPixel">
<polygon fill="white" stroke="black" points="353.5,-550.5 353.5,-569.5 484.5,-569.5 484.5,-550.5 353.5,-550.5"/>
<text text-anchor="middle" x="419" y="-557.5" font-family="Helvetica,sans-Serif" font-size="10.00">lsd_slam::getGrayCvPixel</text>
</a>
</g>
</g>
<!-- Node21&#45;&gt;Node24 -->
<g id="edge25" class="edge"><title>Node21&#45;&gt;Node24</title>
<path fill="none" stroke="midnightblue" d="M254.986,-620.85C276.781,-608.18 309.587,-590.396 340,-579 346.73,-576.478 353.913,-574.202 361.094,-572.174"/>
<polygon fill="midnightblue" stroke="midnightblue" points="362.088,-575.531 370.841,-569.563 360.276,-568.769 362.088,-575.531"/>
</g>
<!-- Node25 -->
<g id="node25" class="node"><title>Node25</title>
<g id="a_node25"><a xlink:href="../../d0/d8c/classSophus_1_1SE3GroupBase.html#a1b47e7c7329fecdc289f95094248ccfe" target="_top" xlink:title="Sophus::SE3GroupBase\l::inverse">
<polygon fill="white" stroke="black" points="357.5,-501 357.5,-531 480.5,-531 480.5,-501 357.5,-501"/>
<text text-anchor="start" x="365.5" y="-519" font-family="Helvetica,sans-Serif" font-size="10.00">Sophus::SE3GroupBase</text>
<text text-anchor="middle" x="419" y="-508" font-family="Helvetica,sans-Serif" font-size="10.00">::inverse</text>
</a>
</g>
</g>
<!-- Node21&#45;&gt;Node25 -->
<g id="edge26" class="edge"><title>Node21&#45;&gt;Node25</title>
<path fill="none" stroke="midnightblue" d="M243.833,-620.686C263.375,-599.901 301.048,-562.853 340,-541 343.872,-538.828 347.959,-536.814 352.152,-534.951"/>
<polygon fill="midnightblue" stroke="midnightblue" points="353.546,-538.162 361.457,-531.114 350.878,-531.691 353.546,-538.162"/>
</g>
<!-- Node26 -->
<g id="node26" class="node"><title>Node26</title>
<g id="a_node26"><a xlink:href="../../d5/d8e/classlsd__slam_1_1TrackingReference.html#a213f14e896c734faf7e2676282a7c54f" target="_top" xlink:title="lsd_slam::TrackingReference\l::makePointCloud">
<polygon fill="white" stroke="black" points="347,-801 347,-831 491,-831 491,-801 347,-801"/>
<text text-anchor="start" x="355" y="-819" font-family="Helvetica,sans-Serif" font-size="10.00">lsd_slam::TrackingReference</text>
<text text-anchor="middle" x="419" y="-808" font-family="Helvetica,sans-Serif" font-size="10.00">::makePointCloud</text>
</a>
</g>
</g>
<!-- Node21&#45;&gt;Node26 -->
<g id="edge27" class="edge"><title>Node21&#45;&gt;Node26</title>
<path fill="none" stroke="midnightblue" d="M237.472,-651.439C252.719,-681.43 290.225,-747.955 340,-786 345.144,-789.932 350.865,-793.404 356.805,-796.458"/>
<polygon fill="midnightblue" stroke="midnightblue" points="355.731,-799.821 366.269,-800.919 358.715,-793.489 355.731,-799.821"/>
</g>
<!-- Node34 -->
<g id="node34" class="node"><title>Node34</title>
<g id="a_node34"><a xlink:href="../../d0/d8c/classSophus_1_1SE3GroupBase.html#ad9e943a9cb045a10374675f29a1d41e5" target="_top" xlink:title="Group exponential. ">
<polygon fill="white" stroke="black" points="357.5,-664.5 357.5,-705.5 480.5,-705.5 480.5,-664.5 357.5,-664.5"/>
<text text-anchor="start" x="365.5" y="-693.5" font-family="Helvetica,sans-Serif" font-size="10.00">Sophus::SE3GroupBase</text>
<text text-anchor="start" x="365.5" y="-682.5" font-family="Helvetica,sans-Serif" font-size="10.00">&lt; SE3Group&lt; _Scalar,</text>
<text text-anchor="middle" x="419" y="-671.5" font-family="Helvetica,sans-Serif" font-size="10.00"> _Options &gt; &gt;::exp</text>
</a>
</g>
</g>
<!-- Node21&#45;&gt;Node34 -->
<g id="edge38" class="edge"><title>Node21&#45;&gt;Node34</title>
<path fill="none" stroke="midnightblue" d="M285.643,-650.503C304.997,-655.547 326.97,-661.274 347.374,-666.592"/>
<polygon fill="midnightblue" stroke="midnightblue" points="346.686,-670.03 357.246,-669.165 348.452,-663.256 346.686,-670.03"/>
</g>
<!-- Node35 -->
<g id="node35" class="node"><title>Node35</title>
<g id="a_node35"><a xlink:href="../../d0/d8c/classSophus_1_1SE3GroupBase.html#a5a93392e6c30368a9e8540b2cabf02e8" target="_top" xlink:title="Logarithmic map. ">
<polygon fill="white" stroke="black" points="348,-626.5 348,-645.5 490,-645.5 490,-626.5 348,-626.5"/>
<text text-anchor="middle" x="419" y="-633.5" font-family="Helvetica,sans-Serif" font-size="10.00">Sophus::SE3GroupBase::log</text>
</a>
</g>
</g>
<!-- Node21&#45;&gt;Node35 -->
<g id="edge39" class="edge"><title>Node21&#45;&gt;Node35</title>
<path fill="none" stroke="midnightblue" d="M285.643,-636C301.935,-636 320.083,-636 337.588,-636"/>
<polygon fill="midnightblue" stroke="midnightblue" points="337.802,-639.5 347.802,-636 337.801,-632.5 337.802,-639.5"/>
</g>
<!-- Node36 -->
<g id="node36" class="node"><title>Node36</title>
<g id="a_node36"><a xlink:href="../../dc/dca/namespacelsd__slam.html#a65aac68c7cecdc9c125ec8926b27e867" target="_top" xlink:title="lsd_slam::sim3FromSE3">
<polygon fill="white" stroke="black" points="357,-462.5 357,-481.5 481,-481.5 481,-462.5 357,-462.5"/>
<text text-anchor="middle" x="419" y="-469.5" font-family="Helvetica,sans-Serif" font-size="10.00">lsd_slam::sim3FromSE3</text>
</a>
</g>
</g>
<!-- Node21&#45;&gt;Node36 -->
<g id="edge43" class="edge"><title>Node21&#45;&gt;Node36</title>
<path fill="none" stroke="midnightblue" d="M236.984,-620.98C251.621,-591.232 288.473,-524.786 340,-491 343.158,-488.929 346.521,-487.084 350.011,-485.44"/>
<polygon fill="midnightblue" stroke="midnightblue" points="351.573,-488.582 359.489,-481.54 348.909,-482.108 351.573,-488.582"/>
</g>
<!-- Node26&#45;&gt;Node13 -->
<g id="edge28" class="edge"><title>Node26&#45;&gt;Node13</title>
<path fill="none" stroke="midnightblue" d="M428.508,-831.011C445.064,-858.8 484.378,-918.225 534,-949 537.433,-951.129 541.095,-953.021 544.885,-954.701"/>
<polygon fill="midnightblue" stroke="midnightblue" points="543.921,-958.081 554.509,-958.455 546.465,-951.56 543.921,-958.081"/>
</g>
<!-- Node26&#45;&gt;Node14 -->
<g id="edge29" class="edge"><title>Node26&#45;&gt;Node14</title>
<path fill="none" stroke="midnightblue" d="M473.992,-831.026C482.618,-834.982 490.995,-839.905 498,-846 522.912,-867.678 507.842,-890.842 534,-911 536.344,-912.806 538.84,-914.442 541.445,-915.924"/>
<polygon fill="midnightblue" stroke="midnightblue" points="540.13,-919.177 550.655,-920.391 543.185,-912.878 540.13,-919.177"/>
</g>
<!-- Node26&#45;&gt;Node22 -->
<g id="edge36" class="edge"><title>Node26&#45;&gt;Node22</title>
<path fill="none" stroke="midnightblue" d="M478.55,-800.796C485.832,-796.923 492.601,-792.072 498,-786 540.977,-737.667 488.224,-690.691 534,-645 535.872,-643.132 537.899,-641.439 540.047,-639.905"/>
<polygon fill="midnightblue" stroke="midnightblue" points="541.998,-642.818 548.856,-634.743 538.459,-636.779 541.998,-642.818"/>
</g>
<!-- Node27 -->
<g id="node27" class="node"><title>Node27</title>
<g id="a_node27"><a xlink:href="../../dd/d08/classlsd__slam_1_1Frame.html#a9d98889a6a367e862f28b4a035604f46" target="_top" xlink:title="lsd_slam::Frame::fxInv">
<polygon fill="white" stroke="black" points="551.5,-844.5 551.5,-863.5 668.5,-863.5 668.5,-844.5 551.5,-844.5"/>
<text text-anchor="middle" x="610" y="-851.5" font-family="Helvetica,sans-Serif" font-size="10.00">lsd_slam::Frame::fxInv</text>
</a>
</g>
</g>
<!-- Node26&#45;&gt;Node27 -->
<g id="edge30" class="edge"><title>Node26&#45;&gt;Node27</title>
<path fill="none" stroke="midnightblue" d="M491.183,-830.312C511.141,-834.325 532.578,-838.635 551.623,-842.464"/>
<polygon fill="midnightblue" stroke="midnightblue" points="551.144,-845.937 561.637,-844.477 552.524,-839.075 551.144,-845.937"/>
</g>
<!-- Node28 -->
<g id="node28" class="node"><title>Node28</title>
<g id="a_node28"><a xlink:href="../../dd/d08/classlsd__slam_1_1Frame.html#ab5c98941622d0f0470381a8ed2f833c1" target="_top" xlink:title="lsd_slam::Frame::fyInv">
<polygon fill="white" stroke="black" points="551.5,-806.5 551.5,-825.5 668.5,-825.5 668.5,-806.5 551.5,-806.5"/>
<text text-anchor="middle" x="610" y="-813.5" font-family="Helvetica,sans-Serif" font-size="10.00">lsd_slam::Frame::fyInv</text>
</a>
</g>
</g>
<!-- Node26&#45;&gt;Node28 -->
<g id="edge31" class="edge"><title>Node26&#45;&gt;Node28</title>
<path fill="none" stroke="midnightblue" d="M491.183,-816C507.493,-816 524.79,-816 540.963,-816"/>
<polygon fill="midnightblue" stroke="midnightblue" points="541.407,-819.5 551.406,-816 541.406,-812.5 541.407,-819.5"/>
</g>
<!-- Node29 -->
<g id="node29" class="node"><title>Node29</title>
<g id="a_node29"><a xlink:href="../../dd/d08/classlsd__slam_1_1Frame.html#a4690556800b10f98c18a2fada62ae62b" target="_top" xlink:title="lsd_slam::Frame::cxInv">
<polygon fill="white" stroke="black" points="550.5,-768.5 550.5,-787.5 669.5,-787.5 669.5,-768.5 550.5,-768.5"/>
<text text-anchor="middle" x="610" y="-775.5" font-family="Helvetica,sans-Serif" font-size="10.00">lsd_slam::Frame::cxInv</text>
</a>
</g>
</g>
<!-- Node26&#45;&gt;Node29 -->
<g id="edge32" class="edge"><title>Node26&#45;&gt;Node29</title>
<path fill="none" stroke="midnightblue" d="M491.183,-801.688C511.141,-797.675 532.578,-793.365 551.623,-789.536"/>
<polygon fill="midnightblue" stroke="midnightblue" points="552.524,-792.925 561.637,-787.523 551.144,-786.063 552.524,-792.925"/>
</g>
<!-- Node30 -->
<g id="node30" class="node"><title>Node30</title>
<g id="a_node30"><a xlink:href="../../dd/d08/classlsd__slam_1_1Frame.html#aae9fa687e7e515ba009a5fe5a617bf75" target="_top" xlink:title="lsd_slam::Frame::cyInv">
<polygon fill="white" stroke="black" points="550.5,-730.5 550.5,-749.5 669.5,-749.5 669.5,-730.5 550.5,-730.5"/>
<text text-anchor="middle" x="610" y="-737.5" font-family="Helvetica,sans-Serif" font-size="10.00">lsd_slam::Frame::cyInv</text>
</a>
</g>
</g>
<!-- Node26&#45;&gt;Node30 -->
<g id="edge33" class="edge"><title>Node26&#45;&gt;Node30</title>
<path fill="none" stroke="midnightblue" d="M465.508,-800.926C476.418,-796.656 487.844,-791.619 498,-786 515.5,-776.318 515.955,-767.624 534,-759 538.999,-756.611 544.335,-754.498 549.768,-752.635"/>
<polygon fill="midnightblue" stroke="midnightblue" points="551.112,-755.882 559.603,-749.546 549.014,-749.204 551.112,-755.882"/>
</g>
<!-- Node31 -->
<g id="node31" class="node"><title>Node31</title>
<g id="a_node31"><a xlink:href="../../dd/d08/classlsd__slam_1_1Frame.html#ad78d873de1adfd4ab3268c50b1d462c7" target="_top" xlink:title="lsd_slam::Frame::idepth">
<polygon fill="white" stroke="black" points="549,-692.5 549,-711.5 671,-711.5 671,-692.5 549,-692.5"/>
<text text-anchor="middle" x="610" y="-699.5" font-family="Helvetica,sans-Serif" font-size="10.00">lsd_slam::Frame::idepth</text>
</a>
</g>
</g>
<!-- Node26&#45;&gt;Node31 -->
<g id="edge34" class="edge"><title>Node26&#45;&gt;Node31</title>
<path fill="none" stroke="midnightblue" d="M473.992,-800.974C482.618,-797.018 490.995,-792.095 498,-786 522.912,-764.322 507.842,-741.158 534,-721 536.344,-719.194 538.84,-717.558 541.445,-716.076"/>
<polygon fill="midnightblue" stroke="midnightblue" points="543.185,-719.122 550.655,-711.609 540.13,-712.823 543.185,-719.122"/>
</g>
<!-- Node32 -->
<g id="node32" class="node"><title>Node32</title>
<g id="a_node32"><a xlink:href="../../dd/d08/classlsd__slam_1_1Frame.html#aa3fb7f275b5da621c039a6746b905770" target="_top" xlink:title="lsd_slam::Frame::idepthVar">
<polygon fill="white" stroke="black" points="541.5,-654.5 541.5,-673.5 678.5,-673.5 678.5,-654.5 541.5,-654.5"/>
<text text-anchor="middle" x="610" y="-661.5" font-family="Helvetica,sans-Serif" font-size="10.00">lsd_slam::Frame::idepthVar</text>
</a>
</g>
</g>
<!-- Node26&#45;&gt;Node32 -->
<g id="edge35" class="edge"><title>Node26&#45;&gt;Node32</title>
<path fill="none" stroke="midnightblue" d="M476.895,-800.964C484.686,-797.052 492.041,-792.146 498,-786 531.756,-751.184 498.233,-715.746 534,-683 535.69,-681.452 537.489,-680.027 539.373,-678.713"/>
<polygon fill="midnightblue" stroke="midnightblue" points="541.219,-681.689 548.117,-673.647 537.71,-675.632 541.219,-681.689"/>
</g>
<!-- Node33 -->
<g id="node33" class="node"><title>Node33</title>
<g id="a_node33"><a xlink:href="../../dd/d08/classlsd__slam_1_1Frame.html#a2c31baa0cea975fb73ccf80d92f7a5de" target="_top" xlink:title="lsd_slam::Frame::gradients">
<polygon fill="white" stroke="black" points="542.5,-882.5 542.5,-901.5 677.5,-901.5 677.5,-882.5 542.5,-882.5"/>
<text text-anchor="middle" x="610" y="-889.5" font-family="Helvetica,sans-Serif" font-size="10.00">lsd_slam::Frame::gradients</text>
</a>
</g>
</g>
<!-- Node26&#45;&gt;Node33 -->
<g id="edge37" class="edge"><title>Node26&#45;&gt;Node33</title>
<path fill="none" stroke="midnightblue" d="M465.508,-831.074C476.418,-835.344 487.844,-840.381 498,-846 515.5,-855.682 515.955,-864.376 534,-873 538.999,-875.389 544.335,-877.502 549.768,-879.365"/>
<polygon fill="midnightblue" stroke="midnightblue" points="549.014,-882.796 559.603,-882.454 551.112,-876.118 549.014,-882.796"/>
</g>
<!-- Node37 -->
<g id="node37" class="node"><title>Node37</title>
<g id="a_node37"><a xlink:href="../../d0/d8c/classSophus_1_1SE3GroupBase.html#a4ca1572cb93cddcc95db981fc1f861b2" target="_top" xlink:title="Accessor of unit quaternion. ">
<polygon fill="white" stroke="black" points="548.5,-457 548.5,-487 671.5,-487 671.5,-457 548.5,-457"/>
<text text-anchor="start" x="556.5" y="-475" font-family="Helvetica,sans-Serif" font-size="10.00">Sophus::SE3GroupBase</text>
<text text-anchor="middle" x="610" y="-464" font-family="Helvetica,sans-Serif" font-size="10.00">::unit_quaternion</text>
</a>
</g>
</g>
<!-- Node36&#45;&gt;Node37 -->
<g id="edge44" class="edge"><title>Node36&#45;&gt;Node37</title>
<path fill="none" stroke="midnightblue" d="M481.102,-472C499.386,-472 519.584,-472 538.424,-472"/>
<polygon fill="midnightblue" stroke="midnightblue" points="538.432,-475.5 548.432,-472 538.432,-468.5 538.432,-475.5"/>
</g>
<!-- Node36&#45;&gt;Node38 -->
<g id="edge45" class="edge"><title>Node36&#45;&gt;Node38</title>
<path fill="none" stroke="midnightblue" d="M479.948,-481.647C486.353,-484.096 492.52,-487.163 498,-491 521.628,-507.544 511.81,-526.572 534,-545 543.444,-552.843 555.096,-559.044 566.377,-563.816"/>
<polygon fill="midnightblue" stroke="midnightblue" points="565.121,-567.084 575.708,-567.493 567.687,-560.571 565.121,-567.084"/>
</g>
<!-- Node39 -->
<g id="node39" class="node"><title>Node39</title>
<g id="a_node39"><a xlink:href="../../d6/db5/classSophus_1_1Sim3GroupBase.html#a04b97a30687ff11cd2c1192902b495e0" target="_top" xlink:title="Scale setter. ">
<polygon fill="white" stroke="black" points="546.5,-506 546.5,-536 673.5,-536 673.5,-506 546.5,-506"/>
<text text-anchor="start" x="554.5" y="-524" font-family="Helvetica,sans-Serif" font-size="10.00">Sophus::Sim3GroupBase</text>
<text text-anchor="middle" x="610" y="-513" font-family="Helvetica,sans-Serif" font-size="10.00">::setScale</text>
</a>
</g>
</g>
<!-- Node36&#45;&gt;Node39 -->
<g id="edge46" class="edge"><title>Node36&#45;&gt;Node39</title>
<path fill="none" stroke="midnightblue" d="M460.13,-481.572C472.309,-484.531 485.716,-487.844 498,-491 513.067,-494.871 529.247,-499.165 544.466,-503.266"/>
<polygon fill="midnightblue" stroke="midnightblue" points="543.74,-506.695 554.307,-505.927 545.567,-499.938 543.74,-506.695"/>
</g>
</g>
</svg>
        <g id="navigator" transform="translate(0 0)" fill="#404254">
                <rect fill="#f2f5e9" fill-opacity="0.5" stroke="#606060" stroke-width=".5" x="0" y="0" width="60" height="60"/>
                <use id="zoomplus" xlink:href="#zoomPlus" x="17" y="9" onmousedown="handleZoom(evt,'in')"/>
                <use id="zoomminus" xlink:href="#zoomMin" x="42" y="9" onmousedown="handleZoom(evt,'out')"/>
                <use id="reset" xlink:href="#resetDef" x="30" y="36" onmousedown="handleReset()"/>
                <g id="arrowUp" xlink:href="#dirArrow" transform="translate(30 24)" onmousedown="handlePan(0,-1)">
                  <use xlink:href="#rim" fill="#404040">
                        <set attributeName="fill" to="#808080" begin="arrowUp.mouseover" end="arrowUp.mouseout"/>
                  </use>
                  <path fill="none" stroke="white" stroke-width="1.5" d="M0,-3.0v7 M-2.5,-0.5L0,-3.0L2.5,-0.5"/>
                </g>
                <g id="arrowRight" xlink:href="#dirArrow" transform="rotate(90) translate(36 -43)" onmousedown="handlePan(1,0)">
                  <use xlink:href="#rim" fill="#404040">
                        <set attributeName="fill" to="#808080" begin="arrowRight.mouseover" end="arrowRight.mouseout"/>
                  </use>
                  <path fill="none" stroke="white" stroke-width="1.5" d="M0,-3.0v7 M-2.5,-0.5L0,-3.0L2.5,-0.5"/>
                </g>
                <g id="arrowDown" xlink:href="#dirArrow" transform="rotate(180) translate(-30 -48)" onmousedown="handlePan(0,1)">
                  <use xlink:href="#rim" fill="#404040">
                        <set attributeName="fill" to="#808080" begin="arrowDown.mouseover" end="arrowDown.mouseout"/>
                  </use>
                  <path fill="none" stroke="white" stroke-width="1.5" d="M0,-3.0v7 M-2.5,-0.5L0,-3.0L2.5,-0.5"/>
                </g>
                <g id="arrowLeft" xlink:href="#dirArrow" transform="rotate(270) translate(-36 17)" onmousedown="handlePan(-1,0)">
                  <use xlink:href="#rim" fill="#404040">
                        <set attributeName="fill" to="#808080" begin="arrowLeft.mouseover" end="arrowLeft.mouseout"/>
                  </use>
                  <path fill="none" stroke="white" stroke-width="1.5" d="M0,-3.0v7 M-2.5,-0.5L0,-3.0L2.5,-0.5"/>
                </g>
        </g>
        <svg viewBox="0 0 15 15" width="100%" height="30px" preserveAspectRatio="xMaxYMin meet">
         <g id="arrow_out" transform="scale(0.3 0.3)">
          <a xlink:href="classlsd__slam_1_1SlamSystem_a5cf500a63c1b36530e03af22494393ad_cgraph_org.svg" target="_base">
           <rect id="button" ry="5" rx="5" y="6" x="6" height="38" width="38"
                fill="#f2f5e9" fill-opacity="0.5" stroke="#606060" stroke-width="1.0"/>
           <path id="arrow"
             d="M 11.500037,31.436501 C 11.940474,20.09759 22.043105,11.32322 32.158766,21.979434 L 37.068811,17.246167 C 37.068811,17.246167 37.088388,32 37.088388,32 L 22.160133,31.978069 C 22.160133,31.978069 26.997745,27.140456 26.997745,27.140456 C 18.528582,18.264221 13.291696,25.230495 11.500037,31.436501 z"
             style="fill:#404040;"/>
          </a>
         </g>
        </svg>
</svg>
