<?xml version="1.0" encoding="UTF-8" standalone="no"?>
<!DOCTYPE svg PUBLIC "-//W3C//DTD SVG 1.1//EN"
 "http://www.w3.org/Graphics/SVG/1.1/DTD/svg11.dtd">
<!-- Generated by graphviz version 2.36.0 (20140111.2315)
 -->
<!-- Title: lsd_slam::SlamSystem::~SlamSystem Pages: 1 -->
<svg width="288pt" height="136pt"
 viewBox="0.00 0.00 288.00 136.00" xmlns="http://www.w3.org/2000/svg" xmlns:xlink="http://www.w3.org/1999/xlink">
<g id="graph0" class="graph" transform="scale(1 1) rotate(0) translate(4 132)">
<title>lsd_slam::SlamSystem::~SlamSystem</title>
<polygon fill="white" stroke="none" points="-4,4 -4,-132 284,-132 284,4 -4,4"/>
<!-- Node1 -->
<g id="node1" class="node"><title>Node1</title>
<polygon fill="#bfbfbf" stroke="black" points="0,-49 0,-79 118,-79 118,-49 0,-49"/>
<text text-anchor="start" x="8" y="-67" font-family="Helvetica,sans-Serif" font-size="10.00">lsd_slam::SlamSystem</text>
<text text-anchor="middle" x="59" y="-56" font-family="Helvetica,sans-Serif" font-size="10.00">::~SlamSystem</text>
</g>
<!-- Node2 -->
<g id="node2" class="node"><title>Node2</title>
<g id="a_node2"><a xlink:href="../../d1/d95/classlsd__slam_1_1FrameMemory.html#adf4afed8c58a420b38e4b117628ac32d" target="_top" xlink:title="lsd_slam::FrameMemory\l::getInstance">
<polygon fill="white" stroke="black" points="154.5,-98 154.5,-128 279.5,-128 279.5,-98 154.5,-98"/>
<text text-anchor="start" x="162.5" y="-116" font-family="Helvetica,sans-Serif" font-size="10.00">lsd_slam::FrameMemory</text>
<text text-anchor="middle" x="217" y="-105" font-family="Helvetica,sans-Serif" font-size="10.00">::getInstance</text>
</a>
</g>
</g>
<!-- Node1&#45;&gt;Node2 -->
<g id="edge1" class="edge"><title>Node1&#45;&gt;Node2</title>
<path fill="none" stroke="midnightblue" d="M108.078,-79.1014C124.018,-84.1083 141.924,-89.7324 158.5,-94.939"/>
<polygon fill="midnightblue" stroke="midnightblue" points="157.491,-98.2908 168.081,-97.9484 159.589,-91.6125 157.491,-98.2908"/>
</g>
<!-- Node3 -->
<g id="node3" class="node"><title>Node3</title>
<g id="a_node3"><a xlink:href="../../d1/d95/classlsd__slam_1_1FrameMemory.html#aec600d5495fb555f10b6d3383513d0c6" target="_top" xlink:title="lsd_slam::FrameMemory\l::releaseBuffes">
<polygon fill="white" stroke="black" points="154.5,-49 154.5,-79 279.5,-79 279.5,-49 154.5,-49"/>
<text text-anchor="start" x="162.5" y="-67" font-family="Helvetica,sans-Serif" font-size="10.00">lsd_slam::FrameMemory</text>
<text text-anchor="middle" x="217" y="-56" font-family="Helvetica,sans-Serif" font-size="10.00">::releaseBuffes</text>
</a>
</g>
</g>
<!-- Node1&#45;&gt;Node3 -->
<g id="edge2" class="edge"><title>Node1&#45;&gt;Node3</title>
<path fill="none" stroke="midnightblue" d="M118.089,-64C126.619,-64 135.489,-64 144.254,-64"/>
<polygon fill="midnightblue" stroke="midnightblue" points="144.467,-67.5001 154.467,-64 144.467,-60.5001 144.467,-67.5001"/>
</g>
<!-- Node4 -->
<g id="node4" class="node"><title>Node4</title>
<g id="a_node4"><a xlink:href="../../d8/da0/namespacelsd__slam_1_1Util.html#a49d6e6235b9b2a35bb5817936053b2fc" target="_top" xlink:title="lsd_slam::Util::closeAll\lWindows">
<polygon fill="white" stroke="black" points="158.5,-0 158.5,-30 275.5,-30 275.5,-0 158.5,-0"/>
<text text-anchor="start" x="166.5" y="-18" font-family="Helvetica,sans-Serif" font-size="10.00">lsd_slam::Util::closeAll</text>
<text text-anchor="middle" x="217" y="-7" font-family="Helvetica,sans-Serif" font-size="10.00">Windows</text>
</a>
</g>
</g>
<!-- Node1&#45;&gt;Node4 -->
<g id="edge3" class="edge"><title>Node1&#45;&gt;Node4</title>
<path fill="none" stroke="midnightblue" d="M108.078,-48.8986C124.018,-43.8917 141.924,-38.2676 158.5,-33.061"/>
<polygon fill="midnightblue" stroke="midnightblue" points="159.589,-36.3875 168.081,-30.0516 157.491,-29.7092 159.589,-36.3875"/>
</g>
</g>
</svg>
