<?xml version="1.0" encoding="UTF-8" standalone="no"?>
<!DOCTYPE svg PUBLIC "-//W3C//DTD SVG 1.1//EN"
 "http://www.w3.org/Graphics/SVG/1.1/DTD/svg11.dtd">
<!-- Generated by graphviz version 2.36.0 (20140111.2315)
 -->
<!-- Title: lsd_slam::SlamSystem::gtDepthInit Pages: 1 -->
<!--zoomable 220 -->
<svg id="main" version="1.1" xmlns="http://www.w3.org/2000/svg" xmlns:xlink="http://www.w3.org/1999/xlink" xml:space="preserve" onload="init(evt)">
<style type="text/css"><![CDATA[
.edge:hover path { stroke: red; }
.edge:hover polygon { stroke: red; fill: red; }
]]></style>
<script type="text/javascript"><![CDATA[
var edges = document.getElementsByTagName('g');
if (edges && edges.length) {
  for (var i=0;i<edges.length;i++) {
    if (edges[i].id.substr(0,4)=='edge') {
      edges[i].setAttribute('class','edge');
    }
  }
}
]]></script>
        <defs>
                <circle id="rim" cx="0" cy="0" r="7"/>
                <circle id="rim2" cx="0" cy="0" r="3.5"/>
                <g id="zoomPlus">
                        <use xlink:href="#rim" fill="#404040">
                                <set attributeName="fill" to="#808080" begin="zoomplus.mouseover" end="zoomplus.mouseout"/>
                        </use>
                        <path d="M-4,0h8M0,-4v8" fill="none" stroke="white" stroke-width="1.5" pointer-events="none"/>
                </g>
                <g id="zoomMin">
                        <use xlink:href="#rim" fill="#404040">
                                <set attributeName="fill" to="#808080" begin="zoomminus.mouseover" end="zoomminus.mouseout"/>
                        </use>
                        <path d="M-4,0h8" fill="none" stroke="white" stroke-width="1.5" pointer-events="none"/>
                </g>
                <g id="dirArrow">
                        <path fill="none" stroke="white" stroke-width="1.5" d="M0,-3.0v7 M-2.5,-0.5L0,-3.0L2.5,-0.5"/>
                </g>
               <g id="resetDef">
                       <use xlink:href="#rim2" fill="#404040">
                               <set attributeName="fill" to="#808080" begin="reset.mouseover" end="reset.mouseout"/>
                       </use>
               </g>
        </defs>

<script type="text/javascript">
var viewWidth = 834;
var viewHeight = 220;
var sectionId = 'dynsection-5';
</script>
<script xlink:href="../../svgpan.js"/>
<svg id="graph" class="graph">
<g id="viewport">
<title>lsd_slam::SlamSystem::gtDepthInit</title>
<polygon fill="white" stroke="none" points="-4,4 -4,-216 830,-216 830,4 -4,4"/>
<!-- Node1 -->
<g id="node1" class="node"><title>Node1</title>
<polygon fill="#bfbfbf" stroke="black" points="0,-51 0,-81 118,-81 118,-51 0,-51"/>
<text text-anchor="start" x="8" y="-69" font-family="Helvetica,sans-Serif" font-size="10.00">lsd_slam::SlamSystem</text>
<text text-anchor="middle" x="59" y="-58" font-family="Helvetica,sans-Serif" font-size="10.00">::gtDepthInit</text>
</g>
<!-- Node2 -->
<g id="node2" class="node"><title>Node2</title>
<g id="a_node2"><a xlink:href="../../db/dea/classlsd__slam_1_1DepthMap.html#aef0161396bb13077d05198f0f5514e4c" target="_top" xlink:title="lsd_slam::DepthMap\l::initializeFromGTDepth">
<polygon fill="white" stroke="black" points="164,-100 164,-130 284,-130 284,-100 164,-100"/>
<text text-anchor="start" x="172" y="-118" font-family="Helvetica,sans-Serif" font-size="10.00">lsd_slam::DepthMap</text>
<text text-anchor="middle" x="224" y="-107" font-family="Helvetica,sans-Serif" font-size="10.00">::initializeFromGTDepth</text>
</a>
</g>
</g>
<!-- Node1&#45;&gt;Node2 -->
<g id="edge1" class="edge"><title>Node1&#45;&gt;Node2</title>
<path fill="none" stroke="midnightblue" d="M110.235,-81.1014C126.891,-86.1083 145.6,-91.7324 162.919,-96.939"/>
<polygon fill="midnightblue" stroke="midnightblue" points="162.346,-100.421 172.93,-99.9484 164.361,-93.7177 162.346,-100.421"/>
</g>
<!-- Node12 -->
<g id="node12" class="node"><title>Node12</title>
<g id="a_node12"><a xlink:href="../../df/d4c/classlsd__slam_1_1KeyFrameGraph.html#a5e04ab1456118e86090ae4baa736c0d5" target="_top" xlink:title="lsd_slam::KeyFrameGraph\l::addFrame">
<polygon fill="white" stroke="black" points="157.5,-51 157.5,-81 290.5,-81 290.5,-51 157.5,-51"/>
<text text-anchor="start" x="165.5" y="-69" font-family="Helvetica,sans-Serif" font-size="10.00">lsd_slam::KeyFrameGraph</text>
<text text-anchor="middle" x="224" y="-58" font-family="Helvetica,sans-Serif" font-size="10.00">::addFrame</text>
</a>
</g>
</g>
<!-- Node1&#45;&gt;Node12 -->
<g id="edge13" class="edge"><title>Node1&#45;&gt;Node12</title>
<path fill="none" stroke="midnightblue" d="M118.386,-66C127.743,-66 137.542,-66 147.232,-66"/>
<polygon fill="midnightblue" stroke="midnightblue" points="147.269,-69.5001 157.269,-66 147.269,-62.5001 147.269,-69.5001"/>
</g>
<!-- Node13 -->
<g id="node13" class="node"><title>Node13</title>
<g id="a_node13"><a xlink:href="../../d5/d57/classlsd__slam_1_1Output3DWrapper.html#a524f65c21ef553f626a75e24e3ea10f5" target="_top" xlink:title="lsd_slam::Output3DWrapper\l::publishKeyframe">
<polygon fill="white" stroke="black" points="154,-2 154,-32 294,-32 294,-2 154,-2"/>
<text text-anchor="start" x="162" y="-20" font-family="Helvetica,sans-Serif" font-size="10.00">lsd_slam::Output3DWrapper</text>
<text text-anchor="middle" x="224" y="-9" font-family="Helvetica,sans-Serif" font-size="10.00">::publishKeyframe</text>
</a>
</g>
</g>
<!-- Node1&#45;&gt;Node13 -->
<g id="edge14" class="edge"><title>Node1&#45;&gt;Node13</title>
<path fill="none" stroke="midnightblue" d="M110.235,-50.8986C126.891,-45.8917 145.6,-40.2676 162.919,-35.061"/>
<polygon fill="midnightblue" stroke="midnightblue" points="164.361,-38.2823 172.93,-32.0516 162.346,-31.5787 164.361,-38.2823"/>
</g>
<!-- Node3 -->
<g id="node3" class="node"><title>Node3</title>
<g id="a_node3"><a xlink:href="../../dd/d08/classlsd__slam_1_1Frame.html#abe0ec6e93823ae0a31e73100a8b73940" target="_top" xlink:title="lsd_slam::Frame::hasIDepth\lBeenSet">
<polygon fill="white" stroke="black" points="330,-182 330,-212 470,-212 470,-182 330,-182"/>
<text text-anchor="start" x="338" y="-200" font-family="Helvetica,sans-Serif" font-size="10.00">lsd_slam::Frame::hasIDepth</text>
<text text-anchor="middle" x="400" y="-189" font-family="Helvetica,sans-Serif" font-size="10.00">BeenSet</text>
</a>
</g>
</g>
<!-- Node2&#45;&gt;Node3 -->
<g id="edge2" class="edge"><title>Node2&#45;&gt;Node3</title>
<path fill="none" stroke="midnightblue" d="M254.681,-130.19C275.606,-140.778 304.357,-155.085 330,-167 337.748,-170.6 346.041,-174.319 354.095,-177.861"/>
<polygon fill="midnightblue" stroke="midnightblue" points="352.827,-181.126 363.392,-181.92 355.628,-174.711 352.827,-181.126"/>
</g>
<!-- Node4 -->
<g id="node4" class="node"><title>Node4</title>
<g id="a_node4"><a xlink:href="../../dd/d08/classlsd__slam_1_1Frame.html#af73ccb75e1e449d9a8f2044246ee3530" target="_top" xlink:title="lsd_slam::Frame::getActiveLock">
<polygon fill="white" stroke="black" points="506,-96.5 506,-115.5 664,-115.5 664,-96.5 506,-96.5"/>
<text text-anchor="middle" x="585" y="-103.5" font-family="Helvetica,sans-Serif" font-size="10.00">lsd_slam::Frame::getActiveLock</text>
</a>
</g>
</g>
<!-- Node2&#45;&gt;Node4 -->
<g id="edge3" class="edge"><title>Node2&#45;&gt;Node4</title>
<path fill="none" stroke="midnightblue" d="M284.165,-127.617C299.055,-130.264 315.055,-132.659 330,-134 391.973,-139.562 408.228,-141.475 470,-134 494.977,-130.978 522.374,-124.359 544.05,-118.315"/>
<polygon fill="midnightblue" stroke="midnightblue" points="545.232,-121.618 553.885,-115.504 543.308,-114.887 545.232,-121.618"/>
</g>
<!-- Node7 -->
<g id="node7" class="node"><title>Node7</title>
<g id="a_node7"><a xlink:href="../../dd/d08/classlsd__slam_1_1Frame.html#a9306307027bbe62b973c0b138216b456" target="_top" xlink:title="lsd_slam::Frame::image">
<polygon fill="white" stroke="black" points="339,-105.5 339,-124.5 461,-124.5 461,-105.5 339,-105.5"/>
<text text-anchor="middle" x="400" y="-112.5" font-family="Helvetica,sans-Serif" font-size="10.00">lsd_slam::Frame::image</text>
</a>
</g>
</g>
<!-- Node2&#45;&gt;Node7 -->
<g id="edge6" class="edge"><title>Node2&#45;&gt;Node7</title>
<path fill="none" stroke="midnightblue" d="M284.394,-115C298.713,-115 314.144,-115 328.9,-115"/>
<polygon fill="midnightblue" stroke="midnightblue" points="328.987,-118.5 338.987,-115 328.987,-111.5 328.987,-118.5"/>
</g>
<!-- Node8 -->
<g id="node8" class="node"><title>Node8</title>
<g id="a_node8"><a xlink:href="../../dd/d08/classlsd__slam_1_1Frame.html#ad78d873de1adfd4ab3268c50b1d462c7" target="_top" xlink:title="lsd_slam::Frame::idepth">
<polygon fill="white" stroke="black" points="339,-67.5 339,-86.5 461,-86.5 461,-67.5 339,-67.5"/>
<text text-anchor="middle" x="400" y="-74.5" font-family="Helvetica,sans-Serif" font-size="10.00">lsd_slam::Frame::idepth</text>
</a>
</g>
</g>
<!-- Node2&#45;&gt;Node8 -->
<g id="edge7" class="edge"><title>Node2&#45;&gt;Node8</title>
<path fill="none" stroke="midnightblue" d="M284.394,-102.029C304.18,-97.7079 326.09,-92.9228 345.409,-88.7038"/>
<polygon fill="midnightblue" stroke="midnightblue" points="346.227,-92.1076 355.25,-86.5545 344.734,-85.2688 346.227,-92.1076"/>
</g>
<!-- Node9 -->
<g id="node9" class="node"><title>Node9</title>
<g id="a_node9"><a xlink:href="../../dd/d08/classlsd__slam_1_1Frame.html#aa869fc645781090678dc61399ef26f73" target="_top" xlink:title="lsd_slam::Frame::setDepth">
<polygon fill="white" stroke="black" points="332.5,-29.5 332.5,-48.5 467.5,-48.5 467.5,-29.5 332.5,-29.5"/>
<text text-anchor="middle" x="400" y="-36.5" font-family="Helvetica,sans-Serif" font-size="10.00">lsd_slam::Frame::setDepth</text>
</a>
</g>
</g>
<!-- Node2&#45;&gt;Node9 -->
<g id="edge8" class="edge"><title>Node2&#45;&gt;Node9</title>
<path fill="none" stroke="midnightblue" d="M273.95,-99.9026C280.878,-97.0166 287.76,-93.716 294,-90 312.393,-79.0466 311.19,-68.2194 330,-58 334.214,-55.7108 338.725,-53.68 343.348,-51.8818"/>
<polygon fill="midnightblue" stroke="midnightblue" points="344.665,-55.1289 352.937,-48.5088 342.342,-48.5255 344.665,-55.1289"/>
</g>
<!-- Node5 -->
<g id="node5" class="node"><title>Node5</title>
<g id="a_node5"><a xlink:href="../../d1/d95/classlsd__slam_1_1FrameMemory.html#adf4afed8c58a420b38e4b117628ac32d" target="_top" xlink:title="lsd_slam::FrameMemory\l::getInstance">
<polygon fill="white" stroke="black" points="700.5,-49 700.5,-79 825.5,-79 825.5,-49 700.5,-49"/>
<text text-anchor="start" x="708.5" y="-67" font-family="Helvetica,sans-Serif" font-size="10.00">lsd_slam::FrameMemory</text>
<text text-anchor="middle" x="763" y="-56" font-family="Helvetica,sans-Serif" font-size="10.00">::getInstance</text>
</a>
</g>
</g>
<!-- Node4&#45;&gt;Node5 -->
<g id="edge4" class="edge"><title>Node4&#45;&gt;Node5</title>
<path fill="none" stroke="midnightblue" d="M625.937,-96.4695C645.022,-91.9151 668.459,-86.3224 690.469,-81.0699"/>
<polygon fill="midnightblue" stroke="midnightblue" points="691.547,-84.4111 700.461,-78.6854 689.922,-77.6023 691.547,-84.4111"/>
</g>
<!-- Node6 -->
<g id="node6" class="node"><title>Node6</title>
<g id="a_node6"><a xlink:href="../../d1/d95/classlsd__slam_1_1FrameMemory.html#a6835f2a14358dee3518d9f9bff8526e3" target="_top" xlink:title="lsd_slam::FrameMemory\l::activateFrame">
<polygon fill="white" stroke="black" points="700.5,-98 700.5,-128 825.5,-128 825.5,-98 700.5,-98"/>
<text text-anchor="start" x="708.5" y="-116" font-family="Helvetica,sans-Serif" font-size="10.00">lsd_slam::FrameMemory</text>
<text text-anchor="middle" x="763" y="-105" font-family="Helvetica,sans-Serif" font-size="10.00">::activateFrame</text>
</a>
</g>
</g>
<!-- Node4&#45;&gt;Node6 -->
<g id="edge5" class="edge"><title>Node4&#45;&gt;Node6</title>
<path fill="none" stroke="midnightblue" d="M664.221,-109.111C672.931,-109.457 681.771,-109.809 690.393,-110.152"/>
<polygon fill="midnightblue" stroke="midnightblue" points="690.262,-113.649 700.394,-110.55 690.541,-106.655 690.262,-113.649"/>
</g>
<!-- Node9&#45;&gt;Node4 -->
<g id="edge9" class="edge"><title>Node9&#45;&gt;Node4</title>
<path fill="none" stroke="midnightblue" d="M440.836,-48.5467C450.5,-51.2509 460.719,-54.441 470,-58 486.703,-64.4049 489.633,-68.7808 506,-76 519.434,-81.9257 534.437,-87.8547 547.668,-92.8583"/>
<polygon fill="midnightblue" stroke="midnightblue" points="546.793,-96.2676 557.386,-96.4888 549.243,-89.7103 546.793,-96.2676"/>
</g>
<!-- Node9&#45;&gt;Node5 -->
<g id="edge10" class="edge"><title>Node9&#45;&gt;Node5</title>
<path fill="none" stroke="midnightblue" d="M467.634,-43.6145C530.773,-47.9871 625.331,-54.5354 690.137,-59.0233"/>
<polygon fill="midnightblue" stroke="midnightblue" points="690.055,-62.526 700.273,-59.7253 690.539,-55.5427 690.055,-62.526"/>
</g>
<!-- Node10 -->
<g id="node10" class="node"><title>Node10</title>
<g id="a_node10"><a xlink:href="../../d1/d95/classlsd__slam_1_1FrameMemory.html#a5a2a621821958fe136a2ddc9707a1f72" target="_top" xlink:title="lsd_slam::FrameMemory\l::getFloatBuffer">
<polygon fill="white" stroke="black" points="522.5,-2 522.5,-32 647.5,-32 647.5,-2 522.5,-2"/>
<text text-anchor="start" x="530.5" y="-20" font-family="Helvetica,sans-Serif" font-size="10.00">lsd_slam::FrameMemory</text>
<text text-anchor="middle" x="585" y="-9" font-family="Helvetica,sans-Serif" font-size="10.00">::getFloatBuffer</text>
</a>
</g>
</g>
<!-- Node9&#45;&gt;Node10 -->
<g id="edge11" class="edge"><title>Node9&#45;&gt;Node10</title>
<path fill="none" stroke="midnightblue" d="M467.585,-30.9953C482.116,-29.2484 497.554,-27.3924 512.275,-25.6226"/>
<polygon fill="midnightblue" stroke="midnightblue" points="512.822,-29.0822 522.333,-24.4136 511.986,-22.1323 512.822,-29.0822"/>
</g>
<!-- Node11 -->
<g id="node11" class="node"><title>Node11</title>
<g id="a_node11"><a xlink:href="../../d1/d95/classlsd__slam_1_1FrameMemory.html#abd3eb8d2623e977f3da91416d66d01e3" target="_top" xlink:title="lsd_slam::FrameMemory\l::getBuffer">
<polygon fill="white" stroke="black" points="700.5,-0 700.5,-30 825.5,-30 825.5,-0 700.5,-0"/>
<text text-anchor="start" x="708.5" y="-18" font-family="Helvetica,sans-Serif" font-size="10.00">lsd_slam::FrameMemory</text>
<text text-anchor="middle" x="763" y="-7" font-family="Helvetica,sans-Serif" font-size="10.00">::getBuffer</text>
</a>
</g>
</g>
<!-- Node10&#45;&gt;Node11 -->
<g id="edge12" class="edge"><title>Node10&#45;&gt;Node11</title>
<path fill="none" stroke="midnightblue" d="M647.556,-16.3005C661.356,-16.1437 676.112,-15.976 690.284,-15.815"/>
<polygon fill="midnightblue" stroke="midnightblue" points="690.519,-19.3126 700.478,-15.6991 690.439,-12.3131 690.519,-19.3126"/>
</g>
</g>
</svg>
        <g id="navigator" transform="translate(0 0)" fill="#404254">
                <rect fill="#f2f5e9" fill-opacity="0.5" stroke="#606060" stroke-width=".5" x="0" y="0" width="60" height="60"/>
                <use id="zoomplus" xlink:href="#zoomPlus" x="17" y="9" onmousedown="handleZoom(evt,'in')"/>
                <use id="zoomminus" xlink:href="#zoomMin" x="42" y="9" onmousedown="handleZoom(evt,'out')"/>
                <use id="reset" xlink:href="#resetDef" x="30" y="36" onmousedown="handleReset()"/>
                <g id="arrowUp" xlink:href="#dirArrow" transform="translate(30 24)" onmousedown="handlePan(0,-1)">
                  <use xlink:href="#rim" fill="#404040">
                        <set attributeName="fill" to="#808080" begin="arrowUp.mouseover" end="arrowUp.mouseout"/>
                  </use>
                  <path fill="none" stroke="white" stroke-width="1.5" d="M0,-3.0v7 M-2.5,-0.5L0,-3.0L2.5,-0.5"/>
                </g>
                <g id="arrowRight" xlink:href="#dirArrow" transform="rotate(90) translate(36 -43)" onmousedown="handlePan(1,0)">
                  <use xlink:href="#rim" fill="#404040">
                        <set attributeName="fill" to="#808080" begin="arrowRight.mouseover" end="arrowRight.mouseout"/>
                  </use>
                  <path fill="none" stroke="white" stroke-width="1.5" d="M0,-3.0v7 M-2.5,-0.5L0,-3.0L2.5,-0.5"/>
                </g>
                <g id="arrowDown" xlink:href="#dirArrow" transform="rotate(180) translate(-30 -48)" onmousedown="handlePan(0,1)">
                  <use xlink:href="#rim" fill="#404040">
                        <set attributeName="fill" to="#808080" begin="arrowDown.mouseover" end="arrowDown.mouseout"/>
                  </use>
                  <path fill="none" stroke="white" stroke-width="1.5" d="M0,-3.0v7 M-2.5,-0.5L0,-3.0L2.5,-0.5"/>
                </g>
                <g id="arrowLeft" xlink:href="#dirArrow" transform="rotate(270) translate(-36 17)" onmousedown="handlePan(-1,0)">
                  <use xlink:href="#rim" fill="#404040">
                        <set attributeName="fill" to="#808080" begin="arrowLeft.mouseover" end="arrowLeft.mouseout"/>
                  </use>
                  <path fill="none" stroke="white" stroke-width="1.5" d="M0,-3.0v7 M-2.5,-0.5L0,-3.0L2.5,-0.5"/>
                </g>
        </g>
        <svg viewBox="0 0 15 15" width="100%" height="30px" preserveAspectRatio="xMaxYMin meet">
         <g id="arrow_out" transform="scale(0.3 0.3)">
          <a xlink:href="classlsd__slam_1_1SlamSystem_ae02d68a3e3a62b6000aa6e30fbc68cdc_cgraph_org.svg" target="_base">
           <rect id="button" ry="5" rx="5" y="6" x="6" height="38" width="38"
                fill="#f2f5e9" fill-opacity="0.5" stroke="#606060" stroke-width="1.0"/>
           <path id="arrow"
             d="M 11.500037,31.436501 C 11.940474,20.09759 22.043105,11.32322 32.158766,21.979434 L 37.068811,17.246167 C 37.068811,17.246167 37.088388,32 37.088388,32 L 22.160133,31.978069 C 22.160133,31.978069 26.997745,27.140456 26.997745,27.140456 C 18.528582,18.264221 13.291696,25.230495 11.500037,31.436501 z"
             style="fill:#404040;"/>
          </a>
         </g>
        </svg>
</svg>
