<?xml version="1.0" encoding="UTF-8" standalone="no"?>
<!DOCTYPE svg PUBLIC "-//W3C//DTD SVG 1.1//EN"
 "http://www.w3.org/Graphics/SVG/1.1/DTD/svg11.dtd">
<!-- Generated by graphviz version 2.36.0 (20140111.2315)
 -->
<!-- Title: lsd_slam::SlamSystem::randomInit Pages: 1 -->
<!--zoomable 167 -->
<svg id="main" version="1.1" xmlns="http://www.w3.org/2000/svg" xmlns:xlink="http://www.w3.org/1999/xlink" xml:space="preserve" onload="init(evt)">
<style type="text/css"><![CDATA[
.edge:hover path { stroke: red; }
.edge:hover polygon { stroke: red; fill: red; }
]]></style>
<script type="text/javascript"><![CDATA[
var edges = document.getElementsByTagName('g');
if (edges && edges.length) {
  for (var i=0;i<edges.length;i++) {
    if (edges[i].id.substr(0,4)=='edge') {
      edges[i].setAttribute('class','edge');
    }
  }
}
]]></script>
        <defs>
                <circle id="rim" cx="0" cy="0" r="7"/>
                <circle id="rim2" cx="0" cy="0" r="3.5"/>
                <g id="zoomPlus">
                        <use xlink:href="#rim" fill="#404040">
                                <set attributeName="fill" to="#808080" begin="zoomplus.mouseover" end="zoomplus.mouseout"/>
                        </use>
                        <path d="M-4,0h8M0,-4v8" fill="none" stroke="white" stroke-width="1.5" pointer-events="none"/>
                </g>
                <g id="zoomMin">
                        <use xlink:href="#rim" fill="#404040">
                                <set attributeName="fill" to="#808080" begin="zoomminus.mouseover" end="zoomminus.mouseout"/>
                        </use>
                        <path d="M-4,0h8" fill="none" stroke="white" stroke-width="1.5" pointer-events="none"/>
                </g>
                <g id="dirArrow">
                        <path fill="none" stroke="white" stroke-width="1.5" d="M0,-3.0v7 M-2.5,-0.5L0,-3.0L2.5,-0.5"/>
                </g>
               <g id="resetDef">
                       <use xlink:href="#rim2" fill="#404040">
                               <set attributeName="fill" to="#808080" begin="reset.mouseover" end="reset.mouseout"/>
                       </use>
               </g>
        </defs>

<script type="text/javascript">
var viewWidth = 850;
var viewHeight = 167;
var sectionId = 'dynsection-9';
</script>
<script xlink:href="../../svgpan.js"/>
<svg id="graph" class="graph">
<g id="viewport">
<title>lsd_slam::SlamSystem::randomInit</title>
<polygon fill="white" stroke="none" points="-4,4 -4,-162.843 846,-162.843 846,4 -4,4"/>
<!-- Node1 -->
<g id="node1" class="node"><title>Node1</title>
<polygon fill="#bfbfbf" stroke="black" points="0,-49 0,-79 118,-79 118,-49 0,-49"/>
<text text-anchor="start" x="8" y="-67" font-family="Helvetica,sans-Serif" font-size="10.00">lsd_slam::SlamSystem</text>
<text text-anchor="middle" x="59" y="-56" font-family="Helvetica,sans-Serif" font-size="10.00">::randomInit</text>
</g>
<!-- Node2 -->
<g id="node2" class="node"><title>Node2</title>
<g id="a_node2"><a xlink:href="../../db/dea/classlsd__slam_1_1DepthMap.html#ad43f276ef4edee8420460b452929aad4" target="_top" xlink:title="lsd_slam::DepthMap\l::initializeRandomly">
<polygon fill="white" stroke="black" points="170.5,-98 170.5,-128 277.5,-128 277.5,-98 170.5,-98"/>
<text text-anchor="start" x="178.5" y="-116" font-family="Helvetica,sans-Serif" font-size="10.00">lsd_slam::DepthMap</text>
<text text-anchor="middle" x="224" y="-105" font-family="Helvetica,sans-Serif" font-size="10.00">::initializeRandomly</text>
</a>
</g>
</g>
<!-- Node1&#45;&gt;Node2 -->
<g id="edge1" class="edge"><title>Node1&#45;&gt;Node2</title>
<path fill="none" stroke="midnightblue" d="M110.235,-79.1014C126.891,-84.1083 145.6,-89.7324 162.919,-94.939"/>
<polygon fill="midnightblue" stroke="midnightblue" points="162.346,-98.4213 172.93,-97.9484 164.361,-91.7177 162.346,-98.4213"/>
</g>
<!-- Node11 -->
<g id="node11" class="node"><title>Node11</title>
<g id="a_node11"><a xlink:href="../../df/d4c/classlsd__slam_1_1KeyFrameGraph.html#a5e04ab1456118e86090ae4baa736c0d5" target="_top" xlink:title="lsd_slam::KeyFrameGraph\l::addFrame">
<polygon fill="white" stroke="black" points="157.5,-49 157.5,-79 290.5,-79 290.5,-49 157.5,-49"/>
<text text-anchor="start" x="165.5" y="-67" font-family="Helvetica,sans-Serif" font-size="10.00">lsd_slam::KeyFrameGraph</text>
<text text-anchor="middle" x="224" y="-56" font-family="Helvetica,sans-Serif" font-size="10.00">::addFrame</text>
</a>
</g>
</g>
<!-- Node1&#45;&gt;Node11 -->
<g id="edge12" class="edge"><title>Node1&#45;&gt;Node11</title>
<path fill="none" stroke="midnightblue" d="M118.386,-64C127.743,-64 137.542,-64 147.232,-64"/>
<polygon fill="midnightblue" stroke="midnightblue" points="147.269,-67.5001 157.269,-64 147.269,-60.5001 147.269,-67.5001"/>
</g>
<!-- Node12 -->
<g id="node12" class="node"><title>Node12</title>
<g id="a_node12"><a xlink:href="../../d5/d57/classlsd__slam_1_1Output3DWrapper.html#a524f65c21ef553f626a75e24e3ea10f5" target="_top" xlink:title="lsd_slam::Output3DWrapper\l::publishKeyframe">
<polygon fill="white" stroke="black" points="154,-0 154,-30 294,-30 294,-0 154,-0"/>
<text text-anchor="start" x="162" y="-18" font-family="Helvetica,sans-Serif" font-size="10.00">lsd_slam::Output3DWrapper</text>
<text text-anchor="middle" x="224" y="-7" font-family="Helvetica,sans-Serif" font-size="10.00">::publishKeyframe</text>
</a>
</g>
</g>
<!-- Node1&#45;&gt;Node12 -->
<g id="edge13" class="edge"><title>Node1&#45;&gt;Node12</title>
<path fill="none" stroke="midnightblue" d="M110.235,-48.8986C126.891,-43.8917 145.6,-38.2676 162.919,-33.061"/>
<polygon fill="midnightblue" stroke="midnightblue" points="164.361,-36.2823 172.93,-30.0516 162.346,-29.5787 164.361,-36.2823"/>
</g>
<!-- Node3 -->
<g id="node3" class="node"><title>Node3</title>
<g id="a_node3"><a xlink:href="../../dd/d08/classlsd__slam_1_1Frame.html#af73ccb75e1e449d9a8f2044246ee3530" target="_top" xlink:title="lsd_slam::Frame::getActiveLock">
<polygon fill="white" stroke="black" points="522,-113.5 522,-132.5 680,-132.5 680,-113.5 522,-113.5"/>
<text text-anchor="middle" x="601" y="-120.5" font-family="Helvetica,sans-Serif" font-size="10.00">lsd_slam::Frame::getActiveLock</text>
</a>
</g>
</g>
<!-- Node2&#45;&gt;Node3 -->
<g id="edge2" class="edge"><title>Node2&#45;&gt;Node3</title>
<path fill="none" stroke="midnightblue" d="M257.763,-128.194C278.077,-136.765 304.986,-146.613 330,-151 398.291,-162.977 417.169,-159.329 486,-151 510.977,-147.978 538.374,-141.359 560.05,-135.315"/>
<polygon fill="midnightblue" stroke="midnightblue" points="561.232,-138.618 569.885,-132.504 559.308,-131.887 561.232,-138.618"/>
</g>
<!-- Node6 -->
<g id="node6" class="node"><title>Node6</title>
<g id="a_node6"><a xlink:href="../../dd/d08/classlsd__slam_1_1Frame.html#a9306307027bbe62b973c0b138216b456" target="_top" xlink:title="lsd_slam::Frame::image">
<polygon fill="white" stroke="black" points="347,-122.5 347,-141.5 469,-141.5 469,-122.5 347,-122.5"/>
<text text-anchor="middle" x="408" y="-129.5" font-family="Helvetica,sans-Serif" font-size="10.00">lsd_slam::Frame::image</text>
</a>
</g>
</g>
<!-- Node2&#45;&gt;Node6 -->
<g id="edge5" class="edge"><title>Node2&#45;&gt;Node6</title>
<path fill="none" stroke="midnightblue" d="M277.642,-118.496C296.058,-120.418 317.04,-122.609 336.668,-124.658"/>
<polygon fill="midnightblue" stroke="midnightblue" points="336.478,-128.157 346.788,-125.714 337.205,-121.195 336.478,-128.157"/>
</g>
<!-- Node7 -->
<g id="node7" class="node"><title>Node7</title>
<g id="a_node7"><a xlink:href="../../dd/d08/classlsd__slam_1_1Frame.html#a0b26845d846249e909e6ab0adc022ebf" target="_top" xlink:title="lsd_slam::Frame::maxGradients">
<polygon fill="white" stroke="black" points="330,-84.5 330,-103.5 486,-103.5 486,-84.5 330,-84.5"/>
<text text-anchor="middle" x="408" y="-91.5" font-family="Helvetica,sans-Serif" font-size="10.00">lsd_slam::Frame::maxGradients</text>
</a>
</g>
</g>
<!-- Node2&#45;&gt;Node7 -->
<g id="edge6" class="edge"><title>Node2&#45;&gt;Node7</title>
<path fill="none" stroke="midnightblue" d="M277.642,-107.504C290.736,-106.137 305.127,-104.635 319.407,-103.144"/>
<polygon fill="midnightblue" stroke="midnightblue" points="320.182,-106.583 329.764,-102.063 319.455,-99.6204 320.182,-106.583"/>
</g>
<!-- Node8 -->
<g id="node8" class="node"><title>Node8</title>
<g id="a_node8"><a xlink:href="../../dd/d08/classlsd__slam_1_1Frame.html#aa869fc645781090678dc61399ef26f73" target="_top" xlink:title="lsd_slam::Frame::setDepth">
<polygon fill="white" stroke="black" points="340.5,-46.5 340.5,-65.5 475.5,-65.5 475.5,-46.5 340.5,-46.5"/>
<text text-anchor="middle" x="408" y="-53.5" font-family="Helvetica,sans-Serif" font-size="10.00">lsd_slam::Frame::setDepth</text>
</a>
</g>
</g>
<!-- Node2&#45;&gt;Node8 -->
<g id="edge7" class="edge"><title>Node2&#45;&gt;Node8</title>
<path fill="none" stroke="midnightblue" d="M266.628,-97.9067C295.585,-87.4122 329.159,-75.255 330,-75 338.05,-72.5577 346.643,-70.199 355.061,-68.023"/>
<polygon fill="midnightblue" stroke="midnightblue" points="355.982,-71.4005 364.82,-65.5586 354.268,-64.6135 355.982,-71.4005"/>
</g>
<!-- Node4 -->
<g id="node4" class="node"><title>Node4</title>
<g id="a_node4"><a xlink:href="../../d1/d95/classlsd__slam_1_1FrameMemory.html#adf4afed8c58a420b38e4b117628ac32d" target="_top" xlink:title="lsd_slam::FrameMemory\l::getInstance">
<polygon fill="white" stroke="black" points="716.5,-66 716.5,-96 841.5,-96 841.5,-66 716.5,-66"/>
<text text-anchor="start" x="724.5" y="-84" font-family="Helvetica,sans-Serif" font-size="10.00">lsd_slam::FrameMemory</text>
<text text-anchor="middle" x="779" y="-73" font-family="Helvetica,sans-Serif" font-size="10.00">::getInstance</text>
</a>
</g>
</g>
<!-- Node3&#45;&gt;Node4 -->
<g id="edge3" class="edge"><title>Node3&#45;&gt;Node4</title>
<path fill="none" stroke="midnightblue" d="M641.937,-113.47C661.022,-108.915 684.459,-103.322 706.469,-98.0699"/>
<polygon fill="midnightblue" stroke="midnightblue" points="707.547,-101.411 716.461,-95.6854 705.922,-94.6023 707.547,-101.411"/>
</g>
<!-- Node5 -->
<g id="node5" class="node"><title>Node5</title>
<g id="a_node5"><a xlink:href="../../d1/d95/classlsd__slam_1_1FrameMemory.html#a6835f2a14358dee3518d9f9bff8526e3" target="_top" xlink:title="lsd_slam::FrameMemory\l::activateFrame">
<polygon fill="white" stroke="black" points="716.5,-115 716.5,-145 841.5,-145 841.5,-115 716.5,-115"/>
<text text-anchor="start" x="724.5" y="-133" font-family="Helvetica,sans-Serif" font-size="10.00">lsd_slam::FrameMemory</text>
<text text-anchor="middle" x="779" y="-122" font-family="Helvetica,sans-Serif" font-size="10.00">::activateFrame</text>
</a>
</g>
</g>
<!-- Node3&#45;&gt;Node5 -->
<g id="edge4" class="edge"><title>Node3&#45;&gt;Node5</title>
<path fill="none" stroke="midnightblue" d="M680.221,-126.111C688.931,-126.457 697.771,-126.809 706.393,-127.152"/>
<polygon fill="midnightblue" stroke="midnightblue" points="706.262,-130.649 716.394,-127.55 706.541,-123.655 706.262,-130.649"/>
</g>
<!-- Node8&#45;&gt;Node3 -->
<g id="edge8" class="edge"><title>Node8&#45;&gt;Node3</title>
<path fill="none" stroke="midnightblue" d="M454.699,-65.5044C465.121,-68.1584 476.051,-71.3368 486,-75 502.787,-81.1807 505.633,-85.7808 522,-93 535.434,-98.9257 550.437,-104.855 563.668,-109.858"/>
<polygon fill="midnightblue" stroke="midnightblue" points="562.793,-113.268 573.386,-113.489 565.243,-106.71 562.793,-113.268"/>
</g>
<!-- Node8&#45;&gt;Node4 -->
<g id="edge9" class="edge"><title>Node8&#45;&gt;Node4</title>
<path fill="none" stroke="midnightblue" d="M475.823,-60.5273C540.914,-64.9373 639.544,-71.6195 706.262,-76.1397"/>
<polygon fill="midnightblue" stroke="midnightblue" points="706.062,-79.6341 716.276,-76.8181 706.535,-72.6501 706.062,-79.6341"/>
</g>
<!-- Node9 -->
<g id="node9" class="node"><title>Node9</title>
<g id="a_node9"><a xlink:href="../../d1/d95/classlsd__slam_1_1FrameMemory.html#a5a2a621821958fe136a2ddc9707a1f72" target="_top" xlink:title="lsd_slam::FrameMemory\l::getFloatBuffer">
<polygon fill="white" stroke="black" points="538.5,-19 538.5,-49 663.5,-49 663.5,-19 538.5,-19"/>
<text text-anchor="start" x="546.5" y="-37" font-family="Helvetica,sans-Serif" font-size="10.00">lsd_slam::FrameMemory</text>
<text text-anchor="middle" x="601" y="-26" font-family="Helvetica,sans-Serif" font-size="10.00">::getFloatBuffer</text>
</a>
</g>
</g>
<!-- Node8&#45;&gt;Node9 -->
<g id="edge10" class="edge"><title>Node8&#45;&gt;Node9</title>
<path fill="none" stroke="midnightblue" d="M475.534,-48.3364C492.544,-46.3771 510.908,-44.2619 528.17,-42.2736"/>
<polygon fill="midnightblue" stroke="midnightblue" points="528.654,-45.741 538.188,-41.1197 527.853,-38.787 528.654,-45.741"/>
</g>
<!-- Node10 -->
<g id="node10" class="node"><title>Node10</title>
<g id="a_node10"><a xlink:href="../../d1/d95/classlsd__slam_1_1FrameMemory.html#abd3eb8d2623e977f3da91416d66d01e3" target="_top" xlink:title="lsd_slam::FrameMemory\l::getBuffer">
<polygon fill="white" stroke="black" points="716.5,-17 716.5,-47 841.5,-47 841.5,-17 716.5,-17"/>
<text text-anchor="start" x="724.5" y="-35" font-family="Helvetica,sans-Serif" font-size="10.00">lsd_slam::FrameMemory</text>
<text text-anchor="middle" x="779" y="-24" font-family="Helvetica,sans-Serif" font-size="10.00">::getBuffer</text>
</a>
</g>
</g>
<!-- Node9&#45;&gt;Node10 -->
<g id="edge11" class="edge"><title>Node9&#45;&gt;Node10</title>
<path fill="none" stroke="midnightblue" d="M663.556,-33.3005C677.356,-33.1437 692.112,-32.976 706.284,-32.815"/>
<polygon fill="midnightblue" stroke="midnightblue" points="706.519,-36.3126 716.478,-32.6991 706.439,-29.3131 706.519,-36.3126"/>
</g>
</g>
</svg>
        <g id="navigator" transform="translate(0 0)" fill="#404254">
                <rect fill="#f2f5e9" fill-opacity="0.5" stroke="#606060" stroke-width=".5" x="0" y="0" width="60" height="60"/>
                <use id="zoomplus" xlink:href="#zoomPlus" x="17" y="9" onmousedown="handleZoom(evt,'in')"/>
                <use id="zoomminus" xlink:href="#zoomMin" x="42" y="9" onmousedown="handleZoom(evt,'out')"/>
                <use id="reset" xlink:href="#resetDef" x="30" y="36" onmousedown="handleReset()"/>
                <g id="arrowUp" xlink:href="#dirArrow" transform="translate(30 24)" onmousedown="handlePan(0,-1)">
                  <use xlink:href="#rim" fill="#404040">
                        <set attributeName="fill" to="#808080" begin="arrowUp.mouseover" end="arrowUp.mouseout"/>
                  </use>
                  <path fill="none" stroke="white" stroke-width="1.5" d="M0,-3.0v7 M-2.5,-0.5L0,-3.0L2.5,-0.5"/>
                </g>
                <g id="arrowRight" xlink:href="#dirArrow" transform="rotate(90) translate(36 -43)" onmousedown="handlePan(1,0)">
                  <use xlink:href="#rim" fill="#404040">
                        <set attributeName="fill" to="#808080" begin="arrowRight.mouseover" end="arrowRight.mouseout"/>
                  </use>
                  <path fill="none" stroke="white" stroke-width="1.5" d="M0,-3.0v7 M-2.5,-0.5L0,-3.0L2.5,-0.5"/>
                </g>
                <g id="arrowDown" xlink:href="#dirArrow" transform="rotate(180) translate(-30 -48)" onmousedown="handlePan(0,1)">
                  <use xlink:href="#rim" fill="#404040">
                        <set attributeName="fill" to="#808080" begin="arrowDown.mouseover" end="arrowDown.mouseout"/>
                  </use>
                  <path fill="none" stroke="white" stroke-width="1.5" d="M0,-3.0v7 M-2.5,-0.5L0,-3.0L2.5,-0.5"/>
                </g>
                <g id="arrowLeft" xlink:href="#dirArrow" transform="rotate(270) translate(-36 17)" onmousedown="handlePan(-1,0)">
                  <use xlink:href="#rim" fill="#404040">
                        <set attributeName="fill" to="#808080" begin="arrowLeft.mouseover" end="arrowLeft.mouseout"/>
                  </use>
                  <path fill="none" stroke="white" stroke-width="1.5" d="M0,-3.0v7 M-2.5,-0.5L0,-3.0L2.5,-0.5"/>
                </g>
        </g>
        <svg viewBox="0 0 15 15" width="100%" height="30px" preserveAspectRatio="xMaxYMin meet">
         <g id="arrow_out" transform="scale(0.3 0.3)">
          <a xlink:href="classlsd__slam_1_1SlamSystem_a04efedcb7753da51a13c5362b2f47f27_cgraph_org.svg" target="_base">
           <rect id="button" ry="5" rx="5" y="6" x="6" height="38" width="38"
                fill="#f2f5e9" fill-opacity="0.5" stroke="#606060" stroke-width="1.0"/>
           <path id="arrow"
             d="M 11.500037,31.436501 C 11.940474,20.09759 22.043105,11.32322 32.158766,21.979434 L 37.068811,17.246167 C 37.068811,17.246167 37.088388,32 37.088388,32 L 22.160133,31.978069 C 22.160133,31.978069 26.997745,27.140456 26.997745,27.140456 C 18.528582,18.264221 13.291696,25.230495 11.500037,31.436501 z"
             style="fill:#404040;"/>
          </a>
         </g>
        </svg>
</svg>
