<?xml version="1.0" encoding="UTF-8" standalone="no"?>
<!DOCTYPE svg PUBLIC "-//W3C//DTD SVG 1.1//EN"
 "http://www.w3.org/Graphics/SVG/1.1/DTD/svg11.dtd">
<!-- Generated by graphviz version 2.36.0 (20140111.2315)
 -->
<!-- Title: lsd_slam::SlamSystem::findConstraintsForNewKeyFrames Pages: 1 -->
<!--zoomable 742 -->
<svg id="main" version="1.1" xmlns="http://www.w3.org/2000/svg" xmlns:xlink="http://www.w3.org/1999/xlink" xml:space="preserve" onload="init(evt)">
<style type="text/css"><![CDATA[
.edge:hover path { stroke: red; }
.edge:hover polygon { stroke: red; fill: red; }
]]></style>
<script type="text/javascript"><![CDATA[
var edges = document.getElementsByTagName('g');
if (edges && edges.length) {
  for (var i=0;i<edges.length;i++) {
    if (edges[i].id.substr(0,4)=='edge') {
      edges[i].setAttribute('class','edge');
    }
  }
}
]]></script>
        <defs>
                <circle id="rim" cx="0" cy="0" r="7"/>
                <circle id="rim2" cx="0" cy="0" r="3.5"/>
                <g id="zoomPlus">
                        <use xlink:href="#rim" fill="#404040">
                                <set attributeName="fill" to="#808080" begin="zoomplus.mouseover" end="zoomplus.mouseout"/>
                        </use>
                        <path d="M-4,0h8M0,-4v8" fill="none" stroke="white" stroke-width="1.5" pointer-events="none"/>
                </g>
                <g id="zoomMin">
                        <use xlink:href="#rim" fill="#404040">
                                <set attributeName="fill" to="#808080" begin="zoomminus.mouseover" end="zoomminus.mouseout"/>
                        </use>
                        <path d="M-4,0h8" fill="none" stroke="white" stroke-width="1.5" pointer-events="none"/>
                </g>
                <g id="dirArrow">
                        <path fill="none" stroke="white" stroke-width="1.5" d="M0,-3.0v7 M-2.5,-0.5L0,-3.0L2.5,-0.5"/>
                </g>
               <g id="resetDef">
                       <use xlink:href="#rim2" fill="#404040">
                               <set attributeName="fill" to="#808080" begin="reset.mouseover" end="reset.mouseout"/>
                       </use>
               </g>
        </defs>

<script type="text/javascript">
var viewWidth = 758;
var viewHeight = 742;
var sectionId = 'dynsection-3';
</script>
<script xlink:href="../../svgpan.js"/>
<svg id="graph" class="graph">
<g id="viewport">
<title>lsd_slam::SlamSystem::findConstraintsForNewKeyFrames</title>
<polygon fill="white" stroke="none" points="-4,4 -4,-738 754,-738 754,4 -4,4"/>
<!-- Node1 -->
<g id="node1" class="node"><title>Node1</title>
<polygon fill="#bfbfbf" stroke="black" points="0.5,-350 0.5,-380 173.5,-380 173.5,-350 0.5,-350"/>
<text text-anchor="start" x="8.5" y="-368" font-family="Helvetica,sans-Serif" font-size="10.00">lsd_slam::SlamSystem</text>
<text text-anchor="middle" x="87" y="-357" font-family="Helvetica,sans-Serif" font-size="10.00">::findConstraintsForNewKeyFrames</text>
</g>
<!-- Node2 -->
<g id="node2" class="node"><title>Node2</title>
<g id="a_node2"><a xlink:href="../../dd/d08/classlsd__slam_1_1Frame.html#a013921be6869702deac98090a8c9033c" target="_top" xlink:title="lsd_slam::Frame::hasTracking\lParent">
<polygon fill="white" stroke="black" points="422.5,-704 422.5,-734 571.5,-734 571.5,-704 422.5,-704"/>
<text text-anchor="start" x="430.5" y="-722" font-family="Helvetica,sans-Serif" font-size="10.00">lsd_slam::Frame::hasTracking</text>
<text text-anchor="middle" x="497" y="-711" font-family="Helvetica,sans-Serif" font-size="10.00">Parent</text>
</a>
</g>
</g>
<!-- Node1&#45;&gt;Node2 -->
<g id="edge1" class="edge"><title>Node1&#45;&gt;Node2</title>
<path fill="none" stroke="midnightblue" d="M88.4881,-380.022C91.0769,-432.469 107.383,-608.554 210,-688 266.861,-732.022 350.233,-736.331 412.307,-731.674"/>
<polygon fill="midnightblue" stroke="midnightblue" points="412.797,-735.145 422.468,-730.818 412.209,-728.17 412.797,-735.145"/>
</g>
<!-- Node3 -->
<g id="node3" class="node"><title>Node3</title>
<g id="a_node3"><a xlink:href="../../df/d4c/classlsd__slam_1_1KeyFrameGraph.html#a3a8b7205a3f3e8702bf4c74abd7fccf5" target="_top" xlink:title="lsd_slam::KeyFrameGraph\l::addKeyFrame">
<polygon fill="white" stroke="black" points="229.5,-649 229.5,-679 362.5,-679 362.5,-649 229.5,-649"/>
<text text-anchor="start" x="237.5" y="-667" font-family="Helvetica,sans-Serif" font-size="10.00">lsd_slam::KeyFrameGraph</text>
<text text-anchor="middle" x="296" y="-656" font-family="Helvetica,sans-Serif" font-size="10.00">::addKeyFrame</text>
</a>
</g>
</g>
<!-- Node1&#45;&gt;Node3 -->
<g id="edge2" class="edge"><title>Node1&#45;&gt;Node3</title>
<path fill="none" stroke="midnightblue" d="M90.5916,-380.234C99.0853,-425.549 130.254,-560.87 210,-634 214.181,-637.834 218.882,-641.184 223.872,-644.11"/>
<polygon fill="midnightblue" stroke="midnightblue" points="222.632,-647.41 233.117,-648.931 225.869,-641.204 222.632,-647.41"/>
</g>
<!-- Node4 -->
<g id="node4" class="node"><title>Node4</title>
<g id="a_node4"><a xlink:href="../../dd/d08/classlsd__slam_1_1Frame.html#a6d38d40cd9a68d253bcb3cab2ddfa068" target="_top" xlink:title="lsd_slam::Frame::id">
<polygon fill="white" stroke="black" points="445.5,-616.5 445.5,-635.5 548.5,-635.5 548.5,-616.5 445.5,-616.5"/>
<text text-anchor="middle" x="497" y="-623.5" font-family="Helvetica,sans-Serif" font-size="10.00">lsd_slam::Frame::id</text>
</a>
</g>
</g>
<!-- Node1&#45;&gt;Node4 -->
<g id="edge12" class="edge"><title>Node1&#45;&gt;Node4</title>
<path fill="none" stroke="midnightblue" d="M92.8449,-380.015C105.579,-416.963 143.663,-512.714 210,-560 228.268,-573.021 356.728,-599.357 435.141,-614.529"/>
<polygon fill="midnightblue" stroke="midnightblue" points="434.904,-618.048 445.386,-616.503 436.229,-611.174 434.904,-618.048"/>
</g>
<!-- Node5 -->
<g id="node5" class="node"><title>Node5</title>
<g id="a_node5"><a xlink:href="../../dd/d08/classlsd__slam_1_1Frame.html#a0f4a92d51569c280e4b37acbf562ea47" target="_top" xlink:title="lsd_slam::Frame::getScaled\lCamToWorld">
<polygon fill="white" stroke="black" points="427.5,-655 427.5,-685 566.5,-685 566.5,-655 427.5,-655"/>
<text text-anchor="start" x="435.5" y="-673" font-family="Helvetica,sans-Serif" font-size="10.00">lsd_slam::Frame::getScaled</text>
<text text-anchor="middle" x="497" y="-662" font-family="Helvetica,sans-Serif" font-size="10.00">CamToWorld</text>
</a>
</g>
</g>
<!-- Node1&#45;&gt;Node5 -->
<g id="edge8" class="edge"><title>Node1&#45;&gt;Node5</title>
<path fill="none" stroke="midnightblue" d="M91.4835,-380.072C101.815,-421.284 136.278,-536.654 210,-595 271.96,-644.037 305.57,-619.945 382,-640 397.183,-643.984 413.501,-648.273 428.911,-652.328"/>
<polygon fill="midnightblue" stroke="midnightblue" points="428.325,-655.793 438.886,-654.953 430.106,-649.023 428.325,-655.793"/>
</g>
<!-- Node7 -->
<g id="node7" class="node"><title>Node7</title>
<g id="a_node7"><a xlink:href="../../d6/db5/classSophus_1_1Sim3GroupBase.html#a21debb906ffbeda23394fbddea8f3acd" target="_top" xlink:title="Sophus::Sim3GroupBase\l::inverse">
<polygon fill="white" stroke="black" points="617.5,-283 617.5,-313 744.5,-313 744.5,-283 617.5,-283"/>
<text text-anchor="start" x="625.5" y="-301" font-family="Helvetica,sans-Serif" font-size="10.00">Sophus::Sim3GroupBase</text>
<text text-anchor="middle" x="681" y="-290" font-family="Helvetica,sans-Serif" font-size="10.00">::inverse</text>
</a>
</g>
</g>
<!-- Node1&#45;&gt;Node7 -->
<g id="edge9" class="edge"><title>Node1&#45;&gt;Node7</title>
<path fill="none" stroke="midnightblue" d="M173.616,-358.913C247.087,-352.578 346.555,-341.027 382,-323 402.451,-312.599 396.863,-294.925 418,-286 482.691,-258.683 505.894,-281.969 576,-286 586.176,-286.585 596.884,-287.49 607.403,-288.546"/>
<polygon fill="midnightblue" stroke="midnightblue" points="607.095,-292.033 617.406,-289.599 607.828,-285.071 607.095,-292.033"/>
</g>
<!-- Node8 -->
<g id="node8" class="node"><title>Node8</title>
<g id="a_node8"><a xlink:href="../../d4/dc1/classlsd__slam_1_1TrackableKeyFrameSearch.html#a7b90c891f259e6791e904d053bc64429" target="_top" xlink:title="lsd_slam::TrackableKeyFrame\lSearch::findCandidates">
<polygon fill="white" stroke="black" points="221.5,-521 221.5,-551 370.5,-551 370.5,-521 221.5,-521"/>
<text text-anchor="start" x="229.5" y="-539" font-family="Helvetica,sans-Serif" font-size="10.00">lsd_slam::TrackableKeyFrame</text>
<text text-anchor="middle" x="296" y="-528" font-family="Helvetica,sans-Serif" font-size="10.00">Search::findCandidates</text>
</a>
</g>
</g>
<!-- Node1&#45;&gt;Node8 -->
<g id="edge10" class="edge"><title>Node1&#45;&gt;Node8</title>
<path fill="none" stroke="midnightblue" d="M96.6931,-380.046C114.315,-409.231 157.101,-473.754 210,-509 214.319,-511.877 218.963,-514.464 223.775,-516.787"/>
<polygon fill="midnightblue" stroke="midnightblue" points="222.629,-520.107 233.191,-520.936 225.451,-513.701 222.629,-520.107"/>
</g>
<!-- Node9 -->
<g id="node9" class="node"><title>Node9</title>
<g id="a_node9"><a xlink:href="../../df/d4c/classlsd__slam_1_1KeyFrameGraph.html#a01cb0488a64d79a500265d9096b6a014" target="_top" xlink:title="lsd_slam::KeyFrameGraph\l::calculateGraphDistancesToFrame">
<polygon fill="white" stroke="black" points="210.5,-284 210.5,-314 381.5,-314 381.5,-284 210.5,-284"/>
<text text-anchor="start" x="218.5" y="-302" font-family="Helvetica,sans-Serif" font-size="10.00">lsd_slam::KeyFrameGraph</text>
<text text-anchor="middle" x="296" y="-291" font-family="Helvetica,sans-Serif" font-size="10.00">::calculateGraphDistancesToFrame</text>
</a>
</g>
</g>
<!-- Node1&#45;&gt;Node9 -->
<g id="edge13" class="edge"><title>Node1&#45;&gt;Node9</title>
<path fill="none" stroke="midnightblue" d="M135.231,-349.941C165.725,-340.218 205.583,-327.51 237.86,-317.219"/>
<polygon fill="midnightblue" stroke="midnightblue" points="239.15,-320.481 247.614,-314.108 237.024,-313.812 239.15,-320.481"/>
</g>
<!-- Node10 -->
<g id="node10" class="node"><title>Node10</title>
<g id="a_node10"><a xlink:href="../../dd/d08/classlsd__slam_1_1Frame.html#ae337afb7e308ff6d9be3ffa354fc66d6" target="_top" xlink:title="lsd_slam::Frame::getTracking\lParent">
<polygon fill="white" stroke="black" points="223,-235 223,-265 369,-265 369,-235 223,-235"/>
<text text-anchor="start" x="231" y="-253" font-family="Helvetica,sans-Serif" font-size="10.00">lsd_slam::Frame::getTracking</text>
<text text-anchor="middle" x="296" y="-242" font-family="Helvetica,sans-Serif" font-size="10.00">Parent</text>
</a>
</g>
</g>
<!-- Node1&#45;&gt;Node10 -->
<g id="edge14" class="edge"><title>Node1&#45;&gt;Node10</title>
<path fill="none" stroke="midnightblue" d="M104.522,-349.823C126.882,-330.018 168.744,-295.482 210,-275 214.618,-272.708 219.483,-270.587 224.452,-268.632"/>
<polygon fill="midnightblue" stroke="midnightblue" points="225.926,-271.819 234.099,-265.076 223.505,-265.251 225.926,-271.819"/>
</g>
<!-- Node11 -->
<g id="node11" class="node"><title>Node11</title>
<g id="a_node11"><a xlink:href="../../d5/d43/classSophus_1_1SO3GroupBase.html#a7d224bfb20704608dc41e5a5f16ba9a4" target="_top" xlink:title="Group exponential. ">
<polygon fill="white" stroke="black" points="234,-175.5 234,-216.5 358,-216.5 358,-175.5 234,-175.5"/>
<text text-anchor="start" x="242" y="-204.5" font-family="Helvetica,sans-Serif" font-size="10.00">Sophus::SO3GroupBase</text>
<text text-anchor="start" x="242" y="-193.5" font-family="Helvetica,sans-Serif" font-size="10.00">&lt; SO3Group&lt; _Scalar,</text>
<text text-anchor="middle" x="296" y="-182.5" font-family="Helvetica,sans-Serif" font-size="10.00"> _Options &gt; &gt;::exp</text>
</a>
</g>
</g>
<!-- Node1&#45;&gt;Node11 -->
<g id="edge15" class="edge"><title>Node1&#45;&gt;Node11</title>
<path fill="none" stroke="midnightblue" d="M97.489,-349.759C115.846,-321.461 158.941,-260.548 210,-226 214.536,-222.931 219.421,-220.14 224.474,-217.609"/>
<polygon fill="midnightblue" stroke="midnightblue" points="226.11,-220.708 233.713,-213.329 223.168,-214.357 226.11,-220.708"/>
</g>
<!-- Node12 -->
<g id="node12" class="node"><title>Node12</title>
<g id="a_node12"><a xlink:href="../../dc/dca/namespacelsd__slam.html#a6ab8d718a8bf6c1c85541b8948bd5248" target="_top" xlink:title="lsd_slam::se3FromSim3">
<polygon fill="white" stroke="black" points="235,-137.5 235,-156.5 357,-156.5 357,-137.5 235,-137.5"/>
<text text-anchor="middle" x="296" y="-144.5" font-family="Helvetica,sans-Serif" font-size="10.00">lsd_slam::se3FromSim3</text>
</a>
</g>
</g>
<!-- Node1&#45;&gt;Node12 -->
<g id="edge16" class="edge"><title>Node1&#45;&gt;Node12</title>
<path fill="none" stroke="midnightblue" d="M92.6388,-349.929C105.018,-312.371 142.57,-214.177 210,-166 214.614,-162.704 219.7,-159.965 225.021,-157.692"/>
<polygon fill="midnightblue" stroke="midnightblue" points="226.631,-160.829 234.801,-154.083 224.207,-154.262 226.631,-160.829"/>
</g>
<!-- Node15 -->
<g id="node15" class="node"><title>Node15</title>
<g id="a_node15"><a xlink:href="../../d0/d8c/classSophus_1_1SE3GroupBase.html#a1b47e7c7329fecdc289f95094248ccfe" target="_top" xlink:title="Sophus::SE3GroupBase\l::inverse">
<polygon fill="white" stroke="black" points="234.5,-88 234.5,-118 357.5,-118 357.5,-88 234.5,-88"/>
<text text-anchor="start" x="242.5" y="-106" font-family="Helvetica,sans-Serif" font-size="10.00">Sophus::SE3GroupBase</text>
<text text-anchor="middle" x="296" y="-95" font-family="Helvetica,sans-Serif" font-size="10.00">::inverse</text>
</a>
</g>
</g>
<!-- Node1&#45;&gt;Node15 -->
<g id="edge19" class="edge"><title>Node1&#45;&gt;Node15</title>
<path fill="none" stroke="midnightblue" d="M91.3606,-349.899C101.474,-308.022 135.628,-189.473 210,-128 214.557,-124.233 219.662,-121.034 225.048,-118.317"/>
<polygon fill="midnightblue" stroke="midnightblue" points="226.617,-121.449 234.329,-114.184 223.77,-115.054 226.617,-121.449"/>
</g>
<!-- Node16 -->
<g id="node16" class="node"><title>Node16</title>
<g id="a_node16"><a xlink:href="../../dd/d3d/classSophus_1_1SE3Group.html#a7c397c3a78893feeba4ec2034943b522" target="_top" xlink:title="Accessor of SO3. ">
<polygon fill="white" stroke="black" points="235,-49.5 235,-68.5 357,-68.5 357,-49.5 235,-49.5"/>
<text text-anchor="middle" x="296" y="-56.5" font-family="Helvetica,sans-Serif" font-size="10.00">Sophus::SE3Group::so3</text>
</a>
</g>
</g>
<!-- Node1&#45;&gt;Node16 -->
<g id="edge20" class="edge"><title>Node1&#45;&gt;Node16</title>
<path fill="none" stroke="midnightblue" d="M89.6691,-349.674C95.7721,-301.474 121.382,-151.795 210,-78 214.615,-74.1567 219.844,-71.0487 225.386,-68.5402"/>
<polygon fill="midnightblue" stroke="midnightblue" points="226.877,-71.717 234.954,-64.8608 224.364,-65.1835 226.877,-71.717"/>
</g>
<!-- Node17 -->
<g id="node17" class="node"><title>Node17</title>
<g id="a_node17"><a xlink:href="../../de/d8b/classlsd__slam_1_1SE3Tracker.html#a01873383b027fb673d8bada325412d8e" target="_top" xlink:title="lsd_slam::SE3Tracker\l::trackFrameOnPermaref">
<polygon fill="white" stroke="black" points="233.5,-470 233.5,-500 358.5,-500 358.5,-470 233.5,-470"/>
<text text-anchor="start" x="241.5" y="-488" font-family="Helvetica,sans-Serif" font-size="10.00">lsd_slam::SE3Tracker</text>
<text text-anchor="middle" x="296" y="-477" font-family="Helvetica,sans-Serif" font-size="10.00">::trackFrameOnPermaref</text>
</a>
</g>
</g>
<!-- Node1&#45;&gt;Node17 -->
<g id="edge21" class="edge"><title>Node1&#45;&gt;Node17</title>
<path fill="none" stroke="midnightblue" d="M103.234,-380.011C125.108,-400.785 167.481,-438.196 210,-460 214.504,-462.31 219.254,-464.439 224.114,-466.395"/>
<polygon fill="midnightblue" stroke="midnightblue" points="222.964,-469.702 233.556,-469.947 225.429,-463.15 222.964,-469.702"/>
</g>
<!-- Node25 -->
<g id="node25" class="node"><title>Node25</title>
<g id="a_node25"><a xlink:href="../../d5/d8e/classlsd__slam_1_1TrackingReference.html#a73119563af9f3bde976a5a9e4e988b2b" target="_top" xlink:title="lsd_slam::TrackingReference\l::importFrame">
<polygon fill="white" stroke="black" points="224,-421 224,-451 368,-451 368,-421 224,-421"/>
<text text-anchor="start" x="232" y="-439" font-family="Helvetica,sans-Serif" font-size="10.00">lsd_slam::TrackingReference</text>
<text text-anchor="middle" x="296" y="-428" font-family="Helvetica,sans-Serif" font-size="10.00">::importFrame</text>
</a>
</g>
</g>
<!-- Node1&#45;&gt;Node25 -->
<g id="edge29" class="edge"><title>Node1&#45;&gt;Node25</title>
<path fill="none" stroke="midnightblue" d="M125.658,-380.029C149.64,-389.393 181.454,-401.435 210,-411 216.919,-413.318 224.192,-415.636 231.451,-417.873"/>
<polygon fill="midnightblue" stroke="midnightblue" points="230.72,-421.309 241.306,-420.867 232.755,-414.611 230.72,-421.309"/>
</g>
<!-- Node27 -->
<g id="node27" class="node"><title>Node27</title>
<g id="a_node27"><a xlink:href="../../df/d4c/classlsd__slam_1_1KeyFrameGraph.html#a0e4cf71471fcea9fc3aa5fab8c3aa2a3" target="_top" xlink:title="lsd_slam::KeyFrameGraph\l::insertConstraint">
<polygon fill="white" stroke="black" points="229.5,-372 229.5,-402 362.5,-402 362.5,-372 229.5,-372"/>
<text text-anchor="start" x="237.5" y="-390" font-family="Helvetica,sans-Serif" font-size="10.00">lsd_slam::KeyFrameGraph</text>
<text text-anchor="middle" x="296" y="-379" font-family="Helvetica,sans-Serif" font-size="10.00">::insertConstraint</text>
</a>
</g>
</g>
<!-- Node1&#45;&gt;Node27 -->
<g id="edge35" class="edge"><title>Node1&#45;&gt;Node27</title>
<path fill="none" stroke="midnightblue" d="M173.689,-374.107C188.781,-375.711 204.394,-377.37 219.191,-378.943"/>
<polygon fill="midnightblue" stroke="midnightblue" points="218.975,-382.44 229.289,-380.016 219.715,-375.479 218.975,-382.44"/>
</g>
<!-- Node29 -->
<g id="node29" class="node"><title>Node29</title>
<g id="a_node29"><a xlink:href="../../d5/d8e/classlsd__slam_1_1TrackingReference.html#a6e68faee69299c4bd7bc820a71db3719" target="_top" xlink:title="lsd_slam::TrackingReference\l::invalidate">
<polygon fill="white" stroke="black" points="224,-0 224,-30 368,-30 368,-0 224,-0"/>
<text text-anchor="start" x="232" y="-18" font-family="Helvetica,sans-Serif" font-size="10.00">lsd_slam::TrackingReference</text>
<text text-anchor="middle" x="296" y="-7" font-family="Helvetica,sans-Serif" font-size="10.00">::invalidate</text>
</a>
</g>
</g>
<!-- Node1&#45;&gt;Node29 -->
<g id="edge38" class="edge"><title>Node1&#45;&gt;Node29</title>
<path fill="none" stroke="midnightblue" d="M89.0514,-349.81C93.4484,-298.279 114.87,-128.422 210,-40 211.694,-38.4259 213.481,-36.9504 215.346,-35.5675"/>
<polygon fill="midnightblue" stroke="midnightblue" points="217.412,-38.4017 223.966,-30.0774 213.651,-32.4976 217.412,-38.4017"/>
</g>
<!-- Node3&#45;&gt;Node2 -->
<g id="edge7" class="edge"><title>Node3&#45;&gt;Node2</title>
<path fill="none" stroke="midnightblue" d="M351.378,-679.029C376.276,-685.91 405.957,-694.114 431.932,-701.293"/>
<polygon fill="midnightblue" stroke="midnightblue" points="431.117,-704.699 441.688,-703.989 432.982,-697.952 431.117,-704.699"/>
</g>
<!-- Node3&#45;&gt;Node4 -->
<g id="edge3" class="edge"><title>Node3&#45;&gt;Node4</title>
<path fill="none" stroke="midnightblue" d="M362.712,-651.452C386.38,-646.932 412.943,-641.86 436.09,-637.44"/>
<polygon fill="midnightblue" stroke="midnightblue" points="436.955,-640.838 446.121,-635.525 435.642,-633.962 436.955,-640.838"/>
</g>
<!-- Node3&#45;&gt;Node5 -->
<g id="edge4" class="edge"><title>Node3&#45;&gt;Node5</title>
<path fill="none" stroke="midnightblue" d="M362.712,-665.981C380.111,-666.506 399.075,-667.078 417.096,-667.621"/>
<polygon fill="midnightblue" stroke="midnightblue" points="417.185,-671.125 427.286,-667.928 417.396,-664.128 417.185,-671.125"/>
</g>
<!-- Node6 -->
<g id="node6" class="node"><title>Node6</title>
<g id="a_node6"><a xlink:href="../../d9/d9e/classlsd__slam_1_1FramePoseStruct.html#ae2e711db13b9732374fd5e04f960f914" target="_top" xlink:title="lsd_slam::FramePoseStruct\l::getCamToWorld">
<polygon fill="white" stroke="black" points="612,-655 612,-685 750,-685 750,-655 612,-655"/>
<text text-anchor="start" x="620" y="-673" font-family="Helvetica,sans-Serif" font-size="10.00">lsd_slam::FramePoseStruct</text>
<text text-anchor="middle" x="681" y="-662" font-family="Helvetica,sans-Serif" font-size="10.00">::getCamToWorld</text>
</a>
</g>
</g>
<!-- Node5&#45;&gt;Node6 -->
<g id="edge5" class="edge"><title>Node5&#45;&gt;Node6</title>
<path fill="none" stroke="midnightblue" d="M566.547,-670C578.004,-670 589.966,-670 601.646,-670"/>
<polygon fill="midnightblue" stroke="midnightblue" points="601.817,-673.5 611.817,-670 601.817,-666.5 601.817,-673.5"/>
</g>
<!-- Node6&#45;&gt;Node6 -->
<g id="edge6" class="edge"><title>Node6&#45;&gt;Node6</title>
<path fill="none" stroke="midnightblue" d="M648.656,-685.275C641.469,-694.406 652.25,-703 681,-703 698.07,-703 708.806,-699.97 713.207,-695.598"/>
<polygon fill="midnightblue" stroke="midnightblue" points="716.711,-695.321 713.344,-685.275 709.711,-695.228 716.711,-695.321"/>
</g>
<!-- Node8&#45;&gt;Node4 -->
<g id="edge11" class="edge"><title>Node8&#45;&gt;Node4</title>
<path fill="none" stroke="midnightblue" d="M350.576,-551.131C361.444,-555.392 372.456,-560.644 382,-567 401.633,-580.076 397.746,-593.909 418,-606 423.435,-609.245 429.388,-611.967 435.506,-614.251"/>
<polygon fill="midnightblue" stroke="midnightblue" points="434.609,-617.642 445.203,-617.49 436.827,-611.002 434.609,-617.642"/>
</g>
<!-- Node13 -->
<g id="node13" class="node"><title>Node13</title>
<g id="a_node13"><a xlink:href="../../d6/db5/classSophus_1_1Sim3GroupBase.html#a3629f9f036df49823d478e3692d23e82" target="_top" xlink:title="Mutator of quaternion. ">
<polygon fill="white" stroke="black" points="433.5,-108 433.5,-138 560.5,-138 560.5,-108 433.5,-108"/>
<text text-anchor="start" x="441.5" y="-126" font-family="Helvetica,sans-Serif" font-size="10.00">Sophus::Sim3GroupBase</text>
<text text-anchor="middle" x="497" y="-115" font-family="Helvetica,sans-Serif" font-size="10.00">::quaternion</text>
</a>
</g>
</g>
<!-- Node12&#45;&gt;Node13 -->
<g id="edge17" class="edge"><title>Node12&#45;&gt;Node13</title>
<path fill="none" stroke="midnightblue" d="M357.247,-139.734C377.985,-137.233 401.434,-134.405 423.073,-131.795"/>
<polygon fill="midnightblue" stroke="midnightblue" points="423.691,-135.246 433.2,-130.574 422.852,-128.297 423.691,-135.246"/>
</g>
<!-- Node14 -->
<g id="node14" class="node"><title>Node14</title>
<g id="a_node14"><a xlink:href="../../de/d0b/classSophus_1_1Sim3Group.html#ace8b98b369832930e647675b8c005d64" target="_top" xlink:title="Mutator of translation vector. ">
<polygon fill="white" stroke="black" points="442,-157 442,-187 552,-187 552,-157 442,-157"/>
<text text-anchor="start" x="450" y="-175" font-family="Helvetica,sans-Serif" font-size="10.00">Sophus::Sim3Group::</text>
<text text-anchor="middle" x="497" y="-164" font-family="Helvetica,sans-Serif" font-size="10.00">translation</text>
</a>
</g>
</g>
<!-- Node12&#45;&gt;Node14 -->
<g id="edge18" class="edge"><title>Node12&#45;&gt;Node14</title>
<path fill="none" stroke="midnightblue" d="M357.247,-154.569C380.769,-157.524 407.778,-160.917 431.678,-163.919"/>
<polygon fill="midnightblue" stroke="midnightblue" points="431.353,-167.406 441.712,-165.18 432.226,-160.461 431.353,-167.406"/>
</g>
<!-- Node18 -->
<g id="node18" class="node"><title>Node18</title>
<g id="a_node18"><a xlink:href="../../d0/d8c/classSophus_1_1SE3GroupBase.html#abb7b5dbc57317547710d3c6fb6fd8484" target="_top" xlink:title="Sophus::SE3GroupBase\l::cast">
<polygon fill="white" stroke="black" points="435.5,-567 435.5,-597 558.5,-597 558.5,-567 435.5,-567"/>
<text text-anchor="start" x="443.5" y="-585" font-family="Helvetica,sans-Serif" font-size="10.00">Sophus::SE3GroupBase</text>
<text text-anchor="middle" x="497" y="-574" font-family="Helvetica,sans-Serif" font-size="10.00">::cast</text>
</a>
</g>
</g>
<!-- Node17&#45;&gt;Node18 -->
<g id="edge22" class="edge"><title>Node17&#45;&gt;Node18</title>
<path fill="none" stroke="midnightblue" d="M358.933,-499.88C367.053,-503.183 374.98,-507.179 382,-512 403.113,-526.5 396.906,-542.472 418,-557 420.899,-558.996 423.966,-560.84 427.142,-562.543"/>
<polygon fill="midnightblue" stroke="midnightblue" points="425.804,-565.783 436.331,-566.975 428.845,-559.478 425.804,-565.783"/>
</g>
<!-- Node19 -->
<g id="node19" class="node"><title>Node19</title>
<g id="a_node19"><a xlink:href="../../dd/d08/classlsd__slam_1_1Frame.html#af73ccb75e1e449d9a8f2044246ee3530" target="_top" xlink:title="lsd_slam::Frame::getActiveLock">
<polygon fill="white" stroke="black" points="418,-393.5 418,-412.5 576,-412.5 576,-393.5 418,-393.5"/>
<text text-anchor="middle" x="497" y="-400.5" font-family="Helvetica,sans-Serif" font-size="10.00">lsd_slam::Frame::getActiveLock</text>
</a>
</g>
</g>
<!-- Node17&#45;&gt;Node19 -->
<g id="edge23" class="edge"><title>Node17&#45;&gt;Node19</title>
<path fill="none" stroke="midnightblue" d="M358.571,-471.134C366.745,-468.089 374.784,-464.416 382,-460 401.843,-447.855 397.877,-433.674 418,-422 421.73,-419.836 425.697,-417.918 429.79,-416.218"/>
<polygon fill="midnightblue" stroke="midnightblue" points="431.345,-419.375 439.517,-412.632 428.923,-412.807 431.345,-419.375"/>
</g>
<!-- Node22 -->
<g id="node22" class="node"><title>Node22</title>
<g id="a_node22"><a xlink:href="../../d0/d8c/classSophus_1_1SE3GroupBase.html#ad9e943a9cb045a10374675f29a1d41e5" target="_top" xlink:title="Group exponential. ">
<polygon fill="white" stroke="black" points="435.5,-507.5 435.5,-548.5 558.5,-548.5 558.5,-507.5 435.5,-507.5"/>
<text text-anchor="start" x="443.5" y="-536.5" font-family="Helvetica,sans-Serif" font-size="10.00">Sophus::SE3GroupBase</text>
<text text-anchor="start" x="443.5" y="-525.5" font-family="Helvetica,sans-Serif" font-size="10.00">&lt; SE3Group&lt; _Scalar,</text>
<text text-anchor="middle" x="497" y="-514.5" font-family="Helvetica,sans-Serif" font-size="10.00"> _Options &gt; &gt;::exp</text>
</a>
</g>
</g>
<!-- Node17&#45;&gt;Node22 -->
<g id="edge26" class="edge"><title>Node17&#45;&gt;Node22</title>
<path fill="none" stroke="midnightblue" d="M358.602,-498.311C379.786,-502.888 403.664,-508.048 425.5,-512.766"/>
<polygon fill="midnightblue" stroke="midnightblue" points="424.858,-516.208 435.372,-514.899 426.337,-509.366 424.858,-516.208"/>
</g>
<!-- Node23 -->
<g id="node23" class="node"><title>Node23</title>
<g id="a_node23"><a xlink:href="../../dd/d08/classlsd__slam_1_1Frame.html#a3f14a1c43b6cb21d31274f880b0bf36b" target="_top" xlink:title="lsd_slam::Frame::width">
<polygon fill="white" stroke="black" points="437.5,-469.5 437.5,-488.5 556.5,-488.5 556.5,-469.5 437.5,-469.5"/>
<text text-anchor="middle" x="497" y="-476.5" font-family="Helvetica,sans-Serif" font-size="10.00">lsd_slam::Frame::width</text>
</a>
</g>
</g>
<!-- Node17&#45;&gt;Node23 -->
<g id="edge27" class="edge"><title>Node17&#45;&gt;Node23</title>
<path fill="none" stroke="midnightblue" d="M358.602,-483.143C380.38,-482.486 405.005,-481.744 427.332,-481.07"/>
<polygon fill="midnightblue" stroke="midnightblue" points="427.52,-484.566 437.41,-480.767 427.309,-477.57 427.52,-484.566"/>
</g>
<!-- Node24 -->
<g id="node24" class="node"><title>Node24</title>
<g id="a_node24"><a xlink:href="../../dd/d08/classlsd__slam_1_1Frame.html#a014d19bf6ffba0f0c0b8b684f9afb0b0" target="_top" xlink:title="lsd_slam::Frame::height">
<polygon fill="white" stroke="black" points="436,-431.5 436,-450.5 558,-450.5 558,-431.5 436,-431.5"/>
<text text-anchor="middle" x="497" y="-438.5" font-family="Helvetica,sans-Serif" font-size="10.00">lsd_slam::Frame::height</text>
</a>
</g>
</g>
<!-- Node17&#45;&gt;Node24 -->
<g id="edge28" class="edge"><title>Node17&#45;&gt;Node24</title>
<path fill="none" stroke="midnightblue" d="M358.602,-471.379C385.609,-465.408 416.995,-458.468 442.947,-452.73"/>
<polygon fill="midnightblue" stroke="midnightblue" points="443.963,-456.09 452.971,-450.514 442.451,-449.255 443.963,-456.09"/>
</g>
<!-- Node20 -->
<g id="node20" class="node"><title>Node20</title>
<g id="a_node20"><a xlink:href="../../d1/d95/classlsd__slam_1_1FrameMemory.html#adf4afed8c58a420b38e4b117628ac32d" target="_top" xlink:title="lsd_slam::FrameMemory\l::getInstance">
<polygon fill="white" stroke="black" points="618.5,-351 618.5,-381 743.5,-381 743.5,-351 618.5,-351"/>
<text text-anchor="start" x="626.5" y="-369" font-family="Helvetica,sans-Serif" font-size="10.00">lsd_slam::FrameMemory</text>
<text text-anchor="middle" x="681" y="-358" font-family="Helvetica,sans-Serif" font-size="10.00">::getInstance</text>
</a>
</g>
</g>
<!-- Node19&#45;&gt;Node20 -->
<g id="edge24" class="edge"><title>Node19&#45;&gt;Node20</title>
<path fill="none" stroke="midnightblue" d="M544.87,-393.472C564.145,-389.553 586.907,-384.926 608.199,-380.597"/>
<polygon fill="midnightblue" stroke="midnightblue" points="609.082,-383.989 618.185,-378.567 607.688,-377.129 609.082,-383.989"/>
</g>
<!-- Node21 -->
<g id="node21" class="node"><title>Node21</title>
<g id="a_node21"><a xlink:href="../../d1/d95/classlsd__slam_1_1FrameMemory.html#a6835f2a14358dee3518d9f9bff8526e3" target="_top" xlink:title="lsd_slam::FrameMemory\l::activateFrame">
<polygon fill="white" stroke="black" points="618.5,-400 618.5,-430 743.5,-430 743.5,-400 618.5,-400"/>
<text text-anchor="start" x="626.5" y="-418" font-family="Helvetica,sans-Serif" font-size="10.00">lsd_slam::FrameMemory</text>
<text text-anchor="middle" x="681" y="-407" font-family="Helvetica,sans-Serif" font-size="10.00">::activateFrame</text>
</a>
</g>
</g>
<!-- Node19&#45;&gt;Node21 -->
<g id="edge25" class="edge"><title>Node19&#45;&gt;Node21</title>
<path fill="none" stroke="midnightblue" d="M576.241,-408.159C586.79,-408.854 597.573,-409.565 608.008,-410.253"/>
<polygon fill="midnightblue" stroke="midnightblue" points="608.095,-413.767 618.304,-410.932 608.556,-406.782 608.095,-413.767"/>
</g>
<!-- Node25&#45;&gt;Node4 -->
<g id="edge31" class="edge"><title>Node25&#45;&gt;Node4</title>
<path fill="none" stroke="midnightblue" d="M368.14,-450.33C373.24,-453.261 377.956,-456.78 382,-461 427.94,-508.944 371.227,-558.868 418,-606 422.962,-611 428.993,-614.807 435.479,-617.696"/>
<polygon fill="midnightblue" stroke="midnightblue" points="434.644,-621.119 445.237,-621.305 437.072,-614.553 434.644,-621.119"/>
</g>
<!-- Node25&#45;&gt;Node19 -->
<g id="edge30" class="edge"><title>Node25&#45;&gt;Node19</title>
<path fill="none" stroke="midnightblue" d="M368.001,-424.226C387.677,-420.963 408.976,-417.431 428.449,-414.202"/>
<polygon fill="midnightblue" stroke="midnightblue" points="429.155,-417.633 438.448,-412.544 428.01,-410.727 429.155,-417.633"/>
</g>
<!-- Node25&#45;&gt;Node23 -->
<g id="edge32" class="edge"><title>Node25&#45;&gt;Node23</title>
<path fill="none" stroke="midnightblue" d="M366.601,-451.039C391.302,-456.377 418.713,-462.3 441.925,-467.316"/>
<polygon fill="midnightblue" stroke="midnightblue" points="441.418,-470.787 451.932,-469.478 442.897,-463.945 441.418,-470.787"/>
</g>
<!-- Node25&#45;&gt;Node24 -->
<g id="edge33" class="edge"><title>Node25&#45;&gt;Node24</title>
<path fill="none" stroke="midnightblue" d="M368.001,-437.784C386.743,-438.255 406.958,-438.763 425.664,-439.233"/>
<polygon fill="midnightblue" stroke="midnightblue" points="425.798,-442.737 435.883,-439.49 425.974,-435.739 425.798,-442.737"/>
</g>
<!-- Node26 -->
<g id="node26" class="node"><title>Node26</title>
<g id="a_node26"><a xlink:href="../../d5/d8e/classlsd__slam_1_1TrackingReference.html#a60a7eea36764253fe87d0b451c07dbb9" target="_top" xlink:title="lsd_slam::TrackingReference\l::clearAll">
<polygon fill="white" stroke="black" points="425,-344 425,-374 569,-374 569,-344 425,-344"/>
<text text-anchor="start" x="433" y="-362" font-family="Helvetica,sans-Serif" font-size="10.00">lsd_slam::TrackingReference</text>
<text text-anchor="middle" x="497" y="-351" font-family="Helvetica,sans-Serif" font-size="10.00">::clearAll</text>
</a>
</g>
</g>
<!-- Node25&#45;&gt;Node26 -->
<g id="edge34" class="edge"><title>Node25&#45;&gt;Node26</title>
<path fill="none" stroke="midnightblue" d="M357.929,-420.979C366.201,-418.109 374.437,-414.792 382,-411 399.878,-402.036 400.231,-393.179 418,-384 422.276,-381.791 426.784,-379.729 431.389,-377.814"/>
<polygon fill="midnightblue" stroke="midnightblue" points="432.89,-380.986 440.933,-374.09 430.345,-374.465 432.89,-380.986"/>
</g>
<!-- Node28 -->
<g id="node28" class="node"><title>Node28</title>
<g id="a_node28"><a xlink:href="../../d3/db7/classlsd__slam_1_1EdgeSim3.html#a7acac082215def62ac785981774e219a" target="_top" xlink:title="lsd_slam::EdgeSim3\l::setMeasurement">
<polygon fill="white" stroke="black" points="443.5,-295 443.5,-325 550.5,-325 550.5,-295 443.5,-295"/>
<text text-anchor="start" x="451.5" y="-313" font-family="Helvetica,sans-Serif" font-size="10.00">lsd_slam::EdgeSim3</text>
<text text-anchor="middle" x="497" y="-302" font-family="Helvetica,sans-Serif" font-size="10.00">::setMeasurement</text>
</a>
</g>
</g>
<!-- Node27&#45;&gt;Node28 -->
<g id="edge36" class="edge"><title>Node27&#45;&gt;Node28</title>
<path fill="none" stroke="midnightblue" d="M345.363,-371.9C357.526,-367.57 370.412,-362.511 382,-357 398.934,-348.947 400.951,-342.806 418,-335 423.01,-332.706 428.291,-330.534 433.645,-328.499"/>
<polygon fill="midnightblue" stroke="midnightblue" points="435.114,-331.689 443.32,-324.988 432.726,-325.109 435.114,-331.689"/>
</g>
<!-- Node28&#45;&gt;Node7 -->
<g id="edge37" class="edge"><title>Node28&#45;&gt;Node7</title>
<path fill="none" stroke="midnightblue" d="M550.642,-306.529C568.351,-305.361 588.432,-304.037 607.4,-302.787"/>
<polygon fill="midnightblue" stroke="midnightblue" points="607.751,-306.271 617.499,-302.121 607.291,-299.287 607.751,-306.271"/>
</g>
</g>
</svg>
        <g id="navigator" transform="translate(0 0)" fill="#404254">
                <rect fill="#f2f5e9" fill-opacity="0.5" stroke="#606060" stroke-width=".5" x="0" y="0" width="60" height="60"/>
                <use id="zoomplus" xlink:href="#zoomPlus" x="17" y="9" onmousedown="handleZoom(evt,'in')"/>
                <use id="zoomminus" xlink:href="#zoomMin" x="42" y="9" onmousedown="handleZoom(evt,'out')"/>
                <use id="reset" xlink:href="#resetDef" x="30" y="36" onmousedown="handleReset()"/>
                <g id="arrowUp" xlink:href="#dirArrow" transform="translate(30 24)" onmousedown="handlePan(0,-1)">
                  <use xlink:href="#rim" fill="#404040">
                        <set attributeName="fill" to="#808080" begin="arrowUp.mouseover" end="arrowUp.mouseout"/>
                  </use>
                  <path fill="none" stroke="white" stroke-width="1.5" d="M0,-3.0v7 M-2.5,-0.5L0,-3.0L2.5,-0.5"/>
                </g>
                <g id="arrowRight" xlink:href="#dirArrow" transform="rotate(90) translate(36 -43)" onmousedown="handlePan(1,0)">
                  <use xlink:href="#rim" fill="#404040">
                        <set attributeName="fill" to="#808080" begin="arrowRight.mouseover" end="arrowRight.mouseout"/>
                  </use>
                  <path fill="none" stroke="white" stroke-width="1.5" d="M0,-3.0v7 M-2.5,-0.5L0,-3.0L2.5,-0.5"/>
                </g>
                <g id="arrowDown" xlink:href="#dirArrow" transform="rotate(180) translate(-30 -48)" onmousedown="handlePan(0,1)">
                  <use xlink:href="#rim" fill="#404040">
                        <set attributeName="fill" to="#808080" begin="arrowDown.mouseover" end="arrowDown.mouseout"/>
                  </use>
                  <path fill="none" stroke="white" stroke-width="1.5" d="M0,-3.0v7 M-2.5,-0.5L0,-3.0L2.5,-0.5"/>
                </g>
                <g id="arrowLeft" xlink:href="#dirArrow" transform="rotate(270) translate(-36 17)" onmousedown="handlePan(-1,0)">
                  <use xlink:href="#rim" fill="#404040">
                        <set attributeName="fill" to="#808080" begin="arrowLeft.mouseover" end="arrowLeft.mouseout"/>
                  </use>
                  <path fill="none" stroke="white" stroke-width="1.5" d="M0,-3.0v7 M-2.5,-0.5L0,-3.0L2.5,-0.5"/>
                </g>
        </g>
        <svg viewBox="0 0 15 15" width="100%" height="30px" preserveAspectRatio="xMaxYMin meet">
         <g id="arrow_out" transform="scale(0.3 0.3)">
          <a xlink:href="classlsd__slam_1_1SlamSystem_a8febc788522b3335f7188166d68a31fc_cgraph_org.svg" target="_base">
           <rect id="button" ry="5" rx="5" y="6" x="6" height="38" width="38"
                fill="#f2f5e9" fill-opacity="0.5" stroke="#606060" stroke-width="1.0"/>
           <path id="arrow"
             d="M 11.500037,31.436501 C 11.940474,20.09759 22.043105,11.32322 32.158766,21.979434 L 37.068811,17.246167 C 37.068811,17.246167 37.088388,32 37.088388,32 L 22.160133,31.978069 C 22.160133,31.978069 26.997745,27.140456 26.997745,27.140456 C 18.528582,18.264221 13.291696,25.230495 11.500037,31.436501 z"
             style="fill:#404040;"/>
          </a>
         </g>
        </svg>
</svg>
