<?xml version="1.0" encoding="UTF-8" standalone="no"?>
<!DOCTYPE svg PUBLIC "-//W3C//DTD SVG 1.1//EN"
 "http://www.w3.org/Graphics/SVG/1.1/DTD/svg11.dtd">
<!-- Generated by graphviz version 2.36.0 (20140111.2315)
 -->
<!-- Title: src/IOWrapper/ROS/ROSImageStreamThread.h Pages: 1 -->
<svg width="321pt" height="108pt"
 viewBox="0.00 0.00 321.00 108.00" xmlns="http://www.w3.org/2000/svg" xmlns:xlink="http://www.w3.org/1999/xlink">
<g id="graph0" class="graph" transform="scale(1 1) rotate(0) translate(4 104)">
<title>src/IOWrapper/ROS/ROSImageStreamThread.h</title>
<polygon fill="white" stroke="none" points="-4,4 -4,-104 317,-104 317,4 -4,4"/>
<!-- Node1 -->
<g id="node1" class="node"><title>Node1</title>
<polygon fill="#bfbfbf" stroke="black" points="82.5,-69 82.5,-99 239.5,-99 239.5,-69 82.5,-69"/>
<text text-anchor="start" x="90.5" y="-87" font-family="Helvetica,sans-Serif" font-size="10.00">src/IOWrapper/ROS/ROSImage</text>
<text text-anchor="middle" x="161" y="-76" font-family="Helvetica,sans-Serif" font-size="10.00">StreamThread.h</text>
</g>
<!-- Node2 -->
<g id="node2" class="node"><title>Node2</title>
<g id="a_node2"><a xlink:href="../../d1/d45/ROSImageStreamThread_8cpp.html" target="_top" xlink:title="src/IOWrapper/ROS/ROSImage\lStreamThread.cpp">
<polygon fill="white" stroke="black" points="-0.5,-1 -0.5,-31 156.5,-31 156.5,-1 -0.5,-1"/>
<text text-anchor="start" x="7.5" y="-19" font-family="Helvetica,sans-Serif" font-size="10.00">src/IOWrapper/ROS/ROSImage</text>
<text text-anchor="middle" x="78" y="-8" font-family="Helvetica,sans-Serif" font-size="10.00">StreamThread.cpp</text>
</a>
</g>
</g>
<!-- Node1&#45;&gt;Node2 -->
<g id="edge1" class="edge"><title>Node1&#45;&gt;Node2</title>
<path fill="none" stroke="midnightblue" d="M134.98,-62.3094C122.194,-52.1426 107.121,-40.1562 95.6895,-31.0663"/>
<polygon fill="midnightblue" stroke="midnightblue" points="132.985,-65.1945 142.99,-68.679 137.342,-59.7155 132.985,-65.1945"/>
</g>
<!-- Node3 -->
<g id="node3" class="node"><title>Node3</title>
<g id="a_node3"><a xlink:href="../../d8/d85/main__live__odometry_8cpp.html" target="_top" xlink:title="src/main_live_odometry.cpp">
<polygon fill="white" stroke="black" points="174.5,-6.5 174.5,-25.5 313.5,-25.5 313.5,-6.5 174.5,-6.5"/>
<text text-anchor="middle" x="244" y="-13.5" font-family="Helvetica,sans-Serif" font-size="10.00">src/main_live_odometry.cpp</text>
</a>
</g>
</g>
<!-- Node1&#45;&gt;Node3 -->
<g id="edge2" class="edge"><title>Node1&#45;&gt;Node3</title>
<path fill="none" stroke="midnightblue" d="M187.167,-62.1927C202.575,-49.9403 221.265,-35.0785 232.898,-25.8283"/>
<polygon fill="midnightblue" stroke="midnightblue" points="184.658,-59.7155 179.01,-68.679 189.015,-65.1945 184.658,-59.7155"/>
</g>
</g>
</svg>
