<?xml version="1.0" encoding="UTF-8" standalone="no"?>
<!DOCTYPE svg PUBLIC "-//W3C//DTD SVG 1.1//EN"
 "http://www.w3.org/Graphics/SVG/1.1/DTD/svg11.dtd">
<!-- Generated by graphviz version 2.36.0 (20140111.2315)
 -->
<!-- Title: external/gicp/scan.cpp Pages: 1 -->
<svg width="122pt" height="140pt"
 viewBox="0.00 0.00 122.00 140.00" xmlns="http://www.w3.org/2000/svg" xmlns:xlink="http://www.w3.org/1999/xlink">
<g id="graph0" class="graph" transform="scale(1 1) rotate(0) translate(4 136)">
<title>external/gicp/scan.cpp</title>
<polygon fill="white" stroke="none" points="-4,4 -4,-136 118,-136 118,4 -4,4"/>
<!-- Node1 -->
<g id="node1" class="node"><title>Node1</title>
<polygon fill="#bfbfbf" stroke="black" points="-0.5,-112.5 -0.5,-131.5 114.5,-131.5 114.5,-112.5 -0.5,-112.5"/>
<text text-anchor="middle" x="57" y="-119.5" font-family="Helvetica,sans-Serif" font-size="10.00">external/gicp/scan.cpp</text>
</g>
<!-- Node2 -->
<g id="node2" class="node"><title>Node2</title>
<g id="a_node2"><a xlink:href="../../d9/d1d/scan_8h.html" target="_top" xlink:title="scan.h">
<polygon fill="white" stroke="black" points="2,-56.5 2,-75.5 48,-75.5 48,-56.5 2,-56.5"/>
<text text-anchor="middle" x="25" y="-63.5" font-family="Helvetica,sans-Serif" font-size="10.00">scan.h</text>
</a>
</g>
</g>
<!-- Node1&#45;&gt;Node2 -->
<g id="edge1" class="edge"><title>Node1&#45;&gt;Node2</title>
<path fill="none" stroke="midnightblue" d="M51.7159,-112.083C47.289,-104.613 40.8367,-93.7244 35.3821,-84.5199"/>
<polygon fill="midnightblue" stroke="midnightblue" points="38.2949,-82.5697 30.1858,-75.7511 32.2729,-86.1383 38.2949,-82.5697"/>
</g>
<!-- Node4 -->
<g id="node4" class="node"><title>Node4</title>
<polygon fill="white" stroke="#bfbfbf" points="66,-56.5 66,-75.5 112,-75.5 112,-56.5 66,-56.5"/>
<text text-anchor="middle" x="89" y="-63.5" font-family="Helvetica,sans-Serif" font-size="10.00">stdio.h</text>
</g>
<!-- Node1&#45;&gt;Node4 -->
<g id="edge3" class="edge"><title>Node1&#45;&gt;Node4</title>
<path fill="none" stroke="midnightblue" d="M62.2841,-112.083C66.711,-104.613 73.1633,-93.7244 78.6179,-84.5199"/>
<polygon fill="midnightblue" stroke="midnightblue" points="81.7271,-86.1383 83.8142,-75.7511 75.7051,-82.5697 81.7271,-86.1383"/>
</g>
<!-- Node3 -->
<g id="node3" class="node"><title>Node3</title>
<polygon fill="white" stroke="#bfbfbf" points="3,-0.5 3,-19.5 47,-19.5 47,-0.5 3,-0.5"/>
<text text-anchor="middle" x="25" y="-7.5" font-family="Helvetica,sans-Serif" font-size="10.00">vector</text>
</g>
<!-- Node2&#45;&gt;Node3 -->
<g id="edge2" class="edge"><title>Node2&#45;&gt;Node3</title>
<path fill="none" stroke="midnightblue" d="M25,-56.083C25,-49.0059 25,-38.8611 25,-29.9865"/>
<polygon fill="midnightblue" stroke="midnightblue" points="28.5001,-29.751 25,-19.7511 21.5001,-29.7511 28.5001,-29.751"/>
</g>
</g>
</svg>
