<?xml version="1.0" encoding="UTF-8" standalone="no"?>
<!DOCTYPE svg PUBLIC "-//W3C//DTD SVG 1.1//EN"
 "http://www.w3.org/Graphics/SVG/1.1/DTD/svg11.dtd">
<!-- Generated by graphviz version 2.36.0 (20140111.2315)
 -->
<!-- Title: src/covariance_estimation.h Pages: 1 -->
<svg width="385pt" height="152pt"
 viewBox="0.00 0.00 385.00 152.00" xmlns="http://www.w3.org/2000/svg" xmlns:xlink="http://www.w3.org/1999/xlink">
<g id="graph0" class="graph" transform="scale(1 1) rotate(0) translate(4 148)">
<title>src/covariance_estimation.h</title>
<polygon fill="white" stroke="none" points="-4,4 -4,-148 381,-148 381,4 -4,4"/>
<!-- Node1 -->
<g id="node1" class="node"><title>Node1</title>
<polygon fill="#bfbfbf" stroke="black" points="147.5,-124.5 147.5,-143.5 286.5,-143.5 286.5,-124.5 147.5,-124.5"/>
<text text-anchor="middle" x="217" y="-131.5" font-family="Helvetica,sans-Serif" font-size="10.00">src/covariance_estimation.h</text>
</g>
<!-- Node2 -->
<g id="node2" class="node"><title>Node2</title>
<polygon fill="white" stroke="#bfbfbf" points="0,-62.5 0,-81.5 140,-81.5 140,-62.5 0,-62.5"/>
<text text-anchor="middle" x="70" y="-69.5" font-family="Helvetica,sans-Serif" font-size="10.00">g2o/core/sparse_optimizer.h</text>
</g>
<!-- Node1&#45;&gt;Node2 -->
<g id="edge1" class="edge"><title>Node1&#45;&gt;Node2</title>
<path fill="none" stroke="midnightblue" d="M195.938,-124.403C170.941,-114.2 129.058,-97.1055 100.513,-85.4544"/>
<polygon fill="midnightblue" stroke="midnightblue" points="101.604,-82.1192 91.0224,-81.5806 98.9583,-88.6001 101.604,-82.1192"/>
</g>
<!-- Node3 -->
<g id="node3" class="node"><title>Node3</title>
<polygon fill="white" stroke="#bfbfbf" points="158,-57 158,-87 276,-87 276,-57 158,-57"/>
<text text-anchor="start" x="166" y="-75" font-family="Helvetica,sans-Serif" font-size="10.00">g2o/types/slam3d/edge</text>
<text text-anchor="middle" x="217" y="-64" font-family="Helvetica,sans-Serif" font-size="10.00">_se3.h</text>
</g>
<!-- Node1&#45;&gt;Node3 -->
<g id="edge2" class="edge"><title>Node1&#45;&gt;Node3</title>
<path fill="none" stroke="midnightblue" d="M217,-124.403C217,-117.341 217,-106.975 217,-97.399"/>
<polygon fill="midnightblue" stroke="midnightblue" points="220.5,-97.1408 217,-87.1408 213.5,-97.1408 220.5,-97.1408"/>
</g>
<!-- Node4 -->
<g id="node4" class="node"><title>Node4</title>
<g id="a_node4"><a xlink:href="../../dd/de1/scoped__timer_8h.html" target="_top" xlink:title="scoped_timer.h">
<polygon fill="white" stroke="black" points="294.5,-62.5 294.5,-81.5 377.5,-81.5 377.5,-62.5 294.5,-62.5"/>
<text text-anchor="middle" x="336" y="-69.5" font-family="Helvetica,sans-Serif" font-size="10.00">scoped_timer.h</text>
</a>
</g>
</g>
<!-- Node1&#45;&gt;Node4 -->
<g id="edge3" class="edge"><title>Node1&#45;&gt;Node4</title>
<path fill="none" stroke="midnightblue" d="M234.05,-124.403C253.844,-114.423 286.717,-97.8487 309.77,-86.2253"/>
<polygon fill="midnightblue" stroke="midnightblue" points="311.628,-89.208 318.982,-81.5806 308.477,-82.9575 311.628,-89.208"/>
</g>
<!-- Node5 -->
<g id="node5" class="node"><title>Node5</title>
<polygon fill="white" stroke="#bfbfbf" points="315.5,-0.5 315.5,-19.5 356.5,-19.5 356.5,-0.5 315.5,-0.5"/>
<text text-anchor="middle" x="336" y="-7.5" font-family="Helvetica,sans-Serif" font-size="10.00">ctime</text>
</g>
<!-- Node4&#45;&gt;Node5 -->
<g id="edge4" class="edge"><title>Node4&#45;&gt;Node5</title>
<path fill="none" stroke="midnightblue" d="M336,-62.4035C336,-53.9381 336,-40.7283 336,-29.8199"/>
<polygon fill="midnightblue" stroke="midnightblue" points="339.5,-29.5806 336,-19.5806 332.5,-29.5806 339.5,-29.5806"/>
</g>
</g>
</svg>
