<?xml version="1.0" encoding="UTF-8" standalone="no"?>
<!DOCTYPE svg PUBLIC "-//W3C//DTD SVG 1.1//EN"
 "http://www.w3.org/Graphics/SVG/1.1/DTD/svg11.dtd">
<!-- Generated by graphviz version 2.36.0 (20140111.2315)
 -->
<!-- Title: src/IOWrapper/TimestampedObject.h Pages: 1 -->
<!--zoomable 244 -->
<svg id="main" version="1.1" xmlns="http://www.w3.org/2000/svg" xmlns:xlink="http://www.w3.org/1999/xlink" xml:space="preserve" onload="init(evt)">
<style type="text/css"><![CDATA[
.edge:hover path { stroke: red; }
.edge:hover polygon { stroke: red; fill: red; }
]]></style>
<script type="text/javascript"><![CDATA[
var edges = document.getElementsByTagName('g');
if (edges && edges.length) {
  for (var i=0;i<edges.length;i++) {
    if (edges[i].id.substr(0,4)=='edge') {
      edges[i].setAttribute('class','edge');
    }
  }
}
]]></script>
        <defs>
                <circle id="rim" cx="0" cy="0" r="7"/>
                <circle id="rim2" cx="0" cy="0" r="3.5"/>
                <g id="zoomPlus">
                        <use xlink:href="#rim" fill="#404040">
                                <set attributeName="fill" to="#808080" begin="zoomplus.mouseover" end="zoomplus.mouseout"/>
                        </use>
                        <path d="M-4,0h8M0,-4v8" fill="none" stroke="white" stroke-width="1.5" pointer-events="none"/>
                </g>
                <g id="zoomMin">
                        <use xlink:href="#rim" fill="#404040">
                                <set attributeName="fill" to="#808080" begin="zoomminus.mouseover" end="zoomminus.mouseout"/>
                        </use>
                        <path d="M-4,0h8" fill="none" stroke="white" stroke-width="1.5" pointer-events="none"/>
                </g>
                <g id="dirArrow">
                        <path fill="none" stroke="white" stroke-width="1.5" d="M0,-3.0v7 M-2.5,-0.5L0,-3.0L2.5,-0.5"/>
                </g>
               <g id="resetDef">
                       <use xlink:href="#rim2" fill="#404040">
                               <set attributeName="fill" to="#808080" begin="reset.mouseover" end="reset.mouseout"/>
                       </use>
               </g>
        </defs>

<script type="text/javascript">
var viewWidth = 1617;
var viewHeight = 244;
var sectionId = 'dynsection-1';
</script>
<script xlink:href="../../svgpan.js"/>
<svg id="graph" class="graph">
<g id="viewport">
<title>src/IOWrapper/TimestampedObject.h</title>
<polygon fill="white" stroke="none" points="-4,4 -4,-240 1613.35,-240 1613.35,4 -4,4"/>
<!-- Node1 -->
<g id="node1" class="node"><title>Node1</title>
<polygon fill="#bfbfbf" stroke="black" points="256.5,-205 256.5,-235 399.5,-235 399.5,-205 256.5,-205"/>
<text text-anchor="start" x="264.5" y="-223" font-family="Helvetica,sans-Serif" font-size="10.00">src/IOWrapper/Timestamped</text>
<text text-anchor="middle" x="328" y="-212" font-family="Helvetica,sans-Serif" font-size="10.00">Object.h</text>
</g>
<!-- Node2 -->
<g id="node2" class="node"><title>Node2</title>
<g id="a_node2"><a xlink:href="../../d6/d4e/InputImageStream_8h.html" target="_top" xlink:title="src/IOWrapper/InputImage\lStream.h">
<polygon fill="white" stroke="black" points="189,-137 189,-167 321,-167 321,-137 189,-137"/>
<text text-anchor="start" x="197" y="-155" font-family="Helvetica,sans-Serif" font-size="10.00">src/IOWrapper/InputImage</text>
<text text-anchor="middle" x="255" y="-144" font-family="Helvetica,sans-Serif" font-size="10.00">Stream.h</text>
</a>
</g>
</g>
<!-- Node1&#45;&gt;Node2 -->
<g id="edge1" class="edge"><title>Node1&#45;&gt;Node2</title>
<path fill="none" stroke="midnightblue" d="M304.47,-197.727C293.366,-187.687 280.421,-175.983 270.558,-167.066"/>
<polygon fill="midnightblue" stroke="midnightblue" points="302.395,-200.569 312.16,-204.679 307.09,-195.376 302.395,-200.569"/>
</g>
<!-- Node3 -->
<g id="node3" class="node"><title>Node3</title>
<g id="a_node3"><a xlink:href="../../d7/dd3/ROSImageStreamThread_8h.html" target="_top" xlink:title="src/IOWrapper/ROS/ROSImage\lStreamThread.h">
<polygon fill="white" stroke="black" points="28.5,-69 28.5,-99 185.5,-99 185.5,-69 28.5,-69"/>
<text text-anchor="start" x="36.5" y="-87" font-family="Helvetica,sans-Serif" font-size="10.00">src/IOWrapper/ROS/ROSImage</text>
<text text-anchor="middle" x="107" y="-76" font-family="Helvetica,sans-Serif" font-size="10.00">StreamThread.h</text>
</a>
</g>
</g>
<!-- Node1&#45;&gt;Node3 -->
<g id="edge6" class="edge"><title>Node1&#45;&gt;Node3</title>
<path fill="none" stroke="midnightblue" d="M254.736,-201.964C229.718,-194.075 202.419,-183.031 180,-168 152.107,-149.298 128.236,-117.379 115.923,-99.053"/>
<polygon fill="midnightblue" stroke="midnightblue" points="253.977,-205.391 264.562,-204.941 256.007,-198.692 253.977,-205.391"/>
</g>
<!-- Node7 -->
<g id="node7" class="node"><title>Node7</title>
<g id="a_node7"><a xlink:href="../../d8/d7d/LiveSLAMWrapper_8h.html" target="_top" xlink:title="src/LiveSLAMWrapper.h">
<polygon fill="white" stroke="black" points="339.5,-142.5 339.5,-161.5 462.5,-161.5 462.5,-142.5 339.5,-142.5"/>
<text text-anchor="middle" x="401" y="-149.5" font-family="Helvetica,sans-Serif" font-size="10.00">src/LiveSLAMWrapper.h</text>
</a>
</g>
</g>
<!-- Node1&#45;&gt;Node7 -->
<g id="edge7" class="edge"><title>Node1&#45;&gt;Node7</title>
<path fill="none" stroke="midnightblue" d="M351.391,-197.852C364.87,-185.666 381.099,-170.993 391.235,-161.828"/>
<polygon fill="midnightblue" stroke="midnightblue" points="348.91,-195.376 343.84,-204.679 353.605,-200.569 348.91,-195.376"/>
</g>
<!-- Node10 -->
<g id="node10" class="node"><title>Node10</title>
<g id="a_node10"><a xlink:href="../../d7/dd7/globalFuncs_8h.html" target="_top" xlink:title="src/util/globalFuncs.h">
<polygon fill="white" stroke="black" points="806,-142.5 806,-161.5 916,-161.5 916,-142.5 806,-142.5"/>
<text text-anchor="middle" x="861" y="-149.5" font-family="Helvetica,sans-Serif" font-size="10.00">src/util/globalFuncs.h</text>
</a>
</g>
</g>
<!-- Node1&#45;&gt;Node10 -->
<g id="edge12" class="edge"><title>Node1&#45;&gt;Node10</title>
<path fill="none" stroke="midnightblue" d="M409.644,-208.89C519.455,-195.293 711.798,-171.475 805.94,-159.818"/>
<polygon fill="midnightblue" stroke="midnightblue" points="409.1,-205.431 399.606,-210.133 409.96,-212.378 409.1,-205.431"/>
</g>
<!-- Node2&#45;&gt;Node3 -->
<g id="edge2" class="edge"><title>Node2&#45;&gt;Node3</title>
<path fill="none" stroke="midnightblue" d="M214.072,-132.749C190.178,-122.093 160.492,-108.855 138.443,-99.0218"/>
<polygon fill="midnightblue" stroke="midnightblue" points="212.692,-135.965 223.25,-136.841 215.543,-129.572 212.692,-135.965"/>
</g>
<!-- Node6 -->
<g id="node6" class="node"><title>Node6</title>
<g id="a_node6"><a xlink:href="../../df/d7b/LiveSLAMWrapper_8cpp.html" target="_top" xlink:title="src/LiveSLAMWrapper.cpp">
<polygon fill="white" stroke="black" points="242,-74.5 242,-93.5 376,-93.5 376,-74.5 242,-74.5"/>
<text text-anchor="middle" x="309" y="-81.5" font-family="Helvetica,sans-Serif" font-size="10.00">src/LiveSLAMWrapper.cpp</text>
</a>
</g>
</g>
<!-- Node2&#45;&gt;Node6 -->
<g id="edge5" class="edge"><title>Node2&#45;&gt;Node6</title>
<path fill="none" stroke="midnightblue" d="M273.146,-128.821C282.943,-116.847 294.489,-102.736 301.777,-93.8283"/>
<polygon fill="midnightblue" stroke="midnightblue" points="270.341,-126.723 266.717,-136.679 275.758,-131.156 270.341,-126.723"/>
</g>
<!-- Node4 -->
<g id="node4" class="node"><title>Node4</title>
<g id="a_node4"><a xlink:href="../../d1/d45/ROSImageStreamThread_8cpp.html" target="_top" xlink:title="src/IOWrapper/ROS/ROSImage\lStreamThread.cpp">
<polygon fill="white" stroke="black" points="-0.5,-1 -0.5,-31 156.5,-31 156.5,-1 -0.5,-1"/>
<text text-anchor="start" x="7.5" y="-19" font-family="Helvetica,sans-Serif" font-size="10.00">src/IOWrapper/ROS/ROSImage</text>
<text text-anchor="middle" x="78" y="-8" font-family="Helvetica,sans-Serif" font-size="10.00">StreamThread.cpp</text>
</a>
</g>
</g>
<!-- Node3&#45;&gt;Node4 -->
<g id="edge3" class="edge"><title>Node3&#45;&gt;Node4</title>
<path fill="none" stroke="midnightblue" d="M96.6419,-59.4263C92.5099,-50.0226 87.8882,-39.5042 84.2803,-31.2931"/>
<polygon fill="midnightblue" stroke="midnightblue" points="93.4803,-60.9318 100.707,-68.679 99.889,-58.1158 93.4803,-60.9318"/>
</g>
<!-- Node5 -->
<g id="node5" class="node"><title>Node5</title>
<g id="a_node5"><a xlink:href="../../d8/d85/main__live__odometry_8cpp.html" target="_top" xlink:title="src/main_live_odometry.cpp">
<polygon fill="white" stroke="black" points="174.5,-6.5 174.5,-25.5 313.5,-25.5 313.5,-6.5 174.5,-6.5"/>
<text text-anchor="middle" x="244" y="-13.5" font-family="Helvetica,sans-Serif" font-size="10.00">src/main_live_odometry.cpp</text>
</a>
</g>
</g>
<!-- Node3&#45;&gt;Node5 -->
<g id="edge4" class="edge"><title>Node3&#45;&gt;Node5</title>
<path fill="none" stroke="midnightblue" d="M145.722,-64.3455C172.051,-51.6616 205.668,-35.4667 225.979,-25.6819"/>
<polygon fill="midnightblue" stroke="midnightblue" points="143.88,-61.348 136.39,-68.8413 146.918,-67.6543 143.88,-61.348"/>
</g>
<!-- Node7&#45;&gt;Node5 -->
<g id="edge9" class="edge"><title>Node7&#45;&gt;Node5</title>
<path fill="none" stroke="midnightblue" d="M355.057,-140.03C307.934,-128.318 240.479,-110.086 233,-100 216.377,-77.5819 230.876,-42.1035 239.164,-25.7654"/>
<polygon fill="midnightblue" stroke="midnightblue" points="354.228,-143.431 364.775,-142.425 355.903,-136.634 354.228,-143.431"/>
</g>
<!-- Node7&#45;&gt;Node6 -->
<g id="edge8" class="edge"><title>Node7&#45;&gt;Node6</title>
<path fill="none" stroke="midnightblue" d="M380.725,-136.455C362.448,-123.343 336.184,-104.502 321.03,-93.6305"/>
<polygon fill="midnightblue" stroke="midnightblue" points="378.807,-139.386 388.973,-142.372 382.887,-133.699 378.807,-139.386"/>
</g>
<!-- Node8 -->
<g id="node8" class="node"><title>Node8</title>
<g id="a_node8"><a xlink:href="../../d7/dc1/main__on__images_8cpp.html" target="_top" xlink:title="src/main_on_images.cpp">
<polygon fill="white" stroke="black" points="394.5,-74.5 394.5,-93.5 519.5,-93.5 519.5,-74.5 394.5,-74.5"/>
<text text-anchor="middle" x="457" y="-81.5" font-family="Helvetica,sans-Serif" font-size="10.00">src/main_on_images.cpp</text>
</a>
</g>
</g>
<!-- Node7&#45;&gt;Node8 -->
<g id="edge10" class="edge"><title>Node7&#45;&gt;Node8</title>
<path fill="none" stroke="midnightblue" d="M414.847,-134.68C425.795,-121.777 440.66,-104.258 449.498,-93.8411"/>
<polygon fill="midnightblue" stroke="midnightblue" points="412.122,-132.482 408.321,-142.372 417.46,-137.011 412.122,-132.482"/>
</g>
<!-- Node9 -->
<g id="node9" class="node"><title>Node9</title>
<g id="a_node9"><a xlink:href="../../de/dce/SlamSystem_8cpp.html" target="_top" xlink:title="src/SlamSystem.cpp">
<polygon fill="white" stroke="black" points="538,-74.5 538,-93.5 646,-93.5 646,-74.5 538,-74.5"/>
<text text-anchor="middle" x="592" y="-81.5" font-family="Helvetica,sans-Serif" font-size="10.00">src/SlamSystem.cpp</text>
</a>
</g>
</g>
<!-- Node7&#45;&gt;Node9 -->
<g id="edge11" class="edge"><title>Node7&#45;&gt;Node9</title>
<path fill="none" stroke="midnightblue" d="M435.602,-139.043C473.639,-125.9 533.788,-105.115 567.327,-93.5259"/>
<polygon fill="midnightblue" stroke="midnightblue" points="434.278,-135.798 425.97,-142.372 436.565,-142.414 434.278,-135.798"/>
</g>
<!-- Node10&#45;&gt;Node5 -->
<g id="edge16" class="edge"><title>Node10&#45;&gt;Node5</title>
<path fill="none" stroke="midnightblue" d="M926.38,-151.469C1098.91,-152.027 1556.4,-148.842 1602,-100 1611.71,-89.6038 1611.87,-78.2436 1602,-68 1556.97,-21.2429 585.321,-17.1876 313.879,-16.9693"/>
<polygon fill="midnightblue" stroke="midnightblue" points="926.182,-147.968 916.169,-151.431 926.156,-154.968 926.182,-147.968"/>
</g>
<!-- Node10&#45;&gt;Node6 -->
<g id="edge15" class="edge"><title>Node10&#45;&gt;Node6</title>
<path fill="none" stroke="midnightblue" d="M795.836,-145.85C703.93,-138.17 531.123,-122.204 385,-100 373.166,-98.2018 360.375,-95.841 348.722,-93.526"/>
<polygon fill="midnightblue" stroke="midnightblue" points="795.57,-149.339 805.825,-146.678 796.149,-142.363 795.57,-149.339"/>
</g>
<!-- Node10&#45;&gt;Node8 -->
<g id="edge17" class="edge"><title>Node10&#45;&gt;Node8</title>
<path fill="none" stroke="midnightblue" d="M795.924,-142.043C728.864,-132.569 621.38,-116.706 529,-100 518.32,-98.0686 506.795,-95.7661 496.163,-93.5519"/>
<polygon fill="midnightblue" stroke="midnightblue" points="795.534,-145.522 805.924,-143.451 796.51,-138.591 795.534,-145.522"/>
</g>
<!-- Node10&#45;&gt;Node9 -->
<g id="edge18" class="edge"><title>Node10&#45;&gt;Node9</title>
<path fill="none" stroke="midnightblue" d="M816.266,-140.024C763.031,-126.963 675.275,-105.432 626.829,-93.5455"/>
<polygon fill="midnightblue" stroke="midnightblue" points="815.563,-143.456 826.109,-142.439 817.231,-136.657 815.563,-143.456"/>
</g>
<!-- Node11 -->
<g id="node11" class="node"><title>Node11</title>
<g id="a_node11"><a xlink:href="../../d8/d5e/DepthMap_8cpp.html" target="_top" xlink:title="src/DepthEstimation\l/DepthMap.cpp">
<polygon fill="white" stroke="black" points="664,-69 664,-99 770,-99 770,-69 664,-69"/>
<text text-anchor="start" x="672" y="-87" font-family="Helvetica,sans-Serif" font-size="10.00">src/DepthEstimation</text>
<text text-anchor="middle" x="717" y="-76" font-family="Helvetica,sans-Serif" font-size="10.00">/DepthMap.cpp</text>
</a>
</g>
</g>
<!-- Node10&#45;&gt;Node11 -->
<g id="edge13" class="edge"><title>Node10&#45;&gt;Node11</title>
<path fill="none" stroke="midnightblue" d="M833.047,-138.188C808.534,-126.953 772.957,-110.647 747.668,-99.0562"/>
<polygon fill="midnightblue" stroke="midnightblue" points="831.626,-141.387 842.175,-142.372 834.542,-135.023 831.626,-141.387"/>
</g>
<!-- Node12 -->
<g id="node12" class="node"><title>Node12</title>
<g id="a_node12"><a xlink:href="../../d7/d84/KeyFrameGraph_8cpp.html" target="_top" xlink:title="src/GlobalMapping/KeyFrame\lGraph.cpp">
<polygon fill="white" stroke="black" points="788,-69 788,-99 934,-99 934,-69 788,-69"/>
<text text-anchor="start" x="796" y="-87" font-family="Helvetica,sans-Serif" font-size="10.00">src/GlobalMapping/KeyFrame</text>
<text text-anchor="middle" x="861" y="-76" font-family="Helvetica,sans-Serif" font-size="10.00">Graph.cpp</text>
</a>
</g>
</g>
<!-- Node10&#45;&gt;Node12 -->
<g id="edge14" class="edge"><title>Node10&#45;&gt;Node12</title>
<path fill="none" stroke="midnightblue" d="M861,-132.174C861,-121.678 861,-108.821 861,-99.1815"/>
<polygon fill="midnightblue" stroke="midnightblue" points="857.5,-132.372 861,-142.372 864.5,-132.372 857.5,-132.372"/>
</g>
<!-- Node13 -->
<g id="node13" class="node"><title>Node13</title>
<g id="a_node13"><a xlink:href="../../d6/d91/SE3Tracker_8cpp.html" target="_top" xlink:title="src/Tracking/SE3Tracker.cpp">
<polygon fill="white" stroke="black" points="952,-74.5 952,-93.5 1096,-93.5 1096,-74.5 952,-74.5"/>
<text text-anchor="middle" x="1024" y="-81.5" font-family="Helvetica,sans-Serif" font-size="10.00">src/Tracking/SE3Tracker.cpp</text>
</a>
</g>
</g>
<!-- Node10&#45;&gt;Node13 -->
<g id="edge19" class="edge"><title>Node10&#45;&gt;Node13</title>
<path fill="none" stroke="midnightblue" d="M891.782,-138.536C924.297,-125.371 974.687,-104.967 1002.94,-93.5259"/>
<polygon fill="midnightblue" stroke="midnightblue" points="890.265,-135.374 882.309,-142.372 892.892,-141.863 890.265,-135.374"/>
</g>
<!-- Node14 -->
<g id="node14" class="node"><title>Node14</title>
<g id="a_node14"><a xlink:href="../../d6/dec/Sim3Tracker_8cpp.html" target="_top" xlink:title="src/Tracking/Sim3Tracker.cpp">
<polygon fill="white" stroke="black" points="1114,-74.5 1114,-93.5 1262,-93.5 1262,-74.5 1114,-74.5"/>
<text text-anchor="middle" x="1188" y="-81.5" font-family="Helvetica,sans-Serif" font-size="10.00">src/Tracking/Sim3Tracker.cpp</text>
</a>
</g>
</g>
<!-- Node10&#45;&gt;Node14 -->
<g id="edge20" class="edge"><title>Node10&#45;&gt;Node14</title>
<path fill="none" stroke="midnightblue" d="M913.375,-140.429C977.87,-127.412 1086.16,-105.555 1145.66,-93.5455"/>
<polygon fill="midnightblue" stroke="midnightblue" points="912.524,-137.03 903.414,-142.439 913.909,-143.892 912.524,-137.03"/>
</g>
<!-- Node15 -->
<g id="node15" class="node"><title>Node15</title>
<g id="a_node15"><a xlink:href="../../de/db1/TrackingReference_8cpp.html" target="_top" xlink:title="src/Tracking/TrackingReference.cpp">
<polygon fill="white" stroke="black" points="1280.5,-74.5 1280.5,-93.5 1455.5,-93.5 1455.5,-74.5 1280.5,-74.5"/>
<text text-anchor="middle" x="1368" y="-81.5" font-family="Helvetica,sans-Serif" font-size="10.00">src/Tracking/TrackingReference.cpp</text>
</a>
</g>
</g>
<!-- Node10&#45;&gt;Node15 -->
<g id="edge21" class="edge"><title>Node10&#45;&gt;Node15</title>
<path fill="none" stroke="midnightblue" d="M926.154,-143.5C1007.1,-134.043 1149.39,-116.962 1271,-100 1285.18,-98.0226 1300.49,-95.7279 1314.68,-93.537"/>
<polygon fill="midnightblue" stroke="midnightblue" points="925.638,-140.036 916.111,-144.671 926.449,-146.989 925.638,-140.036"/>
</g>
<!-- Node16 -->
<g id="node16" class="node"><title>Node16</title>
<g id="a_node16"><a xlink:href="../../de/dc8/globalFuncs_8cpp.html" target="_top" xlink:title="src/util/globalFuncs.cpp">
<polygon fill="white" stroke="black" points="1474,-74.5 1474,-93.5 1594,-93.5 1594,-74.5 1474,-74.5"/>
<text text-anchor="middle" x="1534" y="-81.5" font-family="Helvetica,sans-Serif" font-size="10.00">src/util/globalFuncs.cpp</text>
</a>
</g>
</g>
<!-- Node10&#45;&gt;Node16 -->
<g id="edge22" class="edge"><title>Node10&#45;&gt;Node16</title>
<path fill="none" stroke="midnightblue" d="M926.173,-148.198C1037.1,-142.825 1269.51,-128.944 1464,-100 1475.31,-98.3169 1487.53,-95.9063 1498.55,-93.5084"/>
<polygon fill="midnightblue" stroke="midnightblue" points="925.966,-144.704 916.144,-148.677 926.299,-151.696 925.966,-144.704"/>
</g>
</g>
</svg>
        <g id="navigator" transform="translate(0 0)" fill="#404254">
                <rect fill="#f2f5e9" fill-opacity="0.5" stroke="#606060" stroke-width=".5" x="0" y="0" width="60" height="60"/>
                <use id="zoomplus" xlink:href="#zoomPlus" x="17" y="9" onmousedown="handleZoom(evt,'in')"/>
                <use id="zoomminus" xlink:href="#zoomMin" x="42" y="9" onmousedown="handleZoom(evt,'out')"/>
                <use id="reset" xlink:href="#resetDef" x="30" y="36" onmousedown="handleReset()"/>
                <g id="arrowUp" xlink:href="#dirArrow" transform="translate(30 24)" onmousedown="handlePan(0,-1)">
                  <use xlink:href="#rim" fill="#404040">
                        <set attributeName="fill" to="#808080" begin="arrowUp.mouseover" end="arrowUp.mouseout"/>
                  </use>
                  <path fill="none" stroke="white" stroke-width="1.5" d="M0,-3.0v7 M-2.5,-0.5L0,-3.0L2.5,-0.5"/>
                </g>
                <g id="arrowRight" xlink:href="#dirArrow" transform="rotate(90) translate(36 -43)" onmousedown="handlePan(1,0)">
                  <use xlink:href="#rim" fill="#404040">
                        <set attributeName="fill" to="#808080" begin="arrowRight.mouseover" end="arrowRight.mouseout"/>
                  </use>
                  <path fill="none" stroke="white" stroke-width="1.5" d="M0,-3.0v7 M-2.5,-0.5L0,-3.0L2.5,-0.5"/>
                </g>
                <g id="arrowDown" xlink:href="#dirArrow" transform="rotate(180) translate(-30 -48)" onmousedown="handlePan(0,1)">
                  <use xlink:href="#rim" fill="#404040">
                        <set attributeName="fill" to="#808080" begin="arrowDown.mouseover" end="arrowDown.mouseout"/>
                  </use>
                  <path fill="none" stroke="white" stroke-width="1.5" d="M0,-3.0v7 M-2.5,-0.5L0,-3.0L2.5,-0.5"/>
                </g>
                <g id="arrowLeft" xlink:href="#dirArrow" transform="rotate(270) translate(-36 17)" onmousedown="handlePan(-1,0)">
                  <use xlink:href="#rim" fill="#404040">
                        <set attributeName="fill" to="#808080" begin="arrowLeft.mouseover" end="arrowLeft.mouseout"/>
                  </use>
                  <path fill="none" stroke="white" stroke-width="1.5" d="M0,-3.0v7 M-2.5,-0.5L0,-3.0L2.5,-0.5"/>
                </g>
        </g>
        <svg viewBox="0 0 15 15" width="100%" height="30px" preserveAspectRatio="xMaxYMin meet">
         <g id="arrow_out" transform="scale(0.3 0.3)">
          <a xlink:href="TimestampedObject_8h__dep__incl_org.svg" target="_base">
           <rect id="button" ry="5" rx="5" y="6" x="6" height="38" width="38"
                fill="#f2f5e9" fill-opacity="0.5" stroke="#606060" stroke-width="1.0"/>
           <path id="arrow"
             d="M 11.500037,31.436501 C 11.940474,20.09759 22.043105,11.32322 32.158766,21.979434 L 37.068811,17.246167 C 37.068811,17.246167 37.088388,32 37.088388,32 L 22.160133,31.978069 C 22.160133,31.978069 26.997745,27.140456 26.997745,27.140456 C 18.528582,18.264221 13.291696,25.230495 11.500037,31.436501 z"
             style="fill:#404040;"/>
          </a>
         </g>
        </svg>
</svg>
