<?xml version="1.0" encoding="UTF-8" standalone="no"?>
<!DOCTYPE svg PUBLIC "-//W3C//DTD SVG 1.1//EN"
 "http://www.w3.org/Graphics/SVG/1.1/DTD/svg11.dtd">
<!-- Generated by graphviz version 2.36.0 (20140111.2315)
 -->
<!-- Title: point_information_matrix Pages: 1 -->
<svg width="548pt" height="66pt"
 viewBox="0.00 0.00 548.00 66.00" xmlns="http://www.w3.org/2000/svg" xmlns:xlink="http://www.w3.org/1999/xlink">
<g id="graph0" class="graph" transform="scale(1 1) rotate(0) translate(4 62)">
<title>point_information_matrix</title>
<polygon fill="white" stroke="none" points="-4,4 -4,-62 544,-62 544,4 -4,4"/>
<!-- Node1 -->
<g id="node1" class="node"><title>Node1</title>
<polygon fill="#bfbfbf" stroke="black" points="0.5,-19.5 0.5,-38.5 123.5,-38.5 123.5,-19.5 0.5,-19.5"/>
<text text-anchor="middle" x="62" y="-26.5" font-family="Helvetica,sans-Serif" font-size="10.00">point_information_matrix</text>
</g>
<!-- Node2 -->
<g id="node2" class="node"><title>Node2</title>
<g id="a_node2"><a xlink:href="../../de/dd9/misc2_8h.html#a9fd104b651d76a0fd52bc23c6588e71f" target="_top" xlink:title="depth_covariance">
<polygon fill="white" stroke="black" points="160.5,-19.5 160.5,-38.5 253.5,-38.5 253.5,-19.5 160.5,-19.5"/>
<text text-anchor="middle" x="207" y="-26.5" font-family="Helvetica,sans-Serif" font-size="10.00">depth_covariance</text>
</a>
</g>
</g>
<!-- Node1&#45;&gt;Node2 -->
<g id="edge1" class="edge"><title>Node1&#45;&gt;Node2</title>
<path fill="none" stroke="midnightblue" d="M123.645,-29C132.508,-29 141.6,-29 150.357,-29"/>
<polygon fill="midnightblue" stroke="midnightblue" points="150.45,-32.5001 160.45,-29 150.45,-25.5001 150.45,-32.5001"/>
</g>
<!-- Node3 -->
<g id="node3" class="node"><title>Node3</title>
<g id="a_node3"><a xlink:href="../../de/dd9/misc2_8h.html#a44186cfabec64587c7bc742ae9dab267" target="_top" xlink:title="depth_std_dev">
<polygon fill="white" stroke="black" points="290,-19.5 290,-38.5 370,-38.5 370,-19.5 290,-19.5"/>
<text text-anchor="middle" x="330" y="-26.5" font-family="Helvetica,sans-Serif" font-size="10.00">depth_std_dev</text>
</a>
</g>
</g>
<!-- Node2&#45;&gt;Node3 -->
<g id="edge2" class="edge"><title>Node2&#45;&gt;Node3</title>
<path fill="none" stroke="midnightblue" d="M253.745,-29C262.214,-29 271.094,-29 279.664,-29"/>
<polygon fill="midnightblue" stroke="midnightblue" points="279.916,-32.5001 289.916,-29 279.916,-25.5001 279.916,-32.5001"/>
</g>
<!-- Node4 -->
<g id="node4" class="node"><title>Node4</title>
<g id="a_node4"><a xlink:href="../../d3/d3e/classParameterServer.html#a5457f900e543c5a466bf9b65ee6bc577" target="_top" xlink:title="ParameterServer::instance">
<polygon fill="white" stroke="black" points="406.5,-38.5 406.5,-57.5 539.5,-57.5 539.5,-38.5 406.5,-38.5"/>
<text text-anchor="middle" x="473" y="-45.5" font-family="Helvetica,sans-Serif" font-size="10.00">ParameterServer::instance</text>
</a>
</g>
</g>
<!-- Node3&#45;&gt;Node4 -->
<g id="edge3" class="edge"><title>Node3&#45;&gt;Node4</title>
<path fill="none" stroke="midnightblue" d="M370.276,-34.2926C378.447,-35.3935 387.318,-36.5889 396.302,-37.7996"/>
<polygon fill="midnightblue" stroke="midnightblue" points="396.085,-41.3019 406.463,-39.1688 397.02,-34.3646 396.085,-41.3019"/>
</g>
<!-- Node5 -->
<g id="node5" class="node"><title>Node5</title>
<g id="a_node5"><a xlink:href="../../d3/d3e/classParameterServer.html#a3c8af50664e423b555bbb1874f488413" target="_top" xlink:title="ParameterServer::get">
<polygon fill="white" stroke="black" points="418,-0.5 418,-19.5 528,-19.5 528,-0.5 418,-0.5"/>
<text text-anchor="middle" x="473" y="-7.5" font-family="Helvetica,sans-Serif" font-size="10.00">ParameterServer::get</text>
</a>
</g>
</g>
<!-- Node3&#45;&gt;Node5 -->
<g id="edge4" class="edge"><title>Node3&#45;&gt;Node5</title>
<path fill="none" stroke="midnightblue" d="M370.276,-23.7074C381.914,-22.1392 394.975,-20.3793 407.758,-18.6567"/>
<polygon fill="midnightblue" stroke="midnightblue" points="408.476,-22.0917 417.919,-17.2875 407.541,-15.1544 408.476,-22.0917"/>
</g>
</g>
</svg>
