<?xml version="1.0" encoding="UTF-8" standalone="no"?>
<!DOCTYPE svg PUBLIC "-//W3C//DTD SVG 1.1//EN"
 "http://www.w3.org/Graphics/SVG/1.1/DTD/svg11.dtd">
<!-- Generated by graphviz version 2.36.0 (20140111.2315)
 -->
<!-- Title: SiftMatchGL::InitSiftMatch Pages: 1 -->
<!--zoomable 313 -->
<svg id="main" version="1.1" xmlns="http://www.w3.org/2000/svg" xmlns:xlink="http://www.w3.org/1999/xlink" xml:space="preserve" onload="init(evt)">
<style type="text/css"><![CDATA[
.edge:hover path { stroke: red; }
.edge:hover polygon { stroke: red; fill: red; }
]]></style>
<script type="text/javascript"><![CDATA[
var edges = document.getElementsByTagName('g');
if (edges && edges.length) {
  for (var i=0;i<edges.length;i++) {
    if (edges[i].id.substr(0,4)=='edge') {
      edges[i].setAttribute('class','edge');
    }
  }
}
]]></script>
        <defs>
                <circle id="rim" cx="0" cy="0" r="7"/>
                <circle id="rim2" cx="0" cy="0" r="3.5"/>
                <g id="zoomPlus">
                        <use xlink:href="#rim" fill="#404040">
                                <set attributeName="fill" to="#808080" begin="zoomplus.mouseover" end="zoomplus.mouseout"/>
                        </use>
                        <path d="M-4,0h8M0,-4v8" fill="none" stroke="white" stroke-width="1.5" pointer-events="none"/>
                </g>
                <g id="zoomMin">
                        <use xlink:href="#rim" fill="#404040">
                                <set attributeName="fill" to="#808080" begin="zoomminus.mouseover" end="zoomminus.mouseout"/>
                        </use>
                        <path d="M-4,0h8" fill="none" stroke="white" stroke-width="1.5" pointer-events="none"/>
                </g>
                <g id="dirArrow">
                        <path fill="none" stroke="white" stroke-width="1.5" d="M0,-3.0v7 M-2.5,-0.5L0,-3.0L2.5,-0.5"/>
                </g>
               <g id="resetDef">
                       <use xlink:href="#rim2" fill="#404040">
                               <set attributeName="fill" to="#808080" begin="reset.mouseover" end="reset.mouseout"/>
                       </use>
               </g>
        </defs>

<script type="text/javascript">
var viewWidth = 616;
var viewHeight = 313;
var sectionId = 'dynsection-4';
</script>
<script xlink:href="../../svgpan.js"/>
<svg id="graph" class="graph">
<g id="viewport">
<title>SiftMatchGL::InitSiftMatch</title>
<polygon fill="white" stroke="none" points="-4,4 -4,-309 612,-309 612,4 -4,4"/>
<!-- Node1 -->
<g id="node1" class="node"><title>Node1</title>
<polygon fill="#bfbfbf" stroke="black" points="0.5,-152.5 0.5,-171.5 133.5,-171.5 133.5,-152.5 0.5,-152.5"/>
<text text-anchor="middle" x="67" y="-159.5" font-family="Helvetica,sans-Serif" font-size="10.00">SiftMatchGL::InitSiftMatch</text>
</g>
<!-- Node2 -->
<g id="node2" class="node"><title>Node2</title>
<g id="a_node2"><a xlink:href="../../d2/d55/classGlobalUtil.html#abfcfe44b5171cff8fb899908809e545e" target="_top" xlink:title="GlobalUtil::InitGLParam">
<polygon fill="white" stroke="black" points="170,-152.5 170,-171.5 290,-171.5 290,-152.5 170,-152.5"/>
<text text-anchor="middle" x="230" y="-159.5" font-family="Helvetica,sans-Serif" font-size="10.00">GlobalUtil::InitGLParam</text>
</a>
</g>
</g>
<!-- Node1&#45;&gt;Node2 -->
<g id="edge1" class="edge"><title>Node1&#45;&gt;Node2</title>
<path fill="none" stroke="midnightblue" d="M133.949,-162C142.408,-162 151.087,-162 159.598,-162"/>
<polygon fill="midnightblue" stroke="midnightblue" points="159.87,-165.5 169.87,-162 159.87,-158.5 159.87,-165.5"/>
</g>
<!-- Node3 -->
<g id="node3" class="node"><title>Node3</title>
<g id="a_node3"><a xlink:href="../../da/d33/glew_8h.html#a60f638ea2b56ff27509779faf093e3e7" target="_top" xlink:title="glewInit">
<polygon fill="white" stroke="black" points="380,-285.5 380,-304.5 430,-304.5 430,-285.5 380,-285.5"/>
<text text-anchor="middle" x="405" y="-292.5" font-family="Helvetica,sans-Serif" font-size="10.00">glewInit</text>
</a>
</g>
</g>
<!-- Node2&#45;&gt;Node3 -->
<g id="edge2" class="edge"><title>Node2&#45;&gt;Node3</title>
<path fill="none" stroke="midnightblue" d="M236.186,-171.731C248.554,-193.95 282.057,-248.603 326,-276 339.134,-284.188 355.55,-288.848 369.93,-291.5"/>
<polygon fill="midnightblue" stroke="midnightblue" points="369.538,-294.981 379.964,-293.097 370.639,-288.068 369.538,-294.981"/>
</g>
<!-- Node4 -->
<g id="node4" class="node"><title>Node4</title>
<g id="a_node4"><a xlink:href="../../da/d33/glew_8h.html#aec433a2092e9179b6f66af1a822adf30" target="_top" xlink:title="glGetString">
<polygon fill="white" stroke="black" points="372.5,-247.5 372.5,-266.5 437.5,-266.5 437.5,-247.5 372.5,-247.5"/>
<text text-anchor="middle" x="405" y="-254.5" font-family="Helvetica,sans-Serif" font-size="10.00">glGetString</text>
</a>
</g>
</g>
<!-- Node2&#45;&gt;Node4 -->
<g id="edge3" class="edge"><title>Node2&#45;&gt;Node4</title>
<path fill="none" stroke="midnightblue" d="M240.005,-171.531C255.834,-187.707 290.364,-220.484 326,-238 337.238,-243.524 350.195,-247.51 362.28,-250.359"/>
<polygon fill="midnightblue" stroke="midnightblue" points="361.657,-253.805 372.17,-252.492 363.133,-246.962 361.657,-253.805"/>
</g>
<!-- Node5 -->
<g id="node5" class="node"><title>Node5</title>
<g id="a_node5"><a xlink:href="../../da/d33/glew_8h.html#a3d84341b1f876ac61065fef3f5933ff7" target="_top" xlink:title="glewGetExtension">
<polygon fill="white" stroke="black" points="357,-209.5 357,-228.5 453,-228.5 453,-209.5 357,-209.5"/>
<text text-anchor="middle" x="405" y="-216.5" font-family="Helvetica,sans-Serif" font-size="10.00">glewGetExtension</text>
</a>
</g>
</g>
<!-- Node2&#45;&gt;Node5 -->
<g id="edge4" class="edge"><title>Node2&#45;&gt;Node5</title>
<path fill="none" stroke="midnightblue" d="M252.565,-171.644C271.615,-179.917 300.284,-191.77 326,-200 333.739,-202.477 341.998,-204.81 350.139,-206.938"/>
<polygon fill="midnightblue" stroke="midnightblue" points="349.414,-210.365 359.967,-209.427 351.133,-203.579 349.414,-210.365"/>
</g>
<!-- Node6 -->
<g id="node6" class="node"><title>Node6</title>
<g id="a_node6"><a xlink:href="../../da/d33/glew_8h.html#ae9ebc290561b3321b629610807155a35" target="_top" xlink:title="glGetIntegerv">
<polygon fill="white" stroke="black" points="367.5,-171.5 367.5,-190.5 442.5,-190.5 442.5,-171.5 367.5,-171.5"/>
<text text-anchor="middle" x="405" y="-178.5" font-family="Helvetica,sans-Serif" font-size="10.00">glGetIntegerv</text>
</a>
</g>
</g>
<!-- Node2&#45;&gt;Node6 -->
<g id="edge5" class="edge"><title>Node2&#45;&gt;Node6</title>
<path fill="none" stroke="midnightblue" d="M290.053,-168.486C311.992,-170.895 336.559,-173.593 357.249,-175.865"/>
<polygon fill="midnightblue" stroke="midnightblue" points="357.05,-179.365 367.372,-176.977 357.814,-172.406 357.05,-179.365"/>
</g>
<!-- Node7 -->
<g id="node7" class="node"><title>Node7</title>
<g id="a_node7"><a xlink:href="../../da/d33/glew_8h.html#a1beaf822e5a901dc3fe429b68efb77d4" target="_top" xlink:title="glEnable">
<polygon fill="white" stroke="black" points="378,-133.5 378,-152.5 432,-152.5 432,-133.5 378,-133.5"/>
<text text-anchor="middle" x="405" y="-140.5" font-family="Helvetica,sans-Serif" font-size="10.00">glEnable</text>
</a>
</g>
</g>
<!-- Node2&#45;&gt;Node7 -->
<g id="edge6" class="edge"><title>Node2&#45;&gt;Node7</title>
<path fill="none" stroke="midnightblue" d="M290.053,-155.514C315.741,-152.693 345.033,-149.476 367.485,-147.01"/>
<polygon fill="midnightblue" stroke="midnightblue" points="368.038,-150.471 377.596,-145.9 367.273,-143.513 368.038,-150.471"/>
</g>
<!-- Node8 -->
<g id="node8" class="node"><title>Node8</title>
<g id="a_node8"><a xlink:href="../../da/d33/glew_8h.html#af1e3a750be50d9edd85f0fe49a6fe4a0" target="_top" xlink:title="glShadeModel">
<polygon fill="white" stroke="black" points="366,-95.5 366,-114.5 444,-114.5 444,-95.5 366,-95.5"/>
<text text-anchor="middle" x="405" y="-102.5" font-family="Helvetica,sans-Serif" font-size="10.00">glShadeModel</text>
</a>
</g>
</g>
<!-- Node2&#45;&gt;Node8 -->
<g id="edge7" class="edge"><title>Node2&#45;&gt;Node8</title>
<path fill="none" stroke="midnightblue" d="M252.565,-152.356C271.615,-144.083 300.284,-132.23 326,-124 335.558,-120.941 345.909,-118.1 355.852,-115.596"/>
<polygon fill="midnightblue" stroke="midnightblue" points="356.731,-118.984 365.613,-113.209 355.068,-112.185 356.731,-118.984"/>
</g>
<!-- Node9 -->
<g id="node9" class="node"><title>Node9</title>
<g id="a_node9"><a xlink:href="../../da/d33/glew_8h.html#a5e3f489d997350749919a24247a8203b" target="_top" xlink:title="glPolygonMode">
<polygon fill="white" stroke="black" points="363.5,-57.5 363.5,-76.5 446.5,-76.5 446.5,-57.5 363.5,-57.5"/>
<text text-anchor="middle" x="405" y="-64.5" font-family="Helvetica,sans-Serif" font-size="10.00">glPolygonMode</text>
</a>
</g>
</g>
<!-- Node2&#45;&gt;Node9 -->
<g id="edge8" class="edge"><title>Node2&#45;&gt;Node9</title>
<path fill="none" stroke="midnightblue" d="M240.005,-152.469C255.834,-136.293 290.364,-103.516 326,-86 334.451,-81.8462 343.874,-78.5615 353.168,-75.9766"/>
<polygon fill="midnightblue" stroke="midnightblue" points="354.32,-79.2949 363.149,-73.4382 352.595,-72.5109 354.32,-79.2949"/>
</g>
<!-- Node10 -->
<g id="node10" class="node"><title>Node10</title>
<g id="a_node10"><a xlink:href="../../d2/d55/classGlobalUtil.html#ac91a1662f96ce5d1829dbb91db81be10" target="_top" xlink:title="GlobalUtil::SetTextureParameter">
<polygon fill="white" stroke="black" points="326,-19.5 326,-38.5 484,-38.5 484,-19.5 326,-19.5"/>
<text text-anchor="middle" x="405" y="-26.5" font-family="Helvetica,sans-Serif" font-size="10.00">GlobalUtil::SetTextureParameter</text>
</a>
</g>
</g>
<!-- Node2&#45;&gt;Node10 -->
<g id="edge9" class="edge"><title>Node2&#45;&gt;Node10</title>
<path fill="none" stroke="midnightblue" d="M236.186,-152.269C248.554,-130.05 282.057,-75.3968 326,-48 329.428,-45.8627 333.08,-43.9659 336.86,-42.2823"/>
<polygon fill="midnightblue" stroke="midnightblue" points="338.433,-45.4253 346.47,-38.5217 335.882,-38.9067 338.433,-45.4253"/>
</g>
<!-- Node11 -->
<g id="node11" class="node"><title>Node11</title>
<g id="a_node11"><a xlink:href="../../da/d33/glew_8h.html#ac8dbabff536e520bc700960dadd8d787" target="_top" xlink:title="glTexParameteri">
<polygon fill="white" stroke="black" points="520,-38.5 520,-57.5 608,-57.5 608,-38.5 520,-38.5"/>
<text text-anchor="middle" x="564" y="-45.5" font-family="Helvetica,sans-Serif" font-size="10.00">glTexParameteri</text>
</a>
</g>
</g>
<!-- Node10&#45;&gt;Node11 -->
<g id="edge10" class="edge"><title>Node10&#45;&gt;Node11</title>
<path fill="none" stroke="midnightblue" d="M484.04,-38.4443C492.698,-39.4921 501.363,-40.5408 509.615,-41.5393"/>
<polygon fill="midnightblue" stroke="midnightblue" points="509.465,-45.0467 519.813,-42.7736 510.306,-38.0974 509.465,-45.0467"/>
</g>
<!-- Node12 -->
<g id="node12" class="node"><title>Node12</title>
<g id="a_node12"><a xlink:href="../../da/d33/glew_8h.html#a414668e7628d609ce501994bd609bfdf" target="_top" xlink:title="glTexEnvi">
<polygon fill="white" stroke="black" points="534,-0.5 534,-19.5 594,-19.5 594,-0.5 534,-0.5"/>
<text text-anchor="middle" x="564" y="-7.5" font-family="Helvetica,sans-Serif" font-size="10.00">glTexEnvi</text>
</a>
</g>
</g>
<!-- Node10&#45;&gt;Node12 -->
<g id="edge11" class="edge"><title>Node10&#45;&gt;Node12</title>
<path fill="none" stroke="midnightblue" d="M484.04,-19.5557C497.73,-17.8989 511.439,-16.2399 523.501,-14.7801"/>
<polygon fill="midnightblue" stroke="midnightblue" points="524.128,-18.2299 533.635,-13.5537 523.287,-11.2806 524.128,-18.2299"/>
</g>
</g>
</svg>
        <g id="navigator" transform="translate(0 0)" fill="#404254">
                <rect fill="#f2f5e9" fill-opacity="0.5" stroke="#606060" stroke-width=".5" x="0" y="0" width="60" height="60"/>
                <use id="zoomplus" xlink:href="#zoomPlus" x="17" y="9" onmousedown="handleZoom(evt,'in')"/>
                <use id="zoomminus" xlink:href="#zoomMin" x="42" y="9" onmousedown="handleZoom(evt,'out')"/>
                <use id="reset" xlink:href="#resetDef" x="30" y="36" onmousedown="handleReset()"/>
                <g id="arrowUp" xlink:href="#dirArrow" transform="translate(30 24)" onmousedown="handlePan(0,-1)">
                  <use xlink:href="#rim" fill="#404040">
                        <set attributeName="fill" to="#808080" begin="arrowUp.mouseover" end="arrowUp.mouseout"/>
                  </use>
                  <path fill="none" stroke="white" stroke-width="1.5" d="M0,-3.0v7 M-2.5,-0.5L0,-3.0L2.5,-0.5"/>
                </g>
                <g id="arrowRight" xlink:href="#dirArrow" transform="rotate(90) translate(36 -43)" onmousedown="handlePan(1,0)">
                  <use xlink:href="#rim" fill="#404040">
                        <set attributeName="fill" to="#808080" begin="arrowRight.mouseover" end="arrowRight.mouseout"/>
                  </use>
                  <path fill="none" stroke="white" stroke-width="1.5" d="M0,-3.0v7 M-2.5,-0.5L0,-3.0L2.5,-0.5"/>
                </g>
                <g id="arrowDown" xlink:href="#dirArrow" transform="rotate(180) translate(-30 -48)" onmousedown="handlePan(0,1)">
                  <use xlink:href="#rim" fill="#404040">
                        <set attributeName="fill" to="#808080" begin="arrowDown.mouseover" end="arrowDown.mouseout"/>
                  </use>
                  <path fill="none" stroke="white" stroke-width="1.5" d="M0,-3.0v7 M-2.5,-0.5L0,-3.0L2.5,-0.5"/>
                </g>
                <g id="arrowLeft" xlink:href="#dirArrow" transform="rotate(270) translate(-36 17)" onmousedown="handlePan(-1,0)">
                  <use xlink:href="#rim" fill="#404040">
                        <set attributeName="fill" to="#808080" begin="arrowLeft.mouseover" end="arrowLeft.mouseout"/>
                  </use>
                  <path fill="none" stroke="white" stroke-width="1.5" d="M0,-3.0v7 M-2.5,-0.5L0,-3.0L2.5,-0.5"/>
                </g>
        </g>
        <svg viewBox="0 0 15 15" width="100%" height="30px" preserveAspectRatio="xMaxYMin meet">
         <g id="arrow_out" transform="scale(0.3 0.3)">
          <a xlink:href="classSiftMatchGL_a57c38e84b72b5ef50565e71fee5f86af_cgraph_org.svg" target="_base">
           <rect id="button" ry="5" rx="5" y="6" x="6" height="38" width="38"
                fill="#f2f5e9" fill-opacity="0.5" stroke="#606060" stroke-width="1.0"/>
           <path id="arrow"
             d="M 11.500037,31.436501 C 11.940474,20.09759 22.043105,11.32322 32.158766,21.979434 L 37.068811,17.246167 C 37.068811,17.246167 37.088388,32 37.088388,32 L 22.160133,31.978069 C 22.160133,31.978069 26.997745,27.140456 26.997745,27.140456 C 18.528582,18.264221 13.291696,25.230495 11.500037,31.436501 z"
             style="fill:#404040;"/>
          </a>
         </g>
        </svg>
</svg>
