<?xml version="1.0" encoding="UTF-8" standalone="no"?>
<!DOCTYPE svg PUBLIC "-//W3C//DTD SVG 1.1//EN"
 "http://www.w3.org/Graphics/SVG/1.1/DTD/svg11.dtd">
<!-- Generated by graphviz version 2.36.0 (20140111.2315)
 -->
<!-- Title: SiftMatchGL::GetGuidedSiftMatch Pages: 1 -->
<svg width="598pt" height="370pt"
 viewBox="0.00 0.00 598.00 370.00" xmlns="http://www.w3.org/2000/svg" xmlns:xlink="http://www.w3.org/1999/xlink">
<g id="graph0" class="graph" transform="scale(1 1) rotate(0) translate(4 366)">
<title>SiftMatchGL::GetGuidedSiftMatch</title>
<polygon fill="white" stroke="none" points="-4,4 -4,-366 594,-366 594,4 -4,4"/>
<!-- Node1 -->
<g id="node1" class="node"><title>Node1</title>
<polygon fill="#bfbfbf" stroke="black" points="0.5,-204 0.5,-234 139.5,-234 139.5,-204 0.5,-204"/>
<text text-anchor="start" x="8.5" y="-222" font-family="Helvetica,sans-Serif" font-size="10.00">SiftMatchGL::GetGuidedSift</text>
<text text-anchor="middle" x="70" y="-211" font-family="Helvetica,sans-Serif" font-size="10.00">Match</text>
</g>
<!-- Node2 -->
<g id="node2" class="node"><title>Node2</title>
<g id="a_node2"><a xlink:href="../../da/d33/glew_8h.html#a170c1426633472880793e711b06ef0df" target="_top" xlink:title="glDrawBuffer">
<polygon fill="white" stroke="black" points="213,-342.5 213,-361.5 287,-361.5 287,-342.5 213,-342.5"/>
<text text-anchor="middle" x="250" y="-349.5" font-family="Helvetica,sans-Serif" font-size="10.00">glDrawBuffer</text>
</a>
</g>
</g>
<!-- Node1&#45;&gt;Node2 -->
<g id="edge1" class="edge"><title>Node1&#45;&gt;Node2</title>
<path fill="none" stroke="midnightblue" d="M80.6332,-234.132C97.1035,-258.735 133.088,-307.245 176,-333 184.164,-337.9 193.578,-341.549 202.875,-344.262"/>
<polygon fill="midnightblue" stroke="midnightblue" points="202.292,-347.727 212.851,-346.855 204.053,-340.952 202.292,-347.727"/>
</g>
<!-- Node3 -->
<g id="node3" class="node"><title>Node3</title>
<g id="a_node3"><a xlink:href="../../df/da6/classGLTexImage.html#a57d1a67486a2d19508b4b4bb65cb0e88" target="_top" xlink:title="GLTexImage::SetImageSize">
<polygon fill="white" stroke="black" points="180,-304.5 180,-323.5 320,-323.5 320,-304.5 180,-304.5"/>
<text text-anchor="middle" x="250" y="-311.5" font-family="Helvetica,sans-Serif" font-size="10.00">GLTexImage::SetImageSize</text>
</a>
</g>
</g>
<!-- Node1&#45;&gt;Node3 -->
<g id="edge2" class="edge"><title>Node1&#45;&gt;Node3</title>
<path fill="none" stroke="midnightblue" d="M87.5698,-234.052C107.271,-251.185 141.805,-278.877 176,-295 181.034,-297.374 186.409,-299.483 191.872,-301.35"/>
<polygon fill="midnightblue" stroke="midnightblue" points="191.158,-304.794 201.748,-304.454 193.257,-298.116 191.158,-304.794"/>
</g>
<!-- Node4 -->
<g id="node4" class="node"><title>Node4</title>
<g id="a_node4"><a xlink:href="../../df/da6/classGLTexImage.html#aeb3373705e8eae0feac654a24ac80321" target="_top" xlink:title="GLTexImage::AttachToFBO">
<polygon fill="white" stroke="black" points="180.5,-266.5 180.5,-285.5 319.5,-285.5 319.5,-266.5 180.5,-266.5"/>
<text text-anchor="middle" x="250" y="-273.5" font-family="Helvetica,sans-Serif" font-size="10.00">GLTexImage::AttachToFBO</text>
</a>
</g>
</g>
<!-- Node1&#45;&gt;Node4 -->
<g id="edge3" class="edge"><title>Node1&#45;&gt;Node4</title>
<path fill="none" stroke="midnightblue" d="M110.098,-234.125C129.73,-241.47 153.967,-250.162 176,-257 183.563,-259.347 191.626,-261.646 199.531,-263.787"/>
<polygon fill="midnightblue" stroke="midnightblue" points="198.847,-267.227 209.41,-266.408 200.642,-260.461 198.847,-267.227"/>
</g>
<!-- Node5 -->
<g id="node5" class="node"><title>Node5</title>
<g id="a_node5"><a xlink:href="../../df/da6/classGLTexImage.html#a1829045508d6dac9fa58842bdc7d5fc9" target="_top" xlink:title="GLTexImage::FitTexViewPort">
<polygon fill="white" stroke="black" points="177,-228.5 177,-247.5 323,-247.5 323,-228.5 177,-228.5"/>
<text text-anchor="middle" x="250" y="-235.5" font-family="Helvetica,sans-Serif" font-size="10.00">GLTexImage::FitTexViewPort</text>
</a>
</g>
</g>
<!-- Node1&#45;&gt;Node5 -->
<g id="edge4" class="edge"><title>Node1&#45;&gt;Node5</title>
<path fill="none" stroke="midnightblue" d="M139.565,-226.319C148.459,-227.268 157.642,-228.248 166.73,-229.218"/>
<polygon fill="midnightblue" stroke="midnightblue" points="166.616,-232.726 176.931,-230.307 167.359,-225.766 166.616,-232.726"/>
</g>
<!-- Node12 -->
<g id="node12" class="node"><title>Node12</title>
<g id="a_node12"><a xlink:href="../../df/da6/classGLTexImage.html#a6df86f3c5a5bf3485c25236e317b4013" target="_top" xlink:title="GLTexImage::BindTex">
<polygon fill="white" stroke="black" points="192.5,-190.5 192.5,-209.5 307.5,-209.5 307.5,-190.5 192.5,-190.5"/>
<text text-anchor="middle" x="250" y="-197.5" font-family="Helvetica,sans-Serif" font-size="10.00">GLTexImage::BindTex</text>
</a>
</g>
</g>
<!-- Node1&#45;&gt;Node12 -->
<g id="edge11" class="edge"><title>Node1&#45;&gt;Node12</title>
<path fill="none" stroke="midnightblue" d="M139.565,-211.681C153.593,-210.184 168.336,-208.61 182.298,-207.12"/>
<polygon fill="midnightblue" stroke="midnightblue" points="182.732,-210.594 192.304,-206.052 181.989,-203.633 182.732,-210.594"/>
</g>
<!-- Node14 -->
<g id="node14" class="node"><title>Node14</title>
<g id="a_node14"><a xlink:href="../../d9/d26/classProgramGPU.html#acd625b26fa073fc83ec0be9badb29635" target="_top" xlink:title="ProgramGPU::UseProgram">
<polygon fill="white" stroke="black" points="182,-152.5 182,-171.5 318,-171.5 318,-152.5 182,-152.5"/>
<text text-anchor="middle" x="250" y="-159.5" font-family="Helvetica,sans-Serif" font-size="10.00">ProgramGPU::UseProgram</text>
</a>
</g>
</g>
<!-- Node1&#45;&gt;Node14 -->
<g id="edge13" class="edge"><title>Node1&#45;&gt;Node14</title>
<path fill="none" stroke="midnightblue" d="M110.098,-203.875C129.73,-196.53 153.967,-187.838 176,-181 183.563,-178.653 191.626,-176.354 199.531,-174.213"/>
<polygon fill="midnightblue" stroke="midnightblue" points="200.642,-177.539 209.41,-171.592 198.847,-170.773 200.642,-177.539"/>
</g>
<!-- Node15 -->
<g id="node15" class="node"><title>Node15</title>
<g id="a_node15"><a xlink:href="../../df/da6/classGLTexImage.html#ab991a4b37a9d9a3e6490549b50253729" target="_top" xlink:title="GLTexImage::DrawQuad">
<polygon fill="white" stroke="black" points="187.5,-76.5 187.5,-95.5 312.5,-95.5 312.5,-76.5 187.5,-76.5"/>
<text text-anchor="middle" x="250" y="-83.5" font-family="Helvetica,sans-Serif" font-size="10.00">GLTexImage::DrawQuad</text>
</a>
</g>
</g>
<!-- Node1&#45;&gt;Node15 -->
<g id="edge14" class="edge"><title>Node1&#45;&gt;Node15</title>
<path fill="none" stroke="midnightblue" d="M80.6332,-203.868C97.1035,-179.265 133.088,-130.755 176,-105 179.663,-102.801 183.579,-100.854 187.622,-99.131"/>
<polygon fill="midnightblue" stroke="midnightblue" points="189.113,-102.309 197.231,-95.5014 186.64,-95.7608 189.113,-102.309"/>
</g>
<!-- Node21 -->
<g id="node21" class="node"><title>Node21</title>
<g id="a_node21"><a xlink:href="../../df/da6/classGLTexImage.html#af3929f0108cc3c43983c0fc952199869" target="_top" xlink:title="GLTexImage::UnbindMultiTex">
<polygon fill="white" stroke="black" points="176.5,-114.5 176.5,-133.5 323.5,-133.5 323.5,-114.5 176.5,-114.5"/>
<text text-anchor="middle" x="250" y="-121.5" font-family="Helvetica,sans-Serif" font-size="10.00">GLTexImage::UnbindMultiTex</text>
</a>
</g>
</g>
<!-- Node1&#45;&gt;Node21 -->
<g id="edge20" class="edge"><title>Node1&#45;&gt;Node21</title>
<path fill="none" stroke="midnightblue" d="M87.5698,-203.948C107.271,-186.815 141.805,-159.123 176,-143 181.034,-140.626 186.409,-138.517 191.872,-136.65"/>
<polygon fill="midnightblue" stroke="midnightblue" points="193.257,-139.884 201.748,-133.546 191.158,-133.206 193.257,-139.884"/>
</g>
<!-- Node6 -->
<g id="node6" class="node"><title>Node6</title>
<g id="a_node6"><a xlink:href="../../d2/d55/classGlobalUtil.html#a30830c22f7574d8d6f5a5b0a0b31ad50" target="_top" xlink:title="GlobalUtil::FitViewPort">
<polygon fill="white" stroke="black" points="360,-228.5 360,-247.5 476,-247.5 476,-228.5 360,-228.5"/>
<text text-anchor="middle" x="418" y="-235.5" font-family="Helvetica,sans-Serif" font-size="10.00">GlobalUtil::FitViewPort</text>
</a>
</g>
</g>
<!-- Node5&#45;&gt;Node6 -->
<g id="edge5" class="edge"><title>Node5&#45;&gt;Node6</title>
<path fill="none" stroke="midnightblue" d="M323.327,-238C332.119,-238 341.073,-238 349.786,-238"/>
<polygon fill="midnightblue" stroke="midnightblue" points="349.88,-241.5 359.879,-238 349.879,-234.5 349.88,-241.5"/>
</g>
<!-- Node7 -->
<g id="node7" class="node"><title>Node7</title>
<g id="a_node7"><a xlink:href="../../da/d33/glew_8h.html#ae9ebc290561b3321b629610807155a35" target="_top" xlink:title="glGetIntegerv">
<polygon fill="white" stroke="black" points="513.5,-304.5 513.5,-323.5 588.5,-323.5 588.5,-304.5 513.5,-304.5"/>
<text text-anchor="middle" x="551" y="-311.5" font-family="Helvetica,sans-Serif" font-size="10.00">glGetIntegerv</text>
</a>
</g>
</g>
<!-- Node6&#45;&gt;Node7 -->
<g id="edge6" class="edge"><title>Node6&#45;&gt;Node7</title>
<path fill="none" stroke="midnightblue" d="M433.905,-247.686C452.077,-259.366 483.853,-279.375 512,-295 514.902,-296.611 517.958,-298.243 521.024,-299.838"/>
<polygon fill="midnightblue" stroke="midnightblue" points="519.609,-303.045 530.109,-304.458 522.782,-296.805 519.609,-303.045"/>
</g>
<!-- Node8 -->
<g id="node8" class="node"><title>Node8</title>
<g id="a_node8"><a xlink:href="../../da/d33/glew_8h.html#a8e93835e91933b7078c88f905dd8599c" target="_top" xlink:title="glViewport">
<polygon fill="white" stroke="black" points="520,-266.5 520,-285.5 582,-285.5 582,-266.5 520,-266.5"/>
<text text-anchor="middle" x="551" y="-273.5" font-family="Helvetica,sans-Serif" font-size="10.00">glViewport</text>
</a>
</g>
</g>
<!-- Node6&#45;&gt;Node8 -->
<g id="edge7" class="edge"><title>Node6&#45;&gt;Node8</title>
<path fill="none" stroke="midnightblue" d="M452.057,-247.589C469.661,-252.696 491.448,-259.016 510.001,-264.397"/>
<polygon fill="midnightblue" stroke="midnightblue" points="509.068,-267.771 519.648,-267.195 511.019,-261.048 509.068,-267.771"/>
</g>
<!-- Node9 -->
<g id="node9" class="node"><title>Node9</title>
<g id="a_node9"><a xlink:href="../../da/d33/glew_8h.html#af14e38e22806d0220680b52edbc3bcef" target="_top" xlink:title="glMatrixMode">
<polygon fill="white" stroke="black" points="513.5,-228.5 513.5,-247.5 588.5,-247.5 588.5,-228.5 513.5,-228.5"/>
<text text-anchor="middle" x="551" y="-235.5" font-family="Helvetica,sans-Serif" font-size="10.00">glMatrixMode</text>
</a>
</g>
</g>
<!-- Node6&#45;&gt;Node9 -->
<g id="edge8" class="edge"><title>Node6&#45;&gt;Node9</title>
<path fill="none" stroke="midnightblue" d="M476.077,-238C485.196,-238 494.536,-238 503.374,-238"/>
<polygon fill="midnightblue" stroke="midnightblue" points="503.477,-241.5 513.477,-238 503.477,-234.5 503.477,-241.5"/>
</g>
<!-- Node10 -->
<g id="node10" class="node"><title>Node10</title>
<g id="a_node10"><a xlink:href="../../da/d33/glew_8h.html#a6577472f85b23086331edadaf0311a49" target="_top" xlink:title="glLoadIdentity">
<polygon fill="white" stroke="black" points="512.5,-190.5 512.5,-209.5 589.5,-209.5 589.5,-190.5 512.5,-190.5"/>
<text text-anchor="middle" x="551" y="-197.5" font-family="Helvetica,sans-Serif" font-size="10.00">glLoadIdentity</text>
</a>
</g>
</g>
<!-- Node6&#45;&gt;Node10 -->
<g id="edge9" class="edge"><title>Node6&#45;&gt;Node10</title>
<path fill="none" stroke="midnightblue" d="M452.057,-228.411C468.813,-223.551 489.358,-217.591 507.297,-212.387"/>
<polygon fill="midnightblue" stroke="midnightblue" points="508.325,-215.733 516.954,-209.586 506.375,-209.01 508.325,-215.733"/>
</g>
<!-- Node11 -->
<g id="node11" class="node"><title>Node11</title>
<g id="a_node11"><a xlink:href="../../da/d33/glew_8h.html#a2d92120b1fad876057dfd00e2d942525" target="_top" xlink:title="glOrtho">
<polygon fill="white" stroke="black" points="527,-152.5 527,-171.5 575,-171.5 575,-152.5 527,-152.5"/>
<text text-anchor="middle" x="551" y="-159.5" font-family="Helvetica,sans-Serif" font-size="10.00">glOrtho</text>
</a>
</g>
</g>
<!-- Node6&#45;&gt;Node11 -->
<g id="edge10" class="edge"><title>Node6&#45;&gt;Node11</title>
<path fill="none" stroke="midnightblue" d="M456.392,-228.474C463.191,-225.937 470.017,-222.81 476,-219 495.623,-206.503 493.312,-194.857 512,-181 514.074,-179.462 516.291,-177.99 518.573,-176.594"/>
<polygon fill="midnightblue" stroke="midnightblue" points="520.496,-179.529 527.534,-171.61 517.094,-173.412 520.496,-179.529"/>
</g>
<!-- Node13 -->
<g id="node13" class="node"><title>Node13</title>
<g id="a_node13"><a xlink:href="../../da/d33/glew_8h.html#a940f58f3728713267a58e2d09ff602b2" target="_top" xlink:title="glBindTexture">
<polygon fill="white" stroke="black" points="379.5,-190.5 379.5,-209.5 456.5,-209.5 456.5,-190.5 379.5,-190.5"/>
<text text-anchor="middle" x="418" y="-197.5" font-family="Helvetica,sans-Serif" font-size="10.00">glBindTexture</text>
</a>
</g>
</g>
<!-- Node12&#45;&gt;Node13 -->
<g id="edge12" class="edge"><title>Node12&#45;&gt;Node13</title>
<path fill="none" stroke="midnightblue" d="M307.663,-200C327.726,-200 350.08,-200 369.32,-200"/>
<polygon fill="midnightblue" stroke="midnightblue" points="369.361,-203.5 379.361,-200 369.361,-196.5 369.361,-203.5"/>
</g>
<!-- Node16 -->
<g id="node16" class="node"><title>Node16</title>
<g id="a_node16"><a xlink:href="../../da/d33/glew_8h.html#a98964453975519f92d6cc59ef77f7436" target="_top" xlink:title="glBegin">
<polygon fill="white" stroke="black" points="393.5,-152.5 393.5,-171.5 442.5,-171.5 442.5,-152.5 393.5,-152.5"/>
<text text-anchor="middle" x="418" y="-159.5" font-family="Helvetica,sans-Serif" font-size="10.00">glBegin</text>
</a>
</g>
</g>
<!-- Node15&#45;&gt;Node16 -->
<g id="edge15" class="edge"><title>Node15&#45;&gt;Node16</title>
<path fill="none" stroke="midnightblue" d="M302.72,-95.5837C310.136,-98.0493 317.46,-101.137 324,-105 344.031,-116.832 340.377,-130.503 360,-143 367.193,-147.581 375.606,-151.174 383.725,-153.943"/>
<polygon fill="midnightblue" stroke="midnightblue" points="382.794,-157.318 393.381,-156.922 384.858,-150.629 382.794,-157.318"/>
</g>
<!-- Node17 -->
<g id="node17" class="node"><title>Node17</title>
<g id="a_node17"><a xlink:href="../../da/d33/glew_8h.html#a09db6f9fa0d39ef7e3919e6212296ece" target="_top" xlink:title="glTexCoord2f">
<polygon fill="white" stroke="black" points="380.5,-114.5 380.5,-133.5 455.5,-133.5 455.5,-114.5 380.5,-114.5"/>
<text text-anchor="middle" x="418" y="-121.5" font-family="Helvetica,sans-Serif" font-size="10.00">glTexCoord2f</text>
</a>
</g>
</g>
<!-- Node15&#45;&gt;Node17 -->
<g id="edge16" class="edge"><title>Node15&#45;&gt;Node17</title>
<path fill="none" stroke="midnightblue" d="M292.889,-95.589C316.61,-101.019 346.324,-107.821 370.731,-113.408"/>
<polygon fill="midnightblue" stroke="midnightblue" points="369.958,-116.822 380.487,-115.642 371.52,-109.998 369.958,-116.822"/>
</g>
<!-- Node18 -->
<g id="node18" class="node"><title>Node18</title>
<g id="a_node18"><a xlink:href="../../da/d33/glew_8h.html#a474f4498ace02f86e7f299eb8bf27da3" target="_top" xlink:title="glVertex2f">
<polygon fill="white" stroke="black" points="387.5,-76.5 387.5,-95.5 448.5,-95.5 448.5,-76.5 387.5,-76.5"/>
<text text-anchor="middle" x="418" y="-83.5" font-family="Helvetica,sans-Serif" font-size="10.00">glVertex2f</text>
</a>
</g>
</g>
<!-- Node15&#45;&gt;Node18 -->
<g id="edge17" class="edge"><title>Node15&#45;&gt;Node18</title>
<path fill="none" stroke="midnightblue" d="M312.812,-86C334.279,-86 357.772,-86 377.007,-86"/>
<polygon fill="midnightblue" stroke="midnightblue" points="377.215,-89.5001 387.215,-86 377.215,-82.5001 377.215,-89.5001"/>
</g>
<!-- Node19 -->
<g id="node19" class="node"><title>Node19</title>
<g id="a_node19"><a xlink:href="../../da/d33/glew_8h.html#abbff207d1fa71b296ff35b149cef7238" target="_top" xlink:title="glEnd">
<polygon fill="white" stroke="black" points="397.5,-38.5 397.5,-57.5 438.5,-57.5 438.5,-38.5 397.5,-38.5"/>
<text text-anchor="middle" x="418" y="-45.5" font-family="Helvetica,sans-Serif" font-size="10.00">glEnd</text>
</a>
</g>
</g>
<!-- Node15&#45;&gt;Node19 -->
<g id="edge18" class="edge"><title>Node15&#45;&gt;Node19</title>
<path fill="none" stroke="midnightblue" d="M292.889,-76.411C322.396,-69.6563 361.178,-60.7785 387.48,-54.7575"/>
<polygon fill="midnightblue" stroke="midnightblue" points="388.277,-58.1657 397.244,-52.5224 386.715,-51.3422 388.277,-58.1657"/>
</g>
<!-- Node20 -->
<g id="node20" class="node"><title>Node20</title>
<g id="a_node20"><a xlink:href="../../da/d33/glew_8h.html#afb3e087fc26a916a909d46ead9cfc44a" target="_top" xlink:title="glFlush">
<polygon fill="white" stroke="black" points="394,-0.5 394,-19.5 442,-19.5 442,-0.5 394,-0.5"/>
<text text-anchor="middle" x="418" y="-7.5" font-family="Helvetica,sans-Serif" font-size="10.00">glFlush</text>
</a>
</g>
</g>
<!-- Node15&#45;&gt;Node20 -->
<g id="edge19" class="edge"><title>Node15&#45;&gt;Node20</title>
<path fill="none" stroke="midnightblue" d="M267.221,-76.4662C288.174,-64.3991 325.998,-43.4475 360,-29 367.781,-25.6939 376.348,-22.5768 384.424,-19.8604"/>
<polygon fill="midnightblue" stroke="midnightblue" points="385.52,-23.1844 393.945,-16.7599 383.353,-16.5284 385.52,-23.1844"/>
</g>
<!-- Node21&#45;&gt;Node13 -->
<g id="edge21" class="edge"><title>Node21&#45;&gt;Node13</title>
<path fill="none" stroke="midnightblue" d="M302.72,-133.584C310.136,-136.049 317.46,-139.137 324,-143 344.031,-154.832 340.377,-168.503 360,-181 363.178,-183.024 366.595,-184.855 370.119,-186.508"/>
<polygon fill="midnightblue" stroke="midnightblue" points="369.032,-189.847 379.608,-190.474 371.732,-183.389 369.032,-189.847"/>
</g>
</g>
</svg>
