<?xml version="1.0" encoding="UTF-8" standalone="no"?>
<!DOCTYPE svg PUBLIC "-//W3C//DTD SVG 1.1//EN"
 "http://www.w3.org/Graphics/SVG/1.1/DTD/svg11.dtd">
<!-- Generated by graphviz version 2.36.0 (20140111.2315)
 -->
<!-- Title: SiftMatchGL::GetSiftMatch Pages: 1 -->
<svg width="592pt" height="370pt"
 viewBox="0.00 0.00 592.00 370.00" xmlns="http://www.w3.org/2000/svg" xmlns:xlink="http://www.w3.org/1999/xlink">
<g id="graph0" class="graph" transform="scale(1 1) rotate(0) translate(4 366)">
<title>SiftMatchGL::GetSiftMatch</title>
<polygon fill="white" stroke="none" points="-4,4 -4,-366 588,-366 588,4 -4,4"/>
<!-- Node1 -->
<g id="node1" class="node"><title>Node1</title>
<polygon fill="#bfbfbf" stroke="black" points="0.5,-209.5 0.5,-228.5 135.5,-228.5 135.5,-209.5 0.5,-209.5"/>
<text text-anchor="middle" x="68" y="-216.5" font-family="Helvetica,sans-Serif" font-size="10.00">SiftMatchGL::GetSiftMatch</text>
</g>
<!-- Node2 -->
<g id="node2" class="node"><title>Node2</title>
<g id="a_node2"><a xlink:href="../../da/d33/glew_8h.html#a170c1426633472880793e711b06ef0df" target="_top" xlink:title="glDrawBuffer">
<polygon fill="white" stroke="black" points="208,-342.5 208,-361.5 282,-361.5 282,-342.5 208,-342.5"/>
<text text-anchor="middle" x="245" y="-349.5" font-family="Helvetica,sans-Serif" font-size="10.00">glDrawBuffer</text>
</a>
</g>
</g>
<!-- Node1&#45;&gt;Node2 -->
<g id="edge1" class="edge"><title>Node1&#45;&gt;Node2</title>
<path fill="none" stroke="midnightblue" d="M74.8792,-228.663C88.8281,-250.74 126.21,-305.113 172,-333 179.946,-337.84 189.115,-341.46 198.191,-344.163"/>
<polygon fill="midnightblue" stroke="midnightblue" points="197.378,-347.569 207.941,-346.752 199.174,-340.803 197.378,-347.569"/>
</g>
<!-- Node3 -->
<g id="node3" class="node"><title>Node3</title>
<g id="a_node3"><a xlink:href="../../df/da6/classGLTexImage.html#a57d1a67486a2d19508b4b4bb65cb0e88" target="_top" xlink:title="GLTexImage::SetImageSize">
<polygon fill="white" stroke="black" points="175,-304.5 175,-323.5 315,-323.5 315,-304.5 175,-304.5"/>
<text text-anchor="middle" x="245" y="-311.5" font-family="Helvetica,sans-Serif" font-size="10.00">GLTexImage::SetImageSize</text>
</a>
</g>
</g>
<!-- Node1&#45;&gt;Node3 -->
<g id="edge2" class="edge"><title>Node1&#45;&gt;Node3</title>
<path fill="none" stroke="midnightblue" d="M79.2467,-228.674C96.8386,-244.767 134.523,-277.042 172,-295 176.955,-297.374 182.249,-299.484 187.633,-301.351"/>
<polygon fill="midnightblue" stroke="midnightblue" points="186.777,-304.752 197.368,-304.456 188.904,-298.083 186.777,-304.752"/>
</g>
<!-- Node4 -->
<g id="node4" class="node"><title>Node4</title>
<g id="a_node4"><a xlink:href="../../df/da6/classGLTexImage.html#aeb3373705e8eae0feac654a24ac80321" target="_top" xlink:title="GLTexImage::AttachToFBO">
<polygon fill="white" stroke="black" points="175.5,-266.5 175.5,-285.5 314.5,-285.5 314.5,-266.5 175.5,-266.5"/>
<text text-anchor="middle" x="245" y="-273.5" font-family="Helvetica,sans-Serif" font-size="10.00">GLTexImage::AttachToFBO</text>
</a>
</g>
</g>
<!-- Node1&#45;&gt;Node4 -->
<g id="edge3" class="edge"><title>Node1&#45;&gt;Node4</title>
<path fill="none" stroke="midnightblue" d="M92.9169,-228.562C113.65,-236.673 144.554,-248.337 172,-257 179.455,-259.353 187.405,-261.654 195.201,-263.797"/>
<polygon fill="midnightblue" stroke="midnightblue" points="194.378,-267.2 204.944,-266.419 196.197,-260.441 194.378,-267.2"/>
</g>
<!-- Node5 -->
<g id="node5" class="node"><title>Node5</title>
<g id="a_node5"><a xlink:href="../../df/da6/classGLTexImage.html#a1829045508d6dac9fa58842bdc7d5fc9" target="_top" xlink:title="GLTexImage::FitTexViewPort">
<polygon fill="white" stroke="black" points="172,-228.5 172,-247.5 318,-247.5 318,-228.5 172,-228.5"/>
<text text-anchor="middle" x="245" y="-235.5" font-family="Helvetica,sans-Serif" font-size="10.00">GLTexImage::FitTexViewPort</text>
</a>
</g>
</g>
<!-- Node1&#45;&gt;Node5 -->
<g id="edge4" class="edge"><title>Node1&#45;&gt;Node5</title>
<path fill="none" stroke="midnightblue" d="M135.659,-226.237C144.199,-227.164 153.019,-228.122 161.769,-229.072"/>
<polygon fill="midnightblue" stroke="midnightblue" points="161.668,-232.582 171.987,-230.181 162.423,-225.622 161.668,-232.582"/>
</g>
<!-- Node12 -->
<g id="node12" class="node"><title>Node12</title>
<g id="a_node12"><a xlink:href="../../df/da6/classGLTexImage.html#a6df86f3c5a5bf3485c25236e317b4013" target="_top" xlink:title="GLTexImage::BindTex">
<polygon fill="white" stroke="black" points="187.5,-190.5 187.5,-209.5 302.5,-209.5 302.5,-190.5 187.5,-190.5"/>
<text text-anchor="middle" x="245" y="-197.5" font-family="Helvetica,sans-Serif" font-size="10.00">GLTexImage::BindTex</text>
</a>
</g>
</g>
<!-- Node1&#45;&gt;Node12 -->
<g id="edge11" class="edge"><title>Node1&#45;&gt;Node12</title>
<path fill="none" stroke="midnightblue" d="M135.659,-211.763C149.206,-210.292 163.461,-208.744 177.019,-207.272"/>
<polygon fill="midnightblue" stroke="midnightblue" points="177.664,-210.723 187.228,-206.164 176.908,-203.764 177.664,-210.723"/>
</g>
<!-- Node13 -->
<g id="node13" class="node"><title>Node13</title>
<g id="a_node13"><a xlink:href="../../da/d33/glew_8h.html#a940f58f3728713267a58e2d09ff602b2" target="_top" xlink:title="glBindTexture">
<polygon fill="white" stroke="black" points="373.5,-190.5 373.5,-209.5 450.5,-209.5 450.5,-190.5 373.5,-190.5"/>
<text text-anchor="middle" x="412" y="-197.5" font-family="Helvetica,sans-Serif" font-size="10.00">glBindTexture</text>
</a>
</g>
</g>
<!-- Node1&#45;&gt;Node13 -->
<g id="edge20" class="edge"><title>Node1&#45;&gt;Node13</title>
<path fill="none" stroke="midnightblue" d="M88.545,-209.414C108.841,-200.034 141.791,-186.395 172,-181 235.878,-169.592 253.44,-174.473 318,-181 332.777,-182.494 348.675,-185.291 363.075,-188.288"/>
<polygon fill="midnightblue" stroke="midnightblue" points="362.743,-191.797 373.257,-190.49 364.223,-184.956 362.743,-191.797"/>
</g>
<!-- Node14 -->
<g id="node14" class="node"><title>Node14</title>
<g id="a_node14"><a xlink:href="../../d9/d26/classProgramGPU.html#acd625b26fa073fc83ec0be9badb29635" target="_top" xlink:title="ProgramGPU::UseProgram">
<polygon fill="white" stroke="black" points="177,-114.5 177,-133.5 313,-133.5 313,-114.5 177,-114.5"/>
<text text-anchor="middle" x="245" y="-121.5" font-family="Helvetica,sans-Serif" font-size="10.00">ProgramGPU::UseProgram</text>
</a>
</g>
</g>
<!-- Node1&#45;&gt;Node14 -->
<g id="edge13" class="edge"><title>Node1&#45;&gt;Node14</title>
<path fill="none" stroke="midnightblue" d="M80.6731,-209.3C99.0824,-194.398 136.433,-165.739 172,-148 180.486,-143.768 189.891,-140.018 199.028,-136.815"/>
<polygon fill="midnightblue" stroke="midnightblue" points="200.405,-140.045 208.78,-133.556 198.187,-133.406 200.405,-140.045"/>
</g>
<!-- Node15 -->
<g id="node15" class="node"><title>Node15</title>
<g id="a_node15"><a xlink:href="../../df/da6/classGLTexImage.html#ab991a4b37a9d9a3e6490549b50253729" target="_top" xlink:title="GLTexImage::DrawQuad">
<polygon fill="white" stroke="black" points="182.5,-76.5 182.5,-95.5 307.5,-95.5 307.5,-76.5 182.5,-76.5"/>
<text text-anchor="middle" x="245" y="-83.5" font-family="Helvetica,sans-Serif" font-size="10.00">GLTexImage::DrawQuad</text>
</a>
</g>
</g>
<!-- Node1&#45;&gt;Node15 -->
<g id="edge14" class="edge"><title>Node1&#45;&gt;Node15</title>
<path fill="none" stroke="midnightblue" d="M74.8792,-209.337C88.8281,-187.26 126.21,-132.887 172,-105 175.602,-102.806 179.456,-100.863 183.438,-99.142"/>
<polygon fill="midnightblue" stroke="midnightblue" points="184.818,-102.361 192.905,-95.5167 182.315,-95.8241 184.818,-102.361"/>
</g>
<!-- Node6 -->
<g id="node6" class="node"><title>Node6</title>
<g id="a_node6"><a xlink:href="../../d2/d55/classGlobalUtil.html#a30830c22f7574d8d6f5a5b0a0b31ad50" target="_top" xlink:title="GlobalUtil::FitViewPort">
<polygon fill="white" stroke="black" points="354,-228.5 354,-247.5 470,-247.5 470,-228.5 354,-228.5"/>
<text text-anchor="middle" x="412" y="-235.5" font-family="Helvetica,sans-Serif" font-size="10.00">GlobalUtil::FitViewPort</text>
</a>
</g>
</g>
<!-- Node5&#45;&gt;Node6 -->
<g id="edge5" class="edge"><title>Node5&#45;&gt;Node6</title>
<path fill="none" stroke="midnightblue" d="M318.371,-238C326.651,-238 335.07,-238 343.286,-238"/>
<polygon fill="midnightblue" stroke="midnightblue" points="343.559,-241.5 353.559,-238 343.559,-234.5 343.559,-241.5"/>
</g>
<!-- Node7 -->
<g id="node7" class="node"><title>Node7</title>
<g id="a_node7"><a xlink:href="../../da/d33/glew_8h.html#ae9ebc290561b3321b629610807155a35" target="_top" xlink:title="glGetIntegerv">
<polygon fill="white" stroke="black" points="507.5,-304.5 507.5,-323.5 582.5,-323.5 582.5,-304.5 507.5,-304.5"/>
<text text-anchor="middle" x="545" y="-311.5" font-family="Helvetica,sans-Serif" font-size="10.00">glGetIntegerv</text>
</a>
</g>
</g>
<!-- Node6&#45;&gt;Node7 -->
<g id="edge6" class="edge"><title>Node6&#45;&gt;Node7</title>
<path fill="none" stroke="midnightblue" d="M427.905,-247.686C446.077,-259.366 477.853,-279.375 506,-295 508.902,-296.611 511.958,-298.243 515.024,-299.838"/>
<polygon fill="midnightblue" stroke="midnightblue" points="513.609,-303.045 524.109,-304.458 516.782,-296.805 513.609,-303.045"/>
</g>
<!-- Node8 -->
<g id="node8" class="node"><title>Node8</title>
<g id="a_node8"><a xlink:href="../../da/d33/glew_8h.html#a8e93835e91933b7078c88f905dd8599c" target="_top" xlink:title="glViewport">
<polygon fill="white" stroke="black" points="514,-266.5 514,-285.5 576,-285.5 576,-266.5 514,-266.5"/>
<text text-anchor="middle" x="545" y="-273.5" font-family="Helvetica,sans-Serif" font-size="10.00">glViewport</text>
</a>
</g>
</g>
<!-- Node6&#45;&gt;Node8 -->
<g id="edge7" class="edge"><title>Node6&#45;&gt;Node8</title>
<path fill="none" stroke="midnightblue" d="M446.057,-247.589C463.661,-252.696 485.448,-259.016 504.001,-264.397"/>
<polygon fill="midnightblue" stroke="midnightblue" points="503.068,-267.771 513.648,-267.195 505.019,-261.048 503.068,-267.771"/>
</g>
<!-- Node9 -->
<g id="node9" class="node"><title>Node9</title>
<g id="a_node9"><a xlink:href="../../da/d33/glew_8h.html#af14e38e22806d0220680b52edbc3bcef" target="_top" xlink:title="glMatrixMode">
<polygon fill="white" stroke="black" points="507.5,-228.5 507.5,-247.5 582.5,-247.5 582.5,-228.5 507.5,-228.5"/>
<text text-anchor="middle" x="545" y="-235.5" font-family="Helvetica,sans-Serif" font-size="10.00">glMatrixMode</text>
</a>
</g>
</g>
<!-- Node6&#45;&gt;Node9 -->
<g id="edge8" class="edge"><title>Node6&#45;&gt;Node9</title>
<path fill="none" stroke="midnightblue" d="M470.077,-238C479.196,-238 488.536,-238 497.374,-238"/>
<polygon fill="midnightblue" stroke="midnightblue" points="497.477,-241.5 507.477,-238 497.477,-234.5 497.477,-241.5"/>
</g>
<!-- Node10 -->
<g id="node10" class="node"><title>Node10</title>
<g id="a_node10"><a xlink:href="../../da/d33/glew_8h.html#a6577472f85b23086331edadaf0311a49" target="_top" xlink:title="glLoadIdentity">
<polygon fill="white" stroke="black" points="506.5,-190.5 506.5,-209.5 583.5,-209.5 583.5,-190.5 506.5,-190.5"/>
<text text-anchor="middle" x="545" y="-197.5" font-family="Helvetica,sans-Serif" font-size="10.00">glLoadIdentity</text>
</a>
</g>
</g>
<!-- Node6&#45;&gt;Node10 -->
<g id="edge9" class="edge"><title>Node6&#45;&gt;Node10</title>
<path fill="none" stroke="midnightblue" d="M446.057,-228.411C462.813,-223.551 483.358,-217.591 501.297,-212.387"/>
<polygon fill="midnightblue" stroke="midnightblue" points="502.325,-215.733 510.954,-209.586 500.375,-209.01 502.325,-215.733"/>
</g>
<!-- Node11 -->
<g id="node11" class="node"><title>Node11</title>
<g id="a_node11"><a xlink:href="../../da/d33/glew_8h.html#a2d92120b1fad876057dfd00e2d942525" target="_top" xlink:title="glOrtho">
<polygon fill="white" stroke="black" points="521,-152.5 521,-171.5 569,-171.5 569,-152.5 521,-152.5"/>
<text text-anchor="middle" x="545" y="-159.5" font-family="Helvetica,sans-Serif" font-size="10.00">glOrtho</text>
</a>
</g>
</g>
<!-- Node6&#45;&gt;Node11 -->
<g id="edge10" class="edge"><title>Node6&#45;&gt;Node11</title>
<path fill="none" stroke="midnightblue" d="M450.392,-228.474C457.191,-225.937 464.017,-222.81 470,-219 489.623,-206.503 487.312,-194.857 506,-181 508.074,-179.462 510.291,-177.99 512.573,-176.594"/>
<polygon fill="midnightblue" stroke="midnightblue" points="514.496,-179.529 521.534,-171.61 511.094,-173.412 514.496,-179.529"/>
</g>
<!-- Node12&#45;&gt;Node13 -->
<g id="edge12" class="edge"><title>Node12&#45;&gt;Node13</title>
<path fill="none" stroke="midnightblue" d="M302.784,-200C322.447,-200 344.276,-200 363.149,-200"/>
<polygon fill="midnightblue" stroke="midnightblue" points="363.298,-203.5 373.298,-200 363.298,-196.5 363.298,-203.5"/>
</g>
<!-- Node16 -->
<g id="node16" class="node"><title>Node16</title>
<g id="a_node16"><a xlink:href="../../da/d33/glew_8h.html#a98964453975519f92d6cc59ef77f7436" target="_top" xlink:title="glBegin">
<polygon fill="white" stroke="black" points="387.5,-152.5 387.5,-171.5 436.5,-171.5 436.5,-152.5 387.5,-152.5"/>
<text text-anchor="middle" x="412" y="-159.5" font-family="Helvetica,sans-Serif" font-size="10.00">glBegin</text>
</a>
</g>
</g>
<!-- Node15&#45;&gt;Node16 -->
<g id="edge15" class="edge"><title>Node15&#45;&gt;Node16</title>
<path fill="none" stroke="midnightblue" d="M296.634,-95.5265C304.078,-98.0035 311.439,-101.11 318,-105 338.011,-116.865 334.377,-130.503 354,-143 361.193,-147.581 369.606,-151.174 377.725,-153.943"/>
<polygon fill="midnightblue" stroke="midnightblue" points="376.794,-157.318 387.381,-156.922 378.858,-150.629 376.794,-157.318"/>
</g>
<!-- Node17 -->
<g id="node17" class="node"><title>Node17</title>
<g id="a_node17"><a xlink:href="../../da/d33/glew_8h.html#a09db6f9fa0d39ef7e3919e6212296ece" target="_top" xlink:title="glTexCoord2f">
<polygon fill="white" stroke="black" points="374.5,-114.5 374.5,-133.5 449.5,-133.5 449.5,-114.5 374.5,-114.5"/>
<text text-anchor="middle" x="412" y="-121.5" font-family="Helvetica,sans-Serif" font-size="10.00">glTexCoord2f</text>
</a>
</g>
</g>
<!-- Node15&#45;&gt;Node17 -->
<g id="edge16" class="edge"><title>Node15&#45;&gt;Node17</title>
<path fill="none" stroke="midnightblue" d="M287.636,-95.589C311.026,-100.976 340.279,-107.713 364.427,-113.274"/>
<polygon fill="midnightblue" stroke="midnightblue" points="363.902,-116.745 374.432,-115.578 365.473,-109.923 363.902,-116.745"/>
</g>
<!-- Node18 -->
<g id="node18" class="node"><title>Node18</title>
<g id="a_node18"><a xlink:href="../../da/d33/glew_8h.html#a474f4498ace02f86e7f299eb8bf27da3" target="_top" xlink:title="glVertex2f">
<polygon fill="white" stroke="black" points="381.5,-76.5 381.5,-95.5 442.5,-95.5 442.5,-76.5 381.5,-76.5"/>
<text text-anchor="middle" x="412" y="-83.5" font-family="Helvetica,sans-Serif" font-size="10.00">glVertex2f</text>
</a>
</g>
</g>
<!-- Node15&#45;&gt;Node18 -->
<g id="edge17" class="edge"><title>Node15&#45;&gt;Node18</title>
<path fill="none" stroke="midnightblue" d="M307.909,-86C329.05,-86 352.118,-86 371.062,-86"/>
<polygon fill="midnightblue" stroke="midnightblue" points="371.124,-89.5001 381.124,-86 371.124,-82.5001 371.124,-89.5001"/>
</g>
<!-- Node19 -->
<g id="node19" class="node"><title>Node19</title>
<g id="a_node19"><a xlink:href="../../da/d33/glew_8h.html#abbff207d1fa71b296ff35b149cef7238" target="_top" xlink:title="glEnd">
<polygon fill="white" stroke="black" points="391.5,-38.5 391.5,-57.5 432.5,-57.5 432.5,-38.5 391.5,-38.5"/>
<text text-anchor="middle" x="412" y="-45.5" font-family="Helvetica,sans-Serif" font-size="10.00">glEnd</text>
</a>
</g>
</g>
<!-- Node15&#45;&gt;Node19 -->
<g id="edge18" class="edge"><title>Node15&#45;&gt;Node19</title>
<path fill="none" stroke="midnightblue" d="M287.636,-76.411C316.836,-69.6862 355.173,-60.857 381.31,-54.8376"/>
<polygon fill="midnightblue" stroke="midnightblue" points="382.404,-58.1775 391.363,-52.5224 380.833,-51.3561 382.404,-58.1775"/>
</g>
<!-- Node20 -->
<g id="node20" class="node"><title>Node20</title>
<g id="a_node20"><a xlink:href="../../da/d33/glew_8h.html#afb3e087fc26a916a909d46ead9cfc44a" target="_top" xlink:title="glFlush">
<polygon fill="white" stroke="black" points="388,-0.5 388,-19.5 436,-19.5 436,-0.5 388,-0.5"/>
<text text-anchor="middle" x="412" y="-7.5" font-family="Helvetica,sans-Serif" font-size="10.00">glFlush</text>
</a>
</g>
</g>
<!-- Node15&#45;&gt;Node20 -->
<g id="edge19" class="edge"><title>Node15&#45;&gt;Node20</title>
<path fill="none" stroke="midnightblue" d="M262.06,-76.4536C282.807,-64.3732 320.27,-43.4075 354,-29 361.775,-25.6791 370.339,-22.5566 378.415,-19.8397"/>
<polygon fill="midnightblue" stroke="midnightblue" points="379.511,-23.1638 387.937,-16.7408 377.345,-16.5075 379.511,-23.1638"/>
</g>
</g>
</svg>
