<?xml version="1.0" encoding="UTF-8" standalone="no"?>
<!DOCTYPE svg PUBLIC "-//W3C//DTD SVG 1.1//EN"
 "http://www.w3.org/Graphics/SVG/1.1/DTD/svg11.dtd">
<!-- Generated by graphviz version 2.36.0 (20140111.2315)
 -->
<!-- Title: rejectionSignificance Pages: 1 -->
<svg width="532pt" height="210pt"
 viewBox="0.00 0.00 532.00 210.41" xmlns="http://www.w3.org/2000/svg" xmlns:xlink="http://www.w3.org/1999/xlink">
<g id="graph0" class="graph" transform="scale(1 1) rotate(0) translate(4 206.414)">
<title>rejectionSignificance</title>
<polygon fill="white" stroke="none" points="-4,4 -4,-206.414 528,-206.414 528,4 -4,4"/>
<!-- Node1 -->
<g id="node1" class="node"><title>Node1</title>
<polygon fill="#bfbfbf" stroke="black" points="0.5,-95.5 0.5,-114.5 107.5,-114.5 107.5,-95.5 0.5,-95.5"/>
<text text-anchor="middle" x="54" y="-102.5" font-family="Helvetica,sans-Serif" font-size="10.00">rejectionSignificance</text>
</g>
<!-- Node2 -->
<g id="node2" class="node"><title>Node2</title>
<g id="a_node2"><a xlink:href="../../d3/d3e/classParameterServer.html#a5457f900e543c5a466bf9b65ee6bc577" target="_top" xlink:title="ParameterServer::instance">
<polygon fill="white" stroke="black" points="390.5,-171.5 390.5,-190.5 523.5,-190.5 523.5,-171.5 390.5,-171.5"/>
<text text-anchor="middle" x="457" y="-178.5" font-family="Helvetica,sans-Serif" font-size="10.00">ParameterServer::instance</text>
</a>
</g>
</g>
<!-- Node1&#45;&gt;Node2 -->
<g id="edge1" class="edge"><title>Node1&#45;&gt;Node2</title>
<path fill="none" stroke="midnightblue" d="M62.2575,-114.613C75.9681,-131.874 107.59,-167.569 144,-181 229.262,-212.451 336.775,-202.678 400.752,-192.206"/>
<polygon fill="midnightblue" stroke="midnightblue" points="401.364,-195.652 410.636,-190.526 400.191,-188.752 401.364,-195.652"/>
</g>
<!-- Node3 -->
<g id="node3" class="node"><title>Node3</title>
<g id="a_node3"><a xlink:href="../../d3/d3e/classParameterServer.html#a3c8af50664e423b555bbb1874f488413" target="_top" xlink:title="ParameterServer::get">
<polygon fill="white" stroke="black" points="402,-95.5 402,-114.5 512,-114.5 512,-95.5 402,-95.5"/>
<text text-anchor="middle" x="457" y="-102.5" font-family="Helvetica,sans-Serif" font-size="10.00">ParameterServer::get</text>
</a>
</g>
</g>
<!-- Node1&#45;&gt;Node3 -->
<g id="edge2" class="edge"><title>Node1&#45;&gt;Node3</title>
<path fill="none" stroke="midnightblue" d="M71.724,-95.4243C89.13,-86.0531 117.499,-72.4207 144,-67 241.535,-47.0491 358.516,-74.8358 417.686,-92.4504"/>
<polygon fill="midnightblue" stroke="midnightblue" points="416.774,-95.8313 427.36,-95.3941 418.812,-89.1345 416.774,-95.8313"/>
</g>
<!-- Node4 -->
<g id="node4" class="node"><title>Node4</title>
<g id="a_node4"><a xlink:href="../../db/d82/wglew_8h.html#a500a82aecba06f4550f6849b8099ca21" target="_top" xlink:title="int">
<polygon fill="white" stroke="black" points="176.5,-114.5 176.5,-133.5 205.5,-133.5 205.5,-114.5 176.5,-114.5"/>
<text text-anchor="middle" x="191" y="-121.5" font-family="Helvetica,sans-Serif" font-size="10.00">int</text>
</a>
</g>
</g>
<!-- Node1&#45;&gt;Node4 -->
<g id="edge3" class="edge"><title>Node1&#45;&gt;Node4</title>
<path fill="none" stroke="midnightblue" d="M107.581,-112.4C127.793,-115.245 149.883,-118.354 166.102,-120.637"/>
<polygon fill="midnightblue" stroke="midnightblue" points="165.907,-124.144 176.297,-122.071 166.882,-117.212 165.907,-124.144"/>
</g>
<!-- Node5 -->
<g id="node5" class="node"><title>Node5</title>
<g id="a_node5"><a xlink:href="../../d7/d5f/misc_8cpp.html#a8e7a4140590e8656e82d7c4734020815" target="_top" xlink:title="round">
<polygon fill="white" stroke="black" points="170.5,-76.5 170.5,-95.5 211.5,-95.5 211.5,-76.5 170.5,-76.5"/>
<text text-anchor="middle" x="191" y="-83.5" font-family="Helvetica,sans-Serif" font-size="10.00">round</text>
</a>
</g>
</g>
<!-- Node1&#45;&gt;Node5 -->
<g id="edge4" class="edge"><title>Node1&#45;&gt;Node5</title>
<path fill="none" stroke="midnightblue" d="M107.581,-97.5997C125.507,-95.0768 144.91,-92.346 160.385,-90.1681"/>
<polygon fill="midnightblue" stroke="midnightblue" points="160.989,-93.6176 170.404,-88.758 160.013,-86.6859 160.989,-93.6176"/>
</g>
<!-- Node6 -->
<g id="node6" class="node"><title>Node6</title>
<g id="a_node6"><a xlink:href="../../de/dd9/misc2_8h.html#a9fd104b651d76a0fd52bc23c6588e71f" target="_top" xlink:title="depth_covariance">
<polygon fill="white" stroke="black" points="144.5,-152.5 144.5,-171.5 237.5,-171.5 237.5,-152.5 144.5,-152.5"/>
<text text-anchor="middle" x="191" y="-159.5" font-family="Helvetica,sans-Serif" font-size="10.00">depth_covariance</text>
</a>
</g>
</g>
<!-- Node1&#45;&gt;Node6 -->
<g id="edge5" class="edge"><title>Node1&#45;&gt;Node6</title>
<path fill="none" stroke="midnightblue" d="M77.2804,-114.599C95.2638,-122.327 121.229,-133.437 144,-143 148.237,-144.78 152.699,-146.64 157.11,-148.47"/>
<polygon fill="midnightblue" stroke="midnightblue" points="155.998,-151.798 166.576,-152.388 158.675,-145.33 155.998,-151.798"/>
</g>
<!-- Node8 -->
<g id="node8" class="node"><title>Node8</title>
<g id="a_node8"><a xlink:href="../../d7/d5f/misc_8cpp.html#a3ef5ad497ff56ad294ad4ed2bc7d7660" target="_top" xlink:title="cdf">
<polygon fill="white" stroke="black" points="176,-0.5 176,-19.5 206,-19.5 206,-0.5 176,-0.5"/>
<text text-anchor="middle" x="191" y="-7.5" font-family="Helvetica,sans-Serif" font-size="10.00">cdf</text>
</a>
</g>
</g>
<!-- Node1&#45;&gt;Node8 -->
<g id="edge9" class="edge"><title>Node1&#45;&gt;Node8</title>
<path fill="none" stroke="midnightblue" d="M65.7209,-95.315C81.9422,-80.93 114.019,-53.5201 144,-34 151.219,-29.3002 159.463,-24.7628 166.959,-20.9223"/>
<polygon fill="midnightblue" stroke="midnightblue" points="168.522,-24.0539 175.921,-16.4704 165.408,-17.7848 168.522,-24.0539"/>
</g>
<!-- Node7 -->
<g id="node7" class="node"><title>Node7</title>
<g id="a_node7"><a xlink:href="../../de/dd9/misc2_8h.html#a44186cfabec64587c7bc742ae9dab267" target="_top" xlink:title="depth_std_dev">
<polygon fill="white" stroke="black" points="274,-152.5 274,-171.5 354,-171.5 354,-152.5 274,-152.5"/>
<text text-anchor="middle" x="314" y="-159.5" font-family="Helvetica,sans-Serif" font-size="10.00">depth_std_dev</text>
</a>
</g>
</g>
<!-- Node6&#45;&gt;Node7 -->
<g id="edge6" class="edge"><title>Node6&#45;&gt;Node7</title>
<path fill="none" stroke="midnightblue" d="M237.745,-162C246.214,-162 255.094,-162 263.664,-162"/>
<polygon fill="midnightblue" stroke="midnightblue" points="263.916,-165.5 273.916,-162 263.916,-158.5 263.916,-165.5"/>
</g>
<!-- Node7&#45;&gt;Node2 -->
<g id="edge7" class="edge"><title>Node7&#45;&gt;Node2</title>
<path fill="none" stroke="midnightblue" d="M354.276,-167.293C362.447,-168.394 371.318,-169.589 380.302,-170.8"/>
<polygon fill="midnightblue" stroke="midnightblue" points="380.085,-174.302 390.463,-172.169 381.02,-167.365 380.085,-174.302"/>
</g>
<!-- Node7&#45;&gt;Node3 -->
<g id="edge8" class="edge"><title>Node7&#45;&gt;Node3</title>
<path fill="none" stroke="midnightblue" d="M338.6,-152.459C361.68,-143.13 397.031,-128.838 422.913,-118.376"/>
<polygon fill="midnightblue" stroke="midnightblue" points="424.363,-121.564 432.323,-114.572 421.74,-115.075 424.363,-121.564"/>
</g>
</g>
</svg>
