<?xml version="1.0" encoding="UTF-8" standalone="no"?>
<!DOCTYPE svg PUBLIC "-//W3C//DTD SVG 1.1//EN"
 "http://www.w3.org/Graphics/SVG/1.1/DTD/svg11.dtd">
<!-- Generated by graphviz version 2.36.0 (20140111.2315)
 -->
<!-- Title: ANNbruteForce::annkSearch Pages: 1 -->
<svg width="400pt" height="180pt"
 viewBox="0.00 0.00 400.00 180.00" xmlns="http://www.w3.org/2000/svg" xmlns:xlink="http://www.w3.org/1999/xlink">
<g id="graph0" class="graph" transform="scale(1 1) rotate(0) translate(4 176)">
<title>ANNbruteForce::annkSearch</title>
<polygon fill="white" stroke="none" points="-4,4 -4,-176 396,-176 396,4 -4,4"/>
<!-- Node1 -->
<g id="node1" class="node"><title>Node1</title>
<polygon fill="#bfbfbf" stroke="black" points="0.5,-76.5 0.5,-95.5 143.5,-95.5 143.5,-76.5 0.5,-76.5"/>
<text text-anchor="middle" x="72" y="-83.5" font-family="Helvetica,sans-Serif" font-size="10.00">ANNbruteForce::annkSearch</text>
</g>
<!-- Node2 -->
<g id="node2" class="node"><title>Node2</title>
<g id="a_node2"><a xlink:href="../../d5/d32/ANNx_8h.html#a9c45d5ab29fad7c514d22008daf15534" target="_top" xlink:title="annError">
<polygon fill="white" stroke="black" points="225.5,-152.5 225.5,-171.5 278.5,-171.5 278.5,-152.5 225.5,-152.5"/>
<text text-anchor="middle" x="252" y="-159.5" font-family="Helvetica,sans-Serif" font-size="10.00">annError</text>
</a>
</g>
</g>
<!-- Node1&#45;&gt;Node2 -->
<g id="edge1" class="edge"><title>Node1&#45;&gt;Node2</title>
<path fill="none" stroke="midnightblue" d="M88.4144,-95.6643C108.741,-108.064 145.928,-129.57 180,-143 191.293,-147.452 203.998,-151.218 215.506,-154.195"/>
<polygon fill="midnightblue" stroke="midnightblue" points="214.696,-157.6 225.244,-156.604 216.378,-150.805 214.696,-157.6"/>
</g>
<!-- Node4 -->
<g id="node4" class="node"><title>Node4</title>
<g id="a_node4"><a xlink:href="../../d8/da9/ANN_8h.html#abcf59e35431a1c2153e0a01c056bc647" target="_top" xlink:title="annDist">
<polygon fill="white" stroke="black" points="227,-114.5 227,-133.5 277,-133.5 277,-114.5 227,-114.5"/>
<text text-anchor="middle" x="252" y="-121.5" font-family="Helvetica,sans-Serif" font-size="10.00">annDist</text>
</a>
</g>
</g>
<!-- Node1&#45;&gt;Node4 -->
<g id="edge3" class="edge"><title>Node1&#45;&gt;Node4</title>
<path fill="none" stroke="midnightblue" d="M117.917,-95.589C148.602,-102.14 188.639,-110.687 216.754,-116.689"/>
<polygon fill="midnightblue" stroke="midnightblue" points="216.391,-120.19 226.902,-118.855 217.853,-113.345 216.391,-120.19"/>
</g>
<!-- Node5 -->
<g id="node5" class="node"><title>Node5</title>
<g id="a_node5"><a xlink:href="../../df/d1b/classANNmin__k.html#aa3143d11f9b71be93723f4775adb1a2f" target="_top" xlink:title="ANNmin_k::insert">
<polygon fill="white" stroke="black" points="204.5,-76.5 204.5,-95.5 299.5,-95.5 299.5,-76.5 204.5,-76.5"/>
<text text-anchor="middle" x="252" y="-83.5" font-family="Helvetica,sans-Serif" font-size="10.00">ANNmin_k::insert</text>
</a>
</g>
</g>
<!-- Node1&#45;&gt;Node5 -->
<g id="edge4" class="edge"><title>Node1&#45;&gt;Node5</title>
<path fill="none" stroke="midnightblue" d="M143.606,-86C160.327,-86 177.953,-86 193.983,-86"/>
<polygon fill="midnightblue" stroke="midnightblue" points="194.261,-89.5001 204.261,-86 194.261,-82.5001 194.261,-89.5001"/>
</g>
<!-- Node6 -->
<g id="node6" class="node"><title>Node6</title>
<g id="a_node6"><a xlink:href="../../df/d1b/classANNmin__k.html#afef9c9c95a7563b33d1c98bbcf359700" target="_top" xlink:title="ANNmin_k::ith_smallest_key">
<polygon fill="white" stroke="black" points="180,-38.5 180,-57.5 324,-57.5 324,-38.5 180,-38.5"/>
<text text-anchor="middle" x="252" y="-45.5" font-family="Helvetica,sans-Serif" font-size="10.00">ANNmin_k::ith_smallest_key</text>
</a>
</g>
</g>
<!-- Node1&#45;&gt;Node6 -->
<g id="edge5" class="edge"><title>Node1&#45;&gt;Node6</title>
<path fill="none" stroke="midnightblue" d="M117.917,-76.411C141.829,-71.3061 171.421,-64.9887 196.625,-59.6082"/>
<polygon fill="midnightblue" stroke="midnightblue" points="197.357,-63.0308 206.406,-57.5201 195.896,-56.185 197.357,-63.0308"/>
</g>
<!-- Node7 -->
<g id="node7" class="node"><title>Node7</title>
<g id="a_node7"><a xlink:href="../../df/d1b/classANNmin__k.html#a5afb7172ba783e16ff52a31b78000890" target="_top" xlink:title="ANNmin_k::ith_smallest_info">
<polygon fill="white" stroke="black" points="180,-0.5 180,-19.5 324,-19.5 324,-0.5 180,-0.5"/>
<text text-anchor="middle" x="252" y="-7.5" font-family="Helvetica,sans-Serif" font-size="10.00">ANNmin_k::ith_smallest_info</text>
</a>
</g>
</g>
<!-- Node1&#45;&gt;Node7 -->
<g id="edge6" class="edge"><title>Node1&#45;&gt;Node7</title>
<path fill="none" stroke="midnightblue" d="M88.4144,-76.3357C108.741,-63.9363 145.928,-42.4303 180,-29 185.999,-26.6355 192.395,-24.4641 198.8,-22.5018"/>
<polygon fill="midnightblue" stroke="midnightblue" points="200.187,-25.7437 208.813,-19.5926 198.234,-19.0216 200.187,-25.7437"/>
</g>
<!-- Node3 -->
<g id="node3" class="node"><title>Node3</title>
<g id="a_node3"><a xlink:href="../../d9/db8/glut_8h.html#a6f255d924f7a6bb2c4be0c8c2f2d9ce3" target="_top" xlink:title="exit">
<polygon fill="white" stroke="black" points="360,-152.5 360,-171.5 392,-171.5 392,-152.5 360,-152.5"/>
<text text-anchor="middle" x="376" y="-159.5" font-family="Helvetica,sans-Serif" font-size="10.00">exit</text>
</a>
</g>
</g>
<!-- Node2&#45;&gt;Node3 -->
<g id="edge2" class="edge"><title>Node2&#45;&gt;Node3</title>
<path fill="none" stroke="midnightblue" d="M278.575,-162C299.519,-162 328.99,-162 349.824,-162"/>
<polygon fill="midnightblue" stroke="midnightblue" points="349.841,-165.5 359.841,-162 349.841,-158.5 349.841,-165.5"/>
</g>
</g>
</svg>
