<?xml version="1.0" encoding="UTF-8" standalone="no"?>
<!DOCTYPE svg PUBLIC "-//W3C//DTD SVG 1.1//EN"
 "http://www.w3.org/Graphics/SVG/1.1/DTD/svg11.dtd">
<!-- Generated by graphviz version 2.36.0 (20140111.2315)
 -->
<!-- Title: src/Tracking/SE3Tracker.h Pages: 1 -->
<svg width="587pt" height="364pt"
 viewBox="0.00 0.00 587.00 364.00" xmlns="http://www.w3.org/2000/svg" xmlns:xlink="http://www.w3.org/1999/xlink">
<g id="graph0" class="graph" transform="scale(1 1) rotate(0) translate(4 360)">
<title>src/Tracking/SE3Tracker.h</title>
<polygon fill="white" stroke="none" points="-4,4 -4,-360 583,-360 583,4 -4,4"/>
<!-- Node1 -->
<g id="node1" class="node"><title>Node1</title>
<polygon fill="#bfbfbf" stroke="black" points="145,-336.5 145,-355.5 279,-355.5 279,-336.5 145,-336.5"/>
<text text-anchor="middle" x="212" y="-343.5" font-family="Helvetica,sans-Serif" font-size="10.00">src/Tracking/SE3Tracker.h</text>
</g>
<!-- Node2 -->
<g id="node2" class="node"><title>Node2</title>
<polygon fill="white" stroke="#bfbfbf" points="0,-224.5 0,-243.5 116,-243.5 116,-224.5 0,-224.5"/>
<text text-anchor="middle" x="58" y="-231.5" font-family="Helvetica,sans-Serif" font-size="10.00">opencv2/core/core.hpp</text>
</g>
<!-- Node1&#45;&gt;Node2 -->
<g id="edge1" class="edge"><title>Node1&#45;&gt;Node2</title>
<path fill="none" stroke="midnightblue" d="M199.916,-336.368C173.602,-317.573 110.876,-272.768 78.3467,-249.533"/>
<polygon fill="midnightblue" stroke="midnightblue" points="80.1997,-246.556 70.028,-243.591 76.131,-252.252 80.1997,-246.556"/>
</g>
<!-- Node3 -->
<g id="node3" class="node"><title>Node3</title>
<g id="a_node3"><a xlink:href="../../de/d60/settings_8h.html" target="_top" xlink:title="util/settings.h">
<polygon fill="white" stroke="black" points="133.5,-224.5 133.5,-243.5 208.5,-243.5 208.5,-224.5 133.5,-224.5"/>
<text text-anchor="middle" x="171" y="-231.5" font-family="Helvetica,sans-Serif" font-size="10.00">util/settings.h</text>
</a>
</g>
</g>
<!-- Node1&#45;&gt;Node3 -->
<g id="edge2" class="edge"><title>Node1&#45;&gt;Node3</title>
<path fill="none" stroke="midnightblue" d="M194.802,-336.386C181.749,-328.794 164.766,-316.389 157,-300 149.909,-285.037 155.16,-266.436 161.148,-252.971"/>
<polygon fill="midnightblue" stroke="midnightblue" points="164.378,-254.335 165.678,-243.82 158.105,-251.229 164.378,-254.335"/>
</g>
<!-- Node6 -->
<g id="node6" class="node"><title>Node6</title>
<g id="a_node6"><a xlink:href="../../d9/d86/EigenCoreInclude_8h.html" target="_top" xlink:title="util/EigenCoreInclude.h">
<polygon fill="white" stroke="black" points="227,-224.5 227,-243.5 345,-243.5 345,-224.5 227,-224.5"/>
<text text-anchor="middle" x="286" y="-231.5" font-family="Helvetica,sans-Serif" font-size="10.00">util/EigenCoreInclude.h</text>
</a>
</g>
</g>
<!-- Node1&#45;&gt;Node6 -->
<g id="edge5" class="edge"><title>Node1&#45;&gt;Node6</title>
<path fill="none" stroke="midnightblue" d="M226.731,-336.496C239.2,-328.57 256.649,-315.637 267,-300 276.227,-286.06 281.066,-267.554 283.544,-253.853"/>
<polygon fill="midnightblue" stroke="midnightblue" points="287.048,-254.098 285.116,-243.681 280.13,-253.029 287.048,-254.098"/>
</g>
<!-- Node8 -->
<g id="node8" class="node"><title>Node8</title>
<g id="a_node8"><a xlink:href="../../d2/d13/SophusUtil_8h.html" target="_top" xlink:title="util/SophusUtil.h">
<polygon fill="white" stroke="black" points="331.5,-280.5 331.5,-299.5 420.5,-299.5 420.5,-280.5 331.5,-280.5"/>
<text text-anchor="middle" x="376" y="-287.5" font-family="Helvetica,sans-Serif" font-size="10.00">util/SophusUtil.h</text>
</a>
</g>
</g>
<!-- Node1&#45;&gt;Node8 -->
<g id="edge7" class="edge"><title>Node1&#45;&gt;Node8</title>
<path fill="none" stroke="midnightblue" d="M237.986,-336.444C265.696,-327.32 309.752,-312.813 340.616,-302.651"/>
<polygon fill="midnightblue" stroke="midnightblue" points="341.732,-305.968 350.135,-299.516 339.542,-299.32 341.732,-305.968"/>
</g>
<!-- Node17 -->
<g id="node17" class="node"><title>Node17</title>
<g id="a_node17"><a xlink:href="../../dd/d76/LGSX_8h.html" target="_top" xlink:title="Tracking/LGSX.h">
<polygon fill="white" stroke="black" points="166,-280.5 166,-299.5 258,-299.5 258,-280.5 166,-280.5"/>
<text text-anchor="middle" x="212" y="-287.5" font-family="Helvetica,sans-Serif" font-size="10.00">Tracking/LGSX.h</text>
</a>
</g>
</g>
<!-- Node1&#45;&gt;Node17 -->
<g id="edge18" class="edge"><title>Node1&#45;&gt;Node17</title>
<path fill="none" stroke="midnightblue" d="M212,-336.083C212,-329.006 212,-318.861 212,-309.986"/>
<polygon fill="midnightblue" stroke="midnightblue" points="215.5,-309.751 212,-299.751 208.5,-309.751 215.5,-309.751"/>
</g>
<!-- Node4 -->
<g id="node4" class="node"><title>Node4</title>
<polygon fill="white" stroke="#bfbfbf" points="162.5,-168.5 162.5,-187.5 211.5,-187.5 211.5,-168.5 162.5,-168.5"/>
<text text-anchor="middle" x="187" y="-175.5" font-family="Helvetica,sans-Serif" font-size="10.00">string.h</text>
</g>
<!-- Node3&#45;&gt;Node4 -->
<g id="edge3" class="edge"><title>Node3&#45;&gt;Node4</title>
<path fill="none" stroke="midnightblue" d="M173.642,-224.083C175.786,-216.849 178.879,-206.409 181.549,-197.397"/>
<polygon fill="midnightblue" stroke="midnightblue" points="184.922,-198.333 184.407,-187.751 178.21,-196.345 184.922,-198.333"/>
</g>
<!-- Node5 -->
<g id="node5" class="node"><title>Node5</title>
<polygon fill="white" stroke="#bfbfbf" points="103.5,-168.5 103.5,-187.5 144.5,-187.5 144.5,-168.5 103.5,-168.5"/>
<text text-anchor="middle" x="124" y="-175.5" font-family="Helvetica,sans-Serif" font-size="10.00">string</text>
</g>
<!-- Node3&#45;&gt;Node5 -->
<g id="edge4" class="edge"><title>Node3&#45;&gt;Node5</title>
<path fill="none" stroke="midnightblue" d="M163.239,-224.083C156.463,-216.298 146.457,-204.801 138.245,-195.367"/>
<polygon fill="midnightblue" stroke="midnightblue" points="140.822,-192.996 131.617,-187.751 135.542,-197.592 140.822,-192.996"/>
</g>
<!-- Node7 -->
<g id="node7" class="node"><title>Node7</title>
<polygon fill="white" stroke="#bfbfbf" points="249.5,-168.5 249.5,-187.5 314.5,-187.5 314.5,-168.5 249.5,-168.5"/>
<text text-anchor="middle" x="282" y="-175.5" font-family="Helvetica,sans-Serif" font-size="10.00">Eigen/Core</text>
</g>
<!-- Node6&#45;&gt;Node7 -->
<g id="edge6" class="edge"><title>Node6&#45;&gt;Node7</title>
<path fill="none" stroke="midnightblue" d="M285.339,-224.083C284.815,-217.006 284.064,-206.861 283.406,-197.986"/>
<polygon fill="midnightblue" stroke="midnightblue" points="286.877,-197.465 282.648,-187.751 279.897,-197.982 286.877,-197.465"/>
</g>
<!-- Node9 -->
<g id="node9" class="node"><title>Node9</title>
<g id="a_node9"><a xlink:href="../../dc/d5c/sim3_8hpp.html" target="_top" xlink:title="sophus/sim3.hpp">
<polygon fill="white" stroke="black" points="412.5,-224.5 412.5,-243.5 503.5,-243.5 503.5,-224.5 412.5,-224.5"/>
<text text-anchor="middle" x="458" y="-231.5" font-family="Helvetica,sans-Serif" font-size="10.00">sophus/sim3.hpp</text>
</a>
</g>
</g>
<!-- Node8&#45;&gt;Node9 -->
<g id="edge8" class="edge"><title>Node8&#45;&gt;Node9</title>
<path fill="none" stroke="midnightblue" d="M389.175,-280.324C401.847,-271.979 421.233,-259.212 436.206,-249.352"/>
<polygon fill="midnightblue" stroke="midnightblue" points="438.431,-252.078 444.858,-243.655 434.581,-246.231 438.431,-252.078"/>
</g>
<!-- Node16 -->
<g id="node16" class="node"><title>Node16</title>
<g id="a_node16"><a xlink:href="../../d4/d4b/se3_8hpp.html" target="_top" xlink:title="sophus/se3.hpp">
<polygon fill="white" stroke="black" points="333,-168.5 333,-187.5 419,-187.5 419,-168.5 333,-168.5"/>
<text text-anchor="middle" x="376" y="-175.5" font-family="Helvetica,sans-Serif" font-size="10.00">sophus/se3.hpp</text>
</a>
</g>
</g>
<!-- Node8&#45;&gt;Node16 -->
<g id="edge16" class="edge"><title>Node8&#45;&gt;Node16</title>
<path fill="none" stroke="midnightblue" d="M376,-280.368C376,-262.617 376,-221.666 376,-197.597"/>
<polygon fill="midnightblue" stroke="midnightblue" points="379.5,-197.591 376,-187.591 372.5,-197.591 379.5,-197.591"/>
</g>
<!-- Node10 -->
<g id="node10" class="node"><title>Node10</title>
<g id="a_node10"><a xlink:href="../../d7/d6a/rxso3_8hpp.html" target="_top" xlink:title="rxso3.hpp">
<polygon fill="white" stroke="black" points="437.5,-168.5 437.5,-187.5 496.5,-187.5 496.5,-168.5 437.5,-168.5"/>
<text text-anchor="middle" x="467" y="-175.5" font-family="Helvetica,sans-Serif" font-size="10.00">rxso3.hpp</text>
</a>
</g>
</g>
<!-- Node9&#45;&gt;Node10 -->
<g id="edge9" class="edge"><title>Node9&#45;&gt;Node10</title>
<path fill="none" stroke="midnightblue" d="M459.486,-224.083C460.679,-216.927 462.394,-206.635 463.885,-197.691"/>
<polygon fill="midnightblue" stroke="midnightblue" points="467.35,-198.19 465.541,-187.751 460.445,-197.04 467.35,-198.19"/>
</g>
<!-- Node11 -->
<g id="node11" class="node"><title>Node11</title>
<g id="a_node11"><a xlink:href="../../d7/dc1/sophus_8hpp.html" target="_top" xlink:title="sophus.hpp">
<polygon fill="white" stroke="black" points="406.5,-56.5 406.5,-75.5 473.5,-75.5 473.5,-56.5 406.5,-56.5"/>
<text text-anchor="middle" x="440" y="-63.5" font-family="Helvetica,sans-Serif" font-size="10.00">sophus.hpp</text>
</a>
</g>
</g>
<!-- Node10&#45;&gt;Node11 -->
<g id="edge10" class="edge"><title>Node10&#45;&gt;Node11</title>
<path fill="none" stroke="midnightblue" d="M464.881,-168.368C460.524,-150.617 450.473,-109.666 444.565,-85.5974"/>
<polygon fill="midnightblue" stroke="midnightblue" points="447.892,-84.4688 442.109,-75.5914 441.094,-86.1375 447.892,-84.4688"/>
</g>
<!-- Node15 -->
<g id="node15" class="node"><title>Node15</title>
<g id="a_node15"><a xlink:href="../../de/de9/so3_8hpp.html" target="_top" xlink:title="so3.hpp">
<polygon fill="white" stroke="black" points="387.5,-112.5 387.5,-131.5 438.5,-131.5 438.5,-112.5 387.5,-112.5"/>
<text text-anchor="middle" x="413" y="-119.5" font-family="Helvetica,sans-Serif" font-size="10.00">so3.hpp</text>
</a>
</g>
</g>
<!-- Node10&#45;&gt;Node15 -->
<g id="edge14" class="edge"><title>Node10&#45;&gt;Node15</title>
<path fill="none" stroke="midnightblue" d="M458.083,-168.083C450.22,-160.22 438.569,-148.569 429.081,-139.081"/>
<polygon fill="midnightblue" stroke="midnightblue" points="431.297,-136.347 421.751,-131.751 426.347,-141.297 431.297,-136.347"/>
</g>
<!-- Node12 -->
<g id="node12" class="node"><title>Node12</title>
<polygon fill="white" stroke="#bfbfbf" points="328.5,-0.5 328.5,-19.5 387.5,-19.5 387.5,-0.5 328.5,-0.5"/>
<text text-anchor="middle" x="358" y="-7.5" font-family="Helvetica,sans-Serif" font-size="10.00">stdexcept</text>
</g>
<!-- Node11&#45;&gt;Node12 -->
<g id="edge11" class="edge"><title>Node11&#45;&gt;Node12</title>
<path fill="none" stroke="midnightblue" d="M426.825,-56.324C414.153,-47.979 394.767,-35.2122 379.794,-25.3524"/>
<polygon fill="midnightblue" stroke="midnightblue" points="381.419,-22.2313 371.142,-19.6545 377.569,-28.0776 381.419,-22.2313"/>
</g>
<!-- Node13 -->
<g id="node13" class="node"><title>Node13</title>
<polygon fill="white" stroke="#bfbfbf" points="405.5,-0.5 405.5,-19.5 474.5,-19.5 474.5,-0.5 405.5,-0.5"/>
<text text-anchor="middle" x="440" y="-7.5" font-family="Helvetica,sans-Serif" font-size="10.00">Eigen/Eigen</text>
</g>
<!-- Node11&#45;&gt;Node13 -->
<g id="edge12" class="edge"><title>Node11&#45;&gt;Node13</title>
<path fill="none" stroke="midnightblue" d="M440,-56.083C440,-49.0059 440,-38.8611 440,-29.9865"/>
<polygon fill="midnightblue" stroke="midnightblue" points="443.5,-29.751 440,-19.7511 436.5,-29.7511 443.5,-29.751"/>
</g>
<!-- Node14 -->
<g id="node14" class="node"><title>Node14</title>
<polygon fill="white" stroke="#bfbfbf" points="492.5,-0.5 492.5,-19.5 579.5,-19.5 579.5,-0.5 492.5,-0.5"/>
<text text-anchor="middle" x="536" y="-7.5" font-family="Helvetica,sans-Serif" font-size="10.00">Eigen/Geometry</text>
</g>
<!-- Node11&#45;&gt;Node14 -->
<g id="edge13" class="edge"><title>Node11&#45;&gt;Node14</title>
<path fill="none" stroke="midnightblue" d="M455.424,-56.324C470.54,-47.8215 493.815,-34.7288 511.471,-24.7975"/>
<polygon fill="midnightblue" stroke="midnightblue" points="513.614,-27.6077 520.614,-19.6545 510.183,-21.5066 513.614,-27.6077"/>
</g>
<!-- Node15&#45;&gt;Node11 -->
<g id="edge15" class="edge"><title>Node15&#45;&gt;Node11</title>
<path fill="none" stroke="midnightblue" d="M417.459,-112.083C421.154,-104.691 426.523,-93.9533 431.094,-84.8111"/>
<polygon fill="midnightblue" stroke="midnightblue" points="434.283,-86.2606 435.624,-75.7511 428.022,-83.1301 434.283,-86.2606"/>
</g>
<!-- Node16&#45;&gt;Node15 -->
<g id="edge17" class="edge"><title>Node16&#45;&gt;Node15</title>
<path fill="none" stroke="midnightblue" d="M382.11,-168.083C387.282,-160.534 394.846,-149.495 401.194,-140.23"/>
<polygon fill="midnightblue" stroke="midnightblue" points="404.239,-141.979 407.004,-131.751 398.464,-138.022 404.239,-141.979"/>
</g>
<!-- Node17&#45;&gt;Node2 -->
<g id="edge20" class="edge"><title>Node17&#45;&gt;Node2</title>
<path fill="none" stroke="midnightblue" d="M187.598,-280.444C161.803,-271.399 120.923,-257.064 91.9822,-246.916"/>
<polygon fill="midnightblue" stroke="midnightblue" points="92.8824,-243.523 82.2876,-243.516 90.5661,-250.128 92.8824,-243.523"/>
</g>
<!-- Node17&#45;&gt;Node3 -->
<g id="edge21" class="edge"><title>Node17&#45;&gt;Node3</title>
<path fill="none" stroke="midnightblue" d="M205.23,-280.083C199.438,-272.455 190.942,-261.264 183.862,-251.941"/>
<polygon fill="midnightblue" stroke="midnightblue" points="186.479,-249.599 177.644,-243.751 180.904,-253.832 186.479,-249.599"/>
</g>
<!-- Node17&#45;&gt;Node6 -->
<g id="edge19" class="edge"><title>Node17&#45;&gt;Node6</title>
<path fill="none" stroke="midnightblue" d="M223.889,-280.324C235.15,-272.107 252.287,-259.602 265.709,-249.807"/>
<polygon fill="midnightblue" stroke="midnightblue" points="267.88,-252.556 273.894,-243.834 263.753,-246.901 267.88,-252.556"/>
</g>
</g>
</svg>
