<?xml version="1.0" encoding="UTF-8" standalone="no"?>
<!DOCTYPE svg PUBLIC "-//W3C//DTD SVG 1.1//EN"
 "http://www.w3.org/Graphics/SVG/1.1/DTD/svg11.dtd">
<!-- Generated by graphviz version 2.36.0 (20140111.2315)
 -->
<!-- Title: lsd_slam::Frame::setPermaRef Pages: 1 -->
<svg width="516pt" height="370pt"
 viewBox="0.00 0.00 516.00 370.00" xmlns="http://www.w3.org/2000/svg" xmlns:xlink="http://www.w3.org/1999/xlink">
<g id="graph0" class="graph" transform="scale(1 1) rotate(0) translate(4 366)">
<title>lsd_slam::Frame::setPermaRef</title>
<polygon fill="white" stroke="none" points="-4,4 -4,-366 512,-366 512,4 -4,4"/>
<!-- Node1 -->
<g id="node1" class="node"><title>Node1</title>
<polygon fill="#bfbfbf" stroke="black" points="0.5,-171.5 0.5,-190.5 153.5,-190.5 153.5,-171.5 0.5,-171.5"/>
<text text-anchor="middle" x="77" y="-178.5" font-family="Helvetica,sans-Serif" font-size="10.00">lsd_slam::Frame::setPermaRef</text>
</g>
<!-- Node2 -->
<g id="node2" class="node"><title>Node2</title>
<g id="a_node2"><a xlink:href="../../d5/d8e/classlsd__slam_1_1TrackingReference.html#a213f14e896c734faf7e2676282a7c54f" target="_top" xlink:title="lsd_slam::TrackingReference\l::makePointCloud">
<polygon fill="white" stroke="black" points="190,-166 190,-196 334,-196 334,-166 190,-166"/>
<text text-anchor="start" x="198" y="-184" font-family="Helvetica,sans-Serif" font-size="10.00">lsd_slam::TrackingReference</text>
<text text-anchor="middle" x="262" y="-173" font-family="Helvetica,sans-Serif" font-size="10.00">::makePointCloud</text>
</a>
</g>
</g>
<!-- Node1&#45;&gt;Node2 -->
<g id="edge1" class="edge"><title>Node1&#45;&gt;Node2</title>
<path fill="none" stroke="midnightblue" d="M153.754,-181C162.306,-181 171.046,-181 179.665,-181"/>
<polygon fill="midnightblue" stroke="midnightblue" points="179.709,-184.5 189.709,-181 179.709,-177.5 179.709,-184.5"/>
</g>
<!-- Node3 -->
<g id="node3" class="node"><title>Node3</title>
<g id="a_node3"><a xlink:href="../../dd/d08/classlsd__slam_1_1Frame.html#a3f14a1c43b6cb21d31274f880b0bf36b" target="_top" xlink:title="lsd_slam::Frame::width">
<polygon fill="white" stroke="black" points="379.5,-342.5 379.5,-361.5 498.5,-361.5 498.5,-342.5 379.5,-342.5"/>
<text text-anchor="middle" x="439" y="-349.5" font-family="Helvetica,sans-Serif" font-size="10.00">lsd_slam::Frame::width</text>
</a>
</g>
</g>
<!-- Node2&#45;&gt;Node3 -->
<g id="edge2" class="edge"><title>Node2&#45;&gt;Node3</title>
<path fill="none" stroke="midnightblue" d="M269.364,-196.121C283.061,-226.795 318.335,-296.509 370,-333 372.839,-335.005 375.884,-336.8 379.054,-338.405"/>
<polygon fill="midnightblue" stroke="midnightblue" points="377.689,-341.628 388.252,-342.447 380.505,-335.22 377.689,-341.628"/>
</g>
<!-- Node4 -->
<g id="node4" class="node"><title>Node4</title>
<g id="a_node4"><a xlink:href="../../dd/d08/classlsd__slam_1_1Frame.html#a014d19bf6ffba0f0c0b8b684f9afb0b0" target="_top" xlink:title="lsd_slam::Frame::height">
<polygon fill="white" stroke="black" points="378,-304.5 378,-323.5 500,-323.5 500,-304.5 378,-304.5"/>
<text text-anchor="middle" x="439" y="-311.5" font-family="Helvetica,sans-Serif" font-size="10.00">lsd_slam::Frame::height</text>
</a>
</g>
</g>
<!-- Node2&#45;&gt;Node4 -->
<g id="edge3" class="edge"><title>Node2&#45;&gt;Node4</title>
<path fill="none" stroke="midnightblue" d="M272.94,-196.041C289.902,-220.512 326.82,-268.837 370,-295 373.597,-297.18 377.452,-299.116 381.43,-300.836"/>
<polygon fill="midnightblue" stroke="midnightblue" points="380.284,-304.145 390.874,-304.467 382.796,-297.611 380.284,-304.145"/>
</g>
<!-- Node5 -->
<g id="node5" class="node"><title>Node5</title>
<g id="a_node5"><a xlink:href="../../dd/d08/classlsd__slam_1_1Frame.html#a9d98889a6a367e862f28b4a035604f46" target="_top" xlink:title="lsd_slam::Frame::fxInv">
<polygon fill="white" stroke="black" points="380.5,-266.5 380.5,-285.5 497.5,-285.5 497.5,-266.5 380.5,-266.5"/>
<text text-anchor="middle" x="439" y="-273.5" font-family="Helvetica,sans-Serif" font-size="10.00">lsd_slam::Frame::fxInv</text>
</a>
</g>
</g>
<!-- Node2&#45;&gt;Node5 -->
<g id="edge4" class="edge"><title>Node2&#45;&gt;Node5</title>
<path fill="none" stroke="midnightblue" d="M280.352,-196.231C300.585,-213.268 335.655,-240.619 370,-257 374.91,-259.342 380.16,-261.442 385.486,-263.315"/>
<polygon fill="midnightblue" stroke="midnightblue" points="384.505,-266.676 395.097,-266.443 386.671,-260.02 384.505,-266.676"/>
</g>
<!-- Node6 -->
<g id="node6" class="node"><title>Node6</title>
<g id="a_node6"><a xlink:href="../../dd/d08/classlsd__slam_1_1Frame.html#ab5c98941622d0f0470381a8ed2f833c1" target="_top" xlink:title="lsd_slam::Frame::fyInv">
<polygon fill="white" stroke="black" points="380.5,-228.5 380.5,-247.5 497.5,-247.5 497.5,-228.5 380.5,-228.5"/>
<text text-anchor="middle" x="439" y="-235.5" font-family="Helvetica,sans-Serif" font-size="10.00">lsd_slam::Frame::fyInv</text>
</a>
</g>
</g>
<!-- Node2&#45;&gt;Node6 -->
<g id="edge5" class="edge"><title>Node2&#45;&gt;Node6</title>
<path fill="none" stroke="midnightblue" d="M303.172,-196.005C323.152,-203.278 347.731,-211.944 370,-219 377.231,-221.291 384.94,-223.585 392.472,-225.746"/>
<polygon fill="midnightblue" stroke="midnightblue" points="391.644,-229.149 402.219,-228.5 393.547,-222.413 391.644,-229.149"/>
</g>
<!-- Node7 -->
<g id="node7" class="node"><title>Node7</title>
<g id="a_node7"><a xlink:href="../../dd/d08/classlsd__slam_1_1Frame.html#a4690556800b10f98c18a2fada62ae62b" target="_top" xlink:title="lsd_slam::Frame::cxInv">
<polygon fill="white" stroke="black" points="379.5,-190.5 379.5,-209.5 498.5,-209.5 498.5,-190.5 379.5,-190.5"/>
<text text-anchor="middle" x="439" y="-197.5" font-family="Helvetica,sans-Serif" font-size="10.00">lsd_slam::Frame::cxInv</text>
</a>
</g>
</g>
<!-- Node2&#45;&gt;Node7 -->
<g id="edge6" class="edge"><title>Node2&#45;&gt;Node7</title>
<path fill="none" stroke="midnightblue" d="M334.179,-188.728C345.816,-189.991 357.853,-191.298 369.425,-192.555"/>
<polygon fill="midnightblue" stroke="midnightblue" points="369.134,-196.044 379.454,-193.644 369.89,-189.085 369.134,-196.044"/>
</g>
<!-- Node8 -->
<g id="node8" class="node"><title>Node8</title>
<g id="a_node8"><a xlink:href="../../dd/d08/classlsd__slam_1_1Frame.html#aae9fa687e7e515ba009a5fe5a617bf75" target="_top" xlink:title="lsd_slam::Frame::cyInv">
<polygon fill="white" stroke="black" points="379.5,-152.5 379.5,-171.5 498.5,-171.5 498.5,-152.5 379.5,-152.5"/>
<text text-anchor="middle" x="439" y="-159.5" font-family="Helvetica,sans-Serif" font-size="10.00">lsd_slam::Frame::cyInv</text>
</a>
</g>
</g>
<!-- Node2&#45;&gt;Node8 -->
<g id="edge7" class="edge"><title>Node2&#45;&gt;Node8</title>
<path fill="none" stroke="midnightblue" d="M334.179,-173.272C345.816,-172.009 357.853,-170.702 369.425,-169.445"/>
<polygon fill="midnightblue" stroke="midnightblue" points="369.89,-172.915 379.454,-168.356 369.134,-165.956 369.89,-172.915"/>
</g>
<!-- Node9 -->
<g id="node9" class="node"><title>Node9</title>
<g id="a_node9"><a xlink:href="../../dd/d08/classlsd__slam_1_1Frame.html#ad78d873de1adfd4ab3268c50b1d462c7" target="_top" xlink:title="lsd_slam::Frame::idepth">
<polygon fill="white" stroke="black" points="378,-114.5 378,-133.5 500,-133.5 500,-114.5 378,-114.5"/>
<text text-anchor="middle" x="439" y="-121.5" font-family="Helvetica,sans-Serif" font-size="10.00">lsd_slam::Frame::idepth</text>
</a>
</g>
</g>
<!-- Node2&#45;&gt;Node9 -->
<g id="edge8" class="edge"><title>Node2&#45;&gt;Node9</title>
<path fill="none" stroke="midnightblue" d="M303.172,-165.995C323.152,-158.722 347.731,-150.056 370,-143 377.231,-140.709 384.94,-138.415 392.472,-136.254"/>
<polygon fill="midnightblue" stroke="midnightblue" points="393.547,-139.587 402.219,-133.5 391.644,-132.851 393.547,-139.587"/>
</g>
<!-- Node10 -->
<g id="node10" class="node"><title>Node10</title>
<g id="a_node10"><a xlink:href="../../dd/d08/classlsd__slam_1_1Frame.html#aa3fb7f275b5da621c039a6746b905770" target="_top" xlink:title="lsd_slam::Frame::idepthVar">
<polygon fill="white" stroke="black" points="370.5,-76.5 370.5,-95.5 507.5,-95.5 507.5,-76.5 370.5,-76.5"/>
<text text-anchor="middle" x="439" y="-83.5" font-family="Helvetica,sans-Serif" font-size="10.00">lsd_slam::Frame::idepthVar</text>
</a>
</g>
</g>
<!-- Node2&#45;&gt;Node10 -->
<g id="edge9" class="edge"><title>Node2&#45;&gt;Node10</title>
<path fill="none" stroke="midnightblue" d="M280.352,-165.769C300.585,-148.732 335.655,-121.381 370,-105 374.91,-102.658 380.16,-100.558 385.486,-98.6848"/>
<polygon fill="midnightblue" stroke="midnightblue" points="386.671,-101.98 395.097,-95.5566 384.505,-95.3236 386.671,-101.98"/>
</g>
<!-- Node11 -->
<g id="node11" class="node"><title>Node11</title>
<g id="a_node11"><a xlink:href="../../dd/d08/classlsd__slam_1_1Frame.html#a9306307027bbe62b973c0b138216b456" target="_top" xlink:title="lsd_slam::Frame::image">
<polygon fill="white" stroke="black" points="378,-38.5 378,-57.5 500,-57.5 500,-38.5 378,-38.5"/>
<text text-anchor="middle" x="439" y="-45.5" font-family="Helvetica,sans-Serif" font-size="10.00">lsd_slam::Frame::image</text>
</a>
</g>
</g>
<!-- Node2&#45;&gt;Node11 -->
<g id="edge10" class="edge"><title>Node2&#45;&gt;Node11</title>
<path fill="none" stroke="midnightblue" d="M272.94,-165.959C289.902,-141.488 326.82,-93.1635 370,-67 373.597,-64.8204 377.452,-62.8838 381.43,-61.1641"/>
<polygon fill="midnightblue" stroke="midnightblue" points="382.796,-64.3886 390.874,-57.5331 380.284,-57.8549 382.796,-64.3886"/>
</g>
<!-- Node12 -->
<g id="node12" class="node"><title>Node12</title>
<g id="a_node12"><a xlink:href="../../dd/d08/classlsd__slam_1_1Frame.html#a2c31baa0cea975fb73ccf80d92f7a5de" target="_top" xlink:title="lsd_slam::Frame::gradients">
<polygon fill="white" stroke="black" points="371.5,-0.5 371.5,-19.5 506.5,-19.5 506.5,-0.5 371.5,-0.5"/>
<text text-anchor="middle" x="439" y="-7.5" font-family="Helvetica,sans-Serif" font-size="10.00">lsd_slam::Frame::gradients</text>
</a>
</g>
</g>
<!-- Node2&#45;&gt;Node12 -->
<g id="edge11" class="edge"><title>Node2&#45;&gt;Node12</title>
<path fill="none" stroke="midnightblue" d="M269.364,-165.879C283.061,-135.205 318.335,-65.4911 370,-29 372.839,-26.9945 375.884,-25.2002 379.054,-23.5949"/>
<polygon fill="midnightblue" stroke="midnightblue" points="380.505,-26.7804 388.252,-19.5527 377.689,-20.3719 380.505,-26.7804"/>
</g>
</g>
</svg>
