<?xml version="1.0" encoding="UTF-8" standalone="no"?>
<!DOCTYPE svg PUBLIC "-//W3C//DTD SVG 1.1//EN"
 "http://www.w3.org/Graphics/SVG/1.1/DTD/svg11.dtd">
<!-- Generated by graphviz version 2.36.0 (20140111.2315)
 -->
<!-- Title: BagSubscriber&lt; M &gt; Pages: 1 -->
<svg width="178pt" height="160pt"
 viewBox="0.00 0.00 178.00 160.00" xmlns="http://www.w3.org/2000/svg" xmlns:xlink="http://www.w3.org/1999/xlink">
<g id="graph0" class="graph" transform="scale(1 1) rotate(0) translate(4 156)">
<title>BagSubscriber&lt; M &gt;</title>
<polygon fill="white" stroke="none" points="-4,4 -4,-156 174,-156 174,4 -4,4"/>
<!-- Node1 -->
<g id="node1" class="node"><title>Node1</title>
<polygon fill="#bfbfbf" stroke="black" points="31.5,-0.5 31.5,-57.5 138.5,-57.5 138.5,-0.5 31.5,-0.5"/>
<text text-anchor="middle" x="85" y="-45.5" font-family="Helvetica,sans-Serif" font-size="10.00">BagSubscriber&lt; M &gt;</text>
<polyline fill="none" stroke="black" points="31.5,-38.5 138.5,-38.5 "/>
<text text-anchor="middle" x="85" y="-26.5" font-family="Helvetica,sans-Serif" font-size="10.00"> </text>
<polyline fill="none" stroke="black" points="31.5,-19.5 138.5,-19.5 "/>
<text text-anchor="start" x="39.5" y="-7.5" font-family="Helvetica,sans-Serif" font-size="10.00">+ newMessage()</text>
</g>
<!-- Node2 -->
<g id="node2" class="node"><title>Node2</title>
<polygon fill="white" stroke="#bfbfbf" points="0,-94.5 0,-151.5 170,-151.5 170,-94.5 0,-94.5"/>
<text text-anchor="middle" x="85" y="-139.5" font-family="Helvetica,sans-Serif" font-size="10.00">message_filters::SimpleFilter&lt; M &gt;</text>
<polyline fill="none" stroke="#bfbfbf" points="0,-132.5 170,-132.5 "/>
<text text-anchor="middle" x="85" y="-120.5" font-family="Helvetica,sans-Serif" font-size="10.00"> </text>
<polyline fill="none" stroke="#bfbfbf" points="0,-113.5 170,-113.5 "/>
<text text-anchor="middle" x="85" y="-101.5" font-family="Helvetica,sans-Serif" font-size="10.00"> </text>
</g>
<!-- Node2&#45;&gt;Node1 -->
<g id="edge1" class="edge"><title>Node2&#45;&gt;Node1</title>
<path fill="none" stroke="midnightblue" d="M85,-84.2092C85,-75.2929 85,-65.9513 85,-57.5836"/>
<polygon fill="none" stroke="midnightblue" points="81.5001,-84.3969 85,-94.397 88.5001,-84.397 81.5001,-84.3969"/>
</g>
</g>
</svg>
