<?xml version="1.0" encoding="UTF-8" standalone="no"?>
<!DOCTYPE svg PUBLIC "-//W3C//DTD SVG 1.1//EN"
 "http://www.w3.org/Graphics/SVG/1.1/DTD/svg11.dtd">
<!-- Generated by graphviz version 2.36.0 (20140111.2315)
 -->
<!-- Title: src/Tracking/TrackingReference.h Pages: 1 -->
<svg width="505pt" height="152pt"
 viewBox="0.00 0.00 505.00 152.00" xmlns="http://www.w3.org/2000/svg" xmlns:xlink="http://www.w3.org/1999/xlink">
<g id="graph0" class="graph" transform="scale(1 1) rotate(0) translate(4 148)">
<title>src/Tracking/TrackingReference.h</title>
<polygon fill="white" stroke="none" points="-4,4 -4,-148 501,-148 501,4 -4,4"/>
<!-- Node1 -->
<g id="node1" class="node"><title>Node1</title>
<polygon fill="#bfbfbf" stroke="black" points="166,-124.5 166,-143.5 330,-143.5 330,-124.5 166,-124.5"/>
<text text-anchor="middle" x="248" y="-131.5" font-family="Helvetica,sans-Serif" font-size="10.00">src/Tracking/TrackingReference.h</text>
</g>
<!-- Node2 -->
<g id="node2" class="node"><title>Node2</title>
<g id="a_node2"><a xlink:href="../../de/d60/settings_8h.html" target="_top" xlink:title="util/settings.h">
<polygon fill="white" stroke="black" points="27.5,-62.5 27.5,-81.5 102.5,-81.5 102.5,-62.5 27.5,-62.5"/>
<text text-anchor="middle" x="65" y="-69.5" font-family="Helvetica,sans-Serif" font-size="10.00">util/settings.h</text>
</a>
</g>
</g>
<!-- Node1&#45;&gt;Node2 -->
<g id="edge1" class="edge"><title>Node1&#45;&gt;Node2</title>
<path fill="none" stroke="midnightblue" d="M221.781,-124.403C189.982,-113.978 136.235,-96.3557 100.683,-84.6992"/>
<polygon fill="midnightblue" stroke="midnightblue" points="101.764,-81.3704 91.1708,-81.5806 99.5826,-88.022 101.764,-81.3704"/>
</g>
<!-- Node5 -->
<g id="node5" class="node"><title>Node5</title>
<g id="a_node5"><a xlink:href="../../d9/d86/EigenCoreInclude_8h.html" target="_top" xlink:title="util/EigenCoreInclude.h">
<polygon fill="white" stroke="black" points="121,-62.5 121,-81.5 239,-81.5 239,-62.5 121,-62.5"/>
<text text-anchor="middle" x="180" y="-69.5" font-family="Helvetica,sans-Serif" font-size="10.00">util/EigenCoreInclude.h</text>
</a>
</g>
</g>
<!-- Node1&#45;&gt;Node5 -->
<g id="edge4" class="edge"><title>Node1&#45;&gt;Node5</title>
<path fill="none" stroke="midnightblue" d="M238.257,-124.403C227.653,-115.047 210.481,-99.8948 197.521,-88.4599"/>
<polygon fill="midnightblue" stroke="midnightblue" points="199.539,-85.5724 189.725,-81.5806 194.907,-90.8213 199.539,-85.5724"/>
</g>
<!-- Node7 -->
<g id="node7" class="node"><title>Node7</title>
<polygon fill="white" stroke="#bfbfbf" points="257.5,-62.5 257.5,-81.5 376.5,-81.5 376.5,-62.5 257.5,-62.5"/>
<text text-anchor="middle" x="317" y="-69.5" font-family="Helvetica,sans-Serif" font-size="10.00">boost/thread/mutex.hpp</text>
</g>
<!-- Node1&#45;&gt;Node7 -->
<g id="edge6" class="edge"><title>Node1&#45;&gt;Node7</title>
<path fill="none" stroke="midnightblue" d="M257.886,-124.403C268.646,-115.047 286.071,-99.8948 299.221,-88.4599"/>
<polygon fill="midnightblue" stroke="midnightblue" points="301.883,-90.7835 307.132,-81.5806 297.29,-85.5013 301.883,-90.7835"/>
</g>
<!-- Node8 -->
<g id="node8" class="node"><title>Node8</title>
<polygon fill="white" stroke="#bfbfbf" points="394.5,-57 394.5,-87 497.5,-87 497.5,-57 394.5,-57"/>
<text text-anchor="start" x="402.5" y="-75" font-family="Helvetica,sans-Serif" font-size="10.00">boost/thread/shared</text>
<text text-anchor="middle" x="446" y="-64" font-family="Helvetica,sans-Serif" font-size="10.00">_mutex.hpp</text>
</g>
<!-- Node1&#45;&gt;Node8 -->
<g id="edge7" class="edge"><title>Node1&#45;&gt;Node8</title>
<path fill="none" stroke="midnightblue" d="M276.369,-124.403C305.915,-115.45 352.974,-101.19 390.039,-89.9579"/>
<polygon fill="midnightblue" stroke="midnightblue" points="391.161,-93.275 399.716,-87.0253 389.131,-86.5759 391.161,-93.275"/>
</g>
<!-- Node3 -->
<g id="node3" class="node"><title>Node3</title>
<polygon fill="white" stroke="#bfbfbf" points="-0.5,-0.5 -0.5,-19.5 48.5,-19.5 48.5,-0.5 -0.5,-0.5"/>
<text text-anchor="middle" x="24" y="-7.5" font-family="Helvetica,sans-Serif" font-size="10.00">string.h</text>
</g>
<!-- Node2&#45;&gt;Node3 -->
<g id="edge2" class="edge"><title>Node2&#45;&gt;Node3</title>
<path fill="none" stroke="midnightblue" d="M59.1257,-62.4035C53.0366,-53.4925 43.3552,-39.3247 35.6971,-28.1177"/>
<polygon fill="midnightblue" stroke="midnightblue" points="38.3951,-25.8624 29.8634,-19.5806 32.6156,-29.8117 38.3951,-25.8624"/>
</g>
<!-- Node4 -->
<g id="node4" class="node"><title>Node4</title>
<polygon fill="white" stroke="#bfbfbf" points="66.5,-0.5 66.5,-19.5 107.5,-19.5 107.5,-0.5 66.5,-0.5"/>
<text text-anchor="middle" x="87" y="-7.5" font-family="Helvetica,sans-Serif" font-size="10.00">string</text>
</g>
<!-- Node2&#45;&gt;Node4 -->
<g id="edge3" class="edge"><title>Node2&#45;&gt;Node4</title>
<path fill="none" stroke="midnightblue" d="M68.1521,-62.4035C71.3214,-53.7599 76.3043,-40.17 80.3508,-29.1341"/>
<polygon fill="midnightblue" stroke="midnightblue" points="83.6972,-30.1743 83.8538,-19.5806 77.1251,-27.7644 83.6972,-30.1743"/>
</g>
<!-- Node6 -->
<g id="node6" class="node"><title>Node6</title>
<polygon fill="white" stroke="#bfbfbf" points="147.5,-0.5 147.5,-19.5 212.5,-19.5 212.5,-0.5 147.5,-0.5"/>
<text text-anchor="middle" x="180" y="-7.5" font-family="Helvetica,sans-Serif" font-size="10.00">Eigen/Core</text>
</g>
<!-- Node5&#45;&gt;Node6 -->
<g id="edge5" class="edge"><title>Node5&#45;&gt;Node6</title>
<path fill="none" stroke="midnightblue" d="M180,-62.4035C180,-53.9381 180,-40.7283 180,-29.8199"/>
<polygon fill="midnightblue" stroke="midnightblue" points="183.5,-29.5806 180,-19.5806 176.5,-29.5806 183.5,-29.5806"/>
</g>
</g>
</svg>
