<?xml version="1.0" encoding="UTF-8" standalone="no"?>
<!DOCTYPE svg PUBLIC "-//W3C//DTD SVG 1.1//EN"
 "http://www.w3.org/Graphics/SVG/1.1/DTD/svg11.dtd">
<!-- Generated by graphviz version 2.36.0 (20140111.2315)
 -->
<!-- Title: ServerSiftGPU Pages: 1 -->
<!--zoomable 1728 -->
<svg id="main" version="1.1" xmlns="http://www.w3.org/2000/svg" xmlns:xlink="http://www.w3.org/1999/xlink" xml:space="preserve" onload="init(evt)">
<style type="text/css"><![CDATA[
.edge:hover path { stroke: red; }
.edge:hover polygon { stroke: red; fill: red; }
]]></style>
<script type="text/javascript"><![CDATA[
var edges = document.getElementsByTagName('g');
if (edges && edges.length) {
  for (var i=0;i<edges.length;i++) {
    if (edges[i].id.substr(0,4)=='edge') {
      edges[i].setAttribute('class','edge');
    }
  }
}
]]></script>
        <defs>
                <circle id="rim" cx="0" cy="0" r="7"/>
                <circle id="rim2" cx="0" cy="0" r="3.5"/>
                <g id="zoomPlus">
                        <use xlink:href="#rim" fill="#404040">
                                <set attributeName="fill" to="#808080" begin="zoomplus.mouseover" end="zoomplus.mouseout"/>
                        </use>
                        <path d="M-4,0h8M0,-4v8" fill="none" stroke="white" stroke-width="1.5" pointer-events="none"/>
                </g>
                <g id="zoomMin">
                        <use xlink:href="#rim" fill="#404040">
                                <set attributeName="fill" to="#808080" begin="zoomminus.mouseover" end="zoomminus.mouseout"/>
                        </use>
                        <path d="M-4,0h8" fill="none" stroke="white" stroke-width="1.5" pointer-events="none"/>
                </g>
                <g id="dirArrow">
                        <path fill="none" stroke="white" stroke-width="1.5" d="M0,-3.0v7 M-2.5,-0.5L0,-3.0L2.5,-0.5"/>
                </g>
               <g id="resetDef">
                       <use xlink:href="#rim2" fill="#404040">
                               <set attributeName="fill" to="#808080" begin="reset.mouseover" end="reset.mouseout"/>
                       </use>
               </g>
        </defs>

<script type="text/javascript">
var viewWidth = 638;
var viewHeight = 1728;
var sectionId = 'dynsection-1';
</script>
<script xlink:href="../../svgpan.js"/>
<svg id="graph" class="graph">
<g id="viewport">
<title>ServerSiftGPU</title>
<polygon fill="white" stroke="none" points="-4,4 -4,-1724 634,-1724 634,4 -4,4"/>
<!-- Node1 -->
<g id="node1" class="node"><title>Node1</title>
<polygon fill="#bfbfbf" stroke="black" points="262,-0.5 262,-167.5 366,-167.5 366,-0.5 262,-0.5"/>
<text text-anchor="middle" x="314" y="-155.5" font-family="Helvetica,sans-Serif" font-size="10.00">ServerSiftGPU</text>
<polyline fill="none" stroke="black" points="262,-148.5 366,-148.5 "/>
<text text-anchor="middle" x="314" y="-136.5" font-family="Helvetica,sans-Serif" font-size="10.00"> </text>
<polyline fill="none" stroke="black" points="262,-129.5 366,-129.5 "/>
<text text-anchor="start" x="270" y="-117.5" font-family="Helvetica,sans-Serif" font-size="10.00">+ ServerSiftGPU()</text>
<text text-anchor="start" x="270" y="-106.5" font-family="Helvetica,sans-Serif" font-size="10.00">+ ~ServerSiftGPU()</text>
<text text-anchor="start" x="270" y="-95.5" font-family="Helvetica,sans-Serif" font-size="10.00">+ ParseParam()</text>
<text text-anchor="start" x="270" y="-84.5" font-family="Helvetica,sans-Serif" font-size="10.00">+ VerifyContextGL()</text>
<text text-anchor="start" x="270" y="-73.5" font-family="Helvetica,sans-Serif" font-size="10.00">+ RunSIFT()</text>
<text text-anchor="start" x="270" y="-62.5" font-family="Helvetica,sans-Serif" font-size="10.00">+ RunSIFT()</text>
<text text-anchor="start" x="270" y="-51.5" font-family="Helvetica,sans-Serif" font-size="10.00">+ RunSIFT()</text>
<text text-anchor="start" x="270" y="-40.5" font-family="Helvetica,sans-Serif" font-size="10.00">+ RunSIFT()</text>
<text text-anchor="start" x="270" y="-29.5" font-family="Helvetica,sans-Serif" font-size="10.00">+ AllocatePyramid()</text>
<text text-anchor="start" x="270" y="-18.5" font-family="Helvetica,sans-Serif" font-size="10.00">+ GetFeatureNum()</text>
<text text-anchor="start" x="270" y="-7.5" font-family="Helvetica,sans-Serif" font-size="10.00">and 21 more...</text>
</g>
<!-- Node2 -->
<g id="node2" class="node"><title>Node2</title>
<g id="a_node2"><a xlink:href="../../d3/d80/classComboSiftGPU.html" target="_top" xlink:title="{ComboSiftGPU\n||+ operator new()\l}">
<polygon fill="white" stroke="black" points="270,-206.5 270,-263.5 358,-263.5 358,-206.5 270,-206.5"/>
<text text-anchor="middle" x="314" y="-251.5" font-family="Helvetica,sans-Serif" font-size="10.00">ComboSiftGPU</text>
<polyline fill="none" stroke="black" points="270,-244.5 358,-244.5 "/>
<text text-anchor="middle" x="314" y="-232.5" font-family="Helvetica,sans-Serif" font-size="10.00"> </text>
<polyline fill="none" stroke="black" points="270,-225.5 358,-225.5 "/>
<text text-anchor="start" x="278" y="-213.5" font-family="Helvetica,sans-Serif" font-size="10.00">+ operator new()</text>
</a>
</g>
</g>
<!-- Node2&#45;&gt;Node1 -->
<g id="edge1" class="edge"><title>Node2&#45;&gt;Node1</title>
<path fill="none" stroke="midnightblue" d="M314,-196.07C314,-187.256 314,-177.533 314,-167.617"/>
<polygon fill="none" stroke="midnightblue" points="310.5,-196.323 314,-206.323 317.5,-196.323 310.5,-196.323"/>
</g>
<!-- Node3 -->
<g id="node3" class="node"><title>Node3</title>
<g id="a_node3"><a xlink:href="../../d4/dee/classSiftGPU.html" target="_top" xlink:title="{SiftGPU\n|+ _timing\l# _current\l# _initialized\l# _image_loaded\l# _imgpath\l# _outpath\l|+ GetCurrentImagePath()\l+ SetImageList()\l+ GetFeatureNum()\l+ SaveSIFT()\l+ GetFeatureVector()\l+ SetKeypointList()\l+ CreateContextGL()\l+ VerifyContextGL()\l+ IsFullSupported()\l+ SetVerbose()\land 15 more...\l# InitSiftGPU()\l# LoadImageList()\l# PrintUsage()\l}">
<polygon fill="white" stroke="black" points="144.5,-302.5 144.5,-557.5 271.5,-557.5 271.5,-302.5 144.5,-302.5"/>
<text text-anchor="middle" x="208" y="-545.5" font-family="Helvetica,sans-Serif" font-size="10.00">SiftGPU</text>
<polyline fill="none" stroke="black" points="144.5,-538.5 271.5,-538.5 "/>
<text text-anchor="start" x="152.5" y="-526.5" font-family="Helvetica,sans-Serif" font-size="10.00">+ _timing</text>
<text text-anchor="start" x="152.5" y="-515.5" font-family="Helvetica,sans-Serif" font-size="10.00"># _current</text>
<text text-anchor="start" x="152.5" y="-504.5" font-family="Helvetica,sans-Serif" font-size="10.00"># _initialized</text>
<text text-anchor="start" x="152.5" y="-493.5" font-family="Helvetica,sans-Serif" font-size="10.00"># _image_loaded</text>
<text text-anchor="start" x="152.5" y="-482.5" font-family="Helvetica,sans-Serif" font-size="10.00"># _imgpath</text>
<text text-anchor="start" x="152.5" y="-471.5" font-family="Helvetica,sans-Serif" font-size="10.00"># _outpath</text>
<polyline fill="none" stroke="black" points="144.5,-464.5 271.5,-464.5 "/>
<text text-anchor="start" x="152.5" y="-452.5" font-family="Helvetica,sans-Serif" font-size="10.00">+ GetCurrentImagePath()</text>
<text text-anchor="start" x="152.5" y="-441.5" font-family="Helvetica,sans-Serif" font-size="10.00">+ SetImageList()</text>
<text text-anchor="start" x="152.5" y="-430.5" font-family="Helvetica,sans-Serif" font-size="10.00">+ GetFeatureNum()</text>
<text text-anchor="start" x="152.5" y="-419.5" font-family="Helvetica,sans-Serif" font-size="10.00">+ SaveSIFT()</text>
<text text-anchor="start" x="152.5" y="-408.5" font-family="Helvetica,sans-Serif" font-size="10.00">+ GetFeatureVector()</text>
<text text-anchor="start" x="152.5" y="-397.5" font-family="Helvetica,sans-Serif" font-size="10.00">+ SetKeypointList()</text>
<text text-anchor="start" x="152.5" y="-386.5" font-family="Helvetica,sans-Serif" font-size="10.00">+ CreateContextGL()</text>
<text text-anchor="start" x="152.5" y="-375.5" font-family="Helvetica,sans-Serif" font-size="10.00">+ VerifyContextGL()</text>
<text text-anchor="start" x="152.5" y="-364.5" font-family="Helvetica,sans-Serif" font-size="10.00">+ IsFullSupported()</text>
<text text-anchor="start" x="152.5" y="-353.5" font-family="Helvetica,sans-Serif" font-size="10.00">+ SetVerbose()</text>
<text text-anchor="start" x="152.5" y="-342.5" font-family="Helvetica,sans-Serif" font-size="10.00">and 15 more...</text>
<text text-anchor="start" x="152.5" y="-331.5" font-family="Helvetica,sans-Serif" font-size="10.00"># InitSiftGPU()</text>
<text text-anchor="start" x="152.5" y="-320.5" font-family="Helvetica,sans-Serif" font-size="10.00"># LoadImageList()</text>
<text text-anchor="start" x="152.5" y="-309.5" font-family="Helvetica,sans-Serif" font-size="10.00"># PrintUsage()</text>
</a>
</g>
</g>
<!-- Node3&#45;&gt;Node2 -->
<g id="edge2" class="edge"><title>Node3&#45;&gt;Node2</title>
<path fill="none" stroke="midnightblue" d="M276.576,-304.14C284.847,-289.081 292.562,-275.033 298.813,-263.651"/>
<polygon fill="none" stroke="midnightblue" points="273.395,-302.661 271.649,-313.111 279.531,-306.031 273.395,-302.661"/>
</g>
<!-- Node4 -->
<g id="node4" class="node"><title>Node4</title>
<g id="a_node4"><a xlink:href="../../dc/d5a/classSiftParam.html" target="_top" xlink:title="{SiftParam\n|+ _sigma\l+ _sigma_skip0\l+ _sigma_skip1\l+ _sigma0\l+ _sigman\l+ _sigma_num\l+ _dog_level_num\l+ _level_num\l+ _level_min\l+ _level_max\l+ _level_ds\l+ _dog_threshold\l+ _edge_threshold\l|+ ParseSiftParam()\l+ GetLevelSigma()\l+ GetInitialSmoothSigma()\l+ SiftParam()\l}">
<polygon fill="white" stroke="black" points="127,-1058 127,-1280 259,-1280 259,-1058 127,-1058"/>
<text text-anchor="middle" x="193" y="-1268" font-family="Helvetica,sans-Serif" font-size="10.00">SiftParam</text>
<polyline fill="none" stroke="black" points="127,-1261 259,-1261 "/>
<text text-anchor="start" x="135" y="-1249" font-family="Helvetica,sans-Serif" font-size="10.00">+ _sigma</text>
<text text-anchor="start" x="135" y="-1238" font-family="Helvetica,sans-Serif" font-size="10.00">+ _sigma_skip0</text>
<text text-anchor="start" x="135" y="-1227" font-family="Helvetica,sans-Serif" font-size="10.00">+ _sigma_skip1</text>
<text text-anchor="start" x="135" y="-1216" font-family="Helvetica,sans-Serif" font-size="10.00">+ _sigma0</text>
<text text-anchor="start" x="135" y="-1205" font-family="Helvetica,sans-Serif" font-size="10.00">+ _sigman</text>
<text text-anchor="start" x="135" y="-1194" font-family="Helvetica,sans-Serif" font-size="10.00">+ _sigma_num</text>
<text text-anchor="start" x="135" y="-1183" font-family="Helvetica,sans-Serif" font-size="10.00">+ _dog_level_num</text>
<text text-anchor="start" x="135" y="-1172" font-family="Helvetica,sans-Serif" font-size="10.00">+ _level_num</text>
<text text-anchor="start" x="135" y="-1161" font-family="Helvetica,sans-Serif" font-size="10.00">+ _level_min</text>
<text text-anchor="start" x="135" y="-1150" font-family="Helvetica,sans-Serif" font-size="10.00">+ _level_max</text>
<text text-anchor="start" x="135" y="-1139" font-family="Helvetica,sans-Serif" font-size="10.00">+ _level_ds</text>
<text text-anchor="start" x="135" y="-1128" font-family="Helvetica,sans-Serif" font-size="10.00">+ _dog_threshold</text>
<text text-anchor="start" x="135" y="-1117" font-family="Helvetica,sans-Serif" font-size="10.00">+ _edge_threshold</text>
<polyline fill="none" stroke="black" points="127,-1110 259,-1110 "/>
<text text-anchor="start" x="135" y="-1098" font-family="Helvetica,sans-Serif" font-size="10.00">+ ParseSiftParam()</text>
<text text-anchor="start" x="135" y="-1087" font-family="Helvetica,sans-Serif" font-size="10.00">+ GetLevelSigma()</text>
<text text-anchor="start" x="135" y="-1076" font-family="Helvetica,sans-Serif" font-size="10.00">+ GetInitialSmoothSigma()</text>
<text text-anchor="start" x="135" y="-1065" font-family="Helvetica,sans-Serif" font-size="10.00">+ SiftParam()</text>
</a>
</g>
</g>
<!-- Node4&#45;&gt;Node3 -->
<g id="edge3" class="edge"><title>Node4&#45;&gt;Node3</title>
<path fill="none" stroke="midnightblue" d="M195.457,-1047.29C198.203,-912.355 202.63,-694.829 205.424,-557.562"/>
<polygon fill="none" stroke="midnightblue" points="191.95,-1047.59 195.246,-1057.66 198.949,-1047.74 191.95,-1047.59"/>
</g>
<!-- Node5 -->
<g id="node5" class="node"><title>Node5</title>
<g id="a_node5"><a xlink:href="../../dd/dce/classSiftPyramid.html" target="_top" xlink:title="{SiftPyramid\n|+ _timing\l+ _octave_min\l+ _octave_num\l+ _pyramid_octave_num\l+ _pyramid_octave_first\l+ _pyramid_width\l+ _pyramid_height\l+ _down_sample_factor\l+ _allocated\l+ _alignment\l+ _siftgpu_failed\l# _hpLevelNum\l# _levelFeatureNum\l# _featureNum\l# _histo_buffer\l# _existing_keypoints\l# _featureDisplayVBO\l# _featurePointVBO\l|+ RunSIFT()\l+ SaveSIFT()\l+ CopyFeatureVector()\l+ SetKeypointList()\l+ GetFeatureDescriptors()\l+ GenerateFeatureListTex()\l+ ReshapeFeatureListCPU()\l+ GenerateFeatureDisplayVBO()\l+ DownloadKeypoints()\l+ GenerateFeatureListCPU()\land 23 more...\l+ GetRequiredOctaveNum()\l}">
<polygon fill="white" stroke="black" points="220,-606.5 220,-971.5 378,-971.5 378,-606.5 220,-606.5"/>
<text text-anchor="middle" x="299" y="-959.5" font-family="Helvetica,sans-Serif" font-size="10.00">SiftPyramid</text>
<polyline fill="none" stroke="black" points="220,-952.5 378,-952.5 "/>
<text text-anchor="start" x="228" y="-940.5" font-family="Helvetica,sans-Serif" font-size="10.00">+ _timing</text>
<text text-anchor="start" x="228" y="-929.5" font-family="Helvetica,sans-Serif" font-size="10.00">+ _octave_min</text>
<text text-anchor="start" x="228" y="-918.5" font-family="Helvetica,sans-Serif" font-size="10.00">+ _octave_num</text>
<text text-anchor="start" x="228" y="-907.5" font-family="Helvetica,sans-Serif" font-size="10.00">+ _pyramid_octave_num</text>
<text text-anchor="start" x="228" y="-896.5" font-family="Helvetica,sans-Serif" font-size="10.00">+ _pyramid_octave_first</text>
<text text-anchor="start" x="228" y="-885.5" font-family="Helvetica,sans-Serif" font-size="10.00">+ _pyramid_width</text>
<text text-anchor="start" x="228" y="-874.5" font-family="Helvetica,sans-Serif" font-size="10.00">+ _pyramid_height</text>
<text text-anchor="start" x="228" y="-863.5" font-family="Helvetica,sans-Serif" font-size="10.00">+ _down_sample_factor</text>
<text text-anchor="start" x="228" y="-852.5" font-family="Helvetica,sans-Serif" font-size="10.00">+ _allocated</text>
<text text-anchor="start" x="228" y="-841.5" font-family="Helvetica,sans-Serif" font-size="10.00">+ _alignment</text>
<text text-anchor="start" x="228" y="-830.5" font-family="Helvetica,sans-Serif" font-size="10.00">+ _siftgpu_failed</text>
<text text-anchor="start" x="228" y="-819.5" font-family="Helvetica,sans-Serif" font-size="10.00"># _hpLevelNum</text>
<text text-anchor="start" x="228" y="-808.5" font-family="Helvetica,sans-Serif" font-size="10.00"># _levelFeatureNum</text>
<text text-anchor="start" x="228" y="-797.5" font-family="Helvetica,sans-Serif" font-size="10.00"># _featureNum</text>
<text text-anchor="start" x="228" y="-786.5" font-family="Helvetica,sans-Serif" font-size="10.00"># _histo_buffer</text>
<text text-anchor="start" x="228" y="-775.5" font-family="Helvetica,sans-Serif" font-size="10.00"># _existing_keypoints</text>
<text text-anchor="start" x="228" y="-764.5" font-family="Helvetica,sans-Serif" font-size="10.00"># _featureDisplayVBO</text>
<text text-anchor="start" x="228" y="-753.5" font-family="Helvetica,sans-Serif" font-size="10.00"># _featurePointVBO</text>
<polyline fill="none" stroke="black" points="220,-746.5 378,-746.5 "/>
<text text-anchor="start" x="228" y="-734.5" font-family="Helvetica,sans-Serif" font-size="10.00">+ RunSIFT()</text>
<text text-anchor="start" x="228" y="-723.5" font-family="Helvetica,sans-Serif" font-size="10.00">+ SaveSIFT()</text>
<text text-anchor="start" x="228" y="-712.5" font-family="Helvetica,sans-Serif" font-size="10.00">+ CopyFeatureVector()</text>
<text text-anchor="start" x="228" y="-701.5" font-family="Helvetica,sans-Serif" font-size="10.00">+ SetKeypointList()</text>
<text text-anchor="start" x="228" y="-690.5" font-family="Helvetica,sans-Serif" font-size="10.00">+ GetFeatureDescriptors()</text>
<text text-anchor="start" x="228" y="-679.5" font-family="Helvetica,sans-Serif" font-size="10.00">+ GenerateFeatureListTex()</text>
<text text-anchor="start" x="228" y="-668.5" font-family="Helvetica,sans-Serif" font-size="10.00">+ ReshapeFeatureListCPU()</text>
<text text-anchor="start" x="228" y="-657.5" font-family="Helvetica,sans-Serif" font-size="10.00">+ GenerateFeatureDisplayVBO()</text>
<text text-anchor="start" x="228" y="-646.5" font-family="Helvetica,sans-Serif" font-size="10.00">+ DownloadKeypoints()</text>
<text text-anchor="start" x="228" y="-635.5" font-family="Helvetica,sans-Serif" font-size="10.00">+ GenerateFeatureListCPU()</text>
<text text-anchor="start" x="228" y="-624.5" font-family="Helvetica,sans-Serif" font-size="10.00">and 23 more...</text>
<text text-anchor="start" x="228" y="-613.5" font-family="Helvetica,sans-Serif" font-size="10.00">+ GetRequiredOctaveNum()</text>
</a>
</g>
</g>
<!-- Node4&#45;&gt;Node5 -->
<g id="edge7" class="edge"><title>Node4&#45;&gt;Node5</title>
<path fill="none" stroke="#404040" d="M223.873,-1057.9C230.445,-1034.47 237.571,-1009.06 244.727,-983.54"/>
<polygon fill="none" stroke="#404040" points="244.775,-983.368 242.544,-976.511 248.015,-971.814 250.246,-978.671 244.775,-983.368"/>
<text text-anchor="middle" x="261" y="-998.5" font-family="Helvetica,sans-Serif" font-size="10.00"> #param</text>
</g>
<!-- Node5&#45;&gt;Node3 -->
<g id="edge4" class="edge"><title>Node5&#45;&gt;Node3</title>
<path fill="none" stroke="#404040" d="M252.7,-606.362C249.572,-594.09 246.449,-581.837 243.389,-569.836"/>
<polygon fill="none" stroke="#404040" points="243.318,-569.555 237.96,-564.729 240.354,-557.927 245.712,-562.753 243.318,-569.555"/>
<text text-anchor="middle" x="270.5" y="-579.5" font-family="Helvetica,sans-Serif" font-size="10.00"> #_pyramid</text>
</g>
<!-- Node6 -->
<g id="node6" class="node"><title>Node6</title>
<g id="a_node6"><a xlink:href="../../d2/d55/classGlobalUtil.html" target="_top" xlink:title="{GlobalUtil\n||+ CLOCK()\l+ StopTimer()\l+ StartTimer()\l+ GetElapsedTime()\l+ FitViewPort()\l+ SetTextureParameter()\l+ SetTextureParameterUS()\l+ CheckErrorsGL()\l+ CheckFramebufferStatus()\l+ SelectDisplay()\land 6 more...\l}">
<polygon fill="white" stroke="black" points="220.5,-1346.5 220.5,-1513.5 361.5,-1513.5 361.5,-1346.5 220.5,-1346.5"/>
<text text-anchor="middle" x="291" y="-1501.5" font-family="Helvetica,sans-Serif" font-size="10.00">GlobalUtil</text>
<polyline fill="none" stroke="black" points="220.5,-1494.5 361.5,-1494.5 "/>
<text text-anchor="middle" x="291" y="-1482.5" font-family="Helvetica,sans-Serif" font-size="10.00"> </text>
<polyline fill="none" stroke="black" points="220.5,-1475.5 361.5,-1475.5 "/>
<text text-anchor="start" x="228.5" y="-1463.5" font-family="Helvetica,sans-Serif" font-size="10.00">+ CLOCK()</text>
<text text-anchor="start" x="228.5" y="-1452.5" font-family="Helvetica,sans-Serif" font-size="10.00">+ StopTimer()</text>
<text text-anchor="start" x="228.5" y="-1441.5" font-family="Helvetica,sans-Serif" font-size="10.00">+ StartTimer()</text>
<text text-anchor="start" x="228.5" y="-1430.5" font-family="Helvetica,sans-Serif" font-size="10.00">+ GetElapsedTime()</text>
<text text-anchor="start" x="228.5" y="-1419.5" font-family="Helvetica,sans-Serif" font-size="10.00">+ FitViewPort()</text>
<text text-anchor="start" x="228.5" y="-1408.5" font-family="Helvetica,sans-Serif" font-size="10.00">+ SetTextureParameter()</text>
<text text-anchor="start" x="228.5" y="-1397.5" font-family="Helvetica,sans-Serif" font-size="10.00">+ SetTextureParameterUS()</text>
<text text-anchor="start" x="228.5" y="-1386.5" font-family="Helvetica,sans-Serif" font-size="10.00">+ CheckErrorsGL()</text>
<text text-anchor="start" x="228.5" y="-1375.5" font-family="Helvetica,sans-Serif" font-size="10.00">+ CheckFramebufferStatus()</text>
<text text-anchor="start" x="228.5" y="-1364.5" font-family="Helvetica,sans-Serif" font-size="10.00">+ SelectDisplay()</text>
<text text-anchor="start" x="228.5" y="-1353.5" font-family="Helvetica,sans-Serif" font-size="10.00">and 6 more...</text>
</a>
</g>
</g>
<!-- Node6&#45;&gt;Node5 -->
<g id="edge5" class="edge"><title>Node6&#45;&gt;Node5</title>
<path fill="none" stroke="midnightblue" d="M347.668,-1337.16C351.803,-1327.57 355.375,-1317.75 358,-1308 394.748,-1171.5 386.118,-1129.62 364,-990 363.043,-983.96 361.933,-977.854 360.694,-971.717"/>
<polygon fill="none" stroke="midnightblue" points="344.476,-1335.72 343.543,-1346.28 350.853,-1338.61 344.476,-1335.72"/>
</g>
<!-- Node11 -->
<g id="node11" class="node"><title>Node11</title>
<g id="a_node11"><a xlink:href="../../df/da6/classGLTexImage.html" target="_top" xlink:title="{GLTexImage\n|# _texID\l# _imgWidth\l# _imgHeight\l# _texWidth\l# _texHeight\l# _drawWidth\l# _drawHeight\l|+ DrawQuadUS()\l+ DrawQuadDS()\l+ DrawImage()\l+ TexConvertRGB()\l+ ZeroHistoMargin()\l+ SetImageSize()\l+ InitTexture()\l+ InitTexture()\l+ FillMargin()\l+ DrawScaledQuad()\land 28 more...\l+ DetachFBO()\l+ UnbindTex()\l+ UnbindMultiTex()\l+ DrawQuad()\l}">
<polygon fill="white" stroke="black" points="1,-1030.5 1,-1307.5 109,-1307.5 109,-1030.5 1,-1030.5"/>
<text text-anchor="middle" x="55" y="-1295.5" font-family="Helvetica,sans-Serif" font-size="10.00">GLTexImage</text>
<polyline fill="none" stroke="black" points="1,-1288.5 109,-1288.5 "/>
<text text-anchor="start" x="9" y="-1276.5" font-family="Helvetica,sans-Serif" font-size="10.00"># _texID</text>
<text text-anchor="start" x="9" y="-1265.5" font-family="Helvetica,sans-Serif" font-size="10.00"># _imgWidth</text>
<text text-anchor="start" x="9" y="-1254.5" font-family="Helvetica,sans-Serif" font-size="10.00"># _imgHeight</text>
<text text-anchor="start" x="9" y="-1243.5" font-family="Helvetica,sans-Serif" font-size="10.00"># _texWidth</text>
<text text-anchor="start" x="9" y="-1232.5" font-family="Helvetica,sans-Serif" font-size="10.00"># _texHeight</text>
<text text-anchor="start" x="9" y="-1221.5" font-family="Helvetica,sans-Serif" font-size="10.00"># _drawWidth</text>
<text text-anchor="start" x="9" y="-1210.5" font-family="Helvetica,sans-Serif" font-size="10.00"># _drawHeight</text>
<polyline fill="none" stroke="black" points="1,-1203.5 109,-1203.5 "/>
<text text-anchor="start" x="9" y="-1191.5" font-family="Helvetica,sans-Serif" font-size="10.00">+ DrawQuadUS()</text>
<text text-anchor="start" x="9" y="-1180.5" font-family="Helvetica,sans-Serif" font-size="10.00">+ DrawQuadDS()</text>
<text text-anchor="start" x="9" y="-1169.5" font-family="Helvetica,sans-Serif" font-size="10.00">+ DrawImage()</text>
<text text-anchor="start" x="9" y="-1158.5" font-family="Helvetica,sans-Serif" font-size="10.00">+ TexConvertRGB()</text>
<text text-anchor="start" x="9" y="-1147.5" font-family="Helvetica,sans-Serif" font-size="10.00">+ ZeroHistoMargin()</text>
<text text-anchor="start" x="9" y="-1136.5" font-family="Helvetica,sans-Serif" font-size="10.00">+ SetImageSize()</text>
<text text-anchor="start" x="9" y="-1125.5" font-family="Helvetica,sans-Serif" font-size="10.00">+ InitTexture()</text>
<text text-anchor="start" x="9" y="-1114.5" font-family="Helvetica,sans-Serif" font-size="10.00">+ InitTexture()</text>
<text text-anchor="start" x="9" y="-1103.5" font-family="Helvetica,sans-Serif" font-size="10.00">+ FillMargin()</text>
<text text-anchor="start" x="9" y="-1092.5" font-family="Helvetica,sans-Serif" font-size="10.00">+ DrawScaledQuad()</text>
<text text-anchor="start" x="9" y="-1081.5" font-family="Helvetica,sans-Serif" font-size="10.00">and 28 more...</text>
<text text-anchor="start" x="9" y="-1070.5" font-family="Helvetica,sans-Serif" font-size="10.00">+ DetachFBO()</text>
<text text-anchor="start" x="9" y="-1059.5" font-family="Helvetica,sans-Serif" font-size="10.00">+ UnbindTex()</text>
<text text-anchor="start" x="9" y="-1048.5" font-family="Helvetica,sans-Serif" font-size="10.00">+ UnbindMultiTex()</text>
<text text-anchor="start" x="9" y="-1037.5" font-family="Helvetica,sans-Serif" font-size="10.00">+ DrawQuad()</text>
</a>
</g>
</g>
<!-- Node6&#45;&gt;Node11 -->
<g id="edge12" class="edge"><title>Node6&#45;&gt;Node11</title>
<path fill="none" stroke="midnightblue" d="M211.685,-1386.14C179.469,-1365.76 143.835,-1339.03 118,-1308 114.882,-1304.26 111.886,-1300.33 109.01,-1296.27"/>
<polygon fill="none" stroke="midnightblue" points="209.89,-1389.15 220.23,-1391.45 213.585,-1383.2 209.89,-1389.15"/>
</g>
<!-- Node7 -->
<g id="node7" class="node"><title>Node7</title>
<g id="a_node7"><a xlink:href="../../db/d04/classGlobalParam.html" target="_top" xlink:title="{GlobalParam\n|+ _texTarget\l+ _iTexFormat\l+ _texMaxDim\l+ _texMaxDimGL\l+ _texMinDim\l+ _MemCapGPU\l+ _FitMemoryCap\l+ _verbose\l+ _timingS\l+ _timingO\land 53 more...\l|}">
<polygon fill="white" stroke="black" points="243.5,-1552.5 243.5,-1719.5 338.5,-1719.5 338.5,-1552.5 243.5,-1552.5"/>
<text text-anchor="middle" x="291" y="-1707.5" font-family="Helvetica,sans-Serif" font-size="10.00">GlobalParam</text>
<polyline fill="none" stroke="black" points="243.5,-1700.5 338.5,-1700.5 "/>
<text text-anchor="start" x="251.5" y="-1688.5" font-family="Helvetica,sans-Serif" font-size="10.00">+ _texTarget</text>
<text text-anchor="start" x="251.5" y="-1677.5" font-family="Helvetica,sans-Serif" font-size="10.00">+ _iTexFormat</text>
<text text-anchor="start" x="251.5" y="-1666.5" font-family="Helvetica,sans-Serif" font-size="10.00">+ _texMaxDim</text>
<text text-anchor="start" x="251.5" y="-1655.5" font-family="Helvetica,sans-Serif" font-size="10.00">+ _texMaxDimGL</text>
<text text-anchor="start" x="251.5" y="-1644.5" font-family="Helvetica,sans-Serif" font-size="10.00">+ _texMinDim</text>
<text text-anchor="start" x="251.5" y="-1633.5" font-family="Helvetica,sans-Serif" font-size="10.00">+ _MemCapGPU</text>
<text text-anchor="start" x="251.5" y="-1622.5" font-family="Helvetica,sans-Serif" font-size="10.00">+ _FitMemoryCap</text>
<text text-anchor="start" x="251.5" y="-1611.5" font-family="Helvetica,sans-Serif" font-size="10.00">+ _verbose</text>
<text text-anchor="start" x="251.5" y="-1600.5" font-family="Helvetica,sans-Serif" font-size="10.00">+ _timingS</text>
<text text-anchor="start" x="251.5" y="-1589.5" font-family="Helvetica,sans-Serif" font-size="10.00">+ _timingO</text>
<text text-anchor="start" x="251.5" y="-1578.5" font-family="Helvetica,sans-Serif" font-size="10.00">and 53 more...</text>
<polyline fill="none" stroke="black" points="243.5,-1571.5 338.5,-1571.5 "/>
<text text-anchor="middle" x="291" y="-1559.5" font-family="Helvetica,sans-Serif" font-size="10.00"> </text>
</a>
</g>
</g>
<!-- Node7&#45;&gt;Node6 -->
<g id="edge6" class="edge"><title>Node7&#45;&gt;Node6</title>
<path fill="none" stroke="midnightblue" d="M291,-1542.13C291,-1532.68 291,-1523.13 291,-1513.8"/>
<polygon fill="none" stroke="midnightblue" points="287.5,-1542.32 291,-1552.32 294.5,-1542.32 287.5,-1542.32"/>
</g>
<!-- Node8 -->
<g id="node8" class="node"><title>Node8</title>
<polygon fill="white" stroke="#bfbfbf" points="406,-1140.5 406,-1197.5 486,-1197.5 486,-1140.5 406,-1140.5"/>
<text text-anchor="middle" x="446" y="-1185.5" font-family="Helvetica,sans-Serif" font-size="10.00">vector&lt; float &gt;</text>
<polyline fill="none" stroke="#bfbfbf" points="406,-1178.5 486,-1178.5 "/>
<text text-anchor="middle" x="446" y="-1166.5" font-family="Helvetica,sans-Serif" font-size="10.00"> </text>
<polyline fill="none" stroke="#bfbfbf" points="406,-1159.5 486,-1159.5 "/>
<text text-anchor="middle" x="446" y="-1147.5" font-family="Helvetica,sans-Serif" font-size="10.00"> </text>
</g>
<!-- Node8&#45;&gt;Node5 -->
<g id="edge8" class="edge"><title>Node8&#45;&gt;Node5</title>
<path fill="none" stroke="#404040" d="M438.939,-1140.46C429.589,-1105.13 411.937,-1042.19 392,-990 389.051,-982.281 385.938,-974.441 382.711,-966.557"/>
<polygon fill="none" stroke="#404040" points="382.676,-966.473 376.681,-962.464 378.076,-955.389 384.07,-959.398 382.676,-966.473"/>
<text text-anchor="middle" x="443" y="-1004" font-family="Helvetica,sans-Serif" font-size="10.00"> +_descriptor_buffer</text>
<text text-anchor="middle" x="443" y="-993" font-family="Helvetica,sans-Serif" font-size="10.00">+_keypoint_buffer</text>
</g>
<!-- Node9 -->
<g id="node9" class="node"><title>Node9</title>
<polygon fill="white" stroke="#bfbfbf" points="277,-1140.5 277,-1197.5 349,-1197.5 349,-1140.5 277,-1140.5"/>
<text text-anchor="middle" x="313" y="-1185.5" font-family="Helvetica,sans-Serif" font-size="10.00">vector&lt; int &gt;</text>
<polyline fill="none" stroke="#bfbfbf" points="277,-1178.5 349,-1178.5 "/>
<text text-anchor="middle" x="313" y="-1166.5" font-family="Helvetica,sans-Serif" font-size="10.00"> </text>
<polyline fill="none" stroke="#bfbfbf" points="277,-1159.5 349,-1159.5 "/>
<text text-anchor="middle" x="313" y="-1147.5" font-family="Helvetica,sans-Serif" font-size="10.00"> </text>
</g>
<!-- Node9&#45;&gt;Node5 -->
<g id="edge9" class="edge"><title>Node9&#45;&gt;Node5</title>
<path fill="none" stroke="#404040" d="M306.49,-1140.3C299.558,-1109.27 289.038,-1057.36 285,-1012 284.181,-1002.8 283.638,-993.39 283.325,-983.878"/>
<polygon fill="none" stroke="#404040" points="283.323,-983.784 279.186,-977.877 283.048,-971.787 287.184,-977.694 283.323,-983.784"/>
<text text-anchor="middle" x="324.5" y="-998.5" font-family="Helvetica,sans-Serif" font-size="10.00"> #_keypoint_index</text>
</g>
<!-- Node10 -->
<g id="node10" class="node"><title>Node10</title>
<g id="a_node10"><a xlink:href="../../d0/d3c/classGLTexInput.html" target="_top" xlink:title="{GLTexInput\n|+ _down_sampled\l+ _rgb_converted\l+ _data_modified\l+ _converted_data\l+ _pixel_data\l|+ GLTexInput()\l+ SetImageData()\l+ LoadImageFile()\l+ VerifyTexture()\l+ ~GLTexInput()\l+ IsSimpleGlFormat()\l+ DownSamplePixelDataI()\l+ DownSamplePixelDataI2F()\l+ DownSamplePixelDataF()\l+ TruncateWidthCU()\l}">
<polygon fill="white" stroke="black" points="-0.5,-689 -0.5,-889 146.5,-889 146.5,-689 -0.5,-689"/>
<text text-anchor="middle" x="73" y="-877" font-family="Helvetica,sans-Serif" font-size="10.00">GLTexInput</text>
<polyline fill="none" stroke="black" points="-0.5,-870 146.5,-870 "/>
<text text-anchor="start" x="7.5" y="-858" font-family="Helvetica,sans-Serif" font-size="10.00">+ _down_sampled</text>
<text text-anchor="start" x="7.5" y="-847" font-family="Helvetica,sans-Serif" font-size="10.00">+ _rgb_converted</text>
<text text-anchor="start" x="7.5" y="-836" font-family="Helvetica,sans-Serif" font-size="10.00">+ _data_modified</text>
<text text-anchor="start" x="7.5" y="-825" font-family="Helvetica,sans-Serif" font-size="10.00">+ _converted_data</text>
<text text-anchor="start" x="7.5" y="-814" font-family="Helvetica,sans-Serif" font-size="10.00">+ _pixel_data</text>
<polyline fill="none" stroke="black" points="-0.5,-807 146.5,-807 "/>
<text text-anchor="start" x="7.5" y="-795" font-family="Helvetica,sans-Serif" font-size="10.00">+ GLTexInput()</text>
<text text-anchor="start" x="7.5" y="-784" font-family="Helvetica,sans-Serif" font-size="10.00">+ SetImageData()</text>
<text text-anchor="start" x="7.5" y="-773" font-family="Helvetica,sans-Serif" font-size="10.00">+ LoadImageFile()</text>
<text text-anchor="start" x="7.5" y="-762" font-family="Helvetica,sans-Serif" font-size="10.00">+ VerifyTexture()</text>
<text text-anchor="start" x="7.5" y="-751" font-family="Helvetica,sans-Serif" font-size="10.00">+ ~GLTexInput()</text>
<text text-anchor="start" x="7.5" y="-740" font-family="Helvetica,sans-Serif" font-size="10.00">+ IsSimpleGlFormat()</text>
<text text-anchor="start" x="7.5" y="-729" font-family="Helvetica,sans-Serif" font-size="10.00">+ DownSamplePixelDataI()</text>
<text text-anchor="start" x="7.5" y="-718" font-family="Helvetica,sans-Serif" font-size="10.00">+ DownSamplePixelDataI2F()</text>
<text text-anchor="start" x="7.5" y="-707" font-family="Helvetica,sans-Serif" font-size="10.00">+ DownSamplePixelDataF()</text>
<text text-anchor="start" x="7.5" y="-696" font-family="Helvetica,sans-Serif" font-size="10.00">+ TruncateWidthCU()</text>
</a>
</g>
</g>
<!-- Node10&#45;&gt;Node3 -->
<g id="edge10" class="edge"><title>Node10&#45;&gt;Node3</title>
<path fill="none" stroke="#404040" d="M90.0025,-688.754C97.863,-652.535 108.695,-611.719 123,-576 127.563,-564.607 132.92,-553.044 138.689,-541.674"/>
<polygon fill="none" stroke="#404040" points="138.787,-541.485 138.013,-534.316 144.333,-530.843 145.107,-538.013 138.787,-541.485"/>
<text text-anchor="middle" x="150.5" y="-579.5" font-family="Helvetica,sans-Serif" font-size="10.00"> #_texImage</text>
</g>
<!-- Node11&#45;&gt;Node10 -->
<g id="edge11" class="edge"><title>Node11&#45;&gt;Node10</title>
<path fill="none" stroke="midnightblue" d="M62.0352,-1020.26C64.1269,-976.334 66.3675,-929.281 68.2746,-889.233"/>
<polygon fill="none" stroke="midnightblue" points="58.529,-1020.31 61.5493,-1030.46 65.5211,-1020.64 58.529,-1020.31"/>
</g>
<!-- Node12 -->
<g id="node12" class="node"><title>Node12</title>
<g id="a_node12"><a xlink:href="../../db/dc3/classImageList.html" target="_top" xlink:title="{ImageList\n||}">
<polygon fill="white" stroke="black" points="466.5,-760.5 466.5,-817.5 525.5,-817.5 525.5,-760.5 466.5,-760.5"/>
<text text-anchor="middle" x="496" y="-805.5" font-family="Helvetica,sans-Serif" font-size="10.00">ImageList</text>
<polyline fill="none" stroke="black" points="466.5,-798.5 525.5,-798.5 "/>
<text text-anchor="middle" x="496" y="-786.5" font-family="Helvetica,sans-Serif" font-size="10.00"> </text>
<polyline fill="none" stroke="black" points="466.5,-779.5 525.5,-779.5 "/>
<text text-anchor="middle" x="496" y="-767.5" font-family="Helvetica,sans-Serif" font-size="10.00"> </text>
</a>
</g>
</g>
<!-- Node12&#45;&gt;Node3 -->
<g id="edge13" class="edge"><title>Node12&#45;&gt;Node3</title>
<path fill="none" stroke="#404040" d="M485.522,-760.443C469.458,-721.432 435.336,-649.971 386,-606 347.694,-571.86 318.929,-592.559 281,-558 280.8,-557.818 280.601,-557.635 280.402,-557.452"/>
<polygon fill="none" stroke="#404040" points="280.211,-557.261 273.139,-555.851 271.721,-548.78 278.793,-550.191 280.211,-557.261"/>
<text text-anchor="middle" x="369.5" y="-579.5" font-family="Helvetica,sans-Serif" font-size="10.00"> #_list</text>
</g>
<!-- Node13 -->
<g id="node13" class="node"><title>Node13</title>
<polygon fill="white" stroke="#bfbfbf" points="504.5,-1140.5 504.5,-1197.5 629.5,-1197.5 629.5,-1140.5 504.5,-1140.5"/>
<text text-anchor="middle" x="567" y="-1185.5" font-family="Helvetica,sans-Serif" font-size="10.00">std::vector&lt; std::string &gt;</text>
<polyline fill="none" stroke="#bfbfbf" points="504.5,-1178.5 629.5,-1178.5 "/>
<text text-anchor="middle" x="567" y="-1166.5" font-family="Helvetica,sans-Serif" font-size="10.00"> </text>
<polyline fill="none" stroke="#bfbfbf" points="504.5,-1159.5 629.5,-1159.5 "/>
<text text-anchor="middle" x="567" y="-1147.5" font-family="Helvetica,sans-Serif" font-size="10.00"> </text>
</g>
<!-- Node13&#45;&gt;Node12 -->
<g id="edge14" class="edge"><title>Node13&#45;&gt;Node12</title>
<path fill="none" stroke="midnightblue" d="M561.384,-1130.41C555.873,-1094.33 547.006,-1038.33 538,-990 526.495,-928.264 510.821,-856.289 502.244,-817.746"/>
<polygon fill="none" stroke="midnightblue" points="557.953,-1131.13 562.915,-1140.49 564.873,-1130.08 557.953,-1131.13"/>
</g>
<!-- Node14 -->
<g id="node14" class="node"><title>Node14</title>
<g id="a_node14"><a xlink:href="../../db/df0/classSiftMatchGPU.html" target="_top" xlink:title="matcher export ">
<polygon fill="white" stroke="black" points="290,-319 290,-541 410,-541 410,-319 290,-319"/>
<text text-anchor="middle" x="350" y="-529" font-family="Helvetica,sans-Serif" font-size="10.00">SiftMatchGPU</text>
<polyline fill="none" stroke="black" points="290,-522 410,-522 "/>
<text text-anchor="middle" x="350" y="-510" font-family="Helvetica,sans-Serif" font-size="10.00"> </text>
<polyline fill="none" stroke="black" points="290,-503 410,-503 "/>
<text text-anchor="start" x="298" y="-491" font-family="Helvetica,sans-Serif" font-size="10.00">+ CreateContextGL()</text>
<text text-anchor="start" x="298" y="-480" font-family="Helvetica,sans-Serif" font-size="10.00">+ VerifyContextGL()</text>
<text text-anchor="start" x="298" y="-469" font-family="Helvetica,sans-Serif" font-size="10.00">+ SiftMatchGPU()</text>
<text text-anchor="start" x="298" y="-458" font-family="Helvetica,sans-Serif" font-size="10.00">+ SetLanguage()</text>
<text text-anchor="start" x="298" y="-447" font-family="Helvetica,sans-Serif" font-size="10.00">+ SetDeviceParam()</text>
<text text-anchor="start" x="298" y="-436" font-family="Helvetica,sans-Serif" font-size="10.00">+ SetMaxSift()</text>
<text text-anchor="start" x="298" y="-425" font-family="Helvetica,sans-Serif" font-size="10.00">+ ~SiftMatchGPU()</text>
<text text-anchor="start" x="298" y="-414" font-family="Helvetica,sans-Serif" font-size="10.00">+ SetDescriptors()</text>
<text text-anchor="start" x="298" y="-403" font-family="Helvetica,sans-Serif" font-size="10.00">+ SetDescriptors()</text>
<text text-anchor="start" x="298" y="-392" font-family="Helvetica,sans-Serif" font-size="10.00">+ GetSiftMatch()</text>
<text text-anchor="start" x="298" y="-381" font-family="Helvetica,sans-Serif" font-size="10.00">+ SetFeautreLocation()</text>
<text text-anchor="start" x="298" y="-370" font-family="Helvetica,sans-Serif" font-size="10.00">+ SetFeatureLocation()</text>
<text text-anchor="start" x="298" y="-359" font-family="Helvetica,sans-Serif" font-size="10.00">+ GetGuidedSiftMatch()</text>
<text text-anchor="start" x="298" y="-348" font-family="Helvetica,sans-Serif" font-size="10.00">+ operator new()</text>
<text text-anchor="start" x="298" y="-337" font-family="Helvetica,sans-Serif" font-size="10.00"># _CreateContextGL()</text>
<text text-anchor="start" x="298" y="-326" font-family="Helvetica,sans-Serif" font-size="10.00"># _VerifyContextGL()</text>
</a>
</g>
</g>
<!-- Node14&#45;&gt;Node2 -->
<g id="edge15" class="edge"><title>Node14&#45;&gt;Node2</title>
<path fill="none" stroke="midnightblue" d="M327.611,-308.97C324.475,-292.158 321.528,-276.361 319.184,-263.793"/>
<polygon fill="none" stroke="midnightblue" points="324.202,-309.781 329.476,-318.969 331.083,-308.497 324.202,-309.781"/>
</g>
</g>
</svg>
        <g id="navigator" transform="translate(0 0)" fill="#404254">
                <rect fill="#f2f5e9" fill-opacity="0.5" stroke="#606060" stroke-width=".5" x="0" y="0" width="60" height="60"/>
                <use id="zoomplus" xlink:href="#zoomPlus" x="17" y="9" onmousedown="handleZoom(evt,'in')"/>
                <use id="zoomminus" xlink:href="#zoomMin" x="42" y="9" onmousedown="handleZoom(evt,'out')"/>
                <use id="reset" xlink:href="#resetDef" x="30" y="36" onmousedown="handleReset()"/>
                <g id="arrowUp" xlink:href="#dirArrow" transform="translate(30 24)" onmousedown="handlePan(0,-1)">
                  <use xlink:href="#rim" fill="#404040">
                        <set attributeName="fill" to="#808080" begin="arrowUp.mouseover" end="arrowUp.mouseout"/>
                  </use>
                  <path fill="none" stroke="white" stroke-width="1.5" d="M0,-3.0v7 M-2.5,-0.5L0,-3.0L2.5,-0.5"/>
                </g>
                <g id="arrowRight" xlink:href="#dirArrow" transform="rotate(90) translate(36 -43)" onmousedown="handlePan(1,0)">
                  <use xlink:href="#rim" fill="#404040">
                        <set attributeName="fill" to="#808080" begin="arrowRight.mouseover" end="arrowRight.mouseout"/>
                  </use>
                  <path fill="none" stroke="white" stroke-width="1.5" d="M0,-3.0v7 M-2.5,-0.5L0,-3.0L2.5,-0.5"/>
                </g>
                <g id="arrowDown" xlink:href="#dirArrow" transform="rotate(180) translate(-30 -48)" onmousedown="handlePan(0,1)">
                  <use xlink:href="#rim" fill="#404040">
                        <set attributeName="fill" to="#808080" begin="arrowDown.mouseover" end="arrowDown.mouseout"/>
                  </use>
                  <path fill="none" stroke="white" stroke-width="1.5" d="M0,-3.0v7 M-2.5,-0.5L0,-3.0L2.5,-0.5"/>
                </g>
                <g id="arrowLeft" xlink:href="#dirArrow" transform="rotate(270) translate(-36 17)" onmousedown="handlePan(-1,0)">
                  <use xlink:href="#rim" fill="#404040">
                        <set attributeName="fill" to="#808080" begin="arrowLeft.mouseover" end="arrowLeft.mouseout"/>
                  </use>
                  <path fill="none" stroke="white" stroke-width="1.5" d="M0,-3.0v7 M-2.5,-0.5L0,-3.0L2.5,-0.5"/>
                </g>
        </g>
        <svg viewBox="0 0 15 15" width="100%" height="30px" preserveAspectRatio="xMaxYMin meet">
         <g id="arrow_out" transform="scale(0.3 0.3)">
          <a xlink:href="classServerSiftGPU__coll__graph_org.svg" target="_base">
           <rect id="button" ry="5" rx="5" y="6" x="6" height="38" width="38"
                fill="#f2f5e9" fill-opacity="0.5" stroke="#606060" stroke-width="1.0"/>
           <path id="arrow"
             d="M 11.500037,31.436501 C 11.940474,20.09759 22.043105,11.32322 32.158766,21.979434 L 37.068811,17.246167 C 37.068811,17.246167 37.088388,32 37.088388,32 L 22.160133,31.978069 C 22.160133,31.978069 26.997745,27.140456 26.997745,27.140456 C 18.528582,18.264221 13.291696,25.230495 11.500037,31.436501 z"
             style="fill:#404040;"/>
          </a>
         </g>
        </svg>
</svg>
