<?xml version="1.0" encoding="UTF-8" standalone="no"?>
<!DOCTYPE svg PUBLIC "-//W3C//DTD SVG 1.1//EN"
 "http://www.w3.org/Graphics/SVG/1.1/DTD/svg11.dtd">
<!-- Generated by graphviz version 2.36.0 (20140111.2315)
 -->
<!-- Title: external/SiftGPU/src/ServerSiftGPU/ServerSiftGPU.cpp Pages: 1 -->
<svg width="395pt" height="152pt"
 viewBox="0.00 0.00 395.00 152.00" xmlns="http://www.w3.org/2000/svg" xmlns:xlink="http://www.w3.org/1999/xlink">
<g id="graph0" class="graph" transform="scale(1 1) rotate(0) translate(4 148)">
<title>external/SiftGPU/src/ServerSiftGPU/ServerSiftGPU.cpp</title>
<polygon fill="white" stroke="none" points="-4,4 -4,-148 391,-148 391,4 -4,4"/>
<!-- Node1 -->
<g id="node1" class="node"><title>Node1</title>
<polygon fill="#bfbfbf" stroke="black" points="59,-113 59,-143 231,-143 231,-113 59,-113"/>
<text text-anchor="start" x="67" y="-131" font-family="Helvetica,sans-Serif" font-size="10.00">external/SiftGPU/src</text>
<text text-anchor="middle" x="145" y="-120" font-family="Helvetica,sans-Serif" font-size="10.00">/ServerSiftGPU/ServerSiftGPU.cpp</text>
</g>
<!-- Node2 -->
<g id="node2" class="node"><title>Node2</title>
<polygon fill="white" stroke="#bfbfbf" points="0,-56.5 0,-75.5 54,-75.5 54,-56.5 0,-56.5"/>
<text text-anchor="middle" x="27" y="-63.5" font-family="Helvetica,sans-Serif" font-size="10.00">iostream</text>
</g>
<!-- Node1&#45;&gt;Node2 -->
<g id="edge1" class="edge"><title>Node1&#45;&gt;Node2</title>
<path fill="none" stroke="midnightblue" d="M117.334,-112.933C97.8707,-103.036 71.9979,-89.8803 52.9309,-80.1852"/>
<polygon fill="midnightblue" stroke="midnightblue" points="54.4136,-77.0127 43.9134,-75.6 51.2409,-83.2524 54.4136,-77.0127"/>
</g>
<!-- Node3 -->
<g id="node3" class="node"><title>Node3</title>
<polygon fill="white" stroke="#bfbfbf" points="72,-56.5 72,-75.5 116,-75.5 116,-56.5 72,-56.5"/>
<text text-anchor="middle" x="94" y="-63.5" font-family="Helvetica,sans-Serif" font-size="10.00">vector</text>
</g>
<!-- Node1&#45;&gt;Node3 -->
<g id="edge2" class="edge"><title>Node1&#45;&gt;Node3</title>
<path fill="none" stroke="midnightblue" d="M132.914,-112.781C125.426,-103.972 115.782,-92.6262 107.968,-83.4332"/>
<polygon fill="midnightblue" stroke="midnightblue" points="110.564,-81.0832 101.421,-75.7305 105.231,-85.6167 110.564,-81.0832"/>
</g>
<!-- Node4 -->
<g id="node4" class="node"><title>Node4</title>
<g id="a_node4"><a xlink:href="../../d4/d39/LiteWindow_8h.html" target="_top" xlink:title="../SiftGPU/LiteWindow.h">
<polygon fill="white" stroke="black" points="133.5,-56.5 133.5,-75.5 258.5,-75.5 258.5,-56.5 133.5,-56.5"/>
<text text-anchor="middle" x="196" y="-63.5" font-family="Helvetica,sans-Serif" font-size="10.00">../SiftGPU/LiteWindow.h</text>
</a>
</g>
</g>
<!-- Node1&#45;&gt;Node4 -->
<g id="edge3" class="edge"><title>Node1&#45;&gt;Node4</title>
<path fill="none" stroke="midnightblue" d="M157.086,-112.781C164.574,-103.972 174.218,-92.6262 182.032,-83.4332"/>
<polygon fill="midnightblue" stroke="midnightblue" points="184.769,-85.6167 188.579,-75.7305 179.436,-81.0832 184.769,-85.6167"/>
</g>
<!-- Node8 -->
<g id="node8" class="node"><title>Node8</title>
<g id="a_node8"><a xlink:href="../../d2/d17/SiftGPU_8h.html" target="_top" xlink:title="../SiftGPU/SiftGPU.h">
<polygon fill="white" stroke="black" points="277,-56.5 277,-75.5 387,-75.5 387,-56.5 277,-56.5"/>
<text text-anchor="middle" x="332" y="-63.5" font-family="Helvetica,sans-Serif" font-size="10.00">../SiftGPU/SiftGPU.h</text>
</a>
</g>
</g>
<!-- Node1&#45;&gt;Node8 -->
<g id="edge7" class="edge"><title>Node1&#45;&gt;Node8</title>
<path fill="none" stroke="midnightblue" d="M188.843,-112.933C221.334,-102.508 265.095,-88.4667 295.649,-78.6635"/>
<polygon fill="midnightblue" stroke="midnightblue" points="297.016,-81.9006 305.469,-75.5127 294.878,-75.2353 297.016,-81.9006"/>
</g>
<!-- Node5 -->
<g id="node5" class="node"><title>Node5</title>
<polygon fill="white" stroke="#bfbfbf" points="95.5,-0.5 95.5,-19.5 146.5,-19.5 146.5,-0.5 95.5,-0.5"/>
<text text-anchor="middle" x="121" y="-7.5" font-family="Helvetica,sans-Serif" font-size="10.00">unistd.h</text>
</g>
<!-- Node4&#45;&gt;Node5 -->
<g id="edge4" class="edge"><title>Node4&#45;&gt;Node5</title>
<path fill="none" stroke="midnightblue" d="M183.95,-56.324C172.537,-48.1066 155.169,-35.6017 141.565,-25.8069"/>
<polygon fill="midnightblue" stroke="midnightblue" points="143.43,-22.8366 133.269,-19.8339 139.34,-28.5174 143.43,-22.8366"/>
</g>
<!-- Node6 -->
<g id="node6" class="node"><title>Node6</title>
<polygon fill="white" stroke="#bfbfbf" points="165,-0.5 165,-19.5 227,-19.5 227,-0.5 165,-0.5"/>
<text text-anchor="middle" x="196" y="-7.5" font-family="Helvetica,sans-Serif" font-size="10.00">X11/Xlib.h</text>
</g>
<!-- Node4&#45;&gt;Node6 -->
<g id="edge5" class="edge"><title>Node4&#45;&gt;Node6</title>
<path fill="none" stroke="midnightblue" d="M196,-56.083C196,-49.0059 196,-38.8611 196,-29.9865"/>
<polygon fill="midnightblue" stroke="midnightblue" points="199.5,-29.751 196,-19.7511 192.5,-29.7511 199.5,-29.751"/>
</g>
<!-- Node7 -->
<g id="node7" class="node"><title>Node7</title>
<polygon fill="white" stroke="#bfbfbf" points="245.5,-0.5 245.5,-19.5 298.5,-19.5 298.5,-0.5 245.5,-0.5"/>
<text text-anchor="middle" x="272" y="-7.5" font-family="Helvetica,sans-Serif" font-size="10.00">GL/glx.h</text>
</g>
<!-- Node4&#45;&gt;Node7 -->
<g id="edge6" class="edge"><title>Node4&#45;&gt;Node7</title>
<path fill="none" stroke="midnightblue" d="M208.211,-56.324C219.776,-48.1066 237.375,-35.6017 251.161,-25.8069"/>
<polygon fill="midnightblue" stroke="midnightblue" points="253.443,-28.4791 259.567,-19.8339 249.388,-22.7729 253.443,-28.4791"/>
</g>
</g>
</svg>
