<?xml version="1.0" encoding="UTF-8" standalone="no"?>
<!DOCTYPE svg PUBLIC "-//W3C//DTD SVG 1.1//EN"
 "http://www.w3.org/Graphics/SVG/1.1/DTD/svg11.dtd">
<!-- Generated by graphviz version 2.36.0 (20140111.2315)
 -->
<!-- Title: _setup_util.prepend_env_variables Pages: 1 -->
<svg width="408pt" height="66pt"
 viewBox="0.00 0.00 408.00 66.00" xmlns="http://www.w3.org/2000/svg" xmlns:xlink="http://www.w3.org/1999/xlink">
<g id="graph0" class="graph" transform="scale(1 1) rotate(0) translate(4 62)">
<title>_setup_util.prepend_env_variables</title>
<polygon fill="white" stroke="none" points="-4,4 -4,-62 404,-62 404,4 -4,4"/>
<!-- Node1 -->
<g id="node1" class="node"><title>Node1</title>
<polygon fill="#bfbfbf" stroke="black" points="0.5,-14 0.5,-44 101.5,-44 101.5,-14 0.5,-14"/>
<text text-anchor="start" x="8.5" y="-32" font-family="Helvetica,sans-Serif" font-size="10.00">_setup_util.prepend</text>
<text text-anchor="middle" x="51" y="-21" font-family="Helvetica,sans-Serif" font-size="10.00">_env_variables</text>
</g>
<!-- Node2 -->
<g id="node2" class="node"><title>Node2</title>
<g id="a_node2"><a xlink:href="../../df/dc0/namespace__setup__util.html#a9d73115db9efca5c20b575f96b9eb065" target="_top" xlink:title="_setup_util.comment">
<polygon fill="white" stroke="black" points="138.5,-38.5 138.5,-57.5 245.5,-57.5 245.5,-38.5 138.5,-38.5"/>
<text text-anchor="middle" x="192" y="-45.5" font-family="Helvetica,sans-Serif" font-size="10.00">_setup_util.comment</text>
</a>
</g>
</g>
<!-- Node1&#45;&gt;Node2 -->
<g id="edge1" class="edge"><title>Node1&#45;&gt;Node2</title>
<path fill="none" stroke="midnightblue" d="M101.79,-35.8058C110.393,-36.9817 119.435,-38.2177 128.327,-39.4331"/>
<polygon fill="midnightblue" stroke="midnightblue" points="127.889,-42.9057 138.27,-40.7924 128.837,-35.9702 127.889,-42.9057"/>
</g>
<!-- Node3 -->
<g id="node3" class="node"><title>Node3</title>
<g id="a_node3"><a xlink:href="../../df/dc0/namespace__setup__util.html#a4ced140c2841c9a3e692bf39d98aa9eb" target="_top" xlink:title="_setup_util.prepend">
<polygon fill="white" stroke="black" points="141.5,-0.5 141.5,-19.5 242.5,-19.5 242.5,-0.5 141.5,-0.5"/>
<text text-anchor="middle" x="192" y="-7.5" font-family="Helvetica,sans-Serif" font-size="10.00">_setup_util.prepend</text>
</a>
</g>
</g>
<!-- Node1&#45;&gt;Node3 -->
<g id="edge2" class="edge"><title>Node1&#45;&gt;Node3</title>
<path fill="none" stroke="midnightblue" d="M101.79,-22.1942C111.271,-20.8982 121.287,-19.5291 131.046,-18.1951"/>
<polygon fill="midnightblue" stroke="midnightblue" points="131.657,-21.6443 141.091,-16.8221 130.709,-14.7088 131.657,-21.6443"/>
</g>
<!-- Node4 -->
<g id="node4" class="node"><title>Node4</title>
<g id="a_node4"><a xlink:href="../../df/dc0/namespace__setup__util.html#a7983d4ea2ecdeaf54e133950d8a76e77" target="_top" xlink:title="_setup_util.assignment">
<polygon fill="white" stroke="black" points="282.5,-0.5 282.5,-19.5 399.5,-19.5 399.5,-0.5 282.5,-0.5"/>
<text text-anchor="middle" x="341" y="-7.5" font-family="Helvetica,sans-Serif" font-size="10.00">_setup_util.assignment</text>
</a>
</g>
</g>
<!-- Node3&#45;&gt;Node4 -->
<g id="edge3" class="edge"><title>Node3&#45;&gt;Node4</title>
<path fill="none" stroke="midnightblue" d="M242.767,-10C252.226,-10 262.271,-10 272.179,-10"/>
<polygon fill="midnightblue" stroke="midnightblue" points="272.422,-13.5001 282.422,-10 272.422,-6.5001 272.422,-13.5001"/>
</g>
</g>
</svg>
