<?xml version="1.0" encoding="UTF-8" standalone="no"?>
<!DOCTYPE svg PUBLIC "-//W3C//DTD SVG 1.1//EN"
 "http://www.w3.org/Graphics/SVG/1.1/DTD/svg11.dtd">
<!-- Generated by graphviz version 2.36.0 (20140111.2315)
 -->
<!-- Title: src/DepthEstimation/DepthMap.h Pages: 1 -->
<svg width="744pt" height="376pt"
 viewBox="0.00 0.00 744.00 376.00" xmlns="http://www.w3.org/2000/svg" xmlns:xlink="http://www.w3.org/1999/xlink">
<g id="graph0" class="graph" transform="scale(1 1) rotate(0) translate(4 372)">
<title>src/DepthEstimation/DepthMap.h</title>
<polygon fill="white" stroke="none" points="-4,4 -4,-372 740,-372 740,4 -4,4"/>
<!-- Node1 -->
<g id="node1" class="node"><title>Node1</title>
<polygon fill="#bfbfbf" stroke="black" points="227,-337 227,-367 333,-367 333,-337 227,-337"/>
<text text-anchor="start" x="235" y="-355" font-family="Helvetica,sans-Serif" font-size="10.00">src/DepthEstimation</text>
<text text-anchor="middle" x="280" y="-344" font-family="Helvetica,sans-Serif" font-size="10.00">/DepthMap.h</text>
</g>
<!-- Node2 -->
<g id="node2" class="node"><title>Node2</title>
<g id="a_node2"><a xlink:href="../../d9/d86/EigenCoreInclude_8h.html" target="_top" xlink:title="util/EigenCoreInclude.h">
<polygon fill="white" stroke="black" points="0,-280.5 0,-299.5 118,-299.5 118,-280.5 0,-280.5"/>
<text text-anchor="middle" x="59" y="-287.5" font-family="Helvetica,sans-Serif" font-size="10.00">util/EigenCoreInclude.h</text>
</a>
</g>
</g>
<!-- Node1&#45;&gt;Node2 -->
<g id="edge1" class="edge"><title>Node1&#45;&gt;Node2</title>
<path fill="none" stroke="midnightblue" d="M228.185,-336.933C189.119,-326.326 136.266,-311.977 100.091,-302.156"/>
<polygon fill="midnightblue" stroke="midnightblue" points="100.923,-298.755 90.3551,-299.513 99.0887,-305.511 100.923,-298.755"/>
</g>
<!-- Node4 -->
<g id="node4" class="node"><title>Node4</title>
<polygon fill="white" stroke="#bfbfbf" points="136,-280.5 136,-299.5 252,-299.5 252,-280.5 136,-280.5"/>
<text text-anchor="middle" x="194" y="-287.5" font-family="Helvetica,sans-Serif" font-size="10.00">opencv2/core/core.hpp</text>
</g>
<!-- Node1&#45;&gt;Node4 -->
<g id="edge3" class="edge"><title>Node1&#45;&gt;Node4</title>
<path fill="none" stroke="midnightblue" d="M259.619,-336.781C246.01,-327.286 228.176,-314.843 214.535,-305.327"/>
<polygon fill="midnightblue" stroke="midnightblue" points="216.467,-302.407 206.263,-299.556 212.462,-308.148 216.467,-302.407"/>
</g>
<!-- Node5 -->
<g id="node5" class="node"><title>Node5</title>
<g id="a_node5"><a xlink:href="../../de/d60/settings_8h.html" target="_top" xlink:title="util/settings.h">
<polygon fill="white" stroke="black" points="191.5,-224.5 191.5,-243.5 266.5,-243.5 266.5,-224.5 191.5,-224.5"/>
<text text-anchor="middle" x="229" y="-231.5" font-family="Helvetica,sans-Serif" font-size="10.00">util/settings.h</text>
</a>
</g>
</g>
<!-- Node1&#45;&gt;Node5 -->
<g id="edge4" class="edge"><title>Node1&#45;&gt;Node5</title>
<path fill="none" stroke="midnightblue" d="M277.457,-336.908C274.483,-322.223 268.816,-298.78 260,-280 255.322,-270.036 248.516,-259.859 242.473,-251.71"/>
<polygon fill="midnightblue" stroke="midnightblue" points="245.228,-249.552 236.35,-243.769 239.684,-253.826 245.228,-249.552"/>
</g>
<!-- Node8 -->
<g id="node8" class="node"><title>Node8</title>
<g id="a_node8"><a xlink:href="../../d9/de2/IndexThreadReduce_8h.html" target="_top" xlink:title="util/IndexThreadReduce.h">
<polygon fill="white" stroke="black" points="308,-280.5 308,-299.5 436,-299.5 436,-280.5 308,-280.5"/>
<text text-anchor="middle" x="372" y="-287.5" font-family="Helvetica,sans-Serif" font-size="10.00">util/IndexThreadReduce.h</text>
</a>
</g>
</g>
<!-- Node1&#45;&gt;Node8 -->
<g id="edge7" class="edge"><title>Node1&#45;&gt;Node8</title>
<path fill="none" stroke="midnightblue" d="M301.803,-336.781C316.5,-327.196 335.804,-314.606 350.448,-305.056"/>
<polygon fill="midnightblue" stroke="midnightblue" points="352.417,-307.95 358.881,-299.556 348.593,-302.087 352.417,-307.95"/>
</g>
<!-- Node12 -->
<g id="node12" class="node"><title>Node12</title>
<g id="a_node12"><a xlink:href="../../d2/d13/SophusUtil_8h.html" target="_top" xlink:title="util/SophusUtil.h">
<polygon fill="white" stroke="black" points="529.5,-280.5 529.5,-299.5 618.5,-299.5 618.5,-280.5 529.5,-280.5"/>
<text text-anchor="middle" x="574" y="-287.5" font-family="Helvetica,sans-Serif" font-size="10.00">util/SophusUtil.h</text>
</a>
</g>
</g>
<!-- Node1&#45;&gt;Node12 -->
<g id="edge12" class="edge"><title>Node1&#45;&gt;Node12</title>
<path fill="none" stroke="midnightblue" d="M333.241,-340.134C386.873,-329.189 469.082,-312.412 522.197,-301.572"/>
<polygon fill="midnightblue" stroke="midnightblue" points="522.99,-304.982 532.088,-299.553 521.59,-298.124 522.99,-304.982"/>
</g>
<!-- Node3 -->
<g id="node3" class="node"><title>Node3</title>
<polygon fill="white" stroke="#bfbfbf" points="26.5,-224.5 26.5,-243.5 91.5,-243.5 91.5,-224.5 26.5,-224.5"/>
<text text-anchor="middle" x="59" y="-231.5" font-family="Helvetica,sans-Serif" font-size="10.00">Eigen/Core</text>
</g>
<!-- Node2&#45;&gt;Node3 -->
<g id="edge2" class="edge"><title>Node2&#45;&gt;Node3</title>
<path fill="none" stroke="midnightblue" d="M59,-280.083C59,-273.006 59,-262.861 59,-253.986"/>
<polygon fill="midnightblue" stroke="midnightblue" points="62.5001,-253.751 59,-243.751 55.5001,-253.751 62.5001,-253.751"/>
</g>
<!-- Node6 -->
<g id="node6" class="node"><title>Node6</title>
<polygon fill="white" stroke="#bfbfbf" points="172.5,-168.5 172.5,-187.5 221.5,-187.5 221.5,-168.5 172.5,-168.5"/>
<text text-anchor="middle" x="197" y="-175.5" font-family="Helvetica,sans-Serif" font-size="10.00">string.h</text>
</g>
<!-- Node5&#45;&gt;Node6 -->
<g id="edge5" class="edge"><title>Node5&#45;&gt;Node6</title>
<path fill="none" stroke="midnightblue" d="M223.716,-224.083C219.289,-216.613 212.837,-205.724 207.382,-196.52"/>
<polygon fill="midnightblue" stroke="midnightblue" points="210.295,-194.57 202.186,-187.751 204.273,-198.138 210.295,-194.57"/>
</g>
<!-- Node7 -->
<g id="node7" class="node"><title>Node7</title>
<polygon fill="white" stroke="#bfbfbf" points="239.5,-168.5 239.5,-187.5 280.5,-187.5 280.5,-168.5 239.5,-168.5"/>
<text text-anchor="middle" x="260" y="-175.5" font-family="Helvetica,sans-Serif" font-size="10.00">string</text>
</g>
<!-- Node5&#45;&gt;Node7 -->
<g id="edge6" class="edge"><title>Node5&#45;&gt;Node7</title>
<path fill="none" stroke="midnightblue" d="M234.119,-224.083C238.408,-216.613 244.658,-205.724 249.942,-196.52"/>
<polygon fill="midnightblue" stroke="midnightblue" points="253.033,-198.166 254.976,-187.751 246.962,-194.681 253.033,-198.166"/>
</g>
<!-- Node8&#45;&gt;Node5 -->
<g id="edge8" class="edge"><title>Node8&#45;&gt;Node5</title>
<path fill="none" stroke="midnightblue" d="M349.341,-280.444C325.598,-271.478 288.091,-257.314 261.262,-247.183"/>
<polygon fill="midnightblue" stroke="midnightblue" points="262.144,-243.775 251.553,-243.516 259.671,-250.324 262.144,-243.775"/>
</g>
<!-- Node9 -->
<g id="node9" class="node"><title>Node9</title>
<polygon fill="white" stroke="#bfbfbf" points="284.5,-224.5 284.5,-243.5 373.5,-243.5 373.5,-224.5 284.5,-224.5"/>
<text text-anchor="middle" x="329" y="-231.5" font-family="Helvetica,sans-Serif" font-size="10.00">boost/thread.hpp</text>
</g>
<!-- Node8&#45;&gt;Node9 -->
<g id="edge9" class="edge"><title>Node8&#45;&gt;Node9</title>
<path fill="none" stroke="midnightblue" d="M364.899,-280.083C358.763,-272.377 349.73,-261.033 342.261,-251.653"/>
<polygon fill="midnightblue" stroke="midnightblue" points="344.936,-249.394 335.968,-243.751 339.46,-253.754 344.936,-249.394"/>
</g>
<!-- Node10 -->
<g id="node10" class="node"><title>Node10</title>
<polygon fill="white" stroke="#bfbfbf" points="392,-224.5 392,-243.5 438,-243.5 438,-224.5 392,-224.5"/>
<text text-anchor="middle" x="415" y="-231.5" font-family="Helvetica,sans-Serif" font-size="10.00">stdio.h</text>
</g>
<!-- Node8&#45;&gt;Node10 -->
<g id="edge10" class="edge"><title>Node8&#45;&gt;Node10</title>
<path fill="none" stroke="midnightblue" d="M379.101,-280.083C385.237,-272.377 394.27,-261.033 401.739,-251.653"/>
<polygon fill="midnightblue" stroke="midnightblue" points="404.54,-253.754 408.032,-243.751 399.064,-249.394 404.54,-253.754"/>
</g>
<!-- Node11 -->
<g id="node11" class="node"><title>Node11</title>
<polygon fill="white" stroke="#bfbfbf" points="456,-224.5 456,-243.5 510,-243.5 510,-224.5 456,-224.5"/>
<text text-anchor="middle" x="483" y="-231.5" font-family="Helvetica,sans-Serif" font-size="10.00">iostream</text>
</g>
<!-- Node8&#45;&gt;Node11 -->
<g id="edge11" class="edge"><title>Node8&#45;&gt;Node11</title>
<path fill="none" stroke="midnightblue" d="M389.834,-280.324C407.716,-271.625 435.475,-258.12 456.046,-248.113"/>
<polygon fill="midnightblue" stroke="midnightblue" points="457.749,-251.177 465.21,-243.655 454.687,-244.882 457.749,-251.177"/>
</g>
<!-- Node13 -->
<g id="node13" class="node"><title>Node13</title>
<g id="a_node13"><a xlink:href="../../dc/d5c/sim3_8hpp.html" target="_top" xlink:title="sophus/sim3.hpp">
<polygon fill="white" stroke="black" points="528.5,-224.5 528.5,-243.5 619.5,-243.5 619.5,-224.5 528.5,-224.5"/>
<text text-anchor="middle" x="574" y="-231.5" font-family="Helvetica,sans-Serif" font-size="10.00">sophus/sim3.hpp</text>
</a>
</g>
</g>
<!-- Node12&#45;&gt;Node13 -->
<g id="edge13" class="edge"><title>Node12&#45;&gt;Node13</title>
<path fill="none" stroke="midnightblue" d="M574,-280.083C574,-273.006 574,-262.861 574,-253.986"/>
<polygon fill="midnightblue" stroke="midnightblue" points="577.5,-253.751 574,-243.751 570.5,-253.751 577.5,-253.751"/>
</g>
<!-- Node20 -->
<g id="node20" class="node"><title>Node20</title>
<g id="a_node20"><a xlink:href="../../d4/d4b/se3_8hpp.html" target="_top" xlink:title="sophus/se3.hpp">
<polygon fill="white" stroke="black" points="617,-168.5 617,-187.5 703,-187.5 703,-168.5 617,-168.5"/>
<text text-anchor="middle" x="660" y="-175.5" font-family="Helvetica,sans-Serif" font-size="10.00">sophus/se3.hpp</text>
</a>
</g>
</g>
<!-- Node12&#45;&gt;Node20 -->
<g id="edge21" class="edge"><title>Node12&#45;&gt;Node20</title>
<path fill="none" stroke="midnightblue" d="M587.351,-280.295C599.197,-272.053 616.377,-258.768 628,-244 639.171,-229.805 647.879,-211.081 653.372,-197.377"/>
<polygon fill="midnightblue" stroke="midnightblue" points="656.79,-198.235 657.073,-187.644 650.247,-195.747 656.79,-198.235"/>
</g>
<!-- Node14 -->
<g id="node14" class="node"><title>Node14</title>
<g id="a_node14"><a xlink:href="../../d7/d6a/rxso3_8hpp.html" target="_top" xlink:title="rxso3.hpp">
<polygon fill="white" stroke="black" points="539.5,-168.5 539.5,-187.5 598.5,-187.5 598.5,-168.5 539.5,-168.5"/>
<text text-anchor="middle" x="569" y="-175.5" font-family="Helvetica,sans-Serif" font-size="10.00">rxso3.hpp</text>
</a>
</g>
</g>
<!-- Node13&#45;&gt;Node14 -->
<g id="edge14" class="edge"><title>Node13&#45;&gt;Node14</title>
<path fill="none" stroke="midnightblue" d="M573.174,-224.083C572.519,-217.006 571.58,-206.861 570.758,-197.986"/>
<polygon fill="midnightblue" stroke="midnightblue" points="574.217,-197.386 569.81,-187.751 567.247,-198.031 574.217,-197.386"/>
</g>
<!-- Node15 -->
<g id="node15" class="node"><title>Node15</title>
<g id="a_node15"><a xlink:href="../../d7/dc1/sophus_8hpp.html" target="_top" xlink:title="sophus.hpp">
<polygon fill="white" stroke="black" points="562.5,-56.5 562.5,-75.5 629.5,-75.5 629.5,-56.5 562.5,-56.5"/>
<text text-anchor="middle" x="596" y="-63.5" font-family="Helvetica,sans-Serif" font-size="10.00">sophus.hpp</text>
</a>
</g>
</g>
<!-- Node14&#45;&gt;Node15 -->
<g id="edge15" class="edge"><title>Node14&#45;&gt;Node15</title>
<path fill="none" stroke="midnightblue" d="M571.119,-168.368C575.476,-150.617 585.527,-109.666 591.435,-85.5974"/>
<polygon fill="midnightblue" stroke="midnightblue" points="594.906,-86.1375 593.891,-75.5914 588.108,-84.4688 594.906,-86.1375"/>
</g>
<!-- Node19 -->
<g id="node19" class="node"><title>Node19</title>
<g id="a_node19"><a xlink:href="../../de/de9/so3_8hpp.html" target="_top" xlink:title="so3.hpp">
<polygon fill="white" stroke="black" points="597.5,-112.5 597.5,-131.5 648.5,-131.5 648.5,-112.5 597.5,-112.5"/>
<text text-anchor="middle" x="623" y="-119.5" font-family="Helvetica,sans-Serif" font-size="10.00">so3.hpp</text>
</a>
</g>
</g>
<!-- Node14&#45;&gt;Node19 -->
<g id="edge19" class="edge"><title>Node14&#45;&gt;Node19</title>
<path fill="none" stroke="midnightblue" d="M577.917,-168.083C585.78,-160.22 597.431,-148.569 606.919,-139.081"/>
<polygon fill="midnightblue" stroke="midnightblue" points="609.653,-141.297 614.249,-131.751 604.703,-136.347 609.653,-141.297"/>
</g>
<!-- Node16 -->
<g id="node16" class="node"><title>Node16</title>
<polygon fill="white" stroke="#bfbfbf" points="484.5,-0.5 484.5,-19.5 543.5,-19.5 543.5,-0.5 484.5,-0.5"/>
<text text-anchor="middle" x="514" y="-7.5" font-family="Helvetica,sans-Serif" font-size="10.00">stdexcept</text>
</g>
<!-- Node15&#45;&gt;Node16 -->
<g id="edge16" class="edge"><title>Node15&#45;&gt;Node16</title>
<path fill="none" stroke="midnightblue" d="M582.825,-56.324C570.153,-47.979 550.767,-35.2122 535.794,-25.3524"/>
<polygon fill="midnightblue" stroke="midnightblue" points="537.419,-22.2313 527.142,-19.6545 533.569,-28.0776 537.419,-22.2313"/>
</g>
<!-- Node17 -->
<g id="node17" class="node"><title>Node17</title>
<polygon fill="white" stroke="#bfbfbf" points="561.5,-0.5 561.5,-19.5 630.5,-19.5 630.5,-0.5 561.5,-0.5"/>
<text text-anchor="middle" x="596" y="-7.5" font-family="Helvetica,sans-Serif" font-size="10.00">Eigen/Eigen</text>
</g>
<!-- Node15&#45;&gt;Node17 -->
<g id="edge17" class="edge"><title>Node15&#45;&gt;Node17</title>
<path fill="none" stroke="midnightblue" d="M596,-56.083C596,-49.0059 596,-38.8611 596,-29.9865"/>
<polygon fill="midnightblue" stroke="midnightblue" points="599.5,-29.751 596,-19.7511 592.5,-29.7511 599.5,-29.751"/>
</g>
<!-- Node18 -->
<g id="node18" class="node"><title>Node18</title>
<polygon fill="white" stroke="#bfbfbf" points="648.5,-0.5 648.5,-19.5 735.5,-19.5 735.5,-0.5 648.5,-0.5"/>
<text text-anchor="middle" x="692" y="-7.5" font-family="Helvetica,sans-Serif" font-size="10.00">Eigen/Geometry</text>
</g>
<!-- Node15&#45;&gt;Node18 -->
<g id="edge18" class="edge"><title>Node15&#45;&gt;Node18</title>
<path fill="none" stroke="midnightblue" d="M611.424,-56.324C626.54,-47.8215 649.815,-34.7288 667.471,-24.7975"/>
<polygon fill="midnightblue" stroke="midnightblue" points="669.614,-27.6077 676.614,-19.6545 666.183,-21.5066 669.614,-27.6077"/>
</g>
<!-- Node19&#45;&gt;Node15 -->
<g id="edge20" class="edge"><title>Node19&#45;&gt;Node15</title>
<path fill="none" stroke="midnightblue" d="M618.541,-112.083C614.846,-104.691 609.477,-93.9533 604.906,-84.8111"/>
<polygon fill="midnightblue" stroke="midnightblue" points="607.978,-83.1301 600.376,-75.7511 601.717,-86.2606 607.978,-83.1301"/>
</g>
<!-- Node20&#45;&gt;Node19 -->
<g id="edge22" class="edge"><title>Node20&#45;&gt;Node19</title>
<path fill="none" stroke="midnightblue" d="M653.89,-168.083C648.718,-160.534 641.154,-149.495 634.806,-140.23"/>
<polygon fill="midnightblue" stroke="midnightblue" points="637.536,-138.022 628.996,-131.751 631.761,-141.979 637.536,-138.022"/>
</g>
</g>
</svg>
