<?xml version="1.0" encoding="UTF-8" standalone="no"?>
<!DOCTYPE svg PUBLIC "-//W3C//DTD SVG 1.1//EN"
 "http://www.w3.org/Graphics/SVG/1.1/DTD/svg11.dtd">
<!-- Generated by graphviz version 2.36.0 (20140111.2315)
 -->
<!-- Title: src/Tracking/Relocalizer.cpp Pages: 1 -->
<!--zoomable 568 -->
<svg id="main" version="1.1" xmlns="http://www.w3.org/2000/svg" xmlns:xlink="http://www.w3.org/1999/xlink" xml:space="preserve" onload="init(evt)">
<style type="text/css"><![CDATA[
.edge:hover path { stroke: red; }
.edge:hover polygon { stroke: red; fill: red; }
]]></style>
<script type="text/javascript"><![CDATA[
var edges = document.getElementsByTagName('g');
if (edges && edges.length) {
  for (var i=0;i<edges.length;i++) {
    if (edges[i].id.substr(0,4)=='edge') {
      edges[i].setAttribute('class','edge');
    }
  }
}
]]></script>
        <defs>
                <circle id="rim" cx="0" cy="0" r="7"/>
                <circle id="rim2" cx="0" cy="0" r="3.5"/>
                <g id="zoomPlus">
                        <use xlink:href="#rim" fill="#404040">
                                <set attributeName="fill" to="#808080" begin="zoomplus.mouseover" end="zoomplus.mouseout"/>
                        </use>
                        <path d="M-4,0h8M0,-4v8" fill="none" stroke="white" stroke-width="1.5" pointer-events="none"/>
                </g>
                <g id="zoomMin">
                        <use xlink:href="#rim" fill="#404040">
                                <set attributeName="fill" to="#808080" begin="zoomminus.mouseover" end="zoomminus.mouseout"/>
                        </use>
                        <path d="M-4,0h8" fill="none" stroke="white" stroke-width="1.5" pointer-events="none"/>
                </g>
                <g id="dirArrow">
                        <path fill="none" stroke="white" stroke-width="1.5" d="M0,-3.0v7 M-2.5,-0.5L0,-3.0L2.5,-0.5"/>
                </g>
               <g id="resetDef">
                       <use xlink:href="#rim2" fill="#404040">
                               <set attributeName="fill" to="#808080" begin="reset.mouseover" end="reset.mouseout"/>
                       </use>
               </g>
        </defs>

<script type="text/javascript">
var viewWidth = 1590;
var viewHeight = 568;
var sectionId = 'dynsection-0';
</script>
<script xlink:href="../../svgpan.js"/>
<svg id="graph" class="graph">
<g id="viewport">
<title>src/Tracking/Relocalizer.cpp</title>
<polygon fill="white" stroke="none" points="-4,4 -4,-564 1586,-564 1586,4 -4,4"/>
<!-- Node1 -->
<g id="node1" class="node"><title>Node1</title>
<polygon fill="#bfbfbf" stroke="black" points="855.5,-540.5 855.5,-559.5 996.5,-559.5 996.5,-540.5 855.5,-540.5"/>
<text text-anchor="middle" x="926" y="-547.5" font-family="Helvetica,sans-Serif" font-size="10.00">src/Tracking/Relocalizer.cpp</text>
</g>
<!-- Node2 -->
<g id="node2" class="node"><title>Node2</title>
<g id="a_node2"><a xlink:href="../../df/d5d/Relocalizer_8h.html" target="_top" xlink:title="Relocalizer.h">
<polygon fill="white" stroke="black" points="161,-422.5 161,-441.5 235,-441.5 235,-422.5 161,-422.5"/>
<text text-anchor="middle" x="198" y="-429.5" font-family="Helvetica,sans-Serif" font-size="10.00">Relocalizer.h</text>
</a>
</g>
</g>
<!-- Node1&#45;&gt;Node2 -->
<g id="edge1" class="edge"><title>Node1&#45;&gt;Node2</title>
<path fill="none" stroke="midnightblue" d="M855.057,-542.494C730.273,-530.165 463.884,-499.885 244,-448 239.861,-447.023 235.56,-445.846 231.324,-444.587"/>
<polygon fill="midnightblue" stroke="midnightblue" points="232.249,-441.209 221.66,-441.552 230.152,-447.887 232.249,-441.209"/>
</g>
<!-- Node18 -->
<g id="node18" class="node"><title>Node18</title>
<g id="a_node18"><a xlink:href="../../d7/db3/Frame_8h.html" target="_top" xlink:title="DataStructures/Frame.h">
<polygon fill="white" stroke="black" points="628,-484.5 628,-503.5 750,-503.5 750,-484.5 628,-484.5"/>
<text text-anchor="middle" x="689" y="-491.5" font-family="Helvetica,sans-Serif" font-size="10.00">DataStructures/Frame.h</text>
</a>
</g>
</g>
<!-- Node1&#45;&gt;Node18 -->
<g id="edge19" class="edge"><title>Node1&#45;&gt;Node18</title>
<path fill="none" stroke="midnightblue" d="M888.447,-540.444C847.189,-531.043 780.856,-515.929 736.134,-505.739"/>
<polygon fill="midnightblue" stroke="midnightblue" points="736.905,-502.326 726.378,-503.516 735.35,-509.151 736.905,-502.326"/>
</g>
<!-- Node34 -->
<g id="node34" class="node"><title>Node34</title>
<g id="a_node34"><a xlink:href="../../d6/de5/SE3Tracker_8h.html" target="_top" xlink:title="Tracking/SE3Tracker.h">
<polygon fill="white" stroke="black" points="1116.5,-484.5 1116.5,-503.5 1233.5,-503.5 1233.5,-484.5 1116.5,-484.5"/>
<text text-anchor="middle" x="1175" y="-491.5" font-family="Helvetica,sans-Serif" font-size="10.00">Tracking/SE3Tracker.h</text>
</a>
</g>
</g>
<!-- Node1&#45;&gt;Node34 -->
<g id="edge40" class="edge"><title>Node1&#45;&gt;Node34</title>
<path fill="none" stroke="midnightblue" d="M965.455,-540.444C1008.89,-531.023 1078.79,-515.866 1125.78,-505.675"/>
<polygon fill="midnightblue" stroke="midnightblue" points="1126.7,-509.056 1135.73,-503.516 1125.22,-502.215 1126.7,-509.056"/>
</g>
<!-- Node38 -->
<g id="node38" class="node"><title>Node38</title>
<g id="a_node38"><a xlink:href="../../d8/d3f/ImageDisplay_8h.html" target="_top" xlink:title="IOWrapper/ImageDisplay.h">
<polygon fill="white" stroke="black" points="1338.5,-484.5 1338.5,-503.5 1473.5,-503.5 1473.5,-484.5 1338.5,-484.5"/>
<text text-anchor="middle" x="1406" y="-491.5" font-family="Helvetica,sans-Serif" font-size="10.00">IOWrapper/ImageDisplay.h</text>
</a>
</g>
</g>
<!-- Node1&#45;&gt;Node38 -->
<g id="edge50" class="edge"><title>Node1&#45;&gt;Node38</title>
<path fill="none" stroke="midnightblue" d="M996.568,-541.061C1085.11,-531.1 1236.44,-514.076 1328.23,-503.749"/>
<polygon fill="midnightblue" stroke="midnightblue" points="1328.75,-507.213 1338.3,-502.617 1327.97,-500.256 1328.75,-507.213"/>
</g>
<!-- Node3 -->
<g id="node3" class="node"><title>Node3</title>
<g id="a_node3"><a xlink:href="../../de/d60/settings_8h.html" target="_top" xlink:title="util/settings.h">
<polygon fill="white" stroke="black" points="1126.5,-354.5 1126.5,-373.5 1201.5,-373.5 1201.5,-354.5 1126.5,-354.5"/>
<text text-anchor="middle" x="1164" y="-361.5" font-family="Helvetica,sans-Serif" font-size="10.00">util/settings.h</text>
</a>
</g>
</g>
<!-- Node2&#45;&gt;Node3 -->
<g id="edge2" class="edge"><title>Node2&#45;&gt;Node3</title>
<path fill="none" stroke="midnightblue" d="M220.148,-422.44C227.615,-419.916 236.067,-417.445 244,-416 592.405,-352.527 687.074,-409.285 1040,-380 1065.21,-377.908 1093.18,-374.609 1116.18,-371.637"/>
<polygon fill="midnightblue" stroke="midnightblue" points="1116.9,-375.071 1126.36,-370.299 1115.99,-368.131 1116.9,-375.071"/>
</g>
<!-- Node6 -->
<g id="node6" class="node"><title>Node6</title>
<polygon fill="white" stroke="#bfbfbf" points="-0.5,-354.5 -0.5,-373.5 88.5,-373.5 88.5,-354.5 -0.5,-354.5"/>
<text text-anchor="middle" x="44" y="-361.5" font-family="Helvetica,sans-Serif" font-size="10.00">boost/thread.hpp</text>
</g>
<!-- Node2&#45;&gt;Node6 -->
<g id="edge5" class="edge"><title>Node2&#45;&gt;Node6</title>
<path fill="none" stroke="midnightblue" d="M177.867,-422.372C151.235,-410.958 104.098,-390.756 73.4588,-377.625"/>
<polygon fill="midnightblue" stroke="midnightblue" points="74.7079,-374.353 64.1378,-373.63 71.9505,-380.787 74.7079,-374.353"/>
</g>
<!-- Node7 -->
<g id="node7" class="node"><title>Node7</title>
<polygon fill="white" stroke="#bfbfbf" points="107,-354.5 107,-373.5 153,-373.5 153,-354.5 107,-354.5"/>
<text text-anchor="middle" x="130" y="-361.5" font-family="Helvetica,sans-Serif" font-size="10.00">stdio.h</text>
</g>
<!-- Node2&#45;&gt;Node7 -->
<g id="edge6" class="edge"><title>Node2&#45;&gt;Node7</title>
<path fill="none" stroke="midnightblue" d="M189.11,-422.372C178.276,-411.856 159.757,-393.882 146.33,-380.85"/>
<polygon fill="midnightblue" stroke="midnightblue" points="148.723,-378.294 139.109,-373.841 143.847,-383.317 148.723,-378.294"/>
</g>
<!-- Node8 -->
<g id="node8" class="node"><title>Node8</title>
<polygon fill="white" stroke="#bfbfbf" points="171,-354.5 171,-373.5 225,-373.5 225,-354.5 171,-354.5"/>
<text text-anchor="middle" x="198" y="-361.5" font-family="Helvetica,sans-Serif" font-size="10.00">iostream</text>
</g>
<!-- Node2&#45;&gt;Node8 -->
<g id="edge7" class="edge"><title>Node2&#45;&gt;Node8</title>
<path fill="none" stroke="midnightblue" d="M198,-422.372C198,-412.643 198,-396.528 198,-383.85"/>
<polygon fill="midnightblue" stroke="midnightblue" points="201.5,-383.841 198,-373.841 194.5,-383.841 201.5,-383.841"/>
</g>
<!-- Node9 -->
<g id="node9" class="node"><title>Node9</title>
<g id="a_node9"><a xlink:href="../../d2/d13/SophusUtil_8h.html" target="_top" xlink:title="util/SophusUtil.h">
<polygon fill="white" stroke="black" points="427.5,-286.5 427.5,-305.5 516.5,-305.5 516.5,-286.5 427.5,-286.5"/>
<text text-anchor="middle" x="472" y="-293.5" font-family="Helvetica,sans-Serif" font-size="10.00">util/SophusUtil.h</text>
</a>
</g>
</g>
<!-- Node2&#45;&gt;Node9 -->
<g id="edge8" class="edge"><title>Node2&#45;&gt;Node9</title>
<path fill="none" stroke="midnightblue" d="M223.193,-422.37C229.919,-420.179 237.207,-417.908 244,-416 310.837,-397.222 336.134,-415.155 396,-380 403.582,-375.548 438.076,-336.321 457.888,-313.424"/>
<polygon fill="midnightblue" stroke="midnightblue" points="460.795,-315.412 464.676,-305.554 455.494,-310.841 460.795,-315.412"/>
</g>
<!-- Node4 -->
<g id="node4" class="node"><title>Node4</title>
<polygon fill="white" stroke="#bfbfbf" points="1216.5,-286.5 1216.5,-305.5 1265.5,-305.5 1265.5,-286.5 1216.5,-286.5"/>
<text text-anchor="middle" x="1241" y="-293.5" font-family="Helvetica,sans-Serif" font-size="10.00">string.h</text>
</g>
<!-- Node3&#45;&gt;Node4 -->
<g id="edge3" class="edge"><title>Node3&#45;&gt;Node4</title>
<path fill="none" stroke="midnightblue" d="M1174.07,-354.372C1186.45,-343.758 1207.7,-325.545 1222.93,-312.485"/>
<polygon fill="midnightblue" stroke="midnightblue" points="1225.37,-315.006 1230.69,-305.841 1220.81,-309.692 1225.37,-315.006"/>
</g>
<!-- Node5 -->
<g id="node5" class="node"><title>Node5</title>
<polygon fill="white" stroke="#bfbfbf" points="1074.5,-286.5 1074.5,-305.5 1115.5,-305.5 1115.5,-286.5 1074.5,-286.5"/>
<text text-anchor="middle" x="1095" y="-293.5" font-family="Helvetica,sans-Serif" font-size="10.00">string</text>
</g>
<!-- Node3&#45;&gt;Node5 -->
<g id="edge4" class="edge"><title>Node3&#45;&gt;Node5</title>
<path fill="none" stroke="midnightblue" d="M1154.98,-354.372C1143.99,-343.856 1125.19,-325.882 1111.57,-312.85"/>
<polygon fill="midnightblue" stroke="midnightblue" points="1113.89,-310.224 1104.24,-305.841 1109.05,-315.283 1113.89,-310.224"/>
</g>
<!-- Node10 -->
<g id="node10" class="node"><title>Node10</title>
<g id="a_node10"><a xlink:href="../../dc/d5c/sim3_8hpp.html" target="_top" xlink:title="sophus/sim3.hpp">
<polygon fill="white" stroke="black" points="389.5,-224.5 389.5,-243.5 480.5,-243.5 480.5,-224.5 389.5,-224.5"/>
<text text-anchor="middle" x="435" y="-231.5" font-family="Helvetica,sans-Serif" font-size="10.00">sophus/sim3.hpp</text>
</a>
</g>
</g>
<!-- Node9&#45;&gt;Node10 -->
<g id="edge9" class="edge"><title>Node9&#45;&gt;Node10</title>
<path fill="none" stroke="midnightblue" d="M466.699,-286.403C461.204,-277.493 452.467,-263.325 445.556,-252.118"/>
<polygon fill="midnightblue" stroke="midnightblue" points="448.519,-250.255 440.291,-243.581 442.561,-253.929 448.519,-250.255"/>
</g>
<!-- Node17 -->
<g id="node17" class="node"><title>Node17</title>
<g id="a_node17"><a xlink:href="../../d4/d4b/se3_8hpp.html" target="_top" xlink:title="sophus/se3.hpp">
<polygon fill="white" stroke="black" points="479,-168.5 479,-187.5 565,-187.5 565,-168.5 479,-168.5"/>
<text text-anchor="middle" x="522" y="-175.5" font-family="Helvetica,sans-Serif" font-size="10.00">sophus/se3.hpp</text>
</a>
</g>
</g>
<!-- Node9&#45;&gt;Node17 -->
<g id="edge17" class="edge"><title>Node9&#45;&gt;Node17</title>
<path fill="none" stroke="midnightblue" d="M475.758,-286.281C483.906,-267.379 503.338,-222.295 514.241,-197"/>
<polygon fill="midnightblue" stroke="midnightblue" points="517.59,-198.073 518.334,-187.505 511.162,-195.303 517.59,-198.073"/>
</g>
<!-- Node11 -->
<g id="node11" class="node"><title>Node11</title>
<g id="a_node11"><a xlink:href="../../d7/d6a/rxso3_8hpp.html" target="_top" xlink:title="rxso3.hpp">
<polygon fill="white" stroke="black" points="401.5,-168.5 401.5,-187.5 460.5,-187.5 460.5,-168.5 401.5,-168.5"/>
<text text-anchor="middle" x="431" y="-175.5" font-family="Helvetica,sans-Serif" font-size="10.00">rxso3.hpp</text>
</a>
</g>
</g>
<!-- Node10&#45;&gt;Node11 -->
<g id="edge10" class="edge"><title>Node10&#45;&gt;Node11</title>
<path fill="none" stroke="midnightblue" d="M434.339,-224.083C433.815,-217.006 433.064,-206.861 432.406,-197.986"/>
<polygon fill="midnightblue" stroke="midnightblue" points="435.877,-197.465 431.648,-187.751 428.897,-197.982 435.877,-197.465"/>
</g>
<!-- Node12 -->
<g id="node12" class="node"><title>Node12</title>
<g id="a_node12"><a xlink:href="../../d7/dc1/sophus_8hpp.html" target="_top" xlink:title="sophus.hpp">
<polygon fill="white" stroke="black" points="424.5,-56.5 424.5,-75.5 491.5,-75.5 491.5,-56.5 424.5,-56.5"/>
<text text-anchor="middle" x="458" y="-63.5" font-family="Helvetica,sans-Serif" font-size="10.00">sophus.hpp</text>
</a>
</g>
</g>
<!-- Node11&#45;&gt;Node12 -->
<g id="edge11" class="edge"><title>Node11&#45;&gt;Node12</title>
<path fill="none" stroke="midnightblue" d="M433.119,-168.368C437.476,-150.617 447.527,-109.666 453.435,-85.5974"/>
<polygon fill="midnightblue" stroke="midnightblue" points="456.906,-86.1375 455.891,-75.5914 450.108,-84.4688 456.906,-86.1375"/>
</g>
<!-- Node16 -->
<g id="node16" class="node"><title>Node16</title>
<g id="a_node16"><a xlink:href="../../de/de9/so3_8hpp.html" target="_top" xlink:title="so3.hpp">
<polygon fill="white" stroke="black" points="459.5,-112.5 459.5,-131.5 510.5,-131.5 510.5,-112.5 459.5,-112.5"/>
<text text-anchor="middle" x="485" y="-119.5" font-family="Helvetica,sans-Serif" font-size="10.00">so3.hpp</text>
</a>
</g>
</g>
<!-- Node11&#45;&gt;Node16 -->
<g id="edge15" class="edge"><title>Node11&#45;&gt;Node16</title>
<path fill="none" stroke="midnightblue" d="M439.917,-168.083C447.78,-160.22 459.431,-148.569 468.919,-139.081"/>
<polygon fill="midnightblue" stroke="midnightblue" points="471.653,-141.297 476.249,-131.751 466.703,-136.347 471.653,-141.297"/>
</g>
<!-- Node13 -->
<g id="node13" class="node"><title>Node13</title>
<polygon fill="white" stroke="#bfbfbf" points="346.5,-0.5 346.5,-19.5 405.5,-19.5 405.5,-0.5 346.5,-0.5"/>
<text text-anchor="middle" x="376" y="-7.5" font-family="Helvetica,sans-Serif" font-size="10.00">stdexcept</text>
</g>
<!-- Node12&#45;&gt;Node13 -->
<g id="edge12" class="edge"><title>Node12&#45;&gt;Node13</title>
<path fill="none" stroke="midnightblue" d="M444.825,-56.324C432.153,-47.979 412.767,-35.2122 397.794,-25.3524"/>
<polygon fill="midnightblue" stroke="midnightblue" points="399.419,-22.2313 389.142,-19.6545 395.569,-28.0776 399.419,-22.2313"/>
</g>
<!-- Node14 -->
<g id="node14" class="node"><title>Node14</title>
<polygon fill="white" stroke="#bfbfbf" points="423.5,-0.5 423.5,-19.5 492.5,-19.5 492.5,-0.5 423.5,-0.5"/>
<text text-anchor="middle" x="458" y="-7.5" font-family="Helvetica,sans-Serif" font-size="10.00">Eigen/Eigen</text>
</g>
<!-- Node12&#45;&gt;Node14 -->
<g id="edge13" class="edge"><title>Node12&#45;&gt;Node14</title>
<path fill="none" stroke="midnightblue" d="M458,-56.083C458,-49.0059 458,-38.8611 458,-29.9865"/>
<polygon fill="midnightblue" stroke="midnightblue" points="461.5,-29.751 458,-19.7511 454.5,-29.7511 461.5,-29.751"/>
</g>
<!-- Node15 -->
<g id="node15" class="node"><title>Node15</title>
<polygon fill="white" stroke="#bfbfbf" points="510.5,-0.5 510.5,-19.5 597.5,-19.5 597.5,-0.5 510.5,-0.5"/>
<text text-anchor="middle" x="554" y="-7.5" font-family="Helvetica,sans-Serif" font-size="10.00">Eigen/Geometry</text>
</g>
<!-- Node12&#45;&gt;Node15 -->
<g id="edge14" class="edge"><title>Node12&#45;&gt;Node15</title>
<path fill="none" stroke="midnightblue" d="M473.424,-56.324C488.54,-47.8215 511.815,-34.7288 529.471,-24.7975"/>
<polygon fill="midnightblue" stroke="midnightblue" points="531.614,-27.6077 538.614,-19.6545 528.183,-21.5066 531.614,-27.6077"/>
</g>
<!-- Node16&#45;&gt;Node12 -->
<g id="edge16" class="edge"><title>Node16&#45;&gt;Node12</title>
<path fill="none" stroke="midnightblue" d="M480.541,-112.083C476.846,-104.691 471.477,-93.9533 466.906,-84.8111"/>
<polygon fill="midnightblue" stroke="midnightblue" points="469.978,-83.1301 462.376,-75.7511 463.717,-86.2606 469.978,-83.1301"/>
</g>
<!-- Node17&#45;&gt;Node16 -->
<g id="edge18" class="edge"><title>Node17&#45;&gt;Node16</title>
<path fill="none" stroke="midnightblue" d="M515.89,-168.083C510.718,-160.534 503.154,-149.495 496.806,-140.23"/>
<polygon fill="midnightblue" stroke="midnightblue" points="499.536,-138.022 490.996,-131.751 493.761,-141.979 499.536,-138.022"/>
</g>
<!-- Node18&#45;&gt;Node3 -->
<g id="edge21" class="edge"><title>Node18&#45;&gt;Node3</title>
<path fill="none" stroke="midnightblue" d="M750.116,-488.545C810.145,-483.025 903.838,-471.336 982,-448 1041.06,-430.368 1105.71,-397.29 1139.81,-378.659"/>
<polygon fill="midnightblue" stroke="midnightblue" points="1141.92,-381.491 1148.98,-373.592 1138.53,-375.364 1141.92,-381.491"/>
</g>
<!-- Node18&#45;&gt;Node9 -->
<g id="edge20" class="edge"><title>Node18&#45;&gt;Node9</title>
<path fill="none" stroke="midnightblue" d="M667.7,-484.486C630.998,-468.854 555.412,-432.315 510,-380 493.404,-360.881 482.723,-333.303 477.038,-315.268"/>
<polygon fill="midnightblue" stroke="midnightblue" points="480.389,-314.258 474.198,-305.66 473.676,-316.242 480.389,-314.258"/>
</g>
<!-- Node19 -->
<g id="node19" class="node"><title>Node19</title>
<polygon fill="white" stroke="#bfbfbf" points="860.5,-417 860.5,-447 973.5,-447 973.5,-417 860.5,-417"/>
<text text-anchor="start" x="868.5" y="-435" font-family="Helvetica,sans-Serif" font-size="10.00">boost/thread/recursive</text>
<text text-anchor="middle" x="917" y="-424" font-family="Helvetica,sans-Serif" font-size="10.00">_mutex.hpp</text>
</g>
<!-- Node18&#45;&gt;Node19 -->
<g id="edge22" class="edge"><title>Node18&#45;&gt;Node19</title>
<path fill="none" stroke="midnightblue" d="M721.667,-484.403C756.051,-475.355 811.034,-460.886 853.918,-449.6"/>
<polygon fill="midnightblue" stroke="midnightblue" points="854.924,-452.955 863.704,-447.025 853.142,-446.186 854.924,-452.955"/>
</g>
<!-- Node20 -->
<g id="node20" class="node"><title>Node20</title>
<polygon fill="white" stroke="#bfbfbf" points="519.5,-349 519.5,-379 622.5,-379 622.5,-349 519.5,-349"/>
<text text-anchor="start" x="527.5" y="-367" font-family="Helvetica,sans-Serif" font-size="10.00">boost/thread/shared</text>
<text text-anchor="middle" x="571" y="-356" font-family="Helvetica,sans-Serif" font-size="10.00">_mutex.hpp</text>
</g>
<!-- Node18&#45;&gt;Node20 -->
<g id="edge23" class="edge"><title>Node18&#45;&gt;Node20</title>
<path fill="none" stroke="midnightblue" d="M680.889,-484.202C662.518,-464.274 617.282,-415.204 590.932,-386.621"/>
<polygon fill="midnightblue" stroke="midnightblue" points="593.39,-384.123 584.038,-379.143 588.243,-388.868 593.39,-384.123"/>
</g>
<!-- Node21 -->
<g id="node21" class="node"><title>Node21</title>
<g id="a_node21"><a xlink:href="../../db/d75/FramePoseStruct_8h.html" target="_top" xlink:title="DataStructures/FramePose\lStruct.h">
<polygon fill="white" stroke="black" points="253,-417 253,-447 389,-447 389,-417 253,-417"/>
<text text-anchor="start" x="261" y="-435" font-family="Helvetica,sans-Serif" font-size="10.00">DataStructures/FramePose</text>
<text text-anchor="middle" x="321" y="-424" font-family="Helvetica,sans-Serif" font-size="10.00">Struct.h</text>
</a>
</g>
</g>
<!-- Node18&#45;&gt;Node21 -->
<g id="edge24" class="edge"><title>Node18&#45;&gt;Node21</title>
<path fill="none" stroke="midnightblue" d="M629.533,-484.497C572.828,-476.231 484.778,-462.991 399.28,-448.188"/>
<polygon fill="midnightblue" stroke="midnightblue" points="399.86,-444.736 389.408,-446.47 398.66,-451.633 399.86,-444.736"/>
</g>
<!-- Node26 -->
<g id="node26" class="node"><title>Node26</title>
<g id="a_node26"><a xlink:href="../../dd/d8b/FrameMemory_8h.html" target="_top" xlink:title="DataStructures/FrameMemory.h">
<polygon fill="white" stroke="black" points="685.5,-422.5 685.5,-441.5 842.5,-441.5 842.5,-422.5 685.5,-422.5"/>
<text text-anchor="middle" x="764" y="-429.5" font-family="Helvetica,sans-Serif" font-size="10.00">DataStructures/FrameMemory.h</text>
</a>
</g>
</g>
<!-- Node18&#45;&gt;Node26 -->
<g id="edge31" class="edge"><title>Node18&#45;&gt;Node26</title>
<path fill="none" stroke="midnightblue" d="M699.746,-484.403C711.553,-474.958 730.743,-459.606 745.082,-448.134"/>
<polygon fill="midnightblue" stroke="midnightblue" points="747.652,-450.561 753.274,-441.581 743.279,-445.095 747.652,-450.561"/>
</g>
<!-- Node33 -->
<g id="node33" class="node"><title>Node33</title>
<polygon fill="white" stroke="#bfbfbf" points="407,-422.5 407,-441.5 485,-441.5 485,-422.5 407,-422.5"/>
<text text-anchor="middle" x="446" y="-429.5" font-family="Helvetica,sans-Serif" font-size="10.00">unordered_set</text>
</g>
<!-- Node18&#45;&gt;Node33 -->
<g id="edge39" class="edge"><title>Node18&#45;&gt;Node33</title>
<path fill="none" stroke="midnightblue" d="M650.668,-484.434C612.208,-475.718 551.331,-461.596 499,-448 494.559,-446.846 489.92,-445.598 485.315,-444.331"/>
<polygon fill="midnightblue" stroke="midnightblue" points="485.947,-440.874 475.374,-441.558 484.066,-447.616 485.947,-440.874"/>
</g>
<!-- Node21&#45;&gt;Node9 -->
<g id="edge25" class="edge"><title>Node21&#45;&gt;Node9</title>
<path fill="none" stroke="midnightblue" d="M367.033,-416.901C387.883,-408.728 411.682,-396.692 429,-380 447.754,-361.924 459.894,-333.889 466.342,-315.487"/>
<polygon fill="midnightblue" stroke="midnightblue" points="469.691,-316.507 469.488,-305.914 463.041,-314.322 469.691,-316.507"/>
</g>
<!-- Node22 -->
<g id="node22" class="node"><title>Node22</title>
<g id="a_node22"><a xlink:href="../../d0/dca/g2oTypeSim3Sophus_8h.html" target="_top" xlink:title="GlobalMapping/g2oTypeSim3\lSophus.h">
<polygon fill="white" stroke="black" points="243,-349 243,-379 387,-379 387,-349 243,-349"/>
<text text-anchor="start" x="251" y="-367" font-family="Helvetica,sans-Serif" font-size="10.00">GlobalMapping/g2oTypeSim3</text>
<text text-anchor="middle" x="315" y="-356" font-family="Helvetica,sans-Serif" font-size="10.00">Sophus.h</text>
</a>
</g>
</g>
<!-- Node21&#45;&gt;Node22 -->
<g id="edge26" class="edge"><title>Node21&#45;&gt;Node22</title>
<path fill="none" stroke="midnightblue" d="M319.698,-416.679C318.975,-408.722 318.055,-398.605 317.221,-389.436"/>
<polygon fill="midnightblue" stroke="midnightblue" points="320.69,-388.935 316.299,-379.293 313.719,-389.569 320.69,-388.935"/>
</g>
<!-- Node22&#45;&gt;Node9 -->
<g id="edge27" class="edge"><title>Node22&#45;&gt;Node9</title>
<path fill="none" stroke="midnightblue" d="M348.68,-348.841C376.446,-337.169 415.461,-320.768 442.126,-309.558"/>
<polygon fill="midnightblue" stroke="midnightblue" points="443.485,-312.784 451.348,-305.682 440.773,-306.331 443.485,-312.784"/>
</g>
<!-- Node23 -->
<g id="node23" class="node"><title>Node23</title>
<polygon fill="white" stroke="#bfbfbf" points="38.5,-286.5 38.5,-305.5 157.5,-305.5 157.5,-286.5 38.5,-286.5"/>
<text text-anchor="middle" x="98" y="-293.5" font-family="Helvetica,sans-Serif" font-size="10.00">g2o/core/base_vertex.h</text>
</g>
<!-- Node22&#45;&gt;Node23 -->
<g id="edge28" class="edge"><title>Node22&#45;&gt;Node23</title>
<path fill="none" stroke="midnightblue" d="M268.714,-348.922C229.12,-336.88 172.831,-319.76 135.873,-308.519"/>
<polygon fill="midnightblue" stroke="midnightblue" points="136.578,-305.075 125.992,-305.514 134.541,-311.772 136.578,-305.075"/>
</g>
<!-- Node24 -->
<g id="node24" class="node"><title>Node24</title>
<polygon fill="white" stroke="#bfbfbf" points="176,-281 176,-311 286,-311 286,-281 176,-281"/>
<text text-anchor="start" x="184" y="-299" font-family="Helvetica,sans-Serif" font-size="10.00">g2o/core/base_binary</text>
<text text-anchor="middle" x="231" y="-288" font-family="Helvetica,sans-Serif" font-size="10.00">_edge.h</text>
</g>
<!-- Node22&#45;&gt;Node24 -->
<g id="edge29" class="edge"><title>Node22&#45;&gt;Node24</title>
<path fill="none" stroke="midnightblue" d="M296.773,-348.679C285.136,-339.536 269.869,-327.54 256.973,-317.407"/>
<polygon fill="midnightblue" stroke="midnightblue" points="258.928,-314.492 248.903,-311.066 254.603,-319.997 258.928,-314.492"/>
</g>
<!-- Node25 -->
<g id="node25" class="node"><title>Node25</title>
<polygon fill="white" stroke="#bfbfbf" points="304.5,-281 304.5,-311 409.5,-311 409.5,-281 304.5,-281"/>
<text text-anchor="start" x="312.5" y="-299" font-family="Helvetica,sans-Serif" font-size="10.00">g2o/types/sba/types</text>
<text text-anchor="middle" x="357" y="-288" font-family="Helvetica,sans-Serif" font-size="10.00">_six_dof_expmap.h</text>
</g>
<!-- Node22&#45;&gt;Node25 -->
<g id="edge30" class="edge"><title>Node22&#45;&gt;Node25</title>
<path fill="none" stroke="midnightblue" d="M324.113,-348.679C329.452,-340.29 336.319,-329.499 342.396,-319.949"/>
<polygon fill="midnightblue" stroke="midnightblue" points="345.488,-321.609 347.904,-311.293 339.583,-317.851 345.488,-321.609"/>
</g>
<!-- Node26&#45;&gt;Node20 -->
<g id="edge37" class="edge"><title>Node26&#45;&gt;Node20</title>
<path fill="none" stroke="midnightblue" d="M738.769,-422.372C709.223,-412.268 659.538,-395.277 621.887,-382.402"/>
<polygon fill="midnightblue" stroke="midnightblue" points="622.698,-378.98 612.104,-379.056 620.433,-385.604 622.698,-378.98"/>
</g>
<!-- Node27 -->
<g id="node27" class="node"><title>Node27</title>
<polygon fill="white" stroke="#bfbfbf" points="640.5,-354.5 640.5,-373.5 723.5,-373.5 723.5,-354.5 640.5,-354.5"/>
<text text-anchor="middle" x="682" y="-361.5" font-family="Helvetica,sans-Serif" font-size="10.00">unordered_map</text>
</g>
<!-- Node26&#45;&gt;Node27 -->
<g id="edge32" class="edge"><title>Node26&#45;&gt;Node27</title>
<path fill="none" stroke="midnightblue" d="M753.28,-422.372C739.897,-411.6 716.791,-393.002 700.52,-379.906"/>
<polygon fill="midnightblue" stroke="midnightblue" points="702.707,-377.174 692.723,-373.63 698.318,-382.627 702.707,-377.174"/>
</g>
<!-- Node28 -->
<g id="node28" class="node"><title>Node28</title>
<polygon fill="white" stroke="#bfbfbf" points="742,-354.5 742,-373.5 786,-373.5 786,-354.5 742,-354.5"/>
<text text-anchor="middle" x="764" y="-361.5" font-family="Helvetica,sans-Serif" font-size="10.00">vector</text>
</g>
<!-- Node26&#45;&gt;Node28 -->
<g id="edge33" class="edge"><title>Node26&#45;&gt;Node28</title>
<path fill="none" stroke="midnightblue" d="M764,-422.372C764,-412.643 764,-396.528 764,-383.85"/>
<polygon fill="midnightblue" stroke="midnightblue" points="767.5,-383.841 764,-373.841 760.5,-383.841 767.5,-383.841"/>
</g>
<!-- Node29 -->
<g id="node29" class="node"><title>Node29</title>
<polygon fill="white" stroke="#bfbfbf" points="804.5,-354.5 804.5,-373.5 923.5,-373.5 923.5,-354.5 804.5,-354.5"/>
<text text-anchor="middle" x="864" y="-361.5" font-family="Helvetica,sans-Serif" font-size="10.00">boost/thread/mutex.hpp</text>
</g>
<!-- Node26&#45;&gt;Node29 -->
<g id="edge34" class="edge"><title>Node26&#45;&gt;Node29</title>
<path fill="none" stroke="midnightblue" d="M777.073,-422.372C793.693,-411.403 822.611,-392.317 842.498,-379.191"/>
<polygon fill="midnightblue" stroke="midnightblue" points="844.505,-382.06 850.924,-373.63 840.649,-376.218 844.505,-382.06"/>
</g>
<!-- Node30 -->
<g id="node30" class="node"><title>Node30</title>
<polygon fill="white" stroke="#bfbfbf" points="941.5,-354.5 941.5,-373.5 984.5,-373.5 984.5,-354.5 941.5,-354.5"/>
<text text-anchor="middle" x="963" y="-361.5" font-family="Helvetica,sans-Serif" font-size="10.00">deque</text>
</g>
<!-- Node26&#45;&gt;Node30 -->
<g id="edge35" class="edge"><title>Node26&#45;&gt;Node30</title>
<path fill="none" stroke="midnightblue" d="M797.673,-422.44C831.97,-413.337 886.437,-397.814 932,-380 933.646,-379.356 935.326,-378.661 937.008,-377.936"/>
<polygon fill="midnightblue" stroke="midnightblue" points="938.856,-380.939 946.48,-373.582 935.932,-374.578 938.856,-380.939"/>
</g>
<!-- Node31 -->
<g id="node31" class="node"><title>Node31</title>
<polygon fill="white" stroke="#bfbfbf" points="1002.5,-354.5 1002.5,-373.5 1031.5,-373.5 1031.5,-354.5 1002.5,-354.5"/>
<text text-anchor="middle" x="1017" y="-361.5" font-family="Helvetica,sans-Serif" font-size="10.00">list</text>
</g>
<!-- Node26&#45;&gt;Node31 -->
<g id="edge36" class="edge"><title>Node26&#45;&gt;Node31</title>
<path fill="none" stroke="midnightblue" d="M811.317,-422.42C868.354,-411.738 960.587,-393.281 993,-380 993.875,-379.641 994.755,-379.252 995.632,-378.838"/>
<polygon fill="midnightblue" stroke="midnightblue" points="997.687,-381.7 1004.73,-373.783 994.286,-375.582 997.687,-381.7"/>
</g>
<!-- Node32 -->
<g id="node32" class="node"><title>Node32</title>
<polygon fill="white" stroke="#bfbfbf" points="1133.5,-286.5 1133.5,-305.5 1198.5,-305.5 1198.5,-286.5 1133.5,-286.5"/>
<text text-anchor="middle" x="1166" y="-293.5" font-family="Helvetica,sans-Serif" font-size="10.00">Eigen/Core</text>
</g>
<!-- Node26&#45;&gt;Node32 -->
<g id="edge38" class="edge"><title>Node26&#45;&gt;Node32</title>
<path fill="none" stroke="midnightblue" d="M812.882,-422.487C889.311,-409.101 1029.52,-384.218 1040,-380 1082.02,-363.09 1124.76,-331.158 1148.08,-312.211"/>
<polygon fill="midnightblue" stroke="midnightblue" points="1150.54,-314.713 1156.02,-305.644 1146.08,-309.318 1150.54,-314.713"/>
</g>
<!-- Node34&#45;&gt;Node3 -->
<g id="edge42" class="edge"><title>Node34&#45;&gt;Node3</title>
<path fill="none" stroke="midnightblue" d="M1170.38,-484.339C1165.94,-475.493 1159.55,-461.22 1157,-448 1152.82,-426.31 1156.12,-400.953 1159.46,-384.028"/>
<polygon fill="midnightblue" stroke="midnightblue" points="1162.98,-384.323 1161.69,-373.807 1156.14,-382.832 1162.98,-384.323"/>
</g>
<!-- Node34&#45;&gt;Node9 -->
<g id="edge45" class="edge"><title>Node34&#45;&gt;Node9</title>
<path fill="none" stroke="midnightblue" d="M1170.21,-484.464C1155.09,-458.462 1105.49,-380.066 1040,-348 950.592,-304.222 651.158,-297.752 526.833,-296.99"/>
<polygon fill="midnightblue" stroke="midnightblue" points="526.79,-293.49 516.772,-296.939 526.754,-300.49 526.79,-293.49"/>
</g>
<!-- Node35 -->
<g id="node35" class="node"><title>Node35</title>
<polygon fill="white" stroke="#bfbfbf" points="1356,-354.5 1356,-373.5 1472,-373.5 1472,-354.5 1356,-354.5"/>
<text text-anchor="middle" x="1414" y="-361.5" font-family="Helvetica,sans-Serif" font-size="10.00">opencv2/core/core.hpp</text>
</g>
<!-- Node34&#45;&gt;Node35 -->
<g id="edge41" class="edge"><title>Node34&#45;&gt;Node35</title>
<path fill="none" stroke="midnightblue" d="M1200.79,-484.423C1224.13,-476.268 1259.17,-463.038 1288,-448 1327.54,-427.377 1370.22,-397.475 1394.37,-379.757"/>
<polygon fill="midnightblue" stroke="midnightblue" points="1396.72,-382.372 1402.67,-373.608 1392.55,-376.746 1396.72,-382.372"/>
</g>
<!-- Node36 -->
<g id="node36" class="node"><title>Node36</title>
<g id="a_node36"><a xlink:href="../../d9/d86/EigenCoreInclude_8h.html" target="_top" xlink:title="util/EigenCoreInclude.h">
<polygon fill="white" stroke="black" points="1220,-354.5 1220,-373.5 1338,-373.5 1338,-354.5 1220,-354.5"/>
<text text-anchor="middle" x="1279" y="-361.5" font-family="Helvetica,sans-Serif" font-size="10.00">util/EigenCoreInclude.h</text>
</a>
</g>
</g>
<!-- Node34&#45;&gt;Node36 -->
<g id="edge43" class="edge"><title>Node34&#45;&gt;Node36</title>
<path fill="none" stroke="midnightblue" d="M1210.49,-484.45C1230.24,-477.819 1253.49,-466.537 1267,-448 1280.57,-429.379 1281.95,-402.063 1281.02,-383.918"/>
<polygon fill="midnightblue" stroke="midnightblue" points="1284.49,-383.423 1280.21,-373.733 1277.52,-383.979 1284.49,-383.423"/>
</g>
<!-- Node37 -->
<g id="node37" class="node"><title>Node37</title>
<g id="a_node37"><a xlink:href="../../dd/d76/LGSX_8h.html" target="_top" xlink:title="Tracking/LGSX.h">
<polygon fill="white" stroke="black" points="1166,-422.5 1166,-441.5 1258,-441.5 1258,-422.5 1166,-422.5"/>
<text text-anchor="middle" x="1212" y="-429.5" font-family="Helvetica,sans-Serif" font-size="10.00">Tracking/LGSX.h</text>
</a>
</g>
</g>
<!-- Node34&#45;&gt;Node37 -->
<g id="edge46" class="edge"><title>Node34&#45;&gt;Node37</title>
<path fill="none" stroke="midnightblue" d="M1180.3,-484.403C1185.8,-475.493 1194.53,-461.325 1201.44,-450.118"/>
<polygon fill="midnightblue" stroke="midnightblue" points="1204.44,-451.929 1206.71,-441.581 1198.48,-448.255 1204.44,-451.929"/>
</g>
<!-- Node36&#45;&gt;Node32 -->
<g id="edge44" class="edge"><title>Node36&#45;&gt;Node32</title>
<path fill="none" stroke="midnightblue" d="M1264.23,-354.372C1245.28,-343.304 1212.18,-323.972 1189.69,-310.838"/>
<polygon fill="midnightblue" stroke="midnightblue" points="1191.18,-307.652 1180.78,-305.63 1187.65,-313.696 1191.18,-307.652"/>
</g>
<!-- Node37&#45;&gt;Node3 -->
<g id="edge49" class="edge"><title>Node37&#45;&gt;Node3</title>
<path fill="none" stroke="midnightblue" d="M1205.72,-422.372C1198.29,-412.151 1185.73,-394.884 1176.33,-381.957"/>
<polygon fill="midnightblue" stroke="midnightblue" points="1179.14,-379.87 1170.43,-373.841 1173.48,-383.987 1179.14,-379.87"/>
</g>
<!-- Node37&#45;&gt;Node35 -->
<g id="edge48" class="edge"><title>Node37&#45;&gt;Node35</title>
<path fill="none" stroke="midnightblue" d="M1238.41,-422.372C1274.2,-410.679 1338.21,-389.762 1378.27,-376.674"/>
<polygon fill="midnightblue" stroke="midnightblue" points="1379.49,-379.959 1387.91,-373.526 1377.31,-373.305 1379.49,-379.959"/>
</g>
<!-- Node37&#45;&gt;Node36 -->
<g id="edge47" class="edge"><title>Node37&#45;&gt;Node36</title>
<path fill="none" stroke="midnightblue" d="M1220.76,-422.372C1231.33,-411.955 1249.34,-394.217 1262.54,-381.216"/>
<polygon fill="midnightblue" stroke="midnightblue" points="1265.36,-383.352 1270.02,-373.841 1260.44,-378.365 1265.36,-383.352"/>
</g>
<!-- Node38&#45;&gt;Node35 -->
<g id="edge51" class="edge"><title>Node38&#45;&gt;Node35</title>
<path fill="none" stroke="midnightblue" d="M1406.55,-484.202C1407.84,-463.551 1411.09,-411.606 1412.84,-383.594"/>
<polygon fill="midnightblue" stroke="midnightblue" points="1416.34,-383.721 1413.47,-373.522 1409.35,-383.285 1416.34,-383.721"/>
</g>
<!-- Node39 -->
<g id="node39" class="node"><title>Node39</title>
<polygon fill="white" stroke="#bfbfbf" points="1434.5,-422.5 1434.5,-441.5 1581.5,-441.5 1581.5,-422.5 1434.5,-422.5"/>
<text text-anchor="middle" x="1508" y="-429.5" font-family="Helvetica,sans-Serif" font-size="10.00">opencv2/imgproc/imgproc.hpp</text>
</g>
<!-- Node38&#45;&gt;Node39 -->
<g id="edge52" class="edge"><title>Node38&#45;&gt;Node39</title>
<path fill="none" stroke="midnightblue" d="M1420.61,-484.403C1437.35,-474.557 1465,-458.291 1484.72,-446.695"/>
<polygon fill="midnightblue" stroke="midnightblue" points="1486.57,-449.668 1493.41,-441.581 1483.02,-443.634 1486.57,-449.668"/>
</g>
</g>
</svg>
        <g id="navigator" transform="translate(0 0)" fill="#404254">
                <rect fill="#f2f5e9" fill-opacity="0.5" stroke="#606060" stroke-width=".5" x="0" y="0" width="60" height="60"/>
                <use id="zoomplus" xlink:href="#zoomPlus" x="17" y="9" onmousedown="handleZoom(evt,'in')"/>
                <use id="zoomminus" xlink:href="#zoomMin" x="42" y="9" onmousedown="handleZoom(evt,'out')"/>
                <use id="reset" xlink:href="#resetDef" x="30" y="36" onmousedown="handleReset()"/>
                <g id="arrowUp" xlink:href="#dirArrow" transform="translate(30 24)" onmousedown="handlePan(0,-1)">
                  <use xlink:href="#rim" fill="#404040">
                        <set attributeName="fill" to="#808080" begin="arrowUp.mouseover" end="arrowUp.mouseout"/>
                  </use>
                  <path fill="none" stroke="white" stroke-width="1.5" d="M0,-3.0v7 M-2.5,-0.5L0,-3.0L2.5,-0.5"/>
                </g>
                <g id="arrowRight" xlink:href="#dirArrow" transform="rotate(90) translate(36 -43)" onmousedown="handlePan(1,0)">
                  <use xlink:href="#rim" fill="#404040">
                        <set attributeName="fill" to="#808080" begin="arrowRight.mouseover" end="arrowRight.mouseout"/>
                  </use>
                  <path fill="none" stroke="white" stroke-width="1.5" d="M0,-3.0v7 M-2.5,-0.5L0,-3.0L2.5,-0.5"/>
                </g>
                <g id="arrowDown" xlink:href="#dirArrow" transform="rotate(180) translate(-30 -48)" onmousedown="handlePan(0,1)">
                  <use xlink:href="#rim" fill="#404040">
                        <set attributeName="fill" to="#808080" begin="arrowDown.mouseover" end="arrowDown.mouseout"/>
                  </use>
                  <path fill="none" stroke="white" stroke-width="1.5" d="M0,-3.0v7 M-2.5,-0.5L0,-3.0L2.5,-0.5"/>
                </g>
                <g id="arrowLeft" xlink:href="#dirArrow" transform="rotate(270) translate(-36 17)" onmousedown="handlePan(-1,0)">
                  <use xlink:href="#rim" fill="#404040">
                        <set attributeName="fill" to="#808080" begin="arrowLeft.mouseover" end="arrowLeft.mouseout"/>
                  </use>
                  <path fill="none" stroke="white" stroke-width="1.5" d="M0,-3.0v7 M-2.5,-0.5L0,-3.0L2.5,-0.5"/>
                </g>
        </g>
        <svg viewBox="0 0 15 15" width="100%" height="30px" preserveAspectRatio="xMaxYMin meet">
         <g id="arrow_out" transform="scale(0.3 0.3)">
          <a xlink:href="Relocalizer_8cpp__incl_org.svg" target="_base">
           <rect id="button" ry="5" rx="5" y="6" x="6" height="38" width="38"
                fill="#f2f5e9" fill-opacity="0.5" stroke="#606060" stroke-width="1.0"/>
           <path id="arrow"
             d="M 11.500037,31.436501 C 11.940474,20.09759 22.043105,11.32322 32.158766,21.979434 L 37.068811,17.246167 C 37.068811,17.246167 37.088388,32 37.088388,32 L 22.160133,31.978069 C 22.160133,31.978069 26.997745,27.140456 26.997745,27.140456 C 18.528582,18.264221 13.291696,25.230495 11.500037,31.436501 z"
             style="fill:#404040;"/>
          </a>
         </g>
        </svg>
</svg>
