<?xml version="1.0" encoding="UTF-8" standalone="no"?>
<!DOCTYPE svg PUBLIC "-//W3C//DTD SVG 1.1//EN"
 "http://www.w3.org/Graphics/SVG/1.1/DTD/svg11.dtd">
<!-- Generated by graphviz version 2.36.0 (20140111.2315)
 -->
<!-- Title: src/LiveSLAMWrapper.cpp Pages: 1 -->
<!--zoomable 500 -->
<svg id="main" version="1.1" xmlns="http://www.w3.org/2000/svg" xmlns:xlink="http://www.w3.org/1999/xlink" xml:space="preserve" onload="init(evt)">
<style type="text/css"><![CDATA[
.edge:hover path { stroke: red; }
.edge:hover polygon { stroke: red; fill: red; }
]]></style>
<script type="text/javascript"><![CDATA[
var edges = document.getElementsByTagName('g');
if (edges && edges.length) {
  for (var i=0;i<edges.length;i++) {
    if (edges[i].id.substr(0,4)=='edge') {
      edges[i].setAttribute('class','edge');
    }
  }
}
]]></script>
        <defs>
                <circle id="rim" cx="0" cy="0" r="7"/>
                <circle id="rim2" cx="0" cy="0" r="3.5"/>
                <g id="zoomPlus">
                        <use xlink:href="#rim" fill="#404040">
                                <set attributeName="fill" to="#808080" begin="zoomplus.mouseover" end="zoomplus.mouseout"/>
                        </use>
                        <path d="M-4,0h8M0,-4v8" fill="none" stroke="white" stroke-width="1.5" pointer-events="none"/>
                </g>
                <g id="zoomMin">
                        <use xlink:href="#rim" fill="#404040">
                                <set attributeName="fill" to="#808080" begin="zoomminus.mouseover" end="zoomminus.mouseout"/>
                        </use>
                        <path d="M-4,0h8" fill="none" stroke="white" stroke-width="1.5" pointer-events="none"/>
                </g>
                <g id="dirArrow">
                        <path fill="none" stroke="white" stroke-width="1.5" d="M0,-3.0v7 M-2.5,-0.5L0,-3.0L2.5,-0.5"/>
                </g>
               <g id="resetDef">
                       <use xlink:href="#rim2" fill="#404040">
                               <set attributeName="fill" to="#808080" begin="reset.mouseover" end="reset.mouseout"/>
                       </use>
               </g>
        </defs>

<script type="text/javascript">
var viewWidth = 1978;
var viewHeight = 500;
var sectionId = 'dynsection-0';
</script>
<script xlink:href="../../svgpan.js"/>
<svg id="graph" class="graph">
<g id="viewport">
<title>src/LiveSLAMWrapper.cpp</title>
<polygon fill="white" stroke="none" points="-4,4 -4,-496 1974.38,-496 1974.38,4 -4,4"/>
<!-- Node1 -->
<g id="node1" class="node"><title>Node1</title>
<polygon fill="#bfbfbf" stroke="black" points="828,-472.5 828,-491.5 962,-491.5 962,-472.5 828,-472.5"/>
<text text-anchor="middle" x="895" y="-479.5" font-family="Helvetica,sans-Serif" font-size="10.00">src/LiveSLAMWrapper.cpp</text>
</g>
<!-- Node2 -->
<g id="node2" class="node"><title>Node2</title>
<g id="a_node2"><a xlink:href="../../d8/d7d/LiveSLAMWrapper_8h.html" target="_top" xlink:title="LiveSLAMWrapper.h">
<polygon fill="white" stroke="black" points="517.5,-416.5 517.5,-435.5 624.5,-435.5 624.5,-416.5 517.5,-416.5"/>
<text text-anchor="middle" x="571" y="-423.5" font-family="Helvetica,sans-Serif" font-size="10.00">LiveSLAMWrapper.h</text>
</a>
</g>
</g>
<!-- Node1&#45;&gt;Node2 -->
<g id="edge1" class="edge"><title>Node1&#45;&gt;Node2</title>
<path fill="none" stroke="midnightblue" d="M843.661,-472.444C786.192,-462.865 693.133,-447.356 632,-437.167"/>
<polygon fill="midnightblue" stroke="midnightblue" points="632.538,-433.708 622.099,-435.516 631.387,-440.613 632.538,-433.708"/>
</g>
<!-- Node3 -->
<g id="node3" class="node"><title>Node3</title>
<polygon fill="white" stroke="#bfbfbf" points="658,-286.5 658,-305.5 712,-305.5 712,-286.5 658,-286.5"/>
<text text-anchor="middle" x="685" y="-293.5" font-family="Helvetica,sans-Serif" font-size="10.00">iostream</text>
</g>
<!-- Node1&#45;&gt;Node3 -->
<g id="edge62" class="edge"><title>Node1&#45;&gt;Node3</title>
<path fill="none" stroke="midnightblue" d="M860.997,-472.486C817.698,-459.826 743.744,-431.772 704,-380 689.755,-361.444 685.861,-334.113 684.964,-315.946"/>
<polygon fill="midnightblue" stroke="midnightblue" points="688.459,-315.664 684.728,-305.747 681.461,-315.826 688.459,-315.664"/>
</g>
<!-- Node15 -->
<g id="node15" class="node"><title>Node15</title>
<g id="a_node15"><a xlink:href="../../d2/d13/SophusUtil_8h.html" target="_top" xlink:title="util/SophusUtil.h">
<polygon fill="white" stroke="black" points="894.5,-286.5 894.5,-305.5 983.5,-305.5 983.5,-286.5 894.5,-286.5"/>
<text text-anchor="middle" x="939" y="-293.5" font-family="Helvetica,sans-Serif" font-size="10.00">util/SophusUtil.h</text>
</a>
</g>
</g>
<!-- Node1&#45;&gt;Node15 -->
<g id="edge29" class="edge"><title>Node1&#45;&gt;Node15</title>
<path fill="none" stroke="midnightblue" d="M895.299,-472.395C896.244,-450.93 899.991,-393.474 914,-348 917.577,-336.39 923.501,-324.142 928.685,-314.56"/>
<polygon fill="midnightblue" stroke="midnightblue" points="931.83,-316.108 933.69,-305.678 925.732,-312.672 931.83,-316.108"/>
</g>
<!-- Node24 -->
<g id="node24" class="node"><title>Node24</title>
<polygon fill="white" stroke="#bfbfbf" points="923,-354.5 923,-373.5 967,-373.5 967,-354.5 923,-354.5"/>
<text text-anchor="middle" x="945" y="-361.5" font-family="Helvetica,sans-Serif" font-size="10.00">vector</text>
</g>
<!-- Node1&#45;&gt;Node24 -->
<g id="edge28" class="edge"><title>Node1&#45;&gt;Node24</title>
<path fill="none" stroke="midnightblue" d="M898.758,-472.281C906.906,-453.379 926.338,-408.295 937.241,-383"/>
<polygon fill="midnightblue" stroke="midnightblue" points="940.59,-384.073 941.334,-373.505 934.162,-381.303 940.59,-384.073"/>
</g>
<!-- Node25 -->
<g id="node25" class="node"><title>Node25</title>
<g id="a_node25"><a xlink:href="../../d8/de4/SlamSystem_8h.html" target="_top" xlink:title="SlamSystem.h">
<polygon fill="white" stroke="black" points="1115.5,-416.5 1115.5,-435.5 1196.5,-435.5 1196.5,-416.5 1115.5,-416.5"/>
<text text-anchor="middle" x="1156" y="-423.5" font-family="Helvetica,sans-Serif" font-size="10.00">SlamSystem.h</text>
</a>
</g>
</g>
<!-- Node1&#45;&gt;Node25 -->
<g id="edge30" class="edge"><title>Node1&#45;&gt;Node25</title>
<path fill="none" stroke="midnightblue" d="M936.356,-472.444C982.212,-462.956 1056.2,-447.649 1105.46,-437.457"/>
<polygon fill="midnightblue" stroke="midnightblue" points="1106.18,-440.881 1115.27,-435.428 1104.77,-434.026 1106.18,-440.881"/>
</g>
<!-- Node34 -->
<g id="node34" class="node"><title>Node34</title>
<g id="a_node34"><a xlink:href="../../d8/d3f/ImageDisplay_8h.html" target="_top" xlink:title="IOWrapper/ImageDisplay.h">
<polygon fill="white" stroke="black" points="1814.5,-416.5 1814.5,-435.5 1949.5,-435.5 1949.5,-416.5 1814.5,-416.5"/>
<text text-anchor="middle" x="1882" y="-423.5" font-family="Helvetica,sans-Serif" font-size="10.00">IOWrapper/ImageDisplay.h</text>
</a>
</g>
</g>
<!-- Node1&#45;&gt;Node34 -->
<g id="edge48" class="edge"><title>Node1&#45;&gt;Node34</title>
<path fill="none" stroke="midnightblue" d="M962.245,-477.979C1107.65,-471.341 1462.18,-454.587 1759,-436 1773.58,-435.087 1789.14,-434.021 1804.1,-432.948"/>
<polygon fill="midnightblue" stroke="midnightblue" points="1804.63,-436.419 1814.35,-432.207 1804.12,-429.438 1804.63,-436.419"/>
</g>
<!-- Node36 -->
<g id="node36" class="node"><title>Node36</title>
<g id="a_node36"><a xlink:href="../../d8/da7/Output3DWrapper_8h.html" target="_top" xlink:title="IOWrapper/Output3DWrapper.h">
<polygon fill="white" stroke="black" points="713,-354.5 713,-373.5 867,-373.5 867,-354.5 713,-354.5"/>
<text text-anchor="middle" x="790" y="-361.5" font-family="Helvetica,sans-Serif" font-size="10.00">IOWrapper/Output3DWrapper.h</text>
</a>
</g>
</g>
<!-- Node1&#45;&gt;Node36 -->
<g id="edge51" class="edge"><title>Node1&#45;&gt;Node36</title>
<path fill="none" stroke="midnightblue" d="M887.108,-472.281C869.54,-452.872 826.986,-405.861 804.493,-381.011"/>
<polygon fill="midnightblue" stroke="midnightblue" points="807.004,-378.57 797.698,-373.505 801.814,-383.267 807.004,-378.57"/>
</g>
<!-- Node37 -->
<g id="node37" class="node"><title>Node37</title>
<g id="a_node37"><a xlink:href="../../d6/d4e/InputImageStream_8h.html" target="_top" xlink:title="IOWrapper/InputImageStream.h">
<polygon fill="white" stroke="black" points="344.5,-416.5 344.5,-435.5 499.5,-435.5 499.5,-416.5 344.5,-416.5"/>
<text text-anchor="middle" x="422" y="-423.5" font-family="Helvetica,sans-Serif" font-size="10.00">IOWrapper/InputImageStream.h</text>
</a>
</g>
</g>
<!-- Node1&#45;&gt;Node37 -->
<g id="edge54" class="edge"><title>Node1&#45;&gt;Node37</title>
<path fill="none" stroke="midnightblue" d="M827.984,-473.349C743.604,-463.716 598.586,-447.16 506.638,-436.663"/>
<polygon fill="midnightblue" stroke="midnightblue" points="506.86,-433.165 496.527,-435.508 506.066,-440.12 506.86,-433.165"/>
</g>
<!-- Node38 -->
<g id="node38" class="node"><title>Node38</title>
<g id="a_node38"><a xlink:href="../../d7/dd7/globalFuncs_8h.html" target="_top" xlink:title="util/globalFuncs.h">
<polygon fill="white" stroke="black" points="1657.5,-416.5 1657.5,-435.5 1750.5,-435.5 1750.5,-416.5 1657.5,-416.5"/>
<text text-anchor="middle" x="1704" y="-423.5" font-family="Helvetica,sans-Serif" font-size="10.00">util/globalFuncs.h</text>
</a>
</g>
</g>
<!-- Node1&#45;&gt;Node38 -->
<g id="edge57" class="edge"><title>Node1&#45;&gt;Node38</title>
<path fill="none" stroke="midnightblue" d="M962.237,-476.512C1118.12,-466.107 1501.95,-440.487 1647.13,-430.796"/>
<polygon fill="midnightblue" stroke="midnightblue" points="1647.42,-434.285 1657.16,-430.126 1646.95,-427.3 1647.42,-434.285"/>
</g>
<!-- Node2&#45;&gt;Node3 -->
<g id="edge2" class="edge"><title>Node2&#45;&gt;Node3</title>
<path fill="none" stroke="midnightblue" d="M577.562,-416.182C588.544,-401.581 611.557,-371.649 633,-348 644.125,-335.73 657.479,-322.664 667.869,-312.83"/>
<polygon fill="midnightblue" stroke="midnightblue" points="670.561,-315.103 675.466,-305.712 665.775,-309.995 670.561,-315.103"/>
</g>
<!-- Node4 -->
<g id="node4" class="node"><title>Node4</title>
<polygon fill="white" stroke="#bfbfbf" points="273,-354.5 273,-373.5 323,-373.5 323,-354.5 273,-354.5"/>
<text text-anchor="middle" x="298" y="-361.5" font-family="Helvetica,sans-Serif" font-size="10.00">fstream</text>
</g>
<!-- Node2&#45;&gt;Node4 -->
<g id="edge3" class="edge"><title>Node2&#45;&gt;Node4</title>
<path fill="none" stroke="midnightblue" d="M517.395,-417.461C469.552,-410.08 397.855,-397.406 337,-380 334.027,-379.15 330.963,-378.167 327.92,-377.119"/>
<polygon fill="midnightblue" stroke="midnightblue" points="329.007,-373.789 318.413,-373.633 326.597,-380.362 329.007,-373.789"/>
</g>
<!-- Node5 -->
<g id="node5" class="node"><title>Node5</title>
<polygon fill="white" stroke="#bfbfbf" points="438,-224.5 438,-243.5 484,-243.5 484,-224.5 438,-224.5"/>
<text text-anchor="middle" x="461" y="-231.5" font-family="Helvetica,sans-Serif" font-size="10.00">chrono</text>
</g>
<!-- Node2&#45;&gt;Node5 -->
<g id="edge4" class="edge"><title>Node2&#45;&gt;Node5</title>
<path fill="none" stroke="midnightblue" d="M517.379,-416.52C461.037,-407.066 379.277,-391.583 370,-380 334.397,-335.544 403.091,-276.392 439.884,-249.458"/>
<polygon fill="midnightblue" stroke="midnightblue" points="441.946,-252.287 448.048,-243.625 437.876,-246.591 441.946,-252.287"/>
</g>
<!-- Node6 -->
<g id="node6" class="node"><title>Node6</title>
<g id="a_node6"><a xlink:href="../../d7/d66/Timestamp_8h.html" target="_top" xlink:title="IOWrapper/Timestamp.h">
<polygon fill="white" stroke="black" points="509,-286.5 509,-305.5 633,-305.5 633,-286.5 509,-286.5"/>
<text text-anchor="middle" x="571" y="-293.5" font-family="Helvetica,sans-Serif" font-size="10.00">IOWrapper/Timestamp.h</text>
</a>
</g>
</g>
<!-- Node2&#45;&gt;Node6 -->
<g id="edge5" class="edge"><title>Node2&#45;&gt;Node6</title>
<path fill="none" stroke="midnightblue" d="M571,-416.202C571,-395.551 571,-343.606 571,-315.594"/>
<polygon fill="midnightblue" stroke="midnightblue" points="574.5,-315.522 571,-305.522 567.5,-315.522 574.5,-315.522"/>
</g>
<!-- Node9 -->
<g id="node9" class="node"><title>Node9</title>
<g id="a_node9"><a xlink:href="../../d5/d13/NotifyBuffer_8h.html" target="_top" xlink:title="IOWrapper/NotifyBuffer.h">
<polygon fill="white" stroke="black" points="127,-354.5 127,-373.5 255,-373.5 255,-354.5 127,-354.5"/>
<text text-anchor="middle" x="191" y="-361.5" font-family="Helvetica,sans-Serif" font-size="10.00">IOWrapper/NotifyBuffer.h</text>
</a>
</g>
</g>
<!-- Node2&#45;&gt;Node9 -->
<g id="edge9" class="edge"><title>Node2&#45;&gt;Node9</title>
<path fill="none" stroke="midnightblue" d="M517.267,-417.294C435.923,-405.603 288.372,-384.287 264,-380 256.295,-378.645 248.156,-377.093 240.22,-375.513"/>
<polygon fill="midnightblue" stroke="midnightblue" points="240.818,-372.063 230.322,-373.509 239.429,-378.924 240.818,-372.063"/>
</g>
<!-- Node13 -->
<g id="node13" class="node"><title>Node13</title>
<g id="a_node13"><a xlink:href="../../da/d15/TimestampedObject_8h.html" target="_top" xlink:title="IOWrapper/TimestampedObject.h">
<polygon fill="white" stroke="black" points="379.5,-354.5 379.5,-373.5 542.5,-373.5 542.5,-354.5 379.5,-354.5"/>
<text text-anchor="middle" x="461" y="-361.5" font-family="Helvetica,sans-Serif" font-size="10.00">IOWrapper/TimestampedObject.h</text>
</a>
</g>
</g>
<!-- Node2&#45;&gt;Node13 -->
<g id="edge13" class="edge"><title>Node2&#45;&gt;Node13</title>
<path fill="none" stroke="midnightblue" d="M555.24,-416.403C537.024,-406.468 506.827,-389.997 485.532,-378.381"/>
<polygon fill="midnightblue" stroke="midnightblue" points="487.186,-375.297 476.731,-373.581 483.834,-381.442 487.186,-375.297"/>
</g>
<!-- Node2&#45;&gt;Node15 -->
<g id="edge17" class="edge"><title>Node2&#45;&gt;Node15</title>
<path fill="none" stroke="midnightblue" d="M582.824,-416.435C605.3,-400.557 656.226,-366.489 704,-348 763.43,-325 835.538,-311.296 884.075,-303.98"/>
<polygon fill="midnightblue" stroke="midnightblue" points="884.676,-307.429 894.062,-302.514 883.659,-300.503 884.676,-307.429"/>
</g>
<!-- Node6&#45;&gt;Node5 -->
<g id="edge7" class="edge"><title>Node6&#45;&gt;Node5</title>
<path fill="none" stroke="midnightblue" d="M555.24,-286.403C537.024,-276.468 506.827,-259.997 485.532,-248.381"/>
<polygon fill="midnightblue" stroke="midnightblue" points="487.186,-245.297 476.731,-243.581 483.834,-251.442 487.186,-245.297"/>
</g>
<!-- Node7 -->
<g id="node7" class="node"><title>Node7</title>
<polygon fill="white" stroke="#bfbfbf" points="769.5,-224.5 769.5,-243.5 810.5,-243.5 810.5,-224.5 769.5,-224.5"/>
<text text-anchor="middle" x="790" y="-231.5" font-family="Helvetica,sans-Serif" font-size="10.00">string</text>
</g>
<!-- Node6&#45;&gt;Node7 -->
<g id="edge6" class="edge"><title>Node6&#45;&gt;Node7</title>
<path fill="none" stroke="midnightblue" d="M602.377,-286.403C644.246,-274.933 717.91,-254.751 759.387,-243.387"/>
<polygon fill="midnightblue" stroke="midnightblue" points="760.48,-246.717 769.2,-240.699 758.63,-239.966 760.48,-246.717"/>
</g>
<!-- Node8 -->
<g id="node8" class="node"><title>Node8</title>
<polygon fill="white" stroke="#bfbfbf" points="511.5,-224.5 511.5,-243.5 630.5,-243.5 630.5,-224.5 511.5,-224.5"/>
<text text-anchor="middle" x="571" y="-231.5" font-family="Helvetica,sans-Serif" font-size="10.00">boost/thread/mutex.hpp</text>
</g>
<!-- Node6&#45;&gt;Node8 -->
<g id="edge8" class="edge"><title>Node6&#45;&gt;Node8</title>
<path fill="none" stroke="midnightblue" d="M571,-286.403C571,-277.938 571,-264.728 571,-253.82"/>
<polygon fill="midnightblue" stroke="midnightblue" points="574.5,-253.581 571,-243.581 567.5,-253.581 574.5,-253.581"/>
</g>
<!-- Node10 -->
<g id="node10" class="node"><title>Node10</title>
<polygon fill="white" stroke="#bfbfbf" points="-0.5,-286.5 -0.5,-305.5 42.5,-305.5 42.5,-286.5 -0.5,-286.5"/>
<text text-anchor="middle" x="21" y="-293.5" font-family="Helvetica,sans-Serif" font-size="10.00">deque</text>
</g>
<!-- Node9&#45;&gt;Node10 -->
<g id="edge10" class="edge"><title>Node9&#45;&gt;Node10</title>
<path fill="none" stroke="midnightblue" d="M164.85,-354.473C136.463,-344.987 89.9666,-328.774 51,-312 49.596,-311.396 48.1645,-310.757 46.7259,-310.099"/>
<polygon fill="midnightblue" stroke="midnightblue" points="47.8751,-306.768 37.3454,-305.596 44.8457,-313.079 47.8751,-306.768"/>
</g>
<!-- Node11 -->
<g id="node11" class="node"><title>Node11</title>
<polygon fill="white" stroke="#bfbfbf" points="60.5,-281 60.5,-311 173.5,-311 173.5,-281 60.5,-281"/>
<text text-anchor="start" x="68.5" y="-299" font-family="Helvetica,sans-Serif" font-size="10.00">boost/thread/recursive</text>
<text text-anchor="middle" x="117" y="-288" font-family="Helvetica,sans-Serif" font-size="10.00">_mutex.hpp</text>
</g>
<!-- Node9&#45;&gt;Node11 -->
<g id="edge11" class="edge"><title>Node9&#45;&gt;Node11</title>
<path fill="none" stroke="midnightblue" d="M181.326,-354.372C171.042,-345.2 154.396,-330.354 140.614,-318.062"/>
<polygon fill="midnightblue" stroke="midnightblue" points="142.693,-315.226 132.9,-311.181 138.034,-320.45 142.693,-315.226"/>
</g>
<!-- Node12 -->
<g id="node12" class="node"><title>Node12</title>
<polygon fill="white" stroke="#bfbfbf" points="191.5,-286.5 191.5,-305.5 322.5,-305.5 322.5,-286.5 191.5,-286.5"/>
<text text-anchor="middle" x="257" y="-293.5" font-family="Helvetica,sans-Serif" font-size="10.00">boost/thread/condition.hpp</text>
</g>
<!-- Node9&#45;&gt;Node12 -->
<g id="edge12" class="edge"><title>Node9&#45;&gt;Node12</title>
<path fill="none" stroke="midnightblue" d="M199.628,-354.372C210.045,-343.955 227.783,-326.217 240.784,-313.216"/>
<polygon fill="midnightblue" stroke="midnightblue" points="243.563,-315.387 248.159,-305.841 238.613,-310.437 243.563,-315.387"/>
</g>
<!-- Node13&#45;&gt;Node5 -->
<g id="edge14" class="edge"><title>Node13&#45;&gt;Node5</title>
<path fill="none" stroke="midnightblue" d="M461,-354.202C461,-333.551 461,-281.606 461,-253.594"/>
<polygon fill="midnightblue" stroke="midnightblue" points="464.5,-253.522 461,-243.522 457.5,-253.522 464.5,-253.522"/>
</g>
<!-- Node13&#45;&gt;Node6 -->
<g id="edge16" class="edge"><title>Node13&#45;&gt;Node6</title>
<path fill="none" stroke="midnightblue" d="M475.381,-354.372C493.827,-343.304 526.046,-323.972 547.937,-310.838"/>
<polygon fill="midnightblue" stroke="midnightblue" points="549.842,-313.777 556.616,-305.63 546.24,-307.774 549.842,-313.777"/>
</g>
<!-- Node14 -->
<g id="node14" class="node"><title>Node14</title>
<polygon fill="white" stroke="#bfbfbf" points="1507,-286.5 1507,-305.5 1623,-305.5 1623,-286.5 1507,-286.5"/>
<text text-anchor="middle" x="1565" y="-293.5" font-family="Helvetica,sans-Serif" font-size="10.00">opencv2/core/core.hpp</text>
</g>
<!-- Node13&#45;&gt;Node14 -->
<g id="edge15" class="edge"><title>Node13&#45;&gt;Node14</title>
<path fill="none" stroke="midnightblue" d="M542.551,-357.915C589.72,-354.987 650.207,-351.253 704,-348 999.032,-330.156 1350.97,-309.509 1496.66,-300.99"/>
<polygon fill="midnightblue" stroke="midnightblue" points="1497.01,-304.476 1506.79,-300.398 1496.61,-297.487 1497.01,-304.476"/>
</g>
<!-- Node16 -->
<g id="node16" class="node"><title>Node16</title>
<g id="a_node16"><a xlink:href="../../dc/d5c/sim3_8hpp.html" target="_top" xlink:title="sophus/sim3.hpp">
<polygon fill="white" stroke="black" points="934.5,-224.5 934.5,-243.5 1025.5,-243.5 1025.5,-224.5 934.5,-224.5"/>
<text text-anchor="middle" x="980" y="-231.5" font-family="Helvetica,sans-Serif" font-size="10.00">sophus/sim3.hpp</text>
</a>
</g>
</g>
<!-- Node15&#45;&gt;Node16 -->
<g id="edge18" class="edge"><title>Node15&#45;&gt;Node16</title>
<path fill="none" stroke="midnightblue" d="M944.874,-286.403C950.963,-277.493 960.645,-263.325 968.303,-252.118"/>
<polygon fill="midnightblue" stroke="midnightblue" points="971.384,-253.812 974.137,-243.581 965.605,-249.862 971.384,-253.812"/>
</g>
<!-- Node23 -->
<g id="node23" class="node"><title>Node23</title>
<g id="a_node23"><a xlink:href="../../d4/d4b/se3_8hpp.html" target="_top" xlink:title="sophus/se3.hpp">
<polygon fill="white" stroke="black" points="851,-168.5 851,-187.5 937,-187.5 937,-168.5 851,-168.5"/>
<text text-anchor="middle" x="894" y="-175.5" font-family="Helvetica,sans-Serif" font-size="10.00">sophus/se3.hpp</text>
</a>
</g>
</g>
<!-- Node15&#45;&gt;Node23 -->
<g id="edge26" class="edge"><title>Node15&#45;&gt;Node23</title>
<path fill="none" stroke="midnightblue" d="M935.618,-286.281C928.285,-267.379 910.795,-222.295 900.983,-197"/>
<polygon fill="midnightblue" stroke="midnightblue" points="904.179,-195.562 897.299,-187.505 897.653,-198.094 904.179,-195.562"/>
</g>
<!-- Node17 -->
<g id="node17" class="node"><title>Node17</title>
<g id="a_node17"><a xlink:href="../../d7/d6a/rxso3_8hpp.html" target="_top" xlink:title="rxso3.hpp">
<polygon fill="white" stroke="black" points="955.5,-168.5 955.5,-187.5 1014.5,-187.5 1014.5,-168.5 955.5,-168.5"/>
<text text-anchor="middle" x="985" y="-175.5" font-family="Helvetica,sans-Serif" font-size="10.00">rxso3.hpp</text>
</a>
</g>
</g>
<!-- Node16&#45;&gt;Node17 -->
<g id="edge19" class="edge"><title>Node16&#45;&gt;Node17</title>
<path fill="none" stroke="midnightblue" d="M980.826,-224.083C981.481,-217.006 982.42,-206.861 983.242,-197.986"/>
<polygon fill="midnightblue" stroke="midnightblue" points="986.753,-198.031 984.19,-187.751 979.783,-197.386 986.753,-198.031"/>
</g>
<!-- Node18 -->
<g id="node18" class="node"><title>Node18</title>
<g id="a_node18"><a xlink:href="../../d7/dc1/sophus_8hpp.html" target="_top" xlink:title="sophus.hpp">
<polygon fill="white" stroke="black" points="924.5,-56.5 924.5,-75.5 991.5,-75.5 991.5,-56.5 924.5,-56.5"/>
<text text-anchor="middle" x="958" y="-63.5" font-family="Helvetica,sans-Serif" font-size="10.00">sophus.hpp</text>
</a>
</g>
</g>
<!-- Node17&#45;&gt;Node18 -->
<g id="edge20" class="edge"><title>Node17&#45;&gt;Node18</title>
<path fill="none" stroke="midnightblue" d="M982.881,-168.368C978.524,-150.617 968.473,-109.666 962.565,-85.5974"/>
<polygon fill="midnightblue" stroke="midnightblue" points="965.892,-84.4688 960.109,-75.5914 959.094,-86.1375 965.892,-84.4688"/>
</g>
<!-- Node22 -->
<g id="node22" class="node"><title>Node22</title>
<g id="a_node22"><a xlink:href="../../de/de9/so3_8hpp.html" target="_top" xlink:title="so3.hpp">
<polygon fill="white" stroke="black" points="905.5,-112.5 905.5,-131.5 956.5,-131.5 956.5,-112.5 905.5,-112.5"/>
<text text-anchor="middle" x="931" y="-119.5" font-family="Helvetica,sans-Serif" font-size="10.00">so3.hpp</text>
</a>
</g>
</g>
<!-- Node17&#45;&gt;Node22 -->
<g id="edge24" class="edge"><title>Node17&#45;&gt;Node22</title>
<path fill="none" stroke="midnightblue" d="M976.083,-168.083C968.22,-160.22 956.569,-148.569 947.081,-139.081"/>
<polygon fill="midnightblue" stroke="midnightblue" points="949.297,-136.347 939.751,-131.751 944.347,-141.297 949.297,-136.347"/>
</g>
<!-- Node19 -->
<g id="node19" class="node"><title>Node19</title>
<polygon fill="white" stroke="#bfbfbf" points="846.5,-0.5 846.5,-19.5 905.5,-19.5 905.5,-0.5 846.5,-0.5"/>
<text text-anchor="middle" x="876" y="-7.5" font-family="Helvetica,sans-Serif" font-size="10.00">stdexcept</text>
</g>
<!-- Node18&#45;&gt;Node19 -->
<g id="edge21" class="edge"><title>Node18&#45;&gt;Node19</title>
<path fill="none" stroke="midnightblue" d="M944.825,-56.324C932.153,-47.979 912.767,-35.2122 897.794,-25.3524"/>
<polygon fill="midnightblue" stroke="midnightblue" points="899.419,-22.2313 889.142,-19.6545 895.569,-28.0776 899.419,-22.2313"/>
</g>
<!-- Node20 -->
<g id="node20" class="node"><title>Node20</title>
<polygon fill="white" stroke="#bfbfbf" points="923.5,-0.5 923.5,-19.5 992.5,-19.5 992.5,-0.5 923.5,-0.5"/>
<text text-anchor="middle" x="958" y="-7.5" font-family="Helvetica,sans-Serif" font-size="10.00">Eigen/Eigen</text>
</g>
<!-- Node18&#45;&gt;Node20 -->
<g id="edge22" class="edge"><title>Node18&#45;&gt;Node20</title>
<path fill="none" stroke="midnightblue" d="M958,-56.083C958,-49.0059 958,-38.8611 958,-29.9865"/>
<polygon fill="midnightblue" stroke="midnightblue" points="961.5,-29.751 958,-19.7511 954.5,-29.7511 961.5,-29.751"/>
</g>
<!-- Node21 -->
<g id="node21" class="node"><title>Node21</title>
<polygon fill="white" stroke="#bfbfbf" points="1010.5,-0.5 1010.5,-19.5 1097.5,-19.5 1097.5,-0.5 1010.5,-0.5"/>
<text text-anchor="middle" x="1054" y="-7.5" font-family="Helvetica,sans-Serif" font-size="10.00">Eigen/Geometry</text>
</g>
<!-- Node18&#45;&gt;Node21 -->
<g id="edge23" class="edge"><title>Node18&#45;&gt;Node21</title>
<path fill="none" stroke="midnightblue" d="M973.424,-56.324C988.54,-47.8215 1011.82,-34.7288 1029.47,-24.7975"/>
<polygon fill="midnightblue" stroke="midnightblue" points="1031.61,-27.6077 1038.61,-19.6545 1028.18,-21.5066 1031.61,-27.6077"/>
</g>
<!-- Node22&#45;&gt;Node18 -->
<g id="edge25" class="edge"><title>Node22&#45;&gt;Node18</title>
<path fill="none" stroke="midnightblue" d="M935.459,-112.083C939.154,-104.691 944.523,-93.9533 949.094,-84.8111"/>
<polygon fill="midnightblue" stroke="midnightblue" points="952.283,-86.2606 953.624,-75.7511 946.022,-83.1301 952.283,-86.2606"/>
</g>
<!-- Node23&#45;&gt;Node22 -->
<g id="edge27" class="edge"><title>Node23&#45;&gt;Node22</title>
<path fill="none" stroke="midnightblue" d="M900.11,-168.083C905.282,-160.534 912.846,-149.495 919.194,-140.23"/>
<polygon fill="midnightblue" stroke="midnightblue" points="922.239,-141.979 925.004,-131.751 916.464,-138.022 922.239,-141.979"/>
</g>
<!-- Node25&#45;&gt;Node6 -->
<g id="edge39" class="edge"><title>Node25&#45;&gt;Node6</title>
<path fill="none" stroke="midnightblue" d="M1118.35,-416.497C1089.58,-409.14 1049.48,-396.993 1017,-380 996.207,-369.12 996.789,-356.716 975,-348 839.658,-293.859 793.133,-333.782 649,-312 640.282,-310.683 631.053,-309.088 622.113,-307.436"/>
<polygon fill="midnightblue" stroke="midnightblue" points="622.66,-303.977 612.184,-305.558 621.36,-310.855 622.66,-303.977"/>
</g>
<!-- Node25&#45;&gt;Node14 -->
<g id="edge40" class="edge"><title>Node25&#45;&gt;Node14</title>
<path fill="none" stroke="midnightblue" d="M1173.14,-416.452C1190.78,-407.579 1219,-393.177 1243,-380 1267.79,-366.388 1271.51,-357.905 1298,-348 1363.23,-323.609 1441.97,-310.391 1496.98,-303.57"/>
<polygon fill="midnightblue" stroke="midnightblue" points="1497.45,-307.039 1506.97,-302.37 1496.62,-300.089 1497.45,-307.039"/>
</g>
<!-- Node25&#45;&gt;Node15 -->
<g id="edge41" class="edge"><title>Node25&#45;&gt;Node15</title>
<path fill="none" stroke="midnightblue" d="M1139.62,-416.479C1122.77,-407.627 1095.83,-393.243 1073,-380 1032.77,-356.661 986.894,-327.727 960.602,-310.915"/>
<polygon fill="midnightblue" stroke="midnightblue" points="962.467,-307.954 952.16,-305.503 958.689,-313.847 962.467,-307.954"/>
</g>
<!-- Node25&#45;&gt;Node24 -->
<g id="edge31" class="edge"><title>Node25&#45;&gt;Node24</title>
<path fill="none" stroke="midnightblue" d="M1116.26,-416.491C1080.48,-408.427 1026.66,-395.296 981,-380 978.584,-379.191 976.101,-378.295 973.623,-377.357"/>
<polygon fill="midnightblue" stroke="midnightblue" points="974.822,-374.067 964.237,-373.612 972.228,-380.569 974.822,-374.067"/>
</g>
<!-- Node26 -->
<g id="node26" class="node"><title>Node26</title>
<polygon fill="white" stroke="#bfbfbf" points="1026.5,-286.5 1026.5,-305.5 1115.5,-305.5 1115.5,-286.5 1026.5,-286.5"/>
<text text-anchor="middle" x="1071" y="-293.5" font-family="Helvetica,sans-Serif" font-size="10.00">boost/thread.hpp</text>
</g>
<!-- Node25&#45;&gt;Node26 -->
<g id="edge32" class="edge"><title>Node25&#45;&gt;Node26</title>
<path fill="none" stroke="midnightblue" d="M1136.24,-416.479C1121.27,-409.01 1101.41,-396.726 1090,-380 1076.82,-360.676 1072.67,-333.526 1071.43,-315.61"/>
<polygon fill="midnightblue" stroke="midnightblue" points="1074.92,-315.402 1070.97,-305.573 1067.93,-315.722 1074.92,-315.402"/>
</g>
<!-- Node27 -->
<g id="node27" class="node"><title>Node27</title>
<polygon fill="white" stroke="#bfbfbf" points="1441.5,-349 1441.5,-379 1544.5,-379 1544.5,-349 1441.5,-349"/>
<text text-anchor="start" x="1449.5" y="-367" font-family="Helvetica,sans-Serif" font-size="10.00">boost/thread/shared</text>
<text text-anchor="middle" x="1493" y="-356" font-family="Helvetica,sans-Serif" font-size="10.00">_mutex.hpp</text>
</g>
<!-- Node25&#45;&gt;Node27 -->
<g id="edge33" class="edge"><title>Node25&#45;&gt;Node27</title>
<path fill="none" stroke="midnightblue" d="M1196.71,-419.316C1250.54,-411.576 1348.26,-396.754 1431,-380 1431.11,-379.979 1431.21,-379.957 1431.32,-379.936"/>
<polygon fill="midnightblue" stroke="midnightblue" points="1432.25,-383.316 1441.3,-377.814 1430.8,-376.468 1432.25,-383.316"/>
</g>
<!-- Node28 -->
<g id="node28" class="node"><title>Node28</title>
<polygon fill="white" stroke="#bfbfbf" points="1562.5,-349 1562.5,-379 1675.5,-379 1675.5,-349 1562.5,-349"/>
<text text-anchor="start" x="1570.5" y="-367" font-family="Helvetica,sans-Serif" font-size="10.00">boost/thread/condition</text>
<text text-anchor="middle" x="1619" y="-356" font-family="Helvetica,sans-Serif" font-size="10.00">_variable.hpp</text>
</g>
<!-- Node25&#45;&gt;Node28 -->
<g id="edge34" class="edge"><title>Node25&#45;&gt;Node28</title>
<path fill="none" stroke="midnightblue" d="M1196.5,-421.899C1266.79,-416.194 1416.06,-402.655 1552.02,-380.044"/>
<polygon fill="midnightblue" stroke="midnightblue" points="1552.92,-383.441 1562.2,-378.329 1551.76,-376.538 1552.92,-383.441"/>
</g>
<!-- Node29 -->
<g id="node29" class="node"><title>Node29</title>
<polygon fill="white" stroke="#bfbfbf" points="1307,-354.5 1307,-373.5 1423,-373.5 1423,-354.5 1307,-354.5"/>
<text text-anchor="middle" x="1365" y="-361.5" font-family="Helvetica,sans-Serif" font-size="10.00">boost/thread/locks.hpp</text>
</g>
<!-- Node25&#45;&gt;Node29 -->
<g id="edge35" class="edge"><title>Node25&#45;&gt;Node29</title>
<path fill="none" stroke="midnightblue" d="M1185.94,-416.403C1222.57,-405.889 1284.7,-388.054 1325.28,-376.402"/>
<polygon fill="midnightblue" stroke="midnightblue" points="1326.46,-379.704 1335.11,-373.581 1324.53,-372.976 1326.46,-379.704"/>
</g>
<!-- Node30 -->
<g id="node30" class="node"><title>Node30</title>
<g id="a_node30"><a xlink:href="../../de/d60/settings_8h.html" target="_top" xlink:title="util/settings.h">
<polygon fill="white" stroke="black" points="1200.5,-286.5 1200.5,-305.5 1275.5,-305.5 1275.5,-286.5 1200.5,-286.5"/>
<text text-anchor="middle" x="1238" y="-293.5" font-family="Helvetica,sans-Serif" font-size="10.00">util/settings.h</text>
</a>
</g>
</g>
<!-- Node25&#45;&gt;Node30 -->
<g id="edge36" class="edge"><title>Node25&#45;&gt;Node30</title>
<path fill="none" stroke="midnightblue" d="M1176.24,-416.434C1191.25,-409.01 1210.96,-396.805 1222,-380 1234.75,-360.593 1237.85,-333.463 1238.36,-315.574"/>
<polygon fill="midnightblue" stroke="midnightblue" points="1241.86,-315.568 1238.4,-305.554 1234.86,-315.54 1241.86,-315.568"/>
</g>
<!-- Node32 -->
<g id="node32" class="node"><title>Node32</title>
<g id="a_node32"><a xlink:href="../../df/d5d/Relocalizer_8h.html" target="_top" xlink:title="Tracking/Relocalizer.h">
<polygon fill="white" stroke="black" points="1099,-354.5 1099,-373.5 1213,-373.5 1213,-354.5 1099,-354.5"/>
<text text-anchor="middle" x="1156" y="-361.5" font-family="Helvetica,sans-Serif" font-size="10.00">Tracking/Relocalizer.h</text>
</a>
</g>
</g>
<!-- Node25&#45;&gt;Node32 -->
<g id="edge42" class="edge"><title>Node25&#45;&gt;Node32</title>
<path fill="none" stroke="midnightblue" d="M1156,-416.403C1156,-407.938 1156,-394.728 1156,-383.82"/>
<polygon fill="midnightblue" stroke="midnightblue" points="1159.5,-383.581 1156,-373.581 1152.5,-383.581 1159.5,-383.581"/>
</g>
<!-- Node30&#45;&gt;Node7 -->
<g id="edge38" class="edge"><title>Node30&#45;&gt;Node7</title>
<path fill="none" stroke="midnightblue" d="M1213.3,-286.468C1205.6,-284.069 1197.01,-281.664 1189,-280 1118.45,-265.355 901.671,-245.019 820.823,-237.733"/>
<polygon fill="midnightblue" stroke="midnightblue" points="821.053,-234.239 810.78,-236.832 820.428,-241.211 821.053,-234.239"/>
</g>
<!-- Node31 -->
<g id="node31" class="node"><title>Node31</title>
<polygon fill="white" stroke="#bfbfbf" points="1213.5,-224.5 1213.5,-243.5 1262.5,-243.5 1262.5,-224.5 1213.5,-224.5"/>
<text text-anchor="middle" x="1238" y="-231.5" font-family="Helvetica,sans-Serif" font-size="10.00">string.h</text>
</g>
<!-- Node30&#45;&gt;Node31 -->
<g id="edge37" class="edge"><title>Node30&#45;&gt;Node31</title>
<path fill="none" stroke="midnightblue" d="M1238,-286.403C1238,-277.938 1238,-264.728 1238,-253.82"/>
<polygon fill="midnightblue" stroke="midnightblue" points="1241.5,-253.581 1238,-243.581 1234.5,-253.581 1241.5,-253.581"/>
</g>
<!-- Node32&#45;&gt;Node3 -->
<g id="edge46" class="edge"><title>Node32&#45;&gt;Node3</title>
<path fill="none" stroke="midnightblue" d="M1098.72,-354.973C1000.9,-341.266 804.277,-313.714 722.26,-302.221"/>
<polygon fill="midnightblue" stroke="midnightblue" points="722.543,-298.727 712.154,-300.805 721.571,-305.659 722.543,-298.727"/>
</g>
<!-- Node32&#45;&gt;Node15 -->
<g id="edge47" class="edge"><title>Node32&#45;&gt;Node15</title>
<path fill="none" stroke="midnightblue" d="M1127.63,-354.372C1089.02,-342.629 1019.83,-321.585 976.838,-308.508"/>
<polygon fill="midnightblue" stroke="midnightblue" points="977.618,-305.087 967.032,-305.526 975.581,-311.784 977.618,-305.087"/>
</g>
<!-- Node32&#45;&gt;Node26 -->
<g id="edge44" class="edge"><title>Node32&#45;&gt;Node26</title>
<path fill="none" stroke="midnightblue" d="M1144.89,-354.372C1131.02,-343.6 1107.06,-325.002 1090.2,-311.906"/>
<polygon fill="midnightblue" stroke="midnightblue" points="1092.16,-308.999 1082.11,-305.63 1087.87,-314.528 1092.16,-308.999"/>
</g>
<!-- Node32&#45;&gt;Node30 -->
<g id="edge43" class="edge"><title>Node32&#45;&gt;Node30</title>
<path fill="none" stroke="midnightblue" d="M1166.72,-354.372C1180.1,-343.6 1203.21,-325.002 1219.48,-311.906"/>
<polygon fill="midnightblue" stroke="midnightblue" points="1221.68,-314.627 1227.28,-305.63 1217.29,-309.174 1221.68,-314.627"/>
</g>
<!-- Node33 -->
<g id="node33" class="node"><title>Node33</title>
<polygon fill="white" stroke="#bfbfbf" points="1134,-286.5 1134,-305.5 1180,-305.5 1180,-286.5 1134,-286.5"/>
<text text-anchor="middle" x="1157" y="-293.5" font-family="Helvetica,sans-Serif" font-size="10.00">stdio.h</text>
</g>
<!-- Node32&#45;&gt;Node33 -->
<g id="edge45" class="edge"><title>Node32&#45;&gt;Node33</title>
<path fill="none" stroke="midnightblue" d="M1156.13,-354.372C1156.28,-344.643 1156.52,-328.528 1156.71,-315.85"/>
<polygon fill="midnightblue" stroke="midnightblue" points="1160.21,-315.893 1156.87,-305.841 1153.21,-315.787 1160.21,-315.893"/>
</g>
<!-- Node34&#45;&gt;Node14 -->
<g id="edge49" class="edge"><title>Node34&#45;&gt;Node14</title>
<path fill="none" stroke="midnightblue" d="M1913.81,-416.385C1931.95,-409.661 1953.16,-398.306 1964,-380 1971.24,-367.761 1973.4,-358.675 1964,-348 1942.54,-323.626 1741.64,-307.748 1633.37,-300.887"/>
<polygon fill="midnightblue" stroke="midnightblue" points="1633.39,-297.381 1623.19,-300.251 1632.95,-304.368 1633.39,-297.381"/>
</g>
<!-- Node35 -->
<g id="node35" class="node"><title>Node35</title>
<polygon fill="white" stroke="#bfbfbf" points="1808.5,-354.5 1808.5,-373.5 1955.5,-373.5 1955.5,-354.5 1808.5,-354.5"/>
<text text-anchor="middle" x="1882" y="-361.5" font-family="Helvetica,sans-Serif" font-size="10.00">opencv2/imgproc/imgproc.hpp</text>
</g>
<!-- Node34&#45;&gt;Node35 -->
<g id="edge50" class="edge"><title>Node34&#45;&gt;Node35</title>
<path fill="none" stroke="midnightblue" d="M1882,-416.403C1882,-407.938 1882,-394.728 1882,-383.82"/>
<polygon fill="midnightblue" stroke="midnightblue" points="1885.5,-383.581 1882,-373.581 1878.5,-383.581 1885.5,-383.581"/>
</g>
<!-- Node36&#45;&gt;Node7 -->
<g id="edge52" class="edge"><title>Node36&#45;&gt;Node7</title>
<path fill="none" stroke="midnightblue" d="M790,-354.202C790,-333.551 790,-281.606 790,-253.594"/>
<polygon fill="midnightblue" stroke="midnightblue" points="793.5,-253.522 790,-243.522 786.5,-253.522 793.5,-253.522"/>
</g>
<!-- Node36&#45;&gt;Node15 -->
<g id="edge53" class="edge"><title>Node36&#45;&gt;Node15</title>
<path fill="none" stroke="midnightblue" d="M809.479,-354.372C835.135,-343.007 880.459,-322.931 910.112,-309.796"/>
<polygon fill="midnightblue" stroke="midnightblue" points="911.79,-312.881 919.516,-305.63 908.955,-306.48 911.79,-312.881"/>
</g>
<!-- Node37&#45;&gt;Node9 -->
<g id="edge55" class="edge"><title>Node37&#45;&gt;Node9</title>
<path fill="none" stroke="midnightblue" d="M388.903,-416.403C348.078,-405.799 278.592,-387.751 233.761,-376.107"/>
<polygon fill="midnightblue" stroke="midnightblue" points="234.594,-372.707 224.035,-373.581 232.834,-379.482 234.594,-372.707"/>
</g>
<!-- Node37&#45;&gt;Node13 -->
<g id="edge56" class="edge"><title>Node37&#45;&gt;Node13</title>
<path fill="none" stroke="midnightblue" d="M427.588,-416.403C433.38,-407.493 442.589,-393.325 449.874,-382.118"/>
<polygon fill="midnightblue" stroke="midnightblue" points="452.907,-383.873 455.423,-373.581 447.038,-380.058 452.907,-383.873"/>
</g>
<!-- Node38&#45;&gt;Node13 -->
<g id="edge60" class="edge"><title>Node38&#45;&gt;Node13</title>
<path fill="none" stroke="midnightblue" d="M1657.38,-423.179C1514.69,-417.545 1071.25,-399.597 704,-380 653.969,-377.33 598.172,-373.917 552.674,-371.021"/>
<polygon fill="midnightblue" stroke="midnightblue" points="552.738,-367.518 542.535,-370.373 552.291,-374.504 552.738,-367.518"/>
</g>
<!-- Node38&#45;&gt;Node14 -->
<g id="edge58" class="edge"><title>Node38&#45;&gt;Node14</title>
<path fill="none" stroke="midnightblue" d="M1719.78,-416.467C1732.2,-408.769 1748.61,-396.179 1756,-380 1761.91,-367.065 1764.66,-359.279 1756,-348 1740.87,-328.305 1681.82,-314.58 1633.33,-306.369"/>
<polygon fill="midnightblue" stroke="midnightblue" points="1633.6,-302.866 1623.17,-304.7 1632.47,-309.774 1633.6,-302.866"/>
</g>
<!-- Node38&#45;&gt;Node15 -->
<g id="edge61" class="edge"><title>Node38&#45;&gt;Node15</title>
<path fill="none" stroke="midnightblue" d="M1704.72,-416.116C1705.52,-399.704 1704.53,-364.784 1684,-348 1626.54,-301.027 1090.67,-321.029 1017,-312 1007.45,-310.83 997.314,-309.183 987.618,-307.407"/>
<polygon fill="midnightblue" stroke="midnightblue" points="988.195,-303.954 977.717,-305.524 986.887,-310.831 988.195,-303.954"/>
</g>
<!-- Node38&#45;&gt;Node30 -->
<g id="edge59" class="edge"><title>Node38&#45;&gt;Node30</title>
<path fill="none" stroke="midnightblue" d="M1709.61,-416.36C1719.02,-400.661 1735.35,-367.296 1718,-348 1703.64,-332.029 1404.3,-308.921 1285.74,-300.357"/>
<polygon fill="midnightblue" stroke="midnightblue" points="1285.74,-296.848 1275.52,-299.622 1285.24,-303.83 1285.74,-296.848"/>
</g>
</g>
</svg>
        <g id="navigator" transform="translate(0 0)" fill="#404254">
                <rect fill="#f2f5e9" fill-opacity="0.5" stroke="#606060" stroke-width=".5" x="0" y="0" width="60" height="60"/>
                <use id="zoomplus" xlink:href="#zoomPlus" x="17" y="9" onmousedown="handleZoom(evt,'in')"/>
                <use id="zoomminus" xlink:href="#zoomMin" x="42" y="9" onmousedown="handleZoom(evt,'out')"/>
                <use id="reset" xlink:href="#resetDef" x="30" y="36" onmousedown="handleReset()"/>
                <g id="arrowUp" xlink:href="#dirArrow" transform="translate(30 24)" onmousedown="handlePan(0,-1)">
                  <use xlink:href="#rim" fill="#404040">
                        <set attributeName="fill" to="#808080" begin="arrowUp.mouseover" end="arrowUp.mouseout"/>
                  </use>
                  <path fill="none" stroke="white" stroke-width="1.5" d="M0,-3.0v7 M-2.5,-0.5L0,-3.0L2.5,-0.5"/>
                </g>
                <g id="arrowRight" xlink:href="#dirArrow" transform="rotate(90) translate(36 -43)" onmousedown="handlePan(1,0)">
                  <use xlink:href="#rim" fill="#404040">
                        <set attributeName="fill" to="#808080" begin="arrowRight.mouseover" end="arrowRight.mouseout"/>
                  </use>
                  <path fill="none" stroke="white" stroke-width="1.5" d="M0,-3.0v7 M-2.5,-0.5L0,-3.0L2.5,-0.5"/>
                </g>
                <g id="arrowDown" xlink:href="#dirArrow" transform="rotate(180) translate(-30 -48)" onmousedown="handlePan(0,1)">
                  <use xlink:href="#rim" fill="#404040">
                        <set attributeName="fill" to="#808080" begin="arrowDown.mouseover" end="arrowDown.mouseout"/>
                  </use>
                  <path fill="none" stroke="white" stroke-width="1.5" d="M0,-3.0v7 M-2.5,-0.5L0,-3.0L2.5,-0.5"/>
                </g>
                <g id="arrowLeft" xlink:href="#dirArrow" transform="rotate(270) translate(-36 17)" onmousedown="handlePan(-1,0)">
                  <use xlink:href="#rim" fill="#404040">
                        <set attributeName="fill" to="#808080" begin="arrowLeft.mouseover" end="arrowLeft.mouseout"/>
                  </use>
                  <path fill="none" stroke="white" stroke-width="1.5" d="M0,-3.0v7 M-2.5,-0.5L0,-3.0L2.5,-0.5"/>
                </g>
        </g>
        <svg viewBox="0 0 15 15" width="100%" height="30px" preserveAspectRatio="xMaxYMin meet">
         <g id="arrow_out" transform="scale(0.3 0.3)">
          <a xlink:href="LiveSLAMWrapper_8cpp__incl_org.svg" target="_base">
           <rect id="button" ry="5" rx="5" y="6" x="6" height="38" width="38"
                fill="#f2f5e9" fill-opacity="0.5" stroke="#606060" stroke-width="1.0"/>
           <path id="arrow"
             d="M 11.500037,31.436501 C 11.940474,20.09759 22.043105,11.32322 32.158766,21.979434 L 37.068811,17.246167 C 37.068811,17.246167 37.088388,32 37.088388,32 L 22.160133,31.978069 C 22.160133,31.978069 26.997745,27.140456 26.997745,27.140456 C 18.528582,18.264221 13.291696,25.230495 11.500037,31.436501 z"
             style="fill:#404040;"/>
          </a>
         </g>
        </svg>
</svg>
