<?xml version="1.0" encoding="UTF-8" standalone="no"?>
<!DOCTYPE svg PUBLIC "-//W3C//DTD SVG 1.1//EN"
 "http://www.w3.org/Graphics/SVG/1.1/DTD/svg11.dtd">
<!-- Generated by graphviz version 2.36.0 (20140111.2315)
 -->
<!-- Title: src/ColorOctomapServer.cpp Pages: 1 -->
<svg width="1370pt" height="252pt"
 viewBox="0.00 0.00 1370.00 252.00" xmlns="http://www.w3.org/2000/svg" xmlns:xlink="http://www.w3.org/1999/xlink">
<g id="graph0" class="graph" transform="scale(1 1) rotate(0) translate(4 248)">
<title>src/ColorOctomapServer.cpp</title>
<polygon fill="white" stroke="none" points="-4,4 -4,-248 1366,-248 1366,4 -4,4"/>
<!-- Node1 -->
<g id="node1" class="node"><title>Node1</title>
<polygon fill="#bfbfbf" stroke="black" points="1015.5,-224.5 1015.5,-243.5 1158.5,-243.5 1158.5,-224.5 1015.5,-224.5"/>
<text text-anchor="middle" x="1087" y="-231.5" font-family="Helvetica,sans-Serif" font-size="10.00">src/ColorOctomapServer.cpp</text>
</g>
<!-- Node2 -->
<g id="node2" class="node"><title>Node2</title>
<g id="a_node2"><a xlink:href="../../d5/d82/ColorOctomapServer_8h.html" target="_top" xlink:title="ColorOctomapServer.h">
<polygon fill="white" stroke="black" points="673,-168.5 673,-187.5 789,-187.5 789,-168.5 673,-168.5"/>
<text text-anchor="middle" x="731" y="-175.5" font-family="Helvetica,sans-Serif" font-size="10.00">ColorOctomapServer.h</text>
</a>
</g>
</g>
<!-- Node1&#45;&gt;Node2 -->
<g id="edge1" class="edge"><title>Node1&#45;&gt;Node2</title>
<path fill="none" stroke="midnightblue" d="M1030.59,-224.444C967.185,-214.826 864.352,-199.228 797.196,-189.041"/>
<polygon fill="midnightblue" stroke="midnightblue" points="797.557,-185.556 787.145,-187.516 796.507,-192.477 797.557,-185.556"/>
</g>
<!-- Node17 -->
<g id="node17" class="node"><title>Node17</title>
<g id="a_node17"><a xlink:href="../../dd/de1/scoped__timer_8h.html" target="_top" xlink:title="scoped_timer.h">
<polygon fill="white" stroke="black" points="932.5,-168.5 932.5,-187.5 1015.5,-187.5 1015.5,-168.5 932.5,-168.5"/>
<text text-anchor="middle" x="974" y="-175.5" font-family="Helvetica,sans-Serif" font-size="10.00">scoped_timer.h</text>
</a>
</g>
</g>
<!-- Node1&#45;&gt;Node17 -->
<g id="edge17" class="edge"><title>Node1&#45;&gt;Node17</title>
<path fill="none" stroke="midnightblue" d="M1069.09,-224.444C1050.75,-215.675 1021.99,-201.935 1000.91,-191.858"/>
<polygon fill="midnightblue" stroke="midnightblue" points="1002.35,-188.67 991.821,-187.516 999.335,-194.986 1002.35,-188.67"/>
</g>
<!-- Node19 -->
<g id="node19" class="node"><title>Node19</title>
<polygon fill="white" stroke="#bfbfbf" points="1034,-168.5 1034,-187.5 1140,-187.5 1140,-168.5 1034,-168.5"/>
<text text-anchor="middle" x="1087" y="-175.5" font-family="Helvetica,sans-Serif" font-size="10.00">pcl_ros/transforms.h</text>
</g>
<!-- Node1&#45;&gt;Node19 -->
<g id="edge19" class="edge"><title>Node1&#45;&gt;Node19</title>
<path fill="none" stroke="midnightblue" d="M1087,-224.083C1087,-217.006 1087,-206.861 1087,-197.986"/>
<polygon fill="midnightblue" stroke="midnightblue" points="1090.5,-197.751 1087,-187.751 1083.5,-197.751 1090.5,-197.751"/>
</g>
<!-- Node20 -->
<g id="node20" class="node"><title>Node20</title>
<polygon fill="white" stroke="#bfbfbf" points="1158.5,-168.5 1158.5,-187.5 1295.5,-187.5 1295.5,-168.5 1158.5,-168.5"/>
<text text-anchor="middle" x="1227" y="-175.5" font-family="Helvetica,sans-Serif" font-size="10.00">pcl_ros/impl/transforms.hpp</text>
</g>
<!-- Node1&#45;&gt;Node20 -->
<g id="edge20" class="edge"><title>Node1&#45;&gt;Node20</title>
<path fill="none" stroke="midnightblue" d="M1109.18,-224.444C1132.43,-215.478 1169.15,-201.314 1195.42,-191.183"/>
<polygon fill="midnightblue" stroke="midnightblue" points="1196.85,-194.381 1204.92,-187.516 1194.33,-187.85 1196.85,-194.381"/>
</g>
<!-- Node21 -->
<g id="node21" class="node"><title>Node21</title>
<polygon fill="white" stroke="#bfbfbf" points="1314,-168.5 1314,-187.5 1362,-187.5 1362,-168.5 1314,-168.5"/>
<text text-anchor="middle" x="1338" y="-175.5" font-family="Helvetica,sans-Serif" font-size="10.00">GL/gl.h</text>
</g>
<!-- Node1&#45;&gt;Node21 -->
<g id="edge21" class="edge"><title>Node1&#45;&gt;Node21</title>
<path fill="none" stroke="midnightblue" d="M1131.62,-224.482C1175.6,-215.913 1244.65,-201.999 1304,-188 1304.1,-187.976 1304.2,-187.953 1304.3,-187.929"/>
<polygon fill="midnightblue" stroke="midnightblue" points="1305.03,-191.354 1313.89,-185.554 1303.35,-184.56 1305.03,-191.354"/>
</g>
<!-- Node3 -->
<g id="node3" class="node"><title>Node3</title>
<g id="a_node3"><a xlink:href="../../d2/de7/parameter__server_8h.html" target="_top" xlink:title="parameter_server.h">
<polygon fill="white" stroke="black" points="176.5,-112.5 176.5,-131.5 277.5,-131.5 277.5,-112.5 176.5,-112.5"/>
<text text-anchor="middle" x="227" y="-119.5" font-family="Helvetica,sans-Serif" font-size="10.00">parameter_server.h</text>
</a>
</g>
</g>
<!-- Node2&#45;&gt;Node3 -->
<g id="edge2" class="edge"><title>Node2&#45;&gt;Node3</title>
<path fill="none" stroke="midnightblue" d="M672.935,-172.073C589.788,-164.808 431.771,-150.225 287.434,-132.129"/>
<polygon fill="midnightblue" stroke="midnightblue" points="287.867,-128.656 277.507,-130.876 286.99,-135.601 287.867,-128.656"/>
</g>
<!-- Node10 -->
<g id="node10" class="node"><title>Node10</title>
<polygon fill="white" stroke="#bfbfbf" points="295.5,-112.5 295.5,-131.5 416.5,-131.5 416.5,-112.5 295.5,-112.5"/>
<text text-anchor="middle" x="356" y="-119.5" font-family="Helvetica,sans-Serif" font-size="10.00">octomap/ColorOcTree.h</text>
</g>
<!-- Node2&#45;&gt;Node10 -->
<g id="edge10" class="edge"><title>Node2&#45;&gt;Node10</title>
<path fill="none" stroke="midnightblue" d="M672.818,-168.622C606.052,-159.008 496.635,-143.251 425.462,-133.003"/>
<polygon fill="midnightblue" stroke="midnightblue" points="425.645,-129.493 415.248,-131.532 424.647,-136.421 425.645,-129.493"/>
</g>
<!-- Node11 -->
<g id="node11" class="node"><title>Node11</title>
<polygon fill="white" stroke="#bfbfbf" points="434.5,-112.5 434.5,-131.5 545.5,-131.5 545.5,-112.5 434.5,-112.5"/>
<text text-anchor="middle" x="490" y="-119.5" font-family="Helvetica,sans-Serif" font-size="10.00">octomap/Pointcloud.h</text>
</g>
<!-- Node2&#45;&gt;Node11 -->
<g id="edge11" class="edge"><title>Node2&#45;&gt;Node11</title>
<path fill="none" stroke="midnightblue" d="M692.813,-168.444C650.859,-159.043 583.406,-143.929 537.929,-133.739"/>
<polygon fill="midnightblue" stroke="midnightblue" points="538.532,-130.288 528.009,-131.516 537.001,-137.118 538.532,-130.288"/>
</g>
<!-- Node12 -->
<g id="node12" class="node"><title>Node12</title>
<polygon fill="white" stroke="#bfbfbf" points="563.5,-112.5 563.5,-131.5 666.5,-131.5 666.5,-112.5 563.5,-112.5"/>
<text text-anchor="middle" x="615" y="-119.5" font-family="Helvetica,sans-Serif" font-size="10.00">octomap/octomap.h</text>
</g>
<!-- Node2&#45;&gt;Node12 -->
<g id="edge12" class="edge"><title>Node2&#45;&gt;Node12</title>
<path fill="none" stroke="midnightblue" d="M712.619,-168.444C693.784,-159.675 664.269,-145.935 642.621,-135.858"/>
<polygon fill="midnightblue" stroke="midnightblue" points="643.838,-132.564 633.295,-131.516 640.883,-138.91 643.838,-132.564"/>
</g>
<!-- Node13 -->
<g id="node13" class="node"><title>Node13</title>
<polygon fill="white" stroke="#bfbfbf" points="685,-112.5 685,-131.5 777,-131.5 777,-112.5 685,-112.5"/>
<text text-anchor="middle" x="731" y="-119.5" font-family="Helvetica,sans-Serif" font-size="10.00">qtconcurrentrun.h</text>
</g>
<!-- Node2&#45;&gt;Node13 -->
<g id="edge13" class="edge"><title>Node2&#45;&gt;Node13</title>
<path fill="none" stroke="midnightblue" d="M731,-168.083C731,-161.006 731,-150.861 731,-141.986"/>
<polygon fill="midnightblue" stroke="midnightblue" points="734.5,-141.751 731,-131.751 727.5,-141.751 734.5,-141.751"/>
</g>
<!-- Node14 -->
<g id="node14" class="node"><title>Node14</title>
<polygon fill="white" stroke="#bfbfbf" points="795,-112.5 795,-131.5 847,-131.5 847,-112.5 795,-112.5"/>
<text text-anchor="middle" x="821" y="-119.5" font-family="Helvetica,sans-Serif" font-size="10.00">memory</text>
</g>
<!-- Node2&#45;&gt;Node14 -->
<g id="edge14" class="edge"><title>Node2&#45;&gt;Node14</title>
<path fill="none" stroke="midnightblue" d="M745.46,-168.324C759.5,-159.9 781.048,-146.971 797.543,-137.074"/>
<polygon fill="midnightblue" stroke="midnightblue" points="799.802,-139.801 806.576,-131.655 796.2,-133.798 799.802,-139.801"/>
</g>
<!-- Node15 -->
<g id="node15" class="node"><title>Node15</title>
<polygon fill="white" stroke="#bfbfbf" points="865,-112.5 865,-131.5 973,-131.5 973,-112.5 865,-112.5"/>
<text text-anchor="middle" x="919" y="-119.5" font-family="Helvetica,sans-Serif" font-size="10.00">boost/shared_ptr.hpp</text>
</g>
<!-- Node2&#45;&gt;Node15 -->
<g id="edge15" class="edge"><title>Node2&#45;&gt;Node15</title>
<path fill="none" stroke="midnightblue" d="M760.789,-168.444C792.829,-159.241 843.933,-144.562 879.353,-134.388"/>
<polygon fill="midnightblue" stroke="midnightblue" points="880.705,-137.641 889.35,-131.516 878.773,-130.913 880.705,-137.641"/>
</g>
<!-- Node16 -->
<g id="node16" class="node"><title>Node16</title>
<g id="a_node16"><a xlink:href="../../de/d31/renderable_8h.html" target="_top" xlink:title="renderable.h">
<polygon fill="white" stroke="black" points="991,-112.5 991,-131.5 1061,-131.5 1061,-112.5 991,-112.5"/>
<text text-anchor="middle" x="1026" y="-119.5" font-family="Helvetica,sans-Serif" font-size="10.00">renderable.h</text>
</a>
</g>
</g>
<!-- Node2&#45;&gt;Node16 -->
<g id="edge16" class="edge"><title>Node2&#45;&gt;Node16</title>
<path fill="none" stroke="midnightblue" d="M780.596,-168.475C829.098,-160.056 905.318,-146.608 980.792,-132.196"/>
<polygon fill="midnightblue" stroke="midnightblue" points="981.788,-135.569 990.951,-130.249 980.471,-128.694 981.788,-135.569"/>
</g>
<!-- Node4 -->
<g id="node4" class="node"><title>Node4</title>
<polygon fill="white" stroke="#bfbfbf" points="-0.5,-56.5 -0.5,-75.5 40.5,-75.5 40.5,-56.5 -0.5,-56.5"/>
<text text-anchor="middle" x="20" y="-63.5" font-family="Helvetica,sans-Serif" font-size="10.00">string</text>
</g>
<!-- Node3&#45;&gt;Node4 -->
<g id="edge3" class="edge"><title>Node3&#45;&gt;Node4</title>
<path fill="none" stroke="midnightblue" d="M190.713,-112.426C156.68,-104.252 104.16,-91.2994 50.2725,-76.2587"/>
<polygon fill="midnightblue" stroke="midnightblue" points="51.1289,-72.8638 40.5549,-73.5275 49.2349,-79.6027 51.1289,-72.8638"/>
</g>
<!-- Node5 -->
<g id="node5" class="node"><title>Node5</title>
<polygon fill="white" stroke="#bfbfbf" points="58.5,-56.5 58.5,-75.5 113.5,-75.5 113.5,-56.5 58.5,-56.5"/>
<text text-anchor="middle" x="86" y="-63.5" font-family="Helvetica,sans-Serif" font-size="10.00">ros/ros.h</text>
</g>
<!-- Node3&#45;&gt;Node5 -->
<g id="edge4" class="edge"><title>Node3&#45;&gt;Node5</title>
<path fill="none" stroke="midnightblue" d="M204.658,-112.444C181.247,-103.478 144.264,-89.314 117.81,-79.1827"/>
<polygon fill="midnightblue" stroke="midnightblue" points="118.828,-75.8245 108.237,-75.5164 116.324,-82.3615 118.828,-75.8245"/>
</g>
<!-- Node6 -->
<g id="node6" class="node"><title>Node6</title>
<polygon fill="white" stroke="#bfbfbf" points="132,-56.5 132,-75.5 210,-75.5 210,-56.5 132,-56.5"/>
<text text-anchor="middle" x="171" y="-63.5" font-family="Helvetica,sans-Serif" font-size="10.00">boost/any.hpp</text>
</g>
<!-- Node3&#45;&gt;Node6 -->
<g id="edge5" class="edge"><title>Node3&#45;&gt;Node6</title>
<path fill="none" stroke="midnightblue" d="M218.003,-112.324C209.806,-104.42 197.494,-92.5482 187.528,-82.9377"/>
<polygon fill="midnightblue" stroke="midnightblue" points="189.789,-80.2558 180.161,-75.8339 184.93,-85.2947 189.789,-80.2558"/>
</g>
<!-- Node7 -->
<g id="node7" class="node"><title>Node7</title>
<polygon fill="white" stroke="#bfbfbf" points="228.5,-56.5 228.5,-75.5 337.5,-75.5 337.5,-56.5 228.5,-56.5"/>
<text text-anchor="middle" x="283" y="-63.5" font-family="Helvetica,sans-Serif" font-size="10.00">pcl_ros/point_cloud.h</text>
</g>
<!-- Node3&#45;&gt;Node7 -->
<g id="edge6" class="edge"><title>Node3&#45;&gt;Node7</title>
<path fill="none" stroke="midnightblue" d="M235.997,-112.324C244.194,-104.42 256.506,-92.5482 266.472,-82.9377"/>
<polygon fill="midnightblue" stroke="midnightblue" points="269.07,-85.2947 273.839,-75.8339 264.211,-80.2558 269.07,-85.2947"/>
</g>
<!-- Node8 -->
<g id="node8" class="node"><title>Node8</title>
<polygon fill="white" stroke="#bfbfbf" points="353.5,-0.5 353.5,-19.5 444.5,-19.5 444.5,-0.5 353.5,-0.5"/>
<text text-anchor="middle" x="399" y="-7.5" font-family="Helvetica,sans-Serif" font-size="10.00">pcl/point_types.h</text>
</g>
<!-- Node3&#45;&gt;Node8 -->
<g id="edge7" class="edge"><title>Node3&#45;&gt;Node8</title>
<path fill="none" stroke="midnightblue" d="M263.776,-112.485C288.618,-105.498 321.266,-93.8129 346,-76 363.834,-63.1565 379.062,-42.8622 388.558,-28.3679"/>
<polygon fill="midnightblue" stroke="midnightblue" points="391.575,-30.1448 393.94,-19.8172 385.651,-26.4159 391.575,-30.1448"/>
</g>
<!-- Node9 -->
<g id="node9" class="node"><title>Node9</title>
<g id="a_node9"><a xlink:href="../../d1/d45/point__types_8h.html" target="_top" xlink:title="point_types.h">
<polygon fill="white" stroke="black" points="394.5,-56.5 394.5,-75.5 469.5,-75.5 469.5,-56.5 394.5,-56.5"/>
<text text-anchor="middle" x="432" y="-63.5" font-family="Helvetica,sans-Serif" font-size="10.00">point_types.h</text>
</a>
</g>
</g>
<!-- Node3&#45;&gt;Node9 -->
<g id="edge8" class="edge"><title>Node3&#45;&gt;Node9</title>
<path fill="none" stroke="midnightblue" d="M259.483,-112.444C294.72,-103.162 351.104,-88.3093 389.759,-78.127"/>
<polygon fill="midnightblue" stroke="midnightblue" points="390.891,-81.4483 399.669,-75.5164 389.107,-74.6792 390.891,-81.4483"/>
</g>
<!-- Node9&#45;&gt;Node8 -->
<g id="edge9" class="edge"><title>Node9&#45;&gt;Node8</title>
<path fill="none" stroke="midnightblue" d="M426.551,-56.083C421.986,-48.6127 415.332,-37.7244 409.707,-28.5199"/>
<polygon fill="midnightblue" stroke="midnightblue" points="412.549,-26.4588 404.348,-19.7511 406.576,-30.109 412.549,-26.4588"/>
</g>
<!-- Node18 -->
<g id="node18" class="node"><title>Node18</title>
<polygon fill="white" stroke="#bfbfbf" points="1079.5,-112.5 1079.5,-131.5 1120.5,-131.5 1120.5,-112.5 1079.5,-112.5"/>
<text text-anchor="middle" x="1100" y="-119.5" font-family="Helvetica,sans-Serif" font-size="10.00">ctime</text>
</g>
<!-- Node17&#45;&gt;Node18 -->
<g id="edge18" class="edge"><title>Node17&#45;&gt;Node18</title>
<path fill="none" stroke="midnightblue" d="M993.965,-168.444C1014.61,-159.596 1047.06,-145.687 1070.63,-135.586"/>
<polygon fill="midnightblue" stroke="midnightblue" points="1072.32,-138.673 1080.13,-131.516 1069.56,-132.239 1072.32,-138.673"/>
</g>
</g>
</svg>
