<?xml version="1.0" encoding="UTF-8" standalone="no"?>
<!DOCTYPE svg PUBLIC "-//W3C//DTD SVG 1.1//EN"
 "http://www.w3.org/Graphics/SVG/1.1/DTD/svg11.dtd">
<!-- Generated by graphviz version 2.36.0 (20140111.2315)
 -->
<!-- Title: external/SiftGPU/src/TestWin/BasicTestWin.cpp Pages: 1 -->
<svg width="505pt" height="208pt"
 viewBox="0.00 0.00 505.00 208.00" xmlns="http://www.w3.org/2000/svg" xmlns:xlink="http://www.w3.org/1999/xlink">
<g id="graph0" class="graph" transform="scale(1 1) rotate(0) translate(4 204)">
<title>external/SiftGPU/src/TestWin/BasicTestWin.cpp</title>
<polygon fill="white" stroke="none" points="-4,4 -4,-204 501,-204 501,4 -4,4"/>
<!-- Node1 -->
<g id="node1" class="node"><title>Node1</title>
<polygon fill="#bfbfbf" stroke="black" points="136,-169 136,-199 276,-199 276,-169 136,-169"/>
<text text-anchor="start" x="144" y="-187" font-family="Helvetica,sans-Serif" font-size="10.00">external/SiftGPU/src</text>
<text text-anchor="middle" x="206" y="-176" font-family="Helvetica,sans-Serif" font-size="10.00">/TestWin/BasicTestWin.cpp</text>
</g>
<!-- Node2 -->
<g id="node2" class="node"><title>Node2</title>
<polygon fill="white" stroke="#bfbfbf" points="-1,-112.5 -1,-131.5 61,-131.5 61,-112.5 -1,-112.5"/>
<text text-anchor="middle" x="30" y="-119.5" font-family="Helvetica,sans-Serif" font-size="10.00">sys/time.h</text>
</g>
<!-- Node1&#45;&gt;Node2 -->
<g id="edge1" class="edge"><title>Node1&#45;&gt;Node2</title>
<path fill="none" stroke="midnightblue" d="M164.736,-168.933C134.289,-158.553 93.3269,-144.589 64.5886,-134.792"/>
<polygon fill="midnightblue" stroke="midnightblue" points="65.5651,-131.427 54.9706,-131.513 63.3063,-138.052 65.5651,-131.427"/>
</g>
<!-- Node3 -->
<g id="node3" class="node"><title>Node3</title>
<polygon fill="white" stroke="#bfbfbf" points="79,-112.5 79,-131.5 127,-131.5 127,-112.5 79,-112.5"/>
<text text-anchor="middle" x="103" y="-119.5" font-family="Helvetica,sans-Serif" font-size="10.00">stdlib.h</text>
</g>
<!-- Node1&#45;&gt;Node3 -->
<g id="edge2" class="edge"><title>Node1&#45;&gt;Node3</title>
<path fill="none" stroke="midnightblue" d="M181.851,-168.933C165.25,-159.262 143.306,-146.479 126.784,-136.855"/>
<polygon fill="midnightblue" stroke="midnightblue" points="128.166,-133.609 117.763,-131.6 124.642,-139.658 128.166,-133.609"/>
</g>
<!-- Node4 -->
<g id="node4" class="node"><title>Node4</title>
<polygon fill="white" stroke="#bfbfbf" points="145,-112.5 145,-131.5 199,-131.5 199,-112.5 145,-112.5"/>
<text text-anchor="middle" x="172" y="-119.5" font-family="Helvetica,sans-Serif" font-size="10.00">iostream</text>
</g>
<!-- Node1&#45;&gt;Node4 -->
<g id="edge3" class="edge"><title>Node1&#45;&gt;Node4</title>
<path fill="none" stroke="midnightblue" d="M197.942,-168.781C193.155,-160.332 187.044,-149.548 181.956,-140.569"/>
<polygon fill="midnightblue" stroke="midnightblue" points="184.923,-138.705 176.947,-131.731 178.832,-142.156 184.923,-138.705"/>
</g>
<!-- Node5 -->
<g id="node5" class="node"><title>Node5</title>
<polygon fill="white" stroke="#bfbfbf" points="217,-112.5 217,-131.5 265,-131.5 265,-112.5 217,-112.5"/>
<text text-anchor="middle" x="241" y="-119.5" font-family="Helvetica,sans-Serif" font-size="10.00">GL/gl.h</text>
</g>
<!-- Node1&#45;&gt;Node5 -->
<g id="edge4" class="edge"><title>Node1&#45;&gt;Node5</title>
<path fill="none" stroke="midnightblue" d="M214.295,-168.781C219.223,-160.332 225.514,-149.548 230.751,-140.569"/>
<polygon fill="midnightblue" stroke="midnightblue" points="233.892,-142.132 235.907,-131.731 227.845,-138.605 233.892,-142.132"/>
</g>
<!-- Node6 -->
<g id="node6" class="node"><title>Node6</title>
<g id="a_node6"><a xlink:href="../../d2/d17/SiftGPU_8h.html" target="_top" xlink:title="../SiftGPU/SiftGPU.h">
<polygon fill="white" stroke="black" points="283,-112.5 283,-131.5 393,-131.5 393,-112.5 283,-112.5"/>
<text text-anchor="middle" x="338" y="-119.5" font-family="Helvetica,sans-Serif" font-size="10.00">../SiftGPU/SiftGPU.h</text>
</a>
</g>
</g>
<!-- Node1&#45;&gt;Node6 -->
<g id="edge5" class="edge"><title>Node1&#45;&gt;Node6</title>
<path fill="none" stroke="midnightblue" d="M236.948,-168.933C259.019,-158.9 288.458,-145.519 309.865,-135.789"/>
<polygon fill="midnightblue" stroke="midnightblue" points="311.425,-138.924 319.08,-131.6 308.528,-132.552 311.425,-138.924"/>
</g>
<!-- Node7 -->
<g id="node7" class="node"><title>Node7</title>
<g id="a_node7"><a xlink:href="../../db/dff/BasicTestWin_8h.html" target="_top" xlink:title="BasicTestWin.h">
<polygon fill="white" stroke="black" points="411,-112.5 411,-131.5 497,-131.5 497,-112.5 411,-112.5"/>
<text text-anchor="middle" x="454" y="-119.5" font-family="Helvetica,sans-Serif" font-size="10.00">BasicTestWin.h</text>
</a>
</g>
</g>
<!-- Node1&#45;&gt;Node7 -->
<g id="edge6" class="edge"><title>Node1&#45;&gt;Node7</title>
<path fill="none" stroke="midnightblue" d="M264.145,-168.933C308.359,-158.236 368.309,-143.732 408.926,-133.905"/>
<polygon fill="midnightblue" stroke="midnightblue" points="409.918,-137.266 418.814,-131.513 408.272,-130.462 409.918,-137.266"/>
</g>
<!-- Node8 -->
<g id="node8" class="node"><title>Node8</title>
<g id="a_node8"><a xlink:href="../../d3/def/GLTransform_8h.html" target="_top" xlink:title="GLTransform.h">
<polygon fill="white" stroke="black" points="413,-56.5 413,-75.5 495,-75.5 495,-56.5 413,-56.5"/>
<text text-anchor="middle" x="454" y="-63.5" font-family="Helvetica,sans-Serif" font-size="10.00">GLTransform.h</text>
</a>
</g>
</g>
<!-- Node7&#45;&gt;Node8 -->
<g id="edge7" class="edge"><title>Node7&#45;&gt;Node8</title>
<path fill="none" stroke="midnightblue" d="M454,-112.083C454,-105.006 454,-94.8611 454,-85.9865"/>
<polygon fill="midnightblue" stroke="midnightblue" points="457.5,-85.751 454,-75.7511 450.5,-85.7511 457.5,-85.751"/>
</g>
<!-- Node9 -->
<g id="node9" class="node"><title>Node9</title>
<polygon fill="white" stroke="#bfbfbf" points="430.5,-0.5 430.5,-19.5 477.5,-19.5 477.5,-0.5 430.5,-0.5"/>
<text text-anchor="middle" x="454" y="-7.5" font-family="Helvetica,sans-Serif" font-size="10.00">math.h</text>
</g>
<!-- Node8&#45;&gt;Node9 -->
<g id="edge8" class="edge"><title>Node8&#45;&gt;Node9</title>
<path fill="none" stroke="midnightblue" d="M454,-56.083C454,-49.0059 454,-38.8611 454,-29.9865"/>
<polygon fill="midnightblue" stroke="midnightblue" points="457.5,-29.751 454,-19.7511 450.5,-29.7511 457.5,-29.751"/>
</g>
</g>
</svg>
