<?xml version="1.0" encoding="UTF-8" standalone="no"?>
<!DOCTYPE svg PUBLIC "-//W3C//DTD SVG 1.1//EN"
 "http://www.w3.org/Graphics/SVG/1.1/DTD/svg11.dtd">
<!-- Generated by graphviz version 2.36.0 (20140111.2315)
 -->
<!-- Title: src/Tracking/LGSX.h Pages: 1 -->
<svg width="765pt" height="152pt"
 viewBox="0.00 0.00 765.00 152.00" xmlns="http://www.w3.org/2000/svg" xmlns:xlink="http://www.w3.org/1999/xlink">
<g id="graph0" class="graph" transform="scale(1 1) rotate(0) translate(4 148)">
<title>src/Tracking/LGSX.h</title>
<polygon fill="white" stroke="none" points="-4,4 -4,-148 761,-148 761,4 -4,4"/>
<!-- Node1 -->
<g id="node1" class="node"><title>Node1</title>
<polygon fill="#bfbfbf" stroke="black" points="237,-124.5 237,-143.5 345,-143.5 345,-124.5 237,-124.5"/>
<text text-anchor="middle" x="291" y="-131.5" font-family="Helvetica,sans-Serif" font-size="10.00">src/Tracking/LGSX.h</text>
</g>
<!-- Node2 -->
<g id="node2" class="node"><title>Node2</title>
<g id="a_node2"><a xlink:href="../../d6/de5/SE3Tracker_8h.html" target="_top" xlink:title="src/Tracking/SE3Tracker.h">
<polygon fill="white" stroke="black" points="301,-68.5 301,-87.5 435,-87.5 435,-68.5 301,-68.5"/>
<text text-anchor="middle" x="368" y="-75.5" font-family="Helvetica,sans-Serif" font-size="10.00">src/Tracking/SE3Tracker.h</text>
</a>
</g>
</g>
<!-- Node1&#45;&gt;Node2 -->
<g id="edge1" class="edge"><title>Node1&#45;&gt;Node2</title>
<path fill="none" stroke="midnightblue" d="M311.901,-118.342C325.911,-108.517 343.883,-95.9132 355.659,-87.6545"/>
<polygon fill="midnightblue" stroke="midnightblue" points="309.549,-115.717 303.371,-124.324 313.568,-121.448 309.549,-115.717"/>
</g>
<!-- Node6 -->
<g id="node6" class="node"><title>Node6</title>
<g id="a_node6"><a xlink:href="../../d6/d91/SE3Tracker_8cpp.html" target="_top" xlink:title="src/Tracking/SE3Tracker.cpp">
<polygon fill="white" stroke="black" points="613,-6.5 613,-25.5 757,-25.5 757,-6.5 613,-6.5"/>
<text text-anchor="middle" x="685" y="-13.5" font-family="Helvetica,sans-Serif" font-size="10.00">src/Tracking/SE3Tracker.cpp</text>
</a>
</g>
</g>
<!-- Node1&#45;&gt;Node6 -->
<g id="edge9" class="edge"><title>Node1&#45;&gt;Node6</title>
<path fill="none" stroke="midnightblue" d="M329.993,-121.537C360.913,-112.446 405.222,-99.4147 444,-88 520.573,-65.4599 610.822,-38.864 656.065,-25.5288"/>
<polygon fill="midnightblue" stroke="midnightblue" points="328.654,-118.282 320.048,-124.461 330.629,-124.998 328.654,-118.282"/>
</g>
<!-- Node7 -->
<g id="node7" class="node"><title>Node7</title>
<g id="a_node7"><a xlink:href="../../dd/dc0/Sim3Tracker_8h.html" target="_top" xlink:title="src/Tracking/Sim3Tracker.h">
<polygon fill="white" stroke="black" points="145.5,-68.5 145.5,-87.5 282.5,-87.5 282.5,-68.5 145.5,-68.5"/>
<text text-anchor="middle" x="214" y="-75.5" font-family="Helvetica,sans-Serif" font-size="10.00">src/Tracking/Sim3Tracker.h</text>
</a>
</g>
</g>
<!-- Node1&#45;&gt;Node7 -->
<g id="edge6" class="edge"><title>Node1&#45;&gt;Node7</title>
<path fill="none" stroke="midnightblue" d="M270.099,-118.342C256.089,-108.517 238.117,-95.9132 226.341,-87.6545"/>
<polygon fill="midnightblue" stroke="midnightblue" points="268.432,-121.448 278.629,-124.324 272.451,-115.717 268.432,-121.448"/>
</g>
<!-- Node8 -->
<g id="node8" class="node"><title>Node8</title>
<g id="a_node8"><a xlink:href="../../d6/dec/Sim3Tracker_8cpp.html" target="_top" xlink:title="src/Tracking/Sim3Tracker.cpp">
<polygon fill="white" stroke="black" points="0,-6.5 0,-25.5 148,-25.5 148,-6.5 0,-6.5"/>
<text text-anchor="middle" x="74" y="-13.5" font-family="Helvetica,sans-Serif" font-size="10.00">src/Tracking/Sim3Tracker.cpp</text>
</a>
</g>
</g>
<!-- Node1&#45;&gt;Node8 -->
<g id="edge10" class="edge"><title>Node1&#45;&gt;Node8</title>
<path fill="none" stroke="midnightblue" d="M226.76,-122.923C197.44,-116.243 163.261,-105.388 136,-88 110.061,-71.456 88.7831,-40.9202 79.3091,-25.8654"/>
<polygon fill="midnightblue" stroke="midnightblue" points="226.396,-126.425 236.909,-125.115 227.874,-119.583 226.396,-126.425"/>
</g>
<!-- Node3 -->
<g id="node3" class="node"><title>Node3</title>
<g id="a_node3"><a xlink:href="../../d3/dd3/TrackableKeyFrameSearch_8cpp.html" target="_top" xlink:title="src/GlobalMapping/Trackable\lKeyFrameSearch.cpp">
<polygon fill="white" stroke="black" points="451.5,-1 451.5,-31 594.5,-31 594.5,-1 451.5,-1"/>
<text text-anchor="start" x="459.5" y="-19" font-family="Helvetica,sans-Serif" font-size="10.00">src/GlobalMapping/Trackable</text>
<text text-anchor="middle" x="523" y="-8" font-family="Helvetica,sans-Serif" font-size="10.00">KeyFrameSearch.cpp</text>
</a>
</g>
</g>
<!-- Node2&#45;&gt;Node3 -->
<g id="edge2" class="edge"><title>Node2&#45;&gt;Node3</title>
<path fill="none" stroke="midnightblue" d="M399.691,-64.7324C424.964,-54.9495 460.374,-41.2424 486.768,-31.0253"/>
<polygon fill="midnightblue" stroke="midnightblue" points="398.27,-61.5295 390.208,-68.4035 400.797,-68.0574 398.27,-61.5295"/>
</g>
<!-- Node4 -->
<g id="node4" class="node"><title>Node4</title>
<g id="a_node4"><a xlink:href="../../de/dce/SlamSystem_8cpp.html" target="_top" xlink:title="src/SlamSystem.cpp">
<polygon fill="white" stroke="black" points="166,-6.5 166,-25.5 274,-25.5 274,-6.5 166,-6.5"/>
<text text-anchor="middle" x="220" y="-13.5" font-family="Helvetica,sans-Serif" font-size="10.00">src/SlamSystem.cpp</text>
</a>
</g>
</g>
<!-- Node2&#45;&gt;Node4 -->
<g id="edge3" class="edge"><title>Node2&#45;&gt;Node4</title>
<path fill="none" stroke="midnightblue" d="M337.234,-64.5273C308.481,-52.8706 266.315,-35.7764 241.165,-25.5806"/>
<polygon fill="midnightblue" stroke="midnightblue" points="336.213,-67.8899 346.795,-68.4035 338.843,-61.4028 336.213,-67.8899"/>
</g>
<!-- Node5 -->
<g id="node5" class="node"><title>Node5</title>
<g id="a_node5"><a xlink:href="../../d0/df5/Relocalizer_8cpp.html" target="_top" xlink:title="src/Tracking/Relocalizer.cpp">
<polygon fill="white" stroke="black" points="292.5,-6.5 292.5,-25.5 433.5,-25.5 433.5,-6.5 292.5,-6.5"/>
<text text-anchor="middle" x="363" y="-13.5" font-family="Helvetica,sans-Serif" font-size="10.00">src/Tracking/Relocalizer.cpp</text>
</a>
</g>
</g>
<!-- Node2&#45;&gt;Node5 -->
<g id="edge4" class="edge"><title>Node2&#45;&gt;Node5</title>
<path fill="none" stroke="midnightblue" d="M366.43,-58.1595C365.521,-47.2482 364.42,-34.04 363.715,-25.5806"/>
<polygon fill="midnightblue" stroke="midnightblue" points="362.965,-58.7287 367.284,-68.4035 369.941,-58.1473 362.965,-58.7287"/>
</g>
<!-- Node2&#45;&gt;Node6 -->
<g id="edge5" class="edge"><title>Node2&#45;&gt;Node6</title>
<path fill="none" stroke="midnightblue" d="M422.998,-66.5902C484.514,-54.9469 582.991,-36.3077 640.074,-25.5034"/>
<polygon fill="midnightblue" stroke="midnightblue" points="422.256,-63.1684 413.082,-68.4672 423.558,-70.0463 422.256,-63.1684"/>
</g>
<!-- Node7&#45;&gt;Node4 -->
<g id="edge7" class="edge"><title>Node7&#45;&gt;Node4</title>
<path fill="none" stroke="midnightblue" d="M215.884,-58.1595C216.975,-47.2482 218.296,-34.04 219.142,-25.5806"/>
<polygon fill="midnightblue" stroke="midnightblue" points="212.372,-58.1048 214.86,-68.4035 219.337,-58.8014 212.372,-58.1048"/>
</g>
<!-- Node7&#45;&gt;Node8 -->
<g id="edge8" class="edge"><title>Node7&#45;&gt;Node8</title>
<path fill="none" stroke="midnightblue" d="M184.54,-64.3743C157.35,-52.7215 117.708,-35.7319 94.0214,-25.5806"/>
<polygon fill="midnightblue" stroke="midnightblue" points="183.371,-67.6812 193.941,-68.4035 186.129,-61.2472 183.371,-67.6812"/>
</g>
</g>
</svg>
