<?xml version="1.0" encoding="UTF-8" standalone="no"?>
<!DOCTYPE svg PUBLIC "-//W3C//DTD SVG 1.1//EN"
 "http://www.w3.org/Graphics/SVG/1.1/DTD/svg11.dtd">
<!-- Generated by graphviz version 2.36.0 (20140111.2315)
 -->
<!-- Title: src/IOWrapper/ROS/ROSOutput3DWrapper.cpp Pages: 1 -->
<!--zoomable 592 -->
<svg id="main" version="1.1" xmlns="http://www.w3.org/2000/svg" xmlns:xlink="http://www.w3.org/1999/xlink" xml:space="preserve" onload="init(evt)">
<style type="text/css"><![CDATA[
.edge:hover path { stroke: red; }
.edge:hover polygon { stroke: red; fill: red; }
]]></style>
<script type="text/javascript"><![CDATA[
var edges = document.getElementsByTagName('g');
if (edges && edges.length) {
  for (var i=0;i<edges.length;i++) {
    if (edges[i].id.substr(0,4)=='edge') {
      edges[i].setAttribute('class','edge');
    }
  }
}
]]></script>
        <defs>
                <circle id="rim" cx="0" cy="0" r="7"/>
                <circle id="rim2" cx="0" cy="0" r="3.5"/>
                <g id="zoomPlus">
                        <use xlink:href="#rim" fill="#404040">
                                <set attributeName="fill" to="#808080" begin="zoomplus.mouseover" end="zoomplus.mouseout"/>
                        </use>
                        <path d="M-4,0h8M0,-4v8" fill="none" stroke="white" stroke-width="1.5" pointer-events="none"/>
                </g>
                <g id="zoomMin">
                        <use xlink:href="#rim" fill="#404040">
                                <set attributeName="fill" to="#808080" begin="zoomminus.mouseover" end="zoomminus.mouseout"/>
                        </use>
                        <path d="M-4,0h8" fill="none" stroke="white" stroke-width="1.5" pointer-events="none"/>
                </g>
                <g id="dirArrow">
                        <path fill="none" stroke="white" stroke-width="1.5" d="M0,-3.0v7 M-2.5,-0.5L0,-3.0L2.5,-0.5"/>
                </g>
               <g id="resetDef">
                       <use xlink:href="#rim2" fill="#404040">
                               <set attributeName="fill" to="#808080" begin="reset.mouseover" end="reset.mouseout"/>
                       </use>
               </g>
        </defs>

<script type="text/javascript">
var viewWidth = 1651;
var viewHeight = 592;
var sectionId = 'dynsection-0';
</script>
<script xlink:href="../../svgpan.js"/>
<svg id="graph" class="graph">
<g id="viewport">
<title>src/IOWrapper/ROS/ROSOutput3DWrapper.cpp</title>
<polygon fill="white" stroke="none" points="-4,4 -4,-588 1647,-588 1647,4 -4,4"/>
<!-- Node1 -->
<g id="node1" class="node"><title>Node1</title>
<polygon fill="#bfbfbf" stroke="black" points="522,-553 522,-583 686,-583 686,-553 522,-553"/>
<text text-anchor="start" x="530" y="-571" font-family="Helvetica,sans-Serif" font-size="10.00">src/IOWrapper/ROS/ROSOutput3</text>
<text text-anchor="middle" x="604" y="-560" font-family="Helvetica,sans-Serif" font-size="10.00">DWrapper.cpp</text>
</g>
<!-- Node2 -->
<g id="node2" class="node"><title>Node2</title>
<g id="a_node2"><a xlink:href="../../d8/d03/ROSOutput3DWrapper_8h.html" target="_top" xlink:title="ROSOutput3DWrapper.h">
<polygon fill="white" stroke="black" points="147.5,-490.5 147.5,-509.5 272.5,-509.5 272.5,-490.5 147.5,-490.5"/>
<text text-anchor="middle" x="210" y="-497.5" font-family="Helvetica,sans-Serif" font-size="10.00">ROSOutput3DWrapper.h</text>
</a>
</g>
</g>
<!-- Node1&#45;&gt;Node2 -->
<g id="edge1" class="edge"><title>Node1&#45;&gt;Node2</title>
<path fill="none" stroke="midnightblue" d="M521.774,-554.53C457.708,-544.631 366.579,-530.149 287,-516 278.992,-514.576 270.53,-513.001 262.262,-511.421"/>
<polygon fill="midnightblue" stroke="midnightblue" points="262.798,-507.96 252.316,-509.503 261.472,-514.833 262.798,-507.96"/>
</g>
<!-- Node3 -->
<g id="node3" class="node"><title>Node3</title>
<polygon fill="white" stroke="#bfbfbf" points="200.5,-422.5 200.5,-441.5 255.5,-441.5 255.5,-422.5 200.5,-422.5"/>
<text text-anchor="middle" x="228" y="-429.5" font-family="Helvetica,sans-Serif" font-size="10.00">ros/ros.h</text>
</g>
<!-- Node1&#45;&gt;Node3 -->
<g id="edge17" class="edge"><title>Node1&#45;&gt;Node3</title>
<path fill="none" stroke="midnightblue" d="M521.987,-562.219C466.048,-556.473 391.439,-543.827 331,-516 295.407,-499.612 261.504,-468.199 242.85,-449.069"/>
<polygon fill="midnightblue" stroke="midnightblue" points="245.262,-446.526 235.829,-441.702 240.194,-451.355 245.262,-446.526"/>
</g>
<!-- Node6 -->
<g id="node6" class="node"><title>Node6</title>
<g id="a_node6"><a xlink:href="../../d2/d13/SophusUtil_8h.html" target="_top" xlink:title="util/SophusUtil.h">
<polygon fill="white" stroke="black" points="370.5,-286.5 370.5,-305.5 459.5,-305.5 459.5,-286.5 370.5,-286.5"/>
<text text-anchor="middle" x="415" y="-293.5" font-family="Helvetica,sans-Serif" font-size="10.00">util/SophusUtil.h</text>
</a>
</g>
</g>
<!-- Node1&#45;&gt;Node6 -->
<g id="edge16" class="edge"><title>Node1&#45;&gt;Node6</title>
<path fill="none" stroke="midnightblue" d="M559.153,-552.966C536.868,-544.561 510.414,-532.306 490,-516 460.483,-492.423 456.385,-481.54 439,-448 424.382,-419.799 422.327,-411.315 417,-380 413.308,-358.295 413.31,-332.941 413.912,-316.021"/>
<polygon fill="midnightblue" stroke="midnightblue" points="417.419,-315.955 414.386,-305.803 410.426,-315.63 417.419,-315.955"/>
</g>
<!-- Node7 -->
<g id="node7" class="node"><title>Node7</title>
<g id="a_node7"><a xlink:href="../../dc/d5c/sim3_8hpp.html" target="_top" xlink:title="sophus/sim3.hpp">
<polygon fill="white" stroke="black" points="278.5,-224.5 278.5,-243.5 369.5,-243.5 369.5,-224.5 278.5,-224.5"/>
<text text-anchor="middle" x="324" y="-231.5" font-family="Helvetica,sans-Serif" font-size="10.00">sophus/sim3.hpp</text>
</a>
</g>
</g>
<!-- Node1&#45;&gt;Node7 -->
<g id="edge55" class="edge"><title>Node1&#45;&gt;Node7</title>
<path fill="none" stroke="midnightblue" d="M521.913,-565.769C356.768,-561.062 0,-538.665 0,-433 0,-433 0,-433 0,-363 0,-306.016 175.547,-263.57 268.208,-245.134"/>
<polygon fill="midnightblue" stroke="midnightblue" points="269.126,-248.521 278.266,-243.162 267.779,-241.651 269.126,-248.521"/>
</g>
<!-- Node15 -->
<g id="node15" class="node"><title>Node15</title>
<g id="a_node15"><a xlink:href="../../de/d60/settings_8h.html" target="_top" xlink:title="util/settings.h">
<polygon fill="white" stroke="black" points="273.5,-422.5 273.5,-441.5 348.5,-441.5 348.5,-422.5 273.5,-422.5"/>
<text text-anchor="middle" x="311" y="-429.5" font-family="Helvetica,sans-Serif" font-size="10.00">util/settings.h</text>
</a>
</g>
</g>
<!-- Node1&#45;&gt;Node15 -->
<g id="edge18" class="edge"><title>Node1&#45;&gt;Node15</title>
<path fill="none" stroke="midnightblue" d="M521.719,-565.452C471.905,-560.881 409.277,-548.332 363,-516 340.066,-499.977 325.132,-470.266 317.388,-451.079"/>
<polygon fill="midnightblue" stroke="midnightblue" points="320.635,-449.77 313.82,-441.657 314.088,-452.249 320.635,-449.77"/>
</g>
<!-- Node17 -->
<g id="node17" class="node"><title>Node17</title>
<polygon fill="white" stroke="#bfbfbf" points="715.5,-490.5 715.5,-509.5 862.5,-509.5 862.5,-490.5 715.5,-490.5"/>
<text text-anchor="middle" x="789" y="-497.5" font-family="Helvetica,sans-Serif" font-size="10.00">std_msgs/Float32MultiArray.h</text>
</g>
<!-- Node1&#45;&gt;Node17 -->
<g id="edge21" class="edge"><title>Node1&#45;&gt;Node17</title>
<path fill="none" stroke="midnightblue" d="M643.687,-552.841C676.93,-540.982 723.86,-524.239 755.303,-513.022"/>
<polygon fill="midnightblue" stroke="midnightblue" points="756.688,-516.244 764.931,-509.587 754.336,-509.651 756.688,-516.244"/>
</g>
<!-- Node18 -->
<g id="node18" class="node"><title>Node18</title>
<polygon fill="white" stroke="#bfbfbf" points="880.5,-485 880.5,-515 1013.5,-515 1013.5,-485 880.5,-485"/>
<text text-anchor="start" x="888.5" y="-503" font-family="Helvetica,sans-Serif" font-size="10.00">lsd_slam_viewer/keyframe</text>
<text text-anchor="middle" x="947" y="-492" font-family="Helvetica,sans-Serif" font-size="10.00">GraphMsg.h</text>
</g>
<!-- Node1&#45;&gt;Node18 -->
<g id="edge22" class="edge"><title>Node1&#45;&gt;Node18</title>
<path fill="none" stroke="midnightblue" d="M677.973,-552.996C729.172,-543.275 799.169,-529.926 870.242,-516.141"/>
<polygon fill="midnightblue" stroke="midnightblue" points="871.127,-519.535 880.276,-514.193 869.793,-512.663 871.127,-519.535"/>
</g>
<!-- Node19 -->
<g id="node19" class="node"><title>Node19</title>
<polygon fill="white" stroke="#bfbfbf" points="1031.5,-485 1031.5,-515 1164.5,-515 1164.5,-485 1031.5,-485"/>
<text text-anchor="start" x="1039.5" y="-503" font-family="Helvetica,sans-Serif" font-size="10.00">lsd_slam_viewer/keyframe</text>
<text text-anchor="middle" x="1098" y="-492" font-family="Helvetica,sans-Serif" font-size="10.00">Msg.h</text>
</g>
<!-- Node1&#45;&gt;Node19 -->
<g id="edge23" class="edge"><title>Node1&#45;&gt;Node19</title>
<path fill="none" stroke="midnightblue" d="M686.34,-558.759C768.596,-550.115 898.856,-535.313 1021.38,-516.025"/>
<polygon fill="midnightblue" stroke="midnightblue" points="1021.99,-519.472 1031.32,-514.448 1020.9,-512.559 1021.99,-519.472"/>
</g>
<!-- Node20 -->
<g id="node20" class="node"><title>Node20</title>
<g id="a_node20"><a xlink:href="../../d7/db3/Frame_8h.html" target="_top" xlink:title="DataStructures/Frame.h">
<polygon fill="white" stroke="black" points="499,-490.5 499,-509.5 621,-509.5 621,-490.5 499,-490.5"/>
<text text-anchor="middle" x="560" y="-497.5" font-family="Helvetica,sans-Serif" font-size="10.00">DataStructures/Frame.h</text>
</a>
</g>
</g>
<!-- Node1&#45;&gt;Node20 -->
<g id="edge24" class="edge"><title>Node1&#45;&gt;Node20</title>
<path fill="none" stroke="midnightblue" d="M594.453,-552.679C587.728,-542.592 578.689,-529.033 571.556,-518.335"/>
<polygon fill="midnightblue" stroke="midnightblue" points="574.345,-516.207 565.886,-509.828 568.52,-520.09 574.345,-516.207"/>
</g>
<!-- Node24 -->
<g id="node24" class="node"><title>Node24</title>
<g id="a_node24"><a xlink:href="../../d0/dca/g2oTypeSim3Sophus_8h.html" target="_top" xlink:title="GlobalMapping/g2oTypeSim3\lSophus.h">
<polygon fill="white" stroke="black" points="1383,-349 1383,-379 1527,-379 1527,-349 1383,-349"/>
<text text-anchor="start" x="1391" y="-367" font-family="Helvetica,sans-Serif" font-size="10.00">GlobalMapping/g2oTypeSim3</text>
<text text-anchor="middle" x="1455" y="-356" font-family="Helvetica,sans-Serif" font-size="10.00">Sophus.h</text>
</a>
</g>
</g>
<!-- Node1&#45;&gt;Node24 -->
<g id="edge57" class="edge"><title>Node1&#45;&gt;Node24</title>
<path fill="none" stroke="midnightblue" d="M623.047,-552.83C636.379,-542.779 654.505,-528.847 670,-516 686.479,-502.336 686.273,-492.315 706,-484 809.674,-440.301 1100.73,-470.299 1211,-448 1284.03,-433.231 1365.3,-402.555 1413.18,-382.917"/>
<polygon fill="midnightblue" stroke="midnightblue" points="1414.69,-386.082 1422.59,-379.024 1412.01,-379.614 1414.69,-386.082"/>
</g>
<!-- Node36 -->
<g id="node36" class="node"><title>Node36</title>
<g id="a_node36"><a xlink:href="../../dc/d3b/KeyFrameGraph_8h.html" target="_top" xlink:title="GlobalMapping/KeyFrameGraph.h">
<polygon fill="white" stroke="black" points="884,-422.5 884,-441.5 1048,-441.5 1048,-422.5 884,-422.5"/>
<text text-anchor="middle" x="966" y="-429.5" font-family="Helvetica,sans-Serif" font-size="10.00">GlobalMapping/KeyFrameGraph.h</text>
</a>
</g>
</g>
<!-- Node1&#45;&gt;Node36 -->
<g id="edge45" class="edge"><title>Node1&#45;&gt;Node36</title>
<path fill="none" stroke="midnightblue" d="M611.457,-552.914C622.299,-533.934 644.296,-500.618 673,-484 678.012,-481.098 819.976,-457.204 904.424,-443.174"/>
<polygon fill="midnightblue" stroke="midnightblue" points="905.132,-446.604 914.424,-441.514 903.986,-439.699 905.132,-446.604"/>
</g>
<!-- Node39 -->
<g id="node39" class="node"><title>Node39</title>
<polygon fill="white" stroke="#bfbfbf" points="1182.5,-490.5 1182.5,-509.5 1341.5,-509.5 1341.5,-490.5 1182.5,-490.5"/>
<text text-anchor="middle" x="1262" y="-497.5" font-family="Helvetica,sans-Serif" font-size="10.00">geometry_msgs/PoseStamped.h</text>
</g>
<!-- Node1&#45;&gt;Node39 -->
<g id="edge56" class="edge"><title>Node1&#45;&gt;Node39</title>
<path fill="none" stroke="midnightblue" d="M686.195,-561.643C797.014,-553.962 1000.37,-538.25 1173,-516 1183.48,-514.649 1194.62,-512.969 1205.34,-511.227"/>
<polygon fill="midnightblue" stroke="midnightblue" points="1206.16,-514.638 1215.45,-509.546 1205.01,-507.733 1206.16,-514.638"/>
</g>
<!-- Node2&#45;&gt;Node3 -->
<g id="edge2" class="edge"><title>Node2&#45;&gt;Node3</title>
<path fill="none" stroke="midnightblue" d="M212.353,-490.372C215.007,-480.643 219.401,-464.528 222.859,-451.85"/>
<polygon fill="midnightblue" stroke="midnightblue" points="226.334,-452.41 225.589,-441.841 219.581,-450.568 226.334,-452.41"/>
</g>
<!-- Node4 -->
<g id="node4" class="node"><title>Node4</title>
<g id="a_node4"><a xlink:href="../../d8/da7/Output3DWrapper_8h.html" target="_top" xlink:title="IOWrapper/Output3DWrapper.h">
<polygon fill="white" stroke="black" points="28,-422.5 28,-441.5 182,-441.5 182,-422.5 28,-422.5"/>
<text text-anchor="middle" x="105" y="-429.5" font-family="Helvetica,sans-Serif" font-size="10.00">IOWrapper/Output3DWrapper.h</text>
</a>
</g>
</g>
<!-- Node2&#45;&gt;Node4 -->
<g id="edge3" class="edge"><title>Node2&#45;&gt;Node4</title>
<path fill="none" stroke="midnightblue" d="M196.273,-490.372C178.744,-479.353 148.185,-460.145 127.295,-447.014"/>
<polygon fill="midnightblue" stroke="midnightblue" points="129.059,-443.989 118.73,-441.63 125.334,-449.915 129.059,-443.989"/>
</g>
<!-- Node5 -->
<g id="node5" class="node"><title>Node5</title>
<polygon fill="white" stroke="#bfbfbf" points="203.5,-354.5 203.5,-373.5 244.5,-373.5 244.5,-354.5 203.5,-354.5"/>
<text text-anchor="middle" x="224" y="-361.5" font-family="Helvetica,sans-Serif" font-size="10.00">string</text>
</g>
<!-- Node4&#45;&gt;Node5 -->
<g id="edge4" class="edge"><title>Node4&#45;&gt;Node5</title>
<path fill="none" stroke="midnightblue" d="M120.557,-422.372C140.691,-411.205 175.991,-391.627 199.681,-378.488"/>
<polygon fill="midnightblue" stroke="midnightblue" points="201.392,-381.541 208.439,-373.63 197.996,-375.42 201.392,-381.541"/>
</g>
<!-- Node4&#45;&gt;Node6 -->
<g id="edge5" class="edge"><title>Node4&#45;&gt;Node6</title>
<path fill="none" stroke="midnightblue" d="M111.555,-422.403C125.025,-405.375 157.623,-367.341 194,-348 246.364,-320.16 313.606,-307.425 360.097,-301.659"/>
<polygon fill="midnightblue" stroke="midnightblue" points="360.749,-305.106 370.274,-300.466 359.934,-298.154 360.749,-305.106"/>
</g>
<!-- Node6&#45;&gt;Node7 -->
<g id="edge6" class="edge"><title>Node6&#45;&gt;Node7</title>
<path fill="none" stroke="midnightblue" d="M401.962,-286.403C387.231,-276.691 363.027,-260.732 345.491,-249.17"/>
<polygon fill="midnightblue" stroke="midnightblue" points="347.289,-246.163 337.014,-243.581 343.436,-252.007 347.289,-246.163"/>
</g>
<!-- Node14 -->
<g id="node14" class="node"><title>Node14</title>
<g id="a_node14"><a xlink:href="../../d4/d4b/se3_8hpp.html" target="_top" xlink:title="sophus/se3.hpp">
<polygon fill="white" stroke="black" points="372,-168.5 372,-187.5 458,-187.5 458,-168.5 372,-168.5"/>
<text text-anchor="middle" x="415" y="-175.5" font-family="Helvetica,sans-Serif" font-size="10.00">sophus/se3.hpp</text>
</a>
</g>
</g>
<!-- Node6&#45;&gt;Node14 -->
<g id="edge14" class="edge"><title>Node6&#45;&gt;Node14</title>
<path fill="none" stroke="midnightblue" d="M415,-286.281C415,-267.547 415,-223.098 415,-197.682"/>
<polygon fill="midnightblue" stroke="midnightblue" points="418.5,-197.505 415,-187.505 411.5,-197.505 418.5,-197.505"/>
</g>
<!-- Node8 -->
<g id="node8" class="node"><title>Node8</title>
<g id="a_node8"><a xlink:href="../../d7/d6a/rxso3_8hpp.html" target="_top" xlink:title="rxso3.hpp">
<polygon fill="white" stroke="black" points="294.5,-168.5 294.5,-187.5 353.5,-187.5 353.5,-168.5 294.5,-168.5"/>
<text text-anchor="middle" x="324" y="-175.5" font-family="Helvetica,sans-Serif" font-size="10.00">rxso3.hpp</text>
</a>
</g>
</g>
<!-- Node7&#45;&gt;Node8 -->
<g id="edge7" class="edge"><title>Node7&#45;&gt;Node8</title>
<path fill="none" stroke="midnightblue" d="M324,-224.083C324,-217.006 324,-206.861 324,-197.986"/>
<polygon fill="midnightblue" stroke="midnightblue" points="327.5,-197.751 324,-187.751 320.5,-197.751 327.5,-197.751"/>
</g>
<!-- Node9 -->
<g id="node9" class="node"><title>Node9</title>
<g id="a_node9"><a xlink:href="../../d7/dc1/sophus_8hpp.html" target="_top" xlink:title="sophus.hpp">
<polygon fill="white" stroke="black" points="317.5,-56.5 317.5,-75.5 384.5,-75.5 384.5,-56.5 317.5,-56.5"/>
<text text-anchor="middle" x="351" y="-63.5" font-family="Helvetica,sans-Serif" font-size="10.00">sophus.hpp</text>
</a>
</g>
</g>
<!-- Node8&#45;&gt;Node9 -->
<g id="edge8" class="edge"><title>Node8&#45;&gt;Node9</title>
<path fill="none" stroke="midnightblue" d="M326.119,-168.368C330.476,-150.617 340.527,-109.666 346.435,-85.5974"/>
<polygon fill="midnightblue" stroke="midnightblue" points="349.906,-86.1375 348.891,-75.5914 343.108,-84.4688 349.906,-86.1375"/>
</g>
<!-- Node13 -->
<g id="node13" class="node"><title>Node13</title>
<g id="a_node13"><a xlink:href="../../de/de9/so3_8hpp.html" target="_top" xlink:title="so3.hpp">
<polygon fill="white" stroke="black" points="352.5,-112.5 352.5,-131.5 403.5,-131.5 403.5,-112.5 352.5,-112.5"/>
<text text-anchor="middle" x="378" y="-119.5" font-family="Helvetica,sans-Serif" font-size="10.00">so3.hpp</text>
</a>
</g>
</g>
<!-- Node8&#45;&gt;Node13 -->
<g id="edge12" class="edge"><title>Node8&#45;&gt;Node13</title>
<path fill="none" stroke="midnightblue" d="M332.917,-168.083C340.78,-160.22 352.431,-148.569 361.919,-139.081"/>
<polygon fill="midnightblue" stroke="midnightblue" points="364.653,-141.297 369.249,-131.751 359.703,-136.347 364.653,-141.297"/>
</g>
<!-- Node10 -->
<g id="node10" class="node"><title>Node10</title>
<polygon fill="white" stroke="#bfbfbf" points="239.5,-0.5 239.5,-19.5 298.5,-19.5 298.5,-0.5 239.5,-0.5"/>
<text text-anchor="middle" x="269" y="-7.5" font-family="Helvetica,sans-Serif" font-size="10.00">stdexcept</text>
</g>
<!-- Node9&#45;&gt;Node10 -->
<g id="edge9" class="edge"><title>Node9&#45;&gt;Node10</title>
<path fill="none" stroke="midnightblue" d="M337.825,-56.324C325.153,-47.979 305.767,-35.2122 290.794,-25.3524"/>
<polygon fill="midnightblue" stroke="midnightblue" points="292.419,-22.2313 282.142,-19.6545 288.569,-28.0776 292.419,-22.2313"/>
</g>
<!-- Node11 -->
<g id="node11" class="node"><title>Node11</title>
<polygon fill="white" stroke="#bfbfbf" points="316.5,-0.5 316.5,-19.5 385.5,-19.5 385.5,-0.5 316.5,-0.5"/>
<text text-anchor="middle" x="351" y="-7.5" font-family="Helvetica,sans-Serif" font-size="10.00">Eigen/Eigen</text>
</g>
<!-- Node9&#45;&gt;Node11 -->
<g id="edge10" class="edge"><title>Node9&#45;&gt;Node11</title>
<path fill="none" stroke="midnightblue" d="M351,-56.083C351,-49.0059 351,-38.8611 351,-29.9865"/>
<polygon fill="midnightblue" stroke="midnightblue" points="354.5,-29.751 351,-19.7511 347.5,-29.7511 354.5,-29.751"/>
</g>
<!-- Node12 -->
<g id="node12" class="node"><title>Node12</title>
<polygon fill="white" stroke="#bfbfbf" points="403.5,-0.5 403.5,-19.5 490.5,-19.5 490.5,-0.5 403.5,-0.5"/>
<text text-anchor="middle" x="447" y="-7.5" font-family="Helvetica,sans-Serif" font-size="10.00">Eigen/Geometry</text>
</g>
<!-- Node9&#45;&gt;Node12 -->
<g id="edge11" class="edge"><title>Node9&#45;&gt;Node12</title>
<path fill="none" stroke="midnightblue" d="M366.424,-56.324C381.54,-47.8215 404.815,-34.7288 422.471,-24.7975"/>
<polygon fill="midnightblue" stroke="midnightblue" points="424.614,-27.6077 431.614,-19.6545 421.183,-21.5066 424.614,-27.6077"/>
</g>
<!-- Node13&#45;&gt;Node9 -->
<g id="edge13" class="edge"><title>Node13&#45;&gt;Node9</title>
<path fill="none" stroke="midnightblue" d="M373.541,-112.083C369.846,-104.691 364.477,-93.9533 359.906,-84.8111"/>
<polygon fill="midnightblue" stroke="midnightblue" points="362.978,-83.1301 355.376,-75.7511 356.717,-86.2606 362.978,-83.1301"/>
</g>
<!-- Node14&#45;&gt;Node13 -->
<g id="edge15" class="edge"><title>Node14&#45;&gt;Node13</title>
<path fill="none" stroke="midnightblue" d="M408.89,-168.083C403.718,-160.534 396.154,-149.495 389.806,-140.23"/>
<polygon fill="midnightblue" stroke="midnightblue" points="392.536,-138.022 383.996,-131.751 386.761,-141.979 392.536,-138.022"/>
</g>
<!-- Node15&#45;&gt;Node5 -->
<g id="edge20" class="edge"><title>Node15&#45;&gt;Node5</title>
<path fill="none" stroke="midnightblue" d="M299.626,-422.372C285.428,-411.6 260.912,-393.002 243.649,-379.906"/>
<polygon fill="midnightblue" stroke="midnightblue" points="245.459,-376.886 235.377,-373.63 241.228,-382.463 245.459,-376.886"/>
</g>
<!-- Node16 -->
<g id="node16" class="node"><title>Node16</title>
<polygon fill="white" stroke="#bfbfbf" points="286.5,-354.5 286.5,-373.5 335.5,-373.5 335.5,-354.5 286.5,-354.5"/>
<text text-anchor="middle" x="311" y="-361.5" font-family="Helvetica,sans-Serif" font-size="10.00">string.h</text>
</g>
<!-- Node15&#45;&gt;Node16 -->
<g id="edge19" class="edge"><title>Node15&#45;&gt;Node16</title>
<path fill="none" stroke="midnightblue" d="M311,-422.372C311,-412.643 311,-396.528 311,-383.85"/>
<polygon fill="midnightblue" stroke="midnightblue" points="314.5,-383.841 311,-373.841 307.5,-383.841 314.5,-383.841"/>
</g>
<!-- Node20&#45;&gt;Node6 -->
<g id="edge25" class="edge"><title>Node20&#45;&gt;Node6</title>
<path fill="none" stroke="midnightblue" d="M532.967,-490.481C511.527,-482.512 482.089,-468.7 463,-448 428.122,-410.178 418.587,-347.023 415.98,-315.739"/>
<polygon fill="midnightblue" stroke="midnightblue" points="419.472,-315.499 415.299,-305.761 412.488,-315.976 419.472,-315.499"/>
</g>
<!-- Node20&#45;&gt;Node15 -->
<g id="edge26" class="edge"><title>Node20&#45;&gt;Node15</title>
<path fill="none" stroke="midnightblue" d="M527.703,-490.439C483.015,-478.594 402.27,-457.192 352.961,-444.122"/>
<polygon fill="midnightblue" stroke="midnightblue" points="353.803,-440.725 343.24,-441.546 352.009,-447.491 353.803,-440.725"/>
</g>
<!-- Node21 -->
<g id="node21" class="node"><title>Node21</title>
<polygon fill="white" stroke="#bfbfbf" points="656.5,-417 656.5,-447 769.5,-447 769.5,-417 656.5,-417"/>
<text text-anchor="start" x="664.5" y="-435" font-family="Helvetica,sans-Serif" font-size="10.00">boost/thread/recursive</text>
<text text-anchor="middle" x="713" y="-424" font-family="Helvetica,sans-Serif" font-size="10.00">_mutex.hpp</text>
</g>
<!-- Node20&#45;&gt;Node21 -->
<g id="edge27" class="edge"><title>Node20&#45;&gt;Node21</title>
<path fill="none" stroke="midnightblue" d="M580.002,-490.372C603.026,-480.44 641.475,-463.854 671.128,-451.063"/>
<polygon fill="midnightblue" stroke="midnightblue" points="672.619,-454.231 680.415,-447.056 669.847,-447.803 672.619,-454.231"/>
</g>
<!-- Node22 -->
<g id="node22" class="node"><title>Node22</title>
<polygon fill="white" stroke="#bfbfbf" points="490.5,-349 490.5,-379 593.5,-379 593.5,-349 490.5,-349"/>
<text text-anchor="start" x="498.5" y="-367" font-family="Helvetica,sans-Serif" font-size="10.00">boost/thread/shared</text>
<text text-anchor="middle" x="542" y="-356" font-family="Helvetica,sans-Serif" font-size="10.00">_mutex.hpp</text>
</g>
<!-- Node20&#45;&gt;Node22 -->
<g id="edge28" class="edge"><title>Node20&#45;&gt;Node22</title>
<path fill="none" stroke="midnightblue" d="M530.206,-490.431C509.864,-482.853 484.431,-469.572 472,-448 464.899,-435.677 465.552,-428.676 472,-416 478.638,-402.951 490.353,-392.451 502.322,-384.448"/>
<polygon fill="midnightblue" stroke="midnightblue" points="504.358,-387.304 511.014,-379.061 500.67,-381.354 504.358,-387.304"/>
</g>
<!-- Node23 -->
<g id="node23" class="node"><title>Node23</title>
<g id="a_node23"><a xlink:href="../../db/d75/FramePoseStruct_8h.html" target="_top" xlink:title="DataStructures/FramePose\lStruct.h">
<polygon fill="white" stroke="black" points="1066,-417 1066,-447 1202,-447 1202,-417 1066,-417"/>
<text text-anchor="start" x="1074" y="-435" font-family="Helvetica,sans-Serif" font-size="10.00">DataStructures/FramePose</text>
<text text-anchor="middle" x="1134" y="-424" font-family="Helvetica,sans-Serif" font-size="10.00">Struct.h</text>
</a>
</g>
</g>
<!-- Node20&#45;&gt;Node23 -->
<g id="edge29" class="edge"><title>Node20&#45;&gt;Node23</title>
<path fill="none" stroke="midnightblue" d="M620.938,-490.474C637.787,-488.235 656.088,-485.914 673,-484 840.084,-465.085 885.611,-472.135 1055.58,-448.118"/>
<polygon fill="midnightblue" stroke="midnightblue" points="1056.22,-451.563 1065.63,-446.684 1055.23,-444.633 1056.22,-451.563"/>
</g>
<!-- Node28 -->
<g id="node28" class="node"><title>Node28</title>
<g id="a_node28"><a xlink:href="../../dd/d8b/FrameMemory_8h.html" target="_top" xlink:title="DataStructures/FrameMemory.h">
<polygon fill="white" stroke="black" points="481.5,-422.5 481.5,-441.5 638.5,-441.5 638.5,-422.5 481.5,-422.5"/>
<text text-anchor="middle" x="560" y="-429.5" font-family="Helvetica,sans-Serif" font-size="10.00">DataStructures/FrameMemory.h</text>
</a>
</g>
</g>
<!-- Node20&#45;&gt;Node28 -->
<g id="edge36" class="edge"><title>Node20&#45;&gt;Node28</title>
<path fill="none" stroke="midnightblue" d="M560,-490.372C560,-480.643 560,-464.528 560,-451.85"/>
<polygon fill="midnightblue" stroke="midnightblue" points="563.5,-451.841 560,-441.841 556.5,-451.841 563.5,-451.841"/>
</g>
<!-- Node35 -->
<g id="node35" class="node"><title>Node35</title>
<polygon fill="white" stroke="#bfbfbf" points="788,-422.5 788,-441.5 866,-441.5 866,-422.5 788,-422.5"/>
<text text-anchor="middle" x="827" y="-429.5" font-family="Helvetica,sans-Serif" font-size="10.00">unordered_set</text>
</g>
<!-- Node20&#45;&gt;Node35 -->
<g id="edge44" class="edge"><title>Node20&#45;&gt;Node35</title>
<path fill="none" stroke="midnightblue" d="M599.981,-490.493C643.856,-480.96 716.266,-464.65 778,-448 782.107,-446.892 786.389,-445.675 790.638,-444.428"/>
<polygon fill="midnightblue" stroke="midnightblue" points="791.82,-447.728 800.392,-441.501 789.808,-441.023 791.82,-447.728"/>
</g>
<!-- Node23&#45;&gt;Node6 -->
<g id="edge30" class="edge"><title>Node23&#45;&gt;Node6</title>
<path fill="none" stroke="midnightblue" d="M1202.2,-418.067C1257.47,-406.895 1327.53,-390.879 1336,-380 1344.74,-368.78 1345.77,-358.331 1336,-348 1321.02,-332.17 665.309,-306.376 469.591,-299.017"/>
<polygon fill="midnightblue" stroke="midnightblue" points="469.658,-295.517 459.534,-298.64 469.396,-302.512 469.658,-295.517"/>
</g>
<!-- Node23&#45;&gt;Node24 -->
<g id="edge31" class="edge"><title>Node23&#45;&gt;Node24</title>
<path fill="none" stroke="midnightblue" d="M1202.08,-417.003C1253.17,-406.499 1323.21,-392.097 1376.63,-381.113"/>
<polygon fill="midnightblue" stroke="midnightblue" points="1377.66,-384.476 1386.75,-379.033 1376.25,-377.619 1377.66,-384.476"/>
</g>
<!-- Node24&#45;&gt;Node6 -->
<g id="edge32" class="edge"><title>Node24&#45;&gt;Node6</title>
<path fill="none" stroke="midnightblue" d="M1382.83,-349.769C1378.16,-349.112 1373.52,-348.513 1369,-348 1192.77,-327.993 645.184,-305.821 469.703,-299.064"/>
<polygon fill="midnightblue" stroke="midnightblue" points="469.791,-295.565 459.664,-298.679 469.523,-302.56 469.791,-295.565"/>
</g>
<!-- Node25 -->
<g id="node25" class="node"><title>Node25</title>
<polygon fill="white" stroke="#bfbfbf" points="1395.5,-286.5 1395.5,-305.5 1514.5,-305.5 1514.5,-286.5 1395.5,-286.5"/>
<text text-anchor="middle" x="1455" y="-293.5" font-family="Helvetica,sans-Serif" font-size="10.00">g2o/core/base_vertex.h</text>
</g>
<!-- Node24&#45;&gt;Node25 -->
<g id="edge33" class="edge"><title>Node24&#45;&gt;Node25</title>
<path fill="none" stroke="midnightblue" d="M1455,-348.679C1455,-339.101 1455,-326.394 1455,-315.977"/>
<polygon fill="midnightblue" stroke="midnightblue" points="1458.5,-315.828 1455,-305.828 1451.5,-315.828 1458.5,-315.828"/>
</g>
<!-- Node26 -->
<g id="node26" class="node"><title>Node26</title>
<polygon fill="white" stroke="#bfbfbf" points="1533,-281 1533,-311 1643,-311 1643,-281 1533,-281"/>
<text text-anchor="start" x="1541" y="-299" font-family="Helvetica,sans-Serif" font-size="10.00">g2o/core/base_binary</text>
<text text-anchor="middle" x="1588" y="-288" font-family="Helvetica,sans-Serif" font-size="10.00">_edge.h</text>
</g>
<!-- Node24&#45;&gt;Node26 -->
<g id="edge34" class="edge"><title>Node24&#45;&gt;Node26</title>
<path fill="none" stroke="midnightblue" d="M1483.53,-348.841C1503.08,-339.141 1529.21,-326.174 1550.45,-315.636"/>
<polygon fill="midnightblue" stroke="midnightblue" points="1552.11,-318.716 1559.52,-311.135 1549,-312.445 1552.11,-318.716"/>
</g>
<!-- Node27 -->
<g id="node27" class="node"><title>Node27</title>
<polygon fill="white" stroke="#bfbfbf" points="1272.5,-281 1272.5,-311 1377.5,-311 1377.5,-281 1272.5,-281"/>
<text text-anchor="start" x="1280.5" y="-299" font-family="Helvetica,sans-Serif" font-size="10.00">g2o/types/sba/types</text>
<text text-anchor="middle" x="1325" y="-288" font-family="Helvetica,sans-Serif" font-size="10.00">_six_dof_expmap.h</text>
</g>
<!-- Node24&#45;&gt;Node27 -->
<g id="edge35" class="edge"><title>Node24&#45;&gt;Node27</title>
<path fill="none" stroke="midnightblue" d="M1427.11,-348.841C1408.09,-339.185 1382.69,-326.29 1361.99,-315.778"/>
<polygon fill="midnightblue" stroke="midnightblue" points="1363.34,-312.541 1352.84,-311.135 1360.17,-318.783 1363.34,-312.541"/>
</g>
<!-- Node28&#45;&gt;Node22 -->
<g id="edge42" class="edge"><title>Node28&#45;&gt;Node22</title>
<path fill="none" stroke="midnightblue" d="M557.647,-422.372C555.332,-413.886 551.693,-400.542 548.507,-388.858"/>
<polygon fill="midnightblue" stroke="midnightblue" points="551.876,-387.908 545.868,-379.181 545.122,-389.75 551.876,-387.908"/>
</g>
<!-- Node29 -->
<g id="node29" class="node"><title>Node29</title>
<polygon fill="white" stroke="#bfbfbf" points="774.5,-354.5 774.5,-373.5 857.5,-373.5 857.5,-354.5 774.5,-354.5"/>
<text text-anchor="middle" x="816" y="-361.5" font-family="Helvetica,sans-Serif" font-size="10.00">unordered_map</text>
</g>
<!-- Node28&#45;&gt;Node29 -->
<g id="edge37" class="edge"><title>Node28&#45;&gt;Node29</title>
<path fill="none" stroke="midnightblue" d="M595.846,-422.45C636.666,-412.619 705.305,-395.797 764,-380 768.354,-378.828 772.902,-377.569 777.419,-376.296"/>
<polygon fill="midnightblue" stroke="midnightblue" points="778.514,-379.623 787.171,-373.515 776.595,-372.891 778.514,-379.623"/>
</g>
<!-- Node30 -->
<g id="node30" class="node"><title>Node30</title>
<polygon fill="white" stroke="#bfbfbf" points="712,-354.5 712,-373.5 756,-373.5 756,-354.5 712,-354.5"/>
<text text-anchor="middle" x="734" y="-361.5" font-family="Helvetica,sans-Serif" font-size="10.00">vector</text>
</g>
<!-- Node28&#45;&gt;Node30 -->
<g id="edge38" class="edge"><title>Node28&#45;&gt;Node30</title>
<path fill="none" stroke="midnightblue" d="M586.19,-422.414C614.896,-412.814 662.171,-396.445 702,-380 703.638,-379.324 705.313,-378.609 706.996,-377.874"/>
<polygon fill="midnightblue" stroke="midnightblue" points="708.865,-380.87 716.526,-373.551 705.974,-374.495 708.865,-380.87"/>
</g>
<!-- Node31 -->
<g id="node31" class="node"><title>Node31</title>
<polygon fill="white" stroke="#bfbfbf" points="875.5,-354.5 875.5,-373.5 994.5,-373.5 994.5,-354.5 875.5,-354.5"/>
<text text-anchor="middle" x="935" y="-361.5" font-family="Helvetica,sans-Serif" font-size="10.00">boost/thread/mutex.hpp</text>
</g>
<!-- Node28&#45;&gt;Node31 -->
<g id="edge39" class="edge"><title>Node28&#45;&gt;Node31</title>
<path fill="none" stroke="midnightblue" d="M609.219,-422.445C621.552,-420.32 634.757,-418.062 647,-416 744.27,-399.62 769.108,-398.483 866,-380 872.877,-378.688 880.12,-377.215 887.222,-375.718"/>
<polygon fill="midnightblue" stroke="midnightblue" points="888.425,-379.04 897.47,-373.524 886.959,-372.195 888.425,-379.04"/>
</g>
<!-- Node32 -->
<g id="node32" class="node"><title>Node32</title>
<polygon fill="white" stroke="#bfbfbf" points="650.5,-354.5 650.5,-373.5 693.5,-373.5 693.5,-354.5 650.5,-354.5"/>
<text text-anchor="middle" x="672" y="-361.5" font-family="Helvetica,sans-Serif" font-size="10.00">deque</text>
</g>
<!-- Node28&#45;&gt;Node32 -->
<g id="edge40" class="edge"><title>Node28&#45;&gt;Node32</title>
<path fill="none" stroke="midnightblue" d="M574.642,-422.372C593.424,-411.304 626.229,-391.972 648.517,-378.838"/>
<polygon fill="midnightblue" stroke="midnightblue" points="650.516,-381.723 657.354,-373.63 646.962,-375.692 650.516,-381.723"/>
</g>
<!-- Node33 -->
<g id="node33" class="node"><title>Node33</title>
<polygon fill="white" stroke="#bfbfbf" points="443.5,-354.5 443.5,-373.5 472.5,-373.5 472.5,-354.5 443.5,-354.5"/>
<text text-anchor="middle" x="458" y="-361.5" font-family="Helvetica,sans-Serif" font-size="10.00">list</text>
</g>
<!-- Node28&#45;&gt;Node33 -->
<g id="edge41" class="edge"><title>Node28&#45;&gt;Node33</title>
<path fill="none" stroke="midnightblue" d="M546.569,-422.356C530.84,-412.227 504.007,-394.929 481,-380 480.6,-379.741 480.196,-379.478 479.79,-379.214"/>
<polygon fill="midnightblue" stroke="midnightblue" points="481.419,-376.099 471.129,-373.577 477.601,-381.966 481.419,-376.099"/>
</g>
<!-- Node34 -->
<g id="node34" class="node"><title>Node34</title>
<polygon fill="white" stroke="#bfbfbf" points="833.5,-286.5 833.5,-305.5 898.5,-305.5 898.5,-286.5 833.5,-286.5"/>
<text text-anchor="middle" x="866" y="-293.5" font-family="Helvetica,sans-Serif" font-size="10.00">Eigen/Core</text>
</g>
<!-- Node28&#45;&gt;Node34 -->
<g id="edge43" class="edge"><title>Node28&#45;&gt;Node34</title>
<path fill="none" stroke="midnightblue" d="M567.41,-422.234C583.875,-402.961 623.43,-357.833 641,-348 698.839,-315.628 775.921,-303.797 823.198,-299.478"/>
<polygon fill="midnightblue" stroke="midnightblue" points="823.72,-302.946 833.392,-298.621 823.134,-295.971 823.72,-302.946"/>
</g>
<!-- Node36&#45;&gt;Node6 -->
<g id="edge53" class="edge"><title>Node36&#45;&gt;Node6</title>
<path fill="none" stroke="midnightblue" d="M975.359,-422.471C992.099,-406.221 1023.58,-370.442 1003,-348 967.361,-309.136 608.853,-299.798 469.754,-297.63"/>
<polygon fill="midnightblue" stroke="midnightblue" points="469.783,-294.13 459.732,-297.481 469.679,-301.13 469.783,-294.13"/>
</g>
<!-- Node36&#45;&gt;Node22 -->
<g id="edge49" class="edge"><title>Node36&#45;&gt;Node22</title>
<path fill="none" stroke="midnightblue" d="M915,-422.488C901.963,-420.341 887.967,-418.062 875,-416 824.039,-407.898 685.124,-386.735 603.714,-374.366"/>
<polygon fill="midnightblue" stroke="midnightblue" points="604.008,-370.87 593.595,-372.828 602.956,-377.791 604.008,-370.87"/>
</g>
<!-- Node36&#45;&gt;Node29 -->
<g id="edge47" class="edge"><title>Node36&#45;&gt;Node29</title>
<path fill="none" stroke="midnightblue" d="M946.39,-422.372C920.562,-411.007 874.934,-390.931 845.082,-377.796"/>
<polygon fill="midnightblue" stroke="midnightblue" points="846.177,-374.454 835.615,-373.63 843.358,-380.862 846.177,-374.454"/>
</g>
<!-- Node36&#45;&gt;Node30 -->
<g id="edge46" class="edge"><title>Node36&#45;&gt;Node30</title>
<path fill="none" stroke="midnightblue" d="M921.708,-422.456C880.458,-413.872 817.597,-399.174 765,-380 763.146,-379.324 761.255,-378.573 759.368,-377.778"/>
<polygon fill="midnightblue" stroke="midnightblue" points="760.694,-374.536 750.143,-373.573 757.79,-380.906 760.694,-374.536"/>
</g>
<!-- Node36&#45;&gt;Node31 -->
<g id="edge48" class="edge"><title>Node36&#45;&gt;Node31</title>
<path fill="none" stroke="midnightblue" d="M961.947,-422.372C957.285,-412.446 949.502,-395.874 943.495,-383.086"/>
<polygon fill="midnightblue" stroke="midnightblue" points="946.572,-381.404 939.153,-373.841 940.236,-384.38 946.572,-381.404"/>
</g>
<!-- Node36&#45;&gt;Node32 -->
<g id="edge54" class="edge"><title>Node36&#45;&gt;Node32</title>
<path fill="none" stroke="midnightblue" d="M913.591,-422.492C848.478,-411.633 741.285,-392.734 703,-380 701.085,-379.363 699.137,-378.633 697.196,-377.847"/>
<polygon fill="midnightblue" stroke="midnightblue" points="698.314,-374.512 687.759,-373.599 695.442,-380.895 698.314,-374.512"/>
</g>
<!-- Node37 -->
<g id="node37" class="node"><title>Node37</title>
<g id="a_node37"><a xlink:href="../../d9/d86/EigenCoreInclude_8h.html" target="_top" xlink:title="util/EigenCoreInclude.h">
<polygon fill="white" stroke="black" points="1051,-354.5 1051,-373.5 1169,-373.5 1169,-354.5 1051,-354.5"/>
<text text-anchor="middle" x="1110" y="-361.5" font-family="Helvetica,sans-Serif" font-size="10.00">util/EigenCoreInclude.h</text>
</a>
</g>
</g>
<!-- Node36&#45;&gt;Node37 -->
<g id="edge50" class="edge"><title>Node36&#45;&gt;Node37</title>
<path fill="none" stroke="midnightblue" d="M984.825,-422.372C1009.51,-411.057 1053.04,-391.105 1081.71,-377.968"/>
<polygon fill="midnightblue" stroke="midnightblue" points="1083.54,-380.979 1091.17,-373.63 1080.62,-374.615 1083.54,-380.979"/>
</g>
<!-- Node38 -->
<g id="node38" class="node"><title>Node38</title>
<polygon fill="white" stroke="#bfbfbf" points="1187,-354.5 1187,-373.5 1327,-373.5 1327,-354.5 1187,-354.5"/>
<text text-anchor="middle" x="1257" y="-361.5" font-family="Helvetica,sans-Serif" font-size="10.00">g2o/core/sparse_optimizer.h</text>
</g>
<!-- Node36&#45;&gt;Node38 -->
<g id="edge52" class="edge"><title>Node36&#45;&gt;Node38</title>
<path fill="none" stroke="midnightblue" d="M1003.74,-422.439C1056.41,-410.495 1151.91,-388.834 1209.4,-375.797"/>
<polygon fill="midnightblue" stroke="midnightblue" points="1210.34,-379.171 1219.32,-373.546 1208.8,-372.344 1210.34,-379.171"/>
</g>
<!-- Node37&#45;&gt;Node34 -->
<g id="edge51" class="edge"><title>Node37&#45;&gt;Node34</title>
<path fill="none" stroke="midnightblue" d="M1078.1,-354.372C1034.32,-342.53 955.574,-321.229 907.328,-308.179"/>
<polygon fill="midnightblue" stroke="midnightblue" points="908.087,-304.758 897.52,-305.526 906.259,-311.516 908.087,-304.758"/>
</g>
</g>
</svg>
        <g id="navigator" transform="translate(0 0)" fill="#404254">
                <rect fill="#f2f5e9" fill-opacity="0.5" stroke="#606060" stroke-width=".5" x="0" y="0" width="60" height="60"/>
                <use id="zoomplus" xlink:href="#zoomPlus" x="17" y="9" onmousedown="handleZoom(evt,'in')"/>
                <use id="zoomminus" xlink:href="#zoomMin" x="42" y="9" onmousedown="handleZoom(evt,'out')"/>
                <use id="reset" xlink:href="#resetDef" x="30" y="36" onmousedown="handleReset()"/>
                <g id="arrowUp" xlink:href="#dirArrow" transform="translate(30 24)" onmousedown="handlePan(0,-1)">
                  <use xlink:href="#rim" fill="#404040">
                        <set attributeName="fill" to="#808080" begin="arrowUp.mouseover" end="arrowUp.mouseout"/>
                  </use>
                  <path fill="none" stroke="white" stroke-width="1.5" d="M0,-3.0v7 M-2.5,-0.5L0,-3.0L2.5,-0.5"/>
                </g>
                <g id="arrowRight" xlink:href="#dirArrow" transform="rotate(90) translate(36 -43)" onmousedown="handlePan(1,0)">
                  <use xlink:href="#rim" fill="#404040">
                        <set attributeName="fill" to="#808080" begin="arrowRight.mouseover" end="arrowRight.mouseout"/>
                  </use>
                  <path fill="none" stroke="white" stroke-width="1.5" d="M0,-3.0v7 M-2.5,-0.5L0,-3.0L2.5,-0.5"/>
                </g>
                <g id="arrowDown" xlink:href="#dirArrow" transform="rotate(180) translate(-30 -48)" onmousedown="handlePan(0,1)">
                  <use xlink:href="#rim" fill="#404040">
                        <set attributeName="fill" to="#808080" begin="arrowDown.mouseover" end="arrowDown.mouseout"/>
                  </use>
                  <path fill="none" stroke="white" stroke-width="1.5" d="M0,-3.0v7 M-2.5,-0.5L0,-3.0L2.5,-0.5"/>
                </g>
                <g id="arrowLeft" xlink:href="#dirArrow" transform="rotate(270) translate(-36 17)" onmousedown="handlePan(-1,0)">
                  <use xlink:href="#rim" fill="#404040">
                        <set attributeName="fill" to="#808080" begin="arrowLeft.mouseover" end="arrowLeft.mouseout"/>
                  </use>
                  <path fill="none" stroke="white" stroke-width="1.5" d="M0,-3.0v7 M-2.5,-0.5L0,-3.0L2.5,-0.5"/>
                </g>
        </g>
        <svg viewBox="0 0 15 15" width="100%" height="30px" preserveAspectRatio="xMaxYMin meet">
         <g id="arrow_out" transform="scale(0.3 0.3)">
          <a xlink:href="ROSOutput3DWrapper_8cpp__incl_org.svg" target="_base">
           <rect id="button" ry="5" rx="5" y="6" x="6" height="38" width="38"
                fill="#f2f5e9" fill-opacity="0.5" stroke="#606060" stroke-width="1.0"/>
           <path id="arrow"
             d="M 11.500037,31.436501 C 11.940474,20.09759 22.043105,11.32322 32.158766,21.979434 L 37.068811,17.246167 C 37.068811,17.246167 37.088388,32 37.088388,32 L 22.160133,31.978069 C 22.160133,31.978069 26.997745,27.140456 26.997745,27.140456 C 18.528582,18.264221 13.291696,25.230495 11.500037,31.436501 z"
             style="fill:#404040;"/>
          </a>
         </g>
        </svg>
</svg>
