<?xml version="1.0" encoding="UTF-8" standalone="no"?>
<!DOCTYPE svg PUBLIC "-//W3C//DTD SVG 1.1//EN"
 "http://www.w3.org/Graphics/SVG/1.1/DTD/svg11.dtd">
<!-- Generated by graphviz version 2.36.0 (20140111.2315)
 -->
<!-- Title: ShaderBag Pages: 1 -->
<!--zoomable 650 -->
<svg id="main" version="1.1" xmlns="http://www.w3.org/2000/svg" xmlns:xlink="http://www.w3.org/1999/xlink" xml:space="preserve" onload="init(evt)">
<style type="text/css"><![CDATA[
.edge:hover path { stroke: red; }
.edge:hover polygon { stroke: red; fill: red; }
]]></style>
<script type="text/javascript"><![CDATA[
var edges = document.getElementsByTagName('g');
if (edges && edges.length) {
  for (var i=0;i<edges.length;i++) {
    if (edges[i].id.substr(0,4)=='edge') {
      edges[i].setAttribute('class','edge');
    }
  }
}
]]></script>
        <defs>
                <circle id="rim" cx="0" cy="0" r="7"/>
                <circle id="rim2" cx="0" cy="0" r="3.5"/>
                <g id="zoomPlus">
                        <use xlink:href="#rim" fill="#404040">
                                <set attributeName="fill" to="#808080" begin="zoomplus.mouseover" end="zoomplus.mouseout"/>
                        </use>
                        <path d="M-4,0h8M0,-4v8" fill="none" stroke="white" stroke-width="1.5" pointer-events="none"/>
                </g>
                <g id="zoomMin">
                        <use xlink:href="#rim" fill="#404040">
                                <set attributeName="fill" to="#808080" begin="zoomminus.mouseover" end="zoomminus.mouseout"/>
                        </use>
                        <path d="M-4,0h8" fill="none" stroke="white" stroke-width="1.5" pointer-events="none"/>
                </g>
                <g id="dirArrow">
                        <path fill="none" stroke="white" stroke-width="1.5" d="M0,-3.0v7 M-2.5,-0.5L0,-3.0L2.5,-0.5"/>
                </g>
               <g id="resetDef">
                       <use xlink:href="#rim2" fill="#404040">
                               <set attributeName="fill" to="#808080" begin="reset.mouseover" end="reset.mouseout"/>
                       </use>
               </g>
        </defs>

<script type="text/javascript">
var viewWidth = 366;
var viewHeight = 650;
var sectionId = 'dynsection-1';
</script>
<script xlink:href="../../svgpan.js"/>
<svg id="graph" class="graph">
<g id="viewport">
<title>ShaderBag</title>
<polygon fill="white" stroke="none" points="-4,4 -4,-646 362,-646 362,4 -4,4"/>
<!-- Node1 -->
<g id="node1" class="node"><title>Node1</title>
<polygon fill="#bfbfbf" stroke="black" points="81.5,-1 81.5,-311 236.5,-311 236.5,-1 81.5,-1"/>
<text text-anchor="middle" x="159" y="-299" font-family="Helvetica,sans-Serif" font-size="10.00">ShaderBag</text>
<polyline fill="none" stroke="black" points="81.5,-292 236.5,-292 "/>
<text text-anchor="start" x="89.5" y="-280" font-family="Helvetica,sans-Serif" font-size="10.00">+ s_copy_key</text>
<text text-anchor="start" x="89.5" y="-269" font-family="Helvetica,sans-Serif" font-size="10.00">+ s_debug</text>
<text text-anchor="start" x="89.5" y="-258" font-family="Helvetica,sans-Serif" font-size="10.00">+ s_orientation</text>
<text text-anchor="start" x="89.5" y="-247" font-family="Helvetica,sans-Serif" font-size="10.00">+ s_display_dog</text>
<text text-anchor="start" x="89.5" y="-236" font-family="Helvetica,sans-Serif" font-size="10.00">+ s_display_grad</text>
<text text-anchor="start" x="89.5" y="-225" font-family="Helvetica,sans-Serif" font-size="10.00">+ s_sampling</text>
<text text-anchor="start" x="89.5" y="-214" font-family="Helvetica,sans-Serif" font-size="10.00">+ s_grad_pass</text>
<text text-anchor="start" x="89.5" y="-203" font-family="Helvetica,sans-Serif" font-size="10.00">+ s_dog_pass</text>
<text text-anchor="start" x="89.5" y="-192" font-family="Helvetica,sans-Serif" font-size="10.00">+ s_keypoint</text>
<text text-anchor="start" x="89.5" y="-181" font-family="Helvetica,sans-Serif" font-size="10.00">+ s_seperate_sp</text>
<text text-anchor="start" x="89.5" y="-170" font-family="Helvetica,sans-Serif" font-size="10.00">+ s_genlist_init_tight</text>
<text text-anchor="start" x="89.5" y="-159" font-family="Helvetica,sans-Serif" font-size="10.00">+ s_genlist_histo</text>
<text text-anchor="start" x="89.5" y="-148" font-family="Helvetica,sans-Serif" font-size="10.00">+ s_genlist_end</text>
<text text-anchor="start" x="89.5" y="-137" font-family="Helvetica,sans-Serif" font-size="10.00">+ _gaussian_step_num</text>
<polyline fill="none" stroke="black" points="81.5,-130 236.5,-130 "/>
<text text-anchor="start" x="89.5" y="-118" font-family="Helvetica,sans-Serif" font-size="10.00">+ SetGenListInitParam()</text>
<text text-anchor="start" x="89.5" y="-107" font-family="Helvetica,sans-Serif" font-size="10.00">+ SetGenListEndParam()</text>
<text text-anchor="start" x="89.5" y="-96" font-family="Helvetica,sans-Serif" font-size="10.00">+ SetMarginCopyParam()</text>
<text text-anchor="start" x="89.5" y="-85" font-family="Helvetica,sans-Serif" font-size="10.00">+ LoadDescriptorShader()</text>
<text text-anchor="start" x="89.5" y="-74" font-family="Helvetica,sans-Serif" font-size="10.00">+ SetFeatureDescirptorParam()</text>
<text text-anchor="start" x="89.5" y="-63" font-family="Helvetica,sans-Serif" font-size="10.00">+ SetFeatureOrientationParam()</text>
<text text-anchor="start" x="89.5" y="-52" font-family="Helvetica,sans-Serif" font-size="10.00">+ SetSimpleOrientationInput()</text>
<text text-anchor="start" x="89.5" y="-41" font-family="Helvetica,sans-Serif" font-size="10.00">+ LoadOrientationShader()</text>
<text text-anchor="start" x="89.5" y="-30" font-family="Helvetica,sans-Serif" font-size="10.00">+ SetGenListStartParam()</text>
<text text-anchor="start" x="89.5" y="-19" font-family="Helvetica,sans-Serif" font-size="10.00">+ LoadGenListShader()</text>
<text text-anchor="start" x="89.5" y="-8" font-family="Helvetica,sans-Serif" font-size="10.00">and 13 more...</text>
</g>
<!-- Node2 -->
<g id="node2" class="node"><title>Node2</title>
<g id="a_node2"><a xlink:href="../../d9/d26/classProgramGPU.html" target="_top" xlink:title="{ProgramGPU\n||+ UseProgram()\l+ GetProgramID()\l+ ~ProgramGPU()\l}">
<polygon fill="white" stroke="black" points="0,-562.5 0,-641.5 96,-641.5 96,-562.5 0,-562.5"/>
<text text-anchor="middle" x="48" y="-629.5" font-family="Helvetica,sans-Serif" font-size="10.00">ProgramGPU</text>
<polyline fill="none" stroke="black" points="0,-622.5 96,-622.5 "/>
<text text-anchor="middle" x="48" y="-610.5" font-family="Helvetica,sans-Serif" font-size="10.00"> </text>
<polyline fill="none" stroke="black" points="0,-603.5 96,-603.5 "/>
<text text-anchor="start" x="8" y="-591.5" font-family="Helvetica,sans-Serif" font-size="10.00">+ UseProgram()</text>
<text text-anchor="start" x="8" y="-580.5" font-family="Helvetica,sans-Serif" font-size="10.00">+ GetProgramID()</text>
<text text-anchor="start" x="8" y="-569.5" font-family="Helvetica,sans-Serif" font-size="10.00">+ ~ProgramGPU()</text>
</a>
</g>
</g>
<!-- Node2&#45;&gt;Node1 -->
<g id="edge1" class="edge"><title>Node2&#45;&gt;Node1</title>
<path fill="none" stroke="#404040" d="M29.0249,-562.348C21.5032,-544.959 13.7598,-523.905 10,-504 -0.0639508,-450.72 -5.63272,-433.92 10,-382 23.2728,-337.918 48.3085,-294.527 74.1216,-257.792"/>
<polygon fill="none" stroke="#404040" points="74.4257,-257.367 74.6679,-250.16 81.4138,-247.612 81.1715,-254.819 74.4257,-257.367"/>
<text text-anchor="middle" x="56" y="-495.5" font-family="Helvetica,sans-Serif" font-size="10.00"> +s_vertex_list</text>
<text text-anchor="middle" x="56" y="-484.5" font-family="Helvetica,sans-Serif" font-size="10.00">+s_descriptor_fp</text>
<text text-anchor="middle" x="56" y="-473.5" font-family="Helvetica,sans-Serif" font-size="10.00">+s_margin_copy</text>
<text text-anchor="middle" x="56" y="-462.5" font-family="Helvetica,sans-Serif" font-size="10.00">+s_genlist_start</text>
<text text-anchor="middle" x="56" y="-451.5" font-family="Helvetica,sans-Serif" font-size="10.00">+s_display_gaussian</text>
<text text-anchor="middle" x="56" y="-440.5" font-family="Helvetica,sans-Serif" font-size="10.00">+s_zero_pass</text>
<text text-anchor="middle" x="56" y="-429.5" font-family="Helvetica,sans-Serif" font-size="10.00">+s_genlist_step</text>
<text text-anchor="middle" x="56" y="-418.5" font-family="Helvetica,sans-Serif" font-size="10.00">+s_genlist_init_ex</text>
<text text-anchor="middle" x="56" y="-407.5" font-family="Helvetica,sans-Serif" font-size="10.00">+s_display_keys</text>
<text text-anchor="middle" x="56" y="-396.5" font-family="Helvetica,sans-Serif" font-size="10.00">+s_gray</text>
<text text-anchor="middle" x="56" y="-385.5" font-family="Helvetica,sans-Serif" font-size="10.00">...</text>
</g>
<!-- Node4 -->
<g id="node4" class="node"><title>Node4</title>
<g id="a_node4"><a xlink:href="../../d9/d9b/classFilterProgram.html" target="_top" xlink:title="{FilterProgram\n|+ _size\l+ _id\l|+ FilterProgram()\l+ ~FilterProgram()\l}">
<polygon fill="white" stroke="black" points="111,-403.5 111,-482.5 207,-482.5 207,-403.5 111,-403.5"/>
<text text-anchor="middle" x="159" y="-470.5" font-family="Helvetica,sans-Serif" font-size="10.00">FilterProgram</text>
<polyline fill="none" stroke="black" points="111,-463.5 207,-463.5 "/>
<text text-anchor="start" x="119" y="-451.5" font-family="Helvetica,sans-Serif" font-size="10.00">+ _size</text>
<text text-anchor="start" x="119" y="-440.5" font-family="Helvetica,sans-Serif" font-size="10.00">+ _id</text>
<polyline fill="none" stroke="black" points="111,-433.5 207,-433.5 "/>
<text text-anchor="start" x="119" y="-421.5" font-family="Helvetica,sans-Serif" font-size="10.00">+ FilterProgram()</text>
<text text-anchor="start" x="119" y="-410.5" font-family="Helvetica,sans-Serif" font-size="10.00">+ ~FilterProgram()</text>
</a>
</g>
</g>
<!-- Node2&#45;&gt;Node4 -->
<g id="edge4" class="edge"><title>Node2&#45;&gt;Node4</title>
<path fill="none" stroke="#404040" d="M75.4382,-562.191C90.303,-541.166 108.812,-514.986 124.63,-492.614"/>
<polygon fill="none" stroke="#404040" points="124.758,-492.433 124.955,-485.224 131.685,-482.634 131.488,-489.843 124.758,-492.433"/>
<text text-anchor="middle" x="134" y="-536" font-family="Helvetica,sans-Serif" font-size="10.00"> +s_shader_v</text>
<text text-anchor="middle" x="134" y="-525" font-family="Helvetica,sans-Serif" font-size="10.00">+s_shader_h</text>
</g>
<!-- Node3 -->
<g id="node3" class="node"><title>Node3</title>
<polygon fill="white" stroke="#bfbfbf" points="225.5,-414.5 225.5,-471.5 352.5,-471.5 352.5,-414.5 225.5,-414.5"/>
<text text-anchor="middle" x="289" y="-459.5" font-family="Helvetica,sans-Serif" font-size="10.00">vector&lt; FilterProgram * &gt;</text>
<polyline fill="none" stroke="#bfbfbf" points="225.5,-452.5 352.5,-452.5 "/>
<text text-anchor="middle" x="289" y="-440.5" font-family="Helvetica,sans-Serif" font-size="10.00"> </text>
<polyline fill="none" stroke="#bfbfbf" points="225.5,-433.5 352.5,-433.5 "/>
<text text-anchor="middle" x="289" y="-421.5" font-family="Helvetica,sans-Serif" font-size="10.00"> </text>
</g>
<!-- Node3&#45;&gt;Node1 -->
<g id="edge2" class="edge"><title>Node3&#45;&gt;Node1</title>
<path fill="none" stroke="#404040" d="M279.99,-414.467C272.241,-391.563 260.384,-358.258 248,-330 245.979,-325.389 243.892,-320.728 241.753,-316.039"/>
<polygon fill="none" stroke="#404040" points="241.711,-315.948 235.562,-312.181 236.674,-305.057 242.823,-308.824 241.711,-315.948"/>
<text text-anchor="middle" x="310" y="-344.5" font-family="Helvetica,sans-Serif" font-size="10.00"> +f_gaussian_skip0_v</text>
</g>
<!-- Node4&#45;&gt;Node1 -->
<g id="edge3" class="edge"><title>Node4&#45;&gt;Node1</title>
<path fill="none" stroke="#404040" d="M159,-403.267C159,-381.798 159,-353.465 159,-323.68"/>
<polygon fill="none" stroke="#404040" points="159,-323.3 155,-317.3 159,-311.3 163,-317.3 159,-323.3"/>
<text text-anchor="middle" x="201.5" y="-355.5" font-family="Helvetica,sans-Serif" font-size="10.00"> +f_gaussian_skip0</text>
<text text-anchor="middle" x="201.5" y="-344.5" font-family="Helvetica,sans-Serif" font-size="10.00">+f_gaussian_skip1</text>
<text text-anchor="middle" x="201.5" y="-333.5" font-family="Helvetica,sans-Serif" font-size="10.00">+f_gaussian_step</text>
</g>
</g>
</svg>
        <g id="navigator" transform="translate(0 0)" fill="#404254">
                <rect fill="#f2f5e9" fill-opacity="0.5" stroke="#606060" stroke-width=".5" x="0" y="0" width="60" height="60"/>
                <use id="zoomplus" xlink:href="#zoomPlus" x="17" y="9" onmousedown="handleZoom(evt,'in')"/>
                <use id="zoomminus" xlink:href="#zoomMin" x="42" y="9" onmousedown="handleZoom(evt,'out')"/>
                <use id="reset" xlink:href="#resetDef" x="30" y="36" onmousedown="handleReset()"/>
                <g id="arrowUp" xlink:href="#dirArrow" transform="translate(30 24)" onmousedown="handlePan(0,-1)">
                  <use xlink:href="#rim" fill="#404040">
                        <set attributeName="fill" to="#808080" begin="arrowUp.mouseover" end="arrowUp.mouseout"/>
                  </use>
                  <path fill="none" stroke="white" stroke-width="1.5" d="M0,-3.0v7 M-2.5,-0.5L0,-3.0L2.5,-0.5"/>
                </g>
                <g id="arrowRight" xlink:href="#dirArrow" transform="rotate(90) translate(36 -43)" onmousedown="handlePan(1,0)">
                  <use xlink:href="#rim" fill="#404040">
                        <set attributeName="fill" to="#808080" begin="arrowRight.mouseover" end="arrowRight.mouseout"/>
                  </use>
                  <path fill="none" stroke="white" stroke-width="1.5" d="M0,-3.0v7 M-2.5,-0.5L0,-3.0L2.5,-0.5"/>
                </g>
                <g id="arrowDown" xlink:href="#dirArrow" transform="rotate(180) translate(-30 -48)" onmousedown="handlePan(0,1)">
                  <use xlink:href="#rim" fill="#404040">
                        <set attributeName="fill" to="#808080" begin="arrowDown.mouseover" end="arrowDown.mouseout"/>
                  </use>
                  <path fill="none" stroke="white" stroke-width="1.5" d="M0,-3.0v7 M-2.5,-0.5L0,-3.0L2.5,-0.5"/>
                </g>
                <g id="arrowLeft" xlink:href="#dirArrow" transform="rotate(270) translate(-36 17)" onmousedown="handlePan(-1,0)">
                  <use xlink:href="#rim" fill="#404040">
                        <set attributeName="fill" to="#808080" begin="arrowLeft.mouseover" end="arrowLeft.mouseout"/>
                  </use>
                  <path fill="none" stroke="white" stroke-width="1.5" d="M0,-3.0v7 M-2.5,-0.5L0,-3.0L2.5,-0.5"/>
                </g>
        </g>
        <svg viewBox="0 0 15 15" width="100%" height="30px" preserveAspectRatio="xMaxYMin meet">
         <g id="arrow_out" transform="scale(0.3 0.3)">
          <a xlink:href="classShaderBag__coll__graph_org.svg" target="_base">
           <rect id="button" ry="5" rx="5" y="6" x="6" height="38" width="38"
                fill="#f2f5e9" fill-opacity="0.5" stroke="#606060" stroke-width="1.0"/>
           <path id="arrow"
             d="M 11.500037,31.436501 C 11.940474,20.09759 22.043105,11.32322 32.158766,21.979434 L 37.068811,17.246167 C 37.068811,17.246167 37.088388,32 37.088388,32 L 22.160133,31.978069 C 22.160133,31.978069 26.997745,27.140456 26.997745,27.140456 C 18.528582,18.264221 13.291696,25.230495 11.500037,31.436501 z"
             style="fill:#404040;"/>
          </a>
         </g>
        </svg>
</svg>
