<?xml version="1.0" encoding="UTF-8" standalone="no"?>
<!DOCTYPE svg PUBLIC "-//W3C//DTD SVG 1.1//EN"
 "http://www.w3.org/Graphics/SVG/1.1/DTD/svg11.dtd">
<!-- Generated by graphviz version 2.36.0 (20140111.2315)
 -->
<!-- Title: external/SiftGPU/src/TestWin/MultiThreadSIFT.cpp Pages: 1 -->
<svg width="520pt" height="96pt"
 viewBox="0.00 0.00 520.00 96.00" xmlns="http://www.w3.org/2000/svg" xmlns:xlink="http://www.w3.org/1999/xlink">
<g id="graph0" class="graph" transform="scale(1 1) rotate(0) translate(4 92)">
<title>external/SiftGPU/src/TestWin/MultiThreadSIFT.cpp</title>
<polygon fill="white" stroke="none" points="-4,4 -4,-92 516,-92 516,4 -4,4"/>
<!-- Node1 -->
<g id="node1" class="node"><title>Node1</title>
<polygon fill="#bfbfbf" stroke="black" points="146.5,-57 146.5,-87 297.5,-87 297.5,-57 146.5,-57"/>
<text text-anchor="start" x="154.5" y="-75" font-family="Helvetica,sans-Serif" font-size="10.00">external/SiftGPU/src</text>
<text text-anchor="middle" x="222" y="-64" font-family="Helvetica,sans-Serif" font-size="10.00">/TestWin/MultiThreadSIFT.cpp</text>
</g>
<!-- Node2 -->
<g id="node2" class="node"><title>Node2</title>
<polygon fill="white" stroke="#bfbfbf" points="0,-0.5 0,-19.5 48,-19.5 48,-0.5 0,-0.5"/>
<text text-anchor="middle" x="24" y="-7.5" font-family="Helvetica,sans-Serif" font-size="10.00">stdlib.h</text>
</g>
<!-- Node1&#45;&gt;Node2 -->
<g id="edge1" class="edge"><title>Node1&#45;&gt;Node2</title>
<path fill="none" stroke="midnightblue" d="M175.578,-56.9327C139.582,-46.0248 90.522,-31.1582 58.0865,-21.3292"/>
<polygon fill="midnightblue" stroke="midnightblue" points="58.7626,-17.877 48.1773,-18.3265 56.7325,-24.5762 58.7626,-17.877"/>
</g>
<!-- Node3 -->
<g id="node3" class="node"><title>Node3</title>
<polygon fill="white" stroke="#bfbfbf" points="66,-0.5 66,-19.5 110,-19.5 110,-0.5 66,-0.5"/>
<text text-anchor="middle" x="88" y="-7.5" font-family="Helvetica,sans-Serif" font-size="10.00">vector</text>
</g>
<!-- Node1&#45;&gt;Node3 -->
<g id="edge2" class="edge"><title>Node1&#45;&gt;Node3</title>
<path fill="none" stroke="midnightblue" d="M190.583,-56.9327C168.177,-46.9004 138.293,-33.5193 116.562,-23.7888"/>
<polygon fill="midnightblue" stroke="midnightblue" points="117.764,-20.4923 107.207,-19.6 114.903,-26.8811 117.764,-20.4923"/>
</g>
<!-- Node4 -->
<g id="node4" class="node"><title>Node4</title>
<polygon fill="white" stroke="#bfbfbf" points="128,-0.5 128,-19.5 182,-19.5 182,-0.5 128,-0.5"/>
<text text-anchor="middle" x="155" y="-7.5" font-family="Helvetica,sans-Serif" font-size="10.00">iostream</text>
</g>
<!-- Node1&#45;&gt;Node4 -->
<g id="edge3" class="edge"><title>Node1&#45;&gt;Node4</title>
<path fill="none" stroke="midnightblue" d="M206.122,-56.7808C195.985,-47.7026 182.838,-35.9291 172.415,-26.5951"/>
<polygon fill="midnightblue" stroke="midnightblue" points="174.534,-23.7944 164.749,-19.7305 169.864,-29.0091 174.534,-23.7944"/>
</g>
<!-- Node5 -->
<g id="node5" class="node"><title>Node5</title>
<polygon fill="white" stroke="#bfbfbf" points="200,-0.5 200,-19.5 244,-19.5 244,-0.5 200,-0.5"/>
<text text-anchor="middle" x="222" y="-7.5" font-family="Helvetica,sans-Serif" font-size="10.00">time.h</text>
</g>
<!-- Node1&#45;&gt;Node5 -->
<g id="edge4" class="edge"><title>Node1&#45;&gt;Node5</title>
<path fill="none" stroke="midnightblue" d="M222,-56.7808C222,-48.7812 222,-38.6887 222,-30.0168"/>
<polygon fill="midnightblue" stroke="midnightblue" points="225.5,-29.7305 222,-19.7305 218.5,-29.7306 225.5,-29.7305"/>
</g>
<!-- Node6 -->
<g id="node6" class="node"><title>Node6</title>
<polygon fill="white" stroke="#bfbfbf" points="262,-0.5 262,-19.5 308,-19.5 308,-0.5 262,-0.5"/>
<text text-anchor="middle" x="285" y="-7.5" font-family="Helvetica,sans-Serif" font-size="10.00">stdio.h</text>
</g>
<!-- Node1&#45;&gt;Node6 -->
<g id="edge5" class="edge"><title>Node1&#45;&gt;Node6</title>
<path fill="none" stroke="midnightblue" d="M236.93,-56.7808C246.368,-47.7925 258.58,-36.162 268.333,-26.8731"/>
<polygon fill="midnightblue" stroke="midnightblue" points="271.005,-29.1616 275.833,-19.7305 266.178,-24.0926 271.005,-29.1616"/>
</g>
<!-- Node7 -->
<g id="node7" class="node"><title>Node7</title>
<polygon fill="white" stroke="#bfbfbf" points="326.5,-0.5 326.5,-19.5 383.5,-19.5 383.5,-0.5 326.5,-0.5"/>
<text text-anchor="middle" x="355" y="-7.5" font-family="Helvetica,sans-Serif" font-size="10.00">pthread.h</text>
</g>
<!-- Node1&#45;&gt;Node7 -->
<g id="edge6" class="edge"><title>Node1&#45;&gt;Node7</title>
<path fill="none" stroke="midnightblue" d="M253.183,-56.9327C275.421,-46.9004 305.082,-33.5193 326.652,-23.7888"/>
<polygon fill="midnightblue" stroke="midnightblue" points="328.261,-26.9027 335.937,-19.6 325.382,-20.5219 328.261,-26.9027"/>
</g>
<!-- Node8 -->
<g id="node8" class="node"><title>Node8</title>
<g id="a_node8"><a xlink:href="../../d2/d17/SiftGPU_8h.html" target="_top" xlink:title="../SiftGPU/SiftGPU.h">
<polygon fill="white" stroke="black" points="402,-0.5 402,-19.5 512,-19.5 512,-0.5 402,-0.5"/>
<text text-anchor="middle" x="457" y="-7.5" font-family="Helvetica,sans-Serif" font-size="10.00">../SiftGPU/SiftGPU.h</text>
</a>
</g>
</g>
<!-- Node1&#45;&gt;Node8 -->
<g id="edge7" class="edge"><title>Node1&#45;&gt;Node8</title>
<path fill="none" stroke="midnightblue" d="M277.097,-56.9327C318.816,-46.2811 375.32,-31.8545 413.798,-22.0302"/>
<polygon fill="midnightblue" stroke="midnightblue" points="414.835,-25.3778 423.659,-19.5127 413.104,-18.5954 414.835,-25.3778"/>
</g>
</g>
</svg>
