<?xml version="1.0" encoding="UTF-8" standalone="no"?>
<!DOCTYPE svg PUBLIC "-//W3C//DTD SVG 1.1//EN"
 "http://www.w3.org/Graphics/SVG/1.1/DTD/svg11.dtd">
<!-- Generated by graphviz version 2.36.0 (20140111.2315)
 -->
<!-- Title: external/SiftGPU/src/SiftGPU/SiftMatch.h Pages: 1 -->
<svg width="126pt" height="108pt"
 viewBox="0.00 0.00 126.00 108.00" xmlns="http://www.w3.org/2000/svg" xmlns:xlink="http://www.w3.org/1999/xlink">
<g id="graph0" class="graph" transform="scale(1 1) rotate(0) translate(4 104)">
<title>external/SiftGPU/src/SiftGPU/SiftMatch.h</title>
<polygon fill="white" stroke="none" points="-4,4 -4,-104 122,-104 122,4 -4,4"/>
<!-- Node1 -->
<g id="node1" class="node"><title>Node1</title>
<polygon fill="#bfbfbf" stroke="black" points="4,-69 4,-99 114,-99 114,-69 4,-69"/>
<text text-anchor="start" x="12" y="-87" font-family="Helvetica,sans-Serif" font-size="10.00">external/SiftGPU/src</text>
<text text-anchor="middle" x="59" y="-76" font-family="Helvetica,sans-Serif" font-size="10.00">/SiftGPU/SiftMatch.h</text>
</g>
<!-- Node2 -->
<g id="node2" class="node"><title>Node2</title>
<g id="a_node2"><a xlink:href="../../dd/d0c/SiftMatch_8cpp.html" target="_top" xlink:title="external/SiftGPU/src\l/SiftGPU/SiftMatch.cpp">
<polygon fill="white" stroke="black" points="-1,-1 -1,-31 119,-31 119,-1 -1,-1"/>
<text text-anchor="start" x="7" y="-19" font-family="Helvetica,sans-Serif" font-size="10.00">external/SiftGPU/src</text>
<text text-anchor="middle" x="59" y="-8" font-family="Helvetica,sans-Serif" font-size="10.00">/SiftGPU/SiftMatch.cpp</text>
</a>
</g>
</g>
<!-- Node1&#45;&gt;Node2 -->
<g id="edge1" class="edge"><title>Node1&#45;&gt;Node2</title>
<path fill="none" stroke="midnightblue" d="M59,-58.5322C59,-49.3606 59,-39.2449 59,-31.2931"/>
<polygon fill="midnightblue" stroke="midnightblue" points="55.5001,-58.6789 59,-68.679 62.5001,-58.679 55.5001,-58.6789"/>
</g>
</g>
</svg>
